<svg viewBox="0 0 1122.6 88.8">
<style type="text/css">
	.st0{fill:#A91B18;}
	.st1{fill:#FAF8F7;}
	.st2{fill:#F9F5F4;}
	.st3{fill:#FAF6F6;}
	.st4{fill:#FAF6F5;}
	.st5{fill:#F7F2F1;}
	.st6{fill:#AB271D;}
	.st7{fill:#F7F2F0;}
	.st8{fill:#F6EFED;}
	.st9{fill:#F7F1EF;}
	.st10{fill:#F9F3F2;}
	.st11{fill:#F9F3F1;}
	.st12{fill:#AC2B1F;}
	.st13{fill:#F9F4F2;}
	.st14{fill:#F5ECE9;}
	.st15{fill:#F8F3F1;}
	.st16{fill:#F4EAE7;}
	.st17{fill:#F7F0ED;}
	.st18{fill:#F7EFEC;}
	.st19{fill:#F4E9E5;}
	.st20{fill:#F7EEEB;}
	.st21{fill:#F1E4DE;}
	.st22{fill:#F6EEEB;}
	.st23{fill:#F2E6E1;}
	.st24{fill:#F2E5E1;}
	.st25{fill:#F8F1EF;}
	.st26{fill:#F6EEEA;}
	.st27{fill:#F5EBE7;}
	.st28{fill:#FAF5F4;}
	.st29{fill:#AF3525;}
</style>
<g>
	<path class="st0" d="M135.1,35.2c3.7,1.8,7.3,0.7,11-0.1c3.6,0.6,7.4-0.1,11,1.1c1.9,2.3,3.7-0.2,5.6,0c2.5,0.3,5,0.5,7.5,0.7
		c4.3-1.4,8.7,0,13,0c7.5,0.1,15,0,22.5,0.5c3.7,0.3,7.2,0.5,10.6-0.9c0.9-0.4,1.6,0.2,2.2,0.2c8.8-0.3,17.7-0.7,26.5-1.1
		c0.1,0,0.2-0.3,0.3-0.4c0.3-0.5,0.6-0.5,0.9,0c0.6,0.9,1,1.2,2.5,1.2c4.4,0.1,8.9-2.6,13.1,0.5c4.6-3.8,10.1,1.7,15-1.4
		c0.8-0.5,3.6,2.3,5.5-0.3c1.8-1,3.4,0,4.9,0.7c2.4-0.2,4.9,1.1,7-0.7c3.8-0.4,7.7-1.2,11,1.7c10,0.7,20.3,1.6,29.9-0.7
		c4.4-1,8.2,2.9,12-0.2c0.4-0.3,0.8-0.2,1,0.3c0.1,0.5,0.3,1.4,0.3,1.4c4.2-0.8,8.4-0.7,12.5,0.5c1.6,0.5,3-0.7,4.2-1.8
		c0.3-0.5,0.6-0.5,0.9,0c4,1.7,8.1,1.3,12.1,0c3.3-1.8,6.7,0.3,10.1-0.1c8.6,1.3,17.2-0.2,25.9-0.2c0.7-0.5,1.4-0.5,2.1,0
		c7.7-0.6,15.4,0.3,23.1-0.2c4.4-0.3,9.1,0.2,13.7,0.7c5.7,0.6,11.7,0.3,17.3-0.7c2-0.4,3.1,0.6,4.6,0.6c9.3,0.3,18.5-0.9,27.7-0.7
		c6.3,0.1,12.7,1.1,19.1,1.5c8.7,0.6,17.3-1.9,25.9-0.7c7.5,1.1,15,0,22.3-0.4c7.7-0.4,15.3,0.9,23.1,0.1c6.1-0.6,13.1,1,19.5,0.7
		c10.8-0.4,21.6-0.4,32.3,0.4c7.6,0.6,14.9-2.5,21.9-1.6c6.2,0.8,12.5-0.7,18.3,1c5.1,1.5,9.5-0.8,14.3-0.7
		c8.3,0.1,16.6-0.2,24.8,1.1c1.3,0.2,2.2-0.6,3.1-1.1c1.3-0.1,2.7-1.1,4,0.3c3.6,1.8,7.6,1.3,11.2,0.9c3.3-0.4,6.5-0.7,9.8-0.2
		c0.8-1.1,1.6-2,3-0.7c4.4,2,9.2,1.1,13.7,1.4c8.6,0.6,17.2-2.1,26-1.4c4.1,0.3,8.3-0.2,12.4-0.3c1.3-0.4,2.1,0.3,3,1
		c6.6,0.3,13.2-0.7,19.7-0.8c7.6-0.1,15.2,0.6,22.8,0.9c5.5,0.3,11.3,1.1,16.6-0.3c4.9-1.3,9.6-0.1,14.3-0.4
		c3.9-0.2,8.1-0.5,12.3-0.1c4.9,0.5,10,0.7,15,1.2c2.9,0.3,5.7,1.5,8.3-0.9c0.4-0.4,1.2-0.5,1.8-0.5c9.9,0,19.7,0.9,29.5,1.4
		c6.7,0.4,14,1.7,20.6-1.7c4.9-2,10.1-0.1,15.1-0.8v0.1c2.6-0.9,5.3-0.2,7.9,0c5.8,1.8,11.8,1.7,17.7,1.7c5.9,0,11.9,0.5,17.7-0.3
		c5.2-0.7,10.6,0.6,15.7-1.4c0.3-0.5,0.6-0.5,0.9,0c3.4,1.8,7.3,1.4,10.7,1.4c10.4-0.2,20.8,0.2,31.1,1.3c3,0.3,6.2-0.8,9.5,0.1
		c2.7,0.8,6.5-1.2,7.2,3.7c0.2,1.1,2.5-0.3,3.1,0.9c1.2,6-5.8,8.4-5.8,14c0,0.2-1.1,0.5-1.7,0.7c-0.1,2.4-2.4,3.6-2.9,5.8
		c-10.6,5.6-15.1,6.4-28.2,5c-1.5-0.1-3.2-0.3-4.4,0.2c-2.8,1.3-5.8,1.2-8.3,0.6c-6.8-1.8-13.2-1.5-20-0.2c-5.1,1-10.7-0.4-16.1-1.1
		c-1.5-0.2-2.7-0.6-4.2-0.1c-6.8,2.1-14,2.7-20.6,0.5c-5.2-1.8-9.7,0.7-14.5,0.8c-7.6,0.3-15.1,0.2-22.6-0.7
		c-4.1-0.5-8.3,0.4-12.4,0.4c-6.7,0.1-13.6,1.9-20.1-1.3c-2.6-1.2-4.5,0.7-6.6,0.6c-9-0.4-17.9,2.3-27,0.3
		c-3.2-0.7-6.9,0.1-10.2,0.9c-5.9,1.4-11.4-2-17.2-1.2c-8.1,1-16.1-1.5-24.2-0.3c-3.8,0.5-8.1-0.6-11.4,0c-5.5,1-10.6,0.5-15.8,0.2
		c-8.6-0.4-17,1.5-25.7,0.7c-6-0.5-12.4-0.9-18.9,0.1c-5.3,0.8-11.6,0.8-17.1-0.9c-3.6-1.2-6.7-0.3-9.8,0.2c-6,1-12,2.3-17.8-0.3
		c-2-0.9-4.5-0.7-5.3-0.1c-4,2.9-7.9,0.4-11.7,0.4c-9.1,0.2-18.1,1.1-27.3-0.4c-4.4-0.7-9.8,0.5-14.8,0.6c-1.3-1.7-2.6-1.7-3.9,0
		c-4.4,2-9.3,0.8-13.5,0.4c-9.8-1-19.4-1.6-29.2,0.3c-5.5,1-11.1,0.5-16.6-0.5c-6-1.1-12.2,1.3-18.2-1.1c-1.7-0.7-4.2,0.8-6.2,1.2
		c-3.6,0.8-6.7-0.1-10-0.3c-13.3-1-26.5,0.4-39.8-0.3c-7.7-0.4-15.6,0.3-23.4,0.5c-5.1,0.1-10.3,1.4-15.3,0.6
		c-11.6-1.6-23.1-0.1-34.7,0c-4,0-8.1-1.1-12.1-1.8c-2.5-3.3-5.3-1.3-8-0.3c-5.3,0.5-11-0.2-15.7,0.8c-7.9,1.7-15.6,1-23.3,0.8
		c-13.5-0.4-26.8,0.9-40.3,0.4c-7.6-0.3-15.5-0.5-23.3-0.2c-7.4,0.3-15.1-1-22.5-0.3c-8.2,0.8-16.2-1.5-23.9-0.8
		c-13.8,1.2-27.5-0.8-41.1,0.4c-7.7,0.7-15.4,0-22.9,0.6c-8.5,0.6-16.8-0.8-25-0.5c-7.7,0.2-15.5-0.6-23.2,0.2
		c-11.8,1.4-23.5-0.9-35.4,0.3c-6.2,0.6-12.7,0-19,0.2c-12.1,0.4-24.2-0.3-36.3-0.1c-12.3,0.2-24.9,1.6-37.1-0.7
		c-6.2-1.2-12.1,0.5-18.1,0.2c-4.1-0.2-7.6-1.3-10.9-3.9c-1.9-1.5-2.9-2.6-1.1-4.6c0.3-0.3,0.7-0.8,0.6-1.1c-0.7-2.9-0.7-2.9,2-3.9
		c-0.5-2.2-2.4-3.7-2.4-6.2c-0.1-5.6,3.7-9.7,11-11.7c0.6-0.2,1.2-0.6,1.7-0.8c1-0.4,1.6,0.2,2.1,1c4,2.1,7.5-1.3,11.5-1.1
		c7.1,0.4,14.3,0.8,21.2,0.8c9-0.1,18.3,2.4,27.2-0.6c1-0.1,2-0.3,2.9,0.3c6.5,0.1,12.9,1,19.5,0.4c5.8-0.6,11.7,0.1,17.6-0.7
		C131.9,35.9,133.3,34.4,135.1,35.2z"/>
	<path class="st1" d="M183.2,36.8c-4.3,2.3-8.7,0.2-13,0c0.3-0.8,1-1.6,0.8-2.2c-1-4.2,1.1-3.2,3.3-2
		C177.2,34.2,181.2,33.3,183.2,36.8z"/>
	<path class="st2" d="M157.1,36.2c-3.8,1.2-7.5,0.9-11-1.1c0.7-1.3,1.1-3.7,2.9-3.3c2.8,0.7,5.8,0.1,8.4,1.2
		C158.5,33.5,156.9,35,157.1,36.2z"/>
	<path class="st3" d="M986.3,35.1c-1.4,1.4-2.7,2.2-5,1.1c-3.2-1.5-6.7,1.9-10.1-0.3c3.8-4.4,8.3-3.8,13-1.8l0,0
		C984.7,34.8,985.5,35,986.3,35.1z"/>
	<path class="st4" d="M305.2,36.8c-3.7-0.6-7.3-1.2-11-1.7c7.1-4.7,7.4-4.6,11.6-0.4C307.2,36.2,305.3,36.1,305.2,36.8z"/>
	<path class="st5" d="M388.3,36.1c-3.3,1.7-6.7,0.3-10.1,0.1c0.5-1.8,0.2-4.6,2.9-4.3c1.6,0.1,4.3-0.3,4.8,2.7
		C386,35.1,387.5,35.5,388.3,36.1z"/>
	<path class="st6" d="M434.2,66.8c0.9-5.2,5.4-1.3,7.9-3c0.7-0.5-0.2,2.1,0.1,3.2C439.5,66.3,436.8,68.2,434.2,66.8z"/>
	<path class="st5" d="M994.2,35.1c-2.6,1.4-5.3,1.3-7.9,0C988.5,30.6,988.8,30.6,994.2,35.1z"/>
	<path class="st7" d="M1097.4,63c-2.6-3.7,2.6-3.5,2.9-5.8c0.5,1.1,2.9,0.9,2.3,2.7C1101.7,62.3,1099.3,62.4,1097.4,63z"/>
	<path class="st8" d="M30.2,36.8c-0.7-0.3-1.4-0.7-2.1-1c0.4-3.6,0.4-3.6,5.5-1.6C33.7,36.6,30.3,34.6,30.2,36.8z"/>
	<path class="st9" d="M287.2,35.8c-1.7,0.5-3.4,0.1-4.9-0.7c0.8-1.3,0.6-3.7,2.9-3.4C287.2,32,286.3,34.5,287.2,35.8z"/>
	<path class="st10" d="M810.2,36.9c-1.3,0.6-2-0.6-3-1c0.3-1.1,0.4-2.3,1.1-3.1c0.6-0.8,1.9-1.8,3-0.8c1.1,1.1-0.4,1.6-1,2.2
		C809.3,35,810.4,35.9,810.2,36.9z"/>
	<path class="st11" d="M93.1,36.2c-1,0.5-2,0.5-2.9-0.3c0.2-1.1-1.3-2.3,0-3.1c0.7-0.4,2-0.5,2.8-0.1C94.7,33.6,92.8,35,93.1,36.2z"
		/>
	<path class="st12" d="M661.3,68.1c-1.1-2.2-0.4-2.5,2-2.5s3,0.3,1.9,2.5C663.8,69.2,662.5,69.1,661.3,68.1z"/>
	<path class="st13" d="M416.2,35.8c-0.7,0-1.4,0-2.1,0c-0.5-1.4-2.5-2.1-2.4-4.8C413.8,32.8,417.2,32,416.2,35.8z"/>
	<path class="st14" d="M731.2,36.1c-1.3-0.3-2.7,1.3-4-0.3c1.3-0.7-0.7-3.8,2.2-3.1C731.1,33.1,732.4,34,731.2,36.1z"/>
	<path class="st15" d="M755.2,36.1c-1.2-0.5-1.9,0.8-3,0.7c-0.3-1.6-1.6-3.7,0.8-4.2C754.4,32.4,756.6,33.6,755.2,36.1z"/>
	<path class="st16" d="M135.1,35.2c-1.6,0.5-2.9,3.2-4.9,0.7C131.7,34.6,132.9,31.4,135.1,35.2z"/>
	<path class="st17" d="M812.8,33.8c1.6,0,3.2,0,5.2,0C815.6,35.4,815.6,35.4,812.8,33.8z"/>
	<path class="st18" d="M1046.1,35.1l-0.4-0.1h-0.4c-0.6-1.9-3,0.5-3.3-2.1C1043.1,34.2,1046.4,29.8,1046.1,35.1z"/>
	<path class="st18" d="M246.1,35.1l-0.4-0.1h-0.4c-0.5-1.9-3.1,0.5-3.3-2.1C243.1,34.2,246.4,29.8,246.1,35.1z"/>
	<path class="st19" d="M935.1,33.5c-1.8,1.5-3.4,0.8-5,0.5c-0.1,0-0.1-1.2,0-1.2C931.7,32.7,933.3,32,935.1,33.5z"/>
	<path class="st20" d="M169.7,34.5c-0.2,0.3-0.5,0.9-0.8,0.9c-0.8,0.2-1.6-0.1-1.9-1c0-0.1,0.7-0.6,1.1-0.8
		C168.8,33.3,169.3,33.6,169.7,34.5z"/>
	<path class="st21" d="M348.1,36.1c-0.3-0.1-0.7-0.2-1-0.3c-0.7-1.1-0.6-2.1,0.3-2.9c0.1-0.1,0.6,0,0.7,0.2
		C349,34.1,348.7,35.1,348.1,36.1z"/>
	<path class="st22" d="M280.8,33.7c-0.4-0.4-0.9-0.6-1-1c-0.2-0.7,0.3-1.2,1-1.1c0.3,0,0.8,0.6,0.8,0.9
		C281.7,32.9,281.2,33.2,280.8,33.7z"/>
	<path class="st20" d="M1026.5,32.4c0.5,0.3,1,0.5,1.1,0.8c0.3,0.8-0.2,1.3-0.9,1.3c-0.3,0-0.8-0.5-0.9-0.9
		C1025.7,33.3,1026.2,32.9,1026.5,32.4z"/>
	<path class="st23" d="M394.5,32.3c0.5,0.4,1,0.6,1.1,0.9c0.3,0.7-0.3,1.3-0.9,1.3c-0.3,0-0.8-0.6-0.9-0.9
		C393.7,33.2,394.2,32.8,394.5,32.3z"/>
	<path class="st24" d="M366.1,36.1l-0.4-0.1l-0.4,0.1c-0.3-0.8-1.1-1.7,0-2.5c0.2-0.1,0.7-0.1,0.8,0
		C367.2,34.4,366.4,35.3,366.1,36.1z"/>
	<path class="st22" d="M371.5,36c-0.3-0.5-0.7-0.9-0.8-1.3c-0.1-0.7,0.4-1.2,1.1-1.1c0.3,0.1,0.8,0.6,0.8,1
		C372.6,34.9,372.1,35.3,371.5,36z"/>
	<path class="st25" d="M1018.9,34.4c-0.4,0.4-0.6,0.9-1,1c-0.7,0.2-1.2-0.3-1.1-1c0-0.3,0.6-0.8,0.9-0.9
		C1018.1,33.5,1018.4,34,1018.9,34.4z"/>
	<path class="st22" d="M984.2,34c-0.2-0.7-1-1.5,0-2.2c0.3-0.2,1.1-0.1,1.2,0.1C986.2,33.2,985,33.5,984.2,34L984.2,34z"/>
	<path class="st26" d="M74.8,34.7c-0.4-0.4-0.9-0.6-1-1c-0.2-0.7,0.3-1.2,1-1.1c0.3,0,0.8,0.6,0.8,0.9
		C75.7,33.9,75.2,34.2,74.8,34.7z"/>
	<path class="st27" d="M226.9,33.3c-0.4,0.4-0.6,1-0.9,1.1c-0.7,0.2-1.2-0.3-1.2-1c0-0.3,0.6-0.8,0.9-0.9
		C226,32.5,226.4,33,226.9,33.3z"/>
	<path class="st28" d="M19,51c0-0.1-0.3,0.6-0.4,0.5c-0.7-0.4-1.6-0.8-1.3-1.8c0.1-0.3,0.7-0.7,1.1-0.6C19.2,49.2,19.3,49.9,19,51z"
		/>
	<path class="st29" d="M803.4,63.4c0.5,0.3,1,0.5,1.1,0.8c0.3,0.7-0.2,1.3-0.9,1.3c-0.3,0-0.8-0.5-0.9-0.9
		C802.7,64.3,803.1,63.9,803.4,63.4z"/>
</g>
</svg>
