<svg viewBox="0 0 1113.6 70">
<style type="text/css">
	.st0{fill:#C52724;}
	.st1{fill:#D86A67;}
	.st2{fill:#CE4340;}
	.st3{fill:#C93230;}
	.st4{fill:#D35252;}
	.st5{fill:#D04946;}
	.st6{fill:#D76562;}
	.st7{fill:#F0C9C9;}
	.st8{fill:#D76362;}
	.st9{fill:#CD443E;}
	.st10{fill:#E39494;}
	.st11{fill:#D35453;}
	.st12{fill:#F3D2D2;}
	.st13{fill:#E69E9D;}
	.st14{fill:#CE4443;}
	.st15{fill:#E7A8A5;}
	.st16{fill:#E59B9A;}
	.st17{fill:#CA3634;}
	.st18{fill:#E6A3A3;}
</style>
<g>
	<path class="st0" d="M828,51.2c-10.1-0.1-20.2-0.5-30.3-0.1c-7.1,0.3-14,1.4-21.1-0.2c-5.5-1.2-11,1.3-16.7,0.7
		c-8-0.9-16.2-0.7-24.3-0.6c-9.8,0.2-19.6,1.1-29.4,0.1c-3.2-0.3-6.5-1.4-9.7,0c-2.3-1.5-4.9-0.8-7.3-1.1c-1.3,0-2.6,0-3.9,0
		c-1.8-0.1-3.5,0.8-5.2,0.9c-1.6,0.3-3.2,0.7-4.8,1c-1.1-0.5-2.1,0.8-3.1,0.1c-7.1,0.9-13.9-1.8-21-1.5c-6.7,0.3-13.4,1.9-20.1,1.1
		c-3.6-0.4-7.2-0.3-10.6-1.6c-6.5-0.3-12.9,0.4-19.3,1c-9.9-1.5-19.8,1-29.9-0.6c-6.2-1-13.1,0.5-19.7,1.2
		c-8.7,0.9-17.8,1.5-26.5-1.6c-3.2-1.1-6.5,0.1-9.6,0.3c-9.1,0.8-18.2,1.4-27.4,1.4c-0.9,0-1.9-0.5-2.8-0.7c-4-1.5-8.3,0.2-12.4-0.9
		h-0.4c-1.3,0-1.8,1.1-2.4,1.9c-5.9,0.1-11.7-0.4-17.6-1.3c-2.4-0.4-4.8,2.2-7.3,0.1c-3.1-0.5-6.1-1.4-9.3-0.8
		c-1.2,0.3-2.5,0.6-3.7,0.9c-2.3-1.2-4,0.9-6.1,0.9c-7.4,0.4-14.8-1.5-22.3-0.7c-7.9,0.9-15.8,0.6-23.7,0.1
		c-5.1-0.3-10.3,0-15.4-0.5c-5-0.5-10,0.5-15,0.6c-4.9,0.1-9.7-0.1-14.5-0.6c-5.7-1.2-11.3-1.2-17,0.1l0,0c-3.3-0.8-6.7-0.6-10,0
		c-3.2,2.4-6.3,0-9.4-0.2c-9.1-0.5-18.2-1-27.3-0.2c-9.9,0.8-19.6,2.5-29.6,0c-3.1-0.8-7.5-0.1-11.3,1c-3.2,0.9-6.9-0.1-10.3-0.1
		c-8.7,0-17.3,0.2-26-0.1c-3.8-0.1-7.8,0.7-11.8,0.5c-2.5-0.6-5-0.4-7.5,0c-0.3,0-0.5,0-0.8,0.1c-2.1-1.2-4.1-0.5-6.2-0.1
		c-5.8,0.5-11.6-0.4-17.4-0.2c-5.7,0.2-11.6-0.3-17.4-0.1c-6.4,0.2-12.6-0.7-19.1-0.4c-7.7,0.4-15.7-0.4-23.5-0.5
		c-10.2-0.1-20.6-0.3-31,0.8c-11.3,1.2-23.1,2.2-34-3.5c-0.8-0.4-1.9-0.5-2.9-0.7c-0.9-0.2-1.8-0.5-3.3-1c3.3-1.7,4.7-3.3,1.4-5.5
		c-0.3-0.2-0.6-0.2-0.9-0.2c0.2-0.2,0.3-0.5,0.4-0.5c3.1,0.4,2.4-3,4-4.1c2.4-1.3,1.9,1.2,2.6,2c-0.3-1.1-0.8-2.3,0-3.4
		c-0.1-0.3-0.2-0.6-0.3-0.9c-0.8-2.3-6.3-1.2-4.3-5.5c2.2-4.7,7.8-8.1,11.8-7.4c5.4,1,10.9,0.2,16.3,0.4c13.6,0.4,27.2-0.6,40.9,0.1
		c5.4,0.3,10.9,0.7,16.5-0.2c8.2-1.4,16.6-0.5,24.9,0.2c2.9,0.3,5.9,0.6,8.6,0c7.9-1.6,15.8-0.2,23.7-0.5c8.9-0.4,18.1,1.1,27,0.8
		c12.2-0.5,24.3,1.1,36.4-0.1c10.1-1,20.3-1.1,30.3-0.2c6.8,0.6,13.9,1.4,20.3,0.3c9.8-1.6,19.3,0.5,28.9-0.8
		c8.4-1.1,16.8,0.7,25.2-0.3c8.8-1.1,17.8-0.1,26.7,0c12.6,0.1,25.3-1.3,37.8,1.4c2.9,0.6,5.4-1.1,8.2-1.2c12.4-0.8,24.6,2.3,37,1
		c14.8-1.6,29.6-0.7,44.4-0.7c12.6,0,25.1,0.3,37.7-0.5c5.2-0.3,10.9,1.1,16.2,0.6c11.4-1.2,22.7,0.5,34.1-0.2
		c7-0.4,14.3-0.3,21.5-0.1c8.1,0.2,16.4,1.1,24.7-0.3c5.6-0.9,11.7-0.4,17.4,0.1c9.1,0.7,18.2,0.5,27.1,0.6
		c8.8,0.2,17.9-0.8,26.8-0.6c7.5,0.2,15.1,0.1,22.5,1.7c0.8,0.2,1.7,0.3,2.4,0c8.1-3.3,16.6-1.6,24.7-0.9
		c10.8,0.8,21.4-1.4,32.1-0.6c5.2,0.4,10.5,1.1,15.6,0.6c8.9-0.9,17.8,1.2,26.8-0.4c5.3-1,10.9-0.1,16.4-0.2
		c15.6-0.4,31.2,0.8,46.9-0.2c9.6-0.6,19.6,0.6,29.3,0.9c5.9,0.2,12.1,1.7,18-0.4c1.8-0.6,3.7-0.5,5.4,0.1c2.7,1,5.3,1,7.7-0.4
		c3.4-1.9,7.3-0.9,10.5-0.6c11.3,0.9,22.6-0.4,33.9,1.2c3,0.4,6.2,0.2,9.3-0.2c9.5-1.4,19,0.2,28.5-0.2c1.8-0.1,3.5,0.7,5.3,1.1
		c1.6,1.4,2.9-1,4.4-0.3c2.8,1.2,4.9-1.4,7.5-1.3c8.9,0.3,17.8,0.8,26.7,0.8c8.5,0,16.9,0.2,25.4,0.7c0.6,1.5,1.7,1.6,3,1.2
		c3.7,0.1,4.3,3,5.2,5.7c0.1,1.4-1.3,1.4-2,2.1c-2.5,2.2-4,5-5.1,8c-0.6,1.3-2.6,0.3-3,1.9c-0.9,0.8-3.2,0.4-2.2,2.9
		c0.2,0.6-1.1,1.5-1.8,2.2c-1.2,0.7-1.7,2.5-3.3,2.6c-8.1,0.8-15.7,4-24.2,3.4c-10.3-0.7-20.7-0.1-31,0c-0.7,0-1.4,0.4-2,0.2
		c-13.5-5.2-27.4-0.7-41-0.9c-10.9-0.1-21.7-0.8-32.6-0.7c-1.7,0-3-1.5-4.7-0.6c-4.3,1.5-8.8-1-13.1,0.9c-8.9-1.3-17.8,1.4-26.8,0.3
		c-7.4-0.9-15.1,0.1-22.6,0.9c-5.6,0.6-11-1.5-16.4-0.3c-5.5-3.3-11.3-0.6-16.9-0.7C843.6,51,835.8,51.1,828,51.2z"/>
	<path class="st1" d="M828,51.2c11-1.8,22.2,0.1,33.2-1.9c2.2-0.4,5.2,0.6,7.1,2.6c-7.4-2.2-14.8,1.6-22,0.2
		C840.1,50.8,834,53.3,828,51.2z"/>
	<path class="st2" d="M318.2,51c0.6-0.2,1.4-0.1,1.9-0.5c5.2-4.5,10.1-1,15.1,0.4C329.5,51.3,323.9,53.3,318.2,51z"/>
	<path class="st3" d="M601.1,51c6.3-2.5,12.8-2.8,19.3-1C614,51,607.7,53.2,601.1,51z"/>
	<path class="st4" d="M689.1,50c0.9-0.4,1.9-0.6,2.6-1.1c2.9-2,4.1-0.7,4.7,2.2C693.6,53.1,691.5,50.6,689.1,50z"/>
	<path class="st5" d="M934.2,50.9c4.1-3.4,8.7-1,13.1-0.9C943,51.8,938.5,50.9,934.2,50.9z"/>
	<path class="st6" d="M1093.2,39c0.4-3.5,1-6.9,5.1-8C1095.2,32.8,1098.1,38.4,1093.2,39z"/>
	<path class="st7" d="M1100.3,28.9c-1.1-2.7-2.9-4.7-6-5.1c-0.3-0.2-0.5-0.5-0.4-0.7c0.1-0.3,0.2-0.4,0.3-0.4
		C1098.6,21.6,1099.9,22.9,1100.3,28.9z"/>
	<path class="st2" d="M308.2,51c3.3-3,6.7-0.8,10,0C314.9,50.7,311.5,52.6,308.2,51z"/>
	<path class="st8" d="M1086.1,46c1.3-1.7-0.3-5.7,4-5C1090.4,43.9,1089.6,46,1086.1,46z"/>
	<path class="st9" d="M472.9,50.1c4.1,0.1,8.4-1.7,12.4,0.9c-3.8,0.1-7.6-0.8-11.3,0.5C473.1,51.8,473.2,50.7,472.9,50.1z"/>
	<path class="st10" d="M426.1,52c1.6-3,3.8-2.7,6.1-0.9C430.3,52,428.5,54,426.1,52z"/>
	<path class="st11" d="M436,50.1c3.3-2.5,6.2-0.3,9.2,0.8C442.2,49.8,438.9,52.7,436,50.1z"/>
	<path class="st12" d="M175,51.9c2.5-3.3,5,0,7.5,0C180,51.8,177.5,53.4,175,51.9z"/>
	<path class="st13" d="M168.1,51.9c1.5-0.5,3-0.9,4.5-1.5c1.9-0.8,1.8,0.4,1.7,1.6C172.2,52.5,170.1,52.3,168.1,51.9z"/>
	<path class="st14" d="M27.1,34.7c0.1,1.4,0.4,2.7,1.3,3.9c-2.7,1-1.8-2.9-3.9-2.5C24.9,34.8,26.1,35,27.1,34.7z"/>
	<path class="st15" d="M680.1,50.9c1.6-1.1,3.2-2.2,5.2-0.9C683.7,51.1,682,51.8,680.1,50.9z"/>
	<path class="st16" d="M672.2,52c1.1-0.2,1.1-2.3,2.6-1.8c0.8,0.2,0.6,1.1,0.5,1.7C674.3,53.4,673.2,53.1,672.2,52z"/>
	<path class="st9" d="M470.1,52.1c0.3-0.9-0.9-2.1,0.2-2.7c0.4-0.3,1.5,0.5,2.2,0.8C471.9,51.1,471.8,52.5,470.1,52.1z"/>
	<path class="st17" d="M1032.6,21.8c-1.5,0.2-2.7,3.4-4.4,0.3C1029.7,22.1,1031,20.2,1032.6,21.8z"/>
	<path class="st18" d="M1094.2,22.7c0,0.4,0.1,0.7,0.1,1.1c-0.7,0.2-1.3,1.1-2.2,0.4c-0.9-0.7,0-1.4,0-2.1
		C1092.8,22.3,1093.5,22.5,1094.2,22.7z"/>
</g>
</svg>
