<svg viewBox="0 0 1124.9 74.5">
<style type="text/css">
	.st0{fill:#921A14;}
	.st1{fill:#F6F2F1;}
	.st2{fill:#F7F3F2;}
	.st3{fill:#F9F7F6;}
	.st4{fill:#F4ECEA;}
	.st5{fill:#F8F4F2;}
	.st6{fill:#F9F4F3;}
	.st7{fill:#96291C;}
	.st8{fill:#982E1F;}
	.st9{fill:#F4EBE7;}
	.st10{fill:#F5EEEB;}
	.st11{fill:#F0E6E3;}
</style>
<g>
	<path class="st0" d="M487,20.7c7.5,1.4,15.1,0.9,22.7,1.3c4,0.2,8.6-0.5,12.7-0.2c4.6,0.4,9.3,0.2,13.8,0.3
		c5.8,0.1,11.7,1.1,17.7-0.3c5-1.1,10.3,0.2,15.6-0.1c9.7-0.5,19.5-0.9,29.2,0.8c3.1,0.5,6.2-0.8,9.4-0.1c0.4-1,1.2-1.4,2.1-1.8
		c6,1,12.1,1.1,18.1-0.2c1.7-0.4,2.8-1.8,4.3,0.7c1.3,2.2,4-0.3,6.2,0.3c7.9,2.1,16.1,0.2,24.1,0.8c5.7,0.4,11.5-0.4,17.4-0.1
		c6.5,0.3,13.5,2.2,19.6,0.5c6.2-1.8,12.6,2,18.2-2c2.2-1.2,4-0.1,5.9,0.7c4.7,0.3,9.4,0.8,14.1,0.8c4.9,0,9.8-1.3,14.7-0.3
		c0.3,0.1,0.8-0.9,1.1-1.4c1.2-0.4,1.6,0.4,2,1.2c5.1,1.1,9.9,1.1,15.2,0.2c7.3-1.2,15.1-0.9,22.6-0.2c8.9,0.8,17.7-0.6,26.4-0.3
		c4.7,0.1,9.7-0.5,14.4,1c3,1,5.7-1,8.7-1c9.4,0.3,18.8,0.7,28.2-0.1c9.9-0.8,19.4,0.8,29.1,2.1c1.7,0.2,3.5,0.4,5.1-1
		c1.3-1.2,3.3-1,5.2-1.1c6.1-0.4,12.2,1,18.5-0.1c2.7-0.5,6.5-0.2,9.8,0.4c7.1,1.3,14.3,0.1,21.4,1.7c0.1,0,0.4-0.5,0.5-0.7
		c0.3-0.3,0.6-0.4,0.9-0.2c5.3-2,10.8,0.4,15.8-0.3c5.3-0.8,11,3.7,16.1-1.2c0.7-0.7,4.5,0.8,7.1,0.8c6.9-0.1,14,1.4,20.8,0.6
		c6.7-0.7,13.4-0.4,20.1-0.9c5-0.4,10.5,0,15.7,0.4c4.1,0.3,8.2,0.1,12.1,1.2c0.1,0,0.4,0.3,0.4,0.3c4.6-4.4,10-1.3,15-1.7
		c5.4-0.4,10.7,1.1,16,1.5c1.7,0.1,7.2,1.5,5.2,7.1c-1.5,4.1-3.3,8.5-6.8,11.4c-0.8,0.7-2,2-2,2.3c-1.7,6.8-8.3,8.5-13.2,10.1
		c-4.5,1.5-10.3,1.2-15.6,0.3c-5.9-1-11.9-1.1-17.9-0.1c-4.1,0.7-8.4,1-12.5,0.4c-14.2-2.1-28.6-0.9-42.8-1
		c-8.4-0.1-16.8-1.2-25.1-0.5c-3.5,0.3-7.1-0.4-10.6,1c-2.2,0.9-5.2,1.2-7.4,0.4c-5.9-2-12.5-1.8-17.9-1.1
		c-8.3,1.1-16.6,0.4-24.9,1.6c-4.2,0.6-9.1-1.2-13.6-0.7c-10.5,1.1-20.9-1.2-31.3-1.3c-11.9-0.1-24-0.9-35.9,2.1
		c-2.2,0.6-4.7-0.1-7.1-0.5c-7.8-1.2-15.5,0.2-23.2,0c-13.4-0.5-27,0.4-40.2-2.9c-0.9-0.2-1.6,1.4-2.5,0.1c-1.3-1.7-2.6-0.6-3.8,0
		c-8.7,1.4-17.4,1.4-26.1,1.9c-7,0.4-14-0.3-20.9-0.3c-9.7-0.1-19.3,2.3-29.1,0.4c-4.3-0.8-8.8,0.8-13.4,0.3
		c-8.6-1-17.4-0.4-26.2-0.6c-2.6-0.1-5-1.1-7.7-0.9c-5.7,0.4-11,3.1-17,2.1c-11.6-2.1-23.4,0.9-35.2-0.7c-4.4-0.6-9.5-0.8-14.4,0.4
		c-5,1.2-10.5,0-15.6-1.6c-2.6-0.8-3.6,2.4-6.3,2c-4.7-0.8-9.5-1-14.2-1.1c-4.4-0.1-8.7,0.1-13.2,1.3c-2.5,0.7-6.1,0.1-9.1-0.5
		c-9.1-1.8-18.2,0-27.2-0.2c-9.1-0.2-18.4,1.6-27.4-1.6c-0.8-0.8-0.9-3.5-2.9-1c-0.8,0.5-1.6,1.6-2.3,1.5c-8.7-1.5-17.3,0.9-26,1.2
		c-12,0.4-24.1-3.3-36,0.7c-8.8-2.8-18.1,1.4-26.8-2.1c-1.2-0.5-2.4-0.7-3.4-0.4c-8.3,2.8-16.5,0.9-24.8,0.1
		c-4.1-0.4-8.1,1.7-12.6,1.4c-9.9-0.6-20-0.6-29.8-0.2c-7.7,0.4-15.5,0.5-23-0.7c-5.9-0.9-11.2,1.6-16.8,1.1
		c-1.6-0.1-3.1,0.2-4.8-0.4c-2.7-1-5.6,0.1-8.4,0.2c-8.4,0.3-17,0.6-25.3-0.2c-12.4-1.2-24.7,0.6-37,0.4c-4.5-0.1-8.6-0.3-12.8-1.6
		c-1.9-0.6-4-0.7-6.4,0.3s-5.3,1.6-8.3,0.6c-5.6-1.8-11.7-1.6-17.2-0.9c-13.2,1.8-26.4-0.4-39.6,1.5c-7.2,1-14.9,0.9-22.3-0.6
		c-4-0.8-8.1,1.5-12.2,1c-1.2,1.6-2.1,1.4-3-0.3c-4-2.9-8.5-1.2-12.5-0.7c-6.4,0.8-11.8-1-16.3-4.9c-1.2-1.1-0.3-4.9-0.1-7.4
		c0.2-1.6,3.6,0,3-2.2c-0.7-2.6,2.4-1.5,2.3-3.6c-0.9-1-3.8,1-4-2c-0.2-5.3-0.2-5.2,4.3-7.5c3.8-1.9,7.4-5.2,11.9-4.6
		c5.4,0.8,10.8-0.7,16.3,0.5c4.3,0.9,9.3,1.3,13.9-0.5c0.9-0.3,2-0.2,3-0.1c4.8,0.6,9.8,0.6,14.6,0.6c9.4,0.1,18.8-0.6,28.2-0.6
		c7.3,0,14.6,0.3,21.9,0.5c6.5,0.2,13.1,0.3,19.7-0.4c4-0.4,8,0.7,12.1,0.5c6.6-0.2,13.2,1.3,19.6-0.3c2.4-0.6,4.1,0.9,6.1,0.5
		c1.2-1.1,2.5-1.5,4-0.8c0.4,1,1.3,1.1,2,0.9c6.1-1.7,12.3,0.3,18.4,0c2.8-0.1,5.5-0.3,8.3-0.6c6.4-0.8,13-0.7,19.4-0.1
		c4.2,0.4,8.6,0.2,12.7,0.2c3.7,0.1,8.5-1.4,11.8-0.7c4.1,0.9,8.2-0.4,12.3,0.8c2.2,0.6,5.8,0.4,8.9-0.2c7.1-1.4,14.4-1.4,21.7,0.3
		c4.4,1.1,9.2,0.5,13.6-1c0.2-0.1,0.5-0.3,0.7-0.3c3.7,1.9,7.5,0.4,11.3,0.5c8.4,0.2,16.8-0.2,25.1,0.2c6.4,0.3,12.9,0.8,19.2,0.6
		c6.1-0.2,12.2,0.2,18.3-0.4c4.6-0.5,9.4,0.9,14.2,1c2.7,0,5.6,1.4,8.1-0.7c1.1-0.9,2.2-0.5,3.3-0.5c11,0,22-0.9,32.9,0.2
		c7.4,0.8,14.7-1.7,21.9,0.6c0.2,0.1,0.6-0.6,1-0.9C482.2,20.4,484.4,19.1,487,20.7z"/>
	<path class="st1" d="M195,21.7c-1.3,0.5-2.5,1.4-4,0.8c-0.1-0.6-0.6-1.3-0.4-1.8c0.5-1.3-0.9-3,0.6-4.1c1.3,2,3.9,0.1,5,1.3
		C197.2,18.9,195.4,20.3,195,21.7z"/>
	<path class="st2" d="M487,20.7c-2.3,0.8-4.6,1-7,0.9c0.2-0.4,0.4-0.9,0.6-1.3c0.7-1.2-1.3-3.8,1.2-3.6
		C484,16.8,487.4,16.8,487,20.7z"/>
	<path class="st3" d="M724,21.4c-2.1,0.4-4.1,0.4-5.9-0.7c-0.5-1.5-1.4-3.5,0.2-4.3c1.5-0.8,3,0.8,4,2.1
		C723,19.3,723.4,20.4,724,21.4z"/>
	<path class="st4" d="M610.1,20.6c-0.5,0.8-0.9,1.8-2.1,1.8c-1-0.9,0.2-2.3-0.5-3.1c-0.5-0.6-2.7,0.1-1.6-1.8c0.4-0.6,1.7-1.1,2.4-1
		c1.4,0.2,1.3,1.5,1,2.6C609.1,19.8,609.5,20.3,610.1,20.6z"/>
	<path class="st5" d="M962,22.4c-0.3,0.1-0.6,0.2-0.9,0.2c-1.6-0.2-3.1-0.4-2.2-2.6c0.3-0.8,0.8-2.3,1.9-1.7
		C962.3,19.1,963,20.6,962,22.4z"/>
	<path class="st6" d="M47.1,54.5c0.9,1,1.9,0.8,3,0.3c0.9,2,0.2,4.2-1.6,4C46.6,58.7,46.1,56.4,47.1,54.5z"/>
	<path class="st7" d="M446.1,51.7c-0.4-0.6-1.3-1.6-1.1-1.8c0.6-0.8,1.5-1,2.6-0.5c1.7,0.7,2.4,1.6,1.4,3.4
		C448,52.4,447,52.1,446.1,51.7z"/>
	<path class="st8" d="M752.1,51.8c0.6-1.8,2-2.9,3.7-2.5c1.4,0.3,0.4,1.6,0.1,2.5C754.6,52.8,753.4,52.8,752.1,51.8z"/>
	<path class="st9" d="M756,21.7c-0.7-0.4-1.3-0.8-2-1.2c0.1-0.8,0.3-1.8,1.4-1.5C757,19.4,756.4,20.6,756,21.7z"/>
	<path class="st10" d="M733,18.3c-0.6,0.3-0.9,0.7-1.4,0.7c-0.7,0.1-1.2-0.4-1.1-1.1c0.1-0.3,0.6-0.8,1-0.8
		C731.9,17.2,732.3,17.7,733,18.3z"/>
	<path class="st11" d="M752.9,18.1c-0.2,0.2-0.5,0.9-0.6,0.9c-0.6-0.2-1.1-0.6-1.6-0.9c0.4-0.3,0.8-0.6,1.2-0.8
		C752.4,17,752.8,17.4,752.9,18.1z"/>
	<path class="st4" d="M933.1,18.4c-0.6,0.3-1,0.6-1.5,0.7c-0.7,0.1-1.2-0.4-1.1-1.1c0.1-0.3,0.6-0.8,1-0.8
		C931.9,17.1,932.2,17.7,933.1,18.4z"/>
</g>
</svg>
