<svg viewBox="0 0 508 40">
<style type="text/css">
	.st0{fill:#36326E;}
	.st1{fill:#38346F;}
	.st2{fill:#322E6A;}
	.st3{fill:#332F6B;}
	.st4{fill:#322F6B;}
	.st5{fill:#423E76;}
	.st6{fill:#332F6C;}
</style>
<g>
	<path class="st0" d="M399.8,22c-1.3,0-2.5,0-3.8,0c-0.8,0-1.7-0.1-1.8-1.1c-0.2-1.1-0.4-2.2,0.3-3.2c0.2-0.3,0.8-0.5,1.2-0.5
		c2.8-0.1,5.7-0.1,8.5,0c1.5,0,1.9,0.5,2,2.1c0.1,2.1-0.3,2.7-2.2,2.8C402.7,22.1,401.2,22,399.8,22L399.8,22z"/>
	<path class="st0" d="M376,22c-1.1,0-2.2,0-3.3,0c-2.6,0.1-2.8-1.5-2.2-3.9c0.2-0.7,0.8-0.9,1.5-0.9c2.8,0,5.7-0.1,8.5,0
		c1.5,0,1.8,0.5,1.9,2.1c0,0.5,0,0.9,0,1.4c0,0.7-0.5,1.2-1.2,1.2c-1.7,0.1-3.5,0-5.2,0L376,22L376,22z"/>
	<path class="st0" d="M256.8,22c-1.3,0-2.5,0-3.8,0c-0.8,0-1.7-0.1-1.8-1.1c-0.2-1.1-0.4-2.2,0.3-3.2c0.2-0.3,0.8-0.5,1.2-0.5
		c2.8-0.1,5.7-0.1,8.5,0c1.5,0,1.9,0.5,2,2.1c0.1,2.2-0.3,2.7-2.7,2.8c-0.3,0-0.6,0-0.9,0C258.7,22,257.7,22,256.8,22L256.8,22z"/>
	<path class="st0" d="M209,22c-1.4,0-2.8,0.1-4.3,0c-1.2-0.1-1.6-0.8-1.5-2.4c0-1.6,0.5-2.3,1.7-2.3c3-0.1,6,0,9,0
		c0.9,0,1.4,0.7,1.4,1.5c0,0.6,0,1.3,0,1.9c0,0.7-0.5,1.2-1.1,1.2C212.5,21.9,210.8,21.9,209,22C209,21.9,209,21.9,209,22z"/>
	<path class="st0" d="M114.1,22c-1.1,0-2.2,0-3.3,0c-2.5-0.1-3-0.6-2.7-3.2c0.1-1.2,0.7-1.7,1.8-1.7c2.8,0,5.7-0.1,8.5,0
		c1.5,0,1.8,0.7,1.8,2.7c0,1.5-0.4,2.1-1.9,2.1C116.9,22.1,115.5,22,114.1,22L114.1,22z"/>
	<path class="st0" d="M66.6,17.1c0.9,0,1.9,0,2.8,0c3-0.1,3.1,0.7,2.9,3.4c0,0.7-0.4,1.3-1.1,1.3c-3.3,0.1-6.6,0-9.9,0
		c-0.3,0-0.9-0.5-1-0.8c-0.8-2.2,0.2-3.8,2.4-3.9C64,17.1,65.3,17.1,66.6,17.1L66.6,17.1z"/>
	<path class="st1" d="M90.3,22c-1.1,0-2.2,0-3.3,0c-2.6-0.1-3-0.7-2.8-3.2c0.1-1.1,0.7-1.7,1.8-1.7c2.7,0,5.4,0,8.1,0
		c0.8,0,1.6,0.2,1.9,1.1c0.3,1.1,0.5,2.2-0.2,3.2C95.6,21.7,95,22,94.6,22C93.2,22,91.7,22,90.3,22L90.3,22z"/>
	<path class="st1" d="M233.2,22c-1.3,0-2.5,0-3.8,0c-1.9-0.1-2.3-0.7-2.2-2.8c0.1-1.6,0.5-2.1,2-2.1c2.5-0.1,5.1-0.1,7.6,0
		c2,0,2.4,0.5,2.4,2.6c0,1.8-0.4,2.2-2.2,2.3C235.8,22.1,234.5,22,233.2,22z"/>
	<path class="st2" d="M471.7,21.9c-1.6,0-3.2,0-4.7,0c-0.7,0-1.1-0.5-1.1-1.3c0-0.5-0.1-0.9-0.1-1.4c0.1-1.5,0.5-2,1.9-2.1
		c2.5-0.1,5.1-0.1,7.6,0c2,0,2.4,0.4,2.4,2.6c0,1.9-0.3,2.2-2.2,2.3c-0.3,0-0.6,0-0.9,0C473.6,22,472.6,22,471.7,21.9
		C471.7,22,471.7,22,471.7,21.9z"/>
	<path class="st2" d="M447.7,22c-1.3,0-2.5,0-3.8,0c-0.8,0-1.7-0.1-1.8-1.1c-0.2-1.1-0.4-2.2,0.3-3.2c0.2-0.3,0.8-0.5,1.2-0.5
		c2.5-0.1,5.1-0.1,7.6-0.1c2.4,0,2.7,0.4,2.7,2.8c0,1.6-0.4,2-1.9,2.1C450.5,22,449.1,22,447.7,22z"/>
	<path class="st3" d="M423.4,22c-1.1,0-2.2,0-3.3,0c-0.8,0-1.7-0.1-1.9-1c-0.2-1.1-0.4-2.2,0.3-3.2c0.2-0.3,0.8-0.5,1.3-0.5
		c2.4-0.1,4.8,0,7.2-0.1c2.8-0.1,3.1,0.7,2.9,3.5c-0.1,1-0.7,1.3-1.6,1.3C426.6,22,425,22,423.4,22L423.4,22z"/>
	<path class="st2" d="M42.8,17.1c1.1,0,2.2,0,3.3,0c2.1,0.1,2.4,0.4,2.4,2.6c0,1.9-0.3,2.2-2.2,2.3c-2.7,0-5.4,0-8.1,0
		c-1.2,0-1.6-0.7-1.7-1.8c-0.1-2.5,0.3-3,2.9-3.1C40.6,17.1,41.7,17.1,42.8,17.1L42.8,17.1z"/>
	<path class="st3" d="M352.5,22c-1.3,0-2.5,0-3.8,0c-0.8,0-1.7-0.1-1.9-1c-0.2-1.1-0.4-2.2,0.3-3.2c0.2-0.3,0.8-0.5,1.2-0.5
		c2.5-0.1,5.1-0.1,7.6-0.1c2.2,0,3.2,1.8,2.3,3.9c-0.1,0.4-0.7,0.6-1.1,0.8c-0.1,0.1-0.3,0.1-0.5,0.1C355.4,22,353.9,22,352.5,22
		L352.5,22z"/>
	<path class="st2" d="M328.9,17.1c1.1,0,2.2,0,3.3,0c2.1,0.1,2.4,0.4,2.4,2.6c0,1.9-0.3,2.2-2.2,2.3c-2.7,0-5.4,0-8.1,0
		c-1.2,0-1.6-0.7-1.7-1.8c-0.1-2.5,0.3-3,2.9-3.1C326.7,17.1,327.8,17.1,328.9,17.1L328.9,17.1z"/>
	<path class="st2" d="M304.5,22c-0.9,0-1.9,0-2.8,0c-2.9,0.1-2.8-0.7-2.7-3.1c0-1.1,0.7-1.7,1.8-1.7c2.7,0,5.4,0,8.1,0
		c0.8,0,1.6,0.1,1.9,1.1c0.3,1.1,0.4,2.2-0.2,3.2c-0.2,0.3-0.8,0.5-1.2,0.5C307.6,22,306.1,22,304.5,22L304.5,22z"/>
	<path class="st3" d="M281.2,22c-1.1,0-2.2,0-3.3,0c-2.6-0.1-3-0.6-2.7-3.2c0.1-1.2,0.7-1.7,1.8-1.7c2.5,0,5.1-0.1,7.6,0
		c1.9,0,2.3,0.5,2.3,2.7c0,1.6-0.4,2-1.9,2.1c-0.3,0-0.6,0-1,0C283.1,22,282.1,22,281.2,22z"/>
	<path class="st2" d="M185.2,22c-0.9,0-1.9,0-2.8,0c-2.7,0.1-2.8-0.6-2.7-3.1c0.1-1.1,0.7-1.7,1.8-1.7c2.7,0,5.4,0,8.1,0
		c0.8,0,1.6,0.1,1.8,1.1c0.2,1.1,0.4,2.2-0.2,3.2c-0.2,0.3-0.8,0.5-1.2,0.5C188.4,22,186.8,22,185.2,22L185.2,22z"/>
	<path class="st4" d="M161.4,22c-1,0-1.9,0-2.9,0c-2.8,0.1-2.7-0.7-2.6-3.2c0-1.2,0.8-1.6,1.9-1.6c2.5,0,5.1,0,7.6,0
		c1.8,0,2.1,0.5,2.2,2.3c0,2.1-0.3,2.4-2.4,2.5C163.9,22,162.6,22,161.4,22L161.4,22z"/>
	<path class="st2" d="M137.4,22c-1.1,0-2.2,0-3.3,0c-2-0.1-2.2-0.3-2.2-2.2c0-2.2,0.3-2.6,2.3-2.6c2.4-0.1,4.7,0,7.1,0
		c2.1,0,2.5,0.5,2.5,2.5c0,1.9-0.3,2.3-2.1,2.3C140.3,22,138.8,22,137.4,22z"/>
	<path class="st5" d="M493.2,17c0.1,0,0.6,0,1.1,0.1c0.9,0.1,1.4,0.6,1.5,1.6c0,0.8,0,1.6-0.1,2.4c0,0.3-0.2,0.6-0.5,0.8
		c-0.8,0.6-4.2,0.7-5.1,0c-0.2-0.2-0.4-0.5-0.5-0.8C488.8,18.1,489.8,16.9,493.2,17z"/>
	<path class="st6" d="M21.2,22.1c-0.2,0-0.7,0-1.1-0.1c-0.9-0.1-1.4-0.6-1.4-1.5c0-0.6-0.1-1.3,0-1.9c0.1-0.9,0.5-1.5,1.4-1.5
		s1.9,0,2.8,0c1.2,0,1.6,0.7,1.7,1.8C24.8,22,24.4,22.1,21.2,22.1z"/>
</g>
</svg>
