<svg viewBox="0 0 773 110">
<style type="text/css">
	.st0{fill:#1D1D1D;}
</style>
<path class="st0" d="M587.9,13.1c-24.2,0.3-48.6,1.3-72.9,3c-29.6,1.8-59.1,4.5-88.7,7.6c-25.4,2.7-50.9,5.7-76.3,9
	c-23.2,3-46.5,6.1-69.7,9.6c-32.8,4.8-65.5,10-98.1,15.6c-31.9,5.4-63.6,10.9-95.3,16.8c-25,4.6-50,9.7-75,14.5
	c-0.3,0-0.7,0.1-1,0.3c-1,0.3-2.2,0.6-2.4-1c-0.3-1.6,1-1.6,2.1-1.8c11.5-2.2,23-4.6,34.4-6.9c34-6.6,67.9-12.9,101.9-18.9
	c32.8-5.7,65.5-11.1,98.4-16.2c23.3-3.6,46.8-7,70.3-10.3c19.3-2.7,38.6-4.9,58-7.5c22.6-3,45.3-5.4,68.1-7.6
	c25.4-2.5,51-4.6,76.6-6.3c35.9-2.2,72-3.4,108-2.4c24.5,0.6,48.9,2.4,73.2,7c13.2,2.5,26.2,5.8,38.3,11.5
	c6.3,2.8,12.1,6.3,17.2,10.9c10.3,9.3,14.2,20.6,11.5,34.3c-1.5,7.8-4.8,14.8-8.5,21.5c-0.4,0.7-0.9,1.8-2.1,0.9
	c-1-0.7-0.9-1.5-0.4-2.4c3-5.1,5.4-10.3,7.2-16c0.9-2.7,1.5-5.5,1.6-8.4c1-10-2.1-18.6-9.1-25.7c-5.7-5.8-12.6-9.9-19.9-13.2
	c-11.7-5.2-23.9-8.4-36.4-10.6c-29.9-5.7-60.1-7-90.4-7.3C601.6,13.1,594.7,13.1,587.9,13.1z"/>
</svg>
