<svg viewBox="0 0 789.5 173.9">
<style type="text/css">
	.st0{fill:#C40000;}
</style>
<path class="st0" d="M775.3,83.8l-1.1-1.1c1.6-1.4,2.8-2.8,3.9-4l1.2,0.9C778.1,81,776.7,82.4,775.3,83.8 M768,90l-0.9-1.2
	c1.7-1.4,3.3-2.6,4.8-3.9l1.1,1.2C771.4,87.2,769.9,88.6,768,90 M760.4,95.5l-0.9-1.2c1.7-1.2,3.4-2.5,5.1-3.6l0.9,1.2
	C764,93.1,762.3,94.2,760.4,95.5 M752.5,100.6l-0.8-1.4c1.9-1.1,3.6-2.2,5.3-3.4l0.8,1.2C756.2,98.4,754.3,99.5,752.5,100.6
	 M744.5,105.4l-0.8-1.4c1.9-1.1,3.6-2,5.3-3.1l0.8,1.4C748.1,103.2,746.3,104.3,744.5,105.4 M736.3,109.9l-0.8-1.4
	c1.9-0.9,3.7-2,5.4-3l0.8,1.4C740,107.9,738.2,109,736.3,109.9 M727.9,114.3l-0.6-1.4c1.9-0.9,3.7-1.9,5.6-2.8l0.8,1.4
	C731.6,112.3,729.8,113.3,727.9,114.3 M719.5,118.3l-0.6-1.4c1.9-0.9,3.7-1.7,5.6-2.6l0.6,1.4C723.3,116.4,721.4,117.4,719.5,118.3
	 M711,122l-0.6-1.4c1.9-0.8,3.9-1.7,5.8-2.5l0.6,1.4C714.9,120.5,712.8,121.3,711,122 M702.3,125.8l-0.6-1.4
	c1.9-0.8,3.9-1.6,5.8-2.5l0.6,1.4C706.2,124.2,704.3,125,702.3,125.8 M693.7,129.2l-0.6-1.4c2-0.8,3.9-1.6,5.8-2.3l0.6,1.4
	C697.6,127.8,695.6,128.6,693.7,129.2 M684.9,132.6l-0.5-1.4c2-0.8,3.9-1.4,5.8-2.2l0.6,1.4C688.7,131.1,686.9,131.8,684.9,132.6
	 M676.1,135.7l-0.5-1.4c2-0.6,3.9-1.4,5.9-2l0.5,1.4C680,134.3,678,135.1,676.1,135.7 M667.3,138.7l-0.5-1.6c2-0.6,3.9-1.2,5.9-2
	l0.5,1.4C671.2,137.4,669.2,138.1,667.3,138.7 M658.3,141.5l-0.5-1.6c2-0.6,4-1.2,5.9-1.9l0.5,1.6
	C662.3,140.2,660.3,140.9,658.3,141.5 M649.3,144.1l-0.5-1.6c2-0.6,4-1.1,5.9-1.7l0.5,1.6C653.3,143,651.3,143.5,649.3,144.1
	 M640.2,146.6l-0.5-1.6c2-0.5,4-1.1,6.1-1.6l0.5,1.6C644.3,145.5,642.3,146,640.2,146.6 M631.2,148.8l-0.3-1.6c2-0.5,4-0.9,6.1-1.6
	l0.3,1.6C635.3,147.8,633.2,148.3,631.2,148.8 M622.1,151l-0.3-1.6c2-0.5,4-0.9,6.1-1.4l0.3,1.6C626.1,150,624.1,150.5,622.1,151
	 M612.9,152.8l-0.3-1.6c2-0.5,4-0.8,6.1-1.2l0.3,1.6C617.1,152,614.9,152.5,612.9,152.8 M603.7,154.7l-0.3-1.6c2-0.3,4-0.8,6.1-1.1
	l0.3,1.6C607.8,153.9,605.7,154.2,603.7,154.7 M594.5,156.2l-0.3-1.6c2-0.3,4-0.6,6.1-1.1l0.3,1.6
	C598.6,155.6,596.6,155.9,594.5,156.2 M585.2,157.6L585,156c2-0.3,4-0.6,6.2-0.9l0.3,1.6C589.4,157,587.2,157.3,585.2,157.6
	 M576,158.7l-0.2-1.6c2-0.3,4.2-0.5,6.2-0.8l0.2,1.6C580.1,158.3,578.1,158.6,576,158.7 M566.7,159.8l-0.2-1.6
	c2-0.2,4.2-0.5,6.2-0.6l0.2,1.6C570.8,159.4,568.7,159.7,566.7,159.8 M557.4,160.6l-0.2-1.6c2-0.2,4.2-0.3,6.2-0.5l0.2,1.6
	C561.4,160.3,559.4,160.4,557.4,160.6 M548.1,161.2l-0.2-1.6c2-0.2,4.2-0.2,6.2-0.3l0.2,1.6C552.1,160.9,550.1,161.1,548.1,161.2
	 M538.6,161.5v-1.6c2,0,4.2-0.2,6.2-0.2v1.6C542.8,161.4,540.8,161.5,538.6,161.5 M529.3,161.7v-1.6c2,0,4.2,0,6.2,0v1.6
	C533.4,161.7,531.3,161.7,529.3,161.7 M519.9,161.7v-1.6c2,0,4.2,0,6.2,0v1.6C524.1,161.7,521.9,161.7,519.9,161.7 M510.6,161.4
	v-1.6c2,0.2,4.2,0.2,6.2,0.2v1.6C514.6,161.5,512.6,161.4,510.6,161.4 M501.3,160.8l0.2-1.6c2,0.2,4.2,0.3,6.2,0.5l-0.2,1.6
	C505.3,161.1,503.3,160.9,501.3,160.8 M491.8,160l0.2-1.6c2,0.2,4.2,0.3,6.2,0.6l-0.2,1.6C496,160.4,494,160.1,491.8,160
	 M482.6,158.9l0.2-1.6c2,0.3,4,0.5,6.2,0.8l-0.2,1.6C486.7,159.5,484.6,159.2,482.6,158.9 M473.3,157.6l0.3-1.6c2,0.3,4,0.6,6.2,0.9
	l-0.2,1.6C477.3,158.3,475.3,158,473.3,157.6 M464,156.1l0.3-1.6c2,0.3,4,0.8,6.1,1.1l-0.3,1.6C468.2,156.9,466.1,156.4,464,156.1
	 M454.8,154.2l0.3-1.6c2,0.5,4,0.9,6.1,1.2l-0.3,1.6C459,155,456.8,154.7,454.8,154.2 M445.8,152l0.3-1.6c2,0.5,4,0.9,6.1,1.4
	l-0.3,1.6C449.8,153.1,447.6,152.7,445.8,152 M436.6,149.7l0.5-1.6c2,0.6,4,1.1,6.1,1.6l-0.5,1.6
	C440.6,150.8,438.6,150.2,436.6,149.7 M427.6,147.1l0.5-1.6c2,0.6,3.9,1.2,5.9,1.9l-0.5,1.6C431.6,148.3,429.6,147.7,427.6,147.1
	 M418.7,144l0.5-1.4c2,0.6,3.9,1.4,5.9,2l-0.5,1.6C422.8,145.4,420.7,144.7,418.7,144 M410,140.7l0.6-1.4c1.9,0.8,3.9,1.6,5.8,2.2
	l-0.5,1.4C413.9,142.3,411.9,141.5,410,140.7 M401.3,137.1l0.6-1.4c1.9,0.8,3.9,1.6,5.8,2.3l-0.6,1.4
	C405.2,138.8,403.2,138.1,401.3,137.1 M392.8,133.2l0.6-1.4c1.9,0.9,3.7,1.7,5.6,2.6l-0.6,1.4C396.5,135.1,394.6,134.2,392.8,133.2
	 M384.4,129.2l0.8-1.4c1.9,0.9,3.7,1.9,5.6,2.8l-0.6,1.4C388.1,131.1,386.2,130.1,384.4,129.2 M376.1,124.7l0.8-1.4
	c1.9,1.1,3.6,2,5.4,3l-0.8,1.4C379.7,126.7,377.8,125.8,376.1,124.7 M368.1,120l0.8-1.4c1.7,1.1,3.6,2.2,5.3,3.1l-0.8,1.4
	C371.6,122,369.8,121.1,368.1,120 M360.1,114.9l0.8-1.2c1.7,1.1,3.4,2.3,5.3,3.4l-0.8,1.2C363.5,117.2,361.8,116.1,360.1,114.9
	 M352.4,109.6l0.9-1.2c1.7,1.2,3.4,2.3,5.1,3.6l-0.9,1.2C355.8,112.1,354.1,110.9,352.4,109.6 M344.7,104l0.9-1.2
	c1.7,1.2,3.3,2.5,5,3.7l-0.9,1.2C348.2,106.7,346.4,105.3,344.7,104 M337.4,98.3l0.9-1.2c1.6,1.2,3.3,2.6,4.8,3.9l-0.9,1.2
	C340.7,100.9,339,99.5,337.4,98.3 M330.3,92.2l1.1-1.2c1.6,1.4,3.1,2.8,4.7,4l-0.9,1.2C333.4,94.8,331.8,93.6,330.3,92.2
	 M323.4,85.8l1.1-1.1c1.6,1.4,3.1,2.8,4.5,4.2l-1.1,1.1C326.4,88.6,324.8,87.2,323.4,85.8 M316.6,79.3l1.1-1.1
	c0.2,0.2,0.3,0.3,0.5,0.5c1.4,1.4,2.6,2.6,4,3.9l-1.1,1.1c-1.4-1.2-2.6-2.6-4-3.9L316.6,79.3 M310.1,72.8l1.1-1.1
	c1.6,1.4,3,2.8,4.5,4.4l-1.1,1.1C313,75.6,311.5,74.2,310.1,72.8 M303.2,66.6l1.1-1.1c1.6,1.4,3.1,2.8,4.7,4.2l-1.1,1.1
	C306.2,69.3,304.6,67.9,303.2,66.6 M296.1,60.5l0.9-1.2c1.6,1.2,3.1,2.6,4.7,4l-1.1,1.2C299.3,63.1,297.8,61.7,296.1,60.5
	 M288.9,54.6l0.9-1.2c1.6,1.2,3.3,2.5,4.8,3.9l-0.9,1.2C292.2,57.2,290.5,55.8,288.9,54.6 M281.6,49l0.9-1.2c1.7,1.2,3.3,2.5,5,3.7
	l-0.9,1.2C284.9,51.5,283.2,50.2,281.6,49 M274,43.7l0.9-1.2c1.7,1.1,3.4,2.3,5.1,3.6l-0.9,1.2C277.4,46,275.7,44.8,274,43.7
	 M266.2,38.7l0.8-1.4c1.7,1.1,3.4,2.2,5.3,3.3l-0.8,1.2C269.7,40.9,267.9,39.8,266.2,38.7 M258.2,33.9l0.8-1.4
	c1.9,0.9,3.6,2,5.4,3.1l-0.8,1.4C261.7,36.1,260,35,258.2,33.9 M250.1,29.6l0.8-1.4c1.9,0.9,3.7,1.9,5.4,3l-0.8,1.4
	C253.6,31.4,251.8,30.5,250.1,29.6 M241.7,25.7l0.6-1.4c1.9,0.8,3.7,1.7,5.6,2.6l-0.6,1.4C245.4,27.4,243.5,26.4,241.7,25.7
	 M233.1,21.9l0.6-1.4c1.9,0.8,3.9,1.6,5.8,2.3l-0.6,1.4C237,23.5,235,22.7,233.1,21.9 M224.4,18.8l0.5-1.4c2,0.6,3.9,1.4,5.9,2
	l-0.6,1.4C228.3,20.2,226.4,19.4,224.4,18.8 M215.7,16l0.5-1.6c2,0.6,3.9,1.1,5.9,1.9l-0.5,1.6C219.6,17.3,217.6,16.7,215.7,16
	 M206.7,13.7l0.3-1.6c2,0.5,4,0.9,6.1,1.6l-0.5,1.6C210.7,14.8,208.7,14.2,206.7,13.7 M197.7,12l0.3-1.6c2,0.3,4,0.8,6.1,1.2
	l-0.3,1.6C201.7,12.6,199.7,12.3,197.7,12 M188.5,10.6l0.2-1.6c2,0.3,4,0.5,6.2,0.8l-0.3,1.6C192.6,11.1,190.5,10.9,188.5,10.6
	 M179.3,9.7l0.2-1.6c2,0.2,4,0.3,6.2,0.5l-0.2,1.6C183.4,10,181.4,9.8,179.3,9.7 M170,9.3V7.7c2,0,4.2,0.2,6.2,0.2v1.6
	C174.2,9.5,172,9.3,170,9.3 M160.8,9.5V7.9c2-0.2,4.2-0.2,6.2-0.2v1.6C164.9,9.3,162.9,9.3,160.8,9.5 M151.5,10.1l-0.2-1.6
	c2-0.2,4-0.3,6.2-0.5l0.2,1.6C155.7,9.8,153.7,10,151.5,10.1 M142.3,11.2l-0.2-1.6c2-0.3,4-0.6,6.2-0.8l0.2,1.6
	C146.5,10.6,144.4,10.9,142.3,11.2 M133.3,12.8l-0.3-1.6c2-0.5,4-0.8,6.1-1.1l0.3,1.6C137.4,12,135.3,12.3,133.3,12.8 M124.3,14.6
	L124,13c2-0.5,4-0.9,6.1-1.4l0.3,1.6C128.2,13.7,126.2,14.2,124.3,14.6 M115.3,17.1l-0.5-1.6c2-0.6,4-1.1,6.1-1.7l0.5,1.6
	C119.3,16,117.3,16.5,115.3,17.1 M106.4,19.9l-0.5-1.4c2-0.6,3.9-1.2,5.9-1.9l0.5,1.6C110.5,18.7,108.5,19.3,106.4,19.9 M97.7,23
	l-0.6-1.4c1.9-0.8,3.9-1.4,5.8-2.2l0.5,1.4C101.6,21.6,99.8,22.4,97.7,23 M89.2,26.6l-0.6-1.4c1.9-0.8,3.7-1.6,5.8-2.5l0.6,1.4
	C93.1,25,91,25.8,89.2,26.6 M80.8,30.5l-0.6-1.4c1.9-0.9,3.7-1.7,5.6-2.6l0.6,1.4C84.5,28.8,82.7,29.6,80.8,30.5 M72.5,34.7
	l-0.8-1.4c1.9-0.9,3.6-1.9,5.6-2.8l0.6,1.4C76.3,32.8,74.4,33.8,72.5,34.7 M64.5,39.2l-0.8-1.4c1.7-1.1,3.6-2,5.4-3.1l0.8,1.4
	C68,37.2,66.2,38.3,64.5,39.2 M56.5,44l-0.8-1.2c1.7-1.1,3.4-2.2,5.3-3.3l0.8,1.2C60,41.8,58.2,42.9,56.5,44 M48.8,49.1l-0.9-1.2
	c1.7-1.1,3.4-2.3,5.1-3.4l0.8,1.2C52.2,46.8,50.5,47.9,48.8,49.1 M41.1,54.4l-0.9-1.2c1.6-1.2,3.3-2.3,5.1-3.6l0.9,1.2
	C44.6,51.9,42.9,53.2,41.1,54.4 M33.8,60l-0.9-1.2c1.6-1.2,3.3-2.5,5-3.7l0.9,1.2C37,57.5,35.4,58.8,33.8,60 M26.5,65.8l-0.9-1.2
	c1.6-1.2,3.1-2.6,4.8-3.9l0.9,1.2C29.8,63.3,28.1,64.5,26.5,65.8 M19.5,72l-1.1-1.1c1.4-1.2,3-2.6,4.7-4.2l1.1,1.2
	C22.6,69.2,21.1,70.6,19.5,72 M13,78.4l-1.1-1.1c0,0,1.6-1.7,4.5-4.4l1.1,1.1C14.6,76.7,13,78.4,13,78.4L13,78.4"/>
</svg>
