<svg viewBox="0 0 704 119">
<style type="text/css">
	.st0{fill:#F9CAC4;}
</style>
<path class="st0" d="M132.7,31.8c0.1-0.1,0.3-0.3,0.4-0.4c0.3,0,0.7,0.1,1-0.2c0.3-0.3,0.7-0.5,1-0.5c0.5,0.1,0.7-0.5,1.1-0.4
	c0.3,0.1,0.5-0.1,0.8-0.3c0.2-0.1,0.6-0.1,0.8-0.2c0.1,0,0.2-0.2,0.3-0.3c0.2,0,0.5,0,0.7,0c0.1-0.1,0.3-0.3,0.4-0.4
	c0.2,0,0.5,0,0.7,0c0.1-0.1,0.3-0.3,0.4-0.4c0.4,0,0.7,0.1,1-0.3c0.3-0.3,0.7-0.4,1.1-0.4c0.4,0,0.6-0.3,0.9-0.4
	c0.4,0,0.7,0,0.9-0.4c0.2,0,0.5,0,0.7,0c0.1-0.1,0.3-0.3,0.4-0.4c0.2,0,0.5,0,0.7,0c0.1-0.1,0.3-0.3,0.4-0.4
	c0.7,0.2,1.2-0.5,1.8-0.4c0.3-0.6,0.9-0.1,1.2-0.5s1,0.1,1.2-0.5c0.6,0.2,1-0.5,1.6-0.4c0.4-0.2,0.8-0.5,1.3-0.4
	c0.3-0.5,0.9-0.1,1.2-0.5c0.2-0.3,0.6-0.1,0.8-0.2c0.3-0.1,0.4-0.4,0.8-0.4c0.5,0.1,0.9-0.6,1.5-0.4c0.2-0.7,1.1-0.1,1.4-0.6
	c0.7,0,1.4-0.6,2.1-0.5c0.4-0.2,0.8-0.4,1.3-0.7c0.2,0,0.6,0,1,0c0.1-0.1,0.3-0.3,0.4-0.4c0.2,0,0.5,0,0.7,0
	c0.1-0.1,0.3-0.3,0.4-0.4c0.2,0,0.5,0,0.7,0c0.1-0.1,0.2-0.2,0.3-0.3c0.3-0.3,0.7,0.1,1-0.3c0.2-0.3,0.5-0.2,0.8-0.2
	c0.2,0,0.5,0,0.5-0.1c0.3-0.6,0.9-0.1,1.3-0.5c0.2-0.3,0.6-0.1,0.9-0.2c0.1-0.1,0.2-0.2,0.4-0.3c0.2,0,0.5,0,0.7,0
	c0.1-0.1,0.3-0.3,0.4-0.4c0.4,0,0.7,0,1.1,0c0.1-0.1,0.2-0.2,0.3-0.3c0.3-0.2,0.7,0.1,1-0.3c0.2-0.3,0.5-0.2,0.8-0.2
	c0.2,0,0.5,0,0.5-0.1c0.3-0.5,1-0.1,1.2-0.5c0-0.1,0.1-0.1,0.1-0.1c0.3,0,0.7,0,1.1,0c0.1-0.1,0.3-0.3,0.4-0.4c0.4,0,0.7,0,1.1,0
	c0.1-0.1,0.2-0.2,0.3-0.3c0.2,0,0.5,0,0.8-0.1c0.1-0.1,0.3-0.2,0.4-0.4c0.8,0.3,1.4-0.4,2.1-0.4c0.1,0,0.3-0.3,0.4-0.3
	c0.3,0,0.6,0,0.9,0c0.1-0.1,0.3-0.2,0.4-0.4c0.3,0,0.7,0,1,0c0.1-0.1,0.3-0.3,0.4-0.4c0.4,0,0.7,0,1.1,0c0.1-0.1,0.3-0.3,0.4-0.4
	c0.4,0,0.7,0,1,0c0.2-0.1,0.3-0.3,0.4-0.3c0.5-0.1,1,0.2,1.4-0.3c0.4,0,0.7-0.1,1.1-0.1c0.1-0.1,0.2-0.2,0.4-0.3c0.3,0,0.7,0,1,0
	c0.1-0.1,0.3-0.2,0.4-0.4c0.5,0,0.9,0,1.4,0c0.1-0.1,0.3-0.3,0.4-0.4c0.5,0,1,0,1.4,0c0.1-0.1,0.2-0.2,0.3-0.3c0.3,0,0.7,0,1.1-0.1
	c0.1-0.1,0.2-0.2,0.3-0.3c0.4,0,0.9,0,1.4,0c0.1-0.1,0.3-0.2,0.5-0.4c0.4,0,0.9,0,1.4,0c0.1-0.1,0.2-0.2,0.3-0.3c0.5,0,0.9,0,1.4,0
	c0.1-0.1,0.3-0.2,0.4-0.4c0.5,0,0.9,0,1.4,0c0.1-0.1,0.3-0.3,0.4-0.4c0.6,0,1.2,0,1.8,0c0.1-0.1,0.2-0.2,0.3-0.3
	c0.1,0,0.1-0.1,0.1-0.1c0.6,0,1.2,0,1.7,0c0.1-0.1,0.2-0.2,0.3-0.3c0.6,0,1.2,0,1.8,0c0.1-0.1,0.2-0.2,0.4-0.4c0.6,0,1.2,0,1.8,0
	c0.1-0.1,0.2-0.2,0.3-0.3c0.6,0,1.2,0,1.8,0c0.1-0.1,0.3-0.3,0.4-0.4c0.7,0,1.4,0,2.1,0c0.1-0.1,0.2-0.2,0.3-0.3l0.1-0.1
	c0.8,0,1.7,0,2.5,0c0.1-0.1,0.2-0.2,0.3-0.3c0.4-0.2,0.9,0,1.4-0.1c0.4,0,0.8,0,1.2,0c0.1-0.1,0.2-0.2,0.4-0.4c0.8,0,1.7,0,2.5,0
	c0.1-0.1,0.2-0.2,0.4-0.4c1.1,0,2.2,0,3.2,0c0.1-0.1,0.2-0.2,0.3-0.3c1.3,0,2.6,0,3.9,0c0.1-0.1,0.3-0.3,0.4-0.4c3.5,0,6.9,0,10.4,0
	c0.1-0.1,0.3-0.2,0.4-0.4c0.1,0.1,0.2,0.2,0.3,0.3c2.5,0,5.1,0,7.6,0c0.1,0.1,0.2,0.2,0.4,0.4c1.2,0,2.4,0,3.6,0
	c0.1,0.1,0.2,0.2,0.4,0.4c0.8,0,1.7,0,2.5,0c0.1,0.1,0.2,0.2,0.3,0.3c0.6,0,1.2,0,1.8,0c0.1,0.1,0.3,0.3,0.4,0.4c0.6,0,1.2,0,1.8,0
	c0.1,0.1,0.2,0.2,0.3,0.3c0.5,0,1,0,1.5,0c0.1,0.1,0.2,0.2,0.4,0.4c0.3,0,0.6,0,1,0c0.2,0.1,0.3,0.2,0.5,0.4c0.5,0,1,0.1,1.5,0.1
	c0.3,0.6,0.9,0.1,1.2,0.5c0,0.1,0.1,0.1,0.1,0.1c0.3,0,0.7,0,1.1,0c0.1,0.1,0.3,0.3,0.4,0.4c0.2,0,0.5,0,0.7,0
	c0.1,0.1,0.2,0.2,0.3,0.3c0.3,0.3,0.8-0.1,1.1,0.4c0.2,0.3,0.8-0.1,1.1,0.4c0.2,0.3,0.8-0.1,1.1,0.4c0.4,0.1,0.8-0.1,1.1,0.4
	c0.2,0,0.5,0,0.7,0c0.1,0.1,0.3,0.3,0.4,0.4c0.2,0,0.5,0,0.7,0c0.2,0.4,0.8,0.2,1,0.6c0.7,0.1,1.3,0.3,1.8,0.8
	c0.7-0.1,1.2,0.4,1.7,0.6c0.5,0.2,1,0.6,1.6,0.5c0.7,0.4,1.4,0.7,2.1,1.1c1.3,0.7,2.6,1.3,3.9,2s2.6,1.3,3.9,1.9
	c0.3,0.1,0.5,0.3,0.7,0.5c0.2,0.3,0.5,0.2,0.8,0.4c0.5,0.4,1.2,0.5,1.6,0.9s0.9,0.6,1.5,0.8c0.4,0.2,0.6,0.8,1.1,0.7
	c0.3,0.4,1,0.4,1.2,0.9c0.5,0.1,0.8,0.5,1.1,0.7c0.3,0.3,0.7,0.3,1,0.6c0.2,0.3,0.7,0.1,0.9,0.5c0.2,0.4,0.7,0.3,1,0.6
	c0.2,0.2,0.4,0.5,0.9,0.6c0.3,0,0.5,0.5,0.8,0.7s0.6,0.2,0.9,0.4c0.3,0.2,0.5,0.6,0.8,0.6c0.4,0,0.6,0.4,0.9,0.4
	c0.5,0.1,0.7,0.8,1.3,0.8c0.3,0.4,0.9,0.4,1.3,0.9c0.2,0.3,0.7,0.3,1,0.5c0.4,0.3,1,0.4,1.3,0.8c0.5,0.5,1.3,0.5,1.7,1
	c0.7,0.1,1.3,0.6,2,0.9c0.3,0.2,0.8,0,1,0.2c0.3,0.3,0.6,0.2,0.9,0.5c0.2,0.3,0.7,0.1,0.9,0.5c0.4,0,0.8,0,1.1,0.4
	c0.4-0.1,0.6,0.5,0.9,0.3c0.5-0.2,0.7,0.4,1.1,0.4c0.1,0,0.3,0.2,0.5,0.3c0.3,0,0.6,0,1,0c0.1,0.1,0.3,0.2,0.4,0.4
	c0.2,0,0.5,0,0.7,0c0.1,0.1,0.3,0.3,0.4,0.4c0.4,0,0.7,0,1.1,0c0.1,0.1,0.2,0.2,0.3,0.3c0.3,0,0.7,0,1.1,0c0.1,0.1,0.2,0.2,0.4,0.4
	c0.7,0,1.5,0,2.2,0c0.1,0.1,0.2,0.2,0.4,0.4c1.1,0,2.2,0,3.2,0c0.1,0.1,0.2,0.2,0.3,0.3c1.9,0,3.8,0,5.7,0c0.1,0.1,0.3,0.2,0.4,0.4
	c25.4,0,50.9,0,76.3,0c0.1,0.1,0.3,0.3,0.4,0.4c4.4,0,8.9,0,13.3,0c0.1,0.1,0.2,0.2,0.3,0.3c0.1,0,0.1,0.1,0.1,0.1
	c3.2,0,6.5,0,9.7,0c0.1,0.1,0.2,0.2,0.3,0.3c2.9,0,5.8,0,8.6,0c0.1,0.1,0.2,0.2,0.4,0.4c2.6,0,5.3,0,7.9,0c0.1,0.1,0.2,0.2,0.4,0.4
	c2.4,0,4.8,0,7.2,0c0.1,0.1,0.2,0.2,0.3,0.3c2.4,0,4.8,0,7.2,0c0.1,0.1,0.3,0.3,0.4,0.4c2.4,0,4.8,0,7.2,0c0.1,0.1,0.2,0.2,0.3,0.3
	c0.1,0,0.1,0.1,0.1,0.1c2.4,0,4.8,0,7.2,0c0.1,0.1,0.2,0.2,0.3,0.3c2.7,0,5.5,0,8.3,0c0.1,0.1,0.2,0.2,0.4,0.4c2.6,0,5.3,0,7.9,0
	c0.1,0.1,0.2,0.2,0.4,0.4c2.9,0,5.8,0,8.6,0c0.1,0.1,0.2,0.2,0.3,0.3c3,0,6,0,9,0c0.1,0.1,0.3,0.3,0.4,0.4c3.3,0,6.7,0,10.1,0
	c0.1,0.1,0.2,0.2,0.3,0.3c0.1,0,0.1,0.1,0.1,0.1c3.3,0,6.7,0,10,0c0.1,0.1,0.2,0.2,0.3,0.3c2.5,0,5.1,0,7.6,0
	c0.1,0.1,0.2,0.2,0.4,0.4c2.1,0,4.3,0,6.5,0c0.1,0.1,0.2,0.2,0.3,0.3c2,0,4.1,0,6.1,0c0.1,0.1,0.3,0.2,0.4,0.4c1.9,0,3.8,0,5.7,0
	c0.1,0.1,0.3,0.3,0.4,0.4c1.8,0,3.6,0,5.4,0c0.1,0.1,0.2,0.2,0.3,0.3c0.1,0,0.1,0.1,0.1,0.1c1.4,0,2.9,0,4.3,0
	c0.1,0.1,0.2,0.2,0.3,0.3c1.5,0,3.1,0,4.6,0c0.2,0.1,0.3,0.2,0.5,0.4c1.4,0,2.9,0,4.3,0c0.1,0.1,0.2,0.2,0.3,0.3c1.3,0,2.6,0,3.9,0
	c0.1,0.1,0.3,0.2,0.4,0.4c1.3,0,2.6,0,3.9,0c0.1,0.1,0.3,0.3,0.4,0.4c1,0,1.9,0,2.9,0c0.1,0.1,0.2,0.2,0.3,0.3
	c0.1,0,0.1,0.1,0.1,0.1c1.1,0,2.2,0,3.2,0c0.1,0.1,0.2,0.2,0.3,0.3c0.9,0,1.9,0,2.8,0c0.1,0.1,0.3,0.2,0.5,0.4c0.8,0,1.7,0,2.5,0
	c0.1,0.1,0.2,0.2,0.3,0.3c0.8,0,1.7,0,2.5,0c0.1,0.1,0.3,0.2,0.4,0.4c0.7,0,1.4,0,2.1,0c0.1,0.1,0.3,0.3,0.4,0.4c0.7,0,1.4,0,2.1,0
	c0.1,0.1,0.2,0.2,0.3,0.3c0.7,0.1,1.5,0,2.2,0.1c0.1,0.1,0.2,0.2,0.3,0.3c0.6,0,1.1,0,1.7,0c0.1,0.1,0.3,0.2,0.5,0.4
	c0.5,0,1.2,0,1.8,0c0.1,0.1,0.2,0.2,0.3,0.3c0.5,0,0.9,0,1.4,0c0.1,0.1,0.3,0.2,0.4,0.4c0.6,0,1.2,0,1.8,0c0.1,0.1,0.2,0.2,0.4,0.3
	c0.4,0.1,0.9,0,1.5,0c0.1,0.1,0.2,0.2,0.3,0.3c0.5,0,1,0,1.4,0c0.1,0.1,0.2,0.2,0.4,0.4c0.4,0,0.9,0,1.4,0c0.1,0.1,0.3,0.2,0.5,0.4
	c0.3,0,0.7,0,1.1,0.1c0.1,0.1,0.2,0.2,0.3,0.3c0.5,0,0.9,0,1.4,0c0.1,0.1,0.3,0.3,0.4,0.4c0.3,0,0.7,0,1.1,0
	c0.1,0.1,0.1,0.2,0.2,0.3c0.4,0.2,0.8,0.1,1.2,0.1c0.1,0.1,0.2,0.2,0.3,0.3c0.3,0.2,0.7,0,1.1,0.1c0.2,0.1,0.4,0.4,0.6,0.4
	c0.7-0.1,1.3,0.7,2,0.3c0.2,0.1,0.3,0.3,0.5,0.4c0.2,0,0.5,0,0.7,0c0.1,0.1,0.3,0.3,0.4,0.4c0.2,0,0.5,0,0.7,0
	c0.1,0.1,0.3,0.3,0.4,0.4c0.2,0,0.5,0,0.7,0c0.3,0.6,1.1,0.1,1.4,0.6c0.5-0.1,1,0.4,1.4,0.4c0.5,0,0.9,0.6,1.5,0.4
	c0.1,0.1,0.3,0.2,0.4,0.4c0.2,0,0.4,0,0.6,0c0.2,0.1,0.5,0.3,0.7,0.3c0.3,0.1,0.5,0.5,0.9,0.4s0.5,0.4,0.8,0.3
	c0.5-0.1,0.7,0.3,1.1,0.4c0.4,0.1,0.6,0.5,1.1,0.4c0.4-0.1,0.5,0.4,0.9,0.4c0.3,0,0.6,0.5,1,0.6c0.9,0.1,1.6,0.6,2.3,1
	c0.8,0.4,1.5,0.7,2.2,1.1c0.3,0.2,0.5,0.2,0.8,0.2s0.4,0.4,0.8,0.4c0.5,0,0.5,0.8,1.2,0.7c0.2,0.3,0.6,0.3,0.9,0.5
	c0.3,0.2,0.7,0.4,1,0.6c0.3,0.1,0.7,0.2,0.9,0.4c0.4,0.3,1,0.4,1.3,0.8c0.1,0.1,0.3,0.2,0.4,0.3c0.5,0.3,1,0.5,1.4,0.9
	c0.4,0.3,0.8,0.5,1.3,0.7c0.3,0.5,1,0.6,1.4,1c0.1,0.1,0.3,0.2,0.4,0.3c0.5,0.2,1,0.3,1.3,0.7c0.3,0.4,0.9,0.3,1.1,0.8
	c0.1,0.1,0.1,0.2,0.3,0.3c1.1,0.3,1.8,1.2,2.8,1.5c0.4,0.1,0.5,0.5,0.8,0.6c0.2,0.1,0.6,0.1,0.8,0.4c0.1,0.2,0.3,0.4,0.5,0.4
	c0.6,0,0.7,0.9,1.3,0.7c0.3,0.4,1,0.4,1.3,0.9c0.1,0.2,0.5,0.3,0.7,0.4s0.5,0.2,0.7,0.4c0.2,0.1,0.3,0.3,0.5,0.5c0.2,0,0.3,0,0.4,0
	c0.2,0.3,0.3,0.6,0.5,1c0,0.3,0,0.8,0,1.3c-0.4,0.6-1.1,1-1.8,1.3c-0.3-0.2-0.8-0.3-1-0.5c-0.3-0.4-0.8,0-1.1-0.3s-0.6-0.4-1-0.6
	c-0.7-0.3-1.2-0.8-2-0.7c-0.5-0.5-1.2-0.5-1.7-1c-0.9-0.1-1.7-0.6-2.4-1c-0.4-0.2-0.9,0.1-1.1-0.4c-0.5-0.1-0.8-0.4-1.2-0.5
	s-0.6-0.5-1-0.6c-1-0.1-1.8-0.8-2.8-1.1c-0.3-0.1-0.5-0.4-0.9-0.4s-0.8-0.2-1.1-0.4c-0.3-0.3-0.6-0.2-1-0.3c-0.2,0-0.4-0.3-0.6-0.3
	c-0.4,0-0.5-0.5-0.9-0.4c-0.3-0.5-0.8-0.2-1.1-0.4c-0.3-0.2-0.6-0.3-1-0.3c-0.3-0.1-0.5-0.4-0.9-0.4c-0.1,0-0.3-0.3-0.4-0.3
	c-0.6,0.2-0.8-0.5-1.3-0.4c-0.5,0.2-0.6-0.6-1.1-0.4c-0.5,0.1-0.8-0.6-1.3-0.3c-0.3-0.2-0.7-0.4-1-0.5c-0.1,0-0.1-0.1-0.2-0.1
	c-0.3,0-0.7,0-1,0c-0.1-0.1-0.3-0.2-0.4-0.4c-0.2,0-0.4,0-0.7,0c-0.1-0.1-0.3-0.2-0.4-0.4c-0.2,0-0.5,0-0.7,0
	c-0.1-0.1-0.3-0.3-0.4-0.4c-0.2,0-0.5,0-0.7,0c-0.1-0.1-0.3-0.3-0.4-0.4c-0.3,0-0.6,0-1,0c-0.1-0.1-0.3-0.4-0.5-0.3
	c-0.7,0.1-1.3-0.7-2-0.3c-0.2-0.1-0.3-0.3-0.5-0.4c-0.3,0-0.7,0-1,0c-0.1-0.1-0.3-0.3-0.4-0.4c-0.2,0-0.5,0-0.7,0
	c-0.1-0.1-0.2-0.2-0.2-0.3c-0.4-0.2-0.8-0.1-1.2-0.1c-0.1-0.1-0.2-0.2-0.3-0.3c-0.3-0.2-0.7-0.1-1.1-0.1c-0.1-0.1-0.2-0.2-0.4-0.3
	c-0.4,0-0.9,0-1.3,0c-0.1-0.1-0.3-0.2-0.5-0.4c-0.3,0-0.8,0-1.1-0.1c-0.1-0.1-0.2-0.2-0.3-0.3c-0.5,0-0.9,0-1.4,0
	c-0.1-0.1-0.3-0.3-0.4-0.4c-0.3,0-0.7,0-1.1,0c-0.1-0.1-0.2-0.2-0.3-0.3c-0.5,0-1,0-1.5,0c-0.1-0.1-0.2-0.2-0.4-0.4
	c-0.3,0-0.6,0-1,0c-0.2-0.1-0.3-0.2-0.5-0.4c-0.4,0-0.9,0-1.4,0c-0.1-0.1-0.2-0.2-0.4-0.4c-0.5,0-1,0-1.4,0
	c-0.1-0.1-0.2-0.2-0.3-0.3c-0.5,0-0.9,0-1.4,0c-0.1-0.1-0.3-0.3-0.4-0.4c-0.5,0-1,0-1.4,0c-0.1-0.1-0.2-0.2-0.3-0.3
	c-0.1,0-0.1-0.1-0.1-0.1c-0.6,0-1.2,0-1.8,0c-0.1-0.1-0.2-0.2-0.3-0.3c-0.6,0-1.2,0-1.8,0c-0.1-0.1-0.2-0.2-0.4-0.4
	c-0.6,0-1.2,0-1.8,0c-0.1-0.1-0.2-0.2-0.4-0.4c-0.6,0-1.2,0-1.8,0c-0.1-0.1-0.2-0.2-0.3-0.3c-0.7,0-1.4,0-2.1,0
	c-0.1-0.1-0.3-0.3-0.4-0.4c-0.7,0-1.4,0-2.2,0c-0.1-0.1-0.2-0.2-0.3-0.3c-0.1,0-0.1-0.1-0.1-0.1c-0.7,0-1.4,0-2.1,0
	c-0.1-0.1-0.2-0.2-0.3-0.3c-0.8,0-1.7,0-2.5,0c-0.1-0.1-0.2-0.2-0.4-0.4c-0.8,0-1.7,0-2.5,0c-0.1-0.1-0.2-0.2-0.3-0.3
	c-1.1,0-2.1,0-3.2,0c-0.1-0.1-0.3-0.2-0.4-0.4c-1.1,0-2.1,0-3.2,0c-0.1-0.1-0.3-0.3-0.4-0.4c-1.1,0-2.2,0-3.2,0
	c-0.1-0.1-0.2-0.2-0.3-0.3c-0.1,0-0.1-0.1-0.1-0.1c-1.3,0-2.6,0-3.9,0c-0.1-0.1-0.2-0.2-0.3-0.3c-1.3,0-2.6,0-3.9,0
	c-0.1-0.1-0.3-0.2-0.5-0.4c-1.4,0-2.9,0-4.3,0c-0.1-0.1-0.2-0.2-0.3-0.3c-1.4,0-2.8,0-4.3,0c-0.1-0.1-0.3-0.2-0.4-0.4
	c-1.7,0-3.3,0-5,0c-0.1-0.1-0.3-0.3-0.4-0.4c-1.9,0-3.8,0-5.7,0c-0.1-0.1-0.2-0.2-0.3-0.3c-0.1,0-0.1-0.1-0.1-0.1
	c-1.8,0-3.6,0-5.4,0c-0.1-0.1-0.2-0.2-0.3-0.3c-2,0-4,0-6,0c-0.1-0.1-0.3-0.2-0.5-0.4c-2.3,0-4.8,0-7.2,0c-0.1-0.1-0.2-0.2-0.3-0.3
	c-2.7,0-5.5,0-8.2,0c-0.1-0.1-0.3-0.2-0.4-0.4c-2.3,0-4.5,0-6.8,0c-0.1-0.1-0.3-0.3-0.4-0.4c-1.8,0-3.6,0-5.4,0
	c-0.1-0.1-0.2-0.2-0.3-0.3c-0.1,0-0.1-0.1-0.1-0.1c-1.9,0-3.8,0-5.7,0c-0.1-0.1-0.2-0.2-0.3-0.3c-1.7,0-3.5,0-5.3,0
	c-0.1-0.1-0.3-0.2-0.5-0.4c-1.6,0-3.3,0-5,0c-0.1-0.1-0.2-0.2-0.3-0.3c-1.5,0-3.1,0-4.6,0c-0.1-0.1-0.3-0.2-0.4-0.4
	c-1.7,0-3.3,0-5,0c-0.1-0.1-0.2-0.2-0.3-0.3l-0.1-0.1c-1.6,0-3.1,0-4.7,0c-0.1-0.1-0.2-0.2-0.3-0.3c-0.1,0-0.1-0.1-0.1-0.1
	c-1.5,0-3.1,0-4.6,0c-0.1-0.1-0.2-0.2-0.3-0.3c-1.3,0-2.7,0-4,0c-0.1-0.1-0.2-0.2-0.4-0.4c-1.7,0-3.4,0-5,0
	c-0.1-0.1-0.2-0.2-0.3-0.3c-1.4,0-2.9,0-4.3,0c-0.1-0.1-0.3-0.3-0.4-0.4c-1.3,0-2.6,0-3.9,0c-0.1-0.1-0.2-0.2-0.3-0.3l-0.1-0.1
	c-1.6,0-3.1,0-4.7,0c-0.1-0.1-0.2-0.2-0.3-0.3c-0.1,0-0.1-0.1-0.1-0.1c-1.4,0-2.8,0-4.1,0c-0.1,0-0.1,0-0.2,0
	c-0.1-0.1-0.2-0.2-0.3-0.3c-1.3,0-2.7,0-4,0c-0.1-0.1-0.2-0.2-0.4-0.4c-1.4,0-2.9,0-4.3,0c-0.1-0.1-0.2-0.2-0.3-0.3
	c-1.4,0-2.9,0-4.3,0c-0.1-0.1-0.3-0.3-0.4-0.4c-1.7,0-3.3,0-5,0c-0.1-0.1-0.2-0.2-0.2-0.2c-0.1-0.1-0.2-0.2-0.2-0.2
	c-1.7,0-3.3,0-5,0c-0.1-0.1-0.2-0.2-0.3-0.3c-1.7,0-3.4,0-5,0c-0.1-0.1-0.2-0.2-0.4-0.4c-1.9,0-3.9,0-5.8,0
	c-0.1-0.1-0.2-0.2-0.4-0.4c-1.9,0-3.9,0-5.8,0c-0.1-0.1-0.2-0.2-0.3-0.3c-2,0-4.1,0-6.1,0c-0.1-0.1-0.3-0.3-0.4-0.4
	c-2.4,0-4.8,0-7.2,0c-0.1-0.1-0.2-0.2-0.2-0.2c-0.1-0.1-0.1-0.1-0.2-0.1c-2.8,0-5.5,0-8.3,0c-0.1-0.1-0.2-0.2-0.3-0.3
	c-3.5,0-7,0-10.4,0c-0.1-0.1-0.2-0.2-0.4-0.4c-5.9,0-11.8,0-17.6,0c-0.1-0.1-0.2-0.2-0.4-0.4c-3.7,0-7.5,0-11.2,0
	c-0.1-0.1-0.2-0.2-0.3-0.3c-2.4,0-4.8,0-7.2,0c-0.1-0.1-0.3-0.3-0.4-0.4c-1.7,0-3.3,0-5,0c-0.1-0.1-0.2-0.2-0.3-0.3
	c-1.3-0.1-2.6,0-4,0c-0.1-0.1-0.2-0.2-0.3-0.3c-1.1,0-2.2,0-3.2,0c-0.1-0.1-0.2-0.2-0.4-0.4c-0.7,0-1.5,0-2.2,0
	c-0.1-0.1-0.2-0.2-0.4-0.4c-0.6,0-1.2,0-1.8,0c-0.1-0.1-0.2-0.2-0.3-0.3c-0.5,0-0.9,0-1.4,0c-0.1-0.1-0.3-0.3-0.4-0.4
	c-0.4,0-0.7,0-1.1,0c-0.1-0.1-0.2-0.2-0.3-0.3c-0.3,0-0.7,0-1,0c-0.2-0.2-0.4-0.4-0.5-0.4c-0.5,0.1-0.8-0.2-1.1-0.4
	c-0.3-0.1-0.6-0.1-1-0.3c-0.3-0.2-0.8,0.1-1.1-0.4c-0.2,0-0.5,0-0.7,0c-0.1-0.1-0.3-0.3-0.4-0.4c-0.2,0-0.5,0-0.6,0
	c-0.5-0.3-0.8-0.7-1.2-0.7c-0.6,0-1.1-0.3-1.5-0.6c-0.4-0.2-1,0.1-1.2-0.5c-0.5,0.1-0.8-0.5-1.3-0.4c-0.1,0-0.2-0.1-0.3-0.1
	c-1.4-0.7-2.9-1.5-4.3-2.2c-0.3-0.4-0.7-0.1-1-0.3c-0.3-0.3-0.6-0.2-0.9-0.5c-0.2-0.3-0.7-0.1-0.9-0.5c-0.4,0.1-0.6-0.3-0.9-0.4
	s-0.5-0.3-0.8-0.3c-0.4-0.1-0.5-0.5-0.8-0.6c-0.8-0.3-1.6-0.8-2.4-1.2c-1-0.5-2.2-0.8-3.1-1.8c0,0-0.1,0-0.2,0
	c-0.3,0-0.4-0.3-0.6-0.3c-0.7-0.1-1.3-0.6-2-0.9c-1.7-0.8-3.3-1.6-4.9-2.4c-0.3-0.1-0.5-0.3-0.8-0.3s-0.5-0.2-0.8-0.3
	c-0.2-0.1-0.4-0.2-0.7-0.4c-0.3,0-0.6,0-1,0c-0.1-0.1-0.2-0.2-0.3-0.3c-0.4-0.2-1,0.1-1.2-0.5c-0.5,0-0.8-0.6-1.3-0.4
	c-0.4-0.2-0.8-0.5-1.2-0.7c-0.1,0-0.4,0-0.6,0c-0.1-0.1-0.3-0.3-0.4-0.4c-0.2,0-0.5,0-0.8,0c-0.1-0.2-0.1-0.4-0.2-0.6
	c-0.4-0.2-1,0.1-1.2-0.5c-0.6,0.2-0.9-0.4-1.5-0.4c-0.4,0-0.8-0.6-1.3-0.3c-0.1-0.1-0.3-0.2-0.4-0.4c-0.3,0-0.7,0-1.1,0
	c-0.1-0.1-0.3-0.3-0.4-0.4c-0.2,0-0.5,0-0.7,0c-0.1-0.1-0.2-0.2-0.3-0.3c-0.3-0.2-0.7-0.1-1.1-0.1c-0.1-0.1-0.2-0.2-0.5-0.4
	c-0.2,0-0.5,0-0.7,0c-0.4,0.1-0.5-0.3-0.8-0.4c-0.3,0-0.6,0-0.9,0c-0.1-0.1-0.3-0.2-0.4-0.3c-0.5,0-0.9,0-1.4,0
	c-0.1-0.1-0.3-0.3-0.4-0.4c-0.5,0-1,0-1.4,0c-0.1-0.1-0.3-0.3-0.4-0.4c-0.6,0-1.2,0-1.8,0c-0.1-0.1-0.2-0.2-0.3-0.3
	c-0.7-0.1-1.5,0-2.3-0.1c-0.1-0.1-0.2-0.2-0.3-0.3c-0.8,0-1.7,0-2.5,0c-0.1-0.1-0.2-0.2-0.4-0.4c-1.2,0-2.4,0-3.6,0
	c-0.1-0.1-0.2-0.2-0.3-0.3c-6.2,0-12.5,0-18.7,0c-0.1,0.1-0.2,0.2-0.4,0.3c-1.5,0-3.1,0-4.7,0c-0.1,0.1-0.2,0.2-0.2,0.2
	c-0.1,0.1-0.1,0.1-0.2,0.1c-1.1,0-2.2,0-3.2,0c-0.1,0.1-0.2,0.2-0.3,0.3c-1.1,0-2.2,0-3.2,0c-0.1,0.1-0.2,0.2-0.4,0.4
	c-0.9,0-1.9,0-2.9,0c-0.1,0.1-0.2,0.2-0.4,0.4c-0.9,0-1.9,0-2.9,0c-0.1,0.1-0.2,0.2-0.3,0.3c-0.7,0-1.4,0-2.1,0
	c-0.1,0.1-0.3,0.3-0.4,0.4c-0.7,0-1.4,0-2.2,0c-0.1,0.1-0.2,0.2-0.3,0.3c-0.7,0-1.5,0-2.2,0c-0.1,0.1-0.2,0.2-0.4,0.4
	c-0.6,0-1.2,0-1.8,0c-0.1,0.1-0.2,0.2-0.4,0.4c-0.6,0-1.2,0-1.8,0c-0.1,0.1-0.2,0.2-0.4,0.4c-0.5,0-1,0-1.4,0
	c-0.1,0.1-0.2,0.2-0.3,0.3c-0.6,0-1.2,0-1.8,0c-0.1,0.1-0.3,0.3-0.4,0.4c-0.5,0-1,0-1.4,0c-0.1,0.1-0.2,0.2-0.3,0.3
	c-0.5,0-1,0-1.4,0c-0.1,0.1-0.2,0.2-0.4,0.4c-0.5,0-1,0-1.4,0c-0.1,0.1-0.2,0.2-0.4,0.4c-0.5,0-1,0-1.4,0c-0.1,0.1-0.2,0.2-0.4,0.4
	c-0.5,0-1,0-1.4,0c-0.1,0.1-0.2,0.2-0.3,0.3c-0.3,0-0.7,0-1.1,0c-0.1,0.1-0.3,0.3-0.4,0.4c-0.4,0-0.7,0-1.1,0
	c-0.1,0.1-0.2,0.2-0.3,0.3c-0.5,0-1,0-1.4,0c-0.1,0.1-0.2,0.2-0.4,0.4c-0.2,0-0.5,0-0.8,0c-0.4-0.1-0.5,0.3-0.8,0.4
	c-0.3,0-0.6,0-0.9,0c-0.1,0.1-0.3,0.2-0.4,0.3c-0.3,0-0.7,0-1,0c-0.1,0.1-0.3,0.2-0.4,0.4c-0.3,0-0.7,0-1,0
	c-0.1,0.1-0.3,0.3-0.4,0.4c-0.4,0-0.7,0-1.1,0c-0.1,0.1-0.2,0.2-0.3,0.3c-0.2,0-0.5,0-0.8,0.1c-0.1,0.1-0.3,0.2-0.5,0.4
	c-0.8-0.4-1.5,0.7-2.3,0.3c-0.2,0.1-0.3,0.3-0.5,0.4c-0.2,0-0.4,0-0.7,0c-0.1,0.1-0.3,0.2-0.4,0.4c-0.3,0-0.7,0-1.1,0
	c-0.1,0.1-0.3,0.3-0.4,0.4c-0.2,0-0.5,0-0.7,0c-0.1,0.1-0.3,0.3-0.4,0.4c-0.3,0-0.6,0-1,0c-0.1,0.1-0.3,0.4-0.5,0.3
	c-0.7-0.1-1.3,0.7-2,0.3c-0.2,0.1-0.3,0.3-0.5,0.4c-0.2,0-0.4,0-0.7,0c-0.1,0.1-0.3,0.3-0.4,0.4c-0.2,0-0.5,0-0.7,0
	c-0.1,0.1-0.3,0.3-0.4,0.4c-0.4,0-0.7,0-1,0c-0.2,0.1-0.3,0.3-0.4,0.3c-0.5,0-0.8,0.2-1.1,0.4c-0.3,0.1-0.6,0.1-1,0.3
	c-0.2,0.2-0.7,0.1-1.1,0.1c-0.1,0.1-0.2,0.2-0.4,0.3c-0.2,0-0.5,0-0.7,0c-0.1,0.1-0.3,0.3-0.4,0.4c-0.2,0-0.5,0-0.7,0
	c-0.1,0.1-0.3,0.3-0.4,0.4c-0.2,0-0.5,0-0.7,0c-0.3,0.5-0.7,0.3-1.1,0.4c-0.3,0.5-0.8,0.1-1.1,0.4s-0.7,0.2-1,0.3
	c-0.4,0.2-0.7,0.4-1.1,0.3c-0.1,0.1-0.3,0.2-0.4,0.4c-0.4,0-0.7,0-1.1,0c-0.1,0.1-0.2,0.2-0.3,0.3c-0.2,0-0.5,0-0.7,0
	c-0.1,0.1-0.3,0.3-0.4,0.3c-0.5-0.1-0.8,0.2-1.1,0.4c-0.3,0.1-0.6,0.1-1,0.3c-0.3,0.2-0.8-0.1-1.1,0.4c-0.2,0-0.5,0-0.7,0
	c-0.1,0.1-0.3,0.3-0.4,0.4c-0.2,0-0.5,0-0.6,0c-0.5,0.3-0.8,0.5-1.3,0.7c-0.3,0-0.6,0-0.9,0c-0.4,0.2-0.7,0.5-1.2,0.7
	c-0.4,0.1-0.8-0.1-1.1,0.4c-0.2,0-0.5,0-0.7,0c-0.1,0.1-0.3,0.3-0.4,0.4c-0.2,0-0.5,0-0.7,0c-0.1,0.1-0.3,0.3-0.4,0.4
	c-0.5-0.2-0.9,0.4-1.3,0.3c-0.5-0.1-0.8,0.5-1.3,0.4c-0.4-0.1-0.6,0.4-1.1,0.4c-0.4,0-0.8,0.3-1.2,0.6c-0.3,0.2-0.6,0-0.8,0.1
	s-0.3,0.4-0.6,0.3c-0.5-0.2-0.8,0.5-1.3,0.4c-0.4-0.1-0.6,0.5-1.1,0.4c-0.4-0.1-0.8,0.5-1.3,0.3c-0.2,0.4-0.7,0.3-1,0.6
	c-0.3,0.3-0.8-0.1-1.1,0.4c-0.2,0.3-0.8-0.1-1.1,0.4c-0.2,0.3-0.7-0.1-1,0.3c-0.2,0.3-0.6,0.2-0.9,0.5c-0.1,0.1-0.5,0-0.7,0.1
	c-0.1,0.1-0.2,0.2-0.4,0.3c-0.2,0-0.5,0-0.7,0c-0.1,0.1-0.3,0.3-0.4,0.4c-0.2,0-0.5,0-0.7,0c-0.2,0.1-0.3,0.4-0.4,0.3
	c-0.5-0.2-0.9,0.3-1.3,0.4c-0.4,0.1-0.7,0.3-1.1,0.4c-0.3,0-0.5,0.4-0.9,0.3s-0.5,0.5-0.9,0.4c-0.3-0.1-0.5,0.3-0.8,0.3
	c-0.4,0-0.6,0.5-0.9,0.4c-0.4-0.1-0.6,0.2-0.9,0.3c-0.2,0.1-0.6,0-0.7,0.1c-0.3,0.3-0.7,0.2-0.9,0.5s-0.6,0.1-1,0.3
	c0,0-0.1,0.1-0.3,0.3c-0.2,0-0.5,0-0.7,0c-0.2,0.4-0.8,0.3-1,0.6c-0.1,0.1-0.3,0.1-0.5,0.1c-0.5,0.1-0.9,0.4-1.4,0.5
	c-0.4,0.1-0.7,0.4-1.1,0.6c-0.1,0-0.4,0-0.6,0c-0.1,0.1-0.3,0.3-0.4,0.4c-0.2,0-0.5,0-0.5,0c-0.6,0.3-1,0.7-1.5,0.7
	s-0.8,0.5-1.3,0.5c-0.4,0-0.8,0.3-1.2,0.6c-0.3,0.2-0.6,0.1-0.8,0.1c-0.2,0.1-0.3,0.4-0.6,0.4c-0.4-0.1-0.7,0.1-0.9,0.4
	c-0.4-0.1-0.5,0.5-0.9,0.4s-0.6,0.3-0.9,0.3c-0.5,0-0.7,0.3-1.1,0.4c-0.4,0.1-0.5,0.6-0.9,0.4c-0.5-0.2-0.6,0.6-1.1,0.4
	c-0.2,0.4-0.6,0.4-0.9,0.4c-0.1,0-0.2,0.1-0.3,0.2c-0.2,0.3-0.6,0.2-0.9,0.5c-0.2,0.2-0.7-0.1-1,0.3c-0.2,0.3-0.6,0.2-0.9,0.5
	c-0.2,0.2-0.6-0.1-1,0.3c-0.3,0.3-1-0.1-1.2,0.5c-0.5,0-0.8,0.6-1.3,0.4c-0.1,0-0.3,0.3-0.4,0.3c-0.5-0.1-0.6,0.5-1.1,0.4
	c-0.4-0.1-0.6,0.3-0.9,0.4c-0.4,0-0.6,0.5-1.1,0.4c-0.2,0-0.4,0.3-0.6,0.3c-0.5,0-0.6,0.5-1.1,0.4c-0.3-0.1-0.7,0.1-0.9,0.3
	c-0.3,0.3-0.7,0.4-1.1,0.4c-0.1,0-0.3,0.3-0.4,0.3c-0.5-0.2-0.6,0.6-1.1,0.4c-0.4-0.2-0.6,0.4-1.1,0.4c-0.3,0-0.6,0.5-1,0.6
	c-0.5,0.1-0.9,0.2-1.3,0.4c-0.4,0.2-0.8,0.4-1.3,0.4c-0.3,0-0.6,0.4-1,0.6s-0.9,0.1-1.3,0.4c-0.3,0.2-0.8,0.3-1,0.5
	c-0.3,0.2-0.5,0.2-0.8,0.3c-0.3,0.1-0.5,0.2-0.8,0.3c-0.3,0.2-0.8,0.3-1,0.5c-0.3,0.3-0.7,0.1-1,0.2c-0.3,0.2-0.7,0.4-1,0.6
	c-0.6-0.2-1,0.3-1.4,0.4c-0.5,0.2-0.9,0.4-1.3,0.7c-0.6,0.4-1.3,0.4-1.9,0.7c-0.6,0.4-1.2,0.6-1.8,1c-0.4,0.3-1-0.1-1.2,0.5
	c-0.5,0-0.8,0.4-1.2,0.6c-0.4,0.1-0.7,0.3-1,0.5c-0.4,0.2-0.8,0.5-1.2,0.6c-0.7,0.2-1.4,0.5-2,0.8c-0.7,0.4-1.4,0.8-2.1,1.1
	c-0.7,0.3-1.3,0.7-2,0.9c-0.7,0.3-1.3,0.6-1.9,0.9c-0.7,0.3-1.4,0.7-2.1,1.1c-0.6,0.4-1.4,0.5-1.9,1c-0.7-0.1-0.8,0.9-1.5,0.8
	c-0.4,0.4-0.9,0.5-1.3,0.7s-0.8,0.5-1.2,0.7c-0.7-0.1-0.8,0.9-1.5,0.8c-0.5,0.5-1.3,0.5-1.7,1c-0.3,0-0.6,0.1-0.7,0.4
	c-0.2,0.3-0.6,0.3-0.9,0.5c-0.2,0.1-0.5,0.2-0.7,0.4c-0.5,0.5-1.1,0.6-1.6,0.9c-0.4,0.3-0.9,0.4-1.3,0.8c-0.4,0.5-1.2,0.4-1.6,0.9
	s-1.2,0.6-1.5,1.1c-0.5,0.1-1,0.3-1.3,0.7c-0.3,0.4-0.9,0.3-1.1,0.8c-0.3,0.5-1,0.4-1.3,0.9c-0.2,0.3-0.7,0.3-1,0.6
	c-0.2,0.3-0.4,0.6-0.8,0.7c-0.5,0.1-0.6,0.6-1.1,0.7c0,0-0.1,0-0.3,0c-0.5,0.5-0.9,0.9-1.4,1.4c-0.1,0-0.2,0-0.4,0
	c-0.5,0.5-1,1-1.5,1.5c-0.4,0.4-0.9,0.4-1.3,0.9c-0.3,0.4-0.7,0.7-1,1c-0.4,0.4-0.8,0.8-1.2,1.2c-0.3,0.3-0.7,0.7-1,1
	c0,0.1,0,0.3,0,0.4c-0.6,0.6-1.2,1.2-1.8,1.8c0,0.1,0,0.2,0,0.3c-0.3,0.4-0.7,0.6-0.8,1.1c-0.1,0.4-0.6,0.6-0.8,1.1
	c-0.2,0.4-0.4,0.8-0.6,1.2c-0.1,0.2-0.3,0.5-0.4,0.8s-0.3,0.5-0.3,0.8s-0.1,0.5-0.3,0.8c-0.2,0.3-0.1,0.8-0.1,1.2
	c-0.1,0.1-0.2,0.2-0.3,0.3c0,0.7,0,1.4,0,2.1c-0.1,0.3-0.5,0.5-0.4,0.8c-0.6,0.6-1.1,1.1-1.7,1.7c-0.2,0-0.4,0-0.6,0
	c-0.1,0.1-0.2,0.2-0.3,0.3c-0.4,0.2-0.8,0-1.1,0.1c-0.2-0.2-0.3-0.3-0.5-0.4c-1.3-0.3-1.3-0.3-1.8-0.8s-0.5-0.5-0.8-1.8
	c0-0.2-0.2-0.3-0.3-0.4v-0.1c0-0.2,0-0.4,0-0.6c0.1-0.1,0.2-0.3,0.4-0.4c0-0.2,0-0.5,0-0.7c0.5-0.2,0.3-0.8,0.8-1.1
	c0.5-0.3,0.4-1,0.9-1.2c0.1-0.5,0.5-0.8,0.7-1.1c0.2-0.5,0.6-0.9,0.9-1.2c0.3-0.3,0.7-0.7,1-1c0-0.2,0-0.3,0-0.4
	c0.9-0.9,1.9-1.9,2.8-2.8c0-0.2,0.1-0.3,0.1-0.5c0.1,0,0.3-0.1,0.5-0.1c0.1-0.2,0.1-0.4,0.2-0.6c0.2-0.1,0.4-0.1,0.6-0.2
	c0-0.1,0-0.3,0-0.4c0.4-0.3,0.7-0.7,1.2-1c0.6-0.3,1-0.9,1.4-1.3c0.6-0.6,1.2-1.2,1.8-1.8c0.5-0.7,1.4-0.9,1.9-1.5s1.2-1.2,1.8-1.8
	c0.1,0,0.2,0,0.3,0c0.6-0.6,1.2-1.2,1.7-1.7c0.2,0,0.3,0,0.5-0.1c0.5-0.5,1.1-1.2,1.7-1.7c0.3-0.2,0.6-0.3,0.9-0.5s0.4-0.6,0.8-0.6
	c0.1,0,0.1,0,0.2,0c0.5-0.5,0.9-0.9,1.4-1.4c0.1,0,0.2,0,0.3,0c0.5-0.3,0.8-0.8,1.3-1.1c0.5-0.2,0.8-0.8,1.2-1
	c0.6-0.2,0.9-0.8,1.4-1c0.4-0.2,0.8-0.4,1.1-0.8c0.3-0.4,0.9-0.3,1.1-0.8c0.2-0.4,0.6-0.3,0.9-0.5s0.4-0.6,0.8-0.6
	c0.1,0,0.3-0.2,0.4-0.3c0.4-0.3,0.5-0.7,1.1-0.8c0.4,0,0.5-0.6,1-0.7c0.5,0,0.6-0.7,1.1-0.7c0.4,0,0.5-0.7,1-0.7s0.6-0.6,1.1-0.8
	c0.5-0.1,1-0.3,1.3-0.8c0.3-0.4,0.9-0.3,1.1-0.8c0.2-0.4,0.8-0.2,1-0.6s0.6-0.3,0.9-0.5c0.4-0.2,0.8-0.5,1.1-0.8
	c0.3-0.2,0.7-0.5,1.2-0.5c0.6-0.9,1.9-0.9,2.5-1.8c1.2-0.2,1.8-1.3,3-1.5c0.3-0.4,0.8-0.3,1.2-0.7c0.3-0.3,0.8-0.4,1.2-0.6
	c0.3-0.2,0.6-0.3,0.9-0.5c0.3-0.1,0.5-0.5,0.8-0.6c1-0.4,2-1,3-1.5c0.4-0.2,0.9-0.4,1.3-0.8c0.4-0.4,1.1-0.6,1.6-0.9
	c3.3-1.6,6.5-3.3,9.9-4.9c0.3-0.5,1.1,0,1.4-0.6c0.5-0.1,0.9-0.4,1.4-0.6s0.9-0.5,1.4-0.7s1-0.4,1.3-0.7c0.4-0.4,1.1,0,1.4-0.6
	c0.9-0.3,1.7-0.9,2.6-1.2c0.2-0.3,0.5-0.2,0.8-0.3c0.3-0.1,0.5-0.2,0.8-0.3c0.3-0.2,0.8-0.3,1-0.5c0.4-0.3,1,0.1,1.2-0.5
	c0.5,0.1,0.6-0.5,1.1-0.4c0.2-0.4,0.7-0.4,1-0.6c0.6-0.2,1.2-0.4,1.7-0.7c0.5-0.3,0.9-0.6,1.6-0.6c0.2,0,0.4-0.3,0.6-0.3
	c0.4-0.1,0.6-0.5,1.1-0.4c0.3,0.1,0.5-0.4,0.9-0.4c0.3,0,0.7-0.6,1-0.6c1,0,1.6-0.9,2.6-0.8l0.1-0.1c0.4-0.2,0.8-0.4,1.2-0.6
	s0.7-0.3,1.1-0.4c0.4-0.1,0.8-0.6,1.2-0.6c0.5-0.1,0.9-0.3,1.3-0.4c0.4-0.1,0.6-0.5,1.1-0.4c0.4-0.3,0.9-0.3,1.2-0.7
	c1,0.1,1.6-0.9,2.6-0.8l0.1-0.1c0.4-0.3,0.8-0.4,1.2-0.6c0.5,0.2,0.8-0.5,1.3-0.4c0.1,0,0.3-0.1,0.5-0.2c0.5-0.1,0.8-0.6,1.2-0.5
	c0.5,0,0.8-0.5,1.3-0.4c0.1,0,0.3,0,0.3-0.1c0.3-0.3,0.8-0.2,1-0.6c0.4,0.1,0.8-0.1,1.1-0.4c0.6,0.2,0.9-0.4,1.4-0.5
	c0.1,0,0.3-0.3,0.4-0.3c0.5,0.1,0.7-0.3,1.1-0.4c0.4,0,0.7-0.1,0.9-0.4c0.4,0.1,0.6-0.4,0.9-0.4c0.4,0.1,0.6-0.2,0.9-0.4
	c0.6,0.2,0.9-0.4,1.4-0.5c0.1,0,0.3-0.3,0.4-0.3c0.5,0.1,0.7-0.4,1.1-0.4c0.4,0,0.7-0.1,0.9-0.4c0.5,0.2,0.6-0.5,1.1-0.4
	c0.3,0.1,0.6-0.3,0.9-0.3c0.4,0,0.6-0.3,0.9-0.4c0.4-0.1,0.7,0,1-0.3C132.2,31.7,132.5,31.8,132.7,31.8z"/>
</svg>
