<svg viewBox="0 0 728 95">
<style type="text/css">
	.st0{fill:#FEFFFF;}
	.st1{fill:#FFFFFF;}
	.st2{fill:#FFFEFF;}
	.st3{fill:#FEFEFE;}
	.st4{fill:#FEFFFD;}
	.st5{fill:#F6B5B2;}
	.st6{fill:#F6B6B4;}
	.st7{fill:#F7B7B3;}
	.st8{fill:#F6B6B2;}
	.st9{fill:#F6B5B1;}
	.st10{fill:#F6B4B1;}
	.st11{fill:#F6B5B3;}
	.st12{fill:#F6B4B0;}
	.st13{fill:#F6B3B1;}
	.st14{fill:#F6B4B2;}
	.st15{fill:#F7B7B2;}
	.st16{fill:#F7B8B4;}
</style>
<g>
	<path class="st0" d="M272,27.7c0,0.1-0.1,0.2-0.1,0.4c-1.1,0-2.1,0-3.3,0c-0.1-0.1-0.3-0.3-0.5-0.4c-0.1-0.3-0.1-0.6-0.2-1.1
		c-0.2,0.4-0.4,0.8-0.6,1.1c0,0.1,0,0.1,0,0.2s0,0.2,0,0.4c0.1,0.1,0.2,0.3,0.3,0.4c-0.1,0.1-0.2,0.2-0.3,0.4
		c0.1,0.1,0.2,0.2,0.3,0.2c0.2,0.4,0.1,0.8,0.1,1.2c-0.2,0.2-0.3,0.3-0.5,0.5c-0.1-0.3-0.2-0.5-0.3-0.7c-0.1,0.1-0.3,0.3-0.4,0.4
		c-0.2,0-0.5,0-0.7,0c-0.1,0.1-0.3,0.2-0.4,0.3c-0.1-0.1-0.2-0.2-0.3-0.3c-0.1,0.1-0.2,0.2-0.4,0.3c-0.3,0-0.7,0-1.1,0
		c-0.4-0.2-0.6-0.6-0.8-1.1c-0.1,0-0.2,0-0.4,0c-0.1,0.2-0.1,0.4-0.2,0.6c-0.1,0-0.3,0.1-0.5,0.1c-0.3,0.4-0.1,0.8-0.1,1.2
		c0.1,0.1,0.2,0.3,0.4,0.4c0.1,0.3-0.2,0.5-0.3,0.7c0.1,0.1,0.2,0.3,0.3,0.4c-0.2,0.2-0.3,0.4-0.5,0.5c-1.1,0-2.2,0-3.3,0
		c-0.2-0.4-0.7-0.4-1-0.6s-0.7-0.4-1-0.7c0-0.2,0-0.5,0-0.7c0.1-0.1,0.2-0.3,0.3-0.4c-0.1-0.1-0.2-0.2-0.3-0.3
		c0.1-0.3,0.3-0.4,0.5-0.6c0.2,0,0.5,0,0.5,0.3c0,0.1,0.1,0.3,0.2,0.4c0.3-0.5,0.1-0.9,0.2-1.3c-0.1-0.1-0.2-0.3-0.4-0.4
		c0-0.1,0-0.3,0-0.4c0.3-0.3,0.6-0.2,1-0.1c0,0.3-0.6,0.6-0.1,1c0.3-0.2,0.6-0.3,0.9-0.5c0-0.3,0-0.7,0-1c0.2-0.3,0.4-0.5,0.5-0.6
		c0.7,0,0.8,0.5,1.2,0.7c0.2,0,0.5,0,0.7,0c0.2-0.1,0.2-0.3,0.1-0.6c-0.2-0.1-0.4-0.2-0.6-0.3c0.4-0.2,0.4-0.2,1.2-0.3l0.1-0.1
		c-0.2-0.4-0.4-0.8-0.6-1.1c0.1-0.1,0.2-0.3,0.3-0.4c0-0.4,0-0.7,0-1.1c0.3-0.3,0.7-0.2,1.1,0c-0.3,0.3-0.5,0.6-0.7,0.8
		c0,0.5,0.4,0.7,0.6,0.9c0.1,0,0.2,0,0.3-0.1c0.2-0.3,0-0.6,0.1-0.9c0.2-0.1,0.4-0.1,0.6-0.2c0.2-0.2,0.4-0.4,0.7-0.6
		c0.1,0,0.3,0.1,0.6,0.1c-0.1,0.2-0.3,0.3-0.4,0.4c0.2,0.3,0.7,0.3,2.1,0c-0.1-0.1-0.2-0.3-0.4-0.4c0.2-0.1,0.3-0.1,0.5-0.2
		c0.1,0.1,0.3,0.3,0.4,0.3c0.2-0.1,0.5-0.3,1-0.6c0.4-0.3,0.9-1.1,1.7-1.4c0.4-0.1,0.2-0.7,0.5-0.9c0.4,0,0.7,0,1.1,0
		c0.1,0.1,0.1,0.3,0.2,0.4c-0.2,0.5-0.8,0.6-0.7,1.3c0.3,0.1,0.7,0,0.9,0.2c0.3,0.3,0.6,0.3,1,0.3c0.1,0.1,0.3,0.3,0.5,0.5
		c0.2,0.5,0,0.9-0.3,1.3c0,0.1,0,0.1,0,0.2c0.1,0.1,0.2,0.3,0.5,0.6c0,0.1-0.4,0.5,0.1,0.7l0.1-0.1c0-0.6,0-1.2,0-1.8
		c0.3-0.3,0.6-0.6,0.9-0.9c1.1,0,2.3,0,3.6,0c0,0.1,0.1,0.3,0.2,0.4s0.2,0.3,0.3,0.5c0,0.6,0,1.2,0,1.8c-0.1,0.1-0.2,0.2-0.3,0.3
		c0.1,0.1,0.2,0.3,0.3,0.4c0,0.3,0,0.7,0,1.1c-0.2,0.1-0.5,0.2-0.8,0.4c0.3,0.1,0.5,0.2,0.7,0.2c0,0.1,0.1,0.2,0.1,0.3
		c0,1.5,0,3,0,4.5c-0.2,0.2-0.4,0.4-0.5,0.5c-0.1-0.1-0.3-0.2-0.4-0.3c-0.3,0.3-0.6,0.6-0.9,0.9c0,0.1,0,0.3,0,0.4
		c0.2,0.3,0.6,0.1,0.8,0.2c0.3-0.1,0.4-0.5,0.8-0.4c0.3,0.4,0.3,0.4-0.1,0.9c0.3,0.2,0.6,0.5,1.2,0.9c-0.1,0,0.1,0,0.5,0
		c0.1-0.3,0.3-0.6,0.5-0.9c0.4,0.3,0.5,0.5,0.7,0.6c0.1,0.4,0.2,0.8-0.3,1.1c0.2,0.2,0.3,0.3,0.5,0.6c0.7,0,1.5,0,2.2,0
		c0.1,0.1,0.2,0.1,0.2,0.2s0,0.2,0,0.4c-0.3,0.4-0.8-0.1-1.1,0.4c0.4,0.4,0.8,0,1.2,0.2c0.3,0.1,0.4,0.6,0.9,0.5
		c-0.1,0.1-0.2,0.2-0.3,0.4c0.1,0.1,0.2,0.2,0.3,0.4c0,0.5,0,0.9,0,1.4c-0.1,0.1-0.2,0.2-0.3,0.4c0,0.5,0,1,0,1.4
		c-0.2,0.2-0.2,0.2-1.2,0.2c-0.3,0.3-0.7,0.4-1.1,0.4c-0.1-0.1-0.3-0.2-0.4-0.3c-0.3,0-0.7,0-1.1,0c-0.1,0.1-0.3,0.2-0.3,0.3
		c-0.3-0.2-0.6-0.3-0.9-0.5c0-0.5,0-1,0-1.4c-0.1-0.3-0.5-0.4-0.4-0.8c-0.2-0.2-0.3-0.3-0.5-0.5c-0.3,0-0.7,0-1.1,0
		c-0.1,0.1-0.2,0.2-0.4,0.3c-0.1-0.1-0.3-0.2-0.4-0.3c-0.1,0.1-0.3,0.2-0.4,0.4c-0.1,0-0.3,0-0.4,0l-0.1-0.1c0-0.5,0-1,0-1.4
		c-0.1-0.1-0.3-0.3-0.4-0.4c0-0.6,0-1.2,0-1.8c0.1-0.1,0.2-0.2,0.3-0.4c0.1-0.4,0-0.9,0-1.4c0.1-0.1,0.2-0.3,0.3-0.4
		c-0.3-0.2-0.7-0.2-0.9-0.5c-0.1-0.3-0.5-0.3-0.7-0.4c-0.3-0.1-0.3-0.6-0.5-0.9c0.1-0.1,0.2-0.2,0.3-0.3c0-0.3,0-0.5,0-0.8
		c-0.2-0.1-0.4-0.1-0.7-0.3c0.1-0.1,0.2-0.3,0.3-0.4c0-0.5,0-1,0-1.5l-0.1-0.1c-0.1,0.3-0.2,0.5-0.3,0.7c-0.3-0.3-0.1-0.6-0.3-1
		c0,0-0.2-0.2-0.3-0.3c0-0.4,0-0.8,0-1.2c0.6,0,0.2,0.5,0.6,0.6c0.2-0.3,0.5-0.6,0.7-0.9c-0.1-0.2-0.2-0.5-0.4-0.8
		c-0.1,0-0.3,0-0.4,0c-0.4,0.1,0,0.7-0.5,0.6c-0.2-0.4-0.1-0.8-0.1-1.2c-0.4-0.4-0.6-0.1-0.9,0.2C272.4,28,272.3,27.8,272,27.7
		c0.2-0.5,0.5-1,0.7-1.4c-0.4-0.7-0.6-1.4-1.3-1.8c-0.9,0.1-1.5,0.4-1.9,0.9c0,0.5,0,1,0,1.4c0.3,0.3,0.6,0.6,0.9,0.9
		C271,27.8,271.5,27.8,272,27.7z M260.8,30.8c-0.4-0.2-0.6-0.3-0.9-0.5c-0.2,0-0.4,0-0.5,0c-0.4,0.2-0.7,0.4-0.9,0.5
		c-0.1,0.3-0.3,0.5-0.5,0.9c0,0.2,0,0.6,0,0.8c0.3,0.4,0.6,0.8,0.8,1c0.6,0,1.1,0,1.4,0c0.5-0.4,0.8-0.6,1-0.8c0-0.5,0-0.8,0-1
		C261,31.2,260.8,30.9,260.8,30.8z M283.6,40.7c-0.8,0.1-1.5,0.4-1.8,0.9c0,0.5,0,1,0,1.4c0.3,0.3,0.6,0.6,0.9,0.9
		c0.2,0,0.5,0,0.7,0c0.3,0,0.6,0.1,0.9-0.1c0.2-0.4,0.5-0.8,0.7-1.2c0.1-0.1,0-0.3,0-0.5C284.6,41.7,284.1,41.3,283.6,40.7z
		 M278.5,33.7c0-0.4,0-0.7,0-1c-0.2-0.5-0.9-0.5-1.3-0.9c-0.1-0.1-0.6-0.1-0.8,0.1c-0.2,0.2-0.6,0.1-0.7,0.4
		c-0.2,0.2-0.2,0.5-0.4,0.7c-0.1,0.2-0.1,0.6,0,0.8c0.3,0.4,0.3,1,0.9,1.2c0.5,0,0.9,0,1.4,0C278.2,34.7,278.1,34,278.5,33.7z
		 M266.6,29.4c0-0.5,0-1,0-1.4c-0.5-0.6-1.1-0.9-1.7-0.9c-0.5,0.5-1,1-1.5,1.5c-0.1,0.5,0.4,0.9,0.6,1.4c0.1,0.1,0.2,0.2,0.3,0.3
		c0.5,0,1,0,1.4,0C266.1,30,266.4,29.7,266.6,29.4z M277.2,41.1c0.6,0,1.1,0,1.6,0c0.3-0.3,0.6-0.6,0.8-0.9c0-0.5,0-1,0-1.7
		c-0.7-0.1-1.1-0.9-1.8-0.7c-0.6,0.5-1,0.9-1.4,1.4c0,0.2-0.1,0.4,0,0.5C276.6,40.2,276.9,40.6,277.2,41.1z M274.9,27.9
		c0.2,0.3,0.4,0.5,0.5,0.6c0.7,0,1.3,0,1.8,0c0.2-0.2,0.3-0.3,0.5-0.5c0-0.6,0-1.2,0-1.8c-0.2-0.1-0.3-0.3-0.5-0.5
		c-0.6,0-1.3,0-1.9,0c-0.2,0.2-0.3,0.4-0.5,0.5C274.9,26.8,274.9,27.4,274.9,27.9z"/>
	<path class="st1" d="M553.2,40c0-0.2,0-0.4,0-0.5c-0.5-0.6-0.8,0.4-1.2,0.2c-0.4-0.1,0-0.8-0.6-0.7c-0.5,0-0.6,0.6-1,0.7
		c-0.2,0-0.5,0-0.7,0c-0.1-0.2-0.1-0.3-0.1-0.5c0.3-0.3,0.5-0.5,0.7-0.8c-0.2-0.2-0.4-0.4-0.7-0.7c0-0.8,0-1.6,0-2.5
		c0.1-0.1,0.2-0.3,0.4-0.6c-0.1-0.2-0.2-0.3-0.4-0.6c0-0.2,0-0.5-0.1-0.8c-0.3,0-0.6,0-0.9,0c-0.1,0.1-0.2,0.2-0.3,0.3
		c-0.3,0-0.7,0-1,0c-0.2,0.2-0.4,0.3-0.7,0.5c-0.2-0.1-0.4-0.3-0.6-0.4c-0.2,0-0.4,0-0.7,0c-0.1,0.1-0.2,0.2-0.4,0.3
		c-0.1,0-0.2,0-0.4,0c-0.1-0.1-0.1-0.3-0.2-0.5c0.3-0.2,0.6-0.4,0.8-0.5c0-0.5,0.1-0.8,0-0.9c-0.4-0.4-0.3-1-0.9-1.3
		c-0.4,0.3-0.1,0.6,0.1,0.8c0,0.3,0,0.7,0,1c-0.1,0.3-0.3,0.6-0.5,0.9c-0.2,0-0.5,0.1-0.8,0.1c-0.1,0.1-0.2,0.2-0.3,0.3
		c-0.3,0-0.7,0-1.1,0c-0.1-0.1-0.3-0.2-0.5-0.3c-0.1,0.1-0.1,0.1-0.1,0.2s0,0.1,0,0.2c0,1.9,0,3.7,0,5.5c-0.4,0.4-0.6,0.1-0.9-0.2
		c-0.3,0-0.5,0-0.7,0c-0.1,0.1-0.2,0.1-0.3,0.3c-0.4,0.2-0.8,0.1-1.2,0.1c-0.3,0.3,0.1,0.3,0.2,0.6c0,0.6,0,1.4,0,2.1
		c-0.1,0.1-0.2,0.2-0.3,0.4c0.1,0.1,0.2,0.3,0.3,0.4c-0.1,0.1-0.2,0.2-0.3,0.3c0.1,0.1,0.2,0.2,0.3,0.4c0,0.3,0,0.7,0,1.1
		c-0.3,0.3-0.8-0.1-0.8,0.6c-0.2-0.2-0.3-0.3-0.4-0.4c-0.4,0-0.8,0-1.2,0c-0.1,0.1-0.2,0.2-0.3,0.3c-0.1-0.1-0.2-0.2-0.4-0.3
		c-0.3-0.2-0.5,0.1-0.7,0.3c-0.2,0-0.5,0-0.7,0c-0.1-0.1-0.2-0.2-0.4-0.3c-0.2,0-0.5,0-0.7,0c-0.4,0.5,0,1.2-0.3,1.7
		c-0.1,0-0.3,0.1-0.5,0.1c-0.2-0.5-0.1-1.1-0.1-1.6c-0.2-0.2-0.3-0.5-0.5-0.7c-0.3,0.4-0.2,0.7-0.2,1c0,0.2,0,0.5,0,0.7
		c-0.3,0.3-0.8,0.2-1,0.6c-0.1,0.4-0.3,0.7-0.7,1c-0.4,0.1-0.5-0.2-0.7-0.3c-0.1,0.1-0.3,0.2-0.4,0.3c-0.5,0.1-0.6-0.4-0.9-0.6
		c-0.1-0.5,0.4-0.7,0.8-1.1c-0.2-0.1-0.4-0.3-0.6-0.5c-0.2,0.2-0.3,0.3-0.5,0.5c-0.1,0.2,0.1,0.5-0.3,0.5c0-0.5,0-1,0-1.5
		c-0.1-0.1-0.2-0.2-0.4-0.4c0-1.4,0-2.9,0-4.4c0-0.1,0-0.2,0-0.3c0-0.1,0.1-0.1,0.1-0.1c0.4,0.3,0.1,0.6,0.2,1c0.1,0.3,0,0.7,0,1
		c0.3,0.3,0.6,0.1,0.9,0.2c0.3,0,0.6,0,0.9,0c-0.1,0.5-0.5,0.6-0.7,0.9c0,0.5,0,1,0,1.4c0.3,0.3,0.6,0.6,0.9,0.9c0.4,0,0.7,0,1.1,0
		c0.3-0.3,0.6-0.6,0.9-0.9c0-0.2,0-0.4,0-0.7c0-0.3,0.1-0.6,0-0.8c-0.3-0.4-0.6-0.5-0.7-0.9c0.3,0,0.6,0,1,0c0.1,0.3,0.1,0.6,0.2,1
		c0.1,0,0.3,0,0.5,0.1c0.1-0.2,0.1-0.3,0.2-0.6c0.2-0.2,0.4-0.5,0.7-0.7c0-0.8,0-1.7,0-2.5c0,0,0.1-0.1,0.2-0.2
		c0.1,0.2,0.2,0.5,0.4,0.8c0.1-0.3,0.2-0.5,0.2-0.7c0.3-0.3,0.6-0.1,0.9-0.1c0.1,0.2,0.2,0.5,0.4,0.8c0.1-0.3,0.2-0.5,0.3-0.8
		c0.4,0,0.8,0,1.2-0.1c0-0.2,0.1-0.3,0.1-0.5c-0.2-0.1-0.4-0.1-0.6-0.2l-0.1-0.1c0-0.4,0-0.7,0-0.9c0.2-0.4,0.4-0.7,0.5-1
		c0.1,0,0.2,0,0.4,0c0.1,0.1,0.3,0.2,0.4,0.4c0.2-0.2,0.3-0.3,0.5-0.5c0-0.2,0-0.5,0-0.7c0.3-0.5,1-0.2,1.1-0.8c0-0.1,0-0.2,0-0.4
		c0.2-0.1,0.5-0.2,0.9-0.4c-0.5-0.1-0.8-0.1-1.2-0.2c0-0.1-0.1-0.3-0.1-0.4c0.1-0.2,0.2-0.3,0.4-0.5c0-1,0-2.1,0-3.3
		c0.2-0.1,0.4-0.1,0.6-0.1c0.3-0.3,0.2-0.6,0-1c-0.3,0-0.6-0.1-0.9-0.1c0-0.1-0.1-0.3-0.1-0.5c0.2-0.4,0.6-0.2,0.8-0.2
		c0.5,0.2,0.6,0.8,1.3,0.8c-0.3,0.6-0.5,1.2-1.1,1.5c0,0.2,0.1,0.3,0.1,0.6c0.5-0.3,0.7-0.8,1.3-0.8c0-0.5,0-1.1,0-1.5
		c-0.1-0.2-0.2-0.3-0.3-0.4c0.3-0.3,0.6-0.1,0.9-0.1c0.2,0.1,0.3,0.2,0.4,0.3c0.1-0.1,0.2-0.2,0.3-0.3c0.3,0,0.5,0,0.8,0
		c0.2,0.3,0.3,0.6,0.4,0.9c-0.2,0.3-0.5,0.1-0.8,0.1c-0.3,0.2-0.3,0.5,0,0.7c0.1-0.1,0.2-0.2,0.3-0.3c0.3,0,0.7,0,1.2-0.1
		c0.3-0.3,0.1-0.9,0.8-0.9c0,0,0.1,0.1,0.3,0.2c0.4,0,0.8,0,1.2,0.1c0.1,0.3,0.2,0.5,0.3,0.7c0.5-0.4,0-0.9,0.3-1.3
		c0.4-0.5,0.6,0.1,0.9,0.2c0.3-0.5,0.7-0.3,1.1-0.3c0.1,0.1,0.2,0.2,0.3,0.3c0.1-0.1,0.2-0.2,0.4-0.3c0.3,0,0.5-0.1,0.9,0.1
		c0,1.9,0,3.7,0,5.5c0.1,0.1,0.1,0.2,0.2,0.2s0.1,0,0.2,0c0.9,0,1.8,0,2.7,0c0.1,0.2,0.2,0.5,0.4,0.8c0.1-0.3,0.2-0.5,0.3-0.7
		c0.1,0,0.3,0,0.5-0.1c0.3,0.3,0.1,0.6,0.2,0.9c-0.1,0.1-0.2,0.3-0.4,0.4c0.1,0.4-0.1,0.8,0.2,1.3c0.2-0.3,0.4-0.6,0.5-0.8
		c0.4,0,0.6,0,0.9,0c0.2,0.2,0.2,0.2,0.1,1c-0.4,0.2-0.8,0.1-1.2,0.1c-0.4,0.4,0,0.9-0.2,1.4c-0.4,0-0.8,0.1-1.2,0.1
		c-0.3,0.2-0.1,0.6-0.2,0.9c0.2,0.1,0.4,0.1,0.6,0.2c0.1,0,0.1,0.2,0.1,0.3c0,0.2,0.1,0.3,0,0.5C553.5,39.9,553.4,39.9,553.2,40z
		 M548.9,30.5c-0.3-0.4-0.6-0.6-1-0.6c-0.3-0.4-0.7-0.3-1.1-0.2c-0.2,0.2-0.4,0.4-0.6,0.6c-0.2,0.2-0.4,0.4-0.6,0.6
		c0,0.3,0,0.6,0.1,0.7c0.4,0.4,0.3,1,0.9,1.2c0.5,0,0.9,0,1.4,0c0.3-0.3,0.6-0.6,0.9-0.9C548.9,31.4,548.9,31,548.9,30.5z
		 M540.3,30.8c0,0.5,0,1,0,1.4c0.2,0.6,0.9,0.5,1.2,0.9c0.1,0.1,0.5,0.1,0.7,0c0.3-0.2,0.7-0.3,0.9-0.5c0.3-0.3,0.3-0.7,0.5-1
		c0.1-0.2,0-0.4-0.2-0.6s-0.3-0.5-0.4-0.7c-0.4,0.1-0.5-0.2-0.7-0.3c-0.4,0-0.7,0-1.1,0C540.9,30.3,540.6,30.5,540.3,30.8z
		 M535.8,44c0.5-0.4,0.9-0.6,1.2-0.8c0-0.6,0-1.1,0-1.4c-0.3-0.4-0.6-0.7-0.8-1c-0.4,0-0.8,0-1,0c-0.4,0.2-0.7,0.4-0.9,0.5
		c-0.2,0.3-0.3,0.6-0.5,0.9c0,0.1,0,0.3,0,0.6c0.4,0.4,0.8,0.8,1.3,1.2C535.4,44,535.7,44,535.8,44z M553.2,35.7
		c-0.3-0.5-0.4-0.8-0.5-1.1c-0.4,0.1-0.5-0.2-0.7-0.3c-0.3,0-0.5,0-0.7,0c-0.5,0.4-0.9,0.8-1.3,1.2c0,0.3,0,0.5,0,0.7
		c0.4,0.3,0.4,1,0.9,1.3c0.4,0,0.9,0,1.4,0c0.1,0,0.1-0.1,0.1-0.1l-0.1-0.1c0.3-0.2,0.7-0.5,0.9-0.7
		C553.2,36.2,553.2,35.9,553.2,35.7z M538.7,36c-0.2,0.2-0.5,0.3-0.5,0.5c-0.1,0.3-0.2,0.5-0.4,0.7c-0.1,0.1-0.1,0.3,0,0.3
		c0.4,0.3,0.4,1,0.9,1.3c0.3,0,0.6,0,0.8,0c0.3,0,0.7,0.1,1-0.1c0.1-0.2,0.3-0.3,0.4-0.4c0-0.7,0-1.3,0-1.7
		c-0.2-0.3-0.4-0.5-0.5-0.6C539.8,36,539.2,36,538.7,36z"/>
	<path class="st1" d="M645,62.3c0.4,0,0.8,0,1.2,0c0.4,0.3,0.6,0.6,0.8,1.2c0.1-0.5,0.1-0.8,0.2-1.1c0.2-0.2,0.4-0.1,0.6-0.1
		c0,0.2,0,0.4,0,0.5c-0.1,0.1-0.3,0.3-0.3,0.4c0,0.3,0,0.5,0,0.7c0.1,0.1,0.2,0.2,0.3,0.3c0,0.4,0,0.8,0,1.2c-0.1,0-0.3,0.1-0.6,0.1
		c-0.1-0.4-0.1-0.8-0.2-1.1c-0.5,0.5-0.9,0.9-1.3,1.2c-0.2,0.4,0.2,0.5,0.3,0.8c-0.2,0-0.3,0.1-0.5,0.1c-0.2-0.1-0.3-0.3-0.4-0.4
		c-0.1,0-0.2,0-0.4,0c-0.3,0.3,0.1,0.3,0.2,0.5c0,0.4,0.1,0.8-0.1,1.2c-0.2,0-0.4,0-0.6,0c-0.5-0.5-0.9-0.9-1.5-1.5
		c0-0.1-0.1-0.4-0.1-0.7c-0.3,0.3-0.2,0.6-0.3,0.9c-0.1,0.2-0.3,0.4-0.4,0.6c0.1,0.3,0.3,0.5,0.4,0.7c0.1,0.4-0.3,0.5-0.4,0.7
		c0,0.5,0,0.9,0,1.4c-0.4,0.4-0.6,0.1-0.9-0.2c-0.3,0.1-0.2,0.3-0.1,0.6c0.3,0,0.6,0.1,1,0.1c-0.2,0.6-0.6,0.1-0.8,0.3
		c-0.2,0.2-0.3,0.3-0.4,0.4c-0.4-0.4,0-1-0.3-1.4c-0.5,0.5-1,1-1.5,1.5c-0.3-0.6-1-0.7-1.4-1.1c-0.1,0.1-0.2,0.2-0.4,0.3
		c-0.1-0.1-0.3-0.2-0.4-0.4c-0.1,0.2-0.1,0.4-0.3,0.7c-0.3,0-0.5,0-0.8,0.1c-0.2,0.2-0.2,0.2-0.2,1.2c-0.1,0.1-0.2,0.3-0.4,0.4
		c0,0.2,0,0.5,0,0.5c-0.3,0.4-0.4,0.7-0.6,1c-0.3-0.2-0.5-0.3-0.7-0.5c-0.1,0.1-0.2,0.2-0.4,0.3c-0.5,0-1,0-1.4,0
		c-0.4-0.4,0-0.9-0.3-1.4c-0.2,0.1-0.3,0.2-0.5,0.4c-0.2-0.1-0.4-0.2-0.7-0.3c-0.1,0.2-0.2,0.4-0.3,0.6c-0.1-0.1-0.3-0.2-0.4-0.3
		c-0.2,0.2-0.5,0.5-0.8,0.7c-0.1-0.2-0.2-0.4-0.3-0.7c-0.4,0-0.8,0-1.2,0c0,0.1-0.1,0.3-0.1,0.5c-0.3,0.1-0.5,0.3-1,0.5
		c-0.3,0-0.7,0-1.1,0c-0.1-0.3-0.2-0.5-0.3-0.7c-0.1,0.3-0.3,0.5-0.4,0.8c-0.1-0.1-0.1-0.1-0.1-0.1c0-0.6-0.1-1.2-0.1-1.9
		c0-0.1-0.5-0.2-0.3-0.6c0.1-0.1,0.2-0.2,0.3-0.4c0-0.6,0-1.2,0-1.8c-0.1-0.2-0.3-0.3-0.4-0.5c0.1-0.5,0.5-0.6,0.7-1
		c-0.1-0.1-0.2-0.2-0.3-0.4c0-0.3,0-0.7,0-1c-0.1-0.1-0.2-0.2-0.3-0.3c0.1-0.1,0.2-0.3,0.3-0.4c0-0.2,0-0.5,0-0.7
		c-0.1-0.1-0.2-0.2-0.3-0.3c0.1-0.3,0.3-0.5,0.4-0.7c0.4-0.5,0.8-0.9,1.2-1.3c0.3,0,0.5,0,0.7,0c0.1,0.1,0.3,0.2,0.4,0.3
		c0.2-0.2,0.4-0.3,0.5-0.5c0.2-0.5-0.2-0.6-0.4-0.9c0.1-0.3,0.2-0.6,0.3-1c0,0-0.1-0.1-0.2-0.2c0-0.9,0-1.9,0-2.9
		c0.1-0.1,0.3-0.3,0.4-0.5c0.4-0.2,0.9,0.1,1.1-0.4c0.3,0,0.7-0.1,1-0.1c0.4,0.1,0.5,0.5,0.9,0.4c0.1-0.1,0.2-0.2,0.4-0.3
		c0.3,0,0.7,0,1.1,0c0.3,0.2,0.5,0.5,0.7,0.7c0.2,0.1,0.4,0.1,0.6,0.2c0,0.5,0,1,0,1.5c0,0.1-0.1,0.1-0.1,0.1
		c-0.4,0.3-0.6-0.2-0.9-0.2c-0.5,0.4,0.1,0.6,0.2,0.9c-0.2,0.2-0.3,0.3-0.6,0.6c-0.2-0.1-0.5-0.3-0.7-0.4c-0.3,0.3-0.6,0.6-0.9,0.8
		c0,0.4,0,0.7,0,1.1c-0.3,0.3-0.3,0.3-0.9-0.2c-0.3,0-0.7,0-1.1,0c-0.2,0.2-0.5,0.3-0.5,0.7c0.5,0,1.1,0,1.5,0
		c0.4,0.3,0.2,0.6,0.3,0.9c0.1,0.1,0.2,0.3,0.3,0.4c0,0.2,0,0.5,0,0.7c-0.1,0.1-0.2,0.3-0.3,0.3c0.2,0.4,0.5,0.8,0.7,1.2
		c0.1,0.1,0,0.4,0,0.5s-0.1,0.2-0.2,0.4c-0.2-0.3-0.5-0.6-0.6-0.8c-0.2,0-0.3,0-0.4,0.1c-0.3,0.2-0.1,0.6-0.1,0.9
		c0.2,0.1,0.4,0.1,0.6,0.2c0.2,0.3,0.1,0.6,0.1,0.8c0.3,0.1,0.6,0.3,1,0.5c1.2,0,2.5,0,3.8,0c0.1,0.1,0.3,0.2,0.4,0.4
		c0.3,0,0.7,0,1.1,0c0.2-0.2,0.2-0.2,0.1-1.7c-0.1-0.1-0.2-0.2-0.3-0.3c0.1-0.1,0.2-0.3,0.3-0.4c-0.1-0.2-0.3-0.5-0.5-0.8
		c0.3-0.1,0.5-0.1,0.7-0.1c0.1,0.3,0.2,0.5,0.3,0.7c0.3-0.1,0.2-0.4,0.3-0.6c0.1-0.1,0.2-0.1,0.3-0.1c1.4,0,2.8,0,4.1,0
		c0.2,0,0.3,0,0.6-0.1c0-0.9,0-1.8,0-2.6c0.3-0.3,0.6-0.1,0.9-0.2c0.3,0,0.6,0,0.9,0c0,0.1-0.1,0.3-0.1,0.3c-0.4,0.1-0.7,0.3-1,0.6
		c0,0.5,0,1,0,1.4c0.3,0.3,0.6,0.6,0.9,0.9c0.3,0,0.7,0,1.1,0c0.6-0.4,1-1,1.2-1.6c-0.1-0.3-0.2-0.6-0.3-0.8
		C645.5,62.8,645.1,62.7,645,62.3z M630.5,59.7c0.2-0.4,0.3-0.6,0.5-0.9c0-0.2,0-0.4,0-0.5c-0.2-0.4-0.4-0.7-0.5-0.9
		c-0.3-0.1-0.6-0.3-0.9-0.5c-0.2,0-0.6,0-0.6,0c-0.6,0.4-1,0.6-1.3,0.8c0,0.7,0,1.1,0,1.4c0.4,0.5,0.6,0.8,0.8,1c0.5,0,0.8,0,1,0
		C630,59.9,630.4,59.8,630.5,59.7z M626,63c-0.3,0.5-0.6,1-0.8,1.4c0.1,0.3,0.4,0.5,0.4,0.8c0.1,0.3,0.3,0.6,0.7,0.6
		c0.3,0,0.5,0.3,0.6,0.4c0.4-0.1,0.5-0.4,0.8-0.4c0.2,0,0.4-0.3,0.6-0.5c0-0.7,0-1.3,0-1.8c-0.2-0.2-0.3-0.3-0.5-0.5
		C627.4,63,626.8,63,626,63z M640.3,66.5c-0.3-0.6-0.9-0.5-1.3-0.9c-0.1-0.1-0.5,0-0.7,0c-0.4,0.4-0.8,0.8-1.3,1.3
		c0,0.2,0,0.5,0,0.7c0.1,0.1,0.2,0.3,0.3,0.3c0.1,0.2,0.1,0.4,0.1,0.4c0.4,0.2,0.7,0.3,0.9,0.5c0.4,0,0.8,0,0.7,0
		c0.6-0.4,0.9-0.6,1.2-0.8C640.3,67.4,640.3,66.9,640.3,66.5z M634.6,69.4c-0.3-0.4-0.6-0.7-0.9-1c-0.4,0-0.8,0-1,0
		c-0.5,0.5-1,0.9-1.4,1.2c0,0.3,0,0.5,0,0.6c0.5,0.5,0.9,1,1.2,1.4c0.4,0,0.8,0,1,0c0.4-0.3,0.7-0.6,1-0.8
		C634.6,70.3,634.6,69.8,634.6,69.4z M625.6,71.5c0.4,0.5,1,0.6,1.5,0.9c0.5-0.3,1.1-0.4,1.4-0.9c0-0.6,0-1.2,0-1.8
		c-0.2-0.2-0.3-0.3-0.5-0.5c-0.3,0-0.6,0-0.9,0c-0.3,0-0.7-0.1-1,0.1c-0.1,0.2-0.3,0.3-0.4,0.5C625.6,70.4,625.6,71,625.6,71.5z"/>
	<path class="st1" d="M553.2,40c0.1-0.1,0.3-0.1,0.3-0.2c0.1-0.1,0-0.3,0-0.5c0.3-0.1,0.4,0.3,0.6,0.3c0.3,0,0.5,0,0.7,0
		c0.2-0.2,0.4-0.5,0.8-0.2c0.2,0.2-0.1,0.5,0.1,0.8c0.2,0.1,0.4,0.2,0.7,0.3c0.3,0.1,0.3,0.5,0.8,0.5c0.1-0.1,0.3-0.2,0.5-0.4
		c0.1,0.1,0.2,0.2,0.4,0.3c0.1-0.2,0.2-0.5,0.3-0.7c0.3,0.3,0.1,0.6,0.2,0.9c-0.2,0.2-0.4,0.4-0.7,0.6c0.2,0.3,0.3,0.7,0.5,1
		c0.1,0,0.3,0,0.4,0c0.1-0.2,0.1-0.4,0.2-0.6c0.3-0.2,0.6-0.1,0.8-0.1c0.2,0.4,0.6,0.4,0.9,0.3c0.1-0.1,0.2-0.1,0.3-0.2
		c0.3-0.3,0.5-0.5,0.8-0.8c0.3-0.2,0.7-0.1,0.9-0.5s0.6-0.3,0.9-0.5c0.3-0.3,0.6-0.2,1-0.2c0.1,0.1,0.3,0.2,0.4,0.3
		c0.3-0.3,0.1-0.6-0.1-0.8c-0.2-0.1-0.3-0.3-0.5-0.5c0.5-0.3,0.9-0.1,1.3-0.2c0.1,0.1,0.3,0.2,0.4,0.3c0.1-0.1,0.2-0.2,0.3-0.3
		c0.1,0.1,0.2,0.2,0.5,0.3c0.1-0.2,0.2-0.4,0.3-0.6c0.1,0.1,0.1,0.1,0.1,0.1c0-0.1,0.1-0.1,0.1-0.1c0-0.6,0-1.2,0-1.7
		c-0.1-0.2-0.3-0.3-0.3-0.5c0-0.1,0-0.2,0-0.3c0.4-0.5,0.6,0.1,0.9,0.2c0.1-0.1,0.2-0.2,0.3-0.3c1.5,0,3.1,0,4.7,0
		c0.3-0.5,0.1-1,0.1-1.4c0.1-0.5-0.1-0.9,0.1-1.4c0.2,0.1,0.4,0.2,0.6,0.4c0.2-0.1,0.3-0.2,0.6-0.4c1,0,2.1,0,3.4,0
		c-0.2,0.3-0.3,0.4-0.4,0.5c0,0.5,0,1,0,1.5c0.3,0.2,0.5,0.2,0.6,0c0.3-0.3,0.6-0.6,0.9-0.9c0,0,0.1,0,0.2,0c0,0.1,0.1,0.3,0.1,0.5
		c0.7,0.5,1.1-0.3,1.8-0.3c-0.1-0.2-0.2-0.3-0.3-0.4c0.1-0.1,0.2-0.2,0.3-0.4c0.1-0.1,0.1-0.3,0.1-0.5c0.2,0,0.4,0,0.5,0
		c0.1,0.1,0.2,0.1,0.2,0.1c0,1.1,0,2.3,0,3.4c-0.1,0-0.3-0.1-0.3-0.1c-0.1-0.5-0.3-0.7-0.6-0.9c-0.6,0-1.2,0-1.8,0
		c-0.1,0.3-0.3,0.6-0.5,1c0,0.4-0.1,0.9,0,1.4c0.5,0.3,0.9,0.6,1.4,0.8c0.1,0.1,0.4,0,0.6,0c0.3-0.3,0.6-0.6,0.9-1
		c0.1-0.2,0-0.5,0.4-0.5c0,0.4,0,0.8,0,1.3c-0.3,0.1-0.6,0.3-1,0.5c-0.3,0-0.8,0-1.3,0c-0.1-0.1-0.2-0.2-0.4-0.3c-0.1,0-0.2,0-0.3,0
		c-0.1,0.1-0.3,0.2-0.4,0.3c-0.4,0-0.7,0-1.1,0c-0.1-0.1-0.2-0.2-0.3-0.3c-0.1,0.1-0.3,0.2-0.5,0.3c-0.4-0.2-0.9-0.5-1.3-0.7
		c-0.1,0.1-0.3,0.2-0.5,0.4c-0.3-0.3-0.6-0.5-0.9-0.8c-0.3,0.3-0.7,0.7-1,1c-0.2-0.1-0.5-0.3-0.7-0.4c-0.3,0.5-0.2,1-0.2,1.4
		c0.1,0.1,0.2,0.2,0.3,0.3c-0.1,0.2-0.3,0.3-0.5,0.5c-0.2,0-0.4,0-0.8,0c-0.1,0.2-0.3,0.5-0.4,0.7c-0.9,0-1.5,0-2.1,0
		c-0.1,0-0.1-0.1-0.2-0.1c0-0.1,0-0.3,0-0.5c0.4-0.3,0.9,0,1.4-0.2c0-0.3,0-0.3-1.2-0.3c-0.1-0.1-0.3-0.2-0.4-0.3
		c-0.3,0.3-0.1,0.6-0.2,0.9c-0.1,0.1-0.2,0.3-0.4,0.4c0,0.8,0,1.7,0,2.4c-0.2,0.4-0.4,0.7-0.5,1c-0.1,0-0.2,0-0.4,0
		c-0.1-0.1-0.3-0.2-0.4-0.4c-0.2,0-0.5,0-0.7,0c-0.1,0.1-0.3,0.2-0.4,0.3c-0.1-0.1-0.2-0.2-0.3-0.3c-0.1,0-0.1-0.1-0.1-0.1
		c-0.5,0-1,0-1.4,0c-0.1,0.1-0.2,0.2-0.3,0.3c-0.3,0-0.5,0-0.8,0c-0.3-0.3-0.1-0.6-0.1-0.9c0.1-0.1,0.2-0.3,0.3-0.4
		c-0.2-0.2-0.3-0.3-0.5-0.5c-0.2,0-0.5,0-0.7,0c0,0.1-0.1,0.2-0.1,0.3l0.1,0.1c0.3,0.2,0.1,0.6,0.2,0.8c0.1,0.3,0.5,0.4,0.3,0.9
		c0,0-0.1,0.1-0.3,0.3c0.1,0.1,0.2,0.3,0.3,0.4c-0.1,0.1-0.2,0.2-0.3,0.3c0.1,0.4,0.5,0.8,0.2,1.2l-0.1,0.1c-1.1,0-2.2,0-3.2,0
		c-0.3-0.2-0.4-0.3-0.8-0.5c-0.2,0.3-0.4,0.7-0.6,1c-0.3-0.3-0.5-0.4-0.7-0.6c0.2-0.6-0.5-1.1-0.4-1.7c0.1-0.2,0.3-0.3,0.3-0.4
		c-0.4-0.4-0.8-0.8-1.3-1.2c-0.2,0.2-0.4,0.4-0.7,0.6c-0.2-0.3-0.3-0.8-0.7-1c-0.1,0.1-0.2,0.2-0.4,0.3c-0.1-0.3-0.3-0.5-0.5-1
		c0-1,0-2.1,0-3.2C552.7,39.9,553,40.1,553.2,40z M564.9,44.3c0.4-0.4,0.8-0.8,1.3-1.3c0-0.3,0-0.7,0-1.1c-0.3-0.3-0.6-0.5-0.9-0.8
		c-0.5,0-1,0-1.3,0c-0.5,0.4-0.8,0.6-1,0.8c0,0.5,0,0.8,0,1c0.2,0.4,0.4,0.7,0.5,1c0.1,0,0.2,0,0.3,0c0.1,0.1,0.3,0.2,0.4,0.4
		C564.5,44.3,564.7,44.3,564.9,44.3z M569.4,40.4c0.1,0,0.5,0.1,0.6,0c0.4-0.4,1-0.3,1.3-0.9c0-0.5,0-1,0-1.3
		c-0.4-0.5-0.6-0.8-0.8-1c-0.5,0-0.8,0-1,0c-0.4,0.2-0.7,0.4-1,0.5c0.1,0.4-0.2,0.5-0.3,0.7c0,0.3,0,0.5,0,0.6
		c0.2,0.4,0.4,0.7,0.5,0.9S569,40.2,569.4,40.4z M560.4,44.9c-0.3-0.3-0.6-0.6-0.9-0.9c-0.4,0-0.8,0-1,0c-0.4,0.2-0.7,0.4-0.9,0.5
		c-0.2,0.3-0.3,0.6-0.5,0.9c0,0.2,0,0.4,0,0.3c0.5,0.5,1,1,1.5,1.5c0.1,0,0.3,0.1,0.4,0c0.3-0.2,0.6-0.3,0.9-0.5
		c0.1,0,0.2-0.2,0.3-0.3c0.1-0.1,0.1-0.2,0.2-0.3C560.4,45.8,560.4,45.3,560.4,44.9z M555.8,40.9c-0.4-0.5-1-0.7-1.5-0.9
		c-0.3,0.2-0.6,0.3-1.1,0.6c0.1-0.1-0.1,0.1-0.3,0.3c0,0.6,0,1.3,0,1.9c0.2,0.2,0.4,0.3,0.5,0.5c0.7,0,1.2,0,1.8,0
		c0.2-0.2,0.4-0.4,0.5-0.5C555.8,42.1,555.8,41.5,555.8,40.9z M576.1,34.2c-0.6,0-1.2,0-1.8,0c-0.2,0.2-0.3,0.3-0.5,0.5
		c0,0.3,0,0.6,0,0.8c0,0.3-0.1,0.7,0.1,1.1c0.2,0.1,0.3,0.3,0.4,0.4c0.7,0,1.3,0,1.8,0c0.2-0.2,0.4-0.4,0.5-0.5c0-0.6,0-1.2,0-1.8
		C576.5,34.6,576.3,34.5,576.1,34.2z"/>
	<path class="st0" d="M426.1,42.2c0,0.2,0,0.4,0,0.5c-0.1,0.1-0.2,0.3-0.3,0.4c0.1,0.1,0.2,0.2,0.3,0.3c0,0.4,0,0.8,0,1.2
		c-0.2,0.1-0.4,0.1-0.6,0.2c0.1,0.4,0.4,0.5,0.6,0.8c0,0.2,0,0.5,0,0.8c-0.2,0.2-0.5,0.4-0.8,0.6c0.3,0.2,0.6,0.3,0.8,0.4
		c0,0.1,0,0.3,0,0.4c-0.2,0.3-0.6,0.1-0.9,0.2c-0.1-0.2-0.2-0.5-0.3-0.7c-0.3,0.3-0.2,0.9-0.8,1c-0.1-0.1-0.1-0.1-0.2-0.2
		c-0.5-0.2-1.1,0.1-1.7-0.2c0.2-0.2,0.3-0.3,0.4-0.5c-0.2-0.1-0.4-0.1-0.7-0.2c0-0.1-0.1-0.3-0.1-0.5c-0.2-0.1-0.4-0.1-0.6-0.2
		c-0.1-0.2-0.1-0.4-0.2-0.6c-0.2,0-0.4,0.1-0.5,0.1c0.2,0.5,0.6,1,0,1.5c0.1,0.1,0.2,0.3,0.3,0.4c-0.1,0.2-0.4,0.3-0.3,0.6
		c-0.1,0-0.2,0-0.2,0c-0.2-0.6-0.6-1.1-1.1-1.4c-0.4,0-0.7,0-1,0c-0.3,0.3-0.6,0.6-0.9,0.9c0,0.5,0,1,0,1.5c0.4,0.2,0.6,0.7,1,0.9
		c0.3,0,0.6,0,1,0c0.3-0.3,0.6-0.6,0.9-1c0.1-0.2,0-0.5,0.4-0.5c0,0.8,0,1.6,0,2.4c-0.5,0.3-0.7-0.1-1-0.3c-0.3,0.2-0.4,0.3-0.6,0.4
		c-0.1-0.1-0.2-0.2-0.4-0.3c-0.1,0.1-0.2,0.2-0.3,0.3c-0.2,0-0.5,0-0.8,0.1c-0.3,0.2-0.1,0.6-0.2,0.8c0.1,0.1,0.3,0.3,0.4,0.4
		c0,0.5,0,0.9,0,1.4c-0.2,0.1-0.5,0.2-0.8,0.4c0.3,0.1,0.5,0.2,0.7,0.2c0,0.1,0.1,0.2,0.1,0.3c0,0.5,0,1.1,0,1.6
		c-0.3,0.3-0.7,0.2-1,0.1c0.1-0.4,0.4-0.7,0.3-1.2c-0.1-0.1-0.3-0.3-0.5-0.5c-0.3,0.2-0.6,0.3-1,0.5c0.3,0.1,0.5,0.2,0.8,0.4
		c-0.3,0.1-0.5,0.2-0.7,0.3c0,0.1-0.1,0.3-0.1,0.5c-0.2,0.3-0.6,0.1-0.8,0.1c-0.1,0.1-0.3,0.2-0.3,0.3c-0.5-0.2-0.9-0.5-1.4-0.8
		c-0.2,0.2-0.4,0.5-0.6,0.6c-0.2,0.2-0.5,0.3-0.8,0.4c0.1,0.2,0.2,0.4,0.4,0.8c0,0.3,0,0.8,0,1.4c-0.4,0.3-0.8,0.1-1.2,0.1
		c-0.1,0.1-0.3,0.2-0.4,0.4c-0.1-0.1-0.2-0.2-0.3-0.3c-0.7-0.5-1.1,0.5-1.7,0.3c0,0.5,0,0.8,0,1.3c-0.2,0-0.4,0.1-0.5,0.1
		c-0.3-0.3-0.1-0.6-0.2-0.9c0.1-0.1,0.2-0.3,0.4-0.4c-0.1-0.2-0.1-0.3-0.2-0.5c-0.2,0.2-0.4,0.4-0.6,0.5c0,0.3,0,0.7,0,1
		c-0.1,0.1-0.2,0.3-0.4,0.4c0.1,0.1,0.2,0.2,0.3,0.4c0,0.2,0,0.5,0,0.7c-0.2,0.3-0.5,0.1-1,0.2c-0.1,0.1-0.2,0.3-0.5,0.7
		c0.1,0.1,0.1,0.3,0.3,0.6c-0.1,0.2-0.2,0.5-0.3,0.8c-0.1,0-0.3,0.1-0.5,0.1c-0.1,0.1-0.1,0.1-0.3,0.3c-0.5,0.2-1,0-1.5,0.1
		c-0.1-0.1-0.2-0.3-0.2-0.3c0-0.4,0-0.7,0-1.1c0-0.2-0.6-1-0.8-1.1c-0.2-0.2-0.4-0.3-0.6-0.5c0.1-0.2,0.3-0.3,0.4-0.5
		c-0.1-0.3-0.3-0.6-0.4-0.9c0-0.1,0-0.2,0-0.5c0.3-0.2,0.6-0.4,1.1-0.8c0.2,0,0.6,0,1,0c0.1,0.1,0.1,0.2,0.1,0.3
		c-0.2,0.6-0.8,0.8-1.1,1.3c0,0.3,0,0.5,0,0.5c0.5,0.6,0.9,1,1.2,1.4c0.4,0,0.8,0,1,0c0.4-0.3,0.7-0.6,1-0.8c0-0.6,0-1,0-1.5
		c-0.4-0.3-0.6-0.8-1.1-0.9c0-0.1,0.1-0.3,0.1-0.3c0.3-0.1,0.6-0.1,0.9-0.1c0-0.4,0-0.8,0-1.2c0.3-0.1,0.5-0.2,0.8-0.3
		c0-0.2-0.1-0.4-0.1-0.7c-0.2,0.2-0.3,0.3-0.5,0.4c-0.4-0.4,0-0.9-0.2-1.3c0.3-0.2,0.3,0.1,0.3,0.1c0.2,0.1,0.3,0.1,0.3,0.1
		c0.5-0.7,1.6-0.8,1.9-1.7c0-0.5-0.5-0.6-0.7-1c0.3-0.4,0.6-0.1,0.9,0.1c0.3,0,0.7,0,1.1,0c0.1-0.1,0.2-0.2,0.4-0.3
		c0.1,0.1,0.2,0.2,0.4,0.3c0.3,0,0.7,0,1.1,0c0.3-0.5,0.1-1,0.2-1.6c0.1-0.1,0.2-0.2,0.3-0.4c-0.2-0.4-0.4-0.8-0.6-1.1
		c0.1,0,0.2-0.1,0.3-0.1c1,0,2,0,3.1,0c0.1,0.1,0.3,0.2,0.4,0.3c0.3,0,0.5,0.1,0.8,0.1c0.1,0.4,0.1,0.7,0.2,1.2
		c0.4-0.7,0.2-1.2,0.3-1.7c0.1-0.1,0.2-0.2,0.3-0.4c-0.1-0.3-0.3-0.6-0.4-0.9c-0.1,0.1-0.2,0.2-0.4,0.3c-0.1-0.1-0.2-0.2-0.4-0.3
		c-0.2,0.3-0.4,0.5-0.6,0.8c-0.1-0.1-0.2-0.2-0.2-0.2c0-0.8,0-1.5,0-2.3c0.3-0.2,0.3,0.1,0.3,0.1c0.4,0.1,0.8,0.2,1.1-0.1
		c-0.1-0.1-0.2-0.3-0.3-0.4c0.1-0.1,0.2-0.2,0.3-0.3c0.2-0.2,0-0.5,0.1-0.9c-0.3-0.2-0.6-0.4-0.8-0.5c0.1-0.3,0.1-0.4,0.1-0.5
		c0.3-0.2,0.6,0,0.8-0.1c0.2,0.2,0.4,0.4,0.5,0.5c0,0.2,0.1,0.4,0.1,0.5c0.1,0,0.1,0,0.2,0c0.3-0.3,0.7-0.7,1.1-1.1
		c0.2,0.1,0.4,0.1,0.6,0.2c0,0,0,0,0,0.1c0.1,0,0.2,0.1,0.3,0.1c0.4,0,0.8,0,1.2,0c0.3-0.2,0.1-0.6,0.2-0.9c0.1-0.1,0.2-0.2,0.3-0.4
		c-0.4-0.3-0.3-0.8-0.7-1.1c0.3-0.3,0.6-0.6,0.9-0.9C422.7,42.2,424.4,42.2,426.1,42.2z M422.7,45.8c0.5-0.1,1,0,1.6-0.1
		c0.3-0.6,0.8-1.1,0.7-1.7c-0.5-0.5-1-1-1.5-1.5c-0.1,0-0.4,0-0.6,0.1c-0.4,0.4-1,0.3-1.2,0.9c0,0.5,0,0.9,0,1.4
		C422.1,45.2,422.4,45.5,422.7,45.8z M411,58.2c0-0.5,0-0.9,0-1.2c-0.4-0.5-0.7-0.8-0.9-1.1c-0.6,0-1.1,0-1.5,0
		c-0.3,0.3-0.6,0.5-0.6,0.9c-0.4,0.3-0.3,0.7-0.3,1.1c0.4,0.4,0.8,0.8,1.1,1.1l0.1,0.1c0.2,0,0.5,0.1,0.7-0.1
		C410.1,58.7,410.8,58.7,411,58.2z M413.4,54.4c0.5,0,1,0,1.4,0c0.3-0.3,0.6-0.6,0.9-0.9c0-0.4,0-0.7,0-1.1
		c-0.4-0.4-0.8-0.8-1.3-1.2c-0.2,0-0.5,0-0.6,0c-0.5,0.4-0.9,0.8-1.3,1.2c0,0.4,0,0.7,0,1.1C412.8,53.8,413.1,54.1,413.4,54.4z"/>
	<path class="st0" d="M591.8,44c0.1,0,0.2-0.1,0.4-0.1c0-0.4,0-0.8,0-1.1c0.2-0.1,0.2-0.1,0.5,0.1c0.4,0,0.2-0.3,0.3-0.5
		c0.1-0.1,0.2-0.3,0.4-0.4c0-0.3,0-0.7,0-1.1c0,0,0.1-0.1,0.2-0.2c0.3,0.4,0.1,0.9,0.2,1.3c0.2,0.2,0.4,0.2,0.6,0c0-0.5,0-1,0-1.5
		c-0.3-0.4-0.7-0.5-1-0.7c0-0.1,0-0.3,0-0.4c0.5-0.4,0.6,0.1,1,0.3c0.2-0.1,0.4-0.3,0.7-0.4c0.2,0.1,0.3,0.2,0.6,0.4
		c0.6,0.1,1.2,0,1.8,0.1c0.3,0.4,0,0.6-0.2,0.9c0.3,0.3,0.6,0.1,0.9,0.2c0.1,0.1,0.3,0.2,0.4,0.3c0.2-0.2,0.4-0.3,0.6-0.6
		c-0.1-0.3-0.3-0.7-0.5-1c0.3-0.3,3.4-0.3,6.1-0.1c0,0.1,0.1,0.1,0.1,0.1c0,0.5,0,1,0,1.4c-0.1,0.1-0.2,0.2-0.3,0.3
		c0.5,0.3,0.2,0.8,0.5,1.3c0.2,0,0.4,0,0.7,0.1c0.1-0.1,0.3-0.2,0.5-0.3c0.4,0,1,0,1.5,0c0,0.2,0.1,0.3,0.1,0.6
		c0.2,0.1,0.4,0.1,0.6,0.2c0.2,0.2,0.4,0.4,0.6,0.6c0.2-0.1,0.4-0.5,0.8-0.3c0.1,0.1,0.1,0.3,0.2,0.5c-0.3,0.3-0.6,0.5-0.7,0.8
		c-0.1,0.3-0.2,0.5-0.4,0.7c0.2,0.2,0.4,0.4,0.7,0.7c-0.1,0.1-0.2,0.2-0.3,0.4c0,0.3,0,0.5,0,0.8c0.2,0,0.4,0.1,0.5,0.1
		c0.3,0.3,0,0.6,0.1,0.9c-0.5,0.3-0.6,0.1-0.9-0.2c-1.2,0-2.4,0-3.6,0c-0.2,0.1-0.3,0.2-0.5,0.4c-0.1-1,0-1.9-0.1-2.8
		c-0.2-0.2-0.3-0.3-0.5-0.5c-0.7,0-1.4,0-2.2,0c-0.3-0.3-0.6-0.6-0.9-0.9c-0.3-0.2-0.6-0.3-1-0.5c-0.1,0.2-0.3,0.5-0.5,0.8
		c-0.1-0.2-0.2-0.3-0.3-0.4c-0.1-0.4,0.7-0.6,0.2-1.1c-0.3,0-0.5,0-0.9,0c0,0.1-0.1,0.3-0.1,0.5c0.1,0.1,0.3,0.3,0.4,0.4
		c0,0.4,0,0.7,0,1.1c-0.5,0.4-1.2,0-1.7,0.2c-0.1,0.1-0.2,0.2-0.3,0.3c-0.5,0-0.9,0-1.4,0c-0.1-0.1-0.2-0.2-0.4-0.3
		c-0.2,0-0.5,0-0.7,0c-0.1-0.2-0.2-0.5-0.4-0.8c-0.1,0.3-0.2,0.5-0.3,0.8c-0.2-0.1-0.3-0.2-0.5-0.3c-0.2,0.3-0.1,0.7-0.1,1
		c-0.2,0-0.5,0.1-0.7-0.2c0.1-0.1,0.2-0.2,0.3-0.4C592.6,44.7,591.9,44.6,591.8,44z M595.9,45c0.2,0,0.6,0.1,0.7,0
		c0.3-0.4,1-0.3,1.3-0.9c0-0.5,0-1,0-1.3c-0.4-0.5-0.6-0.8-0.8-1c-0.6,0-1.1,0-1.5,0c-0.6,0.3-0.5,0.9-0.9,1.3c0,0.2,0,0.5,0,0.7
		C595,44.2,595.5,44.6,595.9,45z M606,44c-0.3,0.3-0.8,1.2-0.9,1.6c0.1,0.1,0.2,0.3,0.4,0.4c0,0.1,0,0.2,0,0.3
		c0.3,0.3,0.6,0.6,0.9,0.9c0.2,0,0.6,0.1,0.7,0c0.4-0.4,1-0.3,1.3-0.9c0-0.5,0-1,0-1.4c-0.4-0.4-0.6-0.7-0.8-1
		C606.9,44,606.4,44,606,44z M601.1,42.7c0.1,0.1,0.3,0.3,0.4,0.4c0.4,0.1,0.7,0.4,1,0.5c0.5-0.3,1-0.4,1.4-0.9c0-0.5,0-0.9,0-1
		c-0.4-0.6-0.6-1-0.8-1.3c-0.5,0-0.9,0-0.9,0c-0.5,0.4-0.9,0.6-1.1,0.8C601.1,41.8,601.1,42.3,601.1,42.7z"/>
	<path class="st1" d="M393.5,47.2c-0.2,0.2-0.3,0.4-0.4,0.6c0.2,0.3,0.6,0.1,0.8,0.2c0.5,0.2,0.1,0.6,0.4,1c0,0,0.1,0.1,0.2,0.2
		c0,1.3,0,2.6,0,4c-0.1,0.4-0.7,0.4-1,0.7c0,0.5,0,1,0,1.7c0.2-0.2,0.3-0.3,0.5-0.4c0.1,0.1,0.1,0.3,0.2,0.4s0.2,0.3,0.3,0.6
		c0,0.4,0,0.9,0,1.4c-0.1,0.1-0.2,0.3-0.3,0.4c0.1,0.1,0.2,0.2,0.3,0.3c0,0.4,0,0.9,0,1.4c0,0.1-0.1,0.1-0.1,0.1
		c-0.2,0.1-0.4,0.1-0.7,0.3c0.3,0.1,0.5,0.2,0.7,0.3c0,0.1,0.1,0.2,0.1,0.3c0,1.6,0,3.2,0,4.9c-0.2,0.3-0.6,0.1-0.8,0.2
		c-0.2-0.1-0.4-0.3-0.6-0.4c-0.2,0.1-0.4,0.3-0.6,0.4c-0.6,0-1.2,0-1.7,0c-0.1-0.1-0.3-0.2-0.4-0.3c-0.1,0.1-0.3,0.2-0.4,0.3
		c-0.3-0.3-0.1-0.6-0.2-0.9c0.1-0.1,0.2-0.3,0.4-0.5c-0.3,0-0.5-0.1-0.7-0.1c0,0.4-0.1,0.6-0.1,1c-0.1,0-0.3,0.1-0.5,0.1
		c-0.5-0.4-0.2-0.6,0.1-0.9c-0.1-0.1-0.2-0.3-0.3-0.4c0-0.2,0-0.4,0-0.7c0.1-0.1,0.2-0.2,0.3-0.4c-0.1-0.1-0.2-0.3-0.3-0.4
		c0.2-0.3,0.6-0.1,0.9-0.2c0.2-0.5,0.5-0.9,0.7-1.4c0.3,0,0.5,0,0.7,0c0.2-0.2,0.3-0.5,0.1-0.6c-0.3-0.2-0.2-0.5-0.4-0.8
		c-0.1,0.1-0.3,0.2-0.4,0.3c-0.2,0-0.5,0-0.8,0c-0.1-0.1-0.2-0.2-0.3-0.3c-0.1,0.1-0.3,0.2-0.4,0.3l-0.1-0.1c0-0.8-0.1-1.7-0.1-2.5
		c0.1-0.1,0.2-0.3,0.4-0.4c-0.1-0.1-0.2-0.2-0.3-0.4c0.2-0.1,0.5-0.2,0.8-0.4c-0.3-0.1-0.5-0.2-0.8-0.4c0.3-0.3,0.6-0.1,0.9-0.2
		c0-0.1,0.2-0.3,0.1-0.4c-0.1-0.4-0.7-0.6-0.4-1.2c0.3-0.3,0.7-0.6,0.9-0.9c0.5-0.1,0.7,0.6,1.2,0.2c0-0.1,0-0.3,0.1-0.4
		c-0.4-0.3-0.8-0.1-1.3-0.2c-0.1-0.2-0.2-0.5-0.4-0.8c-0.1,0.3-0.1,0.5-0.3,0.7c-0.3,0.3-0.5,0.6-0.8,0.8c-0.1-0.1-0.2-0.1-0.2-0.2
		c0-0.7,0-1.4,0-2.2c0.1-0.1,0.2-0.2,0.3-0.3c0.3-0.4-0.1-1,0.3-1.3c0.4,0.2,0.6,0.6,0.8,1c0.3-0.4,0.1-0.8,0.2-1.2
		c0.1-0.4-0.1-0.8,0.1-1.2c0.3-0.3,0.5,0,0.8,0.2c0.2-0.1,0.3-0.2,0.5-0.3c0.4-0.1,0.5,0.6,0.9,0.4c0.1,0,0.1-0.1,0.2-0.1
		c0-0.3,0.1-0.5,0.1-0.9C392.9,47.2,393.1,47.2,393.5,47.2z M392.7,61.6c-0.1,0-0.5-0.1-0.6,0c-0.4,0.4-1,0.3-1.3,0.9
		c0,0.5,0,1,0,1.3c0.4,0.5,0.6,0.8,0.8,1c0.5,0,0.8,0,1,0c0.4-0.2,0.7-0.4,1-0.5c-0.1-0.4,0.2-0.5,0.3-0.7c0-0.3,0-0.5,0-0.6
		c-0.2-0.4-0.4-0.7-0.5-0.9S393.1,61.8,392.7,61.6z M390.9,50.9c0.5,0.5,0.9,1,1.3,1.4c0.8,0,1.4-0.4,1.9-0.9c0-0.5,0-1,0-1.2
		c-0.4-0.5-0.7-0.8-0.9-1.1c-0.6,0-1.1,0-1.5,0C391.2,49.7,390.9,50.3,390.9,50.9z M390.5,57.8c0.3,0.6,0.9,0.5,1.3,0.9
		c0.1,0.1,0.5,0,0.7,0c0.3-0.3,0.6-0.6,0.7-0.7c0.2-0.5,0.4-0.8,0.5-1c-0.3-0.5-0.4-1.1-0.9-1.4c-0.5,0-1,0-1.2,0
		c-0.6,0.4-0.9,0.6-1.2,0.8C390.5,56.9,390.5,57.4,390.5,57.8z"/>
	<path class="st1" d="M426.1,42.2c0-1.4,0-2.8,0-4.1c-0.1-0.1-0.3-0.3-0.4-0.4c0-0.1,0-0.3,0-0.4c0.2-0.3,0.6-0.1,0.8-0.2
		c0.1,0.1,0.3,0.2,0.4,0.4c0.3,0,0.6,0.1,0.8-0.1c-0.1-0.3-0.3-0.5-0.4-0.7c0.5-0.3,0.5-0.3,0.9,0c0.1,0,0.1,0.1,0.1,0.1
		c0.8-0.3,1.4,0.6,2.2,0.3c0-0.2,0.1-0.3,0.1-0.5c0.2-0.1,0.4-0.1,0.7-0.2c0-0.7,0-1.5,0-2.2c0.2-0.2,0.3-0.3,0.5-0.5
		c0.3-0.2,0.7-0.1,1-0.1s0.6,0,0.9,0c0.1,0.1,0.2,0.2,0.3,0.3l0.1,0.1c0.4-0.4,0.8-0.8,1.2-1.2c0-0.6,0-1.2,0-1.8
		c0.1-0.1,0.1-0.2,0.2-0.2c0.2,0,0.5,0,0.7,0c0.1,0.1,0.3,0.2,0.4,0.3c0.1-0.1,0.2-0.2,0.3-0.3c0.1,0.1,0.2,0.2,0.4,0.3
		c0.3,0,0.7,0,1.1,0c0.1-0.1,0.2-0.2,0.3-0.3c0.5,0,0.9,0,1.5,0c0.1,0.1,0.3,0.3,0.5,0.5c0,0.4,0,0.8,0,1.2
		c-0.1,0.1-0.2,0.1-0.3,0.1c-0.1,0-0.3-0.1-0.3-0.1c-0.1-0.4-0.3-0.7-0.6-1c-0.5,0-1,0-1.4,0c-0.3,0.3-0.6,0.6-0.9,0.9
		c0,0.5,0,0.9,0,1.4c0,0,0.1,0.1,0.2,0.3c0.3,0.2,0.7,0.5,1.2,0.7c0.1,0.1,0.3,0,0.6,0c0.3-0.3,0.6-0.6,0.9-1c0.1-0.2,0-0.5,0.4-0.5
		c0,1,0,2,0,3.1c-0.2,0.2-0.3,0.3-0.5,0.5c-0.4-0.2-0.7-0.4-1.1-0.6c-0.1,0.1-0.2,0.2-0.4,0.4c-0.2-0.3-0.4-0.6-0.6-0.9
		c-0.3,0.1-0.4,0.2-0.6,0.2c0,0.2,0,0.3,0,0.4c-0.2,0.2-0.3,0.3-0.5,0.5c-0.3,0-0.6,0-0.8,0.1c-0.3,0.4,0,0.6,0.2,0.8
		c-0.1,0.1-0.1,0.2-0.2,0.2c-0.7,0.3-0.7,0.2-0.9,0.9c0.4,0.5,1-0.1,1.5,0.4c-0.2,0.2-0.4,0.4-0.5,0.5c-0.2,0-0.5,0-0.7,0
		c-0.1-0.1-0.2-0.2-0.4-0.3c-0.3-0.1-0.6,0.1-0.9-0.2c0.1-0.1,0.2-0.2,0.3-0.3c-0.4-0.3-0.4-0.3-1.4-0.1c0.3,0.1,0.5,0.3,0.7,0.4
		c0,0.1,0,0.3,0,0.5c-0.5,0.2-1.1,0-1.6,0.1c-0.3,0.3-0.1,0.6-0.2,0.9c-0.1,0.2-0.3,0.1-0.4,0s-0.3-0.1-0.5-0.2
		c-0.1,0.2-0.1,0.3-0.2,0.5c-0.1,0.1-0.1,0.2-0.2,0.3c-0.1,0.1-0.2,0.3-0.3,0.5c0.3,0.1,0.5,0.2,0.9,0.4c-0.2,0.2-0.4,0.4-0.5,0.5
		c-0.7,0.1-0.5-0.4-0.8-0.7c-0.2,0.3-0.4,0.6-0.5,0.8c-0.5,0-0.9,0-1.3,0c-0.1-0.1-0.3-0.2-0.4-0.4
		C427.2,42.2,426.7,42.2,426.1,42.2z M434.7,35.7c-0.3-0.4-0.6-0.8-0.8-1c-0.3,0-0.5-0.1-0.6,0c-0.3,0.2-0.6,0.3-0.9,0.5
		c-0.1,0-0.2,0.2-0.3,0.3c-0.1,0.1-0.1,0.2-0.2,0.3c0,0.5,0,1,0,1.4c0.3,0.3,0.6,0.6,0.9,0.9c0.4,0,0.8,0,1,0c0.4-0.2,0.7-0.4,1-0.5
		c0-0.3,0.1-0.6,0.1-0.8c0.1-0.1,0.2-0.2,0.3-0.3C435,36,434.6,35.9,434.7,35.7z M426.9,39.5c0,0.5,0,1,0,1.4c0.3,0.3,0.6,0.7,1,0.9
		c0.4,0,0.6,0,1,0c0.3-0.3,0.7-0.6,0.9-0.8c0-0.6,0-1.1,0-1.3c-0.4-0.5-0.6-0.8-0.8-1c-0.4,0-0.8,0-1.1,0
		C427.5,38.9,427.1,39.2,426.9,39.5z"/>
	<path class="st0" d="M616.2,52.2c0,0.4,0,0.8,0,1.3c-0.3,0.1-0.6,0.3-0.9,0.5c-0.1-0.1-0.2-0.2-0.3-0.3c-0.2,0-0.5,0-0.7,0
		c-0.1,0.1-0.3,0.2-0.4,0.3c-0.1-0.1-0.2-0.2-0.3-0.3c-0.4-0.2-0.8,0-1.1-0.1c-0.5,0.3-0.6,0.6-0.7,1c-0.3-0.1-0.5-0.4-0.8-0.6
		c-0.6,0.4,0.1,0.6,0.2,1.1c-0.1,0.1-0.2,0.3-0.3,0.5c0.2,0.4,0.6,0,0.9,0.3c0,0.1,0.1,0.3,0.1,0.4c-0.4,0.5-0.6,0.2-0.9-0.1
		c-0.1,0.1-0.2,0.2-0.4,0.3c-0.7,0-1.4,0-2.1,0c-0.1,0.1-0.3,0.2-0.4,0.4c-0.2,0-0.5,0-0.7,0c-0.2-0.2-0.5-0.5-0.7-0.7
		c-0.1,0.1-0.3,0.2-0.4,0.3c-0.1-0.1-0.2-0.2-0.3-0.3c-0.2,0.1-0.4,0.2-0.5,0.3c-0.3,0-0.4-0.1-0.4-0.5c0-0.3,0.4-0.4,0.5-0.6
		c0.1,0.1,0.3,0.3,0.4,0.4c0.2-0.4,0.4-0.8,0.6-1.2c-0.4-0.2-0.6-0.3-1-0.5c-0.1,0.1-0.2,0.2-0.3,0.3c-0.3-0.1-0.2-0.4-0.3-0.6
		c-0.1,0-0.3-0.1-0.5-0.1c-0.1-0.1-0.2-0.2-0.4-0.3c-0.2,0-0.5,0-0.7,0c-0.6-0.5,0.2-0.7,0.2-1c0-0.5-0.6-0.6-0.7-1.1
		c0,0,0-0.1,0-0.2c0.4-0.4,0.8,0,1.5-0.4c-0.1,0.1,0.1-0.1,0.3-0.3c0-0.5,0-1,0-1.5c0.3-0.3,0.6-0.1,0.9-0.2
		c0.1,0.1,0.3,0.3,0.5,0.4c0.3-0.1,0.6-0.3,0.8-0.4c0.4,0.1,0.5,0.4,0.7,0.5c0,0.6,0,1.1,0,1.7c-0.2-0.1-0.3-0.3-0.4-0.3
		c-0.5-0.1-0.9-0.7-1.4-0.5c-0.6,0.6-1,1-1.4,1.3c-0.3,0.8,0.3,1.1,0.5,1.7c0.4-0.2,0.5,0.2,0.7,0.3c0.4,0,0.7,0,1.1,0
		c0.3-0.3,0.6-0.6,0.9-0.9c0-0.6,0-1.1,0-1.6c0.4,0,0.8,0,1.3,0c0,0.1,0.1,0.3,0.1,0.5c0,0.1,0.1,0.2,0.2,0.3
		c0.2-0.2,0.4-0.4,0.7-0.7c0.7,0,1.5,0,2.1,0c0.3-0.2,0.5-0.4,0.7-0.6c-0.3-0.1-0.5-0.2-0.7-0.3c0-0.1,0-0.3-0.1-0.5
		c0.2-0.1,0.3-0.1,0.5-0.1c0.1,0.1,0.3,0.3,0.4,0.4c0.1,0,0.1,0,0.2,0c0.4-0.2,0.7-0.3,1-0.5c0-0.1,0-0.2,0-0.3
		c-0.4-0.3-0.7-0.5-1.1-0.7c0.2-0.2,0.2-0.2,1-0.2c0.1,0.2,0.4,0.5,0.4,0.6c0.6,0.2,0.7-0.1,0.9-0.3c0.1,0.1,0.3,0.2,0.4,0.3
		c0.3,0,0.5,0,0.8,0c0.1-0.2,0.1-0.4,0.2-0.6c0.4-0.2,0.8-0.1,1.2-0.1c0.1,0.2,0.1,0.4,0.2,0.6c0.1,0,0.2-0.1,0.2-0.1
		c-0.2-0.5,0.6-0.6,0.4-1.1c0.4-0.2,0.3-0.6,0.5-0.8c0.2,0,0.3-0.1,0.5-0.1c-0.1-0.4-0.4-0.5-0.6-0.8c0.1-0.1,0.1-0.2,0.2-0.2
		c0.8,0,1.7,0,2.5,0c0.1,0.2,0.1,0.3,0.1,0.5c-0.1,0.3-0.4,0.3-0.6,0.3c-0.2,0-0.3,0.1-0.8,0.2c0.6,0.1,1,0.2,1.3,0.2
		c0,0.1,0.1,0.1,0.1,0.1c0,0.5,0,1.1,0,1.7c-0.4-0.3-0.6-0.5-1-0.8c-0.4,0-0.8,0-1.3,0c-0.1,0-0.1,0-0.1,0c-0.2,0.2-0.5,0.4-0.5,0.5
		c0,0.4-0.3,0.5-0.4,0.8c-0.1,0.1,0,0.2,0,0.4c0,0.1,0,0.2,0,0.2c0.2,0.4,0.4,0.7,0.5,0.9c0.4,0.2,0.6,0.3,0.9,0.5
		c0.2,0,0.4,0,0.5,0c0.4-0.2,0.7-0.4,1-0.5c0-0.1,0-0.2,0-0.4c0.1-0.1,0.2-0.3,0.4-0.4c0-0.4,0-0.8,0-1.2c0.1,0,0.3,0,0.3,0.1
		c0.1,0.3,0.1,0.6,0.1,0.9c0.2-0.1,0.4-0.2,0.6-0.3c0,0.2,0.1,0.3,0.1,0.5c-0.3,0.3-0.8,0.3-1,0.7c-0.2,0.4-0.3,0.8-0.8,1
		c-0.8,0-1.8,0-2.7,0c-0.2-0.3-0.6-0.3-0.9-0.5c0-0.6,0-1.2,0-1.9c-0.2,0-0.4-0.1-0.5-0.1c-0.2,0.2-0.4,0.4-0.5,0.5
		c0,0.2,0,0.5,0,0.7c-0.1,0.1-0.3,0.3-0.4,0.4c0,0.3,0,0.6,0,0.9c-0.6-0.2-0.8-0.8-1.5-1.2c-0.6,0.2-1.3,0.4-1.8,1c0,0.5,0,1,0,1.4
		c0.3,0.3,0.6,0.6,0.9,0.9c0.5-0.1,1,0,1.4,0c0.3-0.3,0.6-0.5,0.6-0.9C615.9,52.3,616.1,52.3,616.2,52.2z M610.5,54.2
		c-0.3-0.3-0.5-0.5-0.7-0.7s-0.3-0.5-0.6-0.5c-0.2,0-0.4,0-0.6,0c-0.4,0.4-0.8,0.8-1.3,1.4c0,0.2,0,0.6,0,1c0.3,0.3,0.6,0.5,1,0.9
		c0.4-0.1,0.9,0.1,1.4-0.1c0.3-0.3,0.6-0.6,0.8-0.8C610.5,55,610.5,54.6,610.5,54.2z"/>
	<path class="st1" d="M656.6,57.3c0,0.8,0,1.5,0,2.3l-0.1,0.1c-0.3,0.2-0.5,0-0.8-0.3c-0.6,0-1.2,0-1.9,0c-0.2-0.7-0.6-1.1-1.2-1.5
		c-0.3,0.3-0.5,0.7-0.8,1.2c0.4,0.6,0.6,0,1-0.1l0.1,0.1c0,0.5,0,1,0,1.5c0.2,0.1,0.4,0.1,0.6,0.2c0.2,0.4,0.1,0.8,0.1,1.2
		c-0.4,0.4-0.9,0-1.3,0.3c-0.1,0.1-0.2,0.2-0.3,0.3c-0.1-0.1-0.2-0.2-0.4-0.3c-0.5,0-0.9,0-1.4,0c-0.1,0.1-0.2,0.2-0.4,0.3
		c-0.2,0-0.5,0-0.7,0c-0.1-0.1-0.3-0.2-0.4-0.4c-0.3,0-0.6,0-0.9,0c0-0.2,0-0.3,0-0.5c-0.1-0.1-0.2-0.2-0.4-0.4c0-0.4,0-0.9,0-1.4
		c0-0.2,0.1-0.3,0.4-0.2c0,0.3,0,0.6,0,0.9c0.4,0.3,0.4,1,0.9,1.3c0.5,0,0.9,0,1.4,0c0.3-0.3,0.6-0.6,0.8-0.8c0-0.6,0-1.1,0-1.6
		c-0.4-0.2-0.7-0.4-1-0.6c-0.1-0.1-0.3-0.1-0.5-0.2c-0.1,0-0.2,0-0.4,0c-0.5,0.3-0.8,0.9-1.4,1.1c0-0.3,0-0.6,0-0.9
		c-0.1-0.1-0.2-0.3-0.3-0.4c0.4-0.4,0.9,0,1.4-0.3c0.1-0.3-0.1-0.3-0.3-0.3s-0.4,0-0.5,0c-0.4-0.3-0.2-0.6-0.1-1
		c0.1-0.1,0.3-0.3,0.4-0.4c0.4-0.2,0.8-0.1,1.2-0.1c0.2,0.2,0.4,0.4,0.7,0.7c0.1-0.1,0.2-0.2,0.4-0.3c0.1,0.1,0.2,0.2,0.4,0.3
		c0.4-0.3,0-0.8,0.2-1.1c0.3-0.4,0.3-0.8,0.4-1.3c0.5-0.2,0.1-0.8,0.4-1.1c0.3,0,0.5,0,0.8,0c0.2,0.2,0.4,0.3,0.5,0.5
		c-0.1,0.1-0.2,0.3-0.3,0.4c0.3,0.3,0.6,0.2,1,0.1c0,0-0.2-0.9-0.2-1c0.5-0.1,1.1,0,1.6,0c0.4,0.4,0.1,0.6-0.2,0.9
		c0.1,0.2,0.1,0.2,1,0.1c0.3-0.3,0-0.6,0.2-1c-0.1,0.1,0,0,0,0c0.2-0.1,0.5-0.1,0.6,0.1c0.2,0.2,0.4,0.2,0.6,0.1
		c0.2-0.5,0.1-0.9,0-1.6c-0.2,0.5-0.3,0.7-0.5,1c-0.1-0.1-0.1-0.1-0.1-0.1c0-0.4-0.1-0.7-0.1-1.1c-0.1-0.1-0.2-0.2-0.3-0.4
		c0-0.3-0.1-0.6,0-0.8c0.3-0.1,0.3-0.1,0.3,0.5c0.2,0,0.4,0.1,0.6,0.1c0.1-0.3,0.1-0.4,0.1-0.6c0.1,0,0.2-0.1,0.3-0.1
		c1.1,0,2.1,0,3.1,0c0.2,0.2,0.3,0.3,0.3,0.3c0.1-0.1,0.3-0.2,0.4-0.3c0.2,0,0.4,0,0.5,0c0,0.9,0,1.8,0,2.7
		c-0.1,0.1-0.2,0.3-0.4,0.4c0.1,0.1,0.2,0.3,0.4,0.4c0.1,0.6-0.5,0.7-0.7,1.2c0.2,0.1,0.4,0.1,0.6,0.1c0.3,0.3,0.1,0.6,0.1,0.9
		c-0.4,0.4-0.6-0.1-1-0.3c-0.2,0.1-0.4,0.2-0.6,0.4c-0.1-0.1-0.2-0.2-0.3-0.3c-0.3,0-0.5,0.5-0.9,0.2c0-0.2,0-0.5,0-0.7
		c-0.4-0.4-0.7-0.1-1.3-0.5c0.3,0.5,0.4,0.6,0.5,0.8l-0.1,0.1c-0.5,0-1,0-1.4,0c-0.3,0.1-0.4,0.3-0.6,0.4c-0.2-0.3-0.3-0.7-0.5-1
		c-0.3-0.1-0.6-0.3-0.9-0.5c-0.2,0-0.6,0-0.9,0c-0.3,0.3-0.6,0.6-0.9,0.9c0,0.5,0,1,0,1.5c0.4,0.3,0.8,0.6,1.2,0.7
		c0.2,0.1,0.6,0.1,0.8-0.1s0.5-0.2,0.7-0.3C656.3,57.7,656.1,57.3,656.6,57.3z M659.3,54.4c0.5,0,1,0,1.4,0c0.3-0.3,0.7-0.6,0.9-0.9
		c0-0.5,0-0.8,0-0.9c-0.6-0.6-1-1-1.5-1.5c-0.3-0.2-0.6,0.5-1,0.5c-0.2,0-0.2,0.2-0.3,0.4c-0.3,0.8-0.3,0.7-0.3,1.6
		C658.7,53.8,659,54.1,659.3,54.4z"/>
	<path class="st0" d="M56.8,45.8c-0.4,0-0.7,0-1.1,0c0,0.1-0.1,0.1-0.1,0.2c0.3,0.1,0.6,0.3,0.8,0.3c0,1.3,0,2.2,0,3.2
		c-0.2,0.3-0.5,0.5-0.7,0.7c0.2,0.4,0.8-0.1,1,0.4c-0.1,0.1-0.1,0.1-0.1,0.1c-0.6,0-1.2,0-1.8,0c-0.1,0.1-0.3,0.3-0.4,0.4
		c-0.4,0.1-0.5-0.2-0.7-0.3c-0.6,0-1.2,0-1.8,0c-0.2,0.2-0.4,0.4-0.5,0.5c0.1,0.1,0.2,0.2,0.3,0.2c0.2,0.4,0.1,0.8,0.1,1.2
		c-0.1,0.1-0.2,0.2-0.3,0.3c0.1,0.1,0.2,0.2,0.3,0.4c-0.3,0.2-0.7,0.2-0.9,0.6c-0.8,0-1.7,0-2.5,0c-0.3,0.4-0.1,0.8-0.2,1.2
		c-0.2,0.3-0.5,0.6-1,0.6c-0.2,0.5,0,1-0.1,1.5c0.2,0.2,0.3,0.3,0.4,0.4c-0.2,0.2-0.3,0.3-0.5,0.5c-0.2,0-0.5,0-0.8,0
		c0,0.2-0.1,0.4-0.1,0.6c0.5,0.3,0.9,0.1,1.2,0.2c0.2-0.1,0.3-0.3,0.5-0.4c0.1,0.2,0.1,0.4,0.1,0.6c-0.3,0.2-0.7,0.3-1,0.5
		c-0.1-0.1-0.2-0.2-0.3-0.3c-0.6,0-1.2,0-1.8,0c-0.1,0.1-0.2,0.2-0.4,0.3c-0.2,0-0.5,0-0.7,0c-0.1-0.2-0.3-0.3-0.5-0.6
		c0-0.4,0-0.9,0-1.4c-0.1-0.1-0.2-0.2-0.3-0.3c0-0.8,0-1.7,0-2.5c0.1-0.1,0.2-0.2,0.3-0.4c0.1-0.3-0.1-0.6,0.1-0.8
		c0.2,0.1,0.4,0.2,0.6,0.4c0.2-0.1,0.3-0.2,0.6-0.4c0.2,0,0.4,0,0.7,0c0.1,0.1,0.2,0.2,0.4,0.3c0.3-0.3,0.6-0.6,0.9-0.9
		c0-0.2,0-0.5,0-0.7c-0.1-0.1-0.2-0.3-0.3-0.4c0-0.5,0-1,0-1.4l0.1-0.1c0.1,0.1,0.2,0.2,0.4,0.3c0.1-0.1,0.1-0.3,0.3-0.5
		c-0.3-0.2-0.6-0.4-0.8-0.5c0-0.7,0-1.2,0-1.9c0.3,0,0.5,0.1,0.7,0.1c-0.2,0.2-0.3,0.3-0.4,0.5c0.4,0.4,0.9,0,1.4,0.3
		c0,0.1,0.1,0.3,0.1,0.5c0.1,0.1,0.3,0.3,0.5,0.5c0.3-0.2,0.1-0.5,0.2-1c0.1-0.1,0.3-0.3,0.5-0.4c0.2,0,0.5,0,0.7,0
		c0.3,0.3,0.1,0.6,0.2,0.9c-0.2,0.1-0.5,0.2-0.7,0.4c0.2,0.2,0.4,0.3,0.6,0.6c0.2-0.3,0.4-0.5,0.6-0.9c0.3,0.2,0.6,0.3,0.8,0.5
		c0.2-0.2,0.3-0.3,0.6-0.6c-0.1-0.3-0.3-0.6-0.5-0.9c0.1-0.1,0.2-0.3,0.3-0.4c0.2-0.3,0.1-0.6,0.1-0.8c0-0.4,0-0.7,0-1.1
		c0-0.3-0.1-0.6,0.2-0.8c0.5,0.5-0.1,1.3,0.4,1.9c0.1-0.4,0.1-0.7,0.2-1.1c0.2,0,0.4,0,0.7-0.1c0.3-0.2,0.7-0.4,1.3-0.7
		c0.6,0,1.4,0,2.2,0C56.7,45.3,56.7,45.5,56.8,45.8z M54.8,46.5c-0.5,0-1,0-1,0c-1,0.2-0.8,0.9-1.3,1.3c-0.1,0.1,0,0.5-0.1,0.5
		c0.5,0.5,1,1,1.5,1.5c0.1,0,0.4,0,0.6-0.1c0.3-0.2,0.7-0.4,1-0.6c0.1-0.1,0.1-0.2,0.2-0.3c0-0.5,0-1,0-1.4
		C55.3,47.1,55,46.8,54.8,46.5z M46.3,56.7c0-0.2,0-0.5,0-0.7c-0.2-0.2-0.4-0.4-0.6-0.6c-0.3-0.2-0.4-0.6-0.8-0.6
		c-0.5,0.1-1.3,0.5-1.8,0.9c0,0.5,0,1,0,1.4c0.4,0.4,0.6,0.8,0.8,1c0.5,0,0.8,0,1,0c0.4-0.2,0.7-0.4,1-0.5c0-0.1,0-0.2,0-0.3
		C46.1,57,46.2,56.9,46.3,56.7z M47.7,52.9c0.5,0.3,0.9,0.6,1.4,0.8c0.1,0.1,0.3,0,0.6,0c0.3-0.3,0.6-0.6,0.9-0.8c0-0.6,0-1.1,0-1.4
		c-0.3-0.4-0.6-0.7-0.8-1c-0.4,0-0.8,0-1.1,0c-0.3,0.3-0.6,0.6-0.9,0.9C47.7,51.8,47.7,52.3,47.7,52.9z"/>
	<path class="st2" d="M579.9,42.2c0.5,0,1.1,0,1.6,0c0.4,0.4,0,0.9,0.2,1.2c-0.2,0.2-0.3,0.3-0.4,0.4c0.1,0.1,0.2,0.3,0.3,0.4
		c0,0.2,0,0.5,0,0.7c0.3,0.2,0.3,0.6,0.5,0.9c0.4,0,0.8,0,1.2,0.1s0.7,0.4,1,0.6c0.1,0.1,0.3,0,0.8-0.1c-0.5-0.3-0.8-0.5-1.1-0.6
		c0.4-0.5,0.9-0.3,1.4-0.4c0.1,0.2,0.3,0.4,0.5,0.6c-0.2,0.1-0.4,0.1-0.6,0.2c-0.1,0.3-0.2,0.6,0.4,0.6c0.1-0.1,0.3-0.2,0.5-0.4
		c0.4-0.1,0.6,0.3,0.8,0.5c-0.1,0.3-0.7,0.5-0.2,0.9c0.3,0,0.5-0.7,0.9-0.1c-0.1,0.1-0.2,0.2-0.3,0.3c0,0.5,0,1,0,1.4
		c-0.1,0.1-0.2,0.2-0.3,0.3c0.1,0.2,0.3,0.5,0.4,0.6c-0.3,0.5-0.7,0.2-1,0.4c0,0-0.1,0.1-0.2,0.2c-0.7,0-1.5,0-2.2,0
		c-0.1-0.1-0.2-0.2-0.3-0.3c-0.6,0-1.3,0-2,0c-0.1,0.8,0,1.6-0.1,2.3l-0.1,0.1c-0.1,0-0.2,0-0.3,0c-0.6-0.5-0.1-0.9,0.1-1.3
		c-0.3-0.3-0.5,0-0.8,0.2c-0.2,0.1-0.4,0.1-0.9,0.2c-0.1,0.2-0.3,0.5-0.6,0.8l-0.1-0.1c-0.1,0.2-0.1,0.4-0.2,0.6c-0.1,0-0.3,0-0.4,0
		c-0.4-0.2-0.2-0.5-0.2-0.9c-0.3-0.3-0.8-0.6-1.2-0.9c0.3-0.3,0.4-0.4,0.5-0.5c-0.3-0.3-0.6-0.2-1-0.1c0.1,0.2,0.2,0.3,0.3,0.5
		c0.1,0.3-0.1,0.4-0.3,0.6c-0.1,0.2-0.1,0.4-0.2,0.6c-0.1-0.1-0.2-0.1-0.2-0.2c0-0.7,0-1.4,0-2.2c0.1-0.2,0.6-0.3,0.2-0.9
		c0.4,0.2,0.6,0.3,0.8,0.4c0.2-0.4,0.1-0.8,0.1-1.2c-0.2-0.2-0.5-0.4-0.2-0.8c0.2-0.2,0.5,0.1,0.7-0.1c0.2,0.1,0.3,0.3,0.4,0.4
		c0.1-0.1,0.2-0.2,0.3-0.3c0.5,0,1,0,1.4,0c0.2-0.2,0.4-0.4,0.6-0.6c-0.5-0.6-0.8,0.4-1.3,0.2c-0.2-0.5-0.5-0.9-0.7-1.4
		c-0.1,0.1-0.3,0.3-0.4,0.4c-0.1,0-0.3,0-0.4,0c0-0.1-0.1-0.3-0.1-0.5c0.1-0.1,0.3-0.3,0.3-0.4c-0.2-0.3-0.3-0.6-0.5-0.9
		c-0.1,0.3-0.2,0.5-0.4,0.8c-0.3-0.8-0.9-1.4-1-2.4c0.3-0.3,0.6-0.5,1-0.8c0.1,0,0.2,0.1,0.3,0.3c0.1-0.1,0.3-0.2,0.4-0.3
		c0.4,0,0.8,0,1.2,0c-0.2,0.6-0.8,0.8-1,1.2c-0.3,0.8,0.3,1.2,0.4,1.6c0.3,0.2,0.6,0.3,0.8,0.5c0.3,0,0.6,0,1,0
		c0.3-0.3,0.6-0.6,0.9-0.9c-0.1-0.5,0.1-1-0.1-1.5c-0.3-0.3-0.5-0.6-0.9-0.6C580,42.5,579.9,42.3,579.9,42.2z M579.7,51.9
		c0.4-0.4,0.8-0.8,1.2-1.3c0-0.2,0.1-0.5,0-0.6c-0.4-0.4-0.3-1-0.9-1.3c-0.5,0-1,0-1.4,0c-0.4,0.3-0.7,0.6-1,0.8c0,0.5,0,1,0,1.5
		c0.3,0.5,0.9,0.5,1.2,0.9C579.2,51.9,579.4,51.9,579.7,51.9z M583.5,49.9c0.3,0.6,0.9,0.5,1.3,0.9c0.1,0.1,0.5,0,0.7,0
		c0.3-0.3,0.6-0.6,0.7-0.7c0.2-0.5,0.4-0.8,0.5-1c-0.3-0.5-0.4-1.1-0.9-1.4c-0.5,0-1,0-1.2,0c-0.6,0.4-0.9,0.6-1.2,0.8
		C583.5,49,583.5,49.5,583.5,49.9z"/>
	<path class="st1" d="M173.2,50.8c0.2,0.2,0.2,0.2,0.3,0.3c0.1-0.1,0.3-0.2,0.4-0.3c0.3,0,0.7,0,1.1,0c0.1,0.2,0.3,0.3,0.5,0.5
		c0,0.2,0,0.4,0,0.7c-0.1,0.3-0.4,0.1-0.5,0.2c-0.2,0.1-0.3,0.3-0.5,0.5c0,0.2,0.1,0.3,0.1,0.7c0.3-0.4,0.5-0.7,0.7-1
		c0.1,0.2,0.3,0.3,0.3,0.4c0,0.8,0,1.7,0,2.4c-0.3,0.3-0.3-0.1-0.5-0.1c-0.3,0.1-0.7,0.3-1.1,0.6c-0.3,0.2-0.8-0.1-1.1,0.5
		c-0.1-0.3-0.1-0.5-0.2-0.7c-0.3-0.3-0.6-0.1-0.9-0.1c-0.1,0.3-0.1,0.7-0.2,1c-0.1,0-0.3,0.1-0.5,0.1c-0.1-0.2-0.1-0.5-0.2-0.6
		c-0.1-0.1-0.2-0.2-0.3-0.3c0.1-0.1,0.2-0.3,0.4-0.5c-0.3,0-0.5-0.1-0.6-0.1c-0.2,0.4-0.1,0.8-0.1,1.1c-0.2,0.4-0.5,0.9-0.7,1.3
		c0.1,0.1,0.2,0.2,0.3,0.3c-0.3,0.3-0.6,0.5-1,0.8c0,0-0.2-0.1-0.3-0.3c-0.2,0.1-0.3,0.3-0.5,0.5c0.1,0.1,0.2,0.3,0.3,0.4
		c-0.2,0.4-0.6,0.1-0.9,0.2c-0.1-0.2-0.2-0.4-0.2-0.6c-0.5,0,0,0.6-0.5,0.6c-0.2-0.3-0.6-0.7-0.7-0.9c-0.5-0.1-0.6-0.2-0.8-0.2
		c0-0.4,0-0.8,0-1.1c-0.1-0.1-0.3-0.3-0.4-0.4c0-0.2,0-0.5,0-0.8c-0.2-0.1-0.4-0.1-0.6-0.2c-0.2-0.1-0.3-0.3-0.7-0.3
		c-0.1,0.2-0.4,0.5-0.5,0.7c-0.4,0-0.6,0-0.8,0c-0.1,0.1-0.3,0.3-0.4,0.4c-0.1,0-0.3,0-0.4,0c-0.3-0.2-0.1-0.6-0.2-0.8
		c0.2-0.5,0.8,0,1.1-0.4c-0.2-0.1-0.3-0.1-0.5-0.1s-0.3,0-0.6-0.1c0-0.3,0-0.6,0-0.9c-0.1-0.1-0.2-0.3-0.4-0.5
		c0.2-0.5,0.5-0.9,0.7-1.4c-0.1-0.1-0.2-0.2-0.3-0.3c0-0.4-0.1-0.8,0.1-1.2c0.4-0.2,0.5,0,0.8,0.3c0.1-0.1,0.2-0.2,0.4-0.3
		c0.7,0,1.4,0,2.1,0c0.1,0.1,0.2,0.2,0.4,0.3c0.2,0,0.5,0,0.7,0c0.1-0.1,0.3-0.2,0.4-0.3c0.3,0,0.5,0,0.7,0c0.1,0.1,0.2,0.2,0.2,0.3
		c0,1,0,1.9,0,2.8c0.4,0.3,0.6,0.1,0.9-0.2c0.3,0,0.7,0,1.2,0c0.1,0,0.3,0.5,0.8,0.2c0-0.4,0-0.8,0-1.1c0.7-0.5,0.9-1.2,1.2-1.9
		c0.1,0,0.1-0.1,0.1-0.1c0.5,0,1,0,1.4,0C172.9,51.1,172.9,51.1,173.2,50.8z M165.5,53.5c0-0.5,0-1,0-1.4c-0.5-0.6-1.1-0.9-1.7-0.9
		c-0.5,0.5-1,1-1.5,1.5c0,0,0,0.1,0,0.3c0.2,0.4,0.3,0.8,0.5,1.2c0.4-0.2,0.5,0.2,0.7,0.3c0.4,0,0.7,0,1,0
		C164.9,54.1,165.2,53.8,165.5,53.5z M173.2,51.5c-0.5,0-1,0-1.4,0c-0.3,0.3-0.6,0.6-0.9,0.9c0,0.4,0,0.7,0,1.1
		c0.4,0.4,0.8,0.8,1.3,1.3c0.2,0,0.5,0,0.6,0c0.5-0.4,0.9-0.8,1.3-1.2c0-0.4,0-0.7,0-1.1C173.8,52.1,173.5,51.8,173.2,51.5z
		 M167.8,55.1c-0.5,0-1,0-1.4,0c-0.5,0.4-0.7,1-0.9,1.6c0.5,0.2,0.3,1,0.9,1.2c0.6,0,1.2,0,1.9,0c0.1-0.3,0.2-0.7,0.5-0.9
		c0-0.4,0-0.7,0-1C168.4,55.7,168.1,55.4,167.8,55.1z"/>
	<path class="st3" d="M145.3,45.4c0,0.2,0,0.4,0,0.6c0.2,0.1,0.4,0.1,0.6,0.2c0.2,0.3,0.1,0.6,0.1,0.8c-0.1,0.1-0.2,0.3-0.3,0.4
		c0.1,0.1,0.2,0.3,0.4,0.5c-0.3,0-0.4,0.1-0.6,0.1c-0.4-0.4-0.1-0.9-0.2-1.3c-0.1-0.1-0.1-0.1-0.2-0.1c-0.1,0.2-0.2,0.4-0.3,0.7
		c-0.2,0-0.4,0-0.8,0.1c-0.1-0.3-0.3-0.6-0.5-0.9c-0.3,0.3-0.5,0.4-0.6,0.5c-0.2,0-0.5,0-0.6,0c-0.6,0.6-1.1,1.1-1.6,1.7
		c0.1,0.1,0.1,0.1,0.3,0.3c0,0.4,0,0.8,0,1.2c-0.1,0-0.3,0.1-0.5,0.1c-0.1,0.2-0.2,0.5-0.3,0.7c-0.1,0-0.3,0-0.4,0
		c-0.3-0.4-0.3-0.9-0.9-1.1c-0.2,0.1-0.4,0.3-0.7,0.4c-0.4-0.2-0.9-0.5-1.3-0.7c-0.1,0.3-0.3,0.5-0.5,0.9c0.1,0.1,0.2,0.2,0.3,0.3
		c-0.1,0.3-0.3,0.2-0.6,0.1c0-0.1-0.1-0.3-0.1-0.5c-0.1-0.1-0.3-0.3-0.5-0.5c-0.2,0.2-0.4,0.4-0.6,0.6c0.1,0.2,0.3,0.4,0.4,0.6
		c0,0.5,0,1,0,1.5c-0.1,0.1-0.2,0.2-0.3,0.3c0.1,0.1,0.2,0.3,0.4,0.4c-0.1,0.3,0.1,0.6-0.1,0.9c-0.1-0.1-0.3-0.2-0.4-0.3
		c-0.7,0-1.4,0-2.1,0c-0.2,0.1-0.3,0.5-0.7,0.3c-0.4-0.8-0.4-0.8-1.2-1.2c-0.1-0.3,0-0.5,0.2-0.6c0.2-0.2,0.2-0.4,0-0.6
		c-0.2,0.1-0.5,0.3-0.6,0.3c-0.4-0.1-0.3-0.4-0.4-0.6c-0.1-0.1-0.2-0.3-0.3-0.4c0.1-0.2,0.1-0.3,0.2-0.5c0.2,0.2,0.4,0.5,0.8,0.3
		c0-0.1,0.1-0.3,0.1-0.5c0.2-0.3,0.7-0.2,0.9-0.6c0.1-0.3,0.3-0.6,0.4-0.9c-0.1-0.1-0.2-0.2-0.3-0.3c0-0.4,0.3-0.2,0.5-0.2
		c0.3,0.3,0.2,0.9,0.8,1c0-0.2,0.1-0.3,0.1-0.6c0.5-0.3,1-0.1,1.6-0.1c0.1-0.1,0.3-0.3,0.5-0.5c0.2-0.5-0.1-1.2,0.2-1.7
		c0.2,0.2,0.3,0.3,0.5,0.4c0.2-0.2,0.3-0.3,0.5-0.5c0-0.2,0-0.5,0-0.7c0.2-0.1,0.3-0.3,0.6-0.5c0.5,0,1,0,1.5,0
		c0.1,0.1,0.2,0.2,0.3,0.3c0.4,0,0.8,0.1,1.2,0.1c0,0.3,0.1,0.6,0.1,1c0.1,0,0.3,0.1,0.5,0.1c0.3-0.3,0.6-0.6,0.9-0.9
		c-0.1-0.1-0.2-0.2-0.3-0.4c0-0.2,0-0.5,0-0.7c0.1-0.1,0.3-0.3,0.3-0.4c0-0.3,0-0.5,0-0.7c-0.5-0.3-0.4-0.7-0.3-1.1l0.1-0.1
		c0.5-0.3,0.5,0.4,1,0.3c0.1,0,0.2-0.1,0.3-0.2l0,0c0.1,0,0.1-0.1,0.1-0.1c0.5,0,1,0,1.4,0c0.1,0.1,0.2,0.2,0.3,0.3
		c0.3,0,0.5,0.1,0.8,0.1c0.1,0.1,0.1,0.2,0.1,0.3c0,0.2,0,0.5,0,0.7c0,0.1,0,0.2-0.6,1.4c-0.3,0.8,0,0.5,0.2,0.2
		c0.1-0.2,0.1-0.4,0.3-0.6c0.3-0.3,0.2-0.6-0.2-0.8c0-0.5-0.3-0.7-0.6-0.9c-0.5,0-1,0-1.4,0c-0.4,0.3-0.7,0.6-0.9,0.9
		c0,0.5,0,1,0,1.5c0.3,0.5,0.9,0.5,1.3,0.9c0.2,0,0.5,0,1.4-1.1c0.8-1.1,1-1,1-0.8s0,0.5,0,0.5C145.5,45,145.4,45.2,145.3,45.4z
		 M137.2,46.1c-0.5,0.4-0.6,1-0.9,1.5c0.1,0.2,0.3,0.5,0.4,0.7c0.1,0.3,0.3,0.6,0.7,0.7c0.3,0.1,0.5,0.3,0.9,0.4
		c0.2-0.6,1-0.3,1.3-0.9c0-0.5,0-1,0-1.3c-0.4-0.5-0.6-0.8-0.8-1C138.1,46.1,137.6,46.1,137.2,46.1z M133.5,50.1c-0.4,0-0.8,0-1.3,0
		c-0.2,0.2-0.3,0.3-0.5,0.5c0,0.6,0,1.3,0,1.9c0.5,0.3,1,0.6,1.4,0.8c0.4-0.1,0.5-0.4,0.8-0.4c0.2,0,0.4-0.3,0.6-0.5
		c0-0.7,0-1.3,0-1.8C134.2,50.4,133.9,50.3,133.5,50.1z"/>
	<path class="st0" d="M169.4,40.2c-0.2,0.2-0.5,0.5-0.7,0.7c0,0.2,0,0.5,0,0.7c-0.3,0.3-0.6,0.6-0.9,0.9c-0.4-0.2-0.6-0.6-0.7-1
		c-0.3,0.2-0.1,0.6-0.2,0.8c-0.1,0.2-0.3,0.4-0.5,0.6c0.2,0.2,0.3,0.4,0.4,0.6c0,0.1,0,0.2,0,0.3c-0.3,0.4-0.8-0.1-1.1,0.5
		c0.4,0.1,0.7,0.1,1.1,0.2c-0.1,0.2-0.2,0.3-0.3,0.4c0.1,0.4,0.2,0.7,0.3,1c-0.2,0.3-0.3,0.4-0.5,0.7c0.1,0.2,0.3,0.4,0.4,0.6
		c0,0.2,0,0.4,0,0.7c-0.2,0.2-0.3,0.3-0.5,0.5c-0.1-0.1-0.3-0.2-0.4-0.3c-0.1,0.1-0.2,0.1-0.3,0.2c-0.1,0-0.2,0.1-0.3,0.1
		c-0.9,0-1.8,0-2.7,0c-0.1-0.1-0.1-0.1-0.1-0.1c0-0.1-0.1-0.1-0.1-0.2c0-1.3,0-2.6,0-3.9c0.3,0.1,0.3,0.1,0.5,0.6
		c0.7-0.3,1.3-0.8,2-0.9c-0.3-0.1-0.7-0.1-1-0.2c0-0.2,0-0.3,0-0.6c0.7-0.2,1.4,0.1,2.3-0.2c-0.7-0.3-1.1-0.8-1.8-0.6
		c-0.1,0.1-0.3,0.2-0.4,0.3c-0.2-0.3-0.2-0.7-0.5-0.9c0-0.7,0-1.4,0-2.1c-0.2-0.3-0.6-0.1-0.9-0.2c-0.1,0.1-0.3,0.2-0.4,0.4
		c-0.6,0-1.2,0-1.8,0c-0.2-0.3-0.6-0.3-0.9-0.5c-0.2-0.1-0.5-0.3-0.7-0.4c-0.1-0.4,0.1-0.5,0.3-0.7c-0.1-0.1-0.3-0.3-0.4-0.4
		c0-0.1,0-0.2,0-0.4c0.1-0.1,0.2-0.2,0.3-0.3c0-0.1,0.1-0.1,0.1-0.1c0-0.7,0-1.4,0-2.1c-0.1-0.2-0.3-0.3-0.3-0.5c0-0.1,0-0.2,0-0.3
		c0.3-0.3,0.6-0.1,0.8-0.1c0.1-0.1,0.3-0.2,0.4-0.3c0.1,0.1,0.2,0.2,0.3,0.3c0.5,0.3,1.2-0.1,1.7,0.2c-0.1,0.1-0.2,0.3-0.4,0.4
		c0.2,0.2,0.3,0.3,0.6,0.6c0.5,0,1,0,1.5,0c0.3,0.4,0,0.6-0.3,0.9c0.3,0.2,0.6,0.3,0.9,0.5c-0.2,0.3-0.3,0.4-0.5,0.5
		c0,0.2,0,0.5,0,0.7c0.2,0.2,0.5,0.3,0.7,0c-0.1-0.1-0.2-0.2-0.3-0.3c0,0-0.1-0.1,0-0.1c0.3-0.3,0.5-0.6,0.8-0.9c0.3,0,0.4,0,0.5,0
		c0,0.1,0.1,0.3,0.1,0.5c-0.1,0.1-0.3,0.3-0.4,0.4c0.4,0.4,0.6,0.2,0.8-0.1c0.5,0.2,0.5,0.7,0.8,1.1c0.2,0.3,0.2,0.7,0.3,1.1
		c0.4-0.5,0.1-1,0.3-1.5c0.2,0.1,0.3,0.2,0.4,0.3c0.1,0.1,0.2,0.2,0.2,0.3c-0.2,0.2-0.5,0.4-0.3,0.7c0.2,0.3,0.6,0.1,0.8,0.1
		C169,39.6,169.2,39.9,169.4,40.2z M161,39.3c0.2,0,0.5,0,0.7,0c0.1-0.1,0.3-0.2,0.4-0.4c0.1,0,0.2,0,0.3,0c0.2-0.2,0.3-0.3,0.5-0.5
		c0-0.6,0-1.3,0-1.9c-0.3-0.2-0.6-0.3-1-0.5c-0.4,0-0.9,0-1.4,0c-0.2,0.2-0.5,0.3-0.5,0.5c0,0.3-0.2,0.5-0.4,0.7c0,0.3,0,0.5,0,0.7
		C160.1,38.4,160.6,38.9,161,39.3z M166.9,40.9c0-0.5,0-1,0-1.4c-0.3-0.3-0.6-0.7-1-0.9c-0.4,0-0.6,0-0.7,0
		c-0.5,0.4-0.9,0.6-1.2,0.8c0,0.6,0,1.1,0,1.4c0.3,0.4,0.6,0.7,0.8,1c0.4,0,0.8,0,1.1,0C166.3,41.5,166.6,41.2,166.9,40.9z
		 M163.5,45.4c-0.3,0.5-0.4,0.8-0.5,1.1c0.3,0.5,0.4,1.1,0.9,1.4c0.5,0,0.9,0,1,0c0.6-0.4,1-0.6,1.3-0.8c0-0.5,0-0.9,0-1
		c-0.4-0.5-0.6-0.8-0.8-1c-0.6,0-1.1,0-1.5,0C163.7,45.3,163.5,45.4,163.5,45.4z"/>
	<path class="st0" d="M145.3,45.4c0.1-0.2,0.2-0.4,0.4-0.6c0-0.1,0-0.3,0-0.5s-0.1-0.3-0.4-0.3c0-0.1,0-0.2,0-0.4c0.2,0,0.4,0,0.6,0
		c0.1-0.2,0.2-0.5,0.3-0.7c0.1,0.1,0.3,0.2,0.4,0.3c0.3-0.3,0.1-0.6,0.2-0.9c-0.1-0.1-0.2-0.3-0.4-0.4c0.1-0.1,0.2-0.2,0.3-0.3
		c0.2-0.6-0.1-1.4,0.2-2.1c0.3,0.3,0.5,0.5,0.8,0.8c0.1-0.4,0.1-0.7,0.2-1c0.1,0,0.1-0.1,0.1-0.1c0.8,0,1.7,0,2.5,0
		c0.2,0.2,0.4,0.4,0.5,0.5c0,0.2,0.1,0.4,0.2,0.8c0.2-0.5,0.4-0.9,0.5-1.2c0.1,0.1,0.2,0.2,0.3,0.3c0.3-0.1,0.5-0.3,0.8-0.4
		c0.1,0,0.4,0,0.6,0l0.1-0.1c0.1-0.2,0.1-0.5-0.1-0.6c-0.2-0.2-0.2-0.4-0.1-0.6c0.4,0,0.8,0,1.2,0c0.1,0.1,0.2,0.2,0.4,0.3
		c0.1-0.1,0.2-0.2,0.3-0.3c0.1,0.1,0.2,0.2,0.4,0.3c0.3-0.1,0.2-0.4,0.3-0.6l0.1-0.1c0.2,0.5,0.9,0.2,1.1,0.7
		c0.2-0.2,0.4-0.4,0.6-0.6c0-0.1,0-0.2,0-0.4c0.2-0.2,0.4-0.4,0.6-0.6c0.3-0.5-0.1-1.2,0.2-1.7c0.5,0.4,0,0.9,0.3,1.3
		c0.1,0.1,0.2,0.2,0.3,0.3c-0.1,0.1-0.2,0.2-0.3,0.4c0,0.2,0,0.4,0,0.6c-0.3,0.4-0.6,0.6-1.1,0.8c0.3,0.1,0.5,0.2,0.8,0.3
		c-0.1,0.1-0.2,0.3-0.3,0.4c0.1,0.1,0.2,0.2,0.3,0.4c0,0.5,0,1,0,1.5c-0.1,0.1-0.2,0.2-0.3,0.3c0.1,0.2,0.2,0.4,0.3,0.5
		c-0.1,0.1-0.1,0.3-0.1,0.4c-0.1,0.2-0.3,0.3-0.5,0.5c-0.3-0.2-0.5-0.3-0.9-0.5c-0.2,0.1-0.3,0.2-0.5,0.4c-0.1-0.1-0.2-0.2-0.4-0.3
		c-0.4-0.1-0.5,0.2-0.8,0.4c-0.6,0.1-1.1-0.3-1.6-0.5c0-0.4,0-0.7,0-1.1c-0.3-0.2-0.6-0.3-1-0.5c-0.2,0.5-0.1,1-0.1,1.4s0,0.8,0,1.3
		s0,1,0,1.3c-0.2,0.5-0.4,0.7-0.5,1c-0.1-0.1-0.3-0.2-0.4-0.4c-0.2,0-0.5,0-0.7,0c-0.1-0.1-0.3-0.2-0.4-0.3
		c-0.1,0.1-0.2,0.2-0.3,0.3c-0.3,0-0.7,0-1.1,0c-0.1-0.1-0.2-0.1-0.4-0.3c-0.1,0.1-0.2,0.2-0.4,0.3c-0.4,0-1,0-1.4,0
		c-0.3,0.5,0.1,1-0.3,1.4c-0.4-0.2-0.1-0.6-0.3-0.9c-0.1,0-0.2-0.1-0.3-0.1C145.8,45.4,145.5,45.4,145.3,45.4z M148.7,43.6
		c0.6,0,1.2,0,1.8,0c0.2-0.2,0.3-0.3,0.5-0.5c0-0.5,0-1,0-1.3c-0.2-0.5-0.3-0.8-0.4-1.1c-0.6,0-1.3,0-1.9,0
		c-0.1,0.3-0.4,0.3-0.5,0.7c0,0.3-0.2,0.5-0.4,0.7c0.1,0.3,0.2,0.5,0.4,0.8C148.4,43.2,148.5,43.4,148.7,43.6z M154.9,41.4
		c0.5,0,1,0,1.4,0c0.3-0.3,0.7-0.6,0.9-1c0-0.4,0-0.7,0-0.9c-0.3-0.4-0.6-0.7-0.8-1c-0.6,0-1.1,0-1.4,0c-0.4,0.3-0.7,0.6-1,0.8
		c0,0.5,0,0.8,0,1.1C154.3,40.9,154.6,41.2,154.9,41.4z"/>
	<path class="st0" d="M363.5,39.3c0-0.3-0.2-0.4-0.4-0.3c-0.2,0-0.3,0.2-0.5,0.3c-0.1-0.1-0.1-0.2-0.1-0.3c0-0.4,0-0.8,0-1.3
		c0.1-0.1,0.3-0.3,0.3-0.4c0.1-0.4-0.2-0.5-0.3-0.7c0.1-0.1,0.2-0.2,0.3-0.3c0-0.6,0-1.2,0-1.9c0.3,0.1,0.4,0.1,0.6,0.2
		c0.3,0,0.5,0,0.8,0c0.3-0.6,1.1-0.6,1.5-1.2c0.3-0.4-0.1-0.9,0.3-1.3c0.3,0.1,0.4,0.5,0.7,0.3c0.3-0.2,0.1-0.5,0.2-1
		c0.2-0.2,0.5-0.4,1.1-0.8c1,0,2.2,0,3.4,0c0.2,1.4,0.2,3.6,0,5.7c-0.2,0-0.4-0.1-0.7-0.1c0.2-0.2,0.3-0.3,0.4-0.5
		c0-0.1,0-0.2,0-0.4c-0.2-0.3-0.6-0.1-1-0.2c-0.1,0.1-0.2,0.3-0.3,0.5c-0.1,0.2-0.1,0.4-0.2,0.6c-0.3,0-0.5,0-0.6,0
		c-0.4,0.2-0.7,0.4-1,0.5c0,0.3,0,0.7,0,1c-0.1,0.1-0.2,0.3-0.4,0.4c0,0.3,0,0.6-0.1,0.9c-0.6,0-1.1,0-1.5,0
		c-0.2,0.2-0.3,0.3-0.4,0.3c-0.1-0.1-0.2-0.2-0.3-0.3c-0.1,0.1-0.3,0.2-0.4,0.3c-0.2,0-0.5,0-0.7,0
		C363.9,39.6,363.8,39.2,363.5,39.3z M366.4,38c0-0.5,0-1,0-1c-0.2-1-1-0.8-1.2-1.3c-0.3,0-0.6,0-0.8,0.1c-0.2,0.1-0.4,0.2-0.6,0.3
		c-0.2,0.1-0.3,0.5-0.4,0.7c-0.3,0.5-0.3,0.6,0,1.1c0.1,0.2,0.2,0.5,0.4,0.7c0.4-0.1,0.5,0.2,0.7,0.3c0.4,0,0.7,0,1,0
		C365.8,38.6,366.1,38.3,366.4,38z M368.2,32.3c0,0.6,0,1.2,0,1.8c0.2,0.2,0.3,0.3,0.5,0.5c0.5,0,1,0,1.3,0c0.5-0.2,0.8-0.3,1.1-0.4
		c0-0.6,0-1.3,0-1.9c-0.3-0.1-0.3-0.5-0.7-0.5c-0.3,0-0.5-0.2-0.7-0.4C369.1,31.6,368.5,31.8,368.2,32.3z"/>
	<path class="st0" d="M56.7,45.8c0.1,0,0.3-0.1,0.3-0.1c0.1-0.2,0.2-0.4,0.3-0.6c0-0.1,0.1-0.1,0.2-0.2c0-0.8,0-1.7,0-2.7
		c0.4,0,0.7,0,0.9,0c0.1,0.1,0.3,0.2,0.4,0.3c0.5,0,0.8-0.6,1.4-0.3c0.1,0.1,0.2,0.2,0.4,0.3c0.1-0.1,0.3-0.2,0.4-0.3
		c0.7,0,1.4,0,2,0c0.4,0.2,0.7,0.4,1,0.5c-0.2,0.3-0.5,0.5-0.7,0.8c0.2,0.1,0.3,0.1,0.5,0.2c0.1-0.1,0.3-0.3,0.4-0.4
		c0.1,0.1,0.3,0.2,0.4,0.4c0.1-0.4,0.1-0.7,0.2-1c0.3-0.2,0.6,0,0.8-0.1c0.2,0.2,0.4,0.4,0.5,0.5c0,0.2,0,0.5,0,0.7
		c-0.1,0.1-0.2,0.3-0.3,0.4c0.1,0.1,0.2,0.2,0.3,0.3c0,0.1,0.1,0.2,0.1,0.3c0,1.3,0,2.5,0,3.7c-0.1,0.1-0.1,0.1-0.2,0.2
		c-0.4,0-0.7,0-1.1,0c-0.1-0.1-0.2-0.2-0.4-0.3c-0.3,0-0.6,0-0.9,0c0-0.1-0.1-0.2-0.1-0.3c-0.7-0.3-1.2,0.6-1.9,0.3
		c-0.1-0.2-0.2-0.4-0.2-0.6c-0.1,0-0.3,0-0.4,0c-0.1,0.1-0.3,0.2-0.4,0.4c-0.2,0-0.5,0-0.8,0c-0.1-0.2-0.1-0.4-0.2-0.6
		c-0.3-0.2-0.6-0.2-0.9-0.5c-0.1-0.1-0.3,0-0.5,0.1c0.2,0.2,0.3,0.3,0.4,0.4l-0.1,0.1c-0.4,0-0.8,0.1-1.2,0.1
		c-0.2-0.4-0.3-0.6-0.5-1C56.7,46.4,56.7,46.1,56.7,45.8z M61.1,45.2c0-0.5,0-0.9,0-1.4c-0.3-0.3-0.6-0.6-0.9-0.9c-0.3,0-0.7,0-1,0
		c-0.2,0.3-0.5,0.4-0.9,0.5c-0.1,0.2-0.1,0.5-0.3,0.6c-0.2,0.2-0.2,0.4-0.2,0.6c0.1,0.4,0.2,0.8,0.5,1c0.2,0.2,0.6,0.3,0.9,0.5
		c0.1,0.1,0.5,0.1,0.7,0C60.2,45.7,60.8,45.8,61.1,45.2z M65.4,45.4c-0.2-0.4-0.4-0.7-0.5-1c-0.6,0-1.3,0-2,0
		c-0.3,0.5-0.6,1-0.8,1.4c0.4,0.5,0.4,1.1,1,1.4c0.6,0,1.2,0,1.8,0c0.2-0.3,0.3-0.6,0.5-1C65.4,45.9,65.4,45.6,65.4,45.4z"/>
	<path class="st2" d="M64.3,56.9c0-0.1,0.1-0.2,0.1-0.3c0.1,0.1,0.3,0.2,0.4,0.3c0.1-0.1,0.2-0.2,0.3-0.3c0.3,0,0.6,0,0.8,0
		c0.2,0.4,0.1,0.8,0.1,1.2c-0.1,0.1-0.2,0.2-0.3,0.3l-0.1,0.1c0.1,0.1,0.2,0.2,0.3,0.3c0,0.3,0.1,0.5,0.1,0.8c0.4,0.3,0.8,0,1.4,0.3
		c-0.1-0.1,0.1,0.1,0.2,0.2c0.2-0.1,0.5-0.3,0.7-0.4c0.1,0.3,0.1,0.5,0.3,0.7c0,0.1,0.2,0.1,0.3,0.1c0,0.1-0.1,0.2-0.1,0.3
		c-0.3,0.2-0.7-0.1-1,0.3c0.4,0.1,0.7,0.1,1,0.2c0,0.4-0.5,0.5-0.6,0.9c0,0,0.1,0.2,0.3,0.3c-0.1,0.1-0.2,0.2-0.3,0.4
		c0.2,0.1,0.4,0.1,0.6,0.2c0,0.1,0.1,0.2,0.1,0.3c0,0.6,0,1.3,0,2l-0.1,0.1c-0.5,0,0-0.7-0.5-0.8c-0.1-0.3-0.1-0.6-0.2-1.2
		c-0.4,0.6-0.8,1-1,1.3c-0.6,0-1.1,0-1.6,0c-0.2-0.2-0.4-0.4-0.7-0.7c-0.3,0-0.5-0.1-0.9-0.1c0-0.2-0.1-0.3-0.1-0.6
		c-0.2-0.1-0.4-0.1-0.6-0.2c0-0.3,0-0.5-0.1-0.8c-0.3-0.3-0.3,0.2-0.6,0.2c-0.2,0-0.4,0-0.7,0c-0.1-0.2-0.3-0.3-0.5-0.6
		c0-0.6,0-1.4,0-2.3c-0.3,0-0.6,0-0.9,0c-0.1-0.1-0.2-0.2-0.2-0.3c0-0.8,0-1.7,0-2.4c0.5-0.2,0.9-0.1,1.3-0.1
		c0.1,0.1,0.3,0.2,0.4,0.3c0.1-0.1,0.2-0.2,0.3-0.3c0.5,0,1,0,1.5,0c0.1,0.1,0.1,0.2,0.1,0.3c-0.3,0-0.6,0-0.9,0
		c-0.1,0.1-0.3,0.3-0.3,0.3c-0.2,0.1-0.4,0.1-0.5,0.1c-0.2,0.3-0.3,0.6-0.5,1c0,0.1,0,0.3,0,0.6c0.4,0.4,0.8,0.8,1.3,1.2
		c0.1,0,0.5,0.1,0.6,0c0.4-0.4,1-0.3,1.3-0.8c0-0.5,0-1,0-1.3C64.8,57.4,64.3,57.4,64.3,56.9z M66.1,63.8c0.5-0.3,0.9-0.5,1.2-0.8
		c0.3-0.3,0.4-0.8,0.6-1.1c-0.1-0.3-0.4-0.5-0.4-0.8c0-0.2-0.3-0.4-0.5-0.6c-0.6,0-1,0-1.5,0c-0.1,0.1-0.1,0.1-0.1,0.1
		c-0.3,0.1-0.5,0.3-0.7,0.4c0,0.3,0,0.6,0,0.9s-0.1,0.7,0.1,1.1C65.2,63.3,65.6,63.5,66.1,63.8z"/>
	<path class="st2" d="M69,60.2c0-0.9,0-1.8,0-2.7c0.1-0.1,0.2-0.3,0.3-0.4c-0.2-0.2-0.5-0.4-0.3-0.8c0.1,0,0.3-0.1,0.4-0.1
		c0.1,0.1,0.3,0.3,0.4,0.4c0.2-0.2,0.3-0.3,0.5-0.5c0-0.2,0.1-0.3,0.1-0.5c0.3-0.1,0.5-0.2,0.7-0.3c-0.5-0.3-1-0.5-1.5-0.8
		c0.3-0.1,0.5-0.2,0.7-0.3c0.1-0.1,0.2-0.2,0.3-0.2c0.4,0,0.7,0,1.1,0c0.4,0.3,0,0.8,0.4,1.1c0.2,0.2,0.3,0.6,0.5,1
		c0,0.2,0,0.5,0,0.8c-0.2-0.1-0.4-0.3-0.6-0.4c-0.5,0-1,0-1.4,0c-0.3,0.3-0.6,0.6-0.9,0.9c0,0.5,0,1,0,1c0.2,1,1,0.8,1.3,1.3
		c0.1,0.1,0.5,0,0.7,0c0.6-0.5,1.1-1.1,1.3-1.9c-0.1-0.1-0.3-0.3-0.4-0.4c0-0.2,0-0.4,0-0.5c0.3-0.2,0.6-0.3,0.8-0.5
		c0.4,0.3,0.2,0.6,0.2,0.9c0.2,0.1,0.5,0.2,0.7,0.3c0,0.3,0,0.5,0,0.8c-0.2,0.1-0.4,0.1-0.6,0.2c-0.3,0.3,0,0.6-0.2,1
		c-0.3,0.3-0.5,0-0.8-0.3c-0.1,0.1-0.2,0.1-0.2,0.2c0,0.3-0.1,0.7,0.3,1c0.1,0.1,0,0.3,0,0.5c-0.2,0-0.4,0.1-0.6,0.1
		c-0.1-0.2-0.2-0.4-0.2-0.6c-0.4-0.3-0.6,0.1-0.8,0.3c-0.4-0.2-0.8-0.3-1.1-0.5c-0.1-0.2-0.1-0.4-0.3-0.7C69.6,59.9,69.3,60,69,60.2
		z"/>
	<path class="st0" d="M64.5,49c0.4,0,0.7,0,1,0c0.2,0.1,0.3,0.3,0.5,0.5c0.1,0.7,0.1,0.7-0.3,1.1c0.1,0.1,0.2,0.2,0.3,0.4
		c-0.1,0.1-0.2,0.2-0.3,0.4c0.1,0.1,0.1,0.2,0.2,0.3c0,0.1,0.1,0.2,0.1,0.3c0,0.5,0,1.1,0,1.6c-0.2,0.2-0.3,0.3-0.5,0.5
		c-0.9,0-1.9,0-2.9,0c-0.1-0.1-0.2-0.2-0.4-0.3c-0.6-0.1-1.3,0.1-1.9-0.1c0.1-0.3,0.3-0.6,0.4-1c0.2,0,0.5,0,0.8,0l0.1-0.1
		c0-0.8,0-1.7,0-2.6c-0.1-0.1-0.2-0.2-0.3-0.4c0.1-0.1,0.3-0.1,0.6-0.3c0.2,0.3,0.4,0.6,0.5,0.8c0.6,0.1,1,0.1,1.4,0
		c0.1-0.5-0.5-0.1-0.6-0.5c0-0.3,0-0.7,0-1.1C63.3,48.4,64.2,48.8,64.5,49z M65.7,52.1c-0.3-0.6-0.6-1.3-1.3-1.6c-0.4,0-0.8,0-0.9,0
		c-0.5,0.4-0.8,0.6-1,0.8c0,0.6,0,1,0,1.5c0.3,0.3,0.6,0.6,0.9,0.9c0.4,0,0.7,0,1.1,0c0.2-0.3,0.6-0.3,0.9-0.5
		C65.5,52.8,65.2,52.4,65.7,52.1z"/>
	<path class="st1" d="M397,63c0-0.2,0-0.4,0-0.5c0.1-0.1,0.3-0.3,0.4-0.4c0-0.6,0-1.2,0-1.8c0.4-0.4,0.6-0.1,0.9,0.2
		c0.3,0,0.7,0,1.1,0c0.2-0.1,0.3-0.5,0.9-0.2c0.2,0.1,0,0.5,0,0.8c-0.1,0.1-0.2,0.2-0.3,0.3c0.2,0.4,0.4,0.8,0.7,1.2
		c0,0.1,0,0.4,0,0.5c0.2,0.4,0.4,0.7,0.5,1c0.1-0.1,0.2-0.1,0.2-0.2c0.1-0.3-0.1-0.6,0.2-0.9c0.3,0.5,0.1,0.9,0.1,1.3
		c-0.2,0.2-0.3,0.4-0.5,0.5c-0.1,0-0.3,0-0.4,0c-0.1,0.2-0.1,0.4-0.2,0.6c-0.1,0-0.1,0.1-0.1,0.1c-1.1,0-2.1,0-3.3,0
		c-0.2-0.2-0.4-0.5-0.6-0.8c-0.3,0.2-0.6,0.3-0.8,0.5c-0.4,0-0.4,0-0.4-0.6c0.2-0.1,0.4-0.1,0.6-0.2c0-0.3,0.1-0.5,0.1-0.8
		c0.2-0.2,0.3-0.3,0.5-0.5C396.6,63,396.8,63,397,63c0,0.4,0,0.8,0,1.3c0.3,0.3,0.6,0.6,0.9,0.9c0.5,0,0.9,0,1.4,0
		c0.3-0.3,0.6-0.6,0.9-0.9c0-0.4,0.1-0.8-0.1-1.2c-0.3-0.3-0.5-0.5-0.8-0.8c-0.5,0-1,0-1.5,0C397.5,62.6,397.4,63,397,63z"/>
	<path class="st1" d="M177,50.8c-0.4,0-0.8,0-1.3,0c-0.1-0.1-0.2-0.2-0.2-0.3c0-1.8,0-3.6,0-5.4c0.3,0.1,0.4,0.1,0.6,0.2
		c0.4,0.1,0.5-0.3,0.8-0.4c0.3,0.1,0.6-0.1,0.8,0.2c-0.1,0.1-0.2,0.3-0.4,0.4c0.4,0.1,0.7,0.1,1.1,0.2c0,0.1,0.1,0.3,0,0.5
		c0,0.1-0.2,0.1-0.4,0.2c-0.1-0.1-0.3-0.2-0.5-0.4c-0.2,0-0.5-0.1-0.8,0.1c0.1,0.3,0.3,0.6,0.4,0.9c0.2,0,0.4,0,0.6,0.1
		c0.4-0.2,0.9-0.5,1.3-0.7c0.3,0.3,0,0.6,0,0.9c0.2,0.2,0.5,0.5,0.7,0.7c0,0-0.1,0.1-0.2,0.2c0.1,0.3,0.3,0.4,0.5,0.6
		c0.1-0.1,0.3-0.2,0.4-0.3c0.2,0.4,0.3,0.7,0.5,1.1c-0.2,0.4-0.6,0.7-1,1.1c-0.2-0.1-0.5-0.3-0.7-0.4c-1.1,0.7-1.1,0.7-2.2,0.6
		C177.1,51,177,50.9,177,50.8c0.3,0,0.6,0,0.8,0c0.4-0.2,0.7-0.4,0.9-0.5c0.1-0.3,0.3-0.5,0.5-0.9c0-0.2,0-0.6,0-0.9
		c-0.3-0.3-0.6-0.6-1-1c-0.4,0.1-1-0.1-1.4,0.2c-0.3,0.2-0.7,0.5-0.9,0.6c0,0.5,0,0.8,0,1.1c0.3,0.3,0.4,0.6,0.5,0.9
		C176.5,50.6,177.1,50.3,177,50.8z"/>
	<path class="st1" d="M393.4,47.2c0-0.4-0.4-0.4-0.5-0.7c-0.2,0.1-0.4,0.3-0.5,0.4c-0.5-0.2-0.7-0.6-1.1-0.9c0-1.1,0-2.1,0-3.3
		c0.1-0.2,0.3-0.4,0.5-0.5c0.4,0,0.6,0,0.6,0.4c-0.1,0.5-0.5,0.6-0.7,0.9c0,0.5,0,1,0,1.4c0.3,0.3,0.6,0.6,0.9,0.9
		c0.4,0,0.7,0,1.1,0c0.3-0.3,0.6-0.6,0.9-0.9c-0.1-0.5,0.1-1-0.1-1.5c-0.1-0.1-0.2-0.3-0.3-0.3c-0.2-0.1-0.4-0.1-0.6-0.3
		c-0.1-0.1-0.1-0.2-0.1-0.3c0-0.1,0.1-0.2,0.1-0.3c0.9,0,1.7,0,2.6,0c0.6,0.6-0.5,0.8-0.2,1.3c0.2,0.1,0.4,0.1,0.6,0.2
		c0.1,0.2,0.1,0.5,0.3,0.7c0.2,0.2,0.1,0.4-0.1,0.6c-0.3-0.2-0.5-0.5-0.8-0.7c-0.1,0.2-0.1,0.3-0.2,0.6c-0.2,0.1-0.5,0.3-0.8,0.5
		c-0.2,0.2-0.4,0.4-0.6,0.6c0.2,0.4-0.2,0.5-0.3,0.8c0.2,0.2,0.5,0.4,0.3,0.8c-0.2,0.2-0.4,0.2-0.6,0
		C393.7,47.4,393.5,47.3,393.4,47.2z"/>
	<path class="st4" d="M24.3,74.6c-0.2-0.2-0.4-0.4-0.6-0.6c0.1,0,0.3-0.1,0.5-0.1c0.1-0.3,0.3-0.6,0.5-0.8c0.2-0.2,0.5-0.3,0.7-0.4
		c0-0.2,0-0.5,0-0.6c0.2-0.3,0.4-0.5,0.5-0.6c0.6-0.1,0.7,0.3,0.9,0.6c-0.1,0.1-0.2,0.2-0.3,0.4c0.1,0.1,0.1,0.1,0.2,0.1
		c0.5,0,1,0,1.6,0c0.1-0.2,0.3-0.5,0.6-0.9c0.1,0.4,0.1,0.5,0.2,0.7c-0.3,0.3-0.5,0.5-0.8,0.8c0.1,0.2,0.2,0.4,0.4,0.7
		c0,0.5,0,1.1,0,1.7c-0.2,0.2-0.4,0.4-0.7,0.7c0.3,0.1,0.5,0.2,0.8,0.4c-0.5,0.3-1.1,0.1-1.6,0.2c-0.1-0.1-0.3-0.2-0.4-0.3
		c-0.3,0.1-0.6,0.3-0.9,0.4c-0.1,0.2-0.1,0.4-0.2,0.7c-0.4-0.6-0.8-1.2-1.3-1.8C24.3,75.5,24.3,75.1,24.3,74.6z M26.1,72.8
		c-0.6,0.5-1,0.9-1.4,1.2c0,0.3,0,0.5,0,0.6c0.2,0.4,0.4,0.7,0.5,0.9c0.3,0.2,0.6,0.3,0.9,0.5c0.2,0,0.6,0,0.9,0
		c0.3-0.3,0.6-0.6,0.9-0.9c0-0.5,0-1,0-1.5C27.2,73.1,26.7,72.8,26.1,72.8z"/>
	<path class="st2" d="M591.8,44c0.1,0.6,0.8,0.8,1,1.3c-0.1,0.1-0.2,0.2-0.3,0.4c0.2,0.3,0.5,0.1,0.7,0.2c0,0.2,0,0.4,0,0.6
		c-0.2,0.2-0.5,0.4-0.7,0.6c0,0.2,0,0.3-0.1,0.5c-0.1,0-0.3,0.1-0.5,0.1c-0.1,0.1-0.2,0.2-0.3,0.3c-0.7,0-1.4,0-2,0
		c-0.4-0.2-0.7-0.4-1-0.5c0-0.3-0.1-0.6-0.1-0.9c-0.2,0-0.3,0-0.5-0.1c-0.1,0.3-0.2,0.5-0.3,0.7c-0.1-0.1-0.2-0.1-0.2-0.2
		c0-0.5,0-1,0-1.5c0.3-0.2,0.6-0.4,1-0.7c0-0.1,0-0.4,0-0.7c0.2-0.2,0.3-0.3,0.5-0.5c0.7,0,1.4,0,2.1,0
		C591.4,43.7,591.4,44,591.8,44z M589.8,47.2c0.5,0,1,0,1.5,0c0.2-0.4,0.7-0.6,0.9-1c0-0.3,0-0.6,0-0.9c-0.3-0.4-0.6-0.7-0.8-1
		c-0.6,0-1.1,0-1.4,0c-0.4,0.3-0.7,0.6-1,0.8c0,0.5,0,0.8,0,1.1C589.2,46.6,589.5,46.9,589.8,47.2z"/>
	<path class="st4" d="M29.7,68.8c0-0.4,0.4-0.5,0.5-0.7c0.6,0,1.2,0,1.9,0c0.2,0.3,0.5,0.6,0.7,0.9c0.2,0.2-0.1,0.6,0.3,0.9
		c0.4-0.4,0-0.8,0.2-1.2c-0.2-0.2-0.3-0.3-0.4-0.4c0.2-0.3,0.5-0.1,0.9-0.2c0.1,0.2,0.3,0.4,0.5,0.6c-0.1,0.1-0.2,0.2-0.3,0.3
		c-0.1,0.4-0.2,0.8,0.2,1.1v0.1c-0.3,0.3-0.6,0.6-0.8,0.8c-0.1-0.1-0.2-0.2-0.3-0.3C33,71,33,71,33,72.2c-0.4,0.4-0.6,0.1-0.9-0.2
		c-0.1,0.1-0.3,0.2-0.4,0.3c-0.2,0-0.5,0-0.7,0c-0.1-0.1-0.3-0.3-0.4-0.4c-0.4,0-0.7,0-1.1,0c-0.1-0.2-0.1-0.4-0.2-0.6
		c-0.6-0.3-1.4,0.1-2.1-0.2c0.4-0.5,0.9-0.1,1.3-0.3c0.2-0.3,0.3-0.7,0.5-1.1c-0.1-0.2-0.2-0.3-0.3-0.5c0.2-0.2,0.3-0.3,0.5-0.5
		C29.4,68.8,29.6,68.8,29.7,68.8c0,0.2,0,0.4,0,0.5c-0.1,0.1-0.3,0.3-0.4,0.4c0,0.3,0,0.5,0,0.6c0.5,0.5,0.9,0.9,1.2,1.4
		c0.4,0,0.8,0,1.1,0c0.3-0.3,0.6-0.6,0.9-0.9c0-0.5,0-1,0-1.4c-0.3-0.3-0.6-0.6-0.9-0.9c-0.3,0-0.7,0-1.1,0
		c-0.1,0.1-0.3,0.2-0.4,0.4C30.1,68.8,29.9,68.8,29.7,68.8z"/>
	<path class="st5" d="M233.5,47.4c-0.5,0.6-1.1,0.9-2,0.9c-0.4-0.4-0.8-0.8-1.3-1.4c0,0-0.1-0.2,0-0.4c0.2-0.5,0.3-1.1,0.9-1.5
		c0.6,0,1.2,0,1.9,0c0.2,0.3,0.3,0.6,0.5,1C233.5,46.4,233.5,46.9,233.5,47.4z"/>
	<path class="st6" d="M181.3,46.3c0-0.4,0-0.8,0-1.2c0-0.1,0-0.1,0-0.2c0.3-0.3,0.6-0.6,0.9-0.9c0.4,0,0.7,0,1.1,0
		c0.1,0.1,0.3,0.2,0.4,0.4c0.1,0,0.2,0,0.3,0c0.2,0.5,0.7,1,0.5,1.5c-0.1,0.3-0.3,0.6-0.4,0.9c-0.6,0.2-1.1,0.7-2,0.3
		c-0.1-0.1-0.3-0.5-0.5-0.8C181.5,46.3,181.4,46.3,181.3,46.3z"/>
	<path class="st7" d="M88.2,52.2c0.3,0.3,0.6,0.6,0.9,0.9c0,0.5,0,0.9,0,1.5c-0.3,0.2-0.6,0.5-1,0.9c-0.2,0-0.5,0.1-0.9,0
		s-0.7-0.4-1-0.6c0.1-0.5-0.6-0.7-0.4-1.3c0.2-0.3,0.4-0.7,0.5-1c0.1,0,0.2,0,0.3,0c0.1-0.1,0.3-0.3,0.4-0.4
		C87.5,52.2,87.9,52.2,88.2,52.2z"/>
	<path class="st7" d="M11.2,76.7c0.4,0,0.9,0,1.5,0c0.1,0.2,0.4,0.6,0.6,0.9c0.1-0.1,0.1-0.1,0.2-0.1c0,0.5,0,1,0,1.6
		c-0.2,0.5-0.9,0.5-1.2,0.8c-0.1,0.1-0.6,0.1-0.7,0c-0.3-0.3-0.6-0.3-0.9-0.5c0.1-0.4-0.4-0.6-0.4-0.9c0-0.2-0.1-0.4,0-0.5
		C10.7,77.7,10.7,77.1,11.2,76.7z"/>
	<path class="st8" d="M21.3,80.3c-0.1-0.1-0.3-0.2-0.4-0.4c-0.1,0-0.2,0-0.3,0c-0.1-0.3-0.3-0.6-0.5-1c0-0.2,0-0.6,0-1
		c0.3-0.2,0.6-0.5,1-0.8c0.3,0,0.8,0,1.4,0c0.2,0.3,0.5,0.6,0.8,1.2c0,0.1,0,0.5,0,0.6c-0.2,0.4-0.3,0.6-0.5,1
		c-0.1,0-0.3,0.1-0.5,0.1c-0.1,0.1-0.2,0.2-0.3,0.3C21.8,80.3,21.5,80.3,21.3,80.3z"/>
	<path class="st9" d="M377.9,24c0.2-0.2,0.3-0.3,0.5-0.5c0.6,0,1.2,0,1.8,0c0.6,0.2,0.5,0.9,0.9,1.3c-0.2,0.8-0.6,1.4-1.3,1.9
		c-0.8,0-1.4-0.3-1.9-0.9C377.9,25.2,377.9,24.6,377.9,24z"/>
	<path class="st5" d="M394.4,26.2c-0.4,0.2-0.6,0.3-0.9,0.5c-0.3,0-0.6,0-1,0c-0.3-0.3-0.6-0.6-0.9-0.9c0-0.5,0-0.9,0-1.5
		c0.3-0.2,0.6-0.5,1-0.8c0.2,0,0.6,0,0.9,0c0.3,0.1,0.6,0.3,0.9,0.5c0.1,0.2,0.1,0.5,0.3,0.7c0.2,0.3,0.2,0.6-0.1,1
		C394.5,25.8,394.4,26.1,394.4,26.2z"/>
	<path class="st5" d="M628.1,47.4c0,0.4,0,0.9,0,1.5c-0.2,0.2-0.6,0.4-1,0.8c-0.1,0-0.5,0-0.9,0c-0.3-0.1-0.6-0.3-1-0.5
		c0-0.1,0-0.2,0-0.3c-0.1-0.1-0.2-0.3-0.4-0.4c0-0.2,0-0.5,0-0.7c0.4-0.4,0.8-0.8,1.3-1.3c0.4,0,0.7,0,1.1,0
		C627.5,46.8,627.8,47.1,628.1,47.4z"/>
	<path class="st5" d="M243,40.7c0.3,0,0.5,0,0.8,0c0.3,0.4,1,0.4,1.2,0.9c0,0.5,0,0.9,0,1.5c-0.3,0.2-0.6,0.5-1,0.8
		c-0.4,0-0.9,0-1.4,0c-0.5-0.5-0.8-1.3-0.9-1.8c0.1-0.4,0.4-0.5,0.6-0.8C242.6,41.1,242.8,40.9,243,40.7z"/>
	<path class="st5" d="M210.7,29.9c0.5,0,1,0,1.5,0c0.3,0.3,0.6,0.6,0.9,0.9c0,0.5,0,0.9,0,1.4c-0.2,0.6-0.9,0.5-1.2,0.9
		c-0.1,0.1-0.5,0.1-0.6,0.1s-0.1-0.1-0.2-0.1c-0.4-0.4-0.8-0.8-1.1-1.1c-0.1-0.4-0.2-0.8,0.2-1.1C210,30.5,210.3,30.3,210.7,29.9z"
		/>
	<path class="st5" d="M511.6,44.7c-0.2,0-0.5,0-0.7,0c-0.4-0.4-0.8-0.8-1.3-1.3c0-0.2-0.1-0.5,0-0.6c0.4-0.4,0.3-1,0.9-1.3
		c0.4,0,0.9,0,1.5,0c0.2,0.2,0.4,0.6,0.8,1.1c0,0.3,0,0.8,0,1.3C512.6,44.3,512,44.3,511.6,44.7z"/>
	<path class="st8" d="M204.9,32.4c0.5,0,1,0,1.5,0c0.3,0.3,0.6,0.6,0.9,0.9c0,0.3,0,0.6,0,1c-0.1,0.2-0.5,0.3-0.3,0.8
		c-0.4,0.2-0.8,0.3-1.2,0.5c-0.5,0.2-0.7-0.6-1.2-0.3c-0.2-0.4-0.2-0.7-0.5-0.9c0-0.3-0.1-0.6,0-0.7
		C204.5,33.4,204.3,32.6,204.9,32.4z"/>
	<path class="st8" d="M238.3,47.2c-0.6-0.1-1.2-0.3-1.8-0.9c0-0.4,0-0.9,0-1.5c0.3-0.2,0.6-0.5,1.1-0.9c0.3,0,0.8,0,1.2,0
		c0.5,0.5,0.9,1.2,0.9,1.9C239.2,46.3,238.8,46.7,238.3,47.2z"/>
	<path class="st5" d="M126.2,54.9c0.4-0.4,0.8-0.8,1.3-1.3c0.2,0,0.6-0.1,0.7,0c0.4,0.4,1,0.3,1.3,0.9c0,0.4,0,0.9,0,1.5
		c-0.2,0.2-0.6,0.4-1.2,0.8c-0.2,0-0.7,0-1.2,0c-0.2-0.2-0.3-0.3-0.5-0.5c0-0.1,0-0.2,0-0.3c-0.1-0.1-0.2-0.3-0.4-0.4
		C126.2,55.4,126.2,55.2,126.2,54.9z"/>
	<path class="st8" d="M193.4,41.1c-0.6-0.2-0.5-0.9-0.9-1.2c-0.1-0.1-0.1-0.5,0-0.7c0.2-0.3,0.3-0.7,0.5-0.9c0.3-0.3,0.7-0.3,1-0.5
		c0.2-0.1,0.4,0,0.6,0.2c0.1,0.1,0.4,0.2,0.6,0.3c0.1,0.3,0.2,0.6,0.5,0.9c0,0.4,0,0.7,0,1c-0.3,0.3-0.6,0.6-0.9,0.9
		C194.3,41.1,193.9,41.1,193.4,41.1z"/>
	<path class="st6" d="M656.6,57.3c-0.5,0-0.3,0.4-0.5,0.6c-0.2,0.1-0.5,0.1-0.7,0.3c-0.2,0.1-0.6,0.1-0.8,0.1
		c-0.4-0.2-0.8-0.5-1.2-0.7c-0.1-0.5,0-1,0-1.5c0.3-0.3,0.6-0.6,0.9-0.9c0.3,0,0.7,0,0.9,0c0.4,0.2,0.6,0.3,0.9,0.5
		c0.1,0.3,0.3,0.6,0.5,1C656.6,56.8,656.6,57.1,656.6,57.3z"/>
	<path class="st5" d="M628.8,52.8c0-0.2,0-0.5,0-0.7c0.4-0.3,0.4-1,0.9-1.2c0.5,0,0.9,0,1.5,0c0.2,0.3,0.5,0.6,0.8,1
		c0,0.4,0,0.9,0,1.4c-0.3,0.5-0.9,0.5-1.3,0.9c-0.1,0.1-0.5,0-0.6,0C629.7,53.6,629.3,53.2,628.8,52.8z"/>
	<path class="st5" d="M385.3,19.8c0.3,0.3,0.6,0.6,0.9,0.9c0,0.5,0,0.9,0,1.4c-0.2,0.6-0.8,0.5-1.2,0.9c-0.1,0.1-0.4,0.1-0.7,0.1
		c-0.4-0.5-0.8-1-1.3-1.6c0,0.1-0.1-0.2,0-0.3c0.2-0.5,0.5-0.9,0.7-1.2c0.2-0.1,0.2-0.2,0.2-0.2C384.3,19.8,384.8,19.8,385.3,19.8z"
		/>
	<path class="st5" d="M616.2,52.2c-0.1,0-0.3,0.1-0.3,0.1c0,0.4-0.3,0.6-0.6,0.9c-0.4,0.1-1,0-1.4,0c-0.3-0.3-0.6-0.6-0.9-0.9
		c0-0.5,0-0.9,0-1.4c0.5-0.6,1.2-0.8,1.8-1c0.6,0.3,0.9,1,1.5,1.2C616.2,51.5,616.2,51.9,616.2,52.2z"/>
	<path class="st5" d="M581.7,37.8c-0.3,0-0.3,0.3-0.4,0.5c-0.3,0.4-0.6,0.7-0.9,1c-0.3,0-0.5,0.1-0.6,0c-0.5-0.2-0.9-0.5-1.4-0.8
		c-0.1-0.5,0-1.1,0-1.4c0.2-0.4,0.4-0.7,0.5-1c0.6,0,1.2,0,1.8,0c0.3,0.2,0.6,0.5,0.6,0.9c0,0.1,0.2,0.1,0.3,0.1
		C581.7,37.4,581.7,37.6,581.7,37.8z"/>
	<path class="st5" d="M186.7,42.7c0-0.2,0-0.5,0-0.7c0.4-0.4,0.8-0.8,1.3-1.3c0.2,0,0.5-0.1,0.6,0c0.4,0.4,1,0.3,1.3,0.9
		c0,0.4,0,0.9,0,1.5c-0.2,0.2-0.6,0.4-1.1,0.8c-0.3,0-0.8,0-1.3,0C187.1,43.7,187.1,43,186.7,42.7z"/>
	<path class="st5" d="M120.1,49.1c0,0.3,0,0.7,0,1.2c-0.3,0.3-0.6,0.6-0.9,0.9c-0.4,0-0.7,0-1,0c-0.3-0.2-0.5-0.3-0.8-0.5
		c-0.1-0.4-0.6-0.8-0.5-1.4c0.4-0.4,0.9-0.8,1.4-1.3c0.2,0,0.5,0,1,0C119.4,48.2,119.7,48.5,120.1,49.1z"/>
	<path class="st5" d="M14.6,82.3c0-0.2,0-0.5,0-0.7c0.4-0.4,0.8-0.8,1.3-1.2c0.2,0,0.4,0,0.7,0c0.2,0.1,0.4,0.5,0.7,0.3
		c0.1,0.3,0.3,0.6,0.5,1c0,0.2,0,0.5,0,1c-0.2,0.2-0.6,0.4-1.1,0.8c-0.3,0-0.8,0-1.3,0C15,83.3,15,82.6,14.6,82.3z"/>
	<path class="st10" d="M231,41.6c-0.2,0.2-0.3,0.3-0.5,0.5c-0.6,0-1.2,0-1.8,0c-0.7-0.4-0.7-1.2-1.1-1.9c0.5-0.3,0.8-0.5,1.4-0.9
		c0.2,0,0.9,0,1.5,0c0.2,0.2,0.3,0.3,0.5,0.5C231,40.4,231,41,231,41.6z"/>
	<path class="st5" d="M200.2,35c0.5,0.4,0.9,0.8,1.3,1.2c0,0.4,0,0.7,0,1.1c-0.3,0.3-0.6,0.6-0.9,0.9c-0.5,0-1,0-1.4,0
		c-0.3-0.3-0.6-0.6-0.9-0.9c0-0.4,0-0.7,0-1.1c0.4-0.4,0.8-0.8,1.3-1.2C199.7,35,200,35,200.2,35z"/>
	<path class="st8" d="M404.9,59.8c0.5,0.1,0.7,0.6,1.1,0.9c0,0.5,0,0.9,0,1.5c-0.3,0.2-0.6,0.5-1,0.8c-0.2,0-0.5,0-1,0
		c-0.3-0.4-0.7-0.8-1.2-1.4c0,0,0-0.2,0-0.5c0.2-0.5,0.9-0.7,1.1-1.3C404.2,59.8,404.5,59.8,404.9,59.8z"/>
	<path class="st5" d="M222.4,30.5c0-0.5,0-1,0-1.4c0.3-0.3,0.6-0.6,0.9-0.9c0.3,0,0.7,0,1.1,0c0.4,0.4,0.8,0.8,1.2,1.3
		c0,0.2,0,0.4,0,0.6c-0.4,0.5-0.8,0.9-1.2,1.3c-0.4,0-0.7,0-1.1,0C223,31.1,222.6,30.8,222.4,30.5z"/>
	<path class="st10" d="M80.5,51.9c0-0.2,0-0.5,0-0.9c0.3-0.2,0.6-0.4,1.1-0.8c0.2,0,0.7,0,1.3,0c0.2,0.3,0.5,0.6,0.9,0.9
		c0,0.3,0,0.6,0,0.8c-0.5,0.5-0.9,0.9-1.5,1.5c0.1,0-0.1,0-0.3,0C81.5,52.9,81.1,52.4,80.5,51.9z"/>
	<path class="st9" d="M74.7,54.9c0-0.3,0-0.6,0-0.8c0.5-0.5,0.9-0.9,1.5-1.5c-0.1,0,0.2,0,0.3,0c0.5,0.5,0.9,0.9,1.4,1.4
		c0,0.1,0,0.5,0,1c-0.2,0.2-0.6,0.4-1.1,0.8c-0.2,0-0.7,0-1.3,0C75.4,55.6,75.1,55.2,74.7,54.9z"/>
	<path class="st5" d="M374.8,30.6c-0.7-0.1-1.2-0.3-1.9-0.9c0-0.4,0-0.9,0-1.5c0.3-0.2,0.6-0.5,1.1-0.9c0.3,0,0.8,0,1.2,0
		c0.5,0.3,0.6,0.9,0.9,1.4c-0.1,0.3-0.3,0.6-0.6,1.1C375.4,30,375.2,30.3,374.8,30.6z"/>
	<path class="st5" d="M389.1,19.9c0-0.3,0-0.6,0-0.8c0.4-0.4,0.9-0.8,1.4-1.3c0,0,0.3,0,0.6,0c0.3,0.4,0.7,0.8,1.2,1.4
		c0,0.2,0,0.5,0,1c-0.3,0.2-0.6,0.5-1,0.8c-0.3,0-0.8,0-1.4,0C389.7,20.7,389.4,20.3,389.1,19.9z"/>
	<path class="st8" d="M64.3,56.9c0,0.4,0.5,0.5,0.7,1.1c0,0.2,0,0.8,0,1.3c-0.2,0.6-0.9,0.5-1.3,0.8c-0.1,0.1-0.5,0-0.6,0
		c-0.5-0.5-0.9-0.9-1.3-1.2c0-0.3,0-0.5,0-0.6c0.2-0.4,0.3-0.6,0.5-1c0.1,0,0.2-0.1,0.5-0.1c0.1-0.1,0.2-0.2,0.3-0.3
		c0.3,0,0.6,0,0.9,0C64.1,56.9,64.2,56.9,64.3,56.9z"/>
	<path class="st5" d="M579.9,42.2c0,0.1,0.1,0.3,0.1,0.3c0.4,0,0.6,0.3,0.9,0.6c0.1,0.5,0,1,0.1,1.5c-0.3,0.3-0.6,0.6-0.9,0.9
		c-0.4,0-0.7,0-1,0c-0.3-0.2-0.5-0.3-0.8-0.5c-0.1-0.4-0.7-0.8-0.4-1.6c0.2-0.3,0.8-0.6,1-1.2C579.2,42.2,579.5,42.2,579.9,42.2z"/>
	<path class="st8" d="M255.8,36.2c-0.3,0.3-0.6,0.6-0.9,0.9c-0.3,0-0.7,0-1.1,0c-0.2-0.1-0.3-0.5-0.8-0.3c-0.2-0.4-0.4-0.8-0.5-1.2
		c0-0.1,0-0.2,0-0.3c0.5-0.5,1-1,1.5-1.5c0.6,0,1.3,0.3,1.8,0.9C255.8,35.3,255.8,35.7,255.8,36.2z"/>
	<path class="st5" d="M440.5,33.2c-0.3,0-0.3,0.3-0.4,0.5c-0.3,0.4-0.6,0.7-0.9,1c-0.3,0-0.5,0.1-0.6,0c-0.5-0.2-0.9-0.5-1.2-0.7
		c-0.1-0.2-0.2-0.2-0.2-0.3c0-0.5,0-1,0-1.4c0.3-0.3,0.6-0.6,0.9-0.9c0.5,0,0.9,0,1.4,0c0.3,0.2,0.6,0.5,0.6,1
		c0,0.1,0.2,0.1,0.3,0.1C440.5,32.7,440.5,32.9,440.5,33.2z"/>
	<path class="st10" d="M226.3,33.7c0.2-0.2,0.4-0.4,0.7-0.5c0.2-0.1,0.5-0.3,0.8-0.4c0.1,0.1,0.3,0.3,0.5,0.4c0.1,0,0.2,0,0.3,0
		c0.2,0.2,0.3,0.3,0.5,0.5c0,0.6,0,1.2,0,1.8c-0.1,0.1-0.3,0.3-0.5,0.5c-0.6,0-1.2,0-1.9,0c-0.2-0.2-0.3-0.3-0.5-0.5
		C226.3,34.9,226.3,34.3,226.3,33.7z"/>
	<path class="st11" d="M37.3,65.1c0,0.4,0,0.7,0,1c-0.4,0.4-0.8,0.8-1.4,1.3c-0.1,0-0.4,0-0.6,0c-0.4-0.4-0.8-0.8-1.2-1.3
		c0-0.2-0.1-0.5,0-0.6c0.4-0.4,0.3-1,0.9-1.3c0.5,0,0.9,0,1.5,0C36.7,64.4,37,64.7,37.3,65.1z"/>
	<path class="st10" d="M38.7,61.8c0-0.5,0-1,0-1.4c0.3-0.3,0.6-0.6,0.9-0.9c0.3,0,0.7,0,1,0c0.6,0.4,1,1,1.2,1.6
		c-0.3,0.6-0.6,1.2-1.2,1.6c-0.3,0-0.7,0-1,0C39.3,62.4,39,62.1,38.7,61.8z"/>
	<path class="st5" d="M420.4,48.6c-0.3,0-0.3,0.3-0.4,0.5c-0.3,0.4-0.6,0.7-0.9,1c-0.4,0-0.7,0-1,0c-0.5-0.2-0.6-0.6-1-0.9
		c0-0.5,0-1,0-1.5c0.3-0.3,0.6-0.6,0.9-0.9c0.3,0,0.7,0,1,0c0.5,0.4,0.9,0.8,1.1,1.4c0,0,0.1,0,0.2,0
		C420.4,48.4,420.4,48.5,420.4,48.6z"/>
	<path class="st10" d="M120.8,53.9c0.3-0.3,0.6-0.6,0.9-0.9c0.2,0,0.5-0.1,0.6,0c0.4,0.4,1,0.3,1.3,0.9c0,0.5,0,1.1,0,1.8
		c-0.3,0.2-0.6,0.4-1,0.6c-0.3,0-0.6,0-0.9,0c-0.3-0.2-0.7-0.4-1-0.5C120.8,55.1,120.8,54.5,120.8,53.9z"/>
	<path class="st12" d="M450.6,30.6c0,0.4,0.5,0.5,0.6,0.8c0.2,0.3,0.3,0.6,0.4,0.9c-0.1,0.1-0.1,0.1-0.3,0.3c0,0.3-0.1,0.5-0.1,0.8
		c-0.3,0.2-0.7,0.2-0.9,0.5c-0.4,0-0.7,0-1.1,0c-0.3-0.3-0.6-0.6-0.9-0.9c0-0.5,0-0.9,0-1.4c0.2-0.3,0.5-0.6,1-0.6
		c0.1,0,0.1-0.2,0.1-0.3C449.9,30.6,450.3,30.6,450.6,30.6z"/>
	<path class="st10" d="M215.9,30c-0.1-0.7,0.5-1.2,0.6-1.6c0.4-0.4,0.7-0.2,1-0.3c0.2,0,0.5,0,0.7,0c0.3,0.3,0.6,0.6,0.9,0.9
		c0,0.3,0,0.7,0,1.1c-0.3,0.2-0.3,0.6-0.5,0.9c-0.6,0-1.2,0-1.9,0C216.5,30.7,216.2,30.4,215.9,30z"/>
	<path class="st12" d="M249.5,40.7c-0.4,0-0.7,0-1.1,0c-0.2-0.3-0.4-0.6-0.8-1.1c0-0.2,0-0.6,0-1.3c0.3-0.2,0.6-0.5,1-0.9
		c0.3,0,0.6,0,1,0c0.3,0.3,0.6,0.6,0.9,0.9c0,0.5,0,0.9,0,1.5C250.2,40.1,249.8,40.4,249.5,40.7z"/>
	<path class="st10" d="M392.5,39.3c-0.5-0.5-0.9-1.2-0.9-2c0.3-0.3,0.6-0.5,1-0.8c0.6,0,1.2,0,1.9,0c0,0.2,0,0.4,0.1,0.5
		s0.2,0.3,0.3,0.4c0,0.4,0,0.7,0,1c-0.3,0.3-0.6,0.6-0.9,0.9C393.4,39.3,392.9,39.3,392.5,39.3z"/>
	<path class="st13" d="M516.7,42.2c-0.3-0.3-0.6-0.6-0.9-0.9c0-0.3,0-0.6,0-1.1c0.3-0.2,0.6-0.5,1.1-0.8c0.2,0,0.6,0,1.3,0
		c0.2,0.3,0.4,0.6,0.8,1.2c0,0.1,0,0.4,0,0.8c-0.3,0.3-0.6,0.6-0.9,0.9C517.6,42.2,517.2,42.2,516.7,42.2z"/>
	<path class="st10" d="M521.9,41.6c0-0.2,0-0.5,0-0.7c0.3-0.3,0.6-0.6,0.9-0.9c0.6,0,1.2,0,1.8,0c0.1,0.3,0.3,0.6,0.5,1
		c0,0.2,0,0.5,0,1c-0.2,0.1-0.6,0.4-1.2,0.8c-0.1,0-0.6,0-1.1,0C522.2,42.6,522.4,41.9,521.9,41.6z"/>
	<path class="st13" d="M645,62.3c0,0.4,0.5,0.5,0.6,0.8c0.1,0.2,0.2,0.5,0.3,0.8c-0.2,0.6-0.6,1.2-1.2,1.6c-0.4,0-0.7,0-1.1,0
		c-0.3-0.3-0.6-0.6-0.9-0.9c0-0.5,0-0.9,0-1.4c0.2-0.3,0.5-0.6,1-0.6c0.1,0,0.1-0.2,0.1-0.3C644.3,62.3,644.7,62.3,645,62.3z"/>
	<path class="st12" d="M530.2,42.2c0.1,0.4,0.4,0.5,0.7,0.9c0.1,0.2,0,0.5,0,0.8c0,0.2,0,0.5,0,0.7c-0.3,0.3-0.6,0.6-0.9,0.9
		c-0.4,0-0.7,0-1.1,0c-0.3-0.3-0.6-0.6-0.9-0.9c0-0.5,0-0.9,0-1.4c0.2-0.3,0.6-0.5,0.7-0.9C529.2,42.2,529.7,42.2,530.2,42.2z"/>
	<path class="st13" d="M393.4,42.5c0,0.1,0.1,0.3,0.1,0.3c0.2,0.1,0.4,0.2,0.6,0.3c0.1,0.1,0.2,0.2,0.3,0.3c0.1,0.5,0,1,0.1,1.5
		c-0.3,0.3-0.6,0.6-0.9,0.9c-0.4,0-0.7,0-1.1,0c-0.3-0.3-0.6-0.6-0.9-0.9c0-0.5,0-0.9,0-1.4c0.2-0.3,0.6-0.5,0.7-0.9
		C392.7,42.5,393,42.5,393.4,42.5z"/>
	<path class="st12" d="M392,32.3c0-0.5,0-0.9,0-1.5c0.3-0.2,0.6-0.5,1-0.8c0.4,0,0.9,0,1.4,0c0.1,0.3,0.2,0.5,0.3,0.8
		c0.2,0.5,0.1,1,0.2,1.5c-0.3,0.6-0.9,0.5-1.3,0.9c-0.1,0.1-0.3,0.1-0.3,0c-0.2-0.2-0.4-0.3-0.7-0.4C392.3,32.7,392.1,32.4,392,32.3
		z"/>
	<path class="st8" d="M451.3,39.4c-0.2,0.6-0.9,0.5-1.2,0.9c-0.1,0.1-0.4,0.1-0.5,0c-0.4-0.1-0.8-0.2-1-0.5c-0.3-0.3-0.3-0.7-0.5-1
		c0-0.1-0.1-0.3,0-0.3c0.2-0.4,0.5-0.9,0.7-1.2c0.3-0.2,0.6-0.1,0.9-0.1c0.2,0,0.5,0,0.7,0c0.3,0.3,0.6,0.6,0.9,0.9
		C451.3,38.5,451.3,39,451.3,39.4z"/>
	<path class="st7" d="M504.8,46.1c-0.1-0.1-0.3-0.2-0.4-0.4c-0.1,0-0.2,0-0.3,0c-0.2-0.5-0.7-1-0.5-1.5c0.1-0.3,0.3-0.6,0.4-0.9
		c0.6-0.1,1.1-0.8,1.9-0.5c0.2,0.3,0.5,0.7,0.7,1c0.3,0.4,0.1,0.9,0.2,1.4c-0.3,0.3-0.6,0.6-0.9,0.9
		C505.5,46.1,505.2,46.1,504.8,46.1z"/>
	<path class="st5" d="M446.3,44.1c0.3-0.3,0.6-0.6,0.9-0.9c0.4,0,0.9,0,1.4,0c0.1,0.1,0.3,0.2,0.3,0.3c0.2,0.5,0.7,0.9,0.6,1.4
		c-0.5,0.5-1,1-1.5,1.5c-0.6,0-1.2-0.3-1.7-0.9C446.3,45.1,446.3,44.6,446.3,44.1z"/>
	<path class="st7" d="M477.1,32.4c0.3,0,0.7,0,1.1,0c0.3,0.3,0.6,0.6,0.9,0.9c0,0.4,0,0.9,0,1.4c-0.2,0.6-0.8,0.5-1.2,0.9
		c-0.1,0.1-0.3,0.1-0.5,0.1c-0.4-0.1-0.8-0.2-1-0.5c-0.3-0.3-0.4-0.7-0.5-1c-0.1-0.2-0.1-0.4,0.1-0.6c0.2-0.2,0.3-0.5,0.4-0.7
		c0.1,0,0.2,0,0.4,0C476.8,32.7,477,32.6,477.1,32.4z"/>
	<path class="st11" d="M454.4,47.6c-0.3-0.3-0.6-0.6-0.9-0.9c0-0.5,0-0.9,0-1.4c0.2-0.6,0.8-0.5,1.2-0.9c0.1-0.1,0.4-0.1,0.7-0.1
		c0.4,0.5,0.8,1,1.3,1.6c0-0.1,0.1,0.2,0,0.3c-0.2,0.5-0.5,0.9-0.7,1.2c-0.1,0.1-0.2,0.2-0.2,0.2C455.4,47.6,454.9,47.6,454.4,47.6z
		"/>
	<path class="st5" d="M451.3,50.3c-0.3,0.3-0.6,0.6-0.9,0.9c-0.5,0-0.9,0-1.4,0c-0.6-0.2-0.5-0.8-0.9-1.2c-0.1-0.1-0.1-0.4-0.1-0.7
		c0.5-0.4,1-0.8,1.6-1.3c-0.1,0,0.1-0.1,0.3,0c0.5,0.2,0.9,0.5,1.2,0.6c0.1,0.2,0.2,0.2,0.2,0.3C451.3,49.3,451.3,49.8,451.3,50.3z"
		/>
	<path class="st5" d="M467.5,38.9c0,0.1,0.1,0.3,0,0.5c-0.2,0.5-0.5,0.9-0.8,1.4c-0.3,0-0.6,0-0.8,0s-0.5,0-0.7,0
		c-0.3-0.3-0.6-0.6-0.9-0.9c0-0.4,0-0.7,0-1c0.2-0.3,0.3-0.5,0.5-0.8c0.4-0.1,0.8-0.6,1.4-0.5C466.6,37.9,467,38.3,467.5,38.9z"/>
	<path class="st5" d="M487.7,39.5c0.3-0.3,0.6-0.6,0.9-0.9c0.5,0,1,0,1.5,0c0.3,0.3,0.6,0.6,0.9,0.9c0,0.3,0,0.7,0,1.1
		c-0.4,0.4-0.8,0.8-1.4,1.2c-0.1,0-0.4,0-0.6,0c-0.4-0.4-0.8-0.8-1.2-1.3C487.7,40.2,487.7,39.8,487.7,39.5z"/>
	<path class="st9" d="M495.4,39.7c-0.3,0.1-0.8-0.4-1.1-0.5c-0.2-0.3-0.3-0.6-0.5-0.8c0-0.3,0-0.6,0-1c0.3-0.3,0.6-0.6,0.9-0.9
		c0.5,0,0.9,0,1.4,0c0.6,0.5,0.8,1.2,1,1.9C496.6,38.7,496.1,39.1,495.4,39.7z"/>
	<path class="st5" d="M446.3,31.5c-0.5,0.6-1.2,0.8-1.9,1c-0.5-0.5-0.9-0.9-1.4-1.5c-0.2-0.4,0.5-0.8,0.5-1.3
		c0.3-0.2,0.6-0.3,0.9-0.5c0.2,0,0.5,0,1,0c0.2,0.3,0.5,0.6,0.9,1.1C446.3,30.6,446.3,31.1,446.3,31.5z"/>
	<path class="st14" d="M499.2,41.3c0-0.6,0-1.2,0-1.8c0.3-0.5,0.9-0.6,1.4-0.9c0.2,0.1,0.5,0.3,0.7,0.4c0.4,0.1,0.5,0.4,0.7,0.5
		c0,0.6,0,1.2,0,1.8c-0.1,0.1-0.3,0.3-0.5,0.5c-0.6,0-1.2,0-1.9,0C499.6,41.6,499.4,41.4,499.2,41.3z"/>
	<path class="st12" d="M479.2,41.4c-0.2,0-0.4,0.1-0.5,0c-0.5-0.2-0.9-0.5-1.3-0.8c0-0.5,0-1,0-1.6c0.3-0.2,0.6-0.5,0.9-0.9
		c0.3,0,0.6,0,0.8,0c0.5,0.5,1,1,1.5,1.5C480.3,40.3,479.9,40.9,479.2,41.4z"/>
	<path class="st10" d="M473.3,36.3c-0.1,0.1-0.1,0.1-0.3,0.3c0,0.2,0,0.5-0.1,0.8c-0.3,0.1-0.6,0.3-1,0.5c-0.2,0-0.6,0-1,0
		c-0.2-0.3-0.5-0.6-0.8-1c0-0.4,0-0.9,0-1.4c0.6-0.5,1.3-0.8,1.9-0.9c0.4,0.2,0.6,0.6,0.8,0.8C473,35.8,473.1,36,473.3,36.3z"/>
	<path class="st9" d="M443.8,49.9c0.3-0.3,0.6-0.6,0.9-0.9c0.3,0,0.6,0,1.1,0c0.2,0.3,0.5,0.6,0.8,1c0,0.3,0,0.8,0,1.4
		c-0.3,0.2-0.6,0.5-1,0.8c-0.3,0-0.6,0-0.9,0c-0.5-0.2-0.6-0.6-1-0.9C443.8,50.9,443.8,50.4,443.8,49.9z"/>
	<path class="st12" d="M458.9,41.6c0.3-0.3,0.6-0.6,0.9-0.9c0.2,0,0.4-0.1,0.6,0c0.3,0.1,0.4,0.4,0.8,0.4c0.2,0,0.3,0.3,0.5,0.5
		c0,0.6,0,1.3,0,1.9c-0.3,0.1-0.7,0.2-0.9,0.5c-0.4,0-0.7,0-1.1,0c-0.3-0.3-0.6-0.6-0.9-0.9C458.9,42.6,458.9,42.1,458.9,41.6z"/>
	<path class="st10" d="M483,40.7c0.2,0,0.5,0,0.8,0c0.3,0.2,0.6,0.3,1,0.5l0.1,0.1c0,0.6,0,1.2,0,1.8c-0.3,0.1-0.4,0.5-0.7,0.5
		c-0.3,0.1-0.5,0.2-0.7,0.4c-0.5-0.3-1.1-0.5-1.5-0.9c0-0.6,0-1.2,0-1.8C482.2,41.1,482.5,41,483,40.7z"/>
	<path class="st8" d="M713.4,47.4c0-0.5,0-0.9,0-1.5c0.3-0.3,0.6-0.5,1-0.9c0.4,0,0.8,0,1.3,0c0.1,0.1,0.2,0.1,0.2,0.2
		c0.2,0.3,0.5,0.6,0.6,1c0.1,0.2,0.1,0.5,0.1,0.5c-0.5,0.5-1,1-1.5,1.5c0,0-0.4,0.1-0.5,0C714.3,47.9,713.7,47.9,713.4,47.4z"/>
	<path class="st10" d="M682.4,41.8c-0.3,0-0.7,0-1.2,0c-0.3-0.3-0.6-0.6-0.9-0.9c0-0.4,0-0.7,0-1c0.2-0.3,0.3-0.5,0.5-0.8
		c0.4-0.1,0.8-0.7,1.5-0.5c0.3,0.4,0.7,0.8,1.3,1.4c0,0.1,0,0.5,0,1C683.3,41.1,683,41.4,682.4,41.8z"/>
	<path class="st10" d="M687.5,59.4c0,0.4,0,0.8,0,1.3c-0.3,0.3-0.6,0.6-1,0.9c-0.3,0-0.7,0-0.9,0c-0.4-0.2-0.6-0.3-0.9-0.4
		c-0.1-0.2-0.3-0.5-0.5-0.9c0-0.1,0-0.3,0-0.6c0.4-0.4,0.8-0.8,1.3-1.2c0.3,0,0.6,0,1.1,0C686.9,58.6,687.1,58.9,687.5,59.4z"/>
	<path class="st9" d="M674.2,42.7c0-0.3,0-0.7,0-1c0.3-0.3,0.6-0.6,0.9-0.9c0.5,0,1,0,1.5,0c0.3,0.3,0.6,0.6,0.9,0.9
		c0,0.3,0,0.7,0,1.1c-0.4,0.4-0.8,0.8-1.3,1.2c-0.2,0-0.4,0-0.7,0C675,43.6,674.6,43.1,674.2,42.7z"/>
	<path class="st5" d="M701.6,51.9c0-0.1,0-0.3,0-0.5c0.4-0.4,0.9-0.8,1.4-1.3c0.1,0,0.5,0,1,0c0.2,0.3,0.5,0.6,0.8,1.1
		c0,0.2,0,0.7,0,1.3c-0.2,0.2-0.6,0.4-1,0.8c-0.1,0-0.5,0-0.8,0C702.5,52.9,702.1,52.4,701.6,51.9z"/>
	<path class="st9" d="M682.6,52.8c0.4-0.1,0.8-0.7,1.6-0.4c0.3,0.3,0.7,0.8,1.2,1.4c0,0.1,0.1,0.5-0.3,0.8c0,0.4-0.3,0.6-0.6,1
		c-0.2,0-0.5,0-0.8,0c-0.2,0-0.5,0-0.7,0c-0.3-0.3-0.6-0.6-0.9-0.9c0-0.4,0-0.7,0-1C682.3,53.3,682.4,53.1,682.6,52.8z"/>
	<path class="st14" d="M698.1,56.2c-0.4,0-0.7,0-1,0c-0.4-0.4-0.8-0.8-1.3-1.4c0-0.1,0-0.4,0-0.6c0.4-0.4,0.8-0.8,1.3-1.2
		c0.3,0,0.6,0,1,0c0.3,0.3,0.6,0.6,0.9,0.9c0,0.4,0,0.9,0,1.4C698.8,55.6,698.5,55.9,698.1,56.2z"/>
	<path class="st10" d="M670.8,43.6c0.3,0.3,0.6,0.6,0.8,0.8c0.1,0.2,0.1,0.4,0.2,0.5c0.1,0.1,0.2,0.3,0.3,0.4
		c-0.2,0.4-0.3,0.8-0.5,1.1c-0.1,0.1-0.3,0.3-0.4,0.4c-0.5,0-0.9,0-1.5,0c-0.2-0.3-0.5-0.6-0.8-1c0-0.3,0-0.8,0-1.3
		c0.1-0.2,0.3-0.6,0.7-0.6C670,44,670.1,43.2,670.8,43.6z"/>
	<path class="st10" d="M685,47.7c0.3-0.3,0.6-0.6,0.9-0.9c0.5,0,1,0,1.5,0c0.3,0.3,0.6,0.6,0.9,0.9c0,0.3,0,0.7,0,1.1
		c-0.4,0.4-0.8,0.8-1.3,1.2c-0.1,0-0.4,0-0.6,0c-0.4-0.4-0.8-0.8-1.2-1.3C685,48.5,685,48.1,685,47.7z"/>
	<path class="st10" d="M665.5,50.4c-0.3,0-0.8,0-1.2,0c-0.3-0.3-0.6-0.6-0.9-0.9c0-0.3,0-0.7,0-1.1c0.3-0.2,0.6-0.5,1-0.8
		c0.4,0,0.8,0,1.4,0c0.2,0.2,0.4,0.6,0.8,1.2c0,0,0,0.3,0,0.8C666.4,49.8,666,50.1,665.5,50.4z"/>
	<path class="st12" d="M679.6,58.9c0.3-0.3,0.4-0.4,0.5-0.5c0.6,0,1.2,0,1.8,0c0.1,0.1,0.3,0.3,0.5,0.5c0,0.6,0,1.2,0,1.8
		c-0.1,0.1-0.3,0.3-0.4,0.4c-0.3,0.2-0.7,0.1-1.1,0.1c-0.3,0-0.6,0-0.8,0c-0.2-0.2-0.4-0.4-0.5-0.5
		C679.6,60.1,679.6,59.5,679.6,58.9z"/>
	<path class="st13" d="M686.1,41.3c0.2-0.2,0.3-0.3,0.5-0.5c0.6,0,1.2,0,1.8,0c0.1,0.1,0.3,0.3,0.5,0.5c0,0.6,0,1.2,0,1.8
		c-0.1,0.1-0.3,0.3-0.4,0.4c-0.3,0.2-0.7,0.1-1.1,0.1c-0.3,0-0.6,0-0.8,0c-0.2-0.2-0.4-0.4-0.5-0.5
		C686.1,42.5,686.1,41.9,686.1,41.3z"/>
	<path class="st13" d="M709.7,50.8c-0.2,0-0.5,0-0.8,0c-0.3-0.4-1-0.4-1.3-0.9c0-0.5,0-0.9,0-1.5c0.3-0.3,0.6-0.5,0.9-0.9
		c0.3,0,0.6,0,1.1,0c0.2,0.3,0.5,0.6,0.8,1c0,0.4,0,0.8,0,1.3C710.3,50.2,710,50.5,709.7,50.8z"/>
	<path class="st13" d="M691.4,55.8c0.4,0,0.7,0,1,0c0.6,0.4,0.9,1,1.2,1.6c-0.3,0.2-0.2,0.8-0.7,1.1c-0.3,0.2-0.7,0.4-1,0.5
		c-0.5-0.3-1.1-0.4-1.5-0.9c0-0.5,0-0.9,0-1.5C690.7,56.5,691,56.2,691.4,55.8z"/>
	<path class="st8" d="M327.1,42.7c0.3-0.3,0.6-0.6,0.9-0.9c0.4,0,0.9,0,1.5,0c0.2,0.3,0.5,0.6,0.8,1c0,0.2,0.1,0.5,0,0.8
		c-0.1,0.4-0.4,0.7-0.5,1c-0.5-0.1-0.7,0.6-1.3,0.4c-0.3-0.2-0.7-0.4-1-0.5c0-0.1,0-0.2,0-0.3c-0.1-0.1-0.3-0.3-0.4-0.4
		C327.1,43.4,327.1,43.1,327.1,42.7z"/>
	<path class="st6" d="M321.7,45c0-0.4-0.6-0.5-0.4-0.9c-0.6-0.5-0.3-1,0-1.5c0.1-0.1,0.1-0.2,0.1-0.3c0.2-0.3,0.8,0.1,0.8-0.5
		c0.3,0,0.5-0.1,0.6,0c0.5,0.2,0.9,0.5,1.2,0.6c0.3,0.4,0.2,0.7,0.2,1c0,0.2,0,0.5,0,0.7c-0.3,0.3-0.6,0.6-0.9,0.9
		C322.8,45,322.3,45,321.7,45z"/>
	<path class="st5" d="M290.2,42.2c-0.4,0-0.9,0-1.5,0c-0.2-0.2-0.4-0.6-0.8-1.2c0-0.1,0-0.7,0-1.2c0.2-0.5,0.9-0.4,1.2-0.8
		c0.2,0,0.5,0,0.7,0c0.4,0.4,0.8,0.8,1.3,1.3c0,0.2,0.1,0.6,0,0.7C290.7,41.2,290.8,41.9,290.2,42.2z"/>
	<path class="st15" d="M312.2,41.4c-0.5-0.1-0.8,0.6-1.3,0.4c-0.1,0-0.1,0-0.2,0c-0.4-0.4-0.8-0.8-1.2-1.2c0-0.4,0-0.8,0-1.1
		c0.3-0.3,0.6-0.6,0.9-0.9c0.5,0,0.9,0,1.5,0c0.2,0.3,0.5,0.6,0.8,1c0,0.1,0,0.5,0,0.8C312.6,40.7,312.4,41,312.2,41.4z"/>
	<path class="st16" d="M303.7,40.3c0.2-0.5-0.2-0.6-0.3-0.8c0-0.3,0-0.5,0-0.6c0.2-0.4,0.3-0.6,0.4-0.9c0.3-0.1,0.5-0.3,0.9-0.5
		c0.2,0,0.6,0,1,0c0.3,0.3,0.6,0.6,0.9,0.9c0,0.4,0,0.9,0,1.4c-0.3,0.5-0.9,0.6-1.4,0.9C304.7,41,304.4,40.3,303.7,40.3z"/>
	<path class="st7" d="M339.9,40.3c0.5,0.2,0.6-0.2,0.8-0.3c0.3,0,0.6,0,1,0c0.4,0.2,0.6,0.6,1,0.9c0,0.5,0,1,0,1.4
		c-0.3,0.5-0.9,0.5-1.3,0.9c-0.1,0.1-0.5,0-0.7,0c-0.2-0.1-0.3-0.5-0.7-0.3c-0.2-0.3-0.4-0.6-0.5-1c-0.1-0.3-0.1-0.6,0.2-0.8
		C339.7,40.9,339.7,40.7,339.9,40.3z"/>
	<path class="st10" d="M316.9,41.4c-0.3-0.3-0.6-0.6-0.9-0.9c0.1-0.4-0.2-0.9,0.2-1.3c0.2-0.2,0-0.7,0.4-0.7c0.5,0,0.7-0.7,1.4-0.3
		c0.3,0.3,0.6,0.8,1.2,1.5c0,0,0,0.3,0,0.8c-0.3,0.2-0.6,0.5-1.1,0.9C317.8,41.4,317.3,41.4,316.9,41.4z"/>
	<path class="st5" d="M296.5,37.1c-0.1,0.2,0.3,0.4,0.4,0.6c-0.2,0.5-0.4,1.1-1,1.5c-0.4,0-0.9,0-1.4,0c-0.3-0.3-0.5-0.6-0.9-0.9
		c0-0.4,0-0.9,0-1.4c0.1-0.1,0.1-0.2,0.2-0.3c0.1-0.1,0.1-0.2,0.3-0.3c0.3-0.1,0.6-0.3,0.9-0.5c0.1-0.1,0.3,0,0.6,0
		C295.9,36.3,296.1,36.7,296.5,37.1z"/>
	<path class="st5" d="M301.7,33.9c0.3,0.3,0.6,0.6,0.9,0.9c0,0.4,0,0.7,0,1.1c-0.4,0.4-0.8,0.8-1.3,1.2c-0.2,0-0.4,0-0.6,0
		c-0.5-0.4-0.9-0.8-1.3-1.2c0-0.4,0-0.7,0-1.1c0.3-0.3,0.6-0.6,0.9-0.9C300.8,33.9,301.3,33.9,301.7,33.9z"/>
	<path class="st12" d="M336.5,41.1c-0.1,0.2-0.3,0.5-0.4,0.7c-0.1,0.3-0.3,0.6-0.7,0.7c-0.3,0.1-0.5,0.3-0.7,0.4
		c-0.5-0.3-1.1-0.5-1.5-0.9c0-0.5,0-0.9,0-1.5c0.3-0.3,0.6-0.5,1-0.9c0.3,0,0.6,0,1,0c0.2,0.3,0.5,0.3,0.9,0.5
		C336.3,40.4,335.8,41,336.5,41.1z"/>
	<path class="st8" d="M260.8,30.8c0.1,0.1,0.2,0.5,0.5,0.9c0,0.2,0,0.5,0,1c-0.2,0.2-0.6,0.5-1,0.8c-0.3,0-0.7,0-1.4,0
		c-0.2-0.3-0.5-0.6-0.8-1c0-0.3,0-0.6,0-0.8c0.2-0.4,0.3-0.6,0.5-0.9c0.2-0.1,0.5-0.3,0.9-0.5c0.1,0,0.3,0,0.5,0
		C260.2,30.4,260.4,30.6,260.8,30.8z"/>
	<path class="st5" d="M283.6,40.7c0.6,0.6,1,1,1.4,1.4c0,0.1,0.1,0.3,0,0.5c-0.2,0.5-0.5,0.9-0.7,1.2c-0.3,0.3-0.6,0.1-0.9,0.1
		c-0.2,0-0.5,0-0.7,0c-0.3-0.3-0.6-0.6-0.9-0.9c0-0.5,0-0.9,0-1.4C282.1,41.1,282.8,40.8,283.6,40.7z"/>
	<path class="st8" d="M278.5,33.7c-0.4,0.3-0.3,1-0.9,1.3c-0.5,0-0.9,0-1.4,0c-0.6-0.2-0.5-0.8-0.9-1.2c-0.1-0.2-0.1-0.6,0-0.8
		c0.2-0.2,0.2-0.5,0.4-0.7c0.2-0.2,0.5-0.1,0.7-0.4c0.1-0.1,0.6-0.2,0.8-0.1c0.4,0.3,1,0.3,1.3,0.9C278.5,33,278.5,33.3,278.5,33.7z
		"/>
	<path class="st8" d="M266.6,29.4c-0.3,0.3-0.6,0.6-0.9,0.9c-0.4,0-0.9,0-1.4,0c-0.1-0.1-0.3-0.2-0.3-0.3c-0.2-0.5-0.7-0.9-0.6-1.4
		c0.5-0.5,1-1,1.5-1.5c0.6,0,1.2,0.3,1.7,0.9C266.6,28.4,266.6,28.9,266.6,29.4z"/>
	<path class="st5" d="M277.2,41.1c-0.3-0.5-0.6-0.9-0.8-1.4c-0.1-0.1,0-0.3,0-0.5c0.4-0.4,0.8-0.8,1.4-1.4c0.6-0.2,1.1,0.6,1.8,0.7
		c0,0.7,0,1.2,0,1.7c-0.3,0.3-0.6,0.6-0.8,0.9C278.2,41.1,277.8,41.1,277.2,41.1z"/>
	<path class="st10" d="M272,27.8c-0.5,0-1,0-1.6,0c-0.3-0.3-0.6-0.6-0.9-0.9c0-0.4,0-0.9,0-1.4c0.4-0.5,1-0.8,1.9-0.9
		c0.7,0.4,1,1.1,1.3,1.8C272.5,26.8,272.3,27.3,272,27.8z"/>
	<path class="st12" d="M274.9,27.9c0-0.5,0-1.1,0-1.7c0.1-0.1,0.3-0.3,0.5-0.5c0.6,0,1.3,0,1.9,0c0.2,0.2,0.4,0.3,0.5,0.5
		c0,0.6,0,1.2,0,1.8c-0.2,0.2-0.3,0.3-0.5,0.5c-0.6,0-1.2,0-1.8,0C275.3,28.3,275.2,28.1,274.9,27.9z"/>
	<path class="st5" d="M548.9,30.5c0,0.5,0,1,0,1.4c-0.3,0.3-0.6,0.6-0.9,0.9c-0.5,0-0.9,0-1.4,0c-0.6-0.2-0.5-0.8-0.9-1.2
		c-0.1-0.1-0.1-0.4-0.1-0.7c0.2-0.2,0.4-0.4,0.6-0.6s0.4-0.4,0.6-0.6c0.4-0.1,0.8-0.2,1.1,0.2C548.3,29.9,548.6,30.1,548.9,30.5z"/>
	<path class="st8" d="M540.3,30.8c0.3-0.3,0.6-0.6,0.9-0.9c0.3,0,0.7,0,1.1,0c0.2,0.1,0.3,0.5,0.7,0.3c0.1,0.2,0.2,0.5,0.4,0.7
		s0.2,0.4,0.2,0.6c-0.1,0.4-0.2,0.8-0.5,1c-0.2,0.2-0.6,0.3-0.9,0.5c-0.2,0.1-0.5,0.1-0.7,0c-0.4-0.4-1-0.3-1.2-0.9
		C540.3,31.8,540.3,31.3,540.3,30.8z"/>
	<path class="st8" d="M535.8,44c-0.1,0-0.4,0-0.7,0c-0.5-0.5-0.9-0.8-1.3-1.2c0-0.3,0-0.5,0-0.6c0.2-0.3,0.3-0.6,0.5-0.9
		c0.2-0.1,0.5-0.3,0.9-0.5c0.2,0,0.6,0,1,0c0.2,0.3,0.5,0.6,0.8,1c0,0.3,0,0.8,0,1.4C536.7,43.3,536.4,43.6,535.8,44z"/>
	<path class="st5" d="M553.2,35.7c0,0.2,0,0.5,0,1c-0.3,0.2-0.6,0.4-0.9,0.7l0.1,0.1c-0.1,0-0.1,0.1-0.1,0.1c-0.5,0-0.9,0-1.4,0
		c-0.6-0.3-0.5-0.9-0.9-1.3c0-0.2,0-0.5,0-0.7c0.4-0.4,0.8-0.8,1.3-1.2c0.2,0,0.4,0,0.7,0c0.2,0.1,0.4,0.5,0.7,0.3
		C552.8,34.9,553,35.2,553.2,35.7z"/>
	<path class="st9" d="M538.7,36c0.6,0,1.2,0,1.8,0c0.1,0.1,0.3,0.3,0.5,0.6c0,0.5,0,1,0,1.7c-0.1,0.1-0.3,0.3-0.4,0.4
		c-0.3,0.2-0.7,0.1-1,0.1s-0.6,0-0.8,0c-0.6-0.3-0.5-0.9-0.9-1.3c-0.1-0.1-0.1-0.3,0-0.3c0.2-0.2,0.3-0.4,0.4-0.7
		C538.2,36.4,538.5,36.2,538.7,36z"/>
	<path class="st7" d="M630.5,59.7c-0.1,0.1-0.4,0.2-0.9,0.5c-0.2,0-0.5,0-1,0c-0.2-0.2-0.4-0.6-0.8-1c0-0.3,0-0.7,0-1.4
		c0.3-0.2,0.6-0.4,1.3-0.8c0,0,0.3,0,0.6,0c0.4,0.2,0.6,0.3,0.9,0.5c0.1,0.2,0.3,0.5,0.5,0.9c0,0.1,0,0.3,0,0.5
		C630.8,59.1,630.7,59.3,630.5,59.7z"/>
	<path class="st8" d="M626,63c0.8,0,1.3,0,1.9,0c0.2,0.2,0.3,0.3,0.5,0.5c0,0.6,0,1.2,0,1.8c-0.2,0.1-0.4,0.5-0.6,0.5
		c-0.3,0-0.5,0.3-0.8,0.4c-0.2-0.1-0.4-0.3-0.6-0.4c-0.4-0.1-0.7-0.3-0.7-0.6c-0.1-0.3-0.3-0.5-0.4-0.8
		C625.5,64.1,625.7,63.6,626,63z"/>
	<path class="st11" d="M640.3,66.5c0,0.4,0,0.9,0,1.5c-0.2,0.2-0.6,0.4-1.2,0.8c0,0-0.3,0-0.7,0c-0.2-0.1-0.5-0.3-0.9-0.5
		c0-0.1-0.1-0.2-0.1-0.4c-0.1-0.1-0.2-0.2-0.3-0.3c0-0.2,0-0.5,0-0.7c0.4-0.4,0.8-0.8,1.3-1.3c0.2,0,0.6-0.1,0.7,0
		C639.4,66,640.1,65.9,640.3,66.5z"/>
	<path class="st10" d="M634.6,69.4c0,0.4,0,0.9,0,1.4c-0.3,0.2-0.6,0.5-1,0.8c-0.2,0-0.6,0-1,0c-0.4-0.4-0.8-0.8-1.2-1.4
		c0-0.1,0-0.3,0-0.6c0.4-0.4,0.8-0.8,1.4-1.2c0.2,0,0.6,0,1,0C634,68.7,634.3,69,634.6,69.4z"/>
	<path class="st9" d="M625.6,71.5c0-0.6,0-1.1,0-1.8c0.1-0.1,0.3-0.3,0.4-0.5c0.3-0.2,0.7-0.1,1-0.1s0.6,0,0.9,0
		c0.2,0.2,0.4,0.4,0.5,0.5c0,0.6,0,1.2,0,1.8c-0.3,0.5-0.9,0.6-1.4,0.9C626.6,72.1,626,72.1,625.6,71.5z"/>
	<path class="st11" d="M9.2,66.5c0-0.5,0-1,0-1.4c0.3-0.3,0.6-0.6,0.9-0.9c0.5,0,0.9,0,1.4,0c0.6,0.2,0.5,0.8,0.9,1.2
		c0.1,0.1,0.1,0.4,0.1,0.7c-0.2,0.2-0.4,0.4-0.6,0.6s-0.4,0.4-0.6,0.6c-0.4,0.1-0.8,0.2-1.1-0.2C9.8,67.1,9.6,66.8,9.2,66.5z"/>
	<path class="st10" d="M10.5,73.9c-0.5-0.4-0.9-0.8-1.3-1.2c0-0.4,0-0.7,0-1.1c0.3-0.3,0.6-0.6,0.9-0.9c0.5,0,1,0,1.4,0
		c0.3,0.3,0.6,0.6,0.9,0.9c0,0.4,0,0.7,0,1.1c-0.4,0.4-0.8,0.8-1.3,1.2C11,73.9,10.7,73.9,10.5,73.9z"/>
	<path class="st10" d="M12.4,58.6c0,0.4,0,0.9,0,1.4c-0.3,0.2-0.6,0.5-1,0.8c-0.2,0-0.5,0-1,0C10,60.4,9.6,60,9.2,59.4
		c0-0.1,0-0.3,0-0.6c0.4-0.4,0.8-0.8,1.4-1.2c0.2,0,0.6,0,1,0C11.8,57.9,12.1,58.2,12.4,58.6z"/>
	<path class="st5" d="M564.9,44.3c-0.2,0-0.5,0-0.7,0c-0.1-0.1-0.3-0.2-0.4-0.4c-0.1,0-0.2,0-0.3,0c-0.1-0.3-0.3-0.6-0.5-1
		c0-0.2,0-0.5,0-1c0.2-0.2,0.6-0.5,1-0.8c0.3,0,0.8,0,1.3,0c0.3,0.3,0.6,0.6,0.9,0.8c0,0.4,0,0.8,0,1.1
		C565.8,43.5,565.3,43.9,564.9,44.3z"/>
	<path class="st7" d="M569.4,40.4c-0.4-0.2-0.6-0.3-0.9-0.5c-0.1-0.2-0.3-0.5-0.5-0.9c0-0.1,0-0.3,0-0.6c0.1-0.2,0.5-0.4,0.3-0.7
		c0.3-0.1,0.6-0.3,1-0.5c0.2,0,0.5,0,1,0c0.2,0.2,0.4,0.6,0.8,1c0,0.3,0,0.8,0,1.3c-0.2,0.6-0.9,0.5-1.3,0.9
		C569.8,40.5,569.5,40.4,569.4,40.4z"/>
	<path class="st5" d="M560.4,44.9c0,0.4,0,0.9,0,1.4c-0.1,0.1-0.1,0.2-0.2,0.3c-0.1,0.1-0.1,0.2-0.3,0.3c-0.3,0.1-0.6,0.3-0.9,0.5
		c-0.1,0.1-0.3,0-0.4,0c-0.5-0.5-1-1-1.5-1.5c0,0,0-0.2,0-0.3c0.1-0.3,0.3-0.6,0.5-0.9c0.2-0.1,0.5-0.3,0.9-0.5c0.2,0,0.6,0,1,0
		C559.8,44.3,560.1,44.5,560.4,44.9z"/>
	<path class="st10" d="M555.8,40.9c0,0.6,0,1.2,0,1.8c-0.2,0.1-0.3,0.3-0.5,0.5c-0.5,0-1.1,0-1.8,0c-0.1-0.1-0.3-0.3-0.5-0.5
		c0-0.6,0-1.2,0-1.9c0.2-0.2,0.3-0.3,0.3-0.3c0.5-0.3,0.8-0.4,1.1-0.6C554.7,40.2,555.3,40.4,555.8,40.9z"/>
	<path class="st13" d="M576.1,34.2c0.3,0.3,0.4,0.4,0.5,0.5c0,0.6,0,1.2,0,1.8c-0.1,0.1-0.3,0.3-0.5,0.5c-0.6,0-1.2,0-1.8,0
		c-0.1-0.1-0.3-0.3-0.4-0.4c-0.2-0.3-0.1-0.7-0.1-1.1c0-0.3,0-0.6,0-0.8c0.2-0.2,0.4-0.4,0.5-0.5C574.9,34.2,575.5,34.2,576.1,34.2z
		"/>
	<path class="st8" d="M109.3,54.1c0,0.5,0,1.1,0,1.6c-0.3,0.3-0.6,0.6-0.9,0.9c-0.5,0-0.9,0-1.4,0c-0.5-0.5-0.9-1.1-0.9-1.9
		c0.1-0.3,0.5-0.4,0.4-0.8c0.3-0.2,0.7-0.4,1-0.5s0.5-0.1,0.8,0.2C108.6,53.8,109,53.9,109.3,54.1z"/>
	<path class="st8" d="M113.8,49.8c0.2,0.4,0.3,0.6,0.5,0.9c0,0.2,0,0.4,0,0.5c-0.2,0.3-0.3,0.6-0.5,0.9c-0.2,0.1-0.5,0.3-0.9,0.5
		c-0.1,0-0.4,0.1-0.5,0c-0.4-0.4-1-0.3-1.3-0.9c0-0.4,0-0.9,0-1.5c0.2-0.2,0.6-0.4,1.2-0.8c0,0,0.3,0,0.7,0
		C113.3,49.5,113.6,49.7,113.8,49.8z"/>
	<path class="st9" d="M98.6,50.2c0.4-0.1,0.8-0.6,1.4-0.5c0.4,0.4,0.8,0.9,1.3,1.4c0,0.2,0.2,0.6-0.3,0.9c0,0.4-0.3,0.6-0.5,0.9
		c-0.2,0.2-0.5,0-0.8,0.1c-0.2,0-0.5,0-0.7,0c-0.3-0.3-0.6-0.6-0.9-0.9c0-0.4,0-0.7,0-1C98.3,50.8,98.5,50.6,98.6,50.2z"/>
	<path class="st15" d="M94.8,54.4c-0.5,0.1-0.6,0.1-0.8,0.4c-0.3,0-0.5,0-0.7,0c-0.5-0.5-0.9-0.9-1.3-1.3c0-0.2,0-0.5,0-0.7
		c0.4-0.3,0.4-1,0.9-1.2c0.5,0,0.9,0,1.5,0c0.2,0.3,0.5,0.6,0.8,1c0,0.2,0,0.5,0,0.9c-0.1,0.1-0.2,0.3-0.3,0.5
		C94.9,54.1,94.9,54.2,94.8,54.4z"/>
	<path class="st10" d="M101.9,55.5c0.5,0,1,0,1.4,0c0.6,0.3,0.5,1,1,1.3c-0.4,0.6-0.5,1.2-1,1.5c-0.6,0-1.2,0-1.8,0
		c-0.2-0.3-0.4-0.6-0.6-1c0-0.3,0-0.6,0-0.9C101.2,56.1,101.6,55.8,101.9,55.5z"/>
	<path class="st8" d="M422.7,45.8c-0.3-0.3-0.6-0.6-0.9-0.9c0-0.4,0-0.9,0-1.4c0.2-0.6,0.8-0.5,1.2-0.9c0.1-0.1,0.4-0.1,0.6-0.1
		c0.5,0.5,1,1,1.5,1.5c0.1,0.6-0.4,1.1-0.7,1.7C423.8,45.8,423.2,45.7,422.7,45.8z"/>
	<path class="st8" d="M411,58.2c-0.3,0.5-0.9,0.5-1.2,0.9c-0.1,0.1-0.5,0-0.7,0.1c-0.1,0-0.1-0.1-0.1-0.1c-0.4-0.4-0.8-0.8-1.1-1.1
		c-0.1-0.4-0.1-0.8,0.3-1.1c0-0.4,0.2-0.6,0.6-0.9c0.4,0,0.9,0,1.5,0c0.2,0.3,0.5,0.6,0.9,1.1C411,57.2,411,57.7,411,58.2z"/>
	<path class="st9" d="M413.4,54.4c-0.3-0.3-0.6-0.6-0.9-0.9c0-0.4,0-0.7,0-1.1c0.4-0.4,0.8-0.8,1.3-1.2c0.2,0,0.5,0,0.6,0
		c0.5,0.4,0.9,0.8,1.3,1.2c0,0.4,0,0.7,0,1.1c-0.3,0.3-0.6,0.6-0.9,0.9C414.3,54.4,413.8,54.4,413.4,54.4z"/>
	<path class="st10" d="M345.5,40.2c0-0.5,0-1,0-1.5c0.3-0.3,0.6-0.5,1-0.9c0.4,0,0.8,0,1.4,0c0.1,0.1,0.5,0.3,0.5,0.6
		c0,0.3,0.3,0.5,0.4,0.7c-0.2,0.8-0.6,1.5-1.3,1.9C346.6,41.1,346,40.7,345.5,40.2z"/>
	<path class="st12" d="M354.9,40.2c-0.3,0.3-0.6,0.6-0.9,0.9c-0.5,0-1,0-1.5,0c-0.3-0.3-0.6-0.6-0.9-0.9c0-0.3,0-0.7,0-1.1
		c0.4-0.4,0.8-0.8,1.3-1.2c0.2,0,0.4,0,0.7,0c0.4,0.4,0.8,0.8,1.2,1.3C354.9,39.5,354.9,39.8,354.9,40.2z"/>
	<path class="st5" d="M360,42.2c-0.4,0-0.9,0-1.4,0c-0.1-0.1-0.2-0.1-0.3-0.2c-0.1-0.1-0.2-0.1-0.3-0.3c-0.1-0.3-0.3-0.6-0.5-0.9
		c-0.1-0.1,0-0.3,0-0.4c0.5-0.5,1-1,1.5-1.5c0,0,0.2,0,0.3,0c0.3,0.1,0.6,0.3,0.9,0.5c0.1,0.2,0.3,0.5,0.5,0.9c0,0.2,0,0.6,0,1
		C360.7,41.5,360.4,41.8,360,42.2z"/>
	<path class="st8" d="M595.9,45c-0.4-0.4-0.8-0.8-1.3-1.3c0-0.2,0-0.5,0-0.7c0.4-0.3,0.3-1,0.9-1.3c0.4,0,0.9,0,1.5,0
		c0.2,0.3,0.5,0.6,0.8,1c0,0.3,0,0.8,0,1.3c-0.2,0.6-0.9,0.5-1.3,0.9C596.5,45.1,596.1,45,595.9,45z"/>
	<path class="st5" d="M606,44c0.5,0,0.9,0,1.5,0c0.2,0.3,0.5,0.6,0.8,1c0,0.3,0,0.9,0,1.4c-0.3,0.6-0.9,0.5-1.3,0.9
		c-0.1,0.1-0.5,0-0.7,0c-0.3-0.3-0.6-0.6-0.9-0.9c0-0.1,0-0.2,0-0.3c-0.1-0.1-0.3-0.3-0.4-0.4C605.2,45.2,605.7,44.3,606,44z"/>
	<path class="st13" d="M601.1,42.7c0-0.5,0-0.9,0-1.5c0.3-0.2,0.6-0.4,1.1-0.8c0,0,0.4,0,0.9,0c0.2,0.3,0.4,0.6,0.8,1.3
		c0,0.1,0,0.6,0,1c-0.4,0.5-0.9,0.6-1.4,0.9c-0.4-0.1-0.7-0.4-1-0.5C601.4,43.1,601.3,42.9,601.1,42.7z"/>
	<path class="st5" d="M392.7,61.6c0.4,0.2,0.6,0.3,0.9,0.5c0.1,0.2,0.3,0.5,0.5,0.9c0,0.1,0,0.3,0,0.6c-0.1,0.2-0.5,0.4-0.3,0.7
		c-0.3,0.1-0.6,0.3-1,0.5c-0.2,0-0.5,0-1,0c-0.2-0.2-0.4-0.6-0.8-1c0-0.3,0-0.8,0-1.3c0.2-0.6,0.9-0.5,1.3-0.9
		C392.3,61.5,392.6,61.6,392.7,61.6z"/>
	<path class="st8" d="M390.9,50.9c0.1-0.6,0.3-1.2,0.9-1.8c0.4,0,0.9,0,1.5,0c0.2,0.3,0.5,0.6,0.9,1.1c0,0.3,0,0.8,0,1.2
		c-0.5,0.5-1.2,0.9-1.9,0.9C391.8,51.8,391.4,51.4,390.9,50.9z"/>
	<path class="st5" d="M390.5,57.8c0-0.4,0-0.9,0-1.5c0.2-0.2,0.6-0.4,1.2-0.8c0.1,0,0.7,0,1.2,0c0.5,0.4,0.6,0.9,0.9,1.4
		c-0.1,0.3-0.3,0.6-0.5,1c-0.1,0.1-0.4,0.4-0.7,0.7c-0.2,0-0.6,0.1-0.7,0C391.5,58.3,390.8,58.4,390.5,57.8z"/>
	<path class="st12" d="M434.7,35.7c-0.1,0.2,0.3,0.4,0.4,0.6c-0.1,0.1-0.2,0.2-0.3,0.3c0,0.3-0.1,0.5-0.1,0.8
		c-0.3,0.2-0.6,0.3-1,0.5c-0.2,0-0.6,0-1,0c-0.3-0.3-0.5-0.6-0.9-0.9c0-0.4,0-0.9,0-1.4c0.1-0.1,0.1-0.2,0.2-0.3
		c0.1-0.1,0.1-0.2,0.3-0.3c0.3-0.1,0.6-0.3,0.9-0.5c0.1-0.1,0.3,0,0.6,0C434.1,34.9,434.4,35.3,434.7,35.7z"/>
	<path class="st10" d="M426.9,39.5c0.3-0.3,0.6-0.6,0.9-0.9c0.3,0,0.7,0,1.1,0c0.2,0.3,0.5,0.6,0.8,1c0,0.3,0,0.7,0,1.3
		c-0.3,0.2-0.6,0.5-0.9,0.8c-0.3,0-0.6,0-1,0c-0.4-0.2-0.6-0.6-1-0.9C426.9,40.4,426.9,39.9,426.9,39.5z"/>
	<path class="st7" d="M622,48.4c0,0.3,0,0.7,0,1.2c-0.1,0.1-0.3,0.3-0.4,0.4c0,0.1,0,0.3,0,0.4c-0.3,0.2-0.6,0.3-1,0.5
		c-0.1,0-0.3,0-0.5,0c-0.3-0.2-0.5-0.3-0.9-0.5c-0.1-0.2-0.2-0.5-0.5-0.9c0,0,0-0.1,0-0.2s0-0.3,0-0.4c0.1-0.3,0.4-0.4,0.4-0.8
		c0-0.2,0.3-0.3,0.5-0.5h0.1c0.4,0,0.8,0,1.3,0C621.3,47.8,621.6,48.1,622,48.4z"/>
	<path class="st5" d="M607.6,50.9c0,0.5,0,1,0,1.5c-0.3,0.3-0.6,0.6-0.9,0.9c-0.3,0-0.7,0-1.1,0c-0.2-0.1-0.3-0.5-0.7-0.3
		c-0.1-0.6-0.7-1-0.5-1.7c0.3-0.3,0.8-0.7,1.4-1.3c0.4-0.2,0.8,0.4,1.4,0.5C607.3,50.6,607.4,50.8,607.6,50.9z"/>
	<path class="st5" d="M610.5,54.2c0,0.4,0,0.8,0,1.1c-0.3,0.3-0.5,0.5-0.8,0.8c-0.5,0.1-1,0-1.4,0.1c-0.4-0.3-0.7-0.6-1-0.9
		c0-0.4,0-0.8,0-1c0.5-0.5,0.9-0.9,1.3-1.4c0.2,0,0.4,0,0.6,0c0.3,0.1,0.4,0.4,0.6,0.5C610,53.7,610.2,53.9,610.5,54.2z"/>
	<path class="st11" d="M659.3,54.4c-0.3-0.3-0.6-0.6-0.9-0.9c0-0.9,0-0.8,0.3-1.6c0.1-0.2,0.1-0.4,0.3-0.4c0.5,0,0.7-0.7,1-0.5
		c0.6,0.6,1,1,1.5,1.5c0,0.1,0,0.4,0,0.9c-0.2,0.3-0.6,0.6-0.9,0.9C660.2,54.4,659.7,54.4,659.3,54.4z"/>
	<path class="st5" d="M647.9,59.9c0.6-0.3,0.8-0.9,1.4-1.2c0.1,0,0.3,0,0.4,0c0.2,0,0.3,0.1,0.5,0.2c0.3,0.2,0.7,0.4,1,0.6
		c0,0.5,0,1,0,1.6c-0.2,0.2-0.5,0.5-0.8,0.8c-0.5,0-1,0-1.4,0c-0.5-0.3-0.5-0.9-0.9-1.3C647.9,60.4,647.9,60.1,647.9,59.9z"/>
	<path class="st15" d="M54.8,46.5c0.3,0.3,0.5,0.6,0.9,1c0,0.4,0,0.9,0,1.4c-0.1,0.1-0.1,0.2-0.2,0.3c-0.3,0.2-0.6,0.5-1,0.6
		c-0.2,0.1-0.5,0.1-0.6,0.1c-0.5-0.5-1-1-1.5-1.5c0-0.1-0.1-0.4,0.1-0.5c0.5-0.3,0.2-1.1,1.3-1.3C53.8,46.5,54.3,46.5,54.8,46.5z"/>
	<path class="st10" d="M46.3,56.7c-0.1,0.1-0.2,0.3-0.4,0.4c0,0.1,0,0.2,0,0.3c-0.3,0.1-0.6,0.3-1,0.5c-0.2,0-0.5,0-1,0
		c-0.2-0.3-0.5-0.6-0.8-1c0-0.3,0-0.8,0-1.4c0.5-0.4,1.3-0.8,1.8-0.9c0.4,0.1,0.5,0.4,0.8,0.6c0.2,0.2,0.4,0.4,0.6,0.6
		C46.3,56.3,46.3,56.5,46.3,56.7z"/>
	<path class="st10" d="M47.7,52.9c0-0.6,0-1.1,0-1.5c0.3-0.3,0.6-0.6,0.9-0.9c0.3,0,0.7,0,1.1,0c0.2,0.3,0.5,0.6,0.8,1
		c0,0.4,0,0.8,0,1.4c-0.3,0.3-0.6,0.6-0.9,0.8c-0.2,0-0.4,0.1-0.6,0C48.7,53.5,48.3,53.2,47.7,52.9z"/>
	<path class="st5" d="M579.7,51.9c-0.3,0-0.5,0-0.7,0c-0.3-0.4-1-0.4-1.2-0.9c0-0.5,0-0.9,0-1.5c0.3-0.2,0.6-0.5,1-0.8
		c0.4,0,0.9,0,1.4,0c0.5,0.3,0.5,0.9,0.9,1.3c0.1,0.1,0,0.5,0,0.6C580.5,51,580.1,51.5,579.7,51.9z"/>
	<path class="st5" d="M583.5,49.9c0-0.4,0-0.9,0-1.5c0.2-0.2,0.6-0.4,1.2-0.8c0.1,0,0.7,0,1.2,0c0.5,0.4,0.6,0.9,0.9,1.4
		c-0.1,0.3-0.3,0.6-0.5,1c-0.1,0.1-0.4,0.4-0.7,0.7c-0.2,0-0.6,0.1-0.7,0C584.4,50.4,583.7,50.5,583.5,49.9z"/>
	<path class="st10" d="M165.5,53.5c-0.3,0.3-0.6,0.6-0.9,0.9c-0.3,0-0.7,0-1,0c-0.2-0.1-0.3-0.5-0.7-0.3c-0.2-0.4-0.4-0.8-0.5-1.2
		c0-0.1,0-0.2,0-0.3c0.5-0.5,1-1,1.5-1.5c0.6,0,1.2,0.3,1.7,0.9C165.5,52.6,165.5,53,165.5,53.5z"/>
	<path class="st10" d="M173.2,51.5c0.3,0.3,0.6,0.6,0.9,0.9c0,0.3,0,0.7,0,1.1c-0.4,0.4-0.8,0.8-1.3,1.2c-0.2,0-0.5,0-0.6,0
		c-0.4-0.4-0.9-0.9-1.3-1.3c0-0.3,0-0.7,0-1.1c0.3-0.3,0.6-0.6,0.9-0.9C172.3,51.5,172.7,51.5,173.2,51.5z"/>
	<path class="st9" d="M167.8,55.1c0.3,0.3,0.6,0.6,0.9,0.9c0,0.3,0,0.7,0,1c-0.3,0.2-0.3,0.6-0.5,0.9c-0.6,0-1.3,0-1.9,0
		c-0.6-0.2-0.4-1-0.9-1.2c0.2-0.6,0.4-1.2,0.9-1.6C166.9,55.1,167.3,55.1,167.8,55.1z"/>
	<path class="st5" d="M144.1,46.1c-0.3,0-0.5,0-0.7,0c-0.3-0.4-1-0.4-1.3-0.9c0-0.5,0-0.9,0-1.5c0.3-0.3,0.6-0.5,0.9-0.9
		c0.4,0,0.9,0,1.4,0c0.3,0.2,0.6,0.5,0.6,0.9c0.4,0.2,0.5,0.5,0.2,0.8c-0.2,0.2-0.2,0.5-0.3,0.6C144.7,45.6,144.3,45.8,144.1,46.1z"
		/>
	<path class="st5" d="M137.2,46.1c0.5,0,0.9,0,1.5,0c0.2,0.2,0.4,0.6,0.8,1c0,0.3,0,0.8,0,1.3c-0.3,0.6-1.1,0.4-1.3,0.9
		c-0.4-0.2-0.6-0.3-0.9-0.4c-0.3-0.1-0.6-0.4-0.7-0.7c-0.1-0.3-0.3-0.5-0.4-0.7C136.6,47.1,136.7,46.5,137.2,46.1z"/>
	<path class="st10" d="M133.5,50.1c0.4,0.2,0.7,0.4,1,0.5c0,0.6,0,1.2,0,1.8c-0.2,0.1-0.4,0.5-0.6,0.5c-0.3,0-0.5,0.3-0.8,0.4
		c-0.4-0.3-0.9-0.5-1.4-0.8c0-0.7,0-1.3,0-1.9c0.2-0.2,0.3-0.4,0.5-0.5C132.7,50.1,133.1,50.1,133.5,50.1z"/>
	<path class="st5" d="M161,39.3c-0.4-0.4-0.8-0.8-1.3-1.3c0-0.2,0-0.5,0-0.7c0.2-0.2,0.4-0.4,0.4-0.7c0-0.2,0.3-0.3,0.5-0.5
		c0.5,0,0.9,0,1.4,0c0.3,0.2,0.6,0.3,1,0.5c0,0.6,0,1.2,0,1.9c-0.1,0.1-0.3,0.3-0.5,0.5c-0.1,0-0.2,0-0.3,0
		c-0.1,0.1-0.3,0.3-0.4,0.4C161.5,39.3,161.2,39.3,161,39.3z"/>
	<path class="st10" d="M166.9,40.9c-0.3,0.3-0.6,0.6-0.9,0.9c-0.3,0-0.7,0-1.1,0c-0.2-0.3-0.5-0.6-0.8-1c0-0.3,0-0.8,0-1.4
		c0.3-0.2,0.6-0.5,1.2-0.8c0.1,0,0.3,0,0.7,0c0.4,0.2,0.6,0.6,1,0.9C166.9,40,166.9,40.4,166.9,40.9z"/>
	<path class="st13" d="M163.5,45.4c0,0,0.2-0.2,0.4-0.3c0.4,0,0.9,0,1.5,0c0.2,0.2,0.4,0.6,0.8,1c0,0.1,0,0.5,0,1
		c-0.3,0.2-0.6,0.4-1.3,0.8c-0.1,0-0.6,0-1,0c-0.5-0.4-0.6-0.9-0.9-1.4C163.1,46.2,163.2,45.9,163.5,45.4z"/>
	<path class="st9" d="M148.7,43.6c-0.2-0.2-0.4-0.4-0.5-0.7s-0.3-0.5-0.4-0.8c0.1-0.2,0.3-0.5,0.4-0.7c0-0.4,0.4-0.4,0.5-0.7
		c0.7,0,1.3,0,1.9,0c0.1,0.3,0.2,0.5,0.4,1.1c0,0.2,0,0.8,0,1.3c-0.2,0.2-0.3,0.3-0.5,0.5C149.9,43.6,149.3,43.6,148.7,43.6z"/>
	<path class="st10" d="M154.9,41.4c-0.3-0.3-0.6-0.6-0.9-0.9c0-0.3,0-0.6,0-1.1c0.3-0.2,0.6-0.5,1-0.8c0.3,0,0.8,0,1.4,0
		c0.2,0.3,0.5,0.6,0.8,1c0,0.3,0,0.6,0,0.9c-0.2,0.4-0.6,0.6-0.9,1C155.8,41.4,155.3,41.4,154.9,41.4z"/>
	<path class="st8" d="M366.4,38c-0.3,0.3-0.6,0.6-0.9,0.9c-0.3,0-0.7,0-1,0c-0.2-0.1-0.3-0.5-0.7-0.3c-0.1-0.2-0.2-0.5-0.4-0.7
		c-0.3-0.5-0.3-0.6,0-1.1c0.1-0.2,0.2-0.6,0.4-0.7c0.2-0.1,0.4-0.2,0.6-0.3c0.2-0.1,0.6-0.1,0.8-0.1c0.3,0.5,1.1,0.3,1.2,1.3
		C366.4,37.1,366.4,37.5,366.4,38z"/>
	<path class="st10" d="M368.2,32.3c0.3-0.5,0.9-0.6,1.4-0.9c0.2,0.1,0.5,0.3,0.7,0.4c0.4,0.1,0.4,0.4,0.7,0.5c0,0.6,0,1.3,0,1.9
		c-0.3,0.1-0.5,0.2-1.1,0.4c-0.2,0-0.8,0-1.3,0c-0.2-0.2-0.3-0.3-0.5-0.5C368.2,33.5,368.2,32.9,368.2,32.3z"/>
	<path class="st7" d="M61.1,45.2c-0.2,0.5-0.9,0.5-1.2,0.9c-0.1,0.1-0.5,0.1-0.7,0c-0.3-0.2-0.7-0.3-0.9-0.5c-0.2-0.3-0.3-0.7-0.5-1
		c-0.1-0.2,0-0.4,0.2-0.6c0.1-0.1,0.2-0.4,0.3-0.6c0.3-0.1,0.6-0.2,0.9-0.5c0.4,0,0.7,0,1,0c0.3,0.3,0.6,0.6,0.9,0.9
		C61.1,44.3,61.1,44.7,61.1,45.2z"/>
	<path class="st10" d="M65.4,45.4c0,0.2,0,0.6,0,0.8c-0.2,0.4-0.4,0.7-0.5,1c-0.6,0-1.2,0-1.8,0c-0.5-0.2-0.5-0.9-1-1.4
		c0.3-0.5,0.5-1,0.8-1.4c0.7,0,1.3,0,2,0C65,44.7,65.2,45,65.4,45.4z"/>
	<path class="st10" d="M66.1,63.8c-0.5-0.3-1-0.6-1.3-0.8c-0.3-0.4-0.1-0.8-0.1-1.1c0-0.3,0-0.6,0-0.9c0.3-0.1,0.5-0.3,0.7-0.4
		c0.1,0,0.1-0.1,0.1-0.1c0.5,0,0.9,0,1.5,0c0.1,0.2,0.5,0.4,0.5,0.6c0,0.3,0.3,0.5,0.4,0.8c-0.2,0.4-0.3,0.8-0.6,1.1
		C67,63.4,66.6,63.5,66.1,63.8z"/>
	<path class="st10" d="M72.6,57c0,0.1,0,0.3,0,0.4c0.1,0.1,0.3,0.3,0.4,0.4c-0.2,0.8-0.6,1.5-1.3,1.9c-0.3,0-0.6,0.1-0.7,0
		c-0.3-0.5-1.1-0.3-1.3-1.3c0-0.1,0-0.5,0-1c0.3-0.3,0.6-0.6,0.9-0.9c0.5,0,0.9,0,1.4,0C72.2,56.7,72.4,56.8,72.6,57z"/>
	<path class="st10" d="M65.7,52.1c-0.5,0.2-0.2,0.7-0.4,1.1c-0.3,0.2-0.7,0.2-0.9,0.5c-0.4,0-0.7,0-1.1,0c-0.3-0.3-0.6-0.6-0.9-0.9
		c0-0.5,0-0.9,0-1.5c0.3-0.2,0.6-0.5,1-0.8c0.1,0,0.5,0,0.9,0C65.1,50.8,65.4,51.5,65.7,52.1z"/>
	<path class="st10" d="M397,63c0.4-0.1,0.5-0.4,0.9-0.7c0.5,0,1,0,1.5,0c0.3,0.3,0.5,0.5,0.8,0.8c0.2,0.4,0.1,0.8,0.1,1.2
		c-0.3,0.3-0.6,0.6-0.9,0.9c-0.5,0-0.9,0-1.4,0c-0.3-0.3-0.6-0.6-0.9-0.9C397,63.9,397,63.5,397,63z"/>
	<path class="st8" d="M177,50.8c0.1-0.5-0.5-0.2-0.6-0.4c-0.1-0.3-0.2-0.6-0.5-0.9c0-0.3,0-0.6,0-1.1c0.2-0.2,0.6-0.4,0.9-0.6
		c0.4-0.4,0.9-0.1,1.4-0.2c0.4,0.4,0.6,0.6,1,1c0,0.3,0,0.7,0,0.9c-0.2,0.4-0.3,0.6-0.5,0.9c-0.2,0.1-0.5,0.3-0.9,0.5
		C177.6,50.8,177.3,50.8,177,50.8z"/>
	<path class="st5" d="M26.1,72.8c0.6,0.1,1.1,0.3,1.8,0.8c0,0.5,0,1,0,1.5c-0.3,0.3-0.6,0.6-0.9,0.9c-0.3,0-0.7,0-0.9,0
		c-0.3-0.2-0.6-0.3-0.9-0.5c-0.1-0.2-0.3-0.5-0.5-0.9c0-0.1,0-0.3,0-0.6C25.1,73.7,25.5,73.3,26.1,72.8z"/>
	<path class="st13" d="M589.8,47.2c-0.3-0.3-0.6-0.6-0.9-0.9c0-0.3,0-0.6,0-1.1c0.3-0.2,0.6-0.5,1-0.8c0.3,0,0.8,0,1.4,0
		c0.2,0.3,0.5,0.6,0.8,1c0,0.3,0,0.6,0,0.9c-0.2,0.5-0.6,0.6-0.9,1C590.7,47.2,590.3,47.2,589.8,47.2z"/>
	<path class="st8" d="M29.7,68.8c0.2,0,0.4,0,0.5,0c0.1-0.1,0.3-0.3,0.4-0.4c0.4,0,0.7,0,1.1,0c0.3,0.3,0.6,0.6,0.9,0.9
		c0,0.5,0,1,0,1.4c-0.3,0.3-0.6,0.6-0.9,0.9c-0.3,0-0.7,0-1.1,0c-0.4-0.4-0.8-0.8-1.2-1.4c0-0.1,0-0.4,0-0.6
		c0.1-0.1,0.2-0.3,0.4-0.4C29.7,69.2,29.7,69,29.7,68.8z"/>
</g>
</svg>
