<svg viewBox="0 0 785.5 75.1">
<style type="text/css">
	.st0{fill:#615F60;}
	.st1{fill:#787677;}
	.st2{fill:#373334;}
	.st3{fill:#2C2A2B;}
	.st4{fill:#312F30;}
	.st5{fill:#393637;}
	.st6{fill:#868485;}
	.st7{fill:#A6A5A4;}
	.st8{fill:#B5B4B3;}
	.st9{fill:#4B4749;}
	.st10{fill:#585656;}
	.st11{fill:#403F3E;}
	.st12{fill:#3D3A3B;}
	.st13{fill:#272425;}
	.st14{fill:#3F3C3D;}
	.st15{fill:#252223;}
	.st16{fill:#282526;}
	.st17{fill:#2B292A;}
	.st18{fill:#2A2728;}
	.st19{fill:#292627;}
	.st20{fill:#302D2E;}
	.st21{fill:#2E2C2D;}
	.st22{fill:#302E2F;}
	.st23{fill:#353333;}
	.st24{fill:#333031;}
	.st25{fill:#312E2F;}
	.st26{fill:#3A3738;}
	.st27{fill:#3A3838;}
	.st28{fill:#373435;}
	.st29{fill:#242122;}
	.st30{fill:#343131;}
	.st31{fill:#232021;}
	.st32{fill:#353233;}
</style>
<g>
	<path class="st0" d="M765.9,65.8c-2.2,0.6-4.8,1.4-7,1.7c-2.5,0.3-5,0-7.5,0c-242.9,0-485.6,0-728.5,0c-2.5,0-5,0-7.5,0
		c-0.6,0-0.8-1.1-1.4-1.7c1.1,0,2.2,0,3.4,0c5.9,0.3,11.7-0.3,17.1-3.4c3.4,0.3,6.4,1.4,9.2,3.1c1.1,0.6,3.9,1.7,4.5-1.4
		c1.1,0,2.2,0,3.4,0c1.7,0,3.4,0,5,0c1.1,0,2.2,0,3.4,0c4.8-1.1,8.9,2,13.7,1.7c2.8,0,5.6,0,8.7,0c0.6,0,1.1,0,1.7,0
		c3.4,0,6.7,0,10.3,0c1.7,0,3.4,0,5,0c2.8,0.8,5-1.7,7.8-1.7c3.1,0,6.2,0,9.2,0c1.1,0,2.2,0,3.4,0c8.7,3.1,17.6,1.1,26.6,1.7
		c1.4-1.7,2.8-3.4,4.2-5.3c1.7,0,3.4,0,5,0c3.1,4.5,7.5,3.4,12,3.4c2.2,0,4.5,0,6.7,0c3.4-0.3,6.7,0.6,10.3-0.6
		c-0.8-1.1-1.1-1.7-2.2-2.8c3.4,0,6.2,0,8.9,0c2.2,0,4.5,0,6.7,0c2.8,0,5.6,0,8.7,0c3.9,0,7.8,0,12,0c0,1.7,0,3.4,0,5
		c37.5,0,74.1,0,111,0c142.6,0,285.1,0,427.7,0c-0.3-0.3-0.3-0.6-0.6-0.8c0.8-0.6,2-0.8,3.1-1.7c-1.1-0.6-1.7-0.8-2.2-0.8
		c1.1-2,3.4-3.9,0.3-5.9c0.8-2,3.1-4.8,2.5-5.3c-2.5-2.8,2-3.9,0.8-6.7c-0.8-2,0.8-5,1.4-7.5c2.8-0.6,3.6-2.5,3.4-5
		c-0.3-2,0.6-3.9-1.1-5.6c-1.4-1.4-3.9-3.9-3.4-5c0.8-2.5-0.8-3.9-1.1-6.4c-2.8,0-5.6,0-8.4,0c-181.7,0-363.7,0-545.4,0
		c-3.4,0-7-0.6-10.1,0.3c-3.4,0.6-6.4-3.9-9.5-0.3c-6.2-3.4-12.6-0.8-19-1.4c-0.6,0-1.4,1.1-2.2,1.7c-3.1,0-6.2,0.6-8.7-1.7
		c0.6-0.6,0.8-1.7,1.4-1.7c2.2-0.3,4.5,0,6.7,0c197.1,0,394.4,0,591.5,0c2.5,0,5,0,6.4,0c1.4,4.8,1.7,9.2,4.2,12
		c5.9,6.7,3.4,12.9,0.6,19.6c0.3,0.3,0.8,0.8,1.4,1.4c-2,5.9-4.2,13.7-2.8,17.3C767.5,64.1,765.3,64.4,765.9,65.8z"/>
	<path class="st1" d="M765.9,65.8c-0.8-1.4,1.7-1.7,0.8-3.9c-1.7-3.6,0.6-11.5,2.8-17.3c-0.6-0.6-1.1-1.1-1.4-1.4
		c2.8-6.7,5.3-12.9-0.6-19.6c-2.5-2.8-2.5-7.3-4.2-12c-1.4,0-3.9,0-6.4,0c-197.1,0-394.4,0-591.5,0c-2.2,0-4.5,0-6.7,0
		c-0.6,0-0.8,1.1-1.4,1.7c-1.7,0-3.4,0-5,0c-5.9-0.6-12,1.1-17.6-1.4c-1.1-0.6-3.9-1.7-4.5,1.7c-3.9,0-7.5-0.6-11.2-1.4
		c-4.5-1.1-9.5-0.3-14.3-0.3c-3.9,0-7.8,0-12,0c0.6-0.6,0.8-1.7,1.4-1.7c2.5-0.3,5,0,7.5,0c218.6,0,437.5,0,656.1,0
		c2.8,0,5.6,0,8.4,0.6c5.3,1.4,5.3,1.7,8.9,7c0,2.5,0,5,0,7.5c-1.1-0.6-2-0.8-4.2-2c1.7,3.6,3.6,5.9,3.9,8.7
		c0.3,2.8-1.1,5.6-1.4,8.4c-0.3,1.4-3.1,2.8,0,4.5c-3.6,2.5-0.8,6.4-2.5,9.8c-1.7,3.1-0.6,7.5-0.8,11.5
		C768.1,65.8,767,65.8,765.9,65.8z"/>
	<path class="st2" d="M34,62.2c-5.3,3.1-11.2,3.9-17.1,3.4C16.3,59.2,18,52.2,15.2,46c0.6-0.6,1.1-1.1,2-2c-0.6-1.4-1.4-2.8-1.4-3.1
		c0.3-2.5,0.3-3.9,0.6-5.6c1.1-0.3,2.5-0.6,3.6-0.6c-0.6-2-1.1-3.6-1.7-6.2c5.9,0.3,7.3-5.3,11.7-7c1.4-5.9,6.7-6.2,11.2-7.3
		c0-1.1,0-2,0-2.8c2.5-0.3,4.8,0,6.7,1.7c-3.1,3.9-6.2,7.5-8.9,11.5c-2.5,3.9-5.3,7.8-4.8,13.1c0.3,4.5,0.3,8.9,0,13.4
		c0,1.7-1.4,3.4-1.4,5.3C32.6,58.3,33.4,60.2,34,62.2z"/>
	<path class="st3" d="M92.1,11c3.9,0,7.8,0,12,0c0.3,0.6,0.3,1.4,0.6,1.4c2.2,0.3,4.5,0,6.7,0.3c2,0.3,4.2,1.7,6.2,1.4
		c5.6-0.6,10.3,2.2,15.7,2.2c0,1.4,0,2.2,0,3.1c-1.7-0.6-3.4-1.7-5.3-1.7c-5.6-0.3-11.2,0-17.1,0c-1.1-3.6-4.5-0.8-6.4-2
		c-4.5-3.1-9.8-0.6-14.5-1.4c-5.6-0.8-9.5,2.8-14.3,4.8c-3.4,12.3-7.5,24.3-5.3,37.5c0.8,0.8,2,2,3.1,2.8c0,2,0,3.9,0,5.9
		c-4.8,0.3-8.9-2.8-13.7-1.7c1.1-2,2.5-3.9,3.9-6.2c-1.7-0.6-2.5-0.8-3.4-1.1c0.3-1.4,1.1-2.8,1.1-4.5c0.3-4.8,0-9.8,0-14.5
		c0-2.8-0.6-5.6,1.7-7.8c-1.4-3.9,4.2-4.5,3.4-7.8c-0.8-3.4,1.7-4.8,3.6-7c-0.8-0.3-1.4-0.6-1.7-0.8c-0.8-3.4-3.4-1.1-5-1.7
		c-1.1,0-2.2,0-3.4,0c0-0.6,0-1.1,0-1.7C70.6,11,81.2,11,92.1,11z"/>
	<path class="st4" d="M59.7,11c0,0.6,0,1.1,0,1.7c-3.4,3.1-7,6.2-10.3,9.2c0.8,0.8,1.1,1.1,2.2,2.2c-1.4,0.8-2.8,1.7-3.1,2
		c-0.8,5.9-1.7,10.3-2.2,14.8c-0.3,3.9-0.3,7.8,0,11.7c0.3,3.6,1.1,7.5,1.7,11.2c-0.6,3.1-3.4,2-4.5,1.4c-3.1-1.7-5.9-2.8-9.2-3.1
		c-0.6-2-1.7-3.9-1.7-6.2c0-1.7,1.4-3.4,1.4-5.3c0.3-4.5,0.3-8.9,0-13.4c-0.6-5.3,2.2-9.2,4.8-13.1c2.5-3.9,5.9-7.8,8.9-11.5
		c0.6-0.6,1.4-1.7,2-1.7C53,11,56.4,11,59.7,11z"/>
	<path class="st5" d="M41,11c0,0.8,0,1.7,0,2.8c-4.5,1.1-9.5,1.7-11.2,7.3c-4.2,1.7-5.9,7.3-11.7,7c0.6,2.5,1.1,4.2,1.7,6.2
		c-1.1,0.3-2.8,0.6-3.6,0.6c0,1.7-0.3,3.1-0.6,5.6c0.3,0.3,0.8,1.7,1.4,3.1c-0.8,0.8-1.4,1.4-2,2c2.8,6.4,1.1,13.1,1.7,19.6
		c-1.1,0-2.2,0-3.4,0c-0.6,0-1.4-0.8-2.8-2c-4.2-14.8-2.8-29.9,5.6-44.4c0.8-0.6,2.2-1.1,3.4-2.2c3.9-4.2,8.7-5.3,14-5.3
		C36,11,38.5,11,41,11z"/>
	<path class="st6" d="M769.2,65.8c0.3-3.9-0.8-8.4,0.8-11.5c2-3.4-1.1-7.5,2.5-9.8c-3.1-1.4,0-3.1,0-4.5c0.3-2.8,1.7-5.9,1.4-8.4
		s-2.2-5-3.9-8.7c2.2,0.8,3.1,1.4,4.2,2c2,3.6,4.5,7.3,3.4,12c-1.4,1.7-2.5,3.6-3.9,5.3c0.8,1.1,2,2.2,2,2.2
		c-2.5,2.5-0.3,6.4-1.7,8.4c-2.2,3.1-0.8,5.9-1.4,8.7c-0.3,1.4-1.1,2.8-1.7,4.5C770.3,65.8,769.8,65.8,769.2,65.8z"/>
	<path class="st7" d="M770.9,65.8c0.6-1.4,1.4-2.8,1.7-4.5c0.6-2.8-0.6-5.6,1.4-8.7c1.4-2-0.8-5.9,1.7-8.4c0,0-1.1-1.1-2-2.2
		c1.4-1.7,2.5-3.6,3.9-5.3c-0.6,6.2-1.1,12.6-1.7,18.7c-0.6,0.6-1.1,0.8-1.7,1.4c0.6,0.8,1.1,1.4,1.7,2.2c-0.8,2-1.7,4.2-2.5,6.7
		C773.1,65.8,772,65.8,770.9,65.8z"/>
	<path class="st8" d="M776.2,58.8c-0.6-0.8-1.1-1.4-1.7-2.2c0.6-0.6,1.1-0.8,1.7-1.4C776.2,56.6,776.2,57.7,776.2,58.8z"/>
	<path class="st9" d="M129.6,13c0.6-3.4,3.6-2,4.5-1.7c5.9,2.8,11.7,1.1,17.6,1.4c1.7,0,3.4,0,5,0c2.5,2.2,5.6,1.7,8.7,1.7
		c4.8,0.6,9.2-0.3,14,1.4c4.5,1.4,9.5,0.6,14.3,0.3c5-0.3,9.5,2,14.5,2c180.6-0.3,360.9-0.3,541.5-0.3c3.1,0,6.2,0,8.1,0
		c2.2,5.6,4.8,9.8,7.8,13.7c0.3,2.5-0.8,4.5-3.4,5c0.3-5.6-3.1-9.5-5.9-13.7c-3.9,0-7.5,0-11.5,0s-7.3,0-11.2,0c-3.6,0-7.3,0-11.2,0
		s-7.3,0-11.2,0s-7.3,0-11.2,0c-3.6,0-7.3,0-11.2,0c-3.6,0-7.3,0-11.2,0s-7.3,0-11.2,0c-3.6,0-7.3,0-11.2,0s-7.3,0-11.2,0
		s-7.3,0.3-11.2,0c-3.6-0.3-7.3,1.4-10.6-1.1c-3.4,1.7-6.7,1.4-10.1,1.1c-3.6-0.3-7.3,1.4-10.6-1.4c-3.1,2.5-6.7,1.1-10.3,1.4
		c-3.9,0.3-7.8,0-12,0c-3.9,0-7.8,0-12,0s-8.4,0-12.9,0c-3.9,0-7.8,0-12,0c-3.9,0-7.8,0-12,0c-3.9,0-7.8,0-12,0c-3.9,0-7.8,0-12,0
		s-8.7,0.3-12.9,0c-3.9-0.3-7.5,0.3-11.5-0.6c-3.4-0.8-7.3,0.6-10.9,0.8c-2.2,0.3-4.5,0-6.7,0c-2.5,0-5.3,0.6-7.5-0.3
		c-2.2-0.8-3.6-0.6-5.6,0c-2.5,0.6-5,0.3-7.5,0.3c-55.4,0-110.7,0-166.3,0c-2.8,0-5.6-0.6-8.1-0.6c-2,0-4.2-1.4-6.2,0.6
		c-2.5-3.9-4.8,0.6-7,0c-0.6,0-1.4,0-1.7-0.3c-2-2.5-4.8-1.4-7-1.4c-3.4-0.3-6.7,0-10.3,0c-3.6,0-7-0.6-10.3,0
		c-3.4,0.6-6.4-2-9.8-0.3c-3.4,1.7-6.2-1.7-9.5-1.4c-9.5,0.6-18.7-3.1-28.2-1.7c-2,0.3-3.9,0-5.9,0c-8.7,1.1-17.1-2.2-25.4-1.7
		c-0.3,0-0.8,0-0.8,0c-2.8-3.1-6.4-1.1-9.5-1.7C136.6,13.8,133,13.5,129.6,13z"/>
	<path class="st10" d="M765.9,31.7c-3.1-3.9-5.6-8.1-7.8-13.7c-2,0-5,0-8.1,0c-180.6,0-360.9,0-541.5,0.3c-5,0-9.5-2.2-14.5-2
		c-4.8,0.3-10.1,1.1-14.3-0.3c-4.8-1.7-9.2-0.8-14-1.4c0.8-0.6,1.4-1.7,2.2-1.7c6.4,0.8,12.9-2,19,1.4c3.4-3.6,6.2,1.1,9.5,0.3
		c3.4-0.6,6.7-0.3,10.1-0.3c181.7,0,363.7,0,545.4,0c2.8,0,5.6,0,8.4,0c0.3,2.2,2,3.9,1.1,6.4c-0.6,1.1,2,3.6,3.4,5
		C766.4,27.8,765.6,29.8,765.9,31.7z"/>
	<path class="st11" d="M175.7,18c2,0,3.9,0.3,5.9,0c9.5-1.1,18.7,2.5,28.2,1.7c3.4-0.3,6.2,3.1,9.5,1.4c3.4-1.7,6.4,0.8,9.8,0.3
		c3.4-0.6,6.7,0,10.3,0c3.6,0,6.7-0.3,10.3,0c2.5,0,5-1.1,7,1.4c0.3,0.3,1.1,0,1.7,0.3c2.2,0.6,4.8-4.2,7,0c2-2,3.9-0.6,6.2-0.6
		c2.8,0,5.6,0.6,8.1,0.6c55.4,0,110.7,0,166.3,0c2.5,0,5.3,0.6,7.5-0.3c2-0.6,3.4-0.8,5.6,0s5,0.3,7.5,0.3c2.2,0,4.5,0,6.7,0
		c3.6-0.3,7.5-1.7,10.9-0.8c3.9,1.1,7.8,0.6,11.5,0.6c4.2,0.3,8.4,0,12.9,0c3.9,0,7.8,0,12,0c3.9,0,7.8,0,12,0c3.9,0,7.8,0,12,0
		c3.9,0,7.8,0,12,0s8.4,0,12.9,0c3.9,0,7.8,0,12,0c3.9,0,7.8,0,12,0c3.4-0.3,7,1.1,10.3-1.4c3.1,2.8,7,1.1,10.6,1.4
		c3.4,0.3,7,0.6,10.1-1.1c3.4,2.5,7,0.8,10.6,1.1c3.6,0.3,7.3,0,11.2,0s7.3,0,11.2,0s7.3,0,11.2,0c3.6,0,7.3,0,11.2,0s7.3,0,11.2,0
		c3.6,0,7.3,0,11.2,0c3.6,0,7.3,0,11.2,0s7.3,0,11.2,0s7.3,0,11.2,0c3.6,0,7.3,0,11.2,0s7.3,0,11.5,0c2.5,4.2,6.2,8.1,5.9,13.7
		c-0.6,2.5-2.2,5.6-1.4,7.5c1.1,2.8-3.4,3.9-0.8,6.7c0.6,0.6-1.7,3.4-2.5,5.3c2.8,2,0.6,3.9-0.3,5.9c-14,0-28.2,0-42.2,0
		c-1.4,0-3.6,1.1-3.9-1.7c14.3,0,28.2,0,41.9,0c1.4-6.2,2.5-11.5,3.6-16.8c-0.3-0.6-0.8-1.4-0.8-1.4c1.1-3.6,2.8-6.4,3.1-9.5
		c0.6-3.1-2.5-7.3-4.5-7.8c-0.3,0.3-0.8,0.8-1.1,1.1c-1.1-0.6-2.2-1.1-3.1-1.7c-1.1,0.8-2,1.4-2.8,2c-1.7-0.6-3.1-1.7-4.8-1.7
		c-2.5-0.3-5-0.3-7.5,0c-2.2,0-4.8,0-6.4,0.8c-2.5,1.1-4.2-2.2-6.7-0.8c-1.4,0.8-2.8,1.1-4.5,1.7c-0.8-0.6-1.7-1.7-2.8-1.7
		c-3.1-0.3-6.4,0.6-9.2-0.3c-2.8-0.8-4.2,2.8-7.3,0.6c-2.2-1.4-6.2,0-9.2-0.3c-1.4,0-2.2,3.1-3.9,0.6c-0.3-0.6-3.1,1.4-3.9,0.8
		c-3.1-2.2-7-2-9.8-0.8c-3.6,1.4-6.4-1.7-9.8-0.3c-1.7,0.6-3.6,1.7-5.3,1.7c-2,0-4.5-2-6.2-1.4c-2.2,0.8-4.8-0.6-6.7,1.4
		c-0.6-0.6-1.1-0.8-1.7-1.4c-0.8,0.6-1.7,1.1-1.7,1.1c-3.4-0.6-6.2-2-8.1-1.1c-2,0.8-3.4,0.3-5,0.6c-2,0.6-4.2-2.2-5.9,0.6
		c-2.8-2.2-5.3-2.2-8.1,0c-2.8-2.5-5.3-1.4-7.8,0.3c-0.6,0.3-2.2,0.3-2.5,0c-1.1-2.8-3.6,0.8-5-1.4c-1.4-2.2-3.6,3.1-5.3-0.3
		c-2,2.8-3.9,0-5.3-0.3c-2-0.6-2.8,3.6-5,0.6c-0.3-0.6-3.4,1.1-5,1.1s-3.6-1.1-5.3-1.7c-0.6,0.6-1.1,1.1-2.2,2
		c-1.4-0.6-2.5-1.7-4.2-2s-3.6,1.4-4.8,0.6c-1.7-1.1-3.1,2.2-4.5-0.6c-0.3-0.6-4.2-1.1-6.2,0.8c-0.8,0.8-2.8-1.4-4.2,0.6
		c-2.2-2.2-5.6,2.2-6.7-0.8c-3.1,0.6-6.7,2-8.1,0.8c-2.8-2-5.3-1.1-8.1-1.4c-2.5-0.3-5,0-7.5,0c-2.8,0-5.6-0.3-8.4,0
		c-2.2,0.3-4.2,1.4-6.2,0c-2.2,2.8-4.8-1.4-7.3,0c-1.1,0.6-2.5,0.8-3.6,1.4c-0.8-0.3-1.7-1.1-2.8-1.4c-2.2-0.3-4.8,2-7,0
		c-2.2,2.8-5,0-7-0.3c-2.5-0.6-4.2,3.4-6.7,0.8c-0.8-0.8-2,1.7-3.6,0c-1.1-1.1-3.6-0.3-5.6-0.3c-1.7,0-3.4,0.3-5,0
		c-1.7-0.3-3.1,3.4-4.8,0.3c-0.3-0.3-2.8,1.4-4.2,1.4c-1.7,0-3.6-1.1-5.6-1.7c-0.6,0.3-1.1,1.4-1.7,1.4c-3.9,0-8.1,0.6-11.5-0.8
		s-5,1.1-7.5,1.1c-1.7-2.2-3.9-2.2-6.2-1.7c-2.5,0.6-4.8,3.4-7.3,0.3c-2.2-2.5-4.5,2.5-7-0.3c-2-2.2-3.9,1.7-6.4,0.6
		c-2.2-0.8-5-0.8-7.3-0.6c-0.8,0-1.4,2.2-3.1,0.3c-0.6-0.8-2.5,2-3.6-0.3c-2,2.2-3.6-0.3-5.3-0.3c-2.5-0.3-4.2,1.4-6.2,1.7
		c-1.7,0.3-3.6-0.8-5.3-1.7c-0.8,0.6-1.7,1.4-2.5,1.7c-1.7,0.3-4.5,0.3-4.8-0.3c-1.4-2.8-3.4,1.7-4.5-0.6c-0.3-0.3-3.4,1.1-3.9,0.8
		c-2-2.5-4.8,0-5.3-0.3c-2.5-2-5-0.8-7.3-1.1c-3.1-0.3-6.2,0-9.5,0c-3.1,0-6.2,0-9.5,0c-3.4,0-6.7-0.3-10.3,0
		c-2.8,0.3-6.2,2-8.4,0.8c-3.1-1.4-6.2-0.8-8.9-0.8c-17.6-0.3-35.2,0-52.8,0c-3.4,0-6.7,0-10.3,0c-0.3-0.6-0.3-1.4-0.6-1.4
		c-3.9-0.3-7.8,0-11.7-0.3s-8.1-1.7-12-1.4c-7.3,0.6-14-2.5-21.2-2.2C176,19.4,176,18.6,175.7,18z"/>
	<path class="st12" d="M711.3,60.5c0.3,2.8,2.5,1.7,3.9,1.7c14,0,28.2,0,42.2,0c0.6,0.3,0.8,0.3,2.2,0.8c-1.4,0.6-2.2,1.1-3.1,1.7
		c0.3,0.3,0.3,0.6,0.6,0.8c-142.6,0-285.1,0-427.7,0c0-1.1,0-2,0-3.4c3.4,0,6.2,0,8.9,0c0.6,0,0.8-1.1,1.4-1.7c2,1.7,4.5,2,7,1.7
		c16.5-0.6,33,1.7,49.5-1.7c1.7,3.6,5,1.7,7.3,1.7c90.6,0,181.1,0,272,0c2,0,3.9,0,5.9,0c0.6,0,0.8-1.1,1.4-1.7
		C692,60.5,701.6,60.5,711.3,60.5z"/>
	<path class="st13" d="M119.5,64.1c-1.1,0-2.2,0-3.4,0c-3.1,0-6.2,0-9.2,0c-2.8,0-4.8,2.5-7.8,1.7c0-0.8,0-1.7,0-2.5
		c1.7-1.1,3.4-2.2,4.8-3.1c-1.7-2.2-3.1-3.9-4.2-5c1.4-4.8,2.2-8.7,0-12.3c1.1-3.6,2.8-7.3,2.8-10.6c0-4.5,5-6.4,3.9-10.1
		c2.5-0.8,4.5-2.2,6.7-2.2c2,0,3.9,1.4,6.2,1.4c9.2,0.8,18.2,1.1,27.4,2c0.8,0,1.4,1.1,2.2,1.7c-3.9,0-7.8,0-12,0
		c-6.4,1.1-12.3-2-18.7-1.7c-0.6,0-1.4,0.6-2.2,1.1c1.1,2.2,2,3.9,2.5,5.3c1.4,0.6,2.2,1.1,3.9,2c-1.7,2-3.1,3.4-4.2,4.5
		c-0.3,3.1,0,6.4-0.8,8.9c-1.1,3.6-1.7,6.4,0.3,9.8C119,57.1,118.7,60.8,119.5,64.1z"/>
	<path class="st14" d="M339.5,60.5c-0.6,0.6-0.8,1.7-1.4,1.7c-2.8,0.3-5.6,0-8.9,0c0,1.4,0,2.2,0,3.4c-36.9,0-73.5,0-111,0
		c0-2,0-3.6,0-5c1.1-1.7,2.2-3.4,3.4-5c2.2,0,4.5,0,6.7,0c2.5,2.5,5.9,3.9,8.9,5.3c6.7-2,12.6-4.2,19.3-3.6c4.8,0.3,9.5,0,14.5,0
		c3.9,2.5,8.1,3.6,13.1,3.4C302.6,60.5,321.1,60.5,339.5,60.5z"/>
	<path class="st15" d="M119.5,64.1c-0.6-3.1-0.3-6.7-2-9.2c-2.2-3.6-1.7-6.4-0.3-9.8c0.8-2.8,0.6-5.9,0.8-8.9
		c1.1-1.4,2.5-2.5,4.2-4.5c-1.7-0.8-2.5-1.1-3.9-2c-0.6-1.1-1.4-3.1-2.5-5.3c0.8-0.3,1.4-1.1,2.2-1.1c6.4-0.3,12.3,2.8,18.7,1.7
		c-8.1,9.5-7.3,21-6.7,32.4c4.2,0,8.1,0,12,0c0.6,0,0.8-1.1,1.4-1.7c1.7,0,3.4,0,5,0c0.6,1.7-1.7,4.2,1.7,5
		c-1.4,1.7-2.8,3.4-4.2,5.3C137.1,65.3,128.2,66.9,119.5,64.1z"/>
	<path class="st16" d="M148.3,24.7c-0.8-0.6-1.4-1.7-2.2-1.7c-9.2-0.6-18.2-1.1-27.4-2c-2-0.3-4.2-1.7-6.2-1.4c-2,0-3.9,1.4-6.7,2.2
		c1.1,3.6-3.9,5.6-3.9,10.1c0,3.6-1.7,7-2.8,10.6c2.2,3.6,1.7,7.5,0,12.3c0.8,1.1,2.5,3.1,4.2,5c-1.1,0.8-2.8,2-4.8,3.1
		c0,0.8,0,1.7,0,2.5c-1.7,0-3.4,0-5,0c0.3-1.4,0.8-3.1,1.1-4.5c-0.6-1.1-1.4-2.2-2-3.9c-0.3-1.1,0-2.5-0.3-3.6
		c-0.3-2-0.8-3.6-0.8-5.6c0-1.7,0.8-3.1,0.8-4.8c0-1.4-1.1-3.4-0.8-3.9c2-2,1.4-3.9,1.7-6.2c0.3-2.5-0.6-4.8,0.8-7.3
		c1.1-1.7,0.8-4.2,1.1-6.4c2.8,0,5.6,0,8.4,0c0.6,0,0.8-1.1,1.4-1.7c1.7,0,3.4,0,5,0c5.6,0,11.2,0,17.1,0c1.7,0,3.4,1.1,5.3,1.7
		c3.9,0,7.8-0.3,11.7,0s7.8,0.8,11.7,1.7c2,0.6,4.8,0.6,5.6,3.4h-11.2C150,24.7,149.2,24.7,148.3,24.7z"/>
	<path class="st17" d="M110.9,18c-1.7,0-3.4,0-5,0c-1.1,0-2.2,0-3.4,0c0-0.3,0-0.8,0-0.8c-7-2.2-13.7-0.8-19.8,2.5
		c-1.1,7.3-2.2,14-3.6,21.2c0.3,0.8,1.1,2.2,1.1,3.9c0.3,2,0.3,3.9,0,5.9c0,1.7-0.6,3.1-0.8,4.8c-0.3,1.4-0.3,2.8-0.3,5.3
		c0.6,1.1,3.6,2,2.8,5c-2.8,0-5.6,0-8.7,0c0-2,0-3.9,0-5.9c-1.1-0.8-2-2-3.1-2.8c-2.2-13.1,2-25.2,5.3-37.5c4.8-2,8.7-5.6,14.3-4.8
		c4.8,0.8,10.1-1.7,14.5,1.4C106.4,17.2,109.8,14.4,110.9,18z"/>
	<path class="st18" d="M81.8,65.8c0.8-3.1-2.2-4.2-2.8-5c0-2.5,0-3.9,0.3-5.3c0.3-1.7,0.6-3.1,0.8-4.8c0-2,0.3-3.9,0-5.9
		c-0.3-1.4-0.8-3.1-1.1-3.9c1.1-7.3,2.2-14,3.6-21.2c6.2-3.4,12.9-4.8,19.8-2.5c0,0,0,0.6,0,0.8c-3.9,0-7.8,0-12,0
		c0,3.6,0,6.7,0,9.5c-1.1,0.6-2.2,0.8-3.1,1.1c-0.6,4.2-1.1,8.1-1.4,11.2c0.6,3.1,0.8,5.6,1.1,7.8c0.3,2.5-0.3,5,0.3,7.5
		c0.6,2.2-2.8,4.2,0,6.4c-1.1,0.6-2.2,1.1-3.4,1.7c0,0.8,0,1.7,0,2.5C82.9,65.8,82.4,65.8,81.8,65.8z"/>
	<path class="st19" d="M83.5,65.8c0-0.8,0-1.7,0-2.5c1.1-0.6,2.2-1.1,3.4-1.7c-2.8-2.2,0.6-4.2,0-6.4c-0.6-2.5,0-5-0.3-7.5
		c-0.3-2.2-0.6-4.8-1.1-7.8c0.3-3.1,0.8-7,1.4-11.2c0.8-0.3,1.7-0.6,3.1-1.1c0-3.1,0-5.9,0-9.5c4.2,0,8.1,0,12,0c1.1,0,2.2,0,3.4,0
		c-0.6,0.6-0.8,1.7-1.4,1.7c-2.8,0.3-5.6,0-8.4,0c-0.3,2.2,0,4.8-1.1,6.4c-1.7,2.5-0.6,4.8-0.8,7.3c-0.3,2.2,0.6,4.5-1.7,6.2
		c-0.6,0.6,0.8,2.5,0.8,3.9c0,1.7-0.8,3.1-0.8,4.8c0,2,0.6,3.6,0.8,5.6c0,1.1,0,2.5,0.3,3.6c0.6,1.4,1.4,2.8,2,3.9
		c-0.6,1.7-0.8,3.1-1.1,4.5C90.5,65.8,87.1,65.8,83.5,65.8z"/>
	<path class="st20" d="M63.1,13c1.7,0.6,4.2-1.7,5,1.7c-3.9-0.8-5,4.2-8.4,4.2c0.6,0.6,1.1,1.1,1.7,1.7c-0.6,0.6-1.1,1.1-1.7,1.7
		c0.6,0.6,1.1,1.1,1.7,1.7c-1.1,1.1-2,2-3.4,3.4c-0.6,4.5-1.1,9.5-1.7,14.3c-0.6,5,1.4,10.3-2.2,16.8c1.1,0.3,3.1,0.8,4.5,1.4
		c-1.1,2-1.7,3.1-2.2,4.2c-1.7,0-3.4,0-5,0c-0.3-2.5,1.1-5.6-1.7-7.8c3.4-6.7,0.8-13.7,1.7-20.4C52.4,26.7,55.5,18.6,63.1,13z"/>
	<path class="st21" d="M56.4,64.1c0.6-1.1,1.1-2.2,2.2-4.2c-1.7-0.6-3.4-1.1-4.5-1.4c3.6-6.4,1.7-11.7,2.2-16.8
		c0.6-4.8,1.1-9.5,1.7-14.3c1.1-1.1,2.2-2.2,3.4-3.4c-0.6-0.6-1.1-1.1-1.7-1.7c0.6-0.6,1.1-1.1,1.7-1.7c-0.6-0.6-1.1-1.1-1.7-1.7
		c3.6,0,4.5-5,8.4-4.2c0.6,0.3,0.8,0.3,1.7,0.8c-1.7,2-4.2,3.6-3.6,7c0.8,3.4-4.8,4.2-3.4,7.8c-2,1.7-1.4,4.5-1.4,7.3
		c0,4.8,0,9.8,0,14.5c0,1.4-0.8,2.8-1.1,4.5c0.8,0.3,1.7,0.6,3.4,1.1c-1.4,2.2-2.5,4.2-3.9,6.2C58.6,64.1,57.5,64.1,56.4,64.1z"/>
	<path class="st22" d="M63.1,13c-7.5,5.6-10.6,14-12,22.9c-0.8,6.7,1.7,14-1.7,20.4c2.8,2.2,1.4,5,1.7,7.8c-1.1,0-2.2,0-3.4,0
		c-0.6-3.6-1.4-7.5-1.7-11.2c-0.3-3.9-0.3-7.8,0-11.7c0.3-4.5,1.4-9.2,2.2-14.8c0.3-0.3,1.7-1.1,3.1-2c-0.8-0.8-1.4-1.4-2.2-2.2
		c3.4-3.1,7-6.2,10.3-9.2C60.8,13,61.9,13,63.1,13z"/>
	<path class="st21" d="M191.1,60.5c-2.8,0-5.6,0-8.9,0c0.8,1.1,1.4,1.7,2.2,2.8c-3.6,1.1-7,0.3-10.3,0.6c-0.6-0.6-1.4-1.4-2-1.7
		c-1.7-0.3-3.1,0-4.8,0c-1.1-0.3-2.2-0.3-3.4-0.6c0-0.3,0-0.8,0-1.1c3.4,0,6.7,0,10.1,0c3.6,0.3,7.3,0.3,10.3-2.8c0-0.8,0-1.7,0-2.5
		c3.4,0,6.7,0,10.3,0c-0.3,1.4,0.8,3.6-2.2,3.4C191.9,59.1,191.4,59.9,191.1,60.5z"/>
	<path class="st18" d="M174,60.5c-3.4,0-6.7,0-10.1,0c0,0.3,0,0.8,0,1.1c1.1,0.3,2.2,0.3,3.4,0.6c0,0.6,0,1.1,0,1.7
		c-4.2,0-8.9,0.8-12-3.4c2.2,0,4.5,0,6.4,0c0.6-1.4,0.8-2.5,1.1-3.4c0.8,0.6,1.4,1.1,2,1.7c1.4-1.1,2.8-2.2,4.2-3.4
		c2.8,0,5.6,0,8.7,0C176.3,57.1,175.2,58.8,174,60.5z"/>
	<path class="st15" d="M168.7,55.5c-1.4,1.1-2.8,2.2-4.2,3.4c-0.6-0.6-1.1-1.1-2-1.7c-0.3,1.1-0.6,2-1.1,3.4c-2,0-4.2,0-6.4,0
		c-1.7,0-3.4,0-5,0c-3.4-0.8-1.1-3.4-1.7-5c1.7,0,3.4,0,5,0c0.3,0.6,0.3,0.8,0.6,1.4c0.3-0.6,0.8-0.8,1.1-1.4c3.9,0,7.8,0,12,0
		C167.6,55.5,168.2,55.5,168.7,55.5z"/>
	<path class="st23" d="M221.9,55.5c-1.1,1.7-2.2,3.4-3.4,5c-3.9,0-7.8,0-12,0c1.1-0.8,2.2-1.7,3.1-2.5c-0.6-0.8-0.8-1.7-1.4-2.5
		c2.8,0,5.6,0,8.7,0C218.2,55.5,220.2,55.5,221.9,55.5z"/>
	<path class="st24" d="M208.2,55.5c0.6,0.8,1.1,1.7,1.4,2.5c-0.8,0.8-2,1.7-3.1,2.5c-2.8,0-5.6,0-8.7,0c0.6-0.6,0.8-1.7,1.4-1.7
		c2.8,0,2-2,2.2-3.4c1.1,0,2.2,0,3.4,0C205.9,55.5,207,55.5,208.2,55.5z"/>
	<path class="st25" d="M201.2,55.5c-0.3,1.4,0.8,3.6-2.2,3.4c-0.6,0-0.8,1.1-1.4,1.7c-2.2,0-4.5,0-6.7,0c0.6-0.6,0.8-1.7,1.4-1.7
		c2.8,0,2-2,2.2-3.4C196.7,55.5,198.9,55.5,201.2,55.5z"/>
	<path class="st17" d="M167.1,64.1c0-0.6,0-1.1,0-1.7c1.7,0,3.4-0.3,4.8,0c0.8,0,1.4,1.1,2,1.7C171.8,64.1,169.6,64.1,167.1,64.1z"
		/>
	<path class="st26" d="M162,24.7c-0.8-2.8-3.6-2.8-5.6-3.4c-3.9-0.8-7.8-1.4-11.7-1.7c-3.9-0.3-7.8,0-11.7,0c0-0.8,0-1.7,0-3.1
		c-5.3,0-10.1-2.8-15.7-2.2c-2,0.3-3.9-1.1-6.2-1.4c-2.2-0.3-4.5-0.3-6.7-0.3c-0.3,0-0.3-0.8-0.6-1.4c4.8,0,9.8-0.8,14.3,0.3
		c3.9,0.8,7.5,1.4,11.2,1.4c3.4,0.6,7,1.1,10.3,1.7c3.1,0.6,6.7-1.4,9.5,1.7c0,0,0.6,0,0.8,0c8.7-0.6,16.8,2.8,25.4,1.7
		c0.3,0.6,0.3,1.4,0.6,1.4c7.3-0.3,14,2.8,21.2,2.2c3.9-0.3,7.8,1.1,12,1.4c3.9,0.3,7.8,0.3,11.7,0.3c0.3,0,0.3,0.8,0.6,1.4
		c-3.4,0-6.7,0-10.1,0c-3.6,0-7-0.6-10.3,0.3c0,1.4,0,2.2,0,3.1c-4.5-0.6-8.9-0.3-13.7-1.4c-6.2-1.4-13.1-1.1-19,1.7
		C165.4,25.8,165.4,25.8,162,24.7z"/>
	<path class="st27" d="M339.5,60.5c-18.5,0-36.9,0-55.1,0c-4.8,0-8.9-0.8-13.1-3.4c0.3-0.6,0.3-1.4,0.6-1.4c7.3-0.8,14.8-2,22.1-2
		c19.8-0.3,39.7,0,59.5,0c1.7,0,3.6,0.6,5,0c2.2-1.1,2.5,2,5,1.1c2-0.8,5-1.4,7.5-1.1c3.4,0.3,6.7-0.3,10.3,0
		c6.2,0.6,12.6-1.7,18.7,1.4c6.2-3.1,12.6-0.8,19-1.4c2-0.3,4.2,0.8,6.2,1.4c2.8-3.1,6.2-1.4,9.5-1.7s6.7,0,10.3,0
		c3.4,0,6.7-0.3,10.3,0c3.1,0.3,6.4,1.1,9.5,1.7c2.2-4.5,6.4,1.4,8.9-1.7c3.1,2.5,5.9-0.6,8.9,0c3.4,0.6,6.7,0,10.3,0
		c3.4,0,6.7-0.3,10.3,0c3.1,0.3,6.7-1.7,9.5,1.7c3.1-3.4,7-1.1,10.3-1.7c3.4-0.3,6.7,0,10.3,0s7.8-0.8,10.9,0.3
		c3.6,1.4,6.4-1.1,9.8-0.3c3.6,0.6,7.3,0,11.2,0.3c3.4,0,6.4,0.6,9.8,0.8c3.1,0.3,6.4-3.1,9.2,0.8c3.1-3.4,7-1.4,10.3-1.7
		c3.9-0.3,7.8,0,12,0c3.6,0,7.3,0,11.2,0s7.8,0,12,0c3.6,0,7.3,0,11.2,0s7.3,0,11.2,0s7.8,0,12,0c3.6,0,7.3,0,11.2,0
		c3.6,0.3,7.3,0.8,10.9,0.8s7-0.8,10.6-0.8c3.6-0.3,7.3,0,11.2,0s7.8,0,12,0c3.6,0,7.5-0.8,10.9,0.3c3.9,1.4,7-0.8,10.6-0.3
		c3.6,0.6,7.3,0,10.3,0c1.1-2.5,2.2-4.2,2.5-6.4c0.3-1.1,1.4-3.6-1.7-3.9c0-0.6,0-1.1,0-1.7c0.3-1.4-0.8-3.4,1.7-3.4
		c2.2,0,1.4-2,1.7-3.1s0.8-2.2,1.1-2.8c-0.8-1.7-1.1-3.1-2-4.5c-1.1,0-2.5,0-3.9,0c-78.3,0-156.3,0-234.5,0c-1.7,0-3.4,0-5,0
		c-0.6,0-0.8,1.1-1.4,1.7c-0.6,0-1.1,0-1.7,0c0-1.1,0-2.2,0-2.5c-3.4,0.3-6.2,0.8-9.2,0.8c-69.9,0-139.8,0-209.4,0
		c-2.5,0-5-0.3-7.5,0c-1.7,0.3-3.4-3.1-5.3-0.6c-1.4-3.9-4.2,2-5.9-0.8c-2.5,2-4.5-0.8-7-0.6c-3.1,0.3-6.2,0-9.2,0
		c-6.7,0-13.7,0-20.4,0c-0.8,0-1.4-1.1-2.2-1.7c17.6,0,35.2,0,52.8,0c3.1,0,5.9-0.6,8.9,0.8c2.2,1.1,5.6-0.8,8.4-0.8
		c3.4-0.3,6.7,0,10.3,0c3.1,0,6.2,0,9.5,0c3.1,0,6.2-0.3,9.5,0c2.5,0.3,5-0.8,7.3,1.1c0.6,0.6,3.4-2.2,5.3,0.3
		c0.3,0.6,3.6-1.1,3.9-0.8c1.1,2.5,3.4-2.2,4.5,0.6c0.3,0.8,3.1,0.6,4.8,0.3c0.8,0,1.7-1.1,2.5-1.7c2,0.6,3.6,1.7,5.3,1.7
		c2-0.3,3.6-2,6.2-1.7c1.7,0.3,3.4,2.5,5.3,0.3c1.1,2.2,2.8-0.6,3.6,0.3c1.7,2,2.2-0.3,3.1-0.3c2.5-0.3,5.3-0.3,7.3,0.6
		c2.5,1.1,4.5-2.5,6.4-0.6c2.5,2.8,4.8-2.2,7,0.3c2.8,3.1,4.8,0.3,7.3-0.3c2-0.6,4.5-0.6,6.2,1.7c2.5-0.3,4.2-2.5,7.5-1.1
		c3.4,1.4,7.5,0.6,11.5,0.8c0.6,0,1.1-0.8,1.7-1.4c2,0.6,3.6,1.7,5.6,1.7c1.4,0,4.2-1.7,4.2-1.4c2,3.1,3.1-0.6,4.8-0.3
		c1.7,0.3,3.4,0,5,0c2,0,4.8-0.6,5.6,0.3c1.7,1.7,2.8-0.6,3.6,0c2.5,2.5,3.9-1.4,6.7-0.8c2,0.3,4.8,3.4,7,0.3c2.2,2,4.8,0,7,0
		c0.8,0,2,0.8,2.8,1.4c1.1-0.6,2.5-0.8,3.6-1.4c2.5-1.4,4.8,2.8,7.3,0c2,1.7,4.2,0.3,6.2,0c2.8-0.3,5.6,0,8.4,0c2.5,0,5-0.3,7.5,0
		s5.3-0.6,8.1,1.4c1.7,1.1,5-0.6,8.1-0.8c1.1,3.1,4.8-1.1,6.7,0.8c1.1-2,3.1,0.6,4.2-0.6c2-2,5.9-1.4,6.2-0.8
		c1.4,2.8,3.1-0.6,4.5,0.6c1.1,0.6,3.1-0.8,4.8-0.6c1.4,0.3,2.8,1.1,4.2,2c0.8-0.8,1.4-1.4,2.2-2c1.7,0.6,3.6,1.7,5.3,1.7
		s4.5-1.7,5-1.1c2.2,2.8,3.1-1.1,5-0.6c1.4,0.6,3.4,3.1,5.3,0.3c1.7,3.4,3.9-2,5.3,0.3c1.4,2,3.9-1.7,5,1.4c0,0.3,1.7,0.3,2.5,0
		c2.5-1.7,5.3-2.8,7.8-0.3c2.8-2.2,5.3-2.2,8.1,0c1.7-3.1,4.2,0,5.9-0.6s3.4,0.3,5-0.6s4.5,0.6,8.1,1.1c0,0,0.8-0.6,1.7-1.1
		c0.6,0.6,1.1,0.8,1.7,1.4c2-1.7,4.5-0.3,6.7-1.4c1.4-0.6,3.9,1.4,6.2,1.4c1.7,0,3.6-0.8,5.3-1.7c3.4-1.4,6.2,1.7,9.8,0.3
		c2.8-0.8,6.4-1.4,9.8,0.8c0.8,0.6,3.6-1.1,3.9-0.8c2,2.5,2.5-0.6,3.9-0.6c3.1,0.3,7-1.1,9.2,0.3c3.1,2.2,4.8-1.4,7.3-0.6
		c2.8,0.8,6.2,0,9.2,0.3c0.8,0,1.7,1.1,2.8,1.7c1.4-0.6,3.1-1.1,4.5-1.7c2.5-1.4,3.9,2,6.7,0.8c2-0.8,4.2-0.6,6.4-0.8
		c2.5,0,5-0.3,7.5,0c1.4,0.3,3.1,1.1,4.8,1.7c0.8-0.6,1.7-1.1,2.8-2c0.8,0.6,2,1.1,3.1,1.7c0.3-0.3,0.8-0.8,1.1-1.1
		c2,0.6,4.8,5,4.5,7.8c-0.6,3.1-2,5.9-3.1,9.5c0,0,0.6,0.8,0.8,1.4c-1.1,5.3-2.2,10.6-3.6,16.8c-13.4,0-27.7,0-41.9,0
		c-9.8,0-19.3,0-29.1,0c-95.6,0-190.9,0-286.5,0c-16.5,3.4-33,1.1-49.5,1.7C344,62.5,341.5,62.2,339.5,60.5z"/>
	<path class="st28" d="M231.9,24.7c0.8,0.6,1.4,1.7,2.2,1.7c6.7,0,13.7,0,20.4,0c3.1,0,6.2,0.3,9.2,0c2.5-0.3,4.5,2.5,7,0.6
		c1.7,2.5,4.5-3.1,5.9,0.8c2-2.5,3.4,0.6,5.3,0.6c2.5-0.3,5,0,7.5,0c69.9,0,139.8,0,209.4,0c2.8,0,5.9-0.6,9.2-0.8
		c0,0.3,0,1.4,0,2.5c-2.2,0-4.5-0.6-6.2,1.7c-1.7-2.5-3.9-1.7-6.2-1.7c-7.5,0.6-15.4-1.7-22.9,1.4c-1.1-2.2-2.5,0-3.6-0.3
		c-6.2-1.7-6.2-1.7-13.1,0.3c-1.1,0.3-2.5,0.6-3.4,0c-1.7-1.4-2.8-2.2-5-0.6c-0.8,0.6-3.4-1.1-5-1.1c-9.2,0.8-18.5-2-27.4,1.4
		c-2.5-3.9-5.9,1.1-8.9-1.1c-1.4-1.1-5-0.3-7.3,0.6c-2.8,0.8-4.8-2-7.3-0.6c-1.1,0.6-2.2,1.4-2,1.1c-3.6-0.3-5.6-0.8-7.5-0.6
		c-0.8,0-1.4,1.4-2.5,0.3c-0.6-0.3-2,0.6-3.1,0.8c-1.4,0.6-2-3.1-3.9-0.6c-0.6,0.6-3.1,0-4.5-0.3s-3.6-1.1-3.9-0.8
		c-1.7,2.8-3.1-0.3-4.8,0c-2.2,0.3-4.5,0.8-6.7,0.8s-5-1.1-6.2-0.3c-2.5,2-3.6-1.4-5.9-0.8c-1.7,0.3-2.8,4.2-4.8,1.1
		c-1.4-2.2-3.4,2.5-4.2-0.8c-2.5,1.7-5.6-1.4-7.8,1.4c0-2.2-1.7-1.7-3.1-1.7c-2.5,0-5.3,0.6-7.5-0.3c-2-0.6-3.1,2.5-5.6,0.6
		c-1.7-1.1-4.8-0.6-7.3-0.6c-8.7,0-17.3,0-26,0c-3.4,0-6.7,0-10.3,0c-2.8,0-5.6,0-8.7,0c-10.1,0.6-19.8-2.8-29.6-1.7
		c-0.8,0-2-0.8-2.8-1.1c-5-1.1-10.1-0.8-15.9,0c1.4,0.6,2,0.8,2.5,1.1c-0.3,2.5-2.2,1.4-3.4,1.7c-1.7-0.6-4.2,1.7-5-1.7
		c0-0.8,0-1.7,0-3.1c3.4-0.8,7-0.3,10.3-0.3c3.4,0,6.7,0,10.1,0C225.2,24.7,228.6,24.7,231.9,24.7z"/>
	<path class="st14" d="M395.7,60.5c95.6,0,190.9,0,286.5,0c-0.6,0.6-0.8,1.7-1.4,1.7c-2,0.3-3.9,0-5.9,0c-90.6,0-181.1,0-272,0
		C400.8,62.2,397.4,64.4,395.7,60.5z"/>
	<path class="st29" d="M148.3,24.7c0.8,0,1.7,0,2.5,0H162c0,1.1,0,2,0,3.6c-5.3-0.8-10.3,1.1-14.8-1.7c-0.6,0.6-1.7,1.1-1.7,1.7
		c-0.8,4.5-1.7,8.9-2.2,13.4c-0.3,4.5,0,8.9,0,13.4c-0.6,0.6-0.8,1.7-1.4,1.7c-3.9,0-7.8,0-12,0c-0.6-11.5-1.7-22.9,6.7-32.4
		C140.5,24.7,144.4,24.7,148.3,24.7z"/>
	<path class="st2" d="M752.2,43.5c2.8,0.3,1.7,2.5,1.7,3.9c-0.3,2-1.4,3.9-2.5,6.4c-3.4,0-7,0.6-10.3,0c-3.6-0.6-6.7,1.7-10.6,0.3
		c-3.4-1.1-7.3-0.3-10.9-0.3c-3.9,0-7.8,0-12,0c-3.6,0-7.3,0-11.2,0c-3.6,0.3-7,0.8-10.6,0.8s-7.3-0.8-10.9-0.8
		c-3.6-0.3-7.3,0-11.2,0s-7.8,0-12,0c-3.6,0-7.3,0-11.2,0s-7.3,0-11.2,0s-7.8,0-12,0c-3.6,0-7.3,0-11.2,0s-8.1-0.3-12,0
		c-3.4,0.3-7.3-1.7-10.3,1.7c-2.8-3.6-6.2-0.6-9.2-0.8c-3.4-0.3-6.4-0.8-9.8-0.8c-3.6-0.3-7.5,0.6-11.2-0.3
		c-3.4-0.6-6.2,1.7-9.8,0.3c-3.4-1.1-7.3-0.3-10.9-0.3c-3.4,0-6.7-0.3-10.3,0c-3.4,0.3-7.3-1.7-10.3,1.7c-2.8-3.4-6.4-1.4-9.5-1.7
		c-3.4-0.3-6.7,0-10.3,0c-3.4,0-7,0.3-10.3,0c-3.1-0.6-5.9,2.5-8.9,0c-2.5,3.1-6.7-2.8-8.9,1.7c-3.1-0.6-6.4-1.4-9.5-1.7
		c-3.4-0.3-6.7,0-10.3,0c-3.4,0-6.7-0.3-10.3,0c-3.1,0.3-6.7-1.4-9.5,1.7c-2-0.6-4.2-1.7-6.2-1.4c-6.4,0.6-12.9-2-19,1.4
		c-6.2-2.8-12.6-0.8-18.7-1.4c-3.4-0.3-6.7,0.3-10.3,0c-2.8-0.3-5.6,0.3-7.5,1.1c-2.5,0.8-2.8-2.5-5-1.1c-1.4,0.8-3.4,0-5,0
		c-19.8,0-39.7-0.3-59.5,0c-7.3,0-14.8,1.1-22.1,2c-0.3,0-0.3,0.8-0.6,1.4c-4.8,0-9.5,0.3-14.5,0c-6.7-0.6-12.9,1.7-19.3,3.6
		c-3.1-1.4-6.2-2.8-8.9-5.3c1.7,0,3.4,0.3,4.8,0c0.8,0,1.4-1.1,2-1.7c1.7,0,3.4,0,5,0c6.4,1.1,12.3-2,18.7-1.7
		c2.8-2.8,6.7-0.8,10.1-2.2c2.5-1.1,4.8-2.2,7.3-2.8c2.8-0.6,5.6,0,8.4,0c55.6,0,111.5,0,167.2,0c3.4,0.3,7,1.7,10.1,0.8
		c3.6-0.8,6.7-1.1,9.8,0.6c3.4-3.1,7.5-0.8,11.5-1.4c3.6-0.3,7.5-0.6,11.2,0c3.4,0.6,6.2-1.7,9.8-0.3c3.4,1.1,7.3,0.3,10.9,0.3
		c3.6,0,7.3,0,11.2,0c3.6,0,7.3,0,11.2,0s7.8,0,12,0c3.6,0,7.3,0,11.2,0c3.6,0,7.3,0,11.2,0c1.4,0.3,3.1,0.8,5,1.4
		c2.5-1.1,10.1-1.4,15.1-1.4c5.6,0,11.5,1.4,17.1-1.1c5.6,2.8,11.5,0.8,17.3,1.1s12,0,17.9,0c5.6,0,11.5,0,17.1,0c5.9,0,12,0,17.9,0
		s12,0,17.9,0s12,0,17.9,0s12,0,17.9,0s11.7,0,17.9,0C750.8,45.7,751.6,44.6,752.2,43.5z"/>
	<path class="st30" d="M235.3,53.8c-0.6,0.6-1.4,1.4-2,1.7c-1.7,0.3-3.1,0-4.8,0c-2.2,0-4.5,0-6.7,0c-1.7,0-3.4,0-5,0
		c0-0.6,0-1.1,0-1.7c0.6,0,1.1,0,1.7,0c4.5,0,9.2,0,13.7,0C233,53.8,234.2,53.8,235.3,53.8z"/>
	<path class="st31" d="M143.3,55.5c0-4.5-0.3-8.9,0-13.4s1.4-8.9,2.2-13.4c0-0.6,1.1-1.1,1.7-1.7c4.5,2.8,9.5,0.8,14.8,1.7
		c0-1.4,0-2.5,0-3.6c3.4,0.8,3.4,0.8,6.4,3.6c6.2-2.8,12.9-3.1,19-1.7c4.8,1.1,9.2,0.8,13.7,1.4c0.8,3.4,3.4,1.1,5,1.7
		c0,2,0,3.9,0,6.2c-0.8,0.8-1.7,1.4-2.8,2.5c-5.9-0.6-12,0-16.8,4.5c-2.2,2.5-4.8,5-5.9,6.4c-5.6,1.1-9.8,2-13.7,2.8
		c0,1.7,0,2.5,0,3.4c-3.9,0-7.8,0-12,0c-0.6,0-1.1,0-1.7,0c-1.7,0-3.4,0-5,0C146.7,55.5,145,55.5,143.3,55.5z"/>
	<path class="st13" d="M167.1,55.5c0-0.8,0-1.7,0-3.4c3.9-0.8,8.1-1.7,13.7-2.8c1.1-1.4,3.6-3.9,5.9-6.4c4.8-4.5,10.9-5,16.8-4.5
		c1.1-1.1,2-2,2.8-2.5c0-2,0-3.9,0-6.2c1.4-0.3,3.4,0.8,3.4-1.7c1.7,0.6,4.2-1.7,5,1.7c-1.1,0.3-2.2,0.3-3.4,0.6c0,0.3,0,0.6,0,0.8
		c4.2,0,8.4,0,12.6,0c1.4,2,2.8,3.6,4.2,5.3c-2,0-3.9,0-5.9,0c-5.3-0.3-9.2,1.7-13.1,5c-1.7,0-3.4,0-5.3,0c0.3,1.7,0.6,2.5,0.8,3.6
		c0.8-0.8,1.4-1.4,2.2-2c0.8,1.1,1.7,2.2,2.2,3.4c-1.1,2.8-2.5,5-5,6.7c0,0.6,0,1.1,0,1.7c-1.1,0-2.2,0-3.4,0c-2.2,0-4.5,0-6.7,0
		c-3.4,0-6.7,0-10.3,0c-2.2,0-4.5,0-6.7,0c-2.8,0-5.6,0-8.7,0C168.2,55.5,167.6,55.5,167.1,55.5z"/>
	<path class="st17" d="M177.4,55.5c2.2,0,4.5,0,6.7,0c0,0.8,0,1.7,0,2.5c-2.8,2.8-6.4,2.8-10.3,2.8
		C175.2,58.8,176.3,57.1,177.4,55.5z"/>
	<path class="st15" d="M153.6,55.5c0.6,0,1.1,0,1.7,0c-0.3,0.6-0.8,0.8-1.1,1.4C153.9,56.3,153.6,56,153.6,55.5z"/>
	<path class="st20" d="M204.8,55.5c0-0.6,0-1.1,0-1.7c3.9,0,7.8,0,12,0c0,0.6,0,1.1,0,1.7c-2.8,0-5.6,0-8.7,0
		C207,55.5,205.9,55.5,204.8,55.5z"/>
	<path class="st23" d="M571.3,47.1c-3.6,0-7.3,0-11.2,0c-3.6,0-7.3,0-11.2,0s-7.8,0-12,0c-3.6,0-7.3,0-11.2,0c-3.6,0-7.3,0-11.2,0
		c-3.6,0-7.8,0.8-10.9-0.3c-3.6-1.4-6.4,1.1-9.8,0.3c-3.6-0.6-7.3-0.6-11.2,0c-3.9,0.3-7.8-1.7-11.5,1.4c-3.1-1.7-6.2-1.7-9.8-0.6
		c-3.1,0.8-6.7-0.6-10.1-0.8c0-2.2,2-1.7,3.1-1.7c12.3,0,24.3,0,36.6,0c0.3,0,0.8-0.6,1.1-0.8c-2-0.8-3.9-2-5.6-2.8
		c-0.8,0.8-1.4,1.4-2.5,2.2c-1.1-0.6-2-1.1-3.1-2c-0.3,0.3-0.8,1.1-1.1,1.1c-2,0.3-3.9,0.3-5.9,0.3c-2.2,0-5.6,0.8-6.4-0.6
		c-2.5-2.5-3.4,2-4.8,0.6c-1.7-1.7-3.6-2.5-5.9-1.1c-2.2,1.7-3.6-1.4-5.6-0.8c-2.2,0.6-4.5,0-6.7,0.3c-1.1,0-2.5,1.1-3.1,0.6
		c-3.4-2.5-6.2,0.3-9.2,1.1c-0.8-0.8-1.4-1.4-2-2c-3.4,3.4-6.4,1.4-9.8,0c-2.8,3.4-5.9,1.4-8.4-0.3c-1.4,0.8-2.5,1.7-3.6,2.2
		c-0.8-0.8-1.7-1.4-2.5-2.2c-4.2,3.1-9.2,2.5-14,1.1c-2.2-0.6-4.5,2-6.4-0.6c-6.2,2.8-12.9,0.6-19,1.4c-1.4,0.3-2.2-3.4-4.2-0.6
		c-0.3,0.3-2.8-1.1-4.2-1.1s-3.1,1.4-4.5,1.4c-1.7,0-3.6-1.1-3.6-1.1c-7,1.4-12.6,2.5-18.2-0.8c1.4-2,2.5-3.4,3.6-4.8
		c12.6,0,24.9,0,37.5,0c19.8,0,39.7,0,59.5,0c2.2,0,4.5-0.8,6.2,1.7c0.3-0.3,0.3-0.3,0.6-0.6s0.3-0.3,0.6-0.6
		c0.3-0.3,0.3-0.3,0.6-0.6c0.3,0,0.6,0,0.8,0s0.6,0,0.8,0s0.6,0,0.8,0c18.5,0,36.9,0,55.4,0c1.7,0,3.4,0,5,0c0.3,0,0.6,0,0.8,0
		c0.6,0,1.1,0,1.7,0c0.3,0,0.6,0,0.8,0c0.6,0.3,0.8,0.8,1.1,1.1c0.3,0.3,0.6,0.3,0.6,0.3c0.3,0,0.3-0.3,0.6-0.6
		c0.6-0.3,0.8-0.6,1.4-0.8c0.3,0,0.6,0,0.8,0c0.3,0,0.6,0,0.8,0c0.6,0,1.1,0,1.7,0c79.7,0,159.6,0,239.3,0c0,0.6,0,1.1,0,1.7
		c-2.5,0.3-1.4,2.2-1.7,3.4c-2.2,0.3-5.3-0.6-6.4,0.8c-2.2,2.5-3.6-0.6-5.6,0c-1.1,0.3-2.8-0.8-3.9-0.6c-1.4,0.3-2.8,1.4-4.5,1.4
		c-1.1,0-2.5-0.6-3.9-1.1c-3.1-1.7-5.9-0.3-8.4,1.1c-3.1-2-6.4-2.2-10.1-1.1c-2,0.6-4.5,1.4-6.7,1.1c-1.4-0.3-2.8-1.4-4.5-1.7
		c-1.4,0-2.8,1.1-4.2,0.8c-2.2-0.6-4.8,2.2-7-0.8c-0.3-0.3-2.8,0.3-3.6,1.1c-1.4,1.1-2.2-2.2-3.9,0c-0.8,1.1-3.6,0.6-5.6,0.6
		c-1.7,0-4.2,0.6-5-0.3c-2-2.8-3.1,0.8-4.8,0.3c-1.7-0.8-3.6-1.1-5.3-1.7c-0.8,0.6-1.7,1.4-2.5,2c-1.4-0.6-2.5-1.7-3.6-2
		c-1.4-0.3-2.8-0.3-4.2,0c-7,2-6.7,2-13.4,0.6c-1.4-0.3-2.8-0.3-4.5-0.3c-2-0.3-4.2,0.8-6.2,1.4c-0.6-0.6-1.1-1.1-1.4-1.1
		c-2,0.6-3.4,1.1-4.8,1.1c-1.1,0-2.2-0.6-3.1-0.8c-2.5-0.8-5.6,2.5-7.8-0.8c-2.8,2-5.6,0-8.4,0s-5.6-1.1-8.1,0.8
		c-1.1,0.8-3.1-1.7-4.2,0.6c0,0.3-1.4,0.3-1.7-0.3c-1.7-2-3.1-2.2-4.8,0c-1.7-2-3.1,0.3-4.5,0.3c-2-0.3-4.2-1.1-5.9-1.4
		c-1.1,0.6-2,1.4-2.8,2c-1.1-0.8-2-1.4-3.1-2.2c-0.6,0.3-1.4,0.6-2,1.1c-0.8,0.3-1.4,0.6-2,1.1c-1.1-0.8-2-1.4-2-1.4
		c-3.6,0.6-6.4,0.3-8.7,1.4c-2.8,1.4-3.9-2.5-6.7-0.8c-2,1.4-5.3,0.6-8.1,0.6s-5.6,0-8.4,0c1.4,1.4,3.1,1.7,4.5,1.7
		c12.3,0,24.3,0,36.6,0C569.6,45.4,571.3,44.6,571.3,47.1z"/>
	<path class="st30" d="M753.8,36.7c-79.7,0-159.6,0-239.3,0c-0.6,0-1.1,0-1.7,0c-0.3,0-0.6,0-0.8,0c-0.3,0-0.6,0-0.8,0
		c-0.6,0.3-0.8,0.6-1.4,0.8c-0.3,0.3-0.3,0.6-0.6,0.6l-0.6-0.3c-0.6-0.3-0.8-0.8-1.1-1.1c-0.3,0-0.6,0-0.8,0c-0.6,0-1.1,0-1.7,0
		c-0.3,0-0.6,0-0.8,0c-1.7,0-3.4,0-5,0c-18.5,0-36.9,0-55.4,0c-0.3,0-0.6,0-0.8,0c-0.3,0-0.6,0-0.8,0s-0.6,0-0.8,0s-0.6,0.3-0.6,0.6
		c-0.3,0.3-0.3,0.3-0.6,0.6c-0.3,0.3-0.3,0.3-0.6,0.6c-1.4-2.5-3.9-1.7-6.2-1.7c-19.8,0-39.7,0-59.5,0c-12.6,0-24.9,0-37.5,0
		c-3.9,0-7.8,0-12,0c0.6-0.8,1.1-1.7,1.4-2.5c-0.6-0.8-0.8-1.7-1.4-2.5c2.2-2.8,5.6,0.3,7.8-1.4c0.8,3.1,2.8-1.4,4.2,0.8
		c2,3.1,3.4-0.8,4.8-1.1c2.2-0.6,3.4,2.8,5.9,0.8c1.1-0.8,4.2,0.3,6.2,0.3c2.2,0,4.5-0.6,6.7-0.8c1.4-0.3,2.8,3.1,4.8,0
		c0.3-0.3,2.5,0.6,3.9,0.8c1.7,0.3,3.9,1.1,4.5,0.3c2-2.5,2.8,0.8,3.9,0.6c1.1-0.3,2.8-1.4,3.1-0.8c1.1,1.1,1.7,0,2.5-0.3
		c2-0.3,3.9,0.3,7.5,0.6c-0.3,0.3,0.8-0.6,2-1.1c2.5-1.1,4.8,1.7,7.3,0.6c2.2-0.8,5.6-1.7,7.3-0.6c3.1,2.2,6.7-2.8,8.9,1.1
		c8.9-3.4,18.5-0.6,27.4-1.4c1.7,0,4.2,1.7,5,1.1c2.2-2,3.4-0.8,5,0.6c0.6,0.6,2.2,0.3,3.4,0c7.3-2.2,7.3-2,13.1-0.3
		c1.1,0.3,2.5-2.2,3.6,0.3c7.5-3.1,15.4-0.8,22.9-1.4c2-0.3,4.5-0.8,6.2,1.7c1.7-2.2,3.9-1.4,6.2-1.7c0.6,0,1.1,0,1.7,0
		c9.5,0.3,19,0.3,28.8,0.6c0.3,0,0.8,0.8,1.1,0.8c7.3-4.5,15.1,1.4,22.1-1.4c1.1-0.6,2.8,0.8,4.5,1.7c2.5-2,5-2.8,7.8-0.3
		c2.8-3.1,5.9-1.4,8.7-0.3c3.1-2.8,7-0.8,10.6-1.4c1.4-0.3,3.4-0.6,4.2,0c2.5,2,5.6,2.8,7.5,0.8c2.8-2.5,5,0.6,7-0.3
		c2.8-1.1,5-1.7,7.8,0.3c0.3,0,2.5,0,4.2,0c0.6,0,1.1-0.6,1.1-0.8c1.4,0.8,2,1.1,3.1,1.7c1.7-2.2,3.6-2.8,6.4-1.7
		c1.4,0.6,3.6-0.6,5.6-0.6c2.2,0.3,4.8,0.8,7.3,1.4c0.3-0.3,0.8-1.4,1.7-1.4c5.6-0.3,11.5-0.3,17.1,0c3.9,0.3,8.9,0.3,12.6,0
		c2.2-0.3,4.5,0.6,7,0.8c0.8-0.3,1.7-0.8,2.5-1.4c0.8,0.8,1.4,1.4,2.2,2c0.6-0.6,1.1-1.1,2-1.7c2,0.8,3.9,1.1,5.9,0.8
		c2.5-0.3,5-0.6,7.5-0.8c2.5-0.3,5.3,0.3,7.5-0.3c2.8-0.6,4.8,2.2,7.3,0.6c2.8-1.7,4.5,0.3,7.3,1.4c2-2.5,3.9-2.5,7-0.8
		c1.4,0.8,4.5-0.3,6.7-1.4c2.5-1.4,4.8,3.1,7.3,0c0.6,0.6,1.1,1.1,1.7,1.7c0.6-0.6,1.1-1.1,1.7-1.4c0.8,0.8,1.7,1.7,2.5,2.5
		C753.8,33.9,753.8,35.3,753.8,36.7z"/>
	<path class="st32" d="M571.3,47.1c0-2.2-2-1.7-3.1-1.7c-12.3,0-24.3,0-36.6,0c-1.7,0-3.1-0.3-4.5-1.7c2.8,0,5.6,0,8.4,0
		s6.2,0.6,8.1-0.6c2.8-1.7,3.9,2.2,6.7,0.8c2.2-1.1,5.3-0.8,8.7-1.4c0,0,0.8,0.6,2,1.4c0.6-0.3,1.4-0.6,2-1.1c0.8-0.3,1.4-0.8,2-1.1
		c1.1,0.8,2,1.4,3.1,2.2c0.8-0.6,1.7-1.1,2.8-2c2,0.6,3.9,1.4,5.9,1.4c1.4,0,2.8-2,4.5-0.3c1.7-2,3.1-2,4.8,0
		c0.3,0.3,1.4,0.3,1.7,0.3c1.1-2.2,3.1,0.3,4.2-0.6c2.5-2,5.3-0.8,8.1-0.8s5.6,2,8.4,0c2.2,3.1,5.3,0,7.8,0.8
		c1.1,0.3,2.2,0.8,3.1,0.8c1.4,0,3.1-0.6,4.8-1.1c0.3,0,0.8,0.6,1.4,1.1c2-0.6,4.2-1.7,6.2-1.4c1.4,0.3,3.1,0,4.5,0.3
		c6.4,1.4,6.4,1.4,13.4-0.6c1.4-0.3,2.8-0.3,4.2,0c1.1,0.3,2.2,1.1,3.6,2c0.8-0.6,1.7-1.4,2.5-2c1.7,0.6,3.6,1.1,5.3,1.7
		s2.8-3.1,4.8-0.3c0.6,0.8,3.1,0.3,5,0.3c2,0,4.8,0.6,5.6-0.6c1.7-2.2,2.5,1.4,3.9,0c0.8-0.8,3.4-1.4,3.6-1.1c2,2.8,4.8,0,7,0.8
		c1.1,0.3,2.8-0.8,4.2-0.8c1.4,0.3,2.8,1.4,4.5,1.7c2.2,0.3,4.8-0.6,6.7-1.1c3.6-1.1,7-0.8,10.1,1.1c2.8-1.4,5.3-2.8,8.4-1.1
		c1.1,0.6,2.5,1.1,3.9,1.1c1.4-0.3,2.8-1.4,4.5-1.4c1.4-0.3,2.8,0.8,3.9,0.6c2-0.6,3.4,2.5,5.6,0c1.1-1.1,4.2-0.6,6.4-0.8
		c0,0.6,0,1.1,0,1.7c-0.8,1.1-1.4,2.2-2.2,3.4c-6.2,0-12,0-17.9,0s-12,0-17.9,0s-12,0-17.9,0s-12,0-17.9,0s-12,0-17.9,0
		c-5.6,0-11.5,0-17.1,0c-5.9,0-12,0.3-17.9,0s-11.7,1.4-17.3-1.1c-5.6,2.5-11.5,1.1-17.1,1.1c-5,0-12.6,0.3-15.1,1.4
		C574.4,47.6,573,47.4,571.3,47.1z"/>
	<path class="st28" d="M753.8,36.7c0-1.4,0-2.8,0-4.2c-0.8-0.8-1.7-1.7-2.5-2.5c-0.6,0.6-1.1,1.1-1.7,1.4c-0.6-0.6-1.1-1.1-1.7-1.7
		c-2.5,3.1-4.5-1.4-7.3,0c-2,1.1-5.3,2.2-6.7,1.4c-3.1-2-5-1.7-7,0.8c-2.5-1.1-4.5-3.1-7.3-1.4c-2.5,1.7-4.8-1.4-7.3-0.6
		c-2.5,0.6-5,0-7.5,0.3s-5,0.6-7.5,0.8c-2,0.3-3.9-0.3-5.9-0.8c-0.6,0.6-1.4,1.1-2,1.7c-0.6-0.6-1.1-1.1-2.2-2
		c-0.8,0.6-1.7,0.8-2.5,1.4c-2.2-0.3-4.8-1.1-7-0.8c-3.4,0.3-8.7,0.3-12.6,0c-5.6-0.3-11.2,0-17.1,0c-0.6,0-1.1,1.1-1.7,1.4
		c-2.5-0.6-5-1.4-7.3-1.4c-2,0-4.2,1.1-5.6,0.6c-2.8-1.4-4.8-0.6-6.4,1.7c-1.1-0.6-2-1.1-3.1-1.7c-0.3,0-0.6,0.8-1.1,0.8
		c-1.4,0-3.9,0.3-4.2,0c-2.5-2.2-5-1.4-7.8-0.3c-2,0.8-4.2-2.2-7,0.3c-2,1.7-5,1.1-7.5-0.8c-0.8-0.6-2.8-0.3-4.2,0
		c-3.6,0.6-7.3-1.4-10.6,1.4c-2.8-1.1-5.9-3.1-8.7,0.3c-2.8-2.5-5.3-1.7-7.8,0.3c-1.7-0.6-3.4-2-4.5-1.7c-7.3,2.8-15.1-3.1-22.1,1.4
		c-0.3-0.3-0.6-0.8-1.1-0.8c-9.5-0.3-19-0.3-28.8-0.6c0.6-0.6,0.8-1.7,1.4-1.7c1.7-0.3,3.4,0,5,0c78.3,0,156.3,0,234.5,0
		c1.4,0,2.8,0,3.9,0c0.6,1.4,1.1,2.8,2,4.5c-0.3,0.6-0.8,1.7-1.1,2.8c-0.3,1.1,0.6,3.1-1.7,3.1C753.8,37.9,753.8,37.3,753.8,36.7z"
		/>
	<path class="st30" d="M274.7,30c8.7,0,17.3,0,26,0c2.5,0,5.6-0.8,7.3,0.6c2.5,2,3.6-1.1,5.6-0.6c2.2,0.6,5,0,7.5,0.3
		c1.1,0,3.1-0.6,3.1,1.7c-1.7,0.8-3.9,0.3-5,0.8c-2.8,2-4.5,0-6.4-0.6c-1.1,1.1-2,2-3.1,3.1c-1.1-1.1-2.2-2.2-3.6-3.4
		c-4.2,0-8.4,0-12.6,0c-5,0-10.3,0-15.4,0c-0.6,0-1.1,0-1.7,0s-1.1,0-1.7,0C274.7,31.2,274.7,30.6,274.7,30z"/>
	<path class="st20" d="M214.9,30c-0.8-3.4-3.4-1.1-5-1.7c-0.6-0.3-0.8-0.3-2.5-1.1c5.9-1.1,10.9-1.1,15.9,0c1.1,0.3,2,1.1,2.8,1.1
		c10.1-1.1,19.8,2.2,29.6,1.7c0,0.6,0,1.1,0,1.7c-4.5,0-9.2,0-13.7,0c-1.1,0-2.2,0-3.4,0c-0.6-0.6-1.4-1.4-2-1.7
		c-1.7-0.3-3.1,0-4.8,0s-3.4,0-5,0c-2.2,0-4.5,0-6.7,0c-0.6-0.6-0.8-1.1-1.4-1.7c-0.8,0.6-1.4,1.1-2.2,1.7C216,30,215.4,30,214.9,30
		z"/>
	<path class="st24" d="M274.7,30c0,0.6,0,1.1,0,1.7c-3.4,0-6.7,0-10.3,0c0-0.6,0-1.1,0-1.7C267.7,30,271.3,30,274.7,30z"/>
	<path class="st4" d="M264.3,30c0,0.6,0,1.1,0,1.7c-2.8,0-5.6,0-8.7,0c0-0.6,0-1.1,0-1.7C258.8,30,261.5,30,264.3,30z"/>
	<path class="st32" d="M324.2,36.7c3.9,0,7.8,0,12,0c-1.1,1.4-2.2,3.1-3.6,4.8c5.6,3.4,10.9,2.2,18.2,0.8c0.3,0,2,1.1,3.6,1.1
		c1.4,0,2.8-1.4,4.5-1.4c1.4,0,3.6,1.4,4.2,1.1c2-2.5,2.5,0.8,4.2,0.6c6.4-0.8,12.9,1.4,19-1.4c2,2.2,4.2,0,6.4,0.6
		c4.8,1.4,9.8,2,14-1.1c0.8,0.8,1.7,1.4,2.5,2.2c1.1-0.6,2.2-1.4,3.6-2.2c2.5,1.4,5.6,3.4,8.4,0.3c3.4,1.4,6.4,3.4,9.8,0
		c0.6,0.6,1.1,1.1,2,2c2.8-0.8,5.6-3.6,9.2-1.1c0.6,0.3,2-0.6,3.1-0.6c2.2,0,4.8,0.3,6.7-0.3c2.2-0.6,3.4,2.2,5.6,0.8
		c2.2-1.4,4.2-0.6,5.9,1.1c1.7,1.4,2.5-3.1,4.8-0.6c1.1,1.1,4.2,0.6,6.4,0.6c2,0,3.9,0,5.9-0.3c0.6,0,0.8-0.8,1.1-1.1
		c1.1,0.6,2.2,1.4,3.1,2c0.8-0.8,1.7-1.4,2.5-2.2c1.7,0.8,3.6,1.7,5.6,2.8c-0.3,0.3-0.8,0.8-1.1,0.8c-12.3,0-24.3,0-36.6,0
		c-1.1,0-3.1-0.6-3.1,1.7c-55.6,0-111.5,0-167.2,0c0-1.1,0-2.2,0-3.4c-4.5,0-8.4,0-12.3,0s-7.8,0.6-11.5-1.1
		c2.2-0.6,4.5-0.6,6.4-0.6c2-0.3,3.6-0.6,5.6-1.1c1.7-0.6,3.4,2.5,5.6,0c0.8-0.8,3.6,0,6.7,0c0.3,0,1.7-0.8,3.1-1.7
		c0-0.8,0-1.7,0-2.5c3.4,0,6.7,0,10.3,0C307.1,36.7,315.5,36.7,324.2,36.7z"/>
	<path class="st30" d="M288.4,36.7c0,0.8,0,1.7,0,2.5c-1.4,0.8-2.8,1.4-3.1,1.7c-3.1,0-5.9-0.8-6.7,0c-2.2,2.5-3.6-0.6-5.6,0
		c-1.7,0.6-3.6,0.8-5.6,1.1c-2.2,0.3-4.2,0-6.4,0.6c3.6,1.4,7.5,0.8,11.5,1.1c3.9,0,7.8,0,12.3,0c0,1.4,0,2.2,0,3.4
		c-2.8,0-5.6-0.3-8.4,0c-2.5,0.6-4.8,1.7-7.3,2.8c-3.1,1.4-7.3-0.6-10.1,2.2c-6.2-0.3-12.3,2.8-18.7,1.7c1.1-0.8,2.2-1.7,3.4-2.8
		c0-1.4,0-2.8,0-4.2c0.6,0,1.1,0,1.7,0c4.8,0.6,8.9-2,13.4-3.4c-2.8,0-5.6,0-8.1,0c-0.6,0-1.1,0-1.7,0c-0.6-0.3-0.8-0.3-1.4-0.6
		c5-2.8,5-2.8,14.5-3.1c0.6-1.1,1.1-2.2,2-4.5c1.4,2,2,3.1,3.1,4.8c0.8-1.4,2-2.5,2.5-3.4c3.9,0,7,0,10.1,0
		C282.5,36.7,285.3,36.7,288.4,36.7z"/>
	<path class="st4" d="M243.9,47.1c0,1.4,0,2.8,0,4.2c-1.1,0.8-2.2,1.7-3.4,2.8c-1.7,0-3.4,0-5,0c-1.1,0-2.2,0-3.4,0
		c-0.3-2.5,0-4.8,1.7-6.7c2.2,0,4.5,0,6.7,0C241.7,47.1,242.8,47.1,243.9,47.1z"/>
	<path class="st20" d="M233.6,47.1c-1.7,2-2,4.5-1.7,6.7c-4.5,0-9.2,0-13.7,0c0.6-0.8,1.1-1.7,1.7-2.8c-1.1-0.6-2.2-0.8-3.1-1.4
		c0.6-0.8,1.1-2,1.7-2.8c0.6,0,1.1,0,1.7,0c3.1-0.6,6.7,1.7,8.9-1.1C230.8,46.2,232.2,46.5,233.6,47.1z"/>
	<path class="st3" d="M218.2,47.1c-0.6,0.8-1.1,1.7-1.7,2.8c1.1,0.6,2.2,0.8,3.1,1.4c-0.6,0.8-1.1,2-1.7,2.8c-0.6,0-1.1,0-1.7,0
		c-3.9,0-7.8,0-12,0c2.5-1.7,4.2-3.9,5-6.7C212.6,47.1,215.4,47.1,218.2,47.1z"/>
	<path class="st18" d="M214.9,30c0.6,0,1.1,0,1.7,0c1.1,0,2.2,0,3.4,0c2.2,0,4.5,0,6.7,0c0.8,3.4,3.4,1.1,5,1.7c2.2,0,4.5,0,6.7,0
		c1.1,0,2.2,0,3.4,0c0,1.7,0,3.4,0,5c-0.6,0-1.1,0-1.7,0c-3.9,0-7.8,0-12,0c-1.4-1.7-2.8-3.4-4.2-5.3c-4.2,0-8.4,0-12.6,0
		c0-0.3,0-0.6,0-0.8C212.9,30.3,213.7,30,214.9,30z"/>
	<path class="st18" d="M209.8,41.8c3.6-3.4,7.8-5.6,13.1-5c2,0,3.9,0,5.9,0c0.6,1.1,0.8,2,1.4,3.1c-2.2,1.4-5.3-1.4-6.4,2.2
		c-0.8-0.6-1.7-1.1-2.5-1.4C217.7,43.2,213.5,41.2,209.8,41.8z"/>
	<path class="st18" d="M218.2,47.1c-2.8,0-5.6,0-8.7,0c-0.8-1.1-1.4-2.2-2.2-3.4c-0.8,0.6-1.4,1.1-2.2,2c-0.3-1.1-0.6-2-0.8-3.6
		c2,0,3.6,0,5.3,0c0.8,0.6,1.4,1.7,2.2,1.7c2.8,0.3,5.3,0.3,8.1,0.3c0,1.4,0,2.2,0,3.1C219.3,47.1,218.8,47.1,218.2,47.1z"/>
	<path class="st24" d="M324.2,36.7c-8.7,0-17.1,0-25.7,0c-1.4-1.1-2.5-2.2-3.9-3.4c-0.6-0.6-0.8-1.1-1.4-1.7c4.2,0,8.4,0,12.6,0
		c1.1,1.1,2.2,2.2,3.6,3.4c1.1-1.1,2-2,3.1-3.1c2,0.8,3.9,2.5,6.4,0.6c0.8-0.6,3.4,0,5-0.8c0.6,0.8,1.1,1.7,1.4,2.5
		C325,35.1,324.7,35.9,324.2,36.7z"/>
	<path class="st20" d="M243.9,47.1c-1.1,0-2.2,0-3.4,0c0.6-0.8,1.1-1.7,1.7-2.8c-1.1-0.6-2.2-0.8-3.4-1.4c2.5-1.1,4.8-2.2,7-3.4
		c0-0.8,0-1.7,0-2.5c2.8,0,5.6,0.6,7.8-1.4c0.8,0.6,1.1,0.8,1.7,1.4c0.8-0.8,1.7-1.7,2.2-2.2c-0.6-0.8-1.1-1.7-1.7-2.8
		c2.8,0,5.6,0,8.7,0c3.4,0,6.7,0,10.3,0c0.3,0.6,0.3,0.8,0.6,1.4c0.3-0.6,0.8-0.8,1.1-1.4c0.6,0,1.1,0,1.7,0c0.6,1.7,1.1,3.4,1.7,5
		c-3.1,0-6.2,0-10.1,0c-0.6,0.8-1.7,2.2-2.5,3.4c-1.1-1.4-1.7-2.8-3.1-4.8c-0.8,2.2-1.4,3.4-2,4.5c-9.5,0.3-9.5,0.3-14.5,3.1
		c0.6,0.3,0.8,0.3,1.4,0.6c0.3,0.6,0.3,0.8,0.6,1.4c0.3-0.6,0.8-0.8,1.1-1.4c2.8,0,5.6,0,8.1,0c-4.5,1.4-8.7,4.2-13.4,3.4
		c-0.3-0.6-0.3-0.8-0.6-1.4C244.8,46,244.2,46.5,243.9,47.1z M245.6,42.9c0-0.3,0-0.3,0-0.6c-0.6,0-1.1,0-1.7,0c0,0.3,0,0.3,0,0.6
		C244.5,42.9,245.1,42.9,245.6,42.9z"/>
	<path class="st4" d="M279.7,36.7c-0.6-1.7-1.1-3.4-1.7-5c5,0,10.3,0,15.4,0c0.6,0.6,0.8,1.1,1.4,1.7c1.1,1.1,2.5,2.2,3.9,3.4
		c-3.4,0-6.7,0-10.3,0C285.3,36.7,282.5,36.7,279.7,36.7z"/>
	<path class="st4" d="M276.4,31.7c-0.3,0.6-0.8,0.8-1.1,1.4c-0.3-0.6-0.3-0.8-0.6-1.4C275.2,31.7,275.8,31.7,276.4,31.7z"/>
	<path class="st3" d="M256,31.7c0.6,0.8,1.1,1.7,1.7,2.8c-0.8,0.8-1.4,1.4-2.2,2.2c-0.3-0.3-0.8-0.6-1.7-1.4c-2.2,2.2-5,1.4-7.8,1.4
		c-1.1,0-2.2,0-3.4,0c0-1.7,0-3.4,0-5C246.7,31.7,251.2,31.7,256,31.7z"/>
	<path class="st3" d="M238.9,31.7c-2.2,0-4.5,0-6.7,0c0-0.6,0-1.1,0-1.7c1.7,0,3.4-0.3,4.8,0C237.5,30,238.1,31.2,238.9,31.7z"/>
	<path class="st3" d="M231.9,30c0,0.6,0,1.1,0,1.7c-1.7-0.6-4.2,1.7-5-1.7C228.6,30,230.2,30,231.9,30z"/>
	<path class="st3" d="M220.2,30c-1.1,0-2.2,0-3.4,0c0.8-0.6,1.4-1.1,2.2-1.7C219.1,28.6,219.6,29.2,220.2,30z"/>
	<path class="st20" d="M250.6,43.5c-0.3,0.6-0.8,0.8-1.1,1.4c-0.3-0.6-0.3-0.8-0.6-1.4C249.5,43.5,250.1,43.5,250.6,43.5z"/>
	<path class="st20" d="M243.9,47.1c0.3-0.6,0.8-0.8,1.1-1.4c0.3,0.6,0.3,0.8,0.6,1.4C245.1,47.1,244.5,47.1,243.9,47.1z"/>
	<path class="st20" d="M242.3,36.7c1.1,0,2.2,0,3.4,0c0,0.8,0,1.7,0,2.5c-2.2,1.1-4.5,2.2-7,3.4c1.4,0.6,2.5,1.1,3.4,1.4
		c-0.6,0.8-1.1,2-1.7,2.8c-2.2,0-4.5,0-6.7,0c0-1.1,0-2,0-3.4c-3.4,0-6.2,0-8.9,0c-0.6,0-0.8-1.1-1.4-1.7c5.9,0,11.7,0.3,17.1-2.8
		c0-0.8,0-1.7,0-2.5C241.1,36.7,241.7,36.7,242.3,36.7z"/>
	<path class="st3" d="M223.5,41.8c0.6,0.6,0.8,1.7,1.4,1.7c2.8,0.3,5.6,0,8.9,0c0,1.4,0,2.2,0,3.4c-1.4-0.3-2.8-0.8-4.8-1.1
		c-2.2,2.8-5.9,0.6-8.9,1.1c0-0.8,0-1.7,0-3.1c-2.5,0-5.3,0-8.1-0.3c-0.8,0-1.4-1.1-2.2-1.7c3.6-0.6,7.8,1.4,10.9-1.4
		C221.6,40.9,222.7,41.2,223.5,41.8z"/>
	<path class="st3" d="M240.6,36.7c0,0.8,0,1.7,0,2.5c-5.3,3.1-11.2,2.8-17.1,2.8c1.1-3.6,4.2-0.6,6.4-2.2c-0.3-0.8-0.8-2-1.4-3.1
		C232.5,36.7,236.7,36.7,240.6,36.7z"/>
	<path class="st30" d="M245.6,42.9c-0.6,0-1.1,0-1.7,0c0-0.3,0-0.3,0-0.6c0.6,0,1.1,0,1.7,0C245.6,42.6,245.6,42.9,245.6,42.9z"/>
</g>
</svg>
