<svg viewBox="0 0 522 31">
<style type="text/css">
	.st0{fill:#B04498;}
</style>
<g id="Layer_1_xA0_Image_1_">
</g>
<path class="st0" d="M192.5,5.8c20.1,0,37.2-0.4,54.4,0.6c9.7,0.4,19.4,1.2,28.9,3.7c8.9,2.3,18.2,2.3,27.3,2.5
	c19.8,0.6,39.9,0.4,59.7,0c19.8-0.4,39.5-1,59.3-1.9c20.5-0.8,41.1-1.9,61.6-2.9c10.1-0.6,20.3-1.2,30.4-1.9
	c2.1-0.2,2.7,0.6,2.7,2.5c0,3.1,0.2,6.2,0.6,9.1c0.2,1.2-0.2,1.7-1.7,1.9c-15.1,0.8-30,1.7-45.1,2.5c-23.8,1.4-47.7,2.3-71.5,3.3
	c-19.8,0.6-39.5,1-59.3,1.4c-11.8,0.2-23.6,0-35.1-0.2C294,26.2,283,26,272.5,23.5c-8.9-2.3-17.8-2.9-26.7-3.3
	c-20-0.8-40.1-0.8-59.9-0.4C163,20.2,140,21,117.1,21.7c-15.3,0.4-30.8,1.2-46.1,1.9c-20.5,1-40.9,2.1-61.4,3.3
	c-1.2,0-2.3,0-3.5,0.2c-1,0-1.4-0.4-1.4-1.4c-0.2-3.3-0.2-6.8-0.6-10.1c-0.2-1.4,0.4-1.9,1.9-1.9c15.9-0.8,32-1.7,48-2.5
	c28.7-1.4,57.3-2.7,86-3.5C158.4,6.6,177,6.2,192.5,5.8z"/>
</svg>
