<svg viewBox="0 0 571.5 112.5">
<style type="text/css">
	.st0{fill:#DACB23;}
	.st1{fill:#F9F7E1;}
	.st2{fill:#EDE695;}
	.st3{fill:#E5DB67;}
	.st4{fill:#E0D345;}
	.st5{fill:#FAF8E3;}
	.st6{fill:#F4F0C0;}
</style>
<g id="Layer_1_xA0_Image_1_">
</g>
<path class="st0" d="M36,31.6c13,0.6,25.8,1,38.9,1.7c19.4,1,38.9,1.9,58.5,3.3c13.4,1,26.7,1.7,40.1,2.7
	c16.7,1.2,33.3,2.5,49.8,3.7c11.8,0.8,23.8,1.7,35.6,2.7c13.8,1,27.9,2.3,41.8,3.3c11.2,0.8,22.3,1.7,33.7,2.7
	c13.6,1,27.1,2.3,40.7,3.3c12.8,1,25.4,2.1,38.2,3.1c14.5,1.2,28.9,2.5,43.4,3.7c12,1,23.8,2.1,35.8,3.1c13.6,1.2,27.5,2.5,41.1,3.7
	c4.5,0.4,9.3,0.8,13.8,1.2c2.1,0.2,2.7,0.8,2.5,2.9c-0.4,3.1-0.6,6.2-0.8,9.3c0,1.2-0.6,1.4-1.7,1.4c-18.4-1-37-2.1-55.4-3.3
	c-12.2-0.6-24.2-1.4-36.4-2.1c-17.4-1-34.7-2.3-52.1-3.3c-11-0.6-21.9-1.4-32.9-2.1c-16.1-1-32.2-2.3-48.4-3.3
	c-10.1-0.6-20.5-1.4-30.6-2.1c-15.5-1-31.2-2.3-46.7-3.3c-12.2-0.8-24.2-1.7-36.4-2.7c-14.5-1-28.9-2.3-43.4-3.3
	c-11-0.8-21.7-1.7-32.7-2.7c-14.1-1.2-28.1-2.5-42.2-3.9c-11.8-1-23.8-2.3-35.6-3.5c-12.2-1.4-24.4-2.9-36.6-4.3
	c-1-0.2-2.1-0.2-3.3-0.2c0-2.1,0-3.9,0-6c0.6-2.1-0.2-4.3,1-6.4c1,0,2.1,0,2.9,0c1.2,0.6,2.5,0.2,3.7,0.2s2.5,0,3.7,0
	c1.4,0,2.9,0,4.3,0c0.8,0,1.7,0,2.7,0C33.9,31.4,34.9,31.2,36,31.6z"/>
<path class="st1" d="M15.5,31.2c-0.4,2.1,0,4.3-1,6.4c0-1.9,0-3.7,0-5.8C14.5,31,15.1,31.2,15.5,31.2z"/>
<path class="st2" d="M30.4,31.6c-1.4,0-2.9,0-4.5,0c-0.2,0-0.2-0.2-0.2-0.2c0-0.2,0.2-0.2,0.2-0.2c1.4,0,2.9,0,4.5,0
	C30.6,31.2,30.6,31.4,30.4,31.6C30.6,31.6,30.6,31.6,30.4,31.6z"/>
<path class="st3" d="M26.1,31.2c0,0.2,0,0.2,0,0.4c-1.2,0-2.7,0-3.9,0c-0.2,0-0.2-0.2-0.2-0.2c0-0.2,0.2-0.2,0.2-0.2
	C23.4,31.2,24.6,31.2,26.1,31.2z"/>
<path class="st4" d="M21.9,31.2c0,0.2,0,0.4,0,0.4c-1.2-0.2-2.5,0.4-3.5-0.4C19.7,31.2,20.9,31.2,21.9,31.2z"/>
<path class="st5" d="M36,31.6c-1,0-2.1,0-2.9,0c-0.2,0-0.2-0.2-0.2-0.2l0.2-0.2c1,0,2.1,0,2.9,0C36,31.4,36,31.4,36,31.6z"/>
<path class="st6" d="M32.9,31.2c0,0.2,0,0.2,0,0.4c-0.8,0-1.7,0-2.5,0c0-0.2,0-0.2,0-0.4C31.2,31.2,32.1,31.2,32.9,31.2z"/>
</svg>
