<svg id="_x32_5467822_x5F_10215034506880579_x5F_981237611_x5F_o_xA0_Image_1_"
	 x="0px" y="0px" viewBox="0 0 105 1680.6"
	>
<style type="text/css">
	.st0{fill-rule:evenodd;clip-rule:evenodd;fill:#FCFCFC;}
	.st1{fill-rule:evenodd;clip-rule:evenodd;fill:#684C43;}
	.st2{fill-rule:evenodd;clip-rule:evenodd;fill:#695751;}
	.st3{fill-rule:evenodd;clip-rule:evenodd;fill:#FEFDFD;}
	.st4{fill-rule:evenodd;clip-rule:evenodd;fill:#6C4F54;}
	.st5{fill-rule:evenodd;clip-rule:evenodd;fill:#664A43;}
	.st6{fill-rule:evenodd;clip-rule:evenodd;fill:#674D41;}
	.st7{fill-rule:evenodd;clip-rule:evenodd;fill:#5E423C;}
	.st8{fill-rule:evenodd;clip-rule:evenodd;fill:#735F5C;}
	.st9{fill-rule:evenodd;clip-rule:evenodd;fill:#5F423E;}
	.st10{fill-rule:evenodd;clip-rule:evenodd;fill:#604248;}
	.st11{fill-rule:evenodd;clip-rule:evenodd;fill:#664F42;}
	.st12{fill-rule:evenodd;clip-rule:evenodd;fill:#FEFEFD;}
	.st13{fill-rule:evenodd;clip-rule:evenodd;fill:#7B6860;}
	.st14{fill-rule:evenodd;clip-rule:evenodd;fill:#6A5751;}
	.st15{fill-rule:evenodd;clip-rule:evenodd;fill:#836D5A;}
	.st16{fill-rule:evenodd;clip-rule:evenodd;fill:#6C4D5E;}
	.st17{fill-rule:evenodd;clip-rule:evenodd;fill:#877264;}
	.st18{fill-rule:evenodd;clip-rule:evenodd;fill:#725451;}
	.st19{fill-rule:evenodd;clip-rule:evenodd;fill:#6E564A;}
	.st20{fill-rule:evenodd;clip-rule:evenodd;fill:#6E4F57;}
	.st21{fill-rule:evenodd;clip-rule:evenodd;fill:#775F50;}
	.st22{fill-rule:evenodd;clip-rule:evenodd;fill:#796155;}
	.st23{fill-rule:evenodd;clip-rule:evenodd;fill:#72605A;}
	.st24{fill-rule:evenodd;clip-rule:evenodd;fill:#5D3D34;}
	.st25{fill-rule:evenodd;clip-rule:evenodd;fill:#705842;}
	.st26{fill-rule:evenodd;clip-rule:evenodd;fill:#5E4336;}
	.st27{fill-rule:evenodd;clip-rule:evenodd;fill:#948071;}
	.st28{fill-rule:evenodd;clip-rule:evenodd;fill:#624252;}
	.st29{fill-rule:evenodd;clip-rule:evenodd;fill:#684952;}
	.st30{fill-rule:evenodd;clip-rule:evenodd;fill:#684945;}
	.st31{fill-rule:evenodd;clip-rule:evenodd;fill:#6C504C;}
	.st32{fill-rule:evenodd;clip-rule:evenodd;fill:#67514B;}
	.st33{fill-rule:evenodd;clip-rule:evenodd;fill:#735A4D;}
	.st34{fill-rule:evenodd;clip-rule:evenodd;fill:#6B5351;}
	.st35{fill-rule:evenodd;clip-rule:evenodd;fill:#644E4F;}
	.st36{fill-rule:evenodd;clip-rule:evenodd;fill:#56403A;}
	.st37{fill-rule:evenodd;clip-rule:evenodd;fill:#5C3E42;}
	.st38{fill-rule:evenodd;clip-rule:evenodd;fill:#735457;}
	.st39{fill-rule:evenodd;clip-rule:evenodd;fill:#634A52;}
	.st40{fill-rule:evenodd;clip-rule:evenodd;fill:#6E5052;}
	.st41{fill-rule:evenodd;clip-rule:evenodd;fill:#684C49;}
	.st42{fill-rule:evenodd;clip-rule:evenodd;fill:#6B4B54;}
	.st43{fill-rule:evenodd;clip-rule:evenodd;fill:#644C3F;}
	.st44{fill-rule:evenodd;clip-rule:evenodd;fill:#5C4236;}
	.st45{fill-rule:evenodd;clip-rule:evenodd;fill:#715851;}
	.st46{fill-rule:evenodd;clip-rule:evenodd;fill:#4C2D23;}
	.st47{fill-rule:evenodd;clip-rule:evenodd;fill:#71554C;}
	.st48{fill-rule:evenodd;clip-rule:evenodd;fill:#644840;}
	.st49{fill-rule:evenodd;clip-rule:evenodd;fill:#604534;}
	.st50{fill-rule:evenodd;clip-rule:evenodd;fill:#654B44;}
	.st51{fill-rule:evenodd;clip-rule:evenodd;fill:#664845;}
	.st52{fill-rule:evenodd;clip-rule:evenodd;fill:#694B4D;}
	.st53{fill-rule:evenodd;clip-rule:evenodd;fill:#6F5449;}
	.st54{fill-rule:evenodd;clip-rule:evenodd;fill:#55382D;}
	.st55{fill-rule:evenodd;clip-rule:evenodd;fill:#5E4335;}
	.st56{fill-rule:evenodd;clip-rule:evenodd;fill:#53332A;}
	.st57{fill-rule:evenodd;clip-rule:evenodd;fill:#70534A;}
	.st58{fill-rule:evenodd;clip-rule:evenodd;fill:#5F473F;}
	.st59{fill-rule:evenodd;clip-rule:evenodd;fill:#71524A;}
	.st60{fill-rule:evenodd;clip-rule:evenodd;fill:#694D47;}
	.st61{fill-rule:evenodd;clip-rule:evenodd;fill:#5A493D;}
	.st62{fill-rule:evenodd;clip-rule:evenodd;fill:#604D3D;}
	.st63{fill-rule:evenodd;clip-rule:evenodd;fill:#573F45;}
	.st64{fill-rule:evenodd;clip-rule:evenodd;fill:#593E32;}
	.st65{fill-rule:evenodd;clip-rule:evenodd;fill:#5F483C;}
	.st66{fill-rule:evenodd;clip-rule:evenodd;fill:#50392C;}
	.st67{fill-rule:evenodd;clip-rule:evenodd;fill:#6A584B;}
	.st68{fill-rule:evenodd;clip-rule:evenodd;fill:#6A5045;}
	.st69{fill-rule:evenodd;clip-rule:evenodd;fill:#533A36;}
	.st70{fill-rule:evenodd;clip-rule:evenodd;fill:#6E544B;}
	.st71{fill-rule:evenodd;clip-rule:evenodd;fill:#665145;}
	.st72{fill-rule:evenodd;clip-rule:evenodd;fill:#5B4740;}
	.st73{fill-rule:evenodd;clip-rule:evenodd;fill:#705752;}
	.st74{fill-rule:evenodd;clip-rule:evenodd;fill:#775E54;}
	.st75{fill-rule:evenodd;clip-rule:evenodd;fill:#5F4E4A;}
	.st76{fill-rule:evenodd;clip-rule:evenodd;fill:#5C4136;}
	.st77{fill-rule:evenodd;clip-rule:evenodd;fill:#755D55;}
	.st78{fill-rule:evenodd;clip-rule:evenodd;fill:#715D59;}
	.st79{fill-rule:evenodd;clip-rule:evenodd;fill:#5A4441;}
	.st80{fill-rule:evenodd;clip-rule:evenodd;fill:#654F43;}
	.st81{fill-rule:evenodd;clip-rule:evenodd;fill:#553E31;}
	.st82{fill-rule:evenodd;clip-rule:evenodd;fill:#654B3F;}
	.st83{fill-rule:evenodd;clip-rule:evenodd;fill:#6E5548;}
	.st84{fill-rule:evenodd;clip-rule:evenodd;fill:#5B4037;}
	.st85{fill-rule:evenodd;clip-rule:evenodd;fill:#62483C;}
	.st86{fill-rule:evenodd;clip-rule:evenodd;fill:#71574E;}
	.st87{fill-rule:evenodd;clip-rule:evenodd;fill:#6E5549;}
	.st88{fill-rule:evenodd;clip-rule:evenodd;fill:#5E4545;}
	.st89{fill-rule:evenodd;clip-rule:evenodd;fill:#593F3A;}
	.st90{fill-rule:evenodd;clip-rule:evenodd;fill:#4D3629;}
	.st91{fill-rule:evenodd;clip-rule:evenodd;fill:#61474C;}
	.st92{fill-rule:evenodd;clip-rule:evenodd;fill:#634445;}
	.st93{fill-rule:evenodd;clip-rule:evenodd;fill:#694F4A;}
	.st94{fill-rule:evenodd;clip-rule:evenodd;fill:#71574C;}
	.st95{fill-rule:evenodd;clip-rule:evenodd;fill:#573C2F;}
	.st96{fill-rule:evenodd;clip-rule:evenodd;fill:#4C3023;}
	.st97{fill-rule:evenodd;clip-rule:evenodd;fill:#51362B;}
	.st98{fill-rule:evenodd;clip-rule:evenodd;fill:#644845;}
	.st99{fill-rule:evenodd;clip-rule:evenodd;fill:#6E5350;}
	.st100{fill-rule:evenodd;clip-rule:evenodd;fill:#5B4645;}
	.st101{fill-rule:evenodd;clip-rule:evenodd;fill:#644D42;}
	.st102{fill-rule:evenodd;clip-rule:evenodd;fill:#533B31;}
	.st103{fill-rule:evenodd;clip-rule:evenodd;fill:#8C7767;}
	.st104{fill-rule:evenodd;clip-rule:evenodd;fill:#614839;}
	.st105{fill-rule:evenodd;clip-rule:evenodd;fill:#664944;}
	.st106{fill-rule:evenodd;clip-rule:evenodd;fill:#4F3831;}
	.st107{fill-rule:evenodd;clip-rule:evenodd;fill:#4A2D22;}
	.st108{fill-rule:evenodd;clip-rule:evenodd;fill:#715656;}
	.st109{fill-rule:evenodd;clip-rule:evenodd;fill:#482C1F;}
	.st110{fill-rule:evenodd;clip-rule:evenodd;fill:#684B41;}
	.st111{fill-rule:evenodd;clip-rule:evenodd;fill:#705C58;}
	.st112{fill-rule:evenodd;clip-rule:evenodd;fill:#5E4747;}
	.st113{fill-rule:evenodd;clip-rule:evenodd;fill:#594336;}
	.st114{fill-rule:evenodd;clip-rule:evenodd;fill:#6A4D4C;}
	.st115{fill-rule:evenodd;clip-rule:evenodd;fill:#62443F;}
	.st116{fill-rule:evenodd;clip-rule:evenodd;fill:#533D3B;}
	.st117{fill-rule:evenodd;clip-rule:evenodd;fill:#6A5241;}
	.st118{fill-rule:evenodd;clip-rule:evenodd;fill:#574032;}
	.st119{fill-rule:evenodd;clip-rule:evenodd;fill:#644E4A;}
	.st120{fill-rule:evenodd;clip-rule:evenodd;fill:#553241;}
	.st121{fill-rule:evenodd;clip-rule:evenodd;fill:#4F2D32;}
	.st122{fill-rule:evenodd;clip-rule:evenodd;fill:#6F5549;}
	.st123{fill-rule:evenodd;clip-rule:evenodd;fill:#745948;}
	.st124{fill-rule:evenodd;clip-rule:evenodd;fill:#553542;}
	.st125{fill-rule:evenodd;clip-rule:evenodd;fill:#5D4536;}
	.st126{fill-rule:evenodd;clip-rule:evenodd;fill:#644837;}
	.st127{fill-rule:evenodd;clip-rule:evenodd;fill:#5A4436;}
	.st128{fill-rule:evenodd;clip-rule:evenodd;fill:#6C5246;}
	.st129{fill-rule:evenodd;clip-rule:evenodd;fill:#6D534A;}
	.st130{fill-rule:evenodd;clip-rule:evenodd;fill:#6B4F44;}
	.st131{fill-rule:evenodd;clip-rule:evenodd;fill:#5D4644;}
	.st132{fill-rule:evenodd;clip-rule:evenodd;fill:#503732;}
	.st133{fill-rule:evenodd;clip-rule:evenodd;fill:#604636;}
	.st134{fill-rule:evenodd;clip-rule:evenodd;fill:#523435;}
	.st135{fill-rule:evenodd;clip-rule:evenodd;fill:#5D3F3C;}
	.st136{fill-rule:evenodd;clip-rule:evenodd;fill:#6A5349;}
	.st137{fill-rule:evenodd;clip-rule:evenodd;fill:#5E4341;}
	.st138{fill-rule:evenodd;clip-rule:evenodd;fill:#563832;}
	.st139{fill-rule:evenodd;clip-rule:evenodd;fill:#553B35;}
	.st140{fill-rule:evenodd;clip-rule:evenodd;fill:#4E2F28;}
	.st141{fill-rule:evenodd;clip-rule:evenodd;fill:#624950;}
	.st142{fill-rule:evenodd;clip-rule:evenodd;fill:#4E3227;}
	.st143{fill-rule:evenodd;clip-rule:evenodd;fill:#5A4241;}
	.st144{fill-rule:evenodd;clip-rule:evenodd;fill:#533B44;}
	.st145{fill-rule:evenodd;clip-rule:evenodd;fill:#513844;}
	.st146{fill-rule:evenodd;clip-rule:evenodd;fill:#604851;}
	.st147{fill-rule:evenodd;clip-rule:evenodd;fill:#51353F;}
	.st148{fill-rule:evenodd;clip-rule:evenodd;fill:#603F39;}
	.st149{fill-rule:evenodd;clip-rule:evenodd;fill:#543437;}
	.st150{fill-rule:evenodd;clip-rule:evenodd;fill:#573647;}
	.st151{fill-rule:evenodd;clip-rule:evenodd;fill:#4A3124;}
	.st152{fill-rule:evenodd;clip-rule:evenodd;fill:#55332B;}
	.st153{fill-rule:evenodd;clip-rule:evenodd;fill:#56342E;}
	.st154{fill-rule:evenodd;clip-rule:evenodd;fill:#664947;}
	.st155{fill-rule:evenodd;clip-rule:evenodd;fill:#7B5E5E;}
	.st156{fill-rule:evenodd;clip-rule:evenodd;fill:#59393C;}
	.st157{fill-rule:evenodd;clip-rule:evenodd;fill:#745B4F;}
	.st158{fill-rule:evenodd;clip-rule:evenodd;fill:#523836;}
	.st159{fill-rule:evenodd;clip-rule:evenodd;fill:#513833;}
	.st160{fill-rule:evenodd;clip-rule:evenodd;fill:#553930;}
	.st161{fill-rule:evenodd;clip-rule:evenodd;fill:#57382C;}
	.st162{fill-rule:evenodd;clip-rule:evenodd;fill:#5D403E;}
	.st163{fill-rule:evenodd;clip-rule:evenodd;fill:#715848;}
	.st164{fill-rule:evenodd;clip-rule:evenodd;fill:#765B4C;}
	.st165{fill-rule:evenodd;clip-rule:evenodd;fill:#59443A;}
	.st166{fill-rule:evenodd;clip-rule:evenodd;fill:#4F3633;}
	.st167{fill-rule:evenodd;clip-rule:evenodd;fill:#614943;}
	.st168{fill-rule:evenodd;clip-rule:evenodd;fill:#4B3533;}
	.st169{fill-rule:evenodd;clip-rule:evenodd;fill:#6B564E;}
	.st170{fill-rule:evenodd;clip-rule:evenodd;fill:#502F2E;}
	.st171{fill-rule:evenodd;clip-rule:evenodd;fill:#50302D;}
	.st172{fill-rule:evenodd;clip-rule:evenodd;fill:#503E33;}
	.st173{fill-rule:evenodd;clip-rule:evenodd;fill:#40282B;}
	.st174{fill-rule:evenodd;clip-rule:evenodd;fill:#46291D;}
	.st175{fill-rule:evenodd;clip-rule:evenodd;fill:#4C3125;}
	.st176{fill-rule:evenodd;clip-rule:evenodd;fill:#4A2D23;}
	.st177{fill-rule:evenodd;clip-rule:evenodd;fill:#44271F;}
	.st178{fill-rule:evenodd;clip-rule:evenodd;fill:#523F37;}
	.st179{fill-rule:evenodd;clip-rule:evenodd;fill:#50382D;}
	.st180{fill-rule:evenodd;clip-rule:evenodd;fill:#5D4338;}
	.st181{fill-rule:evenodd;clip-rule:evenodd;fill:#482B24;}
	.st182{fill-rule:evenodd;clip-rule:evenodd;fill:#553B30;}
	.st183{fill-rule:evenodd;clip-rule:evenodd;fill:#462E32;}
	.st184{fill-rule:evenodd;clip-rule:evenodd;fill:#60453A;}
	.st185{fill-rule:evenodd;clip-rule:evenodd;fill:#644749;}
	.st186{fill-rule:evenodd;clip-rule:evenodd;fill:#675047;}
	.st187{fill-rule:evenodd;clip-rule:evenodd;fill:#4F342C;}
	.st188{fill-rule:evenodd;clip-rule:evenodd;fill:#5C3F3C;}
	.st189{fill-rule:evenodd;clip-rule:evenodd;fill:#5C483B;}
	.st190{fill-rule:evenodd;clip-rule:evenodd;fill:#66504A;}
	.st191{fill-rule:evenodd;clip-rule:evenodd;fill:#7B655D;}
	.st192{fill-rule:evenodd;clip-rule:evenodd;fill:#554133;}
	.st193{fill-rule:evenodd;clip-rule:evenodd;fill:#4D3225;}
	.st194{fill-rule:evenodd;clip-rule:evenodd;fill:#5E413A;}
	.st195{fill-rule:evenodd;clip-rule:evenodd;fill:#513625;}
	.st196{fill-rule:evenodd;clip-rule:evenodd;fill:#6A5553;}
	.st197{fill-rule:evenodd;clip-rule:evenodd;fill:#584239;}
	.st198{fill-rule:evenodd;clip-rule:evenodd;fill:#58453E;}
	.st199{fill-rule:evenodd;clip-rule:evenodd;fill:#54362E;}
	.st200{fill-rule:evenodd;clip-rule:evenodd;fill:#573C27;}
	.st201{fill-rule:evenodd;clip-rule:evenodd;fill:#4B3228;}
	.st202{fill-rule:evenodd;clip-rule:evenodd;fill:#6C5150;}
	.st203{fill-rule:evenodd;clip-rule:evenodd;fill:#624B56;}
</style>
<g>
	<path class="st0" d="M49.7,1395.8c1.5,2.6,1.1,5.6,0.9,8.3c-2.1,22.4-1.2,44.9-0.6,67.3c0.4,14.2,2.3,28.5,1.9,42.7
		c-0.3,11.9,2.2,23.7,0.1,35.7c-1.4,8.2-0.2,16.8-0.3,25.2c-0.2,11.4-4.1,22.9-1.7,34.2c2.8,12.9,0.6,25.8,1.8,38.6
		c0.4,4.3-1.5,7.4-3.9,10.3c-2.2,2.6-4.2,2.6-5.1-1.2c2.2-0.5,4.3-1.1,4.8-3.8c1.9-13.6,3-27.1,0.1-40.7c-0.4-7.7-0.4-15.4-0.3-23.1
		c2.5-14.4,2.5-29,2.3-43.4c-0.2-15.5,1-31.2-1.4-46.6c0.8-8.5-1.1-17-0.9-25.5c0-24.1,0-48.2,0-72.3c0-0.9,0-1.7,0.1-2.6
		c0-0.8,0.2-1.6,0.5-2.4c0.2-0.5,0.6-0.8,1.1-1C49.3,1395.6,49.5,1395.7,49.7,1395.8z"/>
	<path class="st0" d="M41.8,1528.7c-2-0.7-2.1-2.3-2.2-4.1c-0.4-9.4-0.3-18.9-0.7-28.4c-0.9-19.7-0.2-39.5-0.3-59.2
		c0-4.5-2-9.7-1.1-13.3c1.9-7.9,0.7-15.5,1.1-23.2c2-40.6,0.7-81.2,1-121.8c0-2.9,1.5-5.8,0.3-8.8c-0.3-0.8,1-1.1,1.8-1.2
		c3.1,5.4,0.6,11.1,0.5,16.6c-0.1,11.6-0.7,23.3,0.4,34.9c0.3,3.8-1,7.6-0.6,11.4c0.2,2.6-0.2,5.3,0.6,7.9
		c-0.7,18.5-0.3,36.9-0.9,55.4c-0.3,1-0.6,1.9-0.5,2.9c0.1,18-0.4,36,0.2,54.1c0,4.1-0.8,8.2,0.2,12.3c0.1,0.5,0,1.1,0,1.6
		c-1.1,3.2,0.3,6.3,0,9.5c0.7,13.6,0.8,27.3,1.3,40.9C42.2,1520.3,44.5,1524.7,41.8,1528.7z"/>
	<path class="st0" d="M45.8,975.7c-0.6-0.5-1.7-1.2-1.7-1.6c3.5-23,0.4-46.2,1.7-69.3c0.4-6.5,1.3-12.9,0.7-19.3
		c-1-11.5-1.1-23.1-0.7-34.6c0.2-4.9-1.2-9.8,0.6-14.7c0.8-2.2,0.5-4.9-0.2-7.4c-1.6-5.1,0.5-10.2,0.4-15.3
		c-0.2-17.2,0.9-34.6-1.5-51.5c-1.8-12.4,0.4-24.8-2.4-36.9c-0.3-1.5-0.4-3.1,1.8-3.4c0.9,1.6,0.6,3.5,1.2,5.2
		c0.2,10.8,0.5,21.6,2.1,32.3c0.7,25.2,1.6,50.5,1.2,75.7c0,3.2-1.2,6.2-0.5,9.4c0.3,1.5,0.3,3.1,0.1,4.6
		c0.9,37.2-1.1,74.3-0.6,111.5c-0.2,3.5,0.3,7.1-0.2,10.7C47.6,972.8,47.2,974.5,45.8,975.7z"/>
	<path class="st1" d="M46.7,758.7c-1.5-8.1-1.8-16.3-1.8-24.5c0-2.8-0.1-5.6-0.2-8.4c0.4-0.3,0.9-0.2,1.3,0c1.2,1.9,1.8,4.2,1.5,6.1
		c-0.8,4.4,1.7,6.3,4.9,7.8c-1.4-1.8-0.7-4.2-1.2-6.3c0.4-5.2,0.3-10.4,0-15.6c-0.1-0.5,0-1,0-1.5c0.7-7.4,0-14.8,0.9-22.2
		c0.1-1.2-0.9-2.1-1-3.2c-0.2-1.2-0.1-2.3,0.7-3.2c2.9-0.1,3.1,2.2,3.6,4.2c-0.1,12.7-1.4,25.4-0.5,38.1c0.1,1.6,0.1,3.3-1.1,4.7
		c0,0.3,0.1,0.7,0.1,1c1.3,0.8,1.3,2,1.4,3.4c0.2,7.4-0.2,14.8,0.9,22.2c0.4,2.7-0.7,5.5-0.5,8.3c-1,2-1.9,1.3-2.6-0.2
		c-0.7-1.5-0.5-3.7-2.9-3.9C46.5,764.4,48.1,760.9,46.7,758.7z"/>
	<path class="st0" d="M42.7,1217.6c-2.4-5.2-0.7-10.8-0.6-16.1c0.1-4.7,0.5-9.6,0.6-14.4c0.2-13.1,0.2-26.1,0.4-39.2
		c0.3-14.8-0.2-29.7,1.3-44.4c2.7-26.8,0.4-53.6,1.3-80.4c0.2-7.4-1.8-14.7,0-22.1c0.4-1.8,0.1-3.7-0.9-5.3c-1.1-1.7-1-3.1,0.9-4.2
		c0.2,0.2,0.5,0.3,0.7,0.5c2.3,3.2,1.7,7,1.8,10.6c0.1,2.5,0,4.9,0,7.4c0,0.5,0,1.1,0,1.6c0,1.1,0,2.2,0,3.3c0,0.9,0,1.7,0.1,2.6
		c0.1,5.3,0,10.5,0,15.8c0,0.9,0,1.8,0,2.7c-0.1,3.1,0.1,6.1,0,9.2c-0.2,11.8,0.3,23.5,0,35.2c0.1,6.8,0.3,13.6-0.3,20.4
		c-1.4,3.1,0.1,6.4-0.5,9.6c-1,2.9-1.3,5.8-1.3,8.8c0,17-0.2,33.9,0.1,50.9c0.1,10.2-1,20.3-1.1,30.4c0.4,5.7-1.1,11.2-1,16.9
		C43.7,1217.9,43.2,1218,42.7,1217.6z"/>
	<path class="st0" d="M56.2,907.9c2.6,1.5,0.3,3.6,0.4,5.3c0.9,21.8-1.1,43.5-0.9,65.2c0.1,15.2-0.6,30.4,0.2,45.6
		c1.2,23,0.8,46,0.8,69c0,15.7-1.5,31.4-0.9,47.2c0.1,2.6-1.9,4.2-2,6.5c-0.3,0.1-0.5,0.2-0.8,0.3c-0.5-0.3-0.8-0.6-1-1.2
		c1.3-12.5,0.8-25.1,1.7-37.6c0.7-3.9-0.4-7.8,0.3-11.6c0.4-13.6,0.4-27.2,0-40.8c-0.6-5.3,1.2-10.6-0.2-15.8
		c-0.2-0.5-0.3-1.1-0.4-1.7c-0.2-5-0.3-10-0.2-15.1c0.1-9.5,0-18.9,0-28.4c-0.7-21.3,0.4-42.6,1-64c0.1-5.6-0.3-11.1-0.1-16.7
		C54.3,911.9,54,909.5,56.2,907.9z"/>
	<path class="st2" d="M48.9,1498.4c2.8,5.1,1.3,10.7,1.6,16.1c0.4,9.9,1.1,20,0.7,29.8c-0.4,8.9-0.5,17.8-0.9,26.7
		c-0.3,5.9-0.4,11.9-1.5,17.7c-0.5,0.6-1.6,1.6-1.9,0.8c-0.7-2.4-1.9-0.4-2.8-0.5c-0.5-0.1-0.8-0.4-1.1-0.8c-0.8-1.4-0.7-2.7,0.2-4
		c1.2-1.9,3.8-2.6,4.2-5.1c0-0.7,0.1-1.3,0.1-2c0.1-4.8-0.1-9.6,0.1-14.4c0.1-1.7-0.2-2.8-2.3-2.9c-2.4,0-1.4,1.7-1.6,2.8
		c-0.4,1.5,1,4.3-2.5,3.6c-2.1-4.5-0.6-9.3-0.5-13.8c0.1-3.5-1-7.3,1-10.7c0.3,0,0.5-0.1,0.8-0.1c0.2,0.1,0.5,0.1,0.7,0.2
		c4.2,2.5,4.2,6.9,5.1,10.8c-0.1-5.8,0.6-11.7,0.2-17.6c-0.1-2.3,0-4.6,0-6.9c0-0.8,0-1.5,0-2.3c-0.2-3.4,1-6.9-2.1-9.8
		c-1.1-1.1-0.5-2.8,0.2-4.2c1-1.5,0.6-3.1,0.7-4.8c0.3-2.5-0.1-5.1,0.7-7.6C48.1,1499.1,48.4,1498.7,48.9,1498.4z"/>
	<path class="st0" d="M52.7,1206.7c0.6,1.4,1.4,2.8,0.7,4.3c-1.1,2.6-0.8,5.2-0.7,7.9c0.7,29.7-1.3,59.4-1.1,89.2
		c0.2,25.5,0.1,51.1,0,76.6c0,3.7,0.3,7.6-1.9,11.1c0,0-0.2-0.2-0.2-0.2c-1.4-1.5-1.9-3.4-2.1-5.3c-0.1-1.2,0-2.4,0.3-3.5
		c1.2-6.2,1.4-12.5,1.4-18.7c0.2-30.7-0.1-61.5,0.2-92.2c0.1-15.1,1.2-30.2,0.9-45.2c0-2.5,0-5-0.5-7.4c0.9-5.1,0.3-10.3,1.2-15.4
		c0.2-0.5,0.5-0.9,1-1.2C52.2,1206.6,52.5,1206.6,52.7,1206.7z"/>
	<path class="st0" d="M59.8,317.6c2.2,1.2,1.9,3.3,1.9,5.3c0,24.6-0.1,49.1,0,73.7c0.1,10.7-2.9,21.1-2.5,31.7
		c0.4,11.1-0.2,22.1,1,33.1c0.3,2.2,0.6,4.2-0.5,6.2c-0.2,0.1-0.4,0.2-0.6,0.3c-0.5-0.1-0.8-0.3-1-0.8c-0.2-0.7-0.2-1.4-0.1-2
		c0.4-1.7-0.5-3.3-0.6-5c-0.5-6.7,0.4-13.4-0.6-20.1c-0.3-5.8-0.6-11.5,0.5-17.3c0-1.1,0-2.2,0-3.3c1.4-13.2,1.4-26.4,1.5-39.6
		c0.7-5.8,0.4-11.5,0-17.3c-0.6-8.1,0.1-16.2,0.5-24.3c0.2-4.8,0.4-9.6-0.7-14.4c-0.4-1.9-0.4-4,0.6-5.8
		C59.4,318,59.6,317.8,59.8,317.6z"/>
	<path class="st0" d="M48.8,247c-3-3.8-1-8.4-1.5-12.5c-1.6-12.2-1.8-24.7-1.1-36.9c0.4-6.9-0.1-13.7-0.3-20.6c0-0.7-0.2-1.3-0.2-2
		c1.1-24.2-3.5-48.2-2-72.4c0.1-1.8-1-4.2,1.8-5c0.2,0.2,0.3,0.5,0.5,0.7c0.4,12.6,0,25.2,1,37.8c0.1,1.5,0.2,3,0.6,4.4
		c0.3,1.2,0.3,2.3,0.4,3.5c-0.8,19.7,2.2,39.4,0.6,59.1c0.2,0.6,0.2,1.1,0.3,1.7c0.5,8.9-0.5,17.9,0.7,26.8c0.3,2,1,3.8,1.3,5.8
		c0.2,3,0.6,5.9-0.6,8.8C50,246.8,49.5,247.1,48.8,247z"/>
	<path class="st3" d="M48.8,606.9c-0.8-14,0.8-27.9,0.8-41.8c0.1-33.6,0-67.2,0.1-100.9c0-6-1.8-11.8-0.9-17.8
		c3.6,1.8,1.4,5.6,2.8,8.1c0.3,1.4,0.4,2.8,0.4,4.2c0.1,1.1,0.1,2.3,0,3.4c-0.2,18.5,0.9,37,0,55.5c0,2.3-0.1,4.6,0.1,7
		c0,2.4,0,4.7,0,7.1c0,0.9,0,1.8,0,2.7c0,14.4,0,28.8,0,43.2c0.1,1.2,0,2.3-0.2,3.5c-0.7,2.6-1.2,5.2-0.3,7.8
		c0.2,1.1,0.2,2.2-0.1,3.3c-0.8,3.2-0.2,6.5-0.5,9.8C50.9,603.9,51.4,606.1,48.8,606.9z"/>
	<path class="st4" d="M41.5,1340c-1.2-4.2-0.9-8.5-0.7-12.8c0.7-14.9-0.8-29.8,0.3-44.7c0.3-4.6,1.6-9.2,0.7-13.8
		c0.9-3.9-0.7-8.1,1-12c0.5-0.3,1-0.2,1.3,0.2c0.9,1.4,0.8,3,0.8,4.5c0,0.8-0.2,1.5-0.3,2.2c-0.5,1.6-0.7,3.3-0.3,5
		c1.4,2.6,1.9,5.1,0.3,7.9c-0.9,1.6-0.5,3.5-0.5,5.3c0,1.1,0,2.1,0,3.2c0.5,4.3-1.4,8.4-1,12.7c-0.2,1.6,0.5,2.8,1.6,3.8
		c1.6,2.6-2.1,4.4-1,6.8c0.2-1.3,0.3-3.1,2.4-2.7c1.6,0.3,1.5,2,1.5,3.3c0,1-0.1,2.1-0.6,2.9c-4.1,7.1-2.7,14.8-3,22.4
		c0,1.2-0.1,2.3-0.5,3.5C43.1,1338.6,42.6,1339.5,41.5,1340z"/>
	<path class="st5" d="M45.7,725.7c-0.3,0-0.7,0-1,0c-1.8-1.3-0.3-2.7-0.1-4c0.1-0.2,0.2-0.4,0.3-0.6c0-0.1,0-0.2-0.1-0.4
		c-1.5-9.4-0.4-18.9-0.4-28.4c0-2.8-1-6,1.7-8.4c0.8-1,1.8-1.1,3-0.9c2.3,1.7,0.2,4.3,1.4,6.2c0.1,0.5,0.2,1,0.3,1.4
		c1.3,2.4,1.1,4.7-0.4,7c-2.4,3.8-2,7.4,1,10.7c0.9,0.6,0.9,1.4,0.6,2.3c-0.8,1-2.3,1-3.2,1.9c-1.2,1.5,0.5,2,1,2.9
		c0.1,1.5,1,2.8,1.4,4.3c0,0.4-0.2,0.8-0.4,1.2c-1.4,0.9-2.9,1.7-3.9,3C46.3,724.4,44.6,724.1,45.7,725.7z"/>
	<path class="st6" d="M50.5,591.4c0-0.9,0-1.8,0.1-2.7c0.1-1.5,0.1-3,1.9-3.7c0.7-0.2,1.4-0.1,2,0.2c0.6,2.2-0.5,4.2-0.7,6.2
		c-2,0.8-1,2.1-0.6,3.6c0.1,0.4,0.9-0.3,0.3-0.1c-0.1,0-0.1-0.1-0.2-0.3c-0.6-1.1-0.6-2.1,0.2-3.1c0.6-0.4,0.6-1.1,0.7-1.7
		c0.3-2.1,0.5-5.2,2.6-5c2.8,0.2,1,3.3,1.4,5.2c-1.5,1.5-1.3,3.1-0.3,4.8c1.2,3.9,0.1,7.7,0,11.6c-1.1,4.9-0.5,9.8-0.6,14.7
		c-0.3,0.8-0.8,1.4-1.5,1.9c-1.1,0.9-2,2.6-3.7,1.8c-1.9-0.8-1.4-2.7-1.2-4.4c0.2-0.7,0.4-1.4-0.8-1.4c-0.4-0.1-0.7-0.3-0.9-0.7
		c-0.1-0.4,0-0.8,0.2-1.1c-1.8-1.4,0.1-3-0.2-4.5c0.7-1.3,2.3-1.2,3.2-2.2c1.1-2.5,3.1-5.1-1.1-6.9c-1.1-0.5-1.2-2.2-1.3-3.6
		C50.4,597.3,49.8,594.3,50.5,591.4z"/>
	<path class="st7" d="M43.7,1256.7c-0.3,0-0.6,0-0.9,0c-0.3-1-1.6-1.7-0.9-3c1.6-3,0.7-6.2,0.8-9.3c0.3-7.1-0.5-14.3,0.5-21.4
		c2.9-2.6,4.9-0.8,6.9,1.3c1,1.8,0.6,3.7,0.5,5.6c-1.4,2.9-2.8,5.8-4.5,8.6c1-1.3,1.8-3,4-2c0.9,6.9,1.9,13.9-0.6,20.7
		c-0.2,0.4-0.6,0.7-1,0.9C46.6,1258.3,45.8,1255.4,43.7,1256.7z"/>
	<path class="st8" d="M48.8,281.3c0-6.8,0-13.5,0-20.3c0.8-1.7,0-3.7,0.7-5.4c3,0.2,2.8,2.9,2.3,4.3c-1.8,5.5,0.6,9.4,4.3,12.9
		c0.3,0.8,0.5,1.8-0.1,2.3c-3.8,3-3.8,7.1-3.8,11.3c-0.1,0.9-0.2,1.8-0.2,2.8c-0.1,1.6-0.1,3.2-0.1,4.8c0.3,1.3-0.8,2.9,0.8,3.9
		c0.4,0,0.8-0.1,1.1-0.1c1.5-0.1,1.7-1.4,2.1-2.4c0.6-1.5,0.1-3-0.2-4.5c-0.1-1.7-0.1-3.3,0.3-4.9c0.4-1.5,1.2-1.9,2.4-0.5
		c1.6,7.6,0.3,15.3,0.7,22.9c-0.2,2-1.1,1.8-2,0.5c-1.1-1.6-1.1-3.9-3.2-4.8c-2.1-1.1-2.4,1.6-3.8,1.8c-0.5-0.2-0.8-0.6-0.9-1.2
		C48.9,296.9,49.7,289.1,48.8,281.3z"/>
	<path class="st0" d="M41.6,1541.7c0.5,6.6-0.4,13.1-0.9,19.7c-0.1,1.9,0.8,3.5,0.9,5.3c0,0.2,0.1,0.5,0.1,0.7c0.6,4,0,8-0.2,12.1
		c-0.2,1.9,0.3,3.8-0.1,5.7c-0.3,15.2-0.3,30.4,1.1,45.6c0.1,1.2,0.1,2.3-0.1,3.5c-0.8,3-0.3,6.1-0.5,9.2c-0.1,1.9,0.3,4-1.5,5.4
		c-0.3,0-0.6,0-0.9,0c-0.3-19.2-0.9-38.4-0.9-57.6c0-15.5,1.5-31,0.9-46.5C39.6,1543.2,39.8,1541.9,41.6,1541.7z"/>
	<path class="st0" d="M58.7,309.7c0.1-8.3,1-16.7-1-25c-0.1-0.3-0.2-0.5-0.2-0.8c-1.1-6.7-0.4-13.5-0.9-20.2
		c-0.9-11.2,0.3-22.5-1-33.7c-0.9-7.5,0.2-15.2,1.5-22.7c0.2-0.2,0.4-0.4,0.6-0.6c0.9,0.7,1,1.7,1,2.7c0,12.2,0,24.4,0,36.5
		c0,6.4,0.8,12.7,0.7,19.1c-0.2,17.6,0.2,35.1,0.4,52.7c0,0-0.3,0.3-0.3,0.3c-0.6,0.1-1-0.1-1.4-0.6c-0.3-0.5-0.5-1-0.6-1.5
		C57.4,313.7,57,311.5,58.7,309.7z"/>
	<path class="st9" d="M56.2,907.9c-0.2,7.6-0.4,15.2-0.5,22.8c-0.4,0.3-0.8,0.4-1.2,0.1c-1-1.2-1.2-2.8-2.1-4
		c-0.3-2.2-2.2-3.7-2.7-5.8c-0.1-0.6-0.2-1.2-0.3-1.8c-0.2-1.4-1.8-1.7-2.1-2.9c-1.1-3.8,1.6-7.3,1-11c-0.1-0.6,0.1-1.6,0.8-1.6
		c3.2-0.3,3.8-2.7,4.6-5.1c0.3-0.9,0.6-2.2,1.9-1.7c1,0.4,1.1,1.5,1.1,2.5c-0.1,0.7-0.4,1.3-0.5,2c-0.3,1.7-1.3,3.4-0.6,5.3
		C55.8,907.1,56,907.5,56.2,907.9z"/>
	<path class="st10" d="M50.7,764.7c2.2-1.1,2.4,0.7,2.9,2c0.5,1.3-0.4,3.1,1.4,3.9c2.6,1.6,0.4,4.5,1.7,6.5l0,0.1
		c-1,5.1-0.1,10.3-0.4,15.4c-1.4,2.6-3,1.1-4.5,0.1c-0.1-0.3-0.1-0.6,0-0.9c0.2-0.4,0.3-0.9,0.6-1.2c-0.5,0.3-0.2,1-0.8,1.3
		c-1.7,0-2.6-1.1-3.1-2.5c-1.4-5.7-0.1-11.3,1.4-16.8C50.4,769.9,49.2,767.2,50.7,764.7z"/>
	<path class="st11" d="M47.7,1511.7c-0.6,1.8-2.1,3,1.1,4.9c2.5,1.5,0.6,6.1,0.7,9.3c-3.4-0.1-1.7,3.2-3.1,4.5
		c-0.2,0.4-0.5,0.7-0.8,1c-1.6,2-0.5,3.5,1,4.9c1.3,3.5-1.4,4.4-3.8,5.4l-0.4-0.1c0.7-2.1-2.7-3.7-0.7-6c1.6-1.9-2.4-3.9,0.2-5.8
		c0.1-0.3,0.2-0.5,0.3-0.8c0-0.1-0.2-0.2-0.3-0.3c-0.1-4-0.2-8-0.3-12c0.3-0.3,0.7-0.4,1.1-0.4c2.8-0.4,1.4-3.1,2.3-4.5
		C46.6,1509.8,46.8,1509.8,47.7,1511.7z"/>
	<path class="st0" d="M46.6,683.7c-2.3,3.6-1.4,7.8-1.5,11.7c-0.3,8.4-0.2,16.9-0.3,25.4c-3.1-3.4-1.2-7.6-1.5-11.4
		c-0.3-3.2,0.2-6.9,0.4-10.4c1-16.6,2.1-33.1,2.9-49.7c0.4-9.1,0.1-18.1,0.2-27.2c0-1.7-0.8-3.9,2-4.4c1.7,2.5,0.4,5.2,0.4,7.7
		c0,9.4,0.3,18.8-0.2,28.2c-0.8,2.6-0.2,5.2-0.4,7.8c-0.6,5.6-0.1,11.2-0.4,16.7C48,680.1,48.2,682.1,46.6,683.7z"/>
	<path class="st12" d="M56.5,89.4c-0.4,9.8-1.2,19.5-0.9,29.3c0.4,13.7-0.9,27.4,0.9,41.1c0.6,4.9,0.5,10,0,14.9
		c-0.2,2.1,3.7,4,0.2,6c-0.2-0.2-0.5-0.3-0.7-0.5c-2.1-2.4-1.6-5.3-1.7-8.1c-0.2-3.5,0.5-7-0.5-10.4c-0.2-0.8-0.4-1.7-0.4-2.6
		c0.2-10.8-0.5-21.5-1-32.3c-0.5-11.1,0.6-22.2,1.6-33.3C54.2,91.9,54.2,90,56.5,89.4z"/>
	<path class="st13" d="M56.5,89.4c-2,3-1.3,6.6-1.7,9.9c-1.5,12.1-1.7,24.3-0.9,36.4c0.5,8,0.5,16.1,0.8,24.1
		c-2.4-1.9-3.7-7.3-2.8-11.3c0.3-0.7,0.3-1.4,0.4-2.1c0-2.3,0.4-4.6-0.4-6.8c-0.5-1-0.9-2-0.9-3.1c0.1-1.2,0.5-2.3,0-3.5
		c-0.5-1.1-1.3-2-1.7-3.2c-0.1-0.6,0.1-1.2,0.5-1.7c0.3-0.3,0.6-0.6,0.9-0.8c1.1-0.9,0.8-2.1,0.8-3.3c-0.1-0.9-0.1-1.9-0.1-2.8
		c0-2.3-0.1-4.6,0-6.9c0.2-2.8-0.1-5.5-1.4-8c-0.2-0.7-0.2-1.5-0.1-2.2c0.1-0.5,0.3-0.9,0.6-1.3c0.2-1.1,1.5,1.2,1.7-0.5
		c0.3-2.6,0.8-5.2-0.9-7.6c-0.6-2.8,2.5-4.6,2.2-7.3c0.3-1.4-0.1-3.2,2.1-3.5C55.8,85.6,56.2,87.5,56.5,89.4z"/>
	<path class="st0" d="M53.6,734.7c-0.7-14.7,0.5-29.4,0.9-44c-1.8-3.6-1.6-7.5-1.1-11.2c0.9-6.8,0.5-13.5,0.8-20.3
		c0.4-1.8-0.1-4,2.3-4.8c0.8,7.9,1.5,16.3,0.3,23.8c-2,12.8,0.1,25.6-1.8,38.3c-0.6,4.2,0.4,8.7,0.6,13.1
		C55.8,731.6,56,733.7,53.6,734.7z"/>
	<path class="st0" d="M59.4,567.8c4.2,0.8,2.4,4.1,2,5.9c-1.2,5.3-1.7,10.7-1.7,16.1c0.3,18.1-1.8,36.1-1,54.2
		c0.1,2.4-1.1,4.1-2.2,5.9c-0.8-0.1-1.3-0.7-1.5-1.4c-0.1-0.5,0-1,0-1.5c0.3-3.2,1.1-6.4,0.4-9.7c-0.2-2.8-0.2-5.6,0.4-8.4
		c1.6-7.6,0.8-15.5,1.5-23.2c1.4-8.5,0.4-17.1,0.3-25.6c0-1.1,0-2.1,0.2-3.2C58.8,574.1,58.4,570.8,59.4,567.8z"/>
	<path class="st14" d="M55.7,273.7c-4-3.2-7.5-6.5-5.2-12.6c0.6-1.5,0.9-3.9-0.9-5.4c-0.5-0.3-0.7-0.8-0.8-1.4c0-0.5,0-1.1,0-1.6
		c-0.5-0.8,0-1.3,0.6-1.7c5.4-1.9,5.4-1.9,3.7-7.9c0.2-1.8,1-2.8,3-2.7c2.5,5.3,1.5,13.1-2,15.7c-1.6,1.4-0.9,3.2-0.8,4.8
		c0.4,2.6-0.2,5.3,3.3,6.8c2.9,1.2-0.1,4,0.4,6.1C56.5,274,56.1,274,55.7,273.7z"/>
	<path class="st3" d="M48.8,281.3c1.3,6.6,0.1,13.2,0.7,19.8c0.1,1.6-0.4,3.4,0.9,4.7c2.1,1.5,1.6,3.8,1.7,5.9
		c0.1,7.8,0,15.5,0.1,23.3c0.2,1.2,0,2.5,0,3.7c0,6.8,0,13.6,0,20.4c0,0.6,0,1.1-0.1,1.7c-0.1,0.9-0.3,1.7-0.8,2.4
		c-0.2,0.2-0.4,0.4-0.6,0.5c-1.4-1.6-0.9-3.5-0.9-5.2c0-11.3-0.1-22.6,0-33.9C49.9,310.2,47.8,295.8,48.8,281.3z"/>
	<path class="st15" d="M56.4,32.5c0.2-1.4-0.5-3,1.1-4c2.6,0.9,3.1-1.1,3.8-2.8c-0.4,0.9-0.8,1.9-2.1,0.9c0.2-0.8,0.4-1.7,0.6-2.5
		c0.6-0.9,0.2-2,0.6-2.9c0.8-1.9,2.4-2.1,4.1-1.9c1.8,0.3,2.7,2.1,2.4,3.2c-1.2,4,0.1,8.8-3.3,12.2c0,1.5-0.1,3.1-0.1,4.6
		c-0.3,1-0.7,1.9-2,1.5c-2.2-3.7,0.2-6.7,1.2-9.7c-1.5,1.3-1.6,6.7-5.9,2.8C56.7,33.4,56.5,32.9,56.4,32.5z"/>
	<path class="st0" d="M59.7,467.7c2.3,1.1,1.9,3.2,1.9,5.2c0,14.8,0.1,29.6-0.1,44.3c-0.1,4.6-2.3,9.1-0.3,13.8
		c0.1,0.3-1,1.2-1.5,1.8c-0.2-0.2-0.4-0.3-0.6-0.5c-0.8-1.3-1-2.8-1.4-4.1c-0.2-0.5-0.2-1-0.3-1.6c-0.2-2-0.1-3.9,0.5-5.8
		c1-2.5,1.3-5.1,1.3-7.8c0-14.1-0.1-28.2-0.2-42.3c0-1-0.2-2,0.5-2.9L59.7,467.7z"/>
	<path class="st16" d="M59.4,567.8c1.5,3.2,0,6.1-0.5,9.2c-3.4-3.6-4.4-8.3-5.8-12.8c-0.4-1.1-0.5-2.8,0.6-3.1
		c3.3-1.2,0.7-2.7,0.5-4.1c-0.2-0.7-0.2-1.4,0.1-2.1c0.5-0.9,1.2-1.4,2.2-1.5c1.1,0.7,2.1,1.7,3.6,1.7c0.6,3.6,0.2,7.1-0.7,10.6
		C58.6,566.4,58.4,567.1,59.4,567.8z"/>
	<path class="st3" d="M48.8,423c-0.5-18.6,1.6-37.2,0.9-55.9c0-1.1,0.5-2.2,0.8-3.3c0,0,0.3-0.2,0.3-0.2c1.6,0.4,1.5,1.7,1.5,2.9
		c-0.6,10.3-0.1,20.6-0.3,30.9c0,1.8,0.1,3.7-0.2,5.5c-1,6.4-0.1,12.9-1.6,19.3C49.9,422.6,49.4,422.9,48.8,423z"/>
	<path class="st0" d="M61.8,41c0.6-0.6,1.1-1.1,1.7-1.7c-1.6,13.3-4.7,26.4-4.9,39.8c0,1.7,0.2,3.5-2.3,3.4c-2.2-4.1,0.1-8,0.3-12.1
		c0.8-3,0.1-6.1,0.7-9.1c0-0.8,0.1-1.6,0.2-2.4c1.4-4.1,1.7-8.4,2.3-12.6C60.2,44.6,60.1,42.4,61.8,41z"/>
	<path class="st0" d="M55.7,901.7c0-0.6,0-1.2,0.1-1.7c1.2-5.4-0.7-10.7-0.9-16.1c-0.1-4.1-0.6-8.2-0.6-12.3c0-1.9,0.6-3.7,0.3-5.6
		c0-2.1-0.9-4.5,1.9-5.6c0.5,4.2,1.4,8.2,0.3,12.7c-1.5,6,2.8,11.7,2,18c-0.5,4.1-0.1,8.2-2.3,11.9
		C55.8,902.9,55.1,902.7,55.7,901.7z"/>
	<path class="st17" d="M51.6,49.7c0.7-4.6,1.3-9.1,4-13.1c0.4,0.3,0.6,0.7,0.8,1.1c0.2,0.4,0.2,1,0.5,1.3c3.3,3.7,2.2,6.5-1.8,8.7
		c-2,2.9-1.6,6.3-1.6,9.4c0,2.5-0.4,4.9-1.4,7.2c-0.2,0.4-0.4,0.8-0.6,1.2c-0.5,0.8-0.9,1.6-1.6,2.2c-0.5,0.2-0.8,0.1-1.1-0.3
		c0-0.8,0-1.7,0-2.5C51.4,60.2,49,54.5,51.6,49.7z"/>
	<path class="st0" d="M56.6,777.1c-1.2-2,0-4.6-1.7-6.5c-0.2-11-0.3-22.1-0.5-33.1c0-0.6-0.4-1.2-0.7-1.8c1.8,0.2,1.9,1.5,2,2.9
		C56,751.5,56.3,764.3,56.6,777.1z"/>
	<path class="st0" d="M59.3,565.6c-0.8-3.7,1.4-7.5-0.4-11.2c-0.4-0.3-0.6-0.7-0.6-1.2c0-2.2-0.9-4.3-0.9-6.5
		c-0.1-2.4-0.1-4.9-0.1-7.3c0.4-2.4-1-5.4,2.3-6.9c0,0,0.2,0.2,0.2,0.2c0.5,7.8,1.4,15.6,1.4,23.3C61.2,559.3,62.6,563,59.3,565.6z"
		/>
	<path class="st18" d="M43.9,1222.8c-0.1,8.8-0.1,17.6-0.2,26.4c0,1.7,0.8,3.9-1.8,4.5c0-1.6,0-3.1,0-4.7c0.6-1.9,0.6-3.7,0-5.6
		c0-1.8,0-3.5,0-5.3c0.7-5.6,0.6-11.2,0-16.8c0.5-1.2-0.2-2.7,0.9-3.7c0.3,0.1,0.6,0.1,0.9-0.1C45.3,1219.2,45,1221,43.9,1222.8z"/>
	<path class="st0" d="M53.7,1146.7c2.8,1.2,1.7,3.8,1.8,5.7c0.4,6.1,0.1,12.2,0.2,18.2c0,1.8-0.2,3.3-2,4.1c-1.1-1-1.3-2.3-1.3-3.6
		c-0.1-6.9-0.1-13.8,0-20.7c0-1.3,0.3-2.6,1.2-3.6L53.7,1146.7z"/>
	<path class="st19" d="M48.8,423c0.2-0.1,0.5-0.3,0.7-0.4c0.2,0.1,0.5,0.1,0.7,0.2c0.6,0.4,1.1,1,1.4,1.7c0.5,1.1,0.9,2.3,0.9,3.5
		c0,1.9-0.7,3.7-0.5,5.6c0.9,2.8,3.4,5.2-0.1,8.5c-1.3,1.3,0.3,4.9,0.3,7.6c-0.2,1.5-0.3,2.9-0.8,4.3c-0.2,0.5-0.5,0.8-1,1.1
		c-2.3-2.5-0.4-5.9-1.7-8.6c0.5-3.1,0.3-6.2,0-9.3c0.7-4.3,0.7-8.5,0-12.8c0.1-0.3,0.2-0.6,0.2-0.9C49,423.3,48.9,423.1,48.8,423z"
		/>
	<path class="st20" d="M55.7,648.7c0.3,0.4,0.5,0.9,0.8,1.3c0,1.5,0,2.9,0,4.4c-0.2,1.4-0.5,2.9-0.7,4.3c-1.5,0.6-1.9,1.9-2.6,3.2
		c-0.8,1.7-2.1,2.9-4.1,1.4c-1.2-3.4,0.2-6.8-0.3-10.2c0.1-1.1,0.6-1.9,1.4-2.5c0.4-0.2,0.9-0.3,1.4-0.2c1,0.3,1.3,1.4,2.2,1.9
		C54.9,651.3,52.8,648.7,55.7,648.7z"/>
	<path class="st21" d="M57.8,69.8c-0.5,4.3-1,8.5-1.5,12.8c-0.3,0.4-0.6,0.8-0.9,1.2c-1.2,1.1-0.6,2.6-0.8,4c-2,0.1-1.8-1.4-2.2-2.6
		c-0.1-1.8-0.4-3.5-0.1-5.3c1-1.8,0.8-3.7,0.4-5.6c-0.4-1.9-0.4-3.9,1.2-5.4c1.3-0.9,2.4-0.4,3.4,0.4C57.5,69.4,57.7,69.6,57.8,69.8
		z"/>
	<path class="st0" d="M56.8,793.6c1.4,0.9,1.9,2.1,1.9,3.7c0,5.6,0,11.2,0,16.7c0,1.6-0.5,2.9-1.9,3.7c-0.2-0.2-0.4-0.4-0.7-0.6
		c-1.3-7.6-1.4-15.2,0-22.9C56.4,794.1,56.6,793.9,56.8,793.6z"/>
	<path class="st22" d="M47.6,654.7c0.4-12.3-0.7-24.7,1.1-37c0.3-0.1,0.5-0.2,0.8-0.4c0.1,0.5,0.2,0.9,0.3,1.4
		c0.8,3.4,1.3,6.8,0.6,10.2c-0.4,2-0.4,3.9,0.1,5.9c0.1,0.8,0.1,1.6,0,2.5c-1.1,5,0.3,10.2-1.3,15.1C49,653.4,49.5,655,47.6,654.7z"
		/>
	<path class="st23" d="M53.6,1146.8c0,9.3,0.1,18.6,0.1,27.9c-0.6,2.2-0.2,4.5-0.1,6.7c-0.4,0.5-0.9,0.5-1.3,0
		c-0.8-1.2-0.9-2.6-0.9-4c0-1.6,0-3.2,0-4.9c-0.1-6.6,0.5-13.2-1.3-19.6c-0.3-1.1,0-2.3,0.5-3.3c0.6-1.2,1.1-2.4,2.3-3.2
		C53.1,1146.6,53.3,1146.7,53.6,1146.8z"/>
	<path class="st24" d="M45.8,975.7c0-1.4-0.1-2.8,0.9-4c4.3-1.8,4.7,2,5.4,4.3c0.8,2.5-0.6,5-2.3,6.8c-2.1,2.3-3,0-4.1-1.4
		c-0.8-1.2-1.2-2.4-0.3-3.8l0.3,0.1c-0.1-0.5,1.6-0.4,0.3-1.2C46.2,976.2,46,976,45.8,975.7z"/>
	<path class="st0" d="M48.8,67.5c0.2,0.2,0.5,0.3,0.8,0.4c1.6,2.6-1,5-0.3,7.6c-0.5,4.9,0.2,9.8-1.1,14.6c0.1,2.5,0.4,5.1-1.1,7.5
		c-0.4,0.4-0.9,0.5-1.4,0.2c0,0-0.2-0.2-0.2-0.2c-0.1-8.3,1.8-16.4,1.1-24.7C46.5,70.7,47.9,69.2,48.8,67.5z"/>
	<path class="st0" d="M63.7,34.7c0.3-3.1,2.8-5.5,2.4-8.9c-0.2-2.1,1.6-4.8-1.7-5.8c-3.3-1-3.2,2.4-4.6,4c-0.1-2-0.7-4.2,1.9-5.1
		c1.4-0.5,3.1-0.7,4.3,0.3c1.9,1.6,1.9,3.6,1.1,5.9C65.9,28.3,68.1,32.7,63.7,34.7z"/>
	<path class="st8" d="M53.7,243.7c3.3,1.4,1.7,4.7,1.5,6.4c-0.2,2.2-3.8,0.5-5.7,1.5c-0.6-0.7-0.5-1.6-0.6-2.4c0-0.8,0-1.5-0.1-2.3
		c0.2-0.2,0.5-0.3,0.7-0.4C52.3,247.5,51.9,244,53.7,243.7z"/>
	<path class="st12" d="M56.8,180.8c0.6,3.2,1.5,6.4,1.8,9.7c0.2,1.8,1.3,4.4-1.8,5.3c-0.2-0.2-0.4-0.3-0.6-0.5
		c-1.1-2.4-0.8-5.1-1.6-7.5c-0.2-1.1-0.3-2.1-0.2-3.2c0.2-1.6-0.1-3.4,2.1-4L56.8,180.8z"/>
	<path class="st0" d="M56.8,841.6c3.1,1,2.4,4,1.7,5.4c-2.3,4.2-1.4,8.7-1.9,13c-1.7-0.4-1.8-1.8-2.1-3.2c-0.1-1.3-0.1-2.7-0.1-4
		c0-1.1,0-2.1,0.1-3.2c0.7-2.5,0.6-5.2,1.7-7.6C56.4,842,56.6,841.8,56.8,841.6z"/>
	<path class="st0" d="M52.8,1182c0.3-0.1,0.5-0.3,0.8-0.5c0,7.2,0.1,14.4,0.1,21.6c0,1.3,0.3,2.7-1,3.6c0,0-0.2-0.2-0.2-0.2
		c-1-1-1.5-2.2-1.4-3.6c0.4-5.6,0.1-11.3,0.3-16.9C51.4,1184.5,51.5,1183,52.8,1182z"/>
	<path class="st22" d="M50.5,591.4c0.1,3.5,0.1,6.9,0.2,10.4c0.3,2.5,2.6,4.5,2,7.3c-1,1.1-2.1,1.7-3.4,0.4
		c-0.2-0.9-0.4-1.7-0.6-2.6c0.6-3.4,0.9-6.9,0.6-10.3C49.2,594.8,49.2,592.9,50.5,591.4z"/>
	<path class="st0" d="M45.5,977.7c0.2,1.1-0.5,2.4,0.8,3.2c0.9,3.7,2.8,7.4-0.4,11c0,0-0.3-0.2-0.3-0.2c-0.6-4-1.2-8-1.7-12
		C43.7,978.4,44.4,977.9,45.5,977.7z"/>
	<path class="st0" d="M56.8,817.8c3.1,3.5-0.1,6.9-0.1,10.4c0,2.1,0.1,4.3,0.1,6.4c-0.2,0.1-0.5,0.2-0.7,0.4c-0.5-0.2-0.9-0.5-1.2-1
		c-1.4-5.3,0.1-10.5,0.2-15.8c0.3-0.5,0.8-0.7,1.3-0.6L56.8,817.8z"/>
	<path class="st25" d="M59.2,26.5c1.2-0.1,1.5-1.1,2-1.9c0.5-1,1-1.8,2.1-0.7c1.1,1.1,0.3,1.3-0.6,2c-1.1,0.8-1.5,2.4-2.4,3.5
		c-0.5,0.7-0.9,2.2-2,1.6c-0.6-0.3-0.6-1.7-0.8-2.6C58.1,27.8,58.7,27.2,59.2,26.5z"/>
	<path class="st0" d="M51.6,49.7c-1.5,5,0.4,10.6-2.9,15.3c0.4-3.9,1.3-7.7,0.9-11.6C49.6,51.8,50.1,50.5,51.6,49.7z"/>
	<path class="st12" d="M56.8,195.8c1.3,3.5,1.9,7.1,0.9,10.9l-0.3,0.3c-0.7,0.4-1.4,0.3-2.1-0.3c-0.3-0.4-0.4-0.9-0.5-1.4
		c1.1-3-0.8-6.2,0.5-9.2c0.4-0.4,0.8-0.5,1.3-0.5L56.8,195.8z"/>
	<path class="st0" d="M55.7,793.7c1.2-5.4-0.8-11,0.9-16.4c0.1,5.5,0.1,10.9,0.2,16.4c0,0-0.3,0.3-0.3,0.3l-0.5,0.2L55.7,793.7z"/>
	<path class="st0" d="M41.8,1221.3c1.2,5.6,0.7,11.2,0,16.8C41.8,1232.5,41.8,1226.9,41.8,1221.3z"/>
	<path class="st26" d="M49.4,609.5c1.3,0.3,2.2-0.3,3.3-0.8c1.2,0.7,0.3,2.1,1,3c-1.1,1.5-2.9,0.8-4.3,1.2c-0.2,0-0.5-0.1-0.7-0.2
		c-0.8-1-0.7-2,0.1-3C48.9,609.6,49.2,609.6,49.4,609.5z"/>
	<path class="st3" d="M48.8,424.3c1.3,4.3,0.6,8.5,0,12.8C48.8,432.8,48.8,428.6,48.8,424.3z"/>
	<path class="st27" d="M48,1654.9c-1,2.8-2.6,3.8-5.3,1.9c-0.3-0.3-0.6-0.7-0.9-1c-0.7-0.5-0.7-1.1-0.4-1.8c0.3-0.3,0.7-0.5,1.2-0.5
		C44.2,1654.5,46.2,1654.2,48,1654.9z"/>
	<path class="st28" d="M55.7,856.7c0.3,1.1,0.5,2.2,0.8,3.3c0,0-0.2,0.2-0.2,0.2l0.1,0.2c-1.1,2-0.2,4.2-0.6,6.3
		c-4.5-2.5-2.4-6.1-1.8-9.5C54.5,856.5,55.1,856.4,55.7,856.7z"/>
	<path class="st0" d="M41.5,1653.8c0.1,0.6,0.2,1.3,0.3,1.9c-3-1.6-3.9-3.9-2.1-7c0,0,0.2,0.1,0.2,0.1
		C41.1,1650.3,41.7,1651.9,41.5,1653.8z"/>
	<path class="st0" d="M56.8,834.6c1.4,0.3,2.2,1.1,1,2.4c-1.2,1.4-1.2,3-1.1,4.6l-0.3,0.2c-3.4-2.4-2-4.8,0.1-7.1L56.8,834.6z"/>
	<path class="st0" d="M41.8,1529.8c-0.5,1.9,1.4,3.9-0.2,5.8C42.2,1533.7,37.4,1531.6,41.8,1529.8z"/>
	<path class="st29" d="M55.7,901.7c0.3,0.4,0.5,0.9,0.8,1.3c-0.3,1.2-0.7,2.5-1,3.7C54.4,905,54.1,903.3,55.7,901.7z"/>
	<path class="st3" d="M48.8,254.4c0.3,0.5,0.5,0.9,0.8,1.4c-0.4,1.8,0.3,3.7-0.8,5.4C48.8,258.9,48.8,256.6,48.8,254.4z"/>
	<path class="st30" d="M46.2,976.6c0.7-0.5,1.4-1,2.1-0.2c0.3,0.3,0.4,1.1,0.2,1.3c-0.8,1-1.8-0.1-2.7,0.1
		C45.9,977.4,46,977,46.2,976.6z"/>
	<path class="st3" d="M48.9,249.3c0.2,0.8,0.4,1.6,0.6,2.4c-0.2,0.4-0.5,0.7-0.7,1.1C44.4,251.4,49.5,250.4,48.9,249.3z"/>
	<path class="st15" d="M55.7,37.7c0-0.4-0.1-0.7-0.1-1.1c-0.2-1.5-0.6-3,0.8-4.2c0.1,0.1,0.3,0.3,0.4,0.5C57,34.6,59,36.8,55.7,37.7
		z"/>
	<path class="st0" d="M41.8,1243.4c0.8,1.9,1.7,3.7,0,5.6C41.8,1247.2,41.8,1245.3,41.8,1243.4z"/>
	<path class="st3" d="M48.7,609.7c0,1,0,2-0.1,3C45.6,611.7,47.2,610.7,48.7,609.7z"/>
	<path class="st31" d="M42.7,1516.7c-0.4,0-0.8,0-1.2-0.1c-1.2-13.4-0.1-26.8-1.6-40.2c-0.1-0.6,0.4-1.2,0.7-1.8
		c0.4-0.3,0.8-0.3,1.3-0.1c1.5,4.6,1.7,9.3,1,14.2c-0.1,0.7-0.6,2.1,0.8,2.5c0.3,0.1,0.6-0.2,0.8-0.4c1.1-1.2,0-1.6-0.8-2.2
		c-0.6-0.4-0.9-1.3-0.6-1.7c2.8-3.6,1.2-8.6,4.1-12.2c0.4-0.3,0.9-0.2,1.3,0c0.5,7.1,1.1,14.1,1.6,21.2c0.1,1.1-0.7,1.8-1.3,2.5
		c-0.1,0.5-0.2,0.9-0.3,1.4c-0.2,0.1-0.4,0.1-0.7,0.2c-0.4-0.2-0.8-0.4-1.2-0.7c-2.1-1.4-3.4-1.1-3.3,1.7c0.1,1.3,0.5,2.5,0.5,3.9
		c0.1,1.4,0,2.8,0,4.3c0,0.5-0.1,0.9-0.1,1.4C43.2,1512.6,44.4,1514.9,42.7,1516.7z"/>
	<path class="st32" d="M41.5,1340c0.2-0.9,0.2-1.8,1.1-2.3c0.2,0.2,0.4,0.4,0.6,0.6c1.2,2.6,0.6,5.4,0.8,8.2c0.1,0.8,0,1.7,0,2.5
		c0.1,1.4,0,2.8,0,4.1c0.1,8.6-0.1,17.1-0.5,25.7c-0.6,4.9-0.4,9.5,5,11.9c0.3,1.6,0.6,3.3,0.9,4.9c-0.3,0.1-0.5,0.2-0.7,0.4
		c-0.5,0.2-0.7-1.4-1.1-0.2c-0.1,0.1,0.3,1.5,1.1,2c0,0.7,0,1.3,0,2c-0.3,0.3-0.7,0.5-1.2,0.5c-3.7,0.5-5.8-1.3-7.1-4.5
		c-0.1-0.4,0-0.9,0.2-1.3C40.8,1376.3,40.6,1358.2,41.5,1340z"/>
	<path class="st33" d="M48,1654.9c-2.1,1.2-4.1,1.9-5.3-1.1c-1.6-1-2-2.6-1.7-4.3c0.6-3.8,0.1-7.5,0.3-11.3c1.6-1.4,1.9,0.2,2.3,1.1
		c0.8,1.8,0.4,3.8,0.5,5.7c0.3,0.6,0.7,2.7,1.2,1.4c1.1-3.1,4.1-6.4,0.6-9.9c-0.5-0.5-0.7-1.2-0.6-1.9c4-2.1,3.4-5.5,2.4-9
		c-0.3-3.9-1.3-7.9,0.2-11.8c0.2-0.5,0.6-0.8,1-1.1c2.2,9.3,1.7,18.7,1.4,28.1c-0.1,3.3-0.7,6.6-0.4,9.9
		C50,1652.3,49.5,1653.8,48,1654.9z"/>
	<path class="st34" d="M47.7,1399.7c0.3,0,0.7,0,1,0c0,17.1-0.1,34.2,0,51.3c0,7.9,0.7,15.8-0.1,23.7l-0.5,0h-0.5
		c-2.6-3.7-1.9-7.8-1.7-11.9c0.2-3.1,0.9-6.1,0-9.2c-1.6-2.6,1-5.1,0.1-7.7c-0.2-0.9-0.3-1.7-0.2-2.6c0.1-0.4,0.2-0.9,0.3-1.3
		c0.5-1.5,0.4-2.9,0.3-4.4c0.1-2-1.8-3.6-1.3-5.7c0-1.1,2.3-1.6,0.9-3.2c0.8-6.4-0.7-12.8,0.1-19.2c0.3-2.1-0.2-4.3-2.7-5.2
		c-1-0.4-1.4-1.3-1.1-2.5C43.8,1400.3,45.8,1400.3,47.7,1399.7z"/>
	<path class="st35" d="M43.7,1588.7c1.8-0.5,1.6-2.6,2.6-3.4c3.7-0.6-2,4.4,2.4,3.4c0.1,8,0.1,15.9,0.2,23.9l-0.3,0.1
		c-2.6-0.6-2.1-3-2.7-4.7c0.1-4.7,0.8-9.4-2.3-13.7C42.5,1593,40.9,1590.5,43.7,1588.7z"/>
	<path class="st36" d="M48.7,1397.7c-0.5-2.5-3.4,1-3.9-1.5c-0.2-1.2,0.4-2.5,1.4-2.9c2.2-0.7,2.1,1.3,2.5,2.6
		C48.8,1396.5,48.8,1397.1,48.7,1397.7z"/>
	<path class="st37" d="M46.7,1462.7c0.3,4,0.7,8,1,12c-0.6,2.1-0.1,4.7-0.5,6.1c-0.9,3.4-3.2,6-0.7,10c0.9,1.5-3.5,0.8-4.2,3.3
		c0.3-6.6-0.7-13-0.5-19.4c-0.6-0.8-0.6-1.6,0.3-2c1.4-0.6,2.9-1.2,0.3-2.1c-3-1.1-2.1-3.2-1.8-5.2c-0.2-0.2-0.1-0.5,0.1-0.7
		c0.8-1.8-0.5-3.8,0.5-5.6c0.3-0.4,0.7-0.6,1.2-0.7C44.2,1459.4,45.6,1460.9,46.7,1462.7z"/>
	<path class="st34" d="M40.6,1394.5c0.1,0.5,0.2,1,0.3,1.4c1.1,1.8,1.2,3.8,1.3,5.9c0.2,1.6-0.1,2.9,1.8,4.3
		c2.7,2.1,1.8,5.6,0.8,8.6c-0.2,0.4-0.5,0.8-0.8,1.2c-2.6,1.3-2.3,3.2-0.9,5.2c1.2,1.6,1.6,3.2,0.1,4.8c-0.4,0.8-0.1,1.6,0.1,2.4
		c0.2,1.4-1,2.5-1.1,3.8c0.6,4.1,0,8.3-0.1,12.4c0,0.8,0,1.5,0,2.3c-0.3,2,0.9,4-0.1,6c-0.4,0.4-0.9,0.4-1.4,0.1
		c-1-1.2-1.2-2.7-1.2-4.2c0.1-17.5,0.2-34.9,0.4-52.4C39.7,1395.6,40.3,1395,40.6,1394.5z"/>
	<path class="st38" d="M40.5,1465.4c0.5,1.8-0.7,4.6,3.3,3.8c1.7-0.3,2.1,1.9,1.7,3.4c-0.3,1.3-1,2.5-2.8,1.2c-1-0.8-0.8,0.4-1,0.9
		c-0.4,0-0.7,0-1.1,0C39.7,1471.6,38.6,1468.5,40.5,1465.4z"/>
	<path class="st39" d="M40.5,1452.8c0.4,0,0.8,0,1.1-0.1c1.1,2,1.1,4,0,6c-0.4,2,0.8,4.3-1.1,6C39.4,1460.7,39.1,1456.8,40.5,1452.8
		z"/>
	<path class="st29" d="M55.7,870.7c0.6,7.9,0.5,15.8,1.7,23.7c0.3,2-0.4,3.9-1.6,5.6c-0.1-0.6-0.2-1.3-0.4-2.7
		c-1.9,3.1-0.8,8.1-6.3,7.5c-0.8-0.1,0.4,2.1,1.2,3.1c0.7,0.9,1.9,1.8,0.6,2.9c-1.4,1.2-1.4-1.6-3.1-1c0,2.2,0,4.6,0,6.9
		c0.8,0.9,2.2,1,2.9,2c0,0.7,0,1.3,0,2c-2.1,3.2-1.6,6.8-1.6,10.3c0,1.1,0,2.2,0.1,3.3c-0.1,4.1,0.2,8.2,0,12.4
		c-0.2,4.5,0.8,9.1-0.8,13.5c-0.4,0.6-0.9,0.8-1.5,0.5c-0.7-12.8,0.3-25.6-0.1-38.4c-0.4-13,1.8-25.8,1.1-38.8
		c-0.4-8.1-1.1-16.3-0.7-24.4c0.2-3.5-0.5-7.1,0.6-10.5c0.2,0.1,0.4,0.2,0.6,0.3c1,1,1.3,2.3,1.6,3.6c0.2,1.3,0.9,2.3,1.6,3.4
		c0.3,0.6,0.4,1.3,0.5,2c0.4,3-4,5.4-1.1,8.5c-0.2,1,0.8,0.6,0.2,0.6c-0.1,0-0.2-0.5-0.1-0.9c0.4-2.2,1-3.8,3.3-1.3
		c1,3,0.4,5.8-1.1,9.2C54.1,872.5,53.4,870.3,55.7,870.7z"/>
	<path class="st30" d="M46.8,960.7c0.3,0,0.6,0,0.9,0c0.8-1,0.5-2.9,2.2-3c1.6-0.1,1.6,1.3,1.8,2.4c0,0.5-0.1,0.9-0.3,1.3
		c-0.5,1.1-1.8,1.7-1.7,3.1c0.4,1.3,2.1,1.4,2.5,2.7c-0.4,2.9,1,5.5,1.3,8.3c0.5,6.1,1,12.2,0.8,18.4c0.1,2-0.2,3.9-0.2,5.8
		c-0.5,0.6-1.1,0.8-1.8,1c-2.1-0.1-2.8,3.9-5.6,2.1c-0.2-3.6-0.5-7.3-0.7-10.9c1-3.6-0.1-7.3,0.4-11c1.6-0.4,1.3,3.1,2.6,1.7
		c1.4-1.4,2.6-3.9,2.3-5.7c-0.4-2.1-0.8-5.4-4.5-5.2C46.3,968,46.2,964.4,46.8,960.7z"/>
	<path class="st40" d="M50.7,764.7c1,5.4,1.7,10.8-2.3,15.6c-1,1.2,0.4,2.5,0.3,3.8c-0.1,1.9,1.2,3.8,0.2,5.8c2.5,2.4,1.3,5.2,1.1,8
		c-0.1,2.3,0.1,4.6,0.7,6.8c0.2,1,0.2,2,0.2,3.1c0.2,4.1-1.4,8.1,0.2,12.5c0.8,2.2-1.4,4.9-1.1,7.6c0.3,3.1-0.2,6.2,1.2,9.2
		c1.1,2.4-1,4.3-1.7,6.5c-0.4,0.7-1,1.2-1.8,1.3c-2.2-2.2,0.1-4.4,0-6.6c0-12.3-0.3-24.6,0.1-36.9c0.4-14.3-2.2-28.5-1-42.7
		C48.8,760.2,47.3,764,50.7,764.7z"/>
	<path class="st41" d="M47.6,844.9c0.4-0.4,0.7-0.8,1.1-1.2c1.4,0.7,2.7,1.6,2.3,3.4c-0.3,1.5-1.6,2-3.1,1.8l-0.3-0.2
		C47.6,847.4,47.6,846.2,47.6,844.9z"/>
	<path class="st42" d="M49.7,663.7c1.3-0.8,3.2-1,2.8-3.4c-0.5-3.5,1.7-2.2,3.3-1.6c1,10.7-1.7,21.3-1.3,31.9c-0.9-1-1.9-2-2.8-3
		c-0.3-0.3-0.5-0.7-0.6-1.2c0.3-3,3.2-6.1-0.1-9.1c-1-0.3-1.5-0.3-0.6,0.8c0.2,0.2,0.4,0.5,0.5,0.7c-0.2,1.3-1.5,2.5-0.1,3.8
		c0,0.8-0.3,1.2-1.2,1c-1,0-2,0-3.1,0c0.2-7.7-1.3-15.5,1-23.1C48.9,661.2,48.5,663,49.7,663.7z"/>
	<path class="st43" d="M49.7,715.7c-3.2-0.1-4-1.3-2-4c1.6,0.7,2.9,0.4,4-1c0-0.8-0.2-1.6-1-2c-2.1-3.5-2.6-7.1-1-11
		c0.5-2.3,1.8-4.7,0-7c0.6-0.6,1.3-0.6,2,0c3.4,1.9,1.2,4.8,1.1,7.1c-0.3,6.3,1.1,12.8-1,19C50.8,716.8,50.2,716.4,49.7,715.7z"/>
	<path class="st5" d="M51.7,717.7c1.2,5.3,1.6,10.7,0,16c-0.4,1.9-1.1,3.4-3.3,1.5c-0.3-1.2,0.1-2.3,0-3.5c-0.2-2.5-2.6-4.3-2-7
		c0.8-2.1,2.7-3,4.4-4.1l0,0C51.7,719.9,50.6,718.5,51.7,717.7z"/>
	<path class="st44" d="M48.7,734.7c1.8,2,1.9-0.9,3-1c1.8,2.2,0.8,4.7,0.8,7.1c-9.4-1.9-5.5-9.6-6.8-15c-0.5-1.1-0.8-2,1-2
		c0.3,0.2,0.4,0.4,0.3,0.6c-0.1,0.2-0.2,0.3-0.3,0.3c-0.3,2.9,3.5,4,3,7C48.7,732.5,48.7,733.6,48.7,734.7z"/>
	<path class="st45" d="M51.7,717.7c-0.1,1.1,0.1,2.3-1,3c0.7-1.9-5-2.5-1-5c0.8,0,1.6,0.2,2,1C51.7,717.1,51.7,717.4,51.7,717.7z"/>
	<path class="st46" d="M51.7,690.7c-0.7,0-1.3,0-2,0c0-0.3,0-0.7,0-1c-0.6-1.3-1-2.8,0.2-3.9c0.6-0.6,1.4,0.1,1.8,0.9
		c0,0.3,0.1,0.6,0.1,0.9C51.7,688.7,51.7,689.7,51.7,690.7z"/>
	<path class="st47" d="M50.7,757.8c1.4,1.6,2.5,2.7,0.7,4.4C50.5,761.1,50,760,50.7,757.8z"/>
	<path class="st48" d="M54.9,1039.6c1.7,5,0.4,10-0.1,14.9c0.4,0.5,0.3,0.9,0,1.4c-2.8-0.5-2-3-2.7-4.7c-1.3-0.6,2.1-4.7-2.3-3.1
		c-2.1-0.1-2.3-2-3.1-3.3c-0.6-3-0.3-6,0.1-9c0.1-0.7,2.5-1.3,0.1-2c-0.4-5.7-0.6-11.3,0-17c5-1.6,5-1.5,4.2,5.1
		c0.5-1.3-0.4-2.8,1.3-3.4c2.2,1.1,1.1,3.7,2.3,5.2C54.7,1029,54.8,1034.3,54.9,1039.6c-1.3,0.9-2.5,2.1-4.7,1.5
		C52.6,1042.2,53.5,1040.3,54.9,1039.6z"/>
	<path class="st49" d="M54.8,1098c0,3.2-0.1,6.5-0.1,9.7c-2.3,1.5-3.2-1.5-5-1.6c-0.6-0.3-1-0.7-1.3-1.2c-0.3-0.9-0.4-1.9-1.3-2.4
		c-0.3-0.2-0.5-0.5-0.7-0.9c0.1-7,0.2-14,0.3-20.9c0.9-0.9,0-2.4,1.1-3.2c1.1-0.1,1.8,0.4,2.5,1.2
		C55.8,1084.2,55.3,1091.1,54.8,1098z"/>
	<path class="st50" d="M43.8,1201.7c-0.4-11.1,1.2-22.1,0.8-33.2c-0.6-16,0.1-32.1,0.4-48.2c0.1-3.6-0.5-7.3,1.6-10.6
		c0.9-0.4,1.3,0.2,1.6,0.9c0.9,6.7-0.8,13.4,0.5,20.1c0.3,0.4,0.4,0.8,0.6,1.3c0.2,0.7,0.1,1.4-0.2,2c-0.9,1.2-2,2.4-2,4.1
		c-0.1,2.4,0,4.8,0,7.1c-0.3,1.9,0.7,3.6,1,5.4c-0.8,2.1-1.6,4.2-0.5,6.4c2.4,2.2,4.9,4.5,1.9,8c-0.4,0.2-0.9,0.3-1.3,0.3
		c-2.1,1.2-1,3.3-1,4.9c-0.2,4.8-0.1,9.6,0,14.4c0.7,4.4-1.6,8.7-0.3,13.1c0.4,0.6,0.6,1.3,0.6,2.1c0,0.5-0.2,0.9-0.5,1.4
		c-0.5,0.6-1.1,0.9-1.8,1.1C44.5,1202.2,44.1,1202.1,43.8,1201.7z"/>
	<path class="st51" d="M43.8,1201.7c0.3,0,0.7,0,1,0c1.2,0.8,1.4-0.4,1.9-1l0.1-0.1c1.2-0.6,2.3-1.3,3.7-1.2
		c0.9,0.6,1.1,1.4,1.1,2.4c-0.5,1.4,0.5,2.9-0.2,4.3c-1.9,2.2-2.4,4.7-1.3,7.4c0.7,1.6,0.7,3.2,0.5,4.8c-0.3,1.7-1.1,3.4-0.5,5.2
		c0.1,0.5,0,0.9-0.3,1.2c-2-0.4-3.3-2.8-5.8-2c-0.1-1.8-0.2-3.5-0.3-5.3C41.8,1212.2,44,1207,43.8,1201.7z"/>
	<path class="st52" d="M47.8,1077.7c-0.1,1.1,0.1,2.3-1,3c0-12-0.1-24-0.1-36c1,1,2,2,3,3c0,1.3-0.8,2.4-0.8,3.7
		c0.1,3.5-0.9,7.2,2.4,9.9c0.5,0.8,0.8,1.7,1.1,2.6c0.2,3.1-1.4,5.8,0.3,9.3C54.3,1076.4,50,1076.7,47.8,1077.7z"/>
	<path class="st53" d="M54.6,1023.7c-1.5-1.4-2-3.1-2-5c-0.2-4.1-2.7-6.3-6.1-8c0-2.7,0-5.3,0-8c2.9,1.1,2.1-4.3,5.1-3
		c1.2,2.6-2.5,5.8,0.7,7.7c-2.4-2.7-0.8-5.2,1.3-7.7c-1.1-1.7,0.3-3.3,0-5c0.3-0.4,0.6-0.4,0.9,0C54.6,1004.4,54.6,1014,54.6,1023.7
		z"/>
	<path class="st54" d="M46.6,1010.7c1.8-0.9,4-3,4.1,1.3c0,1.9,1.1,1.2,2.1,1.7c2.1,1,0.7,3.3-0.1,5c-1.6,1.3-0.5,3.4-1.3,5.2
		c-2-2.3,2.3-8.4-4.6-7.2c0-0.7-0.1-1.3-0.1-2c1.1-1,1.2-2-0.1-3C46.6,1011.4,46.6,1011,46.6,1010.7z"/>
	<path class="st55" d="M47.7,1110.7c-0.4-0.4-0.8-0.7-1.2-1.1c-0.4-2.7-1.2-5.3-0.1-8c0.4,0,0.9,0.1,1.3,0.1c1.1,0.7,0.3,2.1,1,3
		c0.3,0.3,0.7,0.7,1,1c0.7,0.5,1.3,1.1,1.7,1.8c1,1.7,4.1,3.2,1.9,5.3C51.3,1114.7,49.1,1112.8,47.7,1110.7z"/>
	<path class="st56" d="M46.8,1033.7c1.2-0.4,0.6-2.3,2-2.5c0.4,2.8,0.4,2.8-2,4.5C46.7,1035.1,46.7,1034.4,46.8,1033.7z"/>
	<path class="st57" d="M46.6,1011.7c1,0.1,2,0.3,1.9,1.7c-0.1,1.1-1,1.1-1.8,1.3C46.7,1013.7,46.6,1012.7,46.6,1011.7z"/>
	<path class="st58" d="M47.7,1110.7c2-0.3,3.1,2.6,5.4,1.6c-0.2-2.8-4.1-3.5-3.4-6.6c3-2.5,2.9,2.4,5,2c-0.2,10.9-0.3,21.7-0.6,32.6
		c-0.1,2.1-0.9,4.2-1.3,6.2c-0.3,1.1,0.1,2.4-1,3.2c-3.8,1.3-4.1-2.6-5.9-4.1c0-2.9,0-5.9,0-8.8c2.4-0.5,0.7,3.7,3.6,2.9
		c-2.3-1.9-3.7-3.7-0.7-6c0-0.7,0-1.3,0.3-2.4c0.5-1,1.1-0.5,0.5-0.8c-0.1,0-0.4,0.4-0.5,0.7c-0.2,0.6-0.8,0-0.2,0.4
		c0.1,0,0.4-0.4,0.3-0.3c-3.5-0.4-2.1-3-2.2-4.9c-0.3-3.9,1.2-7.7,0-11.7C46.4,1113.5,46.3,1111.8,47.7,1110.7z"/>
	<path class="st59" d="M54.6,994.7c-0.3,0-0.6,0-0.9,0c-0.3-6.7-0.7-13.4-1-20.1c-0.5-2.6-0.5-5.3-1-7.9c-1.3-0.3-3.4,0.7-3-2
		c0.7-0.9,2-1.5,2-3c0-0.3,0-0.7,0-1c1.5-4.5-1-8.5-1.4-12.8c0.8-1.6,1.3-3.3,2.5-4.7c1.1-0.7,1.5-1.8,1.2-3.1
		c-0.1-1.4,0.4-2.9-0.7-4.2c-1.5-1.7-0.3-2.9,1-4c0.4-0.5,0.8-1,1.5-1.3c0.3,0,0.6,0,0.9,0c0.4,15.3-1.2,30.4-1.6,45.6
		C54,982.4,54.9,988.6,54.6,994.7z"/>
	<path class="st60" d="M54.8,1098c-1.7-4.5,0.7-9.6-2.1-14c-1-1.7-3.8-2.5-3-5.2c-1.2-2.1,0.2-2.4,1.8-2.5c0.8-0.1,2,0.7,2-1
		c0.5-1.7-0.2-3.2-0.7-4.7c-0.3-1.2-0.4-2.5-0.2-3.7c0.6-3.7-0.8-7.7,1.8-11c0.1-0.4,0.2-0.8,0.3-1.3c2.1,3.4,0.8,7.2,0.9,10.7
		c0.3,10.1,0,20.1,0,30.2C55.7,1096.4,55.9,1097.4,54.8,1098z"/>
	<path class="st61" d="M41.6,1566.6c2.7-2.1-0.8-5.1,1-7.3c0.5-0.5,0.2-2.9,1.2-1.5c1.6,2,6.1-2.5,5.3,2.5
		c-0.9,5.8-0.2,11.5-0.6,17.3c-0.7,0.6-1.8-0.6-2.4,0.5c-1.4,0-2.6-0.2-3.9-0.8c-1.6-1.5-0.6-2.6,0.5-3.7c0-0.2,0.9,0.5,0.4-0.4
		c-0.1-0.5-0.1-1,0.3-1.3c0.1-0.1,0.3-0.2,0.3-0.4c-0.3,0.4-0.7,0.5-1.1,0.4C40.6,1570.4,41.1,1568.5,41.6,1566.6L41.6,1566.6z"/>
	<path class="st62" d="M42.8,1541.7c-0.2-2.3,4.1-2.1,2.8-5c-0.2-0.9,0.4-1.4,1.1-1.7c1.1-0.3,2-0.1,2.8,0.8c0.3,6.5,0,13-1,20.2
		C46.3,1550.9,45.6,1545.9,42.8,1541.7z"/>
	<path class="st63" d="M43.7,1588.7c-1.4,2.6,0.3,5.7,1.4,6.7c4.2,3.9,1.7,8.1,1.6,12.3c-1.1,1-2.2,0.8-3.3-0.2
		c-2.3-3.9-4.1-7.9-2.5-12.4c0.8-2.1-0.8-4.3,0.3-6.3c0.6-0.9,1.3-1.4,2.4-1.1C43.7,1588.1,43.7,1588.4,43.7,1588.7z"/>
	<path class="st64" d="M42.8,1504.8c-0.2-1.1-0.4-2.2-0.7-3.3c-0.5-1.9-0.7-3.8,1.5-4.5c2.2-0.7,3.8,0.2,4.1,2.7
		c0.3,0,0.6,0.1,0.9,0.1c-0.2,2.6,1.1,5.4-0.9,7.8c-0.2,0-0.4,0.1-0.5,0.1c-0.7,0.2-1.4,0.4-2.2,0.3c-0.4-0.1-0.7-0.4-0.9-0.7
		C43.6,1506.6,43.5,1505.6,42.8,1504.8z"/>
	<path class="st65" d="M43.7,1587.7c-0.6,0.3-1.3,0.7-1.9,1c-0.9-1.3-2-2.4-1.1-4.2c0.6-1.7-1.8-3.2-0.2-5c0.8-0.4,1.3-1.5,2.5-1.4
		c1.4,0.3,2.2,1.1,2.4,2.5c0,1.6-0.9,2.8-1.6,4.1C43,1585.7,43.1,1586.7,43.7,1587.7z"/>
	<path class="st11" d="M49.6,1535.8c-1,0-1.9,0-2.9,0c-1.3-1.5-1.8-3.1-1-5l0,0c1.5-0.8,0.8-4.3,3.8-3.2
		C49.5,1530.3,49.5,1533,49.6,1535.8z"/>
	<path class="st37" d="M42.8,1510.8c0-0.4,0-0.8,0-1.3c0.7-0.5,0-2.5,1.9-1.9l0,0.1c1,0.9,2-0.8,3-0.1l0,0c0.4,1.3,1.9,2.6,0,4
		c-1.6-1.5-1.8-0.2-2,1C43.5,1514,43.3,1512.2,42.8,1510.8z"/>
	<path class="st66" d="M49.5,1527.6c-2.1,0.1-1.5,3.4-3.8,3.2c0.8-2-1.1-6.1,3.8-4.8C49.5,1526.4,49.5,1527,49.5,1527.6z"/>
	<path class="st35" d="M43.7,1584.7c-0.2-1.5,0.3-2.8,1-4c0.6-0.7,1.2-1.3,2.1-1.6c0.7-0.1,1.3,0,1.8,0.6
		C48,1582.4,45.4,1583.1,43.7,1584.7z"/>
	<path class="st67" d="M48.6,1579.7c-0.6,0-1.3,0-1.9,0c-0.5-0.6-0.6-1.3-0.1-2c0.6-1.1,1.3-0.1,2-0.1
		C48.6,1578.3,48.6,1579,48.6,1579.7z"/>
	<path class="st68" d="M49.7,1224.7c0-0.4,0-0.7,0-1.1c-0.7-0.8-0.5-1.5,0.3-2.2c0.4-0.1,0.8,0,1.1,0.4c1.1,9.8,1.2,19.6,0.6,29.3
		c-1.4,23.2-1.2,46.4-1.3,69.5c0,16.6,0.5,33.3-0.1,49.9c-0.2,5.6,1.3,11.5-1.3,17c-2.6,1.4-3.7-0.4-4.3-2.3
		c-0.5-1.7-1.3-3.3-1.8-5.1c0.1-3.6,2.2-2.7,4.4-1.5c0.5-5.6-0.4-10.8,0.1-16c0-0.9,0-1.9,0-2.8c0.1-1.4-0.3-2.6-1.9-3
		c-1.9-0.6-2.5-1.9-2.2-3.8c0.3-0.9,0.7-1.7,1.3-2.4c1.1-0.9,0.9-3.1,2.8-2.9c1,0.1,0.7,1.3,0.8,2.1c0.1-2.4-1.2-4.6-0.5-7.1
		c1.4-2-0.5-4.1,0.2-6.2c-0.8-0.2-0.6,0.5-0.6,0.9c-0.2,1.5,2.3,3.9-0.6,4.5c-3.1,0.7-3.8-1.8-3.5-4.4c0-0.7-0.1-1.5,0.3-1.9
		c4.6-4.7,2.8-11.1,4-16.6c0.5-2.2-1.7-4.7-0.3-7.2c0.3-2.1,0.6-4.1,0.2-6.2c-0.8-5.8,0-11.7-0.2-17.5c0.1-4.9-0.2-9.9,1.2-14.7
		c0.2-0.8,0.7-1.1-0.9-1.4c-3.7-0.7-2.8-2.9-0.7-4.8c1.1-0.7,1.5-1.7,1.4-3c0.3-2.2-0.6-4.4,0.3-6.5c0.1-4.9,3.3-9.6,0.1-14.7
		c-1.2-1.8,3-3.8,0.8-6.3c-1.4-2-1.3-4,0-6C49.7,1228.7,49.7,1226.7,49.7,1224.7z"/>
	<path class="st18" d="M49.7,1218.7c0.1-3.1-1.1-5.8-2.7-8.3c-0.5-0.9-0.9-1.2,0.3-1.7c1.2-0.5,2.3-1.3,3.4-2c0.4-0.3,0.7-0.3,1,0
		c0.6,5.1,0.3,10.2-0.7,15.2c-0.2-0.1-0.3-0.1-0.5-0.2C49.7,1220.9,49.7,1219.8,49.7,1218.7z"/>
	<path class="st69" d="M43.7,1379.7c3,1.8,0.2,7.5,5.3,7.9c0.5,1.1,0,2-0.3,3c-3.5,0.3-6.8-2.6-6.1-5.6c0.5-2-0.8-3.5-0.7-5.3
		C42.4,1379.1,43,1379.1,43.7,1379.7z"/>
	<path class="st50" d="M51.7,1206.7c-0.3,0-0.7,0-1,0c0-1.7,0-3.3,0-5c-0.8-7.3,0.5-14.8-1.5-22.1c-0.1-0.9,0.1-1.7,0.9-2.2
		c0.8-0.4,1.6-0.4,2.4,0.2c0.2,1.5,0.3,2.9,0.5,4.4c0.7,8.2-0.2,16.4-0.3,24.6C52.2,1206.5,52,1206.6,51.7,1206.7z"/>
	<path class="st70" d="M59.6,467.8c1.7,8.5,0.7,17.1,0.8,25.7c0.1,7.3,0.1,14.6,0,21.9c0,2.3,0.2,4.7-1.5,6.6
		c-1.5-1.1-1.3-2.7-1.5-4.2c-0.1-1-0.4-1.9-0.5-2.9c0-0.5,0.2-1.4,0.1-1.4c-5.2-2.1-1.3-4.1,0-6.1c0.4-1.5-1.2-1.9-1.5-3
		c1.5-2.9,2.7-5.9,2.1-9.2c-0.2-1.1,0.5-2.4-0.8-3.2c-1.7-0.3-2.3-1.7-3.1-3.5c-0.4,6.3,0,12,1.4,17.6c0.2,0.4,0.2,0.9,0.2,1.3
		c-0.2,0.6-0.7,1.1-1.1,1.6c-0.3,0.3-0.5,0.7-0.7,1.1c-0.5,1.7-0.4,3.3,0.2,4.9c0.7,1.6,0,2.5-1.4,3.1c-0.5,0.1-0.9,0-1.3-0.3
		c0-18.7,0-37.3,0-56c3.4,0.7,3.1,3.5,2.9,5.9c-0.3,3.3-0.3,6.6,0.3,9.8c0.2,0.6-0.4,1.3,0.2,1.9c0.2-0.4,0.3-0.8,0.5-1.3
		c0.2-1.3,3.3-2.9-0.5-3.9c-1.1-0.3-1.5-2.1,0-2.6c2.3-0.7,2.9-3,4.7-4.1C59,467.7,59.3,467.8,59.6,467.8z"/>
	<path class="st71" d="M51.7,449.7c-1.8-2.8-0.8-6.1-1.7-9.2c-0.7-2.7,2.3-0.4,3.3-1.7c0.1-2.1-3.6-2.6-2.6-5.2
		c1-0.9,1.8-2.2,3.2-2.6c5.6-0.3,2.4,3.9,3.1,6.1c0,0.6-0.7,1.3,0,1.9c0.3,0.1,0.6,0.3,0.8,0.6c1.8,7.3,1,14.7,0.8,22
		c-0.4,0.3-0.8,0.5-1.3,0.4c-1.1-0.4-1.4-1.3-1.4-2.4c0-0.7,1.4-3-1.3-1c-1.8,1.3-2.6-0.5-2.4-2.3c0.4-2.7,1.6-5,3.9-6.7
		c0-0.2,0.5-0.4,0.2-0.7c-0.2,0.6-0.6,1-1.2,1.3C53.8,450.8,52.6,450.8,51.7,449.7z"/>
	<path class="st72" d="M56.7,449.7c-1.8,2.6-3.6,5.1-3.5,8.4c3.2,0.9,0.4-4.7,3.6-3c2.1,1.1,0,3.2,0,4.9c0,0.6,0.5,1.1,0.8,1.7
		c1.8,2.1-1.5,2.8-1.3,4.5c0.9,0.4,1.5-1.3,2.5-0.5c0,0.6,0,1.2,0,1.8c-0.6,2.6-1.2,5.2-4.8,5.1c1,2.1,3.5,0.9,4.8,2.5
		c-0.7,1.5-3.6,1.2-3.1,3.6c-0.9,0.6-1.9,0.4-2.9,0.1c0.2-4.2-1.1-8.4-0.2-12.7c0.3-1.7-0.6-3.2-1.8-4.4c0-1,0-2,0-3
		c0.7-1.7,0.7-3.3,0-5c0-1.4-0.5-2.9,0.9-4c1.3,0,2.7,0,4,0C56,449.4,56.4,449.4,56.7,449.7z"/>
	<path class="st73" d="M58.7,317.7c0.2,0.1,0.5,0.2,0.8,0.3c1.1,12.9,0.8,25.7,0.2,38.7c-0.3,6,0.4,12.2,0.6,18.3
		c0.1,1.6,0.4,3.3-0.5,4.9c-0.5,0.4-0.9,0.4-1.4,0c-0.7-0.9-0.9-1.9-1-2.9c-0.1-0.8-0.1-1.5-0.1-2.3c0-1.9,0.1-3.9,0-5.8
		c-0.1-1.4-0.2-2.8,0-4.2c0-0.7,0.1-1.3,0-2c-0.8-2.3-1.5-4.6,0-6.8c0-1.2-0.1-2.4-0.1-3.6c0-2.6,0-5.3,0-7.9c0-1.3,0-2.6-0.1-3.9
		c-0.3-1.5-0.7-3-0.4-4.5c0.6-2.6-0.3-5.3,0.6-7.8c0.2-0.4,0.3-0.8-0.1-1.3C54.5,323,54.7,321.8,58.7,317.7z"/>
	<path class="st74" d="M58.8,379.7c0.3,0,0.7,0,1,0c-0.1,11,1,22-0.8,33c-0.4,2.3-0.2,4.6-0.3,7c-0.6,0.8-1.2,1.7-2.3,1.8
		c-0.8,0-1.5-0.2-2.1-0.7c-0.6-0.9-0.6-1.9-0.2-2.8c2.5-2.1,2.6-4.5,1-7.2c1.3-3,0.5-6.4,1.9-9.3c0.9-5.5-0.7-11.1,0.2-16.6
		C57.6,383,57.2,381,58.8,379.7z"/>
	<path class="st19" d="M56.6,437.9c-0.1-0.9-1.6-1.2-0.5-2.7c1.6-2.3,0.1-3.5-2.4-3.4c-1-1.2-0.3-2.1,0.5-3c1.1-1.3,0-1.6-0.9-1.9
		c-0.9-0.3-1.7-0.8-2-1.8c0-1,0.3-1.9,1.1-2.5c0.8-0.5,1.7-0.6,2.7-0.5c1.2,0.4,2.5,0.1,3.7,0.8c-1.4,5.6-0.5,11.3-0.9,17
		c-0.4,0-0.7,0-1.1,0C56.1,439.1,56.1,438.5,56.6,437.9z"/>
	<path class="st75" d="M58.8,465.7c-0.9,1.1-1.8,2.2-2.8,3.4c-3.5-3.5,0.9-5,1.7-7.4c0.3,0,0.7,0,1,0
		C59.2,463,60.2,464.3,58.8,465.7z"/>
	<path class="st76" d="M58.7,422.7c-1,0.3-2,1.6-3,0c-0.6-1.2,0.5-1.4,1-2c0.7-0.3,1.4-0.7,2-1C58.7,420.7,58.7,421.7,58.7,422.7z"
		/>
	<path class="st77" d="M56.6,195.6c-0.3,0-0.5,0.1-0.7,0.2c-0.2,0-0.4,0-0.7,0c-1.6,0.7-3.9-2.8-5,0.8c0.1,1.1,0.3,2.2,0,3.3
		c-0.6,1.5-1.1,3.1-2.7,4c-1.3-4.4,0.4-8.8,0.3-13.2c-0.4-15.7-2.4-31.3-1.1-47c3.3,0.7,1.7,3.7,2.7,5.5c1.1,4.1-0.6,8.1-0.1,12.3
		c0.5,4,1.3,8,1.8,13.1c0.4-5.2,0.7-9.3,3.1-12.9c0.2-0.1,0.5-0.1,0.7-0.2c1.8,6.2,0.3,12.7,1.6,19c-0.2,1.4-0.5,2.7-0.7,4.1
		c-1.3,0.8-1.2-0.9-1.9-1.1c0.4,1.5,0.2,3.2,1.9,4.1C57.2,190.3,56,193,56.6,195.6z"/>
	<path class="st78" d="M45.7,97.8c0.3,0,0.6-0.1,0.9-0.3c0.4,0.2,0.7,0.6,0.9,1c0.9,1.4-0.5,3.3,1.1,4.5c0.8-0.1,1.5,0.1,2.1,0.7
		c0,0.7,0,1.3,0,2c-1.5,1.5,0.7,4.4-2.2,5.3c-0.6,8.1-1.4,16.2,0.6,24.3c0.3,0.7,0.3,1.4,0.2,2.1c-0.7,1.3-1.3,2.6-2.6,3.4
		c-1.8-6.4-1.6-13.1-1.4-19.6C45.4,113.5,43.9,105.6,45.7,97.8z"/>
	<path class="st14" d="M49.6,237.7c-3-9.3-1.2-19-2-28.5c-0.1-1.5,0.1-3,0.1-4.5c1.3-0.3,1.6,0.7,2,1.5c0.3,0.7,0.5,1.3,0.7,2.1
		c0.1,0.7,0.1,1.5-0.1,2.2c0.3,5.7,0.8,11.4,0.4,17.2c-0.2,3.3,0.8,6.1,3.4,8.3C53.7,239.9,53.3,240,49.6,237.7z"/>
	<path class="st79" d="M49.6,237.7c1.7,0,4.5,2.3,4.1-2c0.2-0.1,0.4-0.2,0.6-0.2c0.7,0.1,1.2,0.4,1.6,1c0.2,1.4,1,2.9-0.3,4.2
		c-1.2,0.7-1.9,1.6-1.9,3.1c-0.3,0.6-0.6,1.2-0.7,1.8c-0.3,1,1.4,2.3-0.4,2.9c-1.6,0.6-2.3-0.8-3-1.9
		C49.6,243.6,49.6,240.7,49.6,237.7z"/>
	<path class="st80" d="M46.6,140.9c0.2-1.3-0.1-3.1,2.1-3.2c1.3-0.3,1.2-2.5,2.9-2c0.4,1,0.7,2,1.1,3c0,0.2,0,0.5,0,0.7
		c-0.3,1.9,0.8,4.1-1.3,5.5c-0.3,0-0.5-0.2-0.7-0.3c-0.2-0.2-0.2-0.1,0.2,0.2c0.6,0.4,1.5,0.6,2,1.2c0.3,0.3,0.5,0.6,0.8,0.9
		c0,0.6,0,1.2,0,1.9c-1.1,0.9-2.8,0.3-3.9,1.4c-0.4,0.1-0.8,0-1.1-0.4c-2.1-1.5,0.1-4.5-2-6C46.7,142.8,46.6,141.8,46.6,140.9z"/>
	<path class="st81" d="M48.8,206.6c-0.4-0.6-0.7-1.2-1.1-1.8c-0.2-0.2-0.3-0.5-0.2-0.8c0.4-1.5,0.7-3.2,2.1-4.2
		c1.6-1,2.3-0.1,2.7,1.3c0,0.5,0,1-0.1,1.5C51.3,204,52.9,207.7,48.8,206.6z"/>
	<path class="st82" d="M51.7,517.7c1.8-1.1,0.3-2.3,0.2-3.5c-0.2-1.8-0.9-3.9,0.8-5.5c0.9,1.3,0.2,2.9,0.5,4.3
		c-0.2-1.4,0.4-3-0.5-4.3c0.4-0.8,1.2-1,2-1c1.3-1,2.6-1.1,4,0c-0.9,1.6-3.7,1.7-3.5,4.3c1.8,1,1.6-2.1,3.2-1.4
		c0.8,1.5-0.9,2.7-0.7,4.2c-1.2,0.7-0.5,2-1,2.9c-0.4,0.5,0.2-0.2-0.3,0.3c0-0.1,0.1-0.2,0.2-0.3c0.5-0.7,1-1.3,1.9-1.1
		c0.1,1.8,0.2,3.6,0.3,5.4c0,1.9,0,3.8,0,5.7c-2.5,4.9-3.6,5.5-8,4c0-2.3,0-4.7,0-7C52.5,522.6,50.4,519.9,51.7,517.7z"/>
	<path class="st83" d="M59.6,532.6c-1.7,2.2-0.1,4.8-0.9,7.1c-3.2,1.6-3.1-1.5-4.7-4.2c1,5.2-2.3,8.9-0.5,13.1c1,1.5,0.9,3,0.2,4.5
		c-0.1,0.4-0.3,0.8-0.5,1.2c-0.6,1.5-0.2,3,0.1,4.5c0.1,0.5,0,0.9-0.1,1.4c-1.5,4.5,1.5,9-0.2,13.4c-0.4,1.8,0.6,4.4-2.4,5
		c0-15,0-30,0.1-45c3.1-1.2,6.8-1.5,8.1-5.3C59.9,529.7,60,531.1,59.6,532.6z"/>
	<path class="st84" d="M50.7,578.7c1.8-1.7,0.6-4,1-5.9c4.3,0.4,4.5,4.2,5.7,7.2c-1.7,1.5-2.2,3.7-2.7,5.8c-0.7,0-1.3,0-2,0
		c-1.6-0.8-1.4-2.7-2.1-4C50.2,580.7,50.2,579.7,50.7,578.7z"/>
	<path class="st85" d="M58.9,528.4c-0.2,5.6-4.1,5.5-8.1,5.3c0-0.7,0-1.3,0-2c3.8,0.8,5.6-2.1,8-4C59,527.9,59.1,528.1,58.9,528.4z"
		/>
	<path class="st86" d="M50.6,581.7c1.4,1,1.9,2.4,2.1,4c-0.7,1-1.4,2-2.1,3C48.8,586.4,49.6,584.1,50.6,581.7z"/>
	<path class="st87" d="M51.7,517.7c-0.1,2.4,1.9,5-0.9,7c0-2.3,0-4.7,0-7C51.1,517.7,51.4,517.7,51.7,517.7z"/>
	<path class="st71" d="M50.8,453.7c1.3,1.7,1.4,3.3,0,5c-0.1-1.2-0.2-2.5-0.2-3.7C50.6,454.6,50.7,454.1,50.8,453.7z"/>
	<path class="st88" d="M48.7,1287.7c0,6.1,0,12.1-0.1,18.2c-0.6,2.2-0.7,4.4,0,6.7c-1,1.9-0.5,3.4,0.1,5.5c1.2,3.9-2,8.1-0.4,12.5
		c0.6,1.7-2.6,3.1-3.8,4.8c-0.4,0.6-0.6,1.5-0.9,2.3c-0.3,0.4-0.6,0.4-0.9,0l-0.1,0c0-5.5,0.4-11-0.1-16.4
		c-0.4-5.4,5.5-9.3,3.3-15.6c-2.1,2.4-0.2,5.4-2.5,7.6c-2-3.5-1.1-6.6,0.4-9.5c0.4-0.9,0.7-1.4-0.1-2c-1.7-1.7-0.2-3.4-0.3-5
		c-0.6,0.4,0.3,2.4-1.6,2.1c-0.7-4.7,1.4-9.3,0.9-14c2.3,0.4,0.9-1.5,1.4-2.3c0.4-0.8,0.8-1.6,1.6-2c3.5,1.2,0.2,4.5,2,6.3
		C48.1,1287.1,48.4,1287.4,48.7,1287.7z"/>
	<path class="st89" d="M45.7,1280.7c0,0.8-0.2,1.6-1,2c-0.9,0.1-1.5-0.4-2-1c0-2.5-0.4-4.9,1.4-7.1c1.9-2.3-1.2-3.8-1.2-5.8
		c0.8-1.6-0.3-3.5,0.8-5c0-0.6,0-1.3,0.1-1.9c2.6-0.1,1.6-3.7,4-4.1c0.3,0,0.7,0,1,0c1.3,2.3,1,4.7,0.8,7.1c-1,0.7-0.4,1.9-0.8,2.8
		c-1,0.7-2.9,0.8-2.5,2.5c0.3,1.4,1.7,0.6,2.6,0.8c1.7,0.3,0.9,2.5,0.7,3.6c-1.1,4.4-0.7,8.8-0.8,13.2c-0.3,0-0.7,0-1,0
		c-2-2.4,0.5-5.5-1-7.9c0-0.1,0.6-1.7-0.5-0.4C45.8,1279.7,45.7,1280.2,45.7,1280.7z"/>
	<path class="st68" d="M47.7,1257.7c-0.7,2,1,6.3-4,4.1c0-1.7,0-3.4,0-5.1C45.7,1254.3,46.7,1255.9,47.7,1257.7z"/>
	<path class="st90" d="M41.8,1298.8c1-0.9,0.8-2,0.9-3.1c0-0.8-0.2-1.8,0.7-2.1c0.5-0.1,1.3,0.2,1.7,0.6c0.7,0.6,0.7,1.6,0,2.1
		c-1.9,1.5-1.2,3.5-1.4,5.4C41.6,1301.6,41.8,1300.1,41.8,1298.8z"/>
	<path class="st91" d="M42.7,1281.7c0.8,0.1,1.5,0.2,2,1c-0.1,1.2,0.5,3.1-1.9,2C42.7,1283.7,42.7,1282.7,42.7,1281.7z"/>
	<path class="st68" d="M43.7,1263.7c-0.2,1.7,0.5,3.5-0.8,5C42.9,1267,42.1,1265.2,43.7,1263.7z"/>
	<path class="st92" d="M51.6,686.8c-3.8-1.1-1.2,2-2,2.9c-1.9-2-0.8-4,0-6c0.3-0.3,0.7-0.7,1-1c-0.3-1.3,0.2-2.5,0.4-3.7
		c-0.1-0.8-1.1-1.4-0.4-2.3c2.1-0.6,3.2-0.2,3.1,2.4C53.6,681.9,53.7,684.6,51.6,686.8z"/>
	<path class="st93" d="M49.7,697.7c0.3,3.7,0.7,7.3,1,11C47.1,706.6,46.5,700.6,49.7,697.7z"/>
	<path class="st93" d="M51.7,710.7c-0.1,1.3,0.1,2.7-1.7,2.9c-1.4,0.1-2.1-0.5-2.3-1.9C48.7,710.3,50.3,710.9,51.7,710.7z"/>
	<path class="st94" d="M46.7,724.7c0-0.3,0-0.6,0-1c0.2-2.6,1.8-3.1,4-3C50.5,723.2,47.5,722.8,46.7,724.7z"/>
	<path class="st26" d="M48.8,652.7c0.5-5.3-1.3-10.7,0.9-16c0.9-0.9,1.7-1.8,2.6-2.6c0.9-0.8,1-1.8,0.4-2.8c-1.7-1-0.8,0.7-0.9,1
		c-0.5,1-0.2,2.6-2.1,2.3c-1.4-5.3-0.3-10.6,0.1-15.9c0.3,0,0.6-0.1,0.8-0.1c0.6,0.1,0.9,0.5,1,1c1.3,1.3-0.6,3.1,0.7,4.5
		c1.8-0.2,2.1-2.9,4.2-2.5c0.9,5.2-1.1,10.3-0.4,15.5c-0.3,1.6,1.6,4.2-2,4.3c-0.7,0.2-1.5,0.5-2.1,1c-1.3,2.6,0.6,5.7-1.4,8.2
		c-0.3,0.7-0.7,1.3-1,2C49.4,653.2,49.1,653.2,48.8,652.7z"/>
	<path class="st86" d="M54.7,585.7c0.1-1.9-4.4-5.6,2-5c0.6-0.6,0.9-1.7,2.2-1c0,7.4,0,14.9-0.1,22.3c0,1.3,0,2.7-1,3.8
		c-0.4,0.5-0.7,0.4-1.1,0c0.3-3.7,0.6-7.4,0.8-11.2c-0.9-1.3-1-2.6,0.1-3.9c-0.3-1.8-1.2-3.4-1-5.4c-1,2.1-2,4.2-3,6.4l0,0
		C53.5,589.6,52.8,587.5,54.7,585.7z"/>
	<path class="st22" d="M56.7,605.7c0.4,0,0.7,0,1.1,0c-0.2,7.5,0,15.1-0.6,22.5c-0.3,3.5-0.5,6.9-0.5,10.4c-0.3,0.3-0.7,0.3-1,0
		c-0.2-5.7-0.2-11.3,0.8-16.9C55.9,616.4,55.7,611.1,56.7,605.7z"/>
	<path class="st95" d="M53.7,611.7c-1.2-0.7-0.9-1.9-1-3c-1.9-2-2.4-4.3-1.9-6.9c1.7,1.8,1.7,1.8,2.9,0.4c0.3-0.3,0.4-1,1-0.7
		c0.4,0.2,0.9,1,0.8,1.1C53.5,605.4,56.6,609.2,53.7,611.7z"/>
	<path class="st96" d="M53.7,591.7c0.2,1.6,0.5,3.2,0.8,4.9c-3-0.7-3.2-3.1-2.7-5.2C52.3,589.5,53,591.8,53.7,591.7L53.7,591.7z"/>
	<path class="st97" d="M57.7,590.7c0,1.3-0.1,2.6-0.1,3.9c-2.2-0.1-1.9-1.7-1.8-3.1C55.7,589.8,56.8,590.5,57.7,590.7z"/>
	<path class="st22" d="M51.7,619.8c-0.3-0.3-0.7-0.7-1-1c0.8-0.9,1.8-1.6,2.5-0.2C53.6,619.5,52.4,619.6,51.7,619.8z"/>
	<path class="st98" d="M49.7,1230.7c0,2,0,4,0,6c-3.4,0.3-2.2,4-4.5,6.1C44.1,1237.3,47.3,1234.2,49.7,1230.7z"/>
	<path class="st68" d="M47.3,1246.2c1.7,1.5,1.7,3,0.6,4.5c-0.4,0.6-1.2,0.6-1.6-0.1C45.4,1248.9,46.6,1247.7,47.3,1246.2z"/>
	<path class="st99" d="M47.3,1225.8c0,2.2-0.5,3.4-2.2,4.4C44.5,1228.1,44.6,1226.7,47.3,1225.8z"/>
	<path class="st73" d="M50.8,335.7c-0.1-9.9-0.3-19.9-0.4-29.8c0.2-0.1,0.4-0.2,0.5-0.3c1.5-0.3,1.7-2,2.7-2.9
		c4.7,0.1,3.3,4.7,5.1,6.9c0.5,2.3,0.5,4.7,0,7c-1.7-1.2-4.3,1.5-5.7-1.3c0.1-0.8,0.2-1.6,0.3-2.4c-0.7,4.2-0.6,8.5,0.2,12.7
		c0.2,0.7,0.3,1.4,0.2,2.2c0,1.3-0.5,2.4-0.6,3.7C52.6,333,53.4,335.3,50.8,335.7z"/>
	<path class="st100" d="M55.7,273.7c0.3,0,0.6,0,1,0c2,3.5-0.4,7.4,1,11l0,0c-1.8,2.1-0.3,4.7-1.1,7c-3.4,0.1-2.9-3.7-5-5
		c-1-2.7-2-5.1,0.8-7.6c3.3-2.9-3.5-1.9-1.7-4.7C51.9,273.1,54.8,278.4,55.7,273.7z"/>
	<path class="st100" d="M50.7,294.7c0-2,0-4,0-6c4.5-2.7,2.9,1.8,3.9,3.2c-1.2,2.1,1.8,4.8-0.9,6.8c-0.3,0-0.7,0-1,0
		C49.9,298.5,52.1,295.7,50.7,294.7z"/>
	<path class="st101" d="M53.7,292.7c-0.5-1.7,1.3-5.1-3-4c0-0.8,0.2-1.6,1-2c4.1-0.8,2.2,4.4,5,5c1.5,1.3,1.4,2.7,0.1,4
		C54.4,296,54.7,293.7,53.7,292.7z"/>
	<path class="st73" d="M53.7,292.7c2.2-0.2,1.7,2.3,3,3c-0.2,1.8,0.3,4.3-3,3C55.2,296.7,51.5,294.7,53.7,292.7z"/>
	<path class="st102" d="M53.6,302.8c0,1.4,0.8,3.2-0.5,4.2c-1.1,0.9-1.4-0.9-2.2-1.4C51,304,49.5,300.8,53.6,302.8z"/>
	<path class="st101" d="M50.7,294.7c1.6,0.9,0.3,3.2,2,4c-0.6,0.8-1.3,2.4-1.9,0.2C50.4,297.6,50.7,296.1,50.7,294.7z"/>
	<path class="st35" d="M40.6,1584.6c0.4,1.4,0.8,2.8,1.1,4.2c-0.3,2.8,0.4,5.6-0.6,8.3c-1.1,2.9,0.1,4,3.9,3.1
		c-5.4,2.1-1.3,4.5-1.4,6.6c0,6.9-2.1,13.9,0.6,20.8c1.8-0.6,0.8-3.7,3.1-3.7c1,0,0.6,1.4,1.3,1.9c0.3,1.1,0.8,2.1,0.9,3.2
		c0.5,3.1,0.3,5.9-4,5.9c-0.9,1-2,1.3-3.3,1.3c-1.1-0.5-1.4-1.3-0.6-2.4c-0.7-9-2.1-18-1.9-26.9C40,1599.4,38.9,1591.9,40.6,1584.6z
		"/>
	<path class="st103" d="M41.7,1633.7c0.3,0.7,0.6,1.4,0.9,2.1c0.5,0.9,0,1.4-0.7,1.8c0.3,5.4-1.2,10.8,0.8,16.1
		c-0.4,0-0.8,0.1-1.2,0.1c-1.3-1.4-2.1-3-1.6-5c1.5-3.6,0.6-7.4,0.9-11.1C40.8,1636.3,40,1634.7,41.7,1633.7z"/>
	<path class="st67" d="M42.7,1578.7c-0.8,0.3-1.5,0.6-2.3,0.9c0.8-4.3-0.5-8.8,1.2-13c0.2,1.9-0.3,4.1,2.1,5.1l0,0c0,0.7,0,1.3,0,2
		l0,0c-0.9,0.8-2,1.6-1,3C43.3,1577.4,43.3,1578.1,42.7,1578.7z"/>
	<path class="st8" d="M57.7,284.7c-2.6-3.4-0.8-7.3-1-11c-0.5-2.1,2.1-5.2-2.8-6c-1.7-0.2-2.4-4.3-1.2-7c1.1-1.7-0.1-3.3,0-5
		c4.4-3.4,5.5-8.9,2.9-15.1c0-1.3-0.8-2.7-0.1-4c-0.1-1.7-1.4-1.9-2.6-2.3c-2.4-2.4-4.1-4.8,0.2-7c1.2,0.2,1.2,1.2,1.4,2.2
		c0.5-1.6-0.2-3.2-0.1-4.8c0-1.2,0-2.3-0.1-3.5c-0.4-2.8-0.4-5.7-0.5-8.5c1.2-1.8-1.2-4.9,2.1-6c0.5,0.1,1,0.2,1.5,0.4
		c0.2,5.5-0.5,10.9-0.6,16.3c-0.1,9.4,0.9,18.7,1,28.1c0.1,8.2,0.3,16.4,0.7,24.6C58.7,278.7,58.9,281.9,57.7,284.7z"/>
	<path class="st104" d="M50.8,335.7c1.5-1.4,0.7-3.3,0.9-5c1.5-0.4,2.7-1,1.7-2.8c0.2-1.7,0-3.3-0.3-5c-0.5-2.5-2.6-5,0.6-7.2
		c2-1.6,3.8-1.6,5,1c0.2,0.3,0.2,0.6,0.1,0.9c-1.3,1.7-0.9,4.1-2.5,5.8c-0.8,0.9-1.2,3,1.4,2.3c1.1-0.2,1.2,0.6,1,1
		c-1.5,2.9,1.1,6.1-0.9,8.9c-1.9,1.9-3.1,5.7-6.9,3C50.8,337.7,50.8,336.7,50.8,335.7z"/>
	<path class="st105" d="M54.5,932.6c0.3,1.2-4.2,1-0.9,3.2c2.2,1.5-0.2,3.3,0.1,4.9c0,1.1-0.1,2.2-1,3c-1.7,0.8-0.2,4-3,4
		c-0.4-0.8-1.1-1-1.9-1c0.1-4.4,0.1-8.9,0.2-13.3c0.8-0.9,0.7-1.8-0.1-2.6c0.5-3.5-2.1-7.9,2.9-10.2c0,2.2,3.8,3.2,2,6
		C53.7,928.5,53.3,930.8,54.5,932.6z"/>
	<path class="st106" d="M54.5,932.6c-2.8-1.3-2.3-3.6-1.9-5.9c2.7,0.3,1.8,2.5,2,4C54.7,931.4,54.6,932,54.5,932.6z"/>
	<path class="st105" d="M50.7,918.7c-1.4,0-2.5-0.6-2.9-2C49.2,916.7,50.6,916.8,50.7,918.7z"/>
	<path class="st107" d="M48.8,797.6c0.1-2.6,1.4-5.1,0.1-7.7c1.5-0.4,1.8,1.3,2.8,1.7l0,0c0.9,1.4,2.8,1.1,4,2l0,0
		c0.4,3.5-3.4,2.1-4.5,3.9C50.4,798.1,49.6,798.6,48.8,797.6z"/>
	<path class="st108" d="M51.7,791.6c0.2-1.4-0.6-2.9,0.6-4.3C54.5,789.2,52.8,790.4,51.7,791.6L51.7,791.6z"/>
	<path class="st109" d="M42.8,1510.8c1,0.6,1.4,2.1,2.9,1.9c0.1,1.7,0.3,3.5-1.3,4.8c-1.2,1-1.5,0.4-1.7-0.8
		C43.4,1514.8,41.6,1512.8,42.8,1510.8z"/>
	<path class="st66" d="M45.7,1530.7c0.9,1.6,1.1,3.3,1,5c-0.3,0.3-0.7,0.7-1,1C42.8,1534.1,42.8,1531.9,45.7,1530.7z"/>
	<path class="st110" d="M48.8,652.7c0.3,0,0.6,0,0.9,0c1.8,3.7-0.6,7.3,0,11c-2.1-0.1-1.9-1.7-2.1-3.1c0-2-2-3.9,0-5.9
		C48.5,654.3,48.7,653.5,48.8,652.7z"/>
	<path class="st77" d="M49.7,149.7c0.5-3.4,2.7-0.5,3.9-1.1c-2,3.9,0.4,7.4,1.1,11.1c0,0.6,0.1,1.2,0.1,1.9
		c-0.1,0.1-0.3,0.2-0.4,0.3c-3,0.3-5.2-0.7-3.8-4.1C51.9,154.7,49.4,152.5,49.7,149.7z"/>
	<path class="st111" d="M50.7,103.7c-1,0-2,0-2.9,0c-1.2-1.4,0.1-3.4-1-4.8c-0.1-0.5-0.1-0.9-0.2-1.4c0-2.3,0-4.5,0-6.8
		c2.3-3,1.2-6.6,1.8-9.9c0.8-0.9,1.8-1,2.9-0.7c1.8,1,1.1,3.3,2.4,4.6c0,1.1-0.2,2.3,1,3c0.8,3.1-3,4.2-3,7c-1.6,2.5-0.6,5.4-1,8
		C50.7,103.1,50.7,103.4,50.7,103.7z"/>
	<path class="st80" d="M48.7,135.8c-2.4-0.4-1.9-2.4-1.9-4c0-7.6,0-15.3,0-23.4c0.9,1,1.4,1.7,2,2.4c1,0.4,1.4,1.1,1.3,2.2
		c-0.3,1.1-0.4,2.3-0.5,3.5c-0.2,2.8-0.2,2.8,2.3,3.6c0.5,0.2,0.4,1.2,0.7,1.8c0,1,0,1.9,0,2.9c-0.5,1.1-0.4,2.5-1.9,3.1l0,0
		c-0.9,0.4-1.9,0.7-1,2c1.3,0.6,2,1.6,1.9,3C50.7,133.9,49.8,134.9,48.7,135.8z"/>
	<path class="st78" d="M52.5,121.8c-0.6-0.2-1-1.9-1.6-0.7c-0.6,1-0.3,2.5-0.9,3.8c-1.6-4-3.3-7.9-0.3-12.1c1.3-0.7,2.1,0.2,3,1
		C52.6,116.4,52.5,119.1,52.5,121.8z"/>
	<path class="st78" d="M50.7,102.7c-1.8-2.9-3.8-5.9,1-8c2.3,2.2,2.6,7.4,0.5,9C52,103.9,51.2,103.1,50.7,102.7z"/>
	<path class="st112" d="M52.6,113.7c-1-0.3-2-0.6-3-1c-0.3-0.7-0.7-1.3-1-2c0.6-1.2,0.9-2.1,0.1-3.5c-1.4-2.6,0.3-2.1,1.9-1.5
		C53,108,52.7,110.8,52.6,113.7z"/>
	<path class="st113" d="M48.7,135.8c-0.1-2.1,0.7-3.3,3-3c1.4,1,1.3,2,0,3c-1.5,0-0.2,4-2.9,2C48.7,137.1,48.7,136.4,48.7,135.8z"/>
	<path class="st77" d="M53.6,146.8c-0.3-0.1-0.6-0.1-0.9-0.1c-1-2.6-0.6-5.3-0.1-7.9c0,0,0.1,0,0.1,0
		C54.6,141.2,53.3,144.1,53.6,146.8z"/>
	<path class="st78" d="M49.7,129.7c-1.1-0.1-2.2-0.4-1.8-1.7c0.6-2,1.8-0.4,2.8-0.3C50.4,128.4,50,129,49.7,129.7z"/>
	<path class="st78" d="M50.7,127.7c0.6-1,1.2-2,1.9-3.1C51.9,125.7,54.5,128.6,50.7,127.7z"/>
	<path class="st114" d="M58.8,579.7c-0.7,0.3-1.4,0.7-2.2,1c-1.1-3-2.5-5.8-5-7.9c2.1-3.4-0.8-6.9,0.3-10.4c0.3-0.9,0.5-1.8,0.7-2.8
		c0.8-0.9,0.7-2.5,2.1-2.9c0.9,1.2,1.9,2.3,2.6,3.6c0.6,1,0,2.5-1,2.1c-5-1.6-2.2,1.2-1.6,2.7c1.4,3.9,2.8,7.9,4.2,11.8
		C58.8,577.9,58.8,578.8,58.8,579.7z"/>
	<path class="st115" d="M51.7,641.7c0.7-0.3,1.3-0.7,2-1c2.3,2,3.3,4.3,2.1,7.2c0.2,0.3,0.2,0.5,0,0.8c-1.8,1.8,1.3,4.6-1.7,6.3
		c-1.9-0.7-1.2-3-2.3-4.3C50.7,647.7,51.5,644.7,51.7,641.7z"/>
	<path class="st110" d="M55.8,647.9c1.1-2.9-2.1-4.6-2.1-7.2c1.7,0.4,2.4-0.4,2.1-2.1c0.3,0.1,0.7,0.1,1,0
		C57.1,641.9,56.7,644.9,55.8,647.9z"/>
	<path class="st116" d="M52.7,255.8c2.2,1.7,4.4,3.3,0,5C51.2,259.1,51.1,257.4,52.7,255.8z"/>
	<path class="st117" d="M50.7,338.7c3,0.5,4.6-2,6.9-3c0.3,1.4,0.6,2.7,0.9,4.1c-1.6,1.2-0.8,2.5-0.1,3.8c0,3.1,0,6.2,0,9.3
		c-0.6,1.7-1.6,3.1-3,4.3c-0.3,0.3-0.7,0.6-1.1,0.8c-2-0.1-1.7,3-3.8,2.7C50.7,353.4,50.7,346.1,50.7,338.7z"/>
	<path class="st118" d="M50.7,360.7c1-0.6,0.9-1.7,1.1-2.6c0.6-3,1.8-1.2,2.9-0.4c1.6-0.4,1.6,1,1.5,1.8c-0.2,1.9,1.1,2.6,2.5,3.3
		c0,0.6,0,1.2-0.1,1.8c-1.5,1.2-3.4,1.9-5.2,2.4c-0.5,0-0.8-0.2-1.1-0.6c0-1.8-0.4-3.4-1.5-4.7C50.7,361.4,50.7,361.1,50.7,360.7z"
		/>
	<path class="st119" d="M50.7,361.7c2.3,1,2,3,1.9,5c-0.8,0.2-1.4,0.1-1-1c0.1-0.9,0.4-1.8-0.8-2.2
		C50.8,362.9,50.8,362.3,50.7,361.7z"/>
	<path class="st21" d="M55.7,37.7c1.6-1.3,0.7-3.2,1.1-4.8c5,4.2,3.8-2.7,6.5-3.5c0.2,4-2.4,7.7-1.4,11.6
		c-0.8,6.3-1.3,12.6-3.2,18.7c-3.7-0.8-4.7-3.8-5.3-6.8c-0.4-2.1-0.1-4.3,1.4-6.1c2.9-1.9,5.1-3.9,0.9-6.8
		C54.7,39.4,55.4,38.5,55.7,37.7z"/>
	<path class="st114" d="M52.7,553.7c-0.4-1.3,1.8-2.7,0-4c0-0.2-0.1-0.3-0.1-0.5c0.4-2,0-5.3,2.5-5.2c2.7,0.1,1.6,3.4,1.9,5.4
		c-0.1,1.4,0.5,3-0.3,4.3c-0.6,0.3-1.3,0.7-1.9,1C53.9,554.8,53.2,554.5,52.7,553.7z"/>
	<path class="st120" d="M56.7,553.7c-0.6-1.3-1.1-2.5-1-4c0.4-0.4,0.9-0.5,1.4-0.4c1.5,1.2,2.4,2.7,1.7,4.7l0,0.4
		c-0.2,0.5-0.4,1.3-0.5,1.3C57.2,555.7,57.2,554.4,56.7,553.7z"/>
	<path class="st121" d="M52.7,553.7c0.8,0,1.6,0.2,2.1,1c0,0.7,0,1.3,0,2c-0.1,1.4-0.7,2.5-2.1,2.9c0-0.3,0-0.6,0-0.9
		C51.9,557.1,51.9,555.4,52.7,553.7L52.7,553.7z"/>
	<path class="st122" d="M51.7,365.7c0.3,0.3,0.7,0.7,1,1l0,0c1.8,2.4,1.7,5.1,1.1,7.8c-0.9,2.1-1.3,4.2,0.2,6.2c1.8,1.6,4.6,3,2,6.1
		c-0.6,0.4-1.2,0.5-1.9,0.6c-2.3,3.1-1.5,6.2,0.1,9.2c0.5,0.5,0.9,1,1.3,1.7c0.4,0.9,0.8,1.8,0.9,2.7c-0.5,3.1-2.9,2.8-5.1,2.9
		c-0.2-0.1-0.4-0.3-0.6-0.4c0-11.1,0-22.3,0.1-33.4C50.7,368.8,49.9,366.9,51.7,365.7z"/>
	<path class="st19" d="M49.5,422.6c-0.4-6.4,0.5-12.7,1-19l0.3,0.2c3.6,1.1,5.5,2.4,2.4,6.4c-1.7,2.3-1.5,5.6-1.1,8.6
		c0.2,1.8,0.5,3.8-2.3,3.9L49.5,422.6z"/>
	<path class="st123" d="M54.7,46.8c-2.8,5.6,1.2,9.1,3.9,13c0,0.7,0,1.3,0.1,2c-1.3,2-3.2,3.4-4.9,5c-1.7,0.5-2.1-1.2-3-2
		c2.6-4.5,0.9-9.5,2-14.2C53.1,49.1,52.1,47,54.7,46.8z"/>
	<path class="st21" d="M53.7,66.7c0.2-3.1,2.8-3.8,5-5c-1.1,2.6,0.7,5.5-0.9,8.1l-0.3-0.3c-1-1-1.5-2.7-3.3-2.5
		C54,67,53.8,66.9,53.7,66.7z"/>
	<path class="st124" d="M55.7,870.7c-1.6,1.3-0.8,5-4.7,4.1c2.4-3,2.9-6.4,2.6-10.1c-1.7-2.2-1.9-4.8-2.3-7.4c0.8-1.6,2-1.5,3.3-0.6
		c0.6,3.3-1.3,6.9,1.2,9.9C56.6,868.1,55.8,869.4,55.7,870.7z"/>
	<path class="st125" d="M50.7,64.8c1.6-0.2,1.9,1.4,2.9,2l0,0c0.6,0.5,1.6,0.9,1,2c-1.1,2-1.2,4-0.5,6.2c0.6,1.8,1.6,4-1.5,4.7
		c-0.2-0.1-0.4-0.1-0.6-0.2c-1.4-1.1-1.8-2.9-2.7-4.3c-0.1-0.4-0.2-0.8-0.3-1.3c0.3-2.8,1.3-5.4,1.6-8.2
		C50.7,65.4,50.7,65.1,50.7,64.8z"/>
	<path class="st21" d="M50.7,65.7c0.9,3.1-0.5,6-0.9,9c-0.4,0.3-0.7,0.3-1.1,0c-1.5-2.5,0.9-4.5,0.9-6.8
		C49.9,67.2,50.3,66.5,50.7,65.7z"/>
	<path class="st126" d="M56.7,549.7c-0.3,0-0.7,0-1,0c0-1.7,0-3.3,0-5.1c-2.8,0.9-0.8,4.2-3,5.1c-1.7-2.6-1.4-5.4-0.3-7.9
		c0.7-1.5,1.2-2.5,0-4c-0.9-1.1-1.3-2.8,0.8-2.8c0.8,0,4.2-1.1,2.9,2.5c-0.6,1.6,1.2,2,2.5,2.2c0.5,2.7,0.4,5.3,0,8
		C58.1,548.4,57.7,549.3,56.7,549.7z"/>
	<path class="st114" d="M56.7,549.7c0.4-1,1.1-1.6,2-2c0,2.1,1.6,4.2,0.1,6.4C58.4,552.5,58.1,550.8,56.7,549.7z"/>
	<path class="st85" d="M49.9,422.8c3.5-2.8-0.1-6.4,1.2-9.8c0.9-2.2,1-4.6,3.5-6.1c-1.4-1.3-4.3-0.2-3.7-3.1c1.1-1.8,4.5,0,4.8-3.1
		c1.7-0.4,1.8,0.9,2.1,2c-0.2,0.4-0.6,0.9-0.6,1.3c0.2,3.3-0.1,4.9-1.4,6.6c-0.1,0.6-0.4,1.1-0.8,1.5c-0.2,0.3-0.5,0.6-0.7,1
		c-0.2,0.8-0.2,1.6,0.2,2.4c0.2,0.3,0.4,0.7,0.6,1.1c0.1,0.4,0,0.8-0.4,1.1c0,1,0,2,0,2.9c0.6,2-1.6,1.1-2,2c-0.3,0.7-0.7,1.3-1,2
		c-0.3,0.5-0.7,0.5-1,0C50.4,424.1,50.2,423.5,49.9,422.8z"/>
	<path class="st127" d="M53.7,425.7c1.1,0.1,2.4-0.2,2.8,1.3c0.4,1.3,0,2.1-1.5,2.4c-1.1,0.2-1.2,1.4-1.3,2.4c-0.6,1.3-1.5,2-3,2
		c-0.4-2.1,0.7-4,1-6C52,426.8,52.9,426.3,53.7,425.7z"/>
	<path class="st128" d="M53.7,425.7c-0.7,0.7-1.3,1.3-2,2c-0.3-1-0.7-2-1-3c0.3,0,0.6,0,1,0C52.1,425.5,52.9,425.7,53.7,425.7z"/>
	<path class="st110" d="M51.7,641.7c1.6,3-0.2,6,0,9l-0.5,0c0,0-0.5,0-0.5,0c-0.2-3-0.5-6,0.2-9c0-0.1,0.3-0.2,0.4-0.2
		C51.4,641.5,51.5,641.6,51.7,641.7z"/>
	<path class="st123" d="M54.7,68.7c-0.3-0.7-0.7-1.3-1-2c3.5-2,3.6,0.5,3.9,2.8C56.6,69.3,55.6,69,54.7,68.7z"/>
	<path class="st13" d="M53.7,84.7c-1.8-0.8-2.1-2.3-2-4c-0.2-0.9,0.1-1.3,1-1c0,0,0,0,0,0C53.6,81.3,53.8,83,53.7,84.7z"/>
	<path class="st129" d="M50.7,796.7c0.1-1.4,0.6-2.1,2.1-1.4c1.6,0.7,2.2-0.6,2.9-1.6c0.3,0.1,0.5,0.1,0.7,0.2c0,7.9,0,15.8,0,23.7
		c-0.2,0.1-0.5,0.2-0.7,0.4c-2.2-2-1.5-4.6-1.4-7C54.5,805.8,54.6,800.8,50.7,796.7z"/>
	<path class="st130" d="M52.7,634.7c-0.6,1.3-1.5,2-3,2c0-0.7,0-1.4,0-2.1c1.4-1.1,0.8-2.6,1-4c0.1-1.2,0.5-2.5,1.8-2.5
		c1.8,0,0,2.1,1.2,2.6C54.8,632.4,53.5,633.5,52.7,634.7z"/>
	<path class="st131" d="M50.7,1177.7c-0.3,0.3-0.7,0.7-1,1c-0.5,0.3-0.9,0.3-1.4,0c-2.2-3-2.2-6.5-1.8-10c1.2-1.1,1.4-2.7,2.2-4
		c3-3.9-0.3-5.4-2.8-7.1c1.5-2.1,1-4.7,1.8-6.9c-1.7-1.3-2.4-2.9-1.9-5c3-0.2,3,4.1,5.9,4.1c-2.2,2.1,0.5,3.8,0.5,5.8
		c0.1,5.8,0.1,11.6,0.2,17.3C51.1,1174.2,52.3,1176.5,50.7,1177.7z"/>
	<path class="st132" d="M50.7,1177.7c0.5-1.7-1.2-4.1,1.8-4.9c0,1.6,0,3.2-0.1,4.7C51.8,1177.6,51.2,1177.7,50.7,1177.7z"/>
	<path class="st78" d="M48.6,74.7c0.4,0,0.7,0,1.1,0c0,0,0,0,0,0c1.2,2.3,0.4,4.2-1,6c-0.4,3.4,1.2,7.2-2.1,10
		C48.6,85.6,46.8,79.9,48.6,74.7z"/>
	<path class="st133" d="M55.8,187.8c-6.3-0.3-0.4-4.2-2.2-5.9c1.7,0.5,0.7,2.4,2.2,2.9C55.8,185.7,55.8,186.7,55.8,187.8z"/>
	<path class="st41" d="M56.6,834.8c0,2.4-1.4,4.7-0.1,7.1c0.7,2.7,0.1,5.3-0.8,7.9c-1.1,0.6-1.8-0.2-2.5-0.9
		c-3.9-4.3-0.7-8.9-0.4-13.3c0.1-1.2,1.8-1.2,3-1C56.1,834.6,56.4,834.7,56.6,834.8z"/>
	<path class="st134" d="M53.7,848.7c0.7,0.3,1.4,0.7,2,1c0.4,1,0.3,2-0.1,3c-1.2,1.8-2.6,3.1-4.9,3c-2.1-0.1-2-1.5-1.9-3
		c0.5-0.7,0.9-1.5,1.9-1.6c2.1,0.9,1.5-1.6,2.5-2.1C53.3,849,53.5,848.9,53.7,848.7z"/>
	<path class="st41" d="M50.7,855.7c1.2-1.7,3.2-2.1,4.9-3c0,1.3,0.1,2.7,0.1,4c-0.4,0-0.7,0-1.1,0c-1.1,0-2.3-0.2-3,1
		c-0.3,0.3-0.7,0.3-1,0C50.7,857,50.7,856.4,50.7,855.7z"/>
	<path class="st135" d="M50.7,851.7c-0.6,0.3-1.3,0.7-1.9,1c-0.3-1.3-0.6-2.6-0.9-3.9c3.6-1.2,1.5-3.3,0.8-5.1
		c1.9-5.1-0.4-10.2,0-15.3c0.2-2.8-0.4-5.6,1.8-7.9c-3.6-2.4-0.3-5.7-1.2-8.4c-0.5-1.7,0.4-2.9,0.5-4.3c3.1,0.9,1.9,3.9,3,5.8
		c0.6-3.4-1.2-6.1-3-8.9c-1.4-2.2-1-4.6-1-7c0.8,0.1,1.5-0.2,1.9-0.9c6.3,1.3,4.8,6.3,4.9,10.5c0.1,3.6,0.1,7.2,0.2,10.8
		c1.2,5.5-0.1,11,0,16.5c-0.7,1.1-4.2,0.7-1.7,3.4c0.5,0.5,0.6,2.2,0.4,2.2c-5.7,2.4,0.2,5.8-0.9,8.6l0,0
		C52.6,849.7,51.8,850.8,50.7,851.7z"/>
	<path class="st136" d="M55.9,206.6c-1.3,1.9,0.6,4.4-1.3,6.1c-0.6,0.7-0.2,1.6-0.4,2.3c-0.4,1.5-1.3,2.3-2.8,1.9
		c-1.4-0.4-1.2-1.8-1.1-2.9c0-0.8,0.4-1.6,0.6-2.4c0.4-1.6,0.3-3-1.1-4.1c-0.3-0.4-0.6-0.8-0.9-1.2c3.4-0.2,0.8-3.9,2.9-4.8
		c1.5,0.7,2.4-1.6,3.9-1c1.5,1.7-1.5,3.4,0.1,5C55.9,206,56,206.3,55.9,206.6z"/>
	<path class="st77" d="M55.7,205.7c-2.1-1.1,0.2-3-0.6-4.3c-1.9,0-0.6,3.3-2.9,2.5c-0.4-0.1-0.4-1.5-0.5-2.3l0,0
		c1-1.3,1.3-2.8,1.9-4.3c0.3-0.9,0.6-1.8,1.7-1.9c0.2,0.1,0.4,0.2,0.6,0.3C56.1,199.1,57.3,202.5,55.7,205.7z"/>
	<path class="st109" d="M44.7,1507.7c-0.6,0.6-1.2,1.2-1.9,1.9c0-1.6,0-3.2,0-4.8C44.1,1505.3,44.7,1506.3,44.7,1507.7z"/>
	<path class="st137" d="M43.7,1379.7c-0.6,0-1.2,0-1.9,0.1c0.3-6.3,0.6-12.5,0.9-18.8c0.1-2.8,0.1-5.6,0.1-8.4
		c0.3-0.2,0.6-0.2,0.9,0.1c0,1.6,0.2,3,2.3,3c3-0.1,2.7,2,2.7,4c-0.3,0.3-0.7,0.5-1.1,0.7c-0.8,0.4-2.1,0.4-1.9,1.8
		c0.9,0.8,2.1-0.2,2.9,0.5c0,6,0,12.1,0,17.7C46.4,1381.9,46,1376.7,43.7,1379.7z"/>
	<path class="st138" d="M42.7,1337.7c0.3,0,0.6,0,0.9,0c-0.2,2.4,1.1,3.5,3.3,3.6c0.9-1.7-0.6-2.2-0.9-3.2c-0.4-1.3-0.1-2.3,1-3
		c0.4-0.2,1-0.4,1.4-0.3c1.4,0.6,0.4,1.7,0.3,2.5c-0.3,1.8,1.2,3.5,0,5.2c-0.1,4.1-2,5.5-5.9,4C42.7,1343.7,42.7,1340.7,42.7,1337.7
		z"/>
	<path class="st88" d="M42.7,1346.7c0.5-0.4,1.2-1.3,1.4-1.2c3.1,1.6,3.7-0.8,4.6-2.7c0.1,3.4-0.3,6.8,0.7,10.3
		c-2.5-0.8-1.1-3-2-4.3c-1.3,0.6-0.3,2.5-1.7,3c-1.1-0.8-1.8-2-2.8-2.8C42.8,1348.1,42.8,1347.4,42.7,1346.7z"/>
	<path class="st139" d="M41.6,1401.8c-1.5-1.8-0.6-3.9-0.8-5.9c1.9,1.9,4.1,3.4,6.8,3.8c-1,2.3-3.1,1.9-4.9,2.1
		C42.4,1402.2,42,1402.2,41.6,1401.8z"/>
	<path class="st140" d="M42.8,1348.9c2.3-0.4,3,0.8,2.8,2.8c-0.6,0.3-1.3,0.7-1.9,1c-0.3,0-0.6-0.1-0.9-0.1
		C42.8,1351.4,42.8,1350.1,42.8,1348.9z"/>
	<path class="st139" d="M42.4,1394.6c-0.9-2-1-3.2,0.1-4.6C44.2,1391.4,43.6,1392.6,42.4,1394.6z"/>
	<path class="st141" d="M48.7,1625.7c-1-0.8-2.2-2.1-2,0.7c0.1,2-1,3.5-2.8,3.4c-2.3-0.1-0.7-2.4-1.2-3.6
		c-2.5-5.5,0.4-11.3-0.9-16.9c-0.3-1.2,0.8-2.1,1.9-2.6c0.7,1.2,1.9,1,3,1c0.6,1.7,1.3,3.4,1.9,5
		C48.6,1617.1,48.6,1621.4,48.7,1625.7z"/>
	<path class="st141" d="M46.6,1635.7c1.1,0.5,2.6,1.4,2.3,2.3c-1.1,3-0.6,6.2-2.5,9.1c-2.1,3.2-2.7,1.4-3.8-0.4
		C43.8,1643,44.6,1639.1,46.6,1635.7z"/>
	<path class="st142" d="M46.6,1635.7c0.9,4.5-2.1,7.5-3.9,11c-0.4-3,0.8-6.2-0.8-9.1c0.2-0.6,0.5-1.2,0.7-1.8c0.7-1.2,1.9-1,3.1-1
		C46,1635.1,46.3,1635.4,46.6,1635.7z"/>
	<path class="st143" d="M41.6,1401.8c0.4,0,0.7,0,1.1,0c0.2,0.5,0.3,1.3,0.4,1.3c4.4-0.3,4.6,3.3,4.2,5.7c-1.2,7,1.8,14-0.7,20.9
		c-0.4,0.3-0.8,0.4-1.2,0.2c-1.4-1.3-2.4-3-3.9-4.2c1.6-1.3,2.3-2.4,0.1-4.1c-2-1.5-1.3-4-0.6-5.9c0.4-1.2,1.7-0.1,2.6,0.1
		c0.1,0.1,0.2,0.2,0.3,0.4c0.3,0.4-0.1,0,0,0c-0.4-0.5,0.1,0.1-0.3-0.4c0.2-3.9,2.1-8-2.2-11.1C41,1404.4,41.5,1402.8,41.6,1401.8z"
		/>
	<path class="st144" d="M40.8,1444.6c0-4.6,0.8-9.2,0-13.8c1.7,0.1,2.9,2.7,4.9,1c0,2.2,2.6,3.5,2,5.9c-1.1,1.5,0.2,3.5-1,5l0,0
		c-1,1.2-0.9,2.4-0.4,3.7c-0.1,1.6-0.8,2.6-2.6,2.5C42.4,1447.7,42.2,1445.8,40.8,1444.6z"/>
	<path class="st145" d="M43.7,1448.7c1.3-0.6,2-1.5,2-3c0.3-0.4,0.7-0.4,1,0c3,2.3-1.7,4.7,0,7c-0.5,2.6-1.8,4.6-4,6
		c-0.3,0-0.7,0-1,0c-0.7-2-0.7-4,0-6c-0.2-2-1.4-3.8-0.9-5.9C42.7,1446,42.8,1447.9,43.7,1448.7z"/>
	<path class="st39" d="M42.7,1458.7c0.3-0.4,0.9-0.8,0.8-1.1c-0.4-2.7,1-4,3.2-4.9c1.7,3.3,1.3,6.7,0,10
		C45,1461.8,42.7,1461.4,42.7,1458.7z"/>
	<path class="st146" d="M45.7,1431.7c-2.6,4.6-3.5,0.3-4.9-1c0.5-1.1,2.1-1.5,1.9-3c1.9-0.7,1.9,1.4,3,2c0.3,0,0.7,0,1,0
		C47.9,1431.2,46.3,1431.2,45.7,1431.7z"/>
	<path class="st39" d="M46.7,1442.7c0.3-1.7-0.6-3.6,1-5C47.4,1439.4,48.4,1441.3,46.7,1442.7z"/>
	<path class="st39" d="M46.7,1445.7c-0.3,0-0.7,0-1,0c-1.8-1.7-0.1-2.3,1-3C46.7,1443.7,46.7,1444.7,46.7,1445.7z"/>
	<path class="st147" d="M45.7,1429.7c-1.6,0.2-2-1.4-3-2c-1.2-0.2-2.5-0.5-1-2.1C44,1426,45.4,1427.3,45.7,1429.7z"/>
	<path class="st39" d="M43.7,1448.7c-1-0.6-2-1.3-2.9-1.9c0-0.7,0-1.4,0-2.2C43.9,1444.5,43.8,1446.6,43.7,1448.7z"/>
	<path class="st148" d="M47.8,946.8c1.1-0.7,2-0.7,1.9,1c2,4.2,4.3,8.4,1,13c-0.2-0.8-0.3-2.2-0.5-2.2c-1.4-0.2-1.3,1.8-2.4,2.2
		C47.7,956.1,47.7,951.4,47.8,946.8z"/>
	<path class="st149" d="M51.6,901.8c-4.5-4.5-2.1-9.9-1.8-14.9c0,1.4-0.1,2.9,0,4.3c0.1,0.8,0.4,1.7,0.8,2.3c0.6,0.8,1.4,4.5,1.2,6
		C51.6,900.2,51.6,901,51.6,901.8z"/>
	<path class="st28" d="M50.7,857.7c0.3,0,0.7,0,1,0c1.7,2,2.1,4.5,2,7c-0.9-0.3-1.9-0.8-2,0.9c-0.1,1.5,0.4,3.2-1.1,4.4
		C49,865.9,47.7,861.8,50.7,857.7z"/>
	<path class="st150" d="M51.5,879c0,0.7-0.1,1.5-1,1.3c-0.5-0.1-1.1-0.6-1.3-1.1c-0.3-0.7,0.1-1.3,1-1.2
		C50.8,877.9,51.4,878.2,51.5,879z"/>
	<path class="st151" d="M47.8,930.9c1.1-0.1,1.8,0.3,1.7,1.5c-0.1,1-0.8,1.2-1.6,1.1C47.9,932.6,47.9,931.7,47.8,930.9z"/>
	<path class="st150" d="M53.1,878.3c-0.1-0.7,0.1-1.2,0.7-1.1c0.3,0.1,0.6,0.6,0.8,1c0.1,0.2-0.2,0.6-0.4,0.8
		C53.8,878.8,53.4,878.5,53.1,878.3z"/>
	<path class="st54" d="M53.7,999.7c-2.2,3.6-0.4,7.4-0.5,11.2c-2.3-3.6-3.8-7.2-1.5-11.2C52.4,999.7,53,999.7,53.7,999.7z"/>
	<path class="st152" d="M51.7,966.7c0.6-0.2,1.8-0.4,1.7-0.1c-0.9,2.6,0.6,5.4-0.7,8C50.9,972.2,49.9,969.6,51.7,966.7z"/>
	<path class="st153" d="M50.7,961.7c0.8,0.5,2,1,1.5,2.1c-0.7,1.5-2.3,0.6-3.5,0.9C47.5,962.5,48.8,961.9,50.7,961.7z"/>
	<path class="st154" d="M49.7,804.7c1.2-1,2.1-2.7,4.5-1.3c-1.1,1.7-5.3,3.6,0,5.8c0.9,0.4-0.2,5.9-1.9,9.7c-1.2-4.3-0.9-8-2.6-11.1
		C49.7,806.7,49.7,805.7,49.7,804.7z"/>
	<path class="st155" d="M51.7,678.8c-0.1,1.4,0.5,2.9-1,3.9c-1.1-0.1-2.5,0.3-2.8-1.2c-0.4-2.1,2.2-1.4,2.8-2.7
		C51.1,678.4,51.4,678.4,51.7,678.8z"/>
	<path class="st156" d="M51.7,678.8c-0.3-0.1-0.6-0.1-1-0.1c-1-0.2-2.6,0.4-2.6-1.4c0-0.7,0.6-1.8,1.2-2c1.1-0.5,1.3,0.6,1.4,1.4
		C51,677.4,51.3,678.1,51.7,678.8z"/>
	<path class="st157" d="M48.7,734.7c-1.7-1.7-1.1-2.6,1-3C49.7,732.8,49.9,734,48.7,734.7z"/>
	<path class="st158" d="M54.5,1055.8c-0.3,3.6-0.6,7.2-0.9,10.9c-2.6,0.3-0.6-2.4-1.9-2.9c-0.8-0.4-1-1.2-1-2
		c1.5-3.5-1.7-7.5,1.3-10.8c0.2-0.1,0.4-0.2,0.7-0.2C54.6,1051.9,52.9,1054.4,54.5,1055.8z"/>
	<path class="st159" d="M47.7,1050.7c0-1.4,0.7-2.4,1.9-2.9c1.4-0.5,0.9-3.6,2.8-2.6c2.8,1.4-0.7,3.7,0.2,5.6l0,0
		C51,1051.8,49.4,1052.1,47.7,1050.7z"/>
	<path class="st160" d="M54.9,1039.6c-2,4.5-4.2,3.3-6.8,0C50.6,1039,52.8,1041.3,54.9,1039.6L54.9,1039.6z"/>
	<path class="st161" d="M52.3,1037.7c-0.8-2.7,0.7-5-0.4-7.2C54.2,1033.3,54.2,1033.7,52.3,1037.7z"/>
	<path class="st162" d="M51.7,1063.7c0.6,1,1.3,1.9,1.9,2.9c0,1.4,0.1,2.7,0.1,4.1c1.1,1.5-0.1,3.5,0.9,5c0,1,0,2,0,2.9
		c-1.7,1.2-3.4-5.1-4.9,0.1c-0.6-0.3-1.3-0.7-1.9-1c0.5-1.5,1.7-1.8,3.1-2.2c0.8-0.2,1.9-1.3,1.4-1.7
		C47.5,1070.6,51.5,1067.1,51.7,1063.7z"/>
	<path class="st163" d="M52.5,1091.7c0,1.4-0.5,1.9-1.5,1.9c-0.9,0-1.7-0.5-1.6-1.4c0-0.4,0.8-1,1.3-1.2
		C51.6,1090.7,52.2,1091.1,52.5,1091.7z"/>
	<path class="st164" d="M48.7,1104.7c-1.2-0.7-0.9-1.9-1-3C50.4,1102,49.2,1103.4,48.7,1104.7z"/>
	<path class="st165" d="M48.7,1178.7c0.3,0,0.7,0,1,0c1.8,2,2.3,4.3,2,6.9c-0.5,5.4,1.1,10.8-1,16.1c0-0.8-0.2-1.6-1-2
		c-0.8-0.8-0.4-2-0.7-2.9c-1.8-0.9-1,1.3-1.8,1.5c-0.2,0.1-0.3,0.3-0.5,0.4c-2.8-0.5-2.3-2.8-1.8-4.3c1-3.3,0.7-6.5,1-9.8
		C47.3,1182.9,46.7,1180.2,48.7,1178.7z"/>
	<path class="st166" d="M48.7,1178.7c-0.3,2.3,0,4.9-2.9,5.9c0-6.8-0.1-13.6-0.1-20.3c0-0.8-0.3-2.3,1.3-1.8
		c0.4,0.1,0.4,1.4,0.6,2.2c-0.2,1.3,1.3,2.7,0,4C45.4,1172.3,48.6,1175.4,48.7,1178.7z"/>
	<path class="st167" d="M48.7,1133.7c-0.5,1.3-1.5,2.6-0.7,4.1c1.6,0.6,1.6-2.4,3.1-1.4c1,0.7,0.7,2.1,0,3.1
		c-0.8,1.2-1.7,2.7-3.3,2.7c-1.6,0-1.1-1.7-1.2-2.7c-0.1-1,0-2-0.9-2.7C46.3,1135.4,46.7,1133.8,48.7,1133.7z"/>
	<path class="st168" d="M47.7,1150.7c0.3,0.1,0.9,0.2,0.9,0.2c-0.3,2.5,1.3,5.8-2.7,6.7C46.5,1155.3,44,1152.2,47.7,1150.7z"/>
	<path class="st169" d="M49.7,1196.7c1.1,1-0.4,2,0,3c-0.2,2.6-1.7,1.6-3,1c0-0.7,0-1.3,0-2l0,0
		C47.6,1197.9,47.7,1195.9,49.7,1196.7z"/>
	<path class="st170" d="M46.6,1200.8c-0.2,1.2,0.8,3-1,3.3c-1.3,0.2-0.8-1.4-0.9-2.3C45.4,1201.4,46,1201.1,46.6,1200.8z"/>
	<path class="st167" d="M47.7,1168.7c0.4-1.3-1.8-2.7,0-4c0.3,0,0.7,0,1,0C48.7,1166.1,50.1,1167.9,47.7,1168.7z"/>
	<path class="st7" d="M49.7,1218.7c1.2,0.8,1,1.9,0.8,3c-0.3,0.7-0.6,1.3-0.9,2C48.2,1222,48.2,1220.3,49.7,1218.7z"/>
	<path class="st18" d="M46.1,1221.6c-0.3-0.2-0.7-0.4-0.9-0.7c-0.2-0.5,0.2-0.9,0.7-0.8c0.4,0.1,0.9,0.4,1,0.7
		C47.2,1221.4,46.7,1221.5,46.1,1221.6z"/>
	<path class="st48" d="M47.7,1050.7c1.6,0,3.3,0,4.9,0.1c-1,1.8-1.4,3.7-0.6,5.7c1,2.2,0.2,3.8-1.4,5.3c-2.8-0.3-3.2-2.3-3-4.6
		C47.8,1055,47.7,1052.8,47.7,1050.7z"/>
	<path class="st167" d="M49.8,1128c1.1,0.2,1.7,0.9,1.7,2c0.1,1.3-0.8,1.5-1.9,1.7c-1.5,0.3-1.5-1-1.6-1.8
		C47.9,1128.8,48.6,1128.2,49.8,1128z"/>
	<path class="st167" d="M50.3,1124.3c-0.1,1.2-0.7,1.3-1.4,1.3c-0.8-0.1-1.1-0.7-1.1-1.4c0-0.8,0.6-1.2,1.3-1
		C49.7,1123.4,50,1124,50.3,1124.3z"/>
	<path class="st171" d="M52.7,943.7c0-1.1-0.2-2.3,1-3C55.2,942.3,54.9,943.3,52.7,943.7z"/>
	<path class="st48" d="M54.6,1075.7c-1.5-1.4-0.7-3.3-0.9-5C55.3,1072.1,54.5,1074,54.6,1075.7z"/>
	<path class="st172" d="M42.7,1578.7c0-0.7,0-1.3,0-2c1.4-0.2,2.7,0.3,4,1c0,0.7,0,1.3,0.1,2c-0.4,0.8-1.2,1-2,1
		C44.3,1579.8,43.6,1579.1,42.7,1578.7z"/>
	<path class="st67" d="M43.7,1571.7c0.1-1.1-0.4-2.3,0.5-3.2c0.1-0.1,0.9,0.3,1.1,0.6C45.8,1570.6,44.7,1571.2,43.7,1571.7
		L43.7,1571.7z"/>
	<path class="st67" d="M43.7,1573.7c0.9,0.1,2,0.1,2.2,1.3c0,0.1-0.4,0.5-0.6,0.5C44,1575.7,43.8,1574.7,43.7,1573.7L43.7,1573.7z"
		/>
	<path class="st31" d="M47.7,1499.7c-0.1,0.9,0.4,2-0.9,2.5c-0.2,0.1-0.7-0.2-0.7-0.4C45.9,1500.6,46.8,1500.2,47.7,1499.7
		L47.7,1499.7z"/>
	<path class="st11" d="M47.7,1507.7c-1-0.3-1.9,3-3,0.1C45.7,1507.4,46.7,1506.1,47.7,1507.7z"/>
	<path class="st88" d="M48.7,1362.7c-1.3-0.2-2.6,4.1-4,0c0.8-1.2,2-2,3-3c0.3,0,0.6,0,1,0C48.7,1360.7,48.7,1361.7,48.7,1362.7z"/>
	<path class="st173" d="M48.6,1312.6c-1.5-2.2-1.4-4.4,0-6.7C48.6,1308.1,48.6,1310.4,48.6,1312.6z"/>
	<path class="st174" d="M48.7,1267.7c-0.4-1.1-2-2.6,0.8-2.8C49.6,1265.9,49.9,1267,48.7,1267.7z"/>
	<path class="st82" d="M58.7,494.7c0.2,3.7,0.4,7.4-3,10c0,0.9-0.3,1.6-1,2.1c-0.6-0.6-1.6-1.1-1.6-1.7c-0.4-6.5-1.8-13-0.5-19.8
		c2.4,1,2,3.2,2.8,4.7c1.1,2.3,1.7-0.1,2.5-0.2C58.8,491.2,57.5,493.2,58.7,494.7z"/>
	<path class="st175" d="M54.7,506.7c0.1-0.8,0.2-1.6,1-2.1c2.1-0.1,3.3,0.7,3,3c-1.3,0-2.7,0-4,0C54.7,507.4,54.7,507.1,54.7,506.7z
		"/>
	<path class="st176" d="M52.8,478.8c0.9-0.9,1.9-0.6,2.9-0.1c-0.1,1.6-0.8,3.3-2.4,3.1C52.1,481.7,52.9,479.9,52.8,478.8z"/>
	<path class="st175" d="M56.7,517.7c-0.3-1.2-2.2-1.9-1.5-3.2c0.6-1.2,1.6,0.1,2.5,0.3c0.3,0.6,0.6,1.2,0.9,1.9
		C57.9,517,57.3,517.4,56.7,517.7L56.7,517.7z"/>
	<path class="st177" d="M58.7,494.7c-1.7-1.4-0.7-3.3-0.9-4.9C59.4,491.1,58.5,493,58.7,494.7z"/>
	<path class="st178" d="M56.7,449.7c-0.3,0-0.7,0-1,0c0-0.2-0.1-0.3,0-0.5c0.4-1.3-1.5-2.9,0.4-4c0.2-0.1,0.8-0.1,0.9,0.1
		C57.9,446.8,58,448.3,56.7,449.7z"/>
	<path class="st179" d="M56.6,437.9c0.1,0.6,0.1,1.2,0.2,1.9c-1,1-1.5,0.2-1.7-0.6C54.8,438,55.7,437.8,56.6,437.9z"/>
	<path class="st180" d="M57.7,402.7c-0.7-0.7-1.4-1.3-2.1-2c-0.8-0.4-1-1.2-1-2c0.6-0.7,1.7-0.9,1.9-2.6c-1,1-2,1.1-2.9,1.6
		c-1.9-1.8-3-10.7-1.3-12.3c0.9-0.9,1.1,0.5,1.4,1.2c0.8,1.5,0.6,3,0.3,4.6c0.3-1.6-0.2-3.6,1.7-4.5c1.7-3.3-1.3-3.8-3-5
		c0.5-0.7,0.2-1.7,0.9-2.4c1.6-1,2.7-3.1,5-2.5c0.1,1,0.1,2,0.2,3c-0.1,6.1-0.1,12.2-0.2,18.3C58.6,399.6,59.2,401.4,57.7,402.7z"/>
	<path class="st119" d="M58.6,376.8c-1.8,0.6-2.6,3-4.9,2.9c-1.6-1.4-0.8-3.3-1-5c0.9-2.7-0.5-5.3,0-8c1.7-1.3,3.6-2.4,5.9-2.1
		c-0.5,1.1-0.5,2.2,0,3.3c-0.7,2.2-0.7,4.5,0,6.7C58.6,375.3,58.6,376,58.6,376.8z"/>
	<path class="st119" d="M58.7,362.8c-4.1,0.7-4.4,0.5-3.2-3c0.3-0.9,0-1.6-0.8-2.1c0-0.4,0-0.7,0.1-1.1c1.2-0.7,2.4-1.1,3.6-0.2
		C56.3,358.6,59,360.6,58.7,362.8z"/>
	<path class="st181" d="M58.4,356.4c-1.2,0.1-2.4,0.1-3.6,0.2c1.3-1.2,2.6-2.5,3.9-3.7C58.5,354.1,58.4,355.3,58.4,356.4z"/>
	<path class="st182" d="M58.6,343.6c-1.3-0.7-2.7-1.4-2.4-3c0.2-1.1,1.5-0.7,2.4-0.7C58.6,341.1,58.6,342.3,58.6,343.6z"/>
	<path class="st183" d="M58.6,374.6c-1.4-2.2-1.5-4.5,0-6.7C58.6,370.1,58.6,372.3,58.6,374.6z"/>
	<path class="st184" d="M54.7,417.7c0-0.4,0-0.7,0-1.1c-1.2-1.7-0.6-3.3,0-5c0.3-0.3,0.7-0.7,1-1C58.4,413.5,59.3,416,54.7,417.7z"
		/>
	<path class="st128" d="M52.7,422.7c0.7-0.7,1.4-1.3,2-2c0.7,0,1.3,0,2,0c-0.3,0.7-0.7,1.3-1,2C54.7,422.7,53.7,422.7,52.7,422.7z"
		/>
	<path class="st185" d="M49.7,149.7c1.9,2.9,4.4,5.4,1.6,9.4c-1.3,1.9,2.4,1.3,3.1,2.7c-1.2,2.9-0.3,6.3-2.2,9.1
		c-0.3,0.4,0,1.3,0.3,1.8c0.5,1,2.7,1.2,1.4,3.1c-0.4,0.6-1.2,0.9-1.7,0.5c-1.2-1-2.4-1.6-2.8-3.6c-1.4-7.6-1.6-15.2-0.6-22.9
		C49,149.7,49.4,149.7,49.7,149.7z"/>
	<path class="st186" d="M54.7,197.7c-0.1,2-1.4,3.1-3,4c0-1.3-0.7-2-2-2c-0.3-1-0.6-2-1-3C51.2,194.1,53.1,194.9,54.7,197.7z"/>
	<path class="st187" d="M54.7,197.7c-1.7-1.8-3.8-1.9-6-1c1.3-5.9,4.1-2.3,6.6-1.1C55.1,196.3,54.9,197,54.7,197.7z"/>
	<path class="st188" d="M49.2,178c3.7,2.6,2.7,4.3-0.1,6.3C48.5,182.1,48.5,180.4,49.2,178z"/>
	<path class="st189" d="M46.8,98.9c1.7,1.3,0.6,3.2,1,4.8C45.3,102.5,47.3,100.5,46.8,98.9z"/>
	<path class="st190" d="M51.7,211.7c0.1,0.1,0.3,0.2,0.4,0.3c1.5,1.6-3.4,3.1-0.3,4.2c2,0.7,1.4-2.6,2.8-3.4c0.3,2.6,0.7,5.3,1,7.9
		c-2.5,0.9-2.5,2.5-1.3,4.5c0.2,1,0.1,1.9-0.7,2.6c-3.7,2.7-2.7,4.6,1.1,6c0.5,1.1-0.3,1.5-1,2c0,0,0,0,0,0c-6-1.1-4.2-6.5-4.3-9.7
		c-0.1-4.5,0.5-9.1-0.6-13.7c-0.2-1,0-2,0.9-2.6C50.8,209.9,51.2,210.8,51.7,211.7z"/>
	<path class="st191" d="M51.7,211.7c-0.7-0.7-1.3-1.3-2-2c0-0.7,0-1.3,0-2C52.5,208,53,209.4,51.7,211.7z"/>
	<path class="st192" d="M53.7,235.7c0.3-0.7,0.7-1.3,1-2c2.7,0.3,1.3,1.7,0.8,2.9C54.9,236.3,54.3,236,53.7,235.7z"/>
	<path class="st113" d="M52.6,138.8c0,2.6,0.1,5.3,0.1,7.9c-1-0.4-1.6-1-2-2l0,0C52.8,143.2,50.6,140.3,52.6,138.8z"/>
	<path class="st77" d="M50.7,144.7c-1.4-0.7-2.2-1.7-1.5-3.7C51.4,141.8,50.4,143.5,50.7,144.7L50.7,144.7z"/>
	<path class="st87" d="M56.7,517.7c-0.1,1.5,0.2,3.1-1.8,3.6c-0.3,0.1-0.9-0.5-0.9-0.8C53.7,518.5,55,517.9,56.7,517.7L56.7,517.7z"
		/>
	<path class="st193" d="M52.7,508.7c1.8,1.5,0.7,3.2,0,4.9C52.7,512,52.7,510.4,52.7,508.7L52.7,508.7z"/>
	<path class="st114" d="M52.7,553.7c0,1.7,0,3.3,0,5C51.2,557.1,51.2,555.4,52.7,553.7z"/>
	<path class="st91" d="M45.7,1280.7c-2.9-2.2,1.2-3.5,0.2-5.4c0.6,0,1.2,0,1.8,0c0,4.1,0,8.3,0,12.4c-1.7-0.9-2.4-2.1-1.5-4
		C46.7,1282.6,46.9,1281.6,45.7,1280.7z"/>
	<path class="st194" d="M52.7,634.7c0.3-1.3,0.6-2.7,1-4C55.1,632.5,55.5,634,52.7,634.7z"/>
	<path class="st117" d="M53.7,315.7c-2.9,2.3,0.7,4.7,0,7c-0.6,0.9,0.2,2.3-1.1,3c-2.4-4.9,0.3-9.9-0.4-14.9c-0.2-1.3,1.3-1.2,2.3-1
		c1,0.2,1.4,1.2,0.9,1.9C54.5,313,53.4,314.1,53.7,315.7z"/>
	<path class="st117" d="M53.7,327.7c1.4,1,1.1,2.5,0.9,3.9c-0.9-0.3-1.9-0.5-2.8-0.8c0.3-1,0.7-2.1,1-3.1
		C53.1,327.2,53.4,327.2,53.7,327.7z"/>
	<path class="st195" d="M53.7,327.7c-0.3,0-0.6,0-0.9-0.1c-0.1-0.6-0.1-1.3-0.2-1.9c0.1-1.1-0.1-2.3,1.1-3
		C54.8,324.4,54.8,326,53.7,327.7z"/>
	<path class="st196" d="M53.7,224.7c-2.1-0.3-2.3-1.7-1.7-3.3c0.7-2,2.2-1.5,3.7-0.8c-0.1,1.4-0.1,2.8-0.2,4.2
		C54.8,225.3,54.3,225.3,53.7,224.7z"/>
	<path class="st197" d="M53.7,224.7c0.6,0,1.2,0.1,1.7,0.1c-0.1,2,0.8,4.2-1,6.3c-1.2-1.1-0.7-2.4-0.9-3.5
		C53.7,226.8,53.7,225.7,53.7,224.7z"/>
	<path class="st198" d="M56.5,264.3c0,0.8-0.6,1.2-1.3,1c-0.5-0.2-1-0.9-1.1-1.4c-0.2-0.9,0.6-1,1.3-1
		C56.2,263,56.4,263.6,56.5,264.3z"/>
	<path class="st199" d="M53.2,937.1c-1,1.8-1.9,2.9-3.6,2.2c-0.6-0.2-0.9-1-0.5-1.6C50,936.2,51.4,936.7,53.2,937.1z"/>
	<path class="st21" d="M48.7,80.7c-0.4-2.1,0.6-4,1-6c2.3,0.9,1.8,3.4,3,5c-0.3,0.3-0.7,0.7-1,1C50.7,80.7,49.7,80.7,48.7,80.7z"/>
	<path class="st200" d="M53.1,354.8c-0.8-3.8-0.1-6.6-1.2-9.2c-0.5-1.1,0.2-2.4,1.7-2.5c1.2-0.1,1.8,0.9,1.9,1.9
		C56.1,348.3,54.9,351.1,53.1,354.8z"/>
	<path class="st85" d="M53.7,397.7c1-1.4,2-2.8,3.1-4.2c-0.4,1.8,4.3,5.7-2.1,5.2C54.4,398.4,54,398.1,53.7,397.7z"/>
	<path class="st201" d="M52.7,374.7c1.7,1.4,0.8,3.3,1,5c-0.1,0.8-0.2,1.6-1,2C51.6,379.4,51,377,52.7,374.7z"/>
	<path class="st85" d="M55.7,386.7c-0.5,1.7-1,3.3-1.9,6.4c0-3.1,0-4.8,0-6.4C54.4,386.7,55,386.7,55.7,386.7z"/>
	<path class="st19" d="M54.7,411.7c1.4,1.7,0.2,3.3,0,5l-0.5,0l-0.5,0c-0.8-1.7-0.8-3.3,0-5C54,411.7,54.4,411.7,54.7,411.7z"/>
	<path class="st128" d="M53.7,411.7c0,1.7,0,3.3,0,5C52.2,415,52.2,413.4,53.7,411.7z"/>
	<path class="st41" d="M50.7,851.7c0.1-1.9,1.1-2.9,3-3C53.1,850.1,53.8,852.8,50.7,851.7z"/>
	<path class="st154" d="M51.7,823.7c0.8,3.3,2.1,6.6-0.6,9.9C51.1,830.3,49.6,827,51.7,823.7L51.7,823.7z"/>
	<path class="st154" d="M51.7,823.7c0.2-1.1,0.1-2.4,1.7-2.3c0.2,0,0.6,0.4,0.6,0.6C54.1,823.7,52.8,823.5,51.7,823.7L51.7,823.7z"
		/>
	<path class="st202" d="M47.7,1359.7c-0.1,1.9-1.1,2.9-3,3C43.7,1360.3,43.7,1360.3,47.7,1359.7z"/>
	<path class="st34" d="M43.7,1415.7c1.3,1.1,1.2,2.2-0.3,3.5C42.4,1417.9,44,1416.8,43.7,1415.7L43.7,1415.7z"/>
	<path class="st203" d="M43.5,1440.3c-1.4-1.6-0.3-2.7,0.6-3.8c0.1-0.1,1,0.2,1.1,0.4C45.7,1438.6,45,1439.7,43.5,1440.3z"/>
	<path class="st50" d="M49.7,1196.7c-1,0.7-2,1.4-3,2c0.1-1.7-0.5-3.9,2-4.2C50.1,1194.3,49.5,1195.9,49.7,1196.7z"/>
	<path class="st70" d="M55.2,499.4c-0.6-1.5-0.8-2.7,0.2-3c1-0.3,0.5,0.7,0.4,1.2C55.7,497.9,55.5,498.3,55.2,499.4z"/>
</g>
</svg>
