<svg viewBox="0 0 1007.4 38.4">
<style type="text/css">
	.st0{fill:#58585A;}
</style>
<g>
	<path class="st0" d="M971.4,15.3c0,1.3,0,2.7,0,4c4,0,8,0,12,0c0-1.3,0-2.7,0-4C979.4,15.3,975.4,15.3,971.4,15.3z"/>
	<path class="st0" d="M988.4,15.3v4h2.6v-4H988.4z"/>
	<path class="st0" d="M954.4,15.3c0,1.3,0,2.7,0,4c4,0,8,0,12,0c0-1.3,0-2.7,0-4C962.4,15.3,958.4,15.3,954.4,15.3z"/>
	<path class="st0" d="M937.4,15.3c0,1.3,0,2.7,0,4c4,0,8,0,12,0c0-1.3,0-2.7,0-4C945.4,15.3,941.4,15.3,937.4,15.3z"/>
	<path class="st0" d="M920.4,15.3c0,1.3,0,2.7,0,4c4,0,8,0,12,0c0-1.3,0-2.7,0-4C928.4,15.3,924.4,15.3,920.4,15.3z"/>
	<path class="st0" d="M903.4,15.3c0,1.3,0,2.7,0,4c4,0,8,0,12,0c0-1.3,0-2.7,0-4C911.4,15.3,907.4,15.3,903.4,15.3z"/>
	<path class="st0" d="M886.4,15.3c0,1.3,0,2.7,0,4c4,0,8,0,12,0c0-1.3,0-2.7,0-4C894.4,15.3,890.4,15.3,886.4,15.3z"/>
	<path class="st0" d="M869.4,15.3c0,1.3,0,2.7,0,4c4,0,8,0,12,0c0-1.3,0-2.7,0-4C877.4,15.3,873.4,15.3,869.4,15.3z"/>
	<path class="st0" d="M852.4,15.3c0,1.3,0,2.7,0,4c4,0,8,0,12,0c0-1.3,0-2.7,0-4C860.4,15.3,856.4,15.3,852.4,15.3z"/>
	<path class="st0" d="M835.4,15.3c0,1.3,0,2.7,0,4c4,0,8,0,12,0c0-1.3,0-2.7,0-4C843.4,15.3,839.4,15.3,835.4,15.3z"/>
	<path class="st0" d="M818.4,15.3c0,1.3,0,2.7,0,4c4,0,8,0,12,0c0-1.3,0-2.7,0-4C826.4,15.3,822.4,15.3,818.4,15.3z"/>
	<path class="st0" d="M801.4,15.3c0,1.3,0,2.7,0,4c4,0,8,0,12,0c0-1.3,0-2.7,0-4C809.4,15.3,805.4,15.3,801.4,15.3z"/>
	<path class="st0" d="M784.4,15.3c0,1.3,0,2.7,0,4c4,0,8,0,12,0c0-1.3,0-2.7,0-4C792.4,15.3,788.4,15.3,784.4,15.3z"/>
	<path class="st0" d="M767.4,15.3c0,1.3,0,2.7,0,4c4,0,8,0,12,0c0-1.3,0-2.7,0-4C775.4,15.3,771.4,15.3,767.4,15.3z"/>
	<path class="st0" d="M750.4,15.3c0,1.3,0,2.7,0,4c4,0,8,0,12,0c0-1.3,0-2.7,0-4C758.4,15.3,754.4,15.3,750.4,15.3z"/>
	<path class="st0" d="M733.4,15.3c0,1.3,0,2.7,0,4c4,0,8,0,12,0c0-1.3,0-2.7,0-4C741.4,15.3,737.4,15.3,733.4,15.3z"/>
	<path class="st0" d="M716.4,15.3c0,1.3,0,2.7,0,4c4,0,8,0,12,0c0-1.3,0-2.7,0-4C724.4,15.3,720.4,15.3,716.4,15.3z"/>
	<path class="st0" d="M699.4,15.3c0,1.3,0,2.7,0,4c4,0,8,0,12,0c0-1.3,0-2.7,0-4C707.4,15.3,703.4,15.3,699.4,15.3z"/>
	<path class="st0" d="M682.4,15.3c0,1.3,0,2.7,0,4c4,0,8,0,12,0c0-1.3,0-2.7,0-4C690.4,15.3,686.4,15.3,682.4,15.3z"/>
	<path class="st0" d="M665.4,15.3c0,1.3,0,2.7,0,4c4,0,8,0,12,0c0-1.3,0-2.7,0-4C673.4,15.3,669.4,15.3,665.4,15.3z"/>
	<path class="st0" d="M648.4,15.3c0,1.3,0,2.7,0,4c4,0,8,0,12,0c0-1.3,0-2.7,0-4C656.4,15.3,652.4,15.3,648.4,15.3z"/>
	<path class="st0" d="M631.4,15.3c0,1.3,0,2.7,0,4c4,0,8,0,12,0c0-1.3,0-2.7,0-4C639.4,15.3,635.4,15.3,631.4,15.3z"/>
	<path class="st0" d="M614.4,15.3c0,1.3,0,2.7,0,4c4,0,8,0,12,0c0-1.3,0-2.7,0-4C622.4,15.3,618.4,15.3,614.4,15.3z"/>
	<path class="st0" d="M597.4,15.3c0,1.3,0,2.7,0,4c4,0,8,0,12,0c0-1.3,0-2.7,0-4C605.4,15.3,601.4,15.3,597.4,15.3z"/>
	<path class="st0" d="M580.4,15.3c0,1.3,0,2.7,0,4c4,0,8,0,12,0c0-1.3,0-2.7,0-4C588.4,15.3,584.4,15.3,580.4,15.3z"/>
	<path class="st0" d="M563.4,15.3c0,1.3,0,2.7,0,4c4,0,8,0,12,0c0-1.3,0-2.7,0-4C571.4,15.3,567.4,15.3,563.4,15.3z"/>
	<path class="st0" d="M546.4,15.3c0,1.3,0,2.7,0,4c4,0,8,0,12,0c0-1.3,0-2.7,0-4C554.4,15.3,550.4,15.3,546.4,15.3z"/>
	<path class="st0" d="M529.4,15.3c0,1.3,0,2.7,0,4c4,0,8,0,12,0c0-1.3,0-2.7,0-4C537.4,15.3,533.4,15.3,529.4,15.3z"/>
	<path class="st0" d="M512.4,15.3c0,1.3,0,2.7,0,4c4,0,8,0,12,0c0-1.3,0-2.7,0-4C520.4,15.3,516.4,15.3,512.4,15.3z"/>
	<path class="st0" d="M495.4,15.3c0,1.3,0,2.7,0,4c4,0,8,0,12,0c0-1.3,0-2.7,0-4C503.4,15.3,499.4,15.3,495.4,15.3z"/>
	<path class="st0" d="M478.4,15.3c0,1.3,0,2.7,0,4c4,0,8,0,12,0c0-1.3,0-2.7,0-4C486.4,15.3,482.4,15.3,478.4,15.3z"/>
	<path class="st0" d="M461.4,15.3c0,1.3,0,2.7,0,4c4,0,8,0,12,0c0-1.3,0-2.7,0-4C469.4,15.3,465.4,15.3,461.4,15.3z"/>
	<path class="st0" d="M444.4,15.3c0,1.3,0,2.7,0,4c4,0,8,0,12,0c0-1.3,0-2.7,0-4C452.4,15.3,448.4,15.3,444.4,15.3z"/>
	<path class="st0" d="M427.4,15.3c0,1.3,0,2.7,0,4c4,0,8,0,12,0c0-1.3,0-2.7,0-4C435.4,15.3,431.4,15.3,427.4,15.3z"/>
	<path class="st0" d="M410.4,15.3c0,1.3,0,2.7,0,4c4,0,8,0,12,0c0-1.3,0-2.7,0-4C418.4,15.3,414.4,15.3,410.4,15.3z"/>
	<path class="st0" d="M393.4,15.3c0,1.3,0,2.7,0,4c4,0,8,0,12,0c0-1.3,0-2.7,0-4C401.4,15.3,397.4,15.3,393.4,15.3z"/>
	<path class="st0" d="M376.4,15.3c0,1.3,0,2.7,0,4c4,0,8,0,12,0c0-1.3,0-2.7,0-4C384.4,15.3,380.4,15.3,376.4,15.3z"/>
	<path class="st0" d="M359.4,15.3c0,1.3,0,2.7,0,4c4,0,8,0,12,0c0-1.3,0-2.7,0-4C367.4,15.3,363.4,15.3,359.4,15.3z"/>
	<path class="st0" d="M342.4,15.3c0,1.3,0,2.7,0,4c4,0,8,0,12,0c0-1.3,0-2.7,0-4C350.4,15.3,346.4,15.3,342.4,15.3z"/>
	<path class="st0" d="M325.4,15.3c0,1.3,0,2.7,0,4c4,0,8,0,12,0c0-1.3,0-2.7,0-4C333.4,15.3,329.4,15.3,325.4,15.3z"/>
	<path class="st0" d="M308.4,15.3c0,1.3,0,2.7,0,4c4,0,8,0,12,0c0-1.3,0-2.7,0-4C316.4,15.3,312.4,15.3,308.4,15.3z"/>
	<path class="st0" d="M291.4,15.3c0,1.3,0,2.7,0,4c4,0,8,0,12,0c0-1.3,0-2.7,0-4C299.4,15.3,295.4,15.3,291.4,15.3z"/>
	<path class="st0" d="M274.4,15.3c0,1.3,0,2.7,0,4c4,0,8,0,12,0c0-1.3,0-2.7,0-4C282.4,15.3,278.4,15.3,274.4,15.3z"/>
	<path class="st0" d="M257.4,15.3c0,1.3,0,2.7,0,4c4,0,8,0,12,0c0-1.3,0-2.7,0-4C265.4,15.3,261.4,15.3,257.4,15.3z"/>
	<path class="st0" d="M240.4,15.3c0,1.3,0,2.7,0,4c4,0,8,0,12,0c0-1.3,0-2.7,0-4C248.4,15.3,244.4,15.3,240.4,15.3z"/>
	<path class="st0" d="M223.4,15.3c0,1.3,0,2.7,0,4c4,0,8,0,12,0c0-1.3,0-2.7,0-4C231.4,15.3,227.4,15.3,223.4,15.3z"/>
	<path class="st0" d="M206.4,15.3c0,1.3,0,2.7,0,4c4,0,8,0,12,0c0-1.3,0-2.7,0-4C214.4,15.3,210.4,15.3,206.4,15.3z"/>
	<path class="st0" d="M189.4,15.3c0,1.3,0,2.7,0,4c4,0,8,0,12,0c0-1.3,0-2.7,0-4C197.4,15.3,193.4,15.3,189.4,15.3z"/>
	<path class="st0" d="M172.4,15.3c0,1.3,0,2.7,0,4c4,0,8,0,12,0c0-1.3,0-2.7,0-4C180.4,15.3,176.4,15.3,172.4,15.3z"/>
	<path class="st0" d="M155.4,15.3c0,1.3,0,2.7,0,4c4,0,8,0,12,0c0-1.3,0-2.7,0-4C163.4,15.3,159.4,15.3,155.4,15.3z"/>
	<path class="st0" d="M138.4,15.3c0,1.3,0,2.7,0,4c4,0,8,0,12,0c0-1.3,0-2.7,0-4C146.4,15.3,142.4,15.3,138.4,15.3z"/>
	<path class="st0" d="M121.4,15.3c0,1.3,0,2.7,0,4c4,0,8,0,12,0c0-1.3,0-2.7,0-4C129.4,15.3,125.4,15.3,121.4,15.3z"/>
	<path class="st0" d="M104.4,15.3c0,1.3,0,2.7,0,4c4,0,8,0,12,0c0-1.3,0-2.7,0-4C112.4,15.3,108.4,15.3,104.4,15.3z"/>
	<path class="st0" d="M87.4,15.3c0,1.3,0,2.7,0,4c4,0,8,0,12,0c0-1.3,0-2.7,0-4C95.4,15.3,91.4,15.3,87.4,15.3z"/>
	<path class="st0" d="M70.4,15.3c0,1.3,0,2.7,0,4c4,0,8,0,12,0c0-1.3,0-2.7,0-4C78.4,15.3,74.4,15.3,70.4,15.3z"/>
	<path class="st0" d="M53.4,15.3c0,1.3,0,2.7,0,4c4,0,8,0,12,0c0-1.3,0-2.7,0-4C61.4,15.3,57.4,15.3,53.4,15.3z"/>
	<path class="st0" d="M36.4,15.3c0,1.3,0,2.7,0,4c4,0,8,0,12,0c0-1.3,0-2.7,0-4C44.4,15.3,40.4,15.3,36.4,15.3z"/>
	<path class="st0" d="M19.4,15.3c0,1.3,0,2.7,0,4c4,0,8,0,12,0c0-1.3,0-2.7,0-4C27.4,15.3,23.4,15.3,19.4,15.3z"/>
</g>
</svg>
