<svg viewBox="0 0 729 39">
<style type="text/css">
	.st0{fill:#020203;}
	.st1{fill:#FDFDFD;}
	.st2{fill:#0F0F0F;}
	.st3{fill:#0A0B0B;}
	.st4{fill:#2D2D2D;}
	.st5{fill:#D9D9D9;}
	.st6{fill:#101010;}
	.st7{fill:#070708;}
	.st8{fill:#0B0C0C;}
	.st9{fill:#50504F;}
	.st10{fill:#E2E1E1;}
	.st11{fill:#F0F0F0;}
	.st12{fill:#B8B7B7;}
	.st13{fill:#EEEDED;}
	.st14{fill:#FFFFFF;}
	.st15{fill:#D8D8D8;}
	.st16{fill:#B9B9B9;}
	.st17{fill:#989898;}
	.st18{fill:#414142;}
	.st19{fill:#515151;}
	.st20{fill:#828383;}
	.st21{fill:#EFEFEF;}
	.st22{fill:#EAEAEA;}
	.st23{fill:#EFEEEE;}
	.st24{fill:#F1F1F1;}
	.st25{fill:#ECECEC;}
	.st26{fill:#E7E6E6;}
	.st27{fill:#F2F2F2;}
	.st28{fill:#F3F3F3;}
	.st29{fill:#EBEBEB;}
	.st30{fill:#E9E9E9;}
	.st31{fill:#E8E7E7;}
	.st32{fill:#F4F3F4;}
	.st33{fill:#FBFBFB;}
	.st34{fill:#F8F7F7;}
	.st35{fill:#F5F5F5;}
	.st36{fill:#F6F6F6;}
	.st37{fill:#F9F9F9;}
	.st38{fill:#080809;}
	.st39{fill:#1C1C1C;}
	.st40{fill:#141414;}
	.st41{fill:#888989;}
	.st42{fill:#5D5D5D;}
	.st43{fill:#B7B7B6;}
	.st44{fill:#6B6B6B;}
</style>
<g>
	<path class="st0" d="M604.1,28.5c-1.8,0-3.6,0-5.4,0.1c-1.2,0.6-2.5-0.2-3.6,0.3l0,0c-2.1-0.2-4.3-0.2-6.5-0.2
		c-0.6,0-1.3-0.2-1.9,0.2c-4.1,0-8.2-0.1-12.3,0.2c-0.7,0-1.5,0.2-2.3,0.2c-0.6,0.3-1.5-0.5-1.9,0.4c-3.5,0.7-7.2,1.1-10.4,0.2
		c-8.5-2.1-16.9-0.7-25.3-0.8c-2.6,0-5.2,1.1-8,1.1c-1.7,0-3.2-0.6-4.8-1c-0.5-0.2-0.9-0.2-1.1,0.4c-0.1,0.4-0.5,0.6-0.8,0.4
		c-2.9-1.5-6-1.2-9-0.9c-3.3,0.3-6.7-1.2-9.8,0.9c-0.2,0.1-0.6,0.1-0.8,0c-1-1.2-2.2-0.4-3.3-0.6c-4.4,0.7-8.9,0.1-13.3,0.1
		c-1.4,0-2.9,0.1-4.3,0.1c-0.1,0-0.3,0-0.4-0.1c-0.7-0.2-1.9,0.1-1.9-0.9c0-0.8,1.2-0.5,1.7-1c0.8-1,0.5-2,0.1-3.1
		c-1.1-0.5-1.9-0.7-1.8,1c0.1,2.2-0.7,3.5-1.8,3.4c-1.8-0.2-1.9-1.7-2-3.1c0-0.2-0.1-0.4-0.2-0.5c-0.5-0.5-1.1-0.5-1.6-0.1
		c-0.6,0.8-0.2,1.7-0.2,2.7c0,0.2-0.1,0.4-0.2,0.5c-1.5,0.7-3.1,0.4-4.6,0.5c-0.7,0-1.4-0.2-2.1,0.2c-3.1,0.1-6.1,0.1-9.1,0.8
		c-2.1-0.7-4,0.2-6.1,0.1c-3-0.1-6,0-9-0.4c-0.8-0.1-1.7,0.3-2.5-0.1l-0.1,0.1h-0.1c-0.9,0.6-1.7,0-2.5,0l-0.1,0.1h-0.1
		c-2.5-0.4-4.9-0.1-7.4-0.4c-1,0.8-2.2,0.4-3.1,0.3c-3.5-0.3-7-0.1-10.5,0.4c-2.1,0.4-4.3-0.2-6.4,0.1c-0.6,0.1-1.5,0.2-1.6-0.9
		c0.5-0.6,1.3-0.4,1.9-0.9c0.8-2.1,0.4-2.6-1.4-2.3c-0.7,0.8-0.3,1.7-0.3,2.5c0,0.1,0,0.2,0,0.3c-0.1,0.2-0.2,0.4-0.3,0.5
		c-1.5,1.7-2.3,0.1-3.3-0.6c-0.3-0.6-0.2-1.3-0.3-1.9c-0.1-0.5-0.3-0.9-0.9-0.9c-0.5,0-0.6,0.4-0.8,0.8c-0.2,0.7,0,1.4-0.4,2.1
		c-1.7,1.8-2.2,1.8-3.7,0.1c-0.2-0.6-0.2-1.3-0.3-1.9c-0.2-1.2-0.8-1.6-1.8-0.8c-0.4,0.6-0.2,1.3-0.4,1.9c-0.5,1.6-2,2-3.4,1
		c-0.2-0.6-0.2-1.1-0.3-1.7c-0.1-1.2-0.6-1.7-1.7-1.2c-0.7,0.7-0.5,1.4-0.2,2.1c0.3,0.3,0.8,0.5,0.9,0.9c-0.1,0.3-0.2,0.5-0.6,0.4
		c-1.5-0.1-3,0.1-4.5-0.4c-0.1-0.3,0-0.6,0.1-0.8c0.4-0.8,0.6-1.6-0.1-2.3c-0.7-0.2-1.3-0.3-1.9,0.3c-0.4,1.2-0.2,3-2.2,2.9
		s-1.1-1.9-1.6-2.9c-0.1-0.1-0.2-0.2-0.3-0.3c-0.6-0.3-1.2-0.2-1.7,0.1c-0.6,0.7-0.3,1.5-0.3,2.2c0,0.2-0.1,0.4-0.2,0.5
		c-2.4,0.6-2.7,0.4-3.6-2.7c-0.8-0.6-1.5-0.6-2.1,0.2c-0.2,0.3-0.2,0.6-0.2,1c-0.2,1.1-0.7,1.9-1.9,1.9c-1.2,0-1.4-0.9-1.5-1.9
		c0-0.3,0-0.6-0.2-1c-0.6-0.8-1.3-0.8-2.1-0.2c-0.6,0.7-0.7,2.6-2.1,0.8c-0.9,0.9-1.3,0.1-1.7-0.5c-0.7-0.9-1.4-0.8-2.3-0.2
		c-0.2,0.2-0.4,0.3-0.7,0.3c-0.9-0.2-1.9-0.4-2.8-0.5c-0.9-0.2-1.9-0.5-2.4,0.6c-0.3,0.9-0.2,2-1.5,2.1c-1,0.1-1.7-0.3-2.1-1.3
		c-0.3-1.2-0.9-1.9-2.2-1.1c-0.7,1.3-1.7,1.8-3.2,1.3c-0.4-0.4-0.4-1-0.8-1.3c-0.7-0.4-1.3-0.3-1.9,0.2c-0.3,0.3-0.3,0.7-0.5,1.1
		c-0.4,0.9-1.2,1-2,1c-0.9,0-1.1-0.6-1.2-1.3c-0.1-0.4-0.1-0.8-0.5-1c-0.6-0.2-1.2-0.2-1.7,0.2c-0.6,0.7-0.2,1.5-0.3,2.3
		c0,0.2-0.1,0.4-0.2,0.5c-2.1,1-2.9,0.6-3.2-1.6c0-0.4,0-0.8-0.3-1.1c-1-0.8-1.6-0.5-1.9,0.7c-0.1,0.5-0.1,1-0.2,1.5
		c-1.7,0.9-3.1,0.4-3.5-1.3c-0.1-0.4-0.1-0.8-0.4-1c-1-0.5-1.6-0.2-1.7,1c-0.1,0.5,0,1-0.3,1.5c-2.3,1.6-3.2,1.2-3.6-1.4
		c0-0.3-0.1-0.6-0.3-0.9c-1-0.6-1.6-0.2-1.8,0.8c-0.1,0.6,0,1.3-0.3,1.9c-2.1,1.2-3.1,0.7-3.5-1.5c-0.1-0.4,0-0.8-0.3-1.1
		c-0.9-0.6-1.5-0.2-1.8,0.7c-0.2,0.5-0.1,1-0.4,1.5c-0.8,0.6-1.7,0.2-2.6,0.4c-0.6,0.1-0.7-0.5-0.8-1c-0.2-0.6,0.1-1.2-0.5-1.6
		c-2.1-0.6-1.5,1.2-2,2.1c-2,1.6-3.1,1.2-3.6-1.2c0-0.3-0.1-0.5-0.3-0.7c-1.7-0.5-1.7-0.4-1.9,1.8c-0.8,1.7-1.7,1.9-3.7,0.9
		c-0.1-0.2-0.1-0.4-0.1-0.5c0-0.8,0.4-1.5-0.3-2.2c-0.6-0.3-1.1-0.4-1.6,0.1c-0.3,0.5-0.2,1-0.2,1.5c-0.2,1.2-0.8,1.8-1.9,1.9
		c-1.2,0-1.7-0.8-1.8-1.9c0-0.4,0-0.9-0.3-1.3c-0.4-0.5-0.9-0.7-1.5-0.4c-0.2,0.2-0.4,0.6-0.4,0.9c-0.1,1.2-0.1,2.3-1.7,2.3
		s-2.2-0.8-2.1-2.3c0-0.2-0.1-0.4-0.2-0.6c-0.6-0.7-1.2-0.6-1.7,0.2c-0.2,3.7-2.3,4-6.3,4c-1.7,0-3.5-0.2-5.2-0.2
		c-1-0.1-1.9,0-2.9,0.4c-1.2,0.6-2.3,1.1-3.3-0.2c-2.6-0.2-5.1-0.3-7.6,0.7c-2,0.9-4,1.1-5.9,0c-0.3-0.2-0.6-0.1-1-0.2
		c-4.3,0.1-8.3,0.4-12.3,0c-0.2,0-0.5,0.1-0.8,0.2c-1.8-0.1-3.5-1.3-5.4-0.6c-1,0.4-1.8-0.3-2.8-0.1c-0.2,0-0.4,0-0.6,0
		c-3.6,0.3-7.3,0.2-10.8,1.2c-7.4,0-14.8,0-22.2,0c-0.7,0-1.5-0.1-2.1,0.2c-0.3-0.2-0.5-0.2-0.8,0c-2-0.3-4-0.2-6-0.2
		c-2.7-0.2-5.4-0.4-8.2-0.2c-2.8,0.2-5.6,0-8.4,0.4l0,0c-0.3,0.4-0.7,0.3-1.1,0.3c-6.9,0-13.8,0-20.7,0c-0.3,0-0.5,0-0.8-0.2
		c-1.6-0.1-3.2-0.2-4.8-0.3c-0.5,0.5-1,0.6-1.6,0.3c-0.1,0-0.3,0-0.4,0c-2.8-0.8-5.6-0.6-8.4-0.6c-1.5,0-3.1,0.2-4.7-0.2
		c-0.3,0-0.5,0-0.8,0c-1.1,0-2.1,0.7-3.2,0.8l0,0c-1.7,0.5-3.3-0.7-5,0h-0.1l-0.1,0.1c-0.4,0.3-0.9,0.2-1.3,0.2
		c-9.8,0-19.6,0-29.5,0c-0.4,0-1,0.1-1.3-0.2l0,0c-2.6-0.3-5.2-0.3-7.8,0c-0.5-0.2-0.9-0.2-1.3,0c-0.6,0.4-1.3,0.2-1.9,0.2
		c-20.4,0-40.8,0-61.1,0c-2.2,0-2.2,0-2.2-2.3c0-5.6,0-11.2,0-16.9c0-2.5-0.3-2.3,2.4-2.3c0.5,0,0.9,0,1.4,0
		c234.2,0,468.4,0,702.6,0c1.4,0,2.9,0.1,4.3-0.3c0.8-0.2,1.6,0,2.2,0.6c0,4.5,0,9,0,13.5c0,0.8,0,1.6-0.3,2.3
		c0.2,0.4,0,0.6-0.3,0.9c-0.5,0.2-1-0.2-1.5-0.2c-0.6,0.1-1.2-0.1-1.8,0c-1,0.5-2,0.6-3.1,0.6c-7.6-0.1-15.2,0.5-22.7-0.9l-0.1-0.1
		l-0.1,0.1c-0.9-0.2-1.7-0.4-2.5,0.2c-0.4,0.2-0.8,0.2-1.2-0.2l0,0c-1.9-0.4-3.8-0.3-5.7,0c-0.7-0.2-1.3,0-1.8,0.5
		c-1.4,1-3,0.6-4.6,0.6c-1.4,0-2.8,0-4.2,0c-2.3,0.6-4.5-0.1-6.7-0.1c-0.6,0-1.2-0.8-1.9-0.2c-1.9,0-3.7,0-5.6-0.6
		c-0.6-0.2-1.4-0.2-2.1,0.1h-0.2l-0.2,0.1c-0.1,0.1-0.3,0.2-0.4,0.3c-0.6,0.2-1.3,0.2-2,0.4l0,0c-2.9,0.5-5.8,0.1-8.6,0.2
		c-1.6,0-3.3,0-4.9,0c-0.7,0.1-1.2-0.4-1.8-0.6c-1.5-0.5-2.9-1.2-4.4,0c-0.8,0.6-1.9,0-2.8,0c-0.6,0-1.3-0.2-1.9-0.1
		c-0.4,0-0.7,0-1.1,0c-1.9,0.5-3.8,0.1-5.7-0.3c-0.5,0-1,0-1.5,0c-0.4,0-0.7,0.3-1.1,0.4c-0.2-0.2-0.5-0.2-0.7,0
		c-0.4,0-0.8-0.2-1.2-0.2c-0.6-0.3-1.2,0.3-1.8,0.2c-0.8-0.3-1.5,1-2.4,0.2l0,0c-1.7,0.1-3.2-0.7-4.8-0.8c-1.1,0-2.3,0-3.4,0
		C605.7,28.3,604.9,28.3,604.1,28.5z"/>
	<path class="st1" d="M723.8,12c-0.8,0-1.6-0.1-2.4-0.1c-236,0-472,0-708.1,0c-1.9,0-2.5,0.3-2.5,2.4c0.2,5.7,0.1,11.4,0,17.1
		c0,1.4,0.4,1.7,1.7,1.7C33.3,33,54,33,74.8,33c0.4,0,0.8,0,1.2,0.1c-0.6,0.6-1.3,0.4-2.1,0.4c-20.4,0-40.8,0-61.3,0
		c-1.8,0-2.2-0.5-2.2-2.2c0.1-6.5,0-13.1,0-19.6l0,0c235.7,0,471.4,0,707,0c1,0,2,0,3,0c0.9-0.7,1.9-0.7,2.8,0
		C723.5,11.7,723.6,11.8,723.8,12z"/>
	<path class="st2" d="M295.2,29.8c1.2,0.7,2.4,1.2,3.2-0.5c2.4,1,2-1.3,2.8-2.3c0.1,0.3,0.3,0.6,0.4,0.9c0.2,2.3,0.8,2.6,2.8,1.5
		c1.5,0.4,2.4,0,2.3-1.7c0-0.3,0.1-0.6,0.3-0.9c0.2,0.1,0.4,0.3,0.4,0.4c-0.4,2.5,1.2,2.5,2.9,2.3c2.7,0.9,2-1.5,2.7-2.7
		c0.6,0.3,0.5,0.8,0.5,1.3c0.2,2.4,0.5,2.6,2.9,1.6c1.9-0.1,2.2-1.6,2.6-3c0.4,0.2,0.4,0.6,0.5,1c0.2,2.6,0.2,2.6,2.8,1.7
		c2.1,0.3,2.2-1.4,2.7-2.7c0.3,0.2,0.4,0.5,0.4,0.8c-0.1,2.2,1.3,2.1,2.8,1.9c2.1,0.3,2.2-1.5,2.7-2.7c0.5,0.3,0.4,0.8,0.4,1.2
		c0.2,2.5,0.5,2.7,2.8,1.5c2.5,0.2,2.2-1.6,2.4-3.2c0.7,0,0.8,0.6,0.8,1.1c0,0.6-0.4,1.5,0.9,1.5c1-0.1,1.6-0.4,1.5-1.5
		c0-0.2,0.2-0.4,0.4-0.6c0.8,0.9,0.6,2,0.7,3.1c-0.4,1.4-1.9,0.6-2.7,1.3c-3.3,0.1-6.7,0.1-10,0.2c-0.9,0-1.9,0-2.7,0.3
		c-3.9,1.3-8,1-11.9,0.9c-2.7-0.1-5.3-1.3-8.1-1.1c-3.7,0.4-7.5,0.2-11.2,0.4c-2,0.1-4,0.7-6.1,0.5c-1-0.4-2-0.4-2.9,0.3
		c-2.5,0.7-5,0.4-7.5,0.2c-0.5,0-1.3,0.1-0.9-0.9c3-0.5,5.9-1.6,9-1.1c0.4,0.1,0.8-0.2,1-0.5c1.9-0.2,1.9-1.9,2.5-3.1
		c0.7,0.6,0.4,1.5,0.4,2.2c0.1,0.8,0.3,1.3,1.2,1.3c0.8,0,1.5-0.3,1.6-1.3c0.1-0.8-0.5-1.9,0.5-2.5c0.2,0.3,0.4,0.6,0.3,0.9
		C293.1,29,293.9,29.6,295.2,29.8z"/>
	<path class="st3" d="M372.5,26.2c0.4,0.2,0.4,0.6,0.4,1c0.2,2.1,0.5,2.3,2.8,1.7c2.5,0.2,2.2-1.7,2.4-3.2c1.2,0.3,0.6,1.2,0.8,1.9
		c0.1,0.6-0.4,1.6,0.8,1.6c1.1,0,1.7-0.4,1.5-1.7c-0.1-0.5-0.1-1.1,0.4-1.4c0.6,1.1,0.6,2.7,2.3,3.1l0.1,0.2c1.5-0.5,3.1,1,4.7,0
		c0.4-0.5,0.9-0.6,1.5-0.5c0.3,0.6,0.8,1.2,1.3,0.7c0.6-0.4,1.5-0.5,1.5-1.6c0-0.7-0.4-1.6,0.4-2.2c0.2,0.2,0.4,0.4,0.4,0.7
		c-0.2,1.7,0.8,2.3,2.3,2.3c1.1,1.9,2.2,0.8,3.4,0.1c0.8-0.6,1.7-0.6,2.5,0c1.2,0,2,1.9,3.3,0.5l0,0c0.6,0.7,1.6,0.7,2.2,0.5
		c2.1-0.6,3.9,0.4,5.9,0.3c-5.8,1.8-11.7,1.5-17.6,0.8c-4.3-0.5-8.6-0.8-12.9-0.6c-3.3,0.1-6.7,0.5-10,0.2c-0.6,0.4-1.4-0.1-2.1,0.4
		l0,0c-3.1,0.8-6-0.3-9-0.6c-0.6-0.1-1.3-0.3-1.6-1c-0.3-1-0.5-2,0.4-2.8c0.3,1.3,1.6,1,2.3,1.2c0.7,0.2,0-1.3,0.8-1.6
		c0.7,0.8,0.2,1.8,0.7,2.6c0.4,0.5,0.8,0.5,1.2,0c0.5-0.8,0.1-1.8,0.7-2.5c0.7,0.4,0.4,1.2,0.5,1.8c0,0.7,0,1.3,1,1.3
		c0.9,0,1.3-0.4,1.4-1.3c0-0.6-0.2-1.3,0.4-1.9c0.9,0.6,0,2.5,1.5,2.4C372.5,28.5,371.7,26.8,372.5,26.2z"/>
	<path class="st4" d="M360.6,29.3c0.6,0.8,1.5,0.8,2.3,0.8c2.7,0,5.3,1.3,8.1,0.9c-0.9,0.2-1.9,0.5-2.8,0.8c-1.7-0.4-3.4,0-5.1-0.2
		c-6.7-1-13.6-0.7-20.4-0.7c-0.3,0-0.5,0-0.8,0.2c-1.3-0.2-2.7,0.4-4,0c0.6-0.9,1.8-0.5,2.4-1.2c1.7-0.3,1.7-2,2.4-3.1
		c0.6,0.4,0.3,1,0.4,1.5c0.8,0.8,1.7,0.7,2.7,0.8c1.4,0.6,2.2-0.1,2.9-1.2c0.4,0.8,0.8,1.4,1.9,1.2c1.1-0.2,0.7-1.1,0.8-1.7
		c0.1-0.2,0.2-0.4,0.4-0.7c0.2,0.1,0.3,0.3,0.4,0.4c0.3,0.7,0,1.8,1,1.9c1.2,0.1,0.8-1.3,1.3-1.9c0.7-0.4,0.8,0.2,0.9,0.6
		c0.2,0.5,0.2,1.1,0.9,1c0.8-0.1,0.6-0.8,0.8-1.2c0.1-0.2,0.2-0.4,0.4-0.5c0.1-0.1,0.2-0.3,0.4-0.4C358.4,27.9,359,29.1,360.6,29.3z
		"/>
	<path class="st1" d="M721.8,27.8c0.6-0.1,0.6,0.7,1.2,0.7c0.5,0.1,0.6,0.5,0.8,0.9c-0.3,1-1.3,0.8-1.7,0.6
		c-1.8-0.6-3.7,0.1-5.5-0.5c-0.8-0.3-2.2-0.7-3,0.5c-0.1,0.1-0.4,0.2-0.5,0.2c-4.8-1.4-9.8-0.5-14.6-0.8c-0.9,0-1.8-0.2-2.7,0.5
		c-0.2,0.2-1.2,0.8-1.4-0.1c-0.3-1.1,0.8-0.7,1.5-0.9c-0.6-0.4-1.5,0-1.8-0.7c4-0.2,8,0.4,11.9,0.4c3,0,6.2-0.3,9.2,0.2
		c1.7,0.3,3.3-0.6,5-1C720.7,28.6,721.3,28.6,721.8,27.8z"/>
	<path class="st5" d="M227.7,31.3c1,0,2.1,0,3.1,0c1.8-0.6,3.2,0.9,4.9,0.8c1-0.6,2-0.4,3.1-0.1c2.5,0.7,5.1,0.4,7.7,0.2
		c2.2-0.2,4,1.1,6.2,0.8c1-0.2,2.1-0.3,3.1-0.4c1,0,2,0,3,0c0,0.3,0,0.6,0,0.8c-3.1-0.4-6.2,0.9-9.3-0.6c-0.4-0.2-1-0.1-1.5-0.1
		c-5.6,0-11.2,0-16.8,0c-4.3,0-8.7,0-13,0.1c-0.4,0-0.9,0.2-1.2-0.2c3.1-1.6,6.7-0.8,10-1.5C227.1,31,227.4,31.2,227.7,31.3
		c-1.8,0.9-3.8,0.5-5.8,0.6C223.9,31.8,225.9,32.3,227.7,31.3z"/>
	<path class="st2" d="M479.3,29.4c2.1-0.9,4.4-0.2,6.6-0.3c3.7-0.1,7.3,0.2,11,0.4c-1.2,0.6-2.6,0.6-3.8,0.7
		c-5.4,0.1-10.8,0.8-16.2,0.6c-1.3-0.1-2.9,0.3-4-0.8c1-1.4,2.5-0.3,3.8-0.6C477.3,29,478.4,29.2,479.3,29.4z"/>
	<path class="st6" d="M437.5,29.8c1.8-1,3.6-0.1,5.4-0.1c3.5-0.1,7,0.7,10.4-0.4c1-0.3,1.2,0.5,1.7,1c-5.6,1.3-11.2,0.8-16.7,0.4
		C438,30.6,437.8,30.1,437.5,29.8z"/>
	<path class="st7" d="M479.3,29.4c-1.7,0.5-3.3,0.1-5,0.2c-0.5,0-1,0-1.4,0.2c-0.8,0.3-1.6,0-2.4-0.2c-2-0.5-4.1-0.3-6.2-0.3
		c0.7-0.7,1.6-0.4,2.4-0.4c1.5,0,3-0.2,4.4-0.9c1.8-0.3,1.6-2.1,2.3-3.1c0.6,0.6,0.3,1.3,0.4,2.1c0,1,0.6,1.7,1.5,1.8
		c1,0,1.1-1,1.3-1.7c0.1-0.4,0-0.8,0-1.2c0-1.7,0.8-2.5,2.4-2.3c0,0,0,0.6,0,0.9c0,0.1-0.1,0.2-0.2,0.2c-0.8,0.4-1.5,0.8-1.4,1.9
		s1.1,0.9,1.7,1.3c0.1,0.1,0.1,0.1,0.2,0.2c-0.5,0.7-1.3,0.2-2.1,0.5C477.9,29.3,478.8,28.6,479.3,29.4z"/>
	<path class="st8" d="M286.8,30.1c-0.2,0.5-0.6,0.9-1.2,0.8c-3.1-0.4-6.2,0.8-9.2,0.9c-0.6,0.5-1.4,0.5-2.1,0.3
		c-0.2-0.1-0.4-0.2-0.5-0.4c-1.4-0.4-2.9,0.2-4.3,0c-0.2,0-0.2-0.2-0.2-0.3c2.7-0.4,5.4,0.2,8-0.4c2.7-0.6,2.9-0.6,3.2-3.2
		c0-0.3,0.2-0.6,0.4-0.9c0.6,0.4,0.5,1.2,0.6,1.8c0.1,0.4,0.1,0.9,0.6,0.9s0.6-0.4,0.7-0.8c0.2-0.6,0-1.3,0.5-1.8
		c0.6,0.3,0.5,0.9,0.4,1.4c-0.3,1.6,0.9,1.6,1.8,1.7c1.3,0.1,0.8-1,1-1.7c0.1-0.7-0.4-1.7,0.8-1.8C287.5,27.8,287.6,29,286.8,30.1z"
		/>
	<path class="st1" d="M666.7,28.9c2.4,0.2,4.7,0.3,7.1,0.4c-1.5,0.9-3.2,0.3-4.8,0.4c-2.4,0.1-4.8-0.3-7.2,0.3
		c-0.4,0.1-2,0.7-2.2-1.1c-0.1-0.8-1.4-0.2-2.1-0.4c1.6-0.6,3.3-0.7,4.9,0c0.9,0.4,1.9-1.3,2.5,0.3c0,0,0.1,0,0.2,0s0.1-0.1,0.1-0.2
		C665.8,28.1,666.3,28.5,666.7,28.9z"/>
	<path class="st9" d="M342,31c2.6-0.8,5.2-0.5,7.9-0.6c5.9-0.2,11.7,0.7,17.6,1c0.2,0,0.5,0.2,0.7,0.3c-3.7,0.1-7.3,0-11-0.6
		c-4.2-0.6-8.5-0.2-12.8-0.2C343.6,31,342.8,31,342,31z"/>
	<path class="st1" d="M630.1,28.6c0.8-0.2,3.1,0,3.8,0.2c0.4,0.1,0.6-0.1,1-0.4c1.2-1,4.6-0.3,5.6,0.9c0.2,0.1,0.2,0.2,0.2,0.2
		s-0.1,0.1-0.2,0.1c-1.1,0.4-2.2,1.2-2.7-0.7c-0.2-0.8-0.9-0.3-1.5,0.2c-1,0.8-2.4,1.2-3.5,0.8c-0.7-0.2-0.9-0.6-1.6,0.1
		c-0.4,0.4-0.2-0.7-0.6-0.8C630.3,29.1,630.1,28.9,630.1,28.6z"/>
	<path class="st1" d="M85.3,32.9c9.3,0,18.7,0,28,0.1c1.4,0,2.7,0,4.1,0c-0.5,0.6-1.2,0.4-1.8,0.4c-9.5,0-19,0-28.5,0
		C86.4,33.3,85.7,33.6,85.3,32.9z"/>
	<path class="st1" d="M168.9,32.9c5.5-1.5,11.1-1.1,16.7-0.7c-0.3,1.2-1.3,0.8-1.9,0.7c-3.2-0.3-6.4,0.2-9.6,0
		C172.4,32.9,170.6,33.4,168.9,32.9z"/>
	<path class="st1" d="M216.9,32.5c0.4,0.1,0.8,0.1,1.2,0.2c-0.4,0.4-0.9,0.3-1.3,0.3c-8.2,0-16.4,0-24.6,0c4.7-0.5,9.5-0.2,14.2-0.3
		C209.9,32.5,213.4,32.5,216.9,32.5z"/>
	<path class="st1" d="M146.3,33c6.1,0,12.1,0,18.2,0c1.5,0,2.9,0,4.4-0.1c-0.3,0.6-0.9,0.5-1.4,0.5c-6.6,0-13.3,0-19.9,0
		C147.2,33.3,146.7,33.4,146.3,33z"/>
	<path class="st10" d="M274.1,31.8c0.8,0,1.5,0,2.3,0c2.6,0.6,5.2,1.5,7.9,0c0.2-0.1,0.7,0.2,1,0.3c0.1,0.1,0.2,0.2,0.1,0.2
		c0,0.1-0.1,0.1-0.1,0.1c-0.5,0.7-1.2,0.5-1.8,0.5c-3,0-6,0-8.9,0C275.1,32.3,273.7,32.3,274.1,31.8z"/>
	<path class="st11" d="M174.1,32.9c0.8-0.8,1.9-0.3,2.8-0.4c2.9-0.2,5.8,0.4,8.7-0.4c1.9,0.2,3.8,0.5,5.8,0.7
		c-1.6,0.4-3.3-0.4-4.9,0.4c-1.5-0.6-3.2,0.2-4.8-0.4c-0.7,0-1.3,0-2,0C177.8,33.3,176,33.3,174.1,32.9L174.1,32.9z"/>
	<path class="st1" d="M623.4,28.2c0.7,0.1,1.6-0.5,2.1,0.5c1-0.6,2.1,0.5,3-0.4c0.3-0.3,0.4,0,0.6,0.2c0.1,0.3,0.6,0.4,0.4,0.8
		c-0.1,0.2-0.2,0.5-0.3,0.4c-1.8-0.7-3.8,1.3-5.5-0.5C623.4,29,623.1,28.7,623.4,28.2z"/>
	<path class="st1" d="M678,29.3c1.5-0.7,3-0.6,4.6-0.6c0.2,0.6,1.6-0.1,1.3,1c-0.2,0.8-1,0.3-1.6,0.3C680.7,30,679.3,30.1,678,29.3z
		"/>
	<path class="st1" d="M126.5,32.2c2.6,0.4,5.2-0.2,7.9,0.1c1.7,0.2,3.6-0.4,5.2,0.8c-0.3,0.4-0.8,0.5-1.1,0.3
		c-2.1-1.4-4.3-0.5-6.5-0.6C130.2,32.5,128.3,32.9,126.5,32.2z"/>
	<path class="st12" d="M640.5,29.7c0-0.1,0-0.2,0-0.4c4.8,0,9.5,0,14.2,0c-0.3,0.5-0.8,0.4-1.2,0.4
		C649.1,29.8,644.8,29.7,640.5,29.7z"/>
	<path class="st1" d="M609.9,28.6c1.1-0.2,2.2-0.6,3.2,0.5c0.4,0.4,1.3-1,1.6,0.3c-1.3,1-2.9,0.1-4.4,0.4
		C609.3,30,610.5,28.9,609.9,28.6z"/>
	<path class="st13" d="M269.3,31.4c0.1,0.1,0.1,0.2,0.2,0.3c-0.4,0.1-0.9,0.1-1.4,0.2c1,1,2.2,0.4,3.5,0.8c-1.9,0.5-3.6,0.2-5.3,0.2
		c-0.3-0.4-0.3-0.8,0-1.2C267.1,31.2,268.3,31.7,269.3,31.4z"/>
	<path class="st1" d="M586.8,28.9c2.8-0.4,5.6-0.6,8.4,0c0.2,0.2,0.6,0.6,0.5,0.8c-0.1,0.5-0.6,0.5-1,0.2
		C592.3,28.3,589.4,29.3,586.8,28.9z"/>
	<path class="st6" d="M427.2,29.4c2.5,0,5-0.6,7.4,0.4c-0.2,0.2-0.6,0.7-0.6,0.7C431.9,29.1,429.3,30.6,427.2,29.4z"/>
	<path class="st14" d="M723.4,11.5c-0.9,0-1.9,0-2.8,0c-0.2-1.4,0.8-1.6,1.8-1.7C723.8,9.8,723.3,10.8,723.4,11.5z"/>
	<path class="st1" d="M77.4,32.9c2.6-0.3,5.2-0.5,7.8,0C82.7,32.9,80.1,32.9,77.4,32.9z"/>
	<path class="st1" d="M117.6,32.9c1.7-1.1,3.3-0.4,5,0C120.9,33.9,119.2,32.7,117.6,32.9z"/>
	<path class="st15" d="M266.2,31.8c0,0.4,0,0.8,0,1.2c-0.8,0-1.6,0-2.3,0c-1.5,0.1-0.5-0.7-0.4-1.1C264.3,32.3,265.3,32,266.2,31.8z
		"/>
	<path class="st1" d="M656.7,28.6c0.1,0,0.2,0,0.4,0c0.4,0.6,1.3,0.1,1.8,0.7c-0.8,0.9-1.7,0.7-2.7,0.4
		C655.9,29.1,656.3,28.9,656.7,28.6z"/>
	<path class="st1" d="M690.1,28.2c1.3,0.1,2.5-0.8,3.8,0c-1.3-0.4-2.3,0.8-3.5,0.8C689.1,29,689.9,28.5,690.1,28.2z"/>
	<path class="st1" d="M174.1,32.9c1.9,0,3.7,0,5.6,0C177.8,33.6,176,33.6,174.1,32.9z"/>
	<path class="st1" d="M620.1,28.9c0.2-0.3,0.4-0.5,0.6,0c0.2,0.4,0.6,0.1,0.9,0.2c0.2,0.1,0.3,0.2,0.3,0.3c-1.1,1-2.2,0.8-3.2-0.1
		c0.1-0.1,0.2-0.2,0.4-0.3C619.3,28.9,619.8,29.3,620.1,28.9z"/>
	<path class="st16" d="M619.1,29.3c-0.2,0-0.3,0-0.4,0c-0.6-0.1-1.1,1-1.7,0c0-0.2,0-0.4,0.2-0.5c0.7-0.1,1.1-1.2,1.9-0.4
		C619.3,28.8,619.3,29.1,619.1,29.3z"/>
	<path class="st1" d="M684.4,28.1c1.9-0.3,3.8-0.4,5.7,0C688.2,28.1,686.3,28.1,684.4,28.1z"/>
	<path class="st17" d="M285.3,32.5c0-0.1,0-0.2,0-0.4c0.9-1.3,1.8-0.6,2.7,0C287.1,32.6,286.1,32.1,285.3,32.5z"/>
	<path class="st1" d="M617.1,28.9c0,0.2-0.1,0.3-0.2,0.5c-0.8,0.9-1.5,0.5-2.3-0.1c0.5-0.1,0.9,0,1.2-0.6
		C616.1,28.3,616.8,27.9,617.1,28.9z"/>
	<path class="st1" d="M595.2,28.9c1.2-0.6,2.4-0.4,3.6-0.3c-0.4,0.3-0.3,1.4-1.2,0.8C596.8,28.7,596,29.1,595.2,28.9z"/>
	<path class="st1" d="M181.7,32.9c1.6,0.2,3.2-0.4,4.8,0.4C184.8,33.1,183.2,33.8,181.7,32.9z"/>
	<path class="st12" d="M656.7,28.6c-0.2,0.4-0.3,0.7-0.4,1.1c-0.6,0.1-1.1-0.1-1.6-0.4C655.1,28.4,656,28.6,656.7,28.6z"/>
	<path class="st1" d="M623.4,29.3c-0.4,1.4-1,0.4-1.5,0.1v-0.1c-0.2-0.2-0.2-0.4-0.2-0.6C622.5,28.1,623.1,28.3,623.4,29.3z"/>
	<path class="st18" d="M623.4,29.3c-0.6,0-0.8-1.5-1.6-0.4c-0.7,0.1-0.6-0.3-0.4-0.8c0.7,0,1.3,0,2,0c0.2,0.4,0.6,0.7,0.2,1.1h-0.1
		L623.4,29.3z"/>
	<path class="st1" d="M122.5,32.9c1-0.6,2-1,3.2-0.8C124.6,32.3,123.8,33.5,122.5,32.9z"/>
	<path class="st6" d="M434.8,29.8c0.8,0,1.7,0,2.5,0C436.4,31.4,435.6,29.8,434.8,29.8z"/>
	<path class="st19" d="M570.2,29.7c0.4-1.5,1.2-0.7,1.9-0.4C571.7,30.4,570.8,29.3,570.2,29.7z"/>
	<path class="st13" d="M274.1,31.8c0.2,0.4,0.8,0.6,0.4,1.2c-1.2,0.2-1.3-0.3-0.8-1.2C273.9,31.8,274,31.8,274.1,31.8z"/>
	<path class="st14" d="M10.6,11.5C10,11.2,9.7,10.8,10,10C10.9,10.4,10.5,11,10.6,11.5L10.6,11.5z"/>
	<path class="st20" d="M629.4,29.4c-0.1-0.3-0.5-0.4-0.4-0.8c0.4,0,0.7,0,1.1,0c0.6,0,0.4,0.4,0.4,0.8
		C630.1,29.4,629.7,29.4,629.4,29.4z"/>
	<path class="st1" d="M604.2,29.7c0.3-0.8,0.8-0.7,1.3-0.6C605.3,29.7,604.8,29.7,604.2,29.7z"/>
	<path class="st14" d="M723.8,29.4c-0.4-0.2-0.7-0.5-0.8-0.9c0.2-0.2,0.3-0.5,0.5-0.7C724,28.2,724.2,28.7,723.8,29.4z"/>
	<path class="st1" d="M689.2,29.6c0.4-0.2,0.8-0.2,1.3,0C690.1,29.8,689.6,29.9,689.2,29.6z"/>
	<path class="st1" d="M698.3,30c0.4-0.2,0.8-0.2,1.3,0C699.2,30.2,698.8,30.3,698.3,30z"/>
	<path class="st4" d="M371,31c0.6-0.7,1.3-0.4,2.1-0.4C372.4,31.1,371.7,31,371,31z"/>
	<path class="st1" d="M140,33c0.5-0.1,1.1-0.2,1.6-0.3C141.2,33.7,140.6,33.5,140,33z"/>
	<path class="st1" d="M604.1,28.5c0.8-0.3,1.6-0.3,2.4,0C605.7,28.5,604.9,28.5,604.1,28.5z"/>
	<path class="st21" d="M390.4,28.9c-0.5,0.2-1,0.4-1.5,0.5c-0.4-0.3-1,0.2-1.2-0.4c-0.2-1.1-0.4-2.1,0.2-3.1
		C390.4,25.3,390.4,25.3,390.4,28.9z"/>
	<path class="st22" d="M432,27c0.2,1.2-0.2,1.8-1.4,1.8c-1.4,0-1.3-0.9-1.3-1.9s-0.1-1.9,1.3-1.9C432.1,25.1,432.1,26,432,27z"/>
	<path class="st23" d="M396.3,28.9c-2.7,0.8-2.8,0.6-2.7-3C396.2,25.1,396.4,25.3,396.3,28.9z"/>
	<path class="st24" d="M423.3,26.8c-0.2-1,0.2-1.7,1.4-1.7c1.3,0,1.3,1,1.3,1.9c0,1,0,1.8-1.4,1.9C423.1,29,423.3,27.9,423.3,26.8z"
		/>
	<path class="st11" d="M354.7,27c-0.1,0.8,0,1.6-0.3,2.3c-0.2,0.5-1,0.4-1.6,0.3s-0.9-0.4-0.9-1s0-1.3,0-1.9c0.8-1,1.7-0.7,2.7-0.4
		C354.9,26.4,354.9,26.7,354.7,27z"/>
	<path class="st23" d="M449.8,27c0.2,1.1-0.2,1.7-1.5,1.6c-1.6,0-1.1-1.1-1.2-1.9c-0.1-0.9,0-1.7,1.3-1.7
		C450,24.9,449.8,25.9,449.8,27z"/>
	<path class="st23" d="M348.8,27.8c-0.2,2-0.5,2.2-2.7,1.6c-0.9-0.9-0.3-1.8-0.1-2.7C347.9,25.5,348.5,25.8,348.8,27.8z"/>
	<path class="st11" d="M402.2,28.9c-0.8,0.2-1.7,0.3-2.5,0c0-0.7-0.1-1.4-0.2-2.1c-0.1-1.1,0.6-1.3,1.5-1.3s1.3,0.4,1.3,1.3
		C402.2,27.5,402.2,28.2,402.2,28.9z"/>
	<path class="st24" d="M384,29.3c-2.3,0.1-2.3,0.1-2.3-3.1c0.8-0.8,1.7-0.6,2.6-0.3c0.7,1,0.5,2,0.1,3.1
		C384.3,29.1,384.1,29.2,384,29.3z"/>
	<path class="st24" d="M360.6,29.3c-2.2,0.4-2.7,1.1-2.7-2.7c1-1.1,1.9-1.1,2.9,0C360.7,27.5,360.6,28.4,360.6,29.3z"/>
	<path class="st23" d="M153.1,28.9c0,1,0.2,1.9-1.3,2c-1.3,0-1.5-0.6-1.5-1.7c0-1-0.1-1.9,1.3-1.9C153,27.2,153.2,27.9,153.1,28.9z"
		/>
	<path class="st21" d="M141.3,29c0,1,0.2,1.9-1.3,1.9c-1.3,0-1.5-0.7-1.5-1.7s-0.1-1.9,1.3-1.9C141.2,27.3,141.4,28,141.3,29z"/>
	<path class="st23" d="M135.3,29.3c0.1,1,0,1.7-1.4,1.7s-1.3-0.9-1.4-1.8c0-1,0.1-1.8,1.4-1.8C135.4,27.3,135.3,28.3,135.3,29.3z"/>
	<path class="st25" d="M126.6,29c-0.1-0.9,0.2-1.6,1.5-1.6c1.5,0,1.2,1,1.2,1.9c0.1,1,0,1.7-1.4,1.7C126.5,31,126.7,30,126.6,29z"/>
	<path class="st21" d="M435.3,28.5c0-0.7,0-1.3-0.1-2c-0.1-1,0.4-1.4,1.3-1.4c1,0,1.4,0.4,1.4,1.4c0,0.7,0.1,1.4-0.4,2.1
		C436.9,28.8,436.1,29,435.3,28.5z"/>
	<path class="st26" d="M200.7,28.6c0.1,0.9,0.1,1.7-1.2,1.7c-1.5,0.1-1.3-0.9-1.3-1.8c0-1-0.2-1.9,1.3-1.9
		C200.9,26.7,200.6,27.7,200.7,28.6z"/>
	<path class="st13" d="M455.7,26.9c0.2,1.1-0.2,1.7-1.5,1.7c-1.5,0-1.2-1-1.3-1.9c-0.1-1.1,0.1-1.8,1.5-1.7
		C455.9,24.9,455.7,25.9,455.7,26.9z"/>
	<path class="st27" d="M342.8,26.6c0,0.3-0.1,0.7,0,1c0.4,2-0.6,2.4-2.3,2.1c-0.8-1-0.2-2.1-0.4-3.1
		C340.9,25.9,341.9,25.8,342.8,26.6z"/>
	<path class="st27" d="M330.9,26.6c0,0.4,0,0.8,0,1.2c0,2.2-0.6,2.5-2.8,1.5C328,26.2,328.4,25.7,330.9,26.6z"/>
	<path class="st24" d="M324.9,26.6c0,0.4,0,0.8,0,1.2c0,2.3-0.7,2.7-2.8,1.5c0-0.3,0-0.6,0-1C322.2,26.1,322.6,25.8,324.9,26.6z"/>
	<path class="st23" d="M318.9,26.6c0,0.3,0.1,0.6,0.1,1c0.1,2.5-0.2,2.7-2.7,2c0-0.4,0-0.8,0-1.2C316.2,26.2,316.6,26,318.9,26.6z"
		/>
	<path class="st21" d="M366.5,26.2c-0.1,1,0.3,2.1-0.4,3.1c-0.6,0.4-1.3,0.2-2,0.1c-0.8-1-0.2-2.1-0.4-3.2
		C364.8,25.6,365.7,25.6,366.5,26.2z"/>
	<path class="st27" d="M417.4,27.1c-0.1-1-0.2-1.8,1.3-1.8c1.3,0,1.5,0.7,1.5,1.7s0.1,2-1.4,1.9C417.3,29,417.4,28.1,417.4,27.1z"/>
	<path class="st28" d="M414.2,27c0,1,0.2,1.9-1.3,2s-1.5-0.8-1.5-1.9c0-1,0-1.8,1.4-1.8C414.2,25.3,414.3,26.1,414.2,27z"/>
	<path class="st28" d="M405.5,25.8c0.8-0.5,1.8-0.8,2.3-0.2c0.8,0.9,0.6,2.2,0,3.3c-0.8,0.4-1.5,0.5-2.3,0l0,0
		C405,27.9,405.3,26.8,405.5,25.8z"/>
	<path class="st22" d="M248.2,28c0,1,0.1,1.9-1.3,1.9c-1.3,0-1.3-0.8-1.3-1.7c0-0.9-0.3-1.9,1.2-1.9C248.1,26.2,248.2,27.1,248.2,28
		z"/>
	<path class="st22" d="M312.9,26.6c0,0.5,0.1,1,0.1,1.5c0,0.6,0.3,1.3-0.5,1.7c-0.9,0.4-1.7,0.2-2.2-0.6
		C310.4,26.2,310.4,26.2,312.9,26.6z"/>
	<path class="st27" d="M378.2,25.8c0.3,0.4,0.3,0.8,0.4,1.3c0.1,2.4-0.4,2.7-2.7,1.9l0,0c-0.4-0.9-0.3-1.8,0-2.8
		C376.5,25.5,377.3,25.8,378.2,25.8z"/>
	<path class="st28" d="M372.5,26.2c0,0.6,0,1.2,0,1.7c0,0.9-0.2,1.4-1.3,1.5c-1.1,0-1.5-0.4-1.5-1.5c0-0.6,0-1.2,0-1.7
		C370.7,25.6,371.6,25.6,372.5,26.2z"/>
	<path class="st27" d="M336.4,26.2c0.6,0.8,0.5,1.8,0.3,2.6c-0.4,1.8-1.7,0.9-2.7,0.6l0,0c-0.3-0.9-0.3-1.8,0-2.8
		C334.8,26,335.7,26.2,336.4,26.2z"/>
	<path class="st21" d="M443.9,26.9c0.1,1,0,1.8-1.4,1.8c-1.5,0-1.3-0.9-1.3-1.9s0-1.9,1.4-1.8C444,25,443.9,25.9,443.9,26.9z"/>
	<path class="st26" d="M194.7,28.9c0.1,0.8-0.1,1.5-1.3,1.5c-1.5,0.1-1.3-1-1.3-1.9c0-1,0-1.9,1.4-1.8
		C195,26.8,194.7,27.8,194.7,28.9z"/>
	<path class="st22" d="M206.6,28.6c0,0.9-0.1,1.7-1.4,1.7s-1.2-0.9-1.2-1.8s-0.2-1.9,1.3-1.9C206.7,26.6,206.6,27.5,206.6,28.6z"/>
	<path class="st13" d="M307,26.7c0,0.5,0.2,1,0.1,1.5c0,0.6,0.4,1.5-0.6,1.8c-0.8,0.2-1.7,0.3-2.1-0.7
		C304.5,26.3,304.5,26.3,307,26.7z"/>
	<path class="st29" d="M165,29.1c0.2,1-0.2,1.6-1.5,1.6c-1.4,0-1.2-1.1-1.3-1.9c-0.1-1.2,0.3-1.7,1.5-1.7
		C165.3,27.1,165,28.1,165,29.1z"/>
	<path class="st25" d="M168.2,28.8c-0.1-1,0-1.8,1.3-1.8c1.4,0,1.3,0.9,1.3,1.8c0,1,0,1.8-1.3,1.8C168.2,30.6,168.2,29.8,168.2,28.8
		z"/>
	<path class="st23" d="M176.9,29.1c0.1,0.8-0.1,1.5-1.4,1.4c-1.5,0-1.2-1-1.2-1.9c-0.1-1.1,0.1-1.7,1.4-1.7
		C177.1,27,176.8,28,176.9,29.1z"/>
	<path class="st25" d="M180.2,28.4c-0.1-1.1,0.4-1.5,1.5-1.5c1.7,0.1,1,1.3,1.2,2.2c0.1,1-0.3,1.5-1.3,1.4
		C179.8,30.5,180.2,29.3,180.2,28.4z"/>
	<path class="st26" d="M188.8,29c0.1,0.7-0.1,1.4-1.5,1.4c-1.5,0-1.1-1.1-1.2-1.9c-0.1-1,0.1-1.7,1.3-1.7
		C188.8,26.8,188.7,27.8,188.8,29z"/>
	<path class="st30" d="M698.4,24.8c0,1,0.2,1.9-1.3,1.9c-1.4,0-1.3-0.9-1.3-1.9c0-0.9,0-1.7,1.2-1.8C698.3,23,698.4,23.8,698.4,24.8
		z"/>
	<path class="st21" d="M301.2,27c0,0.4,0,0.9,0,1.3c0,0.7,0.3,1.5-0.7,1.8c-0.8,0.2-1.7,0.2-2.1-0.8C298.6,26.2,298.8,26,301.2,27z"
		/>
	<path class="st22" d="M701.7,24.7c-0.1-1,0.1-1.7,1.5-1.7c1.5,0.1,1.1,1.2,1.2,2c0.1,1-0.1,1.7-1.3,1.7
		C701.5,26.7,701.7,25.7,701.7,24.7z"/>
	<path class="st30" d="M710.3,24.8c0,1,0.1,1.8-1.3,1.8c-1.3,0-1.3-0.8-1.3-1.7c0-0.9-0.2-1.9,1.3-1.9
		C710.3,23,710.3,23.8,710.3,24.8z"/>
	<path class="st29" d="M716.2,24.8c0.1,1.1-0.1,1.8-1.4,1.7c-1.5-0.1-1.2-1.1-1.2-2c-0.1-1,0.1-1.7,1.3-1.7
		C716.3,23,716.2,23.9,716.2,24.8z"/>
	<path class="st25" d="M722.1,24.9c0.1,1-0.1,1.7-1.3,1.7c-1.5,0-1.3-1-1.3-1.9c0-1.1,0.1-1.8,1.5-1.7
		C722.5,23,722.1,24.1,722.1,24.9z"/>
	<path class="st30" d="M230.4,28.3c0.1,1-0.2,1.8-1.4,1.7c-1.5,0-1.2-1.1-1.2-2c-0.1-1,0.1-1.7,1.3-1.7
		C230.4,26.4,230.4,27.3,230.4,28.3z"/>
	<path class="st23" d="M147.2,29c0,1,0.2,1.9-1.3,2c-1.3,0-1.5-0.7-1.5-1.7s-0.1-1.8,1.3-1.9C147.1,27.2,147.3,27.9,147.2,29z"/>
	<path class="st22" d="M224.4,28.7c0,0.6,0,1.4-1.2,1.5c-1.4,0-1.4-0.8-1.4-1.8s-0.1-1.9,1.3-1.8C224.6,26.5,224.4,27.5,224.4,28.7z
		"/>
	<path class="st25" d="M218.5,28.2c0,1,0.1,1.9-1.3,1.9c-1.5,0-1.3-0.9-1.3-1.9c0-0.8-0.2-1.7,1.2-1.8
		C218.4,26.5,218.6,27.2,218.5,28.2z"/>
	<path class="st29" d="M212.5,28.3c0,1,0.1,1.8-1.2,1.9c-1.4,0.1-1.4-0.8-1.4-1.8c0-0.9-0.2-1.9,1.3-1.9
		C212.7,26.6,212.5,27.6,212.5,28.3z"/>
	<path class="st29" d="M644.9,25.6c0.1,0.8-0.1,1.6-1.4,1.5c-1.4,0-1.2-1-1.3-1.9c0-1,0.1-1.8,1.4-1.8
		C645.1,23.5,644.8,24.5,644.9,25.6z"/>
	<path class="st30" d="M490.3,26.7c0,0.7,0,1.5-1.4,1.5c-1.3,0-1.3-0.8-1.3-1.7s-0.2-1.9,1.2-1.9C490.3,24.6,490.3,25.5,490.3,26.7z
		"/>
	<path class="st31" d="M677.9,25.2c0-1.1-0.2-2,1.3-2c1.4,0,1.3,0.9,1.3,1.9c0,0.9,0.1,1.7-1.2,1.7C678,26.9,677.8,26.2,677.9,25.2z
		"/>
	<path class="st29" d="M656.7,25.2c0,0.9,0.2,1.7-1.2,1.8c-1.4,0-1.5-0.8-1.4-1.8c0-1-0.1-1.9,1.3-1.9
		C657,23.4,656.7,24.4,656.7,25.2z"/>
	<path class="st32" d="M650.8,25.1c0.1,1.1,0.2,1.9-1.3,1.9s-1.2-1-1.3-1.9c0-0.9,0-1.7,1.3-1.7C650.9,23.4,650.9,24.2,650.8,25.1z"
		/>
	<path class="st29" d="M123.4,29.3c0.2,1.1,0,1.8-1.2,1.8c-1.5,0.1-1.4-0.9-1.5-1.9c0-1,0.1-1.7,1.3-1.7
		C123.5,27.4,123.5,28.3,123.4,29.3z"/>
	<path class="st29" d="M668.6,24.7c0.1,1.5,0,2.3-1.2,2.3c-1.7,0-1.2-1.2-1.3-2.1c-0.2-1,0.2-1.6,1.4-1.5
		C669,23.4,668.6,24.4,668.6,24.7z"/>
	<path class="st24" d="M239.6,28.2c0-1-0.1-1.9,1.3-1.9s1.3,1,1.3,1.9s0.1,1.7-1.2,1.7C239.6,30,239.5,29.2,239.6,28.2z"/>
	<path class="st28" d="M159.1,29c0.1,1,0,1.8-1.3,1.8c-1.4,0-1.4-0.8-1.4-1.8s0.1-1.8,1.4-1.8C159.1,27.2,159.2,27.9,159.1,29z"/>
	<path class="st25" d="M233.7,28c-0.1-1,0.1-1.7,1.4-1.7c1.5,0.1,1.2,1.1,1.2,2c0.1,1-0.2,1.6-1.3,1.6C233.5,30,233.7,29,233.7,28z"
		/>
	<path class="st28" d="M465,26.6c-0.1-1.1,0-1.9,1.3-1.9c1.6,0,1.2,1.2,1.3,2.1c0.1,1.1-0.2,1.6-1.3,1.6
		C464.8,28.4,464.9,27.5,465,26.6z"/>
	<path class="st27" d="M461.6,26.6c0.1,1,0.1,1.9-1.3,1.9c-1.4,0-1.3-0.8-1.3-1.8s-0.1-1.8,1.3-1.9
		C461.7,24.8,461.7,25.6,461.6,26.6z"/>
	<path class="st11" d="M686.5,25.1c0.2,1.1-0.2,1.7-1.4,1.7c-1.4,0-1.1-1-1.2-1.8c0-0.9-0.2-1.9,1.3-1.9
		C686.7,23.2,686.5,24.1,686.5,25.1z"/>
	<path class="st21" d="M117.5,29.8c0,0.6,0,1.3-1.3,1.3c-1.5,0-1.5-0.8-1.5-1.9s0.2-1.7,1.5-1.7C117.7,27.6,117.4,28.6,117.5,29.8z"
		/>
	<path class="st21" d="M16.4,30.3c0.1,1.1,0,1.9-1.3,1.8c-1.5,0-1.2-1.1-1.2-1.9c-0.1-1,0.1-1.6,1.3-1.6
		C16.7,28.5,16.2,29.7,16.4,30.3z"/>
	<path class="st32" d="M553.1,26c0-0.9-0.1-1.8,1.3-1.8c1.3,0,1.2,0.9,1.2,1.7c0,0.9,0.3,1.9-1.2,1.9
		C552.9,27.8,553.1,26.9,553.1,26z"/>
	<path class="st33" d="M632.9,25.2c0.1,1.1,0.1,1.9-1.3,2c-1.3,0-1.3-0.8-1.2-1.7c0-0.9-0.3-1.9,1.2-1.9
		C632.9,23.5,633.1,24.3,632.9,25.2z"/>
	<path class="st28" d="M603.2,25.5c0,0.9,0.3,1.9-1.2,1.9s-1.3-0.9-1.3-1.8c0-1-0.1-1.9,1.3-1.8C603.3,23.8,603.2,24.7,603.2,25.5z"
		/>
	<path class="st28" d="M494,28.3c-0.1-0.1-0.3-0.2-0.3-0.2c-0.1-1.1-0.6-2.2,0.2-3.2c0.4-0.4,1.3-0.4,1.7-0.1c1,1,0.4,2.2,0.3,3.3
		C495.4,28.7,494.7,28.3,494,28.3z"/>
	<path class="st32" d="M485.3,26.5c0,0.8,0.2,1.7-1.2,1.8c-1.5,0-1.3-0.9-1.3-1.8s-0.2-1.9,1.3-1.9S485.3,25.6,485.3,26.5z"/>
	<path class="st27" d="M549.6,26c0,0.9,0.2,1.9-1.3,1.9c-1.3,0-1.2-0.9-1.2-1.8s-0.2-1.9,1.3-1.9C549.8,24.2,549.6,25.1,549.6,26z"
		/>
	<path class="st24" d="M531.8,26.1c0,1,0.1,1.9-1.3,1.9c-1.3,0-1.3-0.8-1.3-1.7c0-0.9-0.2-1.9,1.2-1.9
		C531.8,24.3,531.9,25.2,531.8,26.1z"/>
	<path class="st34" d="M612.6,25.3c-0.1-1,0.1-1.6,1.3-1.6c1.5,0,1.2,1.1,1.2,1.9c0,0.9,0,1.7-1.2,1.7
		C612.2,27.4,612.7,26.2,612.6,25.3z"/>
	<path class="st32" d="M609.1,25.9c0.1,0.8-0.1,1.5-1.4,1.5c-1.5,0-1.1-1.2-1.2-2c-0.1-0.9,0-1.6,1.3-1.6
		C609.4,23.8,609.1,24.8,609.1,25.9z"/>
	<path class="st24" d="M591.3,26.2c0.1,0.8-0.2,1.4-1.3,1.4c-1.5,0-1.2-1-1.3-1.9c-0.1-1,0-1.7,1.3-1.7
		C591.6,23.8,591.2,25,591.3,26.2z"/>
	<path class="st28" d="M283.2,27c0,0.7,0,1.3,0,2c0.1,0.9-0.2,1.3-1.2,1.4c-1,0-1.4-0.5-1.4-1.4c0-0.6,0.1-1.3,0.1-1.9
		C281.6,26.6,282.4,26.6,283.2,27z"/>
	<path class="st27" d="M692.5,25.6c0.1,0.6-0.2,1.1-1.4,1.1c-1.4,0-1.2-0.9-1.2-1.7c0-1-0.2-1.9,1.3-1.9
		C692.7,23.2,692.4,24.3,692.5,25.6z"/>
	<path class="st11" d="M277.2,30.1c-1.2,0.3-2.6,0.8-2.5-1.4c0-0.6-0.3-1.4,0.5-1.7c0.7-0.3,1.5-0.4,2.1,0.4
		C277.5,28.3,277.7,29.3,277.2,30.1z"/>
	<path class="st35" d="M295.2,29.8c-0.7,0.6-1.7,0.7-2.1,0.2c-0.8-1-0.4-2.2-0.1-3.4c0.8,0,1.6-0.2,2.3,0.4
		C295.5,27.9,295.4,28.9,295.2,29.8L295.2,29.8z"/>
	<path class="st28" d="M253.6,28.9c0.1,0.9,0,1.7-1.2,1.7c-1.3,0-1.3-0.8-1.3-1.7c0-0.9-0.2-1.9,1.2-1.9
		C253.9,27,253.5,28.1,253.6,28.9z"/>
	<path class="st28" d="M259.5,28.8c0,0.9,0.2,1.7-1.2,1.8c-1.7,0-1.2-1.2-1.3-2.1c-0.1-0.9,0-1.5,1.2-1.6
		C259.6,26.9,259.5,27.9,259.5,28.8z"/>
	<path class="st24" d="M262.9,28.7c0-1-0.1-1.8,1.3-1.8c1.3,0,1.2,0.9,1.2,1.7c0,0.9,0.2,1.9-1.2,1.9
		C262.8,30.6,262.9,29.7,262.9,28.7z"/>
	<path class="st11" d="M271.4,28.5c0,1,0.2,1.9-1.2,2c-1.4,0-1.3-0.9-1.3-1.9s-0.1-1.8,1.3-1.8C271.5,26.9,271.4,27.7,271.4,28.5z"
		/>
	<path class="st28" d="M79.2,29.7c0-0.8-0.2-1.7,1.2-1.8c1.7,0,1.2,1.2,1.3,2c0.1,1-0.2,1.6-1.4,1.6C78.9,31.4,79.3,30.4,79.2,29.7z
		"/>
	<path class="st28" d="M85.2,29.5c-0.1-1,0-1.7,1.3-1.6c1.7,0,1,1.3,1.2,2.2c0.2,1-0.3,1.4-1.3,1.4C84.8,31.4,85.3,30.3,85.2,29.5z"
		/>
	<path class="st28" d="M97,29.6c0-1-0.2-1.9,1.3-1.9s1.2,1,1.2,1.9s0,1.7-1.2,1.7C96.9,31.4,97,30.4,97,29.6z"/>
	<path class="st27" d="M105.5,29.3c0.1,1.1,0.1,1.9-1.3,1.9c-1.5,0-1.2-1.1-1.2-1.9c-0.1-0.9,0-1.7,1.3-1.7
		C105.6,27.7,105.7,28.5,105.5,29.3z"/>
	<path class="st27" d="M111.5,29.5c0.1,1,0,1.7-1.2,1.7c-1.5,0-1.3-0.9-1.3-1.9c0-0.9-0.1-1.7,1.3-1.7
		C111.6,27.6,111.5,28.5,111.5,29.5z"/>
	<path class="st24" d="M40.1,30c0,1,0.2,1.9-1.3,1.8c-1.3,0-1.2-0.9-1.2-1.7c0-1-0.1-1.9,1.3-1.9C40.2,28.3,40.1,29.2,40.1,30z"/>
	<path class="st28" d="M46,30.4c0,0.6,0.2,1.5-1.3,1.5c-1.3,0-1.2-0.9-1.2-1.7c0-1-0.1-1.9,1.3-1.9C46.2,28.3,46,29.2,46,30.4z"/>
	<path class="st35" d="M52,29.8c0,1.1,0.2,2.1-1.3,2c-1.3,0-1.2-0.9-1.2-1.7c0-0.9-0.2-1.9,1.3-1.9C52.2,28.2,52,29.1,52,29.8z"/>
	<path class="st27" d="M57.9,29.6c0,1.2,0.2,2.2-1.3,2.2c-1.3,0-1.2-1-1.2-1.8c0-0.9-0.2-1.9,1.3-1.8C58.2,28.2,57.9,29.1,57.9,29.6
		z"/>
	<path class="st21" d="M63.9,30c0,0.9,0.2,1.7-1.2,1.7c-1.5,0-1.2-1-1.3-1.9c0-0.9-0.1-1.7,1.2-1.7C64.1,28.1,63.8,29.1,63.9,30z"/>
	<path class="st24" d="M69.8,29.9c0.1,1,0,1.7-1.2,1.7c-1.5,0-1.2-1-1.3-1.9c-0.1-1,0-1.7,1.3-1.7C70.1,28,69.7,29.1,69.8,29.9z"/>
	<path class="st21" d="M25.7,30.1c-0.1-1,0-1.7,1.3-1.7c1.5,0,1.2,1,1.2,1.9s0,1.7-1.3,1.7C25.5,32,25.8,31,25.7,30.1z"/>
	<path class="st28" d="M597.2,25.5c0,1,0.2,1.9-1.3,1.9s-1.3-1-1.3-1.9s0-1.7,1.2-1.7C597.3,23.8,597.3,24.7,597.2,25.5z"/>
	<path class="st27" d="M585.3,26c0.1,0.9,0,1.6-1.3,1.6s-1.2-0.9-1.2-1.7c0-0.9-0.2-1.9,1.3-1.9C585.6,23.9,585.2,25,585.3,26z"/>
	<path class="st35" d="M621.1,25.7c0.1,0.9-0.1,1.7-1.4,1.6c-1.5-0.1-1-1.2-1.2-2c-0.1-1,0-1.6,1.3-1.6
		C621.3,23.7,621,24.7,621.1,25.7z"/>
	<path class="st28" d="M627,25.3c0,1,0.2,1.9-1.3,2s-1.3-1-1.3-1.9c0-0.8-0.2-1.7,1.2-1.8C626.9,23.6,627.1,24.3,627,25.3z"/>
	<path class="st11" d="M537.8,26.1c0,1,0.1,1.8-1.3,1.8c-1.3,0-1.2-0.8-1.2-1.7s-0.3-1.9,1.2-1.9C537.9,24.3,537.8,25.2,537.8,26.1z
		"/>
	<path class="st24" d="M543.7,26c0.2,1.2,0.1,1.9-1.2,1.9c-1.5,0-1.2-1-1.3-1.9c-0.1-1,0-1.8,1.4-1.7
		C544.1,24.3,543.5,25.4,543.7,26z"/>
	<path class="st35" d="M559.1,25.8c-0.1-0.8-0.1-1.7,1.3-1.6c1.3,0,1.2,0.9,1.2,1.8s0.2,1.9-1.3,1.9
		C558.8,27.8,559.1,26.8,559.1,25.8z"/>
	<path class="st24" d="M565,25.8c-0.1-1,0-1.7,1.3-1.6c1.5,0,1.1,1.1,1.2,1.9c0.1,0.9,0,1.7-1.3,1.7C564.7,27.7,565.1,26.6,565,25.8
		z"/>
	<path class="st28" d="M573.4,26c0.1,1,0,1.7-1.3,1.7c-1.5,0-1.1-1.2-1.2-2c-0.1-0.9,0-1.7,1.3-1.7C573.7,24.1,573.5,25,573.4,26z"
		/>
	<path class="st28" d="M473.4,25c0,0.3,0,0.6,0.1,1c0.1,2.5,0.1,2.5-2.4,2.2l0,0c-0.5-1-0.4-2.1-0.1-3.1
		C471.8,24.6,472.6,24.6,473.4,25z"/>
	<path class="st28" d="M674.6,25.3c0.1,0.8,0,1.5-1.2,1.6c-1.5,0.1-1.3-0.9-1.3-1.8s-0.2-1.9,1.3-1.8
		C674.9,23.3,674.5,24.3,674.6,25.3z"/>
	<path class="st36" d="M502.1,26.4c0,1,0.2,1.9-1.3,1.9c-1.3,0-1.2-0.9-1.2-1.8c0-1-0.1-1.9,1.3-1.9C502.3,24.6,502,25.5,502.1,26.4
		z"/>
	<path class="st32" d="M508,26c0,1.3,0.1,2.2-1.3,2.2c-1.3,0-1.2-0.9-1.2-1.8c0-1-0.1-1.9,1.3-1.8C508.3,24.5,508,25.5,508,26z"/>
	<path class="st27" d="M513.9,26.3c0,0.8,0.3,1.7-1.2,1.8c-1.5,0-1.3-0.9-1.3-1.8c0-1-0.1-1.8,1.3-1.8
		C514.2,24.6,513.9,25.5,513.9,26.3z"/>
	<path class="st32" d="M519.9,26.8c0,0.5,0,1.3-1.3,1.3c-1.5,0-1.2-1-1.3-1.9s0-1.7,1.3-1.7C520.2,24.5,519.8,25.5,519.9,26.8z"/>
	<path class="st35" d="M662.7,25.2c0.1,1,0,1.8-1.4,1.7c-1.4,0-1.2-0.9-1.2-1.7c0-0.9-0.3-1.9,1.2-1.9
		C662.8,23.4,662.7,24.3,662.7,25.2z"/>
	<path class="st24" d="M638.9,25.2c0,1,0.2,2-1.3,2c-1.3,0-1.4-0.7-1.3-1.6c0.1-0.8-0.4-1.9,1.2-2C638.9,23.5,639,24.2,638.9,25.2z"
		/>
	<path class="st35" d="M286.8,30.1c-0.1-1.2-0.6-2.5,0.4-3.5c0.6,0.1,1.4-0.1,1.9,0.4c0,0.3,0,0.7,0,1
		C289.6,30,288.7,30.6,286.8,30.1z"/>
	<path class="st33" d="M579.4,25.7c0,1,0.2,1.9-1.3,1.9s-1.2-1-1.2-1.9s-0.1-1.7,1.2-1.7S579.5,24.8,579.4,25.7z"/>
	<path class="st32" d="M93.6,29.6c0,0.8,0.2,1.7-1.2,1.7c-1.5,0-1.3-1-1.3-1.8s-0.2-1.7,1.2-1.8C93.8,27.7,93.6,28.7,93.6,29.6z"/>
	<path class="st28" d="M75.7,29.5c0.2,1.3,0.1,2.1-1.2,2.1s-1.3-0.8-1.2-1.7c0-0.9-0.2-1.9,1.3-1.9S75.6,29.1,75.7,29.5z"/>
	<path class="st23" d="M22.2,30.2c0,1,0.1,1.9-1.3,1.8c-1.3,0-1.1-1-1.2-1.8c0-1-0.1-1.8,1.3-1.8C22.5,28.5,22.2,29.5,22.2,30.2z"/>
	<path class="st37" d="M525.9,26.2c0,0.9,0.2,1.8-1.2,1.8s-1.3-0.9-1.3-1.8c0-1,0-1.8,1.4-1.7C526.2,24.5,525.8,25.5,525.9,26.2z"/>
	<path class="st34" d="M34.2,30.2c0,0.9,0.1,1.7-1.2,1.7c-1.5,0-1.3-1-1.3-1.9c0-1,0.1-1.7,1.3-1.6C34.4,28.4,34.1,29.4,34.2,30.2z"
		/>
	<path class="st38" d="M354.7,27c0-0.2-0.1-0.5-0.1-0.8c1,0.1,2,0,2.9,0.8c0.1,1.3,0.1,2.5-1.7,2.1C354.3,28.9,355.6,27.5,354.7,27z
		"/>
	<ellipse class="st39" cx="486.7" cy="20.2" rx="0.2" ry="10"/>
	<path class="st40" d="M346,26.6c0,0.9,0.1,1.8,0.1,2.7c-1-0.4-2.7,1.1-2.9-1.2C344.3,27.8,345.7,28.2,346,26.6z"/>
	<path class="st41" d="M235.7,32.1c-1.8,0.7-3.1-1.2-4.9-0.8C232.6,30.4,234.1,31.6,235.7,32.1z"/>
	<path class="st7" d="M479,24.5c1.3,1.1,0.8,2.4,0.4,3.7l-0.1-0.1C478.6,27,478.6,25.8,479,24.5L479,24.5z"/>
	<path class="st7" d="M471,25c0,1,0,2.1,0.1,3.1C470.3,27.1,470.4,26.1,471,25z"/>
	<path class="st3" d="M384.4,28.9c0.1-1,0.1-2.1-0.1-3.1C385.2,26.9,385.1,27.9,384.4,28.9z"/>
	<path class="st3" d="M405.5,25.8c0,1,0.1,2.1,0.2,3.1C404.7,27.9,404.9,26.9,405.5,25.8z"/>
	<path class="st3" d="M387.7,25.8c0,1-0.1,2.1-0.2,3.1C387.1,27.9,386.9,26.8,387.7,25.8z"/>
	<path class="st8" d="M277.2,30.1c0-0.9,0.1-1.8,0.1-2.7C277.9,28.3,278.1,29.3,277.2,30.1z"/>
	<path class="st2" d="M334.1,26.6c0,0.9,0,1.8,0,2.8C333.4,28.5,333.4,27.5,334.1,26.6z"/>
	<path class="st3" d="M375.7,26.2c0,0.9,0,1.9,0,2.8C375.1,28.1,375.1,27.1,375.7,26.2z"/>
	<path class="st2" d="M295.2,29.8c0-0.9,0-1.9,0-2.8C295.8,27.9,295.8,28.9,295.2,29.8z"/>
	<path class="st42" d="M721.8,27.8c-0.1,0.6-0.5,0.7-1.1,0.7s-0.4-0.4-0.5-0.7C720.7,27.9,721.3,28.1,721.8,27.8z"/>
	<path class="st3" d="M405.6,28.9c0.8,0.2,1.5,0.2,2.3,0c-0.6,0.9-1.6,0.3-2.4,0.4l0,0C405.5,29.2,405.6,29.1,405.6,28.9z"/>
	<path class="st6" d="M435.3,28.5c0.8,0.3,1.5,0.3,2.3,0.1C436.9,29.2,436.1,29.3,435.3,28.5z"/>
	<path class="st2" d="M494,28.3c0.6,0,1.3-0.1,1.9-0.2C495.4,28.9,494.7,28.7,494,28.3z"/>
	<path class="st43" d="M621.4,28.2c0.1,0.2,0.3,0.5,0.4,0.8c0,0.2,0,0.3,0,0.4c-0.5,0.1-1,0.2-1.2-0.5
		C621,28.8,620.9,28.1,621.4,28.2z"/>
	<path class="st20" d="M666.7,28.9c-0.5-0.2-1-0.4-1.6-0.3C665.8,28,666.4,27.7,666.7,28.9z"/>
	<path class="st44" d="M619.1,29.3c0-0.2,0-0.5,0-0.8c0.4,0.1,0.7,0.2,1.1,0.4C619.9,29.5,619.5,29.5,619.1,29.3z"/>
	<path class="st4" d="M364.2,29.5c0.7,0,1.3-0.1,2-0.1C365.6,30.1,364.9,29.9,364.2,29.5z"/>
	<path class="st14" d="M227.7,31.3c-0.1,0.5-0.4,0.8-0.9,0.8c-1.8,0-3.7,0-5.4-0.2C223.5,32,225.6,31.6,227.7,31.3L227.7,31.3z"/>
	<path class="st28" d="M478.9,24.6c0.8,1.1,0.4,2.3,0.4,3.5c-1,0-2.3,0.8-2.4-1.2C476.8,25.4,477.1,24.4,478.9,24.6z"/>
</g>
</svg>
