<svg viewBox="0 0 605 31">
<style type="text/css">
	.st0{fill:#253B86;}
	.st1{fill:#263576;}
	.st2{fill:#243776;}
	.st3{fill:#273478;}
	.st4{fill:#2C408B;}
	.st5{fill:#283C8B;}
	.st6{fill:#2D4493;}
	.st7{fill:#2B3882;}
	.st8{fill:#2A387D;}
	.st9{fill:#293A7F;}
	.st10{fill:#26367A;}
	.st11{fill:#2D3C86;}
	.st12{fill:#32387E;}
	.st13{fill:#2A3B82;}
	.st14{fill:#373C6F;}
	.st15{fill:#263472;}
	.st16{fill:#2A3E8B;}
	.st17{fill:#2C3D89;}
	.st18{fill:#24387D;}
	.st19{fill:#304A98;}
	.st20{fill:#273373;}
	.st21{fill:#2B3D8A;}
	.st22{fill:#26367B;}
	.st23{fill:#2A3B87;}
	.st24{fill:#2B3378;}
	.st25{fill:#24387B;}
	.st26{fill:#272F60;}
	.st27{fill:#2A346C;}
	.st28{fill:#FEFEFE;}
	.st29{fill:#263677;}
	.st30{fill:#30418D;}
	.st31{fill:#24346E;}
	.st32{fill:#28306E;}
	.st33{fill:#2C2F65;}
	.st34{fill:#303467;}
	.st35{fill:#293E8A;}
	.st36{fill:#263263;}
	.st37{fill:#3B3967;}
	.st38{fill:#313256;}
	.st39{fill:#303868;}
	.st40{fill:#2D2E61;}
	.st41{fill:#263577;}
	.st42{fill:#2A2E63;}
	.st43{fill:#2D2E5E;}
	.st44{fill:#394C92;}
	.st45{fill:#6E92CA;}
	.st46{fill:#2C2E5C;}
	.st47{fill:#2F3C8C;}
	.st48{fill:#283169;}
	.st49{fill:#343768;}
	.st50{fill:#303781;}
	.st51{fill:#454984;}
	.st52{fill:#293063;}
	.st53{fill:#353B80;}
	.st54{fill:#415297;}
	.st55{fill:#334795;}
	.st56{fill:#344A94;}
	.st57{fill:#293779;}
	.st58{fill:#2D408F;}
	.st59{fill:#AD9DC2;}
	.st60{fill:#2A2E66;}
	.st61{fill:#4C5190;}
	.st62{fill:#87AFDE;}
	.st63{fill:#3C457F;}
	.st64{fill:#283066;}
	.st65{fill:#2D2D79;}
	.st66{fill:#303A7C;}
	.st67{fill:#2C366E;}
	.st68{fill:#313059;}
	.st69{fill:#284090;}
	.st70{fill:#2F3771;}
	.st71{fill:#274292;}
	.st72{fill:#2B2C64;}
	.st73{fill:#263471;}
	.st74{fill:#2B3067;}
	.st75{fill:#272D5F;}
	.st76{fill:#6C91CB;}
	.st77{fill:#293D8B;}
	.st78{fill:#203C89;}
	.st79{fill:#43508D;}
	.st80{fill:#28356E;}
	.st81{fill:#2B306A;}
	.st82{fill:#32335F;}
	.st83{fill:#3C4E99;}
	.st84{fill:#28347C;}
	.st85{fill:#283472;}
	.st86{fill:#283374;}
	.st87{fill:#283272;}
	.st88{fill:#25387F;}
	.st89{fill:#3C3C79;}
	.st90{fill:#2C316D;}
	.st91{fill:#292C4C;}
	.st92{fill:#29337E;}
	.st93{fill:#2A2F66;}
	.st94{fill:#2C2F5A;}
	.st95{fill:#243982;}
	.st96{fill:#343365;}
	.st97{fill:#283481;}
	.st98{fill:#272754;}
	.st99{fill:#474D8C;}
	.st100{fill:#51518A;}
	.st101{fill:#2A3475;}
	.st102{fill:#292F6C;}
	.st103{fill:#293068;}
	.st104{fill:#2F2F62;}
	.st105{fill:#272C62;}
	.st106{fill:#282C63;}
	.st107{fill:#282F67;}
	.st108{fill:#273162;}
	.st109{fill:#283276;}
	.st110{fill:#2A327F;}
	.st111{fill:#454C90;}
	.st112{fill:#293175;}
	.st113{fill:#2B2F67;}
	.st114{fill:#284393;}
	.st115{fill:#4E4E8D;}
	.st116{fill:#525FA5;}
	.st117{fill:#C4BAD9;}
	.st118{fill:#AC9FC6;}
	.st119{fill:#28347D;}
	.st120{fill:#2B3676;}
	.st121{fill:#283379;}
	.st122{fill:#404E98;}
	.st123{fill:#2E3C7F;}
	.st124{fill:#5F74B4;}
	.st125{fill:#283373;}
	.st126{fill:#27387D;}
	.st127{fill:#273370;}
	.st128{fill:#344C9A;}
	.st129{fill:#292C61;}
	.st130{fill:#2C4394;}
	.st131{fill:#2B3B86;}
	.st132{fill:#C0B4D0;}
</style>
<g>
	<path class="st0" d="M369.7,13.3c0.5-0.8,1-1.4,1.7-2.4c0.4-0.1,1-0.4,1.8-0.8c0.5-1.1,1-2.2,1.7-3.6c0.4,0,1,0.1,1.5,0
		c0.4-0.1,0.9-0.4,1.3-0.6c1.7,0.6,2.8,1.7,3.2,3.7c-0.5,0.8-1,1.8-1.9,3.2c0.1,0.6,0.4,1.8,0.6,2.8c1.1,0.4,2,0.8,3.1,1
		c0,0.4,0,0.6,0,0.9c0,0.4,0,0.8,0,1.3c0,0.3,0,0.4,0,0.6c-0.4,0-0.8,0-1,0c-0.1-0.5-0.3-0.9-0.3-1c-0.9-0.4-1.7-0.6-2-0.8
		c-1,0.3-1.9,0.4-2.7,0.5c-0.1-0.1-0.1-0.4-0.3-0.8c-0.4,0.6-0.6,1-1,1.7c-0.8-1-1.5-0.8-2.3-0.8c-0.3,0-0.4,0-0.6,0
		c-0.8,0-1.7,0-2.4,0c-0.6-0.3-1.3-0.4-1.8-0.6c-0.1-0.5-0.3-1-0.4-1.5C369.6,15.4,369.6,15.4,369.7,13.3z"/>
	<path class="st1" d="M90.1,19.5c-0.5,1.3-1.5,0.5-2.3,0.5c-0.4,0-0.9-0.5-1.3-0.4c-4.2,0.4-8.4-1-12.6-0.6c-0.1,0.4-0.3,1-0.6,1.1
		c-1,0.4-2,0.6-2.9,0.8c-1-1-1.8-1.8-2.6-2.6c-3.6-0.1-7.2,0.4-10.7-0.9c0-0.3,0-0.5,0-0.8c0.3-0.1,0.4-0.3,0.6-0.1
		c3.7,0.3,7.2-0.5,10.6-1.8c1.8-0.6,3.4,0.1,5.1,0.6c0.4,0.1,0.6,0.4,1,0.4c1.9,0.1,3.7,0.3,5.6,0.5c3.4,0.6,6.9,0.5,10.5,0.8
		c0.3,0.4,0.5,0.8,0.8,1.1c-0.4,0-0.8,0-1.3,0C90.1,18.7,90.1,19.1,90.1,19.5z"/>
	<path class="st2" d="M369.7,13.3c-0.1,2-0.1,2-2.3,2.7c0.1,0.5,0.3,1,0.4,1.5c-0.4,0-0.8,0-1.3,0c-1.4,0-2.8,0-4.1,0
		c-0.3,0-0.5,0.4-0.8,0.6c0,0.1-0.1,0.4-0.1,0.5c-0.9-0.6-1.9-0.5-2.9-0.5c-0.3-0.4-0.6-0.8-1-1.1c-0.3,0.5-0.5,1.1-0.9,1.8
		c-1.4-1.7-3.3-2.3-5.2-1.8c-2.8,0.6-2.9,0.8-5.2-0.1c-1.7-0.6-3.4-0.5-5.5-0.9c0.5-0.1,0.9-0.3,1.4-0.4c-0.1-0.1-0.3-0.3-0.4-0.4
		c0.9,0,1.8,0,2.7,0c0.8,0,1.7,0.1,2.4,0c0.6-0.1,1.3-0.4,1.9-0.6c2.4-0.8,2.4-0.6,5.2,0c0.6,0.1,1.3-0.3,2.3-0.4
		c0.3,0,1.1,0.6,1.7,0.4c2.7-0.9,5.5-0.4,8.3-0.6c0-0.3,0.1-0.6,0.3-1.1c0.3,0.1,0.5,0.3,0.8,0.5c0.3-0.1,0.5-0.4,0.9-0.5
		C368.8,13,369.3,13.1,369.7,13.3z"/>
	<path class="st3" d="M13.5,20.7c-0.3-0.1-0.5-0.3-0.9-0.4c-1.3,1.3-2.6-0.1-4-0.1c-0.3,0-0.4,0-0.6,0c-0.3-0.3-0.6-0.5-0.6-0.8
		c0.1-0.8,0.4-1.4,0.8-2.3c1.8,0,3.6,0,5.4,0c1,0,2,0,3.1,0s2-0.3,2.9-0.3c1,0,1.9,0.3,2.9,0.3c1.1,0,2.3,0,3.3,0s2,0,3.1,0
		s2.3-0.3,3.4,0.5c0.6,0.4,1.9,0.4,2.7,0c2.9-1.1,5.7-0.6,8.6,0.3c-0.4,0.4-0.6,0.6-0.9,0.9c-3.1-0.1-5.7,1.9-8.9,1.3
		c-0.4,0-0.8,0-1.1,0c0.3-0.6,0.4-1.1,0.8-1.9c-1.1,0.6-2,1-2.8,1.4c-0.5-0.3-1.3,0-1.5-0.3c-0.8-0.6-1.5-0.4-2.3-0.4
		c-0.6,0-1.3,0.4-1.4,0.4c-2-0.5-3.7-0.9-5.2-1.3c-0.9,0.8-1.7,1.5-2.3,2c-0.9-0.3-1.7-0.5-2.4-0.6c-0.3,0-0.5,0.4-0.8,0.6
		C14.2,20.2,13.6,19.7,13.5,20.7z"/>
	<path class="st4" d="M470.9,15.8c2.7,0,5.5,0.1,8.2,0c1.8,0,3.4-0.4,5.2-0.5c0.3,0,0.5,0.4,0.8,0.6c0.3,1.1,1.1,0.4,1.7,0.6
		c0.6,0.3,1.7-0.5,2,0.6c0,0.9-0.6,0.5-1,0.6s-0.8,0.4-1.1,0.5c-0.1-0.1-0.3-0.3-0.4-0.4c-1.3,0.6-2.6,1.4-4,2.2
		c0,0-0.3-0.1-0.5-0.4c-0.1,0.1-0.4,0.3-0.8,0.6c-0.9,0-1.9-1.7-2.8-0.1c-3.3-1.5-6.6-1.4-10.2-0.9c-1-0.4-2.3-1-3.8-0.9
		c-0.4,0-1,0.3-1.1-0.6c0.5-0.4,1-0.8,1.8-1.3c0.8,0.1,1.9,0.8,2.4,0.4c1.1-1,1.7,1.1,2.8,0.5C470.2,16.7,470.5,16.3,470.9,15.8z"/>
	<path class="st5" d="M14.8,20.1c0.3-0.3,0.5-0.6,0.8-0.6c0.8,0.1,1.4,0.4,2.4,0.6c0.6-0.6,1.4-1.3,2.3-2c1.5,0.4,3.2,0.8,5.2,1.3
		c0.1,0,0.8-0.4,1.4-0.4c0.8,0,1.5-0.3,2.3,0.4c0.3,0.3,1,0,1.5,0.3c0.8-0.4,1.5-0.8,2.8-1.4c-0.4,0.9-0.5,1.3-0.8,1.9
		c0.4,0,0.8,0,1.1,0c-0.6,1-1.5,1.3-2.7,1.3c-0.9,0-1.8,0-2.7,0c-3.1,0-6.1-0.3-9.3,0.9c-0.4,0.9-0.9,1.9-1.4,3.1
		c-1-0.5-1.9-1-2.8-1.5c0-0.6,0-1.1,0-1.8C14.8,21.3,14.8,20.7,14.8,20.1z"/>
	<path class="st6" d="M372.8,18.2c0.8,0,1.7-0.3,2.3,0.8c0.4-0.5,0.6-1,1-1.7c0.1,0.4,0.3,0.6,0.3,0.8c0.1,1.3,1.4,0.1,1.8,0.8
		c-0.3,0.5-0.4,1-0.6,1.7c0.6,0,1,0,1.4,0c-0.3,1.1-1.1,0.4-1.7,0.6c-0.6,0.3-1.7-0.5-2,0.6c-0.5-0.1-1.1-0.3-1.9-0.5
		c-1.9,1.7-4.2-0.6-6.4-0.1c-0.5-0.5-0.9-0.9-1.3-1.3c-1,0-2,0-3.2,0c0.1-0.3,0.1-0.4,0.3-0.5h0.3c1.5,0,3.2,0,4.7,0
		c0.3,0,0.5-0.4,0.8-0.6c0.4,0,0.8,0,1.3,0s0.8,0,1.3,0c0,0.3,0,0.4,0,0.6c-0.3,0.1-0.4,0.1-0.6,0.3c0.9,0.1,1.8,0.9,2.4-0.3
		C372.8,19.1,372.8,18.7,372.8,18.2z"/>
	<path class="st7" d="M188.2,21.3c-0.8,0.3-1.7,0.5-2.6,0.6s-1.8,0-2.7,0c-2.3,0-4.5-0.1-6.6,0c-2.2,0.3-4.2-0.8-6.5-0.6
		c0-0.6,0-1.3,0-1.8c1,0,2,0,3.1,0c0.6,0,1.3,0,1.8,0c0,0.1,0,0.3,0,0.3c2.6,0.3,5.1,1.3,7.8,0.8c0.1,0,0.1-0.4,0.3-0.5
		c0.3,0,0.4,0,0.6,0c0.1,0.3,0.3,0.4,0.5,0.6c0.3-0.3,0.5-0.4,0.8-0.6c0.3,0,0.4,0,0.6,0c0.1,0.1,0.1,0.4,0.3,0.5
		c0.1-0.1,0.3-0.4,0.4-0.5c0.4,0,0.8,0,1.3,0c0.1,0.3,0.3,0.4,0.5,0.6C187.7,20.9,187.9,21.1,188.2,21.3z"/>
	<path class="st8" d="M90.1,19.5c0-0.4,0-0.8,0-1.3c0.5,0,0.9,0,1.3,0c0.6,0,1.3,0,1.8,0c0.6,0,1.3,0,1.8,0c0.4,0,0.8,0,1.3,0
		c0.3,0.4,0.5,0.8,0.8,1.1c0.5-0.3,0.9-0.5,1.4-0.5c1.3-0.1,2.4,0.3,3.7,0.5c1.7,0.4,3.4,0.1,5.2,0.1c0,0.9-0.8,0.5-1.3,0.6
		s-1.1-0.3-1.3,0.6c-3.2,0-6.5-0.1-9.7,0C93.3,20.7,91.8,20.1,90.1,19.5z"/>
	<path class="st9" d="M288.2,20.7c-0.8-0.3-1.4-0.5-2.2-0.6c-0.6-0.1-1.4,0-2.2,0c-0.1-0.3-0.3-0.4-0.5-0.6
		c-0.3,0.3-0.5,0.4-0.8,0.6c-0.4-0.3-0.8-0.6-1.3-0.9c0.8-0.4,1.3-0.6,1.9-0.9c1,0.9,2,0.9,3.1,0c1.1,0.1,2.3,0.3,3.4,0.5
		c0.1-0.1,0.3-0.3,0.3-0.3c1.7,0.8,3.3,0.3,4.9,0.4c0.3,0.3,0.5,0.5,0.8,0.6c0.8,0.1,1.5,0,2.3,0c-0.4,0.6-0.8,1.3-1.3,1.8
		c-0.3,0-0.4,0-0.6,0c-0.6-0.9-1.3-0.9-1.8,0c-0.8-0.1-1.7-0.3-2.4-0.4c-0.8-0.1-1.7,1.5-2.6-0.1c-0.1-0.3-0.3-0.4-0.5-0.6
		C288.7,20.2,288.5,20.5,288.2,20.7z"/>
	<path class="st10" d="M166.1,20.7c-2,0.3-4-0.8-5.9-0.8c0,0-0.1-0.3-0.3-0.5c-0.8-0.8-1.7-0.8-2.4,0c-2.7,0-5.4,0-7.9,0
		c-0.3-0.3-0.4-0.4-0.6-0.6c0-0.4,0-0.8,0-1.3c0.3,0,0.4,0,0.6,0c1.9,0.1,3.8-0.5,5.5,0.5c0.6-0.3,1.1-0.5,1.7-0.5
		c0.5,0,0.9,0.3,1.4,0.5c0-0.5,0-0.8,0-1.1c0.3,0.3,0.4,0.4,0.6,0.6c1.3,0.9,3.1,0.9,4.3,0c0.3,0.1,0.6,0.3,0.6,0.5
		c0,1,0.8,0.8,1.3,0.8c0,0.4,0,0.8,0,1.3c0.5,0,0.9,0,1.3,0C166.1,20.2,166.1,20.5,166.1,20.7z"/>
	<path class="st11" d="M558,21.9c-1.4,0-2.8,0-4.3,0c-0.6-0.4-1.3-0.8-1.8-1.3c-0.3,0-0.4,0-0.6,0c0-0.9-0.8-0.5-1.3-0.6
		c-0.1-0.1-0.1-0.4-0.3-0.5c-0.1,0.1-0.3,0.4-0.4,0.5c0,0.3,0,0.4,0,0.6c-0.3,0-0.4,0-0.6,0c-0.6-0.4-1.3-0.8-1.8-1.3
		c-0.1-0.1-0.1-0.4-0.3-0.5c-0.1,0.1-0.3,0.4-0.4,0.5c-0.6,0-1.3,0-1.8,0c-0.3-0.3-0.4-0.4-0.6-0.6c0-0.9-0.8-0.5-1.3-0.6
		c-0.3,0-0.4,0-0.6,0c0.3-0.3,0.5-0.6,0.8-0.6c1.4,0.1,2.8,0.4,4.2,0.6c0.3,0,0.4,0,0.6,0c0.3,0.3,0.5,0.5,0.8,0.6
		c0.5,0.1,1.1,0,1.8,0c2.4,0.3,4.9,0.4,7.4,0.6c0,0.3,0,0.4,0,0.6c-0.3,0.1-0.4,0.1-0.6,0.4C557.5,20.7,558.4,20.9,558,21.9z"/>
	<path class="st12" d="M470.9,15.8c-0.4,0.4-0.6,0.9-1,1.3c-1.1,0.6-1.7-1.4-2.8-0.5c-0.5,0.4-1.7-0.3-2.4-0.4
		c-0.6,0.5-1.3,0.9-1.8,1.3c-1.9-0.3-3.8-0.4-5.7-0.6c-0.4,0-0.9,0.3-1.4,0.5c-0.1-0.1-0.3-0.3-0.6-0.5c-0.1,0.4-0.3,0.8-0.4,1.3
		c-0.3,0-0.6,0-1,0c-0.1-0.1-0.4-0.1-0.6-0.3c0.3-0.3,0.4-0.5,0.5-0.8c-1.1-0.5-2.2-0.1-3.1,0.4c-1,0-2.2,0.3-3.1-0.6
		c0.3-0.3,0.5-0.5,0.8-0.6c1-0.1,1.9,0,2.9,0c2.6,0,5.1,0,7.7,0C462.9,16.3,466.9,15.4,470.9,15.8z"/>
	<path class="st13" d="M226.3,17.7c-0.3,0.3-0.5,0.5-0.8,0.6c-1.4,0-2.8,0-4.1,0c0-0.9-0.8-0.5-1.3-0.6c-0.6-0.9-1.3-0.9-1.8,0
		c-0.3,0-0.4,0-0.6,0c-0.1-0.3-0.3-0.4-0.5-0.6c-0.3,0.3-0.5,0.4-0.8,0.6c-0.3,0-0.4,0-0.6,0c-0.8,0-1.5,0-2.3,0
		c-0.3,0-0.5-0.4-0.8-0.6c0.4-1.1,1.4-0.4,2-0.6c0.5-0.3,1.5,0.5,1.7-0.6c0.4,0.1,0.6,0.4,0.6,0.4c0.9-0.1,1.5-0.4,2.2-0.4
		c1,0,1.9,0,2.7-0.6c0.1,1,0.9,0.4,1.4,0.6c0.5,0.3,1.5-0.6,1.7,0.6C225.4,16.8,225.9,17.2,226.3,17.7z M223.8,17.4
		c0-0.1,0-0.1,0-0.3c-0.3,0-0.4,0-0.6,0c0,0.1,0,0.1,0,0.3C223.3,17.4,223.6,17.4,223.8,17.4z"/>
	<path class="st14" d="M424.9,15.8c0.6-1.8,2.3-1.7,3.6-1.8c2,0,4.1-0.4,6.1,0.4c1.4,0.5,3.2,0.1,4.9,0.1c1.4,0,2.8,0.1,3.8,1.3
		c-0.8,0-1.7,0-2.4,0c-1.9,0.6-3.7-1.5-5.5,0c-1.1-0.4-2.2-0.8-3.3-1.1c-0.8,0.4-1.1,1.5-2.3,1.3c-0.9-0.1-2,0.5-2.8-0.6
		C426.5,16,425.6,15.8,424.9,15.8z"/>
	<path class="st15" d="M313.9,15.8c0.8,0,1.7,0,2.4,0c0.1,0.3,0.4,0.6,0.5,0.6c1.7-0.3,3.2,0.1,4.9-0.5c1.7-0.6,3.7-0.1,5.6-0.1
		c2.6,0,5.2,0,7.8,0c-2.2,0.6-4.3,1.5-6.6,1.3c-0.3-0.3-0.5-0.5-0.8-0.6c-0.8-0.1-1.5,0-2.3,0c-2.3,0.4-4.5,0.6-6.8,1.3
		c-0.3,0-0.4,0-0.6,0c-0.1-1-0.9-0.6-1.4-0.6C315.7,17,314.5,16.9,313.9,15.8z"/>
	<path class="st11" d="M561.6,20.7c1.4,0,2.8,0,4.3,0c0,0.8,0.6,0.5,1,0.6c0.8,0.1,1.8-0.3,2.3,0.4c0.6-0.1,1.1-0.3,1.7-0.4
		c0.3,0.1,0.4,0.1,0.5,0.3c-0.3,0.4-0.4,0.6-0.5,1c-2.3,0-4.7,0-7,0c-0.9,0-1.8,0.1-2.7,0s-1.7-0.4-2.6-0.6c0.3-0.6,0.4-1.3,0.6-1.8
		C559.9,20.6,560.7,20.7,561.6,20.7z"/>
	<path class="st16" d="M420,16.4c1.3,0,2.4,0,3.7,0c0,0.4,0,0.8,0,1.3c-0.3,0-0.4,0-0.6,0c-0.1-0.1-0.1-0.4-0.3-0.5
		c-0.1,0.1-0.3,0.4-0.4,0.5c-0.3,0-0.4,0-0.6,0c-0.1-0.3-0.3-0.4-0.5-0.6c-0.3,0.3-0.5,0.4-0.8,0.6c-0.1,0.4-0.4,0.6-0.5,0.9
		c0.1,0.3,0.4,0.6,0.5,0.9c0,0.8-0.6,0.6-1,0.6c-0.9-0.1-1.8-0.5-2.8-0.5c-0.9-0.1-1.8-0.1-2.7-0.1c-0.1,0-0.1-0.4-0.3-0.5
		c0.4,0,0.8-0.1,1.1-0.1c-0.3-0.5-0.4-0.8-0.6-1c0.5-0.1,1.1,0.3,1.3-0.6c0.3,0,0.4,0,0.6,0c0.3,0.3,0.4,0.4,0.6,0.6
		c0.8-0.5,1.5-0.6,2.3-0.6C419.5,17,419.8,16.7,420,16.4z"/>
	<path class="st17" d="M313.9,15.8c0.6,1.1,1.8,1.3,2.9,1.3c0.5,0,1.3-0.4,1.4,0.6c-1.1,0.3-0.4,1.3-0.6,1.8c-0.8,0-1.7,0-2.4,0
		c-0.1-0.1-0.1-0.4-0.3-0.5c-0.1,0.1-0.3,0.4-0.4,0.5c-0.3,0-0.4,0-0.6,0c-0.3-0.3-0.5-0.6-0.8-0.6c-1.5,0-3.2,0-4.7,0
		c0-0.3,0-0.4,0-0.6c0.8,0,1.5,0,2.3,0c0.3,0,0.5-0.4,0.8-0.6c0.3-0.3,0.4-0.4,0.6-0.6c0,0,0,0-0.1,0.1c0.1,0.1,0.3,0.4,0.4,0.5
		c0.1-0.1,0.1-0.1,0.3-0.3c-0.1-0.1-0.4-0.3-0.5-0.4C312.7,16.7,313.2,16.1,313.9,15.8z"/>
	<path class="st18" d="M127.5,19.5c-0.3,0-0.6,0-0.9,0c-0.1,0.4-0.4,0.8-0.5,1.3c-2-1.1-4.3-0.5-6.5-0.6c0.4-0.5,0.8-0.9,1.1-1.4
		c0.5,0.4,0.8,0.5,1.3,0.9c0-0.6,0-0.9,0-1.3c0.4-0.1,0.9-0.3,1.3-0.4c0.8-0.4,1.5-0.4,1.9,0.3c0.6-0.1,1.1-0.3,1.7-0.5
		c0.1,0.1,0.1,0.4,0.3,0.5c0.1-0.1,0.3-0.4,0.4-0.5c0.3,0,0.4,0,0.6,0c0.6,0.4,1.3,0.8,1.8,1.3c0.3,0,0.4,0,0.6,0c0,0.3,0,0.4,0,0.6
		c-0.6,0-1.3,0-1.8,0c-0.1-0.3-0.3-0.4-0.5-0.6C128,19.1,127.8,19.2,127.5,19.5z"/>
	<path class="st19" d="M443.9,18.2c-1.9-0.3-3.8,0.5-5.6,1c-0.8,0.3-1.5,0.1-2.3,0.3c0.1-0.4,0.4-0.8,0.6-1.3c-1.1,0-2,0-3.1,0
		c0-0.3,0-0.4,0-0.6c1.1,0.5,2.3-1.4,3.4-0.1c0.8-0.9,1.7-0.8,2.4-0.4c1,0.5,1.7-0.5,2.7-0.1c0.6,0.3,1.3,0.4,1.9,0.6
		C443.9,17.8,443.9,18.1,443.9,18.2z"/>
	<path class="st20" d="M415.7,17c0,0.9-0.8,0.5-1.3,0.6c-0.1-0.3-0.3-0.6-0.5-0.6c-1,0-2.2-0.4-2.9,0.5c-1.1-1.1-2.7-0.3-4-0.5
		c-0.8,0-1.5,0-2.3,0c-0.3,0-0.5,0.4-0.8,0.6c-1.3,0-2.3,1-3.7,0.6c-0.4,0-0.8,0-1.3,0c0-0.3,0-0.4,0-0.6c0-0.3,0-0.4,0-0.6
		c2.8,0,5.5-0.9,8.3-0.6c2.7,0.3,5.5,0,8.3,0C415.7,16.7,415.7,16.8,415.7,17z"/>
	<path class="st21" d="M423.6,17.7c0-0.4,0-0.8,0-1.3c0.3-0.3,0.4-0.4,0.6-0.6c0.1,0.1,0.1,0.4,0.3,0.5c0.1-0.1,0.3-0.4,0.4-0.5
		c0.8,0,1.7,0.3,2.2-0.6c0.8,1,1.8,0.5,2.8,0.6c0,0.3,0,0.4,0,0.6c-0.9,0-0.5,0.8-0.6,1.3c0,0.3,0,0.4,0,0.6c-1,0-2,0.1-3.1,0
		C425.3,18.2,424.5,17.8,423.6,17.7z"/>
	<path class="st22" d="M142.2,17.7c0.3,0,0.4,0,0.6,0c0.3,0.4,0.4,0.8,0.6,1.3c-0.5,0.1-1.1-0.3-1.3,0.6c-1.4,0-2.8,0-4.3,0
		c-0.1-0.1-0.1-0.4-0.3-0.5c-0.1,0.1-0.3,0.4-0.4,0.5c-0.3,0-0.4,0-0.6,0c-0.3-1.1-1.3-0.4-1.8-0.6c0-0.4,0-0.8,0-1.3
		c0.5,0,0.9,0,1.3,0c0.4,0,0.8,0,1.3,0c0.3,0,0.4,0,0.6,0c1.1,0.1,2.4-0.3,3.4,0.4C141.7,17.8,142,17.8,142.2,17.7z"/>
	<path class="st23" d="M396.7,18.8c-1.4,0-2.8,0-4.3,0c-0.6,0-1.3,0-1.8,0c-1,0-1.9,0-2.9,0c-0.3,0-0.5,0.4-0.8,0.6
		c-0.9,0-0.5-0.8-0.6-1.3c0.8,0,1.5,0,2.3,0c0.3,0,0.5-0.4,0.8-0.6c2.8,0,5.7,0,8.6,0c0.3,0,0.4,0,0.6,0c0,0.3,0,0.4,0,0.6
		c-0.4,0-0.8,0-1.3,0C397,18.4,396.9,18.7,396.7,18.8z"/>
	<path class="st24" d="M570.7,22.5c0.1-0.3,0.4-0.6,0.5-1c-0.1,0-0.4-0.1-0.5-0.3c0-0.3,0-0.4,0-0.6c1.3,0.3,2.7,0.5,4,0.6
		c1.5,0.1,3.1,0,4.6,0c0.9,0,0.5,0.8,0.6,1.3C576.9,22.5,573.8,22.5,570.7,22.5z"/>
	<path class="st25" d="M210.9,18.2c-0.4,0.3-0.8,0.4-1.3,0.6c-0.1-0.4-0.1-0.9-0.3-1.8c-0.8,0.9-1.1,1.3-1.5,1.8
		c-1,0.3-2,0.4-3.1,0.6c-0.3-0.3-0.4-0.4-0.6-0.6c0-0.3,0-0.6,0-0.9c0.9-0.5,1.8-1.3,2.7-1.4c1-0.1,2.2,0.1,3.3,0.3
		c0.1-0.1,0.3-0.3,0.5-0.4c0.1,0.3,0.1,0.4,0.3,0.6C210.9,17.4,210.9,17.8,210.9,18.2z"/>
	<path class="st26" d="M251.4,17c-0.3-0.4-0.5-0.6-0.8-1c-0.8-1-1.5,0.6-2.6,0c-0.5-0.4-1.7,0.3-2.9,0c0.5-0.1,0.9-0.3,1.4-0.4
		c-0.1-0.1-0.3-0.3-0.4-0.4c1.7,0,3.2,0,4.9,0c0.4,0.4,0.9,0.8,1.4,1.3c2.6,0,5.4,0,8,0c-2.2,0.8-4.5,0.4-6.6,0.5
		C253,17,252.2,17,251.4,17z"/>
	<path class="st27" d="M210.9,17c-0.1-0.1-0.1-0.4-0.3-0.6c-0.3,0.1-0.4,0.4-0.5,0.4c-1.1-0.1-2.3-0.5-3.3-0.3
		c-0.9,0.1-1.8,0.9-2.7,1.4c0,0.3,0,0.6,0,0.9c-0.3,0-0.4,0-0.6,0c0-0.3,0-0.4,0-0.6c0-0.4,0-0.8,0-1.3c1,0.3,1.4-0.5,2.2-1.3
		c3.4,0,7,0,10.7,0c-0.3,1.1-1.1,0.4-1.7,0.6c-0.6,0.3-1.7-0.5-2,0.6C212.1,17,211.6,17,210.9,17z"/>
	<path class="st28" d="M551.2,20.7c0.3,0,0.4,0,0.6,0c-0.3,0.4-0.4,0.8-0.6,1.3c-0.9-0.1-1.9,0.3-2.8-0.5c-0.6-0.5-1.8,0.3-2.8-0.4
		c-0.6-0.4-1.8-0.3-2.7-0.4c-0.9-1-2-1.1-3.4-1.1c-0.1,0-0.4-0.4-0.5-0.6c1.3,0,2.4,0,3.7,0c0.3,0.4,0.6,0.8,0.8,1.1
		c0.4-0.3,0.8-0.4,1-0.5c0.5,0.4,3.3,1.1,4.3,1.3c0.3,0,0.4,0,0.6,0c0.1,0.9,0.6,0.8,1.1,0.4C550.7,20.9,550.9,20.9,551.2,20.7z"/>
	<path class="st29" d="M136.1,17.7c-0.4,0-0.8,0-1.3,0c0,0.5,0,0.9,0,1.3c-0.3,0.3-0.4,0.4-0.6,0.6c-0.4,0-0.8,0-1.3,0
		c-0.3-0.3-0.5-0.5-0.8-0.6c-0.5-0.1-1.1,0-1.8,0c-0.1-0.4-0.1-0.8-0.3-1.1c-0.1,0-0.3,0-0.4,0c0,0.4,0,0.8,0,1.1
		c-0.6-0.4-1.3-0.8-1.8-1.3c0.5-0.1,1.1,0.3,1.3-0.6c0.9,0.1,1.8,0.4,2.7,0.5c0.3-0.1,0.6-0.4,1-0.5c1,0,2,0,3.1,0
		C136.1,17.2,136.1,17.4,136.1,17.7z"/>
	<path class="st30" d="M317.6,19.5c0.3-0.6-0.5-1.5,0.6-1.8c0.1,0.1,0.1,0.4,0.3,0.5c0.1-0.1,0.3-0.4,0.4-0.5
		c2.2-0.6,4.5-0.8,6.8-1.3c0,0.3,0,0.4,0,0.6c-0.3,0.3-0.4,0.4-0.6,0.6c-0.1,0.3-0.3,0.5-0.5,0.6c-1.9,0.3-3.8,0.4-5.6,0.6
		C318.4,19,318,19.2,317.6,19.5z"/>
	<path class="st16" d="M407.1,17c1.3,0.3,2.8-0.6,4,0.5C412,16.6,413,17,414,17c0.1,0,0.3,0.4,0.5,0.6c-0.6,0-1.1,0.1-1.9,0.1
		c0.5,0.4,0.9,0.8,1.3,1c-0.6,0-1.3,0-1.8,0c-0.8-0.8-1.7-0.8-2.4,0c-0.4,0-0.8,0-1.3,0c-0.1-0.1-0.1-0.4-0.3-0.5
		c-0.1,0.1-0.3,0.4-0.4,0.5c-0.4,0-0.8,0-1.3,0c0-0.3,0-0.4,0-0.6c0.3-0.3,0.4-0.4,0.6-0.6C407.1,17.4,407.1,17.2,407.1,17z"/>
	<path class="st31" d="M546.9,18.2c-1.4-0.3-2.8-0.4-4.2-0.6c-0.3,0-0.5,0.4-0.8,0.6c-1.3,0-2.4,0-3.7,0c-0.4,0-0.8,0-1.1,0
		c0-0.1-0.1-0.3-0.1-0.4c0.4-0.1,0.6-0.3,1-0.5c2.8-0.3,5.9-0.9,8.8,0.3C546.9,17.8,546.9,18.1,546.9,18.2z"/>
	<path class="st32" d="M122,18.2c0,0.4,0,0.8,0,1.3c-0.5-0.4-0.8-0.5-1.3-0.9c-0.4,0.4-0.8,0.9-1.1,1.4c-1.1,0-2.4,0-4,0
		c0.5-0.9,0.8-1.4,1-1.8c0.6,0,1.1,0,1.7,0c0.1,0.3,0.3,0.4,0.5,0.6c0.3-0.3,0.5-0.4,0.8-0.6c0.3-0.3,0.4-0.4,0.6-0.6
		C120.5,18.8,121.4,18.1,122,18.2z"/>
	<path class="st28" d="M579.4,21.3c-1.5,0-3.1,0.1-4.6,0c-1.4-0.1-2.7-0.4-4-0.6c-1.4,0-2.8,0-4.3,0c0.1-0.1,0.1-0.5,0.3-0.5
		c2.3,0.1,4.6-0.4,7,0.4c1.7,0.5,3.8,0.1,5.7,0.1C579.4,20.9,579.4,21.1,579.4,21.3z"/>
	<path class="st33" d="M107.4,19.5c-1.8,0-3.6,0.3-5.2-0.1c-1.3-0.3-2.4-0.6-3.7-0.5c-0.4,0-0.9,0.3-1.4,0.5
		c-0.3-0.4-0.5-0.8-0.8-1.1c4,0.3,7.9,0.4,11.8,0.6c0.1,0,0.3,0.4,0.5,0.6C108.1,19.5,107.7,19.5,107.4,19.5z"/>
	<path class="st34" d="M327.4,15.8c-1.9,0-4-0.5-5.6,0.1c-1.7,0.6-3.3,0.3-4.9,0.5c-0.1,0-0.3-0.4-0.5-0.6c1.7,0.5,3.2-0.6,4.9-0.6
		c1.7,0,3.4,0,5.1,0C326.8,15.1,327.4,15,327.4,15.8z"/>
	<path class="st35" d="M496.7,15.1c0.4,0.3,0.8,0.5,1.3,0.8c-1.4,1.4-1.4,1.4-3.1,1.5c0.1-0.4,0.4-0.6,0.6-1c-2.2,0-4.1,0-6.1,0
		c0-0.3,0-0.4,0-0.6c2.2,0,4.3,0,6.6,0C496.2,15.8,496.4,15.4,496.7,15.1z"/>
	<path class="st36" d="M296.8,17.7c2.8,0,5.7,0,8.6,0c0,0.3,0,0.4,0,0.6c-0.6,0.3-1.5-0.5-1.8,0.6c-0.3,0-0.4,0-0.6,0
		c-0.6-0.9-1.3-0.9-1.8,0c-0.3,0-0.4,0-0.6,0c-0.3-0.3-0.6-0.5-1.3-1c0,0.9,0,1.3,0,1.5c-0.4,0-0.8,0-1.3,0c0-0.4,0-0.8,0-1.3
		c-0.5,0.3-0.8,0.4-1,0.5c-0.1-0.1-0.1-0.4-0.3-0.5C296.8,18.1,296.8,17.8,296.8,17.7z"/>
	<path class="st37" d="M182.7,20.1c-0.1,0.1-0.1,0.5-0.3,0.5c-2.7,0.5-5.1-0.5-7.8-0.8c0,0,0-0.1,0-0.3c0-0.3,0-0.4,0-0.6
		c2-0.1,4,1,6.1,0.6C181.2,20.6,182.1,19.9,182.7,20.1z"/>
	<path class="st28" d="M182.7,20.1c-0.6-0.3-1.5,0.5-1.8-0.6c4.1,0,8,0,12.3,0c-0.1,0.4-0.3,0.5-0.3,0.6h-0.3c-1.8,0-3.7,0-5.5,0
		c-0.4,0-0.8,0-1.3,0c-0.3,0-0.4,0-0.6,0s-0.4,0-0.6,0c-0.4,0-0.8,0-1.3,0C183.1,20.1,183,20.1,182.7,20.1z"/>
	<path class="st36" d="M294.9,18.8c-1.5-0.1-3.2,0.3-4.9-0.4l-0.3,0.3c-1.3-0.1-2.3-0.4-3.4-0.5c0-0.3,0-0.4,0-0.6
		c1.7,0,3.3,0,4.9,0c0.1,0.1,0.1,0.4,0.3,0.5c0.1-0.1,0.3-0.4,0.4-0.5c0.3,0,0.4,0,0.6,0c0.3,0.3,0.4,0.4,0.6,0.6c1,0,2,0,3.1,0
		C296.1,19.2,295.4,18.7,294.9,18.8z"/>
	<path class="st28" d="M375.2,21.9c0.4-1.1,1.4-0.4,2-0.6c0.5-0.3,1.5,0.5,1.7-0.6c1-0.3,2-0.4,3.1-0.6c0,0.9,0.8,0.5,1.3,0.6
		c0.3,0,0.4,0,0.6,0c0.4,0,0.8,0,1.3,0c-0.1,0.1-0.1,0.5-0.3,0.5C381.6,21.5,378.4,21.6,375.2,21.9z"/>
	<path class="st28" d="M308.4,18.8c1.5,0,3.2,0,4.7,0c0.3,0,0.5,0.4,0.8,0.6c-1.5,0-3.3-0.5-4.5,0.1c-1.4,0.8-2.9-0.1-4.2,1
		c-0.3,0.3-1.1,0-1.8,0c0-0.3,0-0.4,0-0.6c1.7-0.3,3.3-0.6,4.9-0.9C308.4,19.1,308.4,19,308.4,18.8z"/>
	<path class="st38" d="M133,17c-0.4,0.1-0.6,0.4-1,0.5c-0.9-0.1-1.8-0.4-2.7-0.5c-2,0-4.1,0-6.1,0c0-0.8,0.6-0.6,1-0.6
		c2.9,0,5.9,0,8.7,0C133,16.7,133,16.8,133,17z"/>
	<path class="st39" d="M557.3,19.5c-2.4-0.3-4.9-0.4-7.4-0.6c0-0.3,0-0.4,0-0.6c3.1-0.4,6,0.6,8.9,0.8c0.1,0,0.1,0.4,0.3,0.5
		C558.5,19.5,558,19.5,557.3,19.5z"/>
	<path class="st40" d="M123.2,17c2,0,4.1,0,6.1,0c0,0.9-0.8,0.5-1.3,0.6c-0.3,0-0.4,0-0.6,0c-0.3,0-0.4,0-0.6,0
		c-0.5,0.1-1,0.3-1.7,0.5c-0.4-0.6-1.1-0.6-1.9-0.3c-0.4,0.3-0.9,0.3-1.3,0.4c-0.6-0.3-1.5,0.5-1.8-0.6
		C121.1,17.4,122.2,17.2,123.2,17z"/>
	<path class="st41" d="M166.1,20.7c0-0.3,0-0.4,0-0.6c0.3-0.1,0.4-0.1,0.5-0.3c-0.4-0.4-0.8-0.6-1.1-1c0.8,0,1.7,0,2.4,0
		c0.3,1.1,1.3,0.4,1.8,0.6c0,0.6,0,1.3,0,1.8C168.7,21.1,167.4,20.9,166.1,20.7z"/>
	<path class="st42" d="M143.5,18.8c-0.3-0.4-0.4-0.8-0.6-1.3c0.8,0,1.7,0,2.4,0c0.1,0.3,0.3,0.4,0.5,0.6c0.3-0.3,0.5-0.4,0.8-0.6
		c0.8,0,1.7,0,2.4,0c0,0.4,0,0.8,0,1.3c-1.7,0-3.3,0-4.9,0C143.9,18.8,143.6,18.8,143.5,18.8z"/>
	<path class="st43" d="M158.2,17c0,0.3,0,0.6,0,1.1c-0.5-0.1-1-0.5-1.4-0.5c-0.5,0-1,0.4-1.7,0.5c-1.7-1-3.6-0.4-5.5-0.5
		c0-0.8,0.6-0.6,1-0.6C153.2,17,155.6,17,158.2,17z"/>
	<path class="st44" d="M443.9,18.2c0-0.3,0-0.4,0-0.6c0.6-1,1.5-0.8,2.4-0.3c0.5,0.3,0.6,0.3,0.6-0.3c0.3,0,0.4,0,0.6,0
		c0.9,0.8,2,0.6,3.1,0.6c0,0.3,0,0.4,0,0.6C448.4,18.2,446.1,18.2,443.9,18.2z"/>
	<path class="st45" d="M303.5,20.1c0,0.3,0,0.4,0,0.6c-2.3,0.3-4.5,0.4-6.8,0.6c0.4-0.6,0.8-1.3,1.3-1.8c0.4,0,0.8,0,1.3,0
		c0.3,0.3,0.5,0.5,0.8,0.6C301.1,20.1,302.3,20.1,303.5,20.1z"/>
	<path class="st37" d="M187.1,20.1c1.8,0,3.7,0,5.5,0c-1.1,1.5-2.8,1.1-4.3,1.3c-0.3-0.3-0.5-0.4-0.8-0.6
		C187.3,20.5,187.2,20.2,187.1,20.1z"/>
	<path class="st46" d="M225,16.4c-0.3-1.1-1.1-0.4-1.7-0.6c-0.5-0.1-1.3,0.4-1.4-0.6c0-0.3,0-0.4,0-0.6c1.7,0.3,3.3,0.4,4.9,0.6
		c0,0.3,0,0.4,0,0.6c-0.3,0.3-0.4,0.4-0.6,0.6C225.9,16.4,225.4,16.4,225,16.4z"/>
	<path class="st47" d="M516.2,15.1c0.6,0.3,1.1,0.5,1.9,0.9c-2,1-3.7-0.8-5.6-0.6c0.4-0.3,0.8-0.6,1.3-0.9c0.3,0.3,0.5,0.5,0.8,0.6
		C515.1,15.3,515.7,15.1,516.2,15.1z"/>
	<path class="st48" d="M496.7,15.1c-0.3,0.3-0.5,0.6-0.8,0.6c-2.2,0-4.3,0-6.6,0c-0.3,0-0.4,0-0.6,0c0-0.3,0-0.4,0-0.6
		C491.3,15.1,494,15.1,496.7,15.1z"/>
	<path class="st49" d="M221.9,14.6c0,0.3,0,0.4,0,0.6c-0.8,0.6-1.8,0.6-2.7,0.6c-0.6,0-1.3,0.3-2.2,0.4c0,0-0.4-0.1-0.6-0.4
		c0.1-0.1,0.1-0.5,0.3-0.5C218.3,15,220.1,14.7,221.9,14.6z"/>
	<path class="st50" d="M590.4,21.3c-0.8,1.3-1.9,0.3-2.9,0.8c-0.5-1.8,1.4-1.1,1.7-2c0.5,0.3,0.9,0.5,1.3,0.6
		C590.4,20.9,590.4,21.1,590.4,21.3z"/>
	<path class="st50" d="M583.6,20.7c1,0,1.9,0,2.9,0c-1.3,0.6-2.4,1.4-3.8,1.3c-0.5,0-1,0.4-1.5,0.5c0-0.4,0-0.8,0-1.3
		c0.8,0,1.4,0,1.9,0C583.4,21.3,583.5,20.9,583.6,20.7z"/>
	<path class="st51" d="M203.5,18.8c0.3,0,0.4,0,0.6,0c0.3,0.3,0.4,0.4,0.6,0.6c-1.1,0-2.3,0-3.6,0c0-0.1,0-0.3-0.1-0.4
		c0.4-0.1,0.6-0.3,1.1-0.5c-0.1-0.3-0.3-0.4-0.5-0.6c0.3-0.8,0.9-1.1,1.8-1c0,0.4,0,0.8,0,1.3c-0.1,0.1-0.4,0.1-0.5,0.3
		C203.3,18.6,203.4,18.7,203.5,18.8z"/>
	<path class="st52" d="M447.6,17c-0.3,0-0.4,0-0.6,0c-0.3-0.3-0.5-0.5-0.8-0.6c-0.5-0.1-1.1,0-1.8,0c0-0.3,0-0.4,0-0.6c2,0,4,0,6,0
		c0.3,0,0.5,0.4,0.8,0.6c-1,0-1.9,0-2.9,0C448,16.4,447.9,16.8,447.6,17z"/>
	<path class="st0" d="M385,20.7c-0.4,0-0.8,0-1.3,0c0-0.3,0-0.4,0-0.6c1.1-0.3,0.4-1.3,0.6-1.8c0.4,0,0.8,0,1.3,0c0.3,0,0.4,0,0.6,0
		c0.1,0.5-0.3,1.1,0.6,1.3c0,0.3,0,0.4,0,0.6C386.3,20.4,385.3,19.5,385,20.7z"/>
	<path class="st53" d="M583.6,20.7c-0.1,0.3-0.3,0.5-0.5,0.6c-0.6,0.1-1.1,0-1.9,0c0,0.5,0,0.9,0,1.3c-0.4,0-0.8,0-1.3,0
		c-0.1-0.5,0.3-1.1-0.6-1.3c0-0.3,0-0.4,0-0.6C580.8,20.7,582.2,20.7,583.6,20.7z"/>
	<path class="st54" d="M400.4,18.2c1.3,0.4,2.4-0.6,3.7-0.6c0.3,0.3,0.5,0.5,0.8,0.6c0.4,0.1,1-0.1,1,0.6c-1.8,0-3.7,0-5.5,0
		C400.4,18.7,400.4,18.4,400.4,18.2z"/>
	<path class="st55" d="M450.7,18.2c0-0.3,0-0.4,0-0.6c0.9-0.6,1.9-0.9,3.1-0.4c-0.1,0.3-0.4,0.4-0.5,0.8c0.3,0.1,0.4,0.3,0.6,0.3
		c-0.4,1.1-1.1,0.6-1.8,0.4C451.4,18.4,451.1,18.3,450.7,18.2z"/>
	<path class="st56" d="M210.9,17c0.6,0,1.3,0,1.8,0c0.3,0.3,0.5,0.5,0.8,0.6c0.8,0.1,1.5,0,2.3,0c0,0.3,0,0.4,0,0.6
		c-1.7,0-3.3,0-4.9,0C210.9,17.8,210.9,17.4,210.9,17z"/>
	<path class="st57" d="M133,17c0-0.3,0-0.4,0-0.6c1.8,0,3.7,0,5.5,0c-0.3,0.4-0.4,0.8-0.6,1.3c-0.3,0-0.4,0-0.6,0
		c0-0.9-0.8-0.5-1.3-0.6C135.1,17,134,17,133,17z"/>
	<path class="st58" d="M405.9,18.8c0-0.8-0.6-0.5-1-0.6c-0.3-0.1-0.5-0.4-0.8-0.6c0.3-0.3,0.5-0.5,0.8-0.6c0.8-0.1,1.5,0,2.3,0
		c0,0.3,0,0.4,0,0.6c-0.3,0.3-0.4,0.4-0.6,0.6c0,0.3,0,0.4,0,0.6C406.2,18.8,406.1,18.8,405.9,18.8z"/>
	<path class="st59" d="M361.8,18.2c0.3-0.3,0.5-0.5,0.8-0.6c1.4,0,2.8,0,4.1,0c0,0.3,0,0.4,0,0.6c-0.8,0-1.5,0-2.3,0
		c-0.3,0-0.5,0.4-0.8,0.6c-0.3,0-0.4,0-0.6,0C362.6,18.7,362.2,18.4,361.8,18.2z"/>
	<path class="st60" d="M305.3,18.2c0-0.3,0-0.4,0-0.6c2,0,4.1,0,6.1,0c-0.3,0.3-0.5,0.5-0.8,0.6c-0.8,0.1-1.5,0-2.3,0
		C307.4,18.2,306.4,18.2,305.3,18.2z"/>
	<path class="st61" d="M386.8,20.1c0-0.3,0-0.4,0-0.6c0.3-0.3,0.5-0.5,0.8-0.6c1-0.1,1.9,0,2.9,0c0,0.3,0,0.4,0,0.6
		C389.2,19.5,388.2,20.5,386.8,20.1z"/>
	<path class="st28" d="M215.8,18.2c0-0.3,0-0.4,0-0.6c0.3,0,0.4,0,0.6,0c0.4,0,0.8,0,1.3,0c0.3,0,0.4,0,0.6,0c0.6,0,1.3,0,1.8,0
		c0.5,0.1,1.1-0.3,1.3,0.6C219.5,18.2,217.7,18.2,215.8,18.2z"/>
	<path class="st62" d="M433.4,18.2c0.9,0,1.9,0,3.1,0c-0.3,0.5-0.4,0.9-0.6,1.3c-1.3,0-2.3-1-3.7-0.6
		C432.3,17.9,433.1,18.3,433.4,18.2z"/>
	<path class="st63" d="M251.4,17c0.8,0,1.7,0,2.4,0c0,0.3,0,0.6,0,1c-0.8,0.3-1.5,0.5-2.4,0.8C251.4,18.2,251.4,17.6,251.4,17z"/>
	<path class="st64" d="M566.5,20.7c1.4,0,2.8,0,4.3,0c0,0.3,0,0.4,0,0.6c-0.5,0.1-1,0.3-1.7,0.4c-0.5-0.8-1.4-0.4-2.3-0.4
		c-0.4,0-1,0.1-1-0.6C566.1,20.7,566.3,20.7,566.5,20.7z"/>
	<path class="st65" d="M362.9,18.8c0.3,0,0.4,0,0.6,0c1.4,0,2.8,0,4.3,0c0.3,0,0.4,0,0.6,0c-0.3,0.3-0.5,0.6-0.8,0.6
		c-1.5,0-3.2,0-4.7,0C362.9,19.2,362.9,19.1,362.9,18.8z"/>
	<path class="st66" d="M226.3,16.4c0.3-0.3,0.4-0.4,0.6-0.6c0.3,0.3,0.5,0.5,0.8,0.6c1,0.1,1.9,0,2.9,0c0,0.3,0,0.4,0,0.6
		c-0.8,0-1.4,0.1-2.2,0c-0.9-0.1-1.5,0.3-2.2,0.6C226.3,17.2,226.3,16.8,226.3,16.4z"/>
	<path class="st67" d="M557.3,19.5c0.6,0,1.3,0,1.8,0c1,0,2.2-0.1,2.4,1.3c-0.9,0.1-1.8,0-2.4-0.6c-0.6,0-1.3,0-1.8,0
		C557.3,19.9,557.3,19.7,557.3,19.5z"/>
	<path class="st28" d="M144.1,18.8c1.7,0,3.3,0,4.9,0c0.3,0.3,0.4,0.4,0.6,0.6c-1.8,0-3.7,0-5.5,0C144.1,19.2,144.1,19.1,144.1,18.8
		z"/>
	<path class="st68" d="M230.5,16.4c-1,0-1.9,0-2.9,0c-0.3,0-0.5-0.4-0.8-0.6c0-0.3,0-0.4,0-0.6c1.3,0.3,2.4,0.4,3.7,0.6
		C230.5,16,230.5,16.1,230.5,16.4z"/>
	<path class="st42" d="M138,17.7c0.3-0.4,0.4-0.8,0.6-1.3c0.8,0.6,1.7,0.8,2.7,0.6c0.4,0,1-0.1,1,0.6c-0.3,0.1-0.5,0.3-0.9,0.4
		C140.4,17.3,139.2,17.7,138,17.7z"/>
	<path class="st50" d="M596.5,20.2c0,0.4,0,0.6,0,1c-0.8,0-1.5,0-2.3,0c0-0.4,0-0.6,0-1C594.9,20.2,595.7,20.2,596.5,20.2z"/>
	<path class="st69" d="M356.8,18.8c0.3-0.6,0.6-1.1,0.9-1.8c0.4,0.4,0.6,0.8,1,1.1c0,0.5,0,1.1,0,1.8c-0.5-0.3-0.9-0.4-1.3-0.6
		C357.2,19.2,357.1,19.1,356.8,18.8z"/>
	<path class="st70" d="M415.7,17c0-0.3,0-0.4,0-0.6c1.4,0,2.8,0,4.3,0c-0.3,0.3-0.5,0.6-0.8,0.6c-0.9,0-1.7,0.1-2.3,0.6
		c-0.3-0.3-0.4-0.4-0.6-0.6C416.1,17,415.9,17,415.7,17z"/>
	<path class="st71" d="M325.5,17c0-0.3,0-0.4,0-0.6c0.8,0,1.5,0,2.3,0c0.3,0,0.5,0.4,0.8,0.6c-0.3,1.1-1.3,0.4-1.8,0.6
		C326.8,16.7,326,17.2,325.5,17z"/>
	<path class="st72" d="M169.8,19.5c-0.6-0.3-1.5,0.5-1.8-0.6c1.7,0,3.3,0,4.9,0c0,0.3,0,0.4,0,0.6C171.9,19.5,170.8,19.5,169.8,19.5
		z"/>
	<path class="st73" d="M488.6,15.8c0.3,0,0.4,0,0.6,0c0,0.3,0,0.4,0,0.6c-0.3,0.3-0.4,0.4-0.6,0.6c-0.4-1.1-1.4-0.4-2-0.6
		c-0.5-0.3-1.5,0.5-1.7-0.6c0.6,0,1.3,0,1.8,0C487.5,15.8,488,15.8,488.6,15.8z"/>
	<path class="st74" d="M385.7,18.2c-0.4,0-0.8,0-1.3,0c-0.5,0.1-1.1-0.3-1.3,0.6c-0.3,0-0.4,0-0.6,0c0-0.4,0-0.8,0-1.3
		c0.4-0.1,0.6-0.4,1-0.5c0.5,0.8,1.4,0.5,2,0.5C385.7,17.8,385.7,18.1,385.7,18.2z"/>
	<path class="st75" d="M163,17.7c-1.3,0.9-3.1,0.9-4.3,0C160.2,17.7,161.6,17.7,163,17.7z"/>
	<path class="st76" d="M433.4,18.2c-0.5,0.1-1.1-0.3-1.3,0.6c-0.6,0-1.1,0-1.8,0c-0.3,0-0.5-0.4-0.8-0.6c0.6-0.3,1.5,0.5,1.8-0.6
		c0.4,0,0.8,0,1.3,0c0.3,0,0.4,0,0.6,0C433.4,17.8,433.4,18.1,433.4,18.2z"/>
	<path class="st77" d="M14.8,20.1c0,0.6,0,1.3,0,1.8c-0.3,0.1-0.6,0.4-1.1,0.6c0-0.6-0.1-1.3-0.1-1.8C13.6,19.7,14.2,20.2,14.8,20.1
		z"/>
	<path class="st78" d="M557.3,20.1c0.6,0,1.3,0,1.8,0c-0.3,0.6-0.4,1.3-0.6,1.8c-0.3,0-0.4,0-0.6,0c0.4-1-0.5-1.1-1.3-1.5
		C557,20.2,557.1,20.2,557.3,20.1z"/>
	<path class="st79" d="M538.3,18.2c1.3,0,2.4,0,3.7,0c0.3,0,0.4,0,0.6,0c0,0.3,0,0.4,0,0.6c-1.3,0-2.4,0-3.7,0
		C538.7,18.7,538.6,18.4,538.3,18.2z"/>
	<path class="st80" d="M444.6,15.8c0,0.3,0,0.4,0,0.6c-1,0-1.9,0-2.9,0c-0.3,0-0.5-0.4-0.8-0.6c0.8,0,1.7,0,2.4,0
		C443.7,15.8,444,15.8,444.6,15.8z"/>
	<path class="st81" d="M286.3,17.7c0,0.3,0,0.4,0,0.6c-1,0.9-2,0.9-3.1,0C284.3,18.2,285.4,18.4,286.3,17.7z"/>
	<path class="st82" d="M296.1,18.2c-1,0-2,0-3.1,0c0-0.3,0-0.4,0-0.6c1.3,0,2.4,0,3.7,0c0,0.3,0,0.4,0,0.6
		C296.5,18.2,296.4,18.2,296.1,18.2z"/>
	<path class="st61" d="M385.7,18.2c0-0.3,0-0.4,0-0.6c1.3,0,2.4,0,3.7,0c-0.3,0.3-0.5,0.5-0.8,0.6c-0.8,0.1-1.5,0-2.3,0
		C386.1,18.2,385.8,18.2,385.7,18.2z"/>
	<path class="st28" d="M421.8,17.7c0.3,0,0.4,0,0.6,0c-0.6,0.6-1.3,1.3-1.8,1.8c-0.1-0.4-0.4-0.6-0.5-0.9c0.1-0.3,0.4-0.6,0.5-0.9
		C421.1,17.7,421.4,17.7,421.8,17.7z"/>
	<path class="st50" d="M591.1,20.7c0.3-1.1,1.3-0.4,1.9-0.6c0.1,0,0.1,0,0.3,0c0.4,0.5,0.5,1-0.4,1.1c-0.1-0.3-0.3-0.4-0.5-0.6
		c-0.3,0.3-0.5,0.4-0.8,0.6c-0.3,0-0.4,0-0.6,0C591.1,21.1,591.1,20.9,591.1,20.7z"/>
	<path class="st83" d="M551.2,21.9c0.3-0.4,0.4-0.8,0.6-1.3c0.6,0.4,1.3,0.8,1.8,1.3C552.9,21.9,552,21.9,551.2,21.9z"/>
	<path class="st84" d="M207.9,18.8c0.4-0.5,0.8-0.9,1.5-1.8c0.1,0.9,0.3,1.4,0.3,1.8C209,18.8,208.5,18.8,207.9,18.8z"/>
	<path class="st85" d="M549.9,18.2c0,0.3,0,0.4,0,0.6c-0.6,0-1.1,0-1.8,0c-0.3,0-0.5-0.4-0.8-0.6c0.3-0.3,0.4-0.4,0.6-0.6
		c0.3,0,0.4,0,0.6,0c0.3,0.3,0.4,0.4,0.6,0.6C549.5,18.2,549.8,18.2,549.9,18.2z"/>
	<path class="st28" d="M400.4,18.2c0,0.3,0,0.4,0,0.6c-1,0-2,0-3.1,0c0-0.3,0-0.4,0-0.6c0.4,0,0.8,0,1.3,0c0.3,0,0.4,0,0.6,0
		C399.6,18.2,400,18.2,400.4,18.2z"/>
	<path class="st86" d="M130.6,18.8c0.6,0,1.1,0,1.8,0c0.3,0,0.5,0.4,0.8,0.6c-0.8,0-1.7,0-2.4,0C130.6,19.2,130.6,19.1,130.6,18.8z"
		/>
	<path class="st87" d="M157.5,19.5c0.8-0.8,1.7-0.8,2.4,0C159.2,19.5,158.4,19.5,157.5,19.5z"/>
	<path class="st88" d="M165.6,18.8c0.4,0.3,0.8,0.6,1.1,1c-0.1,0-0.3,0.1-0.5,0.3c-0.4,0-0.8,0-1.3,0c0-0.5,0-0.9,0-1.3
		C165.1,18.8,165.3,18.8,165.6,18.8z"/>
	<path class="st26" d="M261.3,17.2c0.8,0,1.5,0,2.3,0c0,0.1,0,0.3,0,0.4c-0.8,0-1.5,0.1-2.3,0.1C261.3,17.4,261.3,17.3,261.3,17.2z"
		/>
	<path class="st89" d="M530.9,16.9c-0.8,0-1.5,0-2.3,0c0-0.1,0-0.3,0-0.4c0.8,0,1.5-0.1,2.3-0.1C530.8,16.5,530.9,16.8,530.9,16.9z"
		/>
	<path class="st62" d="M431.7,17.7c-0.3,1.1-1.3,0.4-1.8,0.6c-0.3,0-0.4,0-0.6,0c0-0.3,0-0.4,0-0.6c0.6,0,1.3,0,1.8,0
		C431.3,17.7,431.4,17.7,431.7,17.7z"/>
	<path class="st58" d="M409.6,18.8c0.8-0.8,1.7-0.8,2.4,0C411.2,18.8,410.3,18.8,409.6,18.8z"/>
	<path class="st90" d="M516.2,15.1c-0.6,0-1.1,0-1.8,0c-0.3,0-0.5-0.4-0.8-0.6c0.6,0,1.1,0,1.8,0C515.8,14.6,516,15,516.2,15.1z"/>
	<path class="st91" d="M230.5,16.4c0-0.3,0-0.4,0-0.6c0.3,0,0.6,0,0.9,0c0.4,1.1,0.4,1.1-0.9,1.3C230.5,16.8,230.5,16.7,230.5,16.4z
		"/>
	<path class="st92" d="M294.3,21.3c0.6-0.9,1.3-0.9,1.8,0C295.5,21.3,294.9,21.3,294.3,21.3z"/>
	<path class="st15" d="M325.5,17c0.5,0.1,1.1-0.3,1.3,0.6c-0.6,0-1.3,0-1.8,0C325.1,17.4,325.4,17.2,325.5,17z"/>
	<path class="st93" d="M115.3,19.3c-0.6,0-1.3,0-1.8,0c0-0.1,0-0.3,0-0.3c0.6,0,1.3,0,1.8,0C115.3,19.1,115.3,19.2,115.3,19.3z"/>
	<path class="st94" d="M95.1,18.2c-0.6,0-1.3,0-1.8,0C93.8,17.4,94.5,17.4,95.1,18.2z"/>
	<path class="st95" d="M491.8,17.2c0.5,0,1,0,1.7,0c0,0.1,0,0.3,0,0.4c-0.5,0.1-1,0.1-1.7,0.3C491.8,17.4,491.8,17.3,491.8,17.2z"/>
	<path class="st96" d="M488.6,15.8c-0.6,0-1.3,0-1.8,0c0.3-1.1,1.3-0.4,1.8-0.6C488.6,15.4,488.6,15.6,488.6,15.8z"/>
	<path class="st97" d="M390.5,19.5c0-0.3,0-0.4,0-0.6c0.6,0,1.3,0,1.8,0C392.1,20,391.2,19.2,390.5,19.5z"/>
	<path class="st98" d="M172.9,19.5c0-0.3,0-0.4,0-0.6c0.6,0,1.3,0,1.8,0c0,0.3,0,0.4,0,0.6C174.2,19.5,173.5,19.5,172.9,19.5z"/>
	<path class="st29" d="M134.9,18.8c0.6,0.3,1.5-0.5,1.8,0.6c-0.6,0-1.3,0-1.8,0C134.9,19.2,134.9,19.1,134.9,18.8z"/>
	<path class="st99" d="M144.1,18.8c0,0.3,0,0.4,0,0.6c-0.6,0-1.3,0-1.8,0c0-0.9,0.8-0.5,1.3-0.6C143.6,18.8,143.9,18.8,144.1,18.8z"
		/>
	<path class="st100" d="M282.6,20.1c0.3-0.3,0.5-0.4,0.8-0.6c0.1,0.3,0.3,0.4,0.5,0.6C283.5,20.1,283.1,20.1,282.6,20.1z"/>
	<path class="st8" d="M110,20.2c-0.8-0.3-1.1-0.4-1.5-0.4c0.3-0.1,0.5-0.3,0.9-0.3C109.5,19.5,109.7,19.7,110,20.2z"/>
	<path class="st101" d="M398.6,17.7c-0.3,0-0.4,0-0.6,0c0-0.9,0.8-0.5,1.3-0.6c0,0.3,0,0.4,0,0.6C399,17.7,398.7,17.7,398.6,17.7z"
		/>
	<path class="st102" d="M591.7,21.3c0.3-0.3,0.5-0.4,0.8-0.6c0.1,0.3,0.3,0.4,0.5,0.6C592.5,21.3,592.1,21.3,591.7,21.3z"/>
	<path class="st103" d="M104.8,20.7c0-0.9,0.8-0.5,1.3-0.6C106.1,21,105.3,20.6,104.8,20.7z"/>
	<path class="st3" d="M288.2,20.7c0.3-0.3,0.5-0.4,0.8-0.6c0.1,0.3,0.3,0.4,0.5,0.6C289,20.7,288.6,20.7,288.2,20.7z"/>
	<path class="st104" d="M548.1,17.7c-0.3,0.3-0.4,0.4-0.6,0.6c-0.3,0-0.4,0-0.6,0c0-0.3,0-0.4,0-0.6
		C547.2,17.7,547.8,17.7,548.1,17.7z"/>
	<path class="st105" d="M119.6,18.2c-0.3,0.3-0.5,0.4-0.8,0.6c-0.1-0.3-0.3-0.4-0.5-0.6C118.7,18.2,119.1,18.2,119.6,18.2z"/>
	<path class="st29" d="M127.5,19.5c0.3-0.3,0.5-0.4,0.8-0.6c0.1,0.3,0.3,0.4,0.5,0.6C128.3,19.5,127.9,19.5,127.5,19.5z"/>
	<path class="st106" d="M146.6,17.7c-0.3,0.3-0.5,0.4-0.8,0.6c-0.1-0.3-0.3-0.4-0.5-0.6C145.7,17.7,146.2,17.7,146.6,17.7z"/>
	<path class="st107" d="M424.9,15.8c-0.1,0.1-0.3,0.4-0.4,0.5c-0.1-0.1-0.1-0.4-0.3-0.5C424.5,15.8,424.6,15.8,424.9,15.8z"/>
	<path class="st28" d="M510.7,15.6c-0.3,0-0.4,0-0.6,0c0-0.1,0-0.1,0-0.3c0.3,0,0.4,0,0.6,0C510.7,15.5,510.7,15.5,510.7,15.6z"/>
	<path class="st28" d="M422.5,17.7c0.1-0.1,0.3-0.4,0.4-0.5c0.1,0.1,0.1,0.4,0.3,0.5C422.8,17.7,422.6,17.7,422.5,17.7z"/>
	<path class="st108" d="M293.1,17.7c0,0.3,0,0.4,0,0.6c-0.3-0.3-0.4-0.4-0.6-0.6C292.7,17.7,292.8,17.7,293.1,17.7z"/>
	<path class="st108" d="M291.8,17.7c-0.1,0.1-0.3,0.4-0.4,0.5c-0.1-0.1-0.1-0.4-0.3-0.5C291.4,17.7,291.7,17.7,291.8,17.7z"/>
	<path class="st60" d="M137.4,19.5c0.1-0.1,0.3-0.4,0.4-0.5c0.1,0.1,0.1,0.4,0.3,0.5C137.8,19.5,137.5,19.5,137.4,19.5z"/>
	<path class="st109" d="M314.5,19.5c0.1-0.1,0.3-0.4,0.4-0.5c0.1,0.1,0.1,0.4,0.3,0.5C314.9,19.5,314.8,19.5,314.5,19.5z"/>
	<path class="st110" d="M356.8,18.8c0.3,0.3,0.4,0.4,0.6,0.6C357.2,19.2,357.1,19.1,356.8,18.8z"/>
	<path class="st104" d="M549.3,18.2c-0.3-0.3-0.4-0.4-0.6-0.6C548.9,17.8,549.2,18.1,549.3,18.2z"/>
	<path class="st111" d="M397.3,18.2c0,0.3,0,0.4,0,0.6c-0.3,0-0.4,0-0.6,0C396.9,18.7,397,18.4,397.3,18.2z"/>
	<path class="st58" d="M407.8,18.8c0.1-0.1,0.3-0.4,0.4-0.5c0.1,0.1,0.1,0.4,0.3,0.5C408.2,18.8,407.9,18.8,407.8,18.8z"/>
	<path class="st57" d="M134.9,18.8c0,0.3,0,0.4,0,0.6c-0.3,0-0.4,0-0.6,0C134.4,19.2,134.7,19.1,134.9,18.8z"/>
	<path class="st112" d="M8,20.1c0.3,0,0.4,0,0.6,0c-0.1,0.1-0.3,0.4-0.4,0.5C8.1,20.4,8.1,20.2,8,20.1z"/>
	<path class="st113" d="M591.1,20.7c0,0.3,0,0.4,0,0.6c-0.3,0-0.4,0-0.6,0c0-0.3,0-0.4,0-0.6C590.7,20.7,590.8,20.7,591.1,20.7z"/>
	<path class="st114" d="M382,20.1c-1,0.3-2,0.4-3.1,0.6c-0.4,0-0.8,0-1.4,0c0.3-0.8,0.5-1.1,0.6-1.7c-0.4-0.6-1.7,0.5-1.8-0.8
		c0.8-0.1,1.7-0.3,2.7-0.5c0.5,0.1,1.1,0.4,2,0.8c0,0.1,0.1,0.4,0.3,1c0.3,0,0.6,0,1,0C382.3,19.7,382.2,19.9,382,20.1z"/>
	<path class="st115" d="M368.4,18.8c-0.3,0-0.4,0-0.6,0c0-0.9-0.8-0.5-1.3-0.6c0-0.3,0-0.4,0-0.6c0.4,0,0.8,0,1.3,0
		c0.6,0.3,1.3,0.4,1.8,0.6c0,0.3,0,0.4,0,0.6C369.3,18.8,368.9,18.8,368.4,18.8z"/>
	<path class="st116" d="M382,20.1c0.3-0.3,0.4-0.4,0.6-0.6c0-0.3,0-0.4,0-0.6c0.3,0,0.4,0,0.6,0c0.9,0,0.5,0.8,0.6,1.3
		c-0.3,0.3-0.4,0.4-0.6,0.6C382.7,20.6,382,21,382,20.1z"/>
	<path class="st117" d="M369.7,18.8c0-0.3,0-0.4,0-0.6c0.8,0,1.7,0,2.4,0c0,0.4,0,0.8,0,1.3c-0.3,0-0.4,0-0.6,0
		c-0.3-0.3-0.4-0.4-0.6-0.6C370.5,18.8,370.1,18.8,369.7,18.8z"/>
	<path class="st118" d="M372.1,19.5c0-0.4,0-0.8,0-1.3c0.3,0,0.4,0,0.6,0c0,0.4,0,0.8,0,1.3C372.5,19.5,372.4,19.5,372.1,19.5z"/>
	<path class="st119" d="M372.1,19.5c0.3,0,0.4,0,0.6,0c-0.6,1.1-1.5,0.4-2.4,0.3c0.3-0.1,0.4-0.1,0.6-0.3c0.3,0,0.4,0,0.6,0
		C371.7,19.5,372,19.5,372.1,19.5z"/>
	<path class="st118" d="M371.5,19.5c-0.3,0-0.4,0-0.6,0c0-0.3,0-0.4,0-0.6C371.1,19.1,371.4,19.2,371.5,19.5z"/>
	<path class="st37" d="M183.4,20.1c0.4,0,0.8,0,1.3,0c-0.3,0.3-0.5,0.4-0.8,0.6C183.6,20.5,183.5,20.2,183.4,20.1z"/>
	<path class="st37" d="M185.1,20.1c0.3,0,0.4,0,0.6,0c-0.1,0.1-0.3,0.4-0.4,0.5C185.3,20.4,185.3,20.2,185.1,20.1z"/>
	<path class="st120" d="M296.1,18.2c0.3,0,0.4,0,0.6,0c0.1,0.1,0.1,0.4,0.3,0.5c0.3-0.1,0.5-0.3,1-0.5c0,0.5,0,0.9,0,1.3
		c-0.8,0-1.5,0-2.3,0c-0.3,0-0.5-0.4-0.8-0.6C295.4,18.7,296.1,19.2,296.1,18.2z"/>
	<path class="st83" d="M548.8,20.7c-0.9,0-3.7-0.9-4.3-1.3c0.6,0,1.3,0,1.8,0c0.3,0,0.4,0,0.6,0C547.5,19.9,548.1,20.2,548.8,20.7z"
		/>
	<path class="st83" d="M551.2,20.7c-0.3,0.1-0.5,0.3-0.6,0.4c-0.5,0.4-1,0.5-1.1-0.4c0-0.3,0-0.4,0-0.6c0.3,0,0.4,0,0.6,0
		C550.4,20.2,551.1,19.7,551.2,20.7z"/>
	<path class="st83" d="M544.4,19.5c-0.3,0.1-0.6,0.4-1,0.5c-0.3-0.4-0.5-0.8-0.8-1.1c0.4,0,0.8,0,1.3,0
		C544.1,19.1,544.2,19.2,544.4,19.5z"/>
	<path class="st31" d="M543.8,18.8c-0.4,0-0.8,0-1.3,0c0-0.3,0-0.4,0-0.6C543,18.3,543.8,17.9,543.8,18.8z"/>
	<path class="st31" d="M546.9,19.5c-0.3,0-0.4,0-0.6,0c0.1-0.1,0.3-0.4,0.4-0.5C546.7,19.1,546.9,19.3,546.9,19.5z"/>
	<path class="st85" d="M549.9,20.1c-0.3,0-0.4,0-0.6,0c0.1-0.1,0.3-0.4,0.4-0.5C549.8,19.7,549.9,19.9,549.9,20.1z"/>
	<path class="st121" d="M220.1,17.7c-0.6,0-1.3,0-1.8,0C218.9,16.8,219.5,16.8,220.1,17.7z"/>
	<path class="st122" d="M226.3,16.4c0,0.4,0,0.8,0,1.3c-0.4-0.4-0.8-0.8-1.3-1.3C225.4,16.4,225.9,16.4,226.3,16.4z"/>
	<path class="st121" d="M217.7,17.7c-0.4,0-0.8,0-1.3,0c0.3-0.3,0.5-0.4,0.8-0.6C217.3,17.2,217.5,17.4,217.7,17.7z"/>
	<path class="st86" d="M223.8,17.4c-0.3,0-0.4,0-0.6,0c0-0.1,0-0.1,0-0.3c0.3,0,0.4,0,0.6,0C223.8,17.3,223.8,17.3,223.8,17.4z"/>
	<path class="st123" d="M431.7,17.7c-0.3,0-0.4,0-0.6,0c0-0.4,0-0.8,0-1.3c-0.5,0-0.9,0-1.3,0c0-0.3,0-0.4,0-0.6
		c1.1,0.4,1.5-0.9,2.3-1.3c1,0.4,2.2,0.8,3.3,1.1c1.8-1.5,3.6,0.8,5.5,0c0.3,0.3,0.5,0.5,0.8,0.6c1,0.1,1.9,0,2.9,0
		c0.6,0,1.1,0,1.8,0c0.3,0,0.5,0.4,0.8,0.6c0,0.5-0.1,0.6-0.6,0.3c-0.8-0.5-1.8-0.6-2.4,0.3c-0.6-0.3-1.3-0.4-1.9-0.6
		c-0.9-0.4-1.7,0.6-2.7,0.1c-0.8-0.4-1.8-0.5-2.4,0.4c-1.1-1.3-2.3,0.6-3.4,0.1c-0.1-0.1-0.1-0.4-0.3-0.5c-0.1,0.1-0.3,0.4-0.4,0.5
		C432.4,17.7,432,17.7,431.7,17.7z"/>
	<path class="st124" d="M318.9,17.7c-0.1,0.1-0.3,0.4-0.4,0.5c-0.1-0.1-0.1-0.4-0.3-0.5C318.4,17.7,318.6,17.7,318.9,17.7z"/>
	<path class="st58" d="M413.9,18.8c-0.4-0.3-0.8-0.6-1.3-1c0.6,0,1.3-0.1,1.9-0.1c0.1,0.3,0.4,0.6,0.6,1
		C414.7,18.7,414.3,18.8,413.9,18.8z"/>
	<path class="st125" d="M421.8,17.7c-0.4,0-0.8,0-1.3,0c0.3-0.3,0.5-0.4,0.8-0.6C421.6,17.2,421.7,17.4,421.8,17.7z"/>
	<path class="st20" d="M416.3,17c0.3,0.3,0.4,0.4,0.6,0.6C416.7,17.4,416.5,17.2,416.3,17z"/>
	<path class="st126" d="M305.3,18.2c1,0,2,0,3.1,0c0,0.3,0,0.4,0,0.6c-1,0-2,0-3.1,0C305.3,18.7,305.3,18.4,305.3,18.2z"/>
	<path class="st127" d="M312.1,16.9c0.1,0.1,0.4,0.3,0.5,0.4c-0.1,0.1-0.1,0.1-0.3,0.3C312.4,17.4,312.1,17.3,312.1,16.9
		C312.1,17,312.1,17,312.1,16.9z"/>
	<path class="st57" d="M130,18.8c0-0.4,0-0.8,0-1.1c0.1,0,0.3,0,0.4,0c0.1,0.4,0.1,0.8,0.3,1.1C130.3,18.8,130.2,18.8,130,18.8z"/>
	<path class="st29" d="M126.9,17.7c0.3,0,0.4,0,0.6,0c-0.1,0.1-0.3,0.4-0.4,0.5C127,17.9,127,17.8,126.9,17.7z"/>
	<path class="st54" d="M398.6,17.7c0.3,0,0.4,0,0.6,0c0,0.3,0,0.4,0,0.6c-0.3,0-0.4,0-0.6,0C398.6,18.1,398.6,17.8,398.6,17.7z"/>
	<path class="st128" d="M429.7,16.4c0.4,0,0.8,0,1.3,0c0,0.5,0,0.9,0,1.3c-0.6,0-1.3,0-1.8,0C429.2,17.2,428.8,16.4,429.7,16.4z"/>
	<path class="st129" d="M136.1,17c0.5,0.1,1.1-0.3,1.3,0.6c-0.4,0-0.8,0-1.3,0C136.1,17.4,136.1,17.2,136.1,17z"/>
	<path class="st25" d="M203.5,18.8c-0.1-0.1-0.4-0.3-0.5-0.4c0.1-0.1,0.4-0.1,0.5-0.3C203.5,18.4,203.5,18.7,203.5,18.8z"/>
	<path class="st130" d="M406.5,18.2c0.3-0.3,0.4-0.4,0.6-0.6C406.9,17.8,406.7,18.1,406.5,18.2z"/>
	<path class="st131" d="M305.3,18.8c1,0,2,0,3.1,0c0,0.1,0,0.3,0,0.3c-1.7,0.4-3.3,0.6-4.9,0.9c-1.1,0-2.4,0-3.6,0
		c-0.3,0-0.5-0.4-0.8-0.6c0.4-0.3,0.8-0.4,1.3-0.6c0.3,0,0.4,0,0.6,0c0,0.4,0,0.8,0.6,0.4c0.4-0.3,0.8-0.3,1.3-0.4
		c0.1,0.1,0.1,0.4,0.3,0.5c0.1-0.1,0.3-0.4,0.4-0.5C304.1,18.8,304.7,18.8,305.3,18.8z"/>
	<path class="st120" d="M302.9,18.8c-0.4,0.1-0.9,0.1-1.3,0.4c-0.5,0.4-0.5,0-0.6-0.4C301.6,18.1,302.3,18.1,302.9,18.8z"/>
	<path class="st120" d="M300.5,18.8c-0.4,0.3-0.8,0.4-1.3,0.6c0-0.4,0-0.8,0-1.5C299.8,18.4,300.1,18.6,300.5,18.8z"/>
	<path class="st120" d="M305.3,18.8c-0.6,0-1.3,0-1.8,0c0.3-1.1,1.3-0.4,1.8-0.6C305.3,18.4,305.3,18.7,305.3,18.8z"/>
	<path class="st120" d="M303.5,18.8c-0.1,0.1-0.3,0.4-0.4,0.5c-0.1-0.1-0.1-0.4-0.3-0.5C303,18.8,303.3,18.8,303.5,18.8z"/>
	<path class="st23" d="M383.2,20.7c0.3-0.3,0.4-0.4,0.6-0.6c0,0.3,0,0.4,0,0.6C383.6,20.7,383.4,20.7,383.2,20.7z"/>
	<path class="st23" d="M383.8,20.1c-0.1-0.5,0.3-1.1-0.6-1.3c0-0.9,0.8-0.5,1.3-0.6C384.1,18.8,385,19.9,383.8,20.1z"/>
	<path class="st132" d="M366.6,18.2c0.5,0.1,1.1-0.3,1.3,0.6c-1.4,0-2.8,0-4.3,0c0.3-0.3,0.5-0.5,0.8-0.6
		C365.1,18.2,365.9,18.2,366.6,18.2z"/>
	<path class="st19" d="M432.8,17.7c0.1-0.1,0.3-0.4,0.4-0.5c0.1,0.1,0.1,0.4,0.3,0.5C433.3,17.7,433.1,17.7,432.8,17.7z"/>
</g>
</svg>
