<svg viewBox="0 0 803 52">
<style type="text/css">
	.st0{fill:#183254;}
	.st1{fill:#FEFEFE;}
	.st2{fill:#123C61;}
	.st3{fill:#13395D;}
	.st4{fill:#2C5374;}
	.st5{fill:#113A5E;}
	.st6{fill:#2B5273;}
	.st7{fill:#214B6D;}
	.st8{fill:#395D7C;}
	.st9{fill:#123A5E;}
	.st10{fill:#20486B;}
	.st11{fill:#264C6E;}
	.st12{fill:#113E62;}
	.st13{fill:#13385B;}
	.st14{fill:#CCD6DD;}
	.st15{fill:#E0E5EA;}
</style>
<g>
	<path class="st0" d="M729.1,7.5c0.3,0,0.6,0,0.9,0c7.4,0.6,14.8,0.1,22.2,0.3c2.4,0.1,4.9-0.2,7.3,0.2c6.1,0.1,12.5,1.2,18.3-0.1
		c4.9-1.1,8.1,0.7,11.7,2.5c1.2,0.6,2.6,1.1,3.6,0.4c2.1-1.3,2,0.8,2.7,1.4c1.3,1.1,0,1.3-0.8,1.8c-0.3,0.2-0.7,0.6-0.6,0.8
		c1.5,3.4-1.1,6.1-1.5,9.1c-0.1,0.5-0.1,1.4-0.4,1.6c-2.5,1.1-4.2,3.5-7.4,3.6c-2.3,0-5.1-0.2-6.8,2.3c-1,1.5-2.6,1.4-4,0.9
		c-1.6-0.6-3.1-0.5-4.8-0.3c0.1,1.1,2.5,0.5,1.7,1.9c-0.5,0.9-2,2.2-2.8,2c-4.2-1-7.9,0.9-11.6,1.9c-6.3,1.8-12.6,2-19,1.8
		s-12.9-0.7-19.3,0.5c-1.6,0.3-3.4-0.2-5.1-0.5c-3.4-0.5-6.8-0.2-10.2,0.7c-4.8,1.3-9.6-0.3-14.4-0.2c-0.7,0-1-0.4-1-1.1
		c-0.1-1.6-1.7-1.3-2-0.9c-2.1,2.3-4.1,1.6-6.6,0.6c-2.3-0.9-3.6,2.6-6,2.3c-1.4,0.3-2.8,0.3-4.1,0c-3-1-6.7,0.6-9.4-2.1
		c-0.3-0.3-1.1-0.2-1.7-0.2c-9.7,0.5-19.4,0.1-29,1.7c-2.6,0.5-5.6-0.5-8.5-0.4c-5,0.2-10.1-0.5-15.1-0.5
		c-6.7-0.1-13.3-0.2-20.1,0.2c-5.6,0.4-11.3,0.8-16.9,0.9c-4.4,0.1-8.9-1.2-13.3,0.2c-2,0.8-4.3-0.3-6.3,0.6c-0.4,0-0.9,0-1.3,0
		c-3.3-0.6-6.5-0.6-9.8,0c-5.3,0.4-10.7,1.2-16,1.2c-4,0-8,0.4-12.1,0c-3.3-0.4-6.7,0.7-10.1,0.8c-9.7,0.4-19.3,0.5-29-0.3
		c-3.9-0.3-8.1,1.8-11.6-1.3c-9.2,3.1-18.4-1.6-27.6-0.3c-2.3-0.6-4.6-0.6-6.9,0c-4.9,0-9.7,0-14.6,0c-1.9-0.6-3.9-0.4-5.9-0.1
		c-1.1,0-2.1,0-3.2,0.1c-1.6-0.9-3.3,0.2-4.9-0.6c-6.9-0.7-13.9-2.4-20.7-1.9c-9.1,0.6-18.2-0.4-27.2,1c-3.7,0.6-7.4-0.5-11.2,0.1
		c-2.3,0.4-4.7,0.5-7.1,0.8c-5.1,0.6-10.2,0.3-15.3,0.1c-2.8-0.5-5.5-1.5-8.1-2.4c-4.1-1.4-8-0.2-11.9-0.6c-9.1-1-18.3-0.3-27.5-1.2
		c-4.3-0.4-8.7,0.5-13.2-0.1c-6.2-0.8-12.5,0.2-18.6-0.3c-5.6-0.4-11.2,1.7-16.7,0.1c-3.7-1.1-6.7,1.1-10.2,0.9
		c-8.5-0.6-16.8,1.9-25.3,1.3c-5.2-0.4-10.4-0.9-15.6-1.4c-4.4-0.4-8.7,0.7-13.1,0.7c-11.2-0.1-22.5-0.1-33.7,0.1
		c-1.4,0-2.9-1.2-4.3,0c-1,0.9-2.4-0.1-3.4,0.7c-6.8,0.8-13.4-0.8-20.1-1.4c-1.7-0.2-3.2,1-5,0.4c-4.4-1.3-8.8-0.3-13.2,0.5
		c-2.8,0.4-5.7-0.3-8.5,0.4c-6.8,0-13.6,0.2-20.5,0c-3.3-0.1-7.5,0.2-9.8-1.1c-4.4-2.5-10.2-0.8-13.7-5.5c-1.3-1.8-4.4-2.4-6.9-3
		c-1.5-0.4-2.3-1.1-3.3-2.1c-2.1-2.2-1.6-3.6,1.2-4.5c-2.2-2.2-1-6.5,2.4-7.3c1.7-0.4,3.5-1,5.3-0.9c0.9,0,2.1,0.4,2,0.9
		c-0.3,1.1-0.7,2.2,0.5,2.6c1.1,0.4,1.6-1,2.4-1.6c0.4-0.3,0.8-0.4,1.2-0.3c8.9,1.3,17.8,0.3,26.8-0.4c4.9-0.1,9.7-0.4,14.6,0.1
		c0.2,0.4-0.4,1.2,0.6,1.2c0.1,0,0.1-0.6,0.2-0.9c1.2-1.2,2.7-0.5,4.1-0.4c0.9,0.1,1.9,0.4,2.8-0.1c1.8-0.5,3.7,0.4,5.5-0.5
		c1.6,2.7,4.4,2.1,6,1s2.9-0.7,4.4-1c3,0.5,6.1,0.6,9.1,0c3.6-0.2,7.2-0.5,10.8-1.3c0.6-0.1,1.2-0.2,1.7-0.1
		c8.9,1.8,17.6-1.8,26.5-0.9c1.4-0.3,2.8-0.5,4.1,0.2c0.4,0.7,0.7,1.4,1.7,1.2c4.8-1,9.7-0.8,14.6-1c8.7-0.4,17.4-0.3,26.1-0.4
		c1.1-0.5,2.4,0.2,3.5-0.5c5-0.5,10-1.5,14.9-1.1c2.3,0.2,4.6-0.9,7.2,0.2c3.3,1.4,6.8-1.4,10.4-1.4c4,0,8.4-1.4,12.1-0.3
		c6.9,2.1,13.6,0.2,20.3,0.8c3.1,0.3,6-2.4,9.1-0.2c0.7,0.5,1.1-0.6,1.6-1.1c0.6-0.6,1.5-0.8,1.8-0.4c2.8,3.6,6.7,0.8,9.9,1.9
		c1.3,0.4,3.2-1.7,4,1.1c0.1,0.6,1,0.4,1.1,0.1c1.2-2.6,3.2-1.2,5-1.1c2.6,0.2,5.1,1.4,7.7,0.1c1.5-0.8,1.8,1.3,3.1,1.4
		c2.5,0.2,4.9-0.1,7.1-1.4c1.5,0.6,0.8-1.1,1.5-1.4c1.8,0.1,3.7,0.1,5.5,0.2c0.4,0.1,0.9,0.1,1.3,0.2c0.8,0.1,1.6,0.8,2.5,0.4
		c0.4-0.1,1.5,0,0.6-0.7s-1.1-1.5-0.1-1.3c2.2,0.4,3.4-1.7,5.4-1.5c1,1.3,2.2,1.3,3.6,0.7c3.5,1.3,7.4,0.5,10.6,0
		c2.2-0.4,5.1-0.4,7.2-1.5c2.4-1.2,2.4,1.8,3.9,1.5c2.1-0.4,4.5-1.5,6.2-0.9c4.1,1.4,8.3-1.2,12.2,0.8c0.4,0.2,0.9,0.1,1.4,0.1
		c1,0,2.3-1.7,2.9-0.1c0.6,1.7-1.8,1.3-2.7,3c8.2,1.2,16.2,2.2,24.4,1.9c3,0.7,6,0.2,9,0.3c0.8,0.1,1.4-0.5,2.2-0.4
		c6.4,0,12.9,0.1,19.3,0.1c5.1,0.8,10.3-0.2,15.4,0.5c4.6,0.7,9.3,0.2,13.9,0.3c0.5,0,0.8-0.3,1-0.8c0.5-0.1,0.9,0.1,0.9,0.6
		c0.7,1.2,1.8,0.7,2.8,0.7c7.8,0.1,15.6,0.1,23.5,0c3.4-0.1,6.8-0.5,10.2-0.8c5.6-0.4,11.1-0.1,16.7-0.2c1.3,0,2.6,0.2,3.8-0.3
		c7.1,0.1,14.3-0.6,21.4-0.9c11.5-0.5,23-0.6,34.5-1.4c9.3-0.7,18.5-1.2,27.8-1.2c24.8,0.1,49.6,0,74.3-0.1c8.7,0,17.3-0.5,26-0.8
		c1.4-0.4,2.8-0.3,4.1-0.1c0.9,0,1.9,0,2.8,0c8-0.5,16-0.1,24-0.2C726.4,7.7,727.8,8,729.1,7.5z"/>
	<path class="st1" d="M759.4,7.9c-8.7,0-17.4,0-26.1-0.1c-1.1,0-2.3,0.3-3.4-0.4c9.1,0,18.1-0.1,27.2-0.1
		C758,7.4,758.8,7.3,759.4,7.9z"/>
	<path class="st1" d="M729.1,7.5c-5.1,0.9-10.2,0.3-15.4,0.4C709.5,8,705.2,8,701,8c0.9-0.8,1.9-0.6,2.9-0.6
		C712.4,7.4,720.8,7.4,729.1,7.5z"/>
	<path class="st2" d="M381.2,6.8c-1.2,2.4-2.1,4.5-5.1,4c-0.5-0.1-1.2,0.1-1.3-0.8c-0.1-0.8,0.2-1.7,0.8-1.7
		C377.6,8.5,378.8,6.5,381.2,6.8z"/>
	<path class="st1" d="M510.1,12.3c-5.3,1.1-10.7,0.2-16,0.5c-1.5,0.1-3,0-4.5,0c4.4-1.2,8.8-0.3,13.2-0.5
		C505.2,12.2,507.7,12.3,510.1,12.3z"/>
	<path class="st3" d="M398.4,11.4c-1.9,1.3-3.2-2.2-5.1-0.6c-0.6-0.8-0.6-1.5,0.4-1.9c1.7-0.7,3.4-0.8,4.9,0.5
		C399,10.1,398.8,10.7,398.4,11.4z"/>
	<path class="st1" d="M314.3,40.9c5.1,0,10.2-0.1,15.3-0.1C324.5,41.9,319.4,41.8,314.3,40.9z"/>
	<path class="st1" d="M437.4,12.8c-5.1-0.2-10.3,0.7-15.4-0.5C427.1,12.5,432.3,11.6,437.4,12.8z"/>
	<path class="st1" d="M68.1,15.7c-4.9,0-9.7-0.1-14.6-0.1C58.3,14.8,63.2,14.5,68.1,15.7z"/>
	<path class="st4" d="M402.6,12.2c-0.3,0.7-0.8,0.8-1.5,0.7c-0.2-0.2-0.2-0.3-0.1-0.4s0.1-0.2,0.2-0.2c0.1-0.2,0.2-0.4,0.2-0.6
		c0.2-0.9-0.5-2.2,0.7-2.7c0.4-0.2,1.2,0.2,1.5,0.6C404.8,10.8,402.8,11.2,402.6,12.2z"/>
	<path class="st5" d="M453.2,12.9c-0.3-0.2-0.6-0.4-0.9-0.6c-0.9-1.6,1.9-1.7,1.4-3.2c-0.1-0.2,0.8-0.2,1.1,0.1
		c0.3,0.2,0.8,0.5,0.4,1C454.5,11.1,453.8,12,453.2,12.9z"/>
	<path class="st1" d="M401.2,12.3c0.1,0.2,0.1,0.4,0,0.6c-3.2-0.4-6.5,0.6-9.7-0.6C394.7,12.3,397.9,12.3,401.2,12.3z"/>
	<path class="st1" d="M537.5,41.5c3.3-0.9,6.5-0.9,9.8,0C544.1,41.5,540.8,41.5,537.5,41.5z"/>
	<path class="st1" d="M65.8,38.6c2.8-1.4,5.6,0,8.5-0.4C71.5,39.3,68.6,38.7,65.8,38.6z"/>
	<path class="st1" d="M100.7,15c-3,0.7-6.1,0.7-9.1,0C94.7,15.1,97.7,15,100.7,15z"/>
	<path class="st1" d="M424.2,41.5c2.3-0.9,4.6-1,6.9,0C428.8,41.5,426.5,41.5,424.2,41.5z"/>
	<path class="st6" d="M398.4,11.4c-0.6-0.7-0.3-1.3,0.1-2c0.7,0.3,2.3-0.6,2,1.2C400.3,12.1,399.2,11.4,398.4,11.4z"/>
	<path class="st1" d="M548.7,41.5c2-1.4,4.2-0.2,6.3-0.6C553,42.1,550.7,41.2,548.7,41.5z"/>
	<path class="st7" d="M420.7,10.1c-0.3-1.2-2.3-2.8,0.7-3.4C421.6,7.9,422.6,9.3,420.7,10.1z"/>
	<path class="st8" d="M312.7,10.2c-0.2-0.2-0.4-0.3-0.5-0.5c0.9-0.4,1-1.9,2.3-1.6c0.8,0.2,0.5,0.8,0.5,1.4
		C314.4,10.4,313.8,10.8,312.7,10.2z"/>
	<path class="st9" d="M412.2,9.5c0.7,0,1,0.4,0.9,1.1s-0.4,1-1.1,0.9s-0.9-0.5-0.9-1.2C411,9.6,411.5,9.4,412.2,9.5z"/>
	<path class="st1" d="M403.8,41.4c2-1,3.9-0.9,5.9,0.1C407.7,41.4,405.7,41.4,403.8,41.4z"/>
	<path class="st10" d="M8.7,23.4c-0.7,0.1-1.1-0.2-1.1-0.9c0-0.4-0.1-1,0.4-1.1c0.8-0.1,1.2,0.5,1.4,1.2C9.6,23.1,9.2,23.3,8.7,23.4
		z"/>
	<path class="st1" d="M81.2,15c-1.8,1-3.7,0.3-5.5,0.5C77.5,14.5,79.4,15.3,81.2,15z"/>
	<path class="st11" d="M463.1,9.1c-0.3,0.3-0.7,0.8-1.2,1c-0.8,0.2-0.9-0.4-0.9-1c0-0.7,0.3-1,1.1-0.9C462.6,8.3,463,8.4,463.1,9.1z
		"/>
	<path class="st12" d="M445.6,8.8c-1.5,0.8-2.4,0.9-3.5-0.1C443.2,7.8,444.1,8,445.6,8.8z"/>
	<path class="st1" d="M395.7,40.8c1.6,0.4,3.4-0.6,4.9,0.6C399,41.2,397.2,42.1,395.7,40.8z"/>
	<path class="st1" d="M420.7,10.1c1.2-0.9,0.9-2.2,0.7-3.4C421.9,8,423.6,9.5,420.7,10.1z"/>
	<path class="st1" d="M325.4,7.4c-1.3,0.5-2.8,1.6-3.6-0.7C323,7.3,324.2,7.5,325.4,7.4z"/>
	<path class="st1" d="M143.9,13c-1.4-0.1-2.8-0.1-4.1-0.2C141.1,12,142.5,11.8,143.9,13z"/>
	<path class="st1" d="M669.1,40.9c1.4,0,2.8,0,4.1,0C671.8,41.8,670.4,41.8,669.1,40.9z"/>
	<path class="st1" d="M698.2,7.9c-1.4,0-2.8,0-4.1,0.1C695.5,7,696.8,7.1,698.2,7.9z"/>
	<path class="st1" d="M72.9,15.6c-1.4,0-2.8-0.4-4.1,0.4C70,14.4,71.4,14.9,72.9,15.6z"/>
	<path class="st13" d="M440.2,9.8c-0.4,0.2-0.7,0.3-0.9,0.4c-0.5,0.1-0.9,0-1-0.6s0.3-0.9,0.8-0.7C439.3,9,439.6,9.4,440.2,9.8z"/>
	<path class="st1" d="M306.7,9.5c-0.5,0.7,0.4,1.6-0.5,2.1c-0.1,0.1-0.7-0.5-1-0.7C305.7,10.4,306.2,10,306.7,9.5z"/>
	<path class="st1" d="M312.7,10.2c0.8-0.2,1.5-0.5,2.3-0.7c0.3,0.3,0.7,0.6,1,0.8C314.9,11,313.8,11.5,312.7,10.2z"/>
	<path class="st1" d="M189.8,12.3c-1,1.1-2.3,0.4-3.5,0.5C187.4,11.9,188.7,12.4,189.8,12.3z"/>
	<path class="st1" d="M112.6,38.7c1-1.1,2.4-0.1,3.4-0.7C115.1,39.2,113.8,38.5,112.6,38.7z"/>
	<path class="st14" d="M728.4,34.8c1.5,0.2,2.5,0.2,3.3,0.6c0.5,0.2,2-0.6,1.5,0.9c-0.2,0.6-1.1,1.5-1.8,0.5S729.4,36.4,728.4,34.8z
		"/>
	<path class="st15" d="M764.1,32.6c-0.7,1.2-1.4,2.1-2.7,1.3c-0.6-0.4-0.2-0.6,0-1C762.2,31.2,763.3,33.1,764.1,32.6z"/>
</g>
</svg>
