<svg viewBox="0 0 791.2 72">
<style type="text/css">
	.st0{fill:#183254;}
	.st1{fill:#F0F3F5;}
	.st2{fill:#F0F2F5;}
	.st3{fill:#ECEFF2;}
	.st4{fill:#F1F3F5;}
	.st5{fill:#F1F3F6;}
	.st6{fill:#EFF1F4;}
	.st7{fill:#FEFEFE;}
	.st8{fill:#EDF0F3;}
	.st9{fill:#EEF1F4;}
	.st10{fill:#F0F2F4;}
	.st11{fill:#183356;}
	.st12{fill:#EFF1F3;}
	.st13{fill:#163558;}
	.st14{fill:#183255;}
	.st15{fill:#EBEEF1;}
	.st16{fill:#ECEFF1;}
	.st17{fill:#183357;}
	.st18{fill:#EAEDF1;}
	.st19{fill:#173457;}
	.st20{fill:#15375B;}
	.st21{fill:#163557;}
	.st22{fill:#EEF1F3;}
	.st23{fill:#163659;}
	.st24{fill:#12385C;}
	.st25{fill:#EFF0F3;}
	.st26{fill:#EDF0F2;}
	.st27{fill:#12385B;}
	.st28{fill:#103D61;}
	.st29{fill:#1B4567;}
	.st30{fill:#154064;}
	.st31{fill:#2D5475;}
	.st32{fill:#183153;}
	.st33{fill:#C5CFD8;}
	.st34{fill:#F2F3F5;}
	.st35{fill:#F8F9FA;}
	.st36{fill:#F9FAFB;}
	.st37{fill:#FFFFFE;}
	.st38{fill:#EAEEF1;}
	.st39{fill:#FBFCFC;}
	.st40{fill:#ECEFF3;}
	.st41{fill:#E9ECF0;}
	.st42{fill:#FDFDFD;}
	.st43{fill:#E8ECEF;}
	.st44{fill:#F0F1F4;}
	.st45{fill:#E8EBEF;}
	.st46{fill:#E0E5EA;}
	.st47{fill:#E4E9EC;}
	.st48{fill:#ECF0F3;}
	.st49{fill:#13395D;}
	.st50{fill:#EAEEF2;}
	.st51{fill:#E6EBEF;}
	.st52{fill:#CDD5DD;}
	.st53{fill:#E8ECF0;}
	.st54{fill:#EDF0F4;}
	.st55{fill:#EFF2F5;}
	.st56{fill:#EEEEF1;}
	.st57{fill:#E6EBF0;}
	.st58{fill:#E9ECEF;}
	.st59{fill:#E1E7EB;}
	.st60{fill:#E9EDF3;}
	.st61{fill:#E8ECF1;}
	.st62{fill:#193153;}
	.st63{fill:#193154;}
	.st64{fill:#FFFFFF;}
	.st65{fill:#FDFEFE;}
	.st66{fill:#FEFFFF;}
	.st67{fill:#13385B;}
	.st68{fill:#123F63;}
	.st69{fill:#143E64;}
	.st70{fill:#143F63;}
	.st71{fill:#F4F6F8;}
	.st72{fill:#E5EAEE;}
</style>
<g>
	<path class="st0" d="M40.5,43.1c0.2,0,0.4,0,0.6,0c2.1-0.6,4.7,1.3,6.4-1.4c0.2,0,0.4,0,0.6,0c1.1,0.4,2.2,0.9,2.8,2.2
		c0.5,1.1,1.4,2.2,2.9,1.3c0.4-0.1,0.9-0.1,1.3-0.2c0.6-0.3,0.4-1.5,1.2-1.5c3.4,0,6.4-1.5,9.6-2.1c1.9-0.4,4,1,5.9-0.4l0,0
		c1.7-1.2,3.1-3.2,5.5-1.1c0.5,0.5,1.5,0.3,1.9-0.3c2.5-2.8,5.7-3.7,9.3-3.5l0,0c2.6-3.5,6.6-3.6,10.3-4.2c2.7-0.4,3.2,0.6,2.2,3.4
		c4,0.2,6.2-3.1,9.3-4.7c2.5-1.3,4.7-3.9,8.1-2.4c0.5-0.2,0.9-0.5,1.4-0.7c2.3,0.7,3.9-2.3,6.2-1.1l-0.1-0.1
		c1.2,2.3-1.9,2.1-2.1,3.6c1.5-0.8,2.2-2.2,3.1-3.5h-0.1c1.4-1.3,1.5,0.5,2.1,0.9c0.6,0.3,1.4,1.2,1.3-0.5c0-0.2,0-0.4,0-0.5
		c0.4-0.7,0.6-2.4,1.5-1.8c2.6,1.4,5-1.1,7.5,0c1.2,0.5,2.4-0.2,3.5-1c0.2,0,0.4,0,0.5,0c2.3,2,5,1.8,7.8,1.4l0,0
		c1.4-0.5,2.8-0.9,4.1,0.2v0.2c-0.1,0.6-0.8,1.6,0.1,1.8c1.8,0.3,3.1,1.8,4.8,2l0,0c1.2,0.4,2.1-0.5,3-1c2.1-1.3,2.9-0.4,3.3,1.6
		c0.5-0.2,0.9-0.5,1.4-0.7c2.1-1.6,4.2,1.3,6.3,0.1c0.3-0.2,1.1,0.4,1.2,0.1c0.8-2.4,1.6-1.1,2.5-0.1c0.1,0.1,0.7-0.4,1.1-0.6
		c0.2,0,0.4,0,0.6,0c1.9-1.7,4.3-1.3,6.5-1.4c0.4,0.5,0.9,0.7,1.6,0.7c1,0.5,1.6,2.8,3.1,0.6c0.2,0,0.4,0,0.6-0.1
		c0.6-0.7,0.5-2.4,1.9-1.9c1.2,0.5,0,1.6,0,2.4c0,2.5-1,3.8-3.7,3c3.1,0.6,6-0.9,9-0.3c0.8,0.2,2.6,0.5,1.3-1.8
		c-0.7-1.3,1.8-1.2,2.6-2l0,0c2.5-0.6,5.2,0.3,7.7-0.8c1-0.4,2.3,0,2.7-1.6c0.2-1,1.5-0.9,2-0.4c1.1,1.1,1.7,1.4,2.2-0.5
		c0.3-1.1,1.2-0.8,2.2-0.5c1.1,0.3,2.2,1.4,3.5,0.4l0,0c1-0.7,1.3-1.8,1.9-2.8c0.6-1,1.9-1.6,2.6-0.9c1.2,1.3-1,1.2-1.2,2.1l0.1-0.1
		c-0.4,1.4-0.3,2.4,1.6,2.3c0.2-0.3,0.5-0.5,0.7-0.8c0.2-0.2,0.4-0.5,0.6-0.8c0.5-1.1,1.2-2.1,2.5-1.4c1.5,0.8-1.4,1.3-0.3,2.3
		c0.2,0,0.4,0,0.6,0c1.9,0.7,2.9-0.6,4.1-1.6c0.9-0.7,1.4-2.1,2.9-2c0.2,0.1,0.4,0.2,0.7,0.1c0.9,2.2,3.7-0.4,4.7,1.8
		c1.7-1,3.5,0.2,5.2-0.3l0,0c1.3-1.5,2.7-2.8,4.9-2.9c0.8,0.5,0.5,1.3,0.6,2c-0.3,0.8-1.1,1.6-0.1,2.3c0.8,0.5,1.6,0.5,2.5-0.2
		c1.1-0.8,2.1-2.2,3.8-1.4l0,0c1.3,1.8,2.7,2.7,4.5,0.5c0.4-0.4,1-0.9,1.8-0.5l0,0c0.6,1.2,0.3,3.1,2.7,2.5c0.8-0.2,1.6,0.3,2,1.1
		c0.9,1.6,2.4,1.6,4.4,1.7c-1-0.1-0.2,0-0.4-0.1c-3.5-0.5-6.2-1.7-0.8-3.5c2.8-0.9,2-3.7,4-4.5c0.2,0,0.4,0,0.6-0.2
		c1.4,0.1,2.8-0.8,4.1,0.3l-0.1-0.1c0.2,0.1,0.5,0.2,0.6,0.4c0,3.6,2.7,2.9,4.6,2.5c2.5-0.5,5.4-0.2,6.9-3c0.2,0,0.4,0,0.5,0
		c1.7,1.1,3.2-0.3,4.9-0.5c2.6-0.2,4.6,1.8,7.1,1.2l0,0c0.7-0.6,1.4-1.3,2.5-1c2,0.7,3.8,0.1,5.6-0.5c2.8-1,3.9-0.3,4.6,2.5
		c0.3,1-0.4,2.8,1.2,2.8c1.8-0.1,3.9,1.6,5.5-0.3c1.4-1.7,2.5-1.9,4.2-0.3c1.3,1.2,2.8,1.6,4.2-0.1c0.7-0.9,1.6-1.9,2.7-0.3
		c0.4,0.5,1,0.2,1.6,0c1.6-0.6,3.5-2,3.9,1.2c0,0.1,0.1,0.1,0.3,0.2c1.1,0.8,9.7,0.8,10.7,0c0.3-0.2,0.7-0.5,0.6-0.8
		c-1.2-4.2,2.1-2,3.5-2.5c1,1,2.9,0.6,3.7,2.3c0.4,0.8,1.5,0.8,2-0.1c0.8-1.6,2.7-1.6,3.7-2.9c0.4-0.5,1.1-1,1.8-0.5
		c0.8,0.6,0,1.2-0.2,1.8c-0.3,0.7-1,1.2-1.3,2.2c1.1,0.7,2-1.7,3.2-0.3c0.4,0,0.9,0,1.3,0c0.2,0.2,0.7,0.6,0.8,0.4
		c1.8-3.1,5.4-3.1,8.1-4.6c1.2-0.6,2.6-0.8,3.6,0c1.2,0.9-0.4,1.7-0.7,2.8c2.9-1.3,6-0.6,8.7-2l-0.1,0.1c2-1.4,4.5,0.7,6.4-0.8
		c0.6,0,1.2,0,1.7-0.1c1,0.4,2.3,0.5,1.7-1c-1-2.5,0.4-2.5,2.1-2.3c3.1,0.3,6,1.7,9.3,1.5c2.4-0.1,4.5-0.2,6-2.5
		c1-1.6,3.8-0.6,4.8-2.6l0,0c0.7-1.1,1.4-1.7,2.2-0.1c0.4,0.9,0.8,0.3,1.3,0l0,0c0.4-0.7,1.2-1.5,1.9-0.8c1.5,1.5,2.1-0.3,3.1-0.6
		c0.2,0,0.4,0,0.6,0c2.2-0.7,4.5-0.1,6.7-1c0.2-0.1,0.5,0.4,0.4,0.8c-0.7,1.5,0.6,1.6,1.5,1.9c-0.1-0.9-2.5-0.5-1.2-2.1
		c1.5,0.1,3-0.4,4.4,0.4c0.9,1.4,0.8,4.5,3.8,2c0.4-0.3,0.8-0.5,1.2-0.7c2.3-1.4,4.3-0.9,6.2,0.7l0,0c1.6,0.7,3-0.4,4.4-0.7
		c0.9-0.2,1.7-0.2,2.6,0.1c0.2,0,0.4-0.1,0.6-0.1c1.8,0.2,3.5,1.7,5.5,0.7c0.3-0.3,0.6-0.5,0.8-0.8c1-0.2,1.2-2,2.8-1.1
		c1.9,1.1,3.2,0,4.2-1.6l0,0c1.2-1.6,2.6-1.3,4.1-0.7l-0.1-0.1c0.8,3.3,2.6,4,5.4,2.3c1.7-1,3.4-0.8,5.1-0.2l0,0
		c3.5,1.3,6.9,1.5,10.1-0.7c0.4-0.3,1.4-0.5,1.6-0.3c2.8,3,7.4-0.7,10.1,2.6c0.2,0.2,0.9,0,1.3-0.2l-0.1,0.1c0.7-1.1,1.4-0.2,2,0.1
		c1.7,0.7,2.3-0.2,2.6-1.7c0.2-0.7,0.4-1.3,1.3-1.3c3.2,2.1,7,0.3,10.4,1.6c0.6,0.2,1.7-0.1,1.8,0.6c0.3,3.2,2.6,2.2,4.4,2.2
		c1.5,0,3.1-0.7,4.3,1.2c0.4,0.7,2.4,1.5,3.8,0.5c0.2,0,0.4,0,0.5,0c1.8-0.5,3.7-0.3,5.3-2.1c1.1-1.2,3.9-0.5,5.9-0.6
		c0.8,0,1.1,1-0.1,1.6c-1.9,1,0,2.1,0.4,1.9c2.7-1.1,5.4,1.1,8-0.1l0,0c1.2-1,2.2-2.4,4.1-1.9l0,0c3.9-0.4,7.6,0.2,11.4,0.9
		c0.2,0,0.6,0.1,0.6,0.3c0.9,3.6,4.1,1.8,6.1,2.7c2.6,1.1,4.9,0,7.3-0.6c0.8-0.2,1.9-0.7,2.3-0.3c2,1.9,3.8,0.7,5.9,0.3
		c1.6-0.3,3.3,1,5.5,0.7c1.8-0.3,4.1-0.3,5.9,0.1c2.4,0.6,3.9,0,5.2-1.7c1.3,0.5,1.7,2.6,2,2.3c2.8-2.3,6.3,0.7,9-1.4
		c0.2,0,0.4,0,0.6,0c1.1,0.8,1.1,2.5,3.3,2.6c2.1,0.1,0.4,1.4-0.2,2c-1.3,0.8-2.8,0.2-4.1,0.5c2,0.2,4.1-0.6,6.2-0.1
		c1,0.2,1.8-0.2,2.4-0.9c0.3-0.5,0.5-1,0.8-1.5c1.8-0.4,3.8-0.2,5.5-1.4c1.7-1.2,2.8,1.1,4.4,1.1c2.1,0.1,3.5,1.8,5.2,2.6h-0.1
		c1.1,0.9,0.3,1.4-0.4,1.8c-1.2,0.5-2.5,1-3.8,1.6c4.9-1.9,9.6-4.4,15.1-2.5c-1.2-0.2-2.3-0.3-3.5-0.6c-0.5-0.2-1.3-0.1-1-1
		c0.2-0.6,1-0.4,1.5-0.6h-0.1c2.9-1.4,5.9-0.8,8.7-1.4c0.7,2-2,1.2-1.4,2.4c0.4,0.9,1.7,0.9,2.7,1.2c3.3,0.9,6.3-0.9,9.5-0.8
		c0.7,0,0.7-0.7,1-1.2c0.9-1.3,2.1-2.1,3.7-1.2l0,0c0.6,3.2-2.7,4.1-3.7,6.4c-0.1,0.2-0.5,0.2-0.6,0c-1.9-3.3-4-0.5-5.5,0.2
		c-2.9,1.3-5.8,0.6-8.7,0.7c-1.8,0.1-3.7,0-5.5,0c-1.7-0.1-3.5-0.4-4.1,2.1c-0.3,1.1-1.4,1-2.3,0.4c-0.2-0.2-0.5-0.4-0.7-0.7
		c-0.8-0.7-1.1-2.4-2.8-1.1c-1.1,0.9-2.6,0.7-4,0.4c-0.9-0.2-1.8-0.3-2.7,0c-0.7,0.3-1.4,0.6-1,1.5c0.3,0.6,1,0.6,1.5,0.3
		c1.9-1,3.9-1.3,6-1.5c1.3-0.1,2.8,0.2,1.5,1.8c-0.8,1-0.6,1.5-0.2,2.3c0.6,1.1,1.4,0.2,2.1,0.2c1.2,0,2.2-0.4,3.2-1.1
		c0.9,0.4,1.3,1.5,2.6,1.4c3.1-0.3,6.2,3.2,9.4,0c0.2,1.3,2.5-1.5,2.2,1.2c-0.1,0.8,1.3,0.6,1.6,0.1c1.5-2.1,3.9-1.1,5.8-2
		c1.2-0.5,3.3-2.2,3.5,1.1c0,0.2,0.5,0.5,0.5,0.4c2.3-2.2,4.7,0.5,7-0.2c0.9-1.3,1.9-1.8,3.5-1.2c2.4,0.9,4.9,1.4,7.3,2.2
		c1.6,0.5,1.3,1,0.2,1.7c-3.6-1.1-7.2-1-10.9-0.2c-1.9,0.4-4.1-0.1-6.1-0.4c-5.5-0.8-10.8,0.7-16.3,0.3c-4.6-0.3-9.8-0.7-14.1,2.3
		c-0.4,0.3-0.9,0.1-1.2-0.2c-1.6-1.3-4.4-1.2-7.2-1.9c-3.3-0.8-6,1.8-9.1,0.9c-0.9-0.2-1.5,0.3-1.8,1.3c-0.5,0.6-1,0.6-1.7,0.4
		c-0.5-0.9-1.2-1.3-2.1-0.6c-0.1,0.1,0.4,0,0.7-0.1c0.5,0,0.9,0.1,1.2,0.5c0.8,1.4,0.2,2.2-1.2,2.5c-1.9,0.4-3.7,0.5-5.7,0.1
		c-2.6-0.6-5.5-1-7.4,2.1c-1.1,1.8-3,1.2-4.6,0.5c-0.4-0.2-0.2-0.8,0.3-1l-0.1,0.1c0.1-1.1,1.2-1.2,1.8-1.9c1.2-1.5,1.4-2.7-0.4-3.9
		c-1.7-1.6-4-2-6-1.6c-2.2,0.5-4.3,0.4-6.5,0.6c-1.1-0.9-2-1.4-3.7-0.8c-2.8,1.1-5.8-0.1-8.7-0.1c-4.4,0.1-8.6,0.7-12.7,2.3
		c-2.3,0.9-4.9,1-7.3,1.9c-2,0.2-2.7-1.5-3.1-2.7c-0.6-1.9,1-1.8,2.3-1.9c-3.7,0.4-6.9-2.2-10.7-1.3c0.3,0.5,2.7,0.9,0.2,1.9
		c-1.1,0.4-2.2,0.6-3.3,0.8h0.1c-0.7,1-1.8,1.5-2.8,2c-0.5,0.3-1.1,0.5-1.7,0.3c-0.1-0.2-0.1-0.5-0.2-0.7c-1.4-0.7-3.3-0.7-3.2-3
		c0-0.5-0.6-0.7-1.1-0.6c-2.4,0.8-4.6-0.1-6.8-0.7c-0.8-0.2-1.6-0.1-2.4,0.1c-3.1,1-6.4,1-9.6,1.2l0,0c-2.3-2.6-5.2-0.1-7.7-0.8
		c-1.6-0.6-0.4-1.8-0.6-2.7c-1.7-0.3-2,1.5-3.2,1.9c-0.4,0.2-0.9,0.3-1.3,0.4c-1,0.2-2,0.2-2.4-0.8c-0.5-1.1,0.6-1.6,1.4-2.1
		c0.3-0.2,0.6-0.3,0.7-1.1c-2.2,2.1-5.2,1.6-7.1,3.4c2.4-0.1,4.9,0.5,7.5,0.9c1.2,0.2,2.2,1,1.9,2.4c-0.3,1.5-1.7,1.2-2.6,1
		c-4.1-1-8.5,1.1-12.5-1.3c-0.1-0.1-0.9,0.7-1.4,1c-0.6,0-1.3,0-1.9,0c-0.6-1-1.3-1.2-2.2-0.5c-1.3,0.9-2.6,1-4,0.3
		c-2.6-1.2-4.8,0.5-7.3,0.8h-0.2c-2.6-0.9-5.3,0.3-7.9,0l0,0c-0.6-0.6-0.1-4.2-2.4-0.7c-1,1.6-3.6,0.8-5.4,1.4h-0.3h-0.3
		c-1.8-0.5-0.8-2-1.2-3.3c0.6,3.6-1.5,4-4,3.9h-0.2c-1.1-0.5-3.1,0.2-2.6-2.2c0.3-1.4-0.9-1-1.6-1c-4.7-0.1-9.4,0.5-14.2,0.1
		c-2.7-0.3-4.5-0.9-4.9-3.7c0.1-0.9,0.3-1.7-1.2-1.5c-2.7,0.4-5.5,0.2-8.1,0.6c-1.3,0.2-2.2,0.1-3-0.9c-2.4-0.8-4.3-0.3-5.6,1.9
		c-0.8,1.3-1.6,1.9-2.4,0.3s-3.5-0.5-3.4-3c-0.1,1.9-3.5,2.1-2.1,4.4c0.6,1.1,1.6,0.3,2.5,0c0.2,0,0.3-0.1,0.5-0.1
		c0.3,0,0.6,0.1,0.9,0.3c0.5,1.1,0.1,1.9-0.6,2.8c-0.5,0.4-1.3,0.3-1.9,0.5h0.1c-1.3,0-1.5,2.5-3.3,1.4c-1.5,0.3-2.9,0.5-4.4,0.8
		l0,0c-0.8,4.3-4.3,4.9-7.7,5.6c-0.7,0-1.3,0-2,0c-1.4-1.8,1.4-2.1,1.2-3.6c-0.9-0.7-1.8-0.5-2.7,0.1l0,0c-1.1,0.5-2.2,0.9-3.4,1.2
		c-1.8,0.4-0.6,1.2-0.1,1.8c0,0.3,0,0.7,0,1c-1.4,1-2.7,1.3-3-1c-0.1-0.8-0.4-1.4-1.2-1.3c-0.9,0.2-0.7,0.8-0.6,1.6
		c0.1,2.5-1.7,2.4-3.4,2.5l0.1-0.2c-0.2-0.2-0.3-0.5-0.3-0.8c0.7-1,0.8-1.9-0.4-2.6l0,0c-1.4-0.7-2.6-0.6-3.6,0.7l0,0
		c-2.7,1.4-5.3,2.6-8.7,2c-2.3-0.4-5.2,0.6-7.5,2.1l0.1-0.1c-0.4,1-1.4,0.4-2.1,0.8c-2.6,1.3-2.8-0.4-2.5-3
		c-1.3,1.7,0.4,5.9-3.6,3.8l0,0c-0.7-0.7-4.1,2.2-2.6-1.9c0.2-0.5-1.7-3.1-3.7-3.5c-0.2,0-0.5,0-0.7,0c-0.5,0.7-0.6,1.5-2,1.2
		c-2.5-0.6-5.3-1-6.7,2.1c-0.1,0.2-0.4,0.3-0.5,0.5c-1.2,1.9-2.4-3.6-4,0.1c-0.8,1.9-3.2,1-4.8,0.1c0-0.2,0-0.4,0-0.6
		c0.3-0.6,1.6-0.2,1.4-1.1c-0.2-1.1-1.3-0.8-2-0.5c-1.6,0.6-2.3,2.6-4,3c-0.7-0.4-0.7-0.9-0.5-1.5c1.3-2.7-0.1-2.5-2.2-2.2
		c-2.7,0.4-5.5,1.5-8-0.8v0.1c-1-0.3-2-0.2-3-0.2c-0.7,0-1.3,0.5-1.4,1.3c-0.5,3-0.4,3-4,1.6c0-0.3,0-0.6,0-0.9
		c0.2-0.6,0.6-1.6-0.2-1.7c-1.5-0.2-0.4,1.7-1.3,2.1c-0.8,0.2-0.6,0.8-0.6,1.3c-3.8,0.5-5-0.2-6.4-3.5c-0.2-0.5-0.9-0.6-1.3-1
		c-1.5-2.9-3.7-3.9-6.9-2.7c1.1,0.2,2.2,0,3.3,0.2c1.1,0.2,2.2,0.5,1.8,1.9c-0.4,1.3-1.3,2.4-2.8,1.7c-5.2-2.4-9.3,0.4-13.5,2.7
		c-0.2,0.2-0.4,0.4-0.7,0.6c-2.9,0.6-5.5-1.4-8.4-0.7l0,0c-1.3,1.1-3.1,0.6-4.5,1.4c2-0.6,3.7-0.6,3.8,2.2
		c-5.3,1.2-10.7,1.5-16.2,1.9h-0.2c-3.9-0.8-7.7,0.8-11.6,0.7h-0.2c-2.6-0.4-5.3-0.5-7.9,0.1l0,0c-1.2,0.8-2.7-0.9-3.9,0.2
		c-0.9-0.5-2-0.8-2.6-1.7c-0.3-0.4-0.5-0.7-0.7-1.2c-0.1-0.3,0-0.6,0.3-0.8l0,0c0.1-2.2-0.2-3.7-3.1-2.5c-1.8,0.7-3.4-1.3-5.3-0.7
		c-0.5,0.2-1.3-0.5-1.7-0.1c-1.9,2-3.9,1.5-6.2,0.9c-2.7-0.7-0.9,2.3-2.1,3.2c-1-0.5-2.5,0.2-2.7-2.4c-0.1-2.1-2.7-0.7-4.3-0.6
		l0.2,0.1l-0.2-0.1c-0.4,1.4-2,1.8-2.7,2.9h-0.3h-0.3c-2.4-0.1-4.6,1.2-7,1c-1.1-0.1-2.7,0.9-3.2-1.1c-0.4-1.6-0.8-3.2,0.8-4.5
		c0.3-0.2,0.9-0.3,0.6-1c-1.8-0.5-2.5,0.8-3,2.1c-0.5,1.2-0.7,2.5-1.5,3.5c-1,1.4-2,1.5-2.8-0.2c-0.2-0.5,0.4-1.6-0.8-1.4
		c-1,0.1-0.8,0.9-0.8,1.6c0,1.9-0.8,2.2-2.3,1.2l0.1,0.1c-1.2-1.3-3.1-0.4-4.4-1.3l0,0c-1.1,0.2-2.3,2-3.3-0.1l0,0
		c-0.7-0.2-1.4-0.3-1.9,0.4c-0.4,0.5-1.1,0.9-1.2,0.1c-0.4-3.1-2.3-2.1-4-1.6c-1.4,0.4-2.5,0-3.4-0.9c1.4-0.9-0.5-3.7,2.3-3.7
		c1.5,0.7,2.6-0.1,3.6-1c0.3-0.3-1.5-0.7-1.9-0.2s-0.7,0.9-1.3,1.1c-1.5-0.1-2.8-1.1-4.5,0.2c-0.9,0.7-3.2,1.1-3-1.8
		c0.1-1.7-2.4-2.1-4.6-0.6c-3,2-5.8,1.2-8.7-0.1l0,0c-2.2-0.3-4.3-1.1-6.3-2.1l0,0c-2.2-1.1-4.6-0.4-6.9-0.5c-1.2,0-2.5,0.7-3.5-0.4
		l0.1,0.1c-1.9,1-4.1-0.6-5.9,0.7l0.1-0.1c-2.1,1.3-5.5,0.6-6.5,3.9c-0.1,0.3-1.3,0.4-1.7-0.5c0.2-0.1,0.2-0.2,0.2-0.3
		c-3.3-0.7-6.2,0.5-7.9,3.5c-0.3,0.5-0.7,1.2-1.1,1.2c-4,0.3-6.7,3.1-10,4.8c-1.5,0.8-3.2,1-4.9,1.5c-0.2,0-0.4,0-0.6,0.1
		c-4.6,2-9.3,4.2-14.6,2.9c0.1-1.9,1.9-1.5,2.5-2.6c-1.4-0.8-2.6,0.5-3.8,0.5c-0.4-0.2,0.1-0.1-0.3-0.1c-1.3-0.1-2.3-2.2-3.8-0.5
		c0.9,0.6,2.1,0.1,3,0.9c0.9,1,1.3,2.1,0.2,3.2c-1,1-1.8,0.3-2.6-0.4l0,0c-0.9-0.2-2.2,1.9-2.8-1c-0.3-1.6-2.6-0.6-3.4,0.7
		c-1,1.5-1.8,1.4-2.8,0.1c-0.8-1.3-1.6-1.1-2.2,0.2c-2.8,0.9-5.2,3.4-8.5,1.1c-1.4-1-4,0.7-4.3,2.5c-0.2,1.5-0.5,2.2-2.4,1.9
		c-1.9-0.3-3.6,1.8-5.8,0.3c-1.3-0.9-3.2-0.8-3.3-3.1c0-0.5-0.8-1.7-2-1.3l0,0c-1.4,0.2-1.4,0.2-1.4-2.1c-0.4-0.2-0.8-0.8-1.4-0.6
		c-1.8,0.5-3.3,0.1-4.6-1.2c-1.8-1.9-4.6-1-6.5-2.5c0-0.2,0-0.4,0-0.5c0.3-2.2-1.2-2.9-2.8-3.6l0,0c-1.5-2.9-4.9-4.2-6.2-7.2v-0.2
		c-0.5-3.7-3-6.8-3.2-10.5c0-0.6-0.2-1.2,0.5-1.5l-0.1,0.1C8.7,29.8,8.8,29,8.8,28c-0.2-2.5,1.2-3.5,3-2c3.4,2.9,7.7,2.5,11.5,3.9
		c1.7,0.7,3.7,1,5.5,1.8c3.5,1.5,6.9,1.9,10.6,1.3c0.4-0.1,0.7,0.1,0.9,0.4l0,0c1.1,1.5,3.4,1.3,4.3,3.2c-2,1-2.9,3.4-5.1,4.1
		c-0.6,0.2-0.9,0.8-0.3,1.3C39.6,43.5,40.1,43.3,40.5,43.1z"/>
	<path class="st1" d="M740.2,19.9c1.6-1.6,3.1-3,5.1-0.5c0.8,1,1.9,0.5,2.9,0.6c0.8,0.1,1.7-0.3,2.1,0.7c0.5,1.2-0.6,1.3-1.3,1.6
		c-0.1,0-0.3,0.1-0.3,0.2c0.2,4.3-3.7,2.5-5.6,3.7c-0.8,0.5-3.2-0.5-1.7,2c0.1,0.1-0.3,0.7-0.5,0.7c-0.6,0.2-1.1,0-1.3-0.7
		c-0.4-1.2-1.2-1.6-2.4-1.4c-1,0.2-2.3,0.7-2.4-1c0-1.3,1.1-1.6,2.2-1.6c0.3,0,0.6-0.1,0.9-0.7c-2.2,0-4.4,0-6.6,0
		c-1,0-2.1,0.2-2,1.4c0,1.3,0.9,2.8-1.6,2.8c-2.2,0.1-2.4-1.2-2.4-3c-0.6,3.5-3.6,3.4-5.6,3.4c-2.2-0.1-4-0.9-5,1.9
		c-0.3,0.9-1.6,1.6-2.6,0.8c-1-0.8-0.2-1.7,0.5-2.2c1.1-0.8,0.5-1.9,0-2.4c-1-1.1-1.5-0.1-1.9,0.8c-0.4,0.8-1.2,0.8-1.7,0.2
		c-2.3-2.8-5-0.6-7.6-0.8c-0.4,0-0.8,0.3-1.2,0.5c-0.4-1,0.4-1.5,1-2.1c1.9-1.2,4-0.3,5.1-0.5c-1.1,0.3-3.4-1-5.4,0.7
		c-2.7,0.4-5.3,1.7-8.1,1.3c0-0.5,0-1,0-1.5l0,0c3.5,0.8,4.5-1.3,4.7-4.2c1.8,1,3.5-0.2,5.2-0.1c-0.1,0-0.2,0-0.3,0
		c-1.4,0-2.9,0.7-4.1-0.7c1.9-1.2,4-0.4,6-0.5c0.4,0,1.1,0.2,1.2,0.4c1.2,5.1,5.2,2.6,8.2,3.1c-0.5,0.8,1.3,3,2.8,3.3
		c2.9,0.5,5.1-0.6,7-2.7c1.1-1.1,2.1-2.7,4-1.4c0.6,0.5,0.5,1.1,0.3,1.8c-0.1,0.2-0.3,0.4-0.4,0.5c-0.2,0.3-0.4,0.6-0.3,0.9
		c0.1,0.2,0.2,0.1,0.1-0.2c-0.1-0.2,0.1-0.4,0.2-0.6c0.1-0.2,0.3-0.4,0.4-0.6c0.4-0.8,1.6-1.7-0.4-1.9c-0.5-0.5-1.1-1.1-1.8-0.7
		c-3.2,1.8-7.2-0.2-10.3,2.1c-0.5,0.3-1.1,0.1-1.6-0.4c2-2.1,4.1-3.8,7.2-2.4c1.1,0.5,2-0.4,2.9-0.6c1.9-0.5,4-1.6,5.4,1
		c0.4,0.7,1.4,0.8,1.9,0.5c2.3-1.7,4.6-0.8,7-0.6c2,1.5,4.2,0.3,6.3,0.7c0.7,1,0.2,1.9-0.1,2.2c0.5-1.1,1.6-2.2,3.4-2.4
		c-1.1,0.1-2.1,0.6-3.2,0.3C743.5,20.1,741.7,20.5,740.2,19.9z"/>
	<path class="st0" d="M644.7,47.8h-0.2c-1.1-0.7-2.6,0.4-3.6-0.8l0.1,0.1c-3.8-0.3-7.7,0.6-11.4-1.1c-0.8-0.4-1.5,1.6-2.6,0.5l0,0
		c-1.1-0.7-2.4,0-3.5-0.5c-0.5-0.2-1.3,0-1.5-0.8c0.4-2.1,1.6-2.7,3.7-2.5c12.3,0.8,24.6,1.9,36.9,1.6c3.3-0.1,6.5,1.3,9.9,0.1
		c0.8-0.3,1.3,0.3,1.4,1.1c0.1,0.8-0.2,1.4-1,1.5s-1.6-0.1-2.4,0.3c-2.9,0-5.9-1-8.7,0.8C656,48,650.3,46.9,644.7,47.8z"/>
	<path class="st2" d="M359.8,21.4c-1.3,0-2.5,0-3.8,0c1.8,0.6,0.9,2,1,3.1c0.1,1-0.5,1.1-1.3,1.1c-3.6,0-7.2,0.1-10.7-0.1
		c-2.1-0.1-2.6-1.2-1.4-2.9c-1.8-1.1-3.9,3.3-5.7-0.3c-0.4,0.3-0.9,0.6-1.3,1c-1.9,2.2-4,2.3-5.8,0c-0.8-1-0.9-0.9-1.8-0.2
		c-1.4,1.3-3.2,1.2-5.1,1.4c-3.6,0.5-3.7-1.9-3.7-3.5c-0.1-2.6-1.3-3-3-2.1c-2.9,1.4-6,0.5-9,1.1c0.6-1.5,1.8-1.4,3.1-1.3
		c1.7,0,3.3,0.3,4.8-1.5c1.2-1.4,3.2,0.5,4.4,1.6c0.7,0.7,1.3,1.1,2.3,1.1l0,0c0.2,1.1-0.4,2-1.2,2.6c0.8,1.3,2,0.7,2.9,1
		c1.5,0.6,2.3,0.4,2.7-1.7c0.3-1.7,0.7-4.6,3.9-4.1c0.2,0.3,0.2,0.5,0.1,0.8c-0.5,0.5-0.5,1.3-0.7,1.9c-0.2,0-0.5,0.1-0.7,0.1
		c0.9,1.6,4.9,2.6,6.3,1.5c0.7-0.5,1.3-1.2,2.1-0.7c2.1,1.4,3.4,1.7,3.1-1.6c-0.1-1.2,1.2-1.2,2-1.4c1.8-0.4,1.5,1.6,2.1,2.6
		c0.8-1-0.3-2.5,1.4-2.6c0.7-0.1,1.6-0.3,1.9,0.4c0.8,1.4-0.3,2.6-0.9,3.8c-0.8,0.1-1.4,0.4-1.7,1.1c0.4,0.7,1.1-0.1,1.6,0.3
		c1.5-0.1,2.9,0.1,4.4,0.5c0.4-1.5-2.4-1.4-1.2-2.8c1-1.2,1.9-0.4,2.7,0.8c0.5,0.7,0.7-0.4,1.1-0.7c2.1-1.5,4.2-3.1,7.1-2.1
		c-0.1,0.1-0.2,0.2-0.2,0.4c-0.4,0.4-0.9,0.7-1.4,0.9C360.1,21.4,359.9,21.4,359.8,21.4z"/>
	<path class="st2" d="M425.9,12.5c-0.6,1-0.9,2.4-2.6,2.1c-0.6-0.1-1.3-0.2-1.7,0.8c-1.1,2.9-3.4,3.5-6.3,3.1
		c-1.3-0.2-2.5-0.6-3.8,0.2c-0.6,0.4-1.6,0.4-2.3-0.3c-1.8-1.7-2.7-1.9-5.6-1.2c0,0.8,0.6,0.8,1.1,0.9c0.4,0,0.9,0.1,1.5,0.1
		c-1.2,1.6-2.3,2.9-4.2,1.3c0.3-0.2,1.1-0.5,0.6-0.5c-2.6-0.3-1.8-1.8-1.3-3.2c-1-1.2-1.5-0.7-2,0.4c-0.8,0.6-1.4,0.4-1.3-0.6
		c0.1-1.1,0.5-2.1,1.7-2.3c2.3-0.2,4.6-0.5,6.3,1.7c0.5,0.7,1.2,1.4,1.9,0.4c0.7-1-0.2-1.4-1-1.6c-0.7-0.1-1.4-0.4-1.1-1.3
		c0.2-0.7,0.9-0.8,1.4-0.7c2.2,0.4,4.7-1.1,6.6,1.6c1,1.5,3.6,0.4,4-1.4c0.2-1.1,1-1,1.4-0.4C421.1,14.7,423.4,13.7,425.9,12.5z"/>
	<path class="st3" d="M766.1,29.9c-1.4,1.8-3.6,1.9-5,1c-1.2-0.8-3.6-2-2.2-4.5c0.4-0.7-0.3-0.7-0.6-0.9c-0.8-0.3-1.5,0.1-1.8,0.6
		c-0.8,1.3-1.3,2.8-2.6,0.3c-0.5-1-1.4-0.8-1.8,0.2c-0.4,0.9-1,1.4-1.8,1.1c-1.1-0.4-0.3-1.6-0.8-2.4c-0.5-0.9,0.2-1.4,1.1-1.7
		c1.2-0.5,2.4-0.7,3.7-0.6c1,0,2.2-0.1,2.3-1.1c0.5-5,4.5-4.1,7.6-4.4c3.9-0.3,7.7-0.5,11.4-2.1c1.1-0.5,1.7-1.5,3-1.6
		c0.1,0.1,0.2,0.3,0.2,0.4c0.3,1.6-0.4,2.6-2,3c-4,0.9-7.9,1.9-12.1,1.6c0.7,0.2,1.3,0.4,1.4,1.3c-1.2,1-2.8,0.7-4.2,1.1
		c1.3-0.4,2.8,0,4-1c2.1,0.4,0.9,1.9,0.9,2.9c0,2.6-1.8,5.4-4,6.5c0.9,0.5,1.7-0.3,2.5-0.1C765.6,29.4,765.9,29.6,766.1,29.9z"/>
	<path class="st4" d="M443.9,33.3c0.3,0.1,1,0.1,1,0.2c-0.2,4,3,2.6,4.8,2.6c5,0.1,10,0.7,14.9-0.6c1.1-0.3,2.2,1.3,1.5,2
		c-3.1,2.5,0.9,1.8,1.1,2.6c-1.9-0.2-4,0.9-5.8-0.6c0.3-0.1,0.4-0.2,0.3-0.5c0-0.1-0.1-0.1-0.3-0.1c-0.2-0.4,0-1.5-0.8-0.5
		c-1.9,2.3-6,3.1-9,1.6c1.9-1.3,3.8-2,5.1-1.4c-2.2-0.4-5.3,0-8.3,1.2c-0.3,0.1-0.6,0.1-0.9,0.1s-0.6-0.1-0.9-0.3
		c0,0.3,0.3,0.1,0.4,0.3c0.3,0.1,0.5,0.2,0.6,0.5c-1.7,0.2-4.1,2.5-4-1.8c0-1.7-2.3-1.3-3.4-2.1c-0.5,2.3-3.1,1.1-4.1,2.5
		c-1.5-0.6-1.5-0.6,0.3-2.1c0.1-0.1,0.1-0.2,0-0.3c0-0.1-0.2-0.1-0.3-0.2c-0.5-0.4-0.8-0.8-0.8-1.5c1.6-2.3,4.2-1.7,6.4-2.1
		c0.7,0,0.9,1,1.7,0.6C443.6,33.4,443.8,33.4,443.9,33.3z"/>
	<path class="st5" d="M504.3,38.1c0.5-0.7,0.8-1.3,0.9-2.2c0.1-0.6,0.6-1.5,1.4-1.2c1.1,0.4,0.2,1,0,1.6c-0.3,0.7,0.2,1.3,0.8,1.1
		c2.1-0.6,4,1.5,6.2,0.4c1-0.5,2.3-0.6,3.6,0c1,0.5,2.7,1,3.1-0.6c0.4-1.7-1.5-1.9-2.6-1.9c-2.8,0.2-5.4-0.9-8.1-0.8
		c-0.4,0-0.9,0-1-1c2.4,0.6,3.5-2.2,6.1-1.9c0.6,0.1,2.4,0.3,2.5-1.5c0-0.7,0.7-1.3,1.4-1c0.5,0.2,0.9,0.9,1.2,1.5
		c0.3,0.7-0.2,1.3-0.8,1.7c-0.8,0.5-2.8-0.2-2.1,1.5c0.5,1.3,1.9-0.4,3-0.2c1.1,1.2,2.6,1.1,4.1,1c1.7-0.9,4.2,0.5,5.5-2
		c0.3-0.6,1.9,0.1,1.3,1.3c-0.5,1.1-0.4,1.6,0.8,2c0.8,0.9,2,1.7,1.2,3.2c-0.8,1.4-2.1,1.3-3.3,0.6c-1.3-0.7-3.1,0.5-4-1.2
		c1.5-0.2,2.9-0.8,4.8-0.4c-1.9-1.2-3.2,0.5-4.8,0.2c-0.9-1.2-0.9,0.6-1.6,0.4c-0.4-0.5-0.6-1.1-0.5-1.7c-0.6,0.9,0.1,1.2,0.5,1.7
		c-1.5,1.6-3,0-4.5,0C514.3,38.7,509.3,39.2,504.3,38.1z"/>
	<path class="st6" d="M670.4,47.1c0.3-0.6,0.9-0.6,1.5-0.6c0.9,0,1.7,0,1.5-1.2c-0.3-1.4-1-0.5-1.7-0.4c-3.4,0.6-6.8-0.4-10.2-0.5
		c-7-0.1-14.1,0.1-21.1-0.1c-5.2-0.1-10.4-0.6-15.6-1.2c-1.7-0.2-2.1,1.1-2.8,1.9c-1.3,0.9-2.8,0.8-4.2,0.6c-1.4-0.2-1.8-1-0.3-1.9
		c0.9,1.5,3.1,1.6,4,0.2c2.4-3.5,4.3-4,8.8-2.3c2.2,0.8,5.4-0.4,5.7-2.2l-0.1,0.1c0.7,0,1.5-0.1,2.2-0.1c1.4,0.9,3,1.3,3.5,3.3
		c0.4,1.4,1.9,1,3,1c5.6,0,11.3-0.4,16.9,0.2c4.8,0.5,9.5-0.3,14.2,0.6c0.4,1,0,1.8-0.4,2.6c-0.1,0.1-0.2,0.2-0.4,0.3
		C673.3,47.2,671.8,47.2,670.4,47.1z"/>
	<path class="st7" d="M283.8,49.3c0.1-2.1,4.4-0.6,2.5-4.7c1.9,1.7,2.9,2.6,4.4,1.1c1.7-1.5,4.2-0.1,6.1-1.2
		c0.4-0.2,0.9,0.2,0.8,0.7s-1,1.5,0.4,1.2c0.8-0.2,1.6-1,1.7-2c0.1-0.8-0.7-0.7-1.3-0.7c-2,0-3.9,0-6,0c1-3.4,4.1-1.9,6-2.5
		c2-0.6,2.6,2.2,3.5,3.8c-0.1,0.1-0.1,0.3-0.2,0.4c-0.6,0.7-1.4,1.2-2.2,1.7c-0.2,0-0.3,0-0.5,0.1c-0.5,1.3-1.9,2.1-1.4,4.1
		c0.4,1.7-2.1,2-3,1c-1.1-1.3-2.9-1.2-3.9-2.5c0.7-0.6,1.6-0.9,2.2-1.4c0.2-0.1,0.3-0.2,0.5-0.1c0,0,0-0.1-0.1-0.1
		c-0.3,0-0.5,0.2-0.7,0.4c-0.6,0.4-1.4,0.6-1.9,1.2c-1-0.5-1.1-1.3-0.2-1.8s2-0.7,2.4-2.3C289.9,47,286.9,48.1,283.8,49.3z"/>
	<path class="st8" d="M574,40.3c-0.8-2.6,1.4-0.3,2.2-1.3c1.5-1.9,4.8-1.9,6.9-2.1c2.9-0.3,5.7-1.6,8.8-1.1c2.2,0.3,4.4,0.2,6.6,0.3
		c1.6,0.1,3.1,0.5,4.8-0.3c1-0.5,2.5-1.2,2.7,1c0,0.6-0.3,1-0.7,1.4c-1.3-2.1-2.6-2.6-3.5,0.2c-0.4,1.3-1.5,2-2.6,1.6
		c-1.8-0.7,0-1.9,0.1-3.3c-4.8,0.7-9.6-1.2-14.1,1.5c0.2,0.2,0.3,0.3,0.2,0.5s-0.1,0.2-0.2,0.2c-1.7,0.6-3.1,1.2-2.2,3.6
		c0.6,1.6-0.2,2.9-2.3,2.7c-1.3-0.2-2.8,0.4-4-0.6c0.1-0.1,0.2-0.3,0.3-0.4c1.1-0.9,2.5-0.8,4-1.1c-2.2-1.8-5.4,0.9-6.8-2.2
		C574,40.6,574,40.4,574,40.3z"/>
	<path class="st7" d="M632.5,18c-0.7,1.4-2,1.8-3.1,1.2c-1.5-0.9-3.7-0.5-4.1-0.1c-2.8,2.7-2.5-0.9-3.9-1.3c-1,1.3-3.2,1.1-4.6,1.8
		c-3.1,1.6-5.8-2.1-8.4,0.2c-0.8,0.7-1.4-0.4-2.1-0.6c-0.3-0.1-0.5-0.7-0.7-1.1c-3,3.1-6.5-0.9-9.8,0.7c-1.8,0.9-4.1,1.1-6.1,0.4
		c-2.2-0.8-4.2-0.5-6.4,0.2c1.6-4.9-2.6-3.5-4.4-4c-2.4-0.7-5.1-0.5-7.7-0.6c3.8-1.5,10.7,0.1,13.6,2.5c2.1,1.7,5.2,1.3,7.8,1.2
		c1.8,0,3.9-1.5,5.3-0.9c3.1,1.2,6.4-0.8,9.4,0.9c1.2,0.7,3.3,0.1,4.2-0.2c3.1-1.3,6.6,2.2,9.3-1.2c0.2-0.2,0.9-0.3,1.3-0.2
		C625.1,17.9,629.8,18.5,632.5,18z"/>
	<path class="st3" d="M167,47.2c-1.5-0.1-2.2-0.3-1,1.8c0.9,1.6,0.1,1.9,3,1.7c1.3-0.1,3.3-0.8,2.9,1.9c0,0.1,0.1,0.3,0.2,0.5
		c0.2-0.2,0.4-0.5,0.6-0.7c0.7-0.5,1.5-0.5,2.1,0.2c-1.4,0.3-3.2,3.2-4.1-0.7c-0.2-0.9-1.7,0-2.5-0.1c-2.5-0.3-6.5,2-6.7-3.4
		c0-1-1.7-1.5-2.6-1c-3,1.3-3.2-0.4-2.7-2.8c-3.6,2.1-7.8,1.9-10.1-0.2c3.9,1.3,7.5,0.8,10.8-1.5c1.7-1.1,2.6,0.5,3.7,0.8
		c1.6,0.4-0.1,1.5-0.6,2.1c-0.4,0.4-0.7,0.6,0,0.7c0.8,0.1,1.4,1.2,2.4,0c1.6-1.9,2.5-1.8,4.5,0C167.2,46.7,167.2,47,167,47.2z"/>
	<path class="st4" d="M679.2,47c-1.5-0.3-2.8,1.6-4.4,0.2l0.1-0.1c0.4-0.4,0.8-1,1.3-0.9c1.7,0.3,1.2-0.8,1.2-1.7
		c2.9-0.2,6-1.9,8.6-0.4c1.7,0.9,3,1.2,4.7,1c1.4,1,2.8,0.4,4.2-0.1c7.3-2.7,14.9-0.8,22.4-1.3c-0.4,1.9-2.2,1.4-3.4,1.5
		c-4.1,0.5-8.2,0-12.4,0c-1.5,0-3.2-0.5-4.4,1c-0.2,1.6-1.4,1.9-2.5,1.6c-3-0.9-6.5,1.4-9.1-1.6c-0.3-0.4-0.7,0.2-1,0.6
		C682.8,48.6,681,48.3,679.2,47c0.8-0.8,2-0.5,3.2-1.3C680.8,45.7,679.9,46.2,679.2,47z"/>
	<path class="st2" d="M531.5,36c2.7-1.5,6,0.2,8.8-1.9c1.5-1.1,3.7-0.4,5.7,0.2c1,0.3,3.3,2.1,4.7-0.6c0.3-0.5,1.5,1.2,2.3,1.8
		c-2.4,2.6,1.6,1.9,1.7,3.3c-2.2,0.2-3.6-1.2-5.1-2.8c-1,2,0.7,2.4,1.4,3.2c0.3,0.4,1,0.6,1.3,1s0,1.1-0.4,1.1c-2-0.1-4,1.6-6,0.4
		c-0.6-0.4-0.2-1.3,0.4-1.8c3.2-2.8,0.3-2.4-1.4-3.3C540.3,34.6,535.8,37.2,531.5,36z"/>
	<path class="st9" d="M619.2,38.1c1.3,0,2.4,0.7,2.4,1.9c0.1,1.6-2.2,1.5-2.7,2.9c0,0.1-1.1,0.6-1.7,0.9c-0.9-1,2-1.8,0.3-2.8
		c-1-0.5-1.7,0.2-1.8,1.3c-2.1,1.4-4.5,0.3-7,1.2c2.7,0.8,4.9,0,7-0.7c-0.1,2.1-1.2,3-3.3,2.9c-2.3-0.2-4.6-0.2-6.8-0.1
		c-1.6,0.1-1.6-0.9-1.6-2l0,0c1.4,0.2,1.8-0.4,1.5-1.8c-0.2-1-0.2-2.7,1.2-2.3c4,1.1,7.4-1.4,11.1-1.6c0.1,0.1,0.2,0.3,0.3,0.4
		c-0.9,2-3.1,1-4.6,2.3c0.1-0.3,0.2-0.4,0.5-0.5c1.6-0.6,3.8,0,4.5-2.2C618.6,37.9,618.9,37.9,619.2,38.1z"/>
	<path class="st2" d="M75.3,56.9c2-2.1,4-2.1,6-0.2c-1.1,1.3-2.7,1.6-4.3,2.1c3.3,0.2,6.5-0.2,9.7-1.1c1.5-0.4,2.8-1.4,4.4-1.3
		c-0.6,1.4-2.1,1.3-3.2,1.8c-1.9,0.9-4,1.4-3.2,4.3c0.2,0.7-0.8,1.6-1,1.2c-0.9-2.2-4.1-0.2-4.8-2.8c-0.3-1-1.3-0.4-2.3-0.2
		c-1.6,0.4-3.6,2.5-5-0.4c0.8-0.5,1.3,1.2,2.3,0.2c1-1.1,0.3-2-0.3-2.9C74.1,57,74.6,56.9,75.3,56.9z"/>
	<path class="st7" d="M34.1,61.8c1.7-1.5,2.3,0.4,2.6,1.2c1.5,2.9,4.4,4,7.3,2.5c0.3-0.2,0.5-0.9,1-0.5c2.9,1.9,2.2-0.6,2.3-1.9
		c0.1-0.9,3.9-3.7,4.4-3.1c2.8,3.8,5.8,1,8.8,0.4c-2.2,1.9-5.5,2.5-6.5,5.9c0,0.1-0.2,0.1-0.3,0.2c-1.6,1.2-1-2.2-2.4-1.2
		c-1.3,1-2.2,1.1-2.6-0.7c0.3,0,0.4-0.2,0.3-0.4c0-0.1-0.2-0.1-0.3-0.1c0-0.1,0-0.3-0.1-0.3c-0.1-0.2-0.3-0.3-0.4-0.4
		c0.1,4.7-4.1,3.6-6.3,3.9c-2.1,0.2-5.3-0.3-6.2-3.6C35.6,62.8,34.7,62.3,34.1,61.8z"/>
	<path class="st10" d="M182.5,53.9c1.1,0.2,2.2,0.5,1.9-1.2c-0.2-1.4,0.6-2,1.6-2.6c0.6-0.4,1-1.2,1.7-0.6c0.8,0.7,0.3,1.6-0.3,2.1
		c-0.8,0.7-1,1.2,0,1.7c1.1,0.5,1.1-0.4,1.1-1c0.1-1.1,1-1.7,1.2-2.9c0.2-1.6,1.3-3.5,3.5-3.4c1,0.1,2.6,0.1,2.8,1.1
		c0.3,1.2-1.1,1.3-2.2,1.5c-2,0.3-0.8,2-1.1,3c1.1-0.1-0.8,1.7,1.5,1.8c2.8,0,5.4-2,8.2-0.6c-3.5,1.1-7,2.1-10.7,1
		c-1.1-0.3-2-0.3-3,0.3c-2.3,1.4-3.5,0.8-3.2-2.2C184.7,53,185.4,56.5,182.5,53.9z"/>
	<path class="st2" d="M118.3,28.3c-3.2-0.1-5.3,1.3-7.9,3.3c-3.1,2.6-6.6,5.7-11.5,4.9c-0.1-1.8,1.9-2.1,2.5-3.6
		c-4.8-1.1-9.1,0.2-13,3.2c2.2-4.6,6.9-3.9,10.7-4.6c3-0.6,5.9,0.5,9-1.5c2.2-1.5,5.5-1.6,8.2-2.8C117.2,26.8,117.9,27.5,118.3,28.3
		z"/>
	<path class="st11" d="M437,36.1c0.6,0.3,1.1,0.6,2.2,1.1c-1.4,0.2-2.5,0.1-3.4,0.4c-0.7,0.3-1.4,1.2,0.3,1.3l0,0
		c1.1,1.2,0.2,1.5-0.8,1.6c-1.1,0.2-2.1-1.1-3.2-0.3c-0.9,1.2-2.6,0.2-3.4,1.3c-1.8,0-3.8,0.4-5.2-1.3c0.3-4.2,4.3-4.2,6.6-6
		C432.7,33.3,434.4,36.5,437,36.1z"/>
	<path class="st7" d="M658.1,30.5c0.7-0.1,2,0.5,2-0.6c0.1-3,3.1-2.6,4-2.4c2.9,0.5,5.7-0.1,8.6,0.3c2.9,0.4,5.6-0.6,8-1.8
		c2.1-1,3.2-1.7,3.9,1.5c0.2-3.3,3.9-3.9,4-6.8c1.3,0.8,0.4,1.8,0.2,2.8c1.5,0.1,4-2.5,4.1,1.3l0,0c-1,0.1-1.2,0.8-1.5,1.6
		c-0.5,1.6-1.4,1.7-1.9,0.1c-0.7-2.4-1.9-1.6-2.9-0.5c-1.2,1.3-1.8,2.4-3.7,0.5c-0.8-0.7-3.9,0.4-5.1,2.1c-0.7,0.9-1.3,1.2-2.2,0.7
		c-4-1.9-8.2-0.6-12.3-1c-1.2-0.1-1.8,0.6-2.3,1.7C660.2,31.6,659.2,31.5,658.1,30.5z"/>
	<path class="st0" d="M697.2,46.3c-0.5-2.1,0.9-1.8,2.2-1.9c4.9-0.1,9.8,0.6,14.8,0c1.1-0.1,2.3,0.6,3.2-0.6c0.2,0,0.4,0,0.5,0
		c0.9,0.7,1.8,1.2,2.9,1.4c0.2,0.1,0.5,0.1,0.6,0.2c0.8,1,2.8-0.9,2.7,0.7c-0.2,1.6-2.7,1.5-3.4,1c-1.5-1.2-3.7,1.4-4.6-1.1
		c-3.4,3.7-7.5-1.5-11.4,1.1C703,48.1,699.8,45.4,697.2,46.3z"/>
	<path class="st2" d="M559.2,37.3c1.3-0.5,2.6-1,4.1-1.6c-1.3-0.7-2.8,0.1-4.1-0.9c1.4-1.2,2.7-1.2,4.3-0.9c2.8,0.5,5.9,1.5,8.6,1
		c3.7-0.7,2.3,1.5,2.5,3c-0.4,0.1-0.6,0.2-0.8,0.2c-0.9-0.2-0.5-2.3-2.1-1.5c-0.4,0.2-0.7,0.4-1.1,0.6c0.9,0.6,0.8,2.1,2.1,2.4
		c0.4,0.1,0.8,0.4,1.2,0.7l-0.1-0.1c0.6,1.3-1.2,1.2-1.3,2.1c1.1,1.3,3.6-0.3,4.3,1.9c-0.1,0.1-0.2,0.2-0.3,0.3
		c-2.6-0.4-5.6,0.9-7.6-2c-0.3-0.5-1.4-0.5-1.2-1.4s1-0.8,1.6-0.9c0.5-0.1,1.3,0,1.3-0.8c0.1-0.7-0.5-1.1-1-1.2
		c-1.1-0.2-1.1-1.3-1.6-1.9c-0.9-1.3-2.5-2.5-3.8-0.8C562.9,37.4,561.2,37.5,559.2,37.3z"/>
	<path class="st7" d="M661,32.6c-1,2-3.1,1.5-4.8,1.9c-1.2,0.3-1.5-1.5-1.9-2.4c-0.8-1.7,2-0.2,1.6-2.2c-2.2,1-4.6,0.1-6.8,1.9
		c-0.5,0.4-2,1.5-3.1,0.6c-0.8-0.7-0.6-2.6-0.2-2.9c1-0.7,2.2-2.3,3.5-1.6c2.6,1.4,4.6,0.7,6.8-0.6c0.7-0.4,1,0,1.4,2.5
		c-0.3,0.5-0.5,1-0.8,1.5s-1.1,0.8-0.7,1.7c0.6,1.1,1.4,0.3,2.1,0.3C659,33.1,660,32.8,661,32.6z"/>
	<path class="st7" d="M368.6,49.9c2.2-3.2,5.7-2.2,8.8-2.6c1.6-0.2,3.6-0.4,4.7-1.4c1.2-1.2,1.9,0.7,2.7-0.1c-0.3,4.5-0.3,4.5-5,3.7
		c-1.1-0.2-0.4,2.7-2.3,1.5c-1.2-0.7,0.1-2.5-1.2-2.9c-1-0.3-2.1,0.3-2.5,1.4c-0.3,0.9-0.3,1.9-1.6,1.9c0.2-1-0.8-0.9-1.3-1.2
		C370.3,48.9,369.4,49.8,368.6,49.9z"/>
	<path class="st7" d="M205.8,49.8c0.7-1.7,2.3-0.6,3.4-0.9c1.4-0.3,1.8,1,1.3,2.6c-0.2,0.8,1.6,0.3,2.3,1.2c-0.2-4.1,0.8-4.7,4.4-3
		c0.5,0.2,1,1.3,1.6,0.3c2.2-3.2,4.9-1.8,7.6-0.9c1.3,0.4,2.8,0,3.8-1c0.5-0.5,0.7-1.2,1.3-0.3c0.2,0.3,1.4,0.9,0,1.4
		c-1.5,0.6,1.8,2.1-0.4,2.8c-0.4-2.1-1.7-2.8-3.6-2c-1.2,0.5-2,0.2-3.1-0.4c-1.2-0.7-2.9-1.2-4,0.3c-1.2,1.5-2.3,1.6-3.8,0.5
		c-1.4-0.9-2.7-0.9-2.9,1.2c-0.1,0.7-0.2,1.6-1,1.5c-1-0.1-2.8-0.7-2.8-1C210,48.9,207.3,50.3,205.8,49.8z"/>
	<path class="st7" d="M394,20.2c-0.2,1-0.8,2.1-1.7,1.8c-2.4-0.7-4.3,0.6-6.5,0.7c-0.6,0-1.3,1.1-1.9-0.3c-0.7-1.7,1.1-0.9,1.4-1.6
		c0.1-0.3,0.9-0.2,0.8-0.9c-2.8-0.9-8.3,1.1-10.4,3.6c-0.5,0.6-1,1.5-2,1.3c-0.1,0-0.1-0.9-0.1-1.3c2.1-1.2,3.8-2.8,6.2-3.7
		c3.4-1.2,6.5-1.4,9.9-0.5c0.3,0.4-0.3,0.6-0.2,1c0.3-0.1,0.7-0.1,0.8-0.4c0.1-0.3-0.4-0.3-0.6-0.6C391.7,16.3,392.8,18.8,394,20.2z
		"/>
	<path class="st7" d="M320.2,46.3c2.8,0.6,5.7,0.8,8.6,0.3c2.7-0.5,3.1,0.3,2.3,4.2c1-1.1,1.9-2.3,3-3.3c0.8-0.7,2-0.3,2.9-0.1
		c0.6,0.1,0.5,0.8,0.4,1.2c-0.3,1.2-1.3,0.5-2,0.8c0.2-0.3,0.5-0.5,0.6-0.8c0.3-0.8-0.4-0.6-0.7-0.5c-0.6,0.3-1.1,0.8-1.7,1.2
		c-1,0.7-1.6,2.4-3,1.9c-1.6-0.5-0.6-1.9-0.4-3c0.1-0.6-0.3-0.9-0.8-0.9c-0.9,0-1.4,0.6-1.7,1.5c-0.3,1-0.7,2.1-1.9,2.1
		c-0.8,0-0.9-0.9-0.9-1.6c0.3,0,0.4-0.2,0.3-0.4c0-0.1-0.1-0.1-0.3-0.1c-1.7-0.8-2.9,0.5-4,1.3c-2.1,1.4-2.2-0.1-3.1-1.6
		C319.7,48.6,322.1,49.2,320.2,46.3z"/>
	<path class="st7" d="M40.4,34.7c-5,1.1-9.4-0.4-14-2.1c-2.6-0.9-5.2-2-8-2.2c-2.4-0.2-4.6-1.1-6.5-2.7c-0.6-0.5-1.6-1.3-2.4-0.2
		C9,28.2,8.9,29,9.8,29.8c1.5,1.5-1.2,1.2-1.2,2.2c0-0.9-0.2-1.9-0.1-2.8c0.1-2.8,1.6-4,3.7-2.3c3.3,2.6,7.2,2.8,10.9,3.7
		c4.3,1.1,8.2,3.5,12.9,3.7C37.4,34.4,39.1,32.9,40.4,34.7z"/>
	<path class="st2" d="M664.6,21.6c-0.4,0.2-1,0.4-1.1,0.7c-0.3,0.7,0.4,0.5,0.8,0.5c1.6,0,3.2,0,4.9,0c-1.4,2.3-2.5,3.1-4.9,1.1
		c-1.5-1.2-3.9-0.5-5.7,0.9c-2.9,2.2-6.9,2.5-8.8,0.6c2.7,0.3,5.1-0.3,6.8-2.5c1.8,0.9,3.4-0.1,5.2-0.1c-0.2-1.1-2-0.9-1.3-2.1
		c0.8-1.3,1.4-0.2,2.2,0.3C663.2,21.4,663.9,21.4,664.6,21.6z"/>
	<path class="st3" d="M372.2,23.6c-1.8,0.1-2.9,3.9-4.5,1.6c-1.4-1.9,2-2.8,2.8-4.5c0.1-0.1,0.1-0.3,0.3-1.2c-1.9,2-4.4,2.2-5.3,4.3
		c-0.6,1.4-1.2,0.9-2,0.4c-1.1-0.7-1.7-2.8-3.8-1c-0.6,0.5,0.2-1.2,0.2-1.9l-0.1,0.1c0.5-0.6,1.4-0.7,2-1.2L362,20
		c0.9,2.5,1.9,4.3,4.6,1.5c0.8-0.9,2-1.5,3.1-2.1c0.7-0.4,1.4-1,2.2-0.3c0.7,0.6,0.4,1.3-0.1,1.8C370.6,22.1,372.6,22.6,372.2,23.6z
		"/>
	<path class="st7" d="M516.4,12.6c-2.2,2.1-3.3-1.6-5.3-1.1c-0.5,0.1-1.3-0.8-2,0.1c-1.2,1.5-2.5,1.3-3.1-0.4c-0.8-2-2-0.4-2.4-0.1
		c-3.5,2.7-6.9,1.6-10.3,0c2.6,0.3,5.2,0.8,7.1-1.7c0.3-0.4,1.5-0.6,1.9-0.4c4,2.5,9.2,0.4,13.1,3.4C515.6,12.6,516,12.5,516.4,12.6
		z"/>
	<path class="st2" d="M279.1,19.4c-0.4,1.2-2.6,2.4,0.2,3.6c0.6,0.3-0.6,1.3-0.9,1.1c-2.2-1.2-3.7,0.7-5.6,1.2
		c1.2,2.3,3.5,1.4,5.2,2.1c-2.6,0.1-5.6,1.7-7.2-2c-0.1-0.3-0.9-0.5-1.2-0.4c-4.2,2-2.1-1.5-2.4-2.8c1.7,3.9,3.3,0.9,4.9,0
		c0.7-0.1,1.4-0.5,2.1,0c1.8,1.1,2.2,1,2.9-0.8C277.4,20.3,277.4,19,279.1,19.4z"/>
	<path class="st2" d="M295.8,19.4c-0.2,2.8-2.2,3.2-4.5,3.4c-2.1,0.2-4.5-1-6.3,1.2c-0.5,0.6-1.3-0.2-1.8-0.5
		c-1-0.6,0.1-1.2,0.4-1.4c1.5-0.9,0.1-1.7,0.1-2.6c0.2-0.1,0.4-0.1,0.7-0.2c1.4-0.4,3.2-1.6,4,0c0.9,1.9-2.3,1-2.4,2.5
		C289.9,23.6,292,18.3,295.8,19.4z"/>
	<path class="st7" d="M688.7,20.8c-1.8-0.1-3.5,0-3.5,2.4c0,0.2-0.4,0.7-0.4,0.7c-3.6-1.4-7.1,2.2-10.7,0.3c-1.2-0.6-2.6-0.5-4.1,0
		c0.2-2.2,1.8-2.5,3.1-3.4c-2.9,0.3-5.7,0.6-8.6,0.9c1-1.1,7.9-2.2,9-1.3c0.2,0.2,0.4,0.5,0.5,0.8c0.2,2.4,0.2,2.5,2.9,2.4
		c3-0.2,6.3,0.4,8.6-2.7C686.1,19.9,687.6,19.5,688.7,20.8z"/>
	<path class="st7" d="M202.5,27.7c-0.8,0.6-1.6,1.1-2.6,1.9c0.4,0.6,2.9,2-0.1,2.1c-4.1,0.2-8.1,1.5-12.4,0.3c3.3-0.5,6.6-1,5.9-5.4
		c-1.3-0.4-0.7,1.7-1.8,1.7c0-1.2,0.2-2.6,1.6-2.5c1.4,0.1,1.6,1.4,1.1,2.6c-0.3,0.9-0.3,1.6,0.6,2.1c0.8-2.9,3.9,3.7,4.4-1.1
		C199.4,27.8,201.1,27.8,202.5,27.7z"/>
	<path class="st12" d="M704.7,37.4c0.2-0.3,0.6-0.8,0.5-0.8c-1.9-1.8-9.5-3-11.5-1.9c0.5-2.1,2-2.6,3.6-1.6c2,1.2,4.4,1,6.5,2
		c2.1,0.9,5,1.1,6.9-1.5c0.4-0.6,1-1.2,1.7-0.8c1,0.6,0,1.3,0,2c-0.2,3.7-1.7,4.4-4.7,2.5c0.6-0.4,1.2-0.4,1.7-0.1
		c-0.5-0.1-1.1-0.9-1.7,0.1C706.6,37.3,705.6,37.4,704.7,37.4z"/>
	<path class="st7" d="M772.3,34.8c0.2-0.3,0.2-0.7,0.5-0.9c1.3-1.1,2.8-1.8,4.4-1.1c0.7,0.3,0.7,1.2,0.5,1.8
		c-0.6,1.6-1.9,1.9-3.6,2.1c-3,0.4-5.9,1.3-8.9,1.9c-2.8,0.5-5.6-0.9-8.4,0.1c-0.5,0.2-1.2-0.3-1.1-1c0.3-1.4,1.5-1.5,2.6-1.7
		c0.3,0.6-0.2,1-0.5,1.4c0.5-0.2,0.8-0.6,1.3-0.7c0.4-0.1,0.8-0.3,1.3,0h-0.1c4.1,0.4,8-0.3,11.9-1.4l-0.1,0.1
		c0.8-0.5,1.8,0.2,2.5-0.5C773.9,34.7,773.1,35.4,772.3,34.8z"/>
	<path class="st7" d="M732.6,53.5c-1.7,0.6-3.4,2.8-5.2-0.1c-0.4-0.7-0.9,0-1.4,0.3c-2.9,2-6.2,2-9.5,1.8c-0.1-1.6,1.2-1.4,2.1-1.5
		c1.5-0.2,2.9-0.3,4.2-0.8c-1.5-0.7-3.8,1.2-5-1.2c3.7-0.3,7.5-2.4,11.2,0.1c0.4,0.3,1.3-0.1,2-0.2c0.1,0.1,0.1,0.2,0.2,0.3
		C731.3,53.2,732.4,52.9,732.6,53.5z"/>
	<path class="st7" d="M567.1,16.6c-2.8,1.6-5.8-0.3-8.7,0.5c-0.3,0.1-1.3-0.8-1.4-1.4c-0.3-1.6,1.7-0.8,2.5-2c-2.5,0-4.6,0-6.8,0
		c0.2,1.3,1.5,0.5,1.6,1.2c0,0.5-0.5,1-1.2,1c-1.8-0.1-3.7,1-5.5,0.1c2.9-2.1,6-3.2,9.6-3.2c1,0,2.1-0.5,2.7,0.7
		c0.7,1.3-0.6,1.6-1.4,2.4C561.4,15.7,564.2,16.7,567.1,16.6z"/>
	<path class="st7" d="M91.8,56.2c3.9-1.4,7.5-3.4,11-5.7c0.7-0.5,1.4-1.1,2.7-0.7c1.2,0.3,1.4-0.2,1.4-2.1c0-1.8,1.6-1.2,2.4-1.6
		c2-1,4.1-2.6,6.6-1.5c0.1,0,0.1,0.2,0.1,0.3c0,0.1-0.1,0.2-0.2,0.3c-3.2,0.1-6,0.9-7.7,4.1c-1.2,2.3-3.9,1.3-5.8,2.6
		C99.2,53.9,96.1,56.6,91.8,56.2z"/>
	<path class="st7" d="M603.9,43.7c-1.6,0.8-3.2,2.9-4.9,0.2c-0.2-0.3-0.6-0.5-0.8-0.2c-2.7,3.9-6.2,1.1-9.4,1.1c-1,0-2-0.4-3.1-0.5
		c0.3-2,1.7-1.5,2.8-1.2c1.9,0.4,3.8,0.8,5.7,0.7c1.3-0.1,2.7-0.2,2.7-2c0.9-1,2-1.2,2.6,0.2c0.6,1.4,1.5,0.3,2.3,0.5l0.1,0.1
		l-0.1-0.1c0.1-0.7,0.3-1.5,1.2-1.3C604.3,41.5,603.7,42.8,603.9,43.7L603.9,43.7z"/>
	<path class="st7" d="M88.5,36.1c-0.8,0-0.5,3.3-2.2,0.7c-0.6-0.9-5.2,1-6,2.4c-1.5,2.4-2.6,2.6-4.3,0.3c-0.4-0.6-0.6-0.5-0.9-0.1
		c-0.8,1.1-2.4,0.6-3.3,1.6c1.1-2.3,3.6-3.4,5.5-3.2c2.4,0.3,3.8-0.5,5.7-1.5C84.6,35.4,86.6,35.2,88.5,36.1z"/>
	<path class="st0" d="M772.2,35.3c0,0.1,0,0.3-0.1,0.3c-2,1.7-9.4,2.3-11.8,1.1c3-0.5,4.9-2.8,7.3-5.2c-0.1,1.1-0.2,1.8-0.3,2.6
		c-0.2,1.4,1.1,1.1,1.7,1.6C769.7,32.7,771.3,36.1,772.2,35.3z"/>
	<path class="st0" d="M736.7,44.4c-1.1,1.5-2.4,2-4.5,1.7c-2.3-0.3-4.7,0.3-7.2,0.5C728.9,42.5,733.1,41.9,736.7,44.4L736.7,44.4z"
		/>
	<path class="st7" d="M257.9,54.8c0.3-0.2,0.5-0.5,0.8-0.5c5-0.5,10.1-1,15.2-1.5c-1-2.5-3-1.3-4.5-1.7c-0.3-0.1-1.2-0.1-1.1-0.9
		c0.1-0.3,0.8-0.8,1-0.7c1.9,1,3.7-0.6,5.5-0.2c-0.9,4.5-1.1,4.6-6.4,5C264.9,54.5,261.4,55.1,257.9,54.8z"/>
	<path class="st7" d="M142.8,23.6c-0.7,1.7-2.2,1.4-3.6,1.3c-1.7-0.2-3.3-0.5-4.6,0.9c-0.6,0.6-0.9,0.3-1.3-0.1
		c-1.6-1.7-2.2,0-3.1,0.8c-0.2-0.4-0.3-0.9-0.5-1.2c-0.6-0.9-3.2-1.1-1.7-2.5c1.1-1.1,3.8-1.5,4.8,0.4c0.9,1.6,1.8,1.5,3,1
		C138.1,23.1,140.5,24.9,142.8,23.6z"/>
	<path class="st7" d="M335.4,49.9c1.9-0.1,4.2,1.7,5.4-1.8c0.4-1.1,2,0.6,2.7,2.1c1.1-4.6,4.6-4.1,7.6-3.5c1.3,0.3,1.6-0.5,2.4-0.8
		c0,1.5-0.4,2.1-2.1,1.7c-2-0.5-4.4-1.5-5.2,1.8c0,0.2-0.4,0.3-0.5,0.4c-1.6,1.9-3.6-1.2-4.9,0.2c-1.7,1.9-3.6,1.1-5.6,1.1
		C335.3,50.7,335.4,50.3,335.4,49.9z"/>
	<path class="st11" d="M596.9,41.7c0.6,0,1.4-0.1,1.6,0.2c0.5,0.6-0.5,0.3-0.6,0.6c-2.2,4.1-5.7,1.9-8.7,1.6
		c-1.2-0.1-2.4-1.5-3.5,0.2l0,0c-1.2,0.9-1.7,0.5-1.1-0.8c0.4-1.1,1.7-1.3,2.7-1.8c0.2,0,0.4,0,0.6,0
		C590.9,40.5,593.9,42.9,596.9,41.7L596.9,41.7z"/>
	<path class="st7" d="M222.7,24.3c-1.1,2.7-2.8-0.5-4.1,0.3c-0.1-0.2-0.1-0.4-0.2-0.6c-1.3,2.6-4.6,0.8-5.3,1.5
		c-3.2,3.5-7,2.2-10.7,2.2c0.9-1.1,2.1-0.5,3.2-0.7c2.4-0.6,5.3,0.4,7-2.4c0.4-0.7,1.5-0.5,2.3-0.3c0.4,0.1,0.8,0.4,1.1,0.6
		C217.9,20.9,220.5,24.4,222.7,24.3z"/>
	<path class="st7" d="M546.9,15.9c-2.6,0.9-3,0.8-5-1.6c-0.7-0.8-1.1,0.3-1.7,0.2c-2.2-0.4-5,1.8-6.3-2.4c-0.3-1-4.6-1.7-7-1
		c-2.1,0.6-3.4-0.1-4.7-1.4c3.1,1.1,6.4,0.2,9.5,1.1c1.5,0.5,3.1,0,3.6,2.2c0.3,1.3,2,0.7,3.1,0.7c1.9-0.1,3.8-0.9,5.3,1.3
		C544.2,15.8,545.8,15.7,546.9,15.9z"/>
	<path class="st0" d="M717.9,52.1c2.5,0.1,5.1,0.7,8.2,0c-2.9,3.3-6.6,2.2-9.5,3.5l0,0c-0.5,0.7-1.1,1.3-2,0.8
		c-0.5-0.3-0.6-0.9-0.1-1.5l0,0c1.9-1.5-1.1-0.8-0.8-1.8c0.9-1.3,2.6-0.1,3.6-1C717.5,52.1,717.7,52.1,717.9,52.1z"/>
	<path class="st13" d="M554.7,39.6c0.4-0.2,0.7-0.5,1.1-0.7c1.9-0.1,3.8,0.6,5.7,0.4c1.4-0.1,1.7,0.7,1.8,1.9v-0.1
		c1,0.9,0.5,1.5-0.5,1.6c-1.4,0.2-3,0.4-4.3-0.5c-0.3,0.1-0.7,0.1-1,0.2c-1.2-0.7-4,0.4-3.1-2.7L554.7,39.6z"/>
	<path class="st3" d="M769.4,41.6c-2.8,0.5-5.7,1-8.5,1.4c-0.6,0.1-1.5,0.1-1.7-0.7c-0.3-1.1,0.6-1.6,1.3-1.6c3-0.2,6-1.8,8.9,0.3
		c0.2,0.2,0.2,0.3,0.2,0.5C769.5,41.6,769.5,41.6,769.4,41.6z"/>
	<path class="st14" d="M615.7,42.9c-1.9,3.3-5.2,1.4-7.8,2.1c-0.5,0.2-1.3-0.6-1.2-1.4c0.2-0.9,0.8-1.3,1.7-1.3
		c2.4,0,4.8,0.1,7.2,0.1C615.7,42.6,615.7,42.8,615.7,42.9z"/>
	<path class="st2" d="M302,45.1c2.6,0.5,2.7,0.5,1.8,2.9c-0.4,1,0.4,1.3,0.8,1.2c1.7-0.2,3.2,1.2,5,0.7c-0.8,1.1-1.7,0.6-2.8,0.5
		c-2-0.2-3.8-1.4-6.1-0.6c-1.9,0.6-1.4-1.4-1.6-2.6l0,0c0.5-1.2,2.6-0.2,2.7-2L302,45.1z"/>
	<path class="st7" d="M656.6,23c-0.5,0.2-1.1-2.4-1.6,0.1c-0.2,0.8-1.3,0.5-1.8-0.2c-2.4-3.1-4-3.5-7.9-2.4
		c-1.2,0.3-2.5,0.1-3.7,0.1c2.1-0.9,4.3-1.6,6.4-2.2c2.2-0.7,3.9,1.9,6.2,2.4C655,21.1,657.1,20.7,656.6,23z"/>
	<path class="st10" d="M597,41.7c-3,1.1-6.1,1-9.1,0c0-2.4,2.2-3,3.6-4.1c0.7-0.6,2.1-0.1,1.9,1.2C592.6,42.4,595.1,41.5,597,41.7z"
		/>
	<path class="st13" d="M448.3,39.4c0-0.3,0-0.7,0-1c3.2,0.1,6.5-1.8,9.7,0.2c0.3,0.2,1.1-0.9,1.2,0.3c0,0.7-0.9,1.3-1,1.1
		c-2.2-1.7-4.4,0.2-6.6,0c-0.2,0-0.3,0-0.4,0.1C450.3,39.5,448.8,41.4,448.3,39.4z"/>
	<path class="st7" d="M538.8,40.1c-0.1,0-0.2,0-0.3,0c-1.8,0-4.4,0.6-4.4-1.7c0-1.9,2.7-0.7,4.1-1c1-0.2,2.1,0,3.1,0
		c1.2,0,2.5,0,2.7,1.5c0.2,1.7-1.6,1.4-2.5,1.8s-1.8,0.2-2.3-0.8c-0.4-0.5,1.5-0.5,0.3-0.9c-0.9-0.3-2-0.1-3-0.2
		C537.3,39,538.5,38.8,538.8,40.1z"/>
	<path class="st7" d="M71.8,41c-1.1,0.9-2.2,1.9-3.8,0.9c-0.5-0.3-1.5-0.5-2-0.2c-3,1.9-6.4,1.8-9.7,2.1c-0.5,0.1,0.2,1.9-1.3,1.2
		c0-1.2,0.4-1.7,1.7-2C61.7,41.9,66.6,40.6,71.8,41z"/>
	<path class="st7" d="M751.4,44.4c-2.4-0.1-4.6,1.1-7.1,0.7c-0.9-0.1-1.9-0.1-1.9-1.4s1-1.4,1.9-1.4c1.5,0,3,0.1,4.4,0.1
		c0.1,1-1.1,0.8-1.4,1.5c0.8-0.5,1.7-1.1,2.7-1.2C750.9,43,751.6,43.3,751.4,44.4z"/>
	<path class="st7" d="M741.7,51.4c-1.2-1.7,0.2-1.5,1-1.2c2.1,0.7,3.3,2.7,5.4,3.5c0.8,0.3,0.5,1.3-0.5,1.7
		c-2.4,0.9-4.4-0.3-5.2-3.2c-0.2-0.3,0.7-0.1,0.2-0.5C742.3,51.6,741.9,51.6,741.7,51.4z"/>
	<path class="st6" d="M360.4,51.3c0.9,0,2.1,0.5,2.6-0.3s-0.6-1.2-1.1-1.8c-0.9-1-0.2-1.7,0.8-2c0.9-0.2,2,0.1,2.9-0.4
		c0.1,0.2,0.3,0.4,0.3,0.5c0.2,1.3-1.9,1.9-1.4,2.7c1.2,1.8,2.7-0.7,4.2-0.3C366.1,51.5,363.5,52.8,360.4,51.3z"/>
	<path class="st15" d="M712.4,54.5c-0.5,1.1-1.3,1.8-2.2,2.3c-0.5,0.3-1.2,0.3-1.6-0.2c-0.7-1,0-1.4,0.8-1.7
		c0.5-0.2,0.1-0.5-0.2-0.6c-1.3-0.6-1.3-1.5-0.5-2.4c0.3-0.3,1.3-0.4,1.5-0.1C711.1,52.5,711.7,53.5,712.4,54.5z"/>
	<path class="st7" d="M400.7,43c0.2-1.5,2.1-0.4,2.5-1.8c0.2-0.5,0.9,0.2,1.3,0.6c0.9,0.9-0.2,1.5-0.4,2.1c-0.4,1-2.5,0.9-1.9,2.7
		c-0.9,0.3-1.5,2.4-2.6,0.7c-0.8-1.3,0.4-1.9,1.6-2.4c0.6-0.2,1.3-0.7,1.1-1.4C402.1,43.1,401.2,43.1,400.7,43z"/>
	<path class="st7" d="M779.9,27.8c-3.6,0.2-6.9,2.1-10.6,1.1c-0.9-0.3-2.1,0.6-3.2,0.9l-0.2-0.1c1.5-3.5,1.8-3.6,5.4-2.7
		c1.5,0.3,3-0.7,4.7-0.3c1.2,0.3,2.5,0,3.7,0.7C779.7,27.5,779.8,27.7,779.9,27.8z"/>
	<path class="st11" d="M701.2,24.9c-0.3,0.7-0.6,1.3-0.9,2c-2.5-0.3-5.1,1.9-7.4-0.5C695.7,25.9,698.2,23.6,701.2,24.9L701.2,24.9z"
		/>
	<path class="st7" d="M488.8,38.8c2.3-0.2,4.2-3.4,6.8-0.8c0.9-3.1,1.2,0.3,1.8,0.2c1.7-0.1,2.5-1.6,3.8-2c1.6-0.5,0.6,1.3,1,1.9
		C497.9,39,493.3,38.3,488.8,38.8z"/>
	<path class="st16" d="M467.3,40.1c1-1,2.4-0.2,3.4-0.8c0-1.3-2.3-1.5-1.5-3.1c0.7-1.3,2-0.8,3-0.8c0.5,0,1.2-0.3,1.4,0.5
		c0.2,0.7-0.4,1.2-0.8,1.3c-2,0.5-0.7,1.4-0.3,2.2C470.8,40.5,469.1,40.3,467.3,40.1z"/>
	<path class="st17" d="M740.2,19.9c1.9-0.8,3.7-1.5,4.1,1.7l0.1-0.1c-3.6,1.8-4.7,1.7-6.1-0.7C738.9,20.5,739.5,20.2,740.2,19.9z"/>
	<path class="st7" d="M626.8,46.4c1.1,0.4,1.4-0.4,1.7-1.2c0.3,0.6,2-2.2,1.4,0.7c-0.2,0.9,1.1,0.6,1.6,0.5c2.6-0.3,5.3,0.5,7.9-0.1
		c0.4-0.1,1,0.4,1.4,0.7C636.2,47.9,631.5,47.6,626.8,46.4z"/>
	<path class="st7" d="M178.9,28.4c-0.4,0.8-0.8,1.7-1.2,2.5c-1.4-0.7-0.6-2.2-1.3-3.1c-1.3,3-4.1,2.1-5.7,1.4
		c-1.2-0.5-2.1,0.1-3-0.3c0.8-1.3,1.7-1.4,3.1-0.7c1.6,0.9,3.3,0.9,4.7-0.6C177.1,25.9,177.7,28.9,178.9,28.4z"/>
	<path class="st7" d="M40.5,43.1C40,44,39.2,44,38.6,43.4c-0.4-0.4-0.3-1.3,0.2-1.5c2.4-0.7,3.5-3.1,5.5-4.1
		c-0.8-1.6-3.5-0.9-3.9-3.1c1.7,0.7,4.5,1,4.5,3c0,1.6-2.4,2.9-4,4.1C40.7,41.9,38.4,41.9,40.5,43.1z"/>
	<path class="st7" d="M644.7,47.8c3.9-1.1,8-0.8,12-0.5c1.3,0.1,2.3,1.2,3.4-0.6c0.4-0.6,1.3,0.5,1.7,1.1
		C656,48.8,650.3,47.4,644.7,47.8z"/>
	<path class="st7" d="M249.3,22.3c-0.6,0.8-1.1,1.6-1.8,2.6c-0.7-1.1-0.3-1.8,0.1-2.5c-1.1-0.7-1.7,0.3-2.6,0.4s-2,1.6-2.2-0.8
		c-0.1-1.1-1.3-0.1-1.5,0.1c-2.3,1.6-1.7-0.4-1.9-1.4C242.6,21.3,246,21.8,249.3,22.3z"/>
	<path class="st7" d="M388.9,48.7c1-0.9,4.4,0.1,2.4-3.2c-0.3-0.4,0.9-1.7,1.8-1.5c0.5,0.1,2-0.3,1.6,1.2c-0.7,3,1.2,1.8,2.5,1.7
		c-2.3,2.2-3.2,0.7-4-2.1C392.9,48,391.9,49.8,388.9,48.7z"/>
	<path class="st7" d="M619.2,38.1c-0.3,0-0.6,0.1-0.9,0.1c-0.1,0-0.2,0-0.4,0.1c0-0.1-0.1-0.2-0.2-0.3c-4.2-2.2-8.3-0.4-12.4,0.1
		c0-0.6,0.2-1.1,0.7-1.4c3.8,0.6,7.5-1.1,11.5-0.2C618.9,36.8,619.1,37.1,619.2,38.1z"/>
	<path class="st7" d="M354.2,45.9c0.6-0.2,1.2-0.6,1.9-0.7c0.4-0.1,0.9,0.1,1.3,0.1c-2.1,2.4,1.4,2.6,1.5,4c0,0.5-0.8,1-1.2,1.5
		c0.8,1.5,2.1-1.4,2.8,0.5c-1.7,0.6-3.6,2.2-3.3-1.7C357.3,48.5,355.2,47.2,354.2,45.9z"/>
	<path class="st7" d="M752.6,43.8c0.3-3.4,3.2-2,5-2.6c0.3-0.1,0.6,0.6,0.5,1.1c-0.2,0.8-0.7,1.3-1.4,1.3
		C755.3,43.7,754,43.7,752.6,43.8L752.6,43.8z"/>
	<path class="st7" d="M446.6,11.7c-1.5-1.3-3.4-0.4-5.1-0.8l0.1,0.1c-2.3,0-4.5,0.1-6.8,0.1c2.5-1,5.3-1.9,7.8-0.9
		c1.6,0.7,3.6-1.6,4.7,0.8C447.5,11.7,447.3,11.9,446.6,11.7z"/>
	<path class="st11" d="M525.4,38.4c1.6-1.3,3.3-2.4,5.4-1.3c0.5,0.2,1.9,0.2,1.3,1.5c-0.3,0.7-1,1.3-1.6,0.9c-1.6-1.1-3.4-0.1-5-0.8
		L525.4,38.4z"/>
	<path class="st7" d="M62.8,60.1c0.8,0.1,1.7,1.7,2.4-0.3c0.6-1.7,2.3-1.6,3.8-1.5c0.3,0,0.7,0.1,1,0.1c-1.1,2.2,0.4,2,1.7,1.9
		c-1,0.7-1.9,2.9-3-0.2c-0.8-2.4-2.2-0.5-2.9,0.4C64.5,62.3,63.6,62.2,62.8,60.1z"/>
	<path class="st18" d="M423.8,39.6c0.8,2.5,3.3,0.9,4.8,2c-2,1-4.2-0.1-6.2,0.8c-0.2-0.2-0.2-0.3-0.2-0.5c0.1-0.2,0.1-0.2,0.2-0.2
		c-0.4-1.6-1.5-2.4-2.9-3c0.3-0.7,1-0.5,1.5-0.5C422.3,37.7,423.2,38.3,423.8,39.6z"/>
	<path class="st7" d="M493.3,11.1c-2,0-4-0.5-5.7,1.3c-1.6,1.6-3.3-0.3-4.9-0.8c-1.4-0.5,1-1.6,0.1-2.6c1.4,2.1,2.7,3.9,5.7,1.7
		C489.6,9.8,491.8,9.7,493.3,11.1z"/>
	<path class="st7" d="M274.8,49.2c3-1.9,5.6,0.7,8.4,0.7c0.1,0.3,0.2,0.7,0.3,1c-2.2-1.6-5.3,1.6-7.3-1.4
		C276,49.2,275.3,49.3,274.8,49.2z"/>
	<path class="st6" d="M126.9,26.5c0.3,2.1-1.9,3-2.4,4.8c-0.3,1.4-1.2,0.1-1.8-0.1c-1.4-0.4-0.6-1-0.2-1.7c0.8-1.5,3.4-0.8,3.4-3.1
		C126.2,26.4,126.6,26.5,126.9,26.5z"/>
	<path class="st19" d="M538.8,40.1c-1.2-1.1-3.2,0-4.2-1.8c2.6,0,5.2,0,8,0c-0.7,2-2,2-3.5,1.6C538.9,39.9,538.8,39.9,538.8,40.1z"
		/>
	<path class="st7" d="M785.5,16c2,2.7-0.5,4.9-0.9,7.3c-0.3,1.4-1.6,0.8-2.5,1.1c-0.1-0.1-0.2-0.3-0.2-0.4c1.6-2.5,1.3-5.8,3.3-8.1
		C785.2,15.8,785.3,15.9,785.5,16z"/>
	<path class="st7" d="M635.8,21.9c0.4-0.3,0.9-0.5,1.8-1.1c-2.5,0-5,0.5-4.6-2.8c2.4,1.2,4.3,3.4,7,4.2
		C638.8,24,637.3,23.9,635.8,21.9z"/>
	<path class="st7" d="M8.7,32c-0.7,3.8,1.7,6.7,2.7,10c0.2,0.8,0.9,1.3,0,2c-1.8-2.5-1.8-5.7-3.4-8.4C7.4,34.8,7.1,32.9,8.7,32z"/>
	<path class="st7" d="M260.9,22.2c-1.6-0.1-2.8,0.8-3.7,1.9c-1.4,1.8-3.1-0.9-4.4,0.5c-0.4-0.5-0.4-1.4,0-1.5c1-0.3,1.1-1.3,1.8-1.7
		c0,1.8,0.5,2.7,2.4,1.5C258.2,22.2,259.3,20.6,260.9,22.2z"/>
	<path class="st7" d="M311.8,49c0.9,0.2,1.8,0.4,2.7,0.6c1.2,0.2,1.3,0,0.9-1.4c-0.3-1.2,0.1-2.2,1.3-2.3c1.2-0.1,2.5-0.6,3.6,0.5
		c-1.2,0.7-4.5-1.3-3.2,2.8C317.5,50.7,314.4,50.9,311.8,49z"/>
	<path class="st7" d="M20.3,55.5c4.1,0,7.1,3.3,11.1,3.7c-1.7,1-3.3,1-4.5-0.6C25.1,56.4,21.9,57.7,20.3,55.5z"/>
	<path class="st7" d="M203.1,52.7c0.2-1.6,1.2-2.5,2.7-2.9c0.6,0.9,2.1,1.4,1.4,2.8C206,54.9,204.5,51.7,203.1,52.7z"/>
	<path class="st7" d="M11.3,44.1c1.9,0.8,2,4.3,5.1,3.2c0.1,0.4,0.4,1,0.3,1.2c-1.1,1.4,0.5,1.9,0.8,2.8
		C15,49.4,12.4,47.4,11.3,44.1z"/>
	<path class="st6" d="M635.8,21.9c1.4,0.9,2.7,2.3,4.3,0.2c0.2,0,0.4,0,0.6,0c0.2,1.1-0.5,2.2-1.3,2c-3.1-0.9-6.4-0.3-9.5-1
		C631.8,22.3,634,23.3,635.8,21.9z"/>
	<path class="st7" d="M274.2,22.2c-0.7,0.2-1.4,1.1-2.1,0c0-0.5,0-0.9,0-1.4c0.6-0.7,1.5-0.3,1.6-0.3c-0.1,0-1-0.5-1.6,0.3
		c-1-0.8-1-1.6,0.3-1.9s2.8,0.2,3.4,1.1C277,21.5,274.5,21.2,274.2,22.2z"/>
	<path class="st2" d="M446.6,11.7c0.2-0.2,0.5-0.5,0.7-0.7c0.5,0,0.9,0,1.4,0c0.2,0.2,0.4,0.5,0.5,0.7c0.3,0.9,1.1,1.4,1.5,2.1
		c-1.2,1.2-2.4,1.7-4.1,0.7C444.9,13.5,447.4,12.6,446.6,11.7z"/>
	<path class="st7" d="M118.5,26.2c-0.8,0.1-1.5-0.2-1.4-0.8c0.3-1.6,1.9-1.3,3-1.7c0.6-0.2,1.6,0,1.5,0.9
		C121.3,26.4,119.2,25.2,118.5,26.2z"/>
	<path class="st7" d="M308.3,20.1c0,0.1-0.1,0.3-0.1,0.3c-3.9-0.7-7.9-0.8-11.9-1C300.4,18.3,304.4,18.5,308.3,20.1z"/>
	<path class="st7" d="M404.2,46.5c1-0.7,1.5-1.5,3.4-1.1c1.7,0.3,3.2-2.6,4.3-4.5C411.2,45.3,409.5,46.5,404.2,46.5z"/>
	<path class="st7" d="M448.8,11.8c0-0.3,0-0.5,0-0.8c3.1,0.5,6.7-1.4,9,2.1c-2-1.2-4.1-1-6.1-0.1C450.8,12.3,449.5,12.7,448.8,11.8z
		"/>
	<path class="st20" d="M703.3,20.7c-1,1.3-3,0.2-4,2c-0.3,0.5-1.5-0.8-1.6-2c0.3-0.3,0.5-0.5,0.8-0.8
		C700,20.7,701.9,19.2,703.3,20.7L703.3,20.7z"/>
	<path class="st7" d="M266.6,19.8c-1.1-0.1-2.4,0.8-2.6-0.6c-0.2-1.7,1.4-1.2,2.3-1.2c0.8,0,2.2-0.4,2.1,1
		C268.3,20.6,267,19.7,266.6,19.8z"/>
	<path class="st7" d="M563.4,41.1c-0.5-1.2-1.4-1.6-2.8-1.6c-1.6,0-3.3,0.8-4.8-0.6c1.1-0.5,2.3-1.1,3.4-1.6
		c-0.5,2.4,1.3,1.4,2.3,1.6C562.9,39,564.6,38.8,563.4,41.1z"/>
	<path class="st7" d="M129.6,41.4c3,0.6,6-0.4,9.1-0.3c1.3,0,1.2,0.4,1.3,1.2C136.5,41.4,132.9,43.5,129.6,41.4z"/>
	<path class="st7" d="M64.6,63.7c2-0.7,3.5-0.9,4.8,0c0.3,0.2,0.3,0.9-0.2,1.2C67.6,65.7,66.3,65.1,64.6,63.7z"/>
	<path class="st7" d="M151.1,25c-0.1,0.4-0.3,0.8-0.4,1.2c-2.3-1.2-5.7,0.5-7.4-2.6C145.8,24.8,148.5,24.2,151.1,25z"/>
	<path class="st0" d="M695,45c-1.2,0.2,0,2.2-1.8,2.2s-1.7-1.4-2.4-2.2C692.1,44,693.5,44,695,45z"/>
	<path class="st7" d="M115.6,45.5c0.6,0.2,1.6,0.7,1.8-0.1c1-3.5,4.1-2.6,6.4-3.4c-1.7,2-5.2,1.2-6.4,4.2
		C117.3,46.8,116,46.5,115.6,45.5z"/>
	<path class="st7" d="M473,39.5c1.8-1.5,4.5-0.3,6.3-3.1c1-1.6,0.9,1.5,1.4,2.4c-0.7,0.2-0.4-2.6-2-0.4
		C477.7,40,475.1,39.7,473,39.5z"/>
	<path class="st7" d="M226,22.7c-0.1-1,0.9-1.1,1.5-1.7c-1.6-0.6-2.2,0.1-2.8,1.4c-0.3,0.7-0.5,2.1-1.9,1.9c0.6-1.1,1.1-2.3,1.7-3.3
		c0.6-1,1.7-1,2.7-0.8c0.4,0.1,0.9,0.5,0.9,0.8C228.1,22.3,226.9,22.4,226,22.7z"/>
	<path class="st7" d="M685.1,57.4c-0.3,0.9-1,1-1.6,0.6c-0.8-0.4-2.3-0.1-2.2-1.6c0.1-0.9,1-1,1.6-0.6
		C683.7,56.2,685.1,55.9,685.1,57.4z"/>
	<path class="st7" d="M59,67.2c-1.2-0.1-1.1-1-1.1-1.8s-0.3-2,1.1-2c0.9,0,0.9,0.9,0.9,1.5C59.9,65.8,60.2,66.8,59,67.2z"/>
	<path class="st21" d="M772.3,34.8c0.6-0.3,1.2-0.7,1.8-0.8c0.9-0.2,1.7-1.3,2.7-0.6c0.4,0.3,0.3,0.9,0,1.2
		c-0.7,0.9-1.5,1.8-2.8,1.5c-0.6-0.2-1.2-0.4-1.8-0.7C772.3,35.2,772.3,35,772.3,34.8z"/>
	<path class="st7" d="M246.1,55.5c3.9-0.4,7.7-2.2,11.6-0.7C253.8,54.9,250,56,246.1,55.5z"/>
	<path class="st7" d="M331.2,18.5c0-0.2,0-0.4,0-0.6c1.1-0.9,2.5-1.3,3.2,0c0.8,1.5-1.2,1.2-1.8,1.8c-0.4,0.4-0.9,0.6-1.4,0.9
		C330.5,20,331.1,19.3,331.2,18.5z"/>
	<path class="st7" d="M478.7,9.7c-0.6,2.2-2,3.4-4.1,2c-1.6-1.1-1.7,1.5-2.9,0.7c0.6-1.2,1.2-2.5,3-1.5
		C476.4,11.6,477.5,10.3,478.7,9.7z"/>
	<path class="st7" d="M784,12.3c0.8-1.2,1.9-1.6,3.2-1c0.8,0.4,1.4,1.2,1.2,1.9c-0.5,1.2-0.9,2.9-2.8,2.8l-0.1-0.1
		c-0.2-1.1,1.5-2.9-1.1-3.2C784.1,12.6,784,12.4,784,12.3z"/>
	<path class="st7" d="M238.7,20.6c-1.2,1.1-2.2,2.4-3.6,3.2c-0.9,0.5-2.1,2.2-3.5,0.5c1.8-0.2,3.1-1.3,4.3-2.5
		C236.7,21.1,237.2,19.5,238.7,20.6z"/>
	<path class="st7" d="M734.5,54.2c-0.2-0.3-0.4-0.5-0.6-0.8c-0.8-0.7-2-0.4-2.7-1.3l-0.1-0.1c1.9-1.6,3.9-0.1,5.5,0.4
		s0.4,1.8-0.7,2.4C735.6,54.3,735.2,53.8,734.5,54.2z"/>
	<path class="st7" d="M160.1,29.2c-2,0.7-3.2-2.3-5.8-1.1c-0.7,0.3,0.1-1.8,0.8-2.7C155.9,27.8,158.8,27.4,160.1,29.2z"/>
	<path class="st7" d="M416.2,40.1c1.5,0.4,1.7-2,3.3-1.4c-0.4,0.7-0.9,1.3-1.2,2c-0.4,0.8,0.3,2.5-1.4,2.1
		C415.5,42.4,416.2,41,416.2,40.1z"/>
	<path class="st7" d="M123.7,42.2c0.1-1,0.7-1.6,1.6-1.2c1.5,0.6,2.6,1.4,3.1-1.1c0.1-0.7,0.8-0.4,1.3,1.6
		C127.8,43.1,125.7,41.7,123.7,42.2z"/>
	<path class="st7" d="M166.3,29.7c-0.8-2-1.9-2.1-3.6-1c-0.6,0.4-1.6,2-2.7,0.4c1-0.5,2-1,3-1.5C165.3,26.5,166.6,26.9,166.3,29.7z"
		/>
	<path class="st1" d="M663.5,56.9c0.1,1.2-0.6,1.4-1.3,1.4s-1.5,0.1-1.7-0.7c-0.3-0.9,0.3-1.2,1.1-1.3
		C662.3,56.2,663.1,56.2,663.5,56.9z"/>
	<path class="st7" d="M769.4,41.6c0-0.2,0-0.5,0-0.7c0.1-0.9-0.2-2,1.3-1.9c0.8,0,1.4,0.6,1.3,1.3C772,42.2,770.4,41.4,769.4,41.6z"
		/>
	<path class="st12" d="M52.8,36.7c0.1,1.2-0.6,1.4-1.3,1.4c-0.7,0-1.5,0.1-1.7-0.7c-0.3-0.9,0.3-1.2,1.1-1.3
		C51.6,36,52.4,36,52.8,36.7z"/>
	<path class="st7" d="M47.5,41.7c-1.5,2.3-2.3,2.6-4.7,1.4c-0.6-0.3-1.1,1-1.7,0C43,41.5,45.7,43.6,47.5,41.7z"/>
	<path class="st7" d="M231,24.3c-0.1,0.4-0.4,0.4-0.6,0.1c-1-1,1.6-1.6,0.5-2.2c-1.5-0.8-1.2,1.9-2.6,1.9c0.2-0.5,0.3-1.1,0.5-1.6
		c0.6-1.4,2-1.5,2.9-0.9C233.4,22.8,231.4,23.4,231,24.3z"/>
	<path class="st22" d="M720.8,45.2c-1.9,1.3-2.9,0.9-2.9-1.4C719.5,42.9,720.8,42.6,720.8,45.2z"/>
	<path class="st7" d="M267.2,22.2c-1.7,0.1-2,2.7-4.2,2.1c-1.3-0.4-2-0.8-2.1-2.1c1.4,1,2.8,1.9,4.3,0
		C265.6,21.7,266.5,21.2,267.2,22.2z"/>
	<path class="st7" d="M434.2,11.1c-0.7,0.5-0.5,1.8-1.6,2c-0.1-0.9-2.5,2.2-1.6-1c0.2-0.9-1.1,0.3-1.8,0.3
		C430.2,9.4,432.8,12.4,434.2,11.1z"/>
	<path class="st7" d="M717.3,52.1c-0.8,1.3-2.2,0.2-3.2,0.9c0.5,1,1.5,0.4,2.3,0.7c-0.7,0.4-1.3,0.8-1.9,1.2
		c-0.3-0.8-1.9-1.1-1.1-2.2C714.4,51.4,716,52.3,717.3,52.1z"/>
	<path class="st7" d="M464.8,12.5c-1.8,0.5-3.8,0-5.3,1.4c-1.1,1-1.3-0.2-1.7-0.7C460.1,13.1,462.3,10.7,464.8,12.5z"/>
	<path class="st7" d="M429.3,12.4c-0.2,0.9,0.1,2.1-1.6,1.6c-1.8-0.6-0.1-1.2-0.2-1.6c-0.5-1.6-1.1,0.2-1.7,0.1
		C427,9.4,428.1,11.7,429.3,12.4z"/>
	<path class="st7" d="M178.1,52.7c1.1-0.6,3.1,1.6,3.7-1.2c0.2,0.9,0.5,1.7,0.7,2.6C181.1,53.6,179.2,54.6,178.1,52.7z"/>
	<path class="st23" d="M677.4,44.5c1.3,2.9-1.3,2.1-2.5,2.6c-0.3-1,0.1-1.9,0.7-2.7C676.2,44.5,676.8,44.5,677.4,44.5z"/>
	<path class="st7" d="M53.7,45.1c-1.3,1-2.4,1.2-3.1-0.6c-0.5-1.4-1.5-2.2-2.6-2.8c1.2-0.1,2.2,0.1,2.9,1.4
		C51.5,44.2,52.3,45.1,53.7,45.1z"/>
	<path class="st7" d="M186.1,27.1c-2.1,0.7-4.5,0.2-6.5,1.4C181.3,26,183.6,26.4,186.1,27.1z"/>
	<path class="st7" d="M432,40.2c0.7-0.5,0.9-2.3,2.2-0.5c0.8,1,1.9,1.1,1.8-0.8c1.5,1,1,1.7-0.4,2C434.3,41.1,433.1,40.9,432,40.2z"
		/>
	<path class="st7" d="M422.3,41.6c0,0.2,0,0.5,0,0.7c-0.1,0.9-0.6,1.7-1.6,1.1c-0.7-0.4-1.1-1.5-0.6-2.1
		C420.8,40.5,421.6,41.4,422.3,41.6z"/>
	<path class="st7" d="M100.1,28.5c0.9,0,1.4,0.3,1.4,1c0,0.9-0.8,1-1.5,1c-0.6-0.1-1.1-0.4-0.9-1.1C99.2,28.6,99.8,28.5,100.1,28.5z
		"/>
	<path class="st7" d="M554.4,39.5c-0.3,2.4,2.1,1.7,3.1,2.7c-0.8,0-1.6,0.1-2.4,0.1c-0.7,0-1.4,0.1-1.8-0.6
		C552.9,40.6,553.6,40,554.4,39.5z"/>
	<path class="st7" d="M521,11c0.5,2.3-0.9,2.5-2.5,2.2c-0.7-0.1-1.2-1.1-2.1-0.6c0.4-1,1.1-1,1.9-0.6C519.6,12.8,520.2,11.9,521,11z
		"/>
	<path class="st24" d="M399.4,16.1c-1.1-1.1,0-1.8,0.6-2.2c0.5-0.3,1.6-0.5,2,0.4c0.3,0.7-0.4,0.9-0.7,1.4
		C400.7,15.8,400,15.9,399.4,16.1z"/>
	<path class="st7" d="M480.8,38.8c2.6-0.4,5.3-1.4,7.9,0C486,38.3,483.4,39.9,480.8,38.8z"/>
	<path class="st7" d="M587.2,41.7c0,1.1-3.3,0.4-1.5,2.6c-0.4,0.8-0.9,1-1.6,0.5c-0.5-0.4-0.4-1-0.1-1.6
		C584.8,42,585.9,41.5,587.2,41.7z"/>
	<path class="st7" d="M139.9,42.3c2.1,0.7,4.2,1.4,6.3,2.1C143.8,44.6,141.7,44.1,139.9,42.3z"/>
	<path class="st7" d="M397.2,45.9c-0.6-0.1-1.4-0.1-1.3-1.1c0-0.7,0.3-1,1-1.1c1.3-0.2,2.6-0.5,3.9-0.8c-0.7,1-1.7,1.4-2.9,1.5
		C396.6,44.5,397.2,45.3,397.2,45.9z"/>
	<path class="st7" d="M558.5,42.1c1.5-0.6,3.8,2,4.8-1c1.1,0.7,1.1,1.7-0.1,1.8C561.7,43.1,559.9,43.7,558.5,42.1z"/>
	<path class="st7" d="M400.3,19.5c-1.9,2.3-4.3,0.1-6.4,0.8C395.8,18.4,398.2,20.1,400.3,19.5z"/>
	<path class="st7" d="M238,55.5c2.6-1.2,5.3-1,7.9-0.1C243.3,55.5,240.6,55.5,238,55.5z"/>
	<path class="st7" d="M126,26.5c-2.2-0.3-3.9,2.3-6.2,1.1C121.9,27.7,123.5,24.5,126,26.5z"/>
	<path class="st7" d="M774.2,38.5c0.4,0.9,2.6,0.1,2,1.9c-0.1,0.3-0.7,0.8-0.9,0.7C774.1,40.8,774.3,39.6,774.2,38.5z"/>
	<path class="st7" d="M254.1,19.4c-2,0.4-3,2.4-4.9,2.9C250.1,20.1,251.4,18.6,254.1,19.4z"/>
	<path class="st7" d="M585.1,38.8c0-0.2,0-0.5,0-0.7c0.8,0.5,2.1,0.6,1.9,2c-0.1,0.5-0.6,0.7-1,0.6
		C584.9,40.5,585.2,39.6,585.1,38.8z"/>
	<path class="st7" d="M130.2,26.9c0.5,0.2,0.8,0.7,0.5,1.1c-0.5,0.6-1.2,0.4-1.8,0.2c-0.9-0.3-0.5-2.3-2.1-1.6c0.6-1.2,1.2-1,2-0.2
		C129.1,26.8,129.3,27.8,130.2,26.9z"/>
	<path class="st7" d="M231.1,52.1c0,0.2-0.1,0.4-0.1,0.6c-0.5,1.1,0.6,1.5,1,2.2c0.1,0.3-0.1,0.6-0.4,0.7c-1.2-0.1-2.6,0.3-2.6-1.7
		C228.9,52.3,229.8,52,231.1,52.1z"/>
	<path class="st7" d="M350.7,51.2c-0.7,0-1.1-0.1-1.3-0.7c-0.2-0.9,0.4-1.2,1.1-1.4c0.6-0.2,0.7,0.4,0.8,0.8
		C351.3,50.6,351.1,51,350.7,51.2z"/>
	<path class="st7" d="M233.8,55.5c1.4-1.3,2.8-0.1,4.2,0c-1.6,0.9-3.2,0.7-4.9,0.2C233.2,55.3,233.4,55.2,233.8,55.5z"/>
	<path class="st14" d="M731.2,52.1c1.3-0.3,2.1,0.1,2.7,1.3c-0.5,0-0.9,0.1-1.4,0.1c-0.8-0.3-1.8,0.4-2.5-0.4
		C730.4,52.8,730.8,52.4,731.2,52.1z"/>
	<path class="st10" d="M437.5,58c-0.1,0.5-0.4,0.9-0.9,0.8c-0.7,0-1-0.4-0.9-1.1c0.1-0.5,0.5-0.7,1-0.7
		C437.3,57.1,437.4,57.6,437.5,58z"/>
	<path class="st7" d="M705.3,55.8c0,0.5-0.2,0.9-0.7,1c-0.7,0.1-1.1-0.3-1.1-1c0-0.5,0.4-0.8,0.9-0.8S705.2,55.3,705.3,55.8z"/>
	<path class="st7" d="M698,55.7c0.5-0.1,0.9,0.1,1,0.6c0.2,0.7-0.2,1.1-0.9,1.1c-0.5,0-0.9-0.3-0.9-0.8
		C697.2,56.2,697.4,55.8,698,55.7z"/>
	<path class="st7" d="M17.5,51.3c2.6,0.5,3.5,1.7,2.8,3.6C19.8,53.4,18.6,52.4,17.5,51.3z"/>
	<path class="st7" d="M740,51.6c0.1,0.5-0.1,0.9-0.6,1c-0.7,0.2-1.1-0.2-1.1-0.9c0-0.5,0.3-0.9,0.8-0.9C739.6,50.8,740,51,740,51.6z
		"/>
	<path class="st25" d="M672.9,50.1c0.5-0.1,0.9,0.1,1,0.6c0.2,0.7-0.2,1.1-0.9,1.1c-0.5,0-0.9-0.3-0.9-0.8
		C672.2,50.6,672.4,50.2,672.9,50.1z"/>
	<path class="st16" d="M648.2,40.4c0.5,0.1,0.8,0.4,0.8,0.9c-0.1,0.7-0.5,1-1.2,0.8c-0.5-0.1-0.7-0.5-0.6-1
		C647.3,40.5,647.7,40.4,648.2,40.4z"/>
	<path class="st7" d="M310.3,48.6c0-0.3,0.1-0.7,0.1-1c-0.1-0.9,0.1-2.3,1-2.1c1.3,0.3,1.5,1.6,0.4,2.7
		C310.6,45.8,311,49.3,310.3,48.6z"/>
	<path class="st26" d="M261.5,19.1c-0.1,0.5-0.4,0.9-0.9,0.8c-0.7,0-1-0.4-0.9-1.1c0.1-0.5,0.5-0.7,1-0.7
		C261.3,18.2,261.4,18.6,261.5,19.1z"/>
	<path class="st7" d="M322.9,20.1c0.1-0.8-0.2-2,1.3-1.9c0.2,0,0.6,0.4,0.6,0.6C324.9,20.3,323.7,20,322.9,20.1L322.9,20.1z"/>
	<path class="st7" d="M780.4,30.9c-0.1,0.5-0.4,0.9-0.9,0.8c-0.7,0-1-0.4-0.9-1.1c0.1-0.5,0.5-0.7,1-0.7
		C780.2,30,780.4,30.4,780.4,30.9z"/>
	<path class="st7" d="M778.5,13.7c1.7-0.9,3.5-1.2,5.4-1.4l0.1,0.1c-1.3,2.6-3.3,2.6-5.6,1.4L778.5,13.7z"/>
	<path class="st7" d="M303.7,16c0.5,0.1,0.9,0.3,0.9,0.8c0,0.7-0.3,1-1,1c-0.6,0-0.8-0.5-0.8-0.9C302.8,16.4,303.2,16.1,303.7,16z"
		/>
	<path class="st27" d="M760.4,36.8c-1.4,0.2-2.3,1.9-3.9,1.3c0.6-0.6,1.2-1.3,1.8-2C759.1,36,759.9,36,760.4,36.8z"/>
	<path class="st7" d="M571.1,14.7c-1.4,0.6-2.7,1.3-4.1,1.9C568.5,14.3,569.4,13.9,571.1,14.7z"/>
	<path class="st7" d="M470.9,13.1c-2.1,1.8-3.7,0-5.5-0.7C467.2,12.7,469,12.9,470.9,13.1z"/>
	<path class="st7" d="M91.1,30.7c0.1,0.5-0.1,0.9-0.6,1c-0.7,0.2-1.1-0.2-1.1-0.9c0-0.5,0.3-0.9,0.8-0.9
		C90.6,29.9,91,30.1,91.1,30.7z"/>
	<path class="st7" d="M66.7,36.6c-0.5,0-0.9-0.1-1-0.7c-0.1-0.7,0.2-1.1,0.9-1.1c0.5,0,0.9,0.3,0.9,0.8
		C67.4,36.1,67.2,36.5,66.7,36.6z"/>
	<path class="st7" d="M190.8,28.4c0,1-0.5,2.1-1.4,1.9c-1.1-0.2-1.3-1.6-1.7-2.5C188.7,27.9,189.5,29.3,190.8,28.4z"/>
	<path class="st7" d="M357.9,16.5c-0.5-0.1-0.9-0.4-0.8-0.9c0-0.7,0.4-1,1.1-0.9c0.5,0.1,0.7,0.5,0.7,1
		C358.8,16.3,358.4,16.4,357.9,16.5z"/>
	<path class="st7" d="M395.1,15.5c-0.1,0.5-0.3,0.9-0.8,0.9c-0.7,0-1-0.3-1-1c0-0.6,0.5-0.8,0.9-0.8C394.7,14.7,395,15,395.1,15.5z"
		/>
	<path class="st7" d="M32.8,59.7c1.8-0.2-1.2,2.8,1.4,2.1c-0.3,0.6-0.6,1.4-1.4,0.9C31.5,61.7,32.4,60.7,32.8,59.7z"/>
	<path class="st28" d="M749.9,42.7c-1,1.1-2.2,1.9-3.9,1.8c0.4-1.5,2-1.1,2.7-2C749.1,42.5,749.5,42.6,749.9,42.7L749.9,42.7z"/>
	<path class="st0" d="M331.2,18.5c1.3,0.8-0.5,1.4-0.1,2.2h-0.3h-0.3c-0.1-0.9-1.7-0.4-1.4-1.5C329.5,18.1,330.5,18.7,331.2,18.5z"
		/>
	<path class="st29" d="M345.9,24.2c-0.1-0.5-1.1-0.9-0.2-1.6s1.6-0.3,2.3,0.3c0,0.2-0.1,0.4-0.1,0.6
		C347.3,24.1,346.7,24.6,345.9,24.2z"/>
	<path class="st7" d="M227.6,24.9c-0.3,0.6-0.4,1.6-1.4,0.7s-1.4-1.9-0.2-2.9C226.2,23.7,226.5,24.5,227.6,24.9z"/>
	<path class="st30" d="M389,47.7c0,0.3,0,0.5,0,0.8c-0.6,0-1.3,0-1.9,0c-1.4-1.8,0.7-1.4,1.2-2c0.2,0,0.4,0,0.6,0
		C389.3,46.9,389.3,47.3,389,47.7z"/>
	<path class="st7" d="M283.8,19.6c-1.3-0.5-2.8,0.5-4.1-0.3C281.2,18.5,282.6,18.1,283.8,19.6z"/>
	<path class="st7" d="M345.9,24.2c0.7-0.2,1.3-0.5,2-0.7c0,0.2,0,0.5,0,0.7c-0.6,0.9-1.5,0.7-2.4,0.7c-0.3,0-0.6-0.2-0.3-0.5
		C345.4,24.2,345.7,24.3,345.9,24.2z"/>
	<path class="st7" d="M714.5,54.9c-0.1,2.6,1.2,0.9,2,0.7c-0.2,1.4-1.1,1.7-2.1,1.1C713.5,56.2,713.7,55.4,714.5,54.9z"/>
	<path class="st14" d="M734.5,54.2c-0.2-1.1,0.4-1.8,1.4-1.4c1.3,0.5-0.4,1.3,0,2C735.4,54.9,734.7,54.9,734.5,54.2z"/>
	<path class="st7" d="M174.8,52.6c1.1,1.3,2.2-0.2,3.3,0.1C177,53.4,175.8,55.7,174.8,52.6z"/>
	<path class="st7" d="M782,24.3c-0.2,1.4-0.3,3-2.1,3.5l-0.1-0.1c-0.2-1.7,0.1-3.1,2.1-3.5L782,24.3z"/>
	<path class="st7" d="M482.8,9c-1.4-0.1-2.9-0.4-4.1,0.7C479.7,7.4,481.2,7.9,482.8,9z"/>
	<path class="st7" d="M384.7,45.8c0.8-2.4,2.2-1.6,3.6-0.7C387,45,385.8,45.2,384.7,45.8z"/>
	<path class="st31" d="M749.9,42.7L749.9,42.7c1.4-0.9,1.9,0.6,2.7,1.1l0,0c-0.3,0.4-0.5,1-1.2,0.6
		C750.9,43.8,750.4,43.3,749.9,42.7z"/>
	<path class="st7" d="M448.3,39.4c0.6,1.3,2.1-0.7,2.8,0.7c-1.2,0.7-2.3,1-3.6,0.2l-0.2-0.2c-0.2-0.1-0.3-0.3-0.2-0.4
		c0.1-0.1,0.1-0.2,0.2-0.2C447.6,39.5,448,39.5,448.3,39.4z"/>
	<path class="st7" d="M411.8,40.9c1.4-0.6,2.7-1.5,4.4-0.8C414.9,41.1,413.4,41,411.8,40.9z"/>
	<path class="st7" d="M389,47.7c0-0.4-0.1-0.8-0.1-1.2c-0.2-0.5-0.4-1-0.7-1.5C390.6,45.4,390.4,46.4,389,47.7z"/>
	<path class="st7" d="M155.1,25.2c-1.4-0.1-2.7-0.2-4.1-0.2C152.5,23.9,153.9,23.7,155.1,25.2z"/>
	<path class="st0" d="M48.8,64c0.6-0.5,1.3-0.9,1.9,0.1c0.2,0.4,0.4,0.9-0.1,1.2c-0.8,0.4-1.1-0.5-1.7-0.7
		C48.8,64.3,48.8,64.1,48.8,64z"/>
	<path class="st0" d="M741.7,51.4c0.6,0,1.2-0.1,1.7,0.1s1.4,0.6,0.6,1.5c-1.2,1.2-0.8-1.1-1.6-0.7C742.1,52,741.9,51.7,741.7,51.4z
		"/>
	<path class="st0" d="M736.7,44.4c1.1-1.7,2.6-0.2,3.9-0.6C739.4,44.8,738,44.3,736.7,44.4L736.7,44.4z"/>
	<path class="st7" d="M623.4,45.9c1.2,0.1,2.5-0.7,3.5,0.5C625.7,46.4,624.4,46.9,623.4,45.9z"/>
	<path class="st0" d="M461.3,38.9c0.6-0.2,1-1.1,1.8-0.6c0.1,0.1,0.2,0.4,0.2,0.6c-0.4,1.1-1.3,0.5-2,0.6
		C461.3,39.3,461.3,39.1,461.3,38.9z"/>
	<path class="st7" d="M640.8,47c1.1,0.6,2.6-0.3,3.6,0.8C643.2,47.7,641.7,48.6,640.8,47z"/>
	<path class="st32" d="M325,48.7c0.5,0,0.9-1.2,1.6-0.2c0.3,0.4,0.3,0.6,0,1c-0.7,0.9-1.1-0.2-1.6-0.2C324.9,49,324.9,48.8,325,48.7
		z"/>
	<path class="st30" d="M370.9,50.2c0.6-0.1,1.3-0.6,1.8,0.1c0.1,0.1-0.3,0.7-0.5,1.1C371.3,51.5,370.7,51.3,370.9,50.2z"/>
	<path class="st33" d="M233.8,55.5c-0.2,0.1-0.5,0.2-0.7,0.2c-0.5-0.1-1-0.1-1.6-0.2c0-0.2,0.1-0.3,0.2-0.5c-0.5-0.5-0.4-1,0-1.5
		C232.5,54.2,233.1,54.9,233.8,55.5z"/>
	<path class="st7" d="M388.3,46.5c-0.2,0.8-2.1,0.6-1.2,2c-0.6-0.2-1-0.6-0.8-1.2C386.7,46.3,387.6,46.6,388.3,46.5z"/>
	<path class="st2" d="M526,23.5c2.2-2.6,5.5-1.5,8.1-2.7c0.1-0.1,0.6,0.1,0.6,0.2c-0.4,3.2,1.8,1.1,2.9,1.5c1.1,0.4,2.6-0.2,2.9,1.6
		c0.1,1,1,0.9,1.6,0.7c5.7-1.4,11.6-1.5,17.2-0.4c2.8,0.6,5.4,0.6,8.1,0.5c1.7-0.1,1.8,3,4.6,1.9c1.8-0.7,4.4,0.4,6.7-0.5
		c0.7-0.2,2.2-0.5,2.2,0.8c0,1.1-1.5,2.1-2.4,1.7c-3-1.2-6.1,0-9.1-1c-1.7-0.6-4.6-1.1-4.8,2.7c-1.7-1.9-3-4.2-5.9-3.4
		c-0.3-0.2-0.2-0.6-0.3-0.9c0,0.3,0.1,0.6,0.3,0.9c-0.5,0.8,0.4,2.6-1,2.4c-0.9-0.2-3.1-0.4-2.7-2.6c0.3-1-0.5-0.2-0.7-0.5
		c-0.9-0.2-1.6,1-2.5,0.2c1.5-1.6,0.1-1.1-0.7-1c-4.8,0.5-9.6,0.2-14.3-0.7c0.2-0.3,0.4-0.5,0.8-0.7c-0.3,0.2-0.5,0.5-0.7,0.7
		c-2.9-0.3-5.8-0.5-8.7-0.9C527.6,24.1,526.4,24.8,526,23.5L526,23.5z"/>
	<path class="st2" d="M601.8,29.8c-1.6,2.4-1.9-0.5-2.9-0.7c-0.8,0.8,1.1,2.3-0.6,2.7c-1.4,0.3-1.6-1.4-2.3-1.8
		c-1.4-0.8-3.4-1-5-0.8c-1.8,0.2-3.4,1.3-5.4,0.3c-0.9-0.5-1.1,0.4-0.9,1.3c0.1,0.7-0.6,1.2-1.4,0.9c-0.6-0.2-1.4-0.5-1.6-1
		c-0.3-0.6,0.7-0.7,1-1c3.2-4.1,7.5-2,11.3-1.8c1.3,0.1,1.9-0.2,3-0.6c1.8-0.7,3.9-0.9,5.8-1c1.2,0,2.3,0.7,1.1,2.2
		C603.1,28.7,601.5,27.4,601.8,29.8z"/>
	<path class="st22" d="M437,36.1c-2.4,0.2-2.4,0.1-4.6-1.2c-0.6-0.3-1.5,0-2.3,0c-0.2-0.1-0.3-0.3-0.3-0.5c-0.3-0.2-0.3,0.2-0.5,0.2
		c-1.3,0.5-3-0.8-4.2,1.2c-0.5,0.9-2.3,0.3-3.5-0.4h-0.3l-0.3,0.1c-0.3-0.2-0.4-0.5-0.5-0.9c-0.2-0.5-0.3-1.2-1.1-0.9
		c-0.2,0.1-0.4,0.2-0.4,0.5c0,0.9,0.7,0.7,1.2,0.8c0.3,0.1,0.6,0.2,0.9,0.5c-0.7,1.7-2.2,1.5-3.5,1.3c-1.3-0.3-0.6-1.5-0.7-2.3
		c-0.1-1.2-0.4-2.7,1.7-2.4c0.7,0.1,1-0.3,1-1c0-0.3,0.1-0.7,0.2-1c1,0.9,2,3,2.9,2.5c3.2-1.9,0.9,0.9,1.2,1.3
		c0.2,0.3,0.4,0.5,0.9,1c1-1.3,0.6-4.6,1.9-3.9c2.1,1.1,4.2-3.7,5.5,0.4c-0.1,2.5,2.4,2.7,3.5,4.2C436,35.6,436.5,35.9,437,36.1z"/>
	<path class="st34" d="M526.1,23.4c-4.1,0.8-8.1-0.3-12.1-0.8c-3.1-0.3-6.1-0.2-9.2-0.6c3.3-3,6.1-3.2,10.1-0.9
		c0.4,0.2,1,0.4,1.2,0.3C520.1,19.1,523.2,20.8,526.1,23.4C526,23.5,526.1,23.4,526.1,23.4z"/>
	<path class="st34" d="M320.9,29.1c0.4,2.2,3.3,3.4,5.4,1.5c2.2-2,2.8,1.1,4.4,0.8c0.5-0.1-0.2,0.6-0.3,1c-0.5,1.8-2,1.9-3.3,1.5
		c-3.1-1.1-6.4-0.2-9.5-1.2c-1-0.3-1.5-1.3-1.4-1.5c0.2-0.7,0.9-1.4,1.9-0.8C319.6,31.2,320,29.5,320.9,29.1z"/>
	<path class="st35" d="M435.5,35.4c-1.9-0.8-5.1-0.5-3.5-4.2c0.5,0.1,0.6,0.6,0.7,1c4.1-2.2,8.7,0.4,13.4-2.1
		c-1.1,1.5-1.7,2.4-2.3,3.2l0.1-0.1c-0.4,0.5-0.9,0.5-1.4,0.1C440.3,34.4,437.4,33.2,435.5,35.4z"/>
	<path class="st2" d="M443.2,23.6c-3.9,1.8-7.5-0.8-11.3-0.7c-1.1,0-0.7-0.6-0.8-1.2c-0.2-0.9,0.1-1,0.8-0.9
		c3.4,0.5,6.5-0.5,9.7-1.7c0.2,1.2-1.7,1-1,2c0.5,0.7,1.2,0.3,1.7-0.2c0.3-0.3,0.4-0.9,1-0.3C444.4,21.6,442.7,22.6,443.2,23.6
		L443.2,23.6z"/>
	<path class="st22" d="M608.8,29.2c-1.1,1.3-2.2,0.8-2.7-0.4c-0.4-1.3,0.7-1.6,1.9-1.7c3.5-0.4,7,0.7,10.5,0.1
		c0.9-0.2,1.9,1,1.9,2.4c-5.4-2.7-3.8,3.8-6.4,4.8c-0.6-0.6-0.4-1.1,0-1.8c0.3-0.5,0.1-1.4,0.3-2c0.9-2.1-0.7-1.2-1.4-1.3
		C611.6,28.8,610.2,28,608.8,29.2z"/>
	<path class="st3" d="M641.5,31.2c-2.2,2.1-5,1.5-7.6,2c-0.7,0.1-1.1-0.5-1.3-1c-0.2-0.4,3.5-2.7,4.2-2.7c1.2,0.1,2.3,0.2,3.5,0.2
		c1.1,0,2.7,0.3,1.4-1.7c0.3-0.1,0.8-0.4,0.9-0.3c0.5,0.6,1.9,0.5,1.7,1.8c-0.1,0.5,0.2,1.2-0.7,1.4
		C642.9,31.1,642.2,31.2,641.5,31.2c-1-0.8-2.1-0.3-3.9-0.2C639.4,31,640.5,30.5,641.5,31.2z"/>
	<path class="st36" d="M421.6,35.4c1.3-0.9,4.2,1.3,4.4-2c1.3,0.6,2.7,0.7,4.1,0.4l0,0c0,0.4,0,0.7,0,1.1c-1.8,1.9-5,2-6.3,4.7
		c-1-0.5-1.9-1-2.9-1.4C421.1,37.2,421.3,36.3,421.6,35.4z"/>
	<path class="st9" d="M328.4,45c-2.1-1.1-4.2-0.2-6.5-0.9c1.9-2.1,3.2-4.3,5.9-5c0.6-0.2,1.1-0.5,1.3,0.3c0.1,0.5,0.2,1.4-0.4,1.5
		C322.8,41.6,327.8,43.4,328.4,45z"/>
	<path class="st1" d="M351.2,34c-3.3,0-5.7-0.2-8.1,0.1c-3.1,0.4-4.3-0.7-3.4-3.7c2.4,1.5,4.9,3.3,7.9,2
		C349.5,31.5,349.6,32.9,351.2,34z"/>
	<path class="st2" d="M171.9,36.6c-2.6,2.4-5.6,1.5-8.5,1.5c-0.8,0-1.3-0.8-1.2-1.8c0.1-1.4,1.1-0.8,1.8-0.6
		C166.5,36.4,169.2,36.4,171.9,36.6z"/>
	<path class="st37" d="M305.8,38.9c0.6,2.3,4.8-1.5,4,2.5c-0.3,1.6-1.4,2.7-3.1,2.3C303.9,42.9,306.2,40.6,305.8,38.9z"/>
	<path class="st18" d="M296.4,31.2c0.1-0.4,0.3-0.8,0.4-1.2c3.1,1.5,6.6,0.9,9.7,2.2c-3.4,0.1-6.7,1.3-10.1-0.3
		C296.5,31.6,296.5,31.4,296.4,31.2z"/>
	<path class="st37" d="M523.9,34.7c-1.7,0.9-3.4,2.1-4.1-1c1.6,0,0.6-4.3,3.5-2.1c0.8,0.6,2.4-0.5,2.5,0.8c0.1,1.6-1.7,0.3-2.4,1
		C523,34,523.2,34.5,523.9,34.7z"/>
	<path class="st38" d="M75.3,56.9c-0.3,0.6-0.9,0.8-1.5,0.8c-2-0.4-4.2,0.7-6.2-0.8c1.1-1.1,2.3-0.3,3.5-0.8c1.1-0.7-1.9-1.9,0-2.5
		c1.7-0.5,1.4,0.9,1.4,1.9c0,0.6,0.3,0.7,0.8,0.3C75.2,53.9,74.4,56.8,75.3,56.9z"/>
	<path class="st9" d="M106.2,40.6c-2,2.5-4.2,2-6.3,1.5c-0.8-0.2-1.2-0.7,0.2-1.3C101.6,40.2,101.4,39.9,106.2,40.6z"/>
	<path class="st1" d="M167,47.2c0-0.3,0-0.5,0-0.8c0.4-0.8,0.8-1.6,1.4-2.3c0.8-1.1,0.8-1,1.5,0.5c0.8,1.6,1.8-1.1,2.6,0.2
		c0.2,1-0.9,1.2-1.1,1.7c-0.4,0.9-3.3-1-1.8,1.7C168.4,48.8,167.8,47.9,167,47.2z"/>
	<path class="st9" d="M626.6,28.1c-1.1,0.6-2.1,1.2-3.2,1.9c0.7,1.1,1.5-0.1,1.7,0.2c0.7,0.9-0.3,0.9-0.8,1.3
		c-1,0.7-1.9,1.6-2.9,2.5C623,27,623,27,626.6,28.1z"/>
	<path class="st38" d="M179.1,37.6c2.4,0.1,3.2-1.9,4.4-3.1c0.4-0.5,0.5-1.9,1.5-0.7c0.4,0.4,0.8,1.2,0,2.1
		C183.4,37.7,181.7,38.9,179.1,37.6z"/>
	<path class="st2" d="M409,38.1c0.5-0.3-1-0.9,0.3-1.4c2.1-0.8,3.9-2,6-3.2c-0.2,2.4-1,4-3.8,4C410.6,37.5,409.8,37.9,409,38.1
		L409,38.1z"/>
	<path class="st2" d="M314.3,39.6c0.5,1.1,2.4-0.1,2.2,1.6c-0.2,1.6-1.7,1.9-2.8,2.4c-0.6,0.3-1.3-0.7-1.4-1.6
		C312.2,40.5,313.5,40.4,314.3,39.6z"/>
	<path class="st25" d="M378.3,40.1c0.3,3-1.5,2.3-2.3,2.7c-0.6,0.3-1.9,0.5-1.6-0.8c0.2-1,0-2.6,1.9-2.6
		C377.6,39.6,378.3,39.9,378.3,40.1z"/>
	<path class="st22" d="M275.3,43.6c1.8-2.9,4.8-0.6,6.9-1.8c0.2,0.6,0.5,1.2,0.8,1.9C280.3,43.4,277.8,44.3,275.3,43.6z"/>
	<path class="st3" d="M358.6,46.1c-1.5-2.6,1-3.5,2.2-5c0.2-0.2,1.1-0.3,1.3-0.1c0.3,0.4,0.3,1,0.5,1.6
		C360.6,43,361.1,46.3,358.6,46.1z"/>
	<path class="st2" d="M198.8,44.9c0.9-3.1,3.9-4,4.1-6.6c0,0,0.9-0.1,1.3,0c0.6,0.2,0.1,0.5,0,0.7C203,41.2,201.9,43.5,198.8,44.9z"
		/>
	<path class="st25" d="M258.7,32c3.4-1.5,5.9-1,8.4-0.1C264.6,32.8,262.1,32.9,258.7,32z"/>
	<path class="st9" d="M387.9,35.2c0.6,4.3,0.6,4.3-4.3,3.2C385.6,38.2,386.2,36.1,387.9,35.2z"/>
	<path class="st39" d="M608.8,29.2c-0.6-0.2-1.7-0.8-0.8-1.1c1.6-0.5,3.8-1.5,4.9,1.1C611.6,30.3,610.2,30,608.8,29.2z"/>
	<path class="st25" d="M441.5,10.9c0.6,1.2,1.8,0.7,2.7,0.8c0.7,0.1,1.1,0.3,1,1c0,0.5,0,1.3-0.3,1.6c-0.5,0.3-1.3,0.5-1.7-0.3
		C442.7,13,439.4,13.5,441.5,10.9C441.6,11,441.5,10.9,441.5,10.9z"/>
	<path class="st40" d="M622,21.9c-3.1,1.5-5.1,1.2-7.4-0.4C617.1,20.5,619.1,21.1,622,21.9z"/>
	<path class="st41" d="M213.2,39.6c-0.7-0.5-2-0.9-2.1-1.4c-0.2-1.5,1.1-0.9,1.9-0.8c0.1,0,0.2,0,0.3,0c1.1-0.1,2.7-1.5,2.9,0.5
		C216.4,39.4,214,38.4,213.2,39.6z"/>
	<path class="st4" d="M170.5,38.9c2.4,1.1,3.9-0.8,5.5,0.3C174.1,42.1,173.5,42.1,170.5,38.9z"/>
	<path class="st3" d="M635.8,39.5c-1.4-0.6-3.1,2.6-3.8,0.3c-0.6-2,2.3-0.8,3.4-1.7c0.4-0.3,1.2-1.2,1.7-0.4
		C637.9,39.1,635.7,38.6,635.8,39.5C635.7,39.6,635.8,39.5,635.8,39.5z"/>
	<path class="st25" d="M338.5,42.9c-1-0.8-1.7-1.9-1.3-2.7c1-1.7,2.4,0.1,3.8-0.4C340.6,41.4,339.4,42,338.5,42.9z"/>
	<path class="st25" d="M85.2,56.1c-0.9,0-1.5-0.9-1.4-0.9c0.9-1,1.8-2.2,3-2.9c0.6-0.4,1,0.6,1,1.3C87.7,55.4,85.7,55.2,85.2,56.1z"
		/>
	<path class="st2" d="M564.9,20c-2,1.6-3.9,0.2-5.8,0C561,16.8,562.9,20.3,564.9,20z"/>
	<path class="st42" d="M601.8,29.8c-1.4-0.2-1.9-1.1-1-2.1c1.4-1.5,2.4-0.5,3.1,0.9C603.9,30.2,602.7,29.6,601.8,29.8z"/>
	<path class="st8" d="M540.4,18.1c2.6-0.1,4.7-0.5,6.3,1.4C544.8,19.1,542.6,20.3,540.4,18.1z"/>
	<path class="st43" d="M629.5,37.1c1-0.6,2-0.6,2,0.7c0,1.4-1.7,0.8-2.5,1.2c-1,0.5-1.4-0.3-1.4-1.1
		C627.4,35.8,628.9,37.5,629.5,37.1z"/>
	<path class="st22" d="M289.8,27c-0.6,0.4-0.8,0.7-1,0.7c-1.3-0.1-2.7,0.6-3.8-0.6c-0.5-0.5,0-0.9,0.3-1
		C286.9,25.1,288.2,26,289.8,27z"/>
	<path class="st9" d="M397.1,39.1c-0.4,0.8-1.2,1.5-1.6,1c-0.9-1-3,0.6-2.9-1.3c0-1.2,1.5-0.5,2.3-0.6
		C395.8,38,396.6,38.2,397.1,39.1z"/>
	<path class="st18" d="M284.2,43.7c0.4-1.4,3.2,0.4,2.2-2.2c-0.3-0.8,0.7-0.5,1.2-0.6c1.5-0.3,0.5,1,0.9,1.5
		c0.6,0.8,0.1,1.2-0.8,1.2C286.6,43.7,285.4,43.7,284.2,43.7z"/>
	<path class="st44" d="M296.4,31.2c0.4,0.2,0.6,0.4,0.1,0.7c-1.1,0-2.3,0-3.4,0c-0.5,0-1.2,0.3-1.4-0.5c-0.1-0.3,0.1-0.6,0.3-0.9
		c0.4-0.6,0.9-0.8,1.7-0.4C294.5,30.6,295.3,31.3,296.4,31.2z"/>
	<path class="st45" d="M402,38.8c-3-2.5,0.5-3,1.1-4.4c0,0,0.6,0.1,0.8,0.3c0.4,0.4,0.3,0.8,0,1.2C403.2,36.8,401.7,37.1,402,38.8z"
		/>
	<path class="st46" d="M261,50.2c1.8-0.2,3.3-0.2,4.7-0.5c1-0.2,1.4,0.3,1.4,0.9c0,1.1-0.7,0.9-1.4,0.5
		C264.3,50.2,262.7,52.1,261,50.2z"/>
	<path class="st8" d="M443.1,23.7c1.3,0,2.7-0.2,3.4-1.2c0.6-0.9,0.9-0.7,1.4-0.2c0.4,0.4,0.8,0.9,0.8,1.4c-0.1,0.8-1,0.7-1.3,0.5
		C446,23.1,444.3,25.4,443.1,23.7C443.2,23.6,443.1,23.7,443.1,23.7z"/>
	<path class="st47" d="M77.7,54.9c-0.7-1-2.5-1.4-1.1-2.7c0.5-0.5,0.3-2,1.7-1.4c0.6,0.2,0.6,0.8,0.2,1.1
		C77.7,52.6,78.3,53.7,77.7,54.9z"/>
	<path class="st3" d="M260.1,51.2c0,0.1-0.5,0.9-1.3,0.7c-0.7-0.2-1.1-1-1.7-1.6c0.6-0.4,1.2-0.9,1.9-1
		C259.7,49.1,260.3,49.5,260.1,51.2z"/>
	<path class="st2" d="M199.8,48.5c0.4-0.7,0.6-1.2,1.1-1c1.4,0.6,2.5-1.3,3.9-0.3c0.2,0.1,0.5,0.4-0.1,0.8
		C203.2,48.8,201.6,48.6,199.8,48.5z"/>
	<path class="st4" d="M624.4,36.7c0.3,0.4,1.5-0.6,1.3,0.7c-0.2,1-0.7,1.5-1.8,1.4c-0.8-0.1-1.3-0.3-1.2-1.2
		C622.8,36.5,623.5,36.6,624.4,36.7z"/>
	<path class="st8" d="M498.7,22c1.4-0.8,2.1-2.1,3.7-1.8c0.5,0.1,0.7,0.6,0.4,1.1C501.8,22.6,500.4,22.2,498.7,22z"/>
	<path class="st26" d="M333.6,43.4c-1.1-1.7-1.6-3.1-0.4-3.8c2.1-1.2,1.8,0,1.1,1.4C333.9,41.6,333.9,42.3,333.6,43.4z"/>
	<path class="st0" d="M448.8,11.8c0.9,0.6,3-1.6,2.9,1.3c-0.3,0.3-0.5,0.5-0.8,0.8C450,13.3,447.9,14,448.8,11.8z"/>
	<path class="st48" d="M269.9,32.6c0.8,1.2,0.5,2-0.7,2c-1.8,0.1,0.5-1.5-0.7-2.2c-0.9-0.5,1-1.1,1.1-1.1
		C271.7,31.2,269.1,32.5,269.9,32.6z"/>
	<path class="st8" d="M492,21.9c1.6-1.9,2.9-1.2,4.5,0C494.9,22.3,493.6,22.3,492,21.9z"/>
	<path class="st22" d="M602.5,22.2c1-0.5,1.9-1.6,3-0.8c0.2,0.1,0.4,0.8,0.2,0.9C604.8,23.4,603.7,22.7,602.5,22.2z"/>
	<path class="st25" d="M345.3,40.1c0.5,1.1,1.1,2.2,1.6,3.3c-0.6,0-1.8,2-1.8-0.5c0-0.8-0.3-1.7-0.4-2.5
		C344.9,40.3,345.1,40.2,345.3,40.1z"/>
	<path class="st2" d="M232.7,50.8c1.3-0.9,2.3-1.3,3.5-0.9c0.2,0.1,0.3,0.7,0.2,0.8C235.3,51.7,234.2,51.5,232.7,50.8z"/>
	<path class="st48" d="M368.9,33.1c-1.8,0-3.2,0-4.6,0C365.7,32.9,367,31.1,368.9,33.1z"/>
	<path class="st40" d="M277.8,33.7c-1.9,1.2-3,1.2-4.1,0.6c-0.1-0.1-0.1-0.5,0-0.6C274.7,32.8,275.9,33.3,277.8,33.7z"/>
	<path class="st49" d="M231.8,53.6c0,0.5,0,1,0,1.5c-0.6-0.6-1.9,0.5-2.1-1c-0.1-1,0.2-1.5,1.2-1.4C231.2,53,231.5,53.3,231.8,53.6z
		"/>
	<path class="st9" d="M251.2,41.7c-0.1,0.8-0.8,0.6-1.3,0.6c-0.6,0-1.5,0.2-1.3-0.9c0.1-0.5,0.5-1.1,1.1-0.9
		C250.3,40.6,251.1,40.8,251.2,41.7z"/>
	<path class="st50" d="M297.2,26.6c-1.4,0.6-2.5,0.8-3.5-0.8C295.1,25.7,296.3,25,297.2,26.6z"/>
	<path class="st24" d="M554.5,26.6c0.8-0.2,0.9-1.8,2.1-1.2c0.3,0.1,0.7,0.8,0.6,1.1c-0.3,1.1-1.3,0.4-2,0.6
		C554.9,26.9,554.7,26.7,554.5,26.6z"/>
	<path class="st51" d="M112.6,38.3c-0.6,0.9-0.8,1.9-1.8,1.6c-0.3-0.1-0.8-0.8-0.7-1.1C110.6,37.6,111.6,38.3,112.6,38.3z"/>
	<path class="st15" d="M214.2,46.1c-0.7,0.3-1.3,0.7-1.9,1c-0.1,0.1-0.6-0.3-0.6-0.5c0-0.8,0.5-1.3,1.2-1.4
		C213.4,45,213.8,45.6,214.2,46.1z"/>
	<path class="st52" d="M597.6,21.9c1.2-0.4,1.6-1.4,2.5-1c0.5,0.2,0.4,0.9,0.2,1.2C599.6,22.8,598.9,22.1,597.6,21.9z"/>
	<path class="st8" d="M449.6,26.9c0.5-1.2,1.2-1.4,2.2-1.1c0.2,0.1,0.4,0.7,0.3,0.8C451.4,27.3,450.5,27,449.6,26.9z"/>
	<path class="st53" d="M378.8,33.9c0.7-1.8,1.8-1.2,2.9-0.9C380.7,33.3,379.7,33.6,378.8,33.9z"/>
	<path class="st40" d="M149.6,42.7c0,0.8-0.3,1-0.8,1c-0.6,0-1.3,0-1.1-0.8c0.1-0.4,0.6-1,0.8-1C148.9,42,149.3,42.4,149.6,42.7z"/>
	<path class="st54" d="M556.4,36.3c-0.4,1.1-1.1,1.4-2.1,1c-0.2-0.1-0.4-0.7-0.3-0.8C554.6,35.8,555.5,36,556.4,36.3z"/>
	<path class="st53" d="M408.9,38.1c0.8,1.3-0.3,1.7-1.2,2.1c-0.1,0-0.6-0.4-0.6-0.6C407.1,38.2,408,38.1,408.9,38.1
		C409,38.1,408.9,38.1,408.9,38.1z"/>
	<path class="st8" d="M177.4,46.2c0,0.8-0.3,1-0.8,1c-0.6,0-1.3,0-1.1-0.8c0.1-0.4,0.6-1,0.8-1C176.7,45.5,177.1,45.9,177.4,46.2z"
		/>
	<path class="st55" d="M486.2,30.2c-1.2,0.5-1.9,0.2-2.5-0.7C484.8,28.6,485.5,29.2,486.2,30.2z"/>
	<path class="st56" d="M81.5,53.6c-0.3,0.2-0.6,0.5-0.8,0.4c-0.7-0.2-1.2-0.5-1.3-1.3c0-0.2,0-0.8,0.6-0.4
		C80.5,52.8,81.4,52.6,81.5,53.6z"/>
	<path class="st57" d="M573.2,31.7c0,0.8-0.4,0.9-0.9,0.9c-0.3,0-0.6-0.2-1-0.3c0.3-0.5,0.5-1.1,1.2-1
		C572.8,31.3,573,31.6,573.2,31.7z"/>
	<path class="st58" d="M488,21.9c1.4-0.3,2.3-0.5,3.5-0.8C490.5,22.7,489.5,22.1,488,21.9z"/>
	<path class="st3" d="M214.7,28.5c0.7-0.1,0.9,0.2,0.9,0.6c0.1,0.7-0.4,0.8-0.9,0.7c-0.3,0-1.1,0.3-0.8-0.5
		C214.1,28.9,214.6,28.6,214.7,28.5z"/>
	<path class="st59" d="M632.4,30.1c-0.2,0.3,0,1.1-0.7,0.6c-0.4-0.2-1.3,0-1-0.8c0.1-0.3,0.7-0.6,1.1-0.7
		C632.6,29.1,632.3,29.8,632.4,30.1z"/>
	<path class="st60" d="M159.4,33.6c-0.4,0.2-0.7,0.3-1,0.3c-0.4,0.1-1,0.1-1-0.5c-0.1-0.6,0.3-0.9,0.8-0.8
		C158.6,32.8,158.9,33.2,159.4,33.6z"/>
	<path class="st61" d="M404.3,25.1c-0.4,0.4-0.7,0.9-1.1,0.9c-0.6,0-0.4-0.6-0.4-1c0-0.6,0.4-0.8,0.9-0.7
		C404,24.4,404.1,24.8,404.3,25.1z"/>
	<path class="st0" d="M713.8,22.9c3.5-3,8.2-0.7,11.9-2.8c1.6-0.9,2.6,0.1,1.9,2l0.1-0.1c-3.3-0.6-3.9,2.9-5.9,4.3
		c-1.3,0.8-1.9,0.8-3,0.7c-1.1-0.1-2.3-0.1-3.4,0.2c-0.7,0.2-1.4,0-1.3-0.4c1.4-4-1.7-1.7-3.5-1.8C712.1,24.1,712.9,23.5,713.8,22.9
		L713.8,22.9z"/>
	<path class="st0" d="M701.3,25c0.1-2.2,1.8-1.6,3-1.6c1.9,0.1,3.7,0.2,6.5,0.4C707.2,25.6,704.1,24.8,701.3,25
		C701.2,24.9,701.3,25,701.3,25z"/>
	<path class="st32" d="M744.2,21.6c1.6-1.3,3.5-0.7,5.3-0.6c-3.1,0.6-4.4,4.2-8.1,4.7C742.4,23.9,745.3,23.9,744.2,21.6
		C744.3,21.5,744.2,21.6,744.2,21.6z"/>
	<path class="st62" d="M731.2,22.7c0.4-0.3,0.5-0.5,0.6-0.5c1.4,0.5,1.9-2.3,3.5-1c0.4,0.3,0.8,0.8,0.2,1.1
		C734.3,22.9,732.9,22.9,731.2,22.7z"/>
	<path class="st0" d="M727.7,24.2c-0.3,1.2,1.1,1.6,1.1,2.7c-0.9,0-2,0.6-2.4-0.4C726,25.5,726.5,24.5,727.7,24.2L727.7,24.2z"/>
	<path class="st32" d="M703.2,20.8c0.7,0.2,1.4-1.6,2.2-0.1c0.2,0.4,0.2,1.2-0.5,1.4C703.8,22.4,703.2,21.9,703.2,20.8
		C703.3,20.7,703.2,20.8,703.2,20.8z"/>
	<path class="st63" d="M727.6,22.2c0.6,0.1,1.3,0.2,1.9,0.3c-0.4,0.9-0.9,1.5-1.9,1.8l0.1,0.1C727.7,23.6,727.7,22.8,727.6,22.2
		C727.7,22.1,727.6,22.2,727.6,22.2z"/>
	<path class="st28" d="M361.6,20.2c0.4,2-1.2,1-2,1.2C359.5,19.7,360.6,20,361.6,20.2z"/>
	<path class="st0" d="M411.3,15.1c3-1.1,6.3,0,9.2-1.2c-1.1,2.1-1.1,1.6-4,1.6C414.7,15.6,413,16.4,411.3,15.1z"/>
	<path class="st14" d="M781.9,24.2c-0.7,1.2-1.4,2.3-2.1,3.5c-1.9-0.2-3.9,0.5-5.7-0.4c-0.4-0.2-0.9-0.3-1.2,0.2
		c-1.5,2.3-2.4,1.9-2.9-0.6c-0.2-0.8-0.9-0.4-1.5-0.3c0.6,2.3-2.3,1.7-2.6,3.3c-1,0.2-1.9,0.5-2.9,0.7c-1.1,0.2-2.2-0.2-2.2-1.4
		c0.1-1.4,1.4-0.8,1.9-0.5c1.3,0.6,1.3-0.7,1.8-1c1.4-0.7-2.1-4.2,1.8-3.1c-2.3-1.4,1.1-3.1-0.3-4.6l0,0c-1.2-1.4-3.1,0.3-4.7-1.5
		c3.8-0.4,7.2-1,10.6-1c2,0,3.4-2,5.6-1.1c0.7,0.3,0.1-1.8,0.9-2.4c2,0,3.9-0.2,5.6-1.4c1,0.2,2.4-1.8,3.1,0.1
		c0.4,1.3-0.5,2.5-1.8,3.3c-0.4,2.3-1.8,4.4-1.4,6.8C784.2,24.3,782.1,23,781.9,24.2z"/>
	<path class="st0" d="M752.3,23.8c4.1,0.3,7.8-2.5,12-1.5C761.7,24.6,755,25.5,752.3,23.8z"/>
	<path class="st37" d="M766.2,19.9c-1.3,2.2-3.3,1.5-5.3,1.4C762.5,19.9,764.4,20.1,766.2,19.9C766.1,19.9,766.2,19.9,766.2,19.9z"
		/>
	<path class="st64" d="M761.8,24.5c3,0.2,2,1.7,1.3,3.1C762.6,26.5,764,24.8,761.8,24.5z"/>
	<path class="st0" d="M757.6,20.2c0.5-1.1,1.4-1.3,2.4-1.4c0.3,0,0.6,0.6,0.2,1.1C759.4,20.7,758.6,21.2,757.6,20.2z"/>
	<path class="st20" d="M447.3,39.6c0.1,0.2,0.1,0.4,0,0.6c-1,0-2.1,0-3.1,0C445.2,37.7,445.2,37.7,447.3,39.6z"/>
	<path class="st14" d="M442.6,33.3c0.5,0,0.9,0,1.4-0.1c-0.1,0.8,0.2,2.1-1.2,1.9C441.5,34.9,442.2,34,442.6,33.3z"/>
	<path class="st14" d="M437.7,35c1.1-0.5,2-0.4,3.3,0C439.8,35.5,438.8,35.5,437.7,35z"/>
	<path class="st0" d="M523.8,38.8c-1.1,0.2-1.8-0.6-2.6-1.1c0.8-0.7,1.3-1.9,2.5-1.6C526.1,36.8,522.7,37.9,523.8,38.8L523.8,38.8z"
		/>
	<path class="st65" d="M632.5,42.7c5.1-0.6,5.1-0.6,5.8,0.6C636.1,44.4,634.4,42.6,632.5,42.7z"/>
	<path class="st64" d="M629.3,42.5c-1.2,0.7-2.2,0.5-3.2,0.1C627.1,42.5,627.8,41.2,629.3,42.5z"/>
	<path class="st66" d="M301.9,45.2c0.6,0.5,1.2,0.9,1.8,1.4c-1.6-0.3-3,0.3-4.5,0.6C299.8,46.1,300.5,45.2,301.9,45.2z"/>
	<path class="st0" d="M293,48.7c0.3-1,0.6-2.2,2.1-1.3c0.2,0.1,0.8,0.4,0.5,1C294.8,49.9,293.8,48.2,293,48.7L293,48.7z"/>
	<path class="st30" d="M291,49.9c-0.3-2.1,1.1-1.2,2-1.1l-0.1-0.1C292.6,49.6,292.1,50.2,291,49.9C291,49.8,291,49.9,291,49.9z"/>
	<path class="st0" d="M576.9,44.2c-1.1-1-2.4-0.4-3.6-0.5c-1-0.1-2.4,0.3-2.5-1c-0.1-1,0.7-2.1,2.2-1.8c0.5,0.1,0.9-0.2,0.9-0.7
		c1.6,2.8,4.3,0.6,6.4,1.4c1.1,0.4,2.3,0,2,1.8c-0.3,1.9-1.3,1-2.2,0.6C579,43.5,578,44.9,576.9,44.2z"/>
	<path class="st0" d="M157.4,46.5c-0.1-1.1,0.7-1.8,0.2-2.6c0.3,0,0.7-0.1,0.7,0C159,44.9,158.7,45.7,157.4,46.5z"/>
	<path class="st0" d="M163.5,49.4c0,0.6,0.1,1.1-0.5,1.2c-0.2,0-0.7-0.2-0.7-0.5c-0.1-0.7,0.4-1,0.9-1.3
		C163.2,48.8,163.5,49.3,163.5,49.4z"/>
	<path class="st11" d="M679.2,47c0.2-1.7,3-3.4,4.2-2.6c0.6,0.4,0.4,1,0.5,1.6c0.1,0.9-0.5,1.2-1.3,1.2
		C681.4,47.1,680.3,47.1,679.2,47l-0.1,0.1L679.2,47z"/>
	<path class="st0" d="M546.5,41.6c0.4-1.6,1.6-2.1,2.8-2.5c0,0,0.3,0.5,0.3,0.8C549.3,41.9,547.2,40.3,546.5,41.6z"/>
	<path class="st67" d="M617.9,38.3c0.1,0,0.2,0,0.4-0.1c0,0.7,0.8,1.9-0.5,1.9c-2-0.1-3.7,1.4-5.8,0.6
		C613.4,38.6,616.5,40.3,617.9,38.3z"/>
	<path class="st64" d="M105.5,33.6c-1,1.9-2.4,2-4.2,1.5C102.3,33.2,103.7,33.1,105.5,33.6z"/>
	<path class="st0" d="M389.7,19.4c0.7-0.2,1.5-0.5,2.2-0.7c0.1,3.5-2.5,1.5-4.1,2.3C388,19.6,389.6,20.5,389.7,19.4L389.7,19.4z"/>
	<path class="st68" d="M707.6,37.3c-0.2-0.2-0.6-0.4-0.7-0.6c-0.4-0.8,0.4-0.6,0.7-0.6c1.4-0.1,2.4,1.1,3.8,0.9
		C710.1,37.6,708.9,37.5,707.6,37.3L707.6,37.3z"/>
	<path class="st0" d="M601.8,42.4c0.4,0.2,1.2-1.5,1.2,0.1c0,0.6-1,1.3-1.5,2C600.5,43.5,601.7,43,601.8,42.4L601.8,42.4z"/>
	<path class="st0" d="M761.2,41.2c0.9-0.3,1.7-0.5,2.3,0c0.4,0.3-0.2,0.8-0.5,0.9C762,42.7,761.7,41.8,761.2,41.2z"/>
	<path class="st0" d="M592.7,39.5c-0.1,0.7-0.6,1.4-1.4,1.4c-0.8,0-0.7-0.7-0.6-1.2c0.1-0.7,0.6-1.2,1.2-1.4
		C592.7,38.1,592.7,38.8,592.7,39.5z"/>
	<path class="st69" d="M747.8,54.6c-0.7,0.5-1.5,0.4-2.2,0c-0.1,0,0.1-0.8,0.2-0.8C746.6,53.5,747.2,54,747.8,54.6z"/>
	<path class="st0" d="M272.1,20.7c0.8-3.2,2.2,0.5,2.5,0.1C274.3,21,273.2,20.7,272.1,20.7L272.1,20.7z"/>
	<path class="st39" d="M528.7,23.5c1.5-1.9,3.3-1.4,5-1.1c0.1,0,0.3,0.7,0.2,0.8C532.2,25.1,530.5,22.5,528.7,23.5z"/>
	<path class="st37" d="M558.8,27.2c-0.8-0.7-1.3-1.4-0.1-2.1c0.5-0.3,1.3-0.3,1.5,0.3C560.7,26.6,558.8,26.1,558.8,27.2L558.8,27.2z
		"/>
	<path class="st37" d="M537,25.1c0-2.9,1.3-1.4,2.6-0.9C538.7,25.3,537.7,24.8,537,25.1C536.9,25.1,537,25.1,537,25.1z"/>
	<path class="st37" d="M421,35.4c-1.1-0.2-2.2,1.3-3.2,0.1c-0.4-0.4-0.3-1.3-0.2-1.9c0.2-1.3,1.4-1.1,2.2-1.1
		C422.4,32.5,420.8,34.3,421,35.4L421,35.4z"/>
	<path class="st70" d="M430.1,33.8c-0.3-0.5-1.2-0.8-0.7-1.6c0.2-0.4,0.9-0.5,1.1-0.1C430.9,32.7,430.8,33.4,430.1,33.8L430.1,33.8z
		"/>
	<path class="st71" d="M507,21.5c2.9-1.3,4.8-0.9,6.7,0C511.8,21.5,509.9,21.5,507,21.5z"/>
	<path class="st64" d="M641.5,31.2c-1.7,0.2-3.3,0.4-5,0.6C638.1,30.1,639.7,30.1,641.5,31.2L641.5,31.2z"/>
	<path class="st38" d="M769,21.5c-0.4-1.5-0.5-2.8,1.1-2.8c2,0,4.2-1,5.9,0.5c0.6,0.5-0.3,0.9-1.1,1.2
		C772.9,21.1,770.7,19.7,769,21.5z"/>
	<path class="st72" d="M772,23.4c-1.4,0-2.8,0-4.3,0c0-0.1,0-0.2,0-0.3c1.4-0.2,2.8-0.4,4.2-0.6C771.9,22.8,772,23.1,772,23.4z"/>
</g>
</svg>
