<svg viewBox="0 0 800 60">
<style type="text/css">
	.st0{fill:#183254;}
	.st1{fill:#183255;}
	.st2{fill:#163659;}
	.st3{fill:#163558;}
	.st4{fill:#153658;}
	.st5{fill:#173457;}
	.st6{fill:#13385B;}
	.st7{fill:#15375B;}
	.st8{fill:#14375A;}
	.st9{fill:#113A5E;}
	.st10{fill:#103A5F;}
	.st11{fill:#154064;}
	.st12{fill:#15365A;}
	.st13{fill:#DCE2E7;}
	.st14{fill:#436583;}
	.st15{fill:#20486B;}
	.st16{fill:#CAD3DB;}
	.st17{fill:#244C6E;}
	.st18{fill:#2C5474;}
	.st19{fill:#113E62;}
	.st20{fill:#E8ECEF;}
	.st21{fill:#FEFEFE;}
	.st22{fill:#3D607F;}
	.st23{fill:#295071;}
	.st24{fill:#21496C;}
	.st25{fill:#254D6F;}
	.st26{fill:#395D7D;}
	.st27{fill:#285173;}
	.st28{fill:#355A7A;}
	.st29{fill:#325778;}
	.st30{fill:#284F71;}
	.st31{fill:#13395D;}
	.st32{fill:#14385C;}
	.st33{fill:#D8DEE5;}
	.st34{fill:#103D61;}
	.st35{fill:#CBD4DC;}
	.st36{fill:#164064;}
	.st37{fill:#EAEDF0;}
	.st38{fill:#4F708B;}
	.st39{fill:#A1B2C2;}
	.st40{fill:#385C7B;}
	.st41{fill:#C5D3DB;}
	.st42{fill:#CBD5DD;}
	.st43{fill:#214A6D;}
	.st44{fill:#748EA3;}
	.st45{fill:#DAE0E6;}
	.st46{fill:#12385C;}
	.st47{fill:#2B5273;}
	.st48{fill:#456785;}
	.st49{fill:#92A7B9;}
	.st50{fill:#BDCAD4;}
	.st51{fill:#B8C5D0;}
	.st52{fill:#274E70;}
	.st53{fill:#EFF1F3;}
	.st54{fill:#C5D0D8;}
	.st55{fill:#164065;}
	.st56{fill:#ABBAC7;}
	.st57{fill:#AEBCCA;}
	.st58{fill:#627F97;}
	.st59{fill:#53738E;}
	.st60{fill:#567791;}
	.st61{fill:#21496D;}
	.st62{fill:#0E3C60;}
	.st63{fill:#A1B3C2;}
	.st64{fill:#E0E5EA;}
	.st65{fill:#3B5E7D;}
	.st66{fill:#2C5374;}
</style>
<g>
	<path class="st0" d="M95,36.9c1,0.4,1.5,0.1,1.3-1c1.3-1.5,4.2,0.4,5.1-2.3c0-0.1,0.8-0.1,0.9,0.1c1.1,2.9,4.2,1.8,6.2,3
		c2.6,1.6,5.4,0.1,8.1,0.5c1.8-0.5,3.6-1.3,5.6-0.6l0,0c0.9,0.5,2.2,0.8,2,2.3c-0.5,0.8,0.2,1.9-0.8,2.5c-2.7,0.2-5.5-0.7-8.2,0.2
		c-1.6,0.1-3.1,1.6-4.9,0.6c-1.1-0.8-1.3,0.6-2.1,0.8c-0.4,0.3-0.9,0.3-1.4,0.1c-0.4-1.7-0.9-0.5-1.4,0c-1,0-1.7,0.5-2.4,1.1
		c-5.5,1.3-10.6,4.1-15.8,6.1c-2.8,1.9-5.9,1.5-8.9,0.7l0.1,0.1c-0.7-0.5-0.4-1.2-0.5-1.8c-0.1-1.2-0.7-1.6-1.8-0.9
		c-0.3,0.6-1,1-0.7,1.9c-2.2,1.4-3,0.2-3.4-1.8c-2-0.8-3.9-1.3-6,0.3c-1,0.8-2,0-2.8-1c-0.9-1-2.1-2-3.7-1.5c-0.9-0.6-1.4-0.1-2,0.5
		c-0.7,0.7-1.5,1-2.2-0.2c0.4-1-0.8-1.5-0.8-2.4c-0.9-1-2.5,0.4-3.4-0.9c-1.1-1.3-2.4-2.1-4.2-1.8c-1.1,1.7-3,0.4-4.3,1.3
		c-2.7-0.7-5.1,0.3-7.7,0.7C32.2,44,29,44.4,26,44.3c-1.1,0.4-2.3,0.3-3.4,0.1c-0.5,0-0.9-0.1-1.4-0.1c-1.1,0.7-2.4-0.2-3.4,0.6
		c-3.3-0.3-6.5-0.4-9.8,0.1c-1-0.5-2.7,0.6-3.1-0.8c-0.5-1.7,0.2-3.4,1.3-4.7c1.3-1.5,2.7-2.7,1.8-5c-0.5-1.2,0.7-2,1.4-1.9
		c2.3,0.5,4.5-0.9,6.9,0c2.6,1,5.5-0.7,8.3-0.5c5.2,0.5,10.4,0.1,15.5-0.5c3.2-0.4,6.5-0.4,9.3-2.5c1.9-1.4,4.3,0.4,4.7,1.5
		c2.7,6.3,8.5,6.1,13.7,7.2c1.9,0.4,3.9,0.1,5.6,1.1c2.6,1.6,5.4-0.8,8.4,0.6c1,0.5,3.3-0.9,4.8,1c0.1,0.2,1.1,0,1.2-0.2
		c0.8-3.2,3.3-1.3,5-1.8c0.3-0.3,0.9,1.4,1.1-0.1C94,37.8,94.4,37.3,95,36.9z"/>
	<path class="st0" d="M717.5,39.4c-1.3-0.6-2.8,0.9-4.1-1.3c-0.9-1.5-2.4,1.7-4.2,1.2c-2.3-1-4.8,0.3-7-0.7l0,0
		c-1.2-0.6-2.4-0.5-3.6,0l0,0c-1.5,1.1-2.7-0.5-4.1-0.5c-1.5-0.3-3.1-2.5-4.5,0.2c-0.2,0.5-0.8,0.2-1.1-0.1
		c-2.1-2.3-4.8-1.9-7.4-1.7c-3.3,0.2-6.6,1.2-9.9-0.1c-1.9-2.1-3.3,0.8-5.4,0.5c-3.7-0.5-7.6-0.4-11.4-0.8
		c-3.7,0.2-7.4,0.5-11.1-0.1l0,0c-1-0.9-2.4,0-3.4-0.6c-4.6,0-9.3,0-13.9-0.1c-0.7-0.1-1.6-0.1-2-0.9v0.1c-1.9-0.8-3.8,1.3-5.7,0.2
		c-1-0.2-2.1,0.2-2.8-0.8c-1.5-0.7-3-0.4-4.5-0.1c-4.7-2.3-9.5-2-14.3-0.8c-3.7,1.1-7.6,1-11.2,2.2c-1.1,1-2.6,1.6-3.7,0.6
		c-1.2-1.1-2.3-1.4-3.8-1.4c-2-0.1-1.1-1.9-1.3-2.9c-0.2-1.3,0.4-1.7,1.8-1.5c2.5,0.2,3.1-0.8,2.8-3.7c0.6-1.7,1.8-1.1,2.9-0.6
		c-0.1,2.5,2,2.2,3.3,2.1c3.6-0.2,7.2-0.5,10.6-1.6c1.1-0.7,2.5,0.2,3.6-0.5l-0.1,0.1c1-0.7,2.3-0.6,3.4-1c4.4-1.5,7.7,1.8,11.7,2.4
		c3.2,0.5,6.4,1.5,9.7,1.4c2.1,0.6,4.3,0.1,6.4,0.5c7.8,1.3,15.8,0.9,23.7,1.4c2.9-0.3,5.5,1.7,8.4,1.5l0,0c1.3-0.7,2.7-0.3,4.1-0.3
		c2.4,1.5,4.8-0.7,7.5,0.1c2.2,0.7,4.8,1,7.1,1.5c4.2-0.1,8.3-0.8,12.4,0.4c4,0.6,8.2-0.8,12.1,0.6c1.6,0.6,2.7,1.3,4-0.2
		c0.3-0.2,0.7-0.4,0.9-0.3c2.3,1.4,4.8,1.3,7.3,0.7c0.5-0.1,1.1-0.1,1.4,0.6c0.3,0.2,0.5,0.5,0.8,0.7c1.8,0.5,3,1.2,1.7,3.3
		c-0.5,0.6-1.2,0.9-2,1.2c-0.6,0-1.1,0.1-1.7,0.1C719.9,39.3,718.6,40,717.5,39.4z"/>
	<path class="st0" d="M138.8,39.1c-0.3-0.5-0.8-0.6-1.1-0.4c-3,2.3-6.9-0.3-10,1.8c-0.6,0.4-2.5,0.6-3-1.2c-0.3-0.3-0.7-0.5-0.9-1
		c-0.2-0.9,0.3-1.4,1-1.9l0,0c1.5-0.8,3.3,0.3,4.9-0.7c2.4-0.7,4.8-0.6,7.1-0.9c2.7-0.4,5.5-0.4,8.2-1.2c1.6-0.1,3.1-1.2,4.9-0.6
		c0.2,0,0.5,0,0.7,0c1.5-1,3.4,0.2,4.9-0.8c6.3-1.2,12.7-1.5,18.8-3.6c1.3-0.6,2.9,0.3,4.2-0.6c1.9-0.3,3.7-0.5,5.6-0.8
		c1.3-0.6,2.7,0.3,4-0.6c0.6-0.4,1.3-1.2,1.6-1.1c4.2,1.6,8.3-0.7,12.5-0.3c1.9-0.7,3.7-0.1,5.6,0c0.8-0.2,1.6-0.4,2.5-0.6
		c1.8,0.4,3.6,1.5,5.5,0.7c1.1,1.9,2.4,0,3.6,0c3.8-0.1,7.6,1,11.4-0.2c2.8-0.4,5.6-0.2,8.3,0.1l0,0c1.8,0.6,3.6,0.6,5.3,0
		c3,0.1,6.1-0.4,8.8,0.4c1.9,0.6,3.2-0.6,4.9-0.4c7.5,1.1,15,0.4,22.5,0.2c2.4-0.1,4.9,0.6,7.5,0.6c1.2,0.7,2.7-0.3,3.7,0.8
		l-0.1-0.1c2,0.8,4.5-0.5,6.3,1.3c-0.6,1.4,2.2,1.3,1.3,2.6c-0.8,1.2-2.4,0.8-3.5,0.6c-3-0.5-6-1.1-9.1-0.6
		c-0.3,0.1-0.8-0.4-1.2-0.6c-3.7,0.6-7.4,0.5-11.1,0c-5.3,0-10.7,0.1-16,0.1c-3.9,0.4-7.9,0.4-11.8-0.1c-0.5,0-0.9,0-1.4,0
		c-2.3,0.5-4.6,0.4-6.9,0.1c-1-0.3-1.9-0.6-2.9,0.1c-1.5,0.3-3-0.2-4.5,0.4c-0.6-0.2-1.2-0.4-1.7-0.5c-1.1,0.6-2.3,1.5-3.5,0.1
		c-0.2,0-0.5-0.1-0.7-0.1c-3.7,0.2-7.4,0.4-11.1,0c-4.4-0.4-8.8-0.2-13.3,0c-2.2,1.3-4.7,0.5-7,1.3l0,0c-2.5,1.1-5.2-0.2-7.7,0.7
		c-5.6,0.7-11.3-0.3-16.7,2c-1.5,1-3.3-0.2-4.8,0.8l0,0c-1,0.6-2.1,0.5-3,0.2c-1.5-0.5-2.6,0.1-3.6,1c-4.8-1-9.2,0.8-13.6,2.1
		C142.4,38.2,140.8,40.2,138.8,39.1z"/>
	<path class="st0" d="M352.2,17c-2,1.3-4.6-0.1-6.6,1.3c-0.2,0.1-1,0.3-1.3-0.5c-0.4-1.4-1.6-1.3-2.6-1c-1.2,0.4-1.7,1.4-1.4,2.7
		c-1.5,1.1-2.7-0.2-4.1-0.5c-0.7,0-1.4,0.1-2.1,0.1c-1.5,0.6-3.1-0.1-4.5,0.6c-5.5,0.2-11,0.5-16.5,0.7c-1.3,0.1-2.6,0.6-3.2,1.6
		c-1.7,2.6-4,4.5-6.4,6.2c-1.2,0.2-2.3,0.3-3.5,0l-0.1-0.1c-0.4-0.5-1-0.7-1-1.4c0-0.6,0.2-1.2,0.7-1.6c0.2-0.2,0.5-0.4,0.8-0.4
		l0.2,0.1l0.1-0.2c1-0.5,2.7-0.3,2.7-2.1c4.1-2,6.9-5.5,9.9-8.7c1.3-1.4,2.7-1.8,4.4-1.6c1.5,0.3,3.1,0.5,4.6,0h-0.1
		c1.1-0.8,2.3-0.5,3.4-0.2c0.5,0.1,1.1,0.3,1.5-0.3c1.1-1.2,1.9-0.5,2.7,0.4c0.7,0.3,1.3-0.7,2.2-0.1c1.2,0.8,2.2,0.4,2.2-1.3
		c0-0.5,0.4-1,0.6-1.6c1.4-4.4,1.6-4.5,5.9-3.2c0.7,0.2,1.5,0.5,2.2,0.7c1.5,0.9,3.3,0.9,4.9,1.3c0.3,0,0.5-0.1,0.8-0.1
		c0.1,0.1,0.1,0.3,0.2,0.4c0,0.3,0,0.6,0,0.9c-0.3,0.8-0.2,1.6,0.4,2.3c0.9,1,1.2,2.8,3.1,2.9c0.2,0.3,0.3,0.6,0.4,0.9
		C352.9,15.9,352.7,16.6,352.2,17z"/>
	<path class="st1" d="M724.3,38.8c1.1-1.7-0.9-2.3-1.3-3.4c2.1-1.9,4.8-0.9,6.7-0.3c3.2,1.1,6.2,0.7,9.3,0c1,1.5,2.4,1.2,3.8,0.8
		c0.6-0.2,1.2-0.7,1.7,0.1c0.4,0.8,1.3,0.4,1.9,0.6c2.2-0.5,4.4-0.1,6.5,0.8c4.1,0.5,8.4-1.2,12.5,0.9c0.8,0.4,2.3-0.3,3.5-0.5
		c3.7-0.5,7.4-0.1,11.1,0.2c0.4,0.9,1,0.7,1.5,0.1c0.9-1,1.8-0.5,2.6-0.1c0.8,0.6,1-0.3,1.5-0.6c0.2,0,0.3-0.1,0.4-0.2
		c1.3,0.6,2.6,0.3,4,0c0.2,0.2,0.3,0.4,0.5,0.5c1.4,0.3,3.1,0.2,4.1,0.9c1.8,1.4-1.7,2.1-0.9,3.7c0.2,0.4,0.1,0.9,0.2,1.4
		c-2.3,1.4-4.6-0.5-6.9-0.2c-3.1-0.4-5.9-3.1-9.3-0.5c-1.9,1.5-4.1-1.2-6.4-0.8c-1,0.2-2.2-0.7-3.2,0.3c-2.4,1.3-4.5-0.5-6.8-0.7
		l0.1,0.1c-2.5-0.3-5-0.3-7.5,0.1c-4.7-1.3-9.4-1.9-14.3-1.3c-0.9-0.8-1.9-0.5-2.9-0.1l0.1-0.1c-1.5,0.9-2.7-0.6-4.1-0.5
		c-1-0.2-2.4,0.3-2.8-1.2c-1,0.8-2.9-1.1-3.5,1.2c-0.4,1.2-1.3,0.5-2,0.7C723.9,40.1,723.9,39.5,724.3,38.8z"/>
	<path class="st2" d="M470.2,18.4c-1.5-0.1-0.9,1.3-1.4,1.9c-0.7,0.8-1.6,3-2.5,0c-0.1-0.2-0.6-0.6-0.7-0.5c-3.1,1.3-5.9-1.8-9-0.6
		c-0.8-0.7-0.5-1.4-0.2-2.2c0.1-0.4,0.6-0.8-0.2-1c-0.2,0-0.5-0.1-0.7,0c-0.5,0.5,0.3,0.6,0.3,1c0.2,0.9-0.2,1.6-0.8,2.1l0,0
		c-0.8,1.3-2.6,0.4-3.5,1.4l0,0c-0.4,0.8-1.1,1.3-2.1,0.9c-1.5-1.6,0.6-4.5-2.2-5.6c-0.5-0.1-1-0.3-1.5-0.1c0.3,0.3,0.7,0.2,1,0.5
		c0.4,0.6,0.5,1.2,0.3,1.9c-0.2,0.5-0.6,0.8-1.1,0.9c-0.9,0.1-0.9,0.6-0.8,1.3c-1.1,1-2,0.5-2.7-0.6l0.1-0.1c-1-0.7-2.8,0.5-3.4-1.4
		c-0.1-0.3-0.1-0.6,0-0.9c0.3-1.3,0-2.7,0.3-4c0.1-0.3,0.2-0.6,0.4-0.8c-0.1-0.1-0.2-0.3-0.1-0.5c2.3-0.4,4.7-0.5,7,0.1
		c3.2,1.3,6.5,0.6,9.7,0.6c1.2-0.7,2.5-1.2,3.4,0.5c0.8,1.2,1-0.1,1.5-0.3c2.2-0.4,4.1,0.9,6.2,0.8c1,0.9,1.6,2.4,3.1,2.6
		c0.4-0.1,0.6,0.1,0.7,0.4C471.7,17.8,471.1,18.2,470.2,18.4z"/>
	<path class="st3" d="M390.5,17.7c-2.2,1.9-3.2,0.2-4.5-1.4c-1.9-2.3-2.9-2.2-4.2,0.5c-1,2.1-4,2.9-5.8,1.6
		c-0.7-0.7-1.1-1.6-1.2-2.6c-0.1-1.6,0.7-2.5,2.2-2.9c0.8-0.2,1.5-0.4,1.6-1.4c0.2-0.6,0.3-1.3,0.9-1.7c0.5-0.1,1-0.2,1.3,0.4
		c4.4-0.7,8.9,0.8,13.3,0.1c2.5,0.5,5.2-0.2,7.3,1.6c0.1,0.5,0.1,1-0.1,1.4c-1.1,0.6-2.2,1.1-1.8,2.7c-0.5,1.8-1.8,1.2-2.7,1.2
		c0.7,0.4,2.3-0.1,2.7,1.1c0.6,1.5-1.8,0.7-1.7,2C394.6,21.4,392.6,19.4,390.5,17.7z"/>
	<path class="st4" d="M401,12.2c-2-1.6-4.8-0.6-6.9-1.8c1.9-0.5,3.7,0,5.5,0.3c3.4-1.5,9.8-0.4,11.8,2c0.2,0,0.5,0.1,0.7,0.1
		c0.3,0.4,0.1,0.8,0.1,1.2c0.4,0,0.1-0.3,0.2-0.4c-0.1-1.3,0.9-1.7,1.8-2.1c1.9,0.1,3.7,0.2,5.6,0.2c0.4,0.9,0.2,1.8,0.3,2.7
		c0,0.3-0.1,0.6-0.3,0.8c-0.6,0.7-1.7-0.4-2.2,0.5c0.2,1.2-0.8,1.8-1.3,2.6c-1.3,0.7-2.6,1.2-3.5-0.5c-2.2-1.3-3.1-0.9-4.6,0.4
		c-2.1,1.8-4.7,3.2-7.7,2c-0.9-0.3-1.6-0.8-2.3,0.2c-0.2,0.4-0.4,0.4-0.6,0c-0.1-1.1,1.1-1,1.5-1.6c-0.7-1.1-2.1-0.7-3-1.5
		c1.1-0.5,2.8,0.2,3-1.8c0.6-0.7,1.2-1.5,2.2-1.7C401.7,13.2,401.5,12.7,401,12.2z"/>
	<path class="st4" d="M470.8,16.3C470.8,16.3,470.8,16.4,470.8,16.3c-0.9-4.4,3-2.8,4-2.4c3.1,1.2,6.3,0.3,9.3,1.1
		c1.3,0.3,2.7,0.4,3.1,2.1c1.9,1.7,3.4,0,5-0.6l-0.1,0.1c1.8-0.7,3.6-0.6,5.5-0.8c1,0.9,2.9-0.5,3.5,1.3c0.8,0.8,0,1.8,0.4,2.7
		c0.1,0.4,0.2,0.9,0.1,1.3c-0.1,0.6-0.4,1.1-0.5,1.6c-0.6,1.5-1.6,2.3-3.3,2c-0.8-1.2-0.4-2,0.6-2.8c0.2-0.1,0.5-0.2,0.5-0.3
		c0.1-0.7-0.4-0.7-0.9-0.7c-2,0-3.7,0-5.6-1.5c-1.4-1.1-2.7,1.1-2.3,3.1l0.1-0.1c-1.1-0.5-1.8,1.1-2.9,0.6c-0.7-0.1-1.1-0.5-1.3-1.2
		c-0.1-1.2,1-2.7-0.8-3.5c-0.9,0.4-1.8,0.2-2.5-0.4c-1-1-0.7,0.3-0.9,0.6c-0.2,0.2-0.5,0.3-0.8,0.4c-1.6,0.2-3.6-1.3-4.9,0.8
		c-0.6,0.3-1.2,0.7-1.3,1.4c0.2,0.4,0.2,0.7-0.2,0.9c-2-0.2-2.7-1.1-1.8-3l0,0C472.6,17.9,471.5,17.2,470.8,16.3z"/>
	<path class="st5" d="M569.2,21.9c-1.8-0.4-2.1,1-2.7,2.1c-1,0.9-1.5,0.1-2.1-0.6l0,0c-1.5-1.7-2.1-3.5-0.5-5.5
		c2-1.1,4.1,0.8,6.1-0.2c3.1-0.7,6.2,0.2,9.3-0.5c3-0.4,0.8,2.9,2.4,3.4c0,2.2-1.3,1.8-2.7,1.3c-1.7-0.4-3.3-1.3-4.4,1.4
		c-0.4,1.1-2.7,1.1-4.1,0C570.1,22.8,571.1,21,569.2,21.9z"/>
	<path class="st6" d="M537,20.6c0.2,1.6-0.5,2.6-1.9,3.2c-0.8,1.1-1.3,0.5-1.6-0.4s-0.6-1.5-1.6-0.8c-0.1,0.3-0.1,0.7-0.2,1
		c-0.3,0.8,1.4,1.6,0.2,2.3c-1.2,0.7-1.7-0.7-2.5-1.2c-1.2-0.6-0.3-2.2-1.2-2.9c-1.3,1.2-2,3-3.9,3.5c-0.6-1.7-1.7-3.3-1-5.3
		c0.7-0.8,1.4-1.7,2.1-2.5c1.1-1,2.4,0.9,3.5-0.1c1.5,0.1,2.9,0.2,4.4,0C535.9,17.1,536.9,18.3,537,20.6z"/>
	<path class="st7" d="M371.7,15c-0.5-0.1-0.9-0.1-1.4-0.2c-0.2,0-0.3-0.1-0.3-0.3c0-0.2,0-0.2,0.1-0.2c-0.2-0.5-0.5-0.8-1.2-0.7
		c-1.7,0.7-3.3,0.1-4.9-0.4c-1-0.1-1.9-0.9-3-0.4c-0.7,0.1-1.3,0-1.8-0.5c-0.6-1.3,0-2.3,0.7-3.3c3.9-1.5,7.7,1,11.6,0.4
		c2.4,0.8,4.9-0.1,7.3,0.5c0.5,1.1,0,2.1-0.6,3c-1.8,0.4-3.6,0.5-5.3,1.2C372.6,14.6,372.2,14.9,371.7,15z"/>
	<path class="st6" d="M553.9,21.7c-1.1,1.8-1.8,3.7-4.8,1.8c-2-1.3-5.1,0.5-7.6-0.8c-0.7-1.4-0.6-2.8,0-4.1l-0.1,0.1
		c1.8-0.1,3.5-1.8,5.5-0.5c0.2,0.8-0.6,2,0.6,2.4c1,0.3,1.5-0.8,2.3-1.3c0.7-1,1.6-1.5,2.8-0.6c1.3,1,2.7,1,4.2,0.5
		c0.3,0.1,0.5,0.3,0.7,0.5c0.4,0.7,1.3,1.3,0.7,2.3v-0.1C556.7,23.1,555.3,22.7,553.9,21.7z"/>
	<path class="st8" d="M509.5,16.5c1.2,0.3,2-1.3,3.3-0.8c1.4,1.4,3.5,0.4,5,1.6c-0.3,0.5-1.4,0.2-1.2,1.2c0.2,0.3,0.7,0.5,0.8,0.9
		c0.1,0.7,0.2,1.4-0.2,2c0.4,0.9,1.3,2-0.7,1.8c-1.5-0.1-2.8,0.6-4.2,0.9c-0.9-0.3-1.4-1.1-2.1-1.7c-1-0.9-2.4-1.5-2.1-3.3
		C508.1,17.9,508.9,17.3,509.5,16.5z"/>
	<path class="st9" d="M359.9,9.1c0,1,0,2.1-0.7,2.9c0,0.5,0,0.9-0.2,1.4c-1,1.3-2.1,2.6-3.5,3.6c-0.3,0-0.6,0-0.8,0.1
		c-0.8-0.6-1.4-1.4-2.3-1.8c0-0.3,0-0.6-0.1-0.9c-1.4-0.7-2-2-2.1-3.5c0-0.4,0-0.7,0.1-1.1c0.2-1,0.7-1.7,1.8-2
		c1.5,0.3,3-0.6,4.4,0.5c0.3,0.6,0.9,0.4,1.4,0.5c0.3,0.6,0.6,1.3,1.5,0.7C359.4,9.1,359.5,8.8,359.9,9.1z"/>
	<path class="st10" d="M509.5,16.5c-0.2,0.9-0.5,1.8-0.7,2.7c-2.9,2.9,1.2,1.8,1.6,2.8c0.2,0.5,0.2,0.9-0.1,1.4
		c-0.1,0.2-0.2,0.3-0.1,0.5c-1.3,0.9-2.7,0.3-4.1,0.3c-0.7-0.5-1.8,0.3-2.2-0.9c0.2-2.1-2.4-0.5-2.7-2c0-0.5,0-1,0-1.5
		c0-1.4,0.8-2.4,1.6-3.4C505,16.3,507.2,17.3,509.5,16.5z"/>
	<path class="st11" d="M517.2,21.3c-0.4-0.7-0.6-1.3,0-2c0.7-0.6,1.8-0.7,1.9-2.1c0.1-1.5,1.3-1.3,2.3-0.7c1.3,0.9,2.7,1,4.2,1.1
		c0,1.1,0.1,2.3-1.5,2.4c-1.4,0.5-2,1.3-1.3,2.8c-0.1,2.4-1.9,1.9-3.3,2c-1.1-0.9,0.1-2.4-0.8-3.3C518.1,21.3,517.6,21.3,517.2,21.3
		z"/>
	<path class="st11" d="M427.5,19.9c-0.4-1.4,1-3.1-0.7-4.2c-0.3-0.3-0.3-0.6-0.2-0.9c1.2-1.2,2.4-1.6,3.4,0.2c0,0.3,0.1,0.5,0.1,0.8
		c1.5,1.2,2.7-0.4,4.1-0.4c0.7,0.1,1.3,0.3,1.8,0.7c0.8,0.5,1,1.2,0.8,2.1c-0.3,1-1.3,0.6-1.9,0.9C432.4,19.4,430,20,427.5,19.9
		L427.5,19.9z"/>
	<path class="st11" d="M436.3,18.7c0.1-0.9,0.3-1.8-0.6-2.4c-0.3-0.5,0.6-1.1-0.2-1.5c-0.1-0.8,0.3-1.3,1-1.7c1-1.3,2.2-1,3.5-0.5
		v0.1c-0.4,1.5-0.4,3-0.1,4.4c0,0.2,0,0.5,0,0.7c-0.8,0.4-0.3,1.4-0.9,1.9c-1,0.5-2.1,1-3.1,1.5C435.1,20.2,435.1,19.4,436.3,18.7z"
		/>
	<path class="st12" d="M430,14.9c-1.1-0.8-2.2-0.7-3.4,0.1c-1.4-0.1-2.5,0.7-3.7,1.2c-0.6,0.4-1,1.3-2,0.9c-0.2-0.3-0.3-0.6-0.4-0.9
		c-0.2-1.1,0.1-2,0.9-2.8c0.9-1,2.2-0.6,3.2-1.1c1.3-0.2,2.5-0.5,3.8-0.7c2.3,0.2,2.3,1.7,1.9,3.4L430,14.9z"/>
	<path class="st13" d="M355.5,16.9c0-2.1,2.5-2.3,3-4c2.5-0.9,3,0.3,2.4,2.5c-0.3,0.9-3.3,0.4-1.4,2.5c0.5,0.4,0.9,0.8,1.1,1.4
		C357.9,20.7,356.8,18.6,355.5,16.9z"/>
	<path class="st14" d="M556.9,20c0-0.3-0.1-0.6-0.1-1c0.4-1.9,2-1.4,2.9-1.1c1.1,0.4,2.2,0.5,3.3,0.6c1.1,1.6-0.2,2.1-1.2,2.7
		l-0.1,0.1C559.7,22.2,558.3,21,556.9,20z"/>
	<path class="st15" d="M421,17c0.5-0.4,1.1-0.9,1.6-1.3c0.3,0.2,0.4,0.4,0.4,0.8c0.2,1.4,1.2,2.5,0.9,4c-1.1,0.9-1.9,0.4-2.8-0.4
		c-0.2,0-0.5,0-0.7,0c-1.2,0.4-1.7-0.1-1.7-1.3C419.2,17.7,419.3,16.3,421,17z"/>
	<path class="st16" d="M446.9,18.5c0-0.7,0-1.4,0-2.2c-0.4-0.8,0.3-0.9,0.6-1.3c3.8-0.3,1.5,2.9,2.4,4.3c0.3,0.4-0.2,1.3-0.3,1.9
		c-0.2,0.3-0.5,0.3-0.7,0.1c-0.3,0-0.5-0.1-0.8-0.1C447.5,20.4,447,19.5,446.9,18.5z"/>
	<path class="st17" d="M537,20.6c-1.5-3.9-5.3-2.2-8-3.2c2.4,0,4.8,0,7.2-0.1c1.4-0.1,2.5-0.1,2.9,1.4
		C539.7,20.7,537.2,19.4,537,20.6z"/>
	<path class="st18" d="M370.1,14.3c0.2,0.1,0.3,0.3,0.2,0.5c0,1.2,0,2.4,0,3.6c-0.9,1.4-1.8,1.5-2.7,0l0,0c-0.8-0.4-2.2-0.4-1.6-2
		C367.4,15.7,368.8,15,370.1,14.3z"/>
	<path class="st19" d="M483,17.8c0.7,0.2,1.4,0.5,2.1,0.7c0.5,2.3-1.8,2-2.8,2.9c-0.9,0.2-1.8,0.6-2.3-0.5c-0.4-0.9-0.1-1.7,0.7-2.3
		c0.3,0,0.6,0,0.9-0.1C482,17.9,482.3,17.4,483,17.8z"/>
	<path class="st20" d="M455.2,19.1c1.4-2.5-1.2-2.4-2.6-3.3c1.5-1.3,3.3,0.1,4.6-1.1c0.5-0.5,0.8,0.6,1.1,1c0.5,0.8,0.3,1.3-0.6,1.4
		c-1.5,0.2-0.9,1.3-0.9,2.1C456.2,19.1,455.7,19.1,455.2,19.1z"/>
	<path class="st21" d="M300.5,24.8c-0.1,0.2-0.2,0.4-0.4,0.6c-0.3,0.5-1.6,0.4-0.7,1.4c0.2,0.5,0.4,1,0.6,1.4c-0.7,0-1.4,0-2,0
		c-2.1-0.4-4.2-0.9-6.3-1.3c1.9-0.4,4.2,0.7,5.6-1.8C297.8,24.2,299.4,24.8,300.5,24.8z"/>
	<path class="st21" d="M411.4,12.7c-3.7-2.4-7.6-3-11.8-2C402.6,8.5,410.1,9.8,411.4,12.7z"/>
	<path class="st21" d="M696.5,33.4c-4.1-0.1-8.3-0.2-12.4-0.4C688.3,32.2,692.4,31.5,696.5,33.4z"/>
	<path class="st21" d="M397.5,20.4c0.2,0.1,0.4,0.1,0.6,0c-3.4,1.6-5.1,1-7.7-2.7c2.2-1.6,0.6,1.5,2.1,1.7
		C394.1,19.6,395.9,19.9,397.5,20.4z"/>
	<path class="st21" d="M522.6,22.7c-2.2-0.4-1.7-2.2-1.2-3.1c0.7-1.4,1.6,0.7,2.5,0.4c-0.6,1.9,0.4,3.6,0.4,5.5
		C522.9,25,523.9,23.2,522.6,22.7z"/>
	<path class="st22" d="M361.2,12.3c0.9-0.6,1.7-0.9,2.3,0.4c-0.1,0.3-0.1,0.6,0,0.8c-0.7,1.7-0.8,3.5-2,4.9c-0.7-0.4-0.9-1-1-1.7
		C361.3,15.4,360.8,13.8,361.2,12.3z"/>
	<path class="st23" d="M424.6,12.3c-1,0.4-1.9,0.9-2.9,1.3c-0.6,0.5-1.3,0.8-2.2,0.7c-0.8-0.9-0.7-1.8,0.1-2.6
		c0.4-0.9,1.5-1.1,1.8-0.5C422.3,12.8,423.6,11.9,424.6,12.3z"/>
	<path class="st21" d="M780,38c-3.7,0.6-7.4-0.3-11.1-0.2C772.7,37,776.4,36.7,780,38z"/>
	<path class="st21" d="M246.6,30.3c3.9,0,7.9,0.1,11.8,0.1C254.4,31.8,250.5,31.2,246.6,30.3z"/>
	<path class="st21" d="M274.4,30.3c3.7,0,7.4,0,11.1,0C281.8,31.4,278.1,31.4,274.4,30.3z"/>
	<path class="st24" d="M574.1,26.9c0.1,0.7,0.1,1.4-0.7,1.3c-1.3-0.2-1.9-1.5-2.4-2.5c-0.5-0.9,0.7-0.8,1.3-0.9
		C574.1,24.5,573.4,26.3,574.1,26.9z"/>
	<path class="st21" d="M585.8,35.1c3.6-1.4,7.4-1.7,11.2-2.2C593.5,34.6,589.6,34.6,585.8,35.1z"/>
	<path class="st1" d="M371.7,15c0-0.5,0-1,0-1.5c2.6-0.9,2.8,0.7,2.6,2.6c-0.2,0.6-0.6,1.1-1.4,0.9C371.4,17.2,370.4,16.9,371.7,15z
		"/>
	<path class="st21" d="M671.6,36.3c3.2,0.3,6.3,1.2,9.3-0.8c0.8-0.5,0.6,0.5,0.6,1C678.2,37.5,674.9,38.1,671.6,36.3z"/>
	<path class="st21" d="M643.7,35.9c3.7,0,7.4,0.1,11.1,0.1C651.1,36.9,647.4,37,643.7,35.9z"/>
	<path class="st21" d="M722.3,34.7c-0.3-0.1-0.7-0.4-1-0.3c-3,1-5.9,0.2-8.7-0.7c0.4-0.2,0.9-0.7,1.1-0.6c2.3,1.3,4.8,1,7.2,0.7
		C721.6,33.7,722,34.1,722.3,34.7z"/>
	<path class="st21" d="M213.9,30.4c3.7,0,7.4,0,11.1,0C221.3,31.3,217.6,31.3,213.9,30.4z"/>
	<path class="st21" d="M665.3,31.7c-2.9,0.3-5.6-0.7-8.4-1.5C660.1,28.9,662.5,31.4,665.3,31.7z"/>
	<path class="st21" d="M480.8,18.5c-0.9,1.7-1.2,3.1,1.5,2.8c-1.1,0.8-2.3,1.1-2.7-0.5c-0.7-2.7-2.3-1.4-3.7-1
		C476.9,16.7,479.3,19.4,480.8,18.5z"/>
	<path class="st25" d="M474.6,22.2c0-0.3,0.1-0.6,0.1-1c1.4,0.4,2.8,0.6,3.5,2.4c-1.1,0.8-2.2,0.3-3.2,0.3
		C474.1,23.6,474.3,22.9,474.6,22.2z"/>
	<path class="st21" d="M564.4,23.4c0.7,0.2,1.2,0.9,2.1,0.6c-0.6,0.8-1.1,1.7-1.7,2.4c-0.4,0.5-1.1,0.4-1.5-0.1s-1.1-1.1-1.1-1.7
		c0.1-0.9,0.8-0.1,1.3-0.2C564.3,24.5,564.4,23.9,564.4,23.4z"/>
	<path class="st21" d="M356.4,8.3c-1.6,0-3.2-0.1-4.8-0.1c-0.9,0.5-1.8,0.8-2.8,0.1c0-0.1,0-0.3,0.1-0.4c0-0.6,0.5-1.5,0.9-1.2
		C351.8,7.9,354.5,6.5,356.4,8.3z"/>
	<path class="st21" d="M467.7,13.8c-2.3,1.3-4.1-1-6.2-0.8C463.7,12.1,465.7,12.6,467.7,13.8z"/>
	<path class="st21" d="M378.5,10.3c-2.3-0.5-4.8,0.6-7-0.8c3.1,0.3,6.3-1.1,9.2,0.9c-0.4-0.1-0.9-0.1-1.3-0.2
		C379.2,10.5,378.9,10.5,378.5,10.3z"/>
	<path class="st21" d="M78.3,51c3.1,0.6,6,0.2,8.9-0.7C84.4,52.8,81.4,52.2,78.3,51z"/>
	<path class="st21" d="M553.9,21.7c1.4,0.2,2.8,0.9,4.2,0.2c-0.2,0.5-0.5,1-0.7,1.6c-1,0.5-2,0.9-2.5,1.9
		C553.4,24.4,554.3,22.9,553.9,21.7z"/>
	<path class="st21" d="M579.3,17.2c-3,1-6.2,0.5-9.3,0.5C573.1,16.4,576.2,17.3,579.3,17.2z"/>
	<path class="st21" d="M138.8,39.1c0.4,0.1,1.3,0.3,1.3,0.2c0.9-3,2.8-0.5,4.2-0.8C142.5,39.2,140.8,41,138.8,39.1z"/>
	<path class="st26" d="M582.4,20.6c1-1.2,1.7-0.3,2,0.5c0.6,1.4-0.4,2.1-1.7,2.2C581.6,22.5,582,21.5,582.4,20.6z"/>
	<path class="st27" d="M485.9,21.9c0.4,0.4,0.9,0.8,1.3,1.2c-0.9,0.4-1.1,2.3-2.6,1.4c-0.4-0.2-0.8-0.6-0.8-1
		C483.7,21.9,485.7,23.2,485.9,21.9z"/>
	<path class="st21" d="M238.9,25.4c-2.8,0-5.6,0-8.3-0.1C233.4,24.4,236.1,24.3,238.9,25.4z"/>
	<path class="st21" d="M761.4,41.9c2.3-0.3,4.4,1.4,6.8,0.7C765.7,44.5,763.6,42.9,761.4,41.9z"/>
	<path class="st28" d="M373,17.1c0.3-0.3,0.6-0.7,1-1c0.3-0.4,0.6-0.7,1.1-0.6c0.6,0.9,1.1,1.8,0.8,3
		C374.9,18.2,373.2,19.3,373,17.1z"/>
	<path class="st21" d="M157.9,36.5c0.8-1.1,1.3-2.4,3.2-1.2c0.8,0.5,2.2,0,3.4-0.1C162.4,36.4,160,35.8,157.9,36.5z"/>
	<path class="st21" d="M492.2,16.5c-0.4,0.2-1,0.3-1.1,0.6c-1.3,2.9-2.6,1.3-3.8,0C489,17.9,490.5,16.1,492.2,16.5z"/>
	<path class="st21" d="M193.6,31.6c2.2-1.3,4.7-0.8,7-1.3C198.6,32.4,196,31.5,193.6,31.6z"/>
	<path class="st29" d="M554.9,25.3c-0.9-2.9,0.8-2.5,2.5-1.9C557.7,25.5,556,25,554.9,25.3z"/>
	<path class="st30" d="M726.5,40c-0.1-0.8-0.2-1.5-0.3-2.7c1.2,1.1,2.5,1.3,3.7,1.6C728.8,39.3,727.9,40.3,726.5,40z"/>
	<path class="st21" d="M754,42c2.5-0.4,5-1.4,7.5-0.1C759,42,756.5,42,754,42z"/>
	<path class="st21" d="M744.5,36.1c-2,0.5-4.1,1.9-5.5-0.9C740.6,37,743,34.1,744.5,36.1z"/>
	<path class="st21" d="M521.3,16.5c-0.9-0.1-2.3-0.9-2.2,1c0.1,1.5-0.9,1.6-1.9,1.8c-0.2-0.3-0.4-0.6-0.5-0.8c1,0,1.7-0.2,2-1.4
		C519,15.2,520.1,15.3,521.3,16.5z"/>
	<path class="st31" d="M446.9,18.5c1.4,0.5,1.8,1.4,1.3,2.7c-1.9,0.5-2.2-0.5-2-2.1C446.4,18.9,446.7,18.7,446.9,18.5z"/>
	<path class="st21" d="M561.8,21.3c0.9-0.7,1.7-1.4,1.2-2.7c0.3-0.2,0.6-0.5,0.9-0.7c-0.3,1.9-0.7,3.8,0.5,5.5
		C562.8,23.6,563.3,21.1,561.8,21.3z"/>
	<path class="st21" d="M752.9,37.4c-2.2-0.3-4.3-0.5-6.5-0.8C748.8,35.4,750.9,35.9,752.9,37.4z"/>
	<path class="st32" d="M490,22.7c0.8,0.2,2.3-0.7,1.9,1.2c-0.2,1.1-1.3,0.9-1.9,0.7C488.4,24,490.4,23.3,490,22.7
		C490.1,22.6,490,22.7,490,22.7z"/>
	<path class="st21" d="M633.3,28.8c-2.2,0.3-4.4,0.7-6.4-0.5C629,27.8,631.2,28,633.3,28.8z"/>
	<path class="st21" d="M186,32.4c2.5-0.8,5.1-0.6,7.7-0.7C191.2,33.2,188.5,32,186,32.4z"/>
	<path class="st21" d="M787,43.6c2.3-0.5,4.6,0.9,6.9,0.2C791.5,45.9,789.3,43.9,787,43.6z"/>
	<path class="st21" d="M497.6,15.8c-1.7,1.2-3.7,0.5-5.5,0.8C493.9,15.7,495.6,14.5,497.6,15.8z"/>
	<path class="st21" d="M238.2,30.4c2.3,0,4.6,0,6.9-0.1C242.9,31.4,240.5,31.3,238.2,30.4z"/>
	<path class="st21" d="M122.1,36.5c-1.9,0.2-3.7,0.4-5.6,0.6C118.2,35.7,120,35.2,122.1,36.5z"/>
	<path class="st21" d="M474.6,22.2c0.1,0.6,0.3,1.2,0.4,1.7c-1.3-1.3-4.5-1.7-2.3-4.8C472.3,20.8,472.6,22.1,474.6,22.2z"/>
	<path class="st21" d="M582.4,20.6c0.1,0.9,0.2,1.8,0.3,2.7c-1.3-0.1-2.6-0.4-3.7-1.3c1.1,0,2.4,0.3,2.7-1.3
		C581.9,20.6,582.2,20.6,582.4,20.6z"/>
	<path class="st33" d="M501.1,21.3c0.4,0.2,0.8,0.6,1.2,0.6c1.6-0.3,1.6-0.3,1.5,1.5c-0.8-0.6-1.8-0.8-2.7-0.7
		C500,22.1,500.7,21.7,501.1,21.3z"/>
	<path class="st21" d="M363.4,13.6c-0.6-0.3-0.1-0.6,0-0.8c1.8,0.7,3.6,1.1,5.5,0.9C367.1,15.1,365.3,13.8,363.4,13.6z"/>
	<path class="st21" d="M446.9,12.2c-2.3,0-4.6,0-7-0.1C442.2,11.2,444.6,11.1,446.9,12.2z"/>
	<path class="st21" d="M434.4,15.7c-1.4-0.5-2.8,2.1-4.2,0c1.3,0.1,2.5-0.4,3.5-1.2c0.1-0.3,0.4-0.5,0.7-0.4c0.5,0.2,0.8,0.6,0.9,1
		C435.2,15.6,435,16,434.4,15.7z"/>
	<path class="st21" d="M502.7,16.4c-0.4,1.2-0.5,2.5-1.6,3.4c-1.2,0.1-2-0.2-0.6-1.3c0.5-0.4,0.4-1,0.7-1.5
		C501.7,16.9,502.2,16.6,502.7,16.4z"/>
	<path class="st21" d="M702.2,38.6c2.3,0.3,4.8-0.7,7,0.7C706.9,39,704.4,40.1,702.2,38.6z"/>
	<path class="st21" d="M207.6,25.4c-1.9,0-3.7,0-5.6,0C203.9,24.3,205.7,24.4,207.6,25.4z"/>
	<path class="st34" d="M540.9,22.6c-0.1,0.2-0.2,0.4-0.1,0.6c-2.2,0.9-2.8,0.2-2-2c0.7,0,1.3,0,2,0.1
		C541.2,21.7,541.2,22.2,540.9,22.6z"/>
	<path class="st21" d="M423,16.5c-0.4-0.1-0.6-0.3-0.4-0.8c1.5,0.4,2.5-2,4.1-0.7c0,0.2,0,0.5,0.1,0.7
		C425.5,15.9,424.2,16.2,423,16.5z"/>
	<path class="st21" d="M556.9,20c1.8-0.2,2.7,2.5,4.8,1.4c-1.1,0.9-2.4,0.4-3.6,0.5C557.7,21.3,557.3,20.6,556.9,20z"/>
	<path class="st21" d="M547,18.1c-1.9-0.7-3.6,0.8-5.5,0.5C543.3,18,545,16,547,18.1z"/>
	<path class="st35" d="M439,19.7c0.3-0.6-1.7-2.3,0.9-1.9c-0.3,2.5,2.2,0.9,2.9,1.9C441.5,20.1,440.3,20,439,19.7z"/>
	<path class="st21" d="M149.9,33.1c-1.6,0.2-3.2,0.8-4.9,0.6C146.6,33,148,31.5,149.9,33.1z"/>
	<path class="st21" d="M618.7,34.5c1.9,0.4,3.8-1.6,5.7-0.2C622.5,34.3,620.7,36.1,618.7,34.5z"/>
	<path class="st21" d="M110.2,42.1c1.7,0.7,3.1-1.2,4.9-0.6C113.6,42.7,112,43.5,110.2,42.1z"/>
	<path class="st36" d="M427.4,19.8c0,0.7,0,1.3,0,2c-0.7,0.9-1.4,0.3-1.9-0.2s-0.8-1.1,0-1.6C426.2,19.9,426.8,19.9,427.4,19.8
		C427.5,19.9,427.4,19.8,427.4,19.8z"/>
	<path class="st0" d="M432.3,14c-0.8-0.3-0.2-1.1-0.6-1.5c0.6-1.1,1.6-0.4,2.4-0.6C435.1,14,433.3,13.7,432.3,14z"/>
	<path class="st21" d="M451.7,20.5c0.3-0.3-0.6-1.8,0.7-1c1.3,0.8,1.9-0.5,2.8-0.4C454.6,20.8,453.1,20.5,451.7,20.5z"/>
	<path class="st21" d="M103,44.1c0.3-1.3,1.4-1.1,2.4-1.3c0.5-0.4,0.9-0.4,1.3,0c0.5,0,1,0,1.4,0C106.6,44.1,104.6,43.1,103,44.1z"
		/>
	<path class="st21" d="M352.4,15.1c1.9-0.8,1.6,1.1,2.3,1.8c-0.8-0.2-1.7-0.4-2.5,0.1C352.2,16.4,352.3,15.8,352.4,15.1z"/>
	<path class="st37" d="M417.5,15.7c-0.3-0.3-1-0.6-0.9-0.8c0.1-1,0.8-0.4,1.2-0.2c0.6,0.3,1.3,0.5,1.9,0.2c1.1-0.1,1,0.5,0.6,1.1
		c-0.5,0.4-1.1,0.7-1.8,0.6C418.2,16.3,417.8,16,417.5,15.7z"/>
	<path class="st21" d="M72,48.5c0.7,1.4,1.2,3.4,3.4,1.8C73,52,71.9,51.4,72,48.5z"/>
	<path class="st21" d="M55.3,46.6c0.7,0.3,1.4,0.8,2-0.4c0.6-1.2,1.4-0.7,2.2,0C58.1,46.1,57,49.4,55.3,46.6z"/>
	<path class="st21" d="M215.6,25.5c-2,0.9-3.8,0.2-5.5-0.7C211.9,25,213.8,25.3,215.6,25.5z"/>
	<path class="st21" d="M348.1,8c-1.8,0.3-3.6,0.2-4.9-1.3C344.9,6.7,346.6,7.1,348.1,8z"/>
	<path class="st21" d="M244.3,25.4c-1.8,0.5-3.6,1-5.3,0C240.7,25.4,242.5,25.4,244.3,25.4z"/>
	<path class="st21" d="M506,24.2c1.4-0.1,2.7-0.2,4.1-0.3C508.8,24.8,507.5,25.8,506,24.2z"/>
	<path class="st21" d="M531.9,22.6c1.9-2.1,1.7,2,3.3,1.1C533,26.6,533.4,21.9,531.9,22.6z"/>
	<path class="st21" d="M538.8,21.3c-0.5,1.8,0.2,2.4,2,2c-0.7,1.1-2,1.2-2.6,0.5C537.4,23.1,537.9,21.9,538.8,21.3z"/>
	<path class="st21" d="M517.8,17.3c-1.5-0.9-3.9,0.9-5-1.6C514.4,16.4,516.4,15.7,517.8,17.3z"/>
	<path class="st21" d="M528.2,21.8c0.5-0.2,1.7-1.4,1,0.5c-0.4,1-0.2,1.7,0.2,2.4C527.7,24.3,528.5,22.9,528.2,21.8z"/>
	<path class="st21" d="M42.6,42.8c1.4-0.4,2.9-0.8,4.3-1.3C46.1,43.9,44,42.4,42.6,42.8z"/>
	<path class="st21" d="M732.8,40.1c1.5-0.5,2.7,0.8,4.1,0.5C735.3,42.2,734.1,40.7,732.8,40.1z"/>
	<path class="st38" d="M418.5,16.6c0.4-0.3,0.6-0.9,1.3-0.7c0.4,0.1,0.8,0.1,1.1,0.5c0,0.2,0.1,0.5,0.1,0.7
		c-1.1-0.2-1.1,1.1-1.7,1.5c-0.7-0.3-0.4-1.1-0.8-1.6C418.5,16.8,418.5,16.7,418.5,16.6z"/>
	<path class="st21" d="M470.8,16.3c1,0.7,2.1,1.3,1.8,2.9c-0.6-0.9-1.6-0.7-2.5-0.9C470.8,17.8,471.4,17.3,470.8,16.3z"/>
	<path class="st39" d="M414.2,11.5c-0.9,0.7-1.9,1.4-1.4,2.8c-0.4,0.4-0.9,0.4-1.3-0.1c0.2-0.4,0.4-0.9,0.6-1.3
		C412.1,11.4,413.1,11.5,414.2,11.5z"/>
	<path class="st21" d="M430.4,15c0.7-1.9-0.4-2.8-1.9-3.4C431.6,11.3,431.1,13.1,430.4,15z"/>
	<path class="st21" d="M460,13.3c-1-1.2-2.3-0.3-3.4-0.5C458,11.1,459.2,10.9,460,13.3z"/>
	<path class="st11" d="M432.3,14c0.7-0.5,1.4-1.1,2-1.6c0.3-0.5,0.5-0.4,0.6,0.1c0.3,0.2,0.5,0.3,0.8,0.5c0.2,1.2-0.8,1.2-1.5,1.5
		h-0.3h-0.3C433.2,14.4,432.8,14.2,432.3,14z"/>
	<path class="st21" d="M76.1,48.4c3.4-1.3,1.1,2.2,2.2,2.7C77,50.7,78.1,48.3,76.1,48.4z"/>
	<path class="st21" d="M412.7,17.8c1,1.4,2.2,1,3.5,0.5C413.9,19.6,413.1,19.5,412.7,17.8z"/>
	<path class="st21" d="M436.3,18.7c-0.5,0.8-0.9,1.6-0.4,2.5c-1-0.4-0.8-1.4-1-2.3c-0.2-0.4-0.3-1,0.2-1
		C435.5,17.9,435.9,18.4,436.3,18.7z"/>
	<path class="st21" d="M694.5,38.1c1.5-0.8,2.6,1.3,4.1,0.5C697.1,40.2,695.9,38.9,694.5,38.1z"/>
	<path class="st40" d="M785.7,37.5c-0.2,0.8,0.4,2-0.8,2.2c-0.8,0.1-0.6-1-0.7-1.6C784.8,38.1,784.9,37.1,785.7,37.5z"/>
	<path class="st21" d="M790.1,37.3c-1.3,0.8-2.7,1.5-4,0C787.5,36.9,788.8,37,790.1,37.3z"/>
	<path class="st21" d="M336.3,19.1c1.4-0.3,2.6,1.1,4.1,0.5C338.8,21.6,337.6,19.6,336.3,19.1z"/>
	<path class="st21" d="M425.5,19.9c-0.5,1.8,0.3,2.2,1.9,1.9c-0.6,1.1-1.4,1-2.1,0.3C424.5,21.3,424.4,20.5,425.5,19.9z"/>
	<path class="st21" d="M129.7,35.9c-1.5,0.9-3.3,0.2-4.9,0.7C126.3,35.2,128.1,36.1,129.7,35.9z"/>
	<path class="st21" d="M164.5,35.2c1.4-1.4,3.2-0.3,4.8-0.8C167.9,35.9,166.1,34.9,164.5,35.2z"/>
	<path class="st21" d="M155.4,32.4c-1.6,0.7-3.2,1.1-4.9,0.8C152,31.7,153.8,32.7,155.4,32.4z"/>
	<path class="st21" d="M225.7,30.5c1.2,0.6,2.3-0.3,3.5-0.1C228.1,31.7,226.9,32.6,225.7,30.5z"/>
	<path class="st21" d="M418.4,17c0.3,0.5,0.5,1,0.8,1.6c-0.8,1.5,0.3,1.4,1.2,1.5C416.6,21.1,419.1,17.9,418.4,17z"/>
	<path class="st21" d="M736.8,40.6c1-0.4,2-2.1,2.9,0.1C738.7,41.4,737.8,40.4,736.8,40.6z"/>
	<path class="st21" d="M540.9,22.6c0-0.4-0.1-0.9-0.1-1.3c0.1-1-0.4-2.1,0.8-2.8c0,1.4,0,2.8,0,4.1
		C541.3,22.6,541.1,22.6,540.9,22.6z"/>
	<path class="st21" d="M329.7,19.8c1.4-0.7,3-0.8,4.5-0.6C332.8,20.4,331.2,19.7,329.7,19.8z"/>
	<path class="st41" d="M359.2,9.4c0.1,0.5,0.5,1.3-0.5,1.1c-1-0.1-1.4-0.8-1-1.8C358.3,9,358.7,9.2,359.2,9.4z"/>
	<path class="st21" d="M124.8,36.5c-0.2,0.7-0.4,1.4-0.7,2.1c-0.2,0.3-0.4,0.2-0.6,0c0.3-1.3-1-1.3-1.5-2.1
		C123,36.5,123.9,36.5,124.8,36.5z"/>
	<path class="st2" d="M360.6,17.1c0.6,0.3,0.7,0.9,0.8,1.5c-0.2,0.2-0.5,0.5-0.7,0.7c-0.5-0.2-1.4,0.3-1.3-0.8
		c0.2-0.5,0.4-1,0.9-1.3C360.3,17.1,360.5,17.1,360.6,17.1z"/>
	<path class="st21" d="M569.2,21.9c0.6-1.1,1.5-0.6,2.7-0.6c-0.6,0.8-1.4,1.2-1.3,2C570.1,22.8,569.6,22.4,569.2,21.9z"/>
	<path class="st21" d="M669.4,31.4c-1.4,0.1-2.7,0.2-4.1,0.3C666.6,30.5,668,30.8,669.4,31.4z"/>
	<path class="st21" d="M322.5,12.3c-1.5,0.8-3.1,0.9-4.6,0C319.4,12.3,320.9,12.3,322.5,12.3z"/>
	<path class="st21" d="M230.9,30.9c1.4-0.6,3-0.4,4.5-0.4C234,31.4,232.4,30.8,230.9,30.9z"/>
	<path class="st21" d="M584.6,25.5c-1.1-0.4-2.2-0.8-2.9,0.6C581.9,24.4,582.4,24.3,584.6,25.5z"/>
	<path class="st21" d="M602.1,25.5c-1.1,1.1-2.4,0.5-3.6,0.5C599.5,24.2,600.9,25.8,602.1,25.5z"/>
	<path class="st21" d="M605.5,24.6c-1,0.6-2.2,0.9-3.4,1C603,24.6,604,23.8,605.5,24.6z"/>
	<path class="st21" d="M611.4,33.7c1.5-0.3,3-0.9,4.5,0.1C614.4,33.7,612.9,33.7,611.4,33.7z"/>
	<path class="st21" d="M187.9,26.8c-1.2,0.7-2.7,0.3-4,0.6C185.2,26.3,186.6,27,187.9,26.8z"/>
	<path class="st21" d="M303.5,22.6c0.7,2.7-1.4,2-2.7,2.1C301.7,24.1,302.6,23.4,303.5,22.6z"/>
	<path class="st21" d="M178.4,28.2c-1.3,1.2-2.8,0.5-4.2,0.6C175.5,27.7,177,28.4,178.4,28.2z"/>
	<path class="st21" d="M367.6,18.4c0.9,1.1,1.8,1.1,2.7,0c0,1-0.5,1.5-1.5,1.4C367.9,19.7,367.7,19.2,367.6,18.4z"/>
	<path class="st0" d="M434.2,14.5c0.5-0.5,1-1,1.5-1.5c0.2,0,0.5,0.1,0.7,0.1c-0.3,0.6-0.5,1.2-0.8,1.8c-0.2,0.3-0.5,0.4-0.8,0.2
		C434.7,14.9,434.5,14.7,434.2,14.5z"/>
	<path class="st21" d="M510.3,23.3c-0.1-0.4-0.2-0.9-0.3-1.3c0.2-0.3,0.5-0.3,0.8-0.1c0.5,0.7,1,1.3,1.5,2
		C511.3,24.9,511,23.4,510.3,23.3z"/>
	<path class="st21" d="M366,16.4c-0.3,1.4,1.2,1.3,1.6,2C366.2,18.5,364.9,18.5,366,16.4z"/>
	<path class="st21" d="M498.4,21.9c-0.7,0.8-0.9,1.7-0.6,2.8C496.6,23.5,496.4,22.5,498.4,21.9z"/>
	<path class="st21" d="M300.1,28.4c1.2,0,2.3,0,3.5,0C302.4,29.2,301.2,29.2,300.1,28.4z"/>
	<path class="st21" d="M291.7,27c-1.2-0.5-2.7,0.4-3.7-0.8C289.3,26.3,290.7,25.5,291.7,27z"/>
	<path class="st21" d="M698.6,38.6c1.2-0.6,2.4-0.9,3.6,0C701,38.6,699.8,38.6,698.6,38.6z"/>
	<path class="st42" d="M123.6,38.6c0.2,0,0.4,0,0.6,0c0.2,0.3,0.4,0.5,0.6,0.8c-0.8,0.4-0.3,1.8-1.5,1.9
		C123.4,40.4,123.5,39.5,123.6,38.6z"/>
	<path class="st21" d="M552.6,18.6c-1.1-0.6-1.9-0.1-2.8,0.6C550.4,17.2,551.4,17.4,552.6,18.6z"/>
	<path class="st21" d="M22.6,44.3c1.1,0,2.3,0,3.4-0.1C24.9,45.2,23.8,45.2,22.6,44.3z"/>
	<path class="st21" d="M17.7,44.9c1-0.8,2.3-0.5,3.4-0.6C20.2,45.3,18.9,44.7,17.7,44.9z"/>
	<path class="st21" d="M51.2,43.3c1,1,2.6-0.7,3.4,0.9C53.4,44,51.9,44.8,51.2,43.3z"/>
	<path class="st21" d="M330,12.2c-0.9-0.4-1.6-1.4-2.7-0.4C328.4,10.3,329.4,10.2,330,12.2z"/>
	<path class="st21" d="M325.8,12.1c-1.1,0.1-2.3,0.1-3.4,0.2C323.5,11,324.6,11.3,325.8,12.1z"/>
	<path class="st21" d="M518.5,21.4c1.6,0.8,0.1,2.3,0.8,3.3C518,23.8,518.7,22.5,518.5,21.4z"/>
	<path class="st21" d="M624.4,34.3c0.7,0.3,1.3,0.6,2,0.9C625,36.4,624.7,35.2,624.4,34.3z"/>
	<path class="st21" d="M435,12.6c-0.2-0.1-0.4-0.1-0.6-0.1c-0.9-0.5-1.8-0.2-2.7,0.1C432.8,11,433.9,11,435,12.6z"/>
	<path class="st21" d="M449,21.3c0.2,0,0.5,0,0.7-0.1c0.9,0.3,1.4-0.2,2-0.7C451.3,22.5,450.2,22.2,449,21.3z"/>
	<path class="st21" d="M442.7,19.8c0.8,0.7,1.6,1.4,2.7,0.6C444.2,21.7,443.3,21.8,442.7,19.8z"/>
	<path class="st21" d="M640.3,35.2c1.1,0.4,2.4-0.2,3.4,0.6C642.6,35.7,641.3,36.3,640.3,35.2z"/>
	<path class="st21" d="M717.5,39.4c1.2,0.2,2.5-0.6,3.6,0.6C719.9,39.9,718.5,40.5,717.5,39.4z"/>
	<path class="st21" d="M421.1,20c0.9,0.4,1.8,0.9,2.8,0.4C422.8,21.6,421.8,21.8,421.1,20z"/>
	<path class="st21" d="M724.3,38.8c0.1,0.6,0.1,1.2,0.2,1.9c-0.6-0.3-1.2-0.5-1.7-0.8C723,39.1,723.4,38.6,724.3,38.8z"/>
	<path class="st43" d="M95,36.9c-0.2,0.7-0.2,1.3-0.5,2c-0.2,0.4,0.1,1.4-0.8,1.2c-0.4-0.1-0.6-0.9-0.9-1.4
		C92.9,37.3,92.6,35.4,95,36.9z"/>
	<path class="st44" d="M106.7,42.9c-0.4,0-0.9,0-1.3,0c-0.1-1.3,0.7-2,1.7-2.5C107.6,41.3,106.5,42,106.7,42.9z"/>
	<path class="st45" d="M350.9,10.8c0.5,1.2,0.9,2.3,1.4,3.5c-3.2,1.7-1.7-2.6-3.5-2.7C349,10,349.9,10.3,350.9,10.8z"/>
	<path class="st46" d="M348.8,8.2c0.9-0.7,1.9-0.6,2.8-0.1c-0.2,0.7-0.5,1.3-0.7,2c-1.7,0.6-2.9,0.6-2.1-1.7L348.8,8.2z"/>
	<path class="st47" d="M299.4,26.8c-0.9,0.2-2.2,0.5-2-0.8c0.2-1.8,1.7-0.6,2.7-0.6C299.9,25.9,299.6,26.3,299.4,26.8z"/>
	<path class="st48" d="M348.8,8.4c-0.1,1.5,0.7,1.9,2.1,1.7c0,0.2,0,0.5,0,0.7c-0.8,0.1-1.7-0.4-2.1,0.7
		C346.7,10.4,348.1,9.4,348.8,8.4z"/>
	<path class="st49" d="M342.2,12.4c2.3,1.7,1.7,2.4,0.7,3.2C342,14.7,342.9,13.9,342.2,12.4z"/>
	<path class="st50" d="M346.1,9.6c0.3,0.9,0.1,1.6-0.7,2c-0.1,0.1-0.7-0.3-0.7-0.5C344.7,10.3,345,9.6,346.1,9.6z"/>
	<path class="st51" d="M447.6,15c-0.2,0.4-0.4,0.8-0.6,1.3c-1.1-0.1-3.2,1.7-2.8-1.6C445.2,14.8,446.4,14.9,447.6,15z"/>
	<path class="st52" d="M439.9,17.2c-0.9-1.5-1.5-3,0.1-4.4C440.6,14.2,440.5,15.7,439.9,17.2z"/>
	<path class="st53" d="M375.1,15.5c-0.4,0.2-0.7,0.4-1.1,0.6c0.3-1.8-0.1-2.9-2.2-2.6c1.9-1.5,4.1-0.3,6.1-0.8
		c0.6-0.2,0.9-1.1,1.6-0.6c0.2,1.5-0.3,2.1-1.9,1.7C376.2,13.4,375.2,13.9,375.1,15.5z"/>
	<path class="st54" d="M401.7,14.2c-1.3-0.5-1.3,1.9-2.7,1.3c-0.7-1.9-0.4-2.9,1.9-2C401.5,13.3,401.8,13.5,401.7,14.2z"/>
	<path class="st55" d="M388.2,15.1c-0.2,0.1-0.6,0.3-0.7,0.3c-0.3-0.2-0.7-0.6-0.8-0.9c-0.1-0.4,0.3-0.5,0.7-0.3
		C387.7,14.3,388.2,14.4,388.2,15.1z"/>
	<path class="st56" d="M379.5,12.2c-0.5,0.2-1.1,0.4-1.6,0.6c0.2-0.8,0.5-1.7,0.7-2.5c0.3,0,0.6-0.1,0.9-0.1
		C379.5,10.8,379.5,11.5,379.5,12.2z"/>
	<path class="st57" d="M401.7,14.2c-0.3-0.2-0.6-0.5-0.8-0.7c0.1-0.4,0.1-0.8,0.2-1.3C402.8,12.4,402.6,13.2,401.7,14.2z"/>
	<path class="st58" d="M420.9,16.3c-0.4-0.2-0.7-0.3-1.1-0.5c0.7-0.4,0.7-0.7-0.1-1c0-0.2,0-0.3-0.1-0.5c0.5-0.8,1.4-0.7,2.2-0.7
		C421.5,14.5,421.2,15.4,420.9,16.3z"/>
	<path class="st59" d="M407.8,12.9c-0.3,0.7-0.6,1.1-1.2,1.1c-0.1,0-0.3-0.5-0.2-0.7c0.2-0.3,0.5-0.6,0.8-0.9
		C407.3,12.4,407.6,12.8,407.8,12.9z"/>
	<path class="st60" d="M411.5,14.2c0.4,0,0.8,0.1,1.3,0.1c0.4,0.1,0.8,0.3,1.2,0.4c-0.1,0.3-0.3,0.7-0.4,0.7
		C412.7,15.3,411.9,15.1,411.5,14.2z"/>
	<path class="st61" d="M483,17.8c-0.4,0.2-0.9,0.5-1.3,0.7c-0.1-0.6-1.5-0.8-0.7-1.5C482,15.9,482.6,16.9,483,17.8z"/>
	<path class="st62" d="M475.5,16.5c-0.2,0.3-0.4,0.5-0.6,0.7c-0.2-0.2-0.5-0.4-0.6-0.6c0-0.2,0.3-0.4,0.4-0.7
		C474.9,16.1,475.2,16.3,475.5,16.5z"/>
	<path class="st63" d="M361.2,12.3c-0.2,1.6,0.5,3.2-0.6,4.7l0,0c-1.2-0.1-1.2-0.6-0.6-1.4c1.1-1.8,0.9-2.9-1.5-2.7
		c-0.1-0.5,0.2-0.8,0.7-0.9C359.9,12.1,360.5,12.2,361.2,12.3z"/>
	<path class="st64" d="M510.7,22c-0.3,0-0.5,0-0.8,0.1c-0.3,0-0.7,0-1,0c-1.2,0.2-2.7,0.3-2.8-1.1s1.1-2.1,2.6-1.8
		c0.3,0.5-1,2.2,1.1,1.5C510.8,20.4,510.9,21.2,510.7,22z"/>
	<path class="st65" d="M434.9,15.1c0.3-0.1,0.5-0.1,0.8-0.2c2.4,0.5-0.4,0.9,0,1.4c-0.6,0-1-0.2-1.3-0.7
		C434.5,15.5,434.7,15.3,434.9,15.1z"/>
	<path class="st66" d="M360,15.6c0.1,0.5-0.3,1.2,0.6,1.4c-0.2,0.7-0.7,1.1-1.3,1.4c-0.6-0.8-2.3,1.1-2.3-0.7
		C357,16.1,358.3,15.2,360,15.6z"/>
</g>
</svg>
