<svg viewBox="0 0 796 164">
<style type="text/css">
	.st0{fill:#F8DBEB;}
	.st1{fill:#FAE6F2;}
	.st2{fill:#FAE6F1;}
	.st3{fill:#FBEDF6;}
	.st4{fill:#FAE4F0;}
	.st5{fill:#FCEEF6;}
	.st6{fill:#FAE5F1;}
	.st7{fill:#FBE9F3;}
	.st8{fill:#FBEAF4;}
	.st9{fill:#FAE8F3;}
	.st10{fill:#FBECF5;}
	.st11{fill:#FAE3F0;}
	.st12{fill:#FCF0F7;}
</style>
<g>
	<path class="st0" d="M515.3,30.1c0.4,0,0.8,0,1.2,0c1.1,1,2.7,1.2,3.6,2.5c6.6,8.7,10.1,19.1,16,28.2c9.9,22,20.6,43.5,27.6,66.7
		c1.3,4.2,2.6,8.6,4.6,12.7c0.7,1.5,1.1,3.2,3.3,2.9c4.6-2.2,5.4-7,7.7-10.8c0.9-1.5,1.4-3.3,2.4-4.8c7.1-10.8,12.5-22.6,18.8-33.9
		c0.8-1.4,1.7-2.8,2.5-4.2l0,0c3.3-3.6,4.7-8.3,7.4-12.3l0,0c3.3-2,3.3-6.3,6.1-8.7c3.4-2.9,6.3-6.1,7.6-10.4c0.2-0.5,0.5-1,0.9-1.4
		c2.5-2.2,4.9-4.5,5.9-7.8c0.2-0.5,0.5-1,0.8-1.5c3-3,5.7-6.3,8.4-9.5c4.1-5,9.6-8,15-11.2c4.5-2.7,13,2.1,16.4,8.6
		c3.2,6.3,3.6,13.3,4.9,20c1.3,7,2.5,14,4.5,20.8c1.7,8.6,3.3,17.3,5,25.9c1,7.1,2.1,14.1,6.3,20.1c4.1,5.9,8.8,7.2,14.6,2.8
		c7.7-5.8,14.1-13.1,20.2-20.6c6.6-8,12.8-16.4,21.9-22.1c12.4-7.7,25.3-0.1,28.2,11.3c1.9,7.5,4.7,14.8,5.6,22.6
		c0.3,2.6,1.2,4.7,3.3,6.3c2.4,1.8,3.5,3.9,2.2,6.9c-1.1,2.7-3.3,3.4-5.9,3.6c-3.2,0.2-5-1.9-5.9-4.5c-1.7-4.8-4-9.3-5.3-14.2l0,0
		c-1.2-6.4-2.1-12.9-4.5-18.9c-2.2-5.5-5.1-6.6-10.7-5c-3.5,1-6.5,2.9-8.7,5.5c-10.5,12.3-21.8,23.9-32.5,35.9
		c-8.9,10-21.6,9-30.6-3.5c-5.4-7.5-6.8-16.5-9.3-25.1c-2.9-14.4-5.8-28.8-8.6-43.2c-1.2-5.7-1.5-11.6-3.1-17.3
		c-1.6-6-4.2-7.2-9.1-3.3c-9,7.3-15.9,16.3-22.4,25.9c-17.7,26.1-31.4,54.6-47.9,81.4c-2.2,3.6-4.4,7.6-8.7,9.3
		c-5,2-9.3,0.4-12.7-3.6c-3.4-3.9-5.4-8.6-6.7-13.6c-3.2-13.9-8.9-27-14.3-40.1c-5-12.1-11.1-23.7-15.6-35.9c-0.9-2.5-2.5-4.2-4-6
		c-1.2-2.2-2.4-4.5-3.3-6.9c-0.4-1.7-0.7-3.5-1.9-4.9c-0.3-0.4-0.7-0.7-1-1.1c-0.4-0.4-0.8-0.8-1.2-1.2c-4.9-1.7-9.2,0-13.2,2.5
		c-12.4,7.8-23.8,17.1-35.5,25.9c-13.7,10.3-28,19.8-42.6,28.8c-6,2.3-10.9,6.4-16.8,8.8c-7.7,3.2-14.1,0.9-18.9-6
		c-5.5-8.1-10.4-16.6-15.7-24.8c-5.5-8.7-7.1-9.1-17.7-6.2c-9.9,2.4-17.1,9.2-24.8,15.3c-10.7,8.4-20.5,17.9-31.2,26.4
		c-9.6,7.6-19.7,8.3-30.6,4c-4.9-4.9-11-8.6-14.6-14.8c-7.6-14.5-16.6-28.2-28.7-39.3c-4.7-4.3-9.3-9.4-16.1-10.6
		c-8.2-1.5-16.1-0.6-23.3,4.3c-5.3,3.6-11.3,6.5-15.2,11.9c-1.7,1.8-3.9,3.1-5.4,5c-1.7,0.9-2.9,2.4-3.7,4.1
		c-10.6,10.3-20.9,20.8-32.1,30.4c-5,4.2-8.2,4.2-12.4-0.7c-6-7.1-9-16-13.5-24C97.3,70.6,89.5,59,84.5,46c-2.7-7-7.1-13.3-8.5-20.8
		c-0.7-4-3.1-5.5-7.2-4.2c-2.8,0.9-5.2,2-7.4,4c-14,12.6-26.8,26.4-38.7,40.9C21,68,18.8,69.6,16.6,71c-1.9,1.1-4.3,2.7-6.1,0.6
		c-2-2.1-0.9-4.8,0.8-6.7c3.3-3.7,5.9-7.9,9.4-11.3c5.5-5.3,9.9-11.5,15.3-16.8c0.4-0.4,0.8-0.8,1.2-1.2c1.4-1.3,2.7-2.7,3.4-4.5
		c0.7-1.2,1.6-2.1,2.7-2.8c1.7-0.7,2.9-1.8,3.6-3.5c0.4-0.7,1-1.2,1.7-1.6c2.1-0.8,3.4-2.6,4.8-4.2c0.5-0.4,1-0.7,1.5-0.9
		c3.7-0.9,6.3-3.8,9.3-5.7c6-3.9,11-3.5,16.1,1.2c1.2,1.1,2.9,1.6,3.8,3c6.3,21.1,17.2,40.2,26.8,59.9c1.2,2.6,2,5.4,3.7,7.8
		c2.1,4,3.6,8.3,6.1,12c1.7,2.5,3,3,5.8,0.8c9.4-7.6,17.2-16.9,25.8-25.3c4.8-4.7,9.9-9.2,14.8-13.9c6.4-3.2,10.7-9.3,17.6-12.2
		c14.6-6.3,29.7-4.2,41.2,6.8c10.6,10.2,20.3,20.9,28.2,33.2c2.5,3.9,4.1,8.4,7.8,11.5c2.4,2.8,4,6.2,7,8.5
		c6.2,4.8,15.2,4.9,21.7,0.2c12.6-9.1,23.4-20.4,36-29.6c8.5-6.2,17-12.2,26.8-15.9c8.7-3.3,19.3-2.3,25,8.4
		c4,7.4,9.3,14.3,13.7,21.6c5.7,9.5,7.8,10,17.3,4c17.8-9.3,34.5-20.2,50.2-32.8C471.5,52,484.2,43.3,497,35
		C502,31,508.6,29.5,515.3,30.1z"/>
	<path class="st1" d="M37.5,36.2c-8.1,9.4-16.3,18.9-24.4,28.3c-0.8,0.9-1.6,1.8-2.2,2.9c-0.6,1.1-1.1,2.7,0,3.4
		c0.7,0.5,2.5,0.3,3.4-0.3c2.5-1.7,5.5-3.3,7-5.8c4.9-8.2,12.7-13.8,18.6-21c6.3-7.8,13.9-14.5,21.6-20.9s13-4.6,16.3,4.6
		c3.6,10,8.5,19.4,12.7,29.1c3.9,9,10.2,16.9,12.5,26.6c0.8,1.2,0.8,2.5,0,3.7c-7.3-14.3-15.2-28.3-21-43.2
		c-2.5-6.4-6.5-12.2-7.5-19.3c-0.4-2.9-2.8-3.5-5.1-2.6c-2.6,1-5.5,1.7-7,4.6c-8.8,8.1-18,15.8-24.7,25.9
		c-6.6,6.9-13.5,13.5-19.9,20.6c-3.3,3.7-7.3,3-9.7,0.9c-2.7-2.4-2.3-6.9,0.3-10c2.3-2.8,5-5.5,7.8-7.8c6.6-5.6,10.7-13.5,17.8-18.5
		C34.8,36.2,35.7,34.9,37.5,36.2z"/>
	<path class="st2" d="M770.8,114c2,4,5.8,7.2,6.2,12.1c0.2,3,1.9,5.2,4.7,5.5c2.1,0.2,4.2-0.9,5.4-3.3c1.6-3.3-0.8-4.8-2.7-6
		c-3.7-2.3-3.1-6.3-3.5-9.3c-1-7.8-3.3-15.3-6.5-22.3c-3.7-8.1-13.8-15.2-24-8.3c-9.3,6.3-16,14.6-22.9,23.1
		c-5.5,6.8-11.3,13.6-18.1,18.9c-8.7,6.8-19.4,2.8-22.1-8.1c-1.2-4.6-3.8-9.6-1.7-14.8c2.6,6.1,3.5,12.9,6.9,18.8
		c3.9,6.9,8.5,7.9,14.3,2.5c9.9-9.2,18.4-19.7,27-30c7.1-8.6,15-15.1,27.4-14.9c8.8,0.1,13.1,4.7,15.2,10.8
		c2.8,8.3,4.7,16.9,6.6,25.5c0.6,2.9,1.3,5.6,3.7,7.5c4.1,3.2,3.4,7.3,1.3,10.9c-1.5,2.5-9.3,1.5-11.7-1.4
		C772.3,126.3,771.4,120.2,770.8,114z"/>
	<path class="st3" d="M409.1,94.3c-7.3,7.1-11.7,6.8-17.1-1.6c-5.7-8.8-11.1-17.8-16.5-26.7c-3.8-6.4-15.4-8.3-23.1-4.7
		c-17.6,8.2-31.9,21.1-46.9,32.9c-5.2,4.1-9.6,9.2-15.4,12.8c-10.2,6.5-25,2-29.2-10.2c-0.7-0.8-0.8-1.6,0-2.5
		c2.2,2.7,4.4,5.3,6.6,8.1c4.6,5.9,15.2,7.5,21.1,3c12.9-9.8,24.3-21.3,37.1-31.1c10.4-7.9,21.2-14.5,34.2-16.8
		c6.9-1.2,14.4,2.1,17.9,7.8c5.2,8.3,10.4,16.6,15.7,24.9c4.6,7.3,4.6,7.4,14.3,4.1C408.3,93.8,408.7,93.8,409.1,94.3z"/>
	<path class="st3" d="M556,138.7c2.3,5.7,4.4,11.2,9.9,15c4.9,3.3,8.5,1.9,11.7-1.8c7.1-8.2,12.1-17.9,17.5-27.3
		c7.6-13.3,14.6-26.9,22.7-39.9c7.3-11.8,14.6-23.5,23.1-34.5c3.8-4.8,8.3-8.8,12.7-12.9c3.2-2.9,8.6-1.1,9.6,3.1
		c1.4,6.3,3.2,12.7,2.7,19.3c-2.6-5.2-2.2-11.1-3.7-16.5c-1.7-5.8-3.2-6.6-7.8-2.9c-6.9,5.5-13.1,12-17.9,19.4
		c-14.7,22.4-28.5,45.4-41.1,69c-4.7,8.8-8.9,18-15.8,25.3c-5,5.4-13.9,4.9-18.3-0.9c-3.2-4.2-5.9-8.9-6.5-14.4
		C555.2,138.1,555.6,138.1,556,138.7z"/>
	<path class="st2" d="M674.5,102.9c2.2,2.8,3.1,6.3,3.6,9.6c1.5,10,7.8,16.8,15.3,22.4c6.1,4.6,15.9,1.2,20.9-5.2
		c4.5-5.9,9.4-11.5,14.7-16.9c5.7-5.7,11.2-11.6,16.2-17.9c3.4-4.3,9-7.3,15-6.8c5.7,0.5,7.3,5.1,8.2,10c1,5.2,2.7,10.3,2.4,15.7
		c-1.2-4.3-2.6-8.5-3.6-12.8s-1.9-9-6.4-10.4c-4.7-1.4-8.4,1.5-11.9,4.8c-11.2,11-20.3,24-31.4,35.1c-10,10.1-20.4,10.7-31.6,2.4
		c-3.3-2.4-4.2-6-5.7-9.2C677.2,117.3,674.6,110.4,674.5,102.9z"/>
	<path class="st2" d="M261,94.3c0,0.8,0,1.6,0,2.5c-3.4-2.2-5.6-4.7-7.4-8.9c-2.6-6-6.7-12-11.2-16.5c-2.2-2.2-2.4-5.8-5.8-7.2
		c-3.2-1.3-5-5.1-7.4-7.3c-9.2-8.5-19.4-17-33.1-14.1c-7.1,1.5-14.8,3.4-20.2,9.5c-2.4,2.7-5,5.3-8.7,6.3c0.3-3.9,3.9-5.2,6.2-7.4
		c14.2-12.6,36.4-14,48.6-4.6c11.9,9.2,21.7,20.3,29.8,32.9C254.8,84.3,257.9,89.3,261,94.3z"/>
	<path class="st4" d="M168.4,68.3c1.1-6.3,7.4-7.1,11.2-10.4c7.4-6.4,16.3-8.3,26-7c10.4,1.4,17.7,8.2,23.6,15.5
		c3.6,4.5,7.8,8.5,11.4,13.1c5.4,6.9,7.6,15.4,13,22.1c-0.8,0.7-1.6,0.7-2.5,0c-6.8-8.7-11-19.1-18.5-27.3
		c-6.5-7.2-13-14.6-21.4-19.1c-10-5.4-19.7-1.6-28.5,4.4c-4,2.8-7.9,5.8-11.9,8.7C170,69,169.2,69.1,168.4,68.3z"/>
	<path class="st5" d="M409.1,94.3c-0.4,0-0.8,0-1.3,0c15.5-9.7,31.3-19.1,45.9-30.3c13.2-10.2,26.3-20.6,40.4-29.6
		c6.4-4.1,13.4-6.1,21.1-4.4c-11.2,1.4-20.6,6.5-29.3,13.6c-7.1,5.8-15.1,10.5-22.6,15.9c-5.4,3.9-10.8,7.6-15.6,12.2
		c-4,3.8-9,6.8-14,9.3C425.5,85.3,418.2,91.6,409.1,94.3z"/>
	<path class="st2" d="M168.4,68.3c0.8,0,1.7,0,2.5,0c-10.2,10.4-20.4,20.8-30.7,31.1c-3.7,3.7-7.4,7.5-11.7,10.8
		c-6.2,4.8-12.2,3.5-15.9-3.6c-3.4-6.5-7.1-12.8-9.7-19.8c0-1.2,0-2.5,0-3.7c3.4,6.2,6.7,12.5,10.1,18.7c4.9,9.2,9.9,9.6,17,2.6
		c9.6-9.5,19.7-18.3,29.6-27.5c0.9-1.6,2.1-2.8,3.7-3.7C163.5,70,166.3,69.5,168.4,68.3z"/>
	<path class="st6" d="M267.2,116.5c7.2,0.1,14.2,4.2,21.6,0.5c5-2.5,9.4-5.7,13.6-9.2c11.8-9.9,23.2-20.2,35.3-29.8
		c4.5-3.6,9.5-7.2,15.9-7.1c0.4,0.3,0.6,0.6,0.4,0.8c-0.1,0.3-0.3,0.4-0.4,0.4c-16.2,7.8-28.8,20.5-42.4,31.9
		c-8.3,6.9-15.9,15-27.2,17c-5.9,1-11.7,0.3-16.9-3.2c-0.4-0.3-0.6-0.6-0.4-0.8C266.9,116.6,267,116.5,267.2,116.5z"/>
	<path class="st3" d="M422.7,99.2c4.2-5.9,11.6-7.1,16.9-11.5c10-8.3,21.3-14.7,31.4-23c9.7-8,20.2-15.1,30.9-21.7
		c3.2-2,8-3.6,12.2-0.5c-10.4-0.6-17.4,6.4-24.7,12c-18.5,14.1-36.6,28.5-56.6,40.4c-3.3,1.9-5.7,5.5-10,5.7
		c-0.3-0.3-0.4-0.6-0.3-0.8C422.5,99.3,422.6,99.2,422.7,99.2z"/>
	<path class="st4" d="M680.7,75.7c-3.2-3.8-3.1-8.6-4-13.1c-1.8-8.7-2.5-17.5-5.8-25.9c-2-4.9-6.6-6.9-10.3-9.8
		c-1.2-0.9-4.4-2.6-4.9,1.6c0,0.4-0.4,1-0.6,1c-8.1,0.7-11.8,7.3-16.6,12.3c-2.3,2.4-4,5.3-7.1,6.7c-2-3.2,2.2-3.9,2.5-6.2
		c4.7-4.9,9-10.1,14.1-14.5c8.7-7.4,21.4-3.5,24.9,7.3C677,48.4,678.6,62.1,680.7,75.7z"/>
	<path class="st7" d="M173.3,51c-2.1,2.5-4.1,4.9-6.2,7.4c-11.7,11.8-23.4,23.5-35,35.3c-2.1,2.1-5,2.8-6.7,5.8
		c-1.1,2-4-0.2-5.3-2.1c-2.8-4-5.1-8.3-6-13.1c0.4-0.4,0.8-0.4,1.2,0c2.4,2.3,3.5,5.6,4.8,8.5c1.9,4.3,3.8,4.6,7.1,1.2
		c8.3-8.5,16.8-16.9,25.2-25.3C159,62.3,165.4,55.9,173.3,51z"/>
	<path class="st8" d="M422.7,99.2c0,0.4,0,0.8,0,1.2c-6.2,4.3-12.9,7.7-19.9,10.4c-6.3,2.4-11.8,0-16.8-7.5
		c-5.9-8.8-12-17.5-16.9-26.9c-3.4-6.4-7.5-6.5-13-4.6c-0.8,0.3-1.6,0.2-2.4,0.2c0-0.4,0-0.8,0-1.2c10.5-3.5,14.6-1.5,19.9,7.9
		c4.9,8.7,10.6,17,16.4,25.1c4.1,5.7,10.3,6,17.2,3.1C412.4,104.6,416.3,99.3,422.7,99.2z"/>
	<path class="st8" d="M115.3,84.4c-0.4,0-0.8,0-1.2,0c-3.5-3.2-4.9-7.9-6.8-11.9c-8.7-18.4-19-36-24-56C79.1,10.3,72.5,9.9,66,9.1
		C76.5,5.3,82.5,8.6,86,19c4.7,14,10.9,27.3,18,40.3C108.3,67.3,112.1,75.8,115.3,84.4z"/>
	<path class="st9" d="M556,138.7c-0.4,0-0.8,0-1.2,0c-8.5-28.2-21.5-54.6-33.3-81.5c-0.3-0.3-0.5-0.6-0.3-0.9
		c0.1-0.3,0.2-0.4,0.4-0.4c3,1.2,4.3,3.2,5.2,6.7c1.8,6.6,4.7,13,7.9,19.1c4.3,8.3,7.7,17,11.2,25.6c3.5,8.5,6.6,17.2,9.7,25.9
		C556.1,134.9,555.9,136.9,556,138.7z"/>
	<path class="st5" d="M572.1,143.6c-4.4,0.4-4.9-3.3-5.8-5.9c-4.1-11.8-7.6-23.8-12.6-35.3c-6.1-13.9-12.4-27.7-18.5-41.5
		c-0.9-1.2-1.1-2.5,0-3.7c5.3,6.9,7.3,15.4,11.1,23c9.1,18.2,15.4,37.4,22,56.6c0.7,2,0.5,5.2,3.9,5.6c0.3,0.3,0.4,0.6,0.3,0.8
		C572.3,143.5,572.2,143.6,572.1,143.6z"/>
	<path class="st10" d="M602.9,89.3c-2.6,10-8.7,18.2-13.3,27.1c-2,3.9-2.8,9.1-7.6,11.2c-0.4,0.4-0.8,0.4-1.3,0
		c6.2-11.6,12.5-23.3,18.7-34.9C600.2,91.2,601.4,90,602.9,89.3z"/>
	<path class="st10" d="M633.8,42.4c1.8,3.1-3.5,3.4-2.5,6.2l0,0c-1.8,3-4.3,5.6-6.2,8.6c-1.6,4.6-6,7.6-7.4,12.3c-4,1-2,7.8-7.4,7.4
		C616.4,64.3,623.3,52.1,633.8,42.4z"/>
	<path class="st11" d="M535,57.2c0,1.2,0,2.5,0,3.7c-4-2.8-4.1-7.9-6.7-11.7c-3.5-5.3-6.3-11.1-9.4-16.7c3-1.7,3.7,1,4.9,2.6
		c1.5,1.9,2.5,4,3.7,6.1C529.2,47,533.8,51.3,535,57.2z"/>
	<path class="st1" d="M65.9,9.1c4.6,0,9.3-0.5,13.5,2.4c1.9,1.3,3.7,2.5,3.8,5c-1.3-0.5-2.9-0.7-3.9-1.7c-8.1-7.6-9.6-4.7-19.3,1.7
		c-2.2,1.5-4,2.5-6.4,2.4c0.4-5.3,5.5-5.2,8.6-7.4C63.5,10.7,64.7,9.9,65.9,9.1z"/>
	<path class="st8" d="M62.2,11.6C60,14.8,55,14.8,53.6,19l0,0c-1.3,2-2.9,3.7-4.9,4.9c-0.4,0.4-0.8,0.8-1.2,1.2
		c-0.9,1.5-2.2,2.8-3.7,3.7c-1.2,0.5-2,1.3-2.5,2.5c-1.1,1.7-2.6,3.2-3.7,4.9l0,0c-1.2,0.4-2.5,0.8-3.7,1.2c2.3-6.2,8.2-9.3,12.3-14
		c3.1-3.5,6.5-6.7,10-9.8C57.7,12.1,59.9,11.3,62.2,11.6z"/>
	<path class="st12" d="M37.5,52.3c0.2-2.3,1.2-4.4,2.9-5.9c7.4-6.5,12.8-15.2,21.8-20C54,35,45.8,43.7,37.5,52.3z"/>
	<path class="st6" d="M267.2,116.5c0,0.4,0,0.8,0,1.3c-8.1-2.7-12-9.4-16-16.1c0.8,0,1.6,0,2.5,0c0,1.8,0.9,3.5,2.3,4
		C261.2,107.7,263.6,112.6,267.2,116.5z"/>
	<path class="st8" d="M580.7,127.6c0.4,0,0.8,0,1.3,0c-1,5.3-4.3,9.6-6.3,14.4c-0.7,1.8-2.2,1.5-3.6,1.6c0-0.4,0-0.8,0-1.3
		C574.9,137.5,577.8,132.5,580.7,127.6z"/>
	<path class="st10" d="M610.3,77c-1.4,4.8-1.8,10.1-7.4,12.3C604,84.3,606.2,80.1,610.3,77z"/>
	<path class="st5" d="M527.6,41.2c-4-1.8-3.5-8-8.6-8.6c-0.8-0.8-1.7-1.6-2.5-2.5C522.7,30.5,526.2,33.9,527.6,41.2z"/>
	<path class="st3" d="M521.5,56c0,0.4,0,0.8,0,1.3c-2.9-4.1-5.6-8.4-6.2-13.6c0.4,0,0.8,0,1.2,0c1.3,1.4,1.5,3.4,2.5,4.9
		C519.8,51,520.6,53.5,521.5,56z"/>
	<path class="st4" d="M617.7,69.6c0.1-5.6,4-8.8,7.4-12.3C625.4,63,620.5,65.6,617.7,69.6z"/>
	<path class="st4" d="M625.2,57.2c-0.2-4.5,3.3-6.4,6.2-8.6C631.5,53.1,629,55.6,625.2,57.2z"/>
	<path class="st1" d="M48.6,23.9c1.2-2.1,2.8-3.8,4.9-4.9C53.2,21.9,51.6,23.5,48.6,23.9z"/>
	<path class="st4" d="M163.5,73.3c-0.8,1.7-2,2.9-3.7,3.7C159.5,74.2,160.7,73,163.5,73.3z"/>
	<path class="st1" d="M37.5,36.2c0.1-2.5,1.7-3.8,3.7-4.9C41.1,33.8,39.5,35.2,37.5,36.2z"/>
	<path class="st9" d="M519,48.6c-1.6-1.3-2.3-3-2.5-4.9C518.8,44.6,519.1,46.5,519,48.6z"/>
	<path class="st1" d="M43.7,28.8c0.8-1.7,2-2.9,3.7-3.7C47.3,27.5,46.1,28.7,43.7,28.8z"/>
</g>
</svg>
