<svg viewBox="0 0 701.4 57">
<style type="text/css">
	.st0{fill:#F8DDEC;}
	.st1{fill:#FCF0F7;}
</style>
<g>
	<path class="st0" d="M690.1,46.4c-4.5,1.5-9,2.5-13.8,2.5c-23.9,0-47.7,0.2-71.6-0.1c-13.5-0.2-26.6-4-40.1-5.3
		C536,40.7,509,30.6,480.8,25.9c-12.9-2.1-25.9-3.6-39-4c-16.4-0.6-32.8-1-49.2-1.7c-37.1-1.6-74.1-4-111.3-3.5
		c-15.8,0.2-31.3,3.1-46.8,5.6c-1.8,0.3-3.6,0.5-5.5,0.6c-54.6,2.4-109.3,0.9-164,1.3c-17.5,0.1-35,0-52.5,0c-2.7,0-6.5,0.8-6.2-3.7
		c0.2-3.7-0.5-7.8,6.2-7.5c15.7,0.6,31.4-0.3,47.1-0.4c15-0.1,30-0.7,45,0.1c11.4,0.6,22.8,0.3,34.1,0c9.5-0.3,19-0.1,28.5-0.5
		c13.3-0.6,26.6,0,39.9-0.2c20.4-0.3,40.6-2.8,60.7-6.7c1.6-0.3,3.2-0.6,4.8-0.6c24,0,48-0.6,72,1.3c19,1.5,38.1,1.4,57.1,2.5
		c31.8,2,63.8,1.5,95.1,8.5c12.6,2.8,24.9,6.5,37.5,9.1c27.4,5.8,54.9,11.1,83.1,10.6c12.6-0.2,25.1,1.9,37.7,0.2
		c7.4-1,15,2.8,22.5-0.2c4.2-0.7,8.4-1.3,12.5-2.1c3-0.5,6.5-1.3,7.6,2.8c1.1,4.1-1,7.2-5.5,8.4C691.6,45.9,690.8,45.8,690.1,46.4z"
		/>
	<path class="st1" d="M690.1,46.4c1.4-0.8,2.7-1.7,4.1-2.3c3.1-1.5,2.4-4.8,2.5-6.9c0-2.4-3.1-1.8-5.1-1.9c-4.7-0.1-9.1,2-13.9,1.2
		c4.7-1.2,9.3-2.7,14.1-3.5c4.1-0.6,8.4-0.5,9.4,5.2c1,6-2.7,7.4-7.4,8.1C692.6,46.5,691.4,46.4,690.1,46.4z"/>
</g>
</svg>
