<svg viewBox="0 0 763 98">
<style type="text/css">
	.st0{fill:#F8DBEB;}
	.st1{fill:#F8DDEC;}
	.st2{fill:#FAE7F2;}
	.st3{fill:#FAE3F0;}
	.st4{fill:#FAE4F0;}
	.st5{fill:#FBEAF4;}
	.st6{fill:#FAE8F3;}
	.st7{fill:#FBEBF4;}
	.st8{fill:#FBECF5;}
</style>
<g>
	<path class="st0" d="M619.5,40.7c0,1,0.2,1.9,1.2,2.5c3.6,10.8,8.9,20.6,17.6,28.3c3.9,3.5,8.8,5.1,13.3,7.4l0,0
		c8.9,2.8,16.5-1.5,23.9-5.1c9.6-4.7,20.1-7,30.1-10.6c12.1-4.3,24.9-6.4,37.4-9.8c1-0.3,2-0.9,3-0.8c2.5,0.3,6-2.7,7.4,1.6
		c1,3.3-2.5,8.5-5.7,9.3c-16.2,4-32.5,8-48.4,13.2c-10.1,3.1-20,6.5-29.6,11.2c-10.9,5.3-21.6,1.9-31.2-4.4
		c-4.1-2.7-7.2-6.6-10.6-10.1c-11.2-11.6-17.2-25.9-23.4-40.3c-2.4-5.4-4.4-11.8-11.8-12.9c-20.4,0.9-35.3,13.4-50.8,24.6
		c-1.7,1.2-3.4,2.3-5,3.5c-7.7,5.4-13,4.1-17.6-4.5c-3.8-7-6.4-14.5-10.1-21.5c-2.8-5.3-4.8-6.1-10.2-3.7c-6.6,2.9-10,8.7-13.4,14.6
		c-5.9,5-9.5,11.8-13.4,18.2c-5.8,9.6-14.9,16.2-22.2,24.4c-2.1,2.4-6.2,3.5-10.1,3.6c-10.8,0.3-20.3-2.8-29.1-9.3
		c-12.2-9-23.5-18.9-34.1-29.7c-3.7-3.8-8.7-6.2-12.8-9.5c-0.7-2.3-2-3.8-4.7-3.8c-1.4,0-3,0.2-4.3-0.5c-2.4-1.2-6.6-0.4-6.7-4.2
		c-0.1-3.4,3.3-4.2,6.2-5c5.8,0.8,10.8,3.2,15.1,7.1c2,2.1,3.6,4.9,7.2,4.3c1.3,0.5,2.5,1.2,3.2,2.5c0.9,2.2,2.1,4.2,4.9,4.2
		c5.9,3,9.9,8.4,14.6,12.8c8.1,7.6,16.8,14.1,27,18.7c3.6,0.7,6.9,1.9,10.7,1.7c6.5-0.2,10.8-3,14.9-8
		c11.4-13.5,20.8-28.3,31.2-42.4c4.9-6.6,10.9-12.3,20.4-11.9c6.4,0.3,10.7,3.2,13.6,8.8c2.2,4.3,4.3,8.8,6.7,13
		c0.1,0.4,0.2,0.8,0.4,1.2c3.9,10.5,6,11.1,14.8,4.4c8.8-6.6,17.4-13.7,27.4-18.1c9.5-4.2,19.3-9,30.5-5.6
		c7.6,2.3,12.1,7.8,15.3,14.2C614.8,29.9,617.3,35.3,619.5,40.7z"/>
	<path class="st1" d="M354.1,18.5c-0.1,0.2-0.2,0.4-0.4,0.5c-1.8,1.2-5.4,1.4-4.8,3.9c0.7,2.7,4.2,2.7,6.8,3c3.6,0.4,8.4-1.4,8.3,5
		c-4.3,0.5-7-3.6-11.1-3.7c-12.4-2.8-24.7-0.2-37,1.2c-10.4,2.3-20.2,6.2-29.6,11.1C276.2,43,267.6,49.4,258,54
		c-18.1,8.8-37,11-56.7,10.1c-7.9-0.4-15.9,0-23.8,0.1c-35.4,0.3-70.1-3.9-104.7-11.5c-13.6-3-27.1-6.4-40.5-9.9
		c-8.2-2.1-15.9-6.6-23.7-10.1C5,31.1,6,27.9,6.3,25.2c0.3-3,3-2.7,5.2-3c4.1-0.6,6.9,2.4,10.2,3.8c17,7.1,34.7,11.7,52.9,14.9
		c21.7,3.8,43.1,8.8,65.3,10.1c29,1.6,57.9,0.2,86.9,1c3.6,0.1,6.6-2,10.1-2.5c5.4,0.6,9.9-2.6,14.3-4.7c8.8-4.1,17.3-9.2,26-13.5
		c14.5-7.3,29.5-13.4,46.1-15.3c7.9-0.9,15.7-2.3,23.7-1.1C349.8,15.2,352.7,15.4,354.1,18.5z"/>
	<path class="st2" d="M354.1,18.5c-8.2-4.4-17-4.4-25.5-2.3c-5.9,1.5-11.9,0.8-17.8,3.1c-12.3,4.9-25.2,7.7-36.7,15
		c-10.3,6.6-22.2,10.8-33.4,16c-1.3,0.6-2.9,0.5-3.9-0.9c17.1-5.8,32.1-15.9,48.5-23.3c19.6-8.8,40-14,61.7-12.5
		c12.1,0.9,21.7,8,31.2,14.7c14,9.9,24.7,23.8,39.2,33.1c2.7,1.7,5.5,3.5,8.3,5.2c0.4,0.3,0.6,0.6,0.4,0.8c-0.1,0.3-0.3,0.4-0.4,0.4
		c-10.3-4.1-18.9-10.4-27.1-17.8c-4.8-4.4-8.2-10.6-14.8-13.1c-1.9-1.4-3.7-2.8-4.9-4.9c-0.8-0.8-1.7-1.6-2.5-2.5
		c-3.2,0.2-5.1-2.1-7.4-3.7C364.5,22.4,359.4,20.3,354.1,18.5z"/>
	<path class="st3" d="M352.9,27.1c4.6-1.4,7.3,2.7,11.1,3.7c5.5,1.7,10.3,5.1,14.1,9.1c9.2,9.8,18.9,18.9,29.9,26.5
		c3.4,2.3,6.6,4.8,9.9,7.2c5.8,4.2,12.4,4.6,18.8,5.3c7.5,0.9,12.4-4.2,17.5-9c8.7-8.4,16.1-17.6,22.6-27.7c2.2-3.4,2.9-8.3,8.2-8.8
		c0.4,0.3,0.5,0.6,0.4,0.8c-0.1,0.3-0.2,0.4-0.4,0.4c-6.8,11.3-14.5,22.1-23.1,32.2c-2.7,3.2-4.8,6.9-8.8,9.2
		c-14.5,8.2-28.1,4.8-41.1-2.8c-14.6-8.5-25.5-21.5-38.4-32.1C367.2,35.7,360.2,31.1,352.9,27.1z"/>
	<path class="st4" d="M592.4,19.7c9.5-0.7,10,8,13,13.3c4.4,7.8,7.5,16.2,12.4,23.9c8.6,13.5,15.2,22.5,29.2,29.8
		c4.9,2.5,11.6,4.1,17.7,2.1c4.8-1.6,9.4-3.5,13.8-6.3c6-3.8,13.4-3.9,20.2-5.9c0.3,0.3,0.4,0.6,0.3,0.8c-0.1,0.3-0.2,0.4-0.3,0.4
		c-9.7,3.7-19.3,7.7-28.9,11.5c-13.5,5.4-26.1,1.3-37.6-8c-13.5-11-19.7-26.2-26.3-41.4c-3.1-7.2-4.9-15.5-13.4-18.9
		c-0.4-0.3-0.5-0.6-0.4-0.8C592.1,19.9,592.2,19.7,592.4,19.7z"/>
	<path class="st5" d="M698.6,77.8c0-0.4,0-0.8,0-1.3c11.3-3.2,22.1-8.3,33.9-9.9c5.5-0.8,10.7-3,16.2-4.1c3.5-0.7,1.2-6,3.9-8.3
		c-2.3-1.9-4.5-1.2-6.6-0.7c-21.6,5.2-43,11.5-64.1,18.4c-4.2,1.4-8.4,4-12.6,6c-5.7,2.8-11.6,3.4-17.7,1.1c6.8,0.9,13-1.3,19-4.1
		c19.2-8.9,39.5-14.4,60-19.3c6.3-1.5,12.7-3.4,19.1-4.4c2.9-0.5,7.1-0.8,7.9,3.4c0.6,3.4,1.4,7.5-4,8.7
		C735,67.4,716.8,72.4,698.6,77.8z"/>
	<path class="st6" d="M425.7,67.9c0-0.4,0-0.8,0-1.2c14.6,4.8,23.4-2.6,30.8-13.9c7.4-11.2,16.1-21.5,23.4-32.9
		c6-9.4,14.8-15.9,27.4-13.8c3.2,0.6,6.2,1.4,8,4c3.5,5.2,7,10.6,8,17.1c0.3,0.3,0.4,0.6,0.3,0.8c-0.1,0.3-0.2,0.4-0.3,0.4
		c-4.3-2.5-5.2-7.5-7.1-11.3c-4.9-9.9-13.7-12.2-22.9-5.9c-10.5,7.3-16,18.2-23.1,28.1c-6,8.4-12.4,16.5-18.9,24.6
		C445.8,70.6,435.8,72,425.7,67.9z"/>
	<path class="st2" d="M592.4,19.7c0,0.4,0,0.8,0,1.2c-21.5,2.2-37.2,15.5-53.2,28c-8.7,6.8-16.4,5.2-21.2-4.9
		c-3.3-7-6.7-13.9-10.2-20.8c-2.8-5.5-6-6.3-10.9-2.5c-3.9,3.1-6.5,7.3-9.5,11.2c-0.7,0.9-1.7,1.7-2.5,2.6c0-0.4,0-0.8,0-1.3
		c0.9-6.4,5.1-10.9,10-14c8.5-5.3,13.3-3.1,17,6.3c2.3,5.8,4.9,11.5,7.5,17.2c1.8,4,6,5.4,9,8.2c1.1,1,2.6,0.3,3.4-0.6
		c3.1-3.3,7.9-4.5,10.8-7.6c7.5-8.1,17.7-12.4,26.5-18.4C575,20.5,584.3,20.1,592.4,19.7z"/>
	<path class="st7" d="M523.2,28.4c0-0.4,0-0.8,0-1.3c0.5,0.6,1.1,1.2,1.5,1.9c5.7,10.3,5.6,10.2,15.3,3c13.6-10.1,27-20.3,44.7-22.8
		c14.1-2,23.3,2.4,28.8,16.3c2,5.1,5.5,9.6,6,15.2c-5.6-6.3-6.9-15.1-12.4-21.5c-5.9-6.9-13.9-10.6-22.6-8.1
		c-10.4,2.9-20.2,6.6-29.2,13.4c-7,5.2-14.6,9.9-21.7,15.2c-1.8,1.3-3.4,0.6-4.4-0.5C526.2,36.1,522.6,33.4,523.2,28.4z"/>
	<path class="st7" d="M651.6,79C638,77.1,631,67.3,625,56.5c-2.3-4.1-4.5-8.3-4.2-13.3c2.6,2.5,3.7,5.9,5.1,9
		C631.2,64.3,641.1,71.9,651.6,79z"/>
	<path class="st8" d="M286.2,39.5c8.8-6.6,18.6-10.5,29.6-11.1C306,32.1,296.1,35.8,286.2,39.5z"/>
	<path class="st1" d="M368.9,25.9c2.5,1.2,4.9,2.5,7.4,3.7C371.8,32.6,370.8,28.3,368.9,25.9z"/>
	<path class="st1" d="M378.8,32.1c1.8,1.5,4.5,2,4.9,4.9C380.1,37.3,379.2,34.9,378.8,32.1z"/>
</g>
</svg>
