<svg viewBox="0 0 589.6 810.9">
<style type="text/css">
	.st0{fill:#161616;}
	.st1{fill:#454545;}
	.st2{fill:#BABABA;}
	.st3{fill:#6F6F6F;}
	.st4{fill:#484848;}
	.st5{fill:#444444;}
	.st6{fill:#DFDFDF;}
	.st7{fill:#1C1C1C;}
	.st8{fill:#BEBEBE;}
	.st9{fill:#BFBFBF;}
	.st10{fill:#B6B6B6;}
	.st11{fill:#BDBDBD;}
	.st12{fill:#555555;}
	.st13{fill:#565656;}
	.st14{fill:#B2B2B2;}
	.st15{fill:#BCBCBC;}
	.st16{fill:#B9B9B9;}
	.st17{fill:#C5C5C5;}
	.st18{fill:#969696;}
	.st19{fill:#B8B8B8;}
	.st20{fill:#B4B4B4;}
	.st21{fill:#494949;}
	.st22{fill:#4B4B4B;}
	.st23{fill:#ACACAC;}
	.st24{fill:#C2C2C2;}
	.st25{fill:#656565;}
	.st26{fill:#C1C1C1;}
	.st27{fill:#B5B5B5;}
	.st28{fill:#828282;}
	.st29{fill:#464646;}
	.st30{fill:#7E7E7E;}
	.st31{fill:#838383;}
	.st32{fill:#C0C0C0;}
	.st33{fill:#B3B3B3;}
	.st34{fill:#5C5C5C;}
	.st35{fill:#434343;}
	.st36{fill:#A0A0A0;}
	.st37{fill:#989898;}
	.st38{fill:#777777;}
	.st39{fill:#C9C9C9;}
	.st40{fill:#C4C4C4;}
	.st41{fill:#9C9C9C;}
	.st42{fill:#0C0C0C;}
	.st43{fill:#313131;}
	.st44{fill:#2B2B2B;}
	.st45{fill:#3C3C3C;}
	.st46{fill:#4F4F4F;}
	.st47{fill:#595959;}
	.st48{fill:#5B5B5B;}
	.st49{fill:#1B1B1B;}
	.st50{fill:#343434;}
	.st51{fill:#333333;}
	.st52{fill:#535353;}
	.st53{fill:#5E5E5E;}
	.st54{fill:#474747;}
	.st55{fill:#282828;}
	.st56{fill:#4E4E4E;}
	.st57{fill:#585858;}
	.st58{fill:#575757;}
	.st59{fill:#515151;}
	.st60{fill:#5D5D5D;}
	.st61{fill:#747474;}
	.st62{fill:#090909;}
	.st63{fill:#1D1D1D;}
	.st64{fill:#141414;}
	.st65{fill:#707070;}
	.st66{fill:#4A4A4A;}
	.st67{fill:#3D3D3D;}
	.st68{fill:#7C7C7C;}
	.st69{fill:#545454;}
	.st70{fill:#101010;}
	.st71{fill:#212121;}
	.st72{fill:#404040;}
	.st73{fill:#737373;}
	.st74{fill:#626262;}
	.st75{fill:#2D2D2D;}
	.st76{fill:#0F0F0F;}
	.st77{fill:#323232;}
	.st78{fill:#181818;}
	.st79{fill:#303030;}
	.st80{fill:#2F2F2F;}
	.st81{fill:#383838;}
	.st82{fill:#8B8B8B;}
	.st83{fill:#4C4C4C;}
	.st84{fill:#030303;}
	.st85{fill:#2E2E2E;}
	.st86{fill:#5A5A5A;}
	.st87{fill:#363636;}
	.st88{fill:#4D4D4D;}
	.st89{fill:#6A6A6A;}
	.st90{fill:#B1B1B1;}
</style>
<g>
	<path class="st0" d="M560.4,738.4c0.1,1,0.5,2.1,0.2,2.9c-0.9,2.1,0.2,3.4,1.1,5.2c1.4,2.9,3.7,5.5,3.8,8.9
		c0.1,1.7,1.1,3.1,1.6,4.7c1,4,1.7,8,2.5,12c-3.1,2.4-3.2,2.2-4.7-1.1c-1.4-2.9-2.1-6.7-6.1-7.7c-3.5-1.3-3.2-5.2-5.1-7.5
		c-2.7-4.1-4.5-8.5-3.5-13.6c1-1,1.7-2.2,3.2-2.4c1,0.2,1.8,1.2,2.9,0.9c2.5-1.2,0-2.6,0.1-3.9c0.2-1.6-1.4-3.6,1.6-4.2
		C560.5,733.9,559.1,736.7,560.4,738.4z"/>
	<path class="st1" d="M559.6,761.8c2.3,0.5,3.7,2,4.5,4.2c0.6,1.7,1.5,3.2,2.2,4.8c0.5,1.1,1.3,1.2,2.4,0.9c2.1,0,2.1,1,1.3,2.5
		c-3.4,1.2-1.5,3.4-1.1,5.4c0.2,0.3,0.5,0.4,0.9,0.4c0.7,1.4,1.7,2.2,3.5,2.4c2,0.2,2.3,1.6,0.8,2.7c-2.1,1.6-3.6,3.3-2.9,6
		c-1.8,0.5-1.9-0.6-2.1-1.2c-0.6-2-1.5-3.8-3.3-5.1c-1.6-1.1-2-2.9-2.1-4.8c-0.1-1.8-0.1-3.6-1.5-5c-1-1,0.1-2.4-0.6-3.5
		c-0.1-1.4-1.6-1.4-2.2-2.3c-0.3-1.2-0.5-2.5-1.2-3.5C556.9,763.8,557.7,762.6,559.6,761.8z"/>
	<path class="st2" d="M560.4,738.4c-1.9-1.2-1-3.8-2.4-5.3c-3.7-1.3-4.3-4.9-5.3-7.9c-2.2-6.9-4.9-13.6-7.5-20.4
		c-0.7-1.9-1.5-3.7,0.5-5.3c1.8-0.6,1.6,1.2,2.2,2c3.3,4.9,4.4,10.7,6.2,16.2c1.2,3.7,2.2,7.4,4.7,10.5c-0.1,2,0.5,3.8,1.2,5.6
		C560.4,735.4,560.4,736.9,560.4,738.4z"/>
	<path class="st3" d="M562.2,771.7c0,1.1,0,2.2-0.1,3.4c-3.4-6.8-7.6-13.1-10.8-20c1-2.1,2.3-2.1,3.8-0.6c0.7,1.6,1.6,3.2,1.9,4.9
		c0.2,1.3,1,2.2,2.4,2.4c-1.2,2.7-0.1,5.1,0.8,7.6C562,769.3,562.8,769.9,562.2,771.7z"/>
	<path class="st4" d="M555.2,754.4c-1.3,0.2-2.6,0.4-3.8,0.6c-0.7-0.9-0.9-1.9-1-3.1c-0.7-4.1-2.2-7.9-4.8-11.2
		c-0.1-0.5-0.1-1.1-0.2-1.6c0.2-0.4,0.6-0.6,1-0.6c2,0.5,3.7,1.5,5.2,2.8c0.1,0.4,0,0.8-0.3,1.2c0.1,0.4,0.2,0.8,0.2,1.2
		C552.1,748.7,552.7,750.2,555.2,754.4z"/>
	<path class="st5" d="M567.8,773.5c0.8-0.4,1.2-0.9,0.9-1.8c-0.8-3-0.6-6.3-2-9.2c-0.3-0.6,0.2-1.6,0.3-2.4c0.9,0.8,1.2,1.9,1.4,3
		c0.7,3.5,1.6,6.8,3.2,10.1c0.8,1.5,2.2,3.8-1.2,4.6c-0.7,0.2-0.4,1.5-0.6,2.3c-0.2,0.1-0.3,0.2-0.5,0.3
		C567.3,778.4,567.5,776,567.8,773.5z"/>
	<path class="st6" d="M547,751.7c-0.1,0.3-0.1,0.5-0.2,0.8c-0.4,1-0.8,2.5-2.1,1.6c-1.1-0.7,0.2-1.6,0.6-2.4
		C545.9,751.7,546.5,751.7,547,751.7z"/>
	<path class="st7" d="M305.4,284.5c2.2,2.4,3.7,5.4,6.3,7.6c1.5,1.2,2.8,2.9,3.5,4.6c2.4,5.6,7.5,8.8,10.8,13.5
		c2.7,3.7,6,7,7.9,11.2c0.3,0.7,0.8,1.5,1.3,2.1c2.6,3.2,5.2,6.3,6.8,10.3c1.1,2.5,3.5,4.5,5.4,6.7c0.7,0.9,1.5,1.7,2.2,2.5
		c1.6,2.6,2.9,5.3,5.3,7.3c2.3,2,1.6,5.5,3.6,7.6c0.3,0.5-0.1-0.1,0.2,0.4c3.3,4.7,2.7,7-2.6,10.1c-1,0.3-2.2,0.9-3.1-0.1
		c-2.2-2.4-4.9-2-7.6-1.7c-3.5-1.2-2.6-3.2-0.9-5.2c3-3.4,3-3.4-0.8-5.3c-1.2-0.6-1.7-1.7-2.6-2.5c-0.4-0.3-1.2-0.6-1.3-0.9
		c-1.5-6.3-8-10.3-7.6-17.5c0.1-1.9-1.7-2.8-3.5-2.8c-1.8-0.1-3.5-1.3-3.1-2.6c0.7-2.7-1.7-1.2-2.2-2.1c-1.3-2-3-3.7-4.6-5.5
		c0.9-2.3,1.2-4.2-2-5c-2.2-0.5-2.6-3.2-3-4.6c-1.1-4.6-5.1-6.6-7.7-9.7c-0.4-0.1-0.7-0.2-1.1-0.4c-0.8-1-0.8-2.5-2-3.3
		c-0.3-0.2-0.6-0.5-0.8-0.7c-1-0.8-2.5-1-2.6-2.6c0-1.1,0.4-2.4-1.1-3c-3.1-0.8-3.8-4.8-7.1-5.3c-0.3-0.3-0.5-0.6-0.6-1
		c-0.4-0.9-0.9-1.7-1.6-2.4c-0.7-0.8-1.2-1.7-1.4-2.8c-0.1-0.1-0.2-0.3-0.3-0.4c-2.2-1.2-3.9-2.9-4.7-5.3c-0.3-0.9-0.1-2.5-0.8-2.7
		c-3-0.8-3.8-2.8-3.5-5.5c0-0.1-0.5-0.2-0.8-0.2c-0.4,0-0.8-0.1-1.1-0.2c-1.2-3.5-5.4-4.5-6.6-8c-3.1-2.3-6-4.9-7.4-8.6
		c-0.1-1.1,0.7-3.1-1.2-2.9c-5.8,0.5-6.6-4.2-8.8-7.7c-0.2-0.3-0.4-0.7-0.6-1c-0.6-0.8-1.2-1.6-2-2.2c-0.3-0.3-0.5-0.7-0.6-1.1
		c0.8-5.4-3.5-8-6.4-11.2c-0.5-0.6-1.3-1.2-2.1-1.6c-0.8-0.7-1.8-1.1-2.2-2.1c-0.1-0.4-0.1-0.8,0-1.2c1.4-1.9,3.2-2.3,5.4-1.6
		c1.8,0.6,3.8,1.1,5.6-0.2c4.9,0.1,5.9,4.7,7.6,7.6c5,8.7,11.9,15.5,18.9,22.4c0.5,0.5,0.8,1.1,1.1,1.8c0.3,1,1,1.7,1.8,2.3
		c4.9,4.4,8.6,9.8,12.6,15c3.2,4.2,7.1,7.7,10.3,11.9C302.9,280.6,304.5,282.3,305.4,284.5z"/>
	<path class="st8" d="M359.8,395.6c-1.3-2.5-3.5-4.4-4.8-6.8c-3-5.8-7.6-10.5-10.5-16.3c-0.2-0.4-0.3-0.8-0.6-1.1
		c-4.7-4.2-7.3-10.1-11.6-14.6c-6-6.2-10.3-13.8-15.7-20.4c-3.4-4.2-6.4-8.7-9.7-12.9c-4.9-6.4-9.8-12.8-14.5-19.3
		c-3.9-5.3-7.7-10.8-12.8-15.2c-3.1-2.7-5.7-6.1-8.2-9.4c-3.6-4.9-7.7-9.5-11.3-14.4c-2.3-3-5.3-5.6-7.9-8.5c-2.1-2.4-4.1-4.9-6-7.5
		c1.2-1.9,2.1-1.2,3.5,0c1.5,1.3,2.9,2.9,4.7,3.9c0.4,0.2,0.8,0.4,1.2,0.6c3.3,6.6,9,11.1,14.1,16.2c1,1,1.9,1.9,2.3,3.3
		c0.7,2.4,1.9,4.6,4.3,5.9c0.9,0.5,1.4,1.5,2.2,2.2c2.9,3.3,6,6.5,8,10.5c0.3,0.5,0.3,1.3,1,1.7c5,2.4,6.4,8.3,11,11.1
		c1.1,4.8,6.1,6.9,7.9,10.9c1.8,4.1,5.3,6.5,7.7,10c1,1.4,2.3,2.6,3.3,4c1.7,3.5,4.9,5.8,6.4,9.5c1.3,3.4,4.4,5.7,7.6,7.5
		c0.5,0.7,0.9,1.3,1.6,1.8c1,0.8,1.2,2,1.6,3.1c1.8,2.6,2.9,5.7,5.2,8c1,0.4,1.8,1,1.9,2.2c1,2.6,2.1,5,5.3,5.9
		c1.7,0.5,2.3,2.6,2.6,4.4c0.8,3.8,2.8,6.7,6.1,8.7c1.6,2.6,3.4,5.2,4.6,8.1c0,1.1,0.4,2.1,0.9,3
		C361.8,393.2,362.2,394.9,359.8,395.6z"/>
	<path class="st9" d="M49.6,24.3c5.4,2.6,9.9,6.5,14.7,10.1c7.6,5.7,15.5,10.8,22.9,16.7c2.8,2.3,5.5,4.7,7.5,7.7
		c0.6,1,1.4,1.7,2.4,2.3c5.8,3.4,10.3,8.4,15.5,12.6c7,5.7,13.4,12.1,19.8,18.4c3.4,3.3,7,6.4,9.9,10.1c0.4,0.5,0.6,1.1,0.4,1.7
		c-3.7,0.5-9.3-2.7-10.8-6.2c-0.4-1-0.4-2.5-1.5-2.8c-5.4-1.4-7.9-6.4-11.4-9.8c-4-3.7-7.7-7.8-11.5-11.8c-1.4-1.5-2.6-2.6-4.8-2.7
		c-2.2-0.1-3.6-1.8-5.1-3.3c-9.7-11.7-22.2-20.1-34.5-28.6c-4.1-2.9-7.5-6.6-12.1-8.9c-1.2-0.6-2.3-1.6-2.5-3.1
		C48.8,25.8,49,25,49.6,24.3z"/>
	<path class="st9" d="M276.9,249.5c-3.1-1.9-5.1-5-7.7-7.4c-3.3-3.2-6.2-6.8-9.1-10.2c-2.5-2.9-3.6-6.5-6-9.5
		c-1.3-1.6-2.6-2.8-4.6-3.2c-4.5-0.1-5.7-4.6-8.8-6.6c-6.5-9.7-14.7-18-22.9-26.2c-1.3-1.4-2.7-3-1.2-5.1c0.3-0.3,0.7-0.5,1.1-0.5
		c3.5,3.1,7.2,6.1,10.6,9.3c3.5,3.2,7,6.7,9.3,11c1.6,3.1,3.3,6.1,6.6,7.8c1.2,0.6,2.1,1.9,2.7,3.1c1.2,2.1,2.6,3.9,4.8,5.1
		c0.7,0.4,1.5,1,1.8,1.7c1.6,3.8,4.7,6.5,6.7,10c2.6,4.6,6.2,8.4,9.9,12.2C272.7,243.3,275.7,245.8,276.9,249.5z"/>
	<path class="st9" d="M393.2,446.6c-0.9-1.9-1.9-3.6-3.5-5.1c-2.3-2.2-4.1-4.8-5-8c-0.7-2.5-2.2-4.7-2.9-7.3
		c-0.2-0.6-0.6-1.4-1.1-1.7c-4.1-2.7-6.2-7.1-8.6-11.1c-2.8-4.6-5-9.6-9.4-13.1c-0.9-0.8-1.4-2-2.1-3.1c0.6-1.3,1.7-1.4,2.9-1.2
		c3.4,0.9,4.6,4,6.2,6.6c2.6,1.5,3,4.5,4.5,6.7c0.4,0.6,0.9,1.2,1.3,1.8c0.2,0.3,0.4,0.6,0.6,0.9c0.6,0.9,1.2,1.7,1.9,2.5
		c0.2,0.3,0.5,0.5,0.7,0.8c0.7,0.8,1.5,1.5,1.6,2.8c0.7,1.5,1.8,2.7,3.1,3.6c3.3,2.3,5.7,5.1,5.7,9.4c0.2,0.6,0.7,0.9,1.1,1.3
		c1.4,3,4.5,4.8,5.7,7.9c0.4,1,1.2,1.8,1.8,2.6c1.3,2.8,1.4,6,3.8,8.4c1.1,1.1,0.5,2.3-0.6,3.2c-1.4,0.2-2.4-1-3.7-1.3
		c-0.3-0.6-0.6-1.1-0.8-1.7C395.5,449.9,395.6,447.4,393.2,446.6z"/>
	<path class="st10" d="M484.4,561.1c2.2,3.4,4.1,6.9,5,10.9c0.2,1.1,0.6,2.3,1.2,3.1c2.9,3.5,3.9,8,6.6,11.6c0.6,0.9,0.9,2,1.3,3.1
		c0.4,1,0.5,2.4,1.2,3c2.8,2.6,3.8,6.3,5.7,9.4c3.8,6,5.4,12.8,8.1,19.1c1.9,4.5,4.2,8.8,5.8,13.3c1.8,5,4.8,9.4,7,14.2
		c-0.1,0.5-0.4,0.8-0.9,0.9c-2.9-0.1-4.1-2.4-5.5-4.3c-1.1-1.5-1.8-3.4-3-4.9c-1.4-2.2,0-5.3-2.6-7c-2.8-6.2-5.1-12.6-7.6-19
		c-2.7-6.7-6-13-10.6-18.6c-0.6-0.9-0.5-1.8-0.3-2.8c0.6-2.2-0.1-4.5-1.4-5.8c-2.5-2.4-4.3-5.1-5.5-8.3c-0.3-0.9-1.3-1.4-2.1-2
		c-0.7-0.8-1.1-1.7-1.6-2.7c-0.7-2.1-1.1-4.3-1.9-6.3c-0.2-0.4-0.2-0.8-0.1-1.3C484.3,565.1,481.6,562.5,484.4,561.1z"/>
	<path class="st11" d="M217.7,180.6c-0.1,0.4-0.1,0.8-0.2,1.2c-2,1.3-3.4-0.1-4.1-1.5c-2.2-4-5.9-6.4-9-9.5
		c-8.3-8.4-15.6-17.7-24.1-26c-3.5-3.4-7.1-6.5-10.7-9.8c-5.6-5.2-10.6-10.9-16-16.2c-0.1-1.8-2.6-3-1.5-5.2
		c0.4-0.2,0.8-0.2,1.2,0.2c3,2.8,6.1,5.6,9.1,8.4c0.6,0.8,1,1.7,1.7,2.5c2.3,2.9,5.2,5,7.9,7.3c4.5,3.8,9.5,7.3,13.2,12
		c1.9,2.4,4.1,4.5,6.4,6.6c3,2.7,5.6,5.6,7.8,9.1c2.4,3.9,5.7,7.3,9.3,10C212.7,172.7,215.4,176.5,217.7,180.6z"/>
	<path class="st12" d="M176.6,172.4c-1.2-0.8-2.1-1.7-3-2.8c-4.7-5.8-9.9-11.2-16-15.7c-2.1-4.2-5.9-7.1-8.2-11.3
		c-1.7-3-5.2-5.8-8.3-8.1c-1.6-1.2-2.9-2.4-3.9-4.1c0-0.4,0-0.9,0.2-1.2c3.3-2.8,5.4-0.2,7.4,1.8c7.5,7.7,14,16.4,21.8,23.9
		c5,4.9,9.8,10.1,15.2,14.5c2.4,1.3,2.3,3.4,1.7,5.7c-1.7,1.8-3.3,1.1-4.8-0.4C177.9,174,177.8,172.8,176.6,172.4z"/>
	<path class="st13" d="M253.6,255.2c-1.3-0.4-2-1.4-2.6-2.5c-1-2-2.6-3.3-4.9-3.5c-0.2-0.3-0.5-0.5-0.7-0.8
		c-4.9-5.2-7.6-12.4-14.4-15.9c-0.3-0.5-0.6-1-1-1.5c-0.9-0.8-1.3-2-2.4-2.6l0,0c-0.1-1.7-1.4-2.5-2.4-3.7c-1.3-1.4-1.8-3.4-3.8-4.4
		c-1.8-1-1.9-2.6,0-3.9c1.7-1.7,3.4-3.6,6.3-2.5c1.5,0.6,2.7,1.3,2.3,2.9c-1.2,4.3,1.2,6.7,4,9c0.5,0.4,1,0.9,1.2,1.6
		c0.1,0.4,0.1,0.8,0.1,1.2c4.1,2.9,6.6,7.5,10,10.8c3.2,3.1,6,6.7,9.3,9.8C257.4,251.6,256.1,253.6,253.6,255.2z"/>
	<path class="st8" d="M393.2,403.1c4.4,5.2,8.8,10.3,12.2,16.2c0.8,1.4,1.5,2.9,2.1,4.5c1.2,3.1,2.5,6.2,5.1,8.4
		c2.9,2.4,3.9,6.1,5.4,9.2c1.7,3.3,3.8,6.1,6,8.9c0.8,1,1.8,1.8,2.1,3c1.2,4.8,4.7,8.5,6.8,12.8c1,2,2.2,3.9,2.9,6
		c0,0.4-0.2,0.8-0.7,0.9c-2-0.2-3.7-0.8-4.5-2.8c-0.2-0.4-0.3-0.7-0.4-1.1c-0.1-1.3-0.7-2.5-0.9-3.8c0-1.3-1-1.8-1.8-2.5
		c-0.6-0.4-1.2-0.8-1.8-1.3c-1.8-2.9-3.2-6.1-4.7-9.2c-1.8-2.9-3.5-6-6.3-8.2c-7.8-12.3-14.6-25.2-23-37.1c-0.9-1.3-2.2-2.8,0-4.2
		C392.5,402.7,392.9,402.8,393.2,403.1z"/>
	<path class="st14" d="M106.6,104.6c-2.3-1.3-4.2-3.2-5.9-5.3c-3.8-4.6-7.6-9.2-12.9-12.3c-0.1-0.1-0.3-0.2-0.3-0.3
		c-3.2-6.2-10.1-8-15.1-12c-1.5-1.2-3-2.5-3.6-4.4c-0.5-1.7-1.5-3-2.9-4c-4.9-3.3-8.2-8.8-14-11.1c-0.6-0.2-0.9-1-1.4-1.5
		c0.3-0.6,0.8-1.1,1.4-1.4c2-0.7,3.4,0.8,4.8,1.7c5.5,3.3,9.9,7.8,14.8,11.9c0.5,0.5,1.1,1.2,0.9,1.8c-1.4,3.4,1,4.6,3.3,5.7
		c6.1,3,11.9,6.5,16.5,11.5c1.5,2.1,2.8,4.5,5.3,5.7c2,4,5.3,7,8.2,10.3C106.7,101.9,108.4,102.9,106.6,104.6z"/>
	<path class="st15" d="M49.6,24.3c0.3,0.6,0.5,1.2,0.8,1.8c-2,2.6-3.2,0.6-4.5-0.7c-3.9-3.6-7.8-7.3-12.4-9.8
		c-3.9-2.1-7.8-0.1-11,1.8c-3.5,2.1-3.8,6.5-3.1,9.8c0.6,2.8,3.2,5.4,5.9,7.1c1.5,0.9,3.5,1.3,3.4,3.7c-0.2,0.4-0.5,0.7-1,0.8
		c-6.4-1-9.7-5.4-11.7-11c-1.9-5.5,0.2-9.6,4.5-13.2c3.8-3.2,7.6-4.3,12.6-2.3c4.6,1.8,7.9,4.9,11.5,8c1.5,0.9,2.6,2.4,4.2,3.3
		C49.1,23.8,49.3,24.1,49.6,24.3z"/>
	<path class="st16" d="M138.3,130.6c1.9,1.2,3.4,2.9,4.9,4.5c1.9,2,3.7,4.2,6.1,5.7c0.5,0.3,1.1,0.6,1.2,1.1
		c1.4,4.6,5.9,7.4,7.2,12.1c-3-3.3-6.6-6.1-9-10.1c-1.5-2.4-3.7-4.8-6.1-6.6c-4.5-3.2-8-7.6-12.6-10.7c-0.6-0.4-1-1.3-1.5-1.9
		c2.8-2.6,4.8-0.6,6.7,1.2C136.5,127.1,137.1,129,138.3,130.6z"/>
	<path class="st17" d="M397.4,453.3c1.2,0.2,2.4,0.5,3.6,0.7c0.3-0.3,0.7-0.4,1.2-0.4c5.4,7.3,12,13.9,14.5,23
		c-0.2,0.4-0.5,0.7-0.9,0.9c-3.6-1.9-6-4.3-7.1-8.6c-0.8-3.2-4.1-5-7.1-6.5C401.3,458.9,399.4,456.1,397.4,453.3z"/>
	<path class="st18" d="M222.5,217.4c-0.7,0.6-1.1,1.5-0.2,2c2.1,1.3,2.9,3.5,3.9,5.6c-0.3,0.4-0.7,0.5-1,0.1c-2.7-2.4-5.1-5-7.2-8
		c-2-2.8-4.6-5.2-7-7.7c-2.8-2.9-5.7-5.7-8.5-8.6c-0.4-0.4-0.6-1-0.8-1.4c0-0.5,0.3-0.9,0.6-1.2c2.6-0.9,4.4,0.6,6,2.2
		c1.1,1,2,2.1,3.4,2.8c3.8,3.7,6.3,8.7,11.2,11.4C224.2,215.1,224,216.6,222.5,217.4z"/>
	<path class="st19" d="M305.4,284.5c-2.4-3-5.2-5.6-7.5-8.7c-3.2-4.4-7-8.2-10.2-12.5c-2.9-3.9-6.2-7.5-9-11.4
		c1.6,0.4,2.7,1.4,3.6,2.6c2.8,3.8,6.3,7,9,10.8c3.8,5.3,8.5,9.7,12.7,14.6C305.2,281.3,305.4,282.8,305.4,284.5z"/>
	<path class="st20" d="M436,472.2c3.4,3.1,5.2,7.1,6.6,11.3c0.3,0.8,0.4,1.9,1,2.2c4.5,2.8,5.4,8,8.1,11.8c0.9,1-0.1,2.4,0.8,3.4
		l0,0c0.6,0.7,0.4,1.6,0.4,2.4c-2.9,2-3.5-1.4-3.7-2.3c-0.4-2.3-1.9-3.3-3.4-4.5c-0.3-3.5-0.8-6.8-4.9-7.9c-1.4-0.4-2-1.4-2.1-2.8
		c1.6-4.2-2.3-6.5-3.4-9.7c-0.5-1.4-1.4-2.5,0.4-3.5C435.9,472.4,435.9,472.3,436,472.2z"/>
	<path class="st21" d="M106.6,104.6c-0.4-1.5-1.4-2.7-2.5-3.7c-3.1-2.7-5.4-6.1-7.7-9.5c-0.3-0.3-0.4-0.7-0.3-1.2
		c1.3-1.5,2.8-0.8,3.8,0c2.9,2.4,6.5,3.9,7.8,8.2c1.2,3.6,4.7,6,7.7,8.6c0.6,1.5,2.6,1.7,3,3.3c0.3,0.7,0.3,1.3,0,2
		c-0.2,0.4-0.6,0.7-1.1,0.8c-2.7-1.5-4.6-3.9-7.1-5.7C109,106.5,107.8,105.5,106.6,104.6z"/>
	<path class="st22" d="M202.6,199.1c-0.3,0-0.6,0.1-0.9,0.1c-1.7-0.5-2.5-1.9-3.5-3.3c-2.7-3.6-5.7-7-9-10.2c-0.3-2.5-2.6-3.8-3.6-6
		c0-0.4,0.1-0.9,0.4-1.2c4.6-1.1,6.7,2.7,8.9,5.3c3.3,3.8,4.5,9.1,8.2,12.8C203.8,197.4,203.7,198.5,202.6,199.1z"/>
	<path class="st23" d="M27.8,38.8c0.1-0.4,0.1-0.8,0.2-1.1c1.3-1.5,2.6-0.8,4.1-0.2c7.3,3,12.7,8.9,19.5,12.7
		c1.1,0.7,2.2,1.9,0.8,3.5c-0.6,0-1.2,0-1.8,0.1c-6-3.3-11.3-7.6-16.9-11.5c-1-0.9-2.4-0.9-3.3-1.8C29.3,40.1,28.5,39.6,27.8,38.8z"
		/>
	<path class="st24" d="M231,232.6c4.7,1.2,8.1,4.1,10.1,8.5c0.7,1.5,1.6,2.9,2.8,4.1c1,0.9,1.4,2,1.5,3.3
		C240,243.7,236,237.7,231,232.6z"/>
	<path class="st25" d="M357.3,358c-1.4-3.7-2.7-7.5-5.7-10.5c-1-1-1.9-2.7-1.9-4.4c3.4,3.9,6.6,7.8,9,12.4c1,2,3,3.6,3.6,5.9
		c-0.2,0.4-0.5,0.6-0.9,0.6C359.5,361.1,358.6,359.3,357.3,358z"/>
	<path class="st26" d="M393.2,403.1c-0.3,0-0.6,0-1,0c-0.8,0.5-1.7,0.7-2.2-0.2c-2.3-3.6-6.1-5.8-8.3-9.5c0.3-1.3-0.2-2.9,1.4-3.7
		C388.7,392.6,391.6,397.4,393.2,403.1z"/>
	<path class="st27" d="M383.2,389.8c0.3,1.1,0.5,2.3,0.8,3.4c-1.2,1.7-2.6,1.3-4,0.2c-1.4-2.6,0.5-6.4-2.9-8.2
		c-1.4-2-2.3-4.2-2.6-6.6c0-0.6,0-1.3,0.3-1.8c0.3-0.3,0.6-0.5,1.1-0.6c0.4,0.6,0.8,1.2,1.3,1.6
		C380.6,381.1,382.2,385.3,383.2,389.8z"/>
	<path class="st28" d="M186.7,180c1.8,1.5,2.7,3.4,2.5,5.8c-3.6-3.3-6.5-7.4-10.4-10.4c-0.9-0.7-1.4-2-2.1-3
		c2.1,0.4,3.1,3.5,5.8,2.6c1.1-0.3,2,0.2,2.8,1C186.2,177.2,185.7,178.8,186.7,180z"/>
	<path class="st27" d="M363,361.4c3,2,5.5,4.4,7.4,7.6c1.5,2.6,3.5,4.9,5.5,7.2c-0.1,0.1-0.3,0.3-0.4,0.4c-3,1.2-4.4-1.1-6.2-2.6
		c-1.3-1.1-1.7-2.8-2.4-4.3c-0.9-1.9-1.9-3.6-3.4-5.1C362.4,363.7,361.7,362.7,363,361.4z"/>
	<path class="st29" d="M117.3,113.1c0-0.3,0-0.7,0-1c0.7-1.3,1.8-1.1,2.8-0.7c4.7,2.1,8.4,5.3,11.6,9.2c0,0.5-0.2,1-0.4,1.4
		c-1.6,1.7-3.2,1.2-4.8,0.2c-1.6-3-3.5-5.6-6.8-6.9C118.7,115,117.9,114.1,117.3,113.1z"/>
	<path class="st30" d="M475.1,544.5c0.4,0.5,0.7,1,1.1,1.6c-0.2,0.5-0.6,0.9-1,1.2c-2.5,1.4-3.9-0.3-4.9-2.1
		c-1.4-2.8-2.9-5.6-3.8-8.7c-0.2-1.8,0.4-3.3,1.4-4.7c0.5-0.2,0.9-0.2,1.3,0.2l0,0c1.5,2,1.1,4.7,2.5,6.7l0,0
		C471.7,541.2,475,541.9,475.1,544.5z"/>
	<path class="st31" d="M126.5,122.2c1.4-0.2,2.7-0.5,4.1-0.7c0.7-0.2,1.6-0.6,2,0c1.8,2.8,4.6,4.9,5.6,8.3c0,0.3,0,0.5,0.1,0.8
		c-2.2-0.6-3.9-2-5.3-3.7c-1.2-1.5-2.8-2.1-4.6-2.3C127.7,123.8,127.1,123,126.5,122.2z"/>
	<path class="st32" d="M455.1,505.1c2.7,4.4,6.8,7.9,7.7,13.2c-0.1,0.2-0.2,0.4-0.4,0.6c-2.3,0.7-3.1-1.4-4.4-2.4
		c-0.2-0.4-0.4-0.8-0.7-1.2c-0.9-3.2-4.5-5.5-3.3-9.5C454.3,505.4,454.6,505.2,455.1,505.1z"/>
	<path class="st32" d="M469.2,531.9c-0.2,0-0.5-0.1-0.7-0.1c-0.6,0.1-1.3,0.1-1.8-0.2c-2.8-2.6-3.1-6.4-4.6-9.5
		c-0.3-1.2-1.3-2.4,0.3-3.4c0.1-0.1,0.3-0.2,0.4-0.3C466.4,522.2,469,526.5,469.2,531.9z"/>
	<path class="st33" d="M477.8,548.5c0.5,0.5,1.2,0.9,1.4,1.5c1.2,3.7,3.4,7,5,10.5c-0.4,0.3-0.8,0.6-1.3,0.6
		c-5.2-1.9-7.4-6.1-6.3-11.9C476.9,548.8,477.3,548.6,477.8,548.5z"/>
	<path class="st32" d="M153.4,113.8c-0.4,0.1-0.8,0.1-1.2,0.2c-3.7,0.1-5.4-3-7.6-5.1c-1-1-3-2.5-2.2-4.8c0-0.6,0-1.2,0.1-1.9
		C146.4,105.8,150.1,109.5,153.4,113.8z"/>
	<path class="st34" d="M363,361.4c0.5,1.7,1.9,2.9,3.1,4.1c0.9,1,2.1,1.7,2.1,3.3c-0.3,0.3-0.6,0.4-1,0.5c-2.3-0.9-4.9-0.8-7-2.4
		c-0.4-0.1-0.8-0.2-1.1-0.4c-1.1-1.2-1.6-2.6,0.4-3.1c1.4-0.4,1.5-1.3,2-2.2c0.3,0,0.6,0,1-0.1C362.6,361.3,362.8,361.4,363,361.4z"
		/>
	<path class="st35" d="M483.4,560.4c0.3,0,0.5,0,0.8,0.1c0,0.2,0.1,0.4,0.2,0.6c-0.1,2.1,1.1,3.9,1.7,5.8c-1.2,2-2.7,1.3-4.2,0.4
		c-1.5-0.9-2-2.3-1.9-4C480.2,561.1,481.9,560.8,483.4,560.4z"/>
	<path class="st36" d="M363.9,397.3c-1.1,0-2.2,0-3.4,0c-0.3-0.6-0.6-1.1-0.8-1.7c0.3-1.4,0.3-2.8,0-4.2c3.3-1,3.8,2.1,5.4,3.7
		c0.1,0.5,0,0.9-0.1,1.3C364.8,396.9,364.4,397.2,363.9,397.3z"/>
	<path class="st32" d="M471.7,538.6c-2.6-1.6-2.2-4.3-2.5-6.7C471.6,533.6,471.8,536,471.7,538.6z"/>
	<path class="st17" d="M393.2,446.6c3.1,0.4,3.4,2.6,3.3,5C394.9,450.3,394.2,448.4,393.2,446.6z"/>
	<path class="st32" d="M475.1,544.5c-0.9-1-1.8-2-2.8-2.9c-0.9-0.9-0.9-1.9-0.6-3C473.3,540.3,475,541.9,475.1,544.5z"/>
	<path class="st9" d="M48.8,23.6c-1.9-0.5-3.1-1.8-4.2-3.3C46.5,20.8,47.7,22,48.8,23.6z"/>
	<path class="st10" d="M455.1,505.1c0,0.4-0.1,0.7-0.1,1.1c-2.3,0.3-3.2-0.6-2.4-2.9c0-0.8,0-1.6,0-2.4
		C453.4,502.3,454.3,503.7,455.1,505.1z"/>
	<path class="st37" d="M225.2,225c0.3,0,0.7,0,1-0.1c1.1,0.9,2,1.8,1.5,3.4C226.5,227.5,226,226.2,225.2,225z"/>
	<path class="st38" d="M477.8,548.5c-0.1,0.3-0.2,0.7-0.2,1c-3.3,0.7-3.6-0.8-2.5-3.4c0.4,0,0.7-0.1,1.1-0.1
		C476.7,546.8,477.3,547.7,477.8,548.5z"/>
	<path class="st15" d="M30.3,40.4c1.3,0.2,2.5,0.8,3.3,1.8C32.4,41.9,31.2,41.3,30.3,40.4z"/>
	<path class="st37" d="M227.7,228.4c1.3,0.4,2,1.4,2.4,2.6C228.9,230.5,228.2,229.5,227.7,228.4z"/>
	<path class="st32" d="M164.2,124.8c-0.8-0.7-1.4-1.5-1.7-2.5C163.3,122.9,163.9,123.7,164.2,124.8z"/>
	<path class="st10" d="M452.6,500.9c-0.6-1-0.8-2.2-0.8-3.4C452.3,498.6,452.5,499.8,452.6,500.9z"/>
	<path class="st39" d="M461.7,562.8c-2-2.2-4.1-4.5-4.5-7.7c-0.1-0.5-0.4-1.1-0.7-1.5c-3.8-4-5.9-9-8.2-13.9c-1-2-2.3-3.8-2.5-6.1
		c-0.1-1-0.6-1.8-1.2-2.6c-2.7-3.9-4.7-8.1-6.3-12.5c-0.5-1.3-1.3-2-2.5-2.7c-2.5-1.4-3.8-3.5-4.1-6.4c-0.3-4.3-2-8-4.4-11.5
		c-1.5-2.1-3.5-4.1-3.7-6.9c-0.1-0.9-0.9-1.4-1.5-1.9c-1.8-1.4-3.2-3.1-4.6-4.8c0.9-2.6,2.8-1.8,4.5-1.2c1,1.4,2.4,2.5,3.4,3.9
		c1.1,5,4.4,8.6,7.6,12.4c0.4,0.5,0.6,1.3,0.7,1.9c0.2,3.1,1.3,5.8,3.9,7.6c0.9,2.9,2,5.7,3.9,8.1c0.5,1.7,0.4,3.8,2.3,4.9
		c2,2.2,3.9,4.6,5.5,7.1c1.4,1.8,0.5,4.5,2.5,6.1c1,0.7,1.1,2,1.9,2.9c0.3,0.3,0.5,0.6,0.7,0.9c1.2,1.3,1.1,3,1.6,4.5
		c1.8,5.7,5.7,10.4,7.6,16c0.2,0.6,0,1,0.2,1.5C463.2,561.8,462.8,562.6,461.7,562.8z"/>
	<path class="st40" d="M461.7,562.8c0.1-0.9,0.1-1.9,0.2-2.8c1.7-0.7,2.3,0.5,3,1.7c7.2,11.7,13.4,23.9,19.3,36.3
		c3.4,5.5,5.2,11.8,8.8,17.1c1.6,2.1,3.4,4.1-0.1,6.1c-0.1,0.1-0.2,0.2-0.4,0.3c-0.5-0.6-1.4-1.2-1.6-1.9c-1-4-3.3-7.3-5.4-10.7
		c-0.8-1.3-1.2-2.7-2.8-3.4c-1.4-0.6-1.7-2.1-2-3.5c-0.4-2.6-1.4-4.8-3.5-6.4c-1.1-0.9-1.8-2.1-2.2-3.5c-1.1-3.8-3.2-7.1-5-10.5
		c-1.3-2.5-2.8-4.8-3.6-7.5c-0.4-1.5-1.3-2.8-2.3-3.9C462.2,568,461.6,565.6,461.7,562.8z"/>
	<path class="st41" d="M420.7,485.1c-1-0.7-2-1.3-3.3-0.8c-0.5-1-0.7-2-0.5-3.1c0.3-1.4-0.2-2.6-1.1-3.7c0-0.3,0-0.6,0.1-0.9
		c0.5-0.7,1.2-0.9,2-0.7C421.3,479.3,422.2,482.4,420.7,485.1z"/>
	<path class="st6" d="M438.5,546.3c-0.1,0.2-0.2,0.4-0.3,0.6c-0.2-0.1-0.5-0.2-0.6-0.4c-0.1-0.3,0-0.6,0.3-0.5
		C438.1,545.9,438.3,546.2,438.5,546.3z"/>
	<path class="st6" d="M440.4,552.9c0.2,0.1,0.5,0.2,0.6,0.3c0.1,0.3-0.1,0.5-0.4,0.5c-0.1,0-0.3-0.1-0.3-0.2
		C440.2,553.3,440.3,553.1,440.4,552.9z"/>
	<path class="st6" d="M372.7,459.7c0.1,0.1,0.3,0.1,0.3,0.2c0,0.3-0.1,0.4-0.4,0.3c-0.1,0-0.1-0.2-0.1-0.3
		C372.5,459.8,372.6,459.7,372.7,459.7z"/>
	<path class="st42" d="M526,649c0.7,2.9,1.6,5.9,2.1,8.9c0.4,2.1,2,3.6,2.7,5.5c1.7,4.8,3.6,9.5,4.9,14.4c0.4,1.6,1.3,3.1,2.2,4.4
		c1.4,1.9,2.6,3.8,2.8,6.3c0.1,1,0.6,2.2,1.3,3c2.2,2.4,3.3,5.3,4,8.4c1,4.4,2.9,8.4,4.5,12.5c0.7,1.8,1.5,3.6,2.1,5.4
		c1.3,3.9,2.1,8.1,4.4,11.7c0.6,1,0.7,2.4,1,3.6c-0.3,2.4,0.4,4.6,1.1,6.8c0.3,1.1,0.2,2.2-0.9,3c-0.7,0.4-1.3-0.1-1.9-0.4
		c-0.6,0-1-0.3-1.3-0.8c-0.1-0.5-0.3-0.9-1-0.9h-0.4c-0.7,0.7-1.1,1.8-2.4,1.7c-0.1-0.2-0.1-0.5-0.2-0.7c-2.2-1.8-2.6-4.7-4-6.9
		c-0.5-0.7-0.5-1.5-0.3-2.3c0.2-0.4,0.4-0.6,0.7-0.8c-0.2,0.1-0.5,0.1-0.8,0.2c-1.3-0.3-2.7-0.2-3.4-1.6c-0.1-1.9-0.6-3.8-1.3-5.6
		c0-0.5,0.1-0.9,0.4-1.3c1.1-1,2.1-2.1,3.7-1.8c-0.6-0.3-1.3-0.3-1.9-0.5c-0.9-0.3-2,0-2.7-0.9c-0.3-0.3-0.5-0.6-0.7-0.9
		c-0.3-1.6-1.9-2.1-2.8-3.3c-1.5-0.8-1.8-2.5-2.8-3.7c-0.3-0.5-0.6-1-0.9-1.6c0.2-1.6-0.3-3.2-0.8-4.7c0.1-3.1-1.5-5.8-2.3-8.7
		c-0.8-3.8-2.9-7-4.1-10.6c-2.6-3.3-4.4-6.6-4.9-11.1c-0.7-6.4-6-10.4-9.7-15.2l0,0c-0.3-3.2,0.5-6.7-3.8-8.5
		c-1.2-0.5-2.8-3.6-0.5-6.2c1.2-1.3,0.6-3.4-0.3-5c-0.7-1.4-2-2.5-2.1-4.2c-0.1-1.8-0.3-3.8-1.9-4.8c-3.9-2.4-4.4-6.3-4.7-10.3
		c-0.1-1.1-0.3-1.8-1.1-2.4c-0.3-0.2-0.6-0.5-0.9-0.7c-1.4-0.7-1.5-2.2-2-3.4c-0.1-0.4-0.2-0.8-0.2-1.2c-0.3-4.5-3.6-7.7-5.3-11.6
		c-1-2.2-2.2-4.3-2.5-6.8c-1.1-3.5,2.1-5.3,3.1-7.9c0.5-0.7,1-1.4,1.9-1.7c3,0.2,3.9,2.7,4.6,4.9c0.5,1.5,0.9,3.1,1.9,4.4
		c0.6,0.5,1.2,1.2,2.1,1.4c1.4,0.3,1.7,1.2,1.9,2.7c0.4,2.6,0.5,5.5,3.4,7.1c0.7,0.4,1.1,1.6,1.4,2.5c2.5,7.3,5.1,14.5,8.4,21.5
		c0.3,0.7,0.3,1.6,0.4,2.4c-0.2,2.9,2.8,4.2,3.3,6.8C521,643.3,523.2,646.3,526,649z"/>
	<path class="st43" d="M512.6,660.7c2.6,1.1,4.7,3,6.9,4.6c2.3,1.6,3.2,4.1,3.9,6.7c0.4,1.5,1,3,1,4.5c0.2,2.9,0.8,5.5,3.2,7.4
		c0.8,0.6,1,1.7,1.1,2.6c0.5,2.8-1.3,3.8-3.6,4.3c-1-5-4.2-9.2-5-14.3c-0.3-1.8-1.6-3.5-2.8-5C515,668.2,514,664.4,512.6,660.7z"/>
	<path class="st44" d="M498.6,617.9c1.6-0.6,2.8-0.5,2.6,1.6c-0.1,1.8-0.1,3.6,1.4,4.9c0.4,0.4,0.5,1,0.3,1.5
		c-0.8,1.6,0.3,2.5,1.2,3.6c1.7,2,3,4.2,3.6,6.8c-0.5,0.3-1.2,0.5-1.3,1c-0.3,1.3-0.5,2.9-2.2,2.9c-1.9,0-1.3-2.2-2.2-3.1
		c-2.2-4.5-4.5-8.9-6.7-13.4c-1.1-1.4-1.6-2.7-0.4-4.5C495.9,617.6,497,617.5,498.6,617.9z"/>
	<path class="st43" d="M509.6,640.5c0.6,1.5,1.4,3,1.8,4.7c0.4,1.6,0.4,3.5-1.8,3.9c-1.9,0.4-1,1.2-0.3,1.9c0.4,0.3,1,0.6,1.5,0.6
		c3.8,0,5.1,2.8,6.7,5.5c0.4,0.7,0.8,1.6,0.3,2.4c-0.6,0.9-1.5,0.5-2.3,0.2c-1.3-0.5-2.5-0.8-2.8,1.1c-3.6-3.1-4.3-7.5-5.8-11.6
		c-1.2-1.8-1.6-4.1-2.8-5.9c-0.2-0.3-0.3-0.6-0.5-0.9c-0.4-2.2,1.3-3,2.5-2.2C507.3,640.9,508.5,639.9,509.6,640.5z"/>
	<path class="st45" d="M544.6,729.8c1.1,0.4,2.2,0.7,3.2,1.1c0.3,0.2,0.5,0.5,0.4,0.9c-3.1,2-0.4,2.6,0.9,3.4c0.6,2.5,0.2,4.3-2.9,4
		c-0.3,0-0.5,0-0.8,0c-2.3-5.8-5.4-11.3-6.8-17.5c-0.8-3.5,1.4-3,3.5-2.6c0.8,0.3,1.7,0.6,2.5,0.9c1.4,1.1,0.4,2.2,0,3.3
		c0,0.3,0,0.5,0,0.8C543.6,726,543.2,727.9,544.6,729.8z"/>
	<path class="st12" d="M509.6,640.5c-1.2,0.9-2.2,1.7-0.7,3.2c0.7,0.7,1.5,1.7,0.5,2.4c-1.2,0.8-1.9-0.5-2.4-1.4
		c-0.5-0.8-0.7-1.8-1.2-2.6c-0.8-1.2-1.6-0.5-2.3,0.2c-1.2-1.5-1.6-3.2-1.5-5.1c0.6,0.4,1.1,0.7,1.7,1.2c1.2-1.8-1.4-2.6-0.7-4.5
		c2-0.1,3,2,4.7,2.5C508.1,637.9,508.8,639.2,509.6,640.5z"/>
	<path class="st46" d="M498.6,617.9c-1.4,1.1-0.9,3.7-3.3,3.9c-0.1,0,0,1.2,0,1.9c-1.2-0.5-1.6-1.7-2.3-2.6c0.1-1.1,0.2-2.2-0.7-3
		c-0.8-0.7-0.8-1.6-0.7-2.6c1.4-1.7-0.2-2.8-1-3.9c-0.8-1.3-0.8-2.3,0.5-3c1.1-0.7,1.9,0,2.7,0.9c1.3,1.3,1.1,3.7,3.3,4.2
		c0.2,0.1,0.5,0.1,0.7,0.2C498.8,615,497.5,616.8,498.6,617.9L498.6,617.9z"/>
	<path class="st47" d="M542.1,719.1c-1.2,0.8-2.7,1.2-3.5,2.6c-2-2.8-1.8-6.3-3.4-9.2c1.1,0.8,2.3,1.6,3.4,2.4
		c1.3-0.6,2.2-0.2,2.3,1.2C541,717.3,541.3,718.3,542.1,719.1L542.1,719.1z"/>
	<path class="st48" d="M556.2,741c0,0.5,0.1,1,0.2,1.5c-0.2,0.6-0.1,1.5-0.9,1.7c-1,0.3-1.4-0.6-1.6-1.4c-0.2-0.6-0.1-1.3-0.2-2l0,0
		C554.6,739.3,555.5,739.4,556.2,741z"/>
	<path class="st0" d="M567.8,773.5c1.9,2,0.2,4.7,1.4,6.8c-0.1,0.4-0.6,0.9-0.8,0.6C566.4,778.9,566.3,776,567.8,773.5z"/>
	<path class="st49" d="M562.2,771.7c-0.6-0.8-1.2-1.6-1.9-2.3c0.1-0.7-0.1-1.5,0.6-1.9c1-0.5,1.4,0.5,1.8,1.1
		C563.5,769.7,563.6,770.9,562.2,771.7z"/>
	<path class="st0" d="M546.2,739.2c-0.1-1-0.1-1.8,1.1-2.1c1-0.3,1.3-1.1,1.3-2.1c-0.2-0.1-0.3-0.2-0.3-0.4s0.1-0.3,0.2-0.3
		c1.7,2.2,2.7,4.7,2.7,7.6C549,741.8,547.4,741,546.2,739.2z"/>
	<path class="st50" d="M222.5,217.4c-0.2-0.9-0.7-1.6-1.5-1.8c-3-0.9-4.8-3.1-6.1-5.7c-1.1-2.2-3.3-3.2-4.8-4.9
		c0.8-3,3.4-1.9,4.9-2.2c-1.8-0.3-2.3-1.9-2.4-3.7c-0.1-1.7,1-2.5,2.6-2.5c1.5,0,2.6-1.6,4.3-1.1c1.2,0,1.7,0.9,2.3,1.7
		c0.7,0.8,1.5,1.4,2.3,2c0.4,0.3,0.6,0.6,0.7,1c0.3,2.2,0.9,4.1,3.2,5.1c0.8,0.3,1.1,1.2,0.6,2c-0.2,0.2-0.4,0.4-0.6,0.6
		c0.2-0.2,0.4-0.4,0.6-0.6c1.8-0.4,1.8,1.7,2.9,2.2c0.7,0.7,1.5,1.4,1.9,2.3c0.7,1.7,1.4,3.3,1.1,5.2c-0.3,0.5,0.1-0.2-0.2,0.3
		c0.1-0.1,0.1-0.2,0.2-0.4c0.1-1.5,1-2.1,2.4-2.2c0.5,0,0.9,0.1,1.3,0.4c2.2,1.3,2.4,3,0.9,5l0,0c-0.4,0.9-0.3,1.8-0.3,2.7
		c-0.2,1.5-0.1,2.9,0.8,3.3c-1.7-0.6-0.6-2.6-0.7-4.2c0.9-0.8,1.8-0.7,2.7-0.1c2.5,2.4,5.1,4.6,7.3,7.3c1.6,1.9,3.8,3.9,1.9,6.9
		c-0.7,2.3,0.6,3.1,2.6,3.3c0.9,1.9,2.8,3,3.9,4.7c0.8,1.2,1.9,0.6,2.9,0.8c3.4,0.4,4.5,2.3,3,5.5c0.6,4.5,3,7.4,7.6,8.3
		c0.1,0.1,0.2,0.3,0.3,0.3c3.9,0.8,4.8,3.9,5.6,7.1c-2.3,1-4.8,0.9-7.1,2.1c-1.5,0.7-3.1-0.1-4-1.5c-1.6-2.6-5.5-3.7-4.9-7.8
		c0.1-0.5-0.5-0.8-1.2-0.7c-2.6,0.3-4.2-1.9-6.2-2.9l0,0c0.5-2.3,0.5-4.3-1.9-5.7c-1.1-0.6-1.6-1.8-2.2-3c-0.7-1.5-1.8-2.8-3.1-3.9
		c-2.4-1.9-4.5-4.1-5.8-6.9c-1.2-2.4-3.5-2.9-5.8-3.6c-2.5-0.7-2.6-1.2-1.2-3.7c0.8,0.7,1.3,1.8,2.7,1.4c-1.3,0.4-1.9-0.7-2.7-1.4
		c-1.2-2.1-3.6-3-5.2-4.7c-1.5-1.6-2.8-3.1-1.1-5.4c0.6-0.8,1-1.8-0.1-2.5s-1.8,0.2-2.4,1C224.1,217.5,223.7,218.6,222.5,217.4z"/>
	<path class="st51" d="M315.4,330.4c-0.8-1.4-1.7-2.7-2.5-4.1c-4.2-7.6-9.9-13.9-16.1-19.9c-2.2-4.5-5.9-7.8-8.8-11.7
		c-1.9-2.6-2.5-5.9-5.2-8.1c-0.9-0.7-0.4-2.3,0.7-2.8c1.5-0.8,3.2-1.8,5-0.4c1.2,0.9,2,2.3,3.5,2.7c0.9,0.2,1.9,0.4,2.8,0.6
		c1.5,0.3,2.6,0.7,2.4,2.7c-0.2,1.6,1.2,1.6,2.2,1.8c0.7,0.7,0.5,1.6,0.4,2.3c-0.6,4.5-0.6,4.5,3.8,4.4c0.8,1.1,1.7,2.2,2.5,3.3
		c-2,1.7-2.1,3.8-1.7,6.2c0.2,1.1,1,1.2,1.6,1.7c0.5,0.4,1,0,1,0c0.5-0.9,0-1.6-0.5-2.3c-0.2-0.3-0.5-0.7-0.8-0.9
		c-2.2-1.7-1.4-3.2,0.3-4.7c2,0.5,2.8,2.7,4.5,3.5c1,0.5,1.4,1.9,3.1,1.5c1.3-0.3,1.8,1.5,2.7,2.3c1.4,1.2-0.3,1.8-0.9,2.6
		c-0.6,0.8-0.4,1.5,0.1,2.3c1,2.1,2.6,3.5,4.7,4.4c1,0.5,2,1.1,1.9,2.4c-0.1,1.7-1.6,1.7-2.8,1.9c-0.2,0-0.4,0-0.6-0.1
		c-1.6-0.9-2.9-0.7-2,1.4c1.1,2.5,3,4.4,6.2,3.7c0.2,0,0.4,0,0.6,0c2.3-1,4.6-2.4,7.2-0.8c-0.4,1.8-1.7,1.5-2.7,2
		c-0.7,0.3-1.2,0.8-1,1.6c0.2,0.8,0.8,1.1,1.5,1.2c0.4,0.1,0.8,0,1.2,0c5.4,0.3,6.4,1.7,4.6,6.8c0.9,1.3,2.6,0.4,3.7,1.3
		c0.6,0.5,1.6,1,1.3,1.9c-0.3,1.1-1.3,0.7-2.1,0.6c-0.5-0.1-1.1-0.4-1.6,0.4c1.3,1.6,2.4,3.5,4.8,4.1c1.4,0.3,2,1.2,1,2.4
		c-1.4,1.7-0.3,3.1,0.4,4.6c-0.3,1.2-0.1,2.1,0.9,3c4,3.6,3.9,4.3-0.8,7.4c-0.4,0-0.8-0.2-1.1-0.4c-0.9-1-2.1-1.6-3.1-2.5
		c-2.1-2.4-3.5-5.4-5.8-7.6c-1-0.8-0.5-2.5-1.9-3.1c-0.3-0.5-0.6-1-0.9-1.5c-2-2.4-4.1-4.7-5.5-7.5c-0.4-0.9-0.9-1.8-0.5-2.7
		c1.4-2.7,0.4-3.8-2.4-4C318.7,333.8,317.4,331.5,315.4,330.4z"/>
	<path class="st52" d="M292.1,286c0.2,0.4,0.4,0.7,0.6,1.1c0.4,0.7,1.9,1.4,0.4,2.3c-1.1,0.6-2.5,0.7-3.2-0.8
		c-0.3-0.6-0.4-1.3-0.6-2c-0.7-1.8-1.9-2.2-4.1-1.2c2,1.2,2.9,2.6,2.7,4.9c-0.3,3.1,1.7,5.9,3.8,7.6c2.8,2.2,4.1,5.2,5.6,8.1
		c-0.3,0.4-0.6,0.4-0.9,0c-6.6-8-13.2-15.9-19.4-24.2c0.7-3.7,3.3-6.3,6.8-6.8c2,3.4,5.2,2.7,8.3,2.6c1.6,2.1-0.6,2.5-1.6,3.3
		c-0.4,0.9-0.5,1.7,0,2.6C291.9,283.8,291.4,285.3,292.1,286L292.1,286z"/>
	<path class="st50" d="M283.7,275.2c-2.3,2.2-3.7,5.3-6.8,6.8c-0.6-0.6-1.1-1.1-1.7-1.7c-1-2.3-2.6-4.2-4.4-5.9
		c-1.7-1.6-4-3.3-2.8-5.5c1-1.9,4-2.2,6.3-2.3c1.2-0.1,2.5,0.7,3.5-0.5c0.9-0.5,2-1.7,2.9-0.8c1.2,1,2.2,2.5,2.6,4
		c0.3,1.1-1.5,0.6-2.7,1.3C282.6,271.5,283.8,273,283.7,275.2z"/>
	<path class="st51" d="M361.4,361.3c0.4,1.1-0.1,1.9-0.9,2.4c-0.7,0.4-0.9,1-0.6,1.8c3.8,3.5,3.8,3.5,1.2,8.3
		c-0.8,1.3,0.3,2.4,0.3,3.6c0.1,1.5,1.6,2.7,1.2,4.4c-1,1.7-0.5,2.9,0.9,4.2c1.4,1.2,2.9,3,1.3,4.8c-1.9,2.1-3.5,0.2-4.9-1.2
		c-0.3-0.3-0.7-0.5-1-0.7c-1.6-2.3-3.2-4.6-4.7-7c-1.3-1.8-1.7-3.6-0.4-5.6c0.5-0.8,1.1-1.7,0.5-2.6c-2-2.8-0.2-4.7,1.5-6.7
		c1.1-1.4,2.1-2.8,3.2-4.1c0.5-0.6,0.5-1.2,0.2-1.8c-0.6-1.1-1.1-2.2-1.6-3.2C358.9,358.8,360.3,359.9,361.4,361.3z"/>
	<path class="st53" d="M355.6,367.2c-0.1,3.8,1.1,7.6-1.1,11.2c-0.7,1.1-0.5,2.4-0.5,3.7c-2.7-3.3-5.6-6.5-6.8-10.7
		c-0.4-1.4-1.2-2.4-2.4-3.3c-2.1-1.6-3.9-3.5-5.1-6c0.6-0.5,1.1-0.5,1.6,0l0,0c1.8,0.1,1.6,3.7,4.2,2.4c0.8-0.2,1.6-0.3,2.4-0.6
		c2.3-0.9,4.2-0.2,5.8,1.6C354.3,366.2,355,366.7,355.6,367.2z"/>
	<path class="st13" d="M277.8,266.1c-0.2,1-0.6,1.9-1.8,1.9c-0.7,0-1.4-0.1-2.1,0c-1.8,0.2-3.9,0.1-4.6,2c-0.8,1.9,1.2,2.7,2.2,4
		c1.5,1.9,4.5,3,3.8,6.3c-3-2-4.9-5.3-7-8c-3.2-4.3-6.5-8.4-10.6-11.9c-1.6-1.4-2.8-3.4-4.1-5.1c2.1,0.3,4.1,1.4,6.4,0.2
		c1.7-0.9,4.3,1.5,3.6,3.6c-0.8,2.4,0.2,3.3,1.8,4.3c0.4,0.3,0.7,0.8,1,1.3c1.3,1.9,2.9,2.5,5,1.5c1.9-0.9,3.7-0.8,5.6-0.1
		C277.3,266,277.5,266,277.8,266.1z"/>
	<path class="st54" d="M345.6,364.7c-2.5,1.2-3.4-0.6-4.2-2.4c0.3-0.2,0.7-0.4,1-0.7c1.7-2.1,1.7-2.1-0.6-3.6
		c-2.5-1.7-2.4-3.1,0.5-5c1,0.4,2,2,2.9-0.1c0.7-1.7,1.7-1,2.6-0.1c2.7,2.8,2.2,7.2-1.2,9.6C345.8,362.8,344.3,363.2,345.6,364.7z"
		/>
	<path class="st55" d="M239.4,220.1c-0.1-1.6-0.8-2.9-1.7-4.1c0.5-2.4,1.1-4.7,4.3-4.4c2.2,0.9,4,2.1,5.1,4.4
		c0.6,1.2,1.6,2.1,2.5,3.2c-1.8,1.6-3.7,2.6-6.2,1.1C242.2,219.5,240.8,219.6,239.4,220.1z"/>
	<path class="st56" d="M303.7,297.8c-0.3,0.3-0.5,0.7-0.8,0.9c-2.8,2.2-3,2.2-4.9-1c-0.6-1-1.1-1.9-1.6-2.9
		c-0.3-0.6-0.3-1.3-0.6-2.4c1.3-0.3,3.3,0.7,3.7-1.4c1.8,0.9,1.6,2.6,1.7,4.2C301.6,296.6,302.5,297.4,303.7,297.8L303.7,297.8z"/>
	<path class="st57" d="M253.7,239.2c-0.3,1.2-0.8,2.3-2.2,1.2c-1.1-0.9-2.1-1.8-3.6-1.7c-0.9,0-1.7-0.2-2-1.1
		c-0.4-1.2,0.4-2.1,1.2-2.9c0.8-0.7,1.7-1.1,2.6-0.4c0.5,0.4,1,1,1.4,1.5l0,0c1,0.7,1.7,1.7,2.4,2.6
		C253.6,238.8,253.6,239,253.7,239.2z"/>
	<path class="st58" d="M271.2,258.5c-2.7,1.2-4.5-0.2-6-2.3c-0.9-1.4-1.7-2.8-3.4-3.5c-0.8-0.3-1.7-0.8-1.5-1.8
		c0.3-1.2,1.4-1.2,2.4-1c0.3,0.1,0.5,0.2,0.8,0.2c0.5,0.5,1.1,1,1.3,1.6c0.9,2.5,2.5,4.2,5,5.2C270.5,257.3,270.9,257.9,271.2,258.5
		z"/>
	<path class="st51" d="M319.7,322.1c2.2,1,3.4,2.8,4.2,5l-0.2,0.1c-3.1,1.5-4.6-1-5.9-2.9C316.8,322.8,317.1,321.2,319.7,322.1
		L319.7,322.1z"/>
	<path class="st50" d="M290.4,281c0.5-1.1,1.1-2.2,1.6-3.3C293.5,280,293.4,280.2,290.4,281z"/>
	<path class="st51" d="M292.1,286.1c-0.6-0.8-1.2-1.6-1.7-2.5C293,283,292.2,284.8,292.1,286.1z"/>
	<path class="st51" d="M303.7,297.8c-1.9,0.2-2.6-0.8-2.4-2.6C302.1,296.1,302.9,297,303.7,297.8z"/>
	<path class="st50" d="M253.5,238.5c-1.1-0.6-1.9-1.5-2.4-2.6C252.5,236.3,253.2,237.2,253.5,238.5z"/>
	<path class="st55" d="M238.6,222.7c0.3-0.9,0.6-1.8,0.9-2.6c0.8,0.6,1.6,1.1,2.5,1.7c-0.8,0.3-1.7,0.6-2.5,0.9
		C239.1,222.8,238.9,222.9,238.6,222.7z"/>
	<path class="st59" d="M315.4,330.4c2.7,1.2,5.4,2.2,8.4,0.7c1.2-0.6,3.9,1.3,3.9,2.8c0,1.6,0.6,3.4-1.1,4.6
		c-1.9,1.4-1.3,2.9-0.3,4.3c1.2,1.7,2.8,3.1,3.2,5.3c-2.1-1-3.6-2.7-4.7-4.6C322,338.9,318.6,334.8,315.4,330.4z"/>
	<path class="st57" d="M296.4,306.1c0.3,0,0.6,0,0.9,0c3.2,1.8,5.8,4.2,7.3,7.7c0.9,1.9,2.5,2.4,4.5,1.4c0.6-0.3,1.2-0.7,1.9-0.9
		c0.6-0.2,1.4-0.4,1.8,0.4c0.3,0.6-0.1,1.1-0.6,1.4c-2.6,1.4-2,3.1-0.8,5.2c0.9,1.5,1.2,3.4,1.5,5.2c-1.8-1-2.8-2.7-4-4.2
		C304.6,316.8,300.5,311.4,296.4,306.1z"/>
	<path class="st60" d="M358.7,389.1c0.7,0.1,1.3,0.2,2,0.3c0.9,0.2,1.8,1.1,2.5,0c0.6-1-0.4-1.7-0.9-2.5c-0.6-0.9-1.3-1.8-1.7-2.7
		c-0.6-1.1-0.3-2.1,0.9-2.7c0.6-0.2,1.2-0.3,1.8,0c2.5,2.9,4.3,6.2,6.1,9.6c0.9,1.6,1.3,3.1,0.2,4.5c-1.3,1.7-2.7,0.9-4.1,0
		c-0.4-0.2-1.1,0.1-1.6,0.1c-1.5-1.3-2.2-3.3-4.1-4.3C359.4,390.7,359.1,389.9,358.7,389.1z"/>
	<path class="st61" d="M330.4,349.7c1.5,0.5,1.8,1.8,1.9,3.1C331.3,352,330.7,351,330.4,349.7z"/>
	<path class="st54" d="M341.3,362.2c-0.5,0-1.1,0-1.6,0c-0.5-0.6-1-1.1-1.5-1.7C339.4,360.8,340.4,361.3,341.3,362.2z"/>
	<path class="st62" d="M52.4,53.6c-0.5-0.5-0.9-1.1-1.5-1.4c-7.1-4-13-9.8-20.3-13.5c-0.9-0.4-1.8-0.7-2.7-1.1
		c-0.5-0.4-1-1.2-1.6-1.3c-4.1-0.6-5.5-4.3-7.8-6.9c-0.7-0.8-0.7-1.8-0.8-2.7c-0.7-5.5,1.8-9.5,6.1-12.4c2.6-1.8,5.4-1.8,8.7-0.6
		c4.6,1.7,8.1,4.8,11.4,8.1c1.9,1.9,4,3.4,6.5,4.3c0.4,0.4,0.6,1,1.1,1.2c8.6,5.4,16.1,12.2,24.4,17.9c2.5,1.7,5,3.4,7.5,5.2
		c4.2,3.1,7.8,6.6,10.9,10.7c1.3,1.7,3.6,2.2,4.7,4c4.4,3.9,9.6,7,13.3,11.7c0.8,2.2,0.3,4.7,2.3,6.8c1.6,1.8-1.2,6.1-4.3,7.5
		c-2.7,1.2-4.6,0.2-5.6-3.2c-0.4-1.3-1.3-2.1-2.3-2.7c-2.1-1.4-4-2.8-3.5-5.8c0.1-0.7-0.3-1.8-0.8-1.7c-3.8,0.4-5.8-3.9-9.8-3.5
		c-3.4,0.3-5-2.8-3.3-5.7c-1.5,2.4-1.4,3.3,1.3,5.2c1.5,1.1,2.4,2.2,1.8,3.9c-0.6,1.7-2.1,1.5-3.5,1.2c-6.5-1.9-11.1-6.3-14.8-11.7
		C64.2,62.2,58.8,57.2,52.4,53.6z"/>
	<path class="st63" d="M111.5,77.1c-3.2-3.2-6.5-6.4-10.1-9c-1-0.7-1.8-1.7-2.4-2.8c5.8,2.9,10.2,7.5,14.8,11.9
		c1.6,1.5,3.3,3,4.9,4.4c5,4.5,10.2,8.9,14.6,14c2.7,3.1,6,5.7,9,8.5c3.3,3.3,6.5,6.6,9.8,9.9c0.9,1.4,2.3,2.4,2.8,4.1
		c-1.1,2.6-2.5,2.3-4.1,0.4c-2.4-3.1-4.6-6.3-9.4-5.5c-1.9,0.3-2.7-1.4-2.6-3c0.1-3.6-1.9-6.1-4.2-8.3c-5.6-5.5-11.1-11.3-17.2-16.3
		C114.7,83,112.3,80.7,111.5,77.1z"/>
	<path class="st64" d="M151.6,117.2c1,0.9,2,1.4,3.3,0.8c2.1,0.9,3.7,2.3,5.2,4.1c3.6,4.4,7.8,8.2,12.1,12
		c5.4,4.9,10.6,10,15.7,15.4c4.2,4.5,8.2,9,12.2,13.7c3.1,3.7,6.3,7.4,10.4,10.1c1.1,0.7,1.7,1.8,2.4,2.8c1.4,2.1,2.4,4.4,4.7,5.7
		c0.4,0.9,0.6,2,1.3,2.6c6.1,5,10.2,12,16.7,16.6c0.3,0.2,0.7,0.6,0.8,0.9c1,3.7,4.2,6.1,5.7,9.6c-1.2,1.7-2.6,3.2-4.3,4.4
		c-0.3,0-0.5-0.1-0.8-0.1c-2.3-0.1-3-2.7-5-3.3c-0.6-0.6-1.1-1.1-1.7-1.7c1.2-5-3.7-6.1-5.8-8.9c-0.4-0.5-1.2-0.6-1.7-1.1l0,0
		c-0.7-0.7-0.7-1.9-1.7-2.5c-0.6-0.6-1.1-1.1-1.7-1.7c-4,0.3-6.5-2.1-8.5-5.1c-0.5-0.8-1.3-1-2-1.4c-0.3-0.2-0.6-0.5-0.9-0.8
		c-0.6-0.6-1.1-1.1-1.6-1.8c-0.2-0.3-0.5-0.7-0.7-1c-1-1.8-2.6-3.3-2.6-5.5c0-0.9-0.5-0.9-1.1-1.2c-2.9-1.3-3.9-3.5-2.3-6.2
		c0.1-0.3,0-0.3,0-0.3c-0.2,2-1,3.2-3.4,2.6c-1.8-0.4-3.6-0.7-4.4-2.6c-0.6-1.4-0.7-3-1.9-4.1c-0.3-0.3-0.5-0.6-0.7-0.9
		c-0.6-2.9-2.7-4.7-4.8-6.5c-1.4-1.2-2.7-2.3-3.5-4c-1-1.3-2.4-1.7-3.9-1.8c-2.5-0.5-4.5-1.6-5.3-4.2c-0.8-2.8-0.9-6.2-5.4-5.8
		c-0.9,0.1-1.6-1.2-1.7-2.2c-0.7-4.9-4.6-7.1-7.9-9.8c-3.2-2.6-6.2-5.2-6.5-9.7c-0.2-2.3-3.7-3.4-2.1-6.3
		C149,116.9,150.2,116.8,151.6,117.2z"/>
	<path class="st63" d="M380.9,392.2c1,0.3,2.1,0.7,3.1,1c1.2,1.5,2.4,3,4.2,3.9c2.4,1.3,2.4,4.2,4.1,6c1.1,2.8,3,5,4.7,7.3
		c4.3,5.8,7.4,12.2,11,18.4c1,1.7,2.3,3.1,3.5,4.6c2.4,2.9,4,6.2,5.2,9.8c0.3,3.4,3.2,5.2,5,7.6c0.3,1.5,0.6,2.9-1.2,3.7
		c1.9,0.9,1.5,2.7,1.6,4.3c0,0.4,0.1,0.9-0.1,1.2c-1.9,3.4-0.4,6.9-0.3,10.4c-0.3,0.3-0.6,0.5-1,0.6c-1.6,0.4-2.7-0.6-3.3-1.6
		c-1.4-2.3-2.7-4.4-6-3.8c-1.1,0.2-1.6-0.9-2.1-1.7c-1.5-2.6-3.5-4.7-5.2-7.2c0.2-3.2-0.1-5.8-4.1-6.9c-2.3-0.7-2.4-4.6-5-5.7
		c-0.5-0.7-0.9-1.5-1-2.4c-1.9-2.8-3.5-5.9-5.9-8.4c-0.3-0.3-0.5-0.6-0.8-0.9c-0.1-0.1-0.2-0.3-0.2-0.3c3.4-5.7-1.7-9.2-3.4-13.6
		c-0.2-1.8,0.1-3.7-1.3-5.2c-3.1-2.3-5.3-5-6.6-8.7c-0.9-2.7-3.2-4.8-4.6-7.4c-0.5-2.5,0.4-5,0.4-7.5c0.4-1.4,1.1-2.6,2.3-3.6
		c3.1-1.1,5-0.3,5.5,3.2C379.5,390.4,379.8,391.5,380.9,392.2z"/>
	<path class="st65" d="M384.8,418.2c0.7,1.3,1.5,2.6,3,3.3c1.8,0.7,2.6,2.3,3.5,3.9c2,3.9,2,4.2-2.1,5.2c-1.1,0.3-1.7,0.8-1.9,1.8
		c-0.1-0.2-0.4-0.5-0.4-0.7c-0.1-3.8-2.2-6.6-4.7-9.2c0.4-1.1-0.2-2.1-0.7-2.7c-1.6-1.7-1.3-3,0.5-3.9
		C384.3,414.8,384.2,417.1,384.8,418.2z"/>
	<path class="st66" d="M395,444c1.9,0.1,2.9,1.4,3.7,2.9c0.3,0.6,0.8,1.3,1.6,1.2c1.2-0.1,0.9-1.2,1-1.9c0.1-0.4,0.3-0.7,0.6-1.4
		c2.1,1.4,3.3,3.4,4.5,5.2c0.6,0.8,1.6,2.4,1.4,3.3c-0.2,1.3-2.4,1.7-2.9,3.3c-2.1,0.5-1.8-2.3-3.4-2.5c-0.2,0-0.4-0.1-0.6-0.1
		C399.2,450.6,397.4,447.1,395,444z"/>
	<path class="st67" d="M384.8,418.2c-0.6-0.4-1.2-1.4-2-0.9c-0.9,0.6-0.3,1.4,0.1,2.1c0.7,1.2,0.6,2.3-0.6,3.1
		c-1.1-1.1-2.2-2.2-3.3-3.4c-0.7-1.1-0.6-2.6-1.8-3.4v0.1c-0.4-1.4-1.6-2.3-2.5-3.4l0,0c-0.7-1.4-1.2-2.9-2.3-4.1
		c-0.4-0.9-0.8-1.9-1.1-2.8c-0.4-1.7,0-3.1,2-3.2c1.7,0,2.4,1.2,2.7,2.8c0.4,2.9,2.6,4.6,4.3,6.6c1.1,1.3,2.4,1.1,3.7,0.5
		c1.1,0.1,2.2,0.1,3.3,1.2C385.6,414.6,384.5,416.1,384.8,418.2z"/>
	<path class="st68" d="M363.9,397.3c0.1-0.3,0.1-0.7,0.2-1c3.8-1.1,4.7,2.5,6.7,4.2c0.6,1.5,0.6,2.9-1.3,3.5c-0.2,0-0.5,0.1-0.7,0.1
		C367.6,401.5,365.4,399.6,363.9,397.3z"/>
	<path class="st56" d="M388.1,433.3c3.3,1.8,4.8,5,5.9,8.4C391.4,439.3,389.3,436.6,388.1,433.3z"/>
	<path class="st68" d="M372.2,405.7c0.4,0.8,0.7,1.6,1.1,2.4c0.3,0.9,0.8,1.7-0.2,2.5c-1.5-2.1-2.3-4.8-4.3-6.5
		c0.1-0.1,0.3-0.2,0.4-0.3C371.4,402.5,371.6,404.5,372.2,405.7z"/>
	<path class="st69" d="M373.2,410.6c0.1-0.8,0.1-1.7,0.2-2.5c1.2,1.2,1.4,2.7,1.4,4.3C374.2,411.8,373.7,411.2,373.2,410.6z"/>
	<path class="st69" d="M374.7,412.4c1.5,0.7,2.4,1.7,2.5,3.4C376,414.9,375.1,413.8,374.7,412.4z"/>
	<path class="st69" d="M377.2,415.7c1.2,0.8,1.7,2,1.8,3.4C377.8,418.3,377.3,417.1,377.2,415.7z"/>
	<path class="st70" d="M492.7,587c-0.3,0.6-0.6,1.1-0.9,1.7c-1.4,1.5-2.4,0.5-3.5-0.5c-1.4-1.3-3.1-1.8-5-1.5
		c-0.4,0-0.8-0.2-1.1-0.4c-2.6-3.2-4.5-6.9-7.8-9.5c-1-0.8-1-2.2-1.3-3.4c-0.7-3.6-1.6-7.3-4.3-10.1c-0.2-0.3-0.3-0.7-0.4-1.1
		c-3.5-4.8-4.2-10.8-6.4-16.2c-0.4-0.9-0.6-2,0.3-2.7c1.7-1.3,1.1-3.2,1.5-4.9c0.7-1.1,0.7-2.8,2.4-3.1c0.5,0,0.9,0.2,1.3,0.6
		c1.9,2.6,2.3,6.1,4.9,8.4c0.8,0.7,1.5,1.5,2.7,1.7c0.8,1.2,1.3,2.6,2.5,3.4c0.3,0.9,0.9,1.8,1,2.7c0.2,3.6,2.1,6.2,4.9,8.3
		c-2,4.5-1.8,5,2.7,6.5l0,0c0.4,2.3,1.3,4.4,1.5,6.8c0.3,0.8,0.7,1.5,1,2.3C490.8,579.3,492.2,583,492.7,587z"/>
	<path class="st71" d="M492.7,587c-1.9-3.5-3.3-7.2-4.1-11.1c1.6,1.5,3.1,3.1,3.2,5.6c0,1.2,0.9,2,1.7,2.8c3.3,3,4.4,6.9,5.2,11.1
		c-1.5-1-2.2-2.5-2.8-4.1C495.3,589.6,494.3,588.1,492.7,587z"/>
	<path class="st50" d="M519.5,639.7c-0.9-0.8-1.6-2-2.7-2.5c-2.5-1.2-1.7-2.7-0.6-4.3C517.8,634.9,519.5,636.9,519.5,639.7z"/>
	<path class="st35" d="M487.6,573.7c-1.1-2.1-1.5-4.4-1.5-6.8C487.3,569,488.4,571.1,487.6,573.7z"/>
	<path class="st63" d="M149.1,118.9c2.3,2.1,4.3,4.2,4,7.7c-0.1,1.3,1,2.6,2,3.5c2.6,2.2,5.3,4.4,8.2,6.2c1.8,1.1,2.9,2.2,3,4.4
		c0.1,2.7,0.3,2.7,2.9,2.1c2.4-0.6,3.3,0,3.6,2.5c0.2,2.1,0.3,4.1,0.4,6.2c-1.2,1.6-0.7,2.7,0.8,3.7c2,1.3,2.9-0.7,4.3-1.3
		c1.4,0.8,2.7,1.7,4.1,2.5c-0.7,1.6-1.9,3.3,0.7,4.5c0.5,0.2,0-0.2,0.2,0.3c2.2,5.7,6,10.4,9.5,15.3c0.9,1.3,1,3.3-0.3,4.4
		c-1.6,1.3-2.4-0.6-3.6-1.4c-3.5-2.5-6.1-5.8-9.1-8.8c-1.1-0.4-2.1-0.9-2.8-1.8c-5.9-7.9-14-13.6-20.4-21c-1.4-1.7-3-3.3-4-5.3
		c-0.7-1.4-1.9-2.4-3.1-3.3c-2.2-1.5-4-3.4-5.4-5.6c-1.4-2.2-3.3-3.7-6-4c-2.1-1.7-4.1-3.5-5.4-6c-0.5-1-1.3-1.7-2.2-2.3
		c0-0.3,0-0.6,0-0.9c0-1.5,1.1-2.1,2.1-1.6c2.9,1.6,0.8-1.2,1.5-1.6c0.3-1.2-0.6-2.4,0.1-3.6c1.2-1.7,2.7-2,4-0.3
		c1.6,2.1,3.4,2.6,6.1,2C146.6,115,149.3,115.3,149.1,118.9z"/>
	<path class="st55" d="M179.9,170.8c3.9,2.5,7.1,6.1,10.7,9c0.3-0.4,0.7-0.7,0.6-0.8c-2.4-4.1-3.5-9-7.9-11.8
		c-1.1-0.7-1.3-1.7-1.3-2.9c0-2-0.9-2.9-2.9-1.9c-0.8,0.4-1.6,0.8-2.1-0.2c-0.5-0.9-0.1-1.6,0.6-2.2c1.6-1.3,3-2.9,5.1-3.5
		c0.8,1.4,1.9,2.6,3.2,3.7c2.6,2.1,5.3,4.2,5.1,8c-0.4,0.4,0.2-0.1-0.2,0.3c0.1-0.1,0.2-0.2,0.3-0.3c0.8,0.3,1.7,0.7,1.9,1.5
		c0.5,2.9,2.4,3.7,5,3.6c0.4-0.8-0.3-1.2-0.8-1.6c-0.5-0.4-1.3-0.8-1-1.6c0.4-1,1.3-0.9,2.1-0.8c2.3,0.4,2.6,2.2,2.6,4.1
		c0.1,5.2,0.2,5.2,5.2,4c0.6-0.2,1.4-0.8,1.9-0.1c0.6,0.8,0,1.6-0.6,2.1c-0.6,0.5-1.6,0.6-2,1.8c1.2,1.5,3.3,2.9,2.4,5.4
		c-1.3,0.9-1.7,0-2.5-1c-1.2-1.5-2.4-3-4-3.9c0.1,0,0,0,0.1,0c1.7,1.5,3.4,3,4.5,5c0.8,1.3,1.9,2.2,3.5,2.3c1-0.4,1.9-1.1,3.1-1
		c0.7,0.1,1.6,0.3,1.4,1.1c-0.5,3.7,2.1,4.9,4.7,6.1c0.6,0.3,0.7,0.8,0.7,1.4c-1.9,2.4-1.9,2.4-4.2,3c0.7,2.7,3.3,1.4,5.2,2.5
		c-3.3,2.1-6.6,3.1-10.2,2.8c-2.9-1.4-4.2-4.9-7.5-5.9c-3.8-3.7-6.3-8.2-9-12.6c-1.8-2.8-3.6-5.8-6.8-7.4c-1.4-0.2-1.6-1.7-2.6-2.4
		c-0.6-0.6-1.1-1.1-1.7-1.7C182,173.4,180.6,172.3,179.9,170.8z"/>
	<path class="st64" d="M466.8,536c-0.6,1-0.8,2.2-0.8,3.4c-1.8,1.6-4.1,1.3-6.2,1.7c-1.5,0.3-2.9-0.5-3.1-2.1
		c-0.6-4.3-2.5-7.9-5.6-11c-1.7-1.6-0.9-4.9-3.4-6.4c-1.3-1.5-1.5-3.6-3.1-4.9c-2-3-2.1-6.8-4.6-9.6c-0.2-0.3-0.4-0.7-0.6-1
		c-1.8-2-5-3-5-6.4c-1.9-6.9-6.1-12.7-9.1-19.1c-1.1-1.9-2-3.9-1.6-6.1c0.6-2.6,0.2-4.4-2.9-4.6c-1.5-2.9-1.9-6-1.2-9.3
		c0.3-1.6,1.5-4.2-2.3-3.6c-1.3,0.2-1.5-2.1-0.1-3.2c1.2-1,3.2-1.2,3.6-3.2c1-0.5,1.2,0.5,1.7,1c2.9,2.4,3.8,5.8,5.1,9
		c1.3,2.8,2.5,5.6,5,7.6l0,0c1.8,6.4,5.7,11.9,7.6,18.2c0.9,1.1,2.1,1.7,3.1,2.7c0.7,1.2,0.4,2.1-0.8,2.7c-2.7,1.4-2.8,3.4-1.7,5.5
		c-1.4-3.6-0.9-4.5,3-5.1c1.8,0.3,2,1.9,2.5,3.2c1.4,1.4,2.1,3.3,3.2,4.9c3.2,5,4.3,11.5,10,14.8l0,0c0.2,2.9,2,4.9,3.9,6.8
		c2.6,2.4,2.9,6,4.4,9C468.4,532.7,467,534.3,466.8,536z"/>
	<path class="st72" d="M439.9,486.9c-1.6-3.3-4.4-5.9-5.3-9.6c-0.4-1.4-1.8-1-2.8-1.9c2.4-2.1,1.2-4.7,0.8-7.3
		c1.6,1,1.6,3.3,3.2,4.3c0.2,2.6,1.8,4.7,3.1,6.6c1.7,2.3,2.1,4.3,1.1,6.8C440.4,486.3,440.4,486.7,439.9,486.9z"/>
	<path class="st1" d="M422.5,451.6c-0.6-0.3-1.1-0.6-1.7-1c-1.3-0.8-2.5-1.7-3.5-2.8c-1.4-1.4-1.5-2.8-0.7-4.5
		C418.5,446.1,421.2,448.4,422.5,451.6z"/>
	<path class="st72" d="M432.6,468.3c-0.3-0.1-0.5-0.2-0.8-0.3c-5.3-1.5-5.5-1.9-4.3-7.3c0.5,0.4,1,0.7,1.5,1.1c1,0.9,0,2.8,1.6,3.4
		C431.3,466.2,432.3,467,432.6,468.3z"/>
	<path class="st73" d="M430.7,465.1c-1.1,0.5-2.2,1-2.1-1c0.1-0.8,0.3-1.6,0.5-2.4C430,462.7,430.6,463.8,430.7,465.1z"/>
	<path class="st59" d="M69.7,67.1c2.7,2.3,5.6,4.3,7.9,7c1.9,2.2,4.4,3.1,7.1,3.9c4.1,1,5.6,4.5,7.5,7.7c-0.2,0.4-0.5,0.7-1,0.8
		c-2-0.7-3.6-1.9-4.8-3.8c-1.2-1.9-2.8-3.2-5-4.1c-3.6-1.4-6.4-4.2-9.7-6.3C70.1,71.2,70.1,68.9,69.7,67.1z"/>
	<path class="st59" d="M96.5,90.3c0,0.4-0.1,0.7-0.1,1.1c-2.3-1-3.7-3-5.1-4.9c0.2-0.2,0.3-0.3,0.5-0.5C95.5,85.5,97.2,87,96.5,90.3
		z"/>
	<path class="st74" d="M401.6,454.1c1.5,0.4,2.3,1.5,3.4,2.5c1.7,2.3,4.5,3.7,5.3,6.7c3.9-2.3,5.6-1.8,7.3,2.4
		c0.6,1.6,1.7,2.8,2.6,4.2c2.7,1.1,4.2,3.1,4.1,6.1c0,1.6,2.4,2,2,3.8c-0.9,3.1-2.8,2.5-4.9,1.4c-1.5-2.2-3.1-4.3-4.1-7.5
		c0,0.2-0.4,0.8,0.2,0.6c0,0,0.1,0.1,0.1,0.4c0.2,0.7,0.9,1.5-0.1,2.1c-0.5-0.1-1-0.1-1.5-0.2C411.7,468.7,406.1,461.8,401.6,454.1z
		"/>
	<path class="st75" d="M459.4,515.1c-2.1,1-3.5,0.9-4.7-1.5c-0.8-1.7-2.5-2.9-2.4-5.1c0-0.3-0.1-0.7-0.3-0.8
		c-3.7-2.4-3.1-6.7-4.9-10c-0.3-0.6-0.8-1.1-1.3-1.7c0.3-0.4,0.7-0.5,1.1-0.2c2,0.7,3.9,1.3,3.6,4.2c-0.2,1.4,0.9,2.5,2.1,3.4
		c0.8,1,1.6,1.9,2.4,2.9c0.4,2.5,0.8,4.9,3.3,6.3C459.1,513,459.4,514,459.4,515.1z"/>
	<path class="st66" d="M446.9,495.8c-0.4,0.1-0.7,0.1-1.1,0.2c-1-0.7-1.9-1.5-2.5-2.5c-1.9-1.1,0.4-3-0.9-4.2
		c-0.9-0.8-1.7-1.6-2.6-2.3c0-0.3,0.1-0.7,0.1-1c1.1,0.6,2.1,1.3,3.2,1.9C446.3,489.6,447.9,492.2,446.9,495.8z"/>
	<path class="st76" d="M96.5,90.3c-0.9-2.2-3.1-3.1-4.8-4.3c-2.6-2.5-5-5.1-7-8c1.6-1,1.3-2.2,0.3-3.5c-0.9-1.1-2.1-1.8-3.3-2.6
		c-1.1-0.7-1.3-1.7-1.1-2.9c0.2-1.2,0.8-2,2.2-2c1.8,0.1,3.1-0.9,4.5-1.9c0.5-0.3,1-0.6,1.5-0.2c0.6,0.6,0.3,1.3-0.1,1.8
		c-0.8,1-1.7,1.8-2.4,2.9c-0.8,1.2-0.2,2.1,1.3,2.1c0.7,0,1.4-0.1,2.1-0.1c0.8,0,1.7,0,2.5-0.1c2.1-0.3,2.6,1,3.5,2.6
		c0.6,1.2,2.8-1.7,4.3,0.2c1.3,1.6,2.2,3,1.6,5.3c-0.8,3.1-0.5,3.4,2.4,3.7s3.6,1.2,3.4,4.2c-0.1,1.7,0.6,2.3,2.1,1.5
		c0.8-0.5,1.6-1.2,2.2-1.9c1-1.2,1.3-2.7-0.5-3.4c-2.1-0.9-2.1-1.9-0.8-3.4c0.7-0.9,0.9-2,1-3.1c2.2,2.5,4.7,4.6,7.6,6.5
		c2.9,1.9,5.2,4.6,7.6,7c4.6,4.7,9.6,9.2,13.9,14.3c1.5,1.8,0.3,3.4,0.6,5c1.1,0.9,1.6-0.1,2.2-0.5s1.5-0.7,1.9-0.1
		c2.1,2.7,5.9,3.9,6.3,7.9c-0.7,0.8-1.5,1.4-2.5,1.7c-0.4-0.2-0.7-0.4-1.1-0.5c-3.2-1.2-3.2-1.2-5,2.2c-3.5-1.1-5.1-4.2-7.2-6.7
		c-2.5,1.3-1.4,2.7-0.1,4.1c1,1.6,2.1,3.2,3.1,4.9c0.4,0.7,0.5,1.6-0.2,2.3c-1,0.9-1.8,0.3-2.5-0.4s-1.4-1.4-1.9-2.2
		c-0.9-1.2-2-1.9-3.5-2c-1.4-0.1-2.8-0.4-3.7-1.6c-2.5-3.3-6.2-4.9-9.6-6.9c-0.3-0.2-0.5-0.5-0.8-0.7c-0.5-1.2-0.9-2.5-2.6-2.6
		c-3.5-3.4-7.1-6.6-9.5-11.1C102.9,94.6,99.5,92.5,96.5,90.3z"/>
	<path class="st29" d="M114,108.8c2.3-0.6,2.4,1,2.6,2.6C115.7,110.5,114.8,109.7,114,108.8z"/>
	<path class="st12" d="M184.1,176.7c1.1,0.5,1.9,1.4,2.6,2.4c0,0.3,0,0.6-0.1,0.9C185.2,179.3,184.6,178.1,184.1,176.7z"/>
	<path class="st77" d="M369.7,400.7c-2-1.4-3.4-3.4-5.6-4.5c-0.1-0.2-0.2-0.4-0.3-0.6c0.2-1.3,0.1-3.2,2.3-1.7
		c0.7,0.4,1.4,1.1,2.2,0.2c0.6-0.8,0-1.6-0.4-2.3c-1.9-3.2-3.7-6.5-5.6-9.7c0-0.7,0.1-1.4-0.3-2.2c-1.7-3.6-1.5-7,1.6-9.9
		c0.3-0.2,0.7-0.3,1.1-0.4c0.7-0.2,1.3-0.5,2-0.7c0.2,0,0.3-0.1,0.5-0.1c0.3,0,0.6,0,0.8,0c1.8,3.2,4.2,5.7,7.3,7.8
		c0.1,0.5,0.1,1,0.2,1.4c-1.3,1.4-2.3,3-3.6,4.4c-2.6,2.8-2.2,5.5,1.2,8.2c0.8,0,1.7-0.5,2.2,0.4c0.4,0.7-0.3,1.3-0.8,1.7
		c-1.3,0.9-2.1,2.1-2.2,3.7c-0.8,0.9-0.2,1.7-0.1,2.6C372.6,401.1,371.7,401.8,369.7,400.7z"/>
	<path class="st78" d="M373.1,390.6c-0.4,0.6-0.7,1.2-1.2,1.7c-0.7,0.7-1.6,0.7-2-0.3c-0.6-2.2-1.7-4.1-3.2-5.8
		c-0.7-0.8-0.9-1.9,0-2.6c2.2-1.9,4.5-3.7,6.8-5.4c0.6-0.4,1.3-0.2,2,0c1.3,1.7,2.2,3.6,2.7,5.7c1.8,3.8-2.4,2.9-3.5,4.4
		C374.3,388.9,373.7,389.8,373.1,390.6z"/>
	<path class="st77" d="M374.8,388.1c1.2-1.5,2.9-2.4,3.5-4.4c1.8,0.9,2.6,2.3,2.4,4.4c-0.1,1.4,0.1,2.7,0.2,4.1
		c-1.5-0.3-2.3-1.2-2.8-2.6C377.5,388,376.2,387.9,374.8,388.1z"/>
	<path class="st71" d="M466.8,536c-0.6-1.9,0.1-3.6,0.9-5.2c0.3,0.3,0.5,0.7,0.8,1c0.1,1.5-0.5,2.8-0.9,4.2
		C467.3,536.1,467,536,466.8,536z"/>
	<path class="st79" d="M463.3,521.8c-2.5,0.2-4-0.8-4.2-3.2c-0.1-1.2,0.2-2.4,0.3-3.6c1,1.2,2,2.4,3.1,3.6
		C462.7,519.7,463,520.8,463.3,521.8z"/>
	<path class="st63" d="M365.5,371.4c-3.1,1.8-3.3,2.3-2.4,5.5c0.3,1,0.7,2.1,1.1,3.1c0.8,2,0.8,2-1.8,2.2c-0.3-0.2-0.6-0.5-1-0.7
		c-2.9-2.5-2.1-6.1-3.1-9.2c0.5-0.2,0.9-0.5,1.3-0.5c1.9-0.1,2.4-1,1.7-2.7c-0.5-1.1-0.9-2.3-1.4-3.4c0.3,0,0.5,0,0.8,0
		C363.1,366.8,366.4,367.3,365.5,371.4z"/>
	<path class="st51" d="M365.5,371.4c-1.1-2.4-2.8-4.3-4.9-5.9c3.2-0.8,4.7,1.8,6.7,3.3l0,0c-0.8,0.6-1,1.7-1.6,2.4L365.5,371.4z"/>
	<path class="st71" d="M449.1,520.2c1.1,0.6,2.3,1.1,3.3,1.7c0.5,0.3,1.3,1.2,0.5,1.6c-1.7,0.9-1.4,1.9-0.6,3c0.7,1,0.8,2.8,2.9,2.3
		c1.5-0.4,1.6,0.9,1.5,1.8c-0.3,2.6,0.5,4.9,1.8,7.1c0.4,0.6,1.1,1.2,1.6,0.4c1.8-3.1,3.4-0.8,5,0.1c0.3,0.2,0.5,0.6,0.8,1
		c0.5,0.8,1,1.7,1.4,2.5c0.6,1.5,0.3,2.5-1.5,3.2c-2.5,0.9-2.7,1.4-1.1,3.4c1.5,2,2.2,4.1,2.4,6.5c0.2,1.8,0.5,3.6,2.5,4.5
		c1.1,0.5,0.9,1.6,0.4,2.5c-0.2,0.3-0.2,0.6,0.1,0.8c1.9,0.9,3,2.3,3.6,4.3c0.7,2.6,3,4.6,2.3,7.7c-0.2,1,1.3,1.7,2.1,2.4
		c2.6,2.2,4.4,4.9,5.4,8.2c0.6-0.2,1.3-0.4,1.9-0.7c1.8-0.9,3.2-0.4,4.1,1.3c0.6,1.1,1.3,2.1,2.3,2.8c1.7,2.1,0.6,3.5-1.2,4.5
		c-0.9,0.6-2,0.9-2.1,2.1c-1.2,0.6-1.3,1.4-1,2.7s0.2,3-1.3,3.5s-1.9-1.2-2.6-2.1c-0.2-0.3-0.6-0.5-1-0.7
		c-3.2-5.8-6.3-11.6-8.5-17.8c-0.2-0.5-0.4-1-0.8-1.4c-2.6-2.7-4.3-6-5.7-9.5c-1.4-3.6-3.5-6.8-5.6-10c-0.6-3.7-2.9-6.5-4.8-9.5
		c-1.4-2.2-2.8-4.5-3.7-6.9c-0.6-1.4-0.3-3.1-1.8-4.1l0,0c-0.4-0.8-0.8-1.7-0.2-2.3c2.7-2.3-1.5,0-0.7-1c-2.1-1.3-1.6-4.2-3.3-5.7
		c-3-2.2-3.1-6.4-5.6-9c-0.3-0.6-0.4-1.3-0.1-1.9c0.9-1.3,2.1-1.4,3.5-0.9C446.6,519,446.9,522,449.1,520.2z"/>
	<path class="st58" d="M422.5,479.3c1.1,0.4,2.1,1.5,3.4,0.8c0.3-0.6,0.5-0.6,0.8,0c2.3,4.2,4.6,8.4,6.9,12.5
		c1.2,2.1,2.3,4.4,3.1,6.7c0.1,3,2.7,4.5,4.2,6.7l0,0c1.3,2.7,0.5,3.9-2.5,3.8c-0.8,0-1.6,0.2-2.5,0.3c-2.1-2.2-3.9-4.6-4.4-7.8
		c-0.1-0.8-0.5-1.6-1-2.2c-2.3-2.5-3.6-5.5-4.8-8.6c-0.5-1.3-1.2-2.5-2.2-3.4c-0.8-2-0.2-4.3-1.8-6.1
		C420.7,481.1,421.6,480,422.5,479.3z"/>
	<path class="st77" d="M435.9,510c0-0.7,0-1.4,0.1-2c0.3-1.6,1-2.6,2.7-1.2c1.3,1.1,1.9,0.4,2.2-0.9c2.8,2.8,4,6.4,5,10.1
		c-1.3,1.1-2-0.2-3.7-1.3c4.1,3.4,4.1,3.4,2.7,5.5c-0.8-0.3-1.5-0.3-2.3-0.1c-1.9,0.2-1.6-1.7-2.5-2.5
		C438.5,515.2,436.8,512.8,435.9,510z"/>
	<path class="st80" d="M422.5,479.3c0.2,1.5,1.4,2.4,2.2,3.5c2,2.8,1.9,3.5-1.3,5.3c-1.5-0.5-2.3-1.6-2.7-3
		c-0.7-2.9-1.3-5.9-3.3-8.3c-0.8-2.4-3.1-4.2-2.9-7.8c2.3,2,3.2,4.1,4.2,6.2C419.5,477,420.3,478.7,422.5,479.3z"/>
	<path class="st12" d="M450.8,536.1c0.5-1.5,1.1-3.1,1.6-4.6c3.5,2.4,3.6,3.4,0.8,5.7c-0.8,0.7-1.3,1.3-1.6,2.3
		C450.2,538.7,450.6,537.4,450.8,536.1z"/>
	<path class="st77" d="M442.7,521.8c2,2.6,3.1,5.8,4.8,8.6c-3.4-1.5-3.4-5.1-5-7.7C442.1,522.3,442.2,522,442.7,521.8z"/>
	<path class="st60" d="M442.7,521.8c-0.1,0.3-0.1,0.6-0.2,0.9c-1.6-1.3-2.7-2.9-2.5-5.1c1.1,0.6,1.8,1.5,2.5,2.5
		C442.6,520.7,442.7,521.2,442.7,521.8z"/>
	<path class="st12" d="M451.6,539.5c1.6,1,1.8,2.5,1.8,4.1C452.4,542.4,452.1,540.9,451.6,539.5z"/>
	<path class="st79" d="M482.6,598.8c0.9,0.4,1.7,0.8,2.7,1.3c1.2-1.5-1.1-5.5,3.2-4.7c1.1,4.6,4.5,8.1,6,12.6
		c0.7,1.9,1.6,3.8,2.4,5.7c-2.3,0.1-3.1-2-5.3-3.5c0.8,1.9,1.4,3,1.7,4.3c0.3,1.6-0.7,1.5-1.8,1.1
		C488.2,610.1,486.1,604.1,482.6,598.8z"/>
	<path class="st81" d="M529.4,675.1c0.3,0.1,0.7,0.2,1,0.4c1.1,0.8,1.5,2,1.6,3.3c0.1,0.8,0.2,1.8-0.8,2.1c-0.9,0.3-1.7-0.1-2.1-0.9
		c-0.6-1.1-0.8-2.4-0.8-3.6C528.4,675.8,528.7,675.4,529.4,675.1z"/>
	<path class="st0" d="M544.5,723.3c-0.3-1.1-0.1-2.2,0-3.3c1.5,0.5,2.8,1.2,4,2.2c1.3,1.1,1.9,2.4,0.3,4.1
		C547,725.9,547,722.5,544.5,723.3z"/>
	<path class="st0" d="M547.7,731.8c0-0.3,0.1-0.6,0.1-0.9c0.6-0.6,0.9-1.6,1.9-1.3c1.1,0.3,1.9,1.2,2.2,2.3c0.2,0.8-0.4,1.4-1.1,1.3
		c-0.9-0.1-1.8-0.5-2.8-0.7C547.7,732.4,547.6,732.2,547.7,731.8z"/>
	<path class="st45" d="M542,719.1c-2.3-0.5-1.6-3.3-3.4-4.2c1-1,1.9-0.8,2.5,0.4C541.8,716.5,541.9,717.8,542,719.1z"/>
	<path class="st82" d="M547.7,731.8c0.1,0.2,0.1,0.4,0.3,0.7c0,0.6,0,1.3,0.5,1.7c0,0.2,0.1,0.4,0.1,0.7c-1.2,0.6-2.5,0.9-3-0.8
		C545.2,732.5,546.2,731.9,547.7,731.8z"/>
	<path class="st0" d="M544.6,729.8c-2.8-2.4-2.8-2.4-0.1-5.8C544.5,726,544.5,727.9,544.6,729.8z"/>
	<path class="st0" d="M556.2,741c-0.8-0.4-1.6-0.4-2.4-0.2c0-0.3,0-0.6,0.1-0.8c0.2-0.7-0.1-1.9,1.1-1.8c0.7,0,0.8,1,1,1.6
		C556,740.2,556.1,740.6,556.2,741z"/>
	<path class="st44" d="M498.6,618c-0.8-1.3-0.9-2.7-0.9-4.1C498.5,615.1,498.6,616.5,498.6,618z"/>
	<path class="st55" d="M222.7,200.8c1.8,0.2,3.4,1,5,1.9c3.6,2.1,4.3,4.2,2.5,8.2c-0.6-1.1-1.1-2.2-1.7-3.3l0,0
		C225.4,206.3,224.2,203.4,222.7,200.8z"/>
	<path class="st13" d="M238.6,222.7c0.3,0,0.6-0.1,0.8-0.1c1.2,2.3,3.6,3.4,5,5.4c0.5,0.7,1.1,1.4,0.5,2.2c-0.8,1-1.8,0.5-2.6-0.1
		c-1.1-0.9-1.9-2-3.1-2.7C236.9,226,237.1,224.5,238.6,222.7z"/>
	<path class="st69" d="M228.5,207.6c-0.1,1.1,0,2.2-0.2,3.3c-0.3,1.5-1.2,2-2.2,0.7c-0.8-1-3-1.5-2.4-3
		C224.6,206.4,226.8,207.7,228.5,207.6L228.5,207.6z"/>
	<path class="st55" d="M231.9,212.5c1.5-0.1,2.7-1.1,4.1-1.6c1.3,1.6,0.3,3.4,0.9,4.9c-0.8,0.6-1.7,1.1-2.5,1.7l0,0
		C233.5,215.9,232.7,214.2,231.9,212.5z"/>
	<path class="st53" d="M234.4,217.5c0.3,0.3,0.6,0.6,0.9,0.8c1,1,2,2,1,3.5c-0.2,0.4-0.8,0.4-1.1,0
		C234.4,220.6,232.2,219.4,234.4,217.5L234.4,217.5z"/>
	<path class="st13" d="M233.5,228.4c1.3,0.3,2.7,0.1,4,0.9C235.2,230.6,235.2,230.6,233.5,228.4L233.5,228.4z"/>
	<path class="st55" d="M221,198.3c2.6-0.6,1.5,1.4,1.7,2.5C221.9,200.2,221.3,199.3,221,198.3z"/>
	<path class="st46" d="M306.2,301.2c0.1,1.4,0.2,3,1.6,3.6c2.6,1,2.1,3.7,3.2,5.5c0.5,0.8,0,1.6-0.7,2.2c-0.8,0.7-1.7,0.9-2.7,0.3
		c-3-1.8-4.7-4.5-5.9-7.7c-0.3-0.7,0.2-1.3,0.6-1.9C303.3,301.8,304.6,301.1,306.2,301.2L306.2,301.2z"/>
	<path class="st83" d="M319.6,322c-1,0.8-0.8,1.7,0,2.5c1.1,1.2,2.6,2.1,4.2,2.6c-1.3,2.4-3.4,2-4.9,0.7c-1.5-1.2-3.5-2.4-3.7-4.8
		c-0.1-1-0.7-1.8-1.4-2.5c-0.6-0.6-1.1-1.3-0.6-2.2c0.6-1,1.6-1.3,2.5-0.9c1.9,0.7,3.2,2.5,5.2,3.2
		C321.1,320.7,320.1,321.5,319.6,322z"/>
	<path class="st52" d="M281.1,273.7c0,0.5-0.2,0.8-0.7,0.9c-0.6,0.1-1-0.3-1.1-0.9c-0.1-0.4,0.2-0.8,0.6-0.9
		C280.6,272.7,281,273.1,281.1,273.7z"/>
	<path class="st51" d="M352.5,375.5c0.2,0.1,0.5,0.2,0.6,0.4c0.2,0.3,0,0.5-0.3,0.5c-0.2,0-0.5-0.2-0.6-0.4
		C352.1,375.8,352.2,375.6,352.5,375.5z"/>
	<path class="st84" d="M49.1,34.5c1,1,0.8,2.3,0.9,3.5c0.2,3.3-1.3,4.5-4.5,4c-2.2-0.3-3.9-0.7-4.6-3.3c-0.9-3.1-3.2-3.8-6.2-2.5
		c-3.7,1.6-4,1.6-6.7-1.4c-1.1-1.3-2.2-2.6-4-2.6c-0.4,0-0.8-0.2-1.2-0.4c-2.3-1.6-3.6-9.2-1.8-11.5c1.2-1.5,2.5-2.9,3.9-4.4
		s3.2-1.8,5-0.9c1.4,0.7,2.8,1.5,3.8,2.5c1.4,1.5,2.3,3.5,5,2.6c0.7-0.2,1.3,0.5,1.6,1.2c0.6,1.5,1.6,2.6,3,3.4
		c0.8,0.4,1.1,1.2,1.2,2.1c0,0.1,0,0.3,0,0.4c1,3.1,3,6.1,1,9.5c-0.1,0.2,0.3,0.8,0.6,1c0.6,0.3,1,0,1.4-0.4
		C48.1,36.4,47.7,34.9,49.1,34.5z"/>
	<path class="st50" d="M178.4,154c-0.1,1.4,0.1,3-1.5,3.6c-1.7,0.6-3.6,0.8-5.3,0.2c-1.6-0.6-1.6-2.1-1.3-3.5
		c0.4-1.5,1.5-2.2,2.9-2.7C174.4,153.7,176.6,153.4,178.4,154z"/>
	<path class="st4" d="M209.3,189.1c-0.8,1.3-1.7,1.1-2.8,0.4c-1.1-0.8-1.9-2-2.7-3.1c-1.2-1.7-2.6-3.2-4.6-4c-0.7-1.1-0.5-2,0.8-2.5
		c3.1,1.6,5.6,3.8,7.5,6.7l0,0c0.5,0.6,1.1,1.1,1.6,1.7C209.3,188.6,209.3,188.8,209.3,189.1z"/>
	<path class="st55" d="M209.3,188.3c-0.7-0.4-1.3-1-1.6-1.7C208.4,187,208.9,187.5,209.3,188.3z"/>
	<path class="st69" d="M369.7,400.7c0.6-0.5,0.9-1,0.7-1.8c-0.4-1.7,0.6-2.2,1.9-2.6c1.6,1.5,3.1,3.4,3.7,5.4
		c1.4,4.6,5.2,7.2,8,10.5c-2,3.3-3.5,3.5-5.7,0.8c-1.7-2-2.4-4.6-3.4-6.9c-0.6-1.5-1.5-1.9-2.6-0.4c-1-0.6-2-1.3-3-1.9
		C369.4,402.8,369.5,401.8,369.7,400.7z"/>
	<path class="st85" d="M426.6,480.1c-0.3,0-0.5,0-0.8,0c-1.9-3.4-3.9-6.7-5.8-10.1c0.2,0,0.5,0,0.7,0c1.4-0.9,0.9-2.5,1.5-3.7
		c0.3-0.5,0.5-1.1,1.1-1.1c0.7,0,1,0.5,1,1.1c0.1,2,0.9,3.7,1.8,5.5c0.2,0.3,0.4,1,0.3,1.2C424,475.3,426.2,477.7,426.6,480.1z"/>
	<path class="st12" d="M397.4,426.7c0.8-0.4,1.3,0.1,1.7,0.5c0.8,0.8,1.5,1.6,1,2.8c-0.1,0.2-0.4,0.4-0.7,0.4
		c-1.1-0.1-1.5-1-1.9-1.9C397.3,428.1,397,427.4,397.4,426.7z"/>
	<path class="st46" d="M398.4,423.9c-0.3,0.3-0.7,0.3-1,0c-0.1-0.2-0.1-0.5,0-0.7c0.3-0.3,0.7-0.3,1,0
		C398.5,423.3,398.4,423.6,398.4,423.9z"/>
	<path class="st86" d="M470.2,562.8c-0.5,0.9-0.9,2.3-2.3,1.4c-0.9-0.5-1.1-1.7-0.4-2.5c1-1.2,1.9-0.5,2.7,0.3
		C470.1,562.2,470.1,562.5,470.2,562.8z"/>
	<path class="st87" d="M135.7,118c-1.7-0.8-3.5-1.6-5.2-2.5c-1-0.5-2.1-1.2-1.4-2.5s1.9-2.1,3.4-1.6c1.3,0.4,2.3,1.5,3.3,2.4
		C135.7,115.2,135.7,116.6,135.7,118z"/>
	<path class="st88" d="M200.1,179.9c-0.3,0.8-0.6,1.6-0.8,2.5c-1.5,0-3.1,0-3.7-1.9c-0.2-0.5,0-1.2,0.5-1.5
		C197.6,178.2,198.9,178.7,200.1,179.9z"/>
	<path class="st59" d="M190.9,168.2c0.1,0.9,0.5,2.1-1,2c-1,0-1.9-0.9-1.6-1.9C188.9,166.6,190,167.7,190.9,168.2L190.9,168.2z"/>
	<path class="st75" d="M442.4,489.3c0.9,1.3,0.9,2.7,0.9,4.2c-1.7,1.3-0.7,2.8-0.1,4.1c0.6,1.4,1.2,2.9,0.8,4.4
		c-0.3,1.3-1.1,1.7-2.1,0.7c-2-2-3-4.6-4.2-7.1c-0.5-1.1,0.1-1.8,1-2.5C440.1,492,441.7,491.1,442.4,489.3z"/>
	<path class="st58" d="M444.9,520.2c-0.2-1.5-1.1-2.5-2-3.6c-1-1.1-2.1-2.2-2.4-4.4c2,1.4,3.8,2.6,5.5,3.7c1.1,1.4,2.2,2.8,3.3,4.2
		c-0.2,1.4,1.3,3.4-0.4,3.9c-1.6,0.5-2.7-1.3-3.4-2.8C445.1,521,445,520.6,444.9,520.2z"/>
	<path class="st77" d="M440.9,505.9c-2.4-1.6-4.3-3.5-4.2-6.7C437.8,501.7,440,503.4,440.9,505.9z"/>
	<path class="st51" d="M125.1,105.4c-0.2,1.1-0.8,1.8-2,1.6c-1.6-0.2-3.4-1.7-3.2-2.7c0.3-1.4,1.4-1.6,2.6-1.4
		C123.9,103,125.2,103.6,125.1,105.4z"/>
	<path class="st62" d="M97.4,86.5c-0.8-0.3-2.5,0.8-2.5-0.9c0-1.5,1.7-1.6,2.9-1.5c1,0.1,2,0.6,1.8,1.8
		C99.5,87.4,98.4,86.8,97.4,86.5z"/>
	<path class="st62" d="M93.4,81.5c0,0.6-0.2,1.1-0.9,1.2c-0.8,0-1.2-0.5-1.4-1.3c-0.1-0.6,0.2-1.1,0.9-1.2
		C92.9,80.2,93.3,80.8,93.4,81.5z"/>
	<path class="st34" d="M365.7,371.3c0.1-1.1,0.7-1.9,1.6-2.4C367,369.8,366.5,370.7,365.7,371.3z"/>
	<path class="st60" d="M466.6,558.1c-0.1,0.3-0.2,0.8-0.5,0.9c-0.3,0.1-0.7-0.1-1.1-0.2c-0.1,0-0.3-0.2-0.3-0.3
		c-0.9-3.1-2.2-6.1-3.9-8.8c-0.3-0.5,0-1.4,0.7-1.7c0.6-0.2,1,0.2,1.4,0.6C465.8,551.1,465.5,554.8,466.6,558.1z"/>
	<path class="st88" d="M483.5,585.4c0.2,0.5,0.4,1,0.5,1.5c0.1,1.2-0.4,1.9-1.7,1.2c-0.6-0.3-1.1-0.8-1.6-1.3
		c-0.6-0.7-1.3-1.7-0.6-2.6c0.9-1.2,1.6,0,2.4,0.4C482.8,584.9,483.2,585.1,483.5,585.4L483.5,585.4z"/>
	<path class="st82" d="M430.2,491.9c-0.1,0.4-0.3,0.8-0.7,0.7c-0.6-0.1-0.8-0.6-0.8-1.2c0.1-0.4,0.3-0.8,0.8-0.7
		C430.1,490.8,430.2,491.3,430.2,491.9z"/>
	<path class="st89" d="M489,602.4c-0.1,0.5-0.4,0.7-0.8,0.7c-0.6-0.1-0.9-0.5-0.9-1.1c0-0.5,0.4-0.7,0.8-0.7
		C488.6,601.3,488.9,601.7,489,602.4z"/>
	<path class="st90" d="M308.2,306.8c0.1,0.5-0.2,0.8-0.6,0.8c-0.4,0.1-0.8,0-1-0.5s0.1-0.8,0.6-0.8
		C307.6,306.2,308,306.4,308.2,306.8z"/>
</g>
</svg>
