<svg viewBox="0 0 639.2 886">
<style type="text/css">
	.st0{fill:#171717;}
	.st1{fill:#0A0A0A;}
	.st2{fill:#181818;}
	.st3{fill:#272727;}
	.st4{fill:#0C0C0C;}
	.st5{fill:#454545;}
	.st6{fill:#313131;}
	.st7{fill:#BBBBBB;}
	.st8{fill:#767676;}
	.st9{fill:#9E9E9E;}
	.st10{fill:#5A5A5A;}
	.st11{fill:#C1C1C1;}
	.st12{fill:#353535;}
	.st13{fill:#3F3F3F;}
	.st14{fill:#3B3B3B;}
	.st15{fill:#929292;}
	.st16{fill:#717171;}
	.st17{fill:#222222;}
	.st18{fill:#848484;}
	.st19{fill:#6E6E6E;}
	.st20{fill:#292929;}
	.st21{fill:#686868;}
	.st22{fill:#696969;}
	.st23{fill:#C3C3C3;}
	.st24{fill:#383838;}
	.st25{fill:#626262;}
	.st26{fill:#414141;}
	.st27{fill:#9A9A9A;}
	.st28{fill:#444444;}
	.st29{fill:#3C3C3C;}
	.st30{fill:#A1A1A1;}
	.st31{fill:#2E2E2E;}
	.st32{fill:#393939;}
	.st33{fill:#555555;}
	.st34{fill:#808080;}
	.st35{fill:#2C2C2C;}
	.st36{fill:#212121;}
	.st37{fill:#9F9F9F;}
	.st38{fill:#8A8A8A;}
	.st39{fill:#BDBDBD;}
	.st40{fill:#B2B2B2;}
	.st41{fill:#BABABA;}
	.st42{fill:#C8C8C8;}
	.st43{fill:#464646;}
	.st44{fill:#D8D8D8;}
	.st45{fill:#AFAFAF;}
	.st46{fill:#B5B5B5;}
	.st47{fill:#A8A8A8;}
	.st48{fill:#BFBFBF;}
	.st49{fill:#DFDFDF;}
	.st50{fill:#2A2A2A;}
	.st51{fill:#0F0F0F;}
	.st52{fill:#101010;}
	.st53{fill:#232323;}
	.st54{fill:#333333;}
	.st55{fill:#424242;}
	.st56{fill:#404040;}
	.st57{fill:#4D4D4D;}
	.st58{fill:#3D3D3D;}
	.st59{fill:#434343;}
	.st60{fill:#5D5D5D;}
	.st61{fill:#494949;}
	.st62{fill:#6A6A6A;}
	.st63{fill:#868686;}
	.st64{fill:#7A7A7A;}
	.st65{fill:#5B5B5B;}
	.st66{fill:#4A4A4A;}
	.st67{fill:#525252;}
	.st68{fill:#343434;}
	.st69{fill:#151515;}
	.st70{fill:#707070;}
	.st71{fill:#1D1D1D;}
	.st72{fill:#585858;}
	.st73{fill:#3E3E3E;}
	.st74{fill:#A4A4A4;}
	.st75{fill:#7B7B7B;}
	.st76{fill:#0E0E0E;}
	.st77{fill:#050505;}
	.st78{fill:#2F2F2F;}
	.st79{fill:#484848;}
	.st80{fill:#979797;}
	.st81{fill:#373737;}
	.st82{fill:#575757;}
	.st83{fill:#191919;}
</style>
<g>
	<path class="st0" d="M461.2,554.6c-0.4-0.1-0.7-0.4-0.7-0.8c-1-2.2-1.5-4.7-3.4-6.4c-2.5-3-3.9-6.6-6.2-9.7c-0.4-0.5-0.5-1-0.2-1.6
		c0.3-0.2,0.6-0.5,0.9-0.7c3.1-0.5,5.7,0.8,8.2,2.5c1.1,0.7,2,2.1,3.7,1.2c1.1-1.7,2.3-3.5,0.3-5.1c-1.9-1.5-4-1.1-5.7,0.7
		c-0.5,0.5-0.8,1-1.5,1.2c-1.1-0.1-2.2-0.2-3.3-0.5c-1-0.4-1.7,0-2.4,0.8c-0.9,0.6-1.2-0.3-1.6-0.8l0,0c-0.8-1.8-1.2-3.8-3.2-4.8
		c-0.1-0.5-0.1-0.9-0.2-1.4c-0.3-1.5,0.1-3.2-1.6-4.2c-0.5-1.3-1-2.6-1.6-4c-0.4-2.6,1.3-5.1,3.7-5.4c0.6-0.1,1.2,0.6,1.9,0.1
		s0.6-1.1,0.3-1.8v0.1c0.1,0.4,0.2,0.8,0,1.2c-0.4,0.7-1,0.8-1.7,0.5c-1.1-0.5-1.8,0.2-2.5,0.8c-1.1,0.9-1.9,3.2-3.7,1.8
		c-1.7-1.3-4.6-1.8-4.2-5c0.1-0.8-0.3-1.3-0.8-1.9c-1.7-2.4-3.4-4.6-0.1-7.4c1.4-1.2,1-4.1,2.2-5.9c0.5-1.3-0.4-2-1.3-2.7
		c-5.4-2.9-9.4-7-10.6-13.5c0.6,3,1.7,5.7-1.6,7.8c-1.6,1-2.5,1-3.5-0.7c-0.6-1-1-2.2-1.4-3.2c-1.2-3.1-2.9-5.1-6.1-6.3
		c-1.6-0.6-1.6-2.9-3-4c-0.2-0.3-0.4-0.6-0.5-1c0.8-3.6,1.8-4.2,4.6-2.8c0.8,0.4,1.5,1.2,2.5,0.5c0.7-0.5,0.7-1.4,0.6-2.2
		c-0.2-1.2-0.7-2-2-2.2c-1.4-0.1-3-0.5-3.8,1.3c-0.6,1.2-1.3,2.1-2.8,1.6c-2.6-1.3-2.7-4.5-4.6-6.2c-0.4-0.8-0.4-1.6,0.1-2.3
		c0.3-0.3,0.6-0.5,0.9-0.7c0.6-0.3,1.1-0.7,1.8-0.9c2.6-0.8,3.4-2,1.6-4.5c-1.7-2.4-1.9-5.8-4.4-7c0.2,0.5,1,1.2,1.8,1.9
		c1.7,1.6,2.1,3.1-0.3,4.2c-2,1-0.9,2.8-1.2,4.2c-0.6,3.3-1.7,3.8-4.7,1.9c-0.8-1.2-1.8-2.3-2.9-3.3c-0.9-1.2-2-2.3-2.7-3.6
		c-0.1-0.4-0.2-0.7-0.2-1.1c-1.1-5-2.5-10-1.5-15.2c0.1-0.6-0.7-0.3-1.1-0.4c-2.5-0.8-4.7-1.9-5.1-5.1c-0.7,1.5-1.1,3-3,3
		c-0.9-0.3-2-0.8-2.1-1.6c-0.7-4.9-5.2-6.5-7.9-9.7c-0.2-0.3-0.4-0.6-0.5-1c-0.5-1.4-0.5-2.9,0.9-3.7c1.4-0.7,2.9-1.4,4.5-0.1
		c1.5,1.4,3.1,1.4,4.3-0.2c-0.8,0.6-1.9,2-3.3,0.8c-2.1-1.9-4.1-1.4-6.3-0.1c-1,0.6-2,0.3-2.8-0.7c-0.7-0.6-1.4-1.2-2.1-1.8
		c-1.3-1.5-2.8-3.3-1.4-5.3c2.6-3.8,5.7,0.3,8.8-0.4c-5.2,0.2-5.4-4.8-7.9-7.4c-3-2.9-5.2-6.1-4.3-10.6c0.2-1.1-0.8-2.3-1.9-2.9
		c-2.8-1.6-3.4-4.7-5-7.1c-0.8-1.1,0-2.3,0.6-3c-4.5-2.1-8.2-4.3-10.5-9.1c-2.2-4.6-4.5-9.5-8.2-13.3c-0.8-0.8-1.7-1.3-3-1.3
		c0.4,2.4,0.3,4.8,0.9,7.1c0,0.4,0,0.8,0,1.2c-0.1,0.9-0.6,1.5-1.5,1.7c-1.3-0.2-3-0.6-3.1-2c-0.1-4.4-3.1-5.7-6.5-6.7
		c-0.3-0.2-0.6-0.5-0.8-0.8c-0.6-2.5,0.1-4.7,1.6-6.7c2.8-3.8,1.6-7-3-8c-6.4-1.4-7.3-2.2-5.9-8.4c0.8-3.7-1-5.8-3.2-7.5
		c-3.4-2.6-4.9-6.5-7.5-9.6c-1-1.2-1.6-2.8-3.2-3.5c-3.9-1.6-6-4.6-7.3-8.5c-1.7-4.9-4.1-5.5-8.5-3c-3,1.7-3.9-0.7-5.1-2.7
		c-0.4-2,0.6-3.5,1.5-5.2c1.1-2,1.2-3.7-1.2-5c-1.8-1-3-2.7-2.6-4.9c0.2-1.2-0.6-1.6-1.3-2.2c-1.1-0.8-2.3-0.8-3.5-0.5
		c-3,3-3,3-8.6-0.8c-1-0.8-2-1.5-3.4-1.5c-1.2,0-2.1-0.9-1.9-2.1c0.4-3-1.8-3.8-3.8-4.9c-2.2-1.2-4.2-5.4-3.4-7.1
		c1-2.1,4.3-3.2,7.1-1.9c1.9,0.9,2.7,0.3,3.2-1.3c0.3-0.8,0.6-1.5,1.4-1.8c2.1-0.5,4.2,2.4,6.3,0c0.4-0.1,0.8-0.1,1.2,0
		c2.1,0.6,3.6,2.1,5.1,3.6c3,5.1,6.5,9.8,11.9,12.8c0.3,0.2,0.6,0.5,0.8,0.9c0.3,0.7,0.6,1.4,0.7,2.1c0.3,2.5,0.1,5.2,3.5,5.9
		c0.4,0.3,0.8,0.7,1.1,1.2c0.1,2.2,0.6,4,3.3,4.3c0.9,0.1,1.6,0.9,2.2,1.6c0.3,0.4,0.6,0.9,0.9,1.4c0.4,1.3,0.7,2.7,2.2,3.3
		c0.3,0.2,0.6,0.4,0.9,0.6c1.8,2.5,3.9,4.8,5.7,7.3c1.4,6.9,7.1,9.9,12.3,13.3c0.9,0.6,1.2,1.6,1.8,2.3c2.2,2.5,0.7,6.1,2.7,8.8
		c1.9,2.7,3.7,5.1,6.8,6.1c0.4,0.1,0.7,0.3,1,0.5c2.3,1.2,3.5,2.9,2.9,5.7c-0.6,2.6,0.7,3.9,3.3,3.9c2.1,1.9,3.9,4.1,6.1,5.9
		c2,2.6,3.9,5.1,3.8,8.9c0,2.2,2.3,4.1,3.8,5.7c1.8,2,3.4,4.1,4.6,6.4c0.7,1.3,2.2,1.2,3.1,2.1c1.7,1.1,1.1,3.1,2,4.6
		c1.4,2.2,3.9,2.6,5.6,4.1c0.5,0.6,1.1,1.1,1.4,1.9c0.5,2.2,2.2,3.7,3.6,5.3c0.2,0.3,0.3,0.6,0.4,1c0.2,1.4,0.5,2.8,0.9,4.1
		c1.1,1.9,1.5,4.3,3.8,5.4c0.4,0.1,0.7,0.3,1,0.6c1.2,2.5,2.4,4.9,5.6,5.3c0.7,0.1,1.2,1,1.6,1.7c1.8,3.3,3.7,6.6,3.8,10.5
		c0,0.5-0.3,0.1,0,0.4c3.2,2.1,4,6.1,6.3,8.4c4,4,6.9,8.6,10,13.2c1.2,1.8,1.7,4.3,4.2,5.1c2.4,1.5,3.8,4,5.5,6.1
		c0.5,0.6,1,1.1,1.3,1.7c0.3,0.8,0.7,1.6,1,2.4c0.3,1,1.2,1.7,1.6,2.6c0,0.9-0.1,1.8,0.9,2.3c2.1,1.4,4.5,2.5,3,5.9
		c-0.4,0.8,0.6,1.7,1.5,2c1.3,0.4,2.9,1.2,3.2,2.2c1.2,4.2,4.9,6.7,6.8,10.3c0.2,0.4,0.3,0.7,0.4,1.1c0.8,1.2,1.2,2.5,1.6,4
		c0.4,2,1,4.4,4,4.1c2.6-0.3,2.6,2.8,4.3,3.6c0.7,0.7,0.9,1.8,1.5,2.5c1.8,4.6,5.4,8.2,7.1,12.8c0.7,1.8,3,2.1,4,3.8
		c0.5,1.5,1.7,2.6,2.4,4c0.3,1.4,0.1,2.9,0.3,4.3c0.1,0.9,0.3,2.1,1.3,2.4c5.6,1.7,6.1,5.8,5.1,10.6c-1.6,2.8-0.4,5.7-0.3,8.5
		c0,1.5,0.3,2.9-1,4.1c-2,1.1-4.7,1.5-3.9,4.8c0.1,0.4,0.1,0.8,0.2,1.2c0,1.2,0.4,2.4-0.6,3.4C463.4,557.9,463.2,554.8,461.2,554.6z
		"/>
	<path class="st1" d="M594.2,775.1c1.2,4.3,2.7,8.5,3.4,13c0.1,0.4,0.1,0.9,0.4,1.1c4.4,4.6,3.6,11.1,6.2,16.3
		c-0.6,3.7,2.4,6.3,3.1,9.5c0.9,4.3,1.7,8.6,2.8,12.8c0.5,1.7,0.7,3.4,1.1,5.1c0.7,1-0.3,2.5,0.8,3.4v-0.1c0.3,2.1,0.2,4.1-0.6,6.1
		c-0.7,0.7-1.5,1.4-2.1,2.3c-0.7,0.5-1.3,1.1-2.3,0.9c-2-0.2-2.4-2.2-3.6-3.3c-0.9-1.1-1.4-2.5-1.2-3.7c0.8-5.7-2.7-9.9-4.9-14.5
		c-2.3-4.9-4.4-9.9-6.2-15c-0.6-1.6-1.5-3.1-2.1-4.7c-0.9-3.7-1.4-7.6-2.9-11.1c-1.7-3.4-1.9-7.8-5.9-9.9c-0.2-0.5-0.4-1-0.5-1.6
		c0.3-2.5,0.6-4.9-1.1-7.1c-1.2-1.7-2.4-3.3-2.8-5.3c2.8-3.2,2.6-4-0.4-7.1c-1.9-1.9-5-2.7-5.8-5.8c-0.2-0.3-0.3-0.7-0.4-1.1
		c-0.6-4.2-2.1-8-4.3-11.5c-1.3-2.1-2.3-4-1.5-6.5c0.5-1.5-0.6-2.4-1.4-3.4c-3.3-1.9-5.7-4.5-7-8.1c-1.2-4.1-1.2-8.1,1.5-12.1
		c-3.8-0.1-6.5-1.8-7-5.9c-0.2-2.4,1.1-3.6,3.5-3.8c-1.2-2.9-3.2-3.8-5.7-4.1c-1.6-0.5-3.1,1.8-4.7,0c-0.8-2.3-2.1-4.5-2.6-7
		c-0.4-0.4-0.7-0.9-1-1.4c-0.9-2,2.4-3,1.4-5c-0.5-2.5-0.7-4.8,2.4-5.6c-0.9,0-1.5-0.6-2-1.4c-1.9-2.8-3.6-5.7-5.8-8.3
		c-2.2-2.5-2.3-6.7-2.1-10.3c0.2-3,0.1-4.2-3-2.1c-1.1,0.8-2.4,0.4-3.3-0.5c-2.7-2.4-5.5-4.8-6-8.7c-0.4-2.4-1.9-4.1-3.5-5.7
		c-1.1-1.2-2.3-2.3-2.7-3.9c-0.4-1.8,0.1-3.5,2.3-3.4c3,0.1,4.8-1.4,6.5-3.6c1.8-2.4,4.6-1.7,5.9,1.1c1.4,3,3.6,5.6,3.5,9.2
		c0,1.7,0.8,3.5,3,4.2c1.7,0.6,1.6,2.7,2.7,3.8c0.2,0.3,0.4,0.6,0.5,0.9c0.2,0.6,0.7,1.2,0.8,1.9c0.1,0.3,0.3,0.6,0.5,0.8
		c0.5,0.5,1.1,0.8,1.5,1.3c0.3,0.4,0.4,0.9,0.7,1.3c0.5,0.6,1.1,1.2,1.6,1.7c0.5,2-0.4,4.5,2.4,5.5c1.5,2,1.8,4.5,3.1,6.6
		c2.4,1.5,0.2,3.9,1.2,5.8c1.5,3.1,3.4,6.1,4.9,9.2c0.8,3.4,3.5,5.8,4.5,9c0.5,0.8,1,1.7,1.5,2.5c1.9,6.1,3.9,12.1,7.3,17.5
		c-0.6,2.1-0.2,3.8,1.6,5.2c1,0.8,1.7,2,2.3,3.2c2.5,6.3,5.6,12.3,7.7,18.8c0.5,1.5,1.6,2.4,2.3,3.7c0.9,1.4,0.3,3.6,2.3,4.4l0,0
		c0.4,0.8-0.2,1.9,0.8,2.4l0,0c0.4,1.9,0.7,3.8,2,5.3c1.4,3.2,0.5,6.9,2.4,9.9C591.9,770.7,593.5,772.6,594.2,775.1z"/>
	<path class="st2" d="M537.9,651.9c-1-1.4-1.9-2.8-3.5-3.8c-2.1-1.3-3.2-3.3-3.1-5.7c0.1-3.3-2.2-5.4-3.6-7.9
		c-0.3-0.6-1.1-0.8-1.8-0.6c-0.8,0.2-1,0.9-0.7,1.6c0.5,1.2-0.1,1.6-1.1,2.1c-1.9,0.9-3.5,2.8-6,1.1c-0.8-0.5-1.7,0.9-1.1,1.8
		c0.6,0.9,1.3,1.8,2.1,2.4c2.3,1.7,3.4,3.9,3.8,6.7c0.4,3.4,2.6,5.6,5.5,7.3c0.8-0.9,0.1-1.4-0.1-2c-0.2-0.5-0.3-1.1,0.3-1.4
		c0.3-0.1,0.9-0.1,1.1,0.1c2,1.7,4.5,2.4,6.7,3.6c2.4,1.3,2.6,3.4,0.2,4.3c-1.7,0.7-1.6,1.3-1.3,2.6c0.1,0.3,0.2,0.5,0.2,0.8
		c-0.8,6,4.6,8.6,7,12.8c0.1,0.1,0.2,0.2,0.3,0.3c0.8,0.9,2.5-1,2.9,1.1c0.3,1.4,0.3,4.3-0.3,6.2c-0.2,0-0.6,0-0.7-0.1
		c-0.5-0.6-0.2-2.2-1.6-1.8c-1.4,0.5-1.1,1.9-1.3,3.1c-1.3,0.7-0.8,3.6-3.4,2.7c-0.3-0.6,0-1.4-0.5-1.9c-3.2-2.7-3.8-6.4-4.1-10.2
		c-0.1-1.9-0.8-3.4-2-4.6c-2.5-2.6-5.1-5.2-6.7-8.5c-0.5-0.8-1.2-1.5-1.4-2.4c-2.4-7.3-7.7-13-11-19.7c-3.4-6.9-8.4-13-11.1-20.3
		c-0.5-2.6-4-4.3-2.2-7.6c0-0.1,0.1-0.1,0.1-0.2c-2.9,2.5-2.3-1.4-3.6-2c-4.4-5.9-7.7-12.5-11.4-18.8c-0.8-1.4-1.4-2.9-2.5-4.1
		c-2.5-2.7-3.2-6.4-5.2-9.4c-0.7-1.6-0.8-3.3,1-4c3.1-1.3,3.6,2,4.7,3.1c-1.1-1.6-2.1-4.1-5.6-3.1c-1.6,0.5-1.4-2.3-2.7-3
		c0-0.5-0.1,0.2-0.1-0.3c0-0.2,0-0.5,0.1-0.7c-0.1,0.1-0.1,0.3-0.2,0.4c0,0.4-0.2,0.6-0.5,0.8c-0.3-0.3-0.5-0.7-0.8-1
		c-1-1.2-1.6-2.7-2.2-4.1c-0.2-0.5-0.2-1-0.4-1.5c-0.1-1.8-1.2-3.2-2-4.7c-0.1-3-0.9-5.6-3.4-7.4c0-0.3,0-0.6,0-0.8
		c1.6-2.5,3.3-4.8,6.9-3.5c4.2,0.3,11,5.9,11.9,9.7c0.2,0.7,0.1,1.7-0.4,1.8c-2.6,0.2-5.2,2.7-7.9,0.5c0.1,0.1,0.1,0,0.1,0.1
		c0.8,0.5,1.4,1.1,2.7,0.8c5.6-1.4,10.9,2.1,11.7,8c0.4,2.8,0.5,5.2,3.7,6.3c1.7,0.6,1.3,2.5,1.4,3.9c0.2,1.9,0.8,3.3,2.8,3.4
		c2.4,0.2,2.3,2.1,3,3.6c1.4,3.1,2.3,6.6,6.6,7c1.7,0.8,1.2,3.8,3.7,3.9c0.3,0.3,0.5,0.6,0.6,1c0.5,1.6,0.4,3.2-0.6,4.7
		c-1.3,1.5-2.7,1.8-4,0.2c-1.9-2.3-4.4-2.7-7-1.9c-1.8,0.6-2.7-0.3-3.7-1.6c-0.5,2.4,1.1,2.3,2.4,2.1c6.2-0.9,8.7,0.4,10.6,6.1
		c0.9,2.7,2.2,4.8,4.8,6.1c1.4,0.7,2.4,1.6,2.6,3.3c0.1,1.3,0.9,2.2,2,2.8c1.9,1.1,3.1,2.7,2.2,4.8c-1,2.1-1.7,4.9-5.2,3.9
		c-0.3-0.1-0.5-0.1-0.7,0s-0.4,0.3-0.3,0.1c5.6,1.9,5.1-4.3,8.1-6.5c2.9,0.7,5.5,1.8,6.4,5.1c0.9,1.8,1.5,3.6,1.8,5.6
		c0.8,1.4,2,2.4,2.5,4c-1,4.7,3,7.1,4.8,10.5c0.3,0.5,0.6,1,0.9,1.5C539.1,651.1,539.5,652,537.9,651.9z"/>
	<path class="st3" d="M410.7,474.9c0.8,0.5,1.6,1,2.1,1.8c0.9,1.8,2.3,2.9,4.5,2.8c1.5-0.1,2,0.9,2.4,2.2c0.4,1.7,1,3.3,1.5,5
		c0.2,0.6,0.4,1.5,1.2,1.3c1-0.2,2.1-1.3,1.8-1.8c-2.1-3,0.9-6.6-1.3-9.6c2.2,0.7,3.5,2.8,5.8,3.2c1.1,0.2,0.7,1.9,0.6,2.9
		c-0.3,4.4,3.5,6.3,5.4,9.4c0.4,0.7,1.5,0.4,2.3,0.2c0.9-0.2,1.5,0.3,1.9,1.1c-1.4,1.9-0.8,3.4,0.8,4.8c-0.3,1.7-1.1,3.2-0.2,5
		c0.9,1.8-0.8,2.6-2,3.3c-1.6,0.9-2.2,1.9-0.8,3.5c0.7,0.8,1.2,1.8,1.2,2.9c0,2,1.6,2.6,2.8,3.6c0.4,0.4,1,0.6,1.4,0.1
		c0.6-0.9,1.1-1.8,2.4-1.8c0.9,0,1.8-0.2,3-0.3c0-2.1-1.6-4.2,0.2-6.4c1.9,1.2,3.3,2.6,2.8,5c-0.3,1.4,0.5,2.3,0.9,3.4
		c0.2,0.5,0.3,1.1-0.1,1.5c-0.4,0.5-0.9,0.2-1.5,0c-4.1-1.7-4.6-1.5-6.8,2.9c-1.4-1.2-2.9-2.2-4.8-2.5c-0.6-0.8-1-1.7-1.6-2.4
		c-1.5-5.7-5.8-9.7-9-14.3c1.3-1,1.4-3.5,3.9-2.6c-0.1-1.8-1-2-2-1.9c-1.7,0.2-0.6,1.4-0.6,2.2c-0.1,1-0.6,1.7-1.3,2.4
		c-1.8-2.5-3.7-5.1-5.5-7.6c-0.6-0.9-1.3-1.7-1.4-2.8c-0.2-2.8-2.1-4.4-4.2-5.9c-0.9-1.6,0.2-4.2-2.5-4.8c-1.3-0.3-2.1-1-2.4-2.3
		C411.2,477.1,409.6,476.3,410.7,474.9z"/>
	<path class="st4" d="M522.6,624.5c-0.2,3-2,5.5-2.9,8.3c-0.5,1.4-1.4,1.6-2.7,0.4c-1.8-1.7-1.9-1.6-3,0.5c-0.2,0.5-0.3,1.1-0.6,1.5
		c-0.5,0.7-1.2,0.6-1.6-0.1c-0.6-1.1-0.9-2.3-0.1-3.4c0.5-0.7,0.9-1.3,0.9-2.1c0-1.7,1-2.1,2.4-1.6c1.9,0.6,2.7-0.5,3.4-1.9
		c0.7-1.5,0.3-2.1-1.5-2.3c-3.1-0.2-3.3-0.3-3-3.1c0.2-1.9-0.1-3.1-1.9-3.9c-2.8-1.2-4.2-3.6-5-6.4c-0.4-1.3-0.8-2.5-1.6-3.6
		c-2.6-3.7-5.2-3.5-7.5,0.4c-1.2,0.1-1.9-0.7-2.8-1.3c-1.9-1.1-2.9-2.5-2-5c0.6-1.6,0.4-3.4,0.8-5.1c0.3-1.4,1.5-1.5,2.3-0.4
		c0.6,0.9,1.4,1.8,1.5,2.8c0.3,2.5,1.8,2.1,3.4,1.8c0.7-0.1,1.4-0.1,2-0.4c1.8-0.7,3.1,0,4.1,1.5c0.7,1,1.3,2,2.5,2.6
		c1.5-1,2.8-0.9,4,0.5c2.2,1.1,1.7,3.7,3.1,5.3l0,0c0.8,1.1,2,2,2.4,3.4c-0.5,1.7,1,2.6,1.7,3.7
		C520.6,619.3,524.5,621.3,522.6,624.5z"/>
	<path class="st5" d="M525.1,664c1.2,0.4,1.7,1.6,2.5,2.5c0.7,0.8,1.5,2.1,2.3,2.1c3.5,0,4,3.1,5.6,5c0.9,1,1.1,2.1,0.3,3.3
		c-1.6,2.6-0.8,5.1,0.6,7.5c0.8,1.4,2.1,2.4,2.3,4.2c1,0.7,1,1.9,1.5,2.9c0.3,0.3,0.5,0.6,0.8,0.9c0.3,2,1.3,3.9-0.1,5.8
		c-0.5-1.1-1-2.2-1.5-3.2c-1.3-3.1-1.8-6.5-4-9.4c-1.1-1.5-2-3.4-2.1-5.5c0-1-0.6-2.2-1.2-2.9C528.5,673.3,526.8,668.7,525.1,664z"
		/>
	<path class="st6" d="M405.8,462.8c-0.3,0.5-0.5,1.1-0.8,1.6c-1.6,0.2-2.5-1.5-3.9-1.6c-0.3-0.3-0.6-0.5-0.9-0.8
		c-0.4-0.4-0.4-0.7,0.1-0.9c2.6-0.4,3.2-1.1,2.8-3.5c-0.3-1.9-1.2-3.6,1.6-4.4c1.2-0.4,0.4-1.6,0-2.4c-1.3-2.3-2.5-4.5-3.9-7.1
		c2.1-0.1,2.8,1.1,3.2,2.3c0.8,2.4,2.3,4.1,4.8,4.9c1.1,0.3,2,1,1.3,2.4c-0.7,1.3,0,2.3,0.5,3.4c1.7,3.4,1.3,4.3-2.1,5.8
		C407.7,462.8,406.8,463.1,405.8,462.8c0.3-0.6,0.4-1.2,0.4-1.8c0,0.1,0,0,0,0.1C406.2,461.7,406.1,462.3,405.8,462.8z"/>
	<path class="st7" d="M368.7,417.1c0.5,0.5,1,0.9,1.5,1.4c1.7,1.2,3.1,2.6,3.3,4.8l0,0c3.7,3.1,6.6,6.9,9.1,11
		c1.9,2.4,4.6,4.1,6.1,6.8c0.2,0.3,0.4,0.6,0.6,0.9c0.5,0.7,1.1,1.4,1.8,1.9c0.3,0.2,0.5,0.5,0.7,0.8c0.1,1.1,0.6,2,0.9,3
		c0.1,0.7,0.3,1.4,0.8,1.9c0.7,1.4,0.4,3.1,1.6,4.3c0.9,1,1.7,2,2.6,3c1.2,1.1,2.2,2.3,0.9,4c-0.6-0.2-1.1-0.5-1.7-0.7l0,0
		c-0.5-2-2.5-3-3.2-4.8c-0.5-0.5-1.1-1.1-1.6-1.6c-1.8-2.8-2.9-6.1-6.3-8c-3.8-2.2-3.4-7.2-5.8-10.5c-0.5-1.2-1.1-2.4-2-3.4
		c-2.9-3.6-6.1-7-8.1-11.2c-0.3-0.7-0.9-1.4-1.5-1.8c-2.4-1.6-3.3-4-3.9-6.7c0.1-0.4,0.4-0.6,0.8-0.7
		C367.4,412.9,366.4,416,368.7,417.1z"/>
	<path class="st8" d="M589.5,804c2.3,1.5,3.4,3.7,3.4,6.4c0,1,0.1,1.9,0.6,2.7c3.1,5.2,4.2,11.4,7.7,16.5c1.5,2.3,2.6,4.9,2,7.9
		c-0.3,1.3,0.1,2.9,0.7,4.3c1.4,1.1,1.8,2.6,1.9,4.2c-0.1,0.8-0.4,1.3-1.2,1.5c-1.3-4.3-3.4-8.4-3.5-13c-0.1-2.7-1.3-5.2-2.8-7.4
		c-3.4-5-4.5-11.1-7.6-16.2c-1.2-2-2.1-4.3-2.1-6.8C588.8,803.6,589.1,803.6,589.5,804z"/>
	<path class="st9" d="M573.3,767.8c-1.3-3.2-2.7-6.4-3.9-9.6c-1.1-3-2.7-5.8-4.5-8.4c-0.6-0.9-1.5-1.7-1.7-2.7
		c-1.5-6.3-5.3-11.6-7.7-17.5c0-0.4,0.2-0.7,0.6-0.8c3.6,1.7,5.2,5.1,7.1,8.3c0.3,5.5,4,9.8,5.7,14.8c0.4,1.3,1.1,2.6,1.2,4h0.1
		c0.9,3,4.5,4.1,5.2,7.3c-0.1,1.1-0.6,2.2-0.8,3.3C574.3,767,574,767.6,573.3,767.8z"/>
	<path class="st10" d="M609.4,856.5c-1.8-2.5-1.6-6-4.1-8.1c2.3-1.3,2.3-1.3,4.2,1.8c-1.2-1.7-1.7-3.2,0.4-4.5
		c1.5,0.2,2.7-1.7,4.4-0.7c0.3,2.5,0.8,5,0.9,7.5c0.1,1.7,0.8,3.5-1.8,4.6c-1.5,0.6-1,3-1.3,5.1c-1.3-1.1-1.3-2.4-1.7-3.4
		C610.8,857.7,610.8,856.8,609.4,856.5z"/>
	<path class="st11" d="M491.9,561.9c0-0.3,0-0.6,0-0.9c0.4,0.5,1.1,1,1.2,1.5c1.6,5.1,5,9.4,6.2,14.6c0.8,3.3,3.6,5.6,4.8,8.7
		c-0.1,0.2-0.2,0.3-0.4,0.5c-1.9,0.7-2.6-0.9-3.4-2c-1.6-2.2-3.4-4-5.5-5.6c-0.3-0.4-0.5-0.8-0.5-1.2c0.8-3.1,0.5-5.6-2.1-8.1
		C490.5,567.6,489.3,564.5,491.9,561.9z"/>
	<path class="st12" d="M582.7,747c-3-3.3-4.6-7.3-5.8-11.5c-0.2-0.9,0-1.9-0.7-2.6c-2.2-2.5-2.6-5.7-3.7-8.7
		c0.6-0.4,1.1-0.3,1.5,0.2c3.6,7.4,6.6,14.9,9.7,22.5C583.5,747.3,583.1,747.3,582.7,747z"/>
	<path class="st13" d="M474.3,572.2c1.6,0.7,2.9,1.9,4.6,2.2c4.4,0.9,5,5,6.6,8.2c0.2,0.3,0,0.8-0.4,1c-0.6,0.2-1.2-0.1-1.3-0.5
		c-0.8-2.3-2.2-4.2-4-5.8c-0.2-0.2-0.4-0.3-0.7-0.5c-1.5,0.3-1.7,1.8-2.4,2.8c-2.1-1.9-2-4.8-3.3-7c0-0.3,0-0.5,0.1-0.8
		C473.9,571.7,474.2,571.8,474.3,572.2z"/>
	<path class="st14" d="M495.8,611.8c2.6,1.6,3,1.5,3.7-1.2c0.1-0.4,0-0.8,0.1-1.2c0.1-0.6,0.4-1,1-1.1c0.6,0,1.2,0.4,1.2,0.9
		c-0.3,2,2.4,4.3-0.8,5.9c-0.8,0.4-0.6,1.4-0.4,2.2c0.4,1.4,1.1,2.7,1,4.3C498.8,618.8,496.5,615.7,495.8,611.8z"/>
	<path class="st5" d="M580.5,773.5c1.4,1.7,1.3,4.3,3.6,5.5c1.2,0.6,0.2,1.5-0.4,2.2c-1,1.2-2.3-0.8-3.2,0.5
		c-0.9,0.4-1.1-0.5-1.5-0.9c-0.8-2.1-1.7-4.2-2.5-6.4C577.4,772,579,772.9,580.5,773.5z"/>
	<path class="st15" d="M555.4,729.6c-3-6.8-6.2-13.4-8.8-20.4c-0.3-0.4-0.3-0.8,0-1.2c1.4-1,2.4-0.5,3.1,0.9c1.2,2.6,3,4.9,4.5,7.4
		c0.8,1.3,1.1,2.8,0.8,4.4c-0.3,1.5-0.5,2.9,0.6,4.2c0.4,1.4,2.7,2.7,0.2,4.2C555.6,729.2,555.5,729.4,555.4,729.6z"/>
	<path class="st16" d="M589.5,804c-0.3,0-0.6,0-0.9,0c-2.2-3.7-3.5-7.6-3.4-12c1-0.8,1.3,0.2,1.7,0.8c0.6,0.5,1.2,1,1.9,1.4
		c1.1,0.6,1.3,1.4,1.1,2.7C589.6,799.3,589.6,801.7,589.5,804z"/>
	<path class="st17" d="M610.4,846.8c-1,2.9,1.4,4.2,3.2,6c-2.1,1.3-3.5,0.7-4.6-1c-0.9-1.5-1.8-2.9-3.7-3.3
		c-0.2-0.3-0.4-0.6-0.6-0.9c0-0.6,0-1.1,0.1-1.7c0.6-0.9,1.7-1,2.4-1.6c0.5-0.3,1-0.6,1.5-0.8c1.4,0.1,1.9,1.2,2.3,2.3
		C610.8,846.2,610.6,846.5,610.4,846.8z"/>
	<path class="st18" d="M554.7,686.6c-1.6-3-3-6.2-4.7-9.1c-1.3-2.1,0.3-4.1-0.3-6.1c1.4,0.4,1.7,1.5,1.8,2.8
		c0.3,3.3,1.4,6.2,3.5,8.8c1.8,2.2,2.8,4.8,3.9,7.5c-1.6,1.1-2.4,0.1-2.7-1.2C555.9,688.2,555.3,687.4,554.7,686.6z"/>
	<path class="st19" d="M594.2,775.1c-3.4-3.5-5.9-7.4-5.8-12.6c0-1.4-0.5-2.9-0.8-4.3c-0.2-0.4-0.1-0.7,0.3-0.9
		c1.3,1.6,2.1,3.4,2.1,5.5c0,2.8,1.9,4.9,2.9,7.3C593.5,771.8,594.4,773.2,594.2,775.1z"/>
	<path class="st20" d="M610.4,846.8c0-0.3,0-0.6-0.1-0.9c-0.4-1.3-0.7-2.6,0-3.9c0.2-2.1,1-3.9,1.7-5.9c1.6,2.8,1.6,5.9,2.2,8.9
		C613.2,846.3,611.8,846.7,610.4,846.8z"/>
	<path class="st21" d="M568.4,715.5c-2.6-3.7-3.8-8.2-5.9-12.1c-0.9-1.7-1.2-3.5-0.6-5.4c2.1,2.6,3.3,5.7,4.1,8.9
		c0.6,2.7,1.7,4.9,3.2,7.1C569.9,715,569.8,715.6,568.4,715.5z"/>
	<path class="st22" d="M522.6,624.5c-0.9-2.6-3.3-4.9-1.6-8c0.3,0,0.5,0,0.8,0c0.7,0.1,1.3,0.5,1.5,1.1c1.2,3.3,2.4,6.5,5.3,8.7
		c0.6,0.5,0.5,1.5,0.4,2.3c-0.1,0.4-0.4,0.7-0.8,0.9C526.9,627.1,524.5,626.1,522.6,624.5z"/>
	<path class="st5" d="M586.9,792.8c-0.6-0.3-1.1-0.5-1.7-0.8c-0.9-0.6-1.6-1.4-1.8-2.5c-0.3-2.2-1.7-3.9-3.1-5.5
		c-0.3-0.4-0.2-0.7,0.3-0.9c2.8,0.4,4.5,1.8,4.8,4.8C585.6,789.6,586.4,791.2,586.9,792.8z"/>
	<path class="st23" d="M528.3,628.4c-0.2-1-0.3-2.2-1.2-2.9c-3.2-2.2-4-5.8-5.3-9.1c1.5-0.4,2.3,0.6,2.7,1.8c1,2.8,2.2,5.4,4.3,7.5
		c1,1,1,2.4,1,3.8C528.7,629.9,528.6,629,528.3,628.4z"/>
	<path class="st11" d="M516.9,609.3c-1.2-0.3-2.1-0.9-2.1-2.3c0-0.8-0.3-1.5-1-1.8c-4.2-0.6-3.4-3.7-3.2-6.5l0,0
		c-0.5-0.2-0.7-0.6-0.6-1.2c0.1-0.3,0.4-0.5,0.7-0.5c1.8,2.9,3.7,5.9,5.4,8.8C516.8,606.9,516.9,608.1,516.9,609.3z"/>
	<path class="st24" d="M401.1,462.7c1.5,0,2.8,0.6,3.9,1.6c1.5,1.8,2.2,4.1,4,5.6c3.2,0.7,0.7,3.3,1.6,4.8l0,0
		c0.2,1.1,0.5,2.3,0.7,3.4c-1.5-1.1-2-2.8-2.6-4.4C407,469.6,405,465.5,401.1,462.7z"/>
	<path class="st25" d="M537.8,648.7c-2.2-1.2-3.3-3.4-4.9-5.2c-1.4-1.7-0.4-3.5,0.1-5.3c0.6,2.1,1.3,4.1,2.8,5.9
		C537,645.3,537.7,647,537.8,648.7z"/>
	<path class="st24" d="M471.1,566.6c0.5,1.6,1.1,3.2,1.6,4.9c-1.9-1.5-3.1-3.4-3.4-5.9c-0.2-2.2-2.3-3.8-2.4-6.1
		c0.2-0.3,0.6-0.5,1-0.5c0.9,0.4,0.8,1.2,0.9,1.9c1.4,1.4,1.6,3.3,2.3,4.9c0.2,0.1,0.3,0.3,0.3,0.5
		C471.2,566.5,471.1,566.6,471.1,566.6z"/>
	<path class="st26" d="M580.5,773.5c-1.3,0.3-2.7,0.5-4,0.8c-1-2.2-0.9-4.9-3.2-6.5c0-0.5,0.1-1.1,0.1-1.6c1.7-0.9,2.8-0.3,3.4,1.4
		c0.1,0.6-0.2,1.2-0.4,1.8C577.4,771.1,579.1,772.2,580.5,773.5z"/>
	<path class="st11" d="M504.2,585.8c2.9,3.3,5.9,6.6,6.5,11.2c-0.1,0.1-0.2,0.2-0.4,0.3c-0.9,0.4-1.5,0.1-2-0.7
		c-1.9-2.8-2.9-6-4.9-8.8c-0.4-0.6-0.1-1.3,0.4-1.8C503.9,586,504.1,585.9,504.2,585.8z"/>
	<path class="st27" d="M568.4,715.5c0.2-0.5,0.5-1,0.7-1.5c-0.3,4.4,3.6,6.8,4.9,10.4c-0.5-0.1-1-0.1-1.5-0.2
		c-0.9-1.1-1.9-2.1-2.8-3.2C568.6,719.4,568,717.6,568.4,715.5z"/>
	<path class="st28" d="M554.7,686.6c1.9,0.7,2,3.4,4.2,3.9c1.3,1.4,1.7,3.1,1.4,4.9C557.6,693,555.4,690.3,554.7,686.6z"/>
	<path class="st29" d="M537.9,651.9c0.3-0.6,0.5-1.1,0.8-1.7c2.1,2,3.6,4.3,3.9,7.3c-0.3-0.3-0.6-0.5-0.9-0.8c-0.8-1-2.2,0.1-3-0.9
		l0,0c-1-0.9,0-2.3-0.8-3.3C537.9,652.4,537.9,652.2,537.9,651.9z"/>
	<path class="st26" d="M444.4,524.8c0.4,0,0.8,0.1,1.2,0.1c1.3,0.1,2.9-0.2,3.3,1.5c0.5,2.2-2.1,1.1-2.6,2.2
		c-0.1,0.1-0.2,0.2-0.2,0.3C444.9,527.8,444.7,526.3,444.4,524.8z"/>
	<path class="st29" d="M546.6,664.8c-4.1-1.3-4.4-2.1-2.4-5.5C546,660.7,545.5,663.2,546.6,664.8z"/>
	<path class="st20" d="M582.7,747c0.3,0,0.7-0.1,1-0.1c1,1.2,1.5,2.5,1.6,4c-1.3-0.1-2.6,0.6-3.8-0.2
		C581.2,749.2,582.8,748.4,582.7,747z"/>
	<path class="st30" d="M546.8,708c-0.1,0.4-0.1,0.8-0.2,1.2c-2.8-3-3.8-6.9-5.6-10.5c1.7-1.2,1.8,1,2.8,1.3c1.7,1.5,3.5,2.9,4,5.3
		C548.1,706.4,548.1,707.4,546.8,708z"/>
	<path class="st31" d="M467.8,559.4c-0.3,0-0.7,0.1-1,0.1c-3-0.3-4.2-2.7-5.6-4.8c1.7,0.2,3,1.2,4.1,2.4
		C467.2,556.8,468.2,557.3,467.8,559.4z"/>
	<path class="st32" d="M543.5,700.3c-0.8-0.5-1.6-1-2.5-1.6c-0.1-0.2-0.1-0.4-0.1-0.7c0-1.9,0.1-3.9,0.1-5.8
		c0.8,2.4,1.6,4.8,2.5,7.1c0.2,0.2,0.3,0.4,0.2,0.6C543.6,700.2,543.5,700.3,543.5,700.3z"/>
	<path class="st33" d="M413.8,480.5c3.2,1,3.2,1,2.5,4.8C414.9,484,414.6,482.1,413.8,480.5z"/>
	<path class="st16" d="M398.7,461.1c-0.3-1.3-0.6-2.7-0.9-4c2.4,0.4,2,2.5,2.5,4c0,0.3-0.1,0.6-0.1,0.9
		C399.7,461.7,399.2,461.4,398.7,461.1z"/>
	<path class="st20" d="M587.8,757.3c-0.1,0.3-0.2,0.6-0.3,0.9c-1.8-1.3-2.7-2.7-1.4-4.9C587.5,754.3,587.3,756,587.8,757.3z"/>
	<path class="st31" d="M457.1,547.4c2.3,1.5,3.2,3.8,3.4,6.4C459.3,551.7,457.9,549.7,457.1,547.4z"/>
	<path class="st34" d="M528.3,628.4c0.5,0.4,0.9,0.7,1.4,1.1c1.6,1.3,1.2,3,0.9,4.7c-1.3-1.3-1.3-3.4-2.4-4.8
		C528.2,629.1,528.3,628.8,528.3,628.4z"/>
	<path class="st35" d="M446.1,530.4c2.3,0.8,3.1,2.6,3.2,4.8C448.2,533.6,447.2,532,446.1,530.4z"/>
	<path class="st36" d="M609.4,856.5c0.8-0.5,1.6-0.7,2,0.3c0.4,0.9-0.4,1.4-1,1.9C609.7,858.2,609.3,857.4,609.4,856.5z"/>
	<path class="st11" d="M519.2,612.7c-1-1-2.1-1.9-2.4-3.4C518.2,610.1,519.1,611.2,519.2,612.7z"/>
	<path class="st37" d="M580.6,783.1c-0.1,0.3-0.2,0.6-0.3,0.9c-0.9-0.9-1.2-2.1-1.4-3.3c0.5,0.3,1,0.6,1.5,0.9
		C580.5,782.1,580.6,782.6,580.6,783.1z"/>
	<path class="st20" d="M586.2,753.3c-1.2-0.5-1.3-1.4-0.8-2.4C586.1,751.6,586.2,752.4,586.2,753.3z"/>
	<path class="st11" d="M489.6,559.4c-0.6-1-0.8-2.1-0.8-3.2C489.3,557.1,489.5,558.2,489.6,559.4z"/>
	<path class="st35" d="M449.3,535.2c0.5,0.3,1.1,0.5,1.6,0.8l0,0c0,0.5,0,1.1,0,1.6C449.7,537.3,449.3,536.4,449.3,535.2z"/>
	<path class="st38" d="M436.4,515.9c1,0.5,1.4,1.4,1.6,2.4C437,517.8,436.6,517,436.4,515.9z"/>
	<path class="st20" d="M612,836.2c-0.8-1-1-2.2-0.8-3.4C612.2,833.8,612,835,612,836.2z"/>
	<path class="st11" d="M372,386.3c-0.3-0.5-0.5-1.1-0.8-1.6c-1.1-2.1-3.6-2.8-4.9-4.6c-0.8-1.4,0.4-2.4,0.6-3.6
		c0.3-0.4,0.6-0.6,1.1-0.6c3,4.4,5.5,9.2,9.2,13.1c0.6,0.6,1.2,1.2,1.4,1.9c1.2,4.1,4.5,6.9,6.3,10.6c0.8,1.7,2.3,2.9,3.7,4.2
		c2.9,2.7,5.4,5.7,7.1,9.5c1.8,4.1,3.9,8.2,6.5,12c4.8,7.1,10.5,13.5,15.4,20.5c2.7,4,6.2,7.3,9,11.1c-0.3,0.3-0.6,0.5-0.9,0.7
		c-2.9-0.3-4-2.7-5.4-4.7c-0.3-0.5-0.6-1-0.9-1.6c-1.6-1.7-2.7-3.9-4.7-5.2c-4.5-4.1-7-9.9-11.1-14.3c-3.6-3.9-4.3-9.6-8.9-12.6
		c-1.7-1.1-2.8-4.1-2.5-4.9c0.9-3.2-1.7-4.4-2.8-6.4c-2.1-3.2-5.4-4.8-8.6-6.6l0,0c-0.9-4.2-3.2-7.8-4.8-11.7
		C374.5,390,373.2,388.2,372,386.3z"/>
	<path class="st11" d="M302,294.6c-0.3-0.3-0.5-0.6-0.8-0.9c-1.2-2.5-4.7-3.1-5.1-6.2c-3.1-2.4-3.6-6.4-6-9.2
		c-0.1-0.2-0.1-0.5-0.2-0.7c-3.9-4.4-9.2-7.5-11.9-13c-0.9-2.2-3.4-1.9-4.9-3.1c-1.2-2.1-2.4-4.2-3.5-6.4c0.1-0.7,0.4-1.2,1-1.6
		c1.5,0.9,2.6,2.3,3.6,3.7c2.5,3.8,6,6.8,8.7,10.4c0.2,0.3,0.5,0.6,0.9,0.8c6.4,4.1,9.7,10.8,14,16.6c5.8,8,11.5,16,18.6,23
		c3.7,3.6,7,7.7,9.9,12c0,0.4-0.2,0.7-0.4,0.9c-0.2,0-0.3,0.1-0.5,0.1c-0.6-0.6-1.1-1.1-1.7-1.7c-2.5-1.8-4.7-4-7.2-5.9
		c-1-2-3.9-2.7-3.8-5.5c-0.3-0.9-0.7-1.7-1.4-2.3c-3.1-1.6-4.6-4.4-6-7.4l0,0C302.8,298.4,303,296,302,294.6z"/>
	<path class="st39" d="M270.6,253.5c0,0.5,0,1,0,1.6c-0.3,0.3-0.7,0.5-1.2,0.5c-1.7-0.8-2.4-2.6-3.7-3.8
		c-3.2-6.1-8.7-10.4-12.6-15.9c-3.5-4.9-6.5-10.3-10.4-14.9c-1-1.2-1.8-2.5-3.4-3c-1.4-0.5-3.1-1.2-3.3-2.7
		c-0.5-3.6-2.9-4.3-5.8-4.5c-0.5,0-0.9-0.6-1.2-1c-0.6-1.1-1.2-2.2-2-3.2c-1.3-1.8-1.4-3.6-0.2-5.5c1.1-0.5,1.6,0.4,2.1,1.1
		c4,4.1,8.2,8,12,12.3c3.7,4.1,7.2,8.5,10.5,13c4.2,5.7,8.7,11.2,13.2,16.6C267,246.8,269.5,249.7,270.6,253.5z"/>
	<path class="st39" d="M347.9,352.4c-1.9-1.9-4.3-3.2-5.7-5.5c-2.4-0.9-3.6-2.4-3.3-5.1c0.3-2.3-0.7-4-3-4.7l0,0
		c-3.3-1-4.7-4.1-6.8-6.4c-1.1-1.1-0.2-2.4,1.1-3.1c1.2,0,1.5,1,2.1,1.7c2.1,2.6,3.9,5.5,6.6,7.5c1,0.7,1.6,1.8,2,3
		c1.6,4.8,4.9,8.2,8.7,11.3c0.9,0.8,1.8,1.5,2.4,2.6c2.6,5.2,5.9,9.8,10.3,13.7c1,0.9,1.5,2.2,1.9,3.5c0.2,0.2,0.3,0.4,0.3,0.7
		c0,0.3,0,0.4-0.1,0.4c-1.4,1-2.3-0.1-2.9-1c-0.7-1-1.5-1.8-2.7-2.2c-5-2.3-5.9-7.4-8-11.7C349.9,355.5,349.6,353.5,347.9,352.4z"/>
	<path class="st40" d="M164.4,135.2c0.5,0.3,1.1,0.5,1.6,0.8l0,0c0.5,1.5,1.9,1.9,3.2,2.4c0.8,0.8,1.6,1.6,2.4,2.4
		c0.6,1,1.4,1.8,2.4,2.4c4.9,4.8,8.8,10.4,13.2,15.6c1.4,1.6,3.4,2.8,4.6,4.4c3,3.6,6.8,6.3,9.8,9.8c-0.1,0.2-0.2,0.4-0.2,0.6
		c-0.3,0.3-0.7,0.5-1.1,0.5c-2.6,0.3-4.8-0.6-6.5-2.5c-2.4-2.7-5.2-5-7.4-7.8c-6.7-8.3-13.4-16.6-21.5-23.6
		C163.3,138.9,161.1,137.2,164.4,135.2z"/>
	<path class="st41" d="M450.6,497.5c-0.4-0.6-0.9-1.2-1.3-1.7c-2-2.8-5.3-4.1-7.6-6.8c-1.7-2-2.4-3.9-2.8-6.2l0,0
		c-1.7-4.9-5.6-8.3-8.8-12.1c-2.3-2.7-2.4-4.7-1.2-7.5c0.4-0.2,0.9-0.1,1.2,0.2c1.4,4,3.7,7.4,6.5,10.5c1.2,1.3,2.4,2.7,2.8,4.4
		c1.1,4.6,4.1,7.8,7.1,11c2.3,2.4,4.1,4.9,5.2,8C451.4,497.8,451,497.8,450.6,497.5z"/>
	<path class="st42" d="M228.8,202c-0.6-0.2-1.2-0.5-1.8-0.7c-3.3,0-5-2.7-6.7-4.7c-1.5-1.9-3-4-4.3-6.2c-1.8-3.1-4.6-5.1-8.3-5.2
		c-0.6-0.2-1-0.6-1.5-1c-1.6-1.7-3.4-3.2-4.6-5.2c-0.3-0.3-0.5-0.7-0.8-1c-1.5-1.7-0.9-3.3,0.4-4.8c0.1,0,0.3-0.1,0.4-0.1
		c2.5,2.4,4.7,5.3,7.6,7.1c3.7,2.4,6.5,5.5,9.2,8.7C222,193.1,225.3,197.6,228.8,202z"/>
	<path class="st43" d="M330.1,327.7c-0.1,1.1-0.2,2.4,0.7,3c2.5,1.6,3.1,4.5,5,6.5c-4.7-0.4-10-5.9-10.3-10.7
		c-0.1-1.7-0.2-3.5-0.2-5.2c0-0.3,0.1-0.5,0.2-0.8c2,1.7,3.3,3.7,3.8,6.3C329.6,327.1,329.9,327.4,330.1,327.7z"/>
	<path class="st44" d="M380.1,435.4c0.9,0.7,1.5,1.5,2,2.4c1.8,3.9,4.1,7.3,7.5,10c1.9,1.5,2.3,3.8,2.6,6c-0.6-0.5-1.7-0.8-1.9-1.4
		c-1.2-3.7-4.5-5.4-7.4-7.4c-1-0.8-1.9-1.7-1.7-3C381.7,439.7,380.4,437.6,380.1,435.4z"/>
	<path class="st45" d="M450.6,497.5c0.4,0,0.7-0.1,1.1-0.1c2.9,4.2,6.3,8,8.2,12.9c0.6,1.5,2.1,2.6,3.2,4c-0.3,0.5-0.7,0.5-1.1,0.1
		c-5.9-3.3-7.9-9.4-10.6-15C451.2,498.7,450.9,498.1,450.6,497.5z"/>
	<path class="st46" d="M310.2,339.5c-0.8-0.5-1.7-1-2.5-1.5c-0.2-0.3-0.5-0.5-0.7-0.8c-0.8-5-4.1-8.4-7.5-11.7
		c-1.1-1.1-2.5-1.9-3.2-3.4c0.1-0.2,0.3-0.3,0.4-0.5c4.3,0.7,7.1,4.1,10.6,6.1c0.8,0.5,0.8,1.3,0.8,2.1c-0.2,2.7,1,4.8,2.4,7
		C310.8,337.6,311.4,338.6,310.2,339.5z"/>
	<path class="st39" d="M430.1,463.5c-0.3,0-0.7,0.1-1,0.1c-2.2,1.4-3.5-0.5-5-1.5c-0.5-1.8,0.2-2.9,2-3.4c0.2,0,0.5,0,0.7,0
		C427.3,460.7,428.9,462,430.1,463.5z"/>
	<path class="st47" d="M462,514.4c0.4,0,0.7-0.1,1.1-0.1c1.5,2,3.2,4,4.2,6.4c-0.2,0-0.3,0.1-0.5,0.1c-1.5,1.2-1.9,0.2-2.2-1
		c-0.2-0.5-0.3-1.1-0.7-1.5C463.2,517,462.3,515.8,462,514.4z"/>
	<path class="st40" d="M329.3,326.8c-1.3-2.1-2.5-4.2-3.8-6.3c0.3-0.1,0.5-0.2,0.8-0.3C328,322,329.5,324,329.3,326.8z"/>
	<path class="st44" d="M393.8,455.5c1.8,1.1,3.1,2.6,3.2,4.8C395.5,459,393.9,457.8,393.8,455.5z"/>
	<path class="st11" d="M364,371.9c0-0.3,0-0.6,0.1-1c1.7,1.3,3.3,2.7,4.1,4.8l-0.3,0.2C364.8,376.2,363.9,374.5,364,371.9z"/>
	<path class="st7" d="M364.6,412.3c-1.8-0.9-2.8-2.3-3.2-4.2c0.1-0.1,0.3-0.2,0.4-0.3c0.3-0.3,0.7-0.5,1.2-0.4
		c1.6,1.1,3.4,2.2,1.9,4.6L364.6,412.3z"/>
	<path class="st48" d="M169.2,138.4c-1.6-0.2-2.7-0.9-3.2-2.4C167,136.8,168.1,137.6,169.2,138.4z"/>
	<path class="st48" d="M174,143.2c-1.2-0.4-2-1.2-2.4-2.4C172.6,141.4,173.4,142.2,174,143.2z"/>
	<path class="st49" d="M104.6,65.2c-0.1,0-0.2,0-0.3,0.1c0-0.1-0.1-0.3,0-0.3C104.5,64.8,104.6,64.9,104.6,65.2z"/>
	<path class="st50" d="M325.2,357.5c-0.2-0.3-0.5-0.5-0.7-0.8c-1.8-3.4-3-7-6.7-9.2c-1.9-1.2-3.8-3.4-4.1-6.1
		c-0.2-1.4-1.4-1.7-2.3-2.4c-3-2.4-3-5.3-0.2-7.8c1-2.2-0.7-2.8-2.1-3.2c-4.9-1.3-8.8-4.5-13.1-7c-3.1-4.9-7.7-8.7-10.8-13.6
		c-0.1-0.4-0.1-0.8-0.2-1.3c-0.6-2.6-2.4-4.3-4.1-6.1c-1-1-1.8-2.1,0-3.1c1.9-0.2,1.8,1.6,2.6,2.5c1.1,1.2,1.9,2.1,3.4,0.2
		c2.9-3.6,3.6-3.6,7-0.7c1.5,1.2,3.2,1.1,4.8,1.7c1.7,0.6,1.9,1.5,0.5,2.7c-0.9,0.8-1,1.4-0.7,2.4c0.7,3.2,2.3,4.6,5.7,4.9
		c1.2,0.1,1.6,0.7,2,1.6c1.3,2.9,2.6,5.9,5.5,7.7c0.3,0.2,0.7,0.6,0.8,0.9c0.9,4.2,4,6.6,7.4,8.7c0.7,0.4,0.7,1.1,0.5,1.8
		c-0.2,0.6-0.7,1.2-0.7,1.9c-0.2,1.8-1.1,3.7-0.5,5.5c0.7,2.4,3.3,1.2,4.9,1.9c2.3,1,5.1,0.8,7.1,2.6c0.7,0.7,1.6,1.7,0.2,2.1
		c-1.9,0.6-1.4,1.2-0.7,2.5c1.3,2.3,1.2,3-1.3,3.9C326.3,352.7,325.4,354.8,325.2,357.5z"/>
	<path class="st50" d="M344.6,383.9c-1.4-2.6-3.8-4.5-4.7-7.3c-1-2.2-2.6-4.2-2.9-6.7c-0.2-1.7-1.6-2.2-2.8-2.9
		c-0.2-0.4-0.2-0.7,0.1-1c0.2-0.5,0.5-1,0.7-1.5c0.5-0.5,1.3-0.8,1.5-1.5c-0.3,0.8-1,1.1-1.6,1.5c-0.7-3.2-1.6-6.2-4.7-8
		c-0.5-0.3-0.8-0.8-0.6-1.3c0.2-0.8,0.9-0.9,1.6-1c1.5-0.2,2.9-0.4,4.4-0.5s3-0.2,3.4,1.9c0.2,0.9,0.9,1.3,1.7,1.6
		c0.8,0.3,1.7,0.7,1.7,1.5c0.4,4.3,4.1,6.7,5.9,10.2c0.1,0.1,0.2,0.2,0.2,0.3c0,3.8,3.8,4.7,5.3,7.3c0.9,1.4,2.4,1.5,3.9,1.6
		c2.5,0.2,4.1,1.5,5.1,3.7c-0.2,0.2-0.3,0.3-0.4,0.4c-1.2,0.5-3-0.8-3.6,0.8c-0.6,1.5,1,2.6,1.7,3.9c0.2,0.3,0.5,0.7,0.8,0.8
		c5,2,4.9,6,4,10.3c-0.1,0.5-0.1,1.1,0.3,1.5c4.5-0.8,5.1-0.2,3.9,4.3c-0.8,1.6-2,0.8-3,0.3c-1.6-0.7-3.2-1.4-4.9-1.4
		c-0.4,0-0.7-0.2-1-0.4c-0.7-0.8-1.4-1.6-2.4-2.2c-1.2-1-2.4-2.1-2.4-3.9c-0.2-0.3-0.4-0.6-0.6-0.9c-2-1.2-3.5-2.6-4.5-5
		C349.6,387.9,346.5,386.3,344.6,383.9z"/>
	<path class="st51" d="M484.9,557.7c1,1.3,2.1,2.7,3.1,4c4.1,4.8,6.6,10.4,8.9,16.1l0,0c0.4,1.7,1.4,2.9,2.5,4.3
		c3,4,7.4,7.6,7.1,13.4c-1.1,0.5-2.1,0-3-0.6c-0.8-0.5-1.6-0.9-2.6-1c-2.9-0.3-2.9-0.3-2.2-2.8c1.1-3.9,0.6-4.8-3.5-5.3
		c-1.7-0.2-2.2-1.3-2.3-2.8c0-0.9,0.4-1.8,0.1-2.8c-0.3-0.9-0.8-2.1-1.9-1.6c-2.3,1.2-2.5-0.4-2.9-1.8c-0.5-1.7-1.1-3.3-0.8-5.1
		c0.2-1.1,0.1-2.2-1.5-2.3c-0.4,0-0.9-0.3-0.8-0.7c0.3-2.4-0.4-3.8-3.2-3.8c-1,0-0.5-1.7-1.5-2.2c-0.9-0.1-0.9,0.8-1.2,1.3
		c-1.5,2.4-2.9,2.4-4.3,0c-0.5-0.8-0.9-1.6-1.6-2.3l0,0c-0.4-0.5-0.9-1-1.2-1.6c-0.4-0.8-1-1.9,0-2.5c1.1-0.7,1.7,0.4,2.2,1.1
		c0.9,1.2,1.8,2.1,3.2,0.5c0.5-0.5,1-0.1,1.4,0.3c0.6,0.6,1.3,1.2,2,0.3c0.6-0.8,0-1.5-0.5-2.2c-0.9-1.3-1.9-2.6-2.9-3.8
		c-0.2-0.2-0.5-0.6-0.5-0.5c-3.6,2.7-3.4-2.2-5.3-2.7c-2.4,0.3-2.9-0.4-2.3-3.3c-0.1-1.1-0.2-2.1-0.7-3.1c-1.5-2.7,0.1-5.3,0.3-7.9
		c0-0.4,0.7-0.7,1.1-1.1c0.9,0,1.5,0.4,2,1c2.1,3.1,4.2,6.1,5.2,9.9c0.6,2.5,3.4,3.8,4.9,5.9C484.1,553.5,483.6,556,484.9,557.7z"/>
	<path class="st52" d="M272.2,261.7c-2.1,2.1-2.5,2.1-5.6-0.2c-0.8-0.4-1.2-1.5-2.4-1.5c-5.4,0.3-5.4,0.3-7.8-4.8
		c-0.2-0.5-0.4-1-1-1.2c-5.2-2-7-7.2-10.4-10.8c-2.5-2.7-0.5-4.5,1.3-6.4c1.9-2,3.5-2.3,5.7-0.1c1.5,1.6,3.2,3.2,5.5,3.8
		c3.1,1.9,3.4,5.9,6.3,7.9c2.2,3.9,5.2,7.1,8,10.6C271.7,259.9,273,260.6,272.2,261.7z"/>
	<path class="st53" d="M283.5,299.4c-0.8-0.5-1.6-1.1-2.4-1.6c-1-0.3-1.9-0.6-2-1.9c-3.8-3.5-7.2-7.3-10.9-10.9
		c-2.2-2.2-2.8-3.5-0.8-5.7c0.5,0.2,1,0.4,1.4,0.7c3,2.5,3,2.5,5.8,0.1c1.4,1.8,3.1,1,4.8,0.8c1.3-0.3,2.1,0.1,2.4,1.4
		c0.2,0.9,0.3,1.9,0.4,2.8c0.3,1.7,1.1,2.5,3,2.4c3-0.1,3.7,1.2,2.7,3.9C286.8,294.3,285,296.7,283.5,299.4z"/>
	<path class="st54" d="M267.4,279.3c0.3,0.9,0.4,1.8,0.2,2.7c-0.1,0.5-0.1,1.3,0.4,1.4c2.7,0.4,2.6,3.1,3.9,4.6
		c1.7,1.9,3.2,3.9,6.2,3.7c3-0.2,3-0.1,2.4,3c0,0.3-0.2,0.5-0.3,0.7c-1,1.6-1.9,3.7-3.2,0.2c-0.6-1.6-2.4-1.6-3.4-2.6l0,0
		c-0.3-0.9-1-1.7-1.4-2.5c-7.2-7.7-13.1-16.4-20.2-24.1c-0.5-0.9-1.4-1.6-1.4-2.8c1.6-3.5,4.5-4.2,7.9-3.8c2.1,0.3,4.1,0.7,5.2-1.9
		c0.5-1.2,1.7-1,2.7-0.4c0,1.3,0,2.7,0,4c-0.4,0.8-0.4,1.6,0.2,2.2c1.8,2,0.1,3.1-1,4.4c-0.8,0.9-1.7,0.7-2.5,0
		c-0.7-0.6-1.2-1.4-1.9-2.1c-1.6-1.7-3-1.9-4.5-0.6c-1.4,1.3-1.3,3.4,0.4,4.9c0.6,0.5,1.4,0.8,2,1.3c1.1,1,2.5,2,2.9,3.3
		C263,277.8,265,278.7,267.4,279.3z"/>
	<path class="st50" d="M392.8,450c-0.5-0.4-0.6-1-0.7-1.5c-0.4-1.2-1.1-2.1-2.4-2.4l0,0c-0.8-0.8-1.7-1.6-2.4-2.5l0,0
		c-2.3-2.4-2.8-5.7-4.2-8.5c0.1-0.2,0.2-0.3,0.3-0.5c0.8-1.6,0.6-3.4,0.8-5.1c0.2-2,1.2-2.5,3.9-2.1c1.8,0.2,1.6,1.5,1.5,2.7
		c-0.1,0.9-0.5,1.8-0.5,2.8c-0.1,1.5,1.3,2.8,2.8,2.8c0.2,0,0.5-0.1,0.7-0.2c2.3-1.7,2.5-1.9,5-0.1c0.6,0.4-1.2,1.5-1.9,2.2
		c-1.4,1.5-2.1,3.1-1.3,5.1c0.5,1.3,0.6,2.6,0.2,3.9c-0.7,2.4,1,4.4,0.8,6.7C393,453.3,394.3,450.5,392.8,450z"/>
	<path class="st24" d="M361.6,401.6c3.1-0.6,5.9,0,8.1,2.4c1.9,4.5,5.7,5.8,10.1,6.1c0.8,0.1,1.7,0.1,1.9,1.1
		c0.1,0.9-0.6,1.7-1.3,1.7c-3.2,0.4-6.4,3.5-9.8,0.5c-0.7-0.6-1.6-0.3-2.3,0.1c-0.9,0.6-0.6,1.4-0.2,2.1c0.2,0.5,0.4,1,0.7,1.5
		c-2.4-0.8-2.3-3.7-3.9-5.1c-0.8-1.3-2.2-2.4-2.4-4.1C361.8,405.9,360.5,403.9,361.6,401.6z"/>
	<path class="st3" d="M410.7,474.9c-0.9-1.5-1.1-3.2-1.6-4.8c0.5-1.3-0.4-2.3-0.5-3.5c-0.1-1.8,0.8-2.6,2.4-2
		c2.4,0.9,4.4,1.3,6.7-0.7c1.1-0.9,2.1,0.4,2,1.5c-0.1,2.3,0.3,4.5,0.4,6.8c0.1,1.6-0.4,2.9-1.9,3.7c-1.6,0.8-2.9,0.2-3.9-1
		C413.1,473.5,411.9,472.5,410.7,474.9z"/>
	<path class="st55" d="M389.9,409.5c1,0.9,2,1.8,2.9,2.8c0.6,0.7,1.4,1.4,1,2.5c-0.9,2.2,0.7,3.6,1.8,4.9c1,1.2,2.1,2.4,2.8,3.9
		c3.4,6.6,8.3,12.3,12.1,18.7c1.3,2.1,3.8,3,4.9,5.2c-0.5,0.5-1,0.5-1.5,0c-2.7-0.6-3.4-3.1-4.9-5c-3.3-4.3-5.5-9.4-9.9-12.9
		c-0.8-0.6-1.4-1.3-1.4-2.3c0.1-2.3-1-3.8-3.1-4.6c-2.9-1.2-2.6-4.3-3.3-6.5c-0.7-2.3-1.6-4.5-2.4-6.7
		C389.3,409.1,389.6,409.1,389.9,409.5z"/>
	<path class="st50" d="M373.6,423.4c-1.1-1.6-2.2-3.2-3.3-4.8c1.5,0.1,2.9-0.5,4.2-1c1.7-0.6,3.3-1,4.8,0.5c0.8,0.8,1.7,0.7,2.5,0
		c1.1-0.9,2.5-1,3.8-0.7s2.2,1,1.8,2.5c-0.2,0.8-0.3,1.6-0.5,2.3c-0.2,0.8-0.3,1.7-1.2,1.9c-1,0.2-1.3-0.7-1.6-1.5
		c-0.5-1.1-1.2-2-2.4-0.8c-1.3,1.2-2.3,0.7-3.6,0C375.3,420.1,375.2,420.2,373.6,423.4z"/>
	<path class="st13" d="M425.1,462.1c1.1,1,2.6,1.3,4,1.5c0,4.7,2.1,8.2,5.9,11c2.8,2,3.2,5.2,3.9,8.3c-1-0.5-1.1-2.3-2.8-1.9
		c-1,0.2-1.2-0.8-1.6-1.5c-1-1.8-1.9-3.5-2.9-5.3c-0.9-1.6-2-3.2-4.1-3.5c-1.5-0.2-2.1-1.4-1.6-2.7c1.1-2.6,0.3-4-2.4-4.5
		c-0.3-0.1-0.5-0.6-0.8-0.8C423.3,461.5,424,461.4,425.1,462.1z"/>
	<path class="st56" d="M347.9,352.4c1,0.4,2.1,0.7,2.3,1.9c0.7,3.9,4,6.5,5,10.2c0.5,1.8,2.8,1.9,3.8,3.3c3,1.6,4.5,4.1,4.9,7.4
		c-0.2,0.4-0.5,0.6-1,0.7c-2-0.6-3.6-1.6-4.2-3.8c-0.4-1.6-1.6-2.6-2.7-3.8c-2.3-2.5-4.5-5.1-5.3-8.6
		C350.3,357.1,348.9,354.8,347.9,352.4z"/>
	<path class="st35" d="M455.7,534.4c0.4-0.4,0.8-0.8,1.1-1.2c3.3-3.4,4.2-3.6,6.6-1.5c3.7,3.4,4,5.8,1.1,9.1
		C461.6,538.7,457.9,537.6,455.7,534.4z"/>
	<path class="st43" d="M455.7,534.4c2.1,0,3.9,1.7,6.2,0.8c0.4-0.2,0.9,0,0.9,0.5c-0.4,2.1,1.9,3.2,1.8,5.1c-2.7,0.9-5,0.2-6.9-1.8
		c-1.6-1.7-3.4-3-5.9-3c-0.7-1.8-0.1-2.2,1.6-1.7C454.1,534.6,454.9,534.7,455.7,534.4z"/>
	<path class="st57" d="M471.1,536.9c-0.3-0.5-0.6-1.1-0.8-1.6c-0.2-1.2-0.2-2.4-0.1-3.6c0.1-2.4-0.8-3.6-3.4-4.5
		c-2-0.7-2.4-2.5-2.7-4.1c-0.3-1.5-0.1-3.2-0.2-4.8c0.3,0.3,0.6,0.5,0.8,0.8c0.4,1.6,1.5,2.8,2.4,4.1c0.1,1,0.7,1.7,1.4,2.3
		c1.2,0.9,2.3,2.2,2.4,3.5c0.5,4.3,3.3,7.4,5,11C473.2,540.7,473.2,537.1,471.1,536.9z"/>
	<path class="st31" d="M469.5,547.2c1.1,0.8,0.9,2.6,2.3,3.3c-0.4,2.7-0.4,2.7-1.8,4.6c-1.7-0.7-0.1-2.6-1.4-3.6
		c-1.4,0-2.4,1.4-4,1.3c0.1-1,0.2-2.1,0.5-3.1C465.8,547.2,466.4,546.9,469.5,547.2z"/>
	<path class="st58" d="M317.3,313c2.4,1.9,5.5,3.1,6.3,6.5c-2.5-0.2-3.8-2.2-5.6-3.5c-3.7-2.5-6.9-5.4-7.3-10.2
		c0.3-0.5,0.6-0.5,0.9-0.1c0.5,0.5,1,1.1,1.5,1.6C314.7,309.2,316.4,310.8,317.3,313z"/>
	<path class="st59" d="M277.9,264.7c1.2,0.8,2.1,2,2.9,3.1c0.7,0.9,1.4,2.1,2.3,2.6c3.2,1.6,5.1,4.2,6.6,7.3
		c-3.6-1.4-6.1-4.1-8.4-6.9C279.9,269,277.9,267.4,277.9,264.7z"/>
	<path class="st60" d="M363,376c0-0.3,0.1-0.6,0.1-0.9c3.8-0.6,4.2,2.2,5,4.7c1.3,1.5,3.1,2.6,3.1,4.9
		C366.6,383.6,364.1,380.4,363,376z"/>
	<path class="st50" d="M382.3,434.7c-3.1-3.7-6.3-7.2-8.8-11.3c2.2,0.9,3.8,2.9,6.2,3.5c0.9,0.2,1.1,1.1,1.1,1.9
		c0.1,2.2,1.1,4.1,2.4,5.8l-0.1,0.1C383,435.1,382.7,435.1,382.3,434.7z"/>
	<path class="st61" d="M438.9,482.8c1.2,4,4.7,6,7.2,9c1.1,1.3,2.6,2.3,3.2,3.9c-2.3-1-4.6-2.4-6.5-3.8
		C440,489.9,438.4,486.7,438.9,482.8z"/>
	<path class="st62" d="M376.1,391.1c3.1,3.5,6.1,7,4.8,12.1c-2.1-1.7-2.7-4.3-4.1-6.4c-0.9-1.5,0.5-3.4-0.7-4.8l0,0
		c-0.2-0.2-0.3-0.4-0.2-0.6C375.9,391.2,376,391.1,376.1,391.1z"/>
	<path class="st56" d="M279.5,280.9c-0.3,0.6-0.4,1.2-0.8,1.8c-0.8,1.2-1.9,1.2-3.1,0.7c-1.6-0.7-1.4-1.9-1-3.3
		C277.2,278.4,277.2,278.4,279.5,280.9z"/>
	<path class="st50" d="M332.5,366.2c-0.1-0.1-0.3-0.1-0.3-0.2c-1.7-3.4-4.3-6-7-8.5c3.8,0,6.1,2.1,7.3,5.6c0.4,1.1,0.9,2.2,1.7,3.1
		l-0.1,0.1C333.6,366.7,333.1,366.6,332.5,366.2z"/>
	<path class="st63" d="M425.1,462.1c-0.8,0.2-1.5,0.4-2.3,0.7c-0.6-0.7-0.6-1.5-0.7-2.3c-0.1-1.1-0.1-2.3-0.9-3.3
		c-0.6-0.7-0.9-1.5-0.7-2.4c2.1,1.1,3.8,2.6,5.6,4.1C425.7,459.9,425.4,461,425.1,462.1z"/>
	<path class="st55" d="M335.8,337.1c1.8,0,3.1,1,3.3,2.7c0.4,2.7,1.9,4.8,3,7.1c-3.3-0.1-4.9-1.5-4.4-4.9
		C338.1,339.7,337.2,338.5,335.8,337.1z"/>
	<path class="st59" d="M296.4,287.2c1.9,1.9,4.1,3.6,4.7,6.5c-1-0.5-1.9-1-2.9-1.4c-3.2-1.2-3.3-1.2-2.8-4.9
		C295.7,287,296,287,296.4,287.2z"/>
	<path class="st59" d="M439.6,498.1c-1.7,0.4-3.3,0-3.5-2c-0.3-1.8,0.8-2.9,2.8-2.8C439.6,494.9,440.5,496.4,439.6,498.1z"/>
	<path class="st62" d="M389.9,409.5c-0.3,0-0.6,0-0.8,0c-3-1.8-6-3.5-8.1-6.4C385.3,403.4,387.9,406.1,389.9,409.5z"/>
	<path class="st64" d="M296.4,287.2c-0.3,0.1-0.6,0.1-0.9,0.2c-0.2-0.3-0.5-0.6-0.7-1c-0.2-0.2-0.4-0.5-0.6-0.5
		c-3.8-0.5-4.4-2.7-3.4-5.9c-0.2-0.6-0.5-1.1-0.7-1.7C293.5,280.3,295.5,283.4,296.4,287.2z"/>
	<path class="st51" d="M467.8,559.4c-0.8-0.8-1.6-1.6-2.5-2.4c-0.3-1.1-0.5-2.2-0.8-3.3c3.6,1.2,4.7,3.1,4.1,7.2
		C468.4,560.4,468.1,559.9,467.8,559.4z"/>
	<path class="st50" d="M413.9,447.5c0.5,0,1,0,1.5,0c1.9,1.5,3.2,3.4,4.1,5.6C416.4,452.5,414.6,450.5,413.9,447.5z"/>
	<path class="st35" d="M452.7,532.3c-1-0.1-2.2,0-2.3-1.5c0-0.7,0.4-1.3,1.1-1.3c1.2,0.1,2.4,0.6,2.6,1.9
		C454.3,532.3,453.4,532.3,452.7,532.3z"/>
	<path class="st59" d="M290.8,280c0.1,0.6,0.3,1.3,0.3,1.9c0,1.2,0,2.1,1.6,2c1.9-0.1,2,1.2,2.1,2.6
		C290.1,285.7,289.5,284.7,290.8,280z"/>
	<path class="st65" d="M272.2,261.7c-0.5-0.6-1.1-1.2-1.6-1.8c-0.7-1.5-2.5-2.9-0.8-4.8c0.3,0,0.5,0,0.8,0c1.4,1.9,3,3.8,2.4,6.5
		C272.7,261.6,272.5,261.6,272.2,261.7z"/>
	<path class="st66" d="M302,294.6c1.6,0.9,2.6,2.2,3.3,3.8c-0.3,0.3-0.6,0.5-0.9,0.8c-1.5,1.3-2.1,0.7-2.3-1
		C302,297,302,295.8,302,294.6z"/>
	<path class="st66" d="M311.7,305.8c-0.3,0-0.6,0.1-0.9,0.1c-3.1-1.6-5.1-3.8-5.4-7.4C307.6,300.8,309.2,303.7,311.7,305.8z"/>
	<path class="st3" d="M443.5,510.5c-0.6-0.2-0.9-0.6-0.8-1.2c0.1-0.6,0.6-0.9,1.2-0.8c0.6,0.1,0.9,0.6,0.8,1.2
		C444.6,510.3,444.1,510.6,443.5,510.5z"/>
	<path class="st58" d="M376.1,391.1c0,0.3-0.1,0.6-0.1,0.9c-2-1.4-3.8-3-4-5.6C373.9,387.5,375,389.3,376.1,391.1z"/>
	<path class="st67" d="M392.8,450c1.4,0.7,1.8,2.1,2.5,3.2c0,0.3,0,0.6-0.1,0.9C393.4,453.3,393,451.7,392.8,450z"/>
	<path class="st50" d="M421.2,457.1c1.5,0.8,1.6,1.9,0.9,3.3C421.4,459.4,421.2,458.3,421.2,457.1z"/>
	<path class="st3" d="M439.9,508.3c0.1,0.2,0.3,0.4,0.2,0.6c0,0.1-0.3,0.2-0.5,0.3c-0.1-0.2-0.3-0.4-0.2-0.6
		C439.4,508.5,439.7,508.4,439.9,508.3z"/>
	<path class="st58" d="M376,392c1.6,1.4,0.9,3.2,0.7,4.8C375.9,395.3,376.1,393.6,376,392z"/>
	<path class="st31" d="M462.9,552.6c-0.1-0.2-0.2-0.4-0.3-0.6c0-0.1,0.1-0.2,0.2-0.3c0.3-0.1,0.5,0.1,0.5,0.4
		C463.3,552.2,463.1,552.4,462.9,552.6z"/>
	<path class="st24" d="M372.8,404.9c0.1,0,0.3,0,0.3,0.1s0,0.2,0,0.3c-0.1,0-0.3,0-0.3-0.1C372.7,405.2,372.8,405,372.8,404.9z"/>
	<path class="st3" d="M431.1,483.2c-0.1-0.1-0.2-0.1-0.3-0.2c0.1-0.1,0.1-0.3,0.2-0.3C431.4,482.8,431.4,483,431.1,483.2z"/>
	<path class="st35" d="M453.3,534.3c-0.7,0.4-1.3,0.9-1.6,1.7c-0.3,0-0.5,0-0.8,0l0,0C451.2,534.7,451.7,533.7,453.3,534.3z"/>
	<path class="st2" d="M546.8,708c-0.3-0.8-0.6-1.5-0.9-2.3c-2.1-3.8-2-4.2,1.6-7.2c3.5-0.4,5.9,0.8,7.3,4.2c0.6,1.5,2.2,2.3,2.5,4.2
		c-1.3,1-2.5,0-3.7-0.3c-1.3-0.3-2.1,0.5-1.6,1.8c0.4,1.2,1.1,2.5,2.4,2.2c2.2-0.5,3.9,0.9,5.8,1.2c2.3,0.5,2.5,1.4,1.2,3.3
		c-0.4,0.6-1,1.2-1.6,1.7c-0.8,0.7-2.5-0.7-2.8,0.8c-0.3,2.4-2.1,4.8-0.7,7.4c-0.3,0.5-0.6,0.6-1,0.1c-0.7-0.7-1.1-1.5-1.2-2.4
		C553.3,717.1,549.2,713,546.8,708z"/>
	<path class="st66" d="M570,755.8c-3.8-5.6-7.1-11.5-8.1-18.3c0.1-0.9-0.4-1.4-0.9-2.1c-0.6-0.9-0.5-1.8,0.2-2.4
		c0.9-0.8,1.7-0.4,2.4,0.3c0.4,1.1,1.4,2.3,1.2,3.3c-0.6,3.3,1.4,5.4,2.8,8C569.4,748,570.8,751.7,570,755.8z"/>
	<path class="st6" d="M576.4,769.4c-0.2-0.2-0.5-0.5-0.7-0.7c1.1-2.7-2.1-3.6-2.4-5.7c-0.5-2.7-3.1-4.4-3.2-7.2
		c1.9,2.4,4.7,3.4,7.2,5.1C581,763.4,580.6,767.3,576.4,769.4z"/>
	<path class="st17" d="M563.6,733.3c-1.2,0.3-1.8,1-1.5,2.3c0.2,0.7,0,1.3-0.2,1.9c-1.1-0.8-2.1-1.4-2.4-3c-0.4-2.3-2-4-3.7-5.5
		c0.4-1.3,0-2.5-0.4-3.7c0.3,0,0.7-0.1,1-0.1c0.5,0.7,1,1.3,1.4,2c0.6,1.2,0.7,3.2,2.9,1.4c0.6-0.5,1.2,0.4,1.4,1
		C562.6,730.8,563.1,732.1,563.6,733.3z"/>
	<path class="st36" d="M575.8,756.6c-2.1-1.4-3.1-3-3.7-4.8c-0.6-1.7,0.2-2.5,2-2.3c0.8,0.1,1.5,0.4,2.3,0.6c1.1,0.3,1.7,0.9,1,2
		C576.6,753.4,576.3,754.8,575.8,756.6z"/>
	<path class="st68" d="M547.5,698.6c1,1.3,3.2,1.2,3.9,3c-1,1-1.9,0.2-2.7,0.1c-2.7-0.5-3.3,0-3,2.9c0,0.4,0.2,0.8,0.3,1.2
		c-1.9-1.3-1.7-3.6-2.5-5.5c0-0.3,0-0.6,0-0.9C544.9,699.2,545.8,696.7,547.5,698.6z"/>
	<path class="st32" d="M540.2,691.4c-0.7-0.8-1.2-1.8-1.5-2.9c0.8-1.1,1.3-2.6,3.1-2C543.1,688.7,541.9,690.1,540.2,691.4z"/>
	<path class="st10" d="M610.3,842c0.7,1.3,0.6,2.6,0,3.9c-1-0.5-1.5-1.3-1.7-2.4C608.9,842.7,609.4,842.1,610.3,842z"/>
	<path class="st10" d="M607.1,844.3c-0.4,1.1-1.4,1.4-2.4,1.6c0.1-1.4-0.3-2.8-0.8-4.1C605.2,842.3,605.9,843.6,607.1,844.3z"/>
	<path class="st2" d="M538.7,655.9c1.1,0.1,2.1,0.2,3,0.9C540.6,656.7,539.6,656.5,538.7,655.9z"/>
	<path class="st2" d="M537.9,652.7c0.3,1.1,0.5,2.2,0.8,3.3C538.1,654.9,537.9,653.8,537.9,652.7z"/>
	<path class="st26" d="M506.5,595.5c-1.5-4-4.3-7.2-6.2-11c-0.4-0.9-1.1-1.6-2-1.9c-2.8-1-2.3-2.8-1.4-4.8c2.7,2.4,4.4,5.8,7,8.3
		c1.8,2.3,2.8,5.1,4.1,7.6c0.7,1.3,1.1,2.7,2.4,3.6c0.1,0.5,0.2,0.9,0.3,1.4c-1.6,0.7-2.8,0.7-3.3-1.3
		C507.1,596.7,506.7,596.2,506.5,595.5z"/>
	<path class="st51" d="M474.3,572.2c-0.3-0.1-0.5-0.3-0.8-0.4c0.4-3.4,1-3.9,3.7-3.8c1.2,0.1,2.1,0.5,2.2,1.8c0.1,1.3-0.7,2-1.9,2
		C476.4,571.9,475.3,571.7,474.3,572.2z"/>
	<path class="st28" d="M492.2,591.7c-0.2,1-0.7,1.7-1.8,1.6c-0.8-0.1-1.1-0.7-0.9-1.4c0.2-0.9,0.5-1.9,1.7-1.7
		C491.9,590.3,492.2,591,492.2,591.7z"/>
	<path class="st58" d="M484.1,571.2c0,1-0.6,1.3-1.3,1.3c-0.9,0-1.6-0.4-1.4-1.4c0.1-0.7,0.6-1.2,1.3-1.3
		C483.8,569.7,483.9,570.6,484.1,571.2z"/>
	<path class="st26" d="M510.6,598.7c0.2,0.3,0.6,0.7,0.6,0.9c-0.6,2.6,0.8,4.1,2.6,5.5c-1.6,0.2-2.9-0.5-4-1.6
		C509.5,601.9,510.1,600.3,510.6,598.7z"/>
	<path class="st57" d="M529.4,662.6c-0.1,0.4-0.4,0.7-0.8,0.6c-0.6-0.1-0.9-0.5-0.8-1.1c0-0.4,0.3-0.7,0.8-0.7
		C529.1,661.6,529.4,662,529.4,662.6z"/>
	<path class="st24" d="M473.4,561.8c0.1,0.8,0.6,1.7,0.3,2.9C472.4,563.6,472,562.8,473.4,561.8L473.4,561.8z"/>
	<path class="st51" d="M471.1,566.6c0-0.2,0-0.5-0.1-0.7c0.2-0.3,0.6-0.8,0.8-0.4C472.2,566.1,471.5,566.3,471.1,566.6z"/>
	<path class="st69" d="M427.5,501.6c-0.1-1.5-0.9-2.8-1.6-4.1c-0.8-1.3-1.5-2.6-0.4-4.4c2,1.3,4.3,1.6,6.6,1.5
		c1.9-0.1,2.7,1,2.5,2.8c-0.2,1.7-0.3,3.5-0.7,5.2c-0.4,1.5-1.9,1.7-2.5,0.3C430.5,500.6,429,501.2,427.5,501.6
		C427.4,501.6,427.5,501.6,427.5,501.6z"/>
	<path class="st0" d="M471.1,536.9c2.2,0.1,3.2,2.2,5,3.1c0.8,1.1,1.5,2.2,2.3,3.3c1.8,2.3,2.4,5.3,4.1,7.7c0.7,0.9,0.5,1.8-0.9,2
		c-2.8-2.3-5.1-4.9-6.1-8.6C474.7,541.6,472.9,539.1,471.1,536.9z"/>
	<path class="st43" d="M496.9,577.8c-4.1-4.7-6.4-10.5-8.9-16.1c1.3,0.3,2.6,0.5,4,0.2c-0.3,3.4,0.8,6.2,3,8.8
		C496.7,572.6,497.1,575.2,496.9,577.8z"/>
	<path class="st29" d="M481.5,552.9c-0.1-2.3-1.4-4.2-2.2-6.3c-0.4-1.1-1-2.2-1-3.4c1.3,0.6,2,1.7,2.5,3c0.5,1.2,1,2.5,1.8,3.5
		c1.8,2.4,2.5,5,2.2,7.9C483.4,556.3,482.7,554.5,481.5,552.9z"/>
	<path class="st70" d="M467.1,523.1c-1.6-0.9-2.4-2.3-2.4-4.1c0.7,0.6,1.4,1.2,2.1,1.7C466.8,521.6,467,522.4,467.1,523.1z"/>
	<path class="st0" d="M405.1,458.7c-0.1-1.6,0.9-2.1,2.3-2c1.1,0.1,1.5,0.9,1.7,1.9c0.4,1.4-0.3,2.3-1.7,2.6
		C406,460.9,405.5,459.8,405.1,458.7z"/>
	<path class="st24" d="M405.1,458.7c1.2,0.4,2,1.3,2.4,2.5c-0.5,0.5-1.1,1.1-1.6,1.6l0,0C405.2,461.5,404.4,460.2,405.1,458.7z"/>
	<path class="st67" d="M382.3,434.7c0.3,0,0.6-0.1,0.9-0.1c2,2.7,2.5,6,4,8.9C384.5,441.2,383.5,437.9,382.3,434.7z"/>
	<path class="st67" d="M389.6,446c1.7-0.1,2.8,0.4,2.4,2.4C391,447.8,390.2,447.1,389.6,446z"/>
	<path class="st67" d="M387.3,443.5c1,0.6,1.9,1.4,2.4,2.5C388.5,445.5,387.5,444.9,387.3,443.5z"/>
	<path class="st1" d="M573.2,763c1.9,1.4,3.8,2.8,2.4,5.7c-0.4-1.1-1.3-1.9-2.3-2.5C573.3,765.1,573.3,764.1,573.2,763z"/>
	<path class="st71" d="M266.6,257.5c-1.3,0.3-2.1,1.1-2.5,2.3c-0.7,2-2.2,2.6-4.1,2.2c-3.2-0.7-6,0.1-8.7,1.9
		c-2.1-0.2-1.9-2.4-2.7-3.6c-3-4.3-6.7-7.9-11-10.9l0,0c-0.6-2.3-1.5-4.3-4.3-4.7c-0.7-0.4-1.2-0.9-1.5-1.6c-3.5-3.6-4.4-9.1-9-12
		c-1.3-0.8-1.6-2.7-0.1-4.2c1.4-1.4,2.2-3.3,3.6-4.7c0.8-0.7,2-0.8,2.9-1.2c3.4-1.7,5.7-0.7,6.1,3.2c0.3,3.3,1.9,4.9,4.8,5.5
		c2.9,0.6,4.8,3.5,8,3.3c2.5-0.3,4.3,0.7,5.2,3.1c0.6,1.6,1.7,2.9,3.1,3.8c1.1,0.7,1.5,1.4,0.5,2.4c-2.2-1-4.4-2-5.8-4.1
		c-1-1.4-2.1-1.5-3.3-0.3c-1.1,1-2.6,2.4-1.3,3.6c2.4,2.3,3.4,5.4,5.6,7.7c1.6,1.6,3.2,2.9,5.6,1.4c0.7-0.4,1.5-0.9,2.2-0.1
		c0.6,0.7,0,1.5-0.3,2.2c-0.2,0.5-0.4,1-0.6,1.5c-0.8,3,0.6,4.4,3.6,3.6C264.1,257.4,265.3,256.8,266.6,257.5z"/>
	<path class="st59" d="M164.4,168.2c-0.3-0.3-0.6-0.6-0.8-0.8c-1.3-2.3-3.7-3.8-5.2-6c-0.7-1.1-2-1.8-1.7-3.4c1.4-2,2.8-1,4,0.1
		c4.5,4.2,8.4,8.9,12.6,13.4c4.7,5.1,9.1,10.5,14.7,14.7c1.7,2.8,3.9,5.1,6.6,7.2c4.4,3.3,7.7,8,10.9,12.5c0.6,0.9,0.7,2-0.2,2.9
		c-0.4,0.2-0.8,0.3-1.2,0.3c-1.7-0.4-2.1-1.9-2.7-3.2c-0.5-0.4-1.2-0.7-1.6-1.2c-6.7-8.3-15.3-14.7-22.1-22.8
		c-0.5-0.6-1.1-1.2-1.8-1.5c-2.6-1.3-4.3-3.5-5.8-5.9C168.2,172.4,166.2,170.3,164.4,168.2z"/>
	<path class="st72" d="M203.8,208.4c0.3,0,0.6,0,0.9-0.1c1.1-1,2.1-0.8,3.1,0.3c3.6,3.8,7.6,7.1,10.8,11.2c1.9,2.4,3.7,3.8,6.8,2.7
		c1-0.4,1.8-0.2,2.5,0.7c0,0.2,0.1,0.4,0.1,0.6c-0.4,1.4-1.8,1.9-2.7,2.8c-2.1,2-2.1,4,0.3,5.6c2.1,1.4,3.6,3.1,3.7,5.7
		c0.1,2.1,2.6,3.1,2.7,5.2c-0.6-0.5-1.4-0.9-1.8-1.6c-4.5-6.9-11-12.3-14.6-19.8c-0.4-0.8-0.9-1.3-1.6-1.7c-3.6-2-5.6-5.6-8.6-8.3
		C205.2,210.5,203.2,210,203.8,208.4z"/>
	<path class="st73" d="M237.6,249.5c5.8,1.6,9.2,6,12,10.9c0.7,1.1,1.1,2.4,1.7,3.6c0.3,0.8,0.5,1.6,0.8,2.5
		c-0.6-0.5-1.4-0.9-1.8-1.5C247,259,241.5,254.9,237.6,249.5z"/>
	<path class="st61" d="M273.7,293c2,0.3,4.5-0.2,5.1,2.8c0.5-0.1,1-0.3,1.5-0.4c0.3,0.8,0.5,1.6,0.8,2.3c-0.1,1.5,1.2,2.3,2,3.3
		c1.2,1.5,2.2,3,1.9,5C281.6,301.3,277,297.8,273.7,293z"/>
	<path class="st46" d="M285.2,307.3c3.9,4.2,8.2,8.1,11.1,13c0.5,0.4,0.6,0.8,0.3,1.4c-0.1,0.1-0.3,0.2-0.4,0.3
		c-2.9-3.4-5.7-6.9-8.5-10.3C286.7,310.4,285.4,309.1,285.2,307.3z"/>
	<path class="st73" d="M233.3,244.8c0.4,0,0.8-0.1,1.2-0.1c3.9,0,3.9,0,3.2,4c0,0.3-0.1,0.5-0.1,0.8
		C236.5,247.6,234.8,246.3,233.3,244.8z"/>
	<path class="st74" d="M164.4,168.2c2.7,1.4,4.6,3.6,5.8,6.3C167.6,173,165.6,170.9,164.4,168.2z"/>
	<path class="st75" d="M203.8,208.4c0.7,1,1.3,2.1,1.6,3.3c-1.8-1.6-4-2.9-3.9-5.7C202.2,206.8,203,207.6,203.8,208.4z"/>
	<path class="st61" d="M272.3,290.5c0.8,0.6,1.3,1.5,1.4,2.5C272.8,292.5,272.4,291.6,272.3,290.5z"/>
	<path class="st76" d="M157.1,158.5c-5.6-2.8-8.6-8.2-12.7-12.5c-2.8-2.9-5.1-6.3-8.1-8.7c-3.1-2.5-5.8-5.4-8.9-7.8
		c-3.2-4.1-7.2-7.5-11-11.1c-3.4-3.3-7.4-6.3-10.6-9.7c-8.7-9.1-18.9-16.5-27.7-25.4c-1.9-1.9-4.2-3.4-6.4-4.9
		c-2.8-1.9-5-4.4-7.5-6.6c-3.3-2.9-6.8-5.6-10.2-8.4c-8-6.5-16.6-12.1-24.3-18.9c-1.7-1.5-3.8-2.5-5.5-4C20,36.9,19.8,34,21,30.2
		c1.2-3.8,4.7-5.9,8.5-6.9c6.6-1.6,10.4,2.9,14.9,6c6.2,4.2,11.8,9.3,18.6,12.6c4,4.5,8.9,8,13.7,11.5c2.5,1.8,4.9,3.7,6.8,6.1
		c3.1,3.9,6.9,7,11,9.8c1.2,0.8,2.4,1.7,3.2,3c1.7,3.1,4.9,4.7,7.1,7.4c0.3,0.3,0.6,0.6,0.8,0.9c0.6,0.8,1.5,1.4,1.5,2.5
		c-1.1,2.2-2.6,1.3-4,0.4c-2.6-1.7-4.6-4.1-6.8-6.3c-2.9-2.9-5.8-5.5-10.3-5.4c-1.5,0-2.9-0.5-3-2.1C82.2,60,74.3,56.9,67.4,53
		c-1.8-1-3.4-2-4.2-4c-0.4-1.1-1.2-2.1-2.2-2.8c-7.6-5.3-14.6-11.3-22.2-16.5c-2-1.4-3.9-2.4-6.1-0.5c-0.9,0.8-2,0.7-3,0.2
		c-1.6-0.8-3.2-0.7-4.3,0.8c-1.2,1.5-1.3,3.2-0.6,4.9c0.8,2,2.2,3.5,3.9,4.5c4.7,2.6,8.8,6.2,12.7,9.7c5.7,5.1,12.8,8.4,18,14.1
		c1.9,2.1,4.8,2.4,6.8,4.3c4.7,4.5,9.1,9.3,14.4,13.2c2.2,1.6,4,3.6,6.7,4.3c1.4,0.4,2.3,1.3,2.9,2.6c2.3,4.8,6.5,7.8,10.5,10.8
		c1.5,1.1,3,1.6,4.9,0.9c2.6-1,4.2,0,4.5,2.8c0.6,4.9,2.9,8.6,7.6,10.4c1.6,0.6,2.5,1.9,2.8,3.6c0.2,1.3,0.7,2.6,1.5,3.6
		c0.3,0.5-0.6,0.2-0.1,0.1c0.2,0,0.2-0.1,0.1-0.4c-1.8-3.6-1.6-4.3,1.8-5.6c1.1-0.4,2.2-0.9,3.2-1.6c0.8-0.5,2.2-1,2.6-0.4
		c3.2,4.4,5.5-0.2,8.1-0.8c3,1.3,3.5,5.2,6.6,6.3c2.5,2.3,5.2,4.4,6.6,7.7c0.5,1.2,1.2,1.9,2.5,2.2c4.7,1.2,8.9,3.1,11,7.9
		c-0.1,1.7,0.8,2.8,2,3.7c5.2,4,9.4,8.9,13.5,14c2.6,3.2,5.4,6.2,7.7,9.6c0.4,0.6,1.1,1.3,1.7,1.6c2,1,3.4,2.4,4.3,4.5
		c1.3,2.9,4.2,3.5,6.8,4.5c0.7,1.4,1.5,2.7,2.5,3.9l0,0c1.8,1.7,3.4,3.6,4.7,5.7c0.3,0.3,0.6,0.5,0.9,0.8c0.5,0.3,0.8,0.7,1.2,1.2
		c2.5,3.2,2.1,3.6-0.9,6c-5.2,4.2-10.9,3-16.6,2.2c-2.3-0.3-2.8-2.4-1.9-4.2c0.7-1.5,1.2-3.1,1.7-4.7c0.5-1.7,0-3.1-1.8-3.7
		c-0.9-1.1-1.5-2.5-3.5-2c-1.7,0.4-2.1-1.1-2.3-2.3c0.2,4,5.5,1.2,6.3,4.6c2.8,2.1,1,4.4,0.2,6.5s-2.5,1.2-3.9,0.3
		c-3.5-1.5-6-4.4-8.6-7.1c-1.2-1.2-2-2.8-3.6-3.7c-1.3-0.7-2.1-2.1-3-3.2c-3.7-4.9-8-9.3-12.3-13.6
		C158.8,159.2,158,158.7,157.1,158.5z"/>
	<path class="st77" d="M137.8,111.9c-1.2,1.5-2.1,3-1.9,5.1c0.1,1-0.3,1.9-1.3,2.2c-1,0.3-1.8-0.2-2.6-0.8c-1-0.8-1.3-2-1.9-3
		c-0.6-1.2-1.5-1.5-2.6-0.8c-0.5,0.3-0.9,0.5-1.4,0.8c-1.1,0.7-3,0.5-3.1,2.1c-0.2,1.9,1.6,1.7,2.8,2.2c1.7,0.6,0.9,2,0.5,3.1
		c-0.6,1.4-1.6,1.2-2.6,0.4c-2.2-1.7-3.9-3.7-5-6.2c-0.6-1.5-1.5-2.5-3-3.1c-4.5-1.8-6.8-5.3-7.6-10c-0.4-2.4-0.6-2.5-2.8-1.2
		c-1.5,0.9-2.6,0.4-3.6-0.5c-3.6-3-7.7-5.7-10.4-9.3c-2.7-3.7-6.1-6-9.7-8.5c-3.6-2.6-6.7-5.7-10.3-8.3c-2.3-1.6-3.2-4.4-5.8-5.9
		c-1.4-0.8-2.6-2.1-4.2-2.8c-1-0.4-2-1-2.6-1.8c-2.9-3.9-7.2-5.9-11-8.6c-2.9-2-5.3-4.5-8-6.6c-4.7-3.7-9.7-7.1-14.3-11
		c-3.8-3.2-4.3-8-1.4-11.4c1.8-2.1,3.8-2.7,6.2-1.5c1,0.5,1.4,0.3,2-0.4c1.2-1.6,2.8-1.3,4.3-0.6c0.7,0.3,1.5,0.7,2.1,1.2
		c6,5.1,13.2,8.7,18.8,14.4c0.8,0.8,2,1.4,3.1,1.9c1,0.5,1.8,1.1,2.7,1.7c1.6,1.3,1.8,3.7,3.4,4.9c1.5,1.1,3.7,1.1,5,3
		c0.7,1.1,2.1,1.6,3.3,2.2c5.2,2.6,8.9,6.4,10,12.3c0.4,2.1,1.3,2.8,3.3,2.1c0.5-0.2,1.3-0.3,1.5-0.1c2.1,2.6,5.8,2.8,7.9,5.8
		c2.3,3.4,5,6.6,9.2,8c1.9-0.9,2.5,1.2,3.9,1.7c1.5,1.2,3.2,2.1,4.1,3.9c6,4.3,11.2,9.6,16.2,14.8
		C133.3,105.8,136.9,107.8,137.8,111.9z"/>
	<path class="st78" d="M137.8,111.9c-2.2-2.1-4.4-4.2-6.1-6.8c-1.5-2.2-4-3.4-5.9-5.2c-3.1-3-5.7-6.6-9.4-9
		c-0.9-0.6-1.6-1.4-1.9-2.5c5,3,9.8,6.3,13.5,11c2.4,3,5.5,5.4,8.1,8.3c2.9,3.1,5.5,6.5,8.3,9.7c-1.7-0.2-2.8-1.4-3.8-2.7
		C139.7,113.7,138.9,112.6,137.8,111.9z"/>
	<path class="st79" d="M104.7,79.7c-3-1.8-5.9-3.8-7.1-7.4C100.4,74.4,102.8,76.7,104.7,79.7z"/>
	<path class="st79" d="M110.4,84.5c-1.3-0.6-2.6-1.1-3.9-1.7c-0.3-0.7-0.7-1.5-1-2.2C107.4,81.6,109.4,82.4,110.4,84.5z"/>
	<path class="st38" d="M368.2,379.8c-0.9-2.4-3.9-2.6-5-4.7c-0.7-2.8-2.6-4.9-4.1-7.2c2.8-0.1,3.5,2.4,4.9,4.1
		c1.3,1.4,2.6,2.7,3.8,4.1C367.9,377.3,368,378.5,368.2,379.8z"/>
	<path class="st80" d="M317.3,313c-1.8-1.5-3.5-3.2-4.1-5.6C315.3,308.8,317,310.3,317.3,313z"/>
	<path class="st52" d="M248.1,234.1c-0.3,0.6-0.4,1.3-0.8,1.8c-1.3,1.5-2.8,1.5-3.5-0.2c-1.3-3.1-3.7-3.9-6.6-4.3
		c-2.6-0.4-4.4-2.7-4.2-5.3c0-0.5,0.3-1.1,0.3-1.6c-0.1-2.1-1.3-2.7-3.2-1.9c-0.7,0.3-1.4,0.7-2.1,1.1l0,0c-4.6-2.2-7.5-6-10.5-9.9
		c-0.9-1.2-1.8-2.3-2-3.9c-0.1-0.8-0.3-2-1-2.1c-4.3-0.7-5-3.8-5.5-7.3c-0.1-1-1.6-1.4-2.4-2c-2.2-1.9-2-5,0.3-6.8
		c3.6-2.8,8.4-2.2,11.2,1.3c3.8,4.1,6.8,8.8,11.4,12.1c0.3,1,0.6,2,0.9,3c1.2,1.6,2.9,2.5,4.5,3.6c1,0.6,2.2,1,2.8,2.1
		c2.8,5.3,8.1,8.6,11.2,13.7C250.4,229.9,251.3,232.3,248.1,234.1z"/>
	<path class="st81" d="M248.1,234.1c1.9-6.6-2.9-10-6.5-14c-0.4-0.5-1.5-0.6-1.6-1.1c-1.4-4.4-5.7-6-8.6-9.1c-0.4-0.5-0.6-1.2-1-1.8
		c3.7,2,6.9,4.5,9.8,7.9c3.4,3.9,6.4,8.1,9.8,11.9c1.2,1.3,1.8,2.9,2.5,4.4c1.2,2.6,3.3,4.7,5.4,6.8c3.5,3.5,7,7.1,9.7,11.4
		c0.1,0.1,0,0.3,0,0.4c-0.8,1.1-1.9,0.7-2.2,0c-0.6-1.4-1.8-1.2-2.9-1.5c-1.3-1-2.6-2-2.7-3.8c-0.1-1.9-1.4-2.8-2.8-3.6
		c-1.5-2.3-4-3.7-5.1-6.4C251.3,234.3,249.4,234.6,248.1,234.1z"/>
	<path class="st19" d="M229.5,205.2c-3.9-1.2-6.4-4.2-8.6-7.3c-1-1.4-2-2.8-3.2-4c-1.1-1.4-1.6-3.2-4.1-3c-1.1,0.1-2.7-1-2.6-2.6
		c0.1-1.9-1.6-2.3-2.3-3.5c-0.1-0.4-0.1-0.8-0.2-1.2c4.4,0.8,7.3,3.6,9.6,7.2c2.5,3.9,5.3,7.5,8.9,10.5
		C227.4,202.9,229,203.7,229.5,205.2z"/>
	<path class="st78" d="M262.5,249.5c2.2-1,3.5,0.7,5.1,1.5c0.7,1.3,1.5,2.7,2.2,4c-0.2,1.7,0.5,3.2,0.8,4.8
		C267.9,256.5,265.2,253,262.5,249.5z"/>
	<path class="st55" d="M312.5,333.9c-2.2,0.6-2.8,1.6-1.6,2.9c0.5,0.6,1.3,0.9,2,1.3c1.3,0.6,2.1,1.4,2.5,2.9
		c0.9,3.1,2.3,5.6,5.5,7.3c3,1.6,3.8,5,3.6,8.4c-1-0.9-2-1.9-3-2.8c-1.2-2.9-3.3-5-5.5-7.1c-1.4-2.8-4.2-4.6-5.7-7.3l0,0
		c-0.3-0.7-0.6-1.5-1-2.2c-0.6-1.3-0.6-2.8-1.2-4.2c-0.6-1.4-1.3-2.7,0-4c0.9-0.9,2.3-0.7,2.9,0c1,1.2,3.1,2,2.1,4.2
		C312.9,333.6,312.7,333.7,312.5,333.9z"/>
	<path class="st66" d="M361.6,401.6c0.8,2.1,0.8,4.2,0.8,6.4c-0.2,0-0.4-0.1-0.6-0.1c-1.2-3-7.3-11.2-9.4-13.5
		c-2.9-3.2-5.5-6.7-7.8-10.4c2.1,1.6,4.3,3.1,6.5,4.7c0.8,0.6,1.4,1.3,1.4,2.3c0,2.4,1.6,3.2,3.6,3.5c0.5,1.1,3.8-0.5,2.4,2.4
		c-1.7,1.5-0.4,1.9,0.8,2.4C360.7,399.3,360.7,400.9,361.6,401.6L361.6,401.6z"/>
	<path class="st60" d="M332.5,366.2c0.6,0,1.1,0,1.7,0c1.8,1,3.6,1.5,5.7,1.4c0.9,0,1.8,1,1,1.5c-2.7,1.8-1.5,4.1-1,6.3
		c0.1,0.4,0,0.8,0,1.2c-1.7-1.2-3-2.8-3.5-4.6C335.6,369.6,334.2,367.9,332.5,366.2z"/>
	<path class="st19" d="M203,177c-1.5-0.9-2.4-2.2-2.5-3.9c0.2,0,0.5,0,0.7,0C201.8,174.4,202.4,175.7,203,177z"/>
	<path class="st46" d="M310.2,339.5c2.2,2.2,4.9,4,5.7,7.3C313.6,344.7,311.1,342.7,310.2,339.5z"/>
	<path class="st19" d="M207.7,182.8c-2-1.6-3.7-3.4-4.7-5.7C205.6,178.1,206.8,180.3,207.7,182.8z"/>
	<path class="st82" d="M312.5,333.9c-0.2-0.4-0.3-0.8-0.5-1.1c-0.7-1.1-1.5-2.7-2.9-2.2c-1.6,0.6-0.1,2-0.1,3.1
		c0,1.2,0.1,2.4,0.1,3.5c-1.3-1.7-2.4-3.5-2.4-5.8c0-1.5-0.9-2.4-1.9-3.3c-2.5-2.4-5.7-4.1-8.2-6.4c-0.1-0.5-0.2-0.9-0.3-1.4
		c2,1.1,3.9,2.3,5.9,3.4c0.8,0.4,1.7,1.1,2.5,1c3.8-0.4,6.4,2.8,10,3.2c0.6,0.1,0.7,0.7,0.8,1.2
		C315.9,331.4,315.1,332.7,312.5,333.9z"/>
	<path class="st79" d="M335,364.6c0.5-1.9,1.5-3.7,2.8-5.1c0.7-0.8,1.6-1.1,2.4-0.2c0.9,0.9,1.3,2.4,0.1,3.1
		C338.6,363.2,337.2,364.8,335,364.6L335,364.6z"/>
	<path class="st24" d="M361.6,401.6c-1.5,0-2.1-1.1-2.4-2.4C361.2,398.7,361.5,400.1,361.6,401.6z"/>
	<path class="st24" d="M358.3,396.8c-0.5-1.1-1.5-1.7-2.4-2.4c0.7,0.1,1.5,0,2.2,0.3C359.6,395.2,359.4,396,358.3,396.8z"/>
	<path class="st83" d="M208.7,184.8c1.3,0.5,2.2,1.5,3.1,2.5c1.1,1.3,2.1,2.7,3.9,3.4c1.4,0.5,1.7,1.9,2.1,3.2
		c-0.3-0.2-0.7-0.4-1-0.7c-3.2-2.1-3.4-2.1-5.2,1.3c-0.8,0-1.1-0.6-1.6-1c-0.7-0.6-1.4-0.9-2.1-0.1c-0.6,0.7-0.6,1.5-0.2,2.2
		c0.2,0.5,0.6,1,1,1.2c3.3,1.5,4.1,4.2,3.7,7.5c1,0.3,1.5-0.3,2.1-0.4c2.4-0.6,3.3,0.1,3.2,2.5c-0.1,1.2-0.2,2.4,0.2,3.6
		c0.3,1.1,0.8,2.2,2,2.2c1.5,0.1,1.9,0.4,1.9,2.1c0,2.7,2.8,3.6,4.2,5.4c0.1,0.1,0.8-0.1,1.1-0.2c0.8-0.3,1.6-1.4,2.4-0.2
		c0.5,0.8-0.3,1.5-0.6,2.2c-0.3,0.7-0.6,1.5-0.9,2.2c-1.2,0.2-2.2,0.8-3.3,1.4c-2.4,1.3-3.7,1.3-5.3-0.9c-4.2-6-10.3-10.1-14.7-15.8
		c-3.7-5.2-7.7-10.2-12.6-14.3c-2.2-1.8-3.7-4.1-5.1-6.6c3.5-2.1,4-3.8,1.6-6.5c0.6-0.8,1.4-1.3,2.3-1.6c3.2,1.8,4.1,5.4,2.1,8.7
		c-0.6,1-2.2,2-1.1,3c1.1,0.9,1.9-0.8,2.7-1.6c2.2-2.1,2.3-2.2,3.3,0.9c0.4,1.3,1.1,1.5,2.1,0.9c1.4-0.9,2.7-0.9,4.2-0.5
		c2,0.6,3.2-1,4.4-2.2C210.1,187.5,209.3,186.1,208.7,184.8z"/>
	<path class="st6" d="M190.9,179.5c-0.6,0.8-1.4,1.3-2.3,1.6c-0.2-0.2-0.4-0.4-0.6-0.5c-1.3-0.7-3.1,0.6-4.1-0.9
		c-1.1-1.8-2-3.7-2.9-5.7c-0.3-0.8-0.1-1.6,0.6-2.1c0.8-0.6,1.5-0.1,2.2,0.4c0.5,0.4,1.1,0.8,1.4,1.4c1,2.1,2.1,3.2,4.8,2.9
		C192.2,176.1,190.5,178.4,190.9,179.5z"/>
</g>
</svg>
