<svg viewBox="0 0 815.4 900">
<style type="text/css">
	.st0{fill:#0B0B0B;}
	.st1{fill:#0D0D0D;}
	.st2{fill:#A1A1A1;}
	.st3{fill:#B1B1B1;}
	.st4{fill:#B3B3B3;}
	.st5{fill:#A4A4A4;}
	.st6{fill:#929292;}
	.st7{fill:#373737;}
	.st8{fill:#B0B0B0;}
	.st9{fill:#A8A8A8;}
	.st10{fill:#5D5D5D;}
	.st11{fill:#1D1D1D;}
	.st12{fill:#6A6A6A;}
	.st13{fill:#949494;}
	.st14{fill:#B4B4B4;}
	.st15{fill:#454545;}
	.st16{fill:#424242;}
	.st17{fill:#2D2D2D;}
	.st18{fill:#343434;}
	.st19{fill:#5B5B5B;}
	.st20{fill:#9E9E9E;}
	.st21{fill:#535353;}
	.st22{fill:#A9A9A9;}
	.st23{fill:#313131;}
	.st24{fill:#434343;}
	.st25{fill:#616161;}
	.st26{fill:#484848;}
	.st27{fill:#5A5A5A;}
	.st28{fill:#5F5F5F;}
	.st29{fill:#909090;}
	.st30{fill:#AFAFAF;}
	.st31{fill:#010101;}
	.st32{fill:#050505;}
	.st33{fill:#0E0E0E;}
	.st34{fill:#232323;}
	.st35{fill:#353535;}
	.st36{fill:#333333;}
	.st37{fill:#575757;}
	.st38{fill:#393939;}
	.st39{fill:#2A2A2A;}
	.st40{fill:#3E3E3E;}
	.st41{fill:#3B3B3B;}
	.st42{fill:#444444;}
	.st43{fill:#4A4A4A;}
	.st44{fill:#414141;}
	.st45{fill:#565656;}
	.st46{fill:#6B6B6B;}
</style>
<g>
	<path class="st0" d="M506,471.7c-0.4-0.4-0.8-0.8-1.2-1.1c-0.5-7.3-8.2-8.6-11.4-13.7c-7-6.7-12.6-14.7-19.5-21.5
		c0.2-7-2.8-11.5-9.4-13.2c-4.6-1.2-7.8-4.1-10.4-7.8c-1-1.4-1.5-3.2-3.5-3.6c-0.5-0.3-0.9-0.7-1.1-1.1c-1.4-3.3-3.1-6.4-7.4-6.4
		c-3.9-2.7-6.4-6.8-9.3-10.3c-2.9-3.5-6.2-6.2-9.6-8.9c-5.9-4.5-10.7-10.1-15.4-15.8c-12.8-10.2-22.7-23.2-34.3-34.5
		c-5.3-5.2-10.9-10.1-16.1-15.3c-6.7-6.7-13.8-13.1-20.3-20c-6-6.4-13.1-11.6-19.7-17.3c-6.8-5.9-12.9-12.4-19.6-18.4
		c-12-10.9-24.2-21.7-36.8-32c-10.4-8.4-19.4-18.3-30-26.3c-10.5-8.2-20.8-16.5-30.6-25.5c-5.3-4.8-11.6-8.4-16.6-13.5
		c-1.6-1.6-4.9-2.9-2.9-6.3c6.5-2.4,8.6,3.3,12.1,6.5c7.4,6.9,15,13.5,23.2,19.4c2.5,1.8,5.3,3.1,7.2,5.7c0.5,0.7,1.5,1.7,2.1,1.7
		c5.4,0.4,8.6,3.4,12,7.4c2.1,2.5,7.4,2,10.7,0.3c2.9-1.5,4.3-0.5,5.9,1.3c1.8,1.9,1.7,3.8-0.3,5.6c-0.6,0.5-1,1.2-1.5,1.8
		c-3.8,6-2.8,7.9,4.5,8.7c1.5,0.2,3.8-0.1,4.1,1.4c1,4.5,6.6,4.5,7.9,8.6c0.5,1.5,2,1.2,3.4,1.2c1.3-0.1,2.8,0.3,3.8,1.5
		c7,8.9,17.4,13.7,25.5,21.3c5.8,5.5,11.8,10.8,17.8,16.1c1.1,0.9,1.6,2.2,2.1,3.5c2.7,6.5,8.2,9,14.6,6.6c6.4-2.4,8.4-2,12.8,3
		c1,1.2,1.8,3,3.3,3.2c7.1,0.9,8.2,6.9,10.1,11.9c0.7,1.8,1.2,2.5,3.1,2.4c2.2-0.1,4,1.4,6,2.2c5.6,2.4,10.8,4.8,13.5,11
		c1.3,3.1,5.9,3.3,8.8,5.4c3,2.2,4.8,4.5,5.7,7.7c-3.3-7.3-9.8-11.9-15.3-17.2c-4.1-3.9-9.1-6.8-11.8-12c-0.6-1.2-1.6-2.6-2.8-2.9
		c-10.8-3.3-15.8-13.6-24-20.1c-2-1.6-3.9-2.1-5.9-1c-4.9,2.5-9.2-0.2-13.6-1.4c-3.2-0.9-3.3-3.9-1.4-6.2c3.9-4.8,1.5-7.9-1.9-11.6
		c-5.1-5.6-9.7-11.7-14.9-17.3c-3-3.2-5.8-6.2-9.7-8.2c-0.3-0.8-1.2-1.2-1.6-1.9c-1.2-1.1-2.3-2.4-3.6-3.4c-2.8-1.5-6-2.3-8.1-4.9
		c-4-5.9-6.9-12.9-15-14.6c-0.5-0.5-0.7-1-0.8-1.6c0-1,0.1-1.9,0.7-2.7c1.2-1,2.3-0.6,3.5,0.1c7.6,0.3,11.6,6.2,15.8,11.1
		c1.8,2.2,3.5,4.4,5.9,5.8c10.6,6.2,17.4,16.7,26.8,24.4c2.8,2.3,3.5,6.6,6.2,9.4c5.6,4.5,10.6,9.6,16.5,13.8
		c5.8,4.1,11.4,8.7,16.3,14.1c3.6,4,8.2,6.7,13,8.9c7.6,9.4,17.9,16.1,24.8,26.2c4.5,6.4,11.4,10.7,16.8,16.4
		c8.7,9.3,19.2,16.9,25.4,28.4c0.9,1.7,2.7,2.1,4,3.2c5.5,4.5,11.2,8.6,15.4,14.9c2.9,4.4,5.9,9.8,11.4,12.5c2,1,3.5,3.1,4.2,5.5
		c5.6,8.7,11.2,17.4,21.8,20.8c9.3,5.5,13.9,15.2,20.8,22.7c2.8,5.2,6.5,9.4,11.2,13c5.6,4.6,9.4,10.6,13.2,16.6
		c3.3,5.5,8.3,9.4,12.7,13.9c3,4,6.6,7.4,8.6,12.1c2.4,4.4,4.8,8.8,8.8,12c1.4,1.1,2.8,2.4,3,4.3c0.4,5.1,3.9,6.9,8.1,8
		c0.7,0.5,1.1,1.2,1.5,1.9c0.6,2.1,0.7,4.4,3.6,5.2c1.9,0.5,3.2,2.6,2.8,4.6c-0.7,3.8,0.8,5.3,4.4,5.5c0.9,0.1,1.5,1.1,2.2,1.8
		c1,1.6,0.5,3.4,0.9,5.1c0.3,1.4,0.6,3.1,2.1,3.2c7.4,0.4,9.9,6.6,14,11c2.3,2.4,4.5,4.9,6.9,7.1c0.5,0.7,0.9,1.5,1.3,2.2
		c3.3,6.7,8.2,13.2,13,17.4c0.7,1.4,1.5,2.9,0.8,4.5c-2.3,3.1-5.5,4.2-9.2,4.2c-1.6,0-2.5-2.3-4.2-1.3c-1.6,0.9-0.5,2.4-0.3,3.7
		c0.1,7.2,0,7.3-5.9,7.6c-5.4-2.4-8.6-7.3-12.2-11.5c-1.4-1.6-1.9-4-4-5.4c-1.9-1.3-2.2-4.4-1-5.2c5.5-3.6-3.3,0-0.8-1.8
		c-4.8-0.2-8.2-2.9-11.5-5.9c-3.2-4-5.6-8.6-9.6-11.9c-0.7-2.7-2.4-4.8-4.3-6.8c-0.4-0.4-0.8-0.7-1.1-1.1c-2.3-1.9-3.4-4.7-4.9-7.2
		c-2.8-4.6-6.4-8.3-10.6-11.6c-8.1-8.6-14.8-18.2-22.4-27.2c-9.3-8.9-16.6-19.4-24.6-29.4C509.2,473.1,507.4,472.8,506,471.7z"/>
	<path class="st1" d="M776,798.6c2.4,8.3,6,16,10.5,23.3c3.6,5.9,6.5,12,7.3,18.9c0.5,0.6,0.4,1.5,0.6,2.2c0.9,2.9,1.7,5.9-1,8
		c-2.6,2.1-5.6,1.3-8.4-0.3c-5.2-10-12-19.2-17-29.4c0.7-3.6,0-6.6-3.8-8.1c-0.5-0.2-1.1-0.9-1.1-1.3c0.2-4.9-4-7.9-5.4-12.1
		c-0.1-0.6-0.2-1.1-0.5-1.7c-1.8-3.2-5.8-5.2-5.4-9.7c0.1-1.5-0.4-2.7-1.6-3.6c-1.8-3.7-8.6-1.6-8.7-6.5c-0.1-3.8-1.5-6.1-4-8.3
		c-0.5-0.4-1-1.4-0.9-2.4c0.8-6.3-2.8-9.5-8.3-11.4c-3-3.2-6.6-5.6-9.6-8.8c-0.6-0.5-1.2-1.1-1.5-1.9c-4.1-7.2-6.3-15.4-11.1-22.3
		c-0.3-0.5-1.1-1.1-0.9-1.4c1.9-5-3-1.9-4-3.4c-1.2-1-2-2.1-1.9-3.9c0.3-4.9-2.2-7.3-6.9-7.8c-0.5-0.2-0.9-0.6-1.3-1
		c-0.4-0.7-0.5-1.5-0.7-2.3c-0.5-2-1.6-3.6-3.3-4.9c-0.4-0.4-0.8-0.7-1.1-1.2c-1.2-1.7-1.3-3.5-1.2-5.5c0.1-2.4-1.2-4.7-3.3-5.5
		c-3.6-1.3-6.1-4-9.1-6.1c-2.5-2-3.5-5.1-5.3-7.6c-4-5.5-1.2-9.3,3-12.8c0.7-3.1-1.7-4.4-3.8-5c-4.1-1.1-4.8-3.3-3.2-6.8
		c1.8-3.9,1.7-8.9,6.8-10.7c4.9,2,9.1,4.5,10.6,10.2c0.9,3.3,2.5,6.5,5.3,8.9c3.7,3.1,8.4,5.3,9.5,10.6c2,1.8,3.2,4.1,4.1,6.5
		c0.5,1.3,1.1,3.6,1.9,3.7c6.6,0.9,6.3,7.8,10,11.1c0.5,5.6,5.7,8.6,7.4,13.5c0.9,2.7,0.7,6.5,5.7,5.7c1.8-0.3,1.9,3.1,3.4,4.4
		c1,3,2.6,5.7,4.6,8.2c0.6,2,3.2,3.1,2,6.2c-1.4,3.5,0.3,5.8,4.4,5.4c1.2,0.4,2.8,0.1,3.4,1.8c2.1,8.1,7.1,14.7,11.8,21.4
		c0.6,0.6,1.1,1.2,1.6,1.8c-0.5,7,3.6,12.2,7.1,17.6C768,782.2,771.6,790.6,776,798.6z"/>
	<path class="st2" d="M231.4,203.8c3.7,1.9,6.8,4.7,9.8,7.5c11.6,10.8,23.2,21.8,36.3,30.9c1.6,1.1,3.4,2.3,4.4,3.9
		c4.2,6.3,10.5,10.7,16,15.5c7.7,6.7,14.6,14.2,22.4,20.8c8.9,7.6,17.7,15.4,26.1,23.8c8.4,8.4,17.3,16.5,25.8,24.9
		c8.2,8.1,17,15.8,24.1,24.9c3.5,4.5,8.7,7.3,12,12c0.5,0.7,0.4,1.2-0.3,1.6c-9.5-6-16.4-14.6-23.7-22.7c-7.9-8.7-16.3-17-24.8-25.1
		c-7.4-7.1-15-13.9-21.7-21.6c-4.4-5.1-10-8.9-15.2-13c-9.8-7.7-17.7-17.3-27.3-25.1c-8.9-7.3-16.8-15.8-26-22.9
		c-10.5-8.1-21.1-16.4-29.7-26.7c-1.1-0.9-2.4-1.5-3.6-2.3c-2-1.2-3.5-2.7-4.8-4.6C230.7,204.8,230.8,204.3,231.4,203.8z"/>
	<path class="st3" d="M28.5,65.1c-8.3-1.4-11.4-8-13.4-14.8c-1.4-4.6,0.5-9.6,3.6-13.2c3.8-4.2,8.7-6.8,14.7-7.8
		c8.8-1.5,15.5,2.4,22.6,6.2c8.6,4.7,16,11.3,24.6,16c7.4,4.1,14.9,7.8,22.4,11.7c0.9,0.5,1.9,0.8,2.6,1.4
		c6.5,6.3,14.8,10.2,21.7,15.9c3.2,2.7,6.9,4.4,10.4,6.7c6.2,4.1,12.6,7.9,18.7,12.2c6.7,4.8,14.3,8.2,20.9,13.1
		c1.7,1.3,3.5,2.5,4.6,4.4c-0.3,0.5-0.7,0.9-1.1,1.3c-2.3,0.9-4.4-0.3-6-1.4c-4.5-3-9.2-5.2-14.1-7.2c-0.5-0.3-1-0.7-1.4-1
		c-7-8.7-16.7-13.2-26.6-17.4c-0.5-0.2-1.3-0.3-1.6-0.7c-7.2-9.6-20.3-11.3-27.8-21c-2.9-3.9-8.9-4.9-13.4-7.4
		c-4.3-2.4-9.2-4.1-13.5-6.4c-4.8-2.6-9.4-5.8-13.4-9.6c-4.6-4.4-9.2-9.3-16.6-8.2c-0.6-0.1-1.1-0.4-1.6-0.7
		c-3.6-1.4-5.9-5.4-11-3.8c-11,3.5-14.8,16-7.3,25.5c0.8,1.1,2,1.9,2.7,3.1C29.4,63.1,29.7,64.2,28.5,65.1z"/>
	<path class="st4" d="M474.5,392.5c-0.6-0.8-0.9-1.8-1.7-2.4c-6.6-4.9-11.1-11.8-16.4-18c-2.5-3-5.2-6.3-8.6-8.5
		c-4.8-3.2-8.9-6.9-11.9-11.9c-2.4-4-5.7-7.6-9.5-10.4c-5.3-3.9-8.7-9.6-14-13.3c-1.4-1-2.4-2.6-3.2-4.2c-0.9-1.6-2-2.9-3.5-3.8
		c-5-3.2-9.1-7.4-12-12.6c-1.6-2.8-3.9-5.3-6.5-6.7c-6.6-3.5-9.8-9.9-14.5-15c-0.5-0.6-0.4-1.1,0.3-1.5c0.9,0.5,1.9,0.8,2.5,1.5
		c7.9,8.1,16.9,15.2,23.4,24.7c1.7,2.5,3.8,4.5,6,6.4c13.3,11.6,26.7,23.1,36.4,38.1c1.4,2.1,3.4,3.2,5.4,4.4
		c5.3,3.5,9.4,8,13.2,13.2c3.3,4.4,6.1,9.5,11,12.8c3.2,2.1,4.4,5.9,6.9,8.7c-0.3,0.5-0.7,0.8-1.3,0.9
		C475.4,394.6,474.8,393.7,474.5,392.5z"/>
	<path class="st5" d="M89.8,99.1c-1.8-0.8-3.5-1.6-4.7-3.3c-1.1-1.6-3.1-1.7-4.7-2.6l0,0c-1.2-0.8-2.4-1.7-3.8-2.2
		c-4.2-0.7-7.5-3-10.4-6c-1.4-1.1-3.4-1.8-3.1-4.2c2.2-3.3,4.4-1.1,6.5,0.1c12,6.9,24.3,13,35.9,20.7c1.9,0.7,3.6,1.6,5.1,3
		c17.1,12.7,34.4,25.1,51.2,38c3.4,2.6,6.7,5.4,9.9,8.2c1.8,1.5,3.7,3.4,0.7,5.7c-1,0.1-1.8-0.2-2.6-0.7c-4-1.2-6.2-4.8-9.4-7
		c-1-1.1-2.4-1.7-3.6-2.5c-6.6-5.2-13-10.6-19.8-15.5c-10.2-7.5-20.5-14.8-31-21.9c-3-2.1-6.4-3.6-9.4-5.9
		C95,100.7,92.2,100.3,89.8,99.1z"/>
	<path class="st6" d="M408,369.5c0.1-0.5,0.2-1.1,0.3-1.6c3,3.1,5.9,6.2,8.9,9.3c1.4,1.4,2.5,3.2,4.1,4.2c8.7,5.3,14.5,13.4,20.9,21
		c3.8,1.2,6.7,3.4,8.4,7l0,0c0.8,0.6,2.2,0.5,2.6,1.2c3.9,8.5,12.7,12,18.8,18.2c2.1,2.1,2,4.6,3.1,6.8c6.4,6.9,12.9,13.9,19.3,20.8
		c0.5,2.4,3.9,3,3.4,5.9c-5.1-2.2-7.7-7.1-11.1-11c-4-4.6-7.9-9.2-12.4-13.3c-5.4-4.8-10.2-10.3-15.2-15.5
		c-4.9-5.1-9-10.8-14.5-15.3c-5.6-4.7-10.3-10.2-14.7-16c-2.1-2.7-5-4.3-7.5-6.5C417.2,380,411.9,375.4,408,369.5z"/>
	<path class="st7" d="M753.6,787.8c0.3,1.9,1.1,3.6,2.7,4.9c1.5,1.2,2.7,2.6,3.2,4.6c-1.7,1.2-1.3,5.1-4.9,3.9h0.1
		c-5.2-2.2-4.7-8.3-7.8-12.1c-1.7-2-2.4-4.9-4.2-7c-1.4-1-2.7-2.2-3-4c-0.4-2.5-2.3-3.8-3.7-5.6c-3-5.6-6.4-11-7.1-17.6
		c0.4,0,0.8,0,1.2,0.2c1.9,0.6,4.1-1.2,5.6,0.5c2,2.2,3.3,5,3.3,8c0,2.3,0.4,4,2.3,5.6c2.1,1.9,2.8,4.6,2.4,7.5
		c-0.2,1.8,0.2,3.2,2.5,2.9c1.5-0.2,3-1.3,4.5-0.1s1.1,3.3,1.9,4.8C751.9,785.7,752.1,786.9,753.6,787.8z"/>
	<path class="st4" d="M476.3,394c0.6,0,1.1-0.1,1.7-0.1c4.1,1.6,6.5,5.1,9.1,8.2c2.8,3.3,5.9,6.2,9.4,8.8c6.6,4.7,11.9,10.7,16.9,17
		c7.2,9,14.7,17.8,22.7,26.2c0.8,0.9,1.7,1.7,2.2,2.7c2.6,4.9,6.1,9,10.1,12.8c-4.2,2.3-5-1.7-7-3.7c-4.1-5.7-8.1-11.4-13.1-16.4
		c-4.2-4.1-8.8-7.8-11.8-13c-2.7-3.6-5.5-7-7.9-10.8c-3-4.7-7.5-8.3-12-11.8C486.9,410.3,481,402.8,476.3,394z"/>
	<path class="st8" d="M169.9,155.8c0.9-0.1,1.8-0.1,2.7-0.2c4-2,6.2-0.8,8.9,5c3.2,4.3,7.4,7.5,11.5,10.8c13,10.6,26,21.3,38.4,32.5
		c-0.1,0.5-0.2,1.1-0.3,1.6c-5.5-2.7-9.6-7.3-14.4-10.9c-7.2-5.3-13.5-11.9-20.4-17.5c-6.8-5.5-13.4-11.3-20.8-16.2
		C173.4,159.4,171.5,157.8,169.9,155.8z"/>
	<path class="st9" d="M326.8,248.9c-1.7-1.4-2.8-3.2-3.9-5.1c-0.9-1.5-1.6-3.3-3-4.3c-6-4.4-10-10.8-15.7-15.6
		c-4.5-3.8-9.1-7.2-13.8-10.7c-3-2.2-4.4-5.8-7-8.5c-3-3.1-6.2-5.2-10.6-5.5c-1-1.9-4.8-1.9-3.8-5.3c0.4-0.5,0.9-0.8,1.5-0.8
		c1.4,1.3,2.7,2.9,4.6,3.5c6.4,2.1,10.8,6.9,14.9,11.9c1.4,1.7,2.6,3.6,4.5,4.6c5.9,3.2,10.1,8.6,15.6,12.3c1.2,0.8,1.9,1.9,2.7,3.1
		c0.8,1.3,1.6,2.9,2.8,3.7c6.2,4.2,9.5,10.7,13.4,16.7C328.3,249.7,327.6,249.5,326.8,248.9z"/>
	<path class="st10" d="M771.4,820.7c2.1,6.7,5.7,12.6,8.8,18.9c0.3,0.7,0.6,1.6,1.2,1.9c3.4,1.8,3.7,5.1,4.3,8.4
		c5.5,3.5,5.6,3.7,2.2,7.5c-1.1-0.6-1.6-1.6-2-2.8c-1.2-3.6-3.2-6.7-6.1-9.1c-1.4-1.2-2.4-2.6-2.3-4.5c0.1-3.5-2.1-5.9-4.4-7.9
		c-6.1-5.2-8.1-12.5-11.3-19.3c0.3-0.6,0.8-0.9,1.5-1C767,814.2,770.8,815.9,771.4,820.7z"/>
	<path class="st11" d="M685.1,656.9c-1.1-0.3-2.3-0.6-3.4-0.8c-1.7-0.2-2.5-0.9-2.1-2.7c0.6-2.7-0.8-4.9-1.6-7.3
		c-0.4-1.4-1.3-2.7-2.9-2.3c-4,0.9-4.5-1.9-5.2-4.6c-3-0.4-4.8-2.8-6.7-4.7c-3.2-3.1-2-6.4,2.9-9.3c1,0.1,1.8,0.5,2.7,1
		c1.3,0.6,2.6,1.5,2.8,2.8c1,5.5,5.1,9.1,7.8,13.6C682.2,647,685.9,651.1,685.1,656.9z"/>
	<path class="st12" d="M795.1,842.9c2.3,4.1,2.8,8.9,5.7,12.8c1.5,2.1,0.5,5-0.3,7.4c-0.5,1.8-1.6,3.4-1.7,5.5
		c-0.2,2.5-2.2,3.1-4.2,1.7c-1.5-1.1-2.4-2.6-2.8-4.3c-0.6-2.1-1.1-4.2-1.7-6.2C790.8,853.8,794.4,848.8,795.1,842.9z"/>
	<path class="st13" d="M326.8,248.9c0.8,0,1.5,0,2.3,0c2.1,1.1,3.9,2.4,5.5,4.2c1.4,1.6,3,3.1,4.8,4.2c8.5,5.5,15.8,12.3,23.3,19.1
		c3.2,2.9,6.9,5.1,10.3,7.6c-0.1,0.5-0.2,1-0.3,1.5c-7.3-0.8-11.5-6.3-15.8-11.1c-4.1-4.6-9-8-13.8-11.5
		C337.3,258.7,332.3,253.5,326.8,248.9z"/>
	<path class="st9" d="M63.9,81.3c0.8,1.2,1.6,2.4,2.3,3.7c-7-3.4-14.2-6.4-20.6-11.2c-3.2-2.4-7.3-3.7-11-5.4
		c-2.1-1-4.4-1.8-6.2-3.3c-0.4-0.8-0.8-1.6-1.2-2.4c2-3.7,4.8-3.2,7.8-1.4c7.8,4.9,16.2,8.6,24,13.4C61.5,76.2,65.6,76.8,63.9,81.3z
		"/>
	<path class="st14" d="M208.9,139.3c1.6,0.4,2.8,1.2,3.9,2.4c6.6,7.3,14.3,13.1,22.6,18.3c4.4,2.8,8.2,6.5,12.3,9.9
		c-0.5,0.8-1.1,1.4-2,1.6c-1.8,0.3-3.8,0-5-1.3c-4.5-5.3-11.4-7.5-16.2-12.3c-3.8-3.7-9.2-5.2-12.6-9.5c-1.5-1.8-3.3-3.3-3.6-5.9
		C208.2,141.5,208.1,140.3,208.9,139.3z"/>
	<path class="st15" d="M795.1,842.9c-0.1,4.6-0.8,9.2-0.4,13.9c0.4,4.2-0.2,4.4-4.7,2.9c-0.8-0.8-1.5-1.5-2.3-2.3
		c0.1-2.8-1-5.1-2.2-7.5c2-0.5,1.2-2.6,2-3.7c1.3-0.3,1.5,0.6,2,1.1c2.2,1.7,3.2,1.5,3.7-0.8c0.4-1.9,0.3-3.9,0.5-5.8
		C794.7,841.2,795,842,795.1,842.9z"/>
	<path class="st16" d="M506,471.7c2.6-0.2,4.3,0.9,5.9,2.9c4.7,5.7,8.9,11.7,14.4,16.8c3.6,3.4,6.1,8,9.1,12.1
		c-0.4,0.8-0.9,0.8-1.4,0.1c-1.2-1-2.4-2-3.6-3c-4.5-2.9-5.6-8.7-10.2-11.4C516.7,482.5,510.2,478.1,506,471.7z"/>
	<path class="st17" d="M582.5,514.3c0.2,0.7,0.3,1.4,0.5,2.1c-6.2,0.9-8.1-0.4-8.9-6.8c-0.4-3.3-1.6-5.5-4.5-6.9
		c-0.8-0.4-2.1-1-2.2-1.7c-0.6-3.6-3.8-5.9-4.8-9.2c2.3-0.9,2.5,1.4,3.6,2.3C571.4,501.1,576.7,507.9,582.5,514.3z"/>
	<path class="st18" d="M727.9,712.2c-3.2-2.9-6.5-3.2-10.1-0.5c-0.9,0.7-2.2,1.3-3.2,0.1c-1-1.1-0.3-2.3,0.5-3.1
		c2.5-2.7,2.1-4.8-0.3-7.6c-2.8-3.1-3.2-7.5-4.7-11.3c0.3-0.5,0.8-0.8,1.4-0.9c0.6,0.1,1,0.4,1.4,0.8c1.7,6.7,6.4,11.3,11,16
		c1.3,1.4,3.1,2.4,3.9,4.2C727.7,710.8,727.8,711.5,727.9,712.2z"/>
	<path class="st19" d="M534.1,503.7c0.5,0,0.9-0.1,1.4-0.1c4.5,4.8,8.3,10.2,13.3,14.5c0.4,0.4,1,0.8,1.1,1.3
		c1.2,4.9,5.4,7.5,8,11.2c0.4,0.3,0.5,0.6,0.3,0.9c-0.1,0.3-0.3,0.4-0.4,0.4c-0.4,0-0.7-0.1-1.1-0.1c-7.4-7-12.9-15.6-19.5-23.3
		C536,507.1,534.7,505.6,534.1,503.7z"/>
	<path class="st20" d="M180.3,117c0.5,0,0.9-0.1,1.4-0.1c9.3,6.3,16.6,14.9,25.1,22.1c-0.1,0.6-0.3,1.1-0.8,1.5
		c-7.3-1.5-14-3.9-18.4-10.4c-1.5-4.7-7.2-6-8.6-10.7C179.1,118.4,179.7,117.7,180.3,117z"/>
	<path class="st21" d="M711.4,689.8c-0.5,0-0.9,0.1-1.4,0.1c-1.5-1.7-3.2-3.4-3.9-5.7c-0.3-1.1-0.9-2.3-2-2.8
		c-5.5-2.3-6.9-7.5-8.8-12.3c-0.2-0.5-0.5-1.1-0.7-1.6c-0.7-0.9-0.8-1.8,0.1-2.6c0.7,0.9,1.3,1.8,2,2.7c1.2,2,4,2.4,4.9,4.7
		c0.1,0.3,0.1,0.7,0.3,1c3.5,4.3,7.4,8.4,9.4,13.8C711.8,688.1,712.2,688.8,711.4,689.8z"/>
	<path class="st22" d="M245.2,170c0.9,0,1.7-0.1,2.6-0.1c7.2,5.7,13.2,12.7,20,18.8c1.3,1.1,1.9,2.9,2.8,4.4
		c-0.2,0.2-0.4,0.4-0.6,0.5c-3.4,2.4-5.2-0.5-6.6-2.5c-3.7-4.9-8.4-8.6-13.5-11.8C246.3,177,245.6,173.7,245.2,170z"/>
	<path class="st23" d="M738.5,733.4c-0.8,0.5-1.7,0.9-2.5,1.4c-1,0.7-1.6,2.7-3.3,1.6c-1.6-1-2.2-2.7-1.8-4.6c0.5-2.3,1-4.6,1.6-6.8
		c0.4-1.6,0.1-3.1,0-4.7c1,0.9,2.1,1.7,3.1,2.6C737.9,726.1,737.8,729.9,738.5,733.4z"/>
	<path class="st24" d="M694.8,664.9c0,0.9-0.1,1.7-0.1,2.6c-1.6-2.8-3-5.7-6.4-6.8c-1.7-0.5-2.6-2.1-3.2-3.8
		c-1.9-4.8-3.7-9.6-5.6-14.4c2.3,1.6,3.9,3.7,4.9,6.3c1.5,3.5,2.7,7,6.6,9.1C693.3,659.1,694.2,662.2,694.8,664.9z"/>
	<path class="st25" d="M728.8,754.9c2.5,5.8,5.8,11.3,7.1,17.6c-3.9-2.6-4.6-7.1-6.4-11c-1-2.2-2-4.3-3.9-5.7
		c-1.5-1.6-2.1-3.8-4.4-4.9c-1.3-0.6-3-2-1.8-4.1C722.8,749.1,727.7,749.8,728.8,754.9z"/>
	<path class="st26" d="M754.6,801.1c0.2-0.6,0.4-1.1,0.5-1.7c0.7-3.5,0.7-3.5,4.4-2.2h0.1c1.1,4.1,4.3,8,1.4,12.5
		c-0.5,0.4-1.1,0.6-1.7,0.6C756.9,807.7,755.3,804.7,754.6,801.1z"/>
	<path class="st26" d="M742.7,782c4.7,2.4,6.3,7.2,8.1,11.5c1.1,2.7,2.4,5.2,4,7.6c-3-0.8-5-2.1-5.7-5.7c-0.4-2.3-2.4-4.3-3.7-6.4
		C744.1,786.8,743.2,784.5,742.7,782z"/>
	<path class="st18" d="M497.8,462.3c-0.8-2.2-3.3-3.3-3.4-5.9c3,2.4,5.6,5.3,9.6,6.3c2.8,0.7,3.2,2.2,1.7,4.6
		c-0.6,0.9-0.6,2.2-0.9,3.3c-0.8-0.4-1.6-0.8-2.4-1.2C501.1,466.9,501,463.6,497.8,462.3L497.8,462.3z"/>
	<path class="st27" d="M668.9,626.1c-0.8,0.1-1.6,0.1-2.4,0.2c-5.5,2-6.2-3.5-8.9-5.8c-0.4-4-4-7.5-1.8-11.9
		c2.2,0.9,2.7,3.5,4.8,4.5C661.8,618.4,666.5,621.6,668.9,626.1z"/>
	<path class="st28" d="M541.5,465.8c2.1,1.6,4.4,3,7,3.7c0.1,0.3,0.1,0.6,0.2,0.9c1.2,3,3.9,4.7,5.8,7.2l0,0
		c0.7,0.7,0.8,1.5,0.1,2.3C548.6,476.6,544.2,472,541.5,465.8z"/>
	<path class="st29" d="M554.5,479.9c0-0.8,0-1.5-0.1-2.3c4.9,4.8,9.4,9.9,11.8,16.5c-1.2-0.8-2.4-1.5-3.6-2.3
		C560.5,487.4,557.6,483.6,554.5,479.9z"/>
	<path class="st30" d="M520.3,489.3c5.4,2,7.1,7.3,10.2,11.4c-1.2-0.2-2.3-0.6-3-1.6C525,495.9,522.7,492.6,520.3,489.3z"/>
	<path class="st29" d="M554.4,477.6c-3.2-1.4-5.4-3.6-5.8-7.2C551,472.4,553.7,474.3,554.4,477.6z"/>
	<path class="st6" d="M497.8,462.3c3.7,1,4.8,3.6,4.7,7.1C500.2,467.5,499.4,464.7,497.8,462.3z"/>
	<path class="st9" d="M89.8,99.1c2.9,0.3,5.5,1.2,7.1,3.9C94.4,101.9,91.9,100.8,89.8,99.1z"/>
	<path class="st3" d="M743.4,734.4c1.2,1.4,1.9,3,2.4,4.7c-0.2,0.2-0.5,0.4-0.7,0.5c-2.8-0.7-3.5-2.3-2.1-4.8
		C743.1,734.7,743.2,734.6,743.4,734.4z"/>
	<path class="st9" d="M80.4,93.2c1.9,0.2,3.5,0.9,4.7,2.6C83.4,95.2,81.7,94.5,80.4,93.2z"/>
	<path class="st26" d="M763.1,813.7c-0.5,0-0.9,0.1-1.4,0.1c-1.2-0.9-2.1-1.9-2.3-3.5c0.2-0.1,0.4-0.3,0.6-0.4
		C763,809.6,763.9,811,763.1,813.7z"/>
	<path class="st8" d="M156.9,146.3c1.5,0.4,2.7,1.2,3.6,2.5C159.1,148.3,157.9,147.4,156.9,146.3z"/>
	<path class="st20" d="M208.9,139.3c0.4,0.8,0.7,1.7,1.1,2.5c-2.5,1.4-3.8,0.7-3.7-2.2c0.2-0.2,0.4-0.4,0.5-0.6
		C207.5,139,208.2,139.2,208.9,139.3z"/>
	<path class="st9" d="M76.6,91c1.5,0.3,2.8,1.1,3.8,2.2C78.9,92.8,77.7,92,76.6,91z"/>
	<path class="st8" d="M236,210c1.5,0.4,2.7,1.1,3.6,2.3C238.1,211.9,236.9,211.1,236,210z"/>
	<path class="st31" d="M180.7,119.1c3.5,2.3,7.1,4.6,9.3,8.3c2.1,3.5,5.6,5.8,8.1,9c4.2,4.7,8.5,9.1,14.2,12
		c1.1,0.5,2.2,1.4,2.4,2.5c1.2,7.6,7.7,9.5,13.3,10.7c7.5,1.6,10.9,7.3,15,12.1c2.1,2.4,5.2,5.4,4.3,8.4c0.6-3.9,1.1-4.1,6.1-1.6
		c0.5,0.3,0.9,0.7,1.3,1.2c2,6,5.2,10.8,11.3,13.3c2.3,0.9,2.8,3.6,4.1,5.6l0,0c1.3,1.5,2.7,2.7,4.8,3.2c2.8,0.7,5.3,2.8,6.1,5.2
		c1,3.2,3.6,4,5.6,5.8c2.4,1.6,4.7,3.1,7.1,4.7c1.9,0.8,3.9,1.4,4.7,3.5c0.4,0.4,0.8,0.8,1.2,1.2c0.5,0.6,0.9,1.3,1.4,1.9
		c1.3,1.6,2.4,3.2,0.4,5.1c-1.6,1.6-3.6,1.8-5.4,0.5c-2.8-2-5.5-2.5-8.8-1.6c-3.2,0.9-5.1-1.1-6.1-4c-0.5-1.4-1.1-3.3-2.7-3.6
		c-2.2-0.4-2,1.9-2.8,3.1c-2.7,4.3-4.4,4.1-8.5,1c-4.7-3.4-7.2-9.6-14.6-9.9c-4.1-0.1-4.6-5.4-1.1-8c2.4-1.8,4.1-3.2,2.5-6.6
		c-1.6-3.5-3.6-1.7-5.8-1.2c-4,0.9-6.8-1.8-8.7-4.5c-2.6-3.9-4.9-6.4-9.9-3.4c-2.8,1.6-4.9-0.8-6.3-2.9c-1.7-2.5-3.9-3.7-6.7-4.9
		c-5.3-2.1-9.2-6.5-13.3-10.3c-3.3-3-6.6-5.8-10.8-7.3c-3.9-2-6.4-6-10.9-6.9c-3.6-0.5-5.6-3.9-8.9-5c-5.5-5.6-12.1-9.8-18.2-14.7
		c-14.8-11.7-30.3-22.6-45.7-33.5c-1.3-1.3-3.1-1.7-4.8-2.2C97.1,99,88.8,95.1,80.7,90.8c-4.5-2.4-9.1-4.4-13.1-7.6
		c-1.1-0.9-2.3-1.6-3.7-1.7C54.5,75.3,44.4,70.3,34.4,65c-3.5-2.8-8.7-2.7-11.6-6.6C19.2,53.4,17,48.2,20,42
		c3.1-6.3,8.9-8.6,15.1-9.8c3.7-0.7,7.9-0.9,11.1,2.1l0,0c8.4,3.7,15.9,8.9,23.3,14.2s15,10.5,23.8,13.4c4.5,1.5,8.7,3.7,12.3,6.7
		c13.4,11.4,28.9,19.7,43,30.1c4,2.9,8.8,4.9,13,7.7l0,0C168.3,110.2,174.5,114.6,180.7,119.1z"/>
	<path class="st32" d="M192.4,167.5c4.8-1.4,8.1,1.6,10.6,4.7c2.9,3.6,7.1,5.6,10.2,8.9c1.1,1.2,2.8,1.5,4.4,1.2
		c4.1-0.8,6.9,0.5,7.9,4.8c0.7,3,2.1,3,4.6,1.2c3.6-2.7,8.6-1.4,10.2,2.8c2.1,5.3,5.3,7.9,11.1,7.6c2-0.1,5.9,5.4,5.6,7.4
		c-0.3,1.6-1.9,1.9-3,2.6c-1.5,0.9-3.3,1.7-2.9,3.9c0.3,1.9,2,2.3,3.6,2.6c4.2,0.8,6.4,4.3,9.4,6.8c2,1.8,3.7,4.7,6.9,3.5
		c3.2-1.2,2.7-4.4,2.6-7.1c-0.1-1.6-0.3-3.4,1.6-4c2.1-0.8,3.1,1,4.2,2.4c1.9,2.5,3.5,5.2,4.9,8c0.9,1.7,2.2,2.4,3.6,0.6
		c2.1-2.6,3.9-2,5.8,0.1c0.4,0.4,0.8,0.9,1.2,1.3c1.1,1,2.2,2.7,4,2c2.3-0.9,1-3,0.9-4.7c3.9,2.3,7.3,5.3,10.1,8.9
		c2.1,2.6,4.5,4.9,7,7.1c1.8,1.6,3.5,3.2,4.2,5.5c0.6,1.9,1.8,3.6,3.6,4.5c4.3,2.2,4.8,7,7.3,10.4c0.7,0.9,0.2,1.9-0.8,2.4
		c-0.5,0.3-1.1,0.5-1.6,0.7c-1,0.5-2.5,1-2.3,2.3c0.1,1.8,2,1.5,3.2,2c3.5,1.2,6.8,1.7,9.9-1.1c3.1-2.7,5.7,0.4,6.9,2.2
		c3.4,5.1,9.5,7.4,12,13.4c1.4,3.2,5.1,4.8,8.8,5.3c2.6,0.3,4.2,1.6,5.4,3.9c2.6,4.9,6,9,11,11.9c6.2,3.7,9.9,10,14.1,15.6
		c1.3,1.8,2.4,3.5,4.7,4.1c2.1,0.6,3.6,1.8,3.1,4.2c-0.4,1.8-1.1,3.5-3.2,3.8c-2.4,0.4-4.2-0.7-5.4-2.7c-0.5-0.8-0.9-1.9-0.9-2.8
		c0.2-3.6-1.9-5.4-4.7-6.7c-1.4-0.7-2.8-1.7-4.3-2c-4.6-0.9-8.1-2.7-8.6-8c-0.2-1.9-2-2.9-4-2.8c-2.8,0.2-4.7-1-6.6-3.1
		c-2.6-2.8-3.6-2.5-6,1.1c-1.4,2.1-3.1,2.1-4.5,0.1c-1.8-2.7-0.7-5.2,0.6-7.3c-0.4-1.1-0.9-1.3-1.5-1.3c-1.5-0.1-3.4,1.4-4.4-0.3
		c-1.1-1.8,1.1-2.6,2-3.7c1.6-2.1,1.4-3.5-1-3.7c-3.9-0.3-6.3-1.8-7.9-5.7c-1.5-3.7-4.9-4.4-8.3-1.8c-3,2.2-5.7,2.1-8.8,0.9
		c-2.2-0.9-4.4-1.6-6.6-2.4c-2.2-0.8-3.6-2.2-3.7-4.8c-0.2-5.2-4.2-7.4-8-9.2c-2.3-1.1-4.1-2-4.9-4.5c-0.9-2.8-3-4.4-5.3-6.1
		c-4.2-3.1-8.8-5.7-12.4-9.9c-1.8-2.1-4.8-3.3-7.3-4.8c-1-0.6-2.6-0.8-3.1-1.6c-2.4-4.5-6.6-6.8-10.4-9.7c-1.4-1-2.3-2.6-4.2-3
		c-0.7-0.1-1.9-0.6-2-1.1c-0.8-4-3.8-4.4-7.2-5.3c-6.2-1.7-7.3-7.1-2.9-11.9c0.5-0.6,1.1-1.1,1.5-1.8c0.6-0.9,0.7-1.9,0-2.8
		c-0.7-0.9-1.8-1.2-2.6-0.5c-2.2,1.7-4.9,1.3-7.3,2c-5,1.4-7.1,0.9-9.1-3.4c-1.5-3.1-3.5-4.9-6.9-5.6c-2.6-0.5-4.3-2.6-6.3-4.2
		c-8.5-6.6-16.2-14.3-25-20.6C194,169.8,193.3,168.5,192.4,167.5z"/>
	<path class="st33" d="M660.7,619.1c2.3,2.1,3,5.5,5.8,7.2c0.6,0.9,1.9,2.1,0.3,2.8c-2.8,1.3-2,2.8-0.8,4.5c1.3,1.9,2.7,3.7,4,5.6
		c-2.1,2.6-2.9,6-4.5,8.9c-1.1,2-0.7,3.5,1.6,4.8c2.9,1.5,6,3.4,5.2,7.6c-3.6,2.6-12,0.3-12.5-4c-0.4-3.6-2.3-4.4-4.7-5.4
		c-1.8-0.7-2.9-1.8-2.7-3.9c1.2-2.1,3.9-1.2,5.5-2.7c1.2-0.4,1.7-1.6,2.7-2.2c0.1-0.3,0.3-0.6,0.4-0.8c-3.4-0.1-7.4-3.3-9.1,2.6
		c-0.3,1.1-2,0.2-2.9-0.6c-1.7-1.6-2.5-3.9-4.3-5.4c-2.2-3.4-5-6.5-5.5-10.7c-0.1-1-0.6-2.2-1.3-2.6c-7.1-4-7.4-11.3-8.9-18.1
		c-0.9-4-4.3-4.4-7.8-4.9c-2.4-0.3-7.2,0.3-4.4-5c4.7,0.3,5-0.2,3.5-5.9c0.6-4.2,5.4-2.2,7.1-4.7c2.9,0.9,5.7,0.3,8.3-1.2
		c3.4,3.4,6.8,6.7,7.6,11.8c0.5,3.4,4.2,4,6.2,6.4C653.6,608.3,655.7,614.7,660.7,619.1z"/>
	<path class="st11" d="M616.9,596.7c1.5,2.2,3.4,2.6,5.5,1.1s3.3-0.5,5,1c3.8,3.2,6.8,6.5,5.3,11.9c2.6,3.8,0.4,9.7,5.6,12.6
		c1,0.5,1.4,2.3,2,3.5c1.7,3.7,3.4,7.5,5,11.2c0.5,0.6,0.5,1.1-0.2,1.5c-3.5-1.5-3.6-5.9-6.6-7.9c-0.2-5.3-4.9-7.5-7.5-11.2
		c-1.2-2.2-3.4-3.8-4.7-5.9l0,0c-1.6-3.8-3.7-7.1-7.3-9.2c-7-7.7-13.3-15.9-19.1-24.6c-2-3-4.2-5.5-7.2-7.5
		c-1.7-1.1-3.7-2.3-4.2-4.7c5.8,3.8,11.9,6.1,19.1,4.7c1.4-0.3,3.2,0.3,3.5,2.3c0.4,2.7-1.5,4.2-4.3,3.2c-1.4-0.5-2.9-2-4.1-0.2
		c-1.1,1.7,0.8,2.7,1.5,4C607.5,588.2,612.1,592.5,616.9,596.7z"/>
	<path class="st23" d="M197.1,136.8c-2-3.4-6.3-5.1-7-9.4c5.2,4.4,9.7,9.6,16.2,12.2c1,1.2,2.3,1.8,3.7,2.2c1.6,4.2,5.3,6.7,8.6,9.3
		c2.6,2,5.4,3.8,7.6,6.3c0.1,0.1,0.2,0.4,0.4,0.4c7.2,2.7,12.3,8.4,18.6,12.3c6.8,6.7,13.5,13.4,20.3,20.1c1.4,1.3,2.6,3,4.5,3.6
		c0.3,2.2,2.1,3.6,2.8,5.6c-0.9-0.3-1.8-0.6-2.7-0.9c-6.8-4.2-13.1-9-16.5-16.6l0,0c-7.8-3.3-12.6-10.2-18.6-15.7
		c-3.6-3.3-9-3-12.7-6.2c-2.8-2.4-6.6-3.7-7.7-7.9c-0.4-1.5-1.9-2.4-3.2-3.3C206.5,144.8,201.7,141,197.1,136.8z"/>
	<path class="st34" d="M475.1,435.5c-5.1-3.6-9.3-8.1-13.2-13c-3.6-4.6-8-8.4-11.3-13.2c2.4-0.7,3.9-0.2,5.1,2.4
		c3.4,7.3,6.6,8.8,14.5,7.6c3.9-0.6,3.9-0.6,3.6,3.3c-0.1,1.5,0.2,2.8,1.1,3.8C477.5,429.5,477.2,432.5,475.1,435.5z"/>
	<path class="st35" d="M596.9,534.1c6,6.8,12,13.7,18.1,20.4c2.2,2.4,4.5,4.8,5.6,8c-4.7-4.4-9.2-8.8-13.1-13.9
		c-1.1-1.4-2.1-3.1-4.1-1c-1,1-2.1,0.9-3.1,0c-1.4-1.2-2.9-1.7-4.8-1.4c-1.6,0.3-2.5-0.7-3-2.1c-0.5-1.3,0.1-2.3,1.1-3
		c1.9-1.3,3.2-2.8,3-5.3C596.2,535.1,596.3,534.5,596.9,534.1z"/>
	<path class="st11" d="M660.7,619.1c-3.1-1.9-7-2.9-7.3-7.5c-0.1-1.1-1.4-1.2-2.3-1.5c-1.4-0.4-2.5-1.3-2.9-2.7
		c-0.9-3.1-2.7-5.5-5.5-7.3c-1.2-0.8-1.5-2.2-1.7-3.6c-0.2-2-1.5-3-3.1-3.9c-4.3-2.7-4.2-2.7-2.2-7.7c-0.4-1.2-0.8-2.3-1.2-3.5
		c0.4-0.8,0.9-0.8,1.5-0.2c0.7,0.8,1.4,1.6,2.2,2.4c0.3,4.9,3.6,8.3,6.7,11.2c4,3.7,6.4,8.4,9.8,12.5c0.4,0.4,0.8,0.8,1.2,1.2
		C656.4,612.5,659.9,615.2,660.7,619.1z"/>
	<path class="st36" d="M596.9,534.1c-0.1,0.6-0.2,1.1-0.3,1.7c-1-0.7-2.1-1-3.3-1.1c-4.3-0.4-4.4-0.5-4.2-4.8
		c0.1-1.8,0.3-3.6-1.4-4.8c-2-1.4-3.2,0.3-4.7,1.2c-0.3,0.2-0.7,0.3-1.4,0.5c-2.9-4,0.8-6.3,2.3-9.1c3.3,3.6,6.8,7,9,11.4
		C593.8,531,595.6,532.4,596.9,534.1z"/>
	<path class="st37" d="M476.3,394c4.2,4.6,8.5,9.1,12.6,13.8c2.2,2.6,5.4,3.9,7.8,6.1c-2.2,0-4.4-0.5-6-1.9c-2.3-1.9-5.2,1.5-7-1.1
		c-1.3-1.9-0.7-4.4-2.3-6.4c-2.5-3.1-3.8-7.1-6.4-10.3c-0.3-0.4-0.3-1.1-0.4-1.7C475.1,393,475.7,393.5,476.3,394z"/>
	<path class="st32" d="M253.7,181.7c6,5,11.4,10.7,16.5,16.6c0,0.7,0,1.5,0,2.2c-3-2.2-5.7-4.7-9.2-6.2c-3.4-1.5-5.6-4.2-6.2-8
		C254.5,184.8,254.1,183.3,253.7,181.7z"/>
	<path class="st38" d="M636.1,581.2c-0.5,0.1-1,0.1-1.5,0.2c-6.9-1.5-11.7-4.8-11.4-12.8c0.1-1.7-1-3.4-1.5-5
		C625.5,570.3,632.5,574.3,636.1,581.2z"/>
	<path class="st32" d="M286.7,214.7c-3.4,0.1-6.1-0.4-6.6-4.6c-0.3-2.3-2.6-3.2-4.5-4c-2.6-1.1-4.9-2.4-5.4-5.5
		C278.9,201.5,282.4,208.6,286.7,214.7z"/>
	<path class="st39" d="M575.1,539.9c0.1-1.3-1.2-4.1,1.3-4.5c2.7-0.4,2.7,2.6,3.4,4.6c0.1,0.4,0.2,0.8,0.2,1.1
		c0.1,2.1,0.3,4.9-2.4,5.1c-3.2,0.2-2.4-2.7-2.5-4.7C575.1,541.1,575.1,540.7,575.1,539.9z"/>
	<path class="st39" d="M557.9,532c0-0.4,0.1-0.9,0.1-1.3c7.7,1.8,9.8,9.2,14,14.5c1.1,1.3,1.6,3,2.4,4.6c-3.6-1.8-5.8-5.1-8.1-8.1
		C563.6,538.3,560.9,535,557.9,532z"/>
	<path class="st11" d="M627.5,586.1c0.7,1.3,2,2.6,1.1,4.2c-1,1.7-2.7,0.9-4.1,0.6c-1.3-0.2-2.7-0.1-4-0.1c-1.6-2.9,0.3-4.6,2.3-6.1
		C624.9,583,626.1,585,627.5,586.1z"/>
	<path class="st19" d="M516.5,436.5c4.7,3.6,8.8,7.8,11.8,13C523.5,446,517.8,443.2,516.5,436.5z"/>
	<path class="st34" d="M450.6,409.3c-3-2.1-6.1-4.1-8.4-7C448.6,402.7,448.7,402.8,450.6,409.3z"/>
	<path class="st34" d="M468,410.9c1,0.1,1.2,0.8,1.3,1.6c0,0.8,0,1.7-1,1.8c-0.9,0-1.2-0.8-1.4-1.6C466.8,411.8,467,411.1,468,410.9
		z"/>
	<path class="st39" d="M579.1,556.8c-2.5-1.8-3.9-4.3-4.8-7.2C577.6,550.9,578.8,553.5,579.1,556.8z"/>
	<path class="st34" d="M478.4,414.6c0.3,0.1,0.8,0.2,0.9,0.4c0.3,0.8,0.1,1.5-0.6,1.9c-0.4,0.2-0.8,0.1-0.9-0.4
		C477.5,415.7,477.6,415,478.4,414.6z"/>
	<path class="st11" d="M616.8,587.6c-0.2,0.3-0.3,0.7-0.5,0.8c-0.4,0.2-0.8,0-0.8-0.5c0-0.3,0.2-0.7,0.5-0.8
		C616.4,586.9,616.7,587.1,616.8,587.6z"/>
	<path class="st32" d="M298.5,222.9c-1.6-1.2-3.1-2.4-4.7-3.5C296.1,219.6,297.8,220.7,298.5,222.9z"/>
	<path class="st11" d="M645.1,639.5c0.1-0.5,0.1-1,0.2-1.5c1.4,1.3,2.9,2.6,4.3,3.9c1.8-0.1,1.5-1.6,1.8-2.6c0.7-2,2.1-3,4-2.1
		c2.2,1,4.4,1.2,6.8,0.7c2.1-0.4,3.1,1.3,3.6,3.1c0.5,1.5,0.3,2.8-1.7,2.9c-0.8,0-1.2,0.4-1.2,1.2c-0.8,1.5-2.1,1.7-3.5,1.2
		c-1.8,1.4-4.3-1-5.9,1.1c0.8,1.2,1.9,1.9,3.3,2.2c3.3,0.6,6.1,1.7,5.1,6c-0.2,0.9,0.6,1.6,1.4,1.5c3.6-0.5,5.9,2.6,9.1,3.2
		c-0.2,1.4-0.1,3.3-1.3,3.8c-4.5,1.9-3.2,5.1-2.4,8.3c-3.1-3-5.3-6.6-7-10.4c-0.9-2-2-3.7-3.5-5.2c-0.8-1.8-1.1-4.1-3.6-4.6
		C650.6,648.6,647.9,644,645.1,639.5z"/>
	<path class="st36" d="M718.2,745.5c-1-1.3-2.1-2.6-3.1-3.9c-2-8.5-6.5-15.5-13.2-21.1c0-0.3,0-0.7-0.1-1c-0.7-0.8-0.7-1.6,0-2.4
		c3.5,0,6.4-0.6,5.8-5.2c-0.1-0.6,0.4-1.1,1-1.2c0.9-0.2,1.6,0.3,1.8,1.1c0.4,1.3,0.5,2.7,0.9,4c1.5,4.9,1.6,4.9-3.9,5.6
		C713,728.5,716.1,736.8,718.2,745.5z"/>
	<path class="st39" d="M763.1,813.7c-1-1.3-2.1-2.6-3.1-3.8c0.5-4.3,0.3-8.5-0.4-12.7c2.6,3,3.6,6.7,4.7,10.4
		c0.5,1.7,0.8,3.6,2.6,4.2c4.6,1.5,4.5,5.2,4.5,8.9c-1.4-1.6-2.9-3.2-5-3.9C764.9,816.3,763.7,815.3,763.1,813.7z"/>
	<path class="st39" d="M686.3,697.1c-3.2-6.7-8.1-12.2-12.9-17.7c1.6,0.3,2.9,1.1,4.1,2.2c0.8,0.6,1.6,1.6,2.4,1.6
		c7.8-0.6,6.7,5.1,7.1,9.8c0.1,1.3,0.5,2.7,0.7,4C687.3,697.5,686.8,697.6,686.3,697.1z"/>
	<path class="st7" d="M754.8,757.3c0.4,0,0.8,0,1.2,0c1.2,2.9,3.8,5.5,1.7,9.1c-0.6,1.1,0.6,2.1,1.4,2.9c1.4,1.6,2.9,3.2,2.8,5.5
		c-2.3-2.6-5.7-3.9-7.2-7.4c-1.2-2.7-2.8-5.1-0.3-7.9C754.8,759,754.7,758,754.8,757.3z"/>
	<path class="st7" d="M742.9,734.8c-0.1,2,0.8,3.5,2.1,4.8c0.1,0.4,0,0.9,0.2,1.1c3.7,4.6,4.8,10.5,8.3,15.2c-3.4-0.8-5.5-2.7-6-6.2
		c-0.2-1.8-1.6-3-2.5-4.4c-2.1-3.2-4.2-6.5-3.1-10.7C742.3,734.7,742.6,734.7,742.9,734.8z"/>
	<path class="st40" d="M701.8,717c0,0.8,0,1.6,0,2.4c-2.9-4.9-6-9.7-9.5-14.1c1.3,0.2,2.8,0.2,4,0.6c4.1,1.5,5.6,4.2,5.3,8.8
		C701.5,715.4,701.7,716.2,701.8,717z"/>
	<path class="st39" d="M690.7,692.4c0.3-1.5,1-3,2.9-3.1c1.5-0.1,1.9,1.3,1.7,2.5c-0.2,1.7-1.1,3-3.1,2.9
		C691.1,694.5,690.7,693.6,690.7,692.4z"/>
	<path class="st26" d="M753.6,787.8c-0.9,0.7-2,1.5-2.8,0c-0.9-1.7,0.4-2.7,1.7-3.6C753.3,785.3,753.6,786.5,753.6,787.8z"/>
	<path class="st40" d="M686.3,697.1c0.5-0.1,1-0.1,1.4-0.2l0,0c2.7,1.1,4,3.3,4.7,5.9c0,0.8,0,1.6-0.1,2.4
		C690,702.8,687.3,700.5,686.3,697.1z"/>
	<path class="st39" d="M692.4,702.9c-1.6-2-3.1-4-4.7-5.9C691.2,697.3,692.3,699.7,692.4,702.9z"/>
	<path class="st23" d="M728.1,736.2c0,0.2,0.1,0.4,0,0.5c-0.4,0.3-0.7,0.2-0.7-0.3c0-0.1,0.2-0.4,0.3-0.4
		C727.8,736,728,736.2,728.1,736.2z"/>
	<path class="st41" d="M161.7,106.2c-5.9-1.3-10.6-5-15.5-8.1C135.9,91.4,126,84,115.6,77.3c-5.8-3.7-10.6-8.7-16.7-11.9
		c-4.9-2.6-10.2-3.8-15-6.6c-9.5-5.5-18.1-12.4-27.4-18.1c-3.5-2.1-7.6-3.3-10.3-6.5c2.4-0.1,4.7,0.7,6.7,1.9
		c5.4,3.4,11,6.7,16.2,10.6c7.5,5.6,15.4,10.7,24.2,14.1c5.9,2.3,11.4,5.1,16,9.5c2.7,2.6,5.8,4.7,9,6.5c3.4,1.9,6.8,3.8,9.5,6.8
		c1.9,2.1,4.6,2.9,6.9,4.3c7.6,4.4,14.2,10.3,22.2,14.2C158.9,103,160.5,104.3,161.7,106.2z"/>
	<path class="st42" d="M46.3,34.2c-6.7-1.5-13-1.6-19.3,2.2c-4.5,2.7-7.3,6.3-7.3,11.3c0,5.6,2.7,10.2,7.9,12.9
		c2.4,1.3,5.2,1.8,6.8,4.3c-2.4-0.7-4.7-1.5-7.1-2.2c-8.6-4.9-11.8-13.5-7.8-21.7c3.2-6.6,9.4-9.1,16.2-9.8
		C39.4,30.8,43.7,29.9,46.3,34.2z"/>
	<path class="st41" d="M180.7,119.1c-1.1-0.4-2.4-0.5-3.3-1.1c-4.5-3.1-8.8-6.4-13.5-9.1c-0.9-0.5-1.5-1.7-2.2-2.6
		c5.2,1.8,10,4.2,14.1,8.1c1.3,1.2,2.9,2,4.5,2.7C180.4,117.7,180.6,118.4,180.7,119.1z"/>
	<path class="st43" d="M103.8,105.2c2-0.2,3.6,0.6,4.8,2.2C106.8,107.3,105.2,106.6,103.8,105.2z"/>
	<path class="st44" d="M654.6,607.3c-3.1,0.2-5.4-0.1-6-4.2c-0.7-4.6-4.4-7.8-7.9-10.7c-3.1-2.5-3.8-5.2-2.5-8.8
		c0.2,0.1,0.4,0.2,0.5,0.3c3.8,6.1,8.6,11.3,13.4,16.5C653.9,602.4,654.8,604.7,654.6,607.3z"/>
	<path class="st45" d="M619,605.2c4.9,1.1,7.7,3.9,7.3,9.2c-1.1-0.9-2.1-1.7-3.2-2.6C621.8,609.6,620.4,607.4,619,605.2z"/>
	<path class="st46" d="M654.6,652.3c4-0.6,3.6,2.1,3.6,4.6c-0.4,0-0.7,0-1.1-0.1C656.2,655.3,655.4,653.8,654.6,652.3z"/>
	<path class="st45" d="M626.3,614.4c2.4,1.3,4.2,3.1,4.7,5.9C628.9,618.8,626.9,617.2,626.3,614.4z"/>
	<path class="st32" d="M197.1,136.8c4.9,2.1,9.2,5.4,12.9,9.1c4.6,4.5,9.6,8.7,14.3,13c1,0.9,2.1,1.9,3.3,2.4
		c8.8,3.1,14.4,10.7,22,15.4c1.8,1.1,2.8,3.2,3.9,5.1c-4.4,0.5-4.5,0.6-3.2,4.2c0.3,0.7,0.7,1.4,0.9,2.1c0.2,0.8-0.1,1.5-0.8,2
		c-0.7,0.5-1.5,0.3-2.2-0.1c-1.5-0.8-2.1-2.3-2.5-3.8c-0.6-2.5-1.7-4.8-2.4-7.2c-1.6-5.7-6.4-8.7-10-12.7c-0.7-0.8-2-1.6-3-1.6
		c-3.8,0.1-6.6-2.3-9.9-3.4c-3.7-1.2-6.6-3.2-7.2-7.6c-0.3-2.6-2.2-4.1-4.3-5.2C203.8,145.9,200.1,141.7,197.1,136.8z"/>
	<path class="st32" d="M264.1,215.8c-1.1-0.3-1.6-1.1-1.4-2.2c0.1-1.1,0.9-1.8,2-1.4c1.1,0.4,1.4,1.3,1.2,2.4
		C265.6,215.4,265,215.9,264.1,215.8z"/>
	<path class="st1" d="M653.5,647.4c1.3-4.9,1.8-5,5.9-1.1C657.8,648.8,655.7,648.3,653.5,647.4z"/>
	<path class="st1" d="M662.9,645.1c-0.3-0.6-0.9-1.3-0.1-1.9c0.2-0.1,0.9,0.4,1.3,0.7C663.7,644.3,663.3,644.7,662.9,645.1z"/>
</g>
</svg>
