<svg viewBox="0 0 50.4 16.9">
<style type="text/css">
	.st0{fill:#6EA4E8;}
	.st1{fill:#313031;}
	.st2{fill:#474340;}
	.st3{fill:#595A57;}
	.st4{fill:#544E4B;}
	.st5{fill:#7C879B;}
	.st6{fill:#EAE5D9;}
	.st7{fill:#76736B;}
	.st8{fill:#8D8169;}
	.st9{fill:#4978C0;}
	.st10{fill:#E8E3D7;}
	.st11{fill:#D8D4C8;}
	.st12{fill:#E9E4D7;}
	.st13{fill:#DAD5CC;}
	.st14{fill:#D8D4CA;}
	.st15{fill:#ECE7DA;}
	.st16{fill:#B1B0AA;}
	.st17{fill:#908B7B;}
	.st18{fill:#5A5951;}
	.st19{fill:#9D9079;}
	.st20{fill:#504A40;}
	.st21{fill:#CEC8C5;}
	.st22{fill:#777A7E;}
	.st23{fill:#625A4C;}
	.st24{fill:#E5E2DB;}
	.st25{fill:#686057;}
	.st26{fill:#CFC6B7;}
	.st27{fill:#AEAB9F;}
	.st28{fill:#EAE6D7;}
	.st29{fill:#A7A79C;}
	.st30{fill:#487AC9;}
	.st31{fill:#5990DE;}
	.st32{fill:#669FE7;}
	.st33{fill:#5288D8;}
	.st34{fill:#5E97E2;}
	.st35{fill:#4B7FCE;}
	.st36{fill:#5084D4;}
	.st37{fill:#5B5F66;}
	.st38{fill:#B8C6DA;}
	.st39{fill:#D5D3CA;}
	.st40{fill:#CED6D9;}
	.st41{fill:#19191F;}
	.st42{fill:#423F3D;}
	.st43{fill:#1B1817;}
	.st44{fill:#312F2D;}
	.st45{fill:#1F1F20;}
	.st46{fill:#363426;}
	.st47{fill:#302D27;}
	.st48{fill:#46474C;}
	.st49{fill:#232118;}
	.st50{fill:#323325;}
	.st51{fill:#3A392D;}
	.st52{fill:#504F37;}
	.st53{fill:#484C58;}
	.st54{fill:#4A4C4B;}
	.st55{fill:#40474E;}
	.st56{fill:#3F3E3C;}
	.st57{fill:#161513;}
	.st58{fill:#707685;}
	.st59{fill:#333032;}
	.st60{fill:#32352C;}
	.st61{fill:#4576C2;}
	.st62{fill:#E4E0D4;}
	.st63{fill:#D9D4C9;}
	.st64{fill:#DFD9CD;}
	.st65{fill:#DCD6CA;}
	.st66{fill:#E1DED1;}
	.st67{fill:#E4DFD0;}
	.st68{fill:#918570;}
	.st69{fill:#6C6B69;}
	.st70{fill:#4B4944;}
	.st71{fill:#696256;}
	.st72{fill:#D2D1C7;}
	.st73{fill:#B7B5A7;}
	.st74{fill:#A5A399;}
	.st75{fill:#BAB6B0;}
	.st76{fill:#B9B7A9;}
	.st77{fill:#9A988E;}
	.st78{fill:#22201B;}
	.st79{fill:#312925;}
	.st80{fill:#413A30;}
	.st81{fill:#322D28;}
	.st82{fill:#7A654E;}
	.st83{fill:#2D2C2E;}
	.st84{fill:#A29A8D;}
	.st85{fill:#7D7C77;}
	.st86{fill:#4D4843;}
	.st87{fill:#6B6457;}
	.st88{fill:#8C826E;}
	.st89{fill:#C9C6BE;}
	.st90{fill:#B4B2A7;}
	.st91{fill:#A5A49A;}
	.st92{fill:#A6A399;}
	.st93{fill:#B2B0A1;}
	.st94{fill:#D3CFC8;}
	.st95{fill:#B1AE9F;}
	.st96{fill:#A4A198;}
	.st97{fill:#BAB7AD;}
	.st98{fill:#D8D9D3;}
	.st99{fill:#A9A69A;}
	.st100{fill:#6D6458;}
	.st101{fill:#877962;}
	.st102{fill:#6E695D;}
	.st103{fill:#5D5750;}
	.st104{fill:#837A67;}
	.st105{fill:#CEC7BE;}
	.st106{fill:#3C392F;}
	.st107{fill:#A8A59D;}
	.st108{fill:#584C3D;}
	.st109{fill:#8B8D8D;}
	.st110{fill:#70716E;}
	.st111{fill:#B9B3AC;}
	.st112{fill:#3D3B38;}
	.st113{fill:#7F7E76;}
	.st114{fill:#191813;}
	.st115{fill:#B7B1A5;}
	.st116{fill:#5C5B54;}
	.st117{fill:#2F3337;}
	.st118{fill:#D9D4C5;}
	.st119{fill:#D6D4CD;}
	.st120{fill:#9F9F9C;}
	.st121{fill:#4E4842;}
	.st122{fill:#BEC4CB;}
	.st123{fill:#CACCC8;}
	.st124{fill:#B3BEC7;}
	.st125{fill:#C4C1B7;}
	.st126{fill:#C7C8C8;}
	.st127{fill:#CECAC3;}
	.st128{fill:#3E434C;}
	.st129{fill:#37353B;}
	.st130{fill:#70757E;}
	.st131{fill:#B0AEA5;}
	.st132{fill:#E4DFD5;}
	.st133{fill:#7B7772;}
	.st134{fill:#725F41;}
	.st135{fill:#201B1D;}
	.st136{fill:#413E3A;}
	.st137{fill:#131316;}
	.st138{fill:#232415;}
	.st139{fill:#433D30;}
	.st140{fill:#4E493D;}
	.st141{fill:#4D4D43;}
	.st142{fill:#2A261F;}
	.st143{fill:#51493F;}
	.st144{fill:#403C31;}
	.st145{fill:#32332A;}
	.st146{fill:#1E1B14;}
	.st147{fill:#605944;}
	.st148{fill:#66696D;}
	.st149{fill:#2C2B1C;}
	.st150{fill:#474944;}
	.st151{fill:#A5A297;}
	.st152{fill:#ADABA1;}
	.st153{fill:#6A6257;}
	.st154{fill:#817663;}
	.st155{fill:#948772;}
	.st156{fill:#887B65;}
	.st157{fill:#767167;}
	.st158{fill:#9B9A8F;}
	.st159{fill:#A5A296;}
	.st160{fill:#988C75;}
	.st161{fill:#887E67;}
	.st162{fill:#DBD6C8;}
	.st163{fill:#AB9E85;}
	.st164{fill:#9C9A8E;}
	.st165{fill:#9E9C91;}
	.st166{fill:#D2CCC0;}
	.st167{fill:#A2A5A7;}
	.st168{fill:#6D737B;}
	.st169{fill:#5C4F41;}
	.st170{fill:#5D584E;}
	.st171{fill:#625F5A;}
	.st172{fill:#0D090A;}
	.st173{fill:#892121;}
	.st174{fill:#483F40;}
	.st175{fill:#7E7C74;}
	.st176{fill:#4C4A2D;}
	.st177{fill:#C7C0B0;}
	.st178{fill:#23201C;}
	.st179{fill:#433D33;}
	.st180{fill:#272622;}
	.st181{fill:#2F2D2C;}
	.st182{fill:#C3BFB7;}
	.st183{fill:#A09E97;}
	.st184{fill:#C6C2B8;}
	.st185{fill:#5E5B4F;}
	.st186{fill:#F7F3E6;}
	.st187{fill:#ADAC9E;}
	.st188{fill:#626566;}
	.st189{fill:#757B7F;}
	.st190{fill:#736A5B;}
	.st191{fill:#D6D2C7;}
	.st192{fill:#D4D2CA;}
	.st193{fill:#929187;}
	.st194{fill:#5A5E67;}
	.st195{fill:#353421;}
	.st196{fill:#5C5A57;}
	.st197{fill:#3B3223;}
	.st198{fill:#564D37;}
	.st199{fill:#4A4840;}
	.st200{fill:#87827B;}
	.st201{fill:#383B42;}
	.st202{fill:#959894;}
	.st203{fill:#9B9791;}
	.st204{fill:#50504D;}
	.st205{fill:#303336;}
	.st206{fill:#3C3B36;}
	.st207{fill:#655D55;}
	.st208{fill:#393A3C;}
	.st209{fill:#9F9D97;}
	.st210{fill:#525251;}
	.st211{fill:#716E6A;}
</style>
<g>
	<path class="st0" d="M26,14.5c-7.4,0-14.8-0.1-22.1-0.1c-1.2,0-1.5-0.4-1.4-1.5C2.6,9.6,2.6,6.2,2.6,2.8c0.7,0.3,0.5,0.9,0.5,1.4
		c0,2.7,0,5.4,0,8.1c0,0.5-0.2,1.1,0.5,1.4c0.8,0.1,1.5,0,2.3,0.1c0.6,0,1.3,0,1.9,0c0.7,0,1.4,0,2.2,0c0.6,0,1.2,0,1.8,0
		c1.6,0,3.1,0,4.7,0c0.9,0.1,1.8,0,2.7,0c3,0.2,3,0.2,3.6-2.9c0.3-1.5,0.3-1.5,1.6-1.6c-0.4,0-0.8,0.1-1.1,0c-0.1-0.1-0.1-0.2,0-0.3
		c0.1-0.2,0.3-0.2,0.5-0.3c0.7,0,1.4-0.1,2.1,0.1C26,8.9,26.1,8.9,26.2,9c0.5,1.5,0.2,3,0.2,4.5c0,0.3-0.1,0.5-0.1,0.8
		C26.1,14.3,26.1,14.4,26,14.5z"/>
	<path class="st1" d="M44.9,14.6c-0.7,0-1.4,0-2.2,0c-0.1-0.1-0.1-0.3-0.1-0.4c0-1.9,0-3.7,0-5.6c0-0.5-0.1-1,0.2-1.4
		c0.5-0.2,0.5,0.2,0.6,0.5c0.1,0.6,0,1.1,0,1.7c0.1-1.7-0.2-3.5-0.1-5.2c0.1-1.5,0.4-1.7,1.8-1.4c0.3,0.4,0.3,0.9,0.3,1.4
		c-0.4,3-0.3,6-0.6,9c0,0.4,0,0.7,0.2,1C45,14.4,45,14.5,44.9,14.6z"/>
	<path class="st2" d="M45.6,2.6c2.6,0,2.6,0,2.6,2.6c0,2.1,0,4.2,0,6.4c-0.1,0.1-0.3,0-0.3-0.1c-0.2-0.3-0.1-0.7-0.1-1
		c0-0.8,0-1.7-0.1-2.5c0-1.3,0.1-2.5-0.1-3.8c-0.2-0.3,0.1-0.9-0.6-0.9c-0.6,0.3-0.2,1-0.5,1.5C48,5.5,46.7,7.1,47.6,8
		c0.3,0.7,0.2,1.4,0.2,2.1c-0.1,0.8,0.1,1.6,0.4,2.3c0,0.4,0,0.9,0,1.3c0,0.3,0,0.6-0.4,0.7s-0.5-0.3-0.5-0.5c0-1.5-1.4-2.5-1.2-4.1
		c0.2-1.5-0.1-3-0.1-4c-0.1,2.2,0.1,4.9,0.5,7.6c0.2,1.1,0,1.2-1,1c-0.2-0.2-0.2-0.5-0.2-0.8c0-3-0.1-5.9,0.1-8.9c0-0.5,0-1,0-1.5
		c0-0.1,0-0.3,0.1-0.4C45.5,2.7,45.6,2.6,45.6,2.6z"/>
	<path class="st3" d="M26,14.5l0.1-0.1c0.1-0.1,0.1-0.2,0.2-0.2c0.2-0.3,0.9,0,0.8-0.7c0-0.2,0-0.5,0-0.7c0-0.4,0-0.7,0.3-1.1
		c0.8,0,0.5,0.7,0.7,1c0.1,0.4,0,0.8,0.3,1.2c0.1,0.1,0.3,0.1,0.4,0.1c1,0,0.7-0.7,0.8-1.2c0-0.1,0-0.2,0.1-0.3
		c0.8-0.6,0.8-0.5,1.1,0.8c0,0.1,0,0.2,0,0.3c0,0.6,0.5,0.4,0.8,0.4c1.2,0,2.4,0,3.5,0c0.5,0,1,0,1.5,0s0.6-0.3,0.5-0.7
		c-0.1-0.4-0.2-0.8,0.2-1.1c0.2-0.1,0.4-0.2,0.6-0.3c0.4,0,0.7,0.2,0.8,0.6c0.2,0.5-0.1,1.2,0.6,1.5c0.5,0,1,0,1.6,0
		c0.2,0,0.5,0,0.7,0s0.4,0.1,0.5,0.2s0.1,0.2,0.1,0.3C36.7,14.6,31.3,14.6,26,14.5z"/>
	<path class="st4" d="M48,11.5c0.1,0,0.1,0,0.2,0c0.2,3.3,0.2,3.3-3.1,3.2c-0.1,0-0.2,0-0.2-0.1s0-0.2,0-0.3
		c0.1-0.1,0.2-0.1,0.3-0.2c0.2,0,0.3,0,0.4,0.1c0.6,0,0.7-0.1,0.6-0.8c-0.6-3.1-0.3-6.2-0.2-9.2c0.2,1.7,0.2,3.5,0.3,5.2
		c0.1,0.9,0.7,1.6,0.5,2.5c1.3,0.3,0.4,1.5,0.9,2.2c0.6-0.6,0.2-1.4,0.3-2C47.9,12,47.9,11.7,48,11.5z"/>
	<path class="st5" d="M3.4,2.2c2.2,0,4.5,0,6.7,0c0.9,0.2,1.7,0,2.6,0.1c0.4,0,0.8-0.2,1.1,0.2c-0.1,0.2-0.2,0.3-0.4,0.4
		c-0.6,0.1-1.3,0-2,0.2c-0.3,0.1-0.6,0.1-1,0.1c-0.5,0-1,0-1.5,0.1C8.7,3.4,8.4,3.4,8.1,3.4C7.3,3.3,6.6,3.6,5.8,3.5
		c-0.1,0-0.2-0.1-0.3-0.2C5,2.3,4,2.9,3.4,2.5C3.3,2.4,3.3,2.4,3.3,2.3C3.4,2.2,3.4,2.2,3.4,2.2z"/>
	<path class="st6" d="M23.8,2.3c0.6-0.2,1.3,0.3,1.9,0.1c0.7,1.6,1,3.2,1.4,4.9c0.1,0.2,0.1,0.5,0,0.7c0,0.1-0.1,0.2-0.2,0.3
		c-0.3,0.2-0.4,0-0.6-0.1C26,7.8,26,7.3,25.5,7c-0.1-0.1-0.3-0.2-0.4-0.3C25,6.6,25,6.5,25,6.4c0-0.2,0-0.4,0.2-0.5s0.2-0.3,0.2-0.5
		c-0.1-0.2,0-0.5-0.4-0.3c-0.2,0.1-0.4,0.3-0.6,0.2C24.1,5,24,4.6,24,4.2c0-0.5-0.2-1-0.3-1.4c0-0.1,0-0.2,0-0.3
		C23.8,2.4,23.8,2.4,23.8,2.3z"/>
	<path class="st7" d="M37,2.4c2.9,0,5.7-0.1,8.6,0.2v0.1c-0.8,0.1-1.7-0.1-2.5,0.2c-0.3,0-0.5,0-0.8,0c-0.2,0-0.4,0-0.6,0
		c-0.4,0-0.8,0-1.1,0s-0.6,0-0.9,0c-0.1,0-0.2,0-0.3,0c-0.8-0.1-1.4,0-1.8,0.8c-0.5,0.2,0,0.4,0,0.5c0.2,0.8-0.1,1.3-1,1.4
		c-0.2,0-0.3-0.1-0.5-0.2c0-0.3-0.1-0.5-0.2-0.8C36,3.8,35.8,2.8,37,2.4z"/>
	<path class="st8" d="M17.8,2.4c0.1,0.1,0.1,0.2,0.2,0.3c0.9,1,1.2,2.2,1.5,3.5c0,0.5,0,1-0.7,1c-1.2-0.8-1.3-2.2-1.9-3.4
		c0-0.5-0.3-1,0.3-1.4C17.5,2.4,17.6,2.4,17.8,2.4z"/>
	<path class="st9" d="M3.4,2.2c0,0.1,0,0.1,0,0.2C3.2,5.2,3.1,8,3.5,10.8c0.1,0.8,0.1,1.5,0,2.3c-0.1,0.2-0.2,0.4,0.1,0.6
		s0.1,0.4-0.1,0.5c-0.8,0.1-0.7-0.5-0.7-1c0-3,0-6,0-9c0-0.4,0.1-0.9-0.2-1.3C2.3,2,2.9,2.1,3.4,2.2z"/>
	<path class="st10" d="M21.9,2.4c0.7-0.1,1.3-0.5,2-0.1l0,0c-0.7,0.3-0.8,0.7-0.5,1.4c0.5,1.3,0.8,2.6,1.2,3.9c0,0.2,0.1,0.4,0,0.5
		c-0.1,0.5-0.4,0.6-0.8,0.3C23.4,8,23.3,7.5,23.2,7c-0.1-0.3-0.1-0.5-0.3-0.8c-0.2-0.5-0.4-0.9-0.6-1.4C22.1,4,21.5,3.3,21.9,2.4z"
		/>
	<path class="st11" d="M19.3,6.2C19.2,5,18.5,4,18.1,2.8c0.1-0.2,0.3-0.3,0.5-0.4C18.9,3,19.1,3.6,19.7,4C19.9,4.3,20,4.6,20,4.9
		c-0.1,0.6,0.2,1.1,0.7,1.4c0.3,0.3,0.5,0.6,0.4,1c0,0.2-0.5,0-0.2,0.4c0.2,0.3-0.1,0.6-0.4,0.7c-0.5-0.1-0.6-0.5-0.7-1
		C19.6,7,19.5,6.6,19.3,6.2z"/>
	<path class="st12" d="M17.8,2.4c-0.2,0.1-0.3,0.1-0.5,0.2c-0.6,0.4-0.1,0.8,0,1.2c0.3,1.2,0.9,2.3,1.5,3.4c0.4,0.2,0.5,0.5,0.4,0.9
		c0,0.1-0.1,0.2-0.2,0.3c-0.6,0.1-0.7-0.4-1-0.8c-0.1-0.1-0.1-0.3-0.2-0.4c-0.1-0.2-0.2-0.5-0.3-0.7c-0.3-0.4-0.5-0.9-0.7-1.4
		c-0.1-0.2-0.1-0.4-0.2-0.6c-0.2-0.6-0.6-1-0.7-1.6c0-0.1,0.1-0.2,0.2-0.3C16.7,2.6,17.2,1.9,17.8,2.4z"/>
	<path class="st13" d="M16.8,4.5C17,4.6,17,4.8,17,5c-0.1,0.6,0.3,1,0.6,1.4c0.1,0.2,0.2,0.5,0.3,0.8c0,0.3-0.1,0.5-0.4,0.5
		c-0.8-0.8-1.3-1.8-1.7-2.8c-0.3-0.7-0.5-1.3-0.9-1.9c-0.2-0.3-0.5-0.5-0.3-0.9c0.5-0.1,1.1,0,1.5,0.4c0,0.1,0,0.2,0,0.3
		C16,3.6,16.5,4,16.8,4.5z"/>
	<path class="st14" d="M21.9,2.4c0.2,0.8,0.5,1.6,0.7,2.4c-0.3,0.6,0.4,1.1,0.2,1.7c0,0.1-0.1,0.2-0.2,0.3c-0.1,0-0.2,0-0.3,0
		c-0.4-0.4-0.5-0.9-0.7-1.4c-0.1-0.5-0.4-0.9-0.5-1.4c-0.1-0.4-0.3-0.8-0.3-1.3c0-0.1,0.1-0.2,0.1-0.3C21.2,2.4,21.5,2.4,21.9,2.4z"
		/>
	<path class="st15" d="M19.7,5c-0.1-0.3-0.2-0.6-0.2-0.9c-0.2-0.2-0.5-0.4-0.2-0.7c0.2,0,0.4,0.3,0.5,0c1.1,0.4,0.8,1.6,1.3,2.3
		c0.1,0.4,0.3,0.9,0.5,1.3c0.1,0.3,0.2,0.7,0.3,1c0,0.3-0.1,0.5-0.4,0.5c-0.5-0.2-0.6-0.6-0.5-1c0-0.4-0.1-0.7-0.4-1
		C20,6.1,19.9,5.5,19.7,5z"/>
	<path class="st16" d="M29.8,2.4c1.4,0,2.7,0,4.1,0c0,0.1,0,0.1,0,0.2l-0.1,0.1c-0.1,0.1-0.2,0.1-0.3,0.1c-0.2,0-0.3,0-0.5,0.1
		c-0.5,0-0.9,0-1,0.6c-0.2,0.1-0.5,0.1-0.6,0.4c-0.2,0.2-0.5,0.2-0.7,0.2c-0.3,0-0.5-0.3-0.6-0.5c-0.2-0.3-0.4-0.6-0.5-1
		C29.7,2.6,29.7,2.5,29.8,2.4z"/>
	<path class="st17" d="M26.9,7.4c-0.4-1.7-1.1-3.3-1.2-5c0.4,0.1,0.9-0.3,1.2,0.2c0.1,1.2,0,2.3,0.2,3.5C27.2,6.6,27.3,7.1,26.9,7.4
		z"/>
	<path class="st18" d="M26.9,7.4c-0.1-1.4-0.2-2.8-0.3-4.2c0-0.3,0-0.5,0.3-0.6c0,0.1,0.1,0.1,0.1,0.2c0.4,0.5,0.8,1.1,0.6,1.8
		c-0.4,0.8,0,1.5,0.1,2.3c-0.1,0.5,0.4,1.3-0.7,1.2C27,7.9,26.9,7.7,26.9,7.4z"/>
	<path class="st19" d="M20.9,5.8c-0.6-0.7-0.5-1.8-1.1-2.5c-0.5-1.5,0.6-0.9,1.2-0.9c0,0.1,0,0.2,0,0.2c0.1,0.2-0.8,0-0.2,0.5
		c0.4,0.3,0.4,1,0.5,1.5c0,0.1,0.1,0.2,0.1,0.3C21.3,5.3,21.2,5.6,20.9,5.8z"/>
	<path class="st20" d="M35.1,2.5c0.1,0,0.3,0,0.4,0C35.8,2.6,35.9,2.8,36,3c0.1,0.4,0,0.9,0,1.3c0,0.3,0,0.5-0.2,0.7
		c-0.1,0.1-0.2,0.1-0.3,0.1c-0.2-0.3,0-0.6-0.2-1.1c0,0.6,0.2,1.1,0,1.5c-0.7-0.1-0.6-0.6-0.7-1.1c0-0.3,0.1-0.6,0.1-0.9
		C34.8,3.1,34.8,2.7,35.1,2.5z"/>
	<path class="st21" d="M14.7,2.2c0,0.4,0.3,0.4,0.5,0.7c-0.3,0.3-0.6,0.4-1,0.6c-0.4-0.1-0.5-0.5-0.5-0.8c-1.1-0.5-2.4,0-3.6-0.4
		C11.6,2.2,13.2,2.2,14.7,2.2z"/>
	<path class="st22" d="M35.1,2.5c0,0.4,0,0.8,0,1.2c-0.1,0.2-0.3,0.4-0.5,0.4c-0.3,0-0.6-0.2-0.8-0.4c-0.2-0.3-0.4-0.6,0-1
		c0.1,0,0.1,0,0.2,0l0,0c0-0.1,0-0.2,0-0.2C34.3,2.4,34.7,2.4,35.1,2.5z"/>
	<path class="st23" d="M29.8,2.4c0,0.1,0,0.1,0,0.2c-0.4,0.3-0.3,0.7-0.3,1.2c0.1,0.8,0.4,1.5,0.1,2.3c-0.1,0.1-0.2,0.2-0.3,0.1
		S29.1,6,29,5.9c-0.4-1-0.4-2.1-0.6-3.1c0-0.2,0-0.4,0.2-0.5C29,2.4,29.4,2.4,29.8,2.4z"/>
	<path class="st24" d="M27.4,4.8C27.5,4.1,27,3.5,27,2.9c0.1,0,0.3,0,0.4,0c0.5,0,0.5,0.5,0.7,0.8c0.1,0.4,0.1,0.8,0,1.1
		c-0.1,0.3-0.3,0.4-0.6,0.3C27.3,5,27.3,4.9,27.4,4.8z"/>
	<path class="st25" d="M42,14.6c0-0.1,0-0.2,0-0.2c0-0.1,0-0.1,0-0.2c-0.1-0.9-0.1-1.8,0-2.7c0-0.4-0.1-0.9,0.6-1
		c0.4,0.5,0.2,1.2,0.2,1.8c0,0.6,0,1.3,0,1.9c0,0.1,0,0.1,0,0.2s0,0.2,0,0.2C42.5,14.6,42.3,14.6,42,14.6z"/>
	<path class="st26" d="M35.8,2.8c-0.1-0.1-0.2-0.3-0.3-0.4c0.5,0,1,0,1.5,0c-0.8,0.6-0.7,1.5-0.8,2.3c-0.4,0.1-0.3-0.3-0.3-0.5
		C35.9,3.8,36,3.3,35.8,2.8z"/>
	<path class="st27" d="M19.2,3.3c0.1,0.2,0.2,0.5,0.2,0.7c-0.8-0.3-0.9-1-0.9-1.7C19,2.5,19,3,19.2,3.3z"/>
	<path class="st28" d="M28.7,2.4c0,0.1,0,0.3,0,0.4c0.2,0.4,0.1,0.7-0.3,0.8c-0.6-0.2-0.5-0.7-0.4-1.2C28.1,2.4,28.4,2.4,28.7,2.4z"
		/>
	<path class="st29" d="M27.8,2.4c0.1,0.4,0.2,0.8,0.3,1.2c-0.1,0.1-0.1,0.1-0.2,0c-0.2-0.2-0.3-0.5-0.5-0.7
		C27.4,2.6,27.5,2.4,27.8,2.4z"/>
	<path class="st30" d="M3.4,14.1c0.5-0.4-0.5-0.4-0.2-0.7c0.2-0.2,0.1-0.5,0.1-0.8s-0.1-1,0.6-0.4c0.2,0.2,0.3-0.2,0.3-0.4
		c0.3-0.7,0.5-1.4,0.6-2.2c0-1,0.5-1.9,0.9-2.7c0.2-0.4,0.7-0.6,0.7-1.3C6.5,5,7,5.8,7.3,5.6c0.3,0,0.5,0.3,0.6,0.5
		C8.3,6.9,9,7.5,9.3,8.4c0,0.1,0,0.2-0.1,0.3c-1.4,0.9-1.1,2.7-1.7,3.9c-0.3,0.5-0.5,1-1,0.8c0.1,0,0.4-0.1,0.6,0.2
		c-0.4,0.4-0.9,0-1.2,0.3C5,14.1,4.2,14.1,3.4,14.1z"/>
	<path class="st31" d="M16.4,14.1c-1.6,0-3.2,0-4.8,0c0.2-0.8,0.9-0.5,1.4-0.5c1,0,1.5-0.4,1.5-1.4c0-0.6,0.4-1.2,0.1-1.9
		c-0.8-0.5-1.8,0.1-2.6-0.4c-0.1-0.1-0.1-0.2,0-0.4c0.2-0.2,0.5-0.2,0.8-0.3c0.4,0,0.7,0,1.1,0c1.4,0.1,2.8-0.1,4.2-0.2
		c0.5,0,1-0.1,1.5,0.2c0.4,0.3,0.1,0.7-0.1,0.7c-1.3,0.4-1.3,1.5-1.5,2.5C17.6,13.3,17.3,13.9,16.4,14.1z"/>
	<path class="st32" d="M23.1,9.1c0.6,0,1.1,0,1.7,0v0.1c-0.3,0.1-0.6,0.2-0.9,0.2c-0.5,0-0.7,0.3-0.8,0.8C23,11.1,22.7,12,22.5,13
		c-0.2,0.9-0.6,1.2-1.5,1.1c-0.6-0.1-1.2,0-1.8,0c0.4-0.9,0.6-1.9,0.7-2.9c0-0.6,0.1-1.3,0.6-1.7c0.5,0.1,0.2-0.6,0.6-0.7
		C21.8,8.8,22.5,8.6,23.1,9.1z"/>
	<path class="st33" d="M14.7,10.1c0,0.3,0,0.6,0.3,0.7c0.1,0.1,0.4,0.2,0.3,0.3c-1,0.5-0.4,1.5-0.6,2.2c-0.2,0.5-0.5,0.6-1,0.7
		c-0.7,0-1.4-0.3-2.1,0.2c-0.6,0-1.1,0-1.7,0c1-0.7,1.7-1.5,1.2-2.8c0-0.1,0.2-0.3,0-0.6c-0.2-0.3,0.4-0.5,0.7-0.6
		C12.8,9.9,13.7,9.8,14.7,10.1z"/>
	<path class="st34" d="M20.7,9.6c-0.8,1.1-0.5,2.4-0.7,3.6c-0.1,0.7-0.6,0.7-0.8,1c-1,0-1.9,0-2.9,0c1.4-0.6,0.9-2.1,1.3-3.1
		c0.3-0.7,0.3-1.3,1.3-1.2c0.2,0,0.4-0.2,0.5-0.5C19.6,9,20,8.9,20.4,9C20.9,9.1,20.7,9.3,20.7,9.6z"/>
	<path class="st35" d="M5.8,14.1c0.2-0.3,0.7-0.2,1.1-0.4c-0.4-0.1-0.7-0.1-0.9-0.2c1.4-0.4,1.6-1.7,1.6-2.8C7.7,9.5,8.3,9,9.2,8.5
		c0.7,0,0.6,0.8,1.1,1.1c0.9,0.3,0,1,0.3,1.4c-0.9,0.6-0.9,1.7-1.7,2.3c-0.1,0.1-0.2,0.1-0.2,0.1c0.3,0,0.8-0.3,1,0.3
		c-0.6,0.4-1.3-0.1-1.9,0.3C7.1,14.1,6.4,14.1,5.8,14.1z"/>
	<path class="st36" d="M7.7,14.1c0.5-0.5,1.2,0,1.8-0.4c-0.6,0-1-0.1-1.5-0.1c0.9-0.1,1.1-0.9,1.5-1.6c0.2-0.4-0.1-1.2,0.8-0.9
		c-0.5-0.4,0.6-1-0.2-1.3l0.1-0.1c0.5-0.2,1-0.3,1.5,0.1c1,0,1.9,0,2.9,0.1l0.1,0.1v0.1c-1.1,0-2.3-0.2-3.4,0.5
		c0.2,0.4,0.6,0.1,0.9,0.3V11c-0.6,0.1-1,0.1-0.7,1c0.4,1.3,0.1,1.6-1.6,2.2C9.2,14.1,8.4,14.1,7.7,14.1z"/>
	<path class="st37" d="M26.3,14.3c-0.1,0-0.1,0-0.2,0c-0.3-0.2-0.3-0.5-0.3-0.9c0.3-1.5,0.1-3.1,0.1-4.6L26,8.7
		c0.2-0.1,0.3,0,0.5,0.1c0.1,0.6,0.5,1,1.2,1c-0.2,0.6,0.5,0.4,0.7,0.7c0.3,0.4,0.2,0.9,0.1,1.3c-0.1,0.2-0.2,0.4-0.4,0.5
		c-0.4-0.1-0.2-0.6-0.5-0.8c-0.2-0.3-0.4-0.5-0.9-0.3c-0.3,0.8-0.3,1.6,0.3,2.3C27,14,26.5,14,26.3,14.3z"/>
	<path class="st38" d="M20.7,9.1c-0.4,0.1-0.8,0.1-1.2,0.2c-2-0.1-4,0.4-6,0.2c-0.1-0.1-0.1-0.2,0-0.3C13.6,9.1,13.8,9,14,9
		c0.1,0,0.2,0,0.3,0c0.6,0,1.2,0.1,1.8-0.1c0.1,0,0.2-0.1,0.3-0.1c0.2-0.1,0.4-0.1,0.6-0.2c0.3-0.1,0.5-0.1,0.8,0
		c0.2,0.1,0.5,0.1,0.8,0.1c0.1,0,0.2,0,0.3,0c0.2,0,0.4,0,0.6-0.1c0.3-0.1,0.6-0.1,0.9-0.1c0.3-0.1,0.7,0.1,1,0.1
		c0.5-0.1,1-0.1,1.4,0.1l0.1,0.1c0,0.1,0,0.1,0,0.2c-0.7,0-1.4,0-2.1,0.1C20.8,9.2,20.8,9.2,20.7,9.1z"/>
	<path class="st39" d="M25.3,6.7c0.2,0,0.3,0,0.5,0c0.3,0.5,0.5,1,0.6,1.6c0.1,0.3-0.1,0.4-0.3,0.6l0,0c-0.1,0-0.2,0-0.2-0.1
		c-0.2-0.1-0.3-0.2-0.4-0.3c-0.1-0.4-0.2-0.8-0.3-1.2C25,7.1,25,6.9,25.3,6.7z"/>
	<path class="st40" d="M25.4,8.6c0.1,0.1,0.2,0.2,0.3,0.2c-0.7,0-1.4,0-2.1,0c-0.1-0.1-0.1-0.3-0.1-0.4c0.1-0.1,0.2-0.1,0.3,0
		c0.3,0.1,0.5,0.2,0.5-0.3c0.2-0.1,0.3,0,0.4,0.1C25,8.3,25.2,8.4,25.4,8.6z"/>
	<path class="st10" d="M23.6,8.4c0,0.1,0,0.3,0,0.4c-0.2,0-0.3,0-0.5,0l0,0c-0.3-0.2-0.3-0.6-0.4-0.9c0-0.1,0-0.2,0-0.4
		c0.1-0.2,0.1-0.5,0.4-0.4C23.4,7.5,23.5,7.9,23.6,8.4z"/>
	<path class="st41" d="M45.2,14.4c-0.1,0-0.1,0-0.2,0c-0.9-0.3-0.5-1-0.4-1.5C45,11,44.7,9.1,45,7.2c0.2-1.4,0.4-2.9,0.3-4.4
		c0.2-0.1,0.3-0.2,0.5,0c0,0.5,0,0.9,0,1.4c-0.3,2.6,0,5.2-0.1,7.8C45.5,12.8,45.5,13.6,45.2,14.4z"/>
	<path class="st42" d="M45.6,2.9c-0.2,0-0.3,0-0.5,0c-1.1-0.2-1.5,0.3-1.5,1.4c0.1,2.2,0,4.4-0.1,6.6c-0.7-1.2,0-2.5-0.6-3.7
		c-0.2-0.1-0.2-0.3-0.3-0.5c0-1.3-0.3-2.7,0.3-4c0.9,0,1.8,0,2.6,0C45.6,2.8,45.6,2.8,45.6,2.9z"/>
	<path class="st43" d="M43,6.7c0,0.2,0,0.3,0,0.5c0,2,0,4,0,6c0,0.4,0.2,0.9-0.2,1.2l0,0c-0.2-0.7-0.1-1.3-0.1-2
		c0.1-1.5-0.4-3-0.2-4.4C42.5,7.5,42.3,6.9,43,6.7z"/>
	<path class="st44" d="M47.6,10.1c0-0.7,0-1.5-0.2-2.2c-0.2-1.4-0.3-2.8-0.6-4.2c-0.1-0.3,0.1-0.6,0.3-0.9c0.8-0.1,0.7,0.5,0.7,1
		c0.3,1.3-0.1,2.7,0.2,4.1c0,0.9,0,1.8,0,2.6C47.6,10.7,47.8,10.2,47.6,10.1z"/>
	<path class="st1" d="M45.2,14.4c0.4-3,0.2-6,0.3-9.1c0-0.3-0.1-0.7,0.2-1c0,3.4,0,6.7,0,10.1C45.5,14.4,45.3,14.4,45.2,14.4z"/>
	<path class="st42" d="M47.1,2.9c0.1,1.7,0.2,3.4,0.2,5c-0.5-0.3-0.5-0.7-0.4-1.2C47.1,6,47.1,6,46.4,5.2C46,4.8,46.5,3.2,47.1,2.9z
		"/>
	<path class="st42" d="M48,7.9c-0.5-1.3-0.1-2.7-0.2-4.1C48.3,5.2,47.9,6.5,48,7.9z"/>
	<path class="st42" d="M47.6,10.1c0.2,0.2,0.3,0.3,0.5,0.5c0,0.3,0,0.6,0,1c0,0.2,0,0.5,0,0.7C47.5,11.6,47.5,10.8,47.6,10.1z"/>
	<path class="st45" d="M41.6,14.4c-0.2,0-0.5,0-0.7,0c-0.1-0.9-0.2-1.9-0.4-2.8c-0.1-1.4-0.5-2.8-0.1-4.2C40.6,7,40.8,7.2,41,7.5
		c0.2,0.3,0.3,0.7,0.6,1c0,0.1,0.2,0,0.1,0c-0.3-0.3-0.3-0.6,0.2-0.8c0.6,0.5,0.3,1.1,0.4,1.7c0.1,0.7-0.3,1.3-0.2,2
		c-0.2,0.4-0.4,0.3-0.4,0c-0.1-0.5,0-0.9,0-1.2c0-0.3-0.2-0.1-0.1-0.2c0.2,0.6-0.2,1.4,0.4,1.9c0.3,0.3,0,0.7,0.1,1.1
		C41.9,13.4,42,14,41.6,14.4z"/>
	<path class="st46" d="M35.1,14.4c-1.4,0-2.7,0-4.1,0c-0.3-0.2-0.8-0.1-0.5-0.7l0,0c0.3-0.3,0.5-0.7,0.9-0.8c0.2,0,0.4,0,0.6-0.1
		c0.3-0.2,0.6-0.6,0.8,0c0-0.3-0.2-0.7-0.1-1.1c0.1-0.4,0.1-0.8,0.5-1.1c0.4,0,0.4,0.4,0.5,0.7c0,0.4,0,0.7,0,1.1
		c0,0.5-0.2,0.9,0,1.4c0.1,0.5,0.4,0.1,0.6,0.2C34.7,13.9,35.1,13.8,35.1,14.4z"/>
	<path class="st47" d="M37.2,12.4c-0.4,0.4,0,0.8,0.1,1.2c0.1,0.5,0,0.7-0.5,0.8c-0.4-0.8-1.3-1.2-1.8-2c-0.2-0.2-0.3-0.4-0.3-0.6
		c0.4-1,0.9-1.1,2.4-0.6C37.4,11.6,37.6,12,37.2,12.4z"/>
	<path class="st48" d="M40.8,11.7c0.1,0.9,0.6,1.7,0,2.6c-0.6,0-1.3,0-1.9,0c-0.3-1.1-0.1-1.3,1-1.2c-0.4-0.4-1,0.3-1.3-0.4
		c0.1-0.2,0.2-0.4,0.4-0.5c0.4-0.3,0.9-0.3,1.4-0.5C40.5,11.7,40.7,11.7,40.8,11.7z"/>
	<path class="st49" d="M35.1,12.5c0.1,0,0.1-0.1,0.2-0.1c0.4,0.1,1.5,1.6,1.5,2c-0.6,0-1.1,0-1.7,0c-0.3-0.7-0.9-0.2-1.3-0.2
		c-0.8-0.1-0.2-0.3-0.1-0.5c-0.2-0.3-0.2-0.5,0.1-0.8c0.4-0.2,1,0.6,1.3-0.3C35,12.5,35,12.5,35.1,12.5z"/>
	<path class="st50" d="M39.2,12.5c-0.1,0.2-0.3,0.2-0.5,0.2c-0.1,0.1-0.1,0.1-0.2,0c-0.1-0.3-0.4-0.5-0.7-0.5
		c-0.4-0.5-0.2-1.1-0.3-1.7c0-0.4,0.1-0.7,0.4-1c0.1-0.1,0.2-0.1,0.3,0c0.3,0.3,0.7,0.5,1,0.8C39.3,11,39.7,11.7,39.2,12.5z"/>
	<path class="st51" d="M29.8,12.9c0.1,0.9,0,1.6-1.2,1.4c-0.3-0.2-0.5-0.4-0.6-0.8c0.2-0.6,0.2-1.3,0.8-1.7c0.1-0.1,0.3-0.2,0.4-0.1
		c0.1,0.1,0.1,0.2,0.2,0.3C29.6,12.3,29.5,12.7,29.8,12.9z"/>
	<path class="st52" d="M37.7,10.5c0,0.6,0.2,1.1,0,1.7c-0.2,0.1-0.4,0.2-0.5,0.2c-0.1-0.4-0.1-0.8-0.2-1.2c-0.4-0.4-0.3-1-0.3-1.5
		c0-0.1,0-0.3,0-0.4c0-0.3,0.1-0.5,0.2-0.7c0.2,0.1,0.5,0.3,0.4-0.3c-0.1-0.3,0-0.6,0.3-0.8C38.2,7.8,38,8.4,38,8.9
		C38,9.5,37.3,9.9,37.7,10.5z"/>
	<path class="st51" d="M31.5,12.9c-0.3,0.2-0.4,0.8-1,0.7c-0.1-0.4-0.1-0.8-0.3-1.1c-0.3-0.5-0.4-0.1-0.4,0.1
		c-0.5,0-0.3-0.4-0.4-0.6c0.2-0.5,0.6-0.8,0.6-1.4c0-0.2,0.1-0.3,0.2-0.5c0.3-0.1,0.4,0,0.6,0.2c0.2,0.7,0,1.5,0.7,2
		C31.6,12.7,31.6,12.8,31.5,12.9z"/>
	<path class="st53" d="M38.5,12.7c0.1,0,0.1,0,0.2,0c0.5,0.5,1.1,0.1,1.9,0.4c-0.8,0.3-1.8,0.1-1.6,1.3C38.1,14,38.4,13.3,38.5,12.7
		z"/>
	<path class="st54" d="M26.9,13.7c-1.2-0.8-0.7-1.8-0.5-2.9c0.2,0.2,0.3,0.4,0.3,0.6c0.1,0.6,0,1.2,0.6,1.6c0,0.2,0,0.5,0,0.7
		C27.2,13.8,27.1,13.8,26.9,13.7z"/>
	<path class="st54" d="M29.1,12c-0.6,0.4-0.5,1.2-1,1.7c0.2,0.2,0.2,0.4,0,0.7c-0.5-0.4-0.2-0.9-0.3-1.4c-0.1-0.3,0-0.5,0.2-0.7
		c0.1-0.2,0.2-0.3,0.2-0.5C28.7,11.5,28.9,11.7,29.1,12z"/>
	<path class="st55" d="M27.4,12.9c-1.3,0.2-0.6-1-0.9-1.4c0.4,0,0.7-0.2,1.1-0.1c0,0.1,0,0.2-0.1,0.3C27.4,12.1,27.4,12.5,27.4,12.9
		z"/>
	<path class="st56" d="M26.9,13.7c0.2,0,0.3,0,0.5,0c0,0.2,0.6,0.7-0.2,0.6c-0.3,0-0.6,0.1-0.9,0.1C26.2,13.8,26.7,13.8,26.9,13.7z"
		/>
	<path class="st57" d="M41.6,14.4c0.1-0.5-0.1-1.1,0.4-1.4c0.2,0.5,0.2,1,0,1.4l0,0C41.9,14.4,41.7,14.4,41.6,14.4z"/>
	<path class="st58" d="M27.4,11.7c0-0.1,0-0.1,0-0.2s0.1-0.2,0.2,0c0.2,0.2,0.3,0.5,0.5,0.7c-0.1,0.2-0.2,0.5-0.2,0.7
		C27.4,12.7,27.8,12,27.4,11.7z"/>
	<path class="st59" d="M29.6,12c0,0.3,0,0.6,0.2,0.7c0,0.1,0,0.2,0,0.2c-0.6-0.1-0.4-0.6-0.5-1C29.4,11.9,29.5,11.9,29.6,12z"/>
	<path class="st60" d="M28.2,14.3c0-0.2,0-0.4,0-0.7c0.3,0.1,0.5,0.3,0.5,0.7C28.4,14.3,28.3,14.3,28.2,14.3z"/>
	<path class="st51" d="M30.5,13.7c0,0.4,0.3,0.5,0.5,0.7C30.5,14.4,30,14.3,30.5,13.7z"/>
	<path class="st61" d="M7.2,5.7c-0.1,0-0.4,0.9-0.4,1C6.7,6.8,6.7,7,6.5,7.1C5.4,7.8,5.2,8.2,5,9.9c-0.1,1.2-0.5,2.2-1.2,3.2
		c-0.4-0.2-0.1-0.6-0.4-0.8c-0.2,0.4,0.1,0.9-0.3,1.2c0-3.4-0.4-6.8-0.2-10.1c0-0.4-0.1-0.8,0.5-0.9c0.5,0,1,0,1.5,0
		s0.9,0.1,0.8,0.7c-0.3,0.3,0,0.4,0.2,0.6s0.4,0.4,0.5,0.6C6.8,4.7,7.4,5,7.2,5.7z"/>
	<path class="st62" d="M17.1,8.9c-0.1,0.2-0.3,0.2-0.5,0.2c-0.4-0.4-0.7-0.8-0.9-1.3c-0.2-0.3-0.2-0.7-0.5-1
		c-0.3-0.4-0.6-0.8-0.7-1.2c-0.1-0.2-0.2-0.4-0.3-0.6c-0.3-0.8-1-1.3-1.1-2.1c0-0.1,0.1-0.2,0.1-0.3c0.1,0,0.3,0,0.4-0.1
		c0.2,0.3,0.3,0.5,0.5,0.8c1.1,0.7,1.2,2.1,1.9,3C16.3,7.3,17.1,7.9,17.1,8.9z"/>
	<path class="st63" d="M13.2,2.6c0,0.1,0,0.2,0,0.3c0.1,0.9,0.7,1.5,1.2,2.1c0.1,0.2,0.2,0.3,0.3,0.5c-0.1,0.6,0.4,0.9,0.6,1.4
		c0,0.1,0,0.2-0.1,0.3c-0.1,0.1-0.2,0.1-0.3,0.1c-0.5-0.2-0.7-0.5-0.9-0.9c-0.4-0.9-1.1-1.5-1.4-2.4c-0.2-0.7-0.8-0.3-1.2-0.3
		c-0.3-0.2-0.2-0.5,0-0.8C11.9,2.5,12.6,2.6,13.2,2.6z"/>
	<path class="st64" d="M8.9,3.1c0.5-0.3,1-0.2,1.5-0.2C10.6,3,11,3,11,3.3c0.1,0.5,0.2,1,0.8,1.2c0.1,0,0.3-0.1,0.4-0.1
		c0.2,0.1,0.3,0.3,0.3,0.5s-0.1,0.4-0.2,0.6c0,0.4,0.3,0.8,0.2,1.2c0,0.2-0.1,0.3-0.2,0.5c-0.6,0-0.7-0.5-1-0.9
		c-0.7-1.1-1.1-2.4-2.5-3C8.8,3.3,8.8,3.2,8.9,3.1z"/>
	<path class="st65" d="M6.3,4.3C6.2,4.1,6,4,5.9,3.8c-0.2-0.1-0.2-0.3,0-0.4c0.8-0.2,1.6-0.3,2.4-0.2c0.2,0.1,0.3,0.2,0.3,0.5
		c-0.1,0.7,0.5,1,0.8,1.5c0.1,0.2,0.2,0.4,0.3,0.6c0,0.1,0,0.2-0.1,0.3C9.5,6.2,9.4,6.2,9.3,6.2C9.1,6.2,9,6.1,8.9,6
		C8.5,5.5,8.1,4.9,7.7,4.4C7.5,4.1,7.2,4.1,6.9,4.3C6.6,4.2,6.4,4.3,6.3,4.3z"/>
	<path class="st66" d="M10.8,3.3c-0.2-0.1-0.3-0.3-0.5-0.4c0.3,0,0.6-0.1,0.9-0.1c0,0.3,0,0.6,0.2,0.8c0.5,0.2,0.8,0.4,0.5,0.9
		c-0.1,0.1-0.2,0.2-0.3,0.3C11.2,4.5,10.9,4,10.8,3.3z"/>
	<path class="st67" d="M8.4,3.6C8.3,3.4,8.2,3.3,8.2,3.1c0.2,0,0.5,0,0.7-0.1c0,0.1,0,0.2,0,0.3c0.4,0.4,0.8,0.8,0.8,1.4
		C9.6,4.9,9.5,5,9.3,5C8.9,4.7,8.4,4.3,8.4,3.6z"/>
	<path class="st9" d="M5.8,3.4c0,0.1,0,0.3,0,0.4C5.5,3.7,5.2,3.5,5.3,3.2c0-0.3,0.3-0.1,0.4-0.1C5.8,3.2,5.8,3.3,5.8,3.4z"/>
	<path class="st68" d="M24.3,7.7c-0.5-1.4-0.9-2.7-1.4-4.1c-0.4-1-0.1-1.4,0.9-1.2c0,0.1,0,0.1,0,0.2c-0.1,0.7,0.3,1.4,0.3,2.1
		c0,0.1,0.1,0.2,0.1,0.3c0,0.5,0,1.1,0.2,1.6c0,0.1,0.1,0.2,0.1,0.3C24.5,7.2,24.5,7.5,24.3,7.7z"/>
	<path class="st69" d="M27,8.1c0.7-0.3,0.3-0.9,0.4-1.4c0.1-0.2,0.3-0.4,0.6-0.3s0.3,0.4,0.4,0.6c0.1,1.5,0,1.7-1.3,1.5L27,8.4
		C27,8.3,27,8.2,27,8.1z"/>
	<path class="st70" d="M24.1,5c0-0.1,0-0.2,0-0.2c-0.1-0.3-0.3-0.6,0.2-0.7c-0.1,0.4,0.3,0.8,0.3,1.2c0.6,0.3,0.5,0.8,0.5,1.3
		c0,0.3,0.1,0.6-0.2,0.7c-0.5,0.2-0.4-0.4-0.6-0.5l0,0C24.2,6.1,24.2,5.6,24.1,5z"/>
	<path class="st71" d="M24.3,6.7C24.9,7.4,25,7,25.1,6.4c0.1,0,0.1,0,0.2,0.1c0,0.1,0,0.1,0,0.2c0,0.2,0,0.5,0,0.7
		c-0.1,0.4,0.2,1.2-0.7,1c-0.1-0.1-0.2-0.2-0.3-0.3c0-0.1,0-0.3,0-0.4C24.3,7.4,24.3,7,24.3,6.7z"/>
	<path class="st72" d="M25.2,6.5c-0.1,0-0.1-0.1-0.2-0.1c-0.1-0.4-0.3-0.8-0.4-1.2c0.4-0.1,0.3-0.6,0.6-0.8c0.4,0.3,0.5,0.7,0.5,1.1
		c-0.2,0.1-0.3,0-0.3-0.2c-0.1,0.2,0.3,0.5,0,0.7C25.4,6.2,25.3,6.3,25.2,6.5z"/>
	<path class="st71" d="M24.3,4.1c-0.3,0.2-0.2,0.5-0.2,0.7c-0.1-0.7-0.9-1.4-0.2-2.2C24.1,3.1,24.3,3.5,24.3,4.1z"/>
	<path class="st73" d="M26.2,8.4c-0.4-0.5-0.5-1.1-0.5-1.7c0.6,0.3,0.7,0.9,0.7,1.4C26.5,8.4,26.4,8.4,26.2,8.4z"/>
	<path class="st74" d="M25.4,6c0-0.3-0.3-0.5-0.1-0.7s0.2,0.2,0.4,0.3C25.8,5.8,26,6,25.9,6.2C25.7,6.3,25.6,6.1,25.4,6z"/>
	<path class="st75" d="M26.2,8.4c0.1-0.1,0.1-0.2,0.2-0.2c0.2,0.1,0.3,0.1,0.5,0.2l0,0C27,8.5,27,8.6,27,8.7c0,0.1-0.1,0.2-0.2,0.3
		c-0.2,0.1-0.3,0.1-0.5,0c-0.2,0-0.3,0-0.5,0C26,8.7,26.1,8.5,26.2,8.4z"/>
	<path class="st76" d="M24.7,3.6c-0.3-0.3-0.2-0.6-0.3-0.9c0.5,0.1,0.5,0.4,0.6,0.7C24.9,3.4,24.9,3.6,24.7,3.6z"/>
	<path class="st77" d="M24.7,3.6c0.1-0.1,0.2-0.2,0.3-0.3c0.1,0.2,0.4,0.4,0.2,0.6C24.9,4.1,24.8,3.8,24.7,3.6z"/>
	<path class="st78" d="M37.5,3.8c0.1-1.3,1-1.3,1.9-1.2c0.2,0.3,0.1,0.4-0.2,0.5c-0.3,0.2-0.6,0.4-0.6,0.8c0.3-0.1,0.2-0.4,0.4-0.5
		c0.6-0.6,0.8-0.1,0.9,0.4C40,4.4,39.8,5,39.8,5.7c0,0.1,0,0.2,0,0.4c-0.1,0.2-0.2,0.4-0.4,0.5c-0.6,0.9-1.2,0.5-1.9,0.1
		c-0.1,0-0.2-0.1-0.3-0.1c-0.2-0.1-0.4-0.2-0.6-0.4c-0.2-0.2-0.4-0.5-0.1-0.8C37.5,5.3,37.6,4.7,37.5,3.8C37.4,4,37.4,4,37.5,3.8
		C37.4,3.8,37.5,3.8,37.5,3.8z"/>
	<path class="st79" d="M43,6.7c-0.5,1.1-0.1,2.2-0.2,3.3c-0.1,0.8,0,1.7,0,2.5c-0.1,0.1-0.1,0.1-0.2,0c0-0.6,0-1.3,0-1.9
		c-0.4-0.6-0.2-1.2-0.2-1.9c0-0.9-0.1-1.9-0.2-2.8c-0.1-0.4-0.1-0.8-0.1-1.1c0-0.2,0-0.3,0-0.5c0.1-0.3,0.1-0.6,0.1-1
		c0-0.2,0-0.4,0.2-0.6c0.2,0,0.4,0,0.7,0C43,4,43,5.4,43,6.7z"/>
	<path class="st80" d="M37.2,6.5c0.1,0,0.2,0,0.3,0c0.8,0.3,0.6,0.7,0,1c-0.2,0.1-0.3,0.1-0.5,0c-0.5-0.4-1-0.2-1.5-0.2
		c-0.1,0-0.2-0.1-0.3-0.2S35.1,6.8,35,6.6c0-0.2,0-0.5,0-0.7c0-0.1,0.1-0.2,0.2-0.3c0.7,0,0-0.6,0.3-0.7c0.1,0,0.2,0,0.2,0
		C36,4.8,36.1,5,36.2,5.1s0.2,0.2,0.2,0.3c0.1,0.2,0.2,0.5,0.2,0.7C36.8,6.5,37,6.5,37.2,6.5z"/>
	<path class="st81" d="M38.5,4.5c-0.6-0.6-0.2-1,0.3-1.3C39,3,39.4,3.1,39.4,2.7c0.1,0,0.1,0,0.2,0c0.3,0.2,0.5,0.5,0.8,0.8
		c0.1,0.2,0.1,0.5,0.1,0.7c0,0.1,0,0.2-0.1,0.3C40.1,5,40.2,5.7,39.6,6c-0.4-0.7,0.3-1.4,0-2.2c-0.2-0.6-0.3-0.4-0.5,0
		C39,4.1,38.7,4.3,38.5,4.5z"/>
	<path class="st82" d="M40.4,3.6c-0.6-0.1-0.6-0.6-0.8-1c0.3,0,0.7,0,1,0c0.1,0.1,0.1,0.2,0.2,0.3C40.8,3.3,40.8,3.6,40.4,3.6z"/>
	<path class="st83" d="M40.6,2.9c0-0.1,0-0.1,0-0.2c0.4,0,0.8,0,1.1,0c0.2,0.2,0.4,0.4,0.3,0.7C41.6,3.3,40.9,3.5,40.6,2.9z"/>
	<path class="st84" d="M36.3,5.3c-0.2-0.1-0.3-0.2-0.5-0.2c0-0.2,0-0.5,0-0.7c0.1,0,0.1,0,0.2-0.1c0,0.2,0.1,0.4,0.3,0.5
		C36.3,4.9,36.6,5.1,36.3,5.3z"/>
	<path class="st85" d="M37.5,3.8c0,0.1,0,0.2,0,0.2c-0.2,0-0.4,0-0.6,0c0-0.1,0-0.2,0-0.2C37.1,3.6,37.3,3.7,37.5,3.8z"/>
	<path class="st86" d="M42,3.3c-0.1-0.2-0.2-0.4-0.3-0.7c0.2,0,0.4,0,0.5,0c0,0.2,0,0.4,0,0.6S42.1,3.4,42,3.3z"/>
	<path class="st87" d="M20.5,8.7c-0.3,0.3-0.6,0.2-1,0.2C19,8.8,19.2,8.4,19,8.2c-0.1-0.3-0.2-0.6-0.2-0.9c0.6-0.1,0.4-0.7,0.5-1
		c0.5,0.3,0.8,0.8,0.7,1.4c0,0.4,0.1,0.7,0.5,0.8c0.1,0.1,0.1,0.1,0.1,0.2C20.5,8.6,20.5,8.7,20.5,8.7z"/>
	<path class="st88" d="M17.3,3.8c-0.1-0.4-1.1-0.8,0-1.2C17.1,3,17.4,3.4,17.3,3.8z"/>
	<path class="st89" d="M23.1,7.2c-0.1,0.2-0.2,0.3-0.2,0.5c-0.6-0.2-0.5-0.5-0.2-0.9c0-0.1,0-0.2,0-0.3c0.1-0.2,0.2-0.4,0.5-0.3
		c0.2,0.2,0.2,0.5,0.2,0.8C23.2,7.1,23.2,7.2,23.1,7.2z"/>
	<path class="st90" d="M23.1,6.2c-0.2,0.1-0.4,0.2-0.5,0.3c0.1-0.4-0.2-0.8-0.3-1.2c-0.1-0.3-0.1-0.5,0.3-0.5
		C22.8,5.3,23,5.7,23.1,6.2z"/>
	<path class="st91" d="M23.1,7.2C23.2,7.1,23.3,7,23.3,7c0.2,0.5,0.3,0.9,0.5,1.4c-0.1,0-0.1,0-0.2,0C23.4,8,23.2,7.6,23.1,7.2z"/>
	<path class="st92" d="M20.5,8.7c0-0.1,0-0.2,0-0.3c0.1-0.2,0.2-0.4,0.1-0.7c-0.2-0.5,0.2-0.2,0.3-0.2c0.1,0.3,0.2,0.7,0.5,0.9
		c0.2,0.2,0.1,0.3,0,0.5C21.1,8.9,20.8,8.8,20.5,8.7z"/>
	<path class="st93" d="M19.7,5c0.4,0.4,0.4,1,0.7,1.5C19.8,6.2,19.5,5.7,19.7,5z"/>
	<path class="st94" d="M18.8,8.9c-0.3,0.2-0.5,0.2-0.7-0.1c-0.3-0.3-0.7-0.7-0.4-1.2c0.1-0.2,0.1-0.3,0.2-0.5C18,7,18.1,7,18.1,7.1
		c0.1,0.1,0.2,0.1,0.2,0.2C18,8,18.9,8.3,18.8,8.9z"/>
	<path class="st95" d="M16.8,4.5c-0.7-0.4-1.1-0.8-0.7-1.7C16.4,3.4,16.6,4,16.8,4.5z"/>
	<path class="st96" d="M18.8,8.9c-0.2-0.5-0.9-0.8-0.5-1.5c0.2,0.4,0.3,0.8,0.7,1.1c0.2,0.1,0.2,0.3,0,0.4
		C18.9,8.9,18.8,8.9,18.8,8.9z"/>
	<path class="st97" d="M17.5,6.5c-0.2-0.5-0.8-0.8-0.4-1.4c0.2,0.5,0.5,1,0.7,1.4C17.7,6.6,17.6,6.6,17.5,6.5z"/>
	<path class="st98" d="M19,8.9c0-0.1,0-0.3,0-0.4s0-0.2,0-0.3c0.3,0.2,0.3,0.5,0.5,0.7C19.3,9.1,19.2,9.1,19,8.9z"/>
	<path class="st99" d="M17.5,6.5c0.1,0,0.2,0,0.3,0C18.1,6.7,18,7,18.1,7.2c-0.1,0-0.2,0-0.2,0C17.7,6.9,17.6,6.7,17.5,6.5z"/>
	<path class="st100" d="M17.6,7.7c0.1,0.4,0.3,0.8,0.4,1.2c-0.3,0-0.6,0-0.9,0c-0.5-0.8-1-1.5-1.2-2.4c-0.1-0.6-0.5-1.2,0.2-1.7
		C16.6,5.8,17.1,6.7,17.6,7.7z"/>
	<path class="st101" d="M16.1,4.8c-0.3,0.5,0,1.1-0.2,1.7c-0.6-1-1.1-2.1-1.7-3.1c0.1-0.6,0.6-0.5,1-0.5C15.5,3.5,15.8,4.1,16.1,4.8
		z"/>
	<path class="st102" d="M22.6,6.8c0,0.3,0,0.7,0.2,0.9c0,0.1,0,0.1,0,0.2C23,8.3,23,8.7,22.4,8.7c-0.5,0-0.8-0.1-0.7-0.6
		s0.1-1.1,0.6-1.5C22.4,6.7,22.5,6.7,22.6,6.8z"/>
	<path class="st103" d="M22.4,6.6c0,0.5-0.1,1-0.6,1.3c0-0.1,0-0.1-0.1-0.2c-0.2-0.4-0.1-0.9-0.3-1.3c-0.1-0.3-0.1-0.6,0-0.9
		c0.1-0.2,0.2-0.3,0.4-0.3C22,5.7,22.2,6.2,22.4,6.6z"/>
	<path class="st104" d="M21.2,4.8c-0.2-0.6-0.5-1.1-0.7-1.7s0.2-0.5,0.5-0.5c0.1,0.4,0.3,0.8,0.4,1.2C21.2,4.1,21.4,4.5,21.2,4.8z"
		/>
	<path class="st102" d="M21.2,4.8c0-0.3-0.1-0.7,0.2-0.9c0.2,0.5,0.3,0.9,0.5,1.4c-0.1,0.1-0.2,0.2-0.2,0.2
		C21,5.5,21.4,4.9,21.2,4.8L21.2,4.8z"/>
	<path class="st104" d="M21.2,4.8c0.2,0.2,0.3,0.5,0.5,0.7c0,0.3,0,0.6,0,1c0,0.2,0,0.4-0.3,0.5c-0.3-0.4-0.4-0.8-0.5-1.2
		C21,5.4,21.1,5.1,21.2,4.8z"/>
	<path class="st105" d="M21.8,7.9c0,0.3,0,0.6,0.5,0.7c0.5,0,0.6-0.3,0.5-0.7C23.1,8.1,23,8.5,23,8.8c-0.6,0-1.1,0-1.7,0
		c0-0.2,0-0.3,0-0.5c0.2-0.1,0.2-0.3,0.3-0.5C21.7,7.8,21.8,7.8,21.8,7.9L21.8,7.9z"/>
	<path class="st102" d="M21.9,7.9c-0.1,0-0.1,0-0.2-0.1c-0.2-0.3-0.3-0.5-0.3-0.9c0-0.2,0.1-0.4,0.3-0.5C22,6.9,21.8,7.4,21.9,7.9z"
		/>
	<path class="st106" d="M29.5,6.2c-0.1-0.9-0.2-1.8-0.4-2.8c-0.1-0.6,0-0.9,0.7-0.9c0.1,0.3,0.3,0.7,0.4,1c0.2,0.3,0.1,0.4-0.1,0.5
		c-0.3-0.1-0.3-0.4-0.3-0.6C29.7,4.2,30.3,5,30,5.9c-0.1,0.1-0.1,0.2-0.3,0.2C29.7,6.3,29.6,6.3,29.5,6.2z"/>
	<path class="st107" d="M33.7,2.7c-0.1,0.4,0.1,0.7,0.2,1c0.1,0.2,0.2,0.4,0.3,0.6c0.1,0.4,0.2,0.8-0.2,1.1
		c-0.1,0.1-0.2,0.1-0.3,0.1c-0.2-0.1-0.3-0.2-0.4-0.3C33.2,5,33.1,4.7,33,4.4c0.1-0.5-0.2-1.1,0.1-1.6C33.3,2.7,33.5,2.7,33.7,2.7z"
		/>
	<path class="st108" d="M33.1,2.7c0.2,0.5,0.3,1.1,0.1,1.6c-0.2,0.1-0.3,0-0.4-0.1c-0.3-0.8-0.4-0.1-0.5,0.1
		c-0.1,0.1-0.2,0.1-0.3,0.1c-0.1-0.1-0.2-0.2-0.2-0.3c0-0.2,0-0.4,0.1-0.5C31.4,2.1,32.5,2.8,33.1,2.7z"/>
	<path class="st109" d="M30.1,4.1c0.1-0.2,0.1-0.3,0.2-0.5c0.2,0.1,0.3,0.3,0.5,0.4c0.3,0.2,0.4,0.6,0.4,0.9c0,0.1,0,0.2,0,0.3
		C31.1,5.5,31,5.8,30.8,6c-0.1,0-0.2,0-0.3-0.1C30.3,5.3,29.8,4.8,30.1,4.1z"/>
	<path class="st110" d="M31,5c-0.2-0.3-0.3-0.6-0.3-1c0.2-0.3,0.5-0.3,0.7-0.2c0.1,0.1,0.2,0.1,0.2,0.2c0.1,0.3,0.4,0.7,0,1
		C31.5,4.9,31.2,5.1,31,5z"/>
	<path class="st111" d="M31.5,4c0-0.1,0-0.1,0-0.2c0-0.4,0.2-0.4,0.5-0.2c0,0.2,0,0.3,0,0.5C31.8,4.2,31.7,4.2,31.5,4z"/>
	<path class="st112" d="M27.9,6.4c-0.1,0.2-0.3,0.3-0.5,0.3c-0.5-0.6-0.2-1.3-0.4-2c0.1,0,0.2,0,0.3,0.1c0,0.1,0,0.2,0.1,0.2
		C27.8,5.4,28.1,5.9,27.9,6.4z"/>
	<path class="st113" d="M33.9,5.2c0.2-0.3,0.1-0.6,0-1C34,4,34.1,3.8,34.4,3.9c0.1,0.2,0.3,0.3,0.5,0.3c0,0.5,0.2,0.8,0.5,1.2
		c0.1,0,0.1,0.1,0.1,0.1c0,0.1,0,0.1,0,0.1c0,0.1-0.1,0.2-0.1,0.3C35,6,34.7,5.8,34.3,5.8c-0.1,0-0.2-0.1-0.2-0.2
		C33.9,5.5,33.9,5.4,33.9,5.2z"/>
	<path class="st114" d="M35.4,5.7c0-0.1,0-0.1-0.1-0.2c0-0.5,0-0.9,0-1.4c0.1,0,0.1,0,0.2,0c0,0.3,0.1,0.6,0.1,0.9
		c0.1,0.2,0.2,0.4,0.2,0.6c0,0.1-0.1,0.2-0.1,0.4C35.6,5.9,35.5,5.8,35.4,5.7z"/>
	<path class="st115" d="M34.8,4.3c-0.2,0.1-0.5,0.3-0.4-0.2c0-0.1,0.1-0.2,0.2-0.3c0.2-0.1,0.3-0.1,0.5-0.2
		C35.1,3.9,35.1,4.1,34.8,4.3z"/>
	<path class="st7" d="M36,4.3c-0.1,0-0.1,0-0.2,0.1c0-0.5,0-1,0-1.5C36.2,3.3,36,3.8,36,4.3z"/>
	<path class="st116" d="M34.6,3.8c-0.1,0.1-0.1,0.2-0.2,0.3c-0.2,0.1-0.3,0.1-0.5,0.2c0-0.2,0-0.4,0-0.7C34.1,3.7,34.3,3.7,34.6,3.8
		z"/>
	<path class="st117" d="M33.9,2.7c0.2,0,0.5,0,0.5,0.3c0,0.1-0.1,0.2-0.2,0.2C33.9,3.2,33.9,2.9,33.9,2.7L33.9,2.7z"/>
	<path class="st118" d="M27.9,3.6c0.1,0,0.2,0,0.2,0c0.4-0.1,0.5-0.4,0.5-0.8C29,3.8,29,4.9,29.3,6c-0.2,0.2-0.4,0.1-0.6-0.1
		c-0.3-0.3-0.3-0.7-0.6-1c-0.1,0-0.2-0.1-0.2-0.2C27.9,4.4,27.9,4,27.9,3.6z"/>
	<path class="st119" d="M28.8,5.8C28.9,6,29.1,6,29.3,6c0,0.1,0.1,0.1,0.1,0.2c0.2,0.4,0,0.6-0.4,0.6c-0.1,0-0.2,0-0.3,0
		c-0.2,0.1-0.3,0.2-0.6,0.1C28,6.7,28,6.6,27.9,6.4C27.7,6,27.4,5.5,27.4,5c0.2,0,0.3-0.1,0.4-0.2c0.1,0,0.1,0,0.2,0
		C28.4,5.1,28.3,5.7,28.8,5.8z"/>
	<path class="st120" d="M28.8,6.5c0.3,0.1,0.5,0.1,0.6-0.3c0.1,0,0.1,0,0.2,0.1l0,0c0.2,0.3,0.3,0.6,0.2,0.9
		c-0.2,0.4-0.5,0.4-0.8,0.2C28.7,7.1,28.6,6.8,28.8,6.5z"/>
	<path class="st121" d="M42.5,8.6c0,0.6,0,1.3,0,1.9c-0.4,0.8-0.1,1.6-0.2,2.4c-0.1,0.5,0.2,1-0.2,1.4c0-0.5,0-1,0-1.4
		c-0.2-0.3,0-0.6,0-1c-0.1-0.2-0.1-0.3,0-0.5c0-0.7,0-1.4,0-2.2C42.4,9.2,41.9,8.6,42.5,8.6z"/>
	<path class="st1" d="M42.5,12.5c0.1,0,0.1,0,0.2,0c0,0.6,0,1.3,0,1.9C42.3,13.8,42.6,13.1,42.5,12.5z"/>
	<path class="st122" d="M9.2,8.4C8.7,7.7,8.2,7,7.7,6.2C7.8,6.1,7.9,6.1,8,6.1c0.2,0,0.4,0.1,0.6,0.3c0.4,0.5,0.7,0.9,1,1.5
		c0,0.1,0,0.2,0,0.3C9.5,8.3,9.4,8.5,9.2,8.4z"/>
	<path class="st123" d="M8,6.2c-0.1,0-0.2,0-0.3,0C7.5,6,7.4,5.9,7.2,5.7c-0.3-0.5-0.6-1-1-1.5C6.3,4.1,6.4,4.1,6.5,4
		C7,4,7.1,4.4,7.4,4.7C7.7,5.2,8.2,5.5,8,6.2z"/>
	<path class="st124" d="M9.2,8.4c0.1-0.1,0.2-0.2,0.2-0.2c0.6,0,0.7,0.5,0.9,0.9c0,0.3,0,0.5-0.2,0.7v0.1c-0.6-0.2-0.4-1-0.9-1.2
		C9.2,8.5,9.2,8.5,9.2,8.4z"/>
	<path class="st125" d="M10.1,9.7c0-0.2,0-0.4,0-0.7c0.4-0.1,0.5-0.4,0.6-0.7C10.8,8.1,10.9,8,11,8c0.2,0,0.3,0.1,0.4,0.2
		c0.2,0.3,0.3,0.7,0.4,1c0,0.1,0,0.2-0.1,0.3c0,0.1,0,0.2,0,0.2C11.2,9.8,10.7,9.8,10.1,9.7z"/>
	<path class="st126" d="M13.5,9.3c0,0.1,0,0.2,0,0.2c-0.3,0-0.6,0-1,0c-0.1-0.1-0.1-0.1-0.1-0.2s0-0.1,0-0.1c0.2-0.4,0.8,0,0.9-0.5
		C13.6,8.9,13.7,9.1,13.5,9.3z"/>
	<path class="st127" d="M12.5,9.3c0,0.1,0,0.2,0,0.3c-0.2,0-0.5,0-0.7,0c0-0.1,0-0.1,0-0.2c0-0.2,0-0.4,0.1-0.6
		c0-0.1,0.1-0.2,0.2-0.2C12.5,8.6,12.6,8.9,12.5,9.3z"/>
	<path class="st31" d="M20.7,9.1c0.1,0,0.2,0,0.3,0c0.1,0.1,0.2,0.2,0.3,0.3c-0.2,0-0.3,0.1-0.5,0.1C20.4,9.4,20.6,9.3,20.7,9.1z"/>
	<path class="st59" d="M29.1,12c-0.2-0.1-0.5-0.2-0.7-0.2c-0.2-0.4,0.1-0.8,0-1.2l0.1-0.1c0.3-0.2,0.6-0.2,1-0.1
		c0.1,0.1,0.2,0.1,0.3,0.2c0.3,0.5,0.1,0.9-0.4,1.1C29.2,11.8,29.2,11.9,29.1,12z"/>
	<path class="st128" d="M26.5,8.9c0.1,0,0.3,0,0.4-0.1c0.3-0.2,0.6-0.2,0.9-0.1C28.1,8.9,28,9.1,28,9.4c-0.1,0.2-0.1,0.3-0.3,0.4
		C26.6,10.4,26.5,10.3,26.5,8.9z"/>
	<path class="st129" d="M27.6,11.5c-0.1,0-0.1,0-0.2,0c-0.3,0.2-0.7,0.2-1,0c0-0.2,0-0.5,0-0.7C27,10.8,27.7,10.5,27.6,11.5z"/>
	<path class="st130" d="M27.6,9.8c0-0.2,0-0.3,0-0.5c0.6,0.2,0.7,0.7,0.8,1.2l0,0C27.9,10.6,27.4,10.6,27.6,9.8z"/>
	<path class="st126" d="M15.2,7.2c0-0.1,0-0.1,0-0.2s0.1-0.2,0.2-0.3c0.3,0.2,0.3,0.7,0.5,1c-0.1,0.6,0.5,0.9,0.5,1.4
		c-0.7,0.5-1.4,0.1-2.1,0.2C14,9,13.7,8.6,13.7,8.1c0.1-0.2,0.2-0.3,0.4-0.3c0.4,0,0.5,0.4,0.8,0.6c0.6,0.3,0.2-0.2,0.3-0.4
		C15,7.8,15.1,7.5,15.2,7.2z"/>
	<path class="st131" d="M13.8,8.1c0.1,0.4,0.6,0.7,0.5,1.2c-0.1,0-0.2,0-0.3,0c-0.3-0.2-0.4-0.8-0.9-0.7c-0.3-0.2-0.5-0.5-0.3-0.9
		C13.2,7.4,13.6,7.4,13.8,8.1z"/>
	<path class="st107" d="M16.4,9.1c-0.3-0.4-0.8-0.8-0.5-1.4c0.2,0.5,0.7,0.8,0.7,1.4C16.5,9.1,16.4,9.1,16.4,9.1z"/>
	<path class="st132" d="M13.2,8.6c0.7-0.2,0.5,0.5,0.8,0.7c-0.2,0-0.3,0-0.5,0c-0.1-0.2-0.1-0.3-0.2-0.5C13.2,8.8,13.2,8.8,13.2,8.6
		z"/>
	<path class="st133" d="M24.6,8.4c0.6-0.1,0.4-0.7,0.7-1c0.3,0.4,0.3,0.8,0.1,1.2C25.1,8.5,24.8,8.7,24.6,8.4z"/>
	<path class="st134" d="M39.6,6c0.4-0.5-0.1-1.4,0.8-1.7c0.7,0.6,0.8,1.6,0.3,2.9c-0.2,1.5,0.1,3,0.2,4.5c-0.1,0.1-0.2,0.2-0.2,0.2
		c-0.7,0.4-0.9-0.1-1-0.7c0-0.9-0.1-1.9,0-2.8c0.1-0.7-0.3-1.5,0.1-2.3C39.6,6.1,39.6,6.1,39.6,6z"/>
	<path class="st135" d="M40.6,7.2c-0.2-1,0.2-2-0.3-2.9c0-0.1,0-0.1,0-0.2c0.4-0.4,0.9-0.4,1.4-0.2C41.9,4,42,4.3,42,4.5
		C42,5,41.9,5.6,42.3,6c-0.2,0.5-0.1,1.1-0.6,1.6c0,0.3,0,0.7-0.1,1C40.8,8.6,41,7.7,40.6,7.2z"/>
	<path class="st136" d="M41.8,7.7c0-0.6,0-1.2,0.5-1.6c-0.1-0.1-0.1-0.2,0-0.3c0.5,0.9,0.1,1.9,0.2,2.9c-0.2,0.2-0.3,0.5-0.5,0.7
		C41.9,8.8,42.2,8.2,41.8,7.7z"/>
	<path class="st137" d="M42,11.5c0,0.2,0,0.3,0,0.5c-1-0.8-0.2-1.7-0.4-2.6C42,10,41.5,10.8,42,11.5z"/>
	<path class="st138" d="M33.2,10.5c-0.1,0.4,0.2,0.9-0.2,1.2c-0.3,0.3-0.6,0.5-1,0.6c-0.1,0-0.2,0-0.3-0.1c-0.2-0.2-0.3-0.5-0.2-0.8
		c0.3-0.3,0.5-0.7,0.5-1.1c0-0.1,0.1-0.2,0.1-0.3c0.1-0.1,0.2-0.1,0.3-0.2c0.4,0,0.6,0.2,0.8,0.5C33.1,10.4,33.1,10.5,33.2,10.5z"/>
	<path class="st139" d="M33.4,11.3c0-0.3,0-0.5-0.2-0.7l0,0c-0.1-0.1-0.1-0.1-0.1-0.2s0-0.1,0-0.1c0.3-0.2,0.6-0.5,1-0.5
		c0.2,0.2,0.3,0.6,0.4,0.9c0,0.4,0,0.8,0.1,1.2c0,0.1-0.1,0.2-0.2,0.2C33.7,12.3,33.7,11.6,33.4,11.3z"/>
	<path class="st51" d="M32,12.2c0.2-0.3,0.6-0.5,1-0.5c-0.1,0.6,0.2,1.2-0.2,1.8c-0.4-0.2,0.1-0.5-0.1-0.8c-0.2,0.2-0.4,0.3-0.6,0.5
		C31.7,12.9,31.7,12.5,32,12.2z"/>
	<path class="st139" d="M33.9,12.9c-0.3,0.2-0.2,0.5-0.2,0.7c-0.7-0.3,0-0.8-0.2-1.2c0.3-0.4,0.9-0.1,1.2-0.5l0,0
		c0.1-0.1,0.2-0.1,0.2,0c0.2,0.1,0.2,0.3,0.2,0.5l0,0C34.8,12.9,34.3,12.8,33.9,12.9z"/>
	<path class="st140" d="M34.6,12c-0.2,0.6-0.7,0.5-1.2,0.5c0-0.4,0-0.8,0-1.2C34,11.2,33.9,12.2,34.6,12z"/>
	<path class="st141" d="M32,12.2c0,0.3,0,0.6,0,0.9c-0.2,0-0.4,0-0.5-0.2c0-0.2,0-0.3,0-0.5s0-0.3,0.3-0.3
		C31.8,12.2,31.9,12.2,32,12.2z"/>
	<path class="st142" d="M34.8,12h-0.1h-0.1c-0.2-0.4-0.6-0.7-0.2-1.2c0.3-0.4,0.8-0.5,1.1-0.8C36,9.9,36.4,9.6,37,9.6
		c0,0.6,0,1.1,0,1.7c-0.4,0-0.8-0.1-1.2-0.1C35.3,11.2,34.8,11.2,34.8,12z"/>
	<path class="st143" d="M39.9,11.3c0,0.5,0.2,0.8,0.7,0.7c-0.4,0.4-1,0.1-1.4,0.5c0.2-0.7-0.4-1.4,0-2.2C40.2,10,39.5,11,39.9,11.3z
		"/>
	<path class="st47" d="M33.9,12.9c0.3-0.3,0.8-0.4,1.2-0.5c0.3,0.6-0.1,0.9-0.5,1.1C34,13.8,34.2,13,33.9,12.9z"/>
	<path class="st144" d="M39.9,11.3c-0.4-0.2,0-1-0.7-1c-0.5,0-1,0-1-0.7c-0.2-0.2-0.1-0.4,0.2-0.5c0.1,0.1,0.2,0.2,0.4,0.2
		c-0.1-0.1-0.2-0.1-0.3-0.2c-0.6-0.9-0.5-1,0.7-1.1c0.3,0,0.5,0.2,0.7,0.4C39.9,9.4,39.9,10.3,39.9,11.3z"/>
	<path class="st145" d="M39.2,8.1c-0.4,0.2-1.2,0.1-0.7,1l0,0c-0.2,0.1-0.2,0.3-0.2,0.5h-0.1h-0.1c-0.2-0.1-0.1-0.4-0.2-0.5
		c-0.1-0.5,0.2-1-0.2-1.4c-0.1,0-0.1-0.1-0.1-0.2s0-0.1,0.1-0.1c0.2-0.3,0.5-0.6,0-1c0.2,0,0.4,0,0.5,0.1C38.7,7.3,39,7,39.4,6.4
		C39.4,7,39.4,7.6,39.2,8.1z"/>
	<path class="st144" d="M37.7,9.1c0.2,0.1,0.2,0.3,0.2,0.5c-0.2,0.3-0.3,0.6-0.3,1C37.2,10.1,37.7,9.6,37.7,9.1z"/>
	<path class="st54" d="M29.3,11.7c0.1-0.4,0.5-0.7,0.2-1.2c0.3-0.3,0.5-0.1,0.7,0.2c0,0.5,0,1.1-0.7,1.2c-0.1,0-0.2,0-0.2,0
		S29.3,11.8,29.3,11.7z"/>
	<path class="st146" d="M37,9.6c-0.4,0.3-0.8,0.9-1.4,0.5c-0.3,0.1-0.4-0.1-0.4-0.4C35,9.5,35.7,9,35,8.9c-0.2-0.2-0.3-0.3-0.1-0.6
		c0.2-0.2,0.4-0.3,0.6-0.4c0.4-0.1,0.8-0.1,1.1,0c0.6,0.3,0.1,1,0.4,1.4C37,9.4,37,9.5,37,9.6z"/>
	<path class="st147" d="M37.5,7.4c0,0.1,0,0.2,0,0.2c0,0.5,0,0.9,0,1.4c-0.4,0-0.2-0.4-0.5-0.5c-0.2-0.2-0.1-0.4-0.2-0.6
		c0-0.1,0-0.2,0-0.3c0-0.1,0.1-0.2,0.2-0.3C37.2,7.4,37.3,7.4,37.5,7.4z"/>
	<path class="st142" d="M37,7.9c0,0.2,0,0.5,0,0.7s0,0.5,0,0.7c-0.4-0.3,0-0.9-0.5-1.2C36.5,7.7,36.7,7.7,37,7.9z"/>
	<path class="st148" d="M30.3,10.8c-0.2-0.1-0.5-0.1-0.7-0.2l0,0c-0.2-0.2-0.3-0.4-0.3-0.7c0-0.5,0-0.9,0.3-1.3
		c0.2-0.2,0.5-0.4,0.8-0.4c0.4-0.1,0.7-0.1,1-0.3c0.2-0.1,0.4,0,0.6,0.1c0.1,0.1,0.3,0.2,0.4,0.3c0.1,0.1,0.1,0.2,0.1,0.3
		c0,0.1,0,0.2-0.1,0.3c-0.2,0.2-0.2,0.5-0.4,0.8c-0.1,0.1-0.2,0.1-0.3,0.1c-0.2-0.1-0.3-0.3-0.4-0.5C31,9,30.7,9,30.5,9.5
		c-0.1,0.3,0,0.7-0.3,1C30.3,10.5,30.3,10.6,30.3,10.8z"/>
	<path class="st149" d="M31.7,12.2c-0.1,0.1-0.2,0.2-0.3,0.3c-1-0.1-1.1-0.5-0.7-1.9c0.1-0.1,0.2-0.1,0.3-0.1s0.2,0,0.3,0.1
		s0.1,0.3,0.2,0.4c0,0.2,0,0.4,0,0.6C31.6,11.7,31.6,12,31.7,12.2z"/>
	<path class="st150" d="M31,10.5c-0.1,0-0.2,0-0.2,0c-0.1-0.1-0.3-0.1-0.4-0.2c-0.1-1.6,0.1-1.9,1.1-1.7c0.2,0.1,0.3,0.2,0.3,0.4
		c-0.1,0.1-0.1,0.1-0.2,0.2c-0.1,0-0.3,0-0.4,0.1c-0.1,0-0.1,0.1-0.1,0.2s0,0.1,0.1,0.1c0,0.1,0,0.3,0,0.4
		C30.9,10.1,31.1,10.4,31,10.5z"/>
	<path class="st151" d="M14.4,5c-0.8-0.5-1.3-1.1-1.2-2.1C13.6,3.6,14.2,4.2,14.4,5z"/>
	<path class="st152" d="M15.4,6.7c-0.1,0.1-0.2,0.2-0.2,0.3c-0.2-0.5-0.9-0.8-0.5-1.5C14.9,5.9,15.2,6.3,15.4,6.7z"/>
	<path class="st153" d="M15.2,7.9c0,0.4,0.7,0.8,0.2,1.1c-0.5,0.3-0.8-0.3-1-0.7C14.3,8.1,14.2,8,14,7.9c-0.3-0.2-0.5-0.5-0.4-0.9
		c0.1-0.3,0.1-0.7,0.7-0.7c0.1,0.4,0.4,0.7,0.7,1C15.1,7.4,15.2,7.6,15.2,7.9z"/>
	<path class="st154" d="M14.2,6.2C14,6.5,13.9,6.7,13.7,7c-0.8-0.2-0.9-0.9-1.1-1.5c0-0.4,0-0.8-0.1-1.2c-0.1-0.2-0.2-0.6,0.3-0.6
		C13.2,4.6,13.7,5.4,14.2,6.2z"/>
	<path class="st155" d="M12.7,3.8c-0.4,0.6,0.5,1.1,0,1.7c-0.4,0.1-0.4-0.2-0.4-0.5c-0.1-0.2-0.2-0.3-0.3-0.5
		c-0.2-0.3-0.3-0.6-0.5-0.9c0-0.4,0.3-0.5,0.6-0.5C12.6,3.2,12.7,3.4,12.7,3.8z"/>
	<path class="st62" d="M15.2,7.9c-0.1-0.2-0.2-0.5-0.3-0.7c0.1,0,0.2,0,0.3,0C15.5,7.4,15.5,7.6,15.2,7.9z"/>
	<path class="st156" d="M9.6,4.8C9.4,4.3,9.1,3.9,8.9,3.4c0.7-0.1,1.2,0.1,1.4,0.7c0.3,0.8,1,1.3,1.2,2.1c-0.1,0.3-0.2,0.5-0.5,0.6
		c-0.1,0-0.2,0-0.3-0.1C10.2,6.2,9.8,5.5,9.6,4.8z"/>
	<path class="st157" d="M11.1,6.8c0.1-0.2,0.2-0.4,0.5-0.5c0.2,0.3,0.5,0.6,0.7,0.9c0.4,0.1,0.6,0.3,0.5,0.7
		c0.1,0.2,0.3,0.5,0.4,0.7c0,0.1,0.1,0.1,0.1,0.2c0,0.5-0.5,0.3-0.8,0.4C12.3,9,12.2,8.8,12,8.5C11.5,8.1,10.8,7.7,11.1,6.8z"/>
	<path class="st66" d="M12.8,7.9c-0.2-0.2-0.3-0.5-0.5-0.7c0-0.2,0-0.3,0-0.5C12.8,6.2,11.9,6,12,5.5c0-0.2,0.1-0.4,0.3-0.5
		c0.1,0.2,0.3,0.3,0.4,0.5C12.9,6,13.1,6.6,13.6,7c0.1,0.3,0.2,0.6,0.3,0.9c-0.1,0.1-0.1,0.2-0.2,0.2C13.5,7.6,13.1,7.7,12.8,7.9z"
		/>
	<path class="st158" d="M10.8,3.3c0.3,0.5,0.5,1,1,1.5c0,0.2-0.1,0.4-0.2,0.3C11.3,4.6,10.5,4.2,10.8,3.3z"/>
	<path class="st159" d="M12,5.5c0.3,0.5,0.7,1,1,1.5c-0.5,0.1-0.5-0.3-0.8-0.3C12.4,6.2,11.7,6,12,5.5z"/>
	<path class="st160" d="M8,6.2C7.7,5.7,7.5,5.3,7.2,4.8C7.1,4.4,7.1,4,7.7,4.1c0.4,0.6,0.8,1.1,1.1,1.7c0,0.3-0.1,0.6-0.4,0.7
		C8.3,6.4,8.2,6.3,8,6.2z"/>
	<path class="st161" d="M8.4,6.5C8.5,6.3,8.7,6,8.8,5.8C8.9,5.9,9,6,9.1,6C9.6,6.2,9.9,6.6,10,7.1C9.9,7.4,9.8,7.8,9.4,7.9
		C9.1,7.4,8.7,7,8.4,6.5z"/>
	<path class="st162" d="M9.6,4.8c0.5,0.6,0.9,1.2,1.2,1.9c0.1,0.1,0.1,0.1,0.1,0.2s0,0.1,0,0.1c-0.9,0.1-1-0.7-1.5-1.2
		C9.3,5.7,9.2,5.5,9.1,5.4C8.9,5.1,9.1,5,9.4,5.1C9.5,4.9,9.6,4.9,9.6,4.8z"/>
	<path class="st163" d="M7.7,4.1C7.5,4.3,7.4,4.6,7.2,4.8C7,4.6,6.8,4.3,6.5,4.1C6.9,3.2,7.3,3.5,7.7,4.1z"/>
	<path class="st164" d="M9.4,5C9.3,5.1,9.2,5.2,9.1,5.3C8.8,4.9,8.4,4.4,8.1,4C7.9,3.8,8,3.6,8.3,3.6C8.8,4.1,9.1,4.5,9.4,5z"/>
	<path class="st165" d="M9.4,5.8c0.7,0.1,0.8,1,1.4,1.2C11,7.1,11,7.3,10.9,7.5c-0.2,0.1-0.3,0.1-0.5,0.1c-0.3-0.5-0.8-0.9-0.9-1.5
		C9.4,5.9,9.4,5.8,9.4,5.8z"/>
	<path class="st166" d="M9.4,6c0.3,0.5,0.8,0.8,0.9,1.4c0.1,0.1,0.1,0.2,0,0.3c-0.4,0.1-0.6,0-0.5-0.5C9.6,6.8,9.3,6.4,9.1,6
		C9.2,6,9.3,6,9.4,6z"/>
	<path class="st71" d="M24.1,5c0.3,0.5,0.5,1.1,0.2,1.7C23.9,6.2,23.9,5.6,24.1,5z"/>
	<path class="st167" d="M28.1,6.9c0.2-0.2,0.3-0.3,0.5-0.5C28.7,7,28.9,7.5,29,8.1c0,0.2,0,0.4-0.2,0.6c-0.2,0.1-0.4,0.2-0.6,0.2
		c-0.4-0.2-0.9,0-1.4-0.2c0-0.1,0-0.2,0.1-0.3C28.3,8.6,28.3,7.8,28.1,6.9z"/>
	<path class="st168" d="M26.9,8.6c0.5,0,1,0,1.5,0c0,0.1,0,0.2-0.1,0.3C28.1,9,28,9,27.9,8.8c-0.3,0-0.7,0-1,0
		C26.9,8.8,26.9,8.7,26.9,8.6z"/>
	<path class="st169" d="M39.2,8.1c0-0.6,0-1.1,0-1.7c0.2-0.1,0.3-0.2,0.5-0.2c0.1,0.7,0.4,1.4,0.2,2.2C39.6,8.4,39.3,8.4,39.2,8.1z"
		/>
	<path class="st170" d="M37.2,6.5c-0.2,0.3-0.6,0.3-0.8,0c-0.2-0.2,0.2-0.3,0.3-0.3C36.9,6.3,37.1,6.4,37.2,6.5z"/>
	<path class="st171" d="M38.5,4.5c0-0.5,0.4-0.5,0.7-0.7C39.2,4.3,38.9,4.5,38.5,4.5z"/>
	<path class="st172" d="M41.8,4.1c-0.5,0-1,0-1.5,0c-0.3-0.2,0-0.3,0-0.5c0.3-0.2,0.2-0.5,0.2-0.7c0.5,0.2,0.9,0.3,1.4,0.5
		c0.1,0,0.2,0,0.2,0c0.4,0.2,0.1,0.5,0,0.7C42.1,4.2,42,4.2,41.8,4.1z"/>
	<path class="st173" d="M42.3,5.7c0,0.1,0,0.2,0,0.3c-0.7-0.2-0.5-0.7-0.5-1.2c0.1-0.2,0.2-0.4,0.5-0.3C42.3,4.9,42.3,5.3,42.3,5.7z
		"/>
	<path class="st174" d="M42.3,4.5c-0.2,0.1-0.3,0.2-0.5,0.3c0-0.2,0-0.5,0-0.7c0.2,0,0.3,0,0.5,0C42.3,4.2,42.3,4.4,42.3,4.5z"/>
	<path class="st175" d="M35.3,6.7c0,0.2,0.1,0.3,0.1,0.5c0.1,0.2,0.1,0.4-0.1,0.6c-0.2,0.1-0.5-0.3-0.7,0.1C34.5,8,34.4,8,34.3,8
		S34.1,7.9,34,7.9c-0.2-0.2-0.2-0.5-0.1-0.8c0.2-0.3,0.2-0.7,0.5-1C34.9,6,35,6.4,35.3,6.7z"/>
	<path class="st142" d="M37,7.4c0,0.1,0,0.2,0,0.2c-0.6,0.2-1.3,0.6-1.4-0.5C36.1,7.1,36.7,6.6,37,7.4z"/>
	<path class="st176" d="M35.6,7.2c0.3,0.7,0.9,0.4,1.4,0.5c0,0.1,0,0.2,0,0.3c-0.2,0-0.4,0-0.5,0.2c-0.4,0-0.8,0-1.2,0
		c-0.1,0-0.2-0.1-0.3-0.2c0-0.1,0-0.2,0.1-0.2c0.2-0.1,0.2-0.3,0.3-0.5C35.4,7.2,35.5,7.2,35.6,7.2z"/>
	<path class="st177" d="M35.3,6.7c-0.4,0.1-0.5-0.6-0.9-0.4c-0.1,0.1-0.2,0.1-0.3-0.1S34,5.8,34.2,5.7C34.6,5.6,35,5.6,35.3,6
		C35.3,6.2,35.3,6.4,35.3,6.7z"/>
	<path class="st178" d="M30.1,4.1c0.4,0.6,0.5,1.2,0.5,1.8c0.2,0.5,0,0.8-0.5,0.8c-0.4,0-0.5-0.2-0.3-0.5c0.1-1-0.5-1.9-0.1-2.9
		C30,3.5,30,3.8,30.1,4.1z"/>
	<path class="st179" d="M29.8,6.2c0.1,0.2,0.1,0.4,0.3,0.4c0.4-0.1,0.4-0.4,0.5-0.7c0.1,0,0.1,0.1,0.2,0.1c0.4,0.2,0.4,0.5,0.5,0.8
		c0,0.3,0,0.7-0.1,1c-0.1,0.3-0.4,0.4-0.7,0.4c-0.9,0.1-0.7-0.6-0.8-1.1c0-0.3,0-0.6,0-0.9C29.6,6.2,29.7,6.2,29.8,6.2z"/>
	<path class="st180" d="M32.2,4.3c0-0.4,0-0.8,0-1.3c0.9,0.1,0.5,1,1,1.3c0.3,0.1,0.3,0.4,0.3,0.6c0.4,0.7,0.1,1.4-0.2,2
		c-0.1,0.2-0.2,0.3-0.4,0.4c-0.2,0-0.4,0-0.5-0.1c-0.3-0.4-0.2-0.9-0.3-1.3c0-0.1,0-0.1,0-0.2s0-0.2-0.1-0.4C32,5,31.9,4.6,32.2,4.3
		z"/>
	<path class="st181" d="M33.2,6.9c-0.2-0.7,0.4-1.3,0.3-2c0.1,0.1,0.1,0.2,0.2,0.3C34,5.5,33.9,5.9,34,6.3c0,0.2,0,0.4-0.2,0.6
		C33.5,7.1,33.3,7.1,33.2,6.9z"/>
	<path class="st182" d="M33.7,6.4c0-0.4,0-0.8-0.1-1.2c0.1,0,0.2,0,0.3,0C34,5.3,34,5.4,34.1,5.5c-0.2,0.3,0,0.6-0.1,0.9
		C33.9,6.5,33.8,6.5,33.7,6.4z"/>
	<path class="st183" d="M32.2,5.5c0,0.1,0,0.2,0,0.2c-0.2,0.1-0.3,0.1-0.5,0.1c-0.3-0.2-0.4-0.5-0.2-0.8c0.4-0.3,0.1-0.7,0-1
		c0.1,0,0.3,0,0.4,0c0,0.1,0,0.2,0,0.2C32.2,4.7,31.9,5.1,32.2,5.5z"/>
	<path class="st110" d="M32.2,5.5C31.9,5.1,32,4.7,32,4.3c0.1,0,0.1,0,0.2,0C32.2,4.7,32.2,5.1,32.2,5.5z"/>
	<path class="st184" d="M31.7,5.7c0.2,0,0.3,0,0.5,0l0,0c0.5,1.3-0.6,1-1.2,1.2c-0.1-0.3-0.2-0.6-0.3-0.9c0-0.3,0-0.6,0.3-0.8
		C31.3,5.3,31.4,5.6,31.7,5.7z"/>
	<path class="st185" d="M31.7,5.7c-0.4,0.1-0.5-0.2-0.7-0.5C31,5.1,31,5,31,5c0.2-0.1,0.3-0.3,0.5,0C31.6,5.3,31.6,5.5,31.7,5.7z"/>
	<path class="st186" d="M33.9,6.4c0-0.3-0.1-0.7,0.2-0.9c0,0.1,0,0.1,0.1,0.2c0,0.2,0,0.4,0,0.5c0.1,0.2,0.1,0.4-0.1,0.4
		C33.9,6.7,33.8,6.6,33.9,6.4z"/>
	<path class="st187" d="M28.8,5.8c-1.1,0.3-0.6-0.6-0.7-1C28.7,4.9,28.5,5.5,28.8,5.8z"/>
	<path class="st188" d="M28.8,8.1c-0.4-0.5-0.2-1.1-0.2-1.7c0.1,0,0.1,0,0.2,0c0,0.3,0,0.5,0.3,0.7C29.3,7.6,29.5,8,28.8,8.1z"/>
	<path class="st189" d="M28.8,8.1c0.3-0.3,0.2-0.6,0.2-1c0.2,0,0.4,0.3,0.5,0c0.3,0.3,0.1,1.1,0.9,0.9c0.1,0,0.1,0.1,0.1,0.2
		s0,0.1,0,0.1c-0.3,0.1-0.5,0.2-0.8,0.3c-0.3,0.2-0.6,0.3-1,0C28.8,8.4,28.8,8.3,28.8,8.1z"/>
	<path class="st190" d="M9.8,7.2c0.1,0.2,0.2,0.5,0.5,0.5c0.4,0.1,0.4,0.4,0.5,0.8c0,0.3,0.4,0.5,0.1,0.7c-0.3,0.3-0.6,0-0.8-0.1
		C9.9,8.8,9.6,8.5,9.4,8.2c0-0.1,0-0.1,0-0.2C9.5,7.7,9.7,7.4,9.8,7.2z"/>
	<path class="st191" d="M10.8,7.4c0-0.1,0-0.3,0-0.4s0-0.2,0-0.3c0.1,0,0.1,0.1,0.2,0.1c0.1,0.7,0.7,1.2,1,1.9c0,0.1,0,0.2,0,0.3
		c-0.5,0.1-0.5-0.3-0.7-0.5c-0.1-0.1-0.2-0.1-0.2-0.2C10.8,8,10.8,7.7,10.8,7.4z"/>
	<path class="st192" d="M10.8,7.4C11.1,7.6,11,7.9,11,8.1c-0.1,0.1-0.2,0.2-0.3,0.3c-0.2-0.2-0.3-0.5-0.5-0.8c0-0.1,0-0.2,0.1-0.4
		C10.5,7.4,10.7,7.4,10.8,7.4z"/>
	<path class="st193" d="M11.3,8.3c0.2,0.2,0.5,0.4,0.7,0.5c0,0.2,0,0.4-0.2,0.5C11.5,9.1,11.3,8.8,11.3,8.3z"/>
	<path class="st194" d="M27.9,8.9c0.2,0,0.3,0,0.5,0c0.1,0.1,0.2,0.2,0.2,0.4c0,0.2,0,0.3,0.2,0.5c0.3,0.1,0.6,0,0.9,0.1
		c0,0.2,0,0.5,0,0.7c-0.4,0-0.8,0-1.2,0c-0.5-0.3-0.4-0.9-0.8-1.2C27.7,9.2,27.8,9,27.9,8.9z"/>
	<path class="st195" d="M33.2,10.3c0,0.1,0,0.2,0,0.2c-0.4,0-0.5-0.3-0.7-0.5c-0.3-0.2,0-0.6-0.2-0.9c0-0.2,0-0.4,0.2-0.6l0,0
		C33.4,8.8,33.5,9,33.2,10.3z"/>
	<path class="st196" d="M31.5,9.1c0.1,0,0.2,0,0.2,0c0,0.2,0,0.4,0.2,0.5c0.2,0.1,0.2,0.3,0.2,0.5c0,0.1,0,0.1,0,0.2
		c-0.1,0.2-0.1,0.3-0.3,0.4s-0.5,0-0.6-0.1c-0.1,0-0.2,0-0.2,0c0-0.2-0.3-0.3,0-0.5C31.3,9.8,31.1,9.3,31.5,9.1z"/>
	<path class="st46" d="M32,10.5c0.1-0.1,0.1-0.2,0.2-0.3c0,0.6,0.1,1.1-0.7,1.2c-0.2-0.1-0.2-0.3-0.2-0.5
		C31.4,10.8,31.7,10.7,32,10.5z"/>
	<path class="st51" d="M32.2,10.1C32,10,32,9.8,32,9.6l0,0c0.1-0.1,0.2-0.4,0.5-0.2c0.3,0.2-0.1,0.5,0,0.7
		C32.4,10.1,32.3,10.1,32.2,10.1z"/>
	<path class="st197" d="M34.8,8.4C34.9,8.6,35,8.7,35,8.9c0.3,0.2,0.1,0.5,0.2,0.7c0,0.2,0,0.4,0.2,0.5c-0.1,0.7-0.7,0.7-1.2,0.7
		c-0.2-0.3-0.3-0.6-0.3-1c-0.4-0.5-0.4-0.9-0.1-1.4C34.3,8.2,34.6,8.2,34.8,8.4z"/>
	<path class="st198" d="M34.1,8.4c0,0.5,0,1,0,1.5c-0.3,0.3-0.5,0.6-1,0.5c-0.3-0.5,0.3-1.5-0.7-1.7c0-0.1,0-0.1,0-0.2
		c0.1-0.3,0.4-0.3,0.7-0.3c0.1,0,0.3-0.1,0.4-0.1c0.1-0.1,0.3-0.1,0.4,0H34C34.3,8.1,34.3,8.2,34.1,8.4z"/>
	<path class="st199" d="M38.4,9.1c1-0.2,0.8,0.3,0.6,0.9C38.6,9.8,38.7,9.4,38.4,9.1L38.4,9.1z"/>
	<path class="st200" d="M34.1,8.4c0-0.2,0-0.3,0-0.5c0.1,0,0.2,0,0.3,0c0.2-0.2,0.5-0.2,0.7,0C35.2,8,35.3,8,35.4,8.1
		c-0.2,0.1-0.3,0.2-0.5,0.3C34.6,8.4,34.4,8.4,34.1,8.4z"/>
	<path class="st142" d="M35.3,9.6c-0.3-0.2-0.2-0.5-0.2-0.7c0.1,0,0.4-0.1,0.4,0C35.7,9.1,35.4,9.3,35.3,9.6z"/>
	<path class="st201" d="M28.4,9.3c0-0.2,0-0.3,0-0.5c0-0.1,0-0.1,0-0.2c0.1,0,0.3,0,0.4-0.1c0.3,0,0.6,0,1,0
		c-0.2,0.4-0.3,0.8-0.2,1.2c-0.4,0.2-0.8,0.5-1.2,0C28.4,9.7,28.5,9.5,28.4,9.3z"/>
	<path class="st202" d="M30.5,8.4c0-0.1,0-0.2,0-0.2c0.2-0.1,0.3-0.3,0.5-0.4c0.1-0.2,0.3-0.2,0.4-0.1c0.1,0.1,0.1,0.2,0.1,0.3
		C31.4,8.5,30.9,8.4,30.5,8.4z"/>
	<path class="st203" d="M33.4,8.3c-0.3,0-0.6,0.1-0.9,0.1c-0.2,0-0.4-0.1-0.5-0.3V8c0.1-0.2,0.2-0.4,0.5-0.4c0.1,0,0.2,0.1,0.2,0.1
		C32.9,8,33.5,7.8,33.4,8.3z"/>
	<path class="st204" d="M32.4,9.3c-0.2,0.1-0.3,0.2-0.5,0.2c0-0.4-0.2-0.9,0.5-1C32.4,8.9,32.4,9.1,32.4,9.3z"/>
	<path class="st205" d="M31.5,7.9c0-0.1,0-0.1,0-0.2c0-0.2,0.1-0.4,0.3-0.3c0.4,0.2,0.3,0.5,0.1,0.7l0,0C31.8,8,31.7,8,31.5,7.9z"/>
	<path class="st51" d="M32,10.5c-0.1,0.3-0.4,0.5-0.7,0.5c0-0.2,0-0.3,0-0.5C31.5,10.5,31.7,10.5,32,10.5z"/>
	<path class="st206" d="M31.5,9.1c0,0.4,0.2,0.9-0.5,1c0-0.2,0-0.3,0-0.5c-0.1-0.2-0.1-0.3,0-0.5C31.2,9.1,31.3,9.1,31.5,9.1z"/>
	<path class="st207" d="M31,9.1c0,0.2,0,0.3,0,0.5c-0.3,0-0.5-0.1-0.4-0.5C30.7,8.8,30.9,8.9,31,9.1z"/>
	<path class="st208" d="M34,7.9C33.9,8,33.7,8,33.6,8.1C33.4,8,33.1,8,32.9,7.9c-0.1-0.3-0.1-0.5,0-0.8C33,7,33.1,6.9,33.1,6.9
		c0.2,0,0.3,0,0.5,0C33.7,7,33.8,7,33.8,7.2C34,7.4,34.2,7.6,34,7.9z"/>
	<path class="st209" d="M33.9,7.2c-0.1-0.1-0.1-0.2-0.2-0.3c0-0.2,0-0.3,0-0.5c0.1,0,0.1,0,0.2,0c0.3,0.2,0.2-0.1,0.3-0.2
		c0.1,0,0.1,0,0.2,0C34.3,6.6,34.5,7.1,33.9,7.2z"/>
	<path class="st210" d="M35.1,7.9c-0.2,0-0.5,0-0.7,0c-0.1-0.3,0.1-0.6,0.3-0.7c0.3-0.1,0.2,0.4,0.4,0.5C35.1,7.8,35.1,7.9,35.1,7.9
		z"/>
	<path class="st148" d="M31.9,8.1c0-0.3,0.2-0.8-0.5-0.5c-0.2,0-0.3,0-0.5,0c-0.1-0.2-0.4-0.5,0-0.7c0.3-0.2,0.1-1,0.8-0.5
		c0.2,0.2,0.3,0.1,0.4-0.7c0.4,0.4,0.1,1,0.3,1.4c0.1,0.2,0.1,0.3-0.1,0.5C32.3,7.8,32.1,8,31.9,8.1z"/>
	<path class="st181" d="M32.4,7.7c0-0.2,0-0.3,0.1-0.5c0.1,0,0.3,0,0.4,0c0.1,0.2,0.2,0.5,0,0.7c-0.2,0.2-0.3,0.2-0.4,0
		C32.5,7.8,32.4,7.7,32.4,7.7z"/>
	<path class="st148" d="M28.4,9.3c0.2,0,0.4-0.2,0.4,0.1c0,0.3-0.2,0.4-0.5,0.4C28.1,9.6,28.1,9.5,28.4,9.3z"/>
	<path class="st211" d="M32.5,7.9c0.1,0,0.3,0,0.4,0c0.3,0,0.6,0,0.7,0.3c-0.1,0.1-0.2,0.1-0.3,0.2C33.2,8,32.6,8.3,32.5,7.9z"/>
</g>
</svg>
