<svg viewBox="0 0 131 10.9">
<style type="text/css">
	.st0{fill:#896F5B;}
	.st1{fill:#83756A;}
	.st2{fill:#695E55;}
	.st3{fill:#332B20;}
	.st4{fill:#92942D;}
	.st5{fill:#ACB82B;}
	.st6{fill:#ADA22F;}
	.st7{fill:#50562C;}
	.st8{fill:#445E79;}
	.st9{fill:#171713;}
	.st10{fill:#CFC4B6;}
	.st11{fill:#B2A38F;}
	.st12{fill:#444C18;}
	.st13{fill:#949B46;}
	.st14{fill:#A6B730;}
	.st15{fill:#C5BE3F;}
	.st16{fill:#EDF0DC;}
	.st17{fill:#CFB93A;}
	.st18{fill:#554A3C;}
	.st19{fill:#6C7C21;}
	.st20{fill:#AAAE4A;}
	.st21{fill:#EFEFDF;}
	.st22{fill:#E8E3CC;}
	.st23{fill:#243313;}
	.st24{fill:#6D6843;}
	.st25{fill:#7B664C;}
	.st26{fill:#645934;}
	.st27{fill:#626A37;}
	.st28{fill:#BFBC8A;}
	.st29{fill:#5E5B24;}
	.st30{fill:#555D35;}
	.st31{fill:#54542D;}
	.st32{fill:#F6F6EC;}
	.st33{fill:#6F7333;}
	.st34{fill:#844B18;}
	.st35{fill:#424F22;}
	.st36{fill:#8B7C5C;}
	.st37{fill:#ABAA9D;}
	.st38{fill:#685E50;}
	.st39{fill:#252F19;}
	.st40{fill:#191813;}
	.st41{fill:#574E51;}
	.st42{fill:#4E5122;}
	.st43{fill:#493F40;}
	.st44{fill:#483F42;}
	.st45{fill:#5A4E44;}
	.st46{fill:#7B8B25;}
	.st47{fill:#51473C;}
	.st48{fill:#23251D;}
	.st49{fill:#575834;}
	.st50{fill:#5C5D35;}
	.st51{fill:#3D2F2C;}
	.st52{fill:#624435;}
	.st53{fill:#797531;}
	.st54{fill:#4C5260;}
	.st55{fill:#DAD6CA;}
	.st56{fill:#596618;}
	.st57{fill:#768C1C;}
	.st58{fill:#493528;}
	.st59{fill:#485419;}
	.st60{fill:#998772;}
	.st61{fill:#DAC0A7;}
	.st62{fill:#68533F;}
	.st63{fill:#BB9F87;}
	.st64{fill:#32281F;}
	.st65{fill:#201F1C;}
	.st66{fill:#23201D;}
	.st67{fill:#2D251B;}
	.st68{fill:#494030;}
	.st69{fill:#33302C;}
	.st70{fill:#413627;}
	.st71{fill:#443D30;}
	.st72{fill:#62574C;}
	.st73{fill:#26201C;}
	.st74{fill:#4A403A;}
	.st75{fill:#292925;}
	.st76{fill:#4F4E31;}
	.st77{fill:#2C1E19;}
	.st78{fill:#636344;}
	.st79{fill:#594F40;}
	.st80{fill:#615243;}
	.st81{fill:#6F5C3E;}
	.st82{fill:#181A13;}
	.st83{fill:#281F0E;}
	.st84{fill:#463D31;}
	.st85{fill:#28241F;}
	.st86{fill:#8B8379;}
	.st87{fill:#4B453C;}
	.st88{fill:#857E52;}
	.st89{fill:#0D0907;}
	.st90{fill:#161616;}
	.st91{fill:#3A3E2A;}
	.st92{fill:#040404;}
	.st93{fill:#39362C;}
	.st94{fill:#161615;}
	.st95{fill:#1F1B14;}
	.st96{fill:#1F1F1A;}
	.st97{fill:#453D2F;}
	.st98{fill:#3C4111;}
	.st99{fill:#394212;}
	.st100{fill:#A4A521;}
	.st101{fill:#555112;}
	.st102{fill:#424310;}
	.st103{fill:#BFC31B;}
	.st104{fill:#39381D;}
	.st105{fill:#281E16;}
	.st106{fill:#373B28;}
	.st107{fill:#3D4514;}
	.st108{fill:#96A14E;}
	.st109{fill:#3D4416;}
	.st110{fill:#999C23;}
	.st111{fill:#171906;}
	.st112{fill:#424622;}
	.st113{fill:#2B3119;}
	.st114{fill:#2D2D16;}
	.st115{fill:#28220E;}
	.st116{fill:#2C3020;}
	.st117{fill:#355F86;}
	.st118{fill:#325F8B;}
	.st119{fill:#EBE5D1;}
	.st120{fill:#2E281A;}
	.st121{fill:#615233;}
	.st122{fill:#806C51;}
	.st123{fill:#968A7C;}
	.st124{fill:#93846A;}
	.st125{fill:#AA9E8B;}
	.st126{fill:#A79274;}
	.st127{fill:#867664;}
	.st128{fill:#313E18;}
	.st129{fill:#39411F;}
	.st130{fill:#394214;}
	.st131{fill:#6B8021;}
	.st132{fill:#586819;}
	.st133{fill:#444F18;}
	.st134{fill:#595054;}
	.st135{fill:#3F3927;}
	.st136{fill:#CFC948;}
	.st137{fill:#4D4E2B;}
	.st138{fill:#626A2B;}
	.st139{fill:#595152;}
	.st140{fill:#9F815C;}
	.st141{fill:#97915E;}
	.st142{fill:#B48D6B;}
	.st143{fill:#535032;}
	.st144{fill:#938E57;}
	.st145{fill:#231F22;}
	.st146{fill:#151513;}
	.st147{fill:#EEEBD7;}
	.st148{fill:#1E1F1B;}
	.st149{fill:#7D7046;}
	.st150{fill:#373623;}
	.st151{fill:#272919;}
	.st152{fill:#070A06;}
	.st153{fill:#2C2825;}
	.st154{fill:#181717;}
	.st155{fill:#262321;}
	.st156{fill:#A69787;}
	.st157{fill:#4C4438;}
	.st158{fill:#857B6E;}
	.st159{fill:#0F1011;}
	.st160{fill:#29261F;}
	.st161{fill:#312D27;}
	.st162{fill:#101010;}
	.st163{fill:#596035;}
	.st164{fill:#404A16;}
	.st165{fill:#30350B;}
	.st166{fill:#76671D;}
	.st167{fill:#AA9E2A;}
	.st168{fill:#6D6011;}
	.st169{fill:#312805;}
	.st170{fill:#273419;}
	.st171{fill:#68771D;}
	.st172{fill:#D3CEBB;}
	.st173{fill:#EBE192;}
	.st174{fill:#A28A19;}
</style>
<g>
	<g>
		<path class="st0" d="M83.9,6.9C81,6.9,78.2,7,75.3,7C66.2,7,57,7,47.9,7c-5,0-10.1,0-15.1,0c-0.2,0-0.4,0-0.5-0.2
			c-0.1-0.1-0.1-0.2-0.1-0.3c0.2-0.4,0.6-0.6,0.7-1C33,5.3,33.2,5,33.5,5.1c0.2,0.1,0.2,0.3,0.2,0.5c0.1,0.7,0.4,0.4,0.6,0.2
			c0.1,0,0.2-0.1,0.3-0.1s0.2,0.1,0.3,0.1c0.2,0.3,0.1,0.8,0.7,0.6c0.1,0,0.2,0,0.3,0c0.2,0,0.4-0.1,0.7-0.2
			c0.1-0.1,0.3-0.1,0.5-0.1c0.8,0.1,1.6,0.2,2.4,0.3c2,0,4,0.2,5.9-0.1c0.5-0.3,1.1-0.2,1.6,0c2.3,0.3,4.6,0.2,6.9,0
			c0.3-0.1,0.5-0.1,0.8,0c1.9,0.3,3.8,0.1,5.7,0.1c0.1,0,0.2,0,0.4,0c0.4,0,0.8-0.1,1.2-0.1c0.4,0,0.7,0,1.1,0s0.7,0,1.1,0
			c0.2,0,0.4,0,0.5,0c0.5,0,1,0.1,1.5,0.1c0.1,0,0.2,0,0.4,0c0.7,0.1,1.3,0.1,1.9-0.1c0.6-0.1,1.2-0.1,1.8-0.1c0.7,0,1.3,0,2,0
			c0.5,0.1,0.9-0.2,1.4-0.3c0.7,0.3,1.5,0.3,2.2,0.3c0.4,0,0.9,0.3,1.3,0.1c0.2,0,0.3,0,0.5,0c0.5,0.1,1,0.2,1.5,0.1
			c0.1,0,0.2,0,0.3,0c0.2,0.2,0.5,0,0.7,0c1.1-0.2,2.3,0.1,3.4,0c0.1,0,0.2,0.1,0.3,0.1C84.2,6.7,84.1,6.8,83.9,6.9z"/>
		<path class="st1" d="M28.9,6.9c-7.9,0-15.7,0-23.6,0c-0.9,0-1.2-0.3-1.2-1.2c0-2.9,0-3,2.8-2.9c3.8,0.1,7.7,0.1,11.5,0.1
			c3.9,0,7.9,0,11.8-0.1c0.5,0,1-0.2,1.5,0.2c0,0.1-0.1,0.1-0.1,0.2c-0.5,0.3-1,0.2-1.6,0.2c-0.3,0-0.7,0-1,0c-0.6,0-1.2,0-1.8,0
			c-0.2,0-0.4,0-0.6,0c-0.4,0-0.8,0-1.2,0c-0.3,0-0.7,0-1,0c-1.8,0.1-3.6-0.3-5.4,0.3c-0.2,0.1-0.4,0.1-0.6,0.2
			c-0.2,0-0.4,0.1-0.5,0.2c-0.4,0.1-0.8,0.1-1.3,0C16.2,4,15.8,4,15.4,3.8c-0.7-0.7-1.5,0-2.2-0.2s-1.4-0.1-2-0.1
			c-0.5,0-1.1,0-1.6,0c-1,0-2.1,0.1-3.1,0C5.9,3.6,5.3,3.3,4.7,3.8C4.5,4.3,4.6,4.9,4.6,5.4c0,0.2,0,0.3,0,0.5
			c0.6,0.6,1.5,0.4,2.2,0.5C7.9,6.5,9,6.5,10,6.3c0.2,0,0.5,0,0.7,0s0.3,0.1,0.5,0.1c0.3,0.1,0.7,0,1-0.2c0.1-0.1,0.2-0.1,0.3-0.1
			c0.4-0.5,0.8-0.1,1.2,0.1c0.3,0,0.6,0,0.9,0c1.1,0,2.1,0,3.2,0.1c0.3,0,0.5,0.2,0.8,0.2c0.9,0,1.9,0,2.8,0c0.3,0,0.5,0.1,0.8-0.1
			c0.7-0.3,1.5-0.6,2.3-0.1c0.2,0,0.4,0.1,0.6,0.1c0.1,0,0.2,0,0.3,0.1c0.4,0.1,0.8,0.1,1.2-0.1c0.5-0.1,1-0.1,1.5,0
			c0.1,0,0.2,0.1,0.3,0.1C28.7,6.5,29,6.6,28.9,6.9z"/>
		<path class="st2" d="M61.1,6.5c-0.1,0-0.2,0-0.2,0l-0.1-0.1c-0.2-0.2-0.3-0.5-0.3-0.8c-0.2-0.6,0.2-1.4-0.5-2
			c-1.9-0.3-3.8-0.1-5.8-0.1c-0.4,0-0.9,0-1.3,0c-3-0.1-6.1,0.1-9.1,0c-0.5,0-1.1,0.1-1.4-0.5c4.4,0,8.8-0.1,13.2-0.1
			c3.7,0,7.4,0.1,11,0.1c0,0.3-0.2,0.4-0.4,0.5c-0.4,0.3-1.1-0.3-1.4,0.3c-0.1,0.9,0.2,1.8-0.3,2.6c-0.4,0-0.8,0-1.2,0
			c-0.3-1-0.6-1.9,0.1-2.8c-0.3,0-0.7,0.1-1,0c-0.3,0-0.5,0-0.7,0.2c-0.4,0.7-0.1,1.5-0.2,2.2C61.3,6.2,61.2,6.4,61.1,6.5z"/>
		<path class="st3" d="M42.4,3c2,0.4,3.9,0.1,5.9,0.2c1.6,0,3.1,0,4.7,0c0.1,0.2,0,0.3-0.1,0.3c-1.3,0.4-2.6,0.1-3.9,0.2
			c-0.3,0-0.5,0-0.8,0.1c-0.4,0.1-0.8-0.1-1.2-0.1c-0.9,0.2-1.2,0.9-1.3,1.7c-0.1,0.4,0,0.9-0.4,1.2c-0.6,0-1.1,0-1.7,0
			C43,6.4,43,6,42.9,5.5c0-0.5-0.1-1-0.3-1.5c-0.1-0.2-0.4-0.4-0.5-0.6C42,3.2,42.1,3,42.4,3z"/>
		<path class="st4" d="M111.1,2.9c4.6,0,9.3,0,13.9,0.1c0.4,0.1,0.8-0.1,1.2,0.1c0.1,0.2,0.1,0.3,0,0.5c-0.7,0.8-0.9,1.4,0.5,1.5
			c0.1,0,0.2,0.2,0.2,0.4c0,0.1,0,0.2-0.1,0.3c-0.2,0.3-0.4,0.7-0.9,0.8c-0.3-0.2-0.5-0.5-0.7-0.8c-0.5-0.6-0.6-1.4-1-2.1
			c-0.8-0.4-1.7-0.1-2.5-0.2c-0.8,0.2-1.6,0.1-2.4,0c-0.4,0-0.8,0-1.2,0s-0.8,0.1-1.2,0.1c-0.5-0.1-1,0-1.5,0c-0.1,0-0.2,0-0.3-0.1
			c-0.7-0.1-1.4,0-2.1-0.1c-0.1,0-0.2,0-0.4,0c-0.5,0-0.9,0-1.4,0.1c-0.1,0-0.2,0-0.3-0.1C110.9,3.2,110.8,3,111.1,2.9z"/>
		<path class="st5" d="M125.9,6.5c0.2-0.2,0.5-0.5,0.7-0.7c0.8-0.2,0.9-0.8,0.9-1.5c0-0.4-0.1-0.8-0.6-0.8c-0.3,0-0.6,0-0.8-0.4
			c-0.4-0.1-0.8,0.1-1.1-0.2c3.1-0.3,3.5,0.1,3,3.2c-0.1,0.7-0.5,0.7-1,0.7c-3.4,0-6.8,0-10.2,0c-0.1-0.2-0.1-0.3,0.1-0.4
			c0.9-0.3,1.8-0.2,2.7-0.2C121.7,6.4,123.8,6.3,125.9,6.5z"/>
		<path class="st6" d="M90.9,6.5c-0.1,0.5-0.4,0.4-0.7,0.4c-1,0-2,0-3.1,0c-0.1-0.3,0.1-0.4,0.2-0.5c0.2-0.2,0.4-0.3,0.5-0.5
			c0.2-0.2,0.3-0.4,0.4-0.6c0.1-0.4,0.3-0.9,0.9-0.9c0.4,0,0.8-0.1,1.2-0.3c0.4-0.1,0.8-0.2,1,0.3c0.2,0.4,0,0.7-0.3,1
			c-0.2,0.3-0.5,0.5-0.9,0.6c-0.1,0.1-0.3,0.2,0,0.4C90.4,6.4,90.7,6.4,90.9,6.5z"/>
		<path class="st7" d="M109.8,6.9c-1.6,0-3.2,0-4.8,0c-1.2-0.1-2.5,0-3.7-0.1c-1-0.1-1.2-0.4-0.9-1.4c0.3-0.4,0.4-0.8,0.9-1
			c0.3,0.1,0.4,0.3,0.4,0.6c0.1,0.4,0,0.8-0.1,1.2c0.6-0.1,1.2-0.1,1.8-0.1c0.5,0,0.9,0,1.4,0c0.8,0,1.6,0,2.5,0c0.3,0,0.6,0,1,0
			c0.2,0,0.4,0,0.5,0c0.2,0,0.4,0,0.6-0.1c0.3-0.7,0.1-1.4,0.1-2.1c0.1-0.4,0.2-0.8,0.8-0.4C110.4,4.7,110.9,5.9,109.8,6.9z"/>
		<path class="st8" d="M66.1,3.4c0.1-0.1,0.3-0.2,0.4-0.3c0.7-0.1,1.3-0.1,2,0c0.1,0.1,0.1,0.3,0,0.5c-0.4,0.3-0.9,0.6-0.1,1
			c0.2,0.1,0.2,0.4,0.1,0.6c-0.6,0.4-1.1,0.7,0,1.1c0.1,0.1,0.1,0.2,0,0.3c-0.7,0.3-1.3,0.4-2,0C66.8,6,66.6,5.5,66.2,5
			c0-0.2,0.1-0.3,0.2-0.5c-0.2,0-0.3,0.3-0.5,0.2C65.4,4.1,65.8,3.7,66.1,3.4z"/>
		<path class="st9" d="M41.9,3.4c0.2,0,0.5-0.1,0.7,0.2C42,4.5,42,5.5,41.7,6.5c-0.1,0.1-0.3,0.1-0.5,0.1c-0.2-0.4-1.1-0.5-0.6-1.3
			c0.1-0.1,0.1-0.1,0.1-0.1c-0.1,0-0.1,0.1-0.2,0.1c-0.7,0.4,0.4,0.8,0,1.2c-0.1,0.1-0.3,0.1-0.5,0.1c-0.4-0.1-0.7-0.3-1-0.7
			c-0.2-0.2-0.2-0.4-0.2-0.6c0.1-0.4,0.5-0.6,0.8-0.9c0.7-0.4,1.3-0.9,2.1-1C41.8,3.4,41.9,3.4,41.9,3.4z"/>
		<path class="st10" d="M109.8,6.9c0.5-1.2,0.2-2.4,0.2-3.6c-0.5,0-1,0.2-1.5,0.1c-0.4-0.1-0.8,0-0.9-0.5c1,0.2,2.1-0.6,2.9,0.4
			c0.2-0.1,0.3-0.3,0.5-0.4c0,0.1,0,0.3,0,0.4c0.4,0.5,0.3,1.1,0.3,1.6s0,1,0,1.4c0,0.2-0.1,0.4-0.3,0.5
			C110.6,6.5,110.2,7.1,109.8,6.9z"/>
		<path class="st11" d="M32.3,3.1c0.9-0.5,1.9-0.1,2.9-0.2c1.1-0.1,2.3,0,3.4,0c0,0.1,0,0.2,0,0.3c-0.3,0.3-0.7,0.5-0.9,0.9
			c-0.3,0.3-0.6,0.3-0.9,0c0-0.1,0-0.1,0-0.2c-0.1,0,0,0.1,0,0.1c-0.1,0.3-0.3,0.5-0.5,0.7c-0.2,0.1-0.5,0.3-0.8,0.1
			c-0.3-0.4,0.1-1-0.4-1.3c-0.4,0-0.6,0.3-1,0.4c-0.1,0-0.2,0-0.3,0c-0.1-0.1-0.2-0.2-0.3-0.3c-0.2-0.2-0.5-0.2-0.8-0.2
			C32.5,3.3,32.3,3.2,32.3,3.1z"/>
		<path class="st12" d="M95.4,4.1c0,0.1,0,0.1-0.1,0.2c-0.2,0.3-0.5,0.4-0.8,0.5c-0.1,0.1-0.1,0.1-0.2,0.2c-0.5,0.5-1,1.1-1.7,1.5
			C92.3,6.6,92.2,7,91.8,7c-0.5-0.5-0.1-0.8,0.2-1.2c0.5-0.6,1-1.1,1.5-1.6C93.7,4.1,93.9,4,94,3.7c0.1-0.1,0.2-0.1,0.3-0.2
			c0.5,0.1,1-0.7,1.5-0.1C95.8,3.7,95.5,3.8,95.4,4.1z"/>
		<path class="st13" d="M100.6,5.5c-0.8,0.8,0,1,0.5,1.1c0.7,0.1,1.5,0,2.3,0.1c0.5,0,1-0.1,1.5,0.2c-3.3,0-6.6,0-10,0
			c-0.3-0.1-0.3-0.3-0.2-0.6c0.1-0.1,0.1-0.2,0.2-0.2c0.2,0,0.3,0,0.5,0c1.2,0.1,2.3,0.5,3.5,0.2c0.4-0.2,0.6-0.6,1-0.9
			C100.3,5.3,100.5,5.3,100.6,5.5z"/>
		<path class="st14" d="M83.9,6.9C84,6.8,84,6.6,84.1,6.5c0.2-0.3,0.8-0.1,0.9-0.6c0-0.2,0-0.4,0-0.6c0-0.5,0.3-0.9,0.5-1.3
			c0.1-0.2,0.2-0.5,0.3-0.7c0.1-0.1,0.1-0.2,0.2-0.2c0.4,0,0.8,0,1.2,0c0.1,0.1,0.1,0.1,0.1,0.2c0,0.1-0.1,0.3-0.1,0.4
			c-0.1,0.2-0.2,0.4-0.3,0.6c-0.1,0.2-0.2,0.4-0.2,0.5c-0.2,0.6-0.4,1.2-0.6,1.8C86,6.8,85.9,6.9,85.8,7C85.2,6.9,84.5,6.9,83.9,6.9
			z"/>
		<path class="st15" d="M81.2,3c0.4,0,0.8,0,1.2,0c0.1,0.1,0.1,0.1,0.1,0.2c0,0.1,0,0.1,0,0.1c-0.3,0.4-0.5,0.8-0.9,1.1
			c-0.1,0.1-0.2,0.2-0.3,0.2C80.1,6,80.1,6,79.4,4.3c0-0.1,0-0.2,0-0.3C79.6,2.9,80.5,3.2,81.2,3z"/>
		<path class="st16" d="M93.5,4.1c-0.2,0.7-0.8,1.2-1.2,1.8c-0.2,0.3-0.6,0.5-0.4,1c-0.4,0.1-0.5-0.3-0.8-0.5C91,6.3,91,6.1,91,5.9
			c0.2-0.4,0.5-0.7,0.6-1.1C92,4.2,92.4,3.5,93,3.1c1-0.2,0.4,0.3,0.2,0.6C93,4.1,92.9,4.3,93.5,4.1z"/>
		<path class="st17" d="M71.4,3c0.3,0,0.6,0,1,0.1c0.3,0.1,0.5,0.4,0.7,0.6c0.2,0.4,0.4,0.8,0.5,1.2c0,0.4,0.2,1-0.4,1.1
			c-0.4,0.1-0.7-0.3-0.9-0.7C72.2,5.1,72.1,5,72,4.8c-0.3-0.4-0.6-0.9-0.9-1.4C71,3.2,71.1,3,71.4,3z"/>
		<path class="st18" d="M111,6.9c0-0.1,0-0.3,0-0.4c0.2-0.2,0.4-0.3,0.7-0.4c0.4-0.3,0.2-0.8,0.5-1.1c0.1-0.1,0.2-0.1,0.3,0
			c0.3,0.1,0.3,0.5,0.7,0.6c0.7,0.4,0.9,0.3,0.9-0.4c0.1-0.8,0.5-0.9,1.1-0.4c-0.2,0.7-0.1,1.3,0.1,2c-1.1,0.2-2.2-0.1-3.3,0.1
			C111.7,6.9,111.3,6.9,111,6.9z"/>
		<path class="st19" d="M107.6,2.9c0.4,0.4,0.9,0.2,1.4,0.2c0.4,0,0.8-0.2,1,0.3c-0.3,0.2-0.5,0.4-0.4,0.8c-0.1,0.4-0.2,0.7-0.7,0.3
			c-0.3-0.5-1-0.2-1.4-0.6c-0.2-0.1-0.4-0.3-0.7-0.3c-0.6-0.1-1.3,0-1.9-0.1c-0.1,0-0.2-0.1-0.3-0.1c-0.1-0.1-0.1-0.2-0.1-0.3
			C105.6,2.9,106.6,2.9,107.6,2.9z"/>
		<path class="st20" d="M81.2,3c-0.4,0.6-1.6,0.1-1.7,1.1c-0.1,0.2-0.1,0.5-0.4,0.5c-0.1,0-0.2-0.1-0.2-0.2
			c-0.1-0.8-0.7-0.5-1.2-0.5c-0.3-0.1-0.3-0.4-0.4-0.7c0-0.1,0-0.2,0.1-0.3C78.7,2.9,80,2.8,81.2,3z"/>
		<path class="st21" d="M95.3,6.2c-0.1,0-0.2,0.1-0.4,0.1C94.7,6,95,5.8,95.1,5.5c0.4-0.7-0.2-0.6-0.6-0.8c0.2-0.3,0.5-0.3,0.8-0.5
			c0.8,0.1,1.5-0.4,2-1c0.5-0.5,0.9-0.5,1.5-0.4c-0.1,0.7-0.7,0.7-1.1,1.1c-0.1,0.1-0.3,0.2-0.4,0.3c-0.5,0.3-1.1,0.5-1.4,1
			C95.8,5.6,95.8,6.1,95.3,6.2z"/>
		<path class="st2" d="M77.4,2.9c0,0.1,0,0.1,0,0.2c-0.1,0.1-0.2,0.2-0.3,0.3c-0.2,0.1-0.3,0.2-0.5,0.2c-0.8,0.1-1.7,0.1-2.5,0.1
			c-0.4,0-0.9,0-1.3,0c-0.1-0.2-0.3-0.4-0.4-0.6C74,3,75.7,3,77.4,2.9z"/>
		<path class="st22" d="M41.7,3.4c-0.7,0.4-1.3,0.8-2,1.2c-0.5-0.1-0.7-0.3-0.4-0.8c0.1-0.2,0.3-0.4,0.4-0.7
			c0.1-0.1,0.1-0.2,0.2-0.2C40.6,2.7,41.2,2.9,41.7,3.4z"/>
		<path class="st23" d="M93,3.1C92.9,4,92.2,4.4,91.8,5c-0.4-0.4-0.6-1.1-1.1-1.5c0-0.1,0.1-0.2,0.2-0.3c0.5-0.2,1-0.1,1.5-0.2
			c0.1,0,0.2-0.1,0.3-0.1C92.8,3.1,92.9,3.1,93,3.1z"/>
		<path class="st6" d="M92.7,3c0,0.1-0.1,0.1-0.1,0.1c-0.5,0.3-1.2-0.1-1.7,0.2l0,0c-0.3,0.5-0.8,0.4-1.2,0.2
			C88.9,3.2,88,3.7,87.3,3V2.9C89,2.9,90.9,2.9,92.7,3z"/>
		<path class="st24" d="M31.3,6.2c-0.1,0.2-0.3,0.3-0.4,0.5c-0.6,0-0.7-0.4-0.7-0.9c0-0.2,0.2-0.4,0.4-0.6c0.4-0.1,0.5-0.5,0.7-0.8
			c0.3-0.1,0.5,0,0.7,0.2c0.2,0.3,0,0.5-0.1,0.8c-0.1,0.2-0.3,0.4-0.5,0.6C31.5,6.2,31.4,6.2,31.3,6.2z"/>
		<path class="st25" d="M30.4,5.8c0,0.4,0.1,0.7,0.5,0.9c-0.4,0.4-1,0.1-1.4,0.2c-0.1-0.1-0.2-0.3-0.2-0.5c0-0.5,0.1-0.9,0.5-1.1
			C30.1,5.1,30.2,5.5,30.4,5.8z"/>
		<path class="st2" d="M71.4,3c-0.1,0.1-0.1,0.2-0.2,0.3c-0.1,0.3-0.4,0.3-0.7,0.3c-0.7-0.1-1.4,0.3-2-0.2c0-0.1,0-0.2,0-0.4
			C69.5,3,70.4,3,71.4,3z"/>
		<path class="st26" d="M32.3,3.1c0.2,0,0.3,0,0.5,0c0.3,0.4,0.6,0.7,0.2,1.2c-0.4,0.1-0.9-0.2-1.3,0.1c-0.1,0-0.2-0.1-0.3-0.2
			c-0.1-0.4-0.1-0.8,0.3-1c0,0,0-0.1,0.1-0.1C32,3.1,32.1,3.1,32.3,3.1z"/>
		<path class="st27" d="M82.5,3.1c0-0.1,0-0.1-0.1-0.2c1.2,0,2.4,0,3.7,0C86.1,3,86,3,86,3.1c-0.2,0.2-0.5,0.3-0.7,0.4
			c-0.1,0-0.2,0-0.3,0c-0.3,0-0.6-0.1-0.9-0.1C83.5,3.4,82.9,3.6,82.5,3.1z"/>
		<path class="st28" d="M112,6.9c0.7-0.4,1.5-0.1,2.2-0.2c0.4,0,0.9,0.2,1.2-0.3c0,0,0.1,0,0.1-0.1h0.1c0,0,0,0.1,0.1,0.1
			c-0.1,0.5-0.6,0.5-1,0.4C113.8,7,112.9,6.9,112,6.9z"/>
		<path class="st29" d="M95.7,3.4c-0.6-0.5-1,0.7-1.5,0.1c0-0.4,0.3-0.5,0.6-0.7c0.4,0,0.7,0,1.1,0C96.1,3.2,96,3.3,95.7,3.4z"/>
		<path class="st30" d="M97.6,3.8c0.4-0.3,0.9-0.6,1.3-0.9c0.2,0,0.4,0,0.6,0c0,0.1,0,0.2,0,0.3C99.3,3.5,99,3.7,98.7,4
			C98.2,4.1,97.8,4.4,97.6,3.8z"/>
		<path class="st31" d="M104.6,3c0,0.1,0,0.1,0,0.2c-1,0.6-2.1,0.4-3.2,0.2c-0.1-0.1-0.2-0.2-0.2-0.4C102.3,2.9,103.4,2.9,104.6,3z"
			/>
		<path class="st32" d="M95.2,5.5C95.1,5.8,95.1,6,95,6.3l0,0c-0.3,0.1-0.4,0.4-0.5,0.7c-0.3,0-0.6,0.1-0.7-0.3
			c-0.1-0.3,0.2-0.4,0.4-0.5C94.5,5.9,94.8,5.7,95.2,5.5z"/>
		<path class="st32" d="M92.7,6.5c0.5-0.6,1.1-1.1,1.7-1.5C94,5.7,93.6,6.3,92.7,6.5z"/>
		<path class="st33" d="M85.8,6.9c0-0.1,0-0.3,0-0.4c0.4-0.2,0.8-0.1,1.2-0.4c0.2,0,0.3,0,0.5,0.1c0.1,0.1,0.1,0.1,0.1,0.2
			c0,0.1,0,0.1-0.1,0.1c-0.1,0.1-0.3,0.3-0.4,0.4C86.6,6.9,86.2,6.9,85.8,6.9z"/>
		<path class="st34" d="M32.3,6.5c0,0.1,0,0.2,0,0.3c-0.5,0.1-1,0.3-1-0.5h0.1c0.2-0.2,0.4-0.4,0.7-0.3C32.2,6.1,32.4,6.2,32.3,6.5z
			"/>
		<path class="st16" d="M95.7,3.4c0.2-0.1,0.2-0.3,0.1-0.5c0.4,0,0.9-0.2,0.4,0.5c-0.2,0.3-0.5,0.5-0.8,0.7
			C95.5,3.9,95.6,3.6,95.7,3.4z"/>
		<path class="st28" d="M116.8,6.8v0.1c-0.5,0.1-0.9,0-1.2-0.4l-0.1-0.1c-0.1-0.3,0-0.5,0.3-0.5C116.2,6.1,116.6,6.3,116.8,6.8z"/>
		<path class="st35" d="M91.2,6c0,0.1-0.1,0.3-0.1,0.4c-0.1,0-0.1,0-0.2,0.1c-0.3,0.1-0.5,0.1-0.7-0.1c-0.1-0.1-0.1-0.3-0.1-0.5
			C90.4,5.8,90.8,5.8,91.2,6z"/>
		<path class="st36" d="M39.9,2.9c0,0.1,0,0.2,0,0.2c-0.5,0.6-0.9,0.3-1.4,0c0-0.1,0-0.1,0-0.2C39,2.9,39.5,2.9,39.9,2.9z"/>
		<path class="st37" d="M101.2,2.9c0,0.1,0,0.1,0,0.2l-0.1,0.1c-0.5,0.2-1,0.2-1.4,0l-0.1-0.1c0-0.1,0-0.1,0-0.2
			C100,2.9,100.6,2.9,101.2,2.9z"/>
		<path class="st21" d="M94.4,7c-0.3-0.6,0-0.7,0.5-0.7c0,0.2,0,0.4,0,0.6C94.8,6.9,94.6,6.9,94.4,7z"/>
		<path class="st38" d="M29.4,6.5c0,0.1,0,0.3,0,0.4c-0.2,0-0.3,0-0.5,0c-0.1-0.2-0.3-0.3-0.4-0.5C28.8,6.2,29.1,6.2,29.4,6.5z"/>
		<path class="st16" d="M94.7,2.9c-0.2,0.2-0.4,0.4-0.6,0.7c-0.1,0-0.1,0-0.2,0C94,3.1,94.2,2.8,94.7,2.9z"/>
		<path class="st39" d="M82.5,3.1c0.6,0,1.2,0,1.9,0c0.5,0.7,0,1.4,0.1,2.2c0,0.1,0,0.2-0.1,0.4c-0.1,0.3-0.2,0.6-0.5,0.7
			c-1.2,0.4-2.4,0-3.6,0c0-1,0.8-1.6,1.3-2.4C81.8,3.7,82,3.3,82.5,3.1z"/>
		<path class="st40" d="M45.2,6.5c0-0.9-0.2-1.8,0.6-2.6c0.4-0.4,0.6-0.5,1.1-0.5c0.3,0.3,0.6,0.6,0.9,0.9c0.3,0.4,0.6,0.8,0.8,1.3
			c0.1,0.3,0.4,0.7-0.2,1c-0.5,0-1,0.1-1.5-0.1c-0.4-0.3-0.8-0.4-1.2,0C45.6,6.6,45.4,6.6,45.2,6.5z"/>
		<path class="st41" d="M68.5,3.4c0.6,0,1.3,0,1.9,0c0.5,1,0.6,2,0,3.1c-0.6,0-1.3,0-1.9,0c0-0.1,0-0.2,0-0.2c-0.2-0.4,0-0.8,0-1.2
			c-0.1-0.1-0.1-0.3-0.2-0.4c-0.3-0.2-0.9,0-0.9-0.6C67.5,3.5,68.1,3.5,68.5,3.4z"/>
		<path class="st42" d="M70.5,6.4c0-1,0-2,0-3.1c0.3,0,0.5-0.1,0.8-0.1c0.6,0.2,0.5,0.9,0.9,1.3c0.2,0.6,0.8,1.1,0.4,1.9
			C71.8,6.5,71.2,6.4,70.5,6.4z"/>
		<path class="st43" d="M76.9,3.4c0.1-0.1,0.2-0.1,0.2-0.2c0.4,0.4,0.2,0.8,0,1.3C77,4.6,77,4.8,76.9,4.9c-0.1,0.2-0.2,0.4-0.2,0.5
			s-0.1,0.3-0.1,0.4c-0.1,0.2-0.2,0.5-0.4,0.6c-0.8,0-1.7,0.4-2.4-0.5c-0.4-0.2-0.4-0.5-0.3-0.9c0.3-0.3,0.5,0,0.7,0
			c0.5-0.1,0.4-0.6,0.6-0.8s0.4-0.5,0.6-0.4C76.3,4.6,76.5,3.7,76.9,3.4z"/>
		<path class="st44" d="M66.1,3.4c0.1,0.4-0.5,0.8,0,1.2c0.1,0.1,0.1,0.2,0.1,0.3c0.3,0.5,0.6,1,0.1,1.6c-0.5,0.4-1-0.1-1.4,0
			c-0.4-0.6-0.2-1.3-0.2-1.9c0.1-0.5,0-0.8-0.3-1.2C65,2.9,65.6,3.6,66.1,3.4z"/>
		<path class="st45" d="M62.3,3.4c0.3,0,0.6,0,1,0c0.3,0,0.7,0,0.7,0.4c0,0.6-0.4,0-0.5,0.2c-0.3,0.2-0.1,0.5-0.2,0.8
			c-0.1,0.6,0.4,1.1,0,1.7c-0.4,0-0.8,0-1.2,0C61.8,5.4,61.6,4.4,62.3,3.4z"/>
		<path class="st46" d="M76.8,4.9c0.1-0.1,0.1-0.2,0.2-0.3c0.1-0.2,0.3-0.4,0.5-0.2c0.4,1.1,1.1-0.1,1.6,0.2v0.1
			c0.5,0.5,0.8,1.1,0.5,1.8c-0.6,0.4-1.1,0.4-1.7,0c-0.3-0.8-0.8,0.2-1.2-0.1c-0.3-0.1-0.5-0.3-0.3-0.6c0-0.2,0.1-0.3,0.1-0.5
			C77,5.4,76.8,5.1,76.8,4.9z"/>
		<path class="st47" d="M62.3,3.4c-0.3,1,0.1,2.1-0.2,3.1c-0.3-0.1-0.6,0.5-1,0c0-0.2,0-0.3,0-0.5c0.3-0.9-0.1-1.8,0.2-2.6
			C61.6,3.4,62,3.4,62.3,3.4z"/>
		<path class="st48" d="M54.6,6.5c-0.1-0.2-0.2-0.2-0.3,0c-0.2,0.2-0.5,0.1-0.7,0.1c-0.4-0.4-0.3-0.9-0.2-1.4c0-0.1,0-0.2,0.1-0.4
			c0.1-0.3,0.1-0.7,0.1-1.1c0-0.4,0.2-0.5,0.6-0.4c0.1,0,0.2,0,0.3,0.1c0,1.1,0.9,2,0.7,3.2C54.9,6.6,54.8,6.6,54.6,6.5z"/>
		<path class="st49" d="M45.2,6.5c0.2,0,0.3,0,0.5,0c-2.2,0.3-4.4,0.3-6.5,0l0.1-0.1c0.2-0.1,0.4-0.1,0.7,0.1c0.2,0,0.3,0,0.5,0
			c0.2-0.2,0.5-0.2,0.7,0c0.2,0,0.3,0,0.5,0c0.3-0.6,0-1.3,0.2-1.9c0.5,0.1,0.7,0.5,0.7,0.9c0,0.5,0.3,0.8,0.7,1
			C44,6.5,44.6,6.5,45.2,6.5z"/>
		<path class="st50" d="M39,5.3c0,0.2,0,0.4,0.2,0.5c0.2,0.2,0.2,0.5,0,0.7l-0.1,0.1c-0.7,0-1.5,0-2.2-0.3c0-0.5,0.4-0.6,0.7-0.9
			c0.1-0.1,0.3-0.2,0.5-0.2C38.5,5,38.8,5,39,5.3z"/>
		<path class="st49" d="M53.7,6.5c0.2,0,0.5,0,0.7,0c-0.3,0.4-0.8,0.3-1.2,0.2C51.1,6.6,49,7,47,6.5c0.6,0,1.1,0,1.7-0.1
			c1.3-0.7,2.7-0.2,4-0.3C53,6.1,53.3,6.2,53.7,6.5z"/>
		<path class="st51" d="M64.4,3.4c0.6,0.1,0.8,0.5,0.6,1c-0.2,0.7-0.1,1.4-0.2,2.1c-0.1,0-0.3,0-0.4,0C64.5,5.4,64.5,4.4,64.4,3.4z"
			/>
		<path class="st52" d="M34.5,5.7c-0.3,0.2-0.3,1-0.7,0.8c-0.6-0.3-0.2-1-0.3-1.5c-0.1-0.1-0.2-0.3-0.2-0.5s0-0.3,0.1-0.5
			c0.1-0.1,0.2-0.1,0.3-0.1C34,4,34.3,4.1,34.5,4.4c0.1,0.1,0.1,0.3,0,0.5s-0.2,0.3-0.1,0.5S34.5,5.7,34.5,5.7z"/>
		<path class="st46" d="M81.5,4.1c-0.4,0.8-0.8,1.6-1.3,2.4c-0.2,0-0.3,0.2-0.4,0c-0.1-0.7-0.6-1.4-0.2-2.1C80,4.7,80,5.2,80.2,5.7
			C80.7,5.1,80.8,4.4,81.5,4.1z"/>
		<path class="st49" d="M54.6,6.5c0.2,0,0.3,0,0.5,0c0.2-0.2,0.5-0.3,0.8-0.3c0.5-0.1,1,0,1.5,0c1.1,0.1,2.3-0.3,3.4,0.3h0.1
			C58.8,6.9,56.7,6.9,54.6,6.5z"/>
		<path class="st53" d="M73.6,5.1c0,0.3,0.1,0.6,0.2,0.9c-0.3,0.4-0.7,0.6-1.3,0.5c-0.1-0.6-0.3-1.2-0.4-1.9
			c0.5,0.3,0.4,1.1,1.1,1.2c0.2-0.3,0.1-0.7,0.1-1C73.6,4.8,73.6,4.8,73.6,5.1z"/>
		<path class="st54" d="M66.3,6.5c0.1-0.6-0.1-1.1-0.2-1.7c0.1-0.1,0.2-0.1,0.2,0c0.7,0.5,1.3,1,0.2,1.7C66.5,6.5,66.4,6.5,66.3,6.5
			z"/>
		<path class="st55" d="M37.9,5.6c-0.3,0.2-0.6,0.4-0.8,0.7c-0.1,0-0.3,0-0.4,0c-0.2-0.1-0.3-0.3-0.4-0.5c-0.1-0.3-0.5-0.7,0-1
			c0.4,0,0.7,0.3,1.1,0.4C37.6,5.2,37.8,5.3,37.9,5.6z"/>
		<path class="st56" d="M79.6,4.3c0.1,0.7,0.3,1.4,0.2,2.1c-0.1,0-0.1,0-0.2,0c-0.1-0.6-0.5-1.2-0.5-1.8c0.1-0.2,0.3-0.3,0.4-0.5
			C79.5,4.2,79.5,4.3,79.6,4.3z"/>
		<path class="st57" d="M83.8,6.5c0-0.3,0-0.5,0.3-0.7C84.6,5.5,85,5.7,85.3,6c-0.1,1.1-0.8,0.3-1.2,0.5C84,6.5,83.9,6.5,83.8,6.5z"
			/>
		<path class="st58" d="M36.1,6.5L36.1,6.5h-0.2C35.3,6.7,35,6.6,35.1,6c0-0.2,0.1-0.4,0.3-0.5c0.3-0.1,0.5,0,0.7,0.1
			C36.3,5.9,36.8,6.2,36.1,6.5z"/>
		<path class="st59" d="M76.9,6.3C77.2,6.1,77.5,5.6,78,6c0.4,0.3,0.1,0.4-0.1,0.5c-0.2,0-0.3,0-0.5,0C77.1,6.6,76.9,6.7,76.9,6.3z"
			/>
		<path class="st60" d="M34.4,5c0-0.2,0-0.3,0-0.5c0.7-0.7,0.7-0.1,0.9,0.4c-0.1,0.4-0.4,0.6-0.6,0.8c-0.1,0-0.1,0-0.2,0
			c0-0.1,0-0.1-0.1-0.2C34.3,5.4,34.3,5.2,34.4,5z"/>
		<path class="st61" d="M32.3,6.5c-0.1-0.2-0.2-0.3-0.2-0.5c0,0,0-0.1,0-0.2c0.1-0.1,0.2-0.3,0.3-0.4c0.1-0.1,0.2-0.1,0.3-0.1
			s0.2,0.1,0.3,0.1C33,6.1,32.7,6.3,32.3,6.5z"/>
		<path class="st62" d="M36.1,6.5c0.4-0.4,0-0.6-0.3-0.8c0.1-0.5,0.4-0.4,0.7-0.2c0,0.2,0,0.4,0.1,0.7C36.6,6.5,36.5,6.9,36.1,6.5z"
			/>
		<path class="st53" d="M76.9,6.3c0.1,0.1,0.3,0.2,0.5,0.3C77,7,76.6,6.5,76.2,6.5c0-0.3,0-0.5,0.2-0.7C76.5,6.1,76.6,6.2,76.9,6.3z
			"/>
		<path class="st62" d="M35.1,5.8c0,0.5,0.2,0.8,0.7,0.7c-0.9,0.6-1.1,0.1-1-0.7C35,5.7,35.1,5.7,35.1,5.8z"/>
		<path class="st63" d="M32.9,5.5c-0.1,0-0.1,0-0.2,0c-0.3-0.4-0.1-0.7,0.2-1c0.2-0.1,0.4-0.1,0.5,0.1c0,0.1,0,0.3,0,0.4
			C33.3,5.2,33.1,5.4,32.9,5.5z"/>
		<path class="st64" d="M35.1,5.8L35.1,5.8h-0.2c-0.1,0-0.2,0-0.2,0c-0.1-0.4,0.2-0.6,0.5-0.7c0.1-0.1,0.2-0.1,0.3,0
			c0.1,0.2,0.1,0.3,0,0.5C35.3,5.6,35.2,5.7,35.1,5.8z"/>
		<path class="st65" d="M29.4,6.5c-0.3,0-0.6,0-0.9,0l0,0c-0.2-0.3,0-0.6-0.1-0.9c-0.2-0.4-0.4-0.1-0.6,0c-0.1,0.1-0.2,0.1-0.3,0.1
			c-0.7-0.2-1-0.8-0.9-1.5c0.1-0.4,0.3-0.8,0.7-1c0.6,0,1.3,0,1.9,0c0.3,0.4,0.7,0.1,1,0c0.5,0,1.1,0,1.6,0.1
			c-0.2,0.3-0.3,0.7-0.2,1.1c-0.1,0.1-0.2,0.1-0.3,0.1C31.1,4.4,31,4.2,31.1,4l0.1-0.1c0,0.1,0,0.1-0.1,0.2
			c-0.2,0.3-0.4,0.5-0.2,0.8c0.2,0.2,0.2,0.5,0,0.8c-0.2,0-0.4,0.1-0.5,0.3C29.3,4.9,29.5,6,29.4,6.5z"/>
		<path class="st66" d="M22.2,6.5c-0.2,0.3-0.3-0.1-0.5,0c-0.1,0.1-0.2,0.1-0.3,0c-0.3-0.2-0.5-0.4-0.5-0.8c0.1-0.5,0.6-1.2-0.5-1.2
			c-0.2,0-0.3-0.2-0.3-0.4c0-0.3,0-0.6,0.3-0.8c0.9-0.1,1.8,0,2.7,0c0.2,0,0.4,0,0.5,0.2C24,4.3,24,3.4,24.1,3.4
			c0.2-0.1,0.3-0.1,0.5,0c0.1,0.1,0.2,0.3,0.3,0.4c0.1,0.3,0.2,0.7,0.1,1c-0.3,0.7-0.9,0.9-1.5,1.1C23,6,22.6,6.1,22.2,6.5z"/>
		<path class="st67" d="M6.6,3.2c1,0,2.1,0,3.1,0c0.2,0.2,0.2,0.4,0.2,0.6c0,0.6,0,1.2-0.6,1.5C8.6,5.7,7.9,5.8,7.1,5.9
			c-0.1,0-0.2,0-0.3,0C6.3,5.7,6.2,5.4,6.4,5c0.2-0.5-0.2-1,0-1.5C6.5,3.3,6.5,3.2,6.6,3.2z"/>
		<path class="st68" d="M6.6,3.4C6.7,4.2,6.8,5,6.9,5.8C6.7,6,6.5,6,6.3,6C5.8,5.7,5.1,6,4.6,5.6c0-0.7,0-1.5,0-2.2
			C5.2,3.2,5.9,3.2,6.6,3.4z"/>
		<path class="st69" d="M23.4,3.4c-1,0-2.1,0-3.1,0c-0.3,0.3-0.1,0.7-0.1,1.1C20.3,5,20.1,5.5,20,6c-0.1,0.3-0.4,0.5-0.6,0.6
			c-0.2,0-0.4,0-0.7,0c-0.3-0.2-0.5-0.5-0.8-0.8c-0.1-0.5,0.4-0.5,0.6-0.7c0.3-0.3,0.6-0.5,0.4-1c-0.1-0.2-0.1-0.3-0.1-0.5
			c1.1-0.7,2.3-0.4,3.5-0.5c0.7,0,1.5,0,2.2,0c0.1,0,0.1,0.1,0.1,0.1s0,0.1-0.1,0.1c-0.2,0-0.3,0-0.5,0C23.9,3.6,23.6,3.5,23.4,3.4z
			"/>
		<path class="st70" d="M17.9,5.8c0.5,0,0.8,0.2,0.7,0.7c0.1,0,0.1,0.1,0.1,0.1l-0.1,0.1c-0.2,0-0.4,0-0.5-0.2
			c-1.1-0.4-2.2-0.6-3.3-0.7c-0.5-0.2-1-0.3-1.5-0.1c-0.2,0-0.4,0-0.7-0.1c-0.2-0.1-0.4-0.3-0.2-0.6c0.6-0.5,1.3-0.6,2-0.5
			c0.4,0.2,0.9,0.8,1.2-0.1c0.1-0.1,0.2-0.3,0.4-0.3c0.2,0,0.3,0,0.5,0c0.4,0.4,0.2,1.1,0.8,1.3C17.5,5.4,17.7,5.5,17.9,5.8z"/>
		<path class="st71" d="M10.4,6.5C9.2,6.9,8,6.9,6.8,6.5C6.7,6.3,6.8,6.2,7,6c0.7-0.3,1.4-0.4,2.1-0.6c0.4-0.1,0.8-0.3,1.3-0.1
			C10.9,5.7,10.8,6.1,10.4,6.5z"/>
		<path class="st72" d="M14.5,5.5C15.7,5.3,16.7,6,17.8,6c0.2,0,0.3,0.2,0.3,0.4c-1.2,0-2.4,0-3.6,0C14.3,6.1,14.2,5.8,14.5,5.5z"/>
		<path class="st73" d="M17.9,5.8c-0.3,0-0.5,0-0.7-0.2c-0.3-0.2-0.3-0.5,0-0.7c0.4-0.3,0.7-0.6,1-1c0.1,0,0.2-0.1,0.3-0.1
			C18.7,4,19,3.9,19.2,4c0.4,0.5,0.5,0.9-0.1,1.3C18.6,5.3,18.2,5.5,17.9,5.8z"/>
		<path class="st74" d="M22.2,6.5c0.1-0.6,0.7-0.6,1.1-0.8c0.6-0.2,1.1-0.5,1.5-1c0.5-0.1,0.7,0.2,0.9,0.5c0.1,0.4,0.2,0.8-0.1,1.1
			c-0.1,0.1-0.2,0.1-0.3,0l0,0c-0.2-0.4-0.5-0.6-0.7,0C23.8,5.9,23,6.5,22.2,6.5z"/>
		<path class="st75" d="M13.6,3.3c0.5-0.1,1.1-0.2,1.6-0.2c0.4,0,0.5,0.1,0.3,0.5l-0.1,0.1c-1.1,0.3-2.2,0.9-3.5,0.6
			c-0.2-0.6,0.2-0.8,0.6-1.1C12.8,3.2,13.2,3.2,13.6,3.3z"/>
		<path class="st76" d="M24.6,3.4c0-0.1,0-0.1,0-0.2c0.3,0,0.6,0,0.9,0c0.4,0.2,0.8,0.3,1.3,0c0.1,0,0.3,0,0.5,0
			c-0.2,0.3-0.3,0.6-0.5,0.9c-1,0.8-1.5,0.7-2.1-0.2C24.6,3.7,24.6,3.5,24.6,3.4z"/>
		<path class="st77" d="M18.1,3.8c0.1,0.5-0.1,0.9-0.6,1.1c-0.3,0.1-0.6,0.3-0.3,0.7c-0.9-0.1-0.7-0.8-0.7-1.4
			c0-0.2,0.1-0.2,0.3-0.3C17.2,3.8,17.6,3.8,18.1,3.8z"/>
		<path class="st78" d="M28.7,5.6c-0.1,0.3-0.1,0.6-0.2,0.9c-0.6,0-1.3,0-1.9,0.1l-0.1-0.1c-0.2-0.4-0.1-0.8,0.2-1
			c0.4-0.3,0.5,0.2,0.7,0.3s0.3,0,0.4-0.1l0,0C28.1,5,28.4,5.2,28.7,5.6z"/>
		<path class="st79" d="M7.1,6.2C7,6.3,6.9,6.4,6.9,6.5C6,6.7,5.2,6.7,4.5,6C5,5.7,5.6,5.6,6.2,5.8c0.2,0,0.5,0,0.7,0
			c0.1,0,0.1,0,0.2,0C7.2,5.9,7.2,6.1,7.1,6.2z"/>
		<path class="st80" d="M10.4,6.5c0-0.3,0.2-0.6,0-0.9c0.3-0.5,0.9-0.6,1.5-0.7c0.2,0,0.4,0.1,0.5,0.2c0.2,0.1,0.3,0.1,0.5,0.2
			c0.1,0.4-0.2,0.5-0.5,0.6C11.9,6,11.5,6,11.2,6.5C10.9,6.5,10.7,6.5,10.4,6.5z"/>
		<path class="st81" d="M14.5,5.5c0,0.3,0,0.6,0,1c-0.3,0-0.6,0-1,0c-0.2-0.3-0.1-0.7-0.2-1C13.7,5.1,14.1,4.8,14.5,5.5z"/>
		<path class="st82" d="M9.7,3.8c0-0.2,0-0.4,0-0.6c0.5,0,1.1,0,1.6,0c0.1,0.1,0.2,0.2,0.2,0.3c0,0.5-0.4,0.6-0.8,0.6
			c-0.3,0-0.5,0-0.7-0.1C9.9,4,9.8,3.9,9.7,3.8z"/>
		<path class="st38" d="M13.3,5.5c0.4,0.2,0.2,0.6,0.2,1c-0.1-0.8-0.6-0.1-0.9-0.2c-0.2-0.1-0.4-0.2-0.3-0.5
			c0.2-0.2,0.3-0.3,0.5-0.5C13,5.4,13.2,5.4,13.3,5.5z"/>
		<path class="st38" d="M24.6,6.5C24.1,5.9,25,5.8,25,5.4c0.5,0.3,0.3,0.7,0.3,1.1C25.1,6.5,24.8,6.5,24.6,6.5z"/>
		<path class="st74" d="M18.6,6.7c0-0.1,0-0.1,0-0.2c0.2,0,0.5,0,0.7,0c0.7-0.4,1.4-0.5,2.1,0c0.1,0,0.2,0,0.2,0
			C20.7,7,19.6,6.6,18.6,6.7z"/>
		<path class="st83" d="M6.1,5.8C5.5,5.9,5,6.1,4.4,6c0-0.1,0-0.3,0-0.4C5,5.7,5.7,5,6.1,5.8z"/>
		<path class="st84" d="M12.3,5.8c0.1,0.2,0.2,0.3,0.3,0.5h-0.1c-0.3,0.3-0.9,0-1.2,0.5c-0.1-0.1-0.2-0.1-0.3-0.2
			C11,5.3,11.8,5.7,12.3,5.8z"/>
		<path class="st85" d="M11.4,6.7c0-1.2,0.7-0.4,1.2-0.5C12.4,6.8,11.9,6.7,11.4,6.7z"/>
		<path class="st86" d="M16.7,3.9c-0.1,0.1-0.2,0.2-0.3,0.3c-0.1,0-0.3,0-0.4,0c-0.3,0.1-0.8,0.4-1-0.1c-0.1-0.3,0.3-0.2,0.4-0.4
			l0,0C15.9,3.7,16.4,3.4,16.7,3.9z"/>
		<path class="st87" d="M11.4,3.4c0-0.1,0-0.1,0-0.2c0.7,0.1,1.5-0.2,2.2,0.2c-0.4,0-0.8,0-1.2,0.1C12,3.6,11.7,3.6,11.4,3.4z"/>
		<path class="st87" d="M6.6,3.4c-0.7,0-1.4,0-2.1,0c0.7-0.5,1.4-0.2,2.2-0.2C6.6,3.2,6.6,3.3,6.6,3.4z"/>
		<path class="st88" d="M26.8,3.1c-0.4,0.8-0.9,0.4-1.3,0C25.9,3.1,26.4,3.1,26.8,3.1z"/>
		<path class="st88" d="M30.1,3.1c-0.3,0.3-0.7,0.9-1,0C29.5,3.1,29.8,3.1,30.1,3.1z"/>
		<path class="st38" d="M25.3,6.5c0.1,0,0.2,0,0.3,0c0.2-0.2,0.4-0.2,0.6-0.2c0.1,0,0.2,0.1,0.3,0.2l0,0C26.1,6.8,25.7,6.8,25.3,6.5
			z"/>
		<path class="st89" d="M19.1,3.8c-0.3,0.1-0.6,0.4-0.7-0.2c0.1,0,0.3,0,0.4-0.1C18.9,3.7,19,3.8,19.1,3.8z"/>
		<path class="st90" d="M60.8,6.5c-1.2,0-2.4,0-3.5,0c-0.9-0.9-1.4-1.9-1-3.2c0.3-0.1,0.7,0,1-0.1c0.5,0.1,1,0.2,1.1,0.8
			c0.1,0.3,0.3,0.5,0.7,0.6c0.6,0.1,1,0.5,1.3,0.9c0,0.2,0,0,0,0.1s0,0.3,0.1,0.4c0-0.1,0-0.2,0.1-0.3C60.8,5.9,60.8,6.2,60.8,6.5z"
			/>
		<path class="st91" d="M53.7,6.5c-0.3,0-0.7,0-1,0c-0.6-1.1-0.5-2.1,0.2-3.1c0-0.1,0-0.1,0-0.2c0.4,0,0.8,0,1.2,0
			c0.1,0,0.1,0.1,0.1,0.1l-0.1,0.1c-0.7,0.3,0.1,1.1-0.5,1.4c-0.2-0.1-0.2-0.3-0.3-0.5c0,0-0.1,0.1-0.1,0.2c0,0.3,0.3,0.2,0.4,0.3
			C53.6,5.4,53.7,5.9,53.7,6.5z"/>
		<path class="st3" d="M54.1,3.4c0-0.1,0-0.1,0-0.2c2.1,0,4.2-0.2,6.2,0.1c0,0.1-0.1,0.3-0.2,0.3c-0.9,0.3-1.8,0-2.6-0.2
			c-0.4,0-0.8,0-1.2,0c-0.2,0.2-0.5,0.3-0.8,0.3c-0.4,0-0.8,0-1.2-0.3C54.3,3.4,54.2,3.4,54.1,3.4z"/>
		<path class="st92" d="M60.6,5.7c0,0.1-0.1,0.2-0.1,0.3c-0.2-0.1-0.1-0.3-0.1-0.5c-0.4-0.7-0.5-1.4,0-2.2V3.2
			C60.9,4,60.5,4.9,60.6,5.7z"/>
		<path class="st93" d="M61.3,3.4c-0.1,0.9,0.3,1.8-0.2,2.6C61.2,5.1,60.8,4.2,61.3,3.4z"/>
		<path class="st94" d="M52.9,3.4c-0.3,1-0.4,2.1-0.2,3.1c-1.4,0-2.7,0-4.1,0c-0.3-0.7-0.6-1.4-1-2.2l0.1-0.1
			C48,4,48.3,3.7,48.6,3.4C50,3.4,51.5,3.4,52.9,3.4z"/>
		<path class="st95" d="M43.3,6.5c-1.7,0.4-0.5-1.4-1.3-1.7c-0.4,0.5,0.2,1.2-0.3,1.7c0-1.1-0.3-2.2,1-2.9
			C43.5,4.4,42.8,5.6,43.3,6.5z"/>
		<path class="st96" d="M47.6,4.3c-0.6-0.1-0.6-0.5-0.7-1c0.4,0.1,0.8,0.2,1.2,0.2C48.3,4.1,47.8,4.1,47.6,4.3L47.6,4.3z"/>
		<path class="st40" d="M47.6,4.3c0.2-0.2,0.3-0.5,0.5-0.7c0.1-0.2,0.3-0.2,0.5-0.2C48.5,3.9,48.3,4.4,47.6,4.3z"/>
		<path class="st97" d="M115.1,4.8c-0.5-0.1-1-0.3-0.7,0.6c0.1,0.3,0.1,0.6-0.1,0.9C114,6,113.6,6.4,113.2,6
			c-0.4-0.4-0.1,0.5-0.6,0.3c0-0.4-0.1-0.8-0.1-1.3c-0.1-0.6-0.6-1-0.3-1.7c0.2-0.2,0.4-0.1,0.6-0.2c0.1,0,0.2,0,0.2,0
			c0.8,0.1,1.6,0.2,2.4,0.2l0,0c0.2,0.3,0.3,0.6,0.2,0.9C115.4,4.5,115.3,4.7,115.1,4.8z"/>
		<path class="st98" d="M119.4,3.2c0.7,0.1,1.4,0.2,2.1,0c0.3,0.2,0.7,0,1,0.2c0,0.1,0.1,0.2,0,0.2c-1.1,0.7-1.8,1.7-2,3
			c-0.4,0-0.8,0-1.2,0c-0.5-0.2-0.1-0.7-0.3-1c-0.1-0.4-0.1-0.8-0.3-1.2c-0.1-0.5,0.4-0.7,0.6-1C119.3,3.3,119.3,3.2,119.4,3.2z"/>
		<path class="st99" d="M124.6,3.4c0,0.9,0.5,1.6,0.8,2.4c0.3,0.5,0.5,0.9-0.4,0.9c-0.8,0-1.5,0-2.3,0c-1-0.8,0.2-1.2,0.4-1.8
			c0.2-0.3,0.3-0.6,0.4-1c0.1-0.2,0.2-0.4,0.5-0.5C124.2,3.2,124.4,3.2,124.6,3.4z"/>
		<path class="st100" d="M126.1,3.1c0.2,0,0.4,0.2,0.6,0.1c1.1-0.4,1.2,0.2,1.1,1c-0.3,0.5-0.3,1.2-1.2,1.2c0-0.2-0.1-0.5-0.3-0.4
			c-0.7,0.6-0.8-0.2-1-0.5c-0.3-0.4-0.1-0.7,0.3-1C125.8,3.6,125.9,3.3,126.1,3.1z"/>
		<path class="st101" d="M122.5,6.5c0.8,0,1.6,0,2.4,0c0.7,0.1,0.5-0.4,0.5-0.8c0.3,0.2,0.5,0.4,0.5,0.8c-0.4,0.4-0.8,0.2-1.2,0.3
			c-2.6,0-5.2,0-7.8,0.1c-0.4-0.1-0.8-0.4-1-0.8c-0.2-0.1-0.3-0.3-0.3-0.5c0-0.1,0-0.2,0-0.3c0-0.2,0.1-0.4,0.1-0.6
			c0.1-0.4-0.1-0.9,0.6-0.8c0.2,0.3,0.2,0.6,0.2,0.9c-0.1,0.6,0.4-0.1,0.4,0.2c0.4,0.3-0.2,0.9,0.3,1.1c0.7,0.2,1.5-0.2,2.2,0.4
			c0.5,0,1,0,1.4,0C121.2,6,121.9,6,122.5,6.5z"/>
		<path class="st102" d="M116.5,6.2c-0.5-0.5,0.2-0.8,0.2-1.2c0-0.2,0-0.4,0.1-0.6c0.2-0.4-0.3-0.6-0.4-0.9c0-0.2,0.1-0.3,0.3-0.2
			c0.4-0.1,0.8-0.1,1.2-0.2c0.2,0.1,0.5,0,0.6,0.3C117.7,4.3,117.9,5.8,116.5,6.2z"/>
		<path class="st103" d="M126.6,5.5c0.5-0.3,0.6-1,1.2-1.2c0.2,0.8-0.2,1.3-0.7,1.7c-0.3,0.3-0.4,0-0.4-0.3
			C126.6,5.7,126.6,5.6,126.6,5.5z"/>
		<path class="st104" d="M116.8,3.4c-0.1,0.1-0.2,0.2-0.3,0.2c0,0.1-0.1,0.2-0.2,0.3c-0.1,0-0.2,0-0.2-0.1c-0.6,0.2-0.2,0.6-0.2,1
			c-0.2,0.1-0.4,0-0.5-0.2c0-0.1,0-0.2,0-0.3c0-0.3,0-0.6,0-1C115.8,3.4,116.3,2.7,116.8,3.4z"/>
		<path class="st18" d="M115.3,3.3c-0.3,0.1-0.2,1-0.8,0.2c-0.4-0.5-1.1,0.1-1.6-0.4C113.7,3.2,114.6,2.9,115.3,3.3z"/>
		<path class="st97" d="M124.6,3.4c-0.2,0-0.4,0-0.7,0c-0.5,0.3-1,0.4-1.4,0c-0.3,0-0.7,0.1-1-0.2C122.6,3.2,123.6,2.9,124.6,3.4z"
			/>
		<path class="st105" d="M111,5c0-0.6,0-1.1,0.1-1.7h0.1c0.1-0.1,0.2-0.1,0.3,0c0.2,0.4,0.1,0.7,0,1.1C111.5,4.7,111.5,5.1,111,5z"
			/>
		<path class="st18" d="M111.5,3.4c-0.1,0-0.2,0-0.3,0c0.5-0.4,1-0.2,1.5-0.2c-0.2,0.1-0.3,0.2-0.5,0.2c-0.1,0.1-0.2,0.1-0.3,0.2
			C111.7,3.5,111.6,3.5,111.5,3.4z"/>
		<path class="st97" d="M118.4,3.4c-0.2-0.1-0.3-0.1-0.5-0.2c0.5,0,1,0,1.5,0c0,0.1,0,0.1,0,0.2C119.1,3.6,118.8,3.6,118.4,3.4z"/>
		<path class="st106" d="M91.2,6c-0.4,0-0.7,0-1.1,0C90,6,89.8,5.9,90,5.7c0.4-0.5,1.6-0.6,1.2-1.3c-0.3-0.8-1.1,0.3-1.7,0.1
			c-0.1,0-0.2,0-0.4,0c-0.1-0.1-0.1-0.2,0-0.3c0.2-0.3,0.4-0.6,0.7-0.9l0.1-0.1c0.3,0.3,0.6,0.3,0.9,0.1c0.3,0.5,0.8,1,0.9,1.7
			C91.7,5.5,91.5,5.8,91.2,6z"/>
		<path class="st107" d="M88.5,5.5c-0.2,0.2-0.3,0.4-0.5,0.6c-0.1-0.1-0.2-0.2-0.3-0.3c-0.1-0.2-0.1-0.5-0.4-0.1
			C87,5.5,87,5.2,87,4.9c0.4-1.2,0.4-1.2,1.3-0.6C88.5,4.6,88.7,5.1,88.5,5.5z"/>
		<path class="st108" d="M88.5,5.5c0.1-0.5-0.3-0.8-0.4-1.2c0-0.3,0.1-0.6,0.5-0.6c0.3,0.1,0.5,0.3,0.6,0.6c0,0.1,0,0.1,0,0.2
			C88.5,4.6,88.8,5.3,88.5,5.5z"/>
		<path class="st109" d="M87.5,5.5c0-0.1,0.1-0.2,0.1-0.3C87.9,5.4,87.9,5.7,88,6c-0.2,0.1-0.3,0.3-0.5,0.4c0-0.1,0-0.1,0-0.2
			C87.3,6,87.3,5.8,87.5,5.5z"/>
		<path class="st110" d="M89.9,5.8C89.9,5.9,90,6,90,6.1s0,0.3,0.1,0.4c-0.2,0-0.6,0.1-0.6-0.3C89.5,6,89.7,5.8,89.9,5.8z"/>
		<path class="st111" d="M107.2,3.2c0.1,0.1,0.3,0.3,0.4,0.4c0.2,0.3,0.3,0.5,0.7,0.4c0.3-0.1,0.5,0.1,0.7,0.3
			c0.3,0.3,0.4-0.1,0.5-0.2c0.3,0.8,0.4,1.6,0,2.4c-0.1-0.1-0.1-0.2-0.2-0.3s0-0.4-0.2-0.4C109,6,109,6.3,108.8,6.4
			c-0.2,0-0.3,0-0.5,0c-0.3-0.4-0.6-0.4-1,0c-0.9,0-1.7,0-2.6,0c-0.4-0.7,0.4-1,0.5-1.5c0.2-0.3,0.4-0.7,0.6-1
			C106.2,3.5,106.7,3.3,107.2,3.2z"/>
		<path class="st112" d="M106,4.1c0,0.4-0.3,0.6-0.5,1c-0.4,0.6-1.1,0.1-1.7,0.3s-0.9,0.5-0.5,1.1c-0.2,0-0.3,0-0.5,0
			c-1.2,0.2-1.7-0.2-1.5-1.4c0.7-0.6,1.4-1.2,2.4-1c0.2,0.3,0,0.5-0.3,0.6C104.3,4.3,105,3.3,106,4.1z"/>
		<path class="st113" d="M103.8,4.1c-0.8,0.3-1.6,0.6-2.4,1c0-0.2,0-0.4-0.2-0.5c-0.1-0.1-0.2-0.2-0.2-0.3c-0.1-0.4-0.1-0.8,0.2-1.1
			l0,0c1.1,0,2.3,0,3.4,0c0.1,0,0.1,0,0.2,0c0.2,0.2,0.9,0.2,0.3,0.6C104.7,4,104.3,4.3,103.8,4.1z"/>
		<path class="st114" d="M103.3,6.5c-0.2-0.5-0.7-0.4-1.1-0.7c1.1-0.6,2.1-1,3.3-0.8c0,0.6-0.7,0.8-0.7,1.4
			C104.3,6.5,103.8,6.5,103.3,6.5z"/>
		<path class="st37" d="M101.1,4.4c0,0.1,0,0.1,0,0.2c-0.2,0.3-0.3,0.6-0.5,1c-0.2,0-0.4,0-0.6,0c0,0-0.1-0.1-0.2-0.1
			c-0.2-0.4-0.2-0.8-0.2-1.2c0.1-0.4,0.3-0.8,0.8-0.8C101,3.5,101,4,101.1,4.4z"/>
		<path class="st115" d="M107.4,6.5c0-0.4,0-0.9,0.5-0.8c0.4,0,0.4,0.5,0.4,0.8C108,6.5,107.7,6.5,107.4,6.5z"/>
		<path class="st116" d="M108.8,6.5c0.1-0.4-0.2-0.9,0.2-1.2c0.3,0.2,0.2,0.7,0.4,0.9c0,0.1,0,0.2,0,0.3
			C109.3,6.5,109.1,6.5,108.8,6.5z"/>
		<path class="st117" d="M68.5,5c0.4,0.4,0.2,0.8,0,1.2c-0.4-0.1-1.1,0.3-1.1-0.4C67.4,5.2,67.9,5,68.5,5z"/>
		<path class="st118" d="M66.4,4.8L66.4,4.8h-0.2c0-0.1,0-0.2,0-0.3c0-0.4,0.2-0.7,0.6-0.8c0.1,0,0.2,0.1,0.3,0.2
			C67.1,4.4,66.7,4.6,66.4,4.8z"/>
		<path class="st119" d="M39,5.3c-0.3,0-0.6,0-0.9,0.1c-0.1-0.1-0.2-0.1-0.2-0.3c-0.1-0.6,0.6-0.7,0.7-1.2c0.3-0.3,0.6-0.6,0.9,0
			c-0.3,0.4,0.2,0.5,0.3,0.7C39.5,4.8,39.2,5,39,5.3z"/>
		<path class="st95" d="M41.2,6.5c-0.2,0-0.5,0-0.7,0c-0.8-1-0.2-1.5,0.9-1.9C41,5.3,40.7,5.9,41.2,6.5z"/>
		<path class="st95" d="M39.3,6.5c0-0.2,0-0.5,0-0.7C39.5,6,39.8,6.3,40,6.5C39.7,6.5,39.5,6.5,39.3,6.5z"/>
		<path class="st120" d="M112,3.4c0.1,0,0.1,0,0.2,0c-0.3,0.6,0.9,1,0.2,1.7h-0.1h-0.1c-0.3,0.4,0.1,1-0.3,1.4c-0.3,0-0.6,0-0.9,0
			c0-0.5,0-1,0-1.4c0.3-0.2,0.2-0.5,0.3-0.7C111.7,4.2,111.5,3.5,112,3.4z"/>
		<path class="st121" d="M39.5,3.9c-0.3-0.2-0.6-0.2-0.7,0.1c-0.3,0.3-0.7,0.1-1,0.1L37.7,4c-0.1-0.7,0.4-0.8,0.9-0.9
			c0.5-0.1,0.9,0.3,1.4,0C40.1,3.6,39.8,3.7,39.5,3.9z"/>
		<path class="st122" d="M35.4,5.1c-0.1,0-0.1,0-0.2,0c0-0.5-0.2-0.7-0.7-0.5c-0.2-0.2-0.5-0.3-0.7-0.5c-0.1-0.1-0.1-0.2,0-0.3
			c0.1,0,0.1,0,0.2,0c0.5-0.1,0.9-0.3,1.2-0.7c0.6,0.5,0.3,1.1,0.2,1.6C35.5,4.9,35.5,5,35.4,5.1z"/>
		<path class="st123" d="M35.4,5.1c0-0.1,0-0.2,0-0.3c0.2-0.1,0.4-0.1,0.7-0.2c0.1-0.1,0.2-0.1,0.3,0s0.1,0.2,0,0.3
			c-0.6,0.4,0.3,0.5,0.2,0.8c-0.3,0-0.5-0.1-0.7,0.2c-0.1-0.1-0.3-0.2-0.4-0.3C35.4,5.3,35.4,5.2,35.4,5.1z"/>
		<path class="st124" d="M33.4,4.6c-0.1,0-0.3,0-0.4,0c-0.1,0.1-0.1,0.1-0.2,0.1c-0.1-0.1-0.1-0.1-0.1-0.2l0.1-0.1
			c0.4-0.4-0.2-0.8,0-1.2c0.3,0,0.7-0.2,1,0.2c-0.2,0.2-0.2,0.4-0.2,0.7C33.5,4.2,33.5,4.4,33.4,4.6z"/>
		<path class="st125" d="M36.4,4.8c0-0.1,0-0.1,0-0.2c0.1-0.2,0.3-0.4,0.5-0.5c0.2,0.2,0.5,0.1,0.7,0l0,0c0.2,0.2,0.1,0.5,0,0.8
			c-0.1,0.2-0.2,0.3-0.3,0.4C36.9,5.3,36.7,4.9,36.4,4.8z"/>
		<path class="st126" d="M35.2,3.2c-0.1,0.9-0.6,0.9-1.2,0.7C34.3,3.5,34.6,3.1,35.2,3.2z"/>
		<path class="st127" d="M36.9,4.1c0,0.3-0.2,0.5-0.5,0.5c-0.1,0-0.2,0-0.3,0c0.2-0.4,0.7-0.7,0.7-1.2C36.8,3.6,36.8,3.8,36.9,4.1z"
			/>
		<path class="st62" d="M33.5,4.1c-0.3-0.4-0.4-0.6,0.2-0.7c0,0.1,0,0.3,0,0.4c0,0.1,0,0.2,0,0.3C33.6,4.1,33.6,4.1,33.5,4.1z"/>
		<path class="st128" d="M97.6,3.8c0.3,0.2,0.6,0.2,1,0C99.3,4,99,5.1,99.7,5.3c0.1,0,0.2,0.1,0.3,0.2l0.1,0.1
			C100,6,99.8,6.3,99.3,6.5c-1.1,0.1-2.2,0.3-2.6-1.1c-0.1-0.6,0.4-1,0.7-1.4C97.4,3.9,97.5,3.9,97.6,3.8z"/>
		<path class="st30" d="M96.8,5.5C97.4,6,97.9,7,98.9,5.9c0.1-0.1,0.3,0.3,0.3,0.5c-1.3,0.4-2.6,0.2-3.9-0.3
			c0.1-0.4,0.2-0.8,0.3-1.2C96.2,4.9,96.4,5.5,96.8,5.5z"/>
		<path class="st109" d="M88.7,3.9c-0.3-0.1-0.5,0.2-0.6,0.4c-0.9-0.8-0.4,0.6-0.8,0.5c-0.2-0.1-0.3-0.2-0.4-0.4
			c-0.1-0.4,0.2-0.6,0.2-1c0.1-0.1,0.1-0.2,0.2-0.3c0.9,0.1,1.8-0.2,2.7,0.2v0.1C89.5,3.7,89.1,3.7,88.7,3.9z"/>
		<path class="st129" d="M87,6.2c-0.3,0.6-0.8,0.5-1.2,0.2c0.2-0.7,0.3-1.3,0.7-1.9C87.3,4.9,87,5.6,87,6.2z"/>
		<path class="st130" d="M85.1,3.4c0.1,0,0.2,0,0.2,0c0.6-0.2,0.7,0,0.5,0.5c0.1,0.6-0.6,0.8-0.5,1.4c-0.1,0.1-0.2,0.1-0.4,0.1
			C84.3,4.7,84.7,4,85.1,3.4z"/>
		<path class="st131" d="M87,6.2c-0.3-0.5-0.1-1.2-0.5-1.7c0-0.2,0.1-0.4,0.2-0.5c0.1,0,0.2,0.2,0.3,0.2c0.1,0.2,0.2,0.3,0.3,0.5
			c0,0.3,0,0.5,0.2,0.7c0,0.2,0,0.5,0,0.7C87.3,6.2,87.2,6.2,87,6.2z"/>
		<path class="st132" d="M85.1,5.3c0.1,0,0.2,0,0.2,0c0,0.2,0,0.5,0,0.7c-0.4-0.1-0.8-0.2-1.2-0.2c0-0.1,0-0.1,0-0.2
			C84.4,5.2,84.8,5.4,85.1,5.3z"/>
		<path class="st107" d="M87,4.3c-0.1-0.1-0.2-0.2-0.3-0.2c0.1-0.2,0.2-0.5,0.3-0.7C87.4,3.7,86.9,4,87,4.3z"/>
		<path class="st133" d="M85.8,3.9c0-0.3-0.2-0.5-0.5-0.5c0.2-0.2,0.4-0.2,0.7-0.2C86.1,3.4,86.1,3.7,85.8,3.9z"/>
		<path class="st134" d="M73.6,5.1c-0.1-0.1-0.2-0.2-0.2-0.2c-0.2-0.4-0.4-0.8-0.5-1.2c0.3-0.5,0.8-0.2,1.2-0.3
			c0.5,0.7,0.7,1.4,0,2.2C73.9,5.4,73.7,5.2,73.6,5.1z"/>
		<path class="st135" d="M115.3,4.3c0,0.1,0,0.2,0,0.2c0.2,0.2,0.2,0.5,0.2,0.7c0,0.1,0,0.2,0,0.2c0,0.3-0.1,0.7-0.2,1l0,0
			c-1.4-0.4-0.5-1.1-0.2-1.7C115.1,4.6,115.1,4.4,115.3,4.3z"/>
		<path class="st97" d="M111.9,6.5c0.1-0.5-0.2-1,0.3-1.4C112.1,5.5,112.4,6.1,111.9,6.5z"/>
		<path class="st31" d="M103.8,4.1c0.4-0.2,0.7-0.3,1.1-0.5c0.4-0.3-0.1-0.3-0.1-0.5c0.8,0,1.7,0,2.5,0c-0.4,0.3-0.8,0.6-1.3,0.9
			c-1-0.3-1.7,0.7-2.7,0.7C103.5,4.5,103.6,4.3,103.8,4.1z"/>
		<path class="st116" d="M109.1,4.3c-0.4-0.5-1.4,0.4-1.4-0.7c0.3,0.2,0.6,0.3,1,0.2C109.2,3.6,109.1,4,109.1,4.3z"/>
		<path class="st136" d="M79.1,4.5c-0.2,0.1-0.4,0.2-0.5,0.3c-0.8,0.9-1.1,0.4-1.2-0.5c-0.1-0.3-0.1-0.5,0.3-0.5
			C79,3.2,79,3.2,79.1,4.5z"/>
		<path class="st137" d="M77.6,3.8c-0.1,0.2-0.2,0.3-0.3,0.5c-0.1,0.1-0.3,0.1-0.4,0.2C77,4,77.2,3.6,77.1,3.1c0.1,0,0.1,0,0.2,0
			C77.7,3.3,77.6,3.6,77.6,3.8z"/>
		<path class="st138" d="M96.8,5.5c-0.9,1-0.6-0.7-1.2-0.5c0.4-0.5,1.1-0.7,1.6-1.1C97.2,4.5,96.8,5,96.8,5.5z"/>
		<path class="st139" d="M74,5.5c0.2-0.7,0-1.4,0-2.2c1,0,1.9,0,2.9,0c-0.2,0.5-0.3,1.1-0.7,1.5c-0.8-1.2-1.3-0.9-1.5,0.4
			C74.7,5.6,74.4,5.9,74,5.5z"/>
		<path class="st106" d="M90.8,3.4c0.5-0.5,1.1-0.2,1.7-0.2C92,3.6,91.4,3.3,90.8,3.4z"/>
		<path class="st140" d="M30.8,5.5c0-0.2,0-0.4-0.1-0.6C30,4.2,30,4.1,31.1,3.7l0,0c0.1,0.2,0.2,0.3,0.2,0.5
			c0.1,0.1,0.1,0.1,0.1,0.2c0,0.1,0,0.1-0.1,0.1C31.3,5,31.3,5.3,30.8,5.5z"/>
		<path class="st141" d="M32.7,4.6c0.1,0,0.2,0,0.3,0c-0.1,0.3-0.2,0.6-0.3,0.9c-0.1,0-0.2,0-0.2,0c-0.2,0-0.3,0.1-0.4,0.1
			c-0.1,0-0.2,0-0.3-0.1C31.9,5.3,31.9,5,32,4.8c-0.1-0.1-0.2-0.3-0.2-0.5c0.3-0.7,0.6-0.1,0.9,0l-0.1,0.1L32.7,4.6L32.7,4.6z"/>
		<path class="st142" d="M31.8,5.5c0.1,0,0.2,0,0.2,0c0.2,0.2,0.1,0.3,0,0.5l0,0c-0.2,0.1-0.5,0.2-0.7,0.2
			C31.3,5.9,31.5,5.7,31.8,5.5z"/>
		<path class="st143" d="M31.8,4.3C32,4.4,32,4.6,32,4.8c-0.2-0.1-0.4-0.2-0.7-0.2c0-0.1,0-0.2,0-0.2c0.1,0,0.1,0,0.2,0
			C31.6,4.3,31.7,4.3,31.8,4.3z"/>
		<path class="st133" d="M85.1,5.3c-0.3,0.3-0.6,0.2-1,0.2c-0.1-0.8,0.1-1.6,0.2-2.3c0.2,0.1,0.5,0.1,0.7,0.2
			C85.3,4,84.6,4.6,85.1,5.3z"/>
		<path class="st144" d="M115.3,6.5c0-0.3-0.1-0.7,0.2-1c0.2,0.1,0.2,0.3,0.2,0.5c-0.2,0.1-0.3,0.2-0.3,0.4
			C115.4,6.5,115.4,6.5,115.3,6.5z"/>
		<path class="st145" d="M99.8,5.5C99.3,5.8,99.1,5.4,99,5c-0.1-0.4-0.3-0.8-0.4-1.2c0.2-0.4,0.5-0.6,1-0.7l0,0
			c0.6,0.3,0.3,0.8,0.3,1.2C99.8,4.7,99.9,5.1,99.8,5.5z"/>
		<path class="st7" d="M99.7,4.3c0-0.4,0-0.8-0.3-1.2c0.6,0,1.1,0,1.7,0c0,0.4,0,0.8,0,1.2c-0.4-0.6-0.8-1.3-1.2,0
			C99.8,4.3,99.8,4.3,99.7,4.3z"/>
		<path class="st136" d="M76.8,4.9c0.4,0.2,0.6,0.6,0.2,0.9c-0.5,0.4-0.2-0.4-0.5-0.5C76.6,5.1,76.7,5,76.8,4.9z"/>
		<path class="st146" d="M54.4,3.4c0.4,0,0.8,0,1.2,0c0.5,1,1.1,2,0.2,3.1c-0.2,0-0.5,0-0.7,0C54.9,5.4,54,4.5,54.4,3.4z"/>
		<path class="st147" d="M37.3,5.2c0-0.1,0-0.3,0.1-0.4c0.3-0.2,0.5,0,0.7,0.2c0,0.1,0,0.2,0,0.3C38,5.4,38,5.4,37.9,5.5
			C37.6,5.5,37.4,5.5,37.3,5.2z"/>
		<path class="st62" d="M34.4,5c0,0.2,0,0.3,0,0.5c-0.2,0-0.4,0.2-0.4-0.1C33.9,5.2,34.2,5.1,34.4,5z"/>
		<path class="st148" d="M55.8,6.5c0.3-1.1-0.3-2.1-0.2-3.1c0.2,0,0.5,0,0.7,0c0,1.1,0.5,2.1,1,3.1C56.8,6.5,56.3,6.5,55.8,6.5z"/>
		<path class="st149" d="M32,6c0-0.2,0-0.3,0-0.5c0.2-0.2,0.3-0.3,0.5,0C32.4,5.7,32.2,5.9,32,6z"/>
		<path class="st150" d="M26.5,6.5c-0.1,0-0.1,0-0.2,0c-0.3-0.3-0.5-0.6-0.4-1c0-0.2-0.1-0.3-0.3-0.2c-0.2-0.2-0.5-0.3-0.7-0.5
			c-0.1-0.3-0.1-0.6-0.2-0.9c0.6,0.7,1.4,0.5,2.1,0.2c-0.1,0.8,0.3,1.2,1,1.5c-0.4,1.1-0.7-0.1-1-0.1C26.4,5.8,26.6,6.1,26.5,6.5z"
			/>
		<path class="st151" d="M28.7,5.6c-0.3-0.1-0.6-0.3-0.9,0c0-0.3,0.1-0.7,0.5-0.6C28.6,4.9,28.7,5.2,28.7,5.6z"/>
		<path class="st152" d="M31.1,3.8c-0.2-0.1-0.3-0.2-0.6-0.4C30.9,3.4,31.3,3.2,31.1,3.8L31.1,3.8z"/>
		<path class="st153" d="M19.8,6C19.9,5.4,20,4.9,20,4.3c0.1-0.1,0.2-0.1,0.2,0c0.4,0.1,0.8-0.6,1.1,0c0.3,0.5,0.3,1.1-0.3,1.4
			C20.6,5.9,20.2,6.1,19.8,6z"/>
		<path class="st154" d="M19.8,6c0.4-0.2,0.7-0.6,1.2-0.2c0.1,0.2,0.5,0.3,0.5,0.7c-0.7,0-1.4,0-2.1,0C19.4,6.2,19.6,6.1,19.8,6z"/>
		<path class="st155" d="M23.4,3.4c0.2,0,0.5,0,0.7,0c0,0.4,0.1,0.9-0.6,1C23.4,4.1,23.7,3.7,23.4,3.4z"/>
		<path class="st73" d="M20.3,4.3c-0.1,0-0.2,0-0.2,0c-0.2-0.4-0.3-0.7,0.2-1C20.3,3.7,20.3,4,20.3,4.3z"/>
		<path class="st156" d="M9.7,3.8c0.1,0,0.1,0,0.2,0c0.5,0.5,1.1,0.3,1.6,0.5c0.3,0.2,0.6,0.3,0.3,0.7c-0.5,0.2-1,0.3-1.4,0.5
			C10,5.4,9.7,5.6,9.3,5.7C9,5.5,9,5.3,9.3,5.1C10.1,4.9,9.3,4.2,9.7,3.8z"/>
		<path class="st157" d="M9.3,5.1c0,0.2,0,0.4,0,0.6C8.5,5.9,7.8,6,7,6.2C7,6,7,5.9,7,5.7C7.8,5.5,8.6,5.3,9.3,5.1z"/>
		<path class="st158" d="M11.9,5c0-0.3-0.2-0.5-0.5-0.5c0-0.1,0-0.2,0.1-0.3c0.2-0.1,0.3-0.1,0.5,0.1c1.2-0.2,2.4-0.5,3.6-0.7
			c-0.7,1.1,0.5,0.2,0.5,0.5c-0.1,0.1-0.2,0.1-0.3,0.2c-0.4,0.3-0.8,0.3-1.2,0.2c-0.7,0.2-1.4,0.4-2.1,0.5C12.2,5.1,12,5.1,11.9,5z"
			/>
		<path class="st159" d="M14.5,4.5c0.4-0.3,0.8-0.2,1.2-0.2c-0.1,0.4,0.2,0.9-0.5,0.9C14.8,5.3,14.5,5,14.5,4.5z"/>
		<path class="st160" d="M25.5,5.3c0-0.3-0.1-0.7,0.4-0.7c0.4,0,0.3,0.4,0.2,0.6c-0.2,0.5,0.1,0.8,0.1,1.2c-0.2,0-0.5,0-0.7,0
			C25.6,6.1,25.6,5.7,25.5,5.3z"/>
		<path class="st161" d="M11.9,4.3c-0.2,0-0.3,0-0.5,0c-0.4,0-0.7,0.1-0.7-0.5c0.4,0,0.7,0,0.7-0.5c0.3,0,0.6,0,1,0
			C12.2,3.7,12,4,11.9,4.3z"/>
		<path class="st87" d="M10.7,3.8c0.2,0.2,0.5,0.3,0.7,0.5c0,0.1,0,0.1,0,0.2c-0.6,0-1.3,0.2-1.4-0.7C10.2,3.9,10.4,3.9,10.7,3.8z"
			/>
		<path class="st162" d="M60.4,3.4c0,0.7,0,1.4,0,2.2c-0.7-0.7-2.3-0.1-2.3-1.8c0-0.1-0.4-0.2-0.5-0.4C58.4,3.4,59.4,3.4,60.4,3.4z"
			/>
		<path class="st163" d="M53.6,4.8c-0.1,0.2-0.3,0.4-0.5,0.8c-0.3-0.7-0.2-1.3,0.2-1.8C53.8,4,53.6,4.4,53.6,4.8L53.6,4.8z"/>
		<path class="st164" d="M122.5,3.4c0.5,0,1,0,1.4,0c-0.1,0.2-0.2,0.3-0.3,0.5c-0.3,0.2-0.5,0.5-0.2,0.9c-0.2,0.6-1.1,0.9-0.9,1.7
			c-0.6,0-1.3,0-1.9,0C120,4.6,121.4,4.1,122.5,3.4z"/>
		<path class="st165" d="M118.4,3.4c0.3,0,0.6,0,0.9,0c0.1,0.5-0.5,0.6-0.7,1c0.1,0.3,0,0.6,0.1,0.9c0,0.2,0.1,0.3,0.3,0.3h0.1
			c0.4,0.3,0.2,0.6,0,1c-0.9-0.1-1.8,0.3-2.6-0.2c0.4-0.5,0.9-0.9,1-1.7C117.5,4,118.3,4,118.4,3.4z"/>
		<path class="st166" d="M118.4,5.3c0-0.3-0.1-0.7,0.2-0.9c0.8,0.2,0.4,0.8,0.5,1.2l0,0C118.8,5.8,118.6,5.5,118.4,5.3z"/>
		<path class="st167" d="M123.5,4.8c-0.4-0.2-0.5-0.4-0.3-0.8c0.1-0.3,0.3-0.2,0.5-0.1C123.6,4.2,123.5,4.5,123.5,4.8z"/>
		<path class="st168" d="M116,3.8c0.1,0,0.1,0,0.2,0l0.1,0.1c0.2,0.2,0.3,0.4,0.5,0.6l0.1,0.1c-0.1,0.2-0.2,0.3-0.3,0.5
			c-0.4,0.1-0.9,0.5-0.7-0.4C116.1,4.4,116,4.1,116,3.8z"/>
		<path class="st169" d="M115.6,5.3c-0.3-0.2-0.2-0.5-0.2-0.7c0.2,0.1,0.3,0.2,0.5,0.2C115.8,5,115.8,5.2,115.6,5.3z"/>
		<path class="st168" d="M116.3,3.8c0.1-0.1,0.2-0.1,0.3-0.2c0.8,0,0.9,0.4,0.5,1l0,0C116.7,4.4,116.6,4.1,116.3,3.8L116.3,3.8z"/>
		<path class="st97" d="M112,3.4c-0.5,0.1,0.2,1.1-0.7,0.9c0.1-0.3,0.3-0.6,0.2-0.9C111.6,3.4,111.8,3.4,112,3.4z"/>
		<path class="st170" d="M88.7,3.9c0.1-0.8,0.7-0.4,1.2-0.5c0,0.5-0.3,0.7-0.7,0.9C88.9,4.3,88.7,4.2,88.7,3.9z"/>
		<path class="st171" d="M109.5,6.2c-0.7,0-0.4-0.6-0.4-0.9C110,5.2,109.4,5.9,109.5,6.2z"/>
		<path class="st13" d="M99.7,4.3L99.7,4.3c0.1,0.4,0.1,0.8,0.1,1.1c-0.1,0-0.1,0-0.2,0C99.7,5.1,99.7,4.7,99.7,4.3z"/>
		<path class="st172" d="M38,5c-0.2-0.1-0.5-0.1-0.7-0.2c0.1-0.2,0.1-0.5,0.2-0.7c0.4-0.2,0.8-0.4,1.2-0.1C38.8,4.6,38.1,4.6,38,5z"
			/>
		<path class="st173" d="M32.7,4.6c-0.1,0.1-0.2,0.2-0.3,0.3c-0.1-0.1-0.2-0.2-0.1-0.2C32.3,4.4,32.5,4.4,32.7,4.6
			C32.7,4.4,32.7,4.5,32.7,4.6z"/>
		<path class="st98" d="M118.4,5.3c0.2,0.1,0.5,0.2,0.7,0.2c-0.1,0.2-0.2,0.5-0.5,0.4C118.4,5.8,118.5,5.5,118.4,5.3z"/>
		<path class="st174" d="M116.3,3.9c0.5-0.1,0.7,0.1,0.7,0.7C116.1,5,116.3,4.4,116.3,3.9z"/>
	</g>
</g>
</svg>
