<svg id="레이어_1" xmlns="http://www.w3.org/2000/svg" xmlns:xlink="http://www.w3.org/1999/xlink" x="0px"
	 y="0px" viewBox="0 0 788.3 162.6">
<style type="text/css">
	.st0{fill:#FF0000;}
</style>
<path class="st0" d="M12.7,149.4c19.7-13.6,35.4-31.8,52.5-48.3c16.9-16.4,38.4-26.3,60.9-32.7c10.9-3.1,22-5.6,33.2-7
	c10.2-1.3,21.1-1.6,30.7,2.7c9.5,4.3,15.9,12.4,18.2,22.4c1.5,6.4,1.9,13.7,6.6,18.7c5.1,5.4,13.9,6.7,20.8,4.7
	c8.1-2.3,14.2-9,22.4-10.8c4.6-1,8.6-0.7,12.1,2.5c2.7,2.5,5.3,3.9,9,4.3c4.6,0.5,9-0.9,13.3-2.5c6.3-2.3,12.8-4,19.2-5.8
	c52-14.9,103.8-30.3,156.3-43.6c27.2-6.9,54.2-17,82.5-17.4c9.9-0.2,22,0.3,31,4.8c5.8,2.9,7.8,8.3,4,13.8
	c-2.4,3.5-5.5,6.2-7.2,10.3c-0.2,0.6,0.2,1.4,0.7,1.7c6.6,3.5,11.9,1.6,18.9,1.9c2.2,0.1,10-0.8,11.2,1.3c0.8,1.5-0.5,3.4,0.9,5
	c2.4,2.6,8.5,1.4,11.4,0.7c5.5-1.1,10.9-3.5,15.9-6c12-5.9,23-13.2,35.4-18.2c15.2-6.2,31-10.6,46.6-15.5
	c17.2-5.4,34.2-11.4,49.7-20.7c1.7-1,0.2-3.6-1.5-2.6c-27.1,16.1-58.3,22.1-87.6,32.8c-11.7,4.3-22.5,9.7-33.4,15.8
	c-5.4,3.1-11,6.1-16.7,8.5c-2.6,1.1-5.3,2.1-8.1,2.7c-1.9,0.4-6.7,1.7-8.6,0.6c-2-1.2-0.4-4.4-1.9-6.1c-1.3-1.6-4-1.4-5.9-1.3
	c-3.7,0.2-7.4-0.3-11.1,0.1c-5,0.5-9.1,0.9-13.8-1.6c0.2,0.6,0.5,1.1,0.7,1.7c2.8-7,11.7-11.5,8.9-20.1c-2.3-7.2-11.3-9.5-17.8-10.7
	c-22.5-4.4-45.4-0.2-67.3,5.4c-53.2,13.7-106.2,28.1-159,43.6c-13.6,4-27.2,8-40.8,11.9c-5.6,1.6-11.1,3.5-16.6,5.3
	c-6.5,2.1-11.9,1.8-16.8-2.7c-13.6-12.4-29.7,10-43.9,8.8c-11.3-1-14.1-9.2-16-18.8c-1.7-8.7-4.9-16.1-11.8-22
	c-15.4-13.3-37.6-9.6-55.9-5.9c-25.1,5.1-50.5,13.6-71,29.4c-10.3,7.9-19.1,17.8-28.2,27.1c-10.5,10.6-21.3,20.9-33.6,29.4
	C9.7,147.9,11.2,150.5,12.7,149.4L12.7,149.4z"/>
</svg>
