<svg viewBox="0 0 783.8 169.1">
<style type="text/css">
	.st0{fill:#3C3C3B;}
	.st1{fill:#ACDAEC;}
</style>
<g>
	<polygon class="st0" points="52.6,64.6 16.9,80.2 12.6,118.9 44,142 79.7,126.3 83.9,87.6 	"/>
	<path class="st1" d="M44,142.6l-31.9-23.4l4.3-39.3L52.6,64l31.9,23.4l-4.3,39.3L44,142.6z M13.2,118.7l30.9,22.7L79.2,126
		l4.2-38.1L52.5,65.2L17.4,80.6L13.2,118.7z"/>
	<polygon class="st0" points="119.9,71.9 84.2,87.5 80,126.3 111.4,149.3 147,133.6 151.3,94.9 	"/>
	<path class="st1" d="M111.3,149.9l-31.9-23.4l4.3-39.3l36.2-15.9l31.9,23.4l-4.3,39.3L111.3,149.9z M80.5,126l30.9,22.7l35.1-15.4
		l4.2-38.1l-30.9-22.7L84.7,87.9L80.5,126z"/>
	<polygon class="st0" points="160.3,17.5 124.6,33.1 120.3,71.9 151.7,94.9 187.4,79.2 191.7,40.5 	"/>
	<path class="st1" d="M151.7,95.5l-31.9-23.4l4.3-39.3l36.2-15.9l31.9,23.4l-4.3,39.3L151.7,95.5z M120.9,71.6l30.9,22.7l35.1-15.4
		l4.2-38.1l-30.9-22.7l-35.1,15.4L120.9,71.6z"/>
	<polygon class="st0" points="227.1,25.4 191.4,41.1 187.1,79.8 218.5,102.8 254.2,87.2 258.5,48.5 	"/>
	<path class="st1" d="M218.5,103.4L186.6,80l4.3-39.3l36.2-15.9L259,48.2l-4.3,39.3L218.5,103.4z M187.7,79.6l30.9,22.7l35.1-15.4
		l4.2-38.1L227,26.1l-35.1,15.4L187.7,79.6z"/>
	<polygon class="st0" points="254.8,87 219.1,102.7 214.8,141.4 246.2,164.4 281.9,148.8 286.1,110.1 	"/>
	<path class="st1" d="M246.1,165l-31.9-23.4l4.3-39.3l36.2-15.9l31.9,23.4l-4.3,39.3L246.1,165z M215.3,141.1l30.9,22.7l35.1-15.4
		l4.2-38.1l-30.9-22.7L219.5,103L215.3,141.1z"/>
	<polygon class="st0" points="321.9,94.6 286.2,110.3 281.9,149 313.3,172.1 349,156.4 353.2,117.7 	"/>
	<path class="st1" d="M313.3,172.6l-31.9-23.4l4.3-39.3L321.9,94l31.9,23.4l-4.3,39.3L313.3,172.6z M282.4,148.8l30.9,22.7
		l35.1-15.4l4.2-38.1l-30.8-22.8l-35.1,15.4L282.4,148.8z"/>
	<polygon class="st0" points="362.1,40.4 326.5,56 322.2,94.7 353.6,117.8 389.3,102.1 393.5,63.4 	"/>
	<path class="st1" d="M353.5,118.4L321.6,95l4.3-39.3l36.2-15.9L394,63.2l-4.3,39.3L353.5,118.4z M322.7,94.5l30.9,22.7l35.2-15.4
		l4.2-38.1L362.1,41L327,56.4L322.7,94.5z"/>
	<polygon class="st0" points="429.6,47.7 393.9,63.4 389.6,102.1 421,125.2 456.7,109.5 461,70.8 	"/>
	<path class="st1" d="M421,125.7l-31.9-23.4l4.3-39.3l36.2-15.9l31.9,23.4l-4.3,39.3L421,125.7z M390.2,101.9l30.9,22.7l35.1-15.4
		l4.2-38.1l-30.9-22.7l-35.1,15.4L390.2,101.9z"/>
	<polygon class="st0" points="496.9,55 461.3,70.7 457,109.4 488.4,132.5 524,116.8 528.3,78.1 	"/>
	<path class="st1" d="M488.3,133l-31.9-23.4l4.3-39.3l36.2-15.9l31.9,23.4l-4.3,39.3L488.3,133z M457.5,109.2l30.9,22.7l35.1-15.4
		l4.2-38.1l-30.9-22.7l-35.1,15.4L457.5,109.2z"/>
	<polygon class="st0" points="537.3,0.6 501.6,16.3 497.3,55 528.7,78.1 564.4,62.4 568.7,23.7 	"/>
	<path class="st1" d="M528.7,78.6l-31.9-23.4l4.3-39.3L537.3,0l31.9,23.4l-4.3,39.3L528.7,78.6z M497.9,54.8l30.9,22.7l35.1-15.4
		l4.2-38.1L537.2,1.3l-35.1,15.4L497.9,54.8z"/>
	<polygon class="st0" points="604.1,8.6 568.4,24.2 564.1,62.9 595.5,86 631.2,70.3 635.5,31.6 	"/>
	<path class="st1" d="M595.5,86.6l-31.9-23.4l4.3-39.3L604.1,8L636,31.4l-4.3,39.3L595.5,86.6z M564.7,62.7l30.9,22.7L630.7,70
		l4.2-38.1L604,9.2l-35.1,15.4L564.7,62.7z"/>
	<polygon class="st0" points="631.8,70.2 596.1,85.8 591.8,124.5 623.2,147.6 658.9,131.9 663.2,93.2 	"/>
	<path class="st1" d="M623.2,148.2l-31.9-23.4l4.3-39.3l36.2-15.9L663.7,93l-4.3,39.3L623.2,148.2z M592.4,124.3l30.9,22.7
		l35.1-15.4l4.2-38.1l-30.9-22.7l-35.1,15.4L592.4,124.3z"/>
	<polygon class="st0" points="698.9,77.8 663.2,93.5 658.9,132.2 690.3,155.2 726,139.6 730.3,100.9 	"/>
	<path class="st1" d="M690.3,155.8l-31.9-23.4l4.3-39.3l36.2-15.9l31.9,23.4l-4.3,39.3L690.3,155.8z M659.5,131.9l30.9,22.7
		l35.1-15.4l4.2-38.1l-30.9-22.7l-35.1,15.4L659.5,131.9z"/>
	<polygon class="st0" points="739.1,23.5 703.5,39.2 699.2,77.9 730.6,100.9 766.3,85.3 770.5,46.6 	"/>
	<path class="st1" d="M730.5,101.5l-31.9-23.4l4.3-39.3l36.2-15.9L771,46.3l-4.3,39.3L730.5,101.5z M699.7,77.7l30.9,22.7L765.7,85
		l4.2-38.1L739,24.2l-35.1,15.4L699.7,77.7z"/>
</g>
</svg>
