<svg viewBox="0 0 709.3 208.9">
<style type="text/css">
	.st0{fill:#3C3C3B;}
	.st1{fill:#ACDAEC;}
</style>
<g>
	<g>
		<polygon class="st0" points="69.7,27.6 29.8,33.7 15.1,71.3 40.3,102.8 80.3,96.7 94.9,59.1 		"/>
		<path class="st1" d="M15.7,71.2l24.9,31.1l39.4-6l14.5-37.1L69.6,28.1l-39.4,6L15.7,71.2z M40.1,103.4l-0.2-0.2L14.5,71.4
			l14.9-38.2L69.9,27l0.2,0.2L95.5,59L80.6,97.2L40.1,103.4z"/>
	</g>
	<g>
		<polygon class="st0" points="81.5,29.3 41.5,35.4 26.9,73 52.1,104.6 92,98.5 106.7,60.8 		"/>
		<path class="st1" d="M27.4,72.9L52.3,104l39.4-6l14.5-37.1L81.3,29.8l-39.4,6L27.4,72.9z M41.2,34.9c0,0,40.5-6.2,40.7-6
			l25.4,31.8L92.4,98.9c0,0-40.5,6.2-40.7,6L26.3,73.1L41.2,34.9z"/>
	</g>
	<g>
		<polygon class="st0" points="93.2,31 53.3,37.1 38.6,74.8 63.9,106.3 103.8,100.2 118.5,62.6 		"/>
		<path class="st1" d="M39.2,74.7l24.9,31.1l39.4-6L118,62.7L93.1,31.6l-39.4,6L39.2,74.7z M52.9,36.7c0,0,40.5-6.2,40.7-6L119,62.5
			l-14.9,38.2c0,0-40.5,6.2-40.7,6L38,74.9L52.9,36.7z"/>
	</g>
	<g>
		<polygon class="st0" points="105,32.8 65.1,38.9 50.4,76.5 75.6,108 115.6,101.9 130.2,64.3 		"/>
		<path class="st1" d="M51,76.4l24.9,31.1l39.4-6l14.5-37.1l-25-31.1l-39.4,6L51,76.4z M64.7,38.4c0,0,40.5-6.2,40.7-6l25.4,31.8
			l-14.9,38.2c0,0-40.5,6.2-40.7,6L49.8,76.6L64.7,38.4z"/>
	</g>
	<g>
		<polygon class="st0" points="116.8,34.5 76.8,40.6 62.2,78.2 87.4,109.8 127.3,103.7 142,66 		"/>
		<path class="st1" d="M62.7,78.1l24.9,31.1l39.4-6l14.5-37.1L116.6,35l-39.4,6L62.7,78.1z M76.5,40.2c0,0,40.5-6.2,40.7-6L142.6,66
			l-14.9,38.2c0,0-40.5,6.2-40.7,6L61.6,78.3L76.5,40.2z"/>
	</g>
	<g>
		<polygon class="st0" points="128.5,36.2 88.6,42.3 73.9,80 99.2,111.5 139.1,105.4 153.8,67.8 		"/>
		<path class="st1" d="M74.5,79.9L99.4,111l39.4-6l14.5-37.1l-24.9-31.1l-39.4,6L74.5,79.9z M88.2,41.9c0,0,40.5-6.2,40.7-6
			l25.4,31.8l-14.9,38.2c0,0-40.5,6.2-40.7,6L73.3,80.1L88.2,41.9z"/>
	</g>
	<g>
		<polygon class="st0" points="140.3,38 100.4,44.1 85.7,81.7 110.9,113.2 150.9,107.1 165.5,69.5 		"/>
		<path class="st1" d="M86.3,81.6l24.9,31.1l39.4-6l14.5-37.1l-24.9-31.1l-39.4,6L86.3,81.6z M100,43.6c0,0,40.5-6.2,40.7-6
			l25.5,31.8l-14.9,38.2c0,0-40.5,6.2-40.7,6L85.1,81.8L100,43.6z"/>
	</g>
	<g>
		<polygon class="st0" points="152.1,39.7 112.1,45.8 97.4,83.4 122.7,115 162.6,108.9 177.3,71.2 		"/>
		<path class="st1" d="M98,83.4l24.9,31.1l39.4-6l14.5-37.1l-24.9-31.1l-39.4,6L98,83.4z M111.8,45.4c0,0,40.5-6.2,40.7-6L178,71.2
			l-15,38.1c0,0-40.5,6.2-40.7,6L96.8,83.5L111.8,45.4z"/>
	</g>
	<g>
		<polygon class="st0" points="163.8,41.4 123.9,47.5 109.2,85.2 134.5,116.7 174.4,110.6 189.1,73 		"/>
		<path class="st1" d="M109.8,85.1l24.9,31.1l39.4-6l14.5-37.1l-25-31.1l-39.4,6L109.8,85.1z M123.5,47.1c0,0,40.5-6.2,40.7-6
			l25.5,31.8l-14.9,38.2c0,0-40.5,6.2-40.7,6l-25.5-31.8L123.5,47.1z"/>
	</g>
	<g>
		<polygon class="st0" points="175.6,43.2 135.7,49.3 121,86.9 146.2,118.4 186.2,112.3 200.8,74.7 		"/>
		<path class="st1" d="M121.6,86.8l24.9,31.1l39.4-6l14.5-37.1l-24.9-31.1l-39.4,6L121.6,86.8z M135.3,48.8c0,0,40.5-6.2,40.7-6
			l25.5,31.8l-14.9,38.2c0,0-40.5,6.2-40.7,6L120.4,87L135.3,48.8z"/>
	</g>
	<g>
		<polygon class="st0" points="187.4,44.9 147.4,51 132.7,88.6 158,120.2 197.9,114.1 212.6,76.4 		"/>
		<path class="st1" d="M133.3,88.6l24.9,31.1l39.4-6l14.5-37.1l-24.9-31.1l-39.4,6L133.3,88.6z M147.1,50.6c0,0,40.5-6.2,40.6-6
			l25.5,31.8l-14.9,38.2c0,0-40.5,6.2-40.6,6l-25.5-31.8L147.1,50.6z"/>
	</g>
	<g>
		<polygon class="st0" points="199.1,46.6 159.2,52.7 144.5,90.4 169.8,121.9 209.7,115.8 224.4,78.2 		"/>
		<path class="st1" d="M145.1,90.3l24.9,31.1l39.4-6l14.5-37.1L199,47.2l-39.4,6L145.1,90.3z M158.8,52.3c0,0,40.5-6.2,40.6-6
			l25.5,31.8l-14.8,38.2c0,0-40.5,6.2-40.6,6L144,90.5L158.8,52.3z"/>
	</g>
	<g>
		<polygon class="st0" points="210.9,48.4 171,54.5 156.3,92.1 181.5,123.6 221.5,117.5 236.1,79.9 		"/>
		<path class="st1" d="M156.9,92l24.9,31.1l39.4-6L235.7,80l-24.9-31.1l-39.4,6L156.9,92z M170.6,54c0,0,40.5-6.2,40.6-6l25.5,31.8
			L221.8,118c0,0-40.5,6.2-40.6,6l-25.5-31.8L170.6,54z"/>
	</g>
	<g>
		<polygon class="st0" points="222.7,50.1 182.7,56.2 168,93.8 193.3,125.4 233.2,119.3 247.9,81.6 		"/>
		<path class="st1" d="M168.6,93.8l24.9,31.1l39.4-6l14.5-37.1l-24.9-31.1l-39.4,6L168.6,93.8z M182.4,55.8c0,0,40.5-6.2,40.6-6
			l25.5,31.8l-14.9,38.1c0,0-40.5,6.2-40.6,6l-25.5-31.8L182.4,55.8z"/>
	</g>
	<g>
		<polygon class="st0" points="234.4,51.8 194.5,57.9 179.8,95.6 205.1,127.1 245,121 259.7,83.4 		"/>
		<path class="st1" d="M180.4,95.5l24.9,31.1l39.4-6l14.5-37.1l-24.9-31.1l-39.4,6L180.4,95.5z M194.1,57.5c0,0,40.5-6.2,40.6-6
			l25.5,31.8l-14.9,38.2c0,0-40.5,6.2-40.6,6l-25.5-31.8L194.1,57.5z"/>
	</g>
	<g>
		<polygon class="st0" points="246.2,53.6 206.3,59.7 191.6,97.3 216.8,128.8 256.8,122.7 271.4,85.1 		"/>
		<path class="st1" d="M192.2,97.2l24.9,31.1l39.4-6L271,85.2l-24.9-31.1l-39.4,6L192.2,97.2z M205.9,59.2c0,0,40.5-6.2,40.6-6
			L272,85l-14.9,38.2c0,0-40.5,6.2-40.6,6L191,97.4L205.9,59.2z"/>
	</g>
	<g>
		<polygon class="st0" points="258,55.3 218,61.4 203.3,99.1 228.6,130.6 268.5,124.5 283.2,86.8 		"/>
		<path class="st1" d="M203.9,99l24.9,31.1l39.4-6L282.7,87l-24.9-31.1l-39.4,6L203.9,99z M217.7,61c0,0,40.5-6.2,40.6-6l25.5,31.8
			L268.9,125c0,0-40.5,6.2-40.6,6l-25.5-31.8L217.7,61z"/>
	</g>
	<g>
		<polygon class="st0" points="269.7,57.1 229.8,63.2 215.1,100.8 240.4,132.3 280.3,126.2 295,88.6 		"/>
		<path class="st1" d="M215.7,100.7l24.9,31.1l39.4-6l14.5-37.1l-24.9-31.1l-39.4,6L215.7,100.7z M229.4,62.7c0,0,40.5-6.2,40.6-6
			l25.5,31.8l-14.9,38.2c0,0-40.5,6.2-40.6,6l-25.5-31.8L229.4,62.7z"/>
	</g>
	<g>
		<polygon class="st0" points="281.5,58.8 241.6,64.9 226.9,102.5 252.1,134.1 292.1,128 306.7,90.3 		"/>
		<path class="st1" d="M227.4,102.4l24.9,31.1l39.4-6l14.5-37.1l-24.9-31.1l-39.4,6L227.4,102.4z M241.2,64.4c0,0,40.5-6.2,40.6-6
			l25.5,31.8l-14.9,38.2c0,0-40.5,6.2-40.6,6l-25.5-31.8L241.2,64.4z"/>
	</g>
	<g>
		<polygon class="st0" points="293.3,60.5 253.3,66.6 238.6,104.3 263.9,135.8 303.8,129.7 318.5,92.1 		"/>
		<path class="st1" d="M239.2,104.2l24.9,31.1l39.4-6L318,92.2l-24.9-31.1l-39.4,6L239.2,104.2z M253,66.2c0,0,40.5-6.2,40.6-6
			L319.1,92l-14.9,38.2c0,0-40.5,6.2-40.6,6l-25.5-31.9L253,66.2z"/>
	</g>
	<g>
		<polygon class="st0" points="305,62.3 265.1,68.4 250.4,106 275.7,137.5 315.6,131.4 330.3,93.8 		"/>
		<path class="st1" d="M251,105.9l24.9,31.1l39.4-6l14.5-37.1l-24.9-31.1l-39.4,6L251,105.9z M264.7,67.9c0,0,40.5-6.2,40.6-6.1
			l25.5,31.8l-14.9,38.2c0,0-40.5,6.2-40.6,6.1l-25.5-31.8L264.7,67.9z"/>
	</g>
	<g>
		<polygon class="st0" points="316.8,64 276.9,70.1 262.2,107.7 287.4,139.3 327.4,133.2 342,95.5 		"/>
		<path class="st1" d="M262.7,107.6l24.9,31.1l39.4-6l14.5-37.1l-24.9-31.1l-39.4,6L262.7,107.6z M276.5,69.6c0,0,40.5-6.2,40.6-6.1
			l25.5,31.8l-14.9,38.2c0,0-40.5,6.2-40.6,6.1l-25.5-31.8L276.5,69.6z"/>
	</g>
	<g>
		<polygon class="st0" points="328.6,65.7 288.6,71.8 273.9,109.5 299.2,141 339.1,134.9 353.8,97.3 		"/>
		<path class="st1" d="M274.5,109.4l24.9,31.1l39.4-6l14.5-37.1l-25-31.1l-39.4,6L274.5,109.4z M288.3,71.4c0,0,40.5-6.2,40.6-6.1
			l25.5,31.9l-14.9,38.1c0,0-40.5,6.2-40.6,6.1l-25.5-31.9L288.3,71.4z"/>
	</g>
	<g>
		<polygon class="st0" points="340.3,67.5 300.4,73.6 285.7,111.2 311,142.7 350.9,136.6 365.6,99 		"/>
		<path class="st1" d="M286.3,111.1l24.9,31.1l39.4-6l14.5-37.1L340.2,68l-39.4,6L286.3,111.1z M300,73.1c0,0,40.5-6.2,40.6-6.1
			l25.5,31.9l-14.9,38.2c0,0-40.5,6.2-40.6,6.1l-25.5-31.9L300,73.1z"/>
	</g>
	<g>
		<polygon class="st0" points="352.1,69.2 312.2,75.3 297.5,112.9 322.7,144.5 362.7,138.4 377.3,100.7 		"/>
		<path class="st1" d="M298,112.8l24.9,31.1l39.4-6l14.5-37.1l-24.9-31.1l-39.4,6L298,112.8z M311.8,74.8c0,0,40.5-6.2,40.6-6.1
			l25.5,31.9L363,138.8c0,0-40.5,6.2-40.6,6.1L296.9,113L311.8,74.8z"/>
	</g>
	<g>
		<polygon class="st0" points="363.9,70.9 323.9,77 309.2,114.7 334.5,146.2 374.4,140.1 389.1,102.5 		"/>
		<path class="st1" d="M309.8,114.6l24.9,31.1l39.4-6l14.5-37.1l-25-31.1l-39.4,6L309.8,114.6z M323.6,76.6c0,0,40.5-6.2,40.6-6.1
			l25.5,31.9l-14.9,38.2c0,0-40.5,6.2-40.6,6.1l-25.5-31.9L323.6,76.6z"/>
	</g>
	<g>
		<polygon class="st0" points="375.6,72.7 335.7,78.8 321,116.4 346.3,147.9 386.2,141.8 400.9,104.2 		"/>
		<path class="st1" d="M321.6,116.3l24.9,31.1l39.4-6l14.5-37.1l-24.9-31.1l-39.4,6L321.6,116.3z M335.3,78.3c0,0,40.5-6.2,40.6-6.1
			l25.5,31.9l-14.8,38.2c0,0-40.5,6.2-40.6,6.1l-25.5-31.9L335.3,78.3z"/>
	</g>
	<g>
		<polygon class="st0" points="387.4,74.4 347.5,80.5 332.8,118.1 358,149.7 398,143.6 412.6,105.9 		"/>
		<path class="st1" d="M333.3,118l24.9,31.1l39.4-6l14.5-37.1l-24.9-31.1l-39.4,6L333.3,118z M347.1,80c0,0,40.5-6.2,40.6-6.1
			l25.5,31.9L398.3,144c0,0-40.5,6.2-40.6,6.1l-25.5-31.9L347.1,80z"/>
	</g>
	<g>
		<polygon class="st0" points="399.2,76.1 359.2,82.2 344.5,119.9 369.8,151.4 409.7,145.3 424.4,107.7 		"/>
		<path class="st1" d="M345.1,119.8l24.9,31.1l39.4-6l14.5-37.1L399,76.7l-39.4,6L345.1,119.8z M358.9,81.8c0,0,40.5-6.2,40.6-6.1
			l25.5,31.9l-14.9,38.2c0,0-40.5,6.2-40.6,6.1L344,120L358.9,81.8z"/>
	</g>
	<g>
		<polygon class="st0" points="410.9,77.9 371,84 356.3,121.6 381.6,153.1 421.5,147 436.2,109.4 		"/>
		<path class="st1" d="M356.9,121.5l24.9,31.1l39.4-6l14.5-37.1l-24.9-31.1l-39.4,6L356.9,121.5z M370.6,83.5c0,0,40.5-6.2,40.6-6.1
			l25.5,31.9l-14.9,38.2c0,0-40.5,6.2-40.6,6.1l-25.5-31.9L370.6,83.5z"/>
	</g>
	<g>
		<polygon class="st0" points="422.7,79.6 382.8,85.7 368.1,123.3 393.3,154.9 433.3,148.8 447.9,111.1 		"/>
		<path class="st1" d="M368.6,123.2l24.9,31.1l39.4-6l14.5-37.1l-24.9-31.1l-39.4,6L368.6,123.2z M382.4,85.3c0,0,40.5-6.2,40.6-6.1
			l25.5,31.9l-14.9,38.1c0,0-40.5,6.2-40.6,6.1l-25.5-31.9L382.4,85.3z"/>
	</g>
	<g>
		<polygon class="st0" points="434.5,81.3 394.5,87.4 379.8,125.1 405.1,156.6 445,150.5 459.7,112.9 		"/>
		<path class="st1" d="M380.4,125l24.9,31.1l39.4-6l14.5-37.1l-24.9-31.1l-39.4,6L380.4,125z M394.2,87c0,0,40.5-6.2,40.6-6.1
			l25.5,31.9L445.4,151c0,0-40.5,6.2-40.6,6.1l-25.5-31.9L394.2,87z"/>
	</g>
	<g>
		<polygon class="st0" points="446.2,83.1 406.3,89.2 391.6,126.8 416.9,158.3 456.8,152.2 471.5,114.6 		"/>
		<path class="st1" d="M392.2,126.7l24.9,31.1l39.4-6l14.5-37.1l-24.9-31.1l-39.4,6L392.2,126.7z M405.9,88.7c0,0,40.5-6.2,40.6-6.1
			l25.5,31.9l-14.9,38.2c0,0-40.5,6.2-40.6,6.1L391,126.9L405.9,88.7z"/>
	</g>
	<g>
		<polygon class="st0" points="458,84.8 418.1,90.9 403.4,128.5 428.6,160.1 468.6,154 483.2,116.3 		"/>
		<path class="st1" d="M403.9,128.4l24.9,31.1l39.4-6l14.5-37.1l-24.9-31.1l-39.4,6L403.9,128.4z M417.7,90.5c0,0,40.5-6.2,40.6-6.1
			l25.5,31.9l-14.9,38.2c0,0-40.5,6.2-40.6,6.1l-25.5-31.9L417.7,90.5z"/>
	</g>
	<g>
		<polygon class="st0" points="469.8,86.5 429.8,92.6 415.1,130.3 440.4,161.8 480.3,155.7 495,118.1 		"/>
		<path class="st1" d="M415.7,130.2l24.9,31.1l39.4-6l14.5-37.1l-24.9-31.1l-39.4,6L415.7,130.2z M429.5,92.2c0,0,40.5-6.2,40.6-6.1
			l25.6,31.9l-14.9,38.2c0,0-40.5,6.2-40.6,6.1l-25.6-31.9L429.5,92.2z"/>
	</g>
	<g>
		<polygon class="st0" points="481.5,88.3 441.6,94.4 426.9,132 452.2,163.5 492.1,157.4 506.8,119.8 		"/>
		<path class="st1" d="M427.5,131.9l24.9,31.1l39.4-6l14.5-37.1l-24.9-31.1l-39.4,6L427.5,131.9z M441.2,93.9c0,0,40.5-6.2,40.6-6.1
			l25.6,31.9l-14.9,38.2c0,0-40.5,6.2-40.6,6.1l-25.6-31.9L441.2,93.9z"/>
	</g>
	<g>
		<polygon class="st0" points="493.3,90 453.4,96.1 438.7,133.7 463.9,165.3 503.9,159.2 518.5,121.5 		"/>
		<path class="st1" d="M439.2,133.7l24.9,31.1l39.4-6l14.5-37.1l-24.9-31.1l-39.4,6L439.2,133.7z M453,95.7c0,0,40.5-6.2,40.6-6.1
			l25.6,31.9l-14.9,38.2c0,0-40.5,6.2-40.6,6.1l-25.6-31.9L453,95.7z"/>
	</g>
	<g>
		<polygon class="st0" points="505.1,91.7 465.1,97.8 450.4,135.5 475.7,167 515.6,160.9 530.3,123.3 		"/>
		<path class="st1" d="M451,135.4l24.9,31.1l39.4-6l14.5-37.1l-25-31.1l-39.4,6L451,135.4z M464.8,97.4c0,0,40.5-6.2,40.6-6.1
			l25.6,31.9l-14.9,38.2c0,0-40.5,6.2-40.6,6.1l-25.6-31.9L464.8,97.4z"/>
	</g>
	<g>
		<polygon class="st0" points="516.8,93.5 476.9,99.6 462.2,137.2 487.5,168.7 527.4,162.6 542.1,125 		"/>
		<path class="st1" d="M462.8,137.1l24.9,31.1l39.4-6l14.5-37.1l-25-31.1l-39.4,6L462.8,137.1z M476.5,99.1c0,0,40.5-6.2,40.5-6.1
			l25.6,31.9l-14.9,38.2c0,0-40.5,6.2-40.5,6.1l-25.6-31.9L476.5,99.1z"/>
	</g>
	<g>
		<polygon class="st0" points="528.6,95.2 488.7,101.3 474,138.9 499.2,170.5 539.2,164.4 553.8,126.7 		"/>
		<path class="st1" d="M474.5,138.9l24.9,31.1l39.4-6l14.5-37.1l-24.9-31.1l-39.4,6L474.5,138.9z M488.3,100.9
			c0,0,40.5-6.2,40.5-6.1l25.6,31.9l-14.9,38.2c0,0-40.5,6.2-40.5,6.1l-25.6-31.9L488.3,100.9z"/>
	</g>
	<g>
		<polygon class="st0" points="540.4,96.9 500.4,103 485.7,140.7 511,172.2 550.9,166.1 565.6,128.5 		"/>
		<path class="st1" d="M486.3,140.6l24.9,31.1l39.4-6l14.5-37.1l-24.9-31.1l-39.4,6L486.3,140.6z M500.1,102.6
			c0,0,40.5-6.2,40.5-6.1l25.6,31.9l-14.9,38.2c0,0-40.5,6.2-40.5,6.1l-25.6-31.9L500.1,102.6z"/>
	</g>
	<g>
		<polygon class="st0" points="552.1,98.7 512.2,104.8 497.5,142.4 522.8,173.9 562.7,167.8 577.4,130.2 		"/>
		<path class="st1" d="M498.1,142.3l24.9,31.1l39.4-6l14.5-37.1L552,99.2l-39.4,6L498.1,142.3z M511.8,104.3c0,0,40.5-6.2,40.5-6.1
			l25.6,31.9L563,168.3c0,0-40.5,6.2-40.5,6.1l-25.6-31.9L511.8,104.3z"/>
	</g>
	<g>
		<polygon class="st0" points="563.9,100.4 524,106.5 509.3,144.1 534.5,175.7 574.5,169.6 589.1,131.9 		"/>
		<path class="st1" d="M509.8,144.1l24.9,31.1l39.4-6l14.5-37.1L563.7,101l-39.4,6L509.8,144.1z M523.6,106.1c0,0,40.5-6.2,40.5-6.1
			l25.6,31.9l-14.9,38.2c0,0-40.5,6.2-40.5,6.1l-25.6-31.9L523.6,106.1z"/>
	</g>
	<g>
		<polygon class="st0" points="575.7,102.1 535.7,108.2 521,145.9 546.3,177.4 586.2,171.3 600.9,133.7 		"/>
		<path class="st1" d="M521.6,145.8l24.9,31.1l39.4-6l14.5-37.1l-24.9-31.1l-39.4,6L521.6,145.8z M535.4,107.8l40.5-6.2l25.6,31.9
			l-14.9,38.3l-40.5,6.2l-25.6-31.9L535.4,107.8z"/>
	</g>
	<g>
		<polygon class="st0" points="587.4,103.9 547.5,110 532.8,147.6 558.1,179.1 598,173 612.7,135.4 		"/>
		<path class="st1" d="M533.4,147.5l24.9,31.1l39.4-6l14.5-37.1l-24.9-31.1l-39.4,6L533.4,147.5z M547.1,109.5l40.5-6.2l25.6,32
			l-14.9,38.2l-40.5,6.2l-25.6-32L547.1,109.5z"/>
	</g>
	<g>
		<polygon class="st0" points="599.2,105.6 559.3,111.7 544.6,149.4 569.8,180.9 609.8,174.8 624.4,137.1 		"/>
		<path class="st1" d="M545.1,149.3l24.9,31.1l39.4-6l14.5-37.1L599,106.2l-39.4,6L545.1,149.3z M558.9,111.3l40.5-6.2l25.6,32
			l-14.9,38.2l-40.5,6.2l-25.6-32L558.9,111.3z"/>
	</g>
	<g>
		<polygon class="st0" points="610.9,107.4 571,113.5 556.3,151.1 581.6,182.6 621.5,176.5 636.2,138.9 		"/>
		<path class="st1" d="M556.9,151l24.9,31.1l39.4-6l14.5-37.1l-24.9-31.1l-39.4,6L556.9,151z M570.7,113l40.5-6.2l25.6,32L621.9,177
			l-40.5,6.2l-25.6-32L570.7,113z"/>
	</g>
	<g>
		<polygon class="st0" points="622.7,109.1 582.8,115.2 568.1,152.8 593.4,184.4 633.3,178.3 648,140.6 		"/>
		<path class="st1" d="M568.7,152.7l24.9,31.1l39.4-6l14.5-37.1l-24.9-31.1l-39.4,6L568.7,152.7z M582.4,114.7l40.5-6.2l25.6,32
			l-14.9,38.2l-40.5,6.2l-25.6-32L582.4,114.7z"/>
	</g>
	<g>
		<polygon class="st0" points="634.5,110.8 594.6,116.9 579.9,154.6 605.1,186.1 645,180 659.7,142.4 		"/>
		<path class="st1" d="M580.4,154.5l24.9,31.1l39.4-6l14.5-37.1l-24.9-31.1l-39.4,6L580.4,154.5z M594.2,116.5l40.5-6.2l25.6,32
			l-14.9,38.2l-40.5,6.2l-25.6-32L594.2,116.5z"/>
	</g>
	<g>
		<polygon class="st0" points="646.2,112.6 606.3,118.7 591.6,156.3 616.9,187.8 656.8,181.7 671.5,144.1 		"/>
		<path class="st1" d="M592.2,156.2l24.9,31.1l39.4-6l14.5-37.1l-24.9-31.1l-39.4,6L592.2,156.2z M606,118.2l40.5-6.2l25.6,32
			l-14.9,38.2l-40.5,6.2l-25.6-32L606,118.2z"/>
	</g>
	<g>
		<polygon class="st0" points="658,114.3 618.1,120.4 603.4,158 628.6,189.6 668.6,183.5 683.3,145.8 		"/>
		<path class="st1" d="M604,157.9l24.9,31.1l39.4-6l14.5-37.1l-24.9-31.1l-39.4,6L604,157.9z M617.7,119.9l40.5-6.2l25.6,32
			l-14.9,38.2l-40.5,6.2l-25.6-32L617.7,119.9z"/>
	</g>
	<g>
		<polygon class="st0" points="669.8,116 629.8,122.1 615.2,159.8 640.4,191.3 680.3,185.2 695,147.6 		"/>
		<path class="st1" d="M615.7,159.7l24.9,31.1l39.4-6l14.5-37.1l-24.9-31.1l-39.4,6L615.7,159.7z M640.2,191.8l-25.6-32l14.9-38.2
			l40.5-6.2l25.6,32l-14.9,38.2L640.2,191.8z"/>
	</g>
</g>
</svg>
