<svg viewBox="0 0 967 110.7">
<style type="text/css">
	.st0{fill:#3C3C3B;}
	.st1{fill:#ACDAEC;}
</style>
<g>
	<polygon class="st0" points="60.2,20.3 20.4,20.3 0.6,54.7 20.4,89.1 60.2,89.1 80.1,54.7 	"/>
	<path class="st1" d="M60.5,89.6H20.2L0,54.7l20.2-34.9h40.3l20.2,34.9L60.5,89.6z M20.7,88.6h39.2l19.6-33.9L59.9,20.8H20.7
		L1.2,54.7L20.7,88.6z"/>
	<polygon class="st0" points="139.3,20.6 99.6,20.6 79.7,55 99.6,89.4 139.3,89.4 159.2,55 	"/>
	<path class="st1" d="M139.6,89.9H99.3L79.1,55l20.2-34.9h40.3L159.8,55L139.6,89.9z M99.9,88.9h39.2L158.7,55l-19.6-33.9H99.9
		L80.3,55L99.9,88.9z"/>
	<polygon class="st0" points="218.6,21.1 178.9,21.1 159,55.5 178.9,89.9 218.6,89.9 238.5,55.5 	"/>
	<path class="st1" d="M218.9,90.4h-40.3l-20.2-34.9l20.2-34.9h40.3l20.2,34.9L218.9,90.4z M179.2,89.4h39.2L238,55.5l-19.6-33.9
		h-39.2l-19.6,33.9L179.2,89.4z"/>
	<polygon class="st0" points="297.8,20.4 258,20.4 238.2,54.8 258,89.2 297.8,89.2 317.7,54.8 	"/>
	<path class="st1" d="M298.1,89.7h-40.3l-20.2-34.9l20.2-34.9h40.3l20.2,34.9L298.1,89.7z M258.3,88.7h39.2l19.6-33.9l-19.6-33.9
		h-39.2l-19.6,33.9L258.3,88.7z"/>
	<polygon class="st0" points="377.3,20.8 337.6,20.8 317.7,55.2 337.6,89.6 377.3,89.6 397.2,55.2 	"/>
	<path class="st1" d="M377.6,90.1h-40.3l-20.2-34.9l20.2-34.9h40.3l20.2,34.9L377.6,90.1z M337.9,89.1h39.2l19.6-33.9l-19.6-33.9
		h-39.2l-19.6,33.9L337.9,89.1z"/>
	<polygon class="st0" points="456.5,21.1 416.7,21.1 396.9,55.5 416.7,90 456.5,90 476.3,55.5 	"/>
	<path class="st1" d="M456.8,90.5h-40.3l-20.2-34.9l20.2-34.9h40.3L477,55.6L456.8,90.5z M417,89.5h39.2l19.6-33.9l-19.6-33.9H417
		l-19.6,33.9L417,89.5z"/>
	<polygon class="st0" points="535.8,21.6 496.1,21.6 476.2,56 496.1,90.4 535.8,90.4 555.7,56 	"/>
	<path class="st1" d="M536.1,90.9h-40.3l-0.1-0.2l-20-34.7l20.2-34.9h40.2l0.1,0.2l20,34.7L536.1,90.9z M496.3,89.9h39.2L555.1,56
		l-19.6-33.9h-39.2L476.7,56L496.3,89.9z"/>
	<polygon class="st0" points="614.9,20.9 575.2,20.9 555.3,55.3 575.2,89.8 614.9,89.8 634.8,55.3 	"/>
	<path class="st1" d="M615.2,90.3h-40.3l-0.1-0.2l-20-34.7L575,20.5h40.3l0.1,0.2l20,34.7L615.2,90.3z M575.5,89.3h39.2l19.6-33.9
		l-19.6-33.9h-39.2l-19.6,33.9L575.5,89.3z"/>
	<polygon class="st0" points="694.2,19.8 654.4,19.8 634.6,54.2 654.4,88.6 694.2,88.6 714,54.2 	"/>
	<path class="st1" d="M694.5,89.1h-40.4l-0.1-0.2l-20-34.7l20.2-34.9h40.3l0.1,0.2l20,34.7L694.5,89.1z M654.7,88.1h39.2l19.6-33.9
		l-19.6-33.9h-39.2l-19.6,33.9L654.7,88.1z"/>
	<polygon class="st0" points="773.3,20.1 733.6,20.1 713.7,54.5 733.6,88.9 773.3,88.9 793.2,54.5 	"/>
	<path class="st1" d="M773.6,89.4h-40.3l-0.1-0.2l-20-34.7l20.2-34.9h40.3l0.1,0.2l20,34.7L773.6,89.4z M733.9,88.4h39.2l19.6-33.9
		l-19.6-33.9h-39.2l-19.6,33.9L733.9,88.4z"/>
	<polygon class="st0" points="852.6,20.6 812.9,20.6 793,55 812.9,89.4 852.6,89.4 872.5,55 	"/>
	<path class="st1" d="M852.9,89.9h-40.3l-0.1-0.2l-20-34.7l20.2-34.9H853l0.1,0.2l20,34.7L852.9,89.9z M813.2,88.9h39.2L872,55
		l-19.6-33.9h-39.2L793.6,55L813.2,88.9z"/>
	<polygon class="st0" points="931.8,19.9 892,19.9 872.2,54.3 892,88.7 931.8,88.7 951.6,54.3 	"/>
	<path class="st1" d="M932.1,89.2h-40.3l-0.1-0.2l-20-34.7l20.2-34.9h40.3l0.1,0.2l20,34.7L932.1,89.2z M892.3,88.2h39.2l19.6-33.9
		l-19.6-33.9h-39.2l-19.6,33.9L892.3,88.2z"/>
</g>
</svg>
