<svg xmlns="http://www.w3.org/2000/svg" viewBox="0 0 899.42 369.5"><path d="M136.31,104.5c12.9,.1,23.4,10.6,23.6,23.5,.2,12.7-10.7,23.7-23.4,23.8-13.3,.1-23.9-10.6-23.8-24,.1-12.9,10.6-23.3,23.6-23.3Z" style="fill:#2f2cdf;"/><path d="M664.81,270.9c.1-12.9,10.5-23.3,23.4-23.3s24,11.2,23.8,24c-.2,12.7-11.1,23.4-23.7,23.4-13.1-.1-23.6-10.8-23.5-24.1Z" style="fill:#2f2cdf;"/><path d="M141.01,219.1c.2-13.1,10.6-23.2,23.8-23,13,.2,23.4,10.7,23.4,23.7s-11.4,24.1-24.4,23.7c-12.8-.5-23-11.3-22.8-24.4Z" style="fill:#2f2cdf;"/><path d="M573.51,105.9c.1-13,10.6-23.2,23.7-23.1,12.9,.1,23.5,10.8,23.5,23.6s-10.7,23.6-23.5,23.7c-13,.1-23.8-10.9-23.7-24.2Z" style="fill:#2f2cdf;"/><path d="M285.41,242.4c-13,.1-23.6-10.1-23.9-23.1-.2-13,10.9-24.2,24-24.1,12.9,.1,23.5,10.9,23.4,23.7,0,13-10.4,23.4-23.5,23.5Z" style="fill:#2f2cdf;"/><path d="M876.01,322.3c13.2,.1,23.8,11,23.4,24.2-.3,12.8-11,23.1-23.9,23-13.3-.1-23.6-10.8-23.3-24.2,.2-12.9,10.8-23.1,23.8-23Z" style="fill:#2f2cdf;"/><path d="M101.41,35.7c13,.1,23.2,10.6,23.2,23.7-.1,13-10.6,23.6-23.5,23.5-13,0-24.1-11.4-23.8-24.3,.3-12.9,11-23.1,24.1-22.9Z" style="fill:#2f2cdf;"/><path d="M666.91,186.1c.1,13.1-10,23.7-23,24-12.9,.3-24.3-10.9-24.2-23.9,0-12.8,10.8-23.5,23.6-23.5,13.1,0,23.5,10.4,23.6,23.4Z" style="fill:#2f2cdf;"/><path d="M516.81,39.1c0-13.1,10.2-23.5,23.3-23.6,13.2-.1,24.2,10.8,24,23.9-.2,12.8-11.1,23.4-23.9,23.3-12.9,0-23.3-10.6-23.4-23.6Z" style="fill:#2f2cdf;"/><path d="M419.71,97.6c-13.1,0-23.4-10.3-23.5-23.4,0-12.9,10.4-23.6,23.2-23.9,13.1-.2,24.1,10.8,24,24-.2,13-10.7,23.3-23.7,23.3Z" style="fill:#2f2cdf;"/><path d="M32.51,62.9c-13.1,.1-23.5-10.1-23.7-23.1-.2-13.2,10.6-24.1,23.8-24,12.8,.1,23.4,10.8,23.4,23.7-.1,12.8-10.6,23.4-23.5,23.4Z" style="fill:#2f2cdf;"/><path d="M776.11,312.7c13.1,0,23.6,10.4,23.8,23.3,.1,13-11.1,24.2-24.1,23.9-12.9-.3-23.3-10.9-23.3-23.9-.1-12.9,10.6-23.4,23.6-23.3Z" style="fill:#2f2cdf;"/><path d="M452.71,23.3C452.81,10.3,463.31-.1,476.31,0c12.9,0,23.6,10.6,23.6,23.5s-10.9,23.9-24.2,23.7c-13-.3-23.1-10.8-23-23.9Z" style="fill:#2f2cdf;"/><path d="M342.51,155.6c0-13.3,10.7-23.8,24-23.6,12.7,.2,23.3,10.9,23.3,23.7-.1,12.7-10.7,23.4-23.4,23.5-13.5,.2-23.9-10.2-23.9-23.6Z" style="fill:#2f2cdf;"/><path d="M24.01,79.4c13,.2,23.3,10.8,23.2,23.8-.1,12.9-10.8,23.5-23.6,23.5S-.29,115.6,0,102.4c.2-12.8,11-23.2,24-23Z" style="fill:#2f2cdf;"/></svg>
