<svg viewBox="0 0 808.27 832.81"><path d="M418.02,0c.9,.4,1.6,.6,2.4,1,11.9,5.5,23.6,11.2,35.6,16.5,5.7,2.5,2.1,5.5,.9,8.1-20.8,43.5-47.5,83.1-80.2,118.6-59.4,64.4-132.2,108.7-212.6,141.6-30.5,12.4-61.8,22.6-92.6,34.3-6.8,2.6-13.7,5.2-19.7,9.6-6.1,4.6-6.2,8.6,.1,13,8.2,5.9,17.6,9.1,27.1,12.2,54.2,17.9,109.7,30.9,164.7,45.6,122.1,32.7,245.9,57.9,369.6,83.4,45.1,9.3,90.2,18.5,133.5,34.5,13.5,5,26.6,11,38.3,19.6,20.9,15.3,27.4,34.3,20.5,59.3-4.7,17.1-13.4,32.3-23.1,47-23.8,36-52.3,68.2-81.5,99.6-26.7,28.8-54.4,56.8-81.3,85.4-4.7,5-7.1,4.4-11.3-.2-6.3-7-13.3-13.4-20-20q-7.8-7.7-.4-15.2c39.6-40.4,79-81,115.7-124.2,15.3-18,30-36.4,42.6-56.4,4.9-7.8,8.9-15.9,12.7-24.3,3.4-7.5,1.2-11.9-5.7-15.7-14.8-8.1-30.5-13.8-46.5-18.5-54.8-16-110.9-26.5-166.8-37.7-152.7-30.5-303.7-67.5-453.5-110-15.1-4.3-30-9.3-44.3-15.8-7.9-3.6-15.4-7.9-22-13.5-27.5-23.7-26.9-61.6,1.5-84.4,12.2-9.8,26.7-15.3,41.3-20.5,47.2-17,94.7-33.4,139.5-56.4,93.4-48,166.4-116.3,212.4-211.8,.5-1.9,.7-4.2,3.1-4.7Z" style="fill:#2f2cdf;"/></svg>
