<svg viewBox="0 0 662.61 605.14"><path d="M160.65,605.14c-34,0-61.5-2.8-87.5-13.8C26.75,571.64,2.95,535.74,.25,486.04c-2.1-39,9.1-75.6,23.9-111.1,30.4-72.5,73.8-137.3,119.7-200.5C187.05,115.04,233.65,58.44,282.25,3.44c4.1-4.6,6.5-4.4,10.6-.5,7.9,7.7,16,15.1,24.3,22.3,4.1,3.5,4.2,5.8,.5,10-37.1,41.3-72.6,84-106.4,128.1-46.6,60.8-90.8,123.1-125.8,191.5-16.1,31.5-30.1,63.9-36.2,99.2-3,17.5-3.7,34.9,1.9,52.1,9.1,27.6,30.5,40.7,57.1,47.1,27.6,6.7,55.7,5.9,83.6,2.4,103.8-12.8,201.1-48.3,298-85.2,49.6-18.9,98.5-39.7,147.1-61.2,5.9-2.6,8.6-1.9,11,4.2,4.1,10.5,8.9,20.7,13.7,30.9,1.9,4.1,1,5.7-3.1,7.4-122,52.9-244.9,103.5-374.4,135.4-42.5,10.3-85.5,17.8-123.5,18Z" style="fill:#9f52dc;"/></svg>
