<svg viewBox="0 0 642 191">
<style type="text/css">
	.st0{fill:#FDFDFD;}
	.st1{fill:#EA7175;}
	.st2{fill:#F7D4D6;}
</style>
<path class="st0" d="M228.8,116.5c-0.6,0-1.1-0.1-1.5-0.6C227.9,115.9,228.4,115.9,228.8,116.5z"/>
<path class="st0" d="M225.5,123.1c0.6,0,1.2,0.1,1.5,0.6C226.4,123.8,225.8,123.8,225.5,123.1z"/>
<g>
	<path class="st1" d="M389.2,164.2c-0.1-0.2-0.3-0.2-0.5-0.2c-0.5-0.2-1-0.2-1.5-0.5c-2.2-0.3-4.3-0.2-6.5-0.1
		c-0.6-0.5-1.4-0.1-2.1-0.5c-0.2-0.1-0.4-0.2-0.6-0.1c-0.4-0.4-1-0.2-1.4-0.7l0,0c-0.2-0.2-0.4-0.4-0.7-0.5
		c-0.1-0.2-0.2-0.2-0.4-0.2c-0.5-0.1-0.8-0.4-0.9-0.9c0-0.2-0.1-0.3-0.2-0.4c-0.1-0.2-0.3-0.4-0.5-0.6l0,0c-0.2-0.3-0.5-0.5-0.6-0.9
		c0-0.2,0-0.4-0.2-0.5c-0.2-0.3-0.4-0.5-0.5-0.8c0-0.2,0-0.3-0.1-0.5c-0.3-0.4-0.2-1-0.6-1.4c0-0.2,0-0.4-0.1-0.6
		c-0.3-0.4-0.2-1-0.5-1.4c0-0.2,0-0.4-0.1-0.6c-0.3-0.4-0.2-1-0.6-1.3l0,0c-0.2-0.2-0.5-0.4-0.6-0.8l0,0c-0.3-0.1-0.6-0.4-0.7-0.7
		v0.1c-0.3-0.1-0.6-0.4-0.7-0.7l0,0c-0.3-0.1-0.5-0.4-0.7-0.6l0,0c-0.2-0.2-0.4-0.4-0.6-0.5c-0.2-0.2-0.3-0.2-0.6-0.2
		c-0.3-0.1-0.5-0.3-0.8-0.5c-0.1-0.1-0.3-0.2-0.5-0.2c-0.3-0.1-0.6-0.3-0.8-0.5c-0.1-0.1-0.3-0.2-0.5-0.2c-0.3-0.1-0.6-0.3-0.9-0.5
		c-0.1-0.1-0.3-0.2-0.4-0.1c-0.4-0.1-0.6-0.3-0.9-0.6l0,0c-0.3-0.4-1-0.3-1.3-0.7l0,0c-0.3-0.2-0.4-0.4-0.7-0.6h-0.1
		c-0.2-0.5-1-0.3-1.2-0.8l0.1,0.1c-0.3-0.2-0.5-0.4-0.7-0.7l0,0c-0.3-0.2-0.5-0.4-0.7-0.7l0,0c-0.3-0.2-0.5-0.4-0.7-0.7l0,0
		c-0.3-0.2-0.5-0.4-0.7-0.7l0,0c-0.2-0.2-0.5-0.4-0.7-0.6l0,0c-0.2-0.2-0.4-0.4-0.7-0.6l-0.1-0.1c-0.1-0.2-0.3-0.4-0.5-0.5
		c-0.1-0.2-0.2-0.2-0.4-0.3c-0.4-0.1-0.7-0.3-0.9-0.7h0.1c-0.3-0.2-0.5-0.4-0.7-0.7l0,0c-0.3-0.2-0.5-0.4-0.7-0.7l0,0
		c-0.2-0.2-0.5-0.4-0.7-0.6l0,0c-0.1-0.2-0.3-0.4-0.6-0.5c-0.1-0.2-0.2-0.2-0.4-0.2c-0.4-0.1-0.7-0.3-0.9-0.7h0.1
		c-0.3-0.1-0.5-0.4-0.7-0.7l0,0c-0.3-0.2-0.5-0.4-0.7-0.7l0,0c-0.2-0.2-0.5-0.4-0.7-0.6l0,0c-0.1-0.2-0.3-0.4-0.6-0.5
		c-0.1-0.2-0.2-0.2-0.4-0.2c-0.4-0.1-0.7-0.3-0.9-0.7h0.1c-0.3-0.1-0.6-0.4-0.7-0.7l0,0c-0.3-0.2-0.5-0.4-0.7-0.7l0,0
		c-0.3-0.2-0.5-0.4-0.7-0.6l0,0c-0.2-0.2-0.4-0.4-0.7-0.6H342c-0.1-0.2-0.3-0.4-0.6-0.5l-0.1-0.1c-0.1-0.2-0.2-0.4-0.5-0.5
		c-0.1-0.2-0.3-0.3-0.5-0.3c-0.4-0.1-0.7-0.3-0.9-0.7h0.1c-0.3-0.2-0.5-0.4-0.7-0.7l0,0c-0.3-0.2-0.5-0.4-0.7-0.7l0,0
		c-0.3-0.2-0.5-0.4-0.7-0.7l0,0c-0.3-0.2-0.5-0.4-0.7-0.7l0,0c-0.3-0.2-0.5-0.4-0.7-0.7l0,0c-0.2-0.2-0.5-0.4-0.7-0.7l0,0
		c-0.2-0.2-0.5-0.4-0.7-0.7l0,0c-0.3-0.2-0.5-0.4-0.7-0.7l0,0c-0.3-0.2-0.5-0.4-0.7-0.7v0.1c-0.4-0.2-0.6-0.5-0.7-0.9
		c0-0.2,0-0.3-0.2-0.4c-0.2-0.2-0.3-0.5-0.5-0.7l0,0c-0.4-0.3-0.3-1-0.7-1.3l0,0c-0.6-1.1-0.5-2.2-0.1-3.3c0.1-0.1,0.2-0.3,0.1-0.4
		c0.1-0.4,0.3-0.6,0.6-0.9l0,0c0.2-0.2,0.4-0.4,0.5-0.6c0.2-0.1,0.2-0.2,0.2-0.4c0.1-0.3,0.2-0.7,0-1l0,0c-0.3-0.1-0.6-0.4-0.7-0.7
		l0,0c-0.3-0.2-0.5-0.4-0.7-0.7l0,0c-0.3-0.2-0.5-0.4-0.7-0.7v0.1c-0.4-0.2-0.6-0.5-0.7-0.9c0-0.2,0-0.3-0.2-0.4
		c-0.2-0.3-0.4-0.5-0.5-0.8c0-0.2,0-0.4-0.1-0.5c-0.3-0.5-0.3-1-0.5-1.5c0-0.3,0-0.6,0-0.9c-1-2.3-2.7-0.9-4.2-0.9h-0.3l-0.3,0.1
		c-0.2,0.2-0.4,0.4-0.7,0.5l0,0c-0.1,0.3-0.4,0.6-0.7,0.7l0,0c-0.3,0.4-0.2,1-0.6,1.4c0,0.4-0.1,0.8-0.1,1.2
		c-0.8,1.5,0.2,3.2-0.7,4.7l0,0c-0.4,0.4-0.3,1-0.7,1.3l0,0c-0.2,0.2-0.4,0.5-0.6,0.7v0.1c-0.2,0.2-0.5,0.4-0.7,0.6l0,0
		c-0.3,0.3-0.5,0.5-0.9,0.6h-0.2l-0.2,0.1c-1.5,0.5-3.1,0.4-4.6,0l-0.3-0.1h-0.3c-0.6-0.6-1.5-0.1-2-0.6l0,0
		c-0.3-0.4-0.9-0.3-1.3-0.6c-0.2-0.1-0.4-0.2-0.6-0.1c-0.4-0.3-1-0.2-1.4-0.6l-0.2-0.1h-0.2c-0.5-0.2-1.1-0.2-1.5-0.6l-0.3-0.1h-0.3
		c-0.5-0.2-1-0.4-1.4,0.1l0,0c-0.2,0.2-0.5,0.4-0.7,0.6l0,0c-0.2,0.2-0.4,0.4-0.5,0.6c-0.2,0.1-0.2,0.2-0.2,0.4
		c-0.1,0.4-0.3,0.7-0.7,0.9l0,0c-0.2,0.3-0.4,0.5-0.7,0.7l0,0c-0.2,0.3-0.4,0.5-0.7,0.7l0,0c-0.2,0.2-0.4,0.5-0.7,0.7l0,0
		c-0.2,0.2-0.4,0.5-0.7,0.6l0.1-0.1c-0.3,0.5-1,0.4-1.4,0.7c-0.2,0-0.4,0-0.6,0.1c-0.4,0.2-1,0.2-1.4,0.5c-0.4,0-0.8,0.1-1.2,0.1
		c-1.3,0.4-2.6,0.4-3.9,0c-0.4,0-0.8-0.1-1.2-0.1c-0.8-0.6-1.9,0-2.8-0.6l-0.2-0.1h-0.3c-0.6-0.5-1.5-0.1-2.1-0.6l-0.2-0.1h-0.3
		c-0.6-0.5-1.5,0-2.1-0.6l-0.2-0.1h-0.2c-0.5-0.2-1-0.2-1.5-0.5c-0.6-0.1-1.2-0.1-1.8-0.2c-1.9-0.4-3.7-0.5-5.6,0h-0.3l-0.3,0.1
		c-0.2,0.2-0.5,0.4-0.7,0.5l0,0c-0.1,0.3-0.4,0.5-0.6,0.8c-0.1,0.2-0.1,0.4-0.1,0.6c-0.5,0.6-0.1,1.4-0.5,2
		c-0.1,0.2-0.2,0.4-0.1,0.6c-0.3,0.4-0.2,1-0.7,1.4l0,0c-0.2,0.2-0.4,0.5-0.6,0.7l-0.1,0.1c-0.3,0.1-0.4,0.3-0.6,0.6l-0.1,0.1
		c-0.3,0.1-0.5,0.3-0.6,0.6l0,0c-0.3,0.2-0.5,0.4-0.7,0.6l0,0c-0.2,0.3-0.5,0.5-0.9,0.6c-0.2,0-0.4,0.1-0.5,0.2
		c-0.2,0.1-0.5,0.3-0.6,0.5l0,0c-0.3,0.3-0.5,0.5-0.9,0.6c-0.2,0-0.3,0-0.5,0.2s-0.5,0.3-0.7,0.5l0,0c-0.3,0.4-1,0.3-1.3,0.7l0,0
		c-0.3,0.2-0.5,0.5-0.9,0.6c-0.2,0-0.4,0-0.5,0.2c-0.2,0.2-0.5,0.3-0.7,0.5l0,0c-0.3,0.5-1,0.3-1.3,0.7l0,0c-0.3,0.4-1,0.3-1.3,0.7
		l0,0c-0.4,0.4-1,0.4-1.5,0.6c-0.4,0-0.8,0.1-1.1,0.1c-0.4,0.3-0.9,0.3-1.3,0l-0.3-0.1h-0.3c-0.4-0.4-1-0.3-1.4-0.6
		c-0.1-0.1-0.3-0.2-0.4-0.2c-0.4-0.1-0.7-0.3-0.9-0.6l0,0c-0.3-0.2-0.5-0.4-0.7-0.7l0,0c-0.2-0.2-0.5-0.4-0.7-0.7l0,0
		c-0.2-0.2-0.4-0.4-0.7-0.6c-0.9-0.4-1.8-0.3-2.7,0c-0.7,0.4-1.5,0.1-2.2,0.5c-0.6,0.1-1.2,0.1-1.8,0.2c-1.8,0.3-3.5,0.5-5.2-0.1
		l0,0c-0.4-0.4-1-0.3-1.3-0.7l0,0c-0.3-0.2-0.5-0.4-0.7-0.6l0,0c-0.2-0.2-0.4-0.4-0.6-0.6l-0.1-0.1c-0.1-0.3-0.3-0.4-0.6-0.5
		l-0.1-0.1c-0.1-0.2-0.2-0.4-0.5-0.5c-0.1-0.2-0.2-0.3-0.4-0.3c-0.4-0.1-0.7-0.3-0.9-0.7l0,0c-0.2-0.2-0.5-0.3-0.7-0.5
		c-0.2-0.1-0.4-0.2-0.6-0.2c-0.4-0.3-1-0.2-1.4-0.6l-0.2-0.1h-0.2c-0.5-0.2-1.1-0.2-1.6-0.6l-0.2-0.1h-0.2c-0.5-0.2-1.1-0.2-1.6-0.5
		l-0.2-0.1h-0.3c-0.6-0.5-1.5,0-2.1-0.6l-0.2-0.1H219c-0.7-0.4-1.5-0.1-2.2-0.6l-0.3-0.1h-0.3c-0.6-0.5-1.4-0.1-2-0.5
		c-0.6-0.1-1.2-0.1-1.8-0.2c-0.7-0.4-1.5-0.1-2.2-0.5c-0.6-0.1-1.2-0.1-1.8-0.2c-0.9-0.6-1.9,0-2.8-0.5c-0.6,0-1.2-0.1-1.9-0.1
		c-1.3-0.7-2.8,0.1-4.1-0.6c-0.4,0-0.8-0.1-1.2-0.1c-1.3-0.7-2.8,0.1-4.1-0.6c-0.6,0-1.2-0.1-1.8-0.1c-0.9-0.5-1.9,0-2.8-0.5
		c-0.6,0-1.3-0.1-1.9-0.1c-1.1-0.7-2.3,0.1-3.4-0.6c-0.4,0-0.8-0.1-1.2-0.1c-0.8-0.6-1.9,0-2.7-0.5c-0.4,0-0.8-0.1-1.2-0.1
		c-0.6-0.5-1.4-0.1-2.1-0.5c-0.4,0-0.8-0.1-1.3-0.1c-0.6-0.5-1.4-0.1-2-0.5c-0.4-0.1-0.8-0.1-1.1-0.2c-0.5-0.2-1-0.2-1.5-0.5
		c-0.4-0.1-0.7-0.1-1.1-0.2c-0.5-0.2-1.1-0.2-1.5-0.5l-0.2-0.1h-0.3c-0.4-0.3-1-0.2-1.5-0.5l-0.3-0.1h-0.3c-0.4-0.3-1-0.2-1.5-0.6
		l-0.2-0.1h-0.2c-0.3-0.1-0.6-0.3-0.9-0.5c-0.2-0.1-0.4-0.2-0.6-0.2c-0.4-0.3-1-0.2-1.4-0.6l0,0c-0.4-0.4-1-0.3-1.3-0.7l0,0
		c-0.4-0.4-1-0.3-1.3-0.7l0,0c-0.2-0.2-0.4-0.4-0.7-0.5c-0.1-0.1-0.3-0.2-0.5-0.2c-0.3-0.1-0.6-0.4-0.9-0.6l0,0
		c-0.3-0.4-1-0.3-1.2-0.8l0.1,0.1c-0.3-0.1-0.6-0.4-0.7-0.7l0.1,0.1c-0.5-0.3-0.4-0.9-0.8-1.3l0,0c-0.4-0.4-0.3-1-0.6-1.3l0,0
		c-0.4-0.3-0.2-0.9-0.7-1.2c-0.4-0.1-0.8-0.1-1.1-0.2c-0.5-0.3-1.1-0.2-1.5-0.6l0,0c-0.2-0.2-0.4-0.4-0.7-0.5l-0.1-0.1
		c-0.1-0.3-0.3-0.5-0.5-0.6l-0.1-0.1c-0.1-0.3-0.4-0.5-0.5-0.7l0,0c-0.7-1.3-0.5-2.6-0.1-3.9c0.1-0.2,0.2-0.3,0.1-0.5
		c0.2-0.3,0.2-0.5-0.1-0.7c-0.1-0.1-0.2-0.2-0.4-0.2c-0.3-0.1-0.6-0.3-0.9-0.5c-0.2-0.1-0.4-0.2-0.6-0.2c-0.2-0.2-0.5-0.3-0.7-0.5
		c-0.1-0.1-0.3-0.2-0.5-0.2c-0.3-0.1-0.6-0.4-0.8-0.6l0,0c-0.3-0.2-0.5-0.4-0.7-0.7l0,0c-0.3-0.2-0.6-0.5-0.6-0.9
		c0.1-0.2,0-0.3-0.1-0.4c-0.8-1.3,0.1-2.8-0.6-4.1c0.1-0.6,0.1-1.3-0.2-1.9c-0.2-0.2-0.5-0.2-0.7-0.1h-0.3l-0.2,0.1
		c-0.5,0.3-1,0.3-1.5,0.5h-0.2l-0.2,0.1c-1.1,0.7-2.4-0.1-3.4,0.6c-0.8-0.2-1.7-0.1-2.5,0.1c-8,0.6-16,0.1-24,0.3
		c-1.3,0-2.6-0.3-3.9,0.3c-0.4,0-0.5,0.2-0.6,0.5s-0.3,0.6-0.5,0.8c-0.1,0.2-0.2,0.3-0.2,0.5c-0.3,0.5-0.2,1.1-0.6,1.5l0,0
		c-0.4,0.4-0.2,1-0.6,1.4c-0.1,0.1-0.2,0.3-0.1,0.4c-0.1,0.3-0.3,0.6-0.5,0.9c-0.1,0.2-0.2,0.3-0.2,0.5c-0.3,0.4-0.2,1.1-0.7,1.4
		l0,0c-0.2,0.2-0.3,0.5-0.5,0.7c-0.1,0.1-0.2,0.3-0.2,0.4c-0.1,0.4-0.3,0.7-0.6,0.9l0,0c-0.2,0.3-0.4,0.5-0.6,0.7l0,0
		c-0.2,0.2-0.4,0.4-0.7,0.6l0,0c-0.2,0.2-0.4,0.5-0.7,0.6l0,0c-0.3,0.5-1,0.3-1.3,0.7l0,0c-1.1,0.6-2.2,0.4-3.3,0.1
		c-0.4,0-0.8-0.1-1.2-0.1c-0.6-0.5-1.5-0.1-2.1-0.5L89.7,97h-0.3c-0.6-0.6-1.4-0.1-2-0.6l-0.3-0.1h-0.3c-0.6-0.6-1.4-0.1-2-0.6
		l-0.2-0.1h-0.3c-0.5-0.3-1-0.2-1.5-0.5L82.6,95h-0.3c-0.3-0.1-0.5-0.3-0.8-0.5c-0.1-0.1-0.3-0.2-0.5-0.2c-0.3-0.1-0.6-0.4-0.8-0.7
		l0,0c-0.3-0.2-0.6-0.5-0.7-0.9c0-0.2,0-0.3-0.1-0.5c-0.7-0.5,0.5-2.4-1.4-2.1c-0.6,0.1-1.2,0.1-1.8,0.2c-1.1,0.4-2.2,0.4-3.3,0
		l-0.3-0.1h-0.3c-0.4-0.4-1-0.3-1.4-0.6c-0.1-0.1-0.3-0.2-0.5-0.1c-0.4-0.1-0.6-0.3-0.9-0.6l0,0c-0.2-0.2-0.4-0.4-0.7-0.6l-0.1-0.1
		c-0.2-0.3-0.4-0.5-0.6-0.7l0,0c-0.2-0.3-0.5-0.5-0.6-0.9c0.1-0.2,0-0.3-0.1-0.4c-0.5-0.9-0.4-1.7,0-2.6c0.1-0.2,0.1-0.4,0.1-0.6
		c0.2-0.8,0.7-1.6-0.8-1.5v0.1c-0.2,0.2-0.4,0.4-0.7,0.7l0,0c-0.2,0.2-0.4,0.4-0.7,0.7c-0.2,0.2-0.4,0.4-0.6,0.7l0,0
		c-0.2,0.2-0.4,0.4-0.6,0.7l0,0c-0.2,0.2-0.5,0.4-0.7,0.6l0,0c-0.2,0.2-0.4,0.5-0.7,0.6l0,0c-0.2,0.3-0.4,0.5-0.7,0.7l0.1-0.1
		c-0.3,0.5-0.9,0.3-1.3,0.8l0,0c-0.4,0.4-1,0.2-1.3,0.7l0,0c-0.5,0.4-1,0.3-1.5,0.6c-0.4,0-0.7,0.1-1.1,0.1c-0.7,0.4-1.3,0.4-2,0
		c-0.4,0-0.7-0.1-1.1-0.1c-0.5-0.2-1.1-0.2-1.5-0.6l-0.2-0.1h-0.2c-0.4-0.1-0.7-0.3-0.9-0.6l0,0c-0.3-0.4-1-0.3-1.3-0.8l0.1,0.1
		c-0.3-0.1-0.5-0.4-0.7-0.6l0,0c-0.2-0.2-0.4-0.4-0.7-0.6h-0.1c-0.2-0.5-1-0.3-1.2-0.8l0.1,0.1c-0.3-0.1-0.6-0.4-0.7-0.7l0,0
		c-0.3-0.2-0.5-0.4-0.7-0.7l0,0c-0.3-0.2-0.5-0.4-0.7-0.7l0,0c-0.3-0.2-0.5-0.4-0.7-0.7l0,0c-0.2-0.2-0.5-0.4-0.7-0.7l0,0
		c-0.2-0.2-0.5-0.4-0.7-0.7l0,0c-0.3-0.2-0.5-0.4-0.7-0.7l0.1,0.1c-0.5-0.3-0.4-1-0.7-1.4c0-0.6-0.1-1.2-0.1-1.9
		c-0.2-0.2-0.4-0.4-0.6-0.6c-1.5-0.3-3-0.3-4.5-0.1c-1.5-0.7-3.2,0.1-4.8-0.5c-0.4-0.1-0.8-0.1-1.2-0.2c-0.5-0.3-1-0.2-1.5-0.5
		l-0.2-0.1h-0.3c-0.3-0.1-0.6-0.3-0.8-0.5c-0.1-0.1-0.2-0.2-0.4-0.2c-0.4-0.1-0.7-0.3-0.9-0.7l0,0c-0.3-0.2-0.5-0.4-0.7-0.7l0,0
		c-0.3-0.2-0.6-0.5-0.7-0.9c0.1-0.2,0-0.3-0.1-0.4c-0.4-1.1-0.5-2.2,0-3.3l0,0c0.4-0.3,0.3-1,0.7-1.3l0,0c0.2-0.3,0.4-0.5,0.7-0.7
		l0,0c0.6-0.6,0.1-1.4,0.6-2c0-0.4,0.1-0.8,0.1-1.2c0.7-1.8-0.2-3.7,0.5-5.4c0-0.4,0.1-0.7,0.1-1.1c0.2-0.5,0.2-1.1,0.7-1.5v0.1
		c0.1-0.3,0.4-0.5,0.6-0.7l0,0c0.2-0.1,0.4-0.3,0.5-0.6c0.2-0.1,0.2-0.2,0.2-0.4c0.1-0.4,0.3-0.7,0.7-0.9V52
		c0.1-0.3,0.4-0.6,0.7-0.7l-0.1,0.1c0.1-0.3,0.4-0.6,0.7-0.7l-0.1,0.1c0.1-0.3,0.4-0.6,0.7-0.7h-0.1c0.1-0.3,0.4-0.6,0.7-0.7l0,0
		c0.2-0.3,0.4-0.6,0.7-0.7l0,0c0.2-0.3,0.4-0.6,0.7-0.7l0,0c0.2-0.3,0.4-0.5,0.7-0.7l0,0c0.2-0.3,0.4-0.5,0.7-0.7l0,0
		c0.2-0.3,0.4-0.5,0.7-0.7l0,0c0.2-0.3,0.4-0.5,0.7-0.7l0,0c0.2-0.3,0.4-0.5,0.7-0.7l0,0c0.2-0.3,0.5-0.5,0.9-0.6h0.2
		c0.4,0.1,0.7,0.3,0.9,0.7l0,0c0.3,0.2,0.5,0.4,0.7,0.7l0,0c0.3,0.2,0.5,0.4,0.7,0.7l0,0c0.3,0.2,0.5,0.4,0.7,0.7l0,0
		c0.3,0.2,0.5,0.4,0.7,0.7l0,0c0.3,0.2,0.5,0.4,0.7,0.7l0,0c0.2,0.2,0.5,0.4,0.7,0.7h-0.1c0.2,0.1,0.2,0.3,0.2,0.4
		c-0.1,0.1-0.1,0.2-0.2,0.2h0.1c-0.2,0.3-0.4,0.5-0.7,0.7l0,0c-0.2,0.3-0.4,0.5-0.7,0.7l0,0c-0.2,0.3-0.4,0.5-0.7,0.7l0,0
		c-0.2,0.2-0.4,0.5-0.7,0.7l0,0c-0.2,0.2-0.4,0.4-0.7,0.7l0,0c-0.2,0.2-0.4,0.4-0.6,0.7l0,0c-0.2,0.2-0.4,0.4-0.6,0.7l0,0
		c-0.2,0.2-0.4,0.4-0.6,0.6l0,0c-0.2,0.2-0.4,0.4-0.6,0.6l0,0c-0.2,0.2-0.4,0.4-0.6,0.6l0,0c-0.2,0.2-0.4,0.4-0.6,0.6l-0.1,0.1
		c-0.2,0.2-0.4,0.4-0.6,0.6L36,57.5c-0.2,0.1-0.4,0.3-0.5,0.5c-0.2,0.2-0.3,0.4-0.2,0.6c-0.8,2,0.2,4.1-0.6,6c0,0.4-0.1,0.8-0.1,1.2
		c-0.7,1.8-0.2,2.6,1.8,2.5c0.9-0.1,1.9-0.2,2.8,0.2c1.3,0.1,2.6,0.1,3.9,0.2c0.6,0.5,1.5,0.1,2.1,0.5c0.2,0.1,0.4,0.2,0.6,0.1
		c0.4,0.3,1,0.2,1.4,0.6l0,0c0.2,0.2,0.4,0.4,0.7,0.5c0.1,0.2,0.3,0.2,0.5,0.2c0.7,0.2,0.5,0.9,0.9,1.3c0,0.2,0,0.4,0.1,0.6
		c0.5,0.6,0,1.4,0.6,2c-0.1,0.2-0.1,0.4,0,0.5c-0.4,0.5-0.4,1,0,1.4l0,0c0.3,0.2,0.5,0.4,0.7,0.7l0,0c0.3,0.2,0.5,0.4,0.7,0.7l0,0
		c0.2,0.2,0.5,0.4,0.7,0.6l0,0c0.2,0.2,0.4,0.4,0.7,0.6l0.1,0.1c0.2,0.5,0.9,0.3,1.2,0.8L54,79.8c0.3,0.1,0.5,0.4,0.7,0.6l0,0
		c0.2,0.2,0.4,0.4,0.6,0.5c0.7,0.3,1.4,0.3,2.1,0c0.2-0.1,0.5-0.3,0.6-0.5l0,0c0.2-0.2,0.4-0.5,0.7-0.6l0,0c0.2-0.3,0.4-0.5,0.7-0.7
		l0,0c0.2-0.3,0.4-0.5,0.7-0.7l0,0c0.2-0.3,0.4-0.5,0.7-0.7l0,0c0.2-0.3,0.4-0.5,0.7-0.7l0,0c0.2-0.3,0.4-0.5,0.7-0.7l0,0
		c0.2-0.3,0.4-0.5,0.7-0.7l0,0c0.2-0.3,0.4-0.5,0.7-0.7L63.5,75c0.2-0.5,0.9-0.3,1.2-0.8l0,0c0.3-0.2,0.5-0.4,0.9-0.6
		c0.2,0,0.4,0,0.5-0.1c0.4-0.3,1-0.2,1.4-0.5c1,0,2,0,3,0c0.5,0.2,1.1,0.2,1.5,0.6l0,0c0.3,0.4,1,0.3,1.3,0.7v-0.1
		c0.3,0.2,0.5,0.4,0.7,0.7l0,0c0.3,0.2,0.5,0.4,0.7,0.7l-0.1-0.1c0.5,0.3,0.4,1,0.7,1.3l0,0c1,1.9-0.2,4,0.7,5.9
		c0.5,0,0.9,0,1.4-0.1c1.3-0.3,2.6-0.3,3.9,0c0.4,0.1,0.8,0.1,1.3,0.2c0.4,0.3,1,0.2,1.4,0.6c0.1,0.1,0.3,0.2,0.4,0.1
		c0.4,0.1,0.7,0.3,0.9,0.6l0,0c0.2,0.2,0.4,0.4,0.7,0.6l0,0c0.2,0.2,0.4,0.5,0.6,0.7l0,0c0.5,0.4,0.3,1,0.7,1.4c0,0.2,0,0.4,0.1,0.6
		c0.3,0.3,0.2,0.9,0.6,1.2c0.4,0.1,0.8,0.1,1.2,0.2c0.4,0.3,1,0.3,1.4,0.5c0.4,0.1,0.8,0.1,1.2,0.2c0.6,0.5,1.4,0.1,2.1,0.5
		c0.2,0,0.5,0,0.7,0c0.2-0.1,0.4-0.3,0.6-0.5c0.1-0.1,0.2-0.3,0.2-0.5c0.1-0.3,0.3-0.6,0.5-0.9c0.1-0.2,0.2-0.3,0.2-0.5
		c0.3-0.5,0.2-1.1,0.6-1.5l0,0c0.4-0.4,0.2-1,0.6-1.3c0.1-0.1,0.2-0.3,0.1-0.4c0.1-0.3,0.3-0.6,0.5-0.9c0.1-0.1,0.2-0.3,0.2-0.5
		c0.1-0.3,0.3-0.5,0.5-0.8c0.1-0.1,0.2-0.3,0.2-0.5c0.1-0.3,0.4-0.6,0.6-0.9l0,0c0.4-0.3,0.3-1,0.8-1.2l-0.1,0.1
		c0.1-0.3,0.4-0.6,0.7-0.7l-0.1,0.1c0.2-0.5,0.9-0.3,1.2-0.8l0,0c0.4-0.3,1-0.3,1.4-0.6c0.4,0,0.8-0.1,1.2-0.1
		c2.7-0.7,5.4,0.3,8.1-0.5c1,0.2,2,0.2,3,0c4.3,0.5,8.6,0.5,12.9,0c2.4,0.3,4.8,0.1,7.1-0.2c0.7-0.4,1.5-0.1,2.1-0.5
		c0.4-0.1,0.8-0.1,1.2-0.2c0.3-0.2,0.5-0.4,0.9-0.4c0.4-0.1,0.7-0.1,1.1-0.2c0.4-0.2,1-0.1,1.3-0.5c0.2,0,0.4-0.1,0.7-0.1
		c0.5-0.3,1-0.3,1.5-0.5c0.8-0.1,1.6-0.1,2.4-0.2c0.4-0.2,0.8-0.2,1.3,0c0.6,0.1,1.2,0.1,1.8,0.2c0.5,0.3,1.1,0.2,1.5,0.6l0,0
		c0.3,0.2,0.5,0.4,0.7,0.6h0.1c0.2,0.2,0.4,0.4,0.6,0.6l0.1,0.1c0.2,0.3,0.4,0.5,0.6,0.7l0,0c0.6,1.3,0.5,2.6,0.1,4l0,0
		c-0.2,0.2-0.4,0.4-0.5,0.6c-0.3,0.3-0.6,0.6-0.9,0.8c-0.2,0.1-0.5,0.3-0.7,0.5l0,0c-1.1,0.7-1.3,1.6-0.7,2.7l0,0
		c0.2,0.2,0.5,0.3,0.7,0.5c0.2,0.1,0.5,0.1,0.7,0.2c0.3,0.4,0.9,0.3,1.3,0.6c0.1,0.1,0.3,0.2,0.5,0.1c0.4,0.1,0.6,0.3,0.9,0.6l0,0
		c0.2,0.2,0.4,0.4,0.7,0.6l0.1,0.1c0.1,0.3,0.3,0.5,0.6,0.6v0.1c0.1,0.3,0.4,0.5,0.6,0.7v-0.1c1,1.3-0.2,3.1,0.7,4.4
		c0.1,0.2,0.3,0.2,0.5,0.2c0.4,0.1,0.6,0.4,0.8,0.7l0,0c0.3,0.2,0.6,0.5,0.7,0.9c0,0.2,0,0.3,0.2,0.4c0.2,0.3,0.4,0.5,0.5,0.8
		c0,0.2,0,0.4,0.2,0.5c0.3,0.4,0.2,1,0.6,1.3l0,0c0.4,0.3,0.2,0.9,0.7,1.2c0.1,0.2,0.2,0.2,0.4,0.2c0.4,0.1,0.6,0.3,0.9,0.6l0,0
		c0.3,0.4,0.9,0.3,1.3,0.7l0,0c0.4,0.4,1,0.3,1.3,0.6l0,0c0.3,0.4,0.9,0.3,1.3,0.6c0.1,0.1,0.3,0.2,0.5,0.1c0.3,0.1,0.5,0.3,0.8,0.5
		c0.2,0,0.5,0.1,0.7,0.1c0.3,0.4,0.9,0.3,1.3,0.5c0.2,0,0.5,0.1,0.7,0.1c0.3,0.4,0.9,0.3,1.3,0.5c0.4,0.1,0.8,0.1,1.2,0.2
		c0.4,0.3,1,0.2,1.4,0.5c0.4,0.1,0.8,0.1,1.2,0.2c0.5,0.3,1,0.2,1.5,0.5c0.6,0.1,1.2,0.1,1.8,0.2c0.5,0.2,1,0.2,1.5,0.5
		c0.6,0.1,1.2,0.1,1.8,0.2c0.6,0.4,1.5,0.1,2.1,0.5c0.6,0.1,1.3,0.1,1.9,0.2c0.8,0.6,1.9,0,2.7,0.5c0.8,0.2,1.6,0.3,2.5,0.2
		c0.9,0.5,1.9,0,2.8,0.5c0.8,0.2,1.6,0.3,2.5,0.2c0.9,0.5,1.9,0,2.8,0.5c0.8,0.1,1.7,0.1,2.5,0.2c0.9,0.5,1.9,0,2.8,0.5
		c0.8,0.1,1.7,0.1,2.5,0.2c0.7,0.4,1.5,0.1,2.1,0.5c0.8,0.1,1.7,0.1,2.5,0.2c0.7,0.4,1.5,0.1,2.1,0.5c0.6,0.1,1.2,0.1,1.8,0.2
		c0.5,0.2,1,0.2,1.5,0.5c0.6,0.1,1.2,0.1,1.8,0.2c0.5,0.2,1,0.2,1.5,0.5c0.4,0.1,0.8,0.1,1.2,0.2c0.5,0.2,1,0.2,1.5,0.5
		c0.4,0.1,0.7,0.1,1.1,0.2c0.3,0,0.6,0.3,0.9,0.4c0.4,0.1,0.8,0.1,1.2,0.2c0.5,0.3,1.1,0.2,1.5,0.6c0.1,0.1,0.3,0.2,0.4,0.1
		c0.3,0,0.6,0.3,0.9,0.5c0.2,0.1,0.4,0.1,0.6,0.2c0.4,0.4,1,0.2,1.4,0.6c0.1,0.1,0.3,0.2,0.4,0.1c0.4,0.1,0.6,0.3,0.9,0.5
		c0.1,0.1,0.3,0.2,0.5,0.1c0.4,0.1,0.7,0.3,0.8,0.7h-0.1c0.3,0.1,0.5,0.4,0.8,0.6l0,0c0.2,0.2,0.4,0.4,0.7,0.5l0.1,0.1
		c0.1,0.2,0.2,0.4,0.5,0.5c0.3,0.4,0.7,0.8,1.2,0.9c0.8,0.3,1.5,0.4,2.2,0c0.4,0,0.8-0.1,1.3-0.1c0.6-0.4,1.5,0,2.1-0.5
		c0.8-0.1,1.7-0.1,2.5-0.2c0.4-0.2,0.8-0.2,1.3,0c0.6,0.1,1.2,0.1,1.8,0.2c0.5,0.3,1.1,0.2,1.5,0.6l0,0c0.2,0.2,0.4,0.4,0.6,0.5
		c0.1,0.2,0.3,0.2,0.5,0.2c0.4,0.1,0.6,0.4,0.8,0.7l0,0c0.3,0.2,0.5,0.4,0.7,0.7l0,0c0.5,0.3,0.9,0.4,1.4,0l0,0
		c0.3-0.3,0.5-0.5,0.9-0.6c0.2,0,0.3,0,0.4-0.1c0.3-0.2,0.5-0.4,0.8-0.5c0.2,0,0.4,0,0.5-0.2c0.2-0.2,0.5-0.3,0.7-0.5l0,0
		c0.3-0.4,1-0.3,1.3-0.7l0,0c0.3-0.2,0.5-0.4,0.8-0.6c0.2,0,0.4-0.1,0.5-0.2c0.2-0.1,0.4-0.3,0.6-0.5l0,0c0.2-0.2,0.4-0.5,0.7-0.6
		l0,0c0.2-0.3,0.4-0.5,0.7-0.7l0,0c0.3-0.4,0.2-1,0.5-1.4c0.1-0.2,0.1-0.4,0.1-0.6c0.6-0.6,0.1-1.4,0.6-2c0.1-0.1,0.2-0.3,0.1-0.5
		c0.1-0.3,0.3-0.6,0.5-0.9l0,0c0.5-0.3,0.3-1,1-1.2c0.2,0,0.3-0.1,0.4-0.3c0.2-0.1,0.4-0.3,0.6-0.5l0,0c0.3-0.2,0.5-0.4,0.8-0.6
		c0.2,0,0.4,0,0.5-0.2c0.3-0.2,0.5-0.3,0.8-0.5c0.2,0,0.4,0,0.6-0.1c0.4-0.3,1-0.2,1.4-0.5c0.2,0.1,0.4,0,0.6-0.1
		c0.9-0.5,1.9,0,2.8-0.5c0.8,0.2,1.5,0.2,2.3,0c0.9,0.5,1.9,0,2.8,0.5c0.6,0.1,1.2,0.1,1.8,0.2c0.5,0.2,1.1,0.2,1.5,0.5
		c0.4,0.1,0.8,0.1,1.1,0.2c0.5,0.2,1,0.2,1.5,0.5c0.4,0.1,0.7,0.1,1.1,0.2c0.5,0.2,1.1,0.2,1.5,0.5c0.4,0.1,0.8,0.1,1.1,0.2
		c0.5,0.2,1,0.2,1.5,0.5c1.6,0.3,3.1,0.5,4.7,0c0.2-0.2,0.5-0.4,0.7-0.5l0,0c0.2-0.3,0.4-0.5,0.7-0.7l0,0c0.2-0.2,0.4-0.5,0.6-0.7
		l0,0c0.5-0.3,0.3-1,0.8-1.2l-0.1,0.1c0.1-0.3,0.4-0.6,0.7-0.7l0,0c0.2-0.3,0.4-0.5,0.7-0.7l0,0c0.2-0.3,0.4-0.5,0.7-0.7v0.1
		c0.3-0.5,1-0.3,1.2-0.8l0,0c0.4-0.3,1-0.2,1.3-0.6c0.2,0,0.4-0.1,0.7-0.1c1.1-0.4,2.2-0.3,3.2,0c0.6,0.1,1.2,0.1,1.8,0.2
		c0.5,0.2,1.1,0.2,1.5,0.5c0.1,0.1,0.3,0.2,0.5,0.1c0.3,0.1,0.6,0.3,0.8,0.5c0.2,0.1,0.4,0.1,0.7,0.2c0.4,0.4,0.9,0.3,1.3,0.6
		c0.2,0.1,0.3,0.2,0.5,0.1c2.4,1,1.4-1.3,2.1-2c0.1-0.2,0.1-0.4,0.1-0.6c0.5-0.6,0.1-1.5,0.6-2.1c0.1-0.1,0.2-0.3,0.1-0.4
		c0.1-0.3,0.3-0.6,0.5-0.9c0.1-0.1,0.2-0.3,0.2-0.5c0.1-0.4,0.3-0.6,0.6-0.9l0,0c0.2-0.2,0.4-0.4,0.6-0.7l0.1-0.1
		c0.3-0.1,0.4-0.3,0.6-0.6l0.1-0.1c0.3-0.2,0.5-0.3,0.7-0.6l0,0c0.3-0.2,0.5-0.5,0.8-0.6c0.2,0,0.4-0.1,0.5-0.2
		c0.3-0.1,0.5-0.3,0.7-0.5c0.2,0,0.4,0,0.6-0.1c0.4-0.3,1-0.2,1.3-0.5c0.2,0,0.4-0.1,0.6-0.1c2.8-0.4,5.7-0.4,8.5,0
		c0.4,0.1,0.8,0.1,1.2,0.2c0.5,0.3,1.1,0.2,1.5,0.7c1.8,1.7,2.9,3.6,2,6.1c-0.4,1.2-0.1,2.1,0.9,2.8c0.2,0.1,0.3,0.3,0.5,0.4
		c3.9,3.9,4.1,5.5,0.9,10.1c3.3,4.1,7.5,7.3,11.5,10.7c4,3.5,8.2,6.6,12,10.3c1.6,1.6,3.6,2.6,5.6,3.5c5.2,2.5,9,6.1,10.4,12
		c0.8,3.3,1.3,3.6,4.6,3.4c5.5-0.4,9.9,1.4,13.6,5.4c2.9,3.1,6.5,4.3,10.5,4.8c7.1,0.8,14.2,1.6,21.3,0.5c2.1-0.3,3.8-1,4.5-3.2
		c0.3-0.9,0.8-1.8,1.3-2.6c2.1-3.4,4.8-4.4,8.4-2.7c2.3,1.1,3.9,0.7,5.6-0.9c1.7-1.7,3.5-3.3,5.3-5c2.1-2,4.4-2.9,7.1-1.3
		c1.6,0.9,2.9,0.5,4.2-0.5c1.9-1.5,3.6-3.2,5.3-4.9c2-1.9,4.1-3.7,6.5-5c3.4-1.9,6.9-2.4,10.3-0.1c2.4,1.6,4.9,1.6,7.5,0.6
		c1.9-0.7,3.8-1.1,5.7-1.7c2.6-0.8,5.1-0.4,7.3,1.1c1.8,1.2,3.3,1.4,5.1,0.2c2.1-1.4,4.5-1.5,7-1.7c2.5-0.3,5-0.6,7.5-0.9
		c1.4-0.2,2.2-0.7,2.5-2.4c0.9-4.5,4.9-6.4,9.4-4.9c1.3,0.5,2.6,1.1,3.9,1.8c1.3,0.7,2.1,0.3,2.6-0.9c0.6-1.3,1.2-2.6,1.6-4
		c0.7-2.1,1.8-4.1,3.9-5.1c1.1-0.6,1.1-1.4,1-2.4c-0.3-3-0.5-5.9,0.6-8.8c0.8-2,2-3.8,4.1-4.5c2-0.7,3-2.1,3.8-3.8
		c1.6-3.2,2.5-6.6,3.8-9.8c0.5-1.1,0.8-2.3,1.3-3.4c1-2,1.7-3.8,0.5-6.1c-0.9-1.7,0-3.6,1.1-4.9c2.7-3.1,3.9-6.9,5.4-10.5
		c1-2.2,2-4.4,2.9-6.6c0.4-0.3,0.3-1,0.8-1.3l0,0c0.2-0.3,0.4-0.5,0.6-0.7l0,0c0.2-0.2,0.4-0.4,0.6-0.7l0,0c0.3-0.2,0.5-0.4,0.8-0.6
		c0.2,0,0.4,0,0.6-0.2c0.2-0.2,0.5-0.3,0.7-0.5l0,0c0.8-2.6-0.2-5.3,0.6-8c0.1-0.2,0.2-0.3,0.1-0.5c0.3-0.4,0.2-1.1,0.6-1.4l0,0
		c0.4-0.4,0.3-1,0.7-1.3l0,0c0.4-0.4,0.2-1,0.7-1.3l-0.1,0.1c0.1-0.3,0.4-0.5,0.6-0.8l0,0c0.4-0.3,0.3-1,0.8-1.2l-0.1,0.1
		c0.1-0.3,0.4-0.5,0.6-0.7l0,0c0.2-0.2,0.4-0.4,0.6-0.7l0.1-0.1c0.2-0.1,0.4-0.3,0.5-0.5c0.2-0.1,0.3-0.3,0.3-0.5
		c0.1-0.4,0.3-0.7,0.7-0.9v0.1c0.2-0.3,0.4-0.5,0.7-0.7l0,0c0.2-0.3,0.4-0.5,0.7-0.7l0,0c0.2-0.3,0.4-0.5,0.7-0.7l0,0
		c0.2-0.3,0.4-0.5,0.7-0.7l0,0c0.2-0.2,0.4-0.5,0.7-0.7l0,0c0.2-0.3,0.4-0.5,0.7-0.7l0,0c0.2-0.3,0.4-0.5,0.7-0.7l0,0
		c0.2-0.3,0.4-0.5,0.7-0.7l0,0c0.2-0.3,0.4-0.5,0.7-0.7h-0.1c0.2-0.4,0.5-0.6,0.9-0.7c0.2,0,0.3-0.1,0.4-0.3
		c0.2-0.1,0.4-0.3,0.5-0.5h0.1c0.2-0.2,0.5-0.4,0.7-0.6l0,0c0.2-0.2,0.4-0.5,0.7-0.6l0,0c0.2-0.4,0.5-0.6,0.9-0.7
		c0.2,0,0.3,0,0.4-0.2c0.2-0.2,0.5-0.3,0.7-0.5l0,0c0.2-0.3,0.5-0.5,0.9-0.6c0.2,0,0.3,0,0.5-0.2s0.5-0.3,0.8-0.5
		c0.2,0,0.4,0,0.6-0.1c1.1-0.3,2.2-0.3,3.2,0c2,0.1,4,1.2,6-0.1c0.2-0.1,0.4-0.3,0.6-0.5h0.1c0.2-0.2,0.4-0.4,0.6-0.6l0.1-0.1
		c0.2-0.1,0.4-0.3,0.5-0.5c0.2-0.1,0.3-0.3,0.3-0.5c0.1-0.4,0.3-0.6,0.6-0.9l0,0c0.2-0.2,0.4-0.4,0.5-0.6c0.2-0.1,0.2-0.3,0.2-0.5
		c0.1-0.3,0.3-0.6,0.6-0.9l0,0c0.4-0.3,0.3-1,0.7-1.3l0,0c0.2-0.3,0.4-0.5,0.6-0.7v-0.1c0.5-0.3,0.3-0.9,0.8-1.2l0,0
		c0.2-0.3,0.4-0.5,0.6-0.7l0,0c0.2-0.2,0.4-0.4,0.6-0.7v-0.1c0.2-0.2,0.4-0.4,0.6-0.6l0.1-0.1c0.3-0.1,0.5-0.3,0.6-0.6l0.1-0.1
		c0.3-0.1,0.5-0.3,0.6-0.6l0,0c0.2-0.2,0.5-0.4,0.7-0.6l0,0c0.2-0.2,0.4-0.5,0.7-0.7l0,0c0.7-0.4,1.4-0.7,1.9,0.2
		c0,0.2,0.1,0.3,0.3,0.4c0.1,0.2,0.2,0.4,0.5,0.5l0.1,0.1c0.1,0.3,0.3,0.5,0.6,0.6l0,0c0.2,0.2,0.4,0.5,0.6,0.7l0,0
		c0.2,0.2,0.5,0.4,0.6,0.7l0,0c0.3,0.2,0.5,0.4,0.7,0.7h-0.1c0.5,0.4,0.5,0.8,0,1.3l0,0c-0.2,0.3-0.4,0.5-0.7,0.7l0,0
		c-0.2,0.3-0.4,0.5-0.7,0.7l0,0c-0.2,0.3-0.4,0.6-0.7,0.7v-0.1c-0.1,0.3-0.4,0.6-0.7,0.7h0.1c-0.1,0.3-0.4,0.6-0.7,0.7l0,0
		c-0.1,0.3-0.4,0.5-0.6,0.7l0,0c-0.2,0.2-0.4,0.4-0.5,0.7c-0.1,0.1-0.2,0.2-0.2,0.4c-0.1,0.4-0.3,0.7-0.6,0.9l0,0
		c-0.2,0.2-0.4,0.4-0.5,0.7c-0.2,0.1-0.2,0.3-0.2,0.5c-0.1,0.3-0.4,0.6-0.6,0.9l0,0c-0.4,0.3-0.3,1-0.8,1.3l0,0
		c-0.1,0.3-0.4,0.5-0.6,0.7l0,0c-0.2,0.2-0.4,0.4-0.5,0.6c-0.2,0.1-0.2,0.2-0.2,0.4c-0.1,0.4-0.3,0.7-0.7,0.9v-0.1
		c-0.1,0.3-0.4,0.6-0.7,0.7h0.1c-0.2,0.4-0.5,0.6-0.9,0.7c-0.2,0-0.3,0.1-0.4,0.2c-0.2,0.1-0.4,0.3-0.6,0.5l0,0
		c-0.3,0.2-0.5,0.5-0.9,0.6c-0.2,0-0.3,0-0.5,0.2c-0.3,0.2-0.5,0.4-0.9,0.5h-0.2l-0.2,0.1c-2.2,0.5-4.4,0.4-6.6,0
		c-0.7-0.2-1.3-0.3-2-0.1c-0.3,0.4-1,0.2-1.2,0.7h-0.1c-0.2,0.2-0.5,0.4-0.7,0.6l0,0c-0.2,0.3-0.4,0.5-0.7,0.7h0.1
		c-0.2,0.4-0.5,0.6-0.9,0.7c-0.2,0-0.3,0.1-0.4,0.2c-0.2,0.1-0.4,0.3-0.6,0.5l0,0c-0.2,0.2-0.5,0.4-0.7,0.6l0,0
		c-0.2,0.2-0.4,0.5-0.7,0.6l0,0c-0.2,0.3-0.4,0.5-0.7,0.7l0,0c-0.2,0.3-0.4,0.5-0.7,0.7l0,0c-0.2,0.3-0.4,0.5-0.7,0.7l0,0
		c-0.2,0.3-0.4,0.5-0.7,0.7l0,0c-0.2,0.3-0.4,0.5-0.7,0.7l0,0c-0.2,0.3-0.4,0.5-0.7,0.7l0,0c-0.2,0.2-0.4,0.4-0.6,0.7l0,0
		c-0.2,0.2-0.4,0.4-0.6,0.6l-0.1,0.1c-0.5,0.2-0.3,0.9-0.8,1.2h0.1c-0.1,0.3-0.4,0.5-0.6,0.7l0,0c-0.2,0.2-0.4,0.4-0.5,0.6
		c-0.2,0.1-0.2,0.3-0.2,0.5c-0.1,0.4-0.3,0.6-0.6,0.9l0,0c-0.4,0.3-0.3,0.9-0.7,1.3l0,0c-0.6,2.5-0.5,4.9-0.1,7.4c0,0.6,0,1.1,0,1.7
		c-0.6,0.6,0,1.5-0.7,2.1l0.1-0.1c-0.2,0.3-0.4,0.5-0.7,0.7h0.1c-0.2,0.4-0.5,0.6-0.9,0.7c-0.2,0-0.3,0-0.4,0.2
		c-0.3,0.2-0.5,0.4-0.9,0.5h-0.2l-0.2,0.1c-0.3,0.4-1,0.2-1.3,0.7l0,0c-0.4,0.3-0.3,1-0.7,1.3l0,0c-0.3,0.4-0.2,1-0.7,1.4l0,0
		c-0.3,0.4-0.2,1-0.7,1.4l0,0c-0.4,0.4-0.2,1-0.6,1.4c-0.1,0.1-0.2,0.2-0.1,0.4c0,0.4-0.3,0.6-0.5,0.9c-0.1,0.2-0.2,0.4-0.2,0.6
		c-0.3,0.4-0.2,1-0.6,1.4l0,0c-0.4,0.3-0.3,0.9-0.6,1.3c-0.1,0.2-0.2,0.3-0.1,0.5c-0.3,0.5-0.2,1.1-0.7,1.5l0,0
		c-0.3,0.4-0.2,1-0.7,1.4l0,0c-0.4,0.4-0.3,1-0.7,1.3l0,0c-0.2,0.2-0.4,0.4-0.5,0.7c-0.1,0.1-0.2,0.3-0.2,0.4
		c-0.1,0.4-0.3,0.7-0.6,0.9l0,0c-0.2,0.3-0.2,0.5,0,0.7l0,0c0.3,0.2,0.5,0.5,0.6,0.9c0,0.2,0,0.3,0.2,0.5c0.3,1.1,0.5,2.2-0.1,3.3
		l0,0c-0.4,0.4-0.3,0.9-0.6,1.3l0,0c-0.4,0.3-0.3,0.9-0.6,1.3c-0.1,0.1-0.2,0.2-0.1,0.4c-0.1,0.4-0.3,0.7-0.5,0.9
		c-0.1,0.1-0.2,0.2-0.1,0.4c-0.1,0.4-0.3,0.6-0.5,0.9c-0.1,0.1-0.2,0.3-0.1,0.5c-0.3,0.5-0.2,1.1-0.6,1.5l0,0
		c-0.4,0.4-0.3,0.9-0.6,1.3c-0.1,0.2-0.2,0.4-0.1,0.6c-0.3,0.4-0.2,1-0.6,1.4c-0.1,0.1-0.2,0.3-0.1,0.5c-0.3,0.5-0.2,1.1-0.6,1.5
		c-0.1,0.1-0.2,0.3-0.1,0.5c-0.2,0.5-0.2,1.1-0.6,1.5l0,0c-0.4,0.4-0.3,0.9-0.6,1.3c-0.1,0.2-0.2,0.3-0.1,0.6
		c-0.3,0.4-0.2,1.1-0.6,1.4l0,0c-0.4,0.4-0.3,1-0.6,1.3l0,0c-0.4,0.3-0.3,1-0.7,1.3l0,0c-0.4,0.3-0.3,1-0.7,1.3l0,0
		c-0.2,0.3-0.4,0.5-0.6,0.7v0.1c-0.5,0.3-0.3,1-0.8,1.2l0.1-0.1c-0.2,0.3-0.4,0.5-0.7,0.7l0,0c-0.2,0.3-0.4,0.5-0.7,0.7l0.1-0.1
		c-0.3,0.5-0.9,0.4-1.3,0.7l0,0c-0.4,0.4-1,0.4-1.5,0.6c-0.2,0-0.3,0-0.5,0.2c-0.5,0.3-0.3,0.9-0.7,1.2l0,0c-0.5,1.4-0.5,2.8,0,4.1
		c0,0.4,0.1,0.8,0.1,1.2c0.3,1.8,0.5,3.5-0.1,5.2l0,0c-0.2,0.2-0.4,0.4-0.5,0.7c-0.5,0.5-1,1-1.5,1.5c-0.2,0.2-0.5,0.3-0.7,0.5l0,0
		c-0.3,0.4-1,0.3-1.3,0.7l0,0c-0.2,0.2-0.4,0.5-0.7,0.6l0,0c-0.3,0.4-0.2,1-0.6,1.4l0,0c-0.4,0.4-0.3,0.9-0.6,1.3
		c-0.1,0.2-0.2,0.3-0.1,0.5c-0.3,0.5-0.2,1.1-0.6,1.5l0,0c-0.4,0.4-0.3,1-0.6,1.3l0,0c-0.4,0.3-0.3,1-0.7,1.3l0,0
		c-0.2,0.3-0.4,0.5-0.6,0.7l0,0c-0.2,0.2-0.4,0.4-0.6,0.7l-0.1,0.1c-0.3,0.1-0.5,0.3-0.6,0.6h-0.1c-0.2,0.2-0.5,0.4-0.7,0.6l0,0
		c-0.2,0.3-0.5,0.5-0.9,0.6h-0.2l-0.2,0.1c-0.4,0.3-1,0.3-1.5,0.6c-0.8,0-1.5,0-2.3,0c-0.6-0.5-1.5-0.1-2.1-0.6l0,0
		c-0.3-0.4-0.9-0.3-1.3-0.6l-0.2-0.1H540c-0.4-0.1-0.6-0.3-0.9-0.5c-0.1-0.1-0.3-0.2-0.4-0.1c-0.3-0.1-0.6-0.3-0.9-0.5
		c-0.2,0-0.5,0-0.7,0.1c-0.8,0.9,0.1,2.2-0.7,3.1l0,0c-0.4,0.4-0.2,1-0.8,1.3l0.1-0.1c-0.2,0.4-0.5,0.6-0.9,0.7
		c-0.2,0-0.3,0.1-0.4,0.2c-0.2,0.2-0.5,0.3-0.7,0.5l0,0c-0.4,0.5-1,0.4-1.5,0.7h-0.3l-0.2,0.1c-0.5,0.3-1,0.3-1.5,0.5
		c-0.4,0.1-0.7,0.1-1.1,0.2c-0.7,0.4-1.5,0.1-2.2,0.5c-0.6,0-1.2,0.1-1.8,0.1c-1.3,0.6-2.8-0.2-4.1,0.5c-0.6,0-1.2,0.1-1.8,0.1
		c-0.8,0.6-1.9-0.1-2.7,0.6l0,0c-0.3,0.4-1,0.3-1.3,0.7l0,0c-0.3,0.2-0.5,0.5-0.9,0.6c-0.2,0-0.3,0-0.4,0.2
		c-0.3,0.2-0.5,0.4-0.9,0.5h-0.2l-0.2,0.1c-1.3,0.4-2.6,0.4-3.9,0c-0.2-0.1-0.4-0.2-0.6-0.1c-0.4-0.3-1.1-0.2-1.4-0.7l0,0
		c-0.2-0.2-0.4-0.4-0.7-0.5c-0.1-0.1-0.3-0.2-0.5-0.2c-0.3-0.1-0.6-0.3-0.9-0.6l0,0c-1.3-0.6-2.7-0.5-4-0.1h-0.3L500,147
		c-0.4,0.3-1,0.3-1.5,0.5h-0.3l-0.2,0.1c-0.4,0.3-1,0.3-1.5,0.5h-0.3l-0.2,0.1c-0.6,0.5-1.5,0-2,0.6c-0.4,0-0.8,0.1-1.3,0.1
		c-1.3,0.3-2.6,0.4-3.9-0.1l-0.2-0.1h-0.3c-0.5-0.3-1-0.2-1.5-0.6l-0.2-0.1h-0.2c-0.4-0.1-0.6-0.3-0.9-0.5c-0.1-0.1-0.2-0.2-0.4-0.1
		c-0.4-0.1-0.7-0.3-0.9-0.6l0,0c-0.3-0.4-0.9-0.3-1.3-0.6c-0.2,0-0.5,0-0.7,0c-0.4,0.4-1,0.3-1.5,0.6c-0.2,0-0.4,0-0.5,0.2
		c-0.2,0.2-0.5,0.3-0.7,0.5l0,0c-0.2,0.3-0.5,0.6-0.9,0.6c-0.2,0-0.3,0.1-0.4,0.2c-0.2,0.1-0.4,0.3-0.6,0.5l0,0
		c-0.2,0.2-0.5,0.4-0.7,0.6l0,0c-0.2,0.2-0.4,0.5-0.7,0.7l0,0c-0.2,0.3-0.4,0.5-0.7,0.7l0,0c-0.2,0.3-0.4,0.5-0.7,0.7l0,0
		c-0.2,0.3-0.4,0.5-0.7,0.7l0,0c-0.2,0.3-0.4,0.5-0.7,0.7l0,0c-0.2,0.3-0.4,0.5-0.7,0.7l0,0c-0.2,0.3-0.4,0.5-0.7,0.7l0,0
		c-0.2,0.3-0.4,0.6-0.7,0.7l0.1-0.1c-0.2,0.5-0.9,0.3-1.2,0.8l-0.1,0.1c-0.3,0.1-0.5,0.3-0.7,0.6l0,0c-0.2,0.2-0.4,0.5-0.7,0.6l0,0
		c-0.3,0.5-1,0.3-1.3,0.8l0,0c-0.3,0.2-0.5,0.5-0.9,0.6c-0.2,0-0.3,0-0.5,0.1c-0.4,0.3-1,0.2-1.4,0.6h-0.3l-0.3,0.1
		c-0.9,0.4-1.7,0.4-2.6,0c-0.4-0.1-0.7-0.1-1.1-0.2c-0.5-0.2-1.1-0.2-1.5-0.6l0,0c-0.2-0.2-0.5-0.2-0.7,0l0,0
		c-0.2,0.3-0.4,0.5-0.8,0.7l0,0c-0.1,0.4-0.4,0.6-0.7,0.7l0.1-0.1c-0.1,0.4-0.4,0.6-0.7,0.7h0.1c-0.2,0.4-0.5,0.6-0.9,0.7
		c-0.2,0-0.3,0.1-0.4,0.3c-0.2,0.1-0.4,0.2-0.4,0.5l-0.1,0.1c-0.3,0.1-0.5,0.3-0.6,0.5l-0.1,0.1c-0.3,0.1-0.5,0.3-0.6,0.6l0,0
		c-0.2,0.2-0.5,0.4-0.7,0.6l0,0c-0.2,0.2-0.4,0.5-0.7,0.6l0.1-0.1c-0.3,0.5-0.9,0.3-1.3,0.8l0,0c-0.3,0.2-0.5,0.5-0.9,0.6h-0.2
		l-0.2,0.1c-0.4,0.3-1,0.2-1.4,0.6h-0.3l-0.3,0.1c-1.3,0.4-2.6,0.4-3.9,0c-0.1-0.1-0.3-0.2-0.5-0.1c-0.3-0.1-0.5-0.3-0.8-0.5
		c-0.2-0.1-0.4-0.2-0.6-0.2c-0.8-0.5-1,0.3-1.4,0.7l0,0c-0.4,0.4-0.3,0.9-0.6,1.3c-0.1,0.1-0.2,0.3-0.1,0.4
		c-0.1,0.3-0.3,0.6-0.5,0.9c-0.1,0.1-0.2,0.3-0.2,0.5c-0.1,0.4-0.3,0.6-0.6,0.9l0,0c-0.2,0.2-0.4,0.5-0.6,0.7l0,0
		c-0.2,0.2-0.5,0.4-0.6,0.6l0,0c-0.3,0.2-0.5,0.4-0.7,0.6l0,0c-0.3,0.5-1,0.3-1.4,0.7c-0.2,0-0.4,0-0.6,0.2c-0.4,0.2-1,0.2-1.3,0.5
		c-0.2,0-0.4,0.1-0.6,0.1c-0.6,0.4-1.5,0.1-2.1,0.5c-0.4,0-0.8,0.1-1.2,0.1c-5.5,0.5-11,0.4-16.5,0c-0.8-0.2-1.6-0.3-2.5-0.1
		c-0.9-0.5-1.9,0-2.8-0.5c-0.6-0.1-1.2-0.1-1.8-0.2c-0.7-0.4-1.5-0.1-2.1-0.5c-0.4-0.1-0.7-0.1-1.1-0.2c-0.5-0.2-1.1-0.2-1.5-0.5
		l-0.3-0.1h-0.3c-0.4-0.3-1-0.2-1.4-0.6l0,0c-0.3-0.4-0.9-0.3-1.3-0.7l0,0c-0.3-0.4-1-0.3-1.3-0.8l0.1,0.1c-0.3-0.1-0.5-0.4-0.7-0.6
		l0,0c-0.2-0.2-0.5-0.4-0.7-0.6h-0.1c-0.1-0.2-0.4-0.4-0.6-0.5l-0.1-0.1c-0.2-0.5-0.9-0.3-1.1-0.8l0.1,0.1c-0.3-0.1-0.6-0.4-0.7-0.7
		v0.1c-0.3-0.1-0.6-0.4-0.7-0.7l0,0c-0.3-0.2-0.5-0.4-0.7-0.7l0,0c-0.3-0.2-0.5-0.4-0.7-0.6l0,0
		C389.6,164.5,389.4,164.3,389.2,164.2z"/>
	<path class="st0" d="M106.5,86.8c0.8-0.7,1.9-0.6,2.8-0.6c8.3,0,16.7,0,25,0c-0.7,0.8-1.6,0.6-2.5,0.6
		C123.5,86.8,115,86.8,106.5,86.8z"/>
	<path class="st0" d="M129.3,79c-4.3,0.6-8.6,0.6-12.9,0C120.7,79,125,79,129.3,79z"/>
	<path class="st0" d="M113.5,79c-2.7,0.7-5.4,0.4-8.1,0.5C108,78.3,110.8,79.1,113.5,79z"/>
	<path class="st0" d="M40.7,70.2c-1,0-2,0.1-3,0.1c-2.4-0.1-2.4-0.1-1.7-2.8c0,1.3,0.4,2.2,2,2.1C38.9,69.6,39.9,69.4,40.7,70.2z"/>
	<path class="st0" d="M36.1,66.4c0.1-2-0.3-4.1,0.6-6C36.5,62.3,37.3,64.4,36.1,66.4z"/>
	<path class="st0" d="M77,84.8c-1-1.9-0.2-4-0.7-5.9C77.6,80.7,76.7,82.8,77,84.8z"/>
	<path class="st0" d="M29.4,59.1c-0.1,1.8,0.4,3.7-0.5,5.4C29,62.7,28.2,60.8,29.4,59.1z"/>
	<path class="st0" d="M158.2,95.9c-1.1-1.3-0.2-3-0.7-4.4C158.8,92.8,157.9,94.4,158.2,95.9z"/>
	<path class="st0" d="M33.5,77c1.6,0,3.2-0.2,4.8,0.5C36.6,77.4,34.9,78.1,33.5,77z"/>
	<path class="st0" d="M154.2,82.9c0.2-1.3,0.2-2.6-0.1-4C155.2,80.2,155.2,81.5,154.2,82.9z"/>
	<path class="st0" d="M143.7,86.7c0.8,1.3,0.5,2.7,0.6,4.1C143.1,89.6,143.8,88.1,143.7,86.7z"/>
	<path class="st0" d="M82.2,84.7c-1.3,0-2.6,0-3.9,0C79.6,83.9,80.9,83.9,82.2,84.7z"/>
	<path class="st0" d="M201.1,118.6c1.4,0,2.8-0.2,4.1,0.6C203.8,119,202.3,119.7,201.1,118.6z"/>
	<path class="st0" d="M195.8,117.9c1.4,0,2.8-0.2,4.1,0.6C198.5,118.4,197,119,195.8,117.9z"/>
	<path class="st0" d="M149.5,96.1c0,1.3,0.1,2.6,0.1,3.9C148.5,98.7,148.6,97.4,149.5,96.1z"/>
	<path class="st0" d="M26.8,69.7c0,1.1,0,2.2,0,3.3C25.9,71.9,25.9,70.8,26.8,69.7z"/>
	<path class="st0" d="M74.4,92.2c1.1,0,2.2,0,3.3,0C76.5,93,75.4,93.1,74.4,92.2z"/>
	<path class="st0" d="M185.9,116.6c1.2-0.1,2.4-0.2,3.4,0.6C188.2,117.1,186.9,117.6,185.9,116.6z"/>
	<path class="st0" d="M94.8,99.4c1.1,0,2.2-0.1,3.3-0.1C97,100.4,95.9,100.3,94.8,99.4z"/>
	<path class="st2" d="M68.4,83.4c0.2-0.5,0.6-1,1.1-0.7c0.2,0.1,0.2,0.8,0.2,1.1c-0.1,0.4-0.3,0.7-0.5,1.1
		C69,84.4,69,83.8,68.4,83.4z"/>
	<path class="st0" d="M79.4,92c0.7-0.4,1.2-0.5,1.4,0.5c0.1,0.5,0.1,1.1,0.1,1.6C80.1,93.6,80.4,92.4,79.4,92z"/>
	<path class="st0" d="M136.9,86.1c1.1-0.7,2.3-0.6,3.4-0.6C139.4,86.6,138.1,86,136.9,86.1z"/>
	<path class="st0" d="M151.5,87.6c-0.9-1.2-1.2-2.2,0.7-2.7C151.8,85.7,151.5,86.6,151.5,87.6z"/>
	<path class="st0" d="M191.2,117.3c1-0.1,2-0.2,2.8,0.5C193,117.8,192,118.2,191.2,117.3z"/>
	<path class="st0" d="M181.9,116c1-0.1,1.9-0.1,2.7,0.5C183.8,116.5,182.7,116.8,181.9,116z"/>
	<path class="st0" d="M205.7,111.8c-1,0.1-1.9,0.1-2.8-0.5C203.8,111.3,204.9,111,205.7,111.8z"/>
	<path class="st0" d="M207,119.3c1-0.1,1.9-0.1,2.8,0.5C208.9,119.8,207.8,120.1,207,119.3z"/>
	<path class="st0" d="M69,85.5c0,0.9,0,1.7,0,2.6C68.1,87.3,68.1,86.4,69,85.5z"/>
	<path class="st0" d="M200.4,111.1c-1,0.1-1.9,0.1-2.8-0.5C198.5,110.7,199.6,110.3,200.4,111.1z"/>
	<path class="st0" d="M195.1,110.5c-1,0.1-2,0.2-2.8-0.5C193.3,110,194.3,109.6,195.1,110.5z"/>
	<path class="st0" d="M189.8,109.8c-1,0.1-1.9,0.1-2.7-0.5C188,109.3,189,109,189.8,109.8z"/>
	<path class="st0" d="M91.5,98.8c0.8-0.1,1.5,0,2.1,0.5C92.9,99.4,92.1,99.5,91.5,98.8z"/>
	<path class="st0" d="M88.9,98.1c0.7-0.1,1.4,0,2,0.6C90.2,98.7,89.4,98.9,88.9,98.1z"/>
	<path class="st0" d="M86.2,97.4c0.8-0.1,1.5,0,2,0.6C87.5,98,86.8,98.2,86.2,97.4z"/>
	<path class="st0" d="M94.8,92c-0.8,0.1-1.5,0-2.1-0.5C93.5,91.5,94.2,91.3,94.8,92z"/>
	<path class="st0" d="M56.5,90.2c0.7,0,1.3,0,2,0C57.8,91,57.2,91,56.5,90.2z"/>
	<path class="st0" d="M138.5,78.3c-0.6,0.6-1.4,0.6-2.1,0.5C137,78.1,137.8,78.3,138.5,78.3z"/>
	<path class="st0" d="M51.2,76.3c-0.6-0.6-0.6-1.3-0.6-2C51.4,74.8,51.2,75.6,51.2,76.3z"/>
	<path class="st0" d="M46.6,70.9c-0.8,0.1-1.5,0-2.1-0.5C45.3,70.4,46.1,70.2,46.6,70.9z"/>
	<path class="st0" d="M28.8,65.7c0.1,0.8,0.2,1.5-0.6,2C28.2,67,28,66.2,28.8,65.7z"/>
	<path class="st0" d="M220.9,121.8c0.8,0,1.5,0,2.1,0.6C222.2,122.5,221.4,122.6,220.9,121.8z"/>
	<path class="st0" d="M218.2,121.2c0.8-0.1,1.5-0.1,2.2,0.6C219.6,121.8,218.8,122,218.2,121.2z"/>
	<path class="st0" d="M215.6,120.6c0.8-0.1,1.5,0,2,0.5C216.9,121.1,216.2,121.3,215.6,120.6z"/>
	<path class="st0" d="M211.7,119.9c0.8-0.1,1.5-0.1,2.1,0.5C213,120.5,212.2,120.7,211.7,119.9z"/>
	<path class="st0" d="M178.7,115.3c0.8-0.1,1.5,0,2.1,0.5C180,115.9,179.2,116,178.7,115.3z"/>
	<path class="st0" d="M175.3,114.6c0.8-0.1,1.5,0,2,0.5C176.7,115.2,175.9,115.4,175.3,114.6z"/>
	<path class="st0" d="M214.9,113.1c-0.8,0.1-1.5,0.1-2.1-0.5C213.5,112.6,214.3,112.4,214.9,113.1z"/>
	<path class="st0" d="M210.3,112.5c-0.8,0.1-1.5,0.1-2.1-0.5C208.9,111.9,209.7,111.8,210.3,112.5z"/>
	<path class="st0" d="M185.2,109.2c-0.8,0.1-1.5,0.1-2.1-0.5C183.8,108.6,184.6,108.5,185.2,109.2z"/>
	<path class="st0" d="M30.2,56.5c0,0.6-0.2,1.1-0.7,1.5C29.5,57.4,29.5,56.8,30.2,56.5z"/>
	<path class="st0" d="M221.5,114.5c-0.6,0.1-1.1,0-1.5-0.5C220.6,113.9,221.1,113.9,221.5,114.5z"/>
	<path class="st0" d="M172.7,114c0.6-0.1,1.1,0,1.5,0.5C173.6,114.5,173.1,114.5,172.7,114z"/>
	<path class="st0" d="M218.2,113.8c-0.6,0.1-1.1,0-1.5-0.5C217.3,113.2,217.8,113.2,218.2,113.8z"/>
	<path class="st0" d="M170.1,113.3c0.6-0.1,1.1,0,1.5,0.5C171,113.9,170.4,113.9,170.1,113.3z"/>
	<path class="st0" d="M168.1,112.6c0.6-0.1,1.1,0.1,1.5,0.5C169,113.2,168.4,113.2,168.1,112.6z"/>
	<path class="st0" d="M166.1,111.9c0.6,0,1.1,0.1,1.5,0.6C167,112.6,166.4,112.5,166.1,111.9z"/>
	<path class="st0" d="M224.1,115.1c-0.6,0.1-1.1-0.1-1.5-0.5C223.2,114.6,223.8,114.6,224.1,115.1z"/>
	<path class="st0" d="M175.3,107.2c-0.6,0.1-1.1-0.1-1.4-0.5C174.4,106.6,174.9,106.7,175.3,107.2z"/>
	<path class="st0" d="M172.7,106.5c-0.5,0.1-1-0.1-1.3-0.5C171.9,106,172.3,106,172.7,106.5z"/>
	<path class="st0" d="M170.7,105.9c-0.5,0.1-1-0.1-1.3-0.5C169.9,105.3,170.4,105.4,170.7,105.9z"/>
	<path class="st0" d="M155.5,105.3c0.5,0.3,0.7,0.7,0.8,1.3C155.7,106.4,155.5,105.9,155.5,105.3z"/>
	<path class="st0" d="M167.4,104.6c-0.5,0-1-0.2-1.3-0.6C166.6,104,167.1,104.1,167.4,104.6z"/>
	<path class="st0" d="M154.9,104c0.5,0.3,0.6,0.8,0.6,1.3C155,105,154.9,104.5,154.9,104z"/>
	<path class="st0" d="M166.1,104c-0.6,0-1-0.2-1.3-0.6C165.3,103.3,165.8,103.5,166.1,104z"/>
	<path class="st0" d="M162.8,110.6c0.6,0,1.1,0.2,1.4,0.6C163.6,111.2,163.1,111.2,162.8,110.6z"/>
	<path class="st0" d="M161.5,109.9c0.5,0,1,0.2,1.3,0.7C162.3,110.6,161.8,110.5,161.5,109.9z"/>
	<path class="st0" d="M160.2,109.2c0.5,0,1,0.2,1.3,0.7C160.9,109.9,160.4,109.8,160.2,109.2z"/>
	<path class="st0" d="M181.2,108.5c-0.6,0.1-1.1,0-1.5-0.5C180.3,108,180.8,108,181.2,108.5z"/>
	<path class="st0" d="M177.9,107.8c-0.6,0.1-1.1-0.1-1.5-0.5C177,107.3,177.6,107.3,177.9,107.8z"/>
	<path class="st0" d="M156.9,107.2c0.5,0.1,1,0.3,1.2,0.8C157.6,107.9,157.1,107.8,156.9,107.2z"/>
	<path class="st0" d="M223.5,122.5c0.6,0,1.2,0,1.6,0.5C224.5,123.1,223.9,123.1,223.5,122.5z"/>
	<path class="st0" d="M145.2,76.4c-0.4,0.5-0.9,0.6-1.5,0.5C144,76.3,144.6,76.3,145.2,76.4z"/>
	<path class="st0" d="M65.7,76.3c-0.3,0.5-0.7,0.7-1.2,0.8C64.7,76.4,65.2,76.3,65.7,76.3z"/>
	<path class="st0" d="M30.8,76.3c0.6,0,1.1,0.1,1.5,0.5C31.7,76.9,31.2,76.9,30.8,76.3z"/>
	<path class="st0" d="M148.9,76.2c-0.4,0-0.8,0-1.3,0C148.1,75.6,148.5,75.6,148.9,76.2z"/>
	<path class="st0" d="M74.3,76.4c-0.5-0.1-1-0.3-1.3-0.7C73.6,75.6,74.1,75.8,74.3,76.4z"/>
	<path class="st0" d="M73,75.6c-0.6,0-1.1-0.1-1.5-0.6C72.1,75,72.7,75,73,75.6z"/>
	<path class="st0" d="M68.5,75c-0.4,0.4-0.9,0.6-1.4,0.5C67.5,75,68,75,68.5,75z"/>
	<path class="st0" d="M43.4,80.1c0.5,0.4,0.7,0.8,0.7,1.4C43.4,81.3,43.3,80.7,43.4,80.1z"/>
	<path class="st0" d="M104.1,79.6c-0.4,0.4-0.9,0.6-1.4,0.6C103.1,79.7,103.6,79.6,104.1,79.6z"/>
	<path class="st0" d="M76.3,79c-0.5-0.3-0.7-0.8-0.7-1.3C76.2,77.9,76.3,78.4,76.3,79z"/>
	<path class="st0" d="M143,76.9c-0.3,0.4-0.8,0.6-1.3,0.5C142,77,142.5,76.9,143,76.9z"/>
	<path class="st0" d="M51.2,78.3c-0.7-0.5-0.5-1,0-1.4C51.2,77.3,51.2,77.8,51.2,78.3z"/>
	<path class="st0" d="M152.2,77c-0.6,0-1.1-0.2-1.5-0.6C151.3,76.3,151.9,76.3,152.2,77z"/>
	<path class="st0" d="M50.6,73.7c-0.3-0.4-0.6-0.9-0.9-1.3C50.4,72.5,50.6,73.1,50.6,73.7z"/>
	<path class="st0" d="M48.6,71.7c-0.6,0-1.1-0.2-1.4-0.6C47.8,71,48.3,71.1,48.6,71.7z"/>
	<path class="st0" d="M27.6,68.4c-0.1,0.5-0.3,1-0.7,1.3C26.8,69.1,27,68.6,27.6,68.4z"/>
	<path class="st0" d="M102.6,94.7c0-0.6,0.2-1.1,0.7-1.4C103.4,93.9,103.3,94.5,102.6,94.7z"/>
	<path class="st0" d="M72.4,91.5c0.5,0,1,0.1,1.4,0.6C73.2,92.1,72.7,92,72.4,91.5z"/>
	<path class="st0" d="M91.5,91.3c-0.6,0.1-1-0.1-1.4-0.5C90.6,90.8,91.1,90.8,91.5,91.3z"/>
	<path class="st0" d="M104.1,91.4c0-0.6,0.1-1,0.6-1.4C104.7,90.6,104.6,91.1,104.1,91.4z"/>
	<path class="st0" d="M88.9,90.6c-0.7-0.1-0.7-0.6-0.6-1.2C88.7,89.7,88.8,90.2,88.9,90.6z"/>
	<path class="st0" d="M59.6,90.1c0.4-0.5,1-0.6,1.5-0.6C60.8,90.1,60.2,90.1,59.6,90.1z"/>
	<path class="st0" d="M164.8,103.3c-0.5,0-1-0.2-1.3-0.7C164,102.7,164.5,102.8,164.8,103.3z"/>
	<path class="st0" d="M154.2,102.8c0.6,0.2,0.7,0.7,0.7,1.2C154.4,103.7,154.2,103.3,154.2,102.8z"/>
	<path class="st0" d="M151.6,102c0.6,0,1.1,0.2,1.5,0.6C152.5,102.7,151.9,102.6,151.6,102z"/>
	<path class="st0" d="M162.1,101.8c-0.6-0.2-0.7-0.6-0.7-1.2C162,100.9,162.1,101.3,162.1,101.8z"/>
	<path class="st0" d="M161.5,100.7c-0.4-0.3-0.6-0.8-0.6-1.3C161.4,99.7,161.5,100.2,161.5,100.7z"/>
	<path class="st0" d="M98.1,99.4c0.3-0.5,0.8-0.7,1.3-0.7C99.2,99.2,98.6,99.4,98.1,99.4z"/>
	<path class="st0" d="M84.3,96.8c0.6,0,1.1,0.1,1.5,0.5C85.2,97.4,84.6,97.4,84.3,96.8z"/>
	<path class="st0" d="M140.8,85.4c0.4-0.5,0.9-0.6,1.5-0.5C141.9,85.5,141.4,85.5,140.8,85.4z"/>
	<path class="st0" d="M84.9,85.5c-0.6,0-1-0.1-1.4-0.6C84,84.9,84.6,84.9,84.9,85.5z"/>
	<path class="st0" d="M100.9,81.6c-0.1,0.5-0.3,1-0.8,1.2C100.1,82.3,100.2,81.8,100.9,81.6z"/>
	<path class="st0" d="M55.2,81.7c-0.5-0.1-0.9-0.3-1.2-0.8C54.5,80.9,55,81.1,55.2,81.7z"/>
	<path class="st0" d="M102.7,80.2c-0.3,0.5-0.7,0.7-1.2,0.8C101.6,80.4,102.1,80.3,102.7,80.2z"/>
	<path class="st0" d="M53.9,89.5c0.6,0,1.1,0.1,1.5,0.6C54.8,90.1,54.3,90.1,53.9,89.5z"/>
	<path class="st0" d="M104.7,90.1c0-0.6,0.1-1.1,0.6-1.5C105.4,89.3,105.3,89.8,104.7,90.1z"/>
	<path class="st0" d="M61.2,89.5c0.3-0.4,0.8-0.7,1.3-0.7C62.2,89.3,61.7,89.5,61.2,89.5z"/>
	<path class="st0" d="M154.2,88.7c-0.5,0-1-0.2-1.3-0.6C153.4,88.2,153.9,88.3,154.2,88.7z"/>
	<path class="st0" d="M97.5,88.2c0,0.6-0.1,1.1-0.6,1.5C96.8,89,96.9,88.5,97.5,88.2z"/>
	<path class="st0" d="M62.5,88.8c0.3-0.5,0.7-0.7,1.3-0.8C63.5,88.7,63,88.8,62.5,88.8z"/>
	<path class="st0" d="M51.3,88.1c0.5,0.1,1,0.3,1.3,0.8C52,88.8,51.5,88.7,51.3,88.1z"/>
	<path class="st0" d="M88.2,88.9c-0.5-0.4-0.6-0.8-0.7-1.4C88.1,87.8,88.2,88.3,88.2,88.9z"/>
	<path class="st0" d="M98.1,86.8c0,0.5-0.1,1-0.6,1.3C97.5,87.6,97.5,87.2,98.1,86.8z"/>
	<path class="st0" d="M48.7,86.1c0.5,0.1,0.9,0.3,1.2,0.8C49.3,86.8,48.8,86.7,48.7,86.1z"/>
	<path class="st0" d="M53.2,80.2c-0.4-0.1-0.6-0.3-0.7-0.6C52.8,79.8,53,80,53.2,80.2z"/>
	<path class="st0" d="M49.2,72.2c-0.2-0.2-0.4-0.3-0.7-0.5C48.8,71.8,49,72,49.2,72.2z"/>
	<path class="st0" d="M28.2,67.7c-0.1,0.4-0.3,0.6-0.7,0.7C27.7,68.2,28,68,28.2,67.7z"/>
	<path class="st0" d="M53.9,80.8c-0.4,0-0.6-0.2-0.7-0.6C53.5,80.4,53.7,80.6,53.9,80.8z"/>
	<path class="st0" d="M61.9,79.6c-0.1,0.4-0.3,0.6-0.7,0.7C61.3,80,61.5,79.7,61.9,79.6z"/>
	<path class="st0" d="M75,77c-0.4-0.1-0.6-0.3-0.7-0.7C74.6,76.4,74.9,76.6,75,77z"/>
	<path class="st0" d="M154.2,79c-0.3-0.1-0.5-0.4-0.6-0.7C153.8,78.5,154,78.7,154.2,79z"/>
	<path class="st0" d="M66.6,75.7c-0.2,0.3-0.5,0.5-0.9,0.6C66,76,66.3,75.9,66.6,75.7z"/>
	<path class="st0" d="M29.5,75.7c0.4,0,0.7,0.2,0.8,0.5C30,76,29.8,75.9,29.5,75.7z"/>
	<path class="st0" d="M51.9,79c-0.4-0.1-0.6-0.3-0.7-0.7C51.4,78.5,51.7,78.7,51.9,79z"/>
	<path class="st0" d="M153.6,78.2c-0.2-0.2-0.4-0.4-0.6-0.6C153.2,77.8,153.4,78,153.6,78.2z"/>
	<path class="st0" d="M140.6,77.7c-0.2,0.3-0.5,0.5-0.9,0.4C140,78,140.3,77.8,140.6,77.7z"/>
	<path class="st0" d="M63.9,77.6c-0.1,0.4-0.3,0.6-0.7,0.7C63.3,78,63.5,77.7,63.9,77.6z"/>
	<path class="st0" d="M42.7,77.6c0.4,0,0.6,0.2,0.6,0.6C43.1,78,42.9,77.8,42.7,77.6z"/>
	<path class="st0" d="M152.9,77.5c-0.4,0-0.6-0.2-0.7-0.6C152.4,77.1,152.7,77.3,152.9,77.5z"/>
	<path class="st0" d="M75.6,77.7c-0.4-0.1-0.6-0.4-0.7-0.7C75.3,77.1,75.5,77.3,75.6,77.7z"/>
	<path class="st0" d="M64.5,77c-0.1,0.4-0.4,0.6-0.7,0.7C63.9,77.3,64.2,77.1,64.5,77z"/>
	<path class="st0" d="M63.2,78.3c-0.1,0.4-0.3,0.6-0.7,0.7C62.6,78.6,62.8,78.4,63.2,78.3z"/>
	<path class="st0" d="M52.6,79.6c-0.4-0.1-0.6-0.3-0.7-0.7C52.1,79.2,52.3,79.4,52.6,79.6z"/>
	<path class="st0" d="M26.9,73.4c0.2,0.3,0.4,0.6,0.7,0.9C27.1,74.1,26.9,73.8,26.9,73.4z"/>
	<path class="st0" d="M62.5,78.9c-0.1,0.4-0.3,0.6-0.7,0.7C61.9,79.3,62.2,79.1,62.5,78.9z"/>
	<path class="st0" d="M28.2,74.9c0.3,0.2,0.6,0.4,0.9,0.7C28.6,75.5,28.3,75.3,28.2,74.9z"/>
	<path class="st0" d="M27.5,74.2c0.4,0.1,0.6,0.3,0.7,0.7C27.9,74.8,27.6,74.6,27.5,74.2z"/>
	<path class="st0" d="M41.4,55.2c0.1-0.4,0.3-0.6,0.6-0.7C41.8,54.7,41.6,54.9,41.4,55.2z"/>
	<path class="st0" d="M42,54.5c0.1-0.4,0.3-0.6,0.7-0.7C42.4,54,42.2,54.3,42,54.5z"/>
	<path class="st0" d="M32.2,53.9c-0.1,0.4-0.3,0.7-0.7,0.9C31.6,54.3,31.8,54,32.2,53.9z"/>
	<path class="st0" d="M42.7,53.8c0.1-0.4,0.3-0.6,0.7-0.7C43.1,53.4,42.9,53.6,42.7,53.8z"/>
	<path class="st0" d="M32.9,53.2c-0.1,0.4-0.3,0.6-0.7,0.7C32.3,53.6,32.5,53.3,32.9,53.2z"/>
	<path class="st0" d="M43.3,53.2c0.1-0.4,0.3-0.6,0.7-0.7C43.7,52.7,43.5,52.9,43.3,53.2z"/>
	<path class="st0" d="M33.5,52.6c-0.1,0.4-0.3,0.6-0.7,0.7C32.9,52.9,33.1,52.7,33.5,52.6z"/>
	<path class="st0" d="M44,52.5c0.1-0.4,0.3-0.6,0.7-0.7C44.4,52,44.2,52.3,44,52.5z"/>
	<path class="st0" d="M34.2,51.9c-0.1,0.4-0.3,0.6-0.7,0.7C33.6,52.2,33.8,52,34.2,51.9z"/>
	<path class="st0" d="M37.5,59.1c0.1-0.3,0.3-0.5,0.6-0.6C37.9,58.7,37.7,58.9,37.5,59.1z"/>
	<path class="st0" d="M38.1,58.5c0.1-0.3,0.3-0.5,0.6-0.6C38.5,58.1,38.3,58.3,38.1,58.5z"/>
	<path class="st0" d="M38.8,57.8c0.1-0.3,0.3-0.6,0.6-0.6C39.2,57.4,39,57.6,38.8,57.8z"/>
	<path class="st0" d="M39.4,57.2c0.1-0.3,0.3-0.6,0.6-0.6C39.8,56.7,39.6,56.9,39.4,57.2z"/>
	<path class="st0" d="M40.1,56.5c0.1-0.4,0.3-0.6,0.6-0.6C40.5,56.1,40.3,56.3,40.1,56.5z"/>
	<path class="st0" d="M30.8,55.8c0,0.4-0.2,0.6-0.6,0.7C30.4,56.3,30.6,56.1,30.8,55.8z"/>
	<path class="st0" d="M40.7,55.8c0.1-0.4,0.3-0.6,0.6-0.7C41.1,55.4,40.9,55.6,40.7,55.8z"/>
	<path class="st0" d="M31.3,55.2c-0.2,0.2-0.3,0.4-0.5,0.6C30.9,55.6,31.1,55.4,31.3,55.2z"/>
	<path class="st0" d="M43.3,48.6c-0.4-0.1-0.6-0.3-0.7-0.7C42.8,48.1,43.1,48.4,43.3,48.6z"/>
	<path class="st0" d="M38.1,47.9c-0.1,0.4-0.3,0.6-0.7,0.7C37.5,48.3,37.8,48,38.1,47.9z"/>
	<path class="st0" d="M42.6,48c-0.4-0.1-0.6-0.3-0.7-0.7C42.2,47.5,42.4,47.7,42.6,48z"/>
	<path class="st0" d="M38.8,47.3c-0.1,0.4-0.3,0.6-0.7,0.7C38.3,47.7,38.5,47.5,38.8,47.3z"/>
	<path class="st0" d="M42,47.3c-0.4-0.1-0.6-0.3-0.7-0.7C41.6,46.7,41.9,46.9,42,47.3z"/>
	<path class="st0" d="M39.4,46.6c-0.1,0.4-0.3,0.6-0.7,0.7C39,47.1,39.2,46.8,39.4,46.6z"/>
	<path class="st0" d="M41.3,46.7c-0.3-0.2-0.6-0.4-0.9-0.7C40.9,46,41.2,46.2,41.3,46.7z"/>
	<path class="st0" d="M40.3,46c-0.3,0.2-0.6,0.4-0.9,0.6C39.5,46.2,39.8,46,40.3,46z"/>
	<path class="st0" d="M44.6,51.8c0.1-0.4,0.3-0.6,0.7-0.7C45,51.4,44.8,51.6,44.6,51.8z"/>
	<path class="st0" d="M34.8,51.2c-0.1,0.4-0.3,0.6-0.7,0.7C34.2,51.6,34.5,51.3,34.8,51.2z"/>
	<path class="st0" d="M45.2,51.2c0-0.2,0-0.4,0-0.6C45.8,50.8,45.7,51,45.2,51.2z"/>
	<path class="st0" d="M35.5,50.6c-0.1,0.4-0.3,0.6-0.7,0.7C34.9,50.9,35.1,50.7,35.5,50.6z"/>
	<path class="st0" d="M45.3,50.6c-0.2-0.2-0.4-0.5-0.7-0.7C44.8,50.1,45.1,50.4,45.3,50.6z"/>
	<path class="st0" d="M36.2,49.9c-0.1,0.4-0.3,0.6-0.7,0.7C35.5,50.3,35.8,50,36.2,49.9z"/>
	<path class="st0" d="M44.6,49.9c-0.4-0.1-0.6-0.3-0.7-0.7C44.2,49.5,44.4,49.7,44.6,49.9z"/>
	<path class="st0" d="M36.8,49.3c-0.1,0.4-0.3,0.6-0.7,0.7C36.2,49.6,36.4,49.4,36.8,49.3z"/>
	<path class="st0" d="M44,49.3c-0.4-0.1-0.6-0.3-0.7-0.7C43.5,48.8,43.7,49,44,49.3z"/>
	<path class="st0" d="M37.5,48.6c-0.1,0.4-0.3,0.6-0.7,0.7C36.9,48.9,37.1,48.7,37.5,48.6z"/>
	<path class="st0" d="M36.9,59.7c0-0.3,0.2-0.5,0.5-0.5C37.2,59.4,37.1,59.6,36.9,59.7z"/>
	<path class="st0" d="M164.8,111.4c0.4,0,0.7,0.2,0.9,0.5C165.4,111.7,165.1,111.5,164.8,111.4z"/>
	<path class="st0" d="M156.2,106.5c0.4,0.1,0.6,0.3,0.7,0.7C156.6,107.2,156.3,106.9,156.2,106.5z"/>
	<path class="st0" d="M168.7,105.2c-0.4,0-0.6-0.1-0.8-0.5C168.1,104.9,168.4,105,168.7,105.2z"/>
	<path class="st0" d="M159.5,108.8c0.4,0,0.6,0.2,0.7,0.5C160,109.1,159.7,108.9,159.5,108.8z"/>
	<path class="st0" d="M158.2,108c0.4,0,0.7,0.2,0.9,0.6C158.6,108.5,158.3,108.3,158.2,108z"/>
	<path class="st0" d="M226.1,115.7c-0.4,0-0.7-0.1-0.9-0.4C225.5,115.4,225.8,115.6,226.1,115.7z"/>
	<path class="st0" d="M86.9,86.8c-0.2-0.2-0.5-0.4-0.7-0.6C86.4,86.4,86.7,86.6,86.9,86.8z"/>
	<path class="st0" d="M65.1,86.8c0.1-0.3,0.3-0.6,0.7-0.6C65.5,86.4,65.3,86.6,65.1,86.8z"/>
	<path class="st0" d="M98.7,85.5c0,0.4-0.2,0.7-0.5,0.9C98.3,86.1,98.5,85.8,98.7,85.5z"/>
	<path class="st0" d="M86.2,86.2c-0.3-0.2-0.6-0.4-0.9-0.6C85.7,85.6,86,85.8,86.2,86.2z"/>
	<path class="st0" d="M65.8,86.2c0.1-0.4,0.3-0.6,0.6-0.7C66.2,85.7,66,86,65.8,86.2z"/>
	<path class="st0" d="M48,85.4c0.4,0.1,0.6,0.3,0.7,0.7C48.3,86,48.1,85.8,48,85.4z"/>
	<path class="st0" d="M66.4,85.5c0.1-0.4,0.3-0.6,0.6-0.7C66.9,85.1,66.7,85.3,66.4,85.5z"/>
	<path class="st0" d="M47.3,84.8c0.4,0.1,0.6,0.3,0.7,0.7C47.7,85.4,47.4,85.2,47.3,84.8z"/>
	<path class="st0" d="M152.2,88c-0.4,0-0.6-0.1-0.7-0.5C151.7,87.7,152,87.8,152.2,88z"/>
	<path class="st0" d="M105.5,88.1c0-0.4,0.2-0.6,0.5-0.8C105.8,87.6,105.6,87.9,105.5,88.1z"/>
	<path class="st0" d="M63.7,88.1c0.1-0.4,0.4-0.6,0.7-0.7C64.3,87.8,64.1,88,63.7,88.1z"/>
	<path class="st0" d="M50.6,87.5c0.4,0.1,0.6,0.3,0.7,0.6C51.1,87.9,50.8,87.7,50.6,87.5z"/>
	<path class="st0" d="M87.5,87.5c-0.2-0.2-0.4-0.5-0.6-0.7C87.1,87.1,87.3,87.3,87.5,87.5z"/>
	<path class="st0" d="M64.4,87.5c0.1-0.3,0.3-0.6,0.7-0.6C64.9,87,64.6,87.3,64.4,87.5z"/>
	<path class="st0" d="M49.9,86.9c0.4,0,0.6,0.2,0.7,0.6C50.4,87.3,50.1,87.1,49.9,86.9z"/>
	<path class="st0" d="M59.2,82.2c-0.1,0.3-0.3,0.5-0.6,0.5C58.8,82.5,59,82.4,59.2,82.2z"/>
	<path class="st0" d="M56.5,82.7c-0.3,0-0.5-0.2-0.6-0.5C56.1,82.4,56.3,82.5,56.5,82.7z"/>
	<path class="st0" d="M44.7,82.2c0.4,0.1,0.6,0.3,0.7,0.7C45.1,82.6,44.9,82.4,44.7,82.2z"/>
	<path class="st0" d="M59.9,81.6c-0.1,0.4-0.4,0.6-0.7,0.6C59.4,82,59.7,81.8,59.9,81.6z"/>
	<path class="st0" d="M55.9,82.2c-0.4-0.1-0.6-0.2-0.7-0.6C55.4,81.8,55.6,82,55.9,82.2z"/>
	<path class="st0" d="M44,81.5c0.4,0.1,0.6,0.4,0.7,0.7C44.3,82.1,44.1,81.8,44,81.5z"/>
	<path class="st0" d="M101.5,80.9c-0.1,0.4-0.3,0.6-0.7,0.7C100.9,81.3,101.1,81,101.5,80.9z"/>
	<path class="st0" d="M60.6,80.9c-0.1,0.4-0.3,0.6-0.7,0.7C60,81.3,60.2,81,60.6,80.9z"/>
	<path class="st0" d="M61.2,80.3c-0.1,0.4-0.3,0.6-0.7,0.7C60.6,80.6,60.9,80.4,61.2,80.3z"/>
	<path class="st0" d="M152.2,84.8c0.2-0.2,0.4-0.3,0.7-0.5C152.6,84.5,152.4,84.7,152.2,84.8z"/>
	<path class="st0" d="M142.8,84.8c0.3-0.3,0.6-0.7,0.7,0.1C143.3,84.8,143,84.8,142.8,84.8z"/>
	<path class="st0" d="M99.3,84.2c-0.2,0.3-0.3,0.5-0.5,0.8C99,84.8,99.1,84.5,99.3,84.2z"/>
	<path class="st0" d="M67.1,84.9c0.1-0.4,0.3-0.6,0.7-0.7C67.5,84.4,67.3,84.6,67.1,84.9z"/>
	<path class="st0" d="M46.6,84.2c0.4,0.1,0.6,0.3,0.7,0.7C47.1,84.6,46.9,84.4,46.6,84.2z"/>
	<path class="st0" d="M67.7,84.2c0.1-0.4,0.3-0.6,0.7-0.7C68.2,83.7,68,84,67.7,84.2z"/>
	<path class="st0" d="M46,83.5c0.4,0.1,0.6,0.3,0.7,0.7C46.4,84,46.2,83.7,46,83.5z"/>
	<path class="st0" d="M153.7,83.5c0.2-0.2,0.3-0.4,0.5-0.6C154.1,83.1,153.9,83.3,153.7,83.5z"/>
	<path class="st0" d="M100.1,82.9c-0.2,0.3-0.4,0.6-0.6,0.9C99.5,83.3,99.7,83.1,100.1,82.9z"/>
	<path class="st0" d="M45.3,82.8c0.4,0.1,0.6,0.3,0.7,0.7C45.8,83.3,45.5,83.1,45.3,82.8z"/>
	<path class="st0" d="M160.8,98.9c-0.2-0.3-0.3-0.5-0.5-0.8C160.4,98.4,160.6,98.6,160.8,98.9z"/>
	<path class="st0" d="M99.4,98.7c0.1-0.3,0.4-0.6,0.7-0.6C99.8,98.3,99.6,98.5,99.4,98.7z"/>
	<path class="st0" d="M100.1,98.1c0.1-0.3,0.3-0.6,0.7-0.6C100.5,97.6,100.3,97.8,100.1,98.1z"/>
	<path class="st0" d="M160.1,97.7c-0.2-0.3-0.4-0.6-0.7-0.9C159.8,96.9,160,97.2,160.1,97.7z"/>
	<path class="st0" d="M100.8,97.4c0.2-0.2,0.4-0.5,0.6-0.7C101.2,96.9,101,97.2,100.8,97.4z"/>
	<path class="st0" d="M159.5,96.8c-0.3-0.2-0.5-0.5-0.8-0.7C159,96.2,159.3,96.4,159.5,96.8z"/>
	<path class="st0" d="M101.4,96.7c0.2-0.3,0.4-0.6,0.6-0.9C102,96.3,101.7,96.6,101.4,96.7z"/>
	<path class="st0" d="M83,96.2c0.4,0,0.6,0.2,0.8,0.5C83.5,96.5,83.2,96.4,83,96.2z"/>
	<path class="st0" d="M81.6,95.4c0.3,0.2,0.5,0.4,0.8,0.7C82,96,81.8,95.7,81.6,95.4z"/>
	<path class="st0" d="M149.6,94.8c0.7,0.2,0.4,0.4,0.1,0.7C149.6,95.3,149.6,95.1,149.6,94.8z"/>
	<path class="st0" d="M102.2,95.4c0-0.4,0.2-0.6,0.5-0.7C102.5,94.9,102.3,95.2,102.2,95.4z"/>
	<path class="st0" d="M81,94.5c0.2,0.3,0.4,0.6,0.7,0.9C81.3,95.2,81.1,94.9,81,94.5z"/>
	<path class="st0" d="M163.5,102.7c-0.4,0-0.7-0.2-0.9-0.6C163,102.1,163.3,102.3,163.5,102.7z"/>
	<path class="st0" d="M150.9,101.5c0.2,0.2,0.5,0.4,0.7,0.5C151.3,101.8,151.1,101.7,150.9,101.5z"/>
	<path class="st0" d="M150.2,100.8c0.2,0.2,0.4,0.4,0.5,0.6C150.6,101.2,150.4,101,150.2,100.8z"/>
	<path class="st0" d="M149.6,100c0.3,0.1,0.5,0.4,0.5,0.7C150,100.5,149.8,100.2,149.6,100z"/>
	<path class="st0" d="M156.9,90.7c-0.2-0.2-0.4-0.4-0.6-0.6C156.5,90.3,156.7,90.5,156.9,90.7z"/>
	<path class="st0" d="M96.7,90.2c0,0.4-0.2,0.7-0.5,0.9C96.4,90.7,96.5,90.4,96.7,90.2z"/>
	<path class="st0" d="M70.4,90.2c0.2,0.2,0.5,0.4,0.7,0.6C70.8,90.6,70.6,90.4,70.4,90.2z"/>
	<path class="st0" d="M156.2,90c-0.2-0.2-0.4-0.4-0.7-0.6C155.8,89.7,156,89.8,156.2,90z"/>
	<path class="st0" d="M69.7,89.5c0.2,0.2,0.4,0.4,0.6,0.7C70.1,89.9,69.9,89.7,69.7,89.5z"/>
	<path class="st0" d="M155.5,89.5c-0.3-0.2-0.6-0.4-0.9-0.6C155,88.9,155.3,89.1,155.5,89.5z"/>
	<path class="st0" d="M69.1,88.6c0.2,0.3,0.4,0.6,0.6,0.9C69.4,89.3,69.2,89,69.1,88.6z"/>
	<path class="st0" d="M52.6,88.8c0.4,0,0.7,0.2,0.9,0.6C53.1,89.4,52.8,89.2,52.6,88.8z"/>
	<path class="st0" d="M148.3,94.2c0.4,0,0.7,0.1,0.9,0.5C148.9,94.5,148.6,94.4,148.3,94.2z"/>
	<path class="st0" d="M147,93.6c0.3,0,0.6,0.2,0.7,0.5C147.5,93.9,147.2,93.8,147,93.6z"/>
	<path class="st0" d="M145.6,92.7c0.3,0.2,0.5,0.4,0.8,0.6C146.1,93.3,145.8,93.1,145.6,92.7z"/>
	<path class="st0" d="M145,92.1c0.2,0.2,0.5,0.5,0.7,0.7C145.4,92.5,145.2,92.3,145,92.1z"/>
	<path class="st0" d="M103.5,92.8c0-0.4,0.2-0.7,0.5-0.9C103.8,92.2,103.7,92.5,103.5,92.8z"/>
	<path class="st0" d="M144.4,91.2c0.2,0.3,0.4,0.6,0.6,0.9C144.6,91.9,144.4,91.6,144.4,91.2z"/>
	<path class="st0" d="M96,91.5c0,0.4-0.2,0.6-0.6,0.5C95.7,91.8,95.9,91.7,96,91.5z"/>
	<path class="st0" d="M157.5,91.5c-0.3-0.1-0.5-0.4-0.6-0.7C157.1,91,157.3,91.3,157.5,91.5z"/>
	<path class="st0" d="M71,90.8c0.3,0.2,0.6,0.4,0.9,0.6C71.5,91.4,71.2,91.2,71,90.8z"/>
</g>
</svg>
