<svg viewBox="0 0 441 252">
<style type="text/css">
	.st0{fill:#EA7175;}
	.st1{fill:#FDFDFD;}
	.st2{fill:#FFFFFF;}
</style>
<g>
	<path class="st0" d="M229.2,126c-0.4,0-0.8,0-1.1,0c-0.9,0.6-1.9,0.2-2.9,0.3c-3.6,0-7.1,0-10.7,0c-1,0-2,0-2.9,0
		c-2.7,0.2-5.4-0.3-8.1,0.3c-0.4,0-0.8,0.1-1.1,0.1c-0.2,0.2-0.5,0.3-0.8,0.3c-0.7,0-1.4-0.1-2,0.3h-0.3l-0.2,0.1
		c-0.5,0.4-1,0.3-1.5,0.5h-0.2L197,128c-0.3,0.4-1,0.2-1.3,0.6l0,0c-0.3,0.2-0.5,0.4-0.7,0.6l0,0c-0.2,0.3-0.4,0.5-0.7,0.7v-0.1
		c-0.1,0.3-0.4,0.6-0.7,0.7l0,0c-0.1,0.3-0.4,0.5-0.7,0.7l0,0c-0.2,0.2-0.4,0.5-0.5,0.7s-0.2,0.4-0.2,0.6c-0.4,0.7-0.5,1.4,0,2.1
		l0,0c0.2,0.2,0.3,0.4,0.3,0.6c0,0.5-0.1,1,0.4,1.3l0,0c0.4,0.4,0.2,1,0.7,1.3l0,0c0.2,0.3,0.5,0.5,0.6,0.9c0,0.2,0,0.3,0.2,0.5
		s0.3,0.5,0.5,0.7l0,0c0.5,0.3,0.3,1,0.7,1.3l0,0c0.4,0.3,0.3,1,0.7,1.3l0,0c0.4,0.4,0.2,1,0.6,1.3l0,0c0.4,0.4,0.3,1,0.6,1.5
		c-0.1,0.2,0,0.4,0.1,0.5c0.4,1.1,0.4,2.2,0,3.3c-0.1,0.1-0.2,0.2-0.1,0.4c-0.1,0.4-0.3,0.7-0.7,0.9l0,0c-0.2,0.3-0.5,0.6-0.9,0.7
		h-0.2l-0.2,0.1c-1.5,0.7-3.2-0.2-4.8,0.5h-0.3l-0.2,0.1c-0.2,0.2-0.4,0.3-0.7,0.3c-0.5,0-1,0-1.4,0.3h-0.3l-0.3,0.1
		c-0.5,0.3-1,0.3-1.5,0.5h-0.2l-0.2,0.1c-0.2,0.2-0.4,0.3-0.6,0.3c-0.5,0-1,0-1.4,0.3h-0.3l-0.3,0.1c-0.4,0.3-1,0.2-1.5,0.5h-0.3
		l-0.2,0.1c-0.5,0.3-1,0.3-1.6,0.5c-0.4,0.1-0.7,0.1-1.1,0.2c-0.5,0.3-1,0.3-1.5,0.5h-0.3l-0.2,0.1c-0.2,0.2-0.4,0.3-0.7,0.3
		c-0.5,0-1,0-1.5,0.3h-0.3l-0.2,0.1c-0.6,0.5-1.5,0.1-2.1,0.6h-0.3l-0.2,0.1c-0.2,0.2-0.4,0.3-0.7,0.3c-0.5,0-1,0.1-1.5,0.3h-0.2
		l-0.2,0.1c-0.2,0.2-0.4,0.3-0.7,0.3c-0.7,0-1.4-0.1-2,0.3h-0.3l-0.3,0.1c-0.2,0.2-0.5,0.3-0.8,0.3c-0.7,0-1.4-0.1-2,0.3H162l0-0.1
		c-0.2,0.2-0.5,0.3-0.8,0.3c-0.7,0-1.4,0-2.1,0.3c-0.4,0-0.7,0.1-1.1,0.1c-0.2,0.2-0.5,0.3-0.8,0.3c-0.9,0.1-1.8-0.2-2.7,0.3
		c-0.4,0-0.8,0-1.1,0.1c-0.3,0.2-0.6,0.3-0.9,0.3c-1.3,0.1-2.6-0.3-3.9,0.3c-0.6,0-1.2,0-1.8,0c-0.5,0.4-1.1,0.3-1.7,0.3
		c-3.1,0-6.2,0-9.3,0c-0.6,0-1.2,0.1-1.6-0.4c-0.4,0-0.7,0-1.1,0c-0.8-0.4-1.8-0.2-2.6-0.3c-0.3,0-0.6-0.1-0.8-0.3
		c-0.4,0-0.8-0.1-1.1-0.1c-0.7-0.4-1.5-0.1-2.2-0.5l-0.3-0.1h-0.3c-0.6-0.5-1.5-0.1-2.1-0.6l-0.2-0.1h-0.2c-0.5-0.2-1.1-0.2-1.5-0.6
		l0,0c-0.3-0.4-0.9-0.3-1.3-0.6c-0.1-0.1-0.3-0.2-0.4-0.1c-0.4-0.1-0.6-0.3-0.9-0.5L119,157h-0.2c-0.4-0.1-0.7-0.3-0.9-0.6l0,0
		c-0.2-0.2-0.4-0.4-0.7-0.5c-0.1-0.2-0.3-0.2-0.5-0.2c-0.4-0.1-0.6-0.3-0.9-0.6l0,0c-0.2-0.2-0.5-0.4-0.7-0.6H115
		c-0.3-0.5-1-0.3-1.2-0.8l0.1,0.1c-0.3-0.1-0.5-0.4-0.7-0.7l0,0c-0.3-0.2-0.5-0.4-0.7-0.6l0,0c-0.2-0.2-0.4-0.4-0.7-0.6l0,0
		c-0.1-0.2-0.3-0.3-0.5-0.4c-0.1-0.1-0.2-0.1-0.3-0.2c-0.2-0.1-0.4-0.3-0.5-0.4c-0.2-0.1-0.4-0.2-0.5-0.5v0.1
		c-0.3-0.1-0.6-0.4-0.7-0.7v0.1c-0.3-0.1-0.6-0.4-0.7-0.7l0,0c-0.3-0.2-0.5-0.4-0.7-0.7l0,0c-0.3-0.2-0.5-0.4-0.7-0.7l0,0
		c-0.3-0.2-0.5-0.4-0.7-0.7l0,0c-0.3-0.2-0.5-0.4-0.7-0.7l0,0c-0.3-0.2-0.5-0.4-0.7-0.7l0,0c-0.3-0.2-0.5-0.4-0.7-0.7l0,0
		c-0.2-0.2-0.5-0.4-0.7-0.7l0,0c-0.2-0.2-0.5-0.4-0.7-0.7l0,0c-0.2-0.2-0.5-0.4-0.7-0.7l0,0c-0.2-0.2-0.5-0.4-0.7-0.7l0,0
		c-0.2-0.2-0.5-0.4-0.7-0.7l0,0c-0.2-0.2-0.4-0.4-0.7-0.7l0,0c-0.2-0.2-0.4-0.4-0.7-0.7l0,0c-0.2-0.2-0.4-0.4-0.7-0.6l0,0
		c-0.2-0.2-0.4-0.4-0.7-0.6l0,0c-0.2-0.2-0.4-0.4-0.6-0.6l0,0c-0.2-0.2-0.4-0.4-0.6-0.6l-0.1-0.1c-0.1-0.3-0.3-0.4-0.6-0.6l-0.1-0.1
		c-0.1-0.2-0.3-0.4-0.6-0.4c-0.3-0.1-0.4-0.2-0.5-0.4v0.1c-0.3-0.1-0.6-0.4-0.7-0.7v0.1c-0.3-0.1-0.6-0.4-0.7-0.7l0,0
		c-0.3-0.2-0.5-0.4-0.7-0.7l0,0c-0.3-0.2-0.5-0.4-0.7-0.6l0,0c-0.2-0.2-0.4-0.4-0.6-0.5c-0.1-0.2-0.3-0.2-0.5-0.2
		c-0.4-0.1-0.7-0.3-0.9-0.6l0,0c-0.2-0.2-0.4-0.4-0.7-0.5c-0.1-0.1-0.3-0.2-0.5-0.2c-0.3-0.1-0.6-0.3-0.9-0.3
		c-0.2,0-0.4-0.2-0.6-0.3l0,0c-0.9-0.6-1.9-0.4-2.9,0c-0.2,0-0.4,0-0.5,0.2c-0.2,0.1-0.4,0.3-0.5,0.5c-0.2,0.1-0.2,0.3-0.2,0.5
		c-0.3,0.4-0.2,1-0.6,1.5c-0.1,0.2-0.1,0.4-0.1,0.6c-0.6,0.8,0,1.9-0.6,2.7c-0.1,0.2-0.1,0.4-0.1,0.6c-0.7,0.8,0,1.9-0.6,2.7
		c-0.1,0.2-0.1,0.3-0.1,0.5c-0.3,0.5-0.2,1-0.6,1.5l0,0c-0.4,0.3-0.3,1-0.7,1.3l0,0c-0.2,0.2-0.4,0.5-0.6,0.7v0.1
		c-0.2,0.2-0.5,0.4-0.6,0.6l0,0c-0.6,0.7-0.4,1.3-0.1,2c-0.1,0.2,0,0.4,0.1,0.6c0.5,0.7,0.1,1.5,0.5,2.2c0,0.4,0.1,0.7,0.1,1.1
		c0.6,0.8-0.1,1.9,0.6,2.7c0,0.4,0.1,0.8,0.1,1.2c0.4,1.5,0.4,3.1,0,4.6c-0.1,0.1-0.2,0.3-0.1,0.5c-0.1,0.4-0.3,0.6-0.6,0.9l0,0
		c-0.2,0.2-0.4,0.4-0.7,0.7l0,0c-0.2,0.3-0.5,0.5-0.9,0.6c-0.2,0-0.3,0-0.5,0.1c-0.4,0.3-1,0.2-1.4,0.5h-0.3l-0.3,0.1
		c-0.6,0.5-1.5,0.1-2.1,0.6h-0.3l-0.2,0.1c-0.2,0.2-0.5,0.3-0.8,0.3c-0.7,0-1.4-0.1-2.1,0.3c-0.4,0-0.8,0.1-1.1,0.1
		c-0.2,0.2-0.5,0.3-0.8,0.3c-0.7,0-1.4,0-2.1,0.3c-0.4,0-0.7,0-1.1,0.1c-0.3,0.2-0.6,0.3-0.9,0.3c-1.3,0.1-2.6-0.3-3.9,0.3
		c-0.4,0-0.8,0-1.1,0c-1.3,0.5-2.6,0.6-4,0l0,0c-0.4-0.3-0.9-0.3-1.3-0.5c-0.1-0.1-0.3-0.2-0.5-0.1c-0.3-0.1-0.6-0.3-0.8-0.5
		c-0.1-0.1-0.3-0.2-0.4-0.2c-0.4-0.1-0.6-0.3-0.9-0.6l0,0c-0.2-0.2-0.4-0.4-0.7-0.5c-0.1-0.2-0.2-0.2-0.4-0.2
		c-0.4-0.1-0.7-0.3-0.9-0.7H49c-0.3-0.2-0.5-0.4-0.7-0.7l0,0c-0.3-0.2-0.5-0.4-0.7-0.6l0,0c-0.2-0.2-0.4-0.4-0.7-0.6l-0.1-0.1
		c-0.2-0.5-0.9-0.3-1.2-0.8l0.1,0.1c-0.3-0.1-0.5-0.4-0.8-0.6l0,0c-1.1-0.6-2.2-0.6-3.2,0l0,0c-0.3,0.2-0.5,0.5-0.9,0.6
		c-0.2,0-0.3,0-0.4,0.2c-0.4,0.7,0.3,0.9,0.6,1.2c0.1,0.1,0.2,0.2,0.4,0.1c0.4,0,0.7,0.3,0.9,0.5c0.1,0.1,0.3,0.2,0.4,0.1
		c0.4,0.1,0.6,0.3,0.9,0.5c0.1,0.1,0.3,0.2,0.4,0.1c0.4,0.1,0.6,0.3,0.9,0.5c0.1,0.1,0.2,0.2,0.4,0.1c0.4,0.1,0.7,0.3,0.9,0.6l0,0
		c0.3,0.4,1,0.3,1.3,0.7l0,0c0.2,0.2,0.5,0.4,0.7,0.5c0.1,0.1,0.2,0.2,0.4,0.2c0.4,0.1,0.7,0.3,0.9,0.6l0,0c0.3,0.2,0.5,0.4,0.7,0.6
		l0,0c0.2,0.2,0.4,0.4,0.6,0.5l0.1,0.1c0.1,0.2,0.2,0.4,0.5,0.5c0.5,0.5,1,1.1,1.5,1.6c0.1,0.2,0.3,0.4,0.5,0.6l0,0
		c0.2,0.3,0.4,0.5,0.6,0.7l0,0c0.5,0.3,0.4,1,0.7,1.3l0,0c0.4,0.4,0.4,1,0.6,1.5c0.1,0.4,0.1,0.7,0.2,1.1c0.4,1.3,0.4,2.6,0,3.9
		c-0.1,0.2-0.1,0.4-0.1,0.6c-0.6,0.6-0.1,1.4-0.6,2c-0.1,0.1-0.2,0.3-0.1,0.4c-0.1,0.3-0.3,0.6-0.5,0.9c-0.1,0.1-0.2,0.3-0.2,0.5
		c-0.1,0.4-0.3,0.6-0.6,0.9l0,0c-0.2,0.2-0.4,0.4-0.5,0.6c-0.2,0.1-0.2,0.2-0.2,0.4c-0.1,0.4-0.3,0.7-0.7,0.9l0.1-0.1
		c-0.2,0.5-0.9,0.4-1.2,0.8h-0.1c-0.3,0.1-0.5,0.4-0.7,0.6l0,0c-0.3,0.4-1,0.3-1.3,0.7l0,0c-0.4,0.4-1,0.3-1.4,0.6
		c-0.2,0-0.4,0-0.6,0.1c-0.4,0.3-1,0.2-1.4,0.5h-0.3l-0.3,0.1c-0.6,0.5-1.5,0.1-2.1,0.6h-0.3l-0.2,0.1c-0.6,0.5-1.5,0.1-2.1,0.6
		h-0.3l-0.2,0.1c-0.4,0.3-1,0.2-1.3,0.6l0,0c-0.5,0.5-0.2,1-0.1,1.5c0,0.2,0,0.3,0.1,0.5c0.3,0.4,0.2,1,0.6,1.3l0,0
		c0.4,0.4,0.3,1,0.6,1.4l0,0c0.5,0.4,0.4,1,0.6,1.5c0,0.2,0,0.3,0.1,0.5c0.3,0.4,0.3,1,0.5,1.5c-0.1,0.2,0,0.4,0.1,0.5
		c0.5,0.9,0.4,1.7,0,2.6c-0.1,0.2-0.1,0.4-0.1,0.6c-0.3,0.4-0.3,1-0.5,1.4c-0.1,0.1-0.2,0.3-0.1,0.5c-0.1,0.3-0.4,0.6-0.6,0.9l0,0
		c-0.5,0.3-0.3,1-0.8,1.2l0.1-0.1c-0.1,0.3-0.4,0.6-0.7,0.7l0,0c-0.1,0.3-0.4,0.5-0.7,0.7l0,0c-0.3,1.2-0.8,2.5,0.7,3.3
		c0.2,0.1,0.4,0.2,0.6,0.1c0.4,0.3,0.9,0.3,1.4,0.5c0.2,0.1,0.3,0.2,0.6,0.2c0.3,0.1,0.5,0.4,0.8,0.6l0,0c0.2,0.2,0.4,0.4,0.6,0.6
		l0,0c0.2,0.3,0.4,0.5,0.6,0.8c0,0.2,0,0.4,0.1,0.5c0.3,0.9,0.3,1.7,0,2.6c-0.1,0.2-0.2,0.4-0.1,0.6c-0.3,0.4-0.2,1-0.6,1.4l0,0
		c-0.4,0.4-0.3,1-0.7,1.3l0,0c-0.2,0.2-0.4,0.5-0.5,0.7c-0.1,0.1-0.2,0.3-0.2,0.4c-0.1,0.4-0.3,0.7-0.6,0.9l0,0
		c-0.2,0.3-0.4,0.5-0.6,0.7l0,0c-0.2,0.2-0.4,0.4-0.6,0.7l-0.1,0.1c-0.5,0.2-0.3,1-0.8,1.1l0.1-0.1c-0.1,0.3-0.4,0.6-0.7,0.7
		l0.1-0.1c-0.1,0.3-0.4,0.6-0.7,0.7h0.1c-0.2,0.4-0.5,0.6-0.9,0.7c-0.2,0-0.3,0.1-0.4,0.3c-0.2,0.1-0.4,0.3-0.5,0.5l-0.1,0.1
		c-0.3,0.1-0.5,0.3-0.6,0.6l0,0c-0.3,0.2-0.5,0.4-0.7,0.6l0,0c-0.2,0.2-0.4,0.5-0.7,0.7l0,0c-0.2,0.3-0.5,0.6-0.9,0.7
		c-0.2,0-0.4,0.1-0.5,0.3c-0.2,0.1-0.4,0.2-0.5,0.5H31c-0.3,0.2-0.5,0.4-0.7,0.6l0,0c-0.2,0.2-0.4,0.5-0.7,0.6h0.1
		c-0.2,0.4-0.5,0.6-0.9,0.7c-0.2,0-0.3,0-0.4,0.2c-0.2,0.2-0.5,0.3-0.6,0.5l0,0c-0.2,0.2-0.4,0.5-0.7,0.6l0,0
		c-0.2,0.3-0.5,0.6-0.9,0.7c-0.2,0-0.3,0.1-0.4,0.2c-0.2,0.1-0.4,0.3-0.6,0.5l0,0c-0.2,0.2-0.4,0.5-0.7,0.6l0,0
		c-0.2,0.3-0.5,0.6-0.9,0.7c-0.2,0-0.3,0-0.4,0.2c-0.2,0.1-0.4,0.3-0.6,0.5l0,0c-0.2,0.2-0.4,0.5-0.7,0.6l0,0
		c-0.2,0.3-0.5,0.6-0.9,0.7c-0.2,0-0.3,0.1-0.4,0.2c-0.2,0.1-0.4,0.3-0.6,0.5l0,0c-0.3,0.2-0.5,0.4-0.7,0.6l0,0
		c-0.2,0.3-0.4,0.5-0.7,0.7h0.1c-0.2,0.3-0.5,0.6-0.9,0.7c-0.2,0-0.3,0.1-0.4,0.3c-0.2,0.1-0.4,0.3-0.5,0.5l-0.1,0.1
		c-0.3,0.2-0.5,0.4-0.7,0.6l0,0c-0.2,0.2-0.4,0.4-0.7,0.6l0,0c-0.2,0.3-0.4,0.5-0.7,0.7l0,0c-0.2,0.3-0.4,0.5-0.7,0.7l0,0
		c-0.2,0.3-0.4,0.5-0.7,0.7l0,0c-0.2,0.3-0.4,0.6-0.7,0.7h0.1c-0.2,0.4-0.5,0.6-0.9,0.7h-0.2l-0.2,0.1c-0.2,0.2-0.4,0.2-0.6-0.1v0.1
		c-0.3-0.2-0.5-0.4-0.7-0.7l0,0c-0.3-0.2-0.5-0.4-0.7-0.7l0,0c-0.3-0.2-0.6-0.4-0.7-0.7h0.1c-0.3-0.1-0.6-0.4-0.7-0.7l0.1,0.1
		c-0.5-0.2-0.3-0.9-0.8-1.1l-0.1-0.1c-0.1-0.3-0.3-0.5-0.5-0.6l0,0c-0.1-0.2-0.1-0.5,0-0.7l0,0c0.2-0.2,0.4-0.4,0.6-0.6l0.1-0.1
		c0.3-0.2,0.5-0.3,0.6-0.6l0,0c0.2-0.2,0.5-0.4,0.7-0.6l0,0c0.2-0.2,0.4-0.4,0.7-0.6l0,0c0.2-0.2,0.4-0.5,0.7-0.7l0,0
		c0.2-0.3,0.4-0.5,0.7-0.7l0,0c0.2-0.3,0.4-0.5,0.7-0.7l-0.1,0.1c0.2-0.5,0.9-0.3,1.1-0.8l0.1-0.1c0.3-0.1,0.5-0.3,0.6-0.5l0,0
		c0.3-0.2,0.5-0.4,0.7-0.6l0,0c0.2-0.2,0.4-0.5,0.7-0.7l0,0c0.2-0.3,0.5-0.6,0.9-0.7c0.2,0,0.3-0.1,0.4-0.2c0.2-0.1,0.4-0.3,0.6-0.5
		l0,0c0.3-0.2,0.5-0.4,0.7-0.6l0,0c0.2-0.3,0.5-0.5,0.8-0.6c0.2,0,0.4-0.1,0.5-0.3c0.2-0.1,0.4-0.2,0.5-0.5h0.1
		c0.3-0.2,0.5-0.4,0.7-0.6l0,0c0.2-0.3,0.5-0.5,0.8-0.6c0.2,0,0.4-0.1,0.5-0.3c0.2-0.1,0.4-0.2,0.5-0.5h0.1c0.3-0.2,0.5-0.4,0.7-0.6
		l0,0c0.2-0.3,0.5-0.5,0.8-0.6c0.2,0,0.4-0.1,0.5-0.3c0.2-0.1,0.4-0.2,0.5-0.5h0.1c0.2-0.2,0.5-0.4,0.7-0.6l0,0
		c0.2-0.3,0.4-0.5,0.7-0.6l-0.1,0.1c0.2-0.5,0.9-0.3,1.2-0.8l0.1-0.1c0.3-0.1,0.5-0.3,0.7-0.6l0,0c0.2-0.2,0.4-0.5,0.7-0.6l0,0
		c0.2-0.3,0.4-0.5,0.7-0.7H29c0.2-0.4,0.5-0.6,0.9-0.7c0.2,0,0.4-0.1,0.5-0.3c0.2-0.1,0.4-0.2,0.5-0.5l0.1-0.1
		c0.3-0.1,0.5-0.3,0.6-0.5l0.1-0.1c0.3-0.1,0.4-0.3,0.6-0.6l0.1-0.1c0.3-0.1,0.4-0.3,0.6-0.6l0.1-0.1c0.5-0.2,0.3-0.9,0.8-1.1l0,0
		c0.2-0.5,0.4-1-0.1-1.4l0,0c-0.2-0.2-0.4-0.4-0.6-0.5c-0.1-0.2-0.3-0.2-0.5-0.2c-0.4-0.1-0.7-0.3-0.8-0.7L32,216
		c-0.5-0.2-0.3-0.9-0.8-1.2v-0.1c-0.2-0.3-0.5-0.5-0.5-0.9c0.1-0.2,0-0.3-0.1-0.4c-0.5-2.4-0.4-4.8,0-7.2c0.1-0.1,0.2-0.3,0.1-0.5
		c0.1-0.3,0.3-0.5,0.5-0.8c0.1-0.1,0.2-0.3,0.2-0.5c0.1-0.4,0.3-0.6,0.6-0.9l0,0c0.2-0.2,0.4-0.4,0.6-0.7l0,0
		c0.2-0.2,0.4-0.4,0.6-0.6l0,0c0.2-0.1,0.4-0.3,0.5-0.6c0-0.2,0.1-0.5,0.1-0.7c-0.3-0.4-0.3-1-0.5-1.5c0-0.2,0-0.3-0.1-0.5
		c-0.3-0.4-0.2-1-0.6-1.3l0,0c-0.4-0.4-0.3-1-0.6-1.4l0,0c-0.4-0.4-0.4-1-0.6-1.5c0-0.2,0-0.4-0.1-0.5c-0.3-0.5-0.3-1-0.5-1.5
		c0-0.4-0.1-0.8-0.1-1.1c-0.3-0.4-0.3-0.9,0-1.3c0-0.4,0.1-0.7,0.1-1.1c0.1-0.3,0.3-0.6,0.5-0.9c0.1-0.1,0.2-0.3,0.2-0.5
		c0.1-0.4,0.3-0.6,0.6-0.9l0,0c0.2-0.3,0.4-0.5,0.7-0.7l0,0c0.2-0.2,0.4-0.5,0.7-0.7l0,0c0.2-0.3,0.5-0.5,0.8-0.6
		c0.2,0,0.4-0.1,0.5-0.2c0.2-0.1,0.5-0.3,0.6-0.5l0,0c0.4-0.4,1-0.3,1.4-0.7c0.2,0,0.4-0.1,0.7-0.1c0.4-0.2,1-0.1,1.3-0.5
		c0.2,0,0.4-0.1,0.7-0.1c0.5-0.3,1-0.3,1.5-0.5c0.4-0.1,0.8-0.1,1.1-0.2c0.6-0.5,1.4,0,2-0.6c0.2,0.1,0.4,0,0.6-0.1
		c0.4-0.3,1-0.2,1.3-0.6l0,0c0.3-0.3,0.5-0.5,0.9-0.6c0.2,0,0.3-0.1,0.4-0.3c0.2-0.1,0.4-0.2,0.4-0.5c0.2-0.1,0.3-0.3,0.3-0.5
		c0.3-0.5,0.2-1,0.6-1.5c0.1-0.2,0.1-0.4,0.1-0.6c0.4-0.5,0.3-1,0-1.5c0.1-0.2,0-0.4-0.1-0.5c-0.2-0.3-0.5-0.5-0.5-0.9
		c0-0.2-0.1-0.4-0.3-0.5c-0.1-0.2-0.3-0.4-0.5-0.5l-0.1-0.1c-0.1-0.2-0.3-0.4-0.5-0.5c-0.1-0.2-0.2-0.3-0.4-0.3
		c-0.4-0.1-0.7-0.3-0.9-0.7l0,0c-0.3-0.2-0.5-0.4-0.7-0.6h-0.1c-0.3-0.5-0.9-0.3-1.2-0.7l0,0c-0.2-0.2-0.4-0.4-0.7-0.5
		c-0.2-0.2-0.4-0.2-0.6-0.2c-0.2-0.2-0.5-0.3-0.7-0.5c-0.2-0.1-0.3-0.2-0.6-0.2c-0.2-0.2-0.5-0.3-0.8-0.5c-0.2-0.1-0.4-0.2-0.6-0.2
		c-0.2-0.2-0.5-0.3-0.7-0.5c-0.2-0.1-0.4-0.2-0.6-0.2c-0.4-0.4-1-0.2-1.4-0.7l0,0c-0.4-0.4-1-0.3-1.3-0.7l0,0
		c-0.2-0.2-0.4-0.3-0.7-0.5c-0.2-0.2-0.3-0.2-0.6-0.2c-0.3-0.1-0.5-0.4-0.8-0.6l0,0c-0.2-0.2-0.4-0.4-0.6-0.5l-0.1-0.1
		c-0.1-0.3-0.3-0.5-0.5-0.6l-0.1-0.1c-0.1-0.3-0.3-0.5-0.5-0.7l0,0c-0.4-0.4-0.4-1-0.6-1.5c0-0.3,0-0.7,0-1c0.5-0.6,0-1.5,0.7-2.1
		l0,0c0.2-0.3,0.4-0.5,0.6-0.7l0,0c0.2-0.2,0.4-0.4,0.6-0.7l0,0c0.2-0.2,0.5-0.4,0.7-0.6l0,0c0.2-0.2,0.4-0.4,0.7-0.6l0,0
		c0.2-0.2,0.4-0.5,0.7-0.7l0,0c0.2-0.3,0.4-0.5,0.7-0.7l-0.1,0.1c0.3-0.5,0.9-0.3,1.2-0.8h0.1c0.3-0.2,0.5-0.4,0.7-0.6l0,0
		c0.3-0.5,1-0.3,1.3-0.7l0,0c0.4-0.4,1-0.3,1.4-0.6c0.2,0,0.4,0,0.6-0.1c0.6-0.4,1.5-0.1,2.1-0.5c0.6,0,1.1,0,1.7,0
		c0.6,0.5,1.5,0.1,2.1,0.5c0.2,0.1,0.4,0.2,0.6,0.1c0.4,0.3,1,0.2,1.4,0.7l0,0c0.2,0.2,0.4,0.4,0.7,0.5c0.1,0.2,0.3,0.2,0.5,0.2
		c0.3,0.1,0.6,0.4,0.8,0.6l0,0c0.2,0.2,0.4,0.4,0.7,0.6l0.1,0.1c0.1,0.2,0.3,0.4,0.5,0.5c0.1,0.2,0.3,0.3,0.5,0.3
		c0.4,0.1,0.7,0.3,0.9,0.7l0,0c0.3,0.2,0.5,0.4,0.7,0.7l0,0c0.2,0.2,0.5,0.4,0.7,0.6h0.1c0.1,0.2,0.3,0.4,0.5,0.5
		c0.1,0.2,0.3,0.3,0.6,0.3c0.3,0.1,0.5,0.3,0.8,0.5c1.1,0.3,2.2,0.1,3.4,0c0.9-0.4,1.9,0,2.8-0.5c0.8-0.1,1.7-0.1,2.5-0.2
		c0.7-0.4,1.5-0.1,2.2-0.5c0.6-0.1,1.2-0.1,1.8-0.2c0.7-0.4,1.5-0.1,2.1-0.5c0.4,0,0.8-0.1,1.2-0.1c0.2-0.2,0.4-0.4,0.6-0.6
		c0-0.2,0-0.5,0-0.7c-0.6-0.8,0.1-1.9-0.6-2.7c0.1-0.2,0-0.4-0.1-0.6c-0.6-0.8,0.1-1.9-0.6-2.7c0.1-0.2,0-0.4-0.1-0.6
		c-0.2-0.2-0.4-0.4-0.6-0.6l0,0c-0.2-0.2-0.4-0.4-0.6-0.5c-0.1-0.2-0.2-0.2-0.4-0.2c-0.6-0.2-0.5-0.9-0.9-1.3l0,0
		c-0.5-1.1-0.5-2.2,0-3.3c0.1-0.1,0.2-0.2,0.1-0.4c0.1-0.4,0.3-0.7,0.7-0.9v0.1c0.2-0.3,0.5-0.6,0.8-0.7c0.2,0,0.4-0.1,0.5-0.2
		c0.3-0.1,0.5-0.3,0.7-0.5c0.2,0,0.4,0,0.6-0.1c0.5-0.5,1.4,0.1,1.8-0.6l0.1-0.1c0.9-0.7,0-1.8,0.7-2.5c0.1-0.2,0.1-0.4,0.1-0.6
		c0.7-0.8,0-1.9,0.6-2.7c0.1-0.2,0.1-0.4,0.1-0.6c0.6-0.6,0.1-1.5,0.6-2c0.1-0.1,0.2-0.3,0.1-0.4c0.1-0.4,0.3-0.6,0.5-0.9
		c0.1-0.1,0.2-0.3,0.2-0.5c0.1-0.3,0.3-0.6,0.6-0.9l0,0c0.5-0.3,0.3-1,0.8-1.2l-0.1,0.1c0.1-0.3,0.4-0.6,0.7-0.7h-0.1
		c0.2-0.4,0.5-0.6,0.9-0.7c0.2,0,0.3,0,0.4-0.2c0.2-0.2,0.5-0.3,0.7-0.5c0.2,0,0.4,0,0.6-0.2c0.3-0.1,0.5-0.4,0.8-0.5
		c0.4-0.1,0.8-0.1,1.1-0.2c1.5-0.3,3-0.3,4.6,0c0.4,0.1,0.8,0.1,1.2,0.2c0.4,0.3,1,0.2,1.4,0.5c0.1,0.1,0.3,0.2,0.5,0.1
		c0.3,0.1,0.6,0.3,0.8,0.5c0.1,0.1,0.3,0.2,0.5,0.2c0.3,0.1,0.6,0.3,0.9,0.6l0,0c0.3,0.5,1,0.3,1.2,0.8l0,0c0.3,0.2,0.5,0.4,0.7,0.6
		l0,0c0.2,0.2,0.4,0.4,0.6,0.5c0.1,0.2,0.3,0.2,0.5,0.2c0.4,0.1,0.7,0.3,0.9,0.7l0,0c0.3,0.2,0.5,0.4,0.7,0.7l0,0
		c0.2,0.2,0.5,0.4,0.7,0.6l0,0c0.2,0.2,0.4,0.4,0.7,0.6l0.1,0.1c0.1,0.3,0.3,0.4,0.6,0.5l0.1,0.1c0.1,0.2,0.3,0.4,0.6,0.4
		c0.3,0.1,0.4,0.2,0.5,0.4v-0.1c0.3,0.1,0.6,0.4,0.7,0.7l-0.1-0.1c0.3,0.1,0.6,0.4,0.7,0.7v-0.1c0.3,0.1,0.6,0.4,0.7,0.7l0,0
		c0.3,0.2,0.5,0.4,0.7,0.7l0,0c0.3,0.2,0.5,0.4,0.7,0.7l0,0c0.3,0.2,0.5,0.4,0.7,0.7l0,0c0.3,0.2,0.5,0.4,0.7,0.7l0,0
		c0.3,0.2,0.5,0.4,0.7,0.7l0,0c0.3,0.2,0.5,0.4,0.7,0.7l0,0c0.3,0.2,0.5,0.4,0.7,0.7l0,0c0.3,0.2,0.5,0.4,0.7,0.7l0,0
		c0.3,0.2,0.5,0.4,0.7,0.7l0,0c0.3,0.2,0.5,0.4,0.7,0.7l0,0c0.3,0.2,0.5,0.4,0.7,0.7l0,0c0.3,0.2,0.5,0.4,0.7,0.7l0,0
		c0.3,0.2,0.5,0.4,0.7,0.7l0,0c0.2,0.2,0.5,0.4,0.7,0.7l0,0c0.2,0.2,0.4,0.4,0.7,0.6l0,0c0.2,0.2,0.4,0.4,0.7,0.6l0,0
		c0.2,0.2,0.4,0.4,0.6,0.6l0.1,0.1c0.1,0.2,0.3,0.4,0.5,0.5c0.1,0.2,0.2,0.3,0.4,0.3c0.4,0.1,0.7,0.3,0.9,0.7h-0.1
		c0.3,0.1,0.5,0.4,0.7,0.7l0,0c0.3,0.2,0.5,0.4,0.7,0.6l0,0c0.2,0.2,0.4,0.4,0.6,0.5c0.1,0.2,0.2,0.2,0.4,0.2
		c0.4,0.1,0.7,0.3,0.9,0.7l0,0c0.3,0.2,0.5,0.4,0.7,0.6l0,0c0.3,0.4,1,0.3,1.3,0.7l0,0c0.2,0.2,0.5,0.3,0.7,0.5
		c0.2,0.1,0.3,0.2,0.5,0.2c0.3,0.2,0.5,0.3,0.8,0.5c0.4,0.1,0.8,0.2,1.1,0.2c0.5,0.2,1.1,0.2,1.5,0.5c0.2,0.1,0.4,0.2,0.6,0.1
		c0.6,0.5,1.4,0.1,2,0.5c0.6,0.1,1.2,0.1,1.8,0.2c0.9,0.5,1.9,0,2.8,0.5c4.4,0.5,8.8,0.4,13.3,0c1.1-0.5,2.4,0.1,3.5-0.5
		c0.8,0.2,1.7,0,2.5-0.2c0.2-0.1,0.5-0.2,0.8-0.2c0.7,0,1.4,0.1,2-0.3c0.6-0.1,1.2-0.1,1.9-0.2c0.7-0.4,1.5-0.1,2.1-0.5
		c0.4,0,0.8-0.1,1.2-0.1c0.2-0.1,0.4-0.2,0.7-0.2c0.5,0,1-0.1,1.4-0.3c0.4,0,0.8-0.1,1.2-0.1c0.2-0.1,0.4-0.2,0.7-0.2
		c0.5,0,1,0,1.4-0.3c0.4-0.1,0.8-0.1,1.2-0.2c0.5-0.2,1-0.3,1.5-0.5c0.4-0.1,0.8-0.1,1.1-0.2c0.5-0.3,1-0.3,1.5-0.5
		c0.4-0.1,0.7-0.1,1.1-0.2c0.5-0.3,1-0.3,1.5-0.5c0.4-0.1,0.8-0.1,1.1-0.2c0.5-0.3,1-0.2,1.5-0.5c0.2,0.1,0.4,0,0.5-0.1
		c0.2-0.2,0.4-0.3,0.7-0.3c0.5,0,1,0,1.3-0.3c0.2,0,0.4-0.1,0.7-0.1c0.4-0.3,1-0.2,1.4-0.5c0.2,0.1,0.4,0,0.6-0.1
		c0.4-0.3,1-0.3,1.5-0.5c0.4-0.1,0.8-0.1,1.2-0.2c0.4-0.2,1-0.1,1.3-0.5c0.2,0.1,0.4,0,0.6-0.1c0.4-0.3,1-0.2,1.4-0.5l0,0
		c0.3-0.3,0.1-0.7,0-1c0-0.2,0-0.3-0.2-0.4c-0.2-0.2-0.4-0.5-0.5-0.7v0.1c-0.5-0.3-0.4-1-0.7-1.3l0,0c-0.4-0.3-0.3-1-0.7-1.3l0,0
		c-0.4-0.4-0.3-1-0.6-1.4c0-0.2,0-0.4-0.1-0.6c-0.3-0.4-0.2-1-0.5-1.4c0.1-0.2,0-0.4-0.1-0.6c-0.5-1.5-0.4-3.1,0-4.6
		c0.1-0.2,0.1-0.4,0.1-0.6c0.3-0.4,0.3-1,0.5-1.4c0.1-0.1,0.2-0.3,0.1-0.5c0.1-0.3,0.3-0.6,0.5-0.8c0.1-0.1,0.2-0.2,0.2-0.4
		c0.1-0.4,0.3-0.7,0.6-0.9l0,0c0.2-0.3,0.4-0.5,0.6-0.7l0,0c0.2-0.2,0.4-0.4,0.6-0.7l0,0c0.2-0.2,0.5-0.4,0.6-0.6l0,0
		c0.2-0.2,0.5-0.4,0.7-0.6l0,0c0.2-0.2,0.4-0.5,0.7-0.6l0,0c0.2-0.3,0.5-0.6,0.9-0.6c0.2,0,0.3,0,0.4-0.2c0.2-0.2,0.5-0.3,0.7-0.5
		l0,0c0.1-0.2,0.3-0.3,0.5-0.4c0.3,0,0.6-0.2,0.9-0.3c0.2,0,0.4,0,0.6-0.2c0.3-0.1,0.5-0.4,0.8-0.5c0.2,0.1,0.3,0,0.5-0.1
		c0.5-0.3,1-0.3,1.5-0.5c0.4-0.1,0.8-0.1,1.1-0.2c0.6-0.4,1.5-0.1,2.1-0.5c0.6-0.1,1.2-0.1,1.9-0.2c0.3-0.2,0.6-0.2,0.9-0.2
		c1.1-0.1,2.2,0.2,3.2-0.3c7.4,0,14.9,0.3,22.3-0.2c0.7-0.4,1.5-0.1,2.1-0.5c0.4-0.1,0.8-0.1,1.2-0.2c0.3-0.2,0.5-0.4,0.9-0.5
		c0.2,0,0.3-0.1,0.4-0.3c0.4-0.3,0.3-0.8,0.6-1.1c0.1-0.2,0.2-0.4,0.1-0.6c0.8-1.5-0.1-3.2,0.6-4.7c0-0.4,0.1-0.8,0.1-1.2
		c0.7-0.8-0.1-1.9,0.7-2.7l0,0c0.4-0.4,0.3-1,0.6-1.4l0,0c0.4-0.3,0.3-1,0.8-1.3l-0.1,0.1c0.2-0.3,0.4-0.5,0.7-0.7l0,0
		c0.2-0.3,0.4-0.5,0.7-0.7v0.1c0.1-0.2,0.3-0.4,0.6-0.4c0.3,0,0.5-0.2,0.7-0.3l0,0c0.4-0.4,1-0.3,1.5-0.6c0.4-0.1,0.8-0.1,1.2-0.2
		c1.7-0.3,3.5-0.3,5.2,0c0.4,0,0.9,0.1,1.3,0.1c0.4,0.4,0.9,0.3,1.3,0.5c0.2,0,0.4,0.1,0.7,0.1c0.4,0.4,1,0.3,1.3,0.6l0,0
		c0.3,0.4,1,0.3,1.3,0.7l0,0c0.2,0.2,0.4,0.4,0.7,0.5c0.1,0.1,0.2,0.2,0.4,0.2c0.4,0.1,0.7,0.3,0.9,0.6l0,0c0.3,0.2,0.5,0.4,0.7,0.6
		l0,0c0.2,0.2,0.4,0.4,0.6,0.5c0.1,0.2,0.3,0.2,0.4,0.2c0.4,0.1,0.7,0.3,0.9,0.7l0,0c0.3,0.2,0.5,0.4,0.7,0.6l0,0
		c0.2,0.2,0.4,0.4,0.7,0.6h0.1c0.2,0.5,0.9,0.3,1.2,0.8l0,0c0.2,0.2,0.5,0.4,0.7,0.6c0.1,0.1,0.2,0.2,0.4,0.2
		c0.4,0.1,0.7,0.3,0.9,0.6l0,0c0.3,0.4,0.9,0.3,1.3,0.5c0.5,0,0.9,0,1.4,0c0.4-0.3,1-0.2,1.3-0.5l0,0c0.2-0.3,0.4-0.5,0.8-0.6l0,0
		c0.1-0.3,0.4-0.6,0.7-0.7h-0.1c0.1-0.3,0.4-0.6,0.7-0.7l0,0c0.2-0.3,0.4-0.5,0.6-0.7l0,0c0.4-0.3,0.3-1,0.8-1.3l0,0
		c0.2-0.2,0.4-0.5,0.6-0.7c0.1-0.1,0.2-0.2,0.1-0.4c0.1-0.4,0.3-0.7,0.6-0.9l0,0c0.4-0.4,0.2-1,0.7-1.3l-0.1,0.1
		c0.1-0.3,0.4-0.5,0.6-0.8l0,0c0.5-0.3,0.3-1,0.8-1.2h-0.1c0.2-0.3,0.4-0.5,0.6-0.7l0,0c0.2-0.2,0.4-0.5,0.6-0.7l0,0
		c0.2-0.2,0.4-0.4,0.7-0.6l0,0c0.2-0.2,0.4-0.5,0.7-0.6l0,0c0.2-0.3,0.5-0.6,0.9-0.6c0.2,0,0.3,0,0.4-0.1c0.4-0.3,1-0.2,1.3-0.6
		c0.4,0,0.9-0.1,1.3-0.1c0.4-0.2,0.9-0.2,1.3,0c0.6,0.1,1.2,0.1,1.8,0.2c0.5,0.2,1.1,0.2,1.5,0.5c0.2,0.1,0.3,0.2,0.5,0.1
		c0.4,0.3,1,0.2,1.4,0.5c0.7,0.3,1.4,0.3,2-0.1c0.2-0.1,0.4-0.3,0.6-0.5l0,0c0.2-0.2,0.4-0.4,0.6-0.6v-0.1c0.5-0.3,0.3-0.9,0.7-1.2
		l0,0c0.4-0.4,0.2-1,0.7-1.4l0,0c0.4-0.4,0.3-0.9,0.6-1.3c0.1-0.2,0.2-0.4,0.1-0.6c0.5-0.6,0-1.5,0.6-2.1c0.1-0.1,0.1-0.3,0.1-0.5
		c0.4-0.7,0.1-1.5,0.6-2.2c0.1-0.2,0.1-0.4,0.1-0.5c0.4-0.6,0.3-1.3,0.3-2c0-0.3,0.1-0.5,0.3-0.7c0.1-0.1,0.1-0.3,0.1-0.5
		c0.4-0.7,0.1-1.5,0.5-2.2c0.1-0.2,0.1-0.4,0.1-0.6c0.5-0.6,0.1-1.5,0.6-2.1c0.1-0.1,0.1-0.3,0.1-0.5c0.2-0.5,0.2-1.1,0.6-1.5
		c0.1-0.1,0.2-0.3,0.1-0.5c0.2-0.5,0.2-1.1,0.6-1.5l0,0c0.3-0.4,0.2-1,0.7-1.4l0,0c0.2-0.2,0.4-0.5,0.5-0.7c0.1-0.1,0.2-0.2,0.2-0.4
		c0.1-0.4,0.3-0.7,0.7-0.9l0,0c0.2-0.3,0.4-0.5,0.7-0.7l0,0c0.2-0.3,0.4-0.5,0.7-0.7l0,0c0.2-0.3,0.4-0.5,0.7-0.7l0,0
		c0.2-0.3,0.5-0.6,0.9-0.7c0.2,0,0.4-0.1,0.5-0.3c0.2-0.1,0.4-0.3,0.6-0.5l0,0c0.3-0.2,0.5-0.4,0.7-0.6l0,0c0.2-0.2,0.4-0.3,0.6-0.4
		c0.3,0,0.5-0.2,0.7-0.3l0,0c0.4-0.4,1-0.3,1.3-0.7l0,0c0.1-0.2,0.3-0.3,0.6-0.3c0.3,0,0.6-0.2,0.9-0.3c0.2,0,0.4,0,0.5-0.1
		c0.5-0.3,1-0.3,1.5-0.5c0.4-0.1,0.8-0.1,1.1-0.2c2.6-0.4,5.2-0.4,7.9,0c0.6,0.1,1.2,0.1,1.8,0.2c0.5,0.2,1,0.2,1.5,0.5
		c0.4,0.1,0.8,0.1,1.1,0.2c0.5,0.2,1,0.2,1.5,0.5c0.2,0.1,0.4,0.2,0.6,0.1c0.4,0.3,1,0.2,1.4,0.5c0.2,0.1,0.4,0.2,0.6,0.1
		c0.4,0.3,1,0.2,1.4,0.5c0.2,0.1,0.4,0.2,0.6,0.1c0.4,0.3,1,0.2,1.4,0.6c0.2,0.1,0.3,0.2,0.5,0.1c0.4,0.3,1,0.2,1.4,0.6
		c0.2,0.1,0.3,0.2,0.5,0.1c0.5,0.3,1,0.2,1.5,0.5c0.2,0.1,0.4,0.2,0.6,0.1c0.4,0.3,1,0.3,1.4,0.5c0.4,0.1,0.8,0.1,1.2,0.2
		c0.6,0.4,1.5,0.1,2.1,0.5c1.3,0.3,2.7,0.4,4,0c0.4-0.3,0.9-0.2,1.3-0.6l0,0c0.4-0.4,1-0.2,1.3-0.7l0,0c0.3-0.3,0.5-0.5,0.9-0.6
		c0.2,0,0.3,0,0.4-0.2c0.2-0.2,0.5-0.4,0.7-0.5l0,0c0.3-0.5,1-0.3,1.2-0.8h0.1c0.3-0.2,0.5-0.4,0.7-0.6l0,0c0.2-0.3,0.5-0.6,0.9-0.6
		c0.2,0,0.3,0,0.4-0.2c0.2-0.2,0.5-0.4,0.7-0.6l0,0c0.3-0.5,1-0.3,1.2-0.8h0.1c0.3-0.1,0.5-0.4,0.7-0.6l0,0c0.2-0.2,0.4-0.3,0.6-0.4
		c0.3,0,0.5-0.2,0.7-0.3l0,0c0.4-0.4,1-0.3,1.3-0.7l0,0c0.4-0.4,1-0.3,1.5-0.6c0.2,0,0.4,0,0.5-0.1c0.6-0.5,1.5-0.1,2.1-0.6
		c1.2,0,2.5,0,3.7,0c0.5,0.3,1,0.3,1.5,0.5c0.4,0.1,0.7,0.1,1.1,0.2c0.3,0.1,0.6,0.3,0.9,0.5c0.2,0.1,0.3,0.2,0.6,0.2
		c0.3,0.2,0.5,0.3,0.8,0.5c0.1,0.1,0.3,0.2,0.5,0.2c0.4,0.1,0.6,0.3,0.9,0.6l0,0c0.2,0.2,0.5,0.4,0.7,0.6h0.1
		c0.1,0.2,0.3,0.4,0.6,0.6l0.1,0.1c0.1,0.3,0.3,0.4,0.6,0.6l0.1,0.1c0.1,0.3,0.3,0.5,0.6,0.6l0,0c0.2,0.3,0.4,0.5,0.6,0.7l0,0
		c0.2,0.2,0.5,0.4,0.6,0.7l-0.1-0.1c0.5,0.3,0.4,0.9,0.8,1.3l0,0c0.3,0.3,0.5,0.5,0.6,0.9c0,0.2,0,0.3,0.1,0.4
		c0.2,0.3,0.4,0.5,0.5,0.9c0,0.2,0,0.3,0.1,0.5c0.2,0.3,0.4,0.5,0.5,0.9c0,0.2,0,0.3,0.1,0.4c0.3,0.4,0.2,1,0.6,1.3l0,0
		c0.4,0.4,0.3,1,0.6,1.4l0,0c0.4,0.4,0.3,1,0.7,1.4l0,0c0.5,0.3,0.4,1,0.7,1.4l0,0c0.5,0.3,0.4,1,0.7,1.4l0,0c0.5,0.3,0.3,1,0.7,1.3
		l0,0c0.2,0.3,0.4,0.5,0.6,0.7l0,0c0.3,0.2,0.5,0.4,0.7,0.7l0,0c0.2,0.2,0.5,0.4,0.7,0.6c0.9,0.4,1.8,0.2,2.7,0
		c0.5-0.3,1-0.2,1.5-0.5c0.2,0.1,0.4,0,0.5-0.1c0.5-0.3,1-0.3,1.6-0.5c0.4-0.1,0.7-0.1,1.1-0.2c0.4-0.2,1-0.2,1.3-0.5
		c0.2,0,0.4-0.1,0.6-0.1c0.5-0.3,1-0.3,1.5-0.5c0.6-0.1,1.2-0.1,1.8-0.2c0.5-0.2,1-0.2,1.5-0.5c0.4,0,0.8-0.1,1.1-0.1
		c0.6-0.5,1.4,0,2-0.6c0.2,0,0.4-0.1,0.7-0.1c0.4-0.3,1-0.2,1.3-0.5c0.2-0.1,0.4-0.1,0.7-0.2c0.3-0.2,0.5-0.3,0.8-0.5
		c0.2,0,0.4-0.1,0.6-0.2s0.4-0.3,0.6-0.5l0,0c0.2-0.2,0.4-0.4,0.6-0.6c0.3-0.7,0.3-1.3,0.1-2c-0.6-0.8,0.1-1.9-0.6-2.7
		c0.1-0.2,0-0.4-0.1-0.6c-0.6-0.9,0-1.9-0.5-2.8c0-1.4,0-2.9,0-4.3c0.5-0.6,0.1-1.5,0.5-2.1c0.1-0.2,0.2-0.4,0.1-0.6
		c0.3-0.4,0.2-1,0.6-1.4l0,0c0.4-0.3,0.3-0.9,0.6-1.3l0,0c0.4-0.3,0.3-1,0.7-1.3l0,0c0.2-0.2,0.4-0.4,0.5-0.7
		c0.1-0.1,0.2-0.2,0.2-0.4c0.1-0.4,0.3-0.7,0.7-0.9v0.1c0.2-0.3,0.4-0.5,0.7-0.7l0,0c0.2-0.3,0.4-0.5,0.7-0.7l0,0
		c0.2-0.2,0.4-0.5,0.7-0.7l0,0c0.2-0.2,0.4-0.4,0.7-0.7l0,0c0.2-0.2,0.4-0.4,0.7-0.7l0,0c0.2-0.2,0.4-0.5,0.7-0.7l0,0
		c0.2-0.2,0.4-0.5,0.7-0.7l0,0c0.2-0.2,0.4-0.4,0.6-0.7l0,0c0.2-0.2,0.4-0.4,0.6-0.7v-0.1c0.2-0.2,0.3-0.4,0.4-0.6
		c0.1-0.3,0.2-0.4,0.4-0.6h-0.1c0.1-0.3,0.4-0.5,0.6-0.8l0,0c0.2-0.3,0.3-0.5,0.4-0.8c0.1-0.2,0.2-0.4,0.4-0.5l0,0
		c0.2-0.2,0.3-0.5,0.5-0.7c0.1-0.1,0.2-0.3,0.2-0.5c0.3-0.5,0.2-1.1,0.6-1.5l0,0c0.3-0.4,0.3-0.9,0.6-1.3c0.1-0.2,0.2-0.4,0.1-0.6
		c0.3-0.4,0.3-0.9,0.3-1.4c0-0.3,0.1-0.5,0.3-0.7c0.1-0.1,0.1-0.3,0.1-0.4c0.2-0.5,0.3-1,0.3-1.5c0-0.3,0.1-0.5,0.3-0.7l0,0
		c0.6-0.5,0.1-1.4,0.6-2c0.1-0.2,0.2-0.3,0.1-0.5c0.3-0.4,0.2-1,0.6-1.5c0.1-0.1,0.2-0.3,0.1-0.5c0.3-0.5,0.2-1.1,0.6-1.5l0,0
		c0.4-0.4,0.3-0.9,0.6-1.3c0.1-0.2,0.2-0.3,0.1-0.5c0.3-0.5,0.2-1.1,0.6-1.5l0,0c0.4-0.4,0.3-0.9,0.6-1.3c0.1-0.1,0.2-0.3,0.1-0.5
		c0.3-0.5,0.2-1.1,0.6-1.5l0,0c0.3-0.4,0.2-1,0.6-1.4c0.1-0.1,0.2-0.3,0.1-0.4c0.2-0.5,0.2-1.1,0.6-1.5l0,0c0.3-0.4,0.2-0.9,0.6-1.3
		c0.1-0.2,0.2-0.3,0.1-0.5c0.3-0.4,0.2-1,0.5-1.4c0.1-0.2,0.2-0.4,0.1-0.6c0.5-0.6,0.1-1.5,0.6-2.1c0.1-0.2,0.1-0.4,0.1-0.6
		c0.5-1.8,0.5-3.6,0-5.5c0.1-0.1,0.1-0.2,0-0.4c0.5-0.9,1.5-0.3,2.1-0.8c1.7,0,3.3,0,5,0c0.9,2.6,0.5,5.2,0.2,7.9
		c-0.1,0.2-0.1,0.4-0.1,0.6c-0.5,0.6-0.3,1.3-0.3,2c0,0.3-0.1,0.5-0.3,0.7l0,0c-0.6,0.6-0.1,1.5-0.7,2l0,0c-0.6,0.5,0,1.5-0.7,2l0,0
		c-0.3,0.4-0.2,1-0.6,1.3c-0.1,0.1-0.2,0.3-0.1,0.5c-0.3,0.5-0.2,1.1-0.6,1.5l0,0c-0.4,0.4-0.3,0.9-0.6,1.3
		c-0.1,0.1-0.2,0.3-0.1,0.5c-0.3,0.5-0.2,1.1-0.6,1.5l0,0c-0.3,0.4-0.2,1-0.6,1.4c-0.1,0.1-0.2,0.3-0.1,0.4c0,0.3-0.3,0.6-0.3,1
		c-0.1,0.2-0.2,0.4-0.4,0.6l0,0c-0.3,0.4-0.2,1-0.6,1.4c-0.1,0.1-0.2,0.3-0.1,0.5c-0.2,0.5-0.2,1.1-0.6,1.5l0,0
		c-0.6,0.5-0.1,1.4-0.6,2c-0.1,0.2-0.1,0.3-0.1,0.5c-0.5,0.6-0.1,1.5-0.6,2.1c-0.1,0.2-0.1,0.3-0.1,0.5c-0.5,0.6,0,1.5-0.6,2.1l0,0
		c-0.6,0.5,0,1.5-0.7,2l0,0c-0.4,0.4-0.3,0.9-0.6,1.3c-0.1,0.1-0.2,0.3-0.1,0.5c-0.1,0.3-0.3,0.6-0.5,0.8c-0.1,0.1-0.2,0.3-0.2,0.5
		c-0.1,0.3-0.3,0.5-0.5,0.8c-0.1,0.1-0.2,0.3-0.2,0.5c-0.1,0.4-0.3,0.6-0.6,0.9l0,0c-0.4,0.3-0.3,1-0.8,1.3l0,0
		c-0.2,0.3-0.4,0.5-0.6,0.7l0,0c-0.2,0.2-0.4,0.4-0.5,0.6c-0.2,0.1-0.2,0.2-0.2,0.4c-0.1,0.4-0.3,0.7-0.7,0.9v-0.1
		c-0.2,0.3-0.4,0.5-0.7,0.7l0,0c-0.2,0.3-0.4,0.5-0.7,0.7l0,0c-0.2,0.3-0.4,0.5-0.7,0.7l0,0c-0.2,0.3-0.4,0.5-0.7,0.7l0,0
		c-0.2,0.3-0.4,0.5-0.7,0.7l0,0c-0.2,0.3-0.4,0.5-0.7,0.7l0,0c-0.2,0.3-0.4,0.5-0.7,0.7l0,0c-0.2,0.3-0.4,0.5-0.7,0.7l0,0
		c-0.2,0.2-0.4,0.5-0.6,0.7v0.1c-0.5,0.3-0.3,0.9-0.7,1.2l0,0c-0.4,0.4-0.3,1-0.7,1.4l0,0c-0.6,2.2-0.5,4.5,0,6.7
		c-0.1,0.2,0,0.4,0.1,0.6c0.5,0.7,0.1,1.5,0.5,2.2c0,0.4,0.1,0.7,0.1,1.1c0.4,1.1,0.4,2.2,0,3.3c-0.1,0.2-0.1,0.4-0.1,0.6
		c-0.6,0.6,0,1.5-0.7,2v-0.1c-0.2,0.2-0.4,0.5-0.5,0.7c-0.1,0.1-0.2,0.2-0.2,0.4c-0.1,0.4-0.3,0.7-0.7,0.9l0,0
		c-0.2,0.3-0.4,0.5-0.7,0.7l0,0c-0.2,0.3-0.4,0.5-0.7,0.7l0.1-0.1c-0.3,0.5-0.9,0.4-1.3,0.8l0,0c-0.3,0.2-0.5,0.5-0.9,0.6
		c-0.2,0-0.3,0-0.4,0.1c-0.3,0.2-0.5,0.4-0.9,0.5h-0.2l-0.2,0.1c-0.4,0.4-1,0.3-1.4,0.6H404l-0.3,0.1c-0.4,0.3-1,0.2-1.4,0.5H402
		l-0.3,0.1c-0.6,0.5-1.5,0.1-2.1,0.6h-0.3l-0.3,0.1c-0.2,0.2-0.5,0.3-0.8,0.3c-0.7,0-1.4-0.1-2,0.3h-0.3l-0.3,0.1
		c-0.2,0.2-0.4,0.3-0.7,0.3c-0.5,0-1,0-1.4,0.3h-0.3l-0.3,0.1c-0.4,0.3-1,0.3-1.5,0.5h-0.3l-0.2,0.1c-0.5,0.3-1,0.3-1.6,0.5
		c-0.4,0.1-0.7,0.1-1.1,0.2c-0.5,0.3-1,0.3-1.5,0.5h-0.2l-0.2,0.1c-0.3,0.3-0.6,0.4-1,0.3c-1.2-0.1-2.5,0.3-3.6-0.3l-0.2-0.1h-0.3
		c-0.3-0.1-0.6-0.3-0.9-0.3c-0.2-0.1-0.4-0.2-0.5-0.4l0,0c-0.2-0.2-0.5-0.3-0.7-0.5c-0.1-0.1-0.3-0.2-0.5-0.2
		c-0.4-0.1-0.7-0.3-0.9-0.6l0,0c-0.3-0.2-0.5-0.4-0.7-0.7l0,0c-0.2-0.2-0.5-0.4-0.7-0.7l0,0c-0.2-0.2-0.5-0.4-0.7-0.7l0,0
		c-0.3-0.2-0.5-0.4-0.7-0.7h0.1c-0.2-0.1-0.4-0.3-0.4-0.6c0-0.3-0.2-0.5-0.3-0.7l0,0c-0.3-0.3-0.5-0.5-0.6-0.9c0-0.2,0-0.3-0.1-0.4
		c-0.2-0.3-0.4-0.5-0.5-0.9c0-0.2,0-0.3-0.2-0.5c-0.2-0.3-0.4-0.5-0.5-0.9c0-0.2,0-0.3-0.1-0.5c-0.2-0.3-0.5-0.5-0.5-0.9
		c0.1-0.2,0-0.3-0.1-0.4c-0.4-0.4-0.2-1-0.6-1.3l0,0c-0.4-0.4-0.3-1-0.6-1.4l0,0c-0.5-0.3-0.4-1-0.7-1.4l0,0
		c-0.2-0.1-0.3-0.3-0.4-0.5c0-0.3-0.2-0.6-0.3-0.9l0,0c-0.5-0.3-0.3-1-0.7-1.3l0,0c-0.2-0.2-0.5-0.4-0.6-0.7l0,0
		c-0.3-0.2-0.6-0.4-0.7-0.7h0.1c-0.3-0.1-0.6-0.4-0.7-0.7v0.1c-0.3-0.1-0.6-0.4-0.7-0.7l0,0c-0.2-0.2-0.5-0.4-0.7-0.5
		c-0.1-0.1-0.3-0.2-0.5-0.1c-0.5-0.3-1.1-0.3-1.6-0.3s-1.1,0-1.6,0s-1.1-0.1-1.5,0.4l0,0c-0.4,0.4-1,0.2-1.3,0.7l0,0
		c-0.3,0.2-0.5,0.5-0.9,0.6c-0.2,0-0.3,0-0.4,0.2c-0.2,0.2-0.5,0.4-0.7,0.5l0,0c-0.3,0.5-1,0.3-1.2,0.8h-0.1
		c-0.3,0.2-0.5,0.4-0.7,0.6l0,0c-0.2,0.3-0.5,0.6-0.9,0.6c-0.2,0-0.3,0-0.4,0.2c-0.2,0.2-0.5,0.4-0.7,0.5l0,0
		c-0.2,0.3-0.5,0.6-0.9,0.6c-0.2,0-0.3,0-0.4,0.2c-0.2,0.2-0.5,0.4-0.7,0.5l0,0c-0.3,0.5-1,0.3-1.3,0.7l0,0c-0.4,0.4-1,0.3-1.3,0.7
		l0,0c-0.4,0.4-1,0.3-1.4,0.6h-0.3l-0.3,0.1c-0.5,0.3-1,0.3-1.5,0.5l-0.2-0.1l-0.2,0.1c-0.4,0.4-0.9,0.4-1.3,0.4c-0.6,0-1.3,0-1.9,0
		c-0.5,0-1,0.1-1.4-0.3c-0.4,0-0.7,0-1.1-0.1c-0.7-0.4-1.5-0.1-2.2-0.5c-0.4-0.1-0.8-0.1-1.1-0.2c-0.5-0.2-1-0.2-1.5-0.5l-0.3-0.1
		H333c-0.4-0.3-0.9-0.3-1.4-0.3c-0.2,0-0.5-0.1-0.6-0.3l0,0c-0.4-0.4-0.9-0.3-1.4-0.3c-0.2,0-0.5-0.2-0.6-0.3l0,0
		c-0.4-0.4-0.9-0.3-1.4-0.3c-0.2,0-0.5-0.2-0.6-0.3l0,0c-0.4-0.3-0.9-0.3-1.4-0.3c-0.2,0-0.5-0.2-0.6-0.3l0,0
		c-0.4-0.3-0.9-0.3-1.4-0.3c-0.2,0-0.5-0.2-0.6-0.3l0,0c-0.4-0.3-0.9-0.3-1.4-0.3c-0.2,0-0.5-0.1-0.6-0.3l-0.2-0.1h-0.3
		c-0.5-0.2-1-0.3-1.5-0.3c-0.3,0-0.5-0.1-0.7-0.3c-0.4,0-0.7-0.1-1.1-0.1c-1.9-0.4-3.8-0.5-5.6,0h-0.3l-0.2,0.1
		c-0.2,0.2-0.4,0.3-0.6,0.3c-0.5,0-1,0-1.3,0.4l0,0c-0.4,0.4-1,0.2-1.3,0.7l0,0c-0.3,0.3-0.5,0.5-0.9,0.6c-0.2,0-0.4,0.1-0.5,0.2
		c-0.2,0.1-0.4,0.3-0.6,0.5l0,0c-0.3,0.2-0.5,0.4-0.7,0.6l0,0c-0.2,0.2-0.4,0.5-0.7,0.7l0,0c-0.2,0.2-0.4,0.4-0.6,0.7
		c-0.1,0.1-0.2,0.3-0.2,0.4c-0.1,0.4-0.3,0.6-0.5,0.9c-0.1,0.1-0.2,0.3-0.1,0.5c-0.3,0.5-0.2,1.1-0.6,1.5c-0.1,0.1-0.2,0.3-0.1,0.5
		c-0.2,0.5-0.2,1-0.5,1.5c-0.1,0.2-0.1,0.4-0.1,0.6c-0.7,0.8,0,1.9-0.6,2.7c-0.1,0.2-0.1,0.3-0.1,0.5c-0.5,0.6-0.1,1.5-0.5,2.1
		c0,0.2-0.1,0.4-0.1,0.6c-0.7,0.8,0,1.9-0.6,2.7c-0.1,0.1-0.1,0.3-0.1,0.5c-0.2,0.5-0.3,1-0.3,1.5c0,0.3-0.2,0.5-0.3,0.7l0,0
		c-0.6,0.6,0,1.5-0.7,2l0,0c-0.3,0.4-0.2,1-0.6,1.4c-0.1,0.1-0.2,0.2-0.1,0.4c-0.1,0.4-0.3,0.7-0.5,0.9l0,0
		c-0.4,0.3-0.3,0.9-0.7,1.3l0,0c-0.2,0.2-0.4,0.4-0.5,0.7c-0.1,0.1-0.2,0.2-0.2,0.4c-0.1,0.4-0.3,0.7-0.7,0.9v-0.1
		c-0.2,0.3-0.4,0.6-0.7,0.7l0,0c-0.2,0.3-0.4,0.6-0.7,0.7l0.1-0.1c-0.2,0.5-0.9,0.4-1.2,0.8l0,0c-0.3,0.2-0.5,0.5-0.9,0.6
		c-0.2,0-0.4,0-0.5,0.2c-0.3,0.2-0.5,0.4-0.9,0.5h-0.2l-0.2,0.1c-0.2,0.2-0.5,0.3-0.8,0.3c-0.8,0-1.5,0-2.3,0
		c-0.3,0-0.6-0.1-0.8-0.3l-0.3-0.1h-0.3c-0.4-0.3-1-0.2-1.4-0.5c-0.2,0-0.4-0.1-0.7-0.1c-0.5-0.6-1.4-0.1-2-0.6c-0.2,0-0.4,0-0.7,0
		c-0.2,0.2-0.4,0.4-0.7,0.6l0,0c-0.2,0.3-0.4,0.5-0.6,0.7l0,0c-0.2,0.2-0.4,0.4-0.5,0.7c-0.2,0.1-0.2,0.3-0.2,0.5
		c-0.1,0.4-0.3,0.6-0.6,0.9l0,0c-0.4,0.3-0.3,1-0.7,1.3l0,0c-0.2,0.2-0.4,0.5-0.5,0.7c-0.1,0.1-0.2,0.3-0.2,0.4
		c-0.1,0.4-0.3,0.6-0.6,0.9c-0.4,0.3-0.3,1-0.8,1.3l0.1-0.1c-0.1,0.3-0.4,0.5-0.6,0.7l0,0c-0.2,0.3-0.4,0.5-0.6,0.7l0,0
		c-0.2,0.2-0.4,0.4-0.6,0.6l-0.1,0.1c-0.3,0.1-0.5,0.3-0.6,0.6l-0.1,0.1c-0.3,0.2-0.5,0.3-0.7,0.6l0,0c-0.3,0.2-0.5,0.4-0.7,0.6l0,0
		c-0.3,0.5-1,0.3-1.3,0.7l0,0c-0.4,0.3-1,0.2-1.3,0.6l0,0c-0.6,0.6-1.5,0.2-2.2,0.6c-1,0-2,0-3,0c-0.6-0.5-1.5-0.1-2.1-0.5l-0.3-0.1
		h-0.3c-0.4-0.3-1.1-0.2-1.5-0.6l0,0c-0.4-0.4-1-0.3-1.3-0.7l0,0c-0.2-0.2-0.4-0.4-0.7-0.5c-0.1-0.1-0.3-0.2-0.4-0.2
		c-0.4-0.1-0.7-0.3-0.9-0.6l0,0c-0.3-0.2-0.4-0.4-0.7-0.6l0,0c-0.3-0.5-1-0.3-1.2-0.8l0.1,0.1c-0.3-0.1-0.5-0.4-0.7-0.7l0,0
		c-0.3-0.2-0.5-0.4-0.7-0.6l0,0c-0.2-0.2-0.4-0.4-0.6-0.5c-0.1-0.2-0.2-0.2-0.4-0.2c-0.4-0.1-0.7-0.3-0.9-0.6l0,0
		c-0.3-0.2-0.5-0.4-0.7-0.6h-0.1c-0.3-0.5-0.9-0.3-1.2-0.7l0,0c-0.4-0.4-1-0.3-1.3-0.6l-0.3-0.1h-0.3c-1.3-0.4-2.7-0.6-4,0.1H243
		c-0.7,0.4-0.1,1.4-0.6,1.9c0,0.6-0.1,1.2-0.1,1.9c-0.7,1.3,0.1,2.8-0.6,4.1c-0.1,0.2-0.1,0.4-0.1,0.6c-0.6,0.6,0,1.5-0.7,2l0,0
		c-0.4,0.4-0.2,1-0.7,1.3l0,0c-0.2,0.3-0.4,0.5-0.6,0.7v0.1c-0.5,0.2-0.3,1-0.8,1.2l0.1-0.1c-0.2,0.5-0.9,0.4-1.2,0.8l0,0
		c-0.3,0.2-0.5,0.4-0.7,0.6l0,0c-0.4,0.5-1,0.4-1.4,0.7c-0.2,0-0.4,0-0.6,0.1c-0.4,0.3-1,0.3-1.5,0.5h-0.3l-0.2,0.1
		c-0.2,0.2-0.5,0.3-0.8,0.3C230.9,125.8,230,125.5,229.2,126z"/>
	<path class="st1" d="M214.2,126.1c3.7,0,7.5,0,11.2,0c0.2,0.1,0.3,0.3,0.2,0.4c-0.1,0.1-0.1,0.2-0.2,0.2c-3.7,0-7.5,0-11.2,0
		c-0.2-0.1-0.3-0.3-0.2-0.4C214,126.2,214.1,126.1,214.2,126.1z"/>
	<path class="st1" d="M203.4,126.6c2.6-1.1,5.4-0.5,8.1-0.5c0.2,0.1,0.3,0.3,0.2,0.4c-0.1,0.1-0.1,0.2-0.2,0.2
		C208.8,126.7,206.1,126.6,203.4,126.6z"/>
	<path class="st1" d="M247.1,101.5c-1.7,0-3.5,0-5.2,0C243.7,100.6,245.4,100.6,247.1,101.5z"/>
	<path class="st1" d="M185.1,131.3c0,1.5,0,3.1,0,4.6C184.1,134.4,184.1,132.9,185.1,131.3z"/>
	<path class="st1" d="M190.9,151.7c1.5-1.1,3.2-0.2,4.8-0.5C194.2,152.3,192.5,151.6,190.9,151.7z"/>
	<path class="st1" d="M234.6,110.9c0,1.6,0.3,3.2-0.6,4.7C234.2,114,233.4,112.3,234.6,110.9z"/>
	<path class="st1" d="M242.6,108.9c1.3-1.1,2.6-0.7,4-0.1C245.3,108.9,244,108.9,242.6,108.9z"/>
	<path class="st1" d="M241.3,116.8c0.1-1.4-0.2-2.8,0.6-4.1C241.7,114.1,242.4,115.5,241.3,116.8z"/>
	<path class="st1" d="M151,153.2c-1.1,0.7-2.3,0.6-3.5,0.5C148.6,152.7,149.8,153.2,151,153.2z"/>
	<path class="st1" d="M197.7,149.1c0-1.1,0-2.2,0-3.3C198.6,146.9,198.6,148,197.7,149.1z"/>
	<path class="st1" d="M206.4,118.8c-1.1,0.7-2.3,0.6-3.5,0.5c-0.1-0.1-0.2-0.2-0.1-0.4c0-0.1,0.1-0.2,0.1-0.2
		C204.1,118.8,205.3,118.8,206.4,118.8z"/>
	<path class="st1" d="M154.6,160.3c0.9-0.7,1.8-0.6,2.8-0.5c0.1,0.1,0.2,0.3,0.1,0.4c0,0.1-0.1,0.2-0.1,0.2
		C156.5,160.3,155.5,160.3,154.6,160.3z"/>
	<path class="st1" d="M235.3,106.9c-0.1,0.9,0,1.9-0.7,2.7C234.7,108.7,234.3,107.6,235.3,106.9z"/>
	<path class="st2" d="M225.4,126.7c0-0.2,0-0.4,0-0.6c0.9,0,1.8-0.1,2.6-0.1C227.3,127,226.3,126.6,225.4,126.7z"/>
	<path class="st2" d="M211.5,126.7c0-0.2,0-0.4,0-0.6c0.9,0,1.8,0,2.6,0c0,0.2,0,0.4,0,0.6C213.3,126.7,212.4,126.7,211.5,126.7z"/>
	<path class="st1" d="M229.2,126c0.9-0.6,1.8-0.6,2.8-0.5c0.1,0.1,0.2,0.3,0.1,0.4c0,0.1-0.1,0.2-0.1,0.2
		C231,126,230.1,126,229.2,126z"/>
	<path class="st1" d="M156.2,152.5c-0.6,0.5-1.4,0.6-2.1,0.5c-0.1-0.1-0.2-0.2-0.1-0.4c0-0.1,0.1-0.2,0.1-0.2
		C154.8,152.4,155.5,152.5,156.2,152.5z"/>
	<path class="st1" d="M160.2,151.8c-0.6,0.5-1.3,0.6-2.1,0.5C158.7,151.6,159.4,151.8,160.2,151.8z"/>
	<path class="st1" d="M171.8,157c0.6-0.6,1.4-0.6,2.1-0.6C173.3,157.2,172.5,157,171.8,157z"/>
	<path class="st1" d="M241.9,110.8c-0.1-0.7-0.2-1.5,0.6-1.9C242.5,109.6,242.6,110.4,241.9,110.8z"/>
	<path class="st1" d="M165.8,158.3c0.6-0.6,1.3-0.6,2.1-0.5c0.1,0.1,0.2,0.3,0.1,0.4c0,0.1-0.1,0.2-0.1,0.2
		C167.3,158.4,166.5,158.3,165.8,158.3z"/>
	<path class="st1" d="M199.5,127.3c0.6-0.6,1.4-0.6,2.1-0.5c0.1,0.1,0.2,0.3,0.1,0.4c0,0.1-0.1,0.2-0.1,0.2
		C200.9,127.3,200.2,127.3,199.5,127.3z"/>
	<path class="st1" d="M192.4,134.6c-0.7-0.7-0.7-1.4,0-2.1C192.4,133.2,192.4,133.9,192.4,134.6z"/>
	<path class="st1" d="M200.4,119.5c-0.6,0.5-1.3,0.6-2.1,0.5C198.9,119.3,199.7,119.4,200.4,119.5z"/>
	<path class="st1" d="M230.9,118.2c-0.6,0.6-1.4,0.6-2.1,0.5C229.3,117.9,230.1,118.1,230.9,118.2z"/>
	<path class="st1" d="M240.5,119.4c0-0.7,0.1-1.5,0.7-2C241.2,118.1,241.4,118.9,240.5,119.4z"/>
	<path class="st1" d="M159.2,159.6c0.6-0.6,1.4-0.6,2.2-0.5c0.1,0.1,0.2,0.3,0.1,0.4c0,0.1-0.1,0.2-0.1,0.2
		C160.6,159.7,159.9,159.6,159.2,159.6z"/>
	<path class="st1" d="M162.5,159c0.6-0.5,1.3-0.6,2.1-0.5c0.1,0.1,0.2,0.3,0.1,0.4c0,0.1-0.1,0.2-0.1,0.2
		C164,159,163.2,159,162.5,159z"/>
	<path class="st1" d="M166.8,150.5c-0.4,0.4-0.9,0.6-1.5,0.5c-0.1-0.1-0.2-0.2-0.1-0.3c0-0.1,0.1-0.2,0.1-0.2
		C165.8,150.5,166.3,150.5,166.8,150.5z"/>
	<path class="st1" d="M163.5,151.2c-0.4,0.4-0.9,0.5-1.5,0.5c-0.1-0.1-0.2-0.2-0.1-0.4c0-0.1,0.1-0.2,0.1-0.2
		C162.5,151.1,163,151.2,163.5,151.2z"/>
	<path class="st1" d="M174.8,148.5c-0.4,0.5-0.9,0.6-1.5,0.5C173.6,148.5,174.2,148.5,174.8,148.5z"/>
	<path class="st1" d="M172.2,149.2c-0.4,0.5-0.9,0.6-1.5,0.5C171,149.1,171.6,149.1,172.2,149.2z"/>
	<path class="st1" d="M169.5,149.9c-0.4,0.5-0.9,0.6-1.5,0.5C168.4,149.8,168.9,149.8,169.5,149.9z"/>
	<path class="st1" d="M181.7,154.4c0.4-0.4,0.9-0.6,1.5-0.5C182.8,154.4,182.2,154.4,181.7,154.4z"/>
	<path class="st1" d="M179.6,155c0.4-0.5,1-0.6,1.6-0.5C180.8,155,180.2,155.1,179.6,155z"/>
	<path class="st1" d="M177,155.7c0.4-0.4,0.9-0.6,1.5-0.5C178.1,155.7,177.6,155.7,177,155.7z"/>
	<path class="st1" d="M174.4,156.3c0.4-0.4,0.9-0.6,1.5-0.5c0.1,0.1,0.2,0.2,0.1,0.4c0,0.1-0.1,0.2-0.1,0.2
		C175.4,156.4,174.9,156.4,174.4,156.3z"/>
	<path class="st1" d="M188.3,152.4c0.4-0.4,0.9-0.6,1.5-0.5c0.1,0.1,0.2,0.2,0.1,0.4c0,0.1-0.1,0.2-0.1,0.2
		C189.3,152.4,188.8,152.4,188.3,152.4z"/>
	<path class="st1" d="M186.2,153c0.4-0.5,1-0.6,1.5-0.5C187.4,153.1,186.8,153.1,186.2,153z"/>
	<path class="st1" d="M183.7,153.7c0.4-0.4,0.8-0.6,1.4-0.5c0.1,0.1,0.2,0.2,0.1,0.4c0,0.1-0.1,0.2-0.1,0.2
		C184.7,153.7,184.2,153.7,183.7,153.7z"/>
	<path class="st1" d="M197.2,120.2c-0.4,0.5-0.9,0.6-1.5,0.5C196.1,120.1,196.6,120.1,197.2,120.2z"/>
	<path class="st1" d="M239.8,120.7c0-0.5,0.2-1,0.7-1.3C240.5,120,240.4,120.5,239.8,120.7z"/>
	<path class="st1" d="M185.2,136.5c0.5,0.4,0.6,0.9,0.5,1.4C185.2,137.5,185.1,137,185.2,136.5z"/>
	<path class="st1" d="M193.7,137.9c-0.5-0.3-0.7-0.7-0.7-1.3C193.6,136.9,193.7,137.3,193.7,137.9z"/>
	<path class="st1" d="M233.9,116.1c0.1,0.5-0.1,0.9-0.6,1.1C233.3,116.8,233.4,116.4,233.9,116.1z"/>
	<path class="st1" d="M185.8,138.5c0.5,0.4,0.6,0.9,0.6,1.4C185.9,139.6,185.8,139,185.8,138.5z"/>
	<path class="st1" d="M186.5,139.9c0.5,0.3,0.7,0.8,0.7,1.3C186.6,140.9,186.5,140.4,186.5,139.9z"/>
	<path class="st1" d="M195.7,141.2c-0.5-0.3-0.7-0.8-0.7-1.3C195.5,140.2,195.7,140.7,195.7,141.2z"/>
	<path class="st1" d="M253.8,113.4c0.5,0.1,1,0.3,1.2,0.8C254.5,114.1,254,114,253.8,113.4z"/>
	<path class="st1" d="M185.7,129.4c0,0.5-0.1,1-0.5,1.4C185.1,130.2,185.2,129.7,185.7,129.4z"/>
	<path class="st1" d="M195.7,128.7c0.3-0.5,0.7-0.7,1.3-0.6C196.7,128.5,196.2,128.7,195.7,128.7z"/>
	<path class="st1" d="M197.4,127.9c0.4-0.5,1-0.6,1.5-0.5C198.6,128,198,128,197.4,127.9z"/>
	<path class="st1" d="M233.1,125.3c0.4-0.4,0.9-0.6,1.5-0.5C234.2,125.3,233.7,125.4,233.1,125.3z"/>
	<path class="st1" d="M235.2,124.7c0.4-0.5,0.9-0.6,1.4-0.7C236.3,124.6,235.8,124.7,235.2,124.7z"/>
	<path class="st1" d="M237.3,123.4c0.3-0.5,0.6-0.8,1.2-0.8C238.4,123.2,237.9,123.4,237.3,123.4z"/>
	<path class="st1" d="M238.4,122.7c0.1-0.5,0.4-0.9,0.8-1.2C239.2,122,239.1,122.5,238.4,122.7z"/>
	<path class="st1" d="M193.1,136.6c-0.5-0.3-0.6-0.8-0.6-1.3c0.2-0.2,0.4-0.2,0.6,0C193,135.7,193,136.1,193.1,136.6z"/>
	<path class="st1" d="M235.9,105.6c0,0.5-0.2,1-0.6,1.4C235.3,106.4,235.4,105.9,235.9,105.6z"/>
	<path class="st1" d="M186.5,145.2c-0.4,0.4-0.8,0.6-1.3,0.5C185.5,145.2,186,145.2,186.5,145.2z"/>
	<path class="st1" d="M184,145.9c-0.4,0.5-0.9,0.6-1.5,0.5C182.9,145.9,183.4,145.8,184,145.9z"/>
	<path class="st1" d="M236.7,104.3c-0.1,0.5-0.3,1-0.8,1.3C236,105,236.1,104.5,236.7,104.3z"/>
	<path class="st1" d="M181.9,146.5c-0.4,0.4-0.8,0.6-1.4,0.5C180.9,146.6,181.4,146.5,181.9,146.5z"/>
	<path class="st1" d="M253.1,103.6c-0.5,0-1-0.2-1.3-0.7C252.3,102.9,252.8,103.1,253.1,103.6z"/>
	<path class="st1" d="M251.8,102.9c-0.6,0-1-0.2-1.3-0.6C251,102.3,251.5,102.4,251.8,102.9z"/>
	<path class="st1" d="M179.9,147.2c-0.4,0.4-0.8,0.6-1.3,0.5l-0.2-0.3l0.2-0.3C179,147.2,179.4,147.2,179.9,147.2z"/>
	<path class="st1" d="M249.8,102.1c-0.5,0.1-1-0.1-1.3-0.5C248.9,101.6,249.4,101.7,249.8,102.1z"/>
	<path class="st1" d="M240.7,101.7c-0.4,0.5-0.9,0.6-1.5,0.6C239.6,101.7,240.1,101.6,240.7,101.7z"/>
	<path class="st1" d="M177.4,147.9c-0.4,0.4-0.9,0.6-1.5,0.5C176.3,147.9,176.8,147.8,177.4,147.9z"/>
	<path class="st1" d="M187.1,141.2c0.5,0.3,0.7,0.8,0.7,1.3C187.2,142.3,187.1,141.7,187.1,141.2z"/>
	<path class="st1" d="M196.4,142.5c-0.5-0.3-0.7-0.8-0.7-1.3C196.2,141.5,196.3,142,196.4,142.5z"/>
	<path class="st1" d="M248.5,109.5c0.5,0,1,0.2,1.2,0.7C249.2,110.2,248.7,110,248.5,109.5z"/>
	<path class="st1" d="M247.2,108.9c0.6,0,1,0.1,1.3,0.6C248,109.5,247.5,109.4,247.2,108.9z"/>
	<path class="st1" d="M197,143.9c-0.5-0.3-0.6-0.8-0.6-1.3C196.9,142.8,197,143.3,197,143.9z"/>
	<path class="st1" d="M197.6,145.3c-0.5-0.4-0.6-0.9-0.6-1.5C197.6,144.2,197.7,144.7,197.6,145.3z"/>
	<path class="st1" d="M188.5,144.6c-0.3,0.5-0.8,0.6-1.4,0.5C187.5,144.6,187.9,144.5,188.5,144.6z"/>
	<path class="st1" d="M169.1,157.6c0.4-0.5,1-0.6,1.5-0.5c0.1,0.1,0.2,0.2,0.1,0.4c0,0.1-0.1,0.2-0.1,0.2
		C170.1,157.7,169.6,157.7,169.1,157.6z"/>
	<path class="st1" d="M255.8,114.8c0.3,0.2,0.6,0.4,0.9,0.6C256.2,115.4,255.9,115.2,255.8,114.8z"/>
	<path class="st1" d="M255.1,114.2c0.4,0,0.6,0.2,0.7,0.6C255.5,114.6,255.3,114.4,255.1,114.2z"/>
	<path class="st2" d="M202.9,118.8c0,0.2,0,0.4,0,0.5l-0.3,0.1l-0.3-0.1C202.5,119.1,202.7,119,202.9,118.8z"/>
	<path class="st1" d="M256.4,106.1c-0.3,0-0.5-0.2-0.6-0.5C256,105.7,256.2,105.9,256.4,106.1z"/>
	<path class="st1" d="M232.9,117.5c-0.2,0.3-0.5,0.5-0.9,0.5C232.2,117.7,232.5,117.5,232.9,117.5z"/>
	<path class="st1" d="M249.8,110.3c0.4,0,0.6,0.2,0.7,0.6C250.3,110.6,250,110.4,249.8,110.3z"/>
	<path class="st1" d="M252.4,112.2c0.4,0.1,0.6,0.3,0.7,0.6C252.9,112.6,252.7,112.4,252.4,112.2z"/>
	<path class="st1" d="M253.1,112.8c0.4,0.1,0.6,0.3,0.7,0.7C253.5,113.4,253.2,113.1,253.1,112.8z"/>
	<path class="st1" d="M250.5,110.8c0.3,0.2,0.6,0.4,0.9,0.6C251,111.4,250.6,111.2,250.5,110.8z"/>
	<path class="st1" d="M251.8,111.7c0.3,0,0.5,0.2,0.6,0.5C252.2,112,252,111.8,251.8,111.7z"/>
	<path class="st2" d="M201.6,127.3c0-0.2,0-0.4,0-0.6c0.2,0,0.4,0,0.7-0.1C202.1,126.9,201.8,127.1,201.6,127.3z"/>
	<path class="st1" d="M187.2,126.7c-0.2,0.3-0.4,0.6-0.6,0.9C186.6,127.2,186.8,126.9,187.2,126.7z"/>
	<path class="st1" d="M195,129.3c0.1-0.4,0.4-0.6,0.7-0.6C195.4,128.9,195.2,129.1,195,129.3z"/>
	<path class="st1" d="M186.4,128c-0.2,0.3-0.3,0.5-0.5,0.8C186,128.6,186.2,128.3,186.4,128z"/>
	<path class="st1" d="M192.4,122.1c-0.1,0.3-0.3,0.5-0.7,0.5C192,122.4,192.2,122.3,192.4,122.1z"/>
	<path class="st1" d="M191.3,122.8c-0.3,0.2-0.6,0.4-0.9,0.6C190.6,123.1,190.9,122.8,191.3,122.8z"/>
	<path class="st1" d="M190.5,123.4c-0.1,0.3-0.4,0.6-0.7,0.6C190,123.8,190.2,123.6,190.5,123.4z"/>
	<path class="st1" d="M236.5,124c0.1-0.3,0.4-0.5,0.7-0.6C237,123.6,236.8,123.8,236.5,124z"/>
	<path class="st1" d="M189.7,124c-0.1,0.3-0.3,0.5-0.7,0.6C189.3,124.5,189.5,124.3,189.7,124z"/>
	<path class="st1" d="M195.2,120.8c-0.2,0.3-0.5,0.5-0.8,0.5C194.7,121.1,194.9,121,195.2,120.8z"/>
	<path class="st1" d="M239.3,121.4c0-0.4,0.2-0.6,0.6-0.7C239.7,120.9,239.5,121.2,239.3,121.4z"/>
	<path class="st2" d="M193,121.9c-0.2,0.1-0.4,0.1-0.6,0.2c0.2-0.2,0.4-0.5,0.6-0.7c0.2,0.1,0.2,0.2,0.2,0.3
		C193.1,121.8,193.1,121.9,193,121.9z"/>
	<path class="st1" d="M193,121.9c0-0.2,0-0.3,0-0.5c0.2,0,0.5,0,0.7,0C193.6,121.7,193.4,121.9,193,121.9z"/>
	<path class="st1" d="M187.7,126c-0.1,0.4-0.3,0.6-0.6,0.7C187.3,126.5,187.5,126.3,187.7,126z"/>
	<path class="st1" d="M189,124.7c-0.1,0.3-0.3,0.5-0.6,0.6C188.6,125.1,188.8,124.9,189,124.7z"/>
	<path class="st1" d="M188.4,125.4c-0.1,0.3-0.3,0.6-0.6,0.7C188,125.8,188.2,125.6,188.4,125.4z"/>
	<path class="st2" d="M232,126c0-0.2,0-0.4,0-0.6c0.2,0,0.4,0,0.7-0.1C232.4,125.6,232.2,125.8,232,126z"/>
	<path class="st2" d="M238.6,102.8c-0.2,0.1-0.4,0.2-0.6,0.3c0.2-0.2,0.4-0.5,0.6-0.7c0.2,0.1,0.2,0.2,0.2,0.3
		C238.7,102.7,238.6,102.8,238.6,102.8z"/>
	<path class="st1" d="M238.6,102.8c0-0.2,0-0.3,0-0.5c0.2,0,0.5,0,0.7,0C239,102.4,238.8,102.6,238.6,102.8z"/>
	<path class="st1" d="M238,103c-0.1,0.4-0.4,0.6-0.7,0.7C237.4,103.3,237.6,103.1,238,103z"/>
	<path class="st1" d="M255.7,105.5c-0.4-0.1-0.6-0.3-0.7-0.6C255.3,105.1,255.5,105.3,255.7,105.5z"/>
	<path class="st1" d="M237.3,103.6c-0.1,0.4-0.3,0.6-0.7,0.7C236.7,104,237,103.7,237.3,103.6z"/>
	<path class="st1" d="M253.7,104.1c-0.4,0-0.6-0.2-0.7-0.5C253.3,103.8,253.5,104,253.7,104.1z"/>
	<path class="st1" d="M255.1,105c-0.3-0.2-0.6-0.4-0.9-0.6C254.6,104.4,254.9,104.6,255.1,105z"/>
	<path class="st2" d="M189.7,152.4c0-0.2,0-0.4,0-0.6c0.2,0,0.4-0.1,0.7-0.1C190.2,152,190,152.2,189.7,152.4z"/>
	<path class="st2" d="M154.1,152.4c0,0.2,0,0.4,0,0.5l-0.3,0.1h-0.3C153.7,152.8,153.9,152.6,154.1,152.4z"/>
	<path class="st1" d="M196.1,151c0.3-0.2,0.6-0.4,0.9-0.7C196.8,150.8,196.5,151,196.1,151z"/>
	<path class="st2" d="M162,151.1c0,0.2,0,0.4,0,0.5c-0.2,0-0.4,0-0.6,0.1C161.6,151.5,161.8,151.3,162,151.1z"/>
	<path class="st2" d="M185.1,153.7c0-0.2,0-0.4,0-0.5c0.2,0,0.4-0.1,0.7-0.1C185.6,153.3,185.3,153.5,185.1,153.7z"/>
	<path class="st1" d="M196.9,150.4c0.2-0.3,0.4-0.6,0.7-0.9C197.5,150,197.3,150.3,196.9,150.4z"/>
	<path class="st2" d="M165.3,150.5c0,0.2,0,0.3,0,0.5c-0.2,0-0.4,0-0.6,0.1C164.9,150.8,165.1,150.6,165.3,150.5z"/>
	<path class="st2" d="M157.4,160.3c0-0.2,0-0.4,0-0.6c0.2,0,0.4,0,0.7-0.1C157.8,159.9,157.6,160.1,157.4,160.3z"/>
	<path class="st2" d="M175.9,156.4c0-0.2,0-0.4,0-0.5c0.2,0,0.4-0.1,0.7-0.1C176.3,156,176.1,156.2,175.9,156.4z"/>
	<path class="st2" d="M164.7,159c0-0.2,0-0.4,0-0.6c0.2,0,0.4,0,0.7-0.1C165.1,158.6,164.9,158.8,164.7,159z"/>
	<path class="st2" d="M161.4,159.7c0-0.2,0-0.4,0-0.6c0.2,0,0.4,0,0.7-0.1C161.8,159.3,161.6,159.5,161.4,159.7z"/>
	<path class="st2" d="M170.6,157.7c0-0.2,0-0.4,0-0.6c0.2,0,0.4-0.1,0.7-0.1C171,157.3,170.8,157.5,170.6,157.7z"/>
	<path class="st2" d="M168,158.4c0-0.2,0-0.4,0-0.6c0.2,0,0.4-0.1,0.7-0.1C168.4,157.9,168.2,158.1,168,158.4z"/>
	<path class="st2" d="M193,135.3h-0.3h-0.3c0-0.2-0.1-0.4-0.1-0.6C192.6,134.8,192.8,135.1,193,135.3z"/>
	<path class="st1" d="M194.3,138.8c-0.3-0.2-0.5-0.5-0.6-0.9C194.1,138.1,194.3,138.4,194.3,138.8z"/>
	<path class="st1" d="M193,131.3c0.1-0.4,0.3-0.6,0.7-0.7C193.6,130.9,193.3,131.2,193,131.3z"/>
	<path class="st1" d="M194.3,129.9c0.1-0.4,0.4-0.6,0.7-0.7C194.9,129.6,194.6,129.9,194.3,129.9z"/>
	<path class="st1" d="M193.6,130.6c0.1-0.4,0.3-0.6,0.7-0.7C194.2,130.3,194,130.5,193.6,130.6z"/>
	<path class="st1" d="M192.5,131.9c0-0.4,0.2-0.6,0.5-0.7C192.8,131.5,192.7,131.7,192.5,131.9z"/>
	<path class="st2" d="M178.5,147.2c0,0.2,0,0.3,0,0.5c-0.2,0-0.4,0.1-0.7,0.1C178.1,147.6,178.3,147.4,178.5,147.2z"/>
	<path class="st1" d="M195,140c-0.3-0.1-0.5-0.3-0.5-0.7C194.6,139.5,194.8,139.7,195,140z"/>
	<path class="st1" d="M188.5,143.6c0.4,0.3,0.7,0.7,0,1C188.5,144.3,188.5,143.9,188.5,143.6z"/>
	<path class="st1" d="M187.8,142.5c0.4,0.1,0.5,0.4,0.5,0.7C188.2,142.9,188,142.7,187.8,142.5z"/>
</g>
</svg>
