<svg viewBox="0 0 576 487">
<style type="text/css">
	.st0{fill:#FDFDFD;}
	.st1{fill:#FFFFFF;}
	.st2{fill:#EA7175;}
</style>
<path class="st0" d="M221.7,396.7c0.8,0,1.5,0.1,2.1,0.6C223.1,397.3,222.3,397.5,221.7,396.7z"/>
<path class="st0" d="M203.9,378.1c-0.6,0-1.3,0-1.9,0C202.6,377.4,203.3,377.4,203.9,378.1z"/>
<path class="st0" d="M223.7,389.5c-0.5,0-1-0.2-1.3-0.7C223,388.8,223.5,388.9,223.7,389.5z"/>
<path class="st0" d="M207.9,388.7c0.5,0,1,0.2,1.3,0.7C208.6,389.4,208.1,389.3,207.9,388.7z"/>
<path class="st0" d="M219.1,386.8c-0.5,0-1-0.3-1.3-0.7C218.4,386.1,218.9,386.3,219.1,386.8z"/>
<path class="st0" d="M205.9,378.9c-0.6,0-1-0.2-1.4-0.7C205.1,378.2,205.6,378.3,205.9,378.9z"/>
<path class="st0" d="M220.4,396c0.5,0,1,0.2,1.3,0.6C221.2,396.7,220.7,396.6,220.4,396z"/>
<path class="st0" d="M219.1,395.3c0.5,0,1,0.2,1.3,0.7C219.9,396,219.4,395.9,219.1,395.3z"/>
<path class="st0" d="M217.8,394.6c0.5,0,1,0.2,1.3,0.7C218.6,395.3,218.1,395.2,217.8,394.6z"/>
<path class="st0" d="M214.5,392.7c0.5,0,1,0.2,1.3,0.7C215.2,393.4,214.7,393.2,214.5,392.7z"/>
<path class="st0" d="M211.2,390.7c0.5,0,1,0.2,1.3,0.7C211.9,391.4,211.4,391.2,211.2,390.7z"/>
<path class="st0" d="M205.3,387c0.3,0,0.5,0.2,0.6,0.5C205.7,387.3,205.5,387.1,205.3,387z"/>
<path class="st0" d="M201.8,387.4c0.1-0.4,0.3-0.6,0.7-0.7C202.5,387.1,202.2,387.3,201.8,387.4z"/>
<path class="st0" d="M203.9,386.2c0.4,0,0.6,0.2,0.8,0.5C204.5,386.6,204.2,386.4,203.9,386.2z"/>
<path class="st0" d="M202.5,386.7c0.1-0.4,0.3-0.6,0.8-0.6C203,386.3,202.8,386.5,202.5,386.7z"/>
<path class="st0" d="M217.8,386.1c-0.4,0-0.7-0.2-0.8-0.6C217.2,385.7,217.5,385.9,217.8,386.1z"/>
<path class="st0" d="M216.4,385.3c-0.3,0-0.5-0.2-0.7-0.5C216,385,216.2,385.1,216.4,385.3z"/>
<path class="st0" d="M215.8,384.8c-0.4-0.1-0.7-0.3-0.9-0.6C215.3,384.2,215.6,384.4,215.8,384.8z"/>
<path class="st0" d="M209.2,389.4c0.4,0,0.7,0.2,0.9,0.6C209.7,390,209.4,389.8,209.2,389.4z"/>
<path class="st0" d="M222.4,388.8c-0.4,0-0.7-0.2-0.9-0.6C221.9,388.2,222.2,388.4,222.4,388.8z"/>
<path class="st0" d="M207.2,388.2c0.4,0,0.6,0.2,0.7,0.5C207.7,388.5,207.5,388.4,207.2,388.2z"/>
<path class="st0" d="M221.1,388c-0.4,0-0.6-0.2-0.8-0.5C220.5,387.7,220.8,387.8,221.1,388z"/>
<path class="st0" d="M205.9,387.4c0.4,0.1,0.7,0.2,0.9,0.6C206.4,388,206.1,387.8,205.9,387.4z"/>
<path class="st0" d="M201.2,388.1c0.1-0.4,0.3-0.6,0.7-0.7C201.8,387.7,201.6,388,201.2,388.1z"/>
<path class="st0" d="M219.7,387.3c-0.3,0-0.5-0.2-0.7-0.5C219.3,387,219.5,387.1,219.7,387.3z"/>
<path class="st0" d="M209.2,380.8c-0.4,0-0.7-0.2-0.9-0.6C208.7,380.3,209,380.5,209.2,380.8z"/>
<path class="st0" d="M207.9,380.1c-0.4,0-0.6-0.2-0.7-0.5C207.4,379.7,207.6,379.9,207.9,380.1z"/>
<path class="st1" d="M207.2,379.6c-0.2-0.1-0.4-0.2-0.6-0.2c-0.2-0.1-0.2-0.2-0.2-0.3c0.1-0.1,0.1-0.2,0.2-0.2
	C206.8,379.1,207,379.4,207.2,379.6z"/>
<path class="st0" d="M206.6,378.9c0,0.2,0,0.3,0,0.5c-0.4,0-0.6-0.2-0.7-0.5C206.1,378.9,206.3,378.9,206.6,378.9z"/>
<path class="st0" d="M214.5,384.1c-0.4,0-0.6-0.2-0.8-0.5C213.9,383.7,214.2,383.9,214.5,384.1z"/>
<path class="st0" d="M213.1,383.3c-0.3,0-0.5-0.2-0.6-0.5C212.7,383,212.9,383.1,213.1,383.3z"/>
<path class="st0" d="M212.5,382.8c-0.4-0.1-0.7-0.2-0.9-0.6C212,382.3,212.3,382.5,212.5,382.8z"/>
<path class="st0" d="M211.2,382.1c-0.4,0-0.6-0.2-0.7-0.5C210.7,381.7,210.9,381.9,211.2,382.1z"/>
<path class="st1" d="M210.5,381.6c-0.2-0.1-0.4-0.2-0.6-0.3l-0.2-0.2l0.2-0.2C210.1,381.1,210.3,381.3,210.5,381.6z"/>
<path class="st0" d="M209.9,380.8c0,0.2,0,0.3,0,0.5c-0.3,0-0.5-0.2-0.7-0.5C209.4,380.8,209.6,380.8,209.9,380.8z"/>
<path class="st0" d="M217.1,394.2c0.4,0,0.6,0.2,0.7,0.5C217.6,394.5,217.4,394.3,217.1,394.2z"/>
<path class="st0" d="M215.8,393.4c0.4,0,0.7,0.2,0.9,0.6C216.3,393.9,216,393.7,215.8,393.4z"/>
<path class="st0" d="M213.8,392.2c0.4,0,0.6,0.2,0.7,0.5C214.3,392.5,214.1,392.3,213.8,392.2z"/>
<path class="st0" d="M212.5,391.4c0.4,0,0.7,0.2,0.9,0.6C213,392,212.7,391.8,212.5,391.4z"/>
<path class="st0" d="M210.5,390.2c0.4,0,0.6,0.2,0.7,0.5C211,390.5,210.8,390.4,210.5,390.2z"/>
<g>
	<path class="st2" d="M378.1,438.9c0.1-0.2,0.2-0.4,0.1-0.6c0.5-0.6,0-1.5,0.6-2.1l0,0c0.6-0.5,0.1-1.5,0.7-2l0,0
		c0.4-0.4,0.3-1,0.7-1.3l0,0c0.4-0.3,0.2-1,0.8-1.3l-0.1,0.1c0.1-0.3,0.4-0.6,0.7-0.7l-0.1,0.1c0.3-0.5,0.9-0.3,1.2-0.8l0,0
		c0.4-0.3,1-0.2,1.3-0.6c0.4,0,0.9-0.1,1.3-0.1c0.2-0.1,0.4-0.1,0.6,0c0.4,0.1,0.8,0.1,1.1,0.2c0.3,0.1,0.6,0.3,0.9,0.6l0,0
		c0.6,0.6,1.3,0.4,2,0.1l0,0c0.2-0.3,0.4-0.5,0.7-0.7l0,0c0.2-0.3,0.4-0.5,0.7-0.7l0,0c0.2-0.3,0.4-0.5,0.7-0.7l0,0
		c0.3-0.5,1-0.3,1.3-0.7c0.2,0,0.5-0.1,0.7-0.1c1.4-0.4,2.8-0.1,4.2-0.2c0.4,0,0.7,0.1,1,0.2c0.4,0.1,0.7,0.1,1.1,0.2
		c0.5,0.2,1.1,0.2,1.5,0.5c0.2,0.1,0.4,0.2,0.6,0.1c0.4,0.3,1,0.3,1.4,0.5c0.4,0.1,0.7,0.1,1.1,0.2c0.5,0.2,1.1,0.2,1.5,0.5
		c0.7,0.2,1.3,0.3,2,0.1c0.4-0.4,1-0.2,1.3-0.6l0,0c0.4-0.4,1-0.3,1.4-0.6c0.2,0,0.4,0,0.6-0.1c1.5-0.4,3-0.4,4.6,0
		c0.4,0.1,0.8,0.1,1.1,0.2c0.5,0.2,1.1,0.2,1.5,0.5c0.2,0.1,0.4,0.2,0.6,0.1c0.4,0.3,1,0.3,1.4,0.5c0.2,0.1,0.4,0.2,0.6,0.1
		c0.4,0.4,0.9,0.3,1.4,0.5c0.2,0.1,0.4,0.2,0.6,0.1c0.4,0.3,1,0.2,1.4,0.6c0.1,0.1,0.3,0.2,0.5,0.1c0.3,0.1,0.6,0.3,0.8,0.5
		c0.2,0.1,0.4,0.1,0.6,0.2c0.4,0.4,1,0.2,1.4,0.6c0.1,0.1,0.3,0.2,0.4,0.1c0.3,0.1,0.6,0.3,0.9,0.5c0.2,0.1,0.3,0.2,0.5,0.1
		c0.3,0.2,0.5,0.3,0.8,0.5c0.2,0.1,0.4,0.2,0.6,0.2c0.3,0.1,0.5,0.3,0.9,0.3c0.2,0,0.4,0.2,0.5,0.3l0,0c0.2,0.2,0.4,0.3,0.7,0.3
		c0.3,0.1,0.5,0.2,0.6,0.4l0,0c0.2,0.2,0.4,0.3,0.7,0.5c0.2,0.1,0.3,0.2,0.5,0.2c0.3,0.1,0.5,0.3,0.8,0.5c0.1,0.1,0.2,0.2,0.4,0.2
		c0.4,0.1,0.7,0.3,0.9,0.6l0,0c0.3,0.2,0.4,0.4,0.7,0.6h0.1c0.1,0.2,0.4,0.4,0.6,0.5l0.1,0.1c0.1,0.3,0.3,0.5,0.5,0.6l0.1,0.1
		c0.1,0.3,0.3,0.5,0.5,0.7l0,0c0.4,0.4,0.3,1,0.7,1.3l0,0c0.4,0.4,0.3,1,0.6,1.5c-0.1,0.2,0,0.3,0.1,0.5c0.7,0.8-0.1,1.9,0.6,2.7
		c-0.1,0.2,0,0.4,0.1,0.6c0.2,0.3,0.2,0.8,0.6,1.1c0.1,0.2,0.3,0.3,0.5,0.3c0.3,0.1,0.6,0.4,0.9,0.6l0,0c0.3,0.4,0.9,0.3,1.3,0.7
		l0,0c0.3,0.4,0.9,0.3,1.3,0.6l0,0c0.3,0.4,0.9,0.3,1.3,0.6c0.1,0.1,0.3,0.2,0.5,0.1c0.3,0.1,0.5,0.3,0.8,0.5
		c0.2,0.1,0.4,0.1,0.6,0.2c0.4,0.4,0.9,0.3,1.3,0.6c0.2,0.1,0.3,0.2,0.5,0.1c0.4,0.3,1,0.2,1.4,0.6c0.1,0.1,0.3,0.2,0.5,0.1
		c0.5,0.3,1,0.2,1.5,0.5c0.1,0.1,0.3,0.2,0.5,0.1c0.5,0.3,1,0.2,1.5,0.5c0.2,0.1,0.3,0.2,0.5,0.1c0.4,0.3,1,0.2,1.4,0.5
		c0.2,0,0.4,0.1,0.6,0.1c0.4,0.4,0.9,0.3,1.3,0.5c0.4,0.1,0.8,0.1,1.2,0.2c0.5,0.3,1,0.2,1.5,0.5c0.4,0.1,0.8,0.1,1.1,0.2
		c0.5,0.2,1,0.2,1.5,0.5c0.4,0.1,0.8,0.1,1.1,0.2c0.5,0.2,1,0.2,1.5,0.5c0.4,0.1,0.8,0.1,1.2,0.2c0.5,0.3,1,0.2,1.5,0.5
		c0.6,0.1,1.2,0.1,1.8,0.2c0.5,0.2,1,0.2,1.5,0.5c0.6,0.1,1.2,0.1,1.8,0.2c0.7,0.4,1.5,0.1,2.2,0.5c0.4,0,0.9,0.1,1.3,0.1
		c0.1,0,0.2,0,0.4,0c0.3-0.2,0.7,0.2,0.9-0.2c-0.1-0.1-0.3-0.2-0.4-0.3c-0.2-0.1-0.3-0.3-0.4-0.4c-0.2-0.1-0.3-0.3-0.3-0.5v0.1
		c-0.3-0.1-0.6-0.4-0.7-0.7l0,0c-0.3-0.2-0.5-0.4-0.7-0.6l0,0c-0.2-0.2-0.4-0.4-0.7-0.6l-0.1-0.1c-0.1-0.3-0.3-0.4-0.6-0.6l-0.1-0.1
		c-0.2-0.3-0.4-0.5-0.6-0.7l0,0c-0.2-0.3-0.5-0.5-0.6-0.7v0.1c-0.7-1.5-0.5-3-0.1-4.6c0.1-0.2,0.2-0.4,0.1-0.6
		c0.3-0.4,0.2-1,0.6-1.4c0.1-0.1,0.2-0.3,0.1-0.5c0.3-0.5,0.2-1.1,0.6-1.5l0,0c0.4-0.4,0.2-1,0.6-1.3c0.1-0.1,0.2-0.3,0.1-0.5
		c0.2-0.5,0.2-1.1,0.6-1.5l0,0c0.4-0.5,0.3-1,0-1.4c0-0.4-0.1-0.8-0.1-1.2c-0.6-0.8,0.1-1.9-0.6-2.7c0.1-0.2,0-0.4-0.1-0.5
		c-0.7-0.8,0.1-1.9-0.6-2.6l0,0c-0.6-0.6-0.1-1.5-0.6-2.1c0-0.2,0-0.4-0.1-0.6c-0.3-0.4-0.2-1-0.6-1.4l0,0c-0.5-0.4-0.4-1-0.6-1.5
		c0-0.2,0-0.4-0.2-0.5c-0.2-0.3-0.4-0.5-0.5-0.9c0-0.2,0-0.3-0.2-0.5s-0.4-0.5-0.5-0.7l0,0c-0.2-0.1-0.3-0.3-0.4-0.5
		c0-0.3-0.2-0.6-0.3-0.9l0,0c-0.4-0.3-0.3-1-0.7-1.4l0,0c-0.2-0.2-0.3-0.4-0.4-0.6c0-0.5-0.1-1-0.3-1.5c0-0.8,0-1.6,0-2.4
		c0.5-0.6,0.3-1.3,0.3-2c0-0.3,0.1-0.5,0.3-0.7l0,0c0.3-0.4,0.3-0.9,0.6-1.3c0.1-0.1,0.2-0.3,0.1-0.5c0.1-0.3,0.3-0.6,0.5-0.8
		c0.1-0.1,0.2-0.3,0.2-0.5c0.1-0.3,0.3-0.6,0.3-0.9c0-0.2,0.2-0.4,0.4-0.5l0,0c0.2-0.2,0.3-0.5,0.5-0.7c0.1-0.1,0.2-0.3,0.2-0.5
		c0.1-0.3,0.3-0.6,0.5-0.9c0.1-0.1,0.2-0.2,0.1-0.4c0.1-0.4,0.3-0.7,0.6-0.9l0,0c0.4-0.3,0.3-1,0.7-1.3l0,0c0.4-0.4,0.2-1,0.7-1.3
		l0,0c0.2-0.2,0.4-0.5,0.5-0.7c0.1-0.1,0.2-0.3,0.2-0.4c0.1-0.4,0.3-0.6,0.6-0.9l0,0c0.4-0.3,0.3-1,0.7-1.3l0,0
		c0.2-0.3,0.3-0.5,0.3-0.9c0.1-0.2,0.2-0.4,0.4-0.5h-0.1c0.1-0.3,0.4-0.5,0.6-0.8l0,0c0.5-0.3,0.3-0.9,0.7-1.3l0,0
		c0.4-0.4,0.3-1,0.7-1.3l0,0c0.2-0.2,0.4-0.5,0.5-0.7c0.1-0.1,0.2-0.2,0.2-0.4c0.1-0.4,0.3-0.7,0.6-0.9l0,0c0.4-0.3,0.3-1,0.7-1.3
		l0,0c0.1-0.3,0.4-0.5,0.6-0.8l0,0c0.5-0.3,0.3-1,0.7-1.3l0,0c0.2-0.2,0.4-0.5,0.5-0.7c0.1-0.1,0.2-0.2,0.2-0.4
		c0.1-0.4,0.3-0.7,0.6-0.9l0,0c0.2-0.2,0.4-0.4,0.5-0.7c0.1-0.1,0.2-0.3,0.2-0.4c0.1-0.4,0.3-0.7,0.6-0.9l0,0
		c0.2-0.2,0.4-0.4,0.5-0.6c0.2-0.1,0.2-0.3,0.2-0.5c0.1-0.4,0.3-0.6,0.6-0.9l0,0c0.2-0.2,0.3-0.5,0.3-0.7c0.1-0.2,0.2-0.4,0.4-0.6
		h-0.1c0.1-0.3,0.4-0.5,0.6-0.8l0,0c0.2-0.2,0.3-0.4,0.3-0.7c0.1-0.3,0.2-0.5,0.4-0.6h-0.1c0.1-0.3,0.4-0.5,0.6-0.8l0,0
		c0.2-0.2,0.3-0.4,0.3-0.7c0.1-0.3,0.2-0.5,0.4-0.6h-0.1c0.1-0.3,0.4-0.5,0.6-0.8l0,0c0.2-0.2,0.3-0.4,0.3-0.7
		c0.1-0.3,0.2-0.5,0.4-0.6H494c0.1-0.3,0.4-0.5,0.6-0.8l0,0c0.2-0.2,0.4-0.4,0.5-0.6c0.2-0.1,0.2-0.3,0.2-0.5
		c0.1-0.4,0.3-0.6,0.6-0.9l0,0c0.2-0.2,0.4-0.4,0.5-0.7c0.1-0.1,0.2-0.3,0.2-0.4c0.1-0.4,0.3-0.7,0.6-0.9l0,0
		c0.2-0.2,0.4-0.4,0.5-0.7c0.1-0.1,0.2-0.2,0.2-0.4c0.1-0.4,0.3-0.7,0.6-0.9l0,0c0.2-0.3,0.4-0.5,0.6-0.7V370
		c0.5-0.3,0.3-0.9,0.8-1.2l0,0c0.2-0.3,0.4-0.5,0.6-0.7l0,0c0.5-0.3,0.3-1,0.8-1.2h-0.1c0.1-0.3,0.4-0.5,0.6-0.7l0,0
		c0.2-0.2,0.3-0.4,0.3-0.7c0.1-0.3,0.2-0.5,0.4-0.6h-0.1c0.1-0.3,0.4-0.5,0.6-0.8l0,0c0.2-0.2,0.4-0.4,0.5-0.7
		c0.2-0.1,0.2-0.2,0.2-0.4c0.1-0.4,0.3-0.7,0.6-0.9l0,0c0.2-0.3,0.4-0.5,0.6-0.7v-0.1c0.5-0.3,0.3-1,0.8-1.2l0,0
		c0.1-0.3,0.4-0.5,0.6-0.7l0,0c0.2-0.2,0.3-0.4,0.4-0.7c0.1-0.3,0.2-0.5,0.4-0.6H507c0.1-0.3,0.4-0.5,0.6-0.7l0,0
		c0.2-0.2,0.4-0.4,0.5-0.7c0.1-0.1,0.2-0.2,0.2-0.4c0.1-0.4,0.3-0.7,0.7-0.9l0,0c0.2-0.3,0.4-0.5,0.6-0.7l0,0c0.4-0.3,0.3-1,0.8-1.2
		l-0.1,0.1c0.1-0.3,0.4-0.5,0.6-0.7l0,0c0.2-0.2,0.4-0.5,0.6-0.7v-0.1c0.5-0.2,0.3-0.9,0.8-1.2l0,0c0.1-0.3,0.4-0.5,0.6-0.7l0,0
		c0.2-0.2,0.4-0.4,0.5-0.6c0.2-0.1,0.2-0.3,0.2-0.4c0.1-0.4,0.3-0.7,0.6-0.9l0,0c0.2-0.3,0.4-0.5,0.6-0.7l0,0
		c0.2-0.2,0.3-0.4,0.4-0.6c0.1-0.3,0.2-0.5,0.4-0.6h-0.1c0.1-0.3,0.4-0.6,0.7-0.7l0,0c0.2-0.3,0.4-0.5,0.6-0.7l0,0
		c0.2-0.2,0.3-0.4,0.4-0.6c0.1-0.3,0.2-0.5,0.4-0.6h-0.1c0.1-0.3,0.4-0.6,0.7-0.7l0,0c0.2-0.3,0.4-0.5,0.6-0.7l0,0
		c0.2-0.2,0.4-0.4,0.6-0.7l0.1-0.1c0.5-0.2,0.3-0.9,0.8-1.2l-0.1,0.1c0.2-0.3,0.4-0.5,0.7-0.7l0,0c0.2-0.3,0.4-0.5,0.6-0.7l0,0
		c0.2-0.2,0.4-0.4,0.6-0.7v-0.1c0.2-0.1,0.4-0.3,0.4-0.6c0.1-0.3,0.2-0.4,0.4-0.6h-0.1c0.1-0.3,0.4-0.6,0.7-0.7h-0.1
		c0.1-0.3,0.4-0.6,0.7-0.7l0,0c0.2-0.3,0.4-0.5,0.7-0.7l0,0c0.2-0.3,0.4-0.5,0.7-0.7h-0.1c0.2-0.4,0.5-0.6,0.9-0.7
		c0.2,0,0.3,0,0.4-0.2c0.2-0.2,0.5-0.3,0.7-0.5l0,0c0.3-0.4,1-0.3,1.3-0.7l0,0c0.4-0.4,1-0.3,1.4-0.6c0.2,0,0.4,0,0.6-0.1
		c0.4-0.3,1-0.1,1.3-0.5c0.2,0,0.5-0.1,0.7-0.1c0.4-0.3,1-0.2,1.4-0.5c0.4-0.1,0.8-0.1,1.2-0.2c0.6-0.4,1.4,0,2-0.5
		c0.4,0,0.8-0.1,1.3-0.1c0.6-0.4,1.5,0,2.1-0.5c0.4-0.1,0.8-0.1,1.2-0.2c0.4-0.3,1-0.2,1.4-0.5c0.2,0,0.4,0,0.6-0.1
		c0.3-0.2,0.5-0.4,0.9-0.5c0.2,0,0.3,0,0.4-0.2c0.2-0.2,0.5-0.4,0.7-0.6l0,0c0.2-0.3,0.4-0.5,0.7-0.7l0,0c0.2-0.3,0.4-0.5,0.6-0.7
		l0,0c0.4-0.4,0.3-1,0.7-1.3l0,0c0.6-0.5,0.1-1.4,0.6-2c0-0.4,0.1-0.8,0.1-1.1c0.3-1.4,0.5-2.8-0.1-4.2l0,0c-0.4-0.4-0.3-1-0.6-1.4
		l0,0c-0.5-0.3-0.3-1-0.7-1.3l0,0c-0.2-0.3-0.4-0.5-0.6-0.7l0,0c-0.3-0.2-0.5-0.4-0.7-0.7l0,0c-0.3-0.2-0.6-0.4-0.7-0.7h0.1
		c-0.3-0.1-0.6-0.4-0.7-0.7l0.1,0.1c-0.3-0.1-0.6-0.4-0.7-0.7l0.1,0.1c-0.3-0.1-0.6-0.4-0.7-0.7l0.1,0.1c-0.4-0.1-0.6-0.4-0.7-0.7
		l0.1,0.1c-0.4-0.1-0.6-0.4-0.7-0.7h0.1c-0.2-0.1-0.4-0.3-0.5-0.5s-0.3-0.4-0.4-0.5c-0.1-0.1-0.1-0.2-0.2-0.3
		c-0.1-0.2-0.2-0.4-0.4-0.5v-0.1c-0.2-0.3-0.4-0.5-0.6-0.7l0,0c-0.2-0.2-0.5-0.4-0.6-0.7l0,0c-0.3-0.2-0.6-0.5-0.6-0.9
		c0-0.2,0-0.3-0.2-0.4c-0.2-0.2-0.3-0.5-0.5-0.7l0,0c-0.5-0.3-0.3-1-0.7-1.4l0,0c-0.7-0.5-0.1-1.5-0.7-2l0,0c-0.3-0.3-0.4-0.6-0.3-1
		c0.1-1.2-0.4-2.5,0.3-3.6l0,0c0.4-0.4,0.3-1,0.6-1.3l0,0c0.2-0.2,0.3-0.4,0.4-0.7c0.1-0.3,0.2-0.5,0.5-0.6l-0.1,0.1
		c0.1-0.2,0.3-0.4,0.6-0.4s0.5-0.2,0.6-0.4l0,0c0.3-0.2,0.5-0.4,0.9-0.6c0.2,0,0.3,0,0.5-0.1c0.3-0.2,0.7-0.2,0.9-0.5
		c0.2-0.2,0.3-0.3,0.5-0.4c0.2,0.1,0.4,0.1,0.5-0.1c-0.1-0.1-0.3-0.3-0.4-0.4c0-0.2-0.2-0.4-0.3-0.4l-0.1-0.1
		c-0.1-0.3-0.3-0.5-0.6-0.6l0,0c-0.2-0.2-0.4-0.5-0.6-0.7l0,0c-0.2-0.2-0.4-0.5-0.6-0.7l0,0c-0.2-0.2-0.5-0.4-0.7-0.7l0,0
		c-0.3-0.2-0.5-0.4-0.7-0.7l0,0c-0.3-0.2-0.5-0.4-0.7-0.7l0,0c-0.3-0.2-0.6-0.4-0.7-0.7v0.1c-0.4-0.2-0.6-0.5-0.7-0.9
		c0-0.2-0.1-0.3-0.3-0.4c-0.1-0.2-0.3-0.4-0.5-0.5l-0.1-0.1c-0.2-0.3-0.3-0.5-0.6-0.7l0,0c-0.2-0.2-0.4-0.5-0.6-0.7l0,0
		c-0.3-0.2-0.5-0.4-0.7-0.7l0,0c-0.3-0.2-0.5-0.4-0.7-0.7l0.1,0.1c-0.5-0.2-0.3-0.9-0.8-1.2l-0.1-0.1c-0.2-0.3-0.3-0.5-0.6-0.7
		c-0.2-0.2-0.5-0.4-0.6-0.7l0,0c-0.3-0.2-0.6-0.5-0.7-0.9c0-0.2-0.1-0.3-0.2-0.4c-0.1-0.2-0.3-0.5-0.5-0.6l0,0
		c-0.2-0.2-0.5-0.4-0.6-0.7l0.1,0.1c-0.5-0.3-0.3-0.9-0.8-1.2l0,0c-0.2-0.3-0.4-0.5-0.6-0.7l0,0c-0.2-0.2-0.5-0.4-0.7-0.7l0,0
		c-0.3-0.2-0.5-0.4-0.7-0.7v0.1c-0.4-0.2-0.6-0.5-0.7-0.9c0-0.2-0.1-0.3-0.3-0.4c-0.1-0.2-0.3-0.4-0.5-0.5l-0.1-0.1
		c-0.2-0.3-0.4-0.5-0.6-0.7l0,0c-0.2-0.2-0.4-0.5-0.6-0.7l0,0c-0.2-0.2-0.5-0.4-0.7-0.7l0,0c-0.3-0.2-0.5-0.4-0.7-0.7l0,0
		c-0.3-0.2-0.5-0.4-0.7-0.7v0.1c-0.4-0.2-0.6-0.5-0.7-0.9c0-0.2-0.1-0.3-0.2-0.4c-0.1-0.2-0.3-0.4-0.5-0.6l0,0
		c-0.2-0.2-0.4-0.5-0.6-0.7l0,0c-0.2-0.2-0.5-0.4-0.6-0.7l0,0c-0.3-0.2-0.5-0.4-0.7-0.7l0.1,0.1c-0.5-0.2-0.3-0.9-0.8-1.2l0,0
		c-0.2-0.3-0.4-0.5-0.6-0.7l0,0c-0.3-0.2-0.6-0.5-0.6-0.9c0-0.2,0-0.3-0.2-0.4c-0.2-0.2-0.4-0.5-0.5-0.7l0,0c-0.5-0.3-0.4-1-0.7-1.3
		l0,0c-0.5-0.4-0.4-1-0.7-1.5c0-0.2,0-0.4-0.1-0.5c-0.5-1.6-0.1-3.3-0.2-4.9c0-0.4,0.1-0.7,0.3-1c0-0.6,0.1-1.2,0.1-1.8
		c0.4-2.1,0.4-4.2,0-6.3c0-0.2,0-0.4-0.2-0.5c-0.2-0.2-0.3-0.5-0.5-0.7l0,0c-0.5-0.3-0.3-1-0.8-1.2v-0.1c-0.2-0.2-0.4-0.5-0.6-0.7
		l0,0c-0.3-0.2-0.5-0.4-0.7-0.7v0.1c-0.4-0.2-0.6-0.5-0.7-0.9c0-0.2-0.1-0.3-0.2-0.4c-0.1-0.2-0.3-0.4-0.5-0.6l0,0
		c-0.2-0.2-0.5-0.4-0.6-0.7l0,0c-0.3-0.2-0.6-0.5-0.7-0.9c0-0.2-0.1-0.3-0.2-0.4c-0.1-0.2-0.3-0.5-0.5-0.7l0,0
		c-0.3-0.2-0.5-0.5-0.6-0.9c0-0.2,0-0.3-0.1-0.4c-0.2-0.3-0.4-0.5-0.5-0.9c0-0.2,0-0.3-0.1-0.5c-0.3-0.4-0.2-1-0.6-1.3l0,0
		c-0.6-0.6-0.1-1.5-0.6-2.1c0.1-0.2,0-0.4-0.1-0.5c-0.5-2-0.4-3.9,0-5.9c0-0.4,0.1-0.7,0.1-1.1c0.2-0.5,0.2-1.1,0.5-1.5
		c0.1-0.2,0.2-0.3,0.1-0.5c0.3-0.4,0.2-1.1,0.6-1.5l0,0c0.4-0.4,0.3-1,0.6-1.3l0,0c0.4-0.3,0.3-0.9,0.6-1.3l0,0
		c0.4-0.3,0.3-0.9,0.6-1.3c0.1-0.1,0.2-0.2,0.1-0.4c0.1-0.4,0.3-0.6,0.5-0.9c0.1-0.1,0.2-0.3,0.1-0.5c0.3-0.5,0.2-1.1,0.6-1.5
		c0.1-0.2,0.1-0.3,0.1-0.5c0.4-3.2,0.5-6.4,0-9.6c0-0.6-0.1-1.2-0.1-1.8c-0.7-1.3,0.2-2.8-0.6-4c0.1-0.2,0-0.4-0.1-0.6
		c-0.6-0.9,0-2-0.6-2.8c0.1-0.2,0-0.3-0.1-0.5c-0.6-0.6-0.1-1.5-0.6-2.2c0.1-0.2,0-0.3-0.1-0.5c-0.4-0.4-0.3-1-0.6-1.5
		c0-0.2,0-0.4-0.2-0.5c-0.2-0.2-0.3-0.5-0.6-0.7l0,0c-0.2-0.2-0.4-0.4-0.7-0.6c-0.1-0.1-0.2-0.2-0.4-0.2c-0.4-0.1-0.7-0.3-0.9-0.6
		l0,0c-0.2-0.2-0.4-0.4-0.7-0.5c-0.1-0.1-0.3-0.2-0.5-0.2c-0.3-0.1-0.6-0.3-0.8-0.5c-0.1-0.1-0.3-0.2-0.4-0.2
		c-0.4-0.1-0.6-0.3-0.9-0.6l0,0c-0.3-0.4-0.9-0.3-1.3-0.7l0,0c-0.3-0.4-1-0.3-1.3-0.7l0,0c-0.4-0.4-1-0.3-1.3-0.7l0,0
		c-0.4-0.4-1-0.3-1.3-0.7l0,0c-0.4-0.4-1-0.3-1.3-0.6l0,0c-0.3-0.4-0.9-0.3-1.3-0.6c-0.1-0.1-0.3-0.2-0.5-0.1
		c-0.7-0.3-1.5-0.5-2.2,0.1l0,0c-0.4,0.4-1,0.3-1.5,0.6h-0.3l-0.2,0.1c-0.8,0.5-1.6,0.2-2.4,0.3c-0.3,0-0.6-0.1-0.9-0.4l0,0
		c-0.4-0.4-1-0.2-1.3-0.7l0.1,0.1c-0.3-0.2-0.5-0.4-0.7-0.7l0,0c-0.3-0.2-0.5-0.4-0.7-0.7l0,0c-0.3-0.2-0.6-0.5-0.7-0.9
		c0-0.2,0-0.3-0.2-0.4c-0.2-0.3-0.4-0.5-0.5-0.9c0.1-0.2,0-0.3-0.1-0.4c-0.6-0.8,0-1.9-0.6-2.8c0-0.3,0-0.7,0-1
		c0.5-0.8,0.2-1.8,0.3-2.6c0-0.3,0.1-0.6,0.3-0.8l0,0c0.3-0.4,0.3-0.9,0.6-1.3c0.1-0.1,0.2-0.3,0.1-0.5c0.1-0.3,0.3-0.6,0.5-0.8
		c0.1-0.1,0.2-0.3,0.2-0.5c0.1-0.3,0.3-0.6,0.5-0.9c0.1-0.1,0.2-0.3,0.1-0.4c0.1-0.4,0.3-0.6,0.5-0.9c0.1-0.1,0.2-0.2,0.1-0.4
		c0.1-0.4,0.3-0.6,0.6-0.9l0,0c0.4-0.3,0.3-0.9,0.7-1.3l0,0c0.4-0.3,0.3-1,0.7-1.3l0,0c0.4-0.4,0.3-1,0.7-1.3l0,0
		c0.4-0.4,0.2-1,0.7-1.3l0,0c0.2-0.2,0.4-0.5,0.5-0.7c0.1-0.1,0.2-0.3,0.2-0.4c0.1-0.4,0.3-0.6,0.6-0.9l0,0c0.4-0.3,0.3-1,0.7-1.3
		l0,0c0.1-0.3,0.4-0.5,0.6-0.7l0,0c0.5-0.3,0.3-1,0.8-1.2l0,0c0.2-0.3,0.4-0.5,0.6-0.7l0,0c0.5-0.3,0.3-1,0.8-1.2l-0.1,0.1
		c0.1-0.3,0.4-0.5,0.7-0.7l0,0c0.2-0.3,0.4-0.5,0.6-0.7l0,0c0.2-0.2,0.4-0.4,0.6-0.7l0.1-0.1c0.5-0.2,0.3-0.9,0.8-1.1l2.2,0.8
		c0.1-0.3,0.4-0.6,0.7-0.7l0,0c0.2-0.3,0.4-0.5,0.7-0.7l0,0c0.2-0.3,0.4-0.5,0.7-0.7l0,0c0.2-0.3,0.4-0.5,0.7-0.7l0,0
		c0.2-0.3,0.4-0.5,0.7-0.7v0.1c0.2-0.3,0.4-0.6,0.7-0.7v0.1c0.1-0.2,0.3-0.4,0.6-0.4s0.5-0.2,0.6-0.4l0.1-0.1
		c0.3-0.2,0.5-0.3,0.7-0.6l0,0c0.2-0.2,0.4-0.5,0.7-0.6l0,0c0.2-0.3,0.5-0.6,0.9-0.7c0.2,0,0.3,0,0.4-0.2c0.2-0.2,0.5-0.3,0.7-0.5
		l0,0c0.3-0.4,1-0.3,1.3-0.7l0,0c0.3-0.2,0.5-0.5,0.9-0.6c0.2,0,0.3,0,0.4-0.1c0.3-0.2,0.5-0.4,0.8-0.5c0.2,0,0.3,0,0.5-0.2
		c0.3-0.2,0.5-0.4,0.8-0.5c0.2,0,0.4,0,0.5-0.2c0.3-0.2,0.5-0.4,0.8-0.5c0.2,0,0.4,0,0.5-0.2c0.3-0.2,0.5-0.4,0.8-0.5
		c0.2,0,0.4,0,0.5-0.2c0.3-0.2,0.5-0.4,0.8-0.5c0.2,0,0.4,0,0.5-0.2c0.2-0.1,0.5-0.3,0.7-0.5l0,0c0.3-0.4,1-0.3,1.3-0.7l0,0
		c0.3-0.3,0.5-0.5,0.9-0.6c0.2,0,0.3-0.1,0.5-0.2c0.2-0.1,0.5-0.3,0.7-0.5l0,0c0.2-0.2,0.4-0.5,0.7-0.6l0,0c0.2-0.3,0.4-0.6,0.7-0.7
		v0.1c0.1-0.2,0.2-0.4,0.4-0.5s0.3-0.3,0.5-0.5c0.1-0.2,0.2-0.4,0.4-0.5h-0.1c0.1-0.3,0.4-0.5,0.6-0.8c0.1-0.1,0.2-0.3,0.1-0.4
		c0.4-0.9,0.2-1.8,0.3-2.7c0-0.3,0.1-0.6,0.3-0.8c0-0.9,0-1.8,0-2.7c-0.2-0.3-0.3-0.6-0.3-0.9c-0.1-1.3,0.3-2.6-0.3-3.9
		c0-0.4-0.1-0.8-0.1-1.2c-0.6-0.8,0.1-1.9-0.6-2.7c0.1-0.2,0-0.4-0.1-0.6c-0.5-0.6-0.1-1.5-0.5-2.1c0.1-0.2,0-0.3-0.1-0.5
		c-0.5-0.6-0.1-1.5-0.6-2.2c0.1-0.2,0-0.3-0.1-0.5c-0.6-0.6-0.1-1.5-0.6-2.1c0.1-0.2,0-0.4-0.1-0.6c-0.5-0.6,0-1.4-0.6-2l0,0
		c-0.6-0.6-0.1-1.5-0.6-2.1c0-0.2,0-0.4-0.1-0.6c-0.3-0.4-0.2-1-0.5-1.4c0-0.2,0-0.4-0.1-0.6c-0.3-0.4-0.2-1-0.5-1.4
		c0-0.2,0-0.4-0.1-0.5c-0.3-0.4-0.3-1-0.5-1.5c0-0.2,0-0.4-0.1-0.5c-0.3-0.4-0.3-1-0.6-1.4c0-0.2,0-0.4-0.1-0.5
		c-0.3-0.4-0.2-1-0.5-1.4c0-0.2,0-0.4-0.1-0.6c-0.3-0.4-0.2-1-0.5-1.3l0,0c-0.7-0.5-0.1-1.5-0.7-2l0,0c-0.4-0.4-0.4-1-0.6-1.5
		c0.1-0.2,0-0.3-0.1-0.5c-0.4-0.4-0.3-1-0.6-1.4c0-0.2,0-0.4-0.1-0.6c-0.3-0.4-0.2-1-0.5-1.3l0,0c-0.4-0.4-0.4-1-0.6-1.5
		c0.1-0.2,0-0.3-0.1-0.5c-0.4-0.4-0.3-1-0.6-1.4c0-0.2,0-0.4-0.1-0.6c-0.3-0.4-0.2-1-0.5-1.3l0,0c-0.4-0.4-0.3-1-0.6-1.5
		c0-0.2,0-0.4-0.1-0.5c-0.3-0.4-0.2-1-0.6-1.3l0,0c-0.4-0.4-0.4-1-0.6-1.5c0-0.2,0-0.3-0.1-0.5c-0.3-0.4-0.2-1-0.6-1.4l0,0
		c-0.5-0.4-0.4-1-0.6-1.5c0.1-0.2,0-0.3-0.1-0.4c-0.4-0.4-0.3-1-0.6-1.4l0,0c-0.5-0.4-0.4-1-0.6-1.5c0.1-0.2,0-0.3-0.1-0.4
		c-0.4-0.4-0.3-1-0.6-1.4l0,0c-0.5-0.4-0.4-1-0.6-1.5c0.1-0.2,0-0.3-0.1-0.4c-0.4-0.4-0.3-1-0.6-1.4l0,0c-0.2-0.1-0.3-0.3-0.4-0.6
		c0-0.3-0.2-0.6-0.3-1c0.1-0.2,0-0.3-0.1-0.4c-0.4-0.4-0.3-1-0.6-1.4l0,0c-0.2-0.1-0.3-0.3-0.4-0.6c0-0.3-0.2-0.6-0.3-1
		c0.1-0.2,0-0.3-0.1-0.4c-0.4-0.4-0.3-1-0.6-1.4l0,0c-0.2-0.1-0.3-0.3-0.4-0.6c0-0.3-0.2-0.6-0.3-1c0.1-0.2,0-0.3-0.1-0.4
		c-0.4-0.4-0.3-1-0.6-1.4c0-0.2,0-0.4-0.2-0.6c-0.3-0.4-0.2-0.9-0.6-1.3l0,0c-0.4-0.4-0.3-1-0.6-1.5c0-0.2,0-0.4-0.1-0.6
		c-0.3-0.4-0.2-1-0.6-1.3l0,0c-0.4-0.4-0.3-1-0.6-1.5c0-0.2,0-0.4-0.1-0.5c-0.3-0.4-0.2-1-0.6-1.3l0,0c-0.4-0.4-0.4-1-0.6-1.5
		c0.1-0.2,0-0.3-0.1-0.4c-0.4-0.4-0.3-1-0.6-1.5c0-0.2,0-0.4-0.1-0.5c-0.3-0.4-0.2-1-0.5-1.3l0,0c-0.2-0.2-0.3-0.4-0.4-0.6
		c0-0.5,0-1-0.3-1.4l0,0c-0.4-0.4-0.4-1-0.6-1.6c0.1-0.2,0-0.3-0.1-0.4c-0.4-0.4-0.3-1-0.6-1.5c0.1-0.2,0-0.3-0.1-0.4
		c-0.4-0.4-0.3-1-0.6-1.5c0.1-0.2,0-0.3-0.1-0.4c-0.6-0.6-0.1-1.5-0.6-2l0,0c-0.2-0.2-0.3-0.4-0.3-0.7c0-0.5,0-1-0.3-1.5
		c0.1-0.2,0-0.4-0.1-0.5c-0.5-0.6-0.1-1.5-0.6-2.1c0.1-0.2,0-0.4-0.1-0.5c-0.4-0.9-0.6-1.8,0.1-2.6c0.2,0,0.4,0,0.6-0.1
		c0.5-0.2,1-0.3,1.5-0.5c0.4-0.1,0.8-0.1,1.1-0.2c0.6-0.4,1.4,0,2-0.6c0.4,0,0.7,0,1.1,0c0.9,0.5,0.3,1.5,0.8,2.2
		c-0.1,0.2-0.1,0.3,0.1,0.4c0.6,0.6,0.2,1.5,0.6,2.2c-0.1,0.2-0.1,0.3,0.1,0.4c0.6,0.6,0.1,1.5,0.6,2.1c-0.1,0.2,0,0.4,0.1,0.6
		c0.3,0.4,0.3,1,0.5,1.5c-0.1,0.2,0,0.3,0.1,0.5c0.4,0.4,0.3,1,0.6,1.5c-0.1,0.2,0,0.3,0.1,0.5c0.4,0.4,0.3,1,0.6,1.5
		c-0.1,0.2,0,0.4,0.1,0.5c0.3,0.4,0.3,1,0.6,1.4c0,0.2,0,0.4,0.1,0.6c0.3,0.4,0.2,1,0.5,1.3l0,0c0.7,0.5,0.1,1.5,0.7,2l0,0
		c0.4,0.4,0.3,1,0.6,1.5c0,0.2,0,0.4,0.1,0.5c0.3,0.4,0.2,1,0.6,1.3l0,0c0.4,0.4,0.4,1,0.6,1.5c-0.1,0.2,0,0.3,0.1,0.4
		c0.4,0.4,0.3,1,0.6,1.4l0,0c0.7,0.5,0.1,1.5,0.7,2l0,0c0.4,0.4,0.3,1,0.6,1.5c0,0.2,0,0.4,0.1,0.6c0.3,0.4,0.2,1,0.6,1.3l0,0
		c0.4,0.4,0.3,1,0.6,1.5c0,0.2,0,0.4,0.1,0.5c0.3,0.4,0.2,1,0.6,1.3l0,0c0.4,0.4,0.3,1,0.6,1.5c0,0.2,0,0.4,0.1,0.5
		c0.3,0.4,0.2,1,0.6,1.3l0,0c0.4,0.4,0.3,1,0.6,1.5c0,0.2,0,0.4,0.1,0.5c0.3,0.4,0.2,1,0.6,1.3l0,0c0.4,0.4,0.3,1,0.6,1.5
		c0,0.2,0,0.4,0.1,0.5c0.3,0.4,0.2,1,0.6,1.3l0,0c0.4,0.4,0.3,1,0.6,1.5c0,0.2,0,0.4,0.1,0.5c0.3,0.4,0.2,1,0.6,1.3l0,0
		c0.4,0.4,0.3,1,0.6,1.5c0,0.2,0,0.4,0.1,0.5c0.3,0.4,0.2,1,0.6,1.3l0,0c0.4,0.4,0.4,1,0.6,1.5c0,0.2,0,0.3,0.1,0.5
		c0.3,0.4,0.2,1,0.6,1.3l0,0c0.4,0.4,0.4,1,0.6,1.5c-0.1,0.2,0,0.3,0.1,0.4c0.4,0.4,0.3,1,0.6,1.4c0,0.2,0,0.4,0.1,0.6
		c0.3,0.4,0.2,1,0.6,1.3l0,0c0.4,0.4,0.3,1,0.6,1.5c0,0.2,0,0.4,0.1,0.5c0.3,0.4,0.2,1,0.6,1.4l0,0c0.7,0.5,0.1,1.5,0.7,2l0,0
		c0.4,0.4,0.3,1,0.6,1.5c-0.1,0.2,0,0.3,0.1,0.5c0.3,0.4,0.3,1,0.6,1.4c0,0.2,0,0.4,0.1,0.6c0.3,0.4,0.2,1,0.5,1.3l0,0
		c0.7,0.5,0.1,1.5,0.7,2l0,0c0.6,0.5,0.1,1.5,0.7,2l0,0c0.6,0.5,0.1,1.5,0.7,2l0,0c0.6,0.5,0,1.5,0.7,2l0,0c0.6,0.5,0.1,1.5,0.7,2
		l0,0c0.6,0.6,0.1,1.5,0.7,2.1c0,0.2,0,0.4,0.1,0.6c0.3,0.4,0.2,1,0.5,1.4c-0.1,0.2,0,0.4,0.1,0.5c0.5,0.6,0,1.4,0.6,2l0,0
		c0.6,0.6,0.2,1.5,0.6,2.2c-0.1,0.2,0,0.3,0.1,0.5c0.5,0.6,0.1,1.5,0.6,2.2c-0.1,0.2,0,0.3,0.1,0.5c0.7,0.8-0.1,1.9,0.6,2.7
		c-0.1,0.2,0,0.4,0.1,0.6c0.6,0.8-0.1,1.9,0.6,2.7c-0.1,0.2,0,0.4,0.1,0.6c0.7,1.3-0.1,2.8,0.6,4.1c0,0.6,0.1,1.2,0.1,1.8
		c0.4,1.5,0.4,3.1,0,4.6c0,0.4-0.1,0.8-0.1,1.2c-0.6,0.8,0,1.9-0.6,2.8c-0.1,0.2-0.1,0.3-0.1,0.5c-0.3,0.5-0.2,1.1-0.6,1.5l0,0
		c-0.4,0.4-0.3,1-0.7,1.3l0,0c-0.2,0.3-0.4,0.5-0.6,0.7l0,0c-0.7,1-1.6,1.9-2.6,2.6h-0.1c-0.3,0.2-0.5,0.4-0.7,0.6l0,0
		c-0.2,0.2-0.4,0.5-0.7,0.6l0.1-0.1c-0.3,0.5-1,0.3-1.2,0.8l0,0c-0.3,0.2-0.5,0.4-0.7,0.6h0.1c-0.3,0.5-1,0.3-1.3,0.7l0,0
		c-0.3,0.4-1,0.2-1.3,0.7l0,0c-0.3,0.2-0.5,0.5-0.9,0.6c-0.2,0-0.3,0-0.4,0.1c-0.3,0.2-0.5,0.4-0.8,0.5c-0.2,0-0.3,0-0.5,0.2
		c-0.3,0.2-0.5,0.4-0.8,0.5c-0.2,0-0.4,0-0.5,0.2c-0.3,0.2-0.5,0.4-0.8,0.5c-0.2,0-0.4,0-0.5,0.2c-0.3,0.2-0.5,0.4-0.8,0.5
		c-0.2,0-0.4,0-0.5,0.2c-0.2,0.2-0.5,0.3-0.7,0.5l0,0c-0.3,0.5-1,0.3-1.3,0.7l0,0c-0.3,0.4-1,0.3-1.2,0.7h-0.1
		c-0.3,0.2-0.5,0.4-0.7,0.6l0,0c-0.2,0.3-0.4,0.5-0.7,0.7l0.1-0.1c-0.2,0.5-0.9,0.3-1.2,0.8l-0.1,0.1c-0.3,0.1-0.5,0.3-0.6,0.6h-0.1
		c-0.2,0.2-0.5,0.4-0.7,0.6l0,0c-0.2,0.2-0.5,0.4-0.7,0.6l0,0c-0.2,0.2-0.4,0.4-0.6,0.7l0,0c-0.2,0.2-0.4,0.4-0.6,0.7l0,0
		c-0.2,0.2-0.4,0.4-0.6,0.6l-0.1,0.1c-0.5,0.2-0.3,1-0.8,1.2l0.1-0.1c-0.1,0.3-0.4,0.6-0.7,0.7l0,0c-0.2,0.3-0.4,0.5-0.6,0.7l0,0
		c-0.2,0.2-0.4,0.4-0.5,0.6c-0.2,0.1-0.2,0.3-0.2,0.4c-0.1,0.4-0.3,0.7-0.6,0.9l0,0c-0.2,0.2-0.4,0.4-0.5,0.7
		c-0.1,0.1-0.2,0.3-0.2,0.4c-0.1,0.4-0.3,0.6-0.6,0.9l0,0c-0.4,0.3-0.3,1-0.7,1.3l0,0c-0.2,0.2-0.4,0.5-0.5,0.7
		c-0.1,0.1-0.2,0.3-0.2,0.5c-0.1,0.4-0.3,0.6-0.6,0.9l0,0c-0.5,0.3-0.3,0.9-0.7,1.3l0,0c-0.4,0.3-0.3,1-0.7,1.3l0,0
		c-0.4,0.4-0.3,1-0.7,1.3l0,0c-0.4,0.4-0.2,1-0.7,1.3l0,0c-0.3,0.4-0.2,1-0.7,1.4l0,0c-0.3,0.4-0.2,1-0.7,1.4l0,0
		c-0.3,0.4-0.2,1-0.7,1.4l0,0c-0.3,0.7-0.6,1.4,0,2c0.2,0,0.5-0.1,0.7-0.1c0.3-0.2,0.5-0.4,0.9-0.5c0.9,0,1.9,0,2.8,0
		c0.5,0.3,1.1,0.2,1.5,0.6c0.1,0.1,0.3,0.2,0.4,0.1c0.3,0.1,0.6,0.3,0.9,0.5c0.2,0.1,0.4,0.2,0.6,0.2c0.4,0.3,1,0.2,1.4,0.7l0,0
		c0.4,0.4,1,0.3,1.4,0.6l0,0c0.4,0.4,1,0.3,1.3,0.7l0,0c0.3,0.4,1,0.3,1.3,0.7l0,0c0.3,0.4,1,0.3,1.3,0.7l0,0c0.4,0.4,1,0.3,1.3,0.7
		l0,0c0.2,0.2,0.4,0.3,0.7,0.5c0.2,0.2,0.3,0.2,0.6,0.2c0.3,0.2,0.5,0.3,0.8,0.5c0.1,0.1,0.3,0.2,0.5,0.2c0.4,0.1,0.6,0.3,0.9,0.6
		l0,0c0.3,0.4,1,0.3,1.3,0.7l0,0c0.2,0.2,0.5,0.4,0.7,0.5c0.1,0.1,0.2,0.2,0.4,0.2c0.4,0.1,0.7,0.3,0.9,0.7l0,0
		c0.3,0.2,0.5,0.4,0.7,0.7l0,0c0.3,0.2,0.5,0.4,0.7,0.7l0,0c0.3,0.2,0.6,0.5,0.7,0.9c0,0.2,0,0.3,0.2,0.4c0.2,0.2,0.3,0.5,0.5,0.7
		v-0.1c0.5,0.4,0.4,1,0.7,1.5c-0.1,0.2,0,0.3,0.1,0.4c0.4,0.4,0.3,1,0.6,1.5c-0.1,0.2,0,0.3,0.1,0.4c0.6,0.6,0.1,1.5,0.6,2.1
		c-0.1,0.2,0,0.3,0.1,0.5c0.6,0.8,0,2,0.6,2.8c0,0.4,0.1,0.8,0.1,1.2c0.6,1.1-0.1,2.4,0.5,3.5c0,0.6,0.1,1.2,0.1,1.8
		c0.4,4.4,0.5,8.8-0.1,13.2c-0.1,0.1-0.1,0.3-0.1,0.5c-0.2,0.5-0.2,1.1-0.6,1.5c-0.1,0.1-0.2,0.3-0.1,0.5c-0.3,0.5-0.2,1.1-0.6,1.5
		l0,0c-0.3,0.4-0.2,1-0.7,1.4l0,0c-0.4,0.4-0.2,1-0.7,1.4l0,0c-0.4,0.4-0.3,1-0.7,1.4l0,0c-0.4,0.4-0.3,1-0.6,1.4l0,0
		c-0.6,0.5-0.1,1.4-0.6,2c-0.1,0.2-0.1,0.4-0.1,0.5c-0.5,1-0.4,2,0,3c0.1,0.4,0.1,0.8,0.2,1.1c0.3,0.4,0.2,1,0.5,1.4l0,0
		c0.5,0.3,0.4,1,0.7,1.4l0,0c0.5,0.3,0.3,1,0.8,1.2l0,0c0.2,0.3,0.4,0.5,0.6,0.7l0,0c0.3,0.2,0.5,0.4,0.7,0.7l-0.1-0.1
		c0.5,0.2,0.3,0.9,0.8,1.2v0.1c0.2,0.3,0.4,0.5,0.6,0.7l0,0c0.2,0.2,0.5,0.4,0.6,0.7v-0.1c0.3,0.2,0.6,0.5,0.7,0.9
		c0,0.2,0,0.3,0.2,0.4c0.2,0.2,0.3,0.5,0.5,0.7l0,0c0.3,0.2,0.5,0.5,0.6,0.9c0,0.2,0,0.3,0.2,0.4c0.2,0.2,0.4,0.5,0.5,0.7v-0.1
		c0.5,0.4,0.4,1,0.7,1.5c0,0.2,0,0.4,0.1,0.5c0.3,0.5,0.3,1,0.5,1.5c0,0.8,0,1.5,0,2.3c-0.8,2.2,0.2,4.5-0.6,6.7
		c0,0.4-0.1,0.8-0.1,1.2c-0.3,0.9-0.6,1.8,0.1,2.7l0,0c0.2,0.3,0.5,0.5,0.6,0.9c0,0.2,0,0.3,0.2,0.4c0.2,0.2,0.3,0.5,0.5,0.7l0,0
		c0.3,0.2,0.5,0.5,0.6,0.9c0,0.2,0.1,0.3,0.2,0.4c0.1,0.2,0.3,0.4,0.5,0.6l0,0c0.2,0.3,0.4,0.5,0.6,0.7l0,0c0.3,0.2,0.5,0.4,0.7,0.7
		v-0.1c0.4,0.2,0.6,0.5,0.7,0.9c0,0.2,0.1,0.3,0.3,0.4c0.1,0.2,0.3,0.4,0.5,0.5l0.1,0.1c0.2,0.3,0.4,0.5,0.6,0.7l0,0
		c0.2,0.2,0.4,0.5,0.6,0.7l0,0c0.2,0.2,0.5,0.4,0.7,0.7l0,0c0.3,0.2,0.5,0.4,0.7,0.7l0,0c0.3,0.2,0.5,0.4,0.7,0.7v-0.1
		c0.4,0.2,0.6,0.5,0.7,0.9c0,0.2,0.1,0.3,0.3,0.4c0.1,0.2,0.3,0.4,0.5,0.5l0.1,0.1c0.1,0.3,0.3,0.5,0.6,0.7l0,0
		c0.2,0.2,0.4,0.5,0.6,0.7l0,0c0.3,0.2,0.5,0.4,0.7,0.7V270c0.3,0.2,0.6,0.5,0.7,0.9c0,0.2,0.1,0.3,0.2,0.4c0.1,0.2,0.3,0.4,0.5,0.6
		l0,0c0.2,0.2,0.5,0.4,0.6,0.7l-0.1-0.1c0.5,0.3,0.3,0.9,0.8,1.2l0,0c0.2,0.3,0.4,0.5,0.6,0.7l0,0c0.3,0.2,0.5,0.4,0.7,0.7l-0.1-0.1
		c0.5,0.2,0.3,0.9,0.8,1.2l0.1,0.1c0.1,0.3,0.3,0.5,0.6,0.7l0,0c0.2,0.2,0.4,0.5,0.6,0.7l0,0c0.3,0.2,0.5,0.4,0.7,0.7l0,0
		c0.3,0.2,0.5,0.4,0.7,0.7V279c0.4,0.2,0.6,0.5,0.7,0.9c0,0.2,0.1,0.3,0.3,0.4c0.1,0.2,0.3,0.4,0.5,0.5l0.1,0.1
		c0.2,0.3,0.3,0.5,0.6,0.6l0,0c0.2,0.3,0.4,0.5,0.6,0.7l0,0c0.2,0.2,0.5,0.4,0.7,0.7l0,0c0.3,0.2,0.5,0.4,0.7,0.7l0,0
		c0.3,0.2,0.5,0.4,0.7,0.7l0,0c0.3,0.2,0.5,0.4,0.7,0.7l-0.1-0.1c0.3,0.2,0.6,0.4,0.7,0.7l-0.1-0.1c0.3,0.1,0.6,0.4,0.7,0.7
		l-0.1-0.1c0.5,0.2,0.3,0.9,0.8,1.1l0.1,0.1c0.1,0.3,0.3,0.5,0.5,0.6l0.1,0.1c0.1,0.3,0.3,0.5,0.6,0.6l0.1,0.1
		c0.2,0.2,0.4,0.5,0.6,0.6l0,0c0.2,0.2,0.4,0.5,0.6,0.7l0,0c0.2,0.2,0.4,0.4,0.6,0.7l0,0c0.2,0.2,0.5,0.4,0.7,0.7l0,0
		c0.3,0.2,0.5,0.4,0.7,0.7l-0.1-0.1c0.5,0.3,0.4,1,0.7,1.4c0,0.2,0,0.4,0.1,0.6c0.3,0.4,0.3,0.9,0,1.3c-0.1,0.2-0.1,0.3-0.1,0.5
		c-0.1,0.3-0.4,0.6-0.5,0.8v0.1c-0.4,0.4-0.8,0.9-1.3,1.2l0,0c-0.4,0.3-1,0.2-1.3,0.6l0,0c-2,0.9-4.1-0.2-6.1,0.6
		c-0.4,0.1-0.6,0.3-0.4,0.7c0.2,0.3,0.5,0.5,0.5,0.9c0,0.2,0,0.3,0.2,0.4c0.2,0.2,0.4,0.5,0.6,0.7l0,0c0.3,0.2,0.5,0.4,0.7,0.7h-0.1
		c0.3,0.2,0.6,0.4,0.7,0.7h-0.1c0.7,0.4,0.8,1.3,1.5,1.8l0.1,0.1c0.1,0.3,0.3,0.4,0.6,0.6l0.1,0.1c0.1,0.3,0.3,0.4,0.6,0.6l0.1,0.1
		c0.1,0.3,0.3,0.5,0.6,0.6l0.1,0.1c0.1,0.3,0.3,0.5,0.6,0.6l0.1,0.1c0.2,0.2,0.4,0.5,0.6,0.6l0,0c0.2,0.3,0.4,0.5,0.6,0.7l0,0
		c0.2,0.2,0.5,0.4,0.6,0.7l0,0c0.3,0.2,0.5,0.4,0.7,0.7l-0.1-0.1c0.5,0.3,0.4,0.9,0.8,1.3l0,0c0.3,0.3,0.5,0.5,0.6,0.9
		c0,0.2,0,0.3,0.1,0.4c0.2,0.3,0.4,0.5,0.5,0.9c-0.1,0.2,0,0.3,0.1,0.4c0.3,0.4,0.3,1,0.6,1.4c-0.1,0.2,0,0.4,0.1,0.5
		c0.5,2.4,0.5,4.8,0,7.2c-0.1,0.2-0.1,0.4-0.1,0.6c-0.5,0.6-0.1,1.4-0.6,2c-0.1,0.2-0.2,0.4-0.1,0.6c-0.3,0.4-0.2,1-0.6,1.4l0,0
		c-0.4,0.3-0.3,0.9-0.7,1.3l0,0c-0.4,0.3-0.3,1-0.8,1.3l0.1-0.1c-0.2,0.3-0.4,0.5-0.7,0.7l0,0c-0.2,0.2-0.4,0.5-0.6,0.7l0,0
		c-0.2,0.2-0.4,0.4-0.7,0.7l0,0c-0.2,0.2-0.4,0.5-0.7,0.6l0,0c-0.2,0.3-0.5,0.6-0.9,0.6c-3.7,1.8-7.6,2.8-11.6,3.4
		c-4.4,0.7-7.9,2.5-10.8,6.2c-7,8.9-13.6,18.1-20,27.4c-8.4,12.2-16.9,24.4-24.1,37.4c-1.3,2.4-2.6,4.9-3.8,7.3
		c-0.9,1.7-0.9,3.2,0.2,4.9c3.4,5.5,4.7,11.8,5.7,18.1c0.4,2.9-0.7,5.4-1.7,7.9c-1.3,3.2-1.3,3.2,1.6,5.2c2.3,1.6,4.6,3,6.6,4.9
		c1.8,1.6,2.7,3.5,2,5.9c-0.7,2.2-2.6,2.8-4.6,3.2c-3.9,0.7-7.7,0-11.5-0.6c-10.6-1.8-21.1-4.3-31.1-8.2c-2.3-0.9-4.4-1.9-6.6-3
		c-3.4-1.7-5.6-4.3-6.1-8.1c-0.3-2.5-1.6-3.9-3.7-5c-5-2.5-10.1-4.7-15.6-6.1c-1.1-0.3-2.1-0.3-3.1,0.3c-2.8,1.6-5.7,1.5-8.6,0.6
		c-1.9-0.6-3.8-1-5.7-1.6c-1.4-0.5-2.3-0.1-3.2,0.9c-0.6,0.7-1.2,1.3-1.8,1.9c-2.4,2.3-3.1,2.4-6,0.8c-0.3-0.1-0.6-0.3-1-0.4
		c-1,1.1-1,2.6-1.6,3.9c-1.5,3.6-3.8,6.3-7.9,7.2c-3.4,0.7-6.3,0.1-8.9-2.3c-1.9-1.8-3.7-3.8-5.6-5.6c-2-2-2.2-2.1-4.4-0.5
		c-3.4,2.5-6.9,2.8-10.4,0.5c-2.2-1.4-4.1-0.9-6,0.5c-3.6,2.7-6.2,6.2-8.7,9.8c-1.7,2.4-3.2,5-4.9,7.4c-2.3,3.4-4.1,3.8-7.7,1.8
		c-0.5-0.3-1-0.5-1.4-0.9c-2.1-1.6-4-2.2-6.4-0.2c-2.2,1.7-4.9,1.9-7.5,0.5c-0.1-0.3-0.3-0.4-0.6-0.6l-0.1-0.1
		c-0.2-0.3-0.3-0.5-0.5-0.7l0,0c-0.6-0.6-0.1-1.5-0.7-2.1c0-1,0-2,0-3.1c0.7-1.1-0.1-2.4,0.6-3.4c0-0.4,0.1-0.8,0.1-1.2
		c0.6-1.1-0.1-2.4,0.6-3.5c0-0.4,0.1-0.8,0.1-1.2c0.3-0.7,0.6-1.3-0.1-1.9c-0.2-0.2-0.3-0.2-0.6-0.2c-0.6-0.5-1.5-0.1-2-0.6
		l-0.2-0.1h-0.3c-0.5-0.3-1-0.2-1.5-0.5c-0.4-0.1-0.7-0.1-1.1-0.2c-0.5-0.2-1.1-0.2-1.6-0.5l-0.2-0.1h-0.3c-0.5-0.3-1-0.2-1.5-0.5
		l-0.2-0.1h-0.3c-0.5-0.3-1.1-0.2-1.5-0.6l0,0c-0.4-0.4-1-0.2-1.3-0.7l0.1,0.1c-0.3-0.2-0.5-0.4-0.7-0.7l0,0
		c-0.3-0.2-0.5-0.4-0.7-0.7l0,0c-0.5-0.3-0.3-1-0.8-1.2l0,0c-0.2-0.3-0.5-0.6-0.5-0.9c0.1-0.2,0-0.3-0.1-0.4c-0.4-0.4-0.3-1-0.6-1.5
		c0-0.2,0-0.4-0.1-0.5c-0.5-0.6,0-1.4-0.6-2c0-0.2-0.1-0.4-0.1-0.6c-0.3-0.5-0.3-1-0.5-1.5c0.1-0.2,0-0.3-0.1-0.4
		c-0.6-0.5,0-1.4-0.7-1.8c-0.2,0-0.4-0.1-0.7-0.1c-0.2,0.2-0.5,0.4-0.7,0.6l0,0c-0.2,0.3-0.4,0.5-0.7,0.7l0,0
		c-0.2,0.3-0.4,0.5-0.7,0.7l0,0c-0.2,0.3-0.4,0.5-0.7,0.7l0,0c-0.2,0.3-0.4,0.5-0.7,0.7l0,0c-0.2,0.3-0.4,0.5-0.6,0.7l0,0
		c-0.2,0.2-0.4,0.4-0.6,0.7v0.1c-0.5,0.2-0.3,1-0.8,1.2l0.1-0.1c-0.1,0.3-0.4,0.5-0.7,0.7l0,0c-0.2,0.3-0.4,0.5-0.6,0.7l0,0
		c-0.2,0.2-0.4,0.4-0.5,0.6c-0.2,0.1-0.2,0.2-0.2,0.4c-0.1,0.4-0.3,0.7-0.7,0.9l0,0c-0.2,0.3-0.4,0.5-0.6,0.7l0,0
		c-0.2,0.2-0.4,0.4-0.6,0.7v0.1c-0.5,0.3-0.3,1-0.8,1.2l0.1-0.1c-0.1,0.3-0.4,0.6-0.7,0.7l0,0c-0.2,0.3-0.4,0.5-0.7,0.7l0,0
		c-0.2,0.3-0.4,0.5-0.7,0.7l0,0c-0.2,0.3-0.4,0.5-0.7,0.7l0,0c-0.2,0.3-0.4,0.5-0.7,0.7l0,0c-0.2,0.3-0.4,0.5-0.7,0.7l0,0
		c-0.2,0.3-0.4,0.5-0.7,0.7l0,0c-0.2,0.3-0.5,0.6-0.9,0.7c-0.2,0-0.3,0.1-0.5,0.2c-0.2,0.1-0.4,0.3-0.6,0.5l0,0
		c-0.3,0.2-0.5,0.5-0.9,0.6c-0.2,0-0.3,0-0.5,0.2c-0.3,0.2-0.5,0.4-0.8,0.5h-0.3l-0.2,0.1c-0.4,0.3-1,0.3-1.5,0.5
		c-0.4,0-0.8,0.1-1.2,0.1c-0.9,0.3-1.7,0.4-2.6,0c-0.4,0-0.8-0.1-1.1-0.1c-0.5-0.2-1.1-0.2-1.5-0.6l0,0c-0.3-0.4-0.9-0.3-1.3-0.7
		l0,0c-0.3-0.4-1-0.3-1.3-0.8l0.1,0.1c-0.5-0.2-0.4-0.9-0.8-1.2l0,0c-0.4-0.4-0.3-1-0.6-1.5c0-1,0-2,0-3c0.4-0.9,0.5-1.8,0-2.8
		c-0.8-0.2-1.6-0.2-2.5,0c-0.6-0.5-1.5-0.1-2.1-0.6l0,0c-0.3-0.4-1-0.3-1.3-0.7l0,0c-0.2-0.2-0.5-0.4-0.7-0.6l0,0
		c-0.2-0.2-0.4-0.5-0.6-0.7l0,0c-0.3-0.2-0.5-0.5-0.6-0.9c0-0.2,0-0.3-0.1-0.5c-0.3-0.4-0.2-1-0.5-1.4c0.1-0.2,0-0.4-0.1-0.6
		c-0.8-3.2,0.3-6.5-0.6-9.7c-0.1-0.2-0.3-0.2-0.5-0.2c-0.6-0.5-1.5-0.1-2.1-0.6l-0.3-0.1H244c-0.6-0.5-1.5-0.1-2.1-0.5l-0.3-0.1
		h-0.3c-0.4-0.4-0.9-0.3-1.3-0.5c-0.2-0.1-0.4-0.2-0.6-0.1c-0.2-0.2-0.5-0.3-0.7-0.5c-0.1-0.1-0.3-0.2-0.5-0.2
		c-0.4-0.1-0.6-0.4-0.8-0.6l0,0c-0.3-0.2-0.5-0.4-0.7-0.7l0,0c-0.2-0.2-0.5-0.4-0.7-0.7l0,0c-0.3-0.2-0.6-0.5-0.6-0.9
		c0-0.2,0-0.3-0.1-0.4c-0.2-0.3-0.5-0.5-0.5-0.9c0.1-0.2,0-0.3-0.1-0.4c-0.4-0.5-0.3-1-0.6-1.5c-0.1-0.4-0.1-0.7-0.2-1.1
		c-0.5-0.9,0.1-1.9-0.5-2.8c0-0.4-0.1-0.8-0.1-1.2c-0.7-1.5,0.2-3.2-0.6-4.7c0.1-0.2,0-0.4-0.1-0.6c-0.6-0.5,0-1.4-0.6-1.8
		c-0.3-0.3-0.7-0.3-1.1-0.2c-1.3-0.7-2.8,0.1-4.1-0.5c-0.4,0-0.8-0.1-1.2-0.1c-0.6-0.5-1.5-0.1-2.1-0.6l0,0
		c-0.3-0.4-0.9-0.3-1.3-0.6l0,0c-0.3-0.4-1-0.3-1.3-0.7l0,0c-0.4-0.4-1-0.3-1.3-0.7l0,0c-0.2-0.2-0.5-0.3-0.7-0.5
		c-0.1-0.1-0.3-0.2-0.5-0.2c-0.4-0.1-0.6-0.3-0.9-0.6l0,0c-0.3-0.4-1-0.3-1.3-0.7l0,0c-0.2-0.2-0.5-0.4-0.7-0.5
		c-0.1-0.1-0.3-0.2-0.5-0.2c-0.4-0.1-0.6-0.3-0.9-0.6l0,0c-0.3-0.4-1-0.3-1.3-0.7l0,0c-0.2-0.2-0.5-0.4-0.7-0.5
		c-0.1-0.1-0.3-0.2-0.4-0.2c-0.4-0.1-0.6-0.3-0.9-0.6l0,0c-0.3-0.4-1-0.3-1.3-0.7l0,0c-0.2-0.2-0.5-0.4-0.7-0.5
		c-0.1-0.1-0.2-0.2-0.4-0.2c-0.4-0.1-0.7-0.3-0.9-0.6l0,0c-0.2-0.2-0.4-0.4-0.6-0.5c-0.2-0.2-0.3-0.2-0.5-0.2
		c-0.3-0.1-0.5-0.3-0.8-0.5c-0.2,0-0.5-0.1-0.7-0.1c-0.2,0.2-0.5,0.5-0.8,0.6l0,0c-0.1,0.3-0.4,0.6-0.7,0.7l0,0
		c-0.2,0.3-0.4,0.6-0.7,0.7l0,0c-0.2,0.3-0.4,0.6-0.7,0.7h0.1c-0.2,0.4-0.5,0.6-0.9,0.7c-0.2,0-0.3,0.1-0.5,0.3
		c-0.2,0.1-0.4,0.3-0.5,0.5h-0.1c-0.3,0.2-0.5,0.4-0.7,0.6l0,0c-0.3,0.4-1,0.3-1.3,0.7l0,0c-0.4,0.4-1,0.3-1.4,0.6h-0.3l-0.3,0.1
		c-1.3,0.4-2.6,0.4-3.9,0c-0.2,0-0.4-0.1-0.7-0.1c-0.4-0.4-1-0.3-1.4-0.6l0,0c-0.3-0.4-1-0.3-1.3-0.8l0.1,0.1
		c-0.3-0.1-0.5-0.4-0.7-0.7l0,0c-0.3-0.2-0.5-0.4-0.7-0.7l0,0c-0.3-0.2-0.6-0.5-0.7-0.9c0-0.2-0.1-0.3-0.2-0.4
		c-0.1-0.2-0.3-0.5-0.5-0.7l0,0c-0.4-0.4-0.3-1-0.7-1.4c0-0.2,0-0.4-0.1-0.6c-0.3-0.5-0.3-1-0.5-1.5c0.1-0.2,0-0.3-0.1-0.5
		c-0.6-0.5,0-1.4-0.7-1.9l0,0c-0.3-0.5-0.9-0.3-1.2-0.6c-0.2-0.1-0.4-0.2-0.6-0.1c-0.4-0.3-1-0.3-1.4-0.6c-0.2-0.1-0.3-0.2-0.5-0.1
		c-0.4-0.3-1.1-0.2-1.4-0.6l0,0c-0.4-0.4-1-0.3-1.3-0.7l0,0c-0.3-0.2-0.5-0.4-0.7-0.6h-0.1c-0.1-0.2-0.3-0.4-0.6-0.5l-0.1-0.1
		c-0.1-0.3-0.3-0.5-0.5-0.6l-0.1-0.1c-0.2-0.3-0.3-0.5-0.6-0.7l0,0c-0.4-0.4-0.4-1-0.6-1.5c0-0.8,0-1.6,0-2.4c0.3-0.4,0.2-1,0.6-1.4
		c0.1-0.1,0.2-0.2,0.1-0.4c0.1-0.4,0.3-0.7,0.7-0.9l-0.1,0.1c0.3-0.5,0.9-0.3,1.2-0.8l0,0c0.4-0.3,1-0.2,1.4-0.6
		c0.2,0,0.4,0,0.6-0.1c0.3-0.2,0.6-0.2,0.9-0.2c1.4-0.1,2.6-0.9,4.5-0.7c-1.9-0.2-3.2,0.5-4.5,0.7c-0.3,0-0.6-0.1-0.9-0.3
		c-1.9-0.2-3.8-0.3-5.8-0.1c-1.5-0.7-3.2,0.1-4.8-0.5c-0.6,0-1.2-0.1-1.8-0.1c-0.9-0.6-2,0.1-2.8-0.6l-0.2-0.1h-0.2
		c-0.5-0.3-1.1-0.2-1.5-0.6l0,0c-0.3-0.2-0.5-0.4-0.7-0.6h-0.1c-0.2-0.3-0.4-0.5-0.6-0.6l0,0c-0.2-0.3-0.5-0.5-0.6-0.9
		c0-0.2,0-0.3-0.1-0.5c-0.3-0.4-0.3-1-0.5-1.4l0,0c-0.3-0.2-0.5-0.3-0.7-0.5c-0.2-0.1-0.3-0.2-0.5-0.1c-0.5-0.3-1.1-0.2-1.5-0.6l0,0
		c-0.4-0.4-0.9-0.3-1.3-0.6l-0.2-0.1h-0.3c-0.3-0.1-0.5-0.3-0.8-0.5c-0.2-0.1-0.4-0.1-0.6-0.2c-0.4-0.4-1-0.2-1.4-0.6l-0.2-0.1h-0.2
		c-0.3-0.1-0.6-0.3-0.9-0.5c-0.2-0.1-0.4-0.2-0.6-0.2c-0.4-0.4-1-0.2-1.4-0.6L147,357h-0.2c-0.3-0.1-0.6-0.3-0.8-0.5
		c-0.2-0.1-0.4-0.1-0.6-0.2c-0.4-0.4-1-0.3-1.3-0.6c-0.1-0.1-0.3-0.2-0.5-0.1c-0.6,0-1.8-1.2-1.5,0.7l0,0c0.2,0.3,0.5,0.5,0.6,0.9
		c0,0.2,0.1,0.4,0.2,0.5c0.1,0.2,0.3,0.5,0.5,0.6l0,0c0.3,0.2,0.5,0.5,0.6,0.9c0,0.2,0,0.3,0.2,0.5s0.3,0.5,0.5,0.7l0,0
		c0.4,0.3,0.3,1,0.7,1.2v0.1c0.2,0.3,0.4,0.5,0.6,0.8l-0.1-0.1c0.5,0.3,0.4,1,0.7,1.3l0,0c0.5,0.4,0.4,1,0.7,1.5
		c-0.1,0.2,0,0.3,0.1,0.5c0.4,0.7,0.4,1.3,0,2c-0.1,0.1-0.1,0.3-0.1,0.5c-0.1,0.3-0.3,0.6-0.5,0.9v0.1c-0.2,0.1-0.4,0.3-0.5,0.5
		c-0.3,0.3-0.6,0.6-0.9,0.8c-0.2,0.1-0.5,0.3-0.7,0.5l0,0c-0.4,0.4-1,0.3-1.3,0.7l0,0c-0.4,0.4-1,0.4-1.6,0.6
		c-0.4,0.1-0.7,0.1-1.1,0.2c-0.5,0.3-1,0.3-1.5,0.5c-0.4,0.1-0.8,0.1-1.2,0.2c-0.6,0.4-1.4,0-2,0.5h-0.3l-0.3,0.1
		c-0.4,0.3-1,0.3-1.5,0.5c-0.3,0-0.5,0.2-0.5,0.5c-0.1,0.4-0.3,0.6-0.6,0.9l0,0c-0.4,0.3-0.3,1-0.8,1.3l0.1-0.1
		c-0.1,0.3-0.4,0.5-0.6,0.8l0,0c-0.4,0.3-0.3,1-0.8,1.3h0.1c-0.1,0.3-0.4,0.5-0.6,0.8l0,0c-0.4,0.3-0.3,1-0.8,1.3h0.1
		c-0.2,0.3-0.4,0.5-0.7,0.7l0,0c-0.2,0.3-0.5,0.5-0.8,0.6c-0.2,0-0.3,0-0.5,0.1c-1.3,0.3-2.6,0.5-3.9-0.1l0,0
		c-0.4-0.4-1-0.2-1.3-0.7l0,0c-0.4-0.3-1-0.2-1.4-0.6l0,0c-0.4-0.4-1-0.3-1.3-0.7l0,0c-0.3-0.4-1-0.3-1.3-0.7l0,0
		c-0.3-0.2-0.5-0.4-0.7-0.6l0,0c-0.1-0.2-0.3-0.4-0.6-0.5c-0.1-0.2-0.2-0.2-0.4-0.2c-0.4-0.1-0.7-0.3-0.9-0.7l0.1,0.1
		c-0.4-0.2-0.6-0.5-0.7-0.9c0-0.2-0.1-0.3-0.3-0.4c-0.1-0.2-0.3-0.4-0.5-0.6l0,0c-0.2-0.3-0.4-0.5-0.6-0.7l0,0
		c-0.3-0.2-0.6-0.5-0.6-0.9c0-0.2,0-0.3-0.1-0.4c-0.2-0.3-0.4-0.5-0.5-0.8c0-0.2,0-0.4-0.2-0.5c-0.2-0.3-0.3-0.5-0.5-0.8
		c0-0.2,0-0.4-0.2-0.5c-0.1-0.3-0.4-0.5-0.5-0.8c0-0.2,0-0.4-0.2-0.5c-0.2-0.3-0.4-0.5-0.5-0.8c0-0.2,0-0.3-0.1-0.5
		c-0.2-0.3-0.5-0.5-0.5-0.9c0.1-0.2,0-0.3-0.1-0.4c-0.2-0.3-0.5-0.5-0.5-0.9c0-0.2,0-0.3-0.1-0.4c-0.2-0.3-0.4-0.5-0.5-0.8
		c0-0.2-0.1-0.4-0.2-0.5c-0.1-0.2-0.3-0.4-0.5-0.6l0,0c-0.2-0.2-0.5-0.4-0.6-0.7l0,0c-0.3-0.2-0.5-0.4-0.7-0.7l0,0
		c-0.3-0.2-0.5-0.4-0.7-0.7l0,0c-0.3-0.2-0.5-0.4-0.7-0.6l0,0c-0.2-0.2-0.4-0.4-0.7-0.5c-0.1-0.1-0.3-0.2-0.5-0.2
		c-0.4-0.1-0.6-0.3-0.9-0.6l0,0c-0.3-0.4-1-0.3-1.3-0.7l0,0c-0.3-0.1-0.5-0.4-0.8-0.6l0,0c-0.3-0.5-0.9-0.3-1.2-0.7l0,0
		c-0.2-0.2-0.5-0.4-0.7-0.5c-0.1-0.1-0.2-0.2-0.4-0.2c-0.4-0.1-0.7-0.3-0.9-0.6l0,0c-0.3-0.2-0.5-0.4-0.7-0.6l0,0
		c-0.1-0.2-0.3-0.4-0.6-0.5c-0.1-0.2-0.3-0.3-0.5-0.3c-0.4-0.1-0.7-0.3-0.9-0.7l0,0c-0.3-0.2-0.5-0.4-0.7-0.7l0,0
		c-0.3-0.2-0.5-0.4-0.7-0.7l0.1,0.1c-0.5-0.3-0.4-0.9-0.7-1.3l0,0c-0.6-1.5-0.4-3-0.1-4.6c0.1-0.2,0.2-0.3,0.1-0.5
		c0.1-0.3,0.4-0.6,0.5-0.8v-0.1c0.5-0.3,0.3-1,0.8-1.2l-0.1,0.1c0.1-0.3,0.4-0.6,0.7-0.7h-0.1c0.2-0.4,0.5-0.6,0.9-0.7
		c0.2,0,0.3-0.1,0.4-0.2c0.2-0.1,0.4-0.3,0.6-0.5l0,0c0.2-0.2,0.5-0.5,0.8-0.6c0.2,0,0.4-0.1,0.5-0.2c0.2-0.1,0.4-0.3,0.6-0.5l0,0
		c0.3-0.2,0.5-0.5,0.9-0.6c0.2,0,0.4,0,0.5-0.2c0.2-0.2,0.5-0.3,0.7-0.5l0,0c0.2-0.3,0.5-0.6,0.9-0.6c0.2,0,0.3,0,0.4-0.2
		c0.2-0.2,0.5-0.4,0.7-0.6l0,0c0.3-0.5,1-0.3,1.2-0.8l0.1-0.1c0.3-0.2,0.5-0.3,0.7-0.6c0.2-0.2,0.4-0.4,0.7-0.7l0,0
		c0.2-0.2,0.4-0.4,0.5-0.7c0-0.2,0-0.5-0.1-0.7s-0.3-0.4-0.5-0.6l0,0c-0.2-0.2-0.4-0.4-0.6-0.6l0,0c-0.1-0.2-0.3-0.4-0.6-0.5
		c-0.1-0.2-0.3-0.2-0.5-0.2c-0.4-0.1-0.7-0.3-0.9-0.6l0,0c-0.2-0.2-0.4-0.4-0.7-0.5c-0.7-0.3-1.3-0.4-2-0.1c-0.4,0.4-1,0.3-1.5,0.6
		c-0.2,0-0.4,0-0.5,0.2c-0.3,0.2-0.5,0.4-0.8,0.5c-0.2,0-0.4,0-0.5,0.2c-0.2,0.2-0.5,0.3-0.7,0.5l0,0c-0.3,0.5-1,0.3-1.3,0.7l0,0
		c-0.3,0.3-0.5,0.5-0.9,0.6c-0.2,0-0.3,0-0.4,0.2c-0.3,0.2-0.5,0.4-0.8,0.5c-0.2,0-0.4,0-0.5,0.2c-0.3,0.2-0.5,0.4-0.8,0.5
		c-0.2,0-0.4,0-0.5,0.1c-0.4,0.3-1,0.2-1.4,0.6h-0.3l-0.3,0.1c-1.3,0.4-2.6,0.4-3.9,0l-0.3-0.1h-0.3c-0.4-0.4-1-0.2-1.4-0.7l0,0
		c-0.3-0.2-0.5-0.4-0.7-0.7l0,0c-0.5-0.3-0.3-1-0.7-1.3l0,0c-0.4-0.4-0.3-1-0.7-1.4c0.1-0.2,0-0.4-0.1-0.6c-1-0.6,0.9-2.7-1.4-2.7
		c-0.2,0-0.4,0-0.6,0.2c-0.4,0.3-1,0.2-1.3,0.6c-0.2,0-0.4,0.1-0.6,0.1c-0.7,0.3-1.3,0.4-2-0.1l0,0c-0.3-0.4-1-0.3-1.3-0.7l0,0
		c-0.3-0.2-0.5-0.4-0.7-0.7l0,0c-0.5-0.4-0.4-1-0.7-1.4c0-0.2,0-0.4-0.1-0.5c-0.3-0.4-0.2-1-0.6-1.3l0,0c-0.7-0.5-0.1-1.5-0.7-2l0,0
		c-0.4-0.4-0.3-1-0.6-1.5c0-0.2,0-0.4-0.2-0.5c-0.1-0.2-0.3-0.4-0.5-0.5s-0.4-0.2-0.6-0.2c-0.4-0.3-1-0.2-1.4-0.5l-0.3-0.1h-0.3
		c-0.6-0.5-1.4-0.1-2-0.5c-0.4,0-0.8-0.1-1.2-0.1c-0.8-0.6-1.9,0-2.8-0.6c-0.4,0-0.7-0.1-1.1-0.1c-0.7-0.4-1.5-0.1-2.2-0.5
		c-0.4,0-0.7-0.1-1.1-0.1c-0.5-0.2-1.1-0.2-1.5-0.5l-0.3-0.1h-0.3c-0.6-0.6-1.5-0.1-2-0.6l0,0c-0.3-0.4-0.9-0.3-1.3-0.6
		c-0.2-0.1-0.4-0.2-0.6-0.1c-0.4-0.3-1-0.2-1.4-0.6l0,0c-0.4-0.4-1-0.3-1.3-0.7l0,0c-0.4-0.4-1-0.2-1.3-0.7l0,0
		c-0.3-0.1-0.5-0.4-0.7-0.6l0,0c-0.3-0.5-1-0.3-1.2-0.8l0.1,0.1c-0.3-0.2-0.5-0.4-0.7-0.7l0,0c-0.3-0.2-0.5-0.4-0.7-0.6l0,0
		c-0.2-0.2-0.4-0.4-0.7-0.6l0,0c-0.2-0.2-0.4-0.5-0.6-0.6l0,0c-0.2-0.2-0.4-0.5-0.6-0.7l0,0c-0.2-0.2-0.5-0.4-0.6-0.7l0,0
		c-0.5-0.3-0.4-1-0.7-1.3l0,0c-0.4-0.4-0.3-1-0.6-1.5c0-0.2,0-0.4-0.1-0.5c-0.6-0.8,0.1-1.9-0.6-2.7c0-0.4-0.1-0.8-0.1-1.2
		c-0.6-0.8,0.1-1.9-0.6-2.6l0,0c-0.2-0.2-0.4-0.4-0.7-0.6c-0.1-0.1-0.3-0.2-0.4-0.2c-0.5-0.2-1.1-0.2-1.5-0.5l-0.3-0.1h-0.3
		c-3.8-0.5-3.7-0.5-3.8,3.1c0,1.2,0.3,2.4-0.3,3.5c-0.1,0.1-0.2,0.3-0.1,0.5c-0.1,0.3-0.3,0.6-0.5,0.9c-0.1,0.1-0.2,0.3-0.2,0.5
		c-0.1,0.4-0.3,0.6-0.6,0.9l0,0c-0.2,0.3-0.4,0.5-0.6,0.7s-0.4,0.4-0.7,0.7l0,0c-0.2,0.3-0.5,0.5-0.8,0.6c-0.2,0-0.4,0-0.5,0.2
		c-0.3,0.2-0.5,0.3-0.8,0.5c-0.2,0-0.4,0-0.6,0.1c-0.4,0.3-1,0.2-1.3,0.5c-0.2,0-0.4,0.1-0.7,0.1c-0.7,0.4-1.5,0.1-2.2,0.5
		c-2.5,0-5,0-7.4,0c-1.1-2.4-0.8-4.8-0.2-7.2c2.2,0,4.4-0.1,6.5-0.1c0.6-0.4,1.5,0,2.1-0.5c0.2,0.1,0.4,0,0.5-0.1
		c0.2-0.2,0.5-0.4,0.7-0.6l0,0c0.8-2.6-0.2-5.3,0.5-7.9c0.1-0.2,0.2-0.4,0.1-0.6c0.3-0.4,0.2-1.1,0.7-1.4l-0.1,0.1
		c0.2-0.3,0.4-0.5,0.7-0.7l0,0c0.2-0.3,0.4-0.5,0.7-0.7l0,0c0.3-0.5,1-0.3,1.3-0.7l0,0c0.5-0.4,1-0.3,1.5-0.6c1.6,0,3.2,0,4.9,0
		c0.5,0.2,1,0.3,1.5,0.3c0.3,0,0.5,0.1,0.7,0.2c0.4,0.1,0.7,0.1,1.1,0.2c0.5,0.2,1.1,0.2,1.6,0.5c0.1,0.1,0.3,0.2,0.5,0.1
		c0.3,0.1,0.5,0.3,0.8,0.5c0.2,0.1,0.4,0.2,0.6,0.2c0.2,0.2,0.5,0.3,0.7,0.5c0.1,0.1,0.3,0.2,0.5,0.2c0.4,0.1,0.7,0.3,0.9,0.7l0,0
		c0.3,0.2,0.5,0.4,0.7,0.7l0,0c0.3,0.2,0.5,0.4,0.7,0.7l0,0c0.5,0.3,0.3,1,0.8,1.3l0,0c0.3,0.4,0.2,1,0.6,1.4l0,0
		c0.7,0.8,0,1.9,0.6,2.8c0,0.4,0.1,0.8,0.1,1.2c0.2,0.2,0.3,0.5,0.3,0.8c0.1,0.8-0.3,1.7,0.4,2.5l0,0c0.2,0.3,0.5,0.4,0.6,0.8l0,0
		c0.3,0.2,0.6,0.4,0.7,0.7v-0.1c0.3,0.1,0.6,0.4,0.7,0.7l0,0c0.3,0.2,0.5,0.4,0.7,0.6l0,0c0.2,0.2,0.4,0.4,0.7,0.5
		c0.1,0.1,0.3,0.2,0.4,0.2c0.4,0.1,0.6,0.3,0.9,0.6l0,0c0.3,0.4,0.9,0.3,1.3,0.7l0,0c0.3,0.4,0.9,0.3,1.3,0.6
		c0.2,0.1,0.3,0.2,0.5,0.1c0.5,0.3,1,0.2,1.5,0.5c0.2,0.1,0.4,0.2,0.6,0.1c0.4,0.3,1,0.3,1.4,0.5c0.4,0.1,0.8,0.1,1.2,0.2
		c0.6,0.5,1.4,0.1,2.1,0.5c0.6,0.1,1.2,0.1,1.8,0.2c0.5,0.2,1,0.3,1.5,0.3c0.3,0,0.5,0.1,0.7,0.2c0.4,0,0.8,0.1,1.2,0.1
		c0.5,0.2,1,0.2,1.5,0.5c0.4,0.1,0.8,0.1,1.3,0.2c0.4,0.3,0.9,0.3,1.4,0.5c0.2,0,0.4,0.1,0.7,0.1c0.4,0.4,0.9,0.3,1.3,0.6
		c0.1,0.1,0.3,0.2,0.5,0.1c0.4,0.1,0.6,0.3,0.9,0.5l0,0c0.3,0.5,0.9,0.3,1.2,0.8l0,0c0.3,0.2,0.5,0.4,0.7,0.6l0,0
		c0.2,0.2,0.5,0.4,0.7,0.7l0,0c0.4,0.3,0.3,1,0.7,1.3l0,0c0.4,0.4,0.4,1,0.6,1.5c-0.1,0.2,0,0.3,0.1,0.5c0.4,0.4,0.2,1,0.6,1.3l0,0
		c0.3,0.3,0.6,0.2,0.9,0.1c0.4-0.1,0.8-0.1,1.1-0.2c1.2-0.4,2.4-0.1,3.6-0.2c0.4,0,0.7,0.1,1,0.3l0,0c0.4,0.4,1,0.2,1.3,0.8
		l-0.1-0.1c0.4,0.2,0.6,0.5,0.7,0.9c0,0.2,0,0.3,0.1,0.4c0.3,0.4,0.2,1,0.6,1.4c0,0.4,0.1,0.8,0.1,1.2c1,0.6-0.9,2.8,1.4,2.7
		c0.2,0,0.4-0.1,0.5-0.2c0.3-0.2,0.5-0.4,0.8-0.5c0.2,0,0.4-0.1,0.6-0.2c0.2-0.1,0.5-0.3,0.6-0.5l0,0c0.3-0.4,1-0.3,1.3-0.7l0,0
		c0.3-0.2,0.5-0.5,0.9-0.6c0.2,0,0.3,0,0.5-0.2c0.3-0.2,0.5-0.4,0.8-0.5c0.2,0,0.4,0,0.5-0.2c0.3-0.2,0.5-0.4,0.9-0.5
		s0.7-0.2,1.1-0.2c0.3-0.1,0.5-0.4,0.9-0.4c0.8-0.1,1.6-0.1,2.4-0.2c0.2-0.1,0.4-0.1,0.6,0c0.6,0.1,1.3,0.1,1.9,0.2
		c0.4,0.3,1,0.2,1.4,0.5c0.1,0.1,0.3,0.2,0.5,0.1c0.4,0.1,0.6,0.3,0.9,0.6l0,0c0.3,0.5,1,0.3,1.3,0.8l0,0c0.3,0.2,0.5,0.4,0.7,0.6
		l0,0c0.2,0.2,0.3,0.4,0.6,0.5c0.1,0.2,0.2,0.2,0.4,0.2c0.4,0.1,0.7,0.3,0.9,0.7h-0.1c0.3,0.2,0.6,0.4,0.7,0.7l0,0
		c0.3,0.2,0.6,0.4,0.7,0.7l-0.1-0.1c0.5,0.2,0.4,0.9,0.8,1.2l0,0c0.2,0.3,0.5,0.5,0.6,0.9c0,0.2,0,0.3,0.1,0.5
		c0.3,0.4,0.2,1,0.5,1.4c-0.1,0.2,0,0.4,0.1,0.6c0.4,0.6,0.4,1.3,0,2c-0.1,0.2-0.1,0.4-0.1,0.6c-0.6,0.5,0,1.5-0.7,2l0,0
		c-0.2,0.2-0.4,0.5-0.5,0.7c-0.1,0.1-0.2,0.2-0.2,0.4c-0.1,0.4-0.3,0.7-0.7,0.9l0,0c-0.2,0.3-0.4,0.5-0.7,0.7l0,0
		c-0.2,0.3-0.4,0.5-0.7,0.7l0,0c-0.2,0.3-0.4,0.5-0.7,0.7l0.1-0.1c-0.2,0.5-0.9,0.3-1.2,0.8h-0.1c-0.3,0.1-0.5,0.4-0.7,0.6l0,0
		c-0.2,0.3-0.5,0.6-0.9,0.6c-0.2,0-0.3,0-0.4,0.2c-0.2,0.2-0.5,0.4-0.7,0.5l0,0c-0.3,0.5-1,0.3-1.3,0.7l0,0
		c-0.3,0.2-0.5,0.4-0.8,0.6c-0.2,0-0.4,0.1-0.5,0.2c-0.2,0.1-0.5,0.3-0.6,0.5l0,0c-0.2,0.3-0.5,0.5-0.9,0.6c-0.2,0-0.3,0.1-0.5,0.2
		c-0.4,0.3-0.4,0.7,0,1c0.1,0.2,0.2,0.2,0.4,0.2c0.4,0.1,0.7,0.3,0.9,0.6l0,0c0.3,0.2,0.5,0.4,0.7,0.6h0.1c0.3,0.5,0.9,0.3,1.2,0.7
		l0,0c0.2,0.2,0.4,0.4,0.7,0.5c0.1,0.1,0.3,0.2,0.4,0.2c0.4,0.1,0.6,0.3,0.9,0.6l0,0c0.2,0.2,0.4,0.4,0.6,0.5
		c0.1,0.2,0.3,0.2,0.5,0.2c0.3,0.1,0.6,0.4,0.8,0.6l0,0c0.3,0.5,1,0.3,1.2,0.8v-0.1c0.3,0.2,0.5,0.4,0.7,0.7l0,0
		c0.3,0.2,0.5,0.4,0.7,0.6l0,0c0.2,0.2,0.4,0.4,0.7,0.7l0,0c0.2,0.2,0.4,0.4,0.6,0.7l0,0c0.2,0.2,0.5,0.4,0.7,0.7l0,0
		c0.3,0.2,0.5,0.4,0.7,0.7l-0.1-0.1c0.5,0.3,0.4,0.9,0.8,1.3l0,0c0.2,0.3,0.5,0.5,0.6,0.9c0,0.2,0,0.4,0.2,0.5
		c0.2,0.2,0.3,0.5,0.5,0.7l0,0c0.5,0.3,0.3,1,0.7,1.4l0,0c0.4,0.3,0.3,1,0.7,1.4l0,0c0.5,0.4,0.4,1,0.7,1.5c0,0.2,0,0.4,0.2,0.5
		c0.2,0.3,0.4,0.5,0.5,0.8c0,0.2,0,0.3,0.1,0.5c0.2,0.3,0.4,0.5,0.5,0.8c0,0.2,0,0.4,0.2,0.5c0.2,0.2,0.3,0.5,0.5,0.7l0,0
		c0.3,0.2,0.6,0.5,0.6,0.9c0,0.2,0.1,0.3,0.2,0.4c0.1,0.2,0.3,0.4,0.5,0.5l0.1,0.1c0.1,0.2,0.3,0.4,0.5,0.5c0.1,0.2,0.3,0.2,0.4,0.3
		c0.4,0.1,0.7,0.3,0.9,0.6l0,0c0.4,0.4,1,0.3,1.3,0.6c0.2,0,0.4-0.1,0.7-0.1c0.5-0.3,0.3-0.9,0.8-1.2h-0.1c0.1-0.3,0.4-0.5,0.6-0.8
		l0,0c0.4-0.3,0.3-1,0.8-1.3h-0.1c0.1-0.3,0.4-0.5,0.6-0.8l0,0c0.4-0.3,0.3-1,0.8-1.2l-0.1,0.1c0.2-0.3,0.5-0.6,0.8-0.7
		c0.2,0,0.4-0.1,0.5-0.2c0.2-0.1,0.5-0.3,0.7-0.5c0.2-0.1,0.4-0.1,0.6-0.2c0.3-0.1,0.5-0.4,0.8-0.4c0.4-0.1,0.8-0.1,1.1-0.2
		c0.4-0.2,1-0.2,1.4-0.5c0.4-0.1,0.8-0.1,1.2-0.2c0.5-0.2,1-0.2,1.5-0.5c0.4-0.1,0.8-0.1,1.1-0.2c0.7-0.6,0.5-1.2,0-1.8l0,0
		c-0.2-0.3-0.4-0.5-0.6-0.7l0,0c-0.5-0.3-0.3-1-0.8-1.3l0,0c-0.2-0.3-0.5-0.5-0.6-0.8l0.1,0.1c-0.5-0.3-0.4-0.9-0.8-1.3l0,0
		c-0.3-0.3-0.5-0.5-0.6-0.9c0-0.2,0-0.3-0.2-0.4c-0.2-0.2-0.3-0.5-0.5-0.7l0,0c-0.4-0.3-0.3-1-0.7-1.3l0,0c-0.2-0.3-0.5-0.5-0.6-0.9
		c0-0.2,0-0.3-0.2-0.4c-0.2-0.3-0.4-0.5-0.5-0.8c0-0.2,0-0.4-0.2-0.5c-0.2-0.3-0.4-0.5-0.5-0.9c0.1-0.2,0-0.3-0.1-0.4
		c-0.5-0.6,0-1.5-0.6-2c0-0.6,0-1.2,0-1.8c0.3-0.4,0.2-1.1,0.6-1.5l0,0c0.2-0.2,0.4-0.4,0.6-0.7l0.1-0.1c0.3-0.2,0.5-0.4,0.7-0.6
		l0,0c0.4-0.4,1-0.3,1.4-0.6c0.8,0,1.6,0,2.4,0.1c0.5,0.2,1,0.2,1.5,0.5c0.2,0.1,0.3,0.2,0.5,0.1c0.5,0.3,1,0.2,1.5,0.6
		c0.1,0.1,0.3,0.2,0.4,0.1c0.3,0,0.6,0.3,0.9,0.4c0.2,0,0.4,0.1,0.7,0.1c0.4,0.4,0.9,0.3,1.3,0.6c0.2,0.1,0.4,0.2,0.6,0.1
		c0.4,0.3,1,0.2,1.4,0.6c0.1,0.1,0.3,0.2,0.4,0.1c0.4,0.1,0.6,0.3,0.9,0.5c0.2,0.1,0.4,0.2,0.6,0.1c0.4,0.4,1,0.2,1.4,0.6
		c0.1,0.1,0.3,0.2,0.5,0.1c0.3,0.1,0.6,0.3,0.9,0.5c0.2,0.1,0.4,0.1,0.6,0.2c0.4,0.4,1,0.2,1.4,0.6c0.1,0.1,0.3,0.2,0.5,0.1
		c0.3,0.1,0.6,0.3,0.8,0.5c0.2,0.1,0.4,0.2,0.6,0.2c0.4,0.4,1,0.2,1.4,0.6c0.1,0.1,0.3,0.2,0.4,0.1c0.3,0.1,0.6,0.3,0.9,0.5
		c0.2,0.1,0.4,0.2,0.6,0.2c0.4,0.3,1,0.2,1.4,0.6c0.1,0.1,0.2,0.2,0.4,0.1c0.4,0,0.6,0.3,0.9,0.5c0.2,0.1,0.4,0.2,0.6,0.1
		c0.3,0.1,0.6,0.3,0.9,0.3c0.2,0,0.4,0.1,0.5,0.3l0,0c0.4,0.4,1,0.3,1.3,0.6c0.1,0.1,0.2,0.2,0.4,0.1c0.4,0.1,0.7,0.3,0.9,0.6l0,0
		c0.3,0.2,0.5,0.4,0.7,0.7l0,0c0.4,0.3,0.3,1,0.7,1.3l0,0c0.4,0.3,0.2,0.9,0.7,1.2c0.8,0.2,1.6,0.4,2.5,0.2c1.3,0.6,2.8,0,4.1,0.5
		c1.6,0.1,3.1,0.3,4.6,0c0.7-0.5,0.1-1.3,0.6-1.8c0.1-0.1,0.2-0.3,0.1-0.4c0.1-0.4,0.3-0.7,0.6-0.9l0,0c0.2-0.2,0.4-0.5,0.7-0.7l0,0
		c0.2-0.3,0.5-0.5,0.9-0.6s0.7-0.1,1.1-0.2c0.4-0.2,0.8-0.2,1.2-0.2c0.3,0,0.5,0.1,0.8,0.3c0.1,0.1,0.3,0.2,0.4,0.1
		c0.4,0.1,0.6,0.3,0.9,0.6l0,0c0.2,0.2,0.4,0.4,0.7,0.6l0.1,0.1c0.1,0.3,0.3,0.5,0.6,0.6l0,0c0.2,0.3,0.4,0.5,0.6,0.7l0,0
		c0.3,0.2,0.6,0.5,0.6,0.9c0,0.2,0,0.3,0.1,0.4c0.2,0.3,0.5,0.5,0.5,0.9c0,0.2,0,0.3,0.1,0.4c0.3,0.4,0.2,1,0.6,1.3l0,0
		c0.4,0.4,0.4,1,0.6,1.5c-0.1,0.2,0,0.3,0.1,0.4c0.6,0.6,0.1,1.5,0.6,2.1c0,0.4,0.1,0.8,0.1,1.2c0.4,0.7,0.4,1.3,0,2
		c-0.1,0.2-0.1,0.4-0.1,0.6c-0.4,0.4-0.3,1-0.6,1.4l0,0c-0.2,0.2-0.4,0.4-0.5,0.7l-0.1,0.1c-0.3,0.1-0.5,0.3-0.6,0.5l-0.1,0.1
		c-0.3,0.1-0.5,0.4-0.7,0.6l0,0c-0.1,0.2-0.3,0.3-0.5,0.4c-0.3,0-0.6,0.2-0.9,0.3l0,0c-0.2,0.5-0.5,0.5-0.9,0.3
		c0.3,0.2,0.8,0.1,1,0.4l0,0c0.3,0.4,1,0.3,1.3,0.7l0,0c0.3,0.2,0.5,0.4,0.7,0.7l0,0c0.2,0.2,0.5,0.4,0.7,0.7l0,0
		c0.5,0.3,0.3,1,0.7,1.3l0,0c0.3,0.4,0.2,1,0.6,1.4l0,0c0.6,0.6,0.2,1.5,0.6,2.1c-0.1,0.2,0,0.3,0.1,0.5c0.6,0.5,0,1.4,0.7,1.9l0,0
		c0.2,0.2,0.4,0.5,0.6,0.6l0,0c0.4,0.5,0.9,0.4,1.3,0l0,0c0.3-0.3,0.5-0.5,0.9-0.6c0.2,0,0.3-0.1,0.4-0.2c0.2-0.1,0.4-0.3,0.6-0.5
		l0,0c0.2-0.2,0.5-0.4,0.6-0.6l0,0c0.2-0.2,0.4-0.4,0.6-0.6l0,0c0.2-0.2,0.4-0.4,0.6-0.6l0,0c0.2-0.2,0.4-0.4,0.6-0.6l0.1-0.1
		c0.2-0.2,0.4-0.4,0.6-0.6l0.1-0.1c0.3-0.2,0.5-0.4,0.6-0.6l0,0c0.3-0.2,0.5-0.4,0.7-0.6l0,0c0.3-0.4,1-0.3,1.3-0.7
		c0.2,0,0.5-0.1,0.7-0.1c0.6-0.3,1.3-0.3,1.9,0c0.2,0.1,0.4,0.1,0.6,0.1c0.4,0.4,1,0.2,1.4,0.7l0,0c0.2,0.2,0.4,0.3,0.7,0.3
		c0.3,0.1,0.5,0.2,0.6,0.4l0,0c0.2,0.2,0.5,0.4,0.7,0.5c0.1,0.1,0.3,0.2,0.4,0.2c0.4,0.1,0.6,0.3,0.9,0.6l0,0
		c0.2,0.2,0.4,0.3,0.7,0.3c0.3,0.1,0.5,0.2,0.6,0.4l0,0c0.2,0.2,0.5,0.4,0.7,0.5c0.1,0.1,0.2,0.2,0.4,0.2c0.4,0.1,0.7,0.3,0.9,0.6
		l0,0c0.2,0.2,0.4,0.4,0.6,0.5c0.1,0.2,0.3,0.2,0.5,0.2c0.3,0.1,0.5,0.3,0.8,0.5c0.1,0.1,0.2,0.2,0.4,0.1c0.4,0.1,0.7,0.3,0.9,0.6
		l0,0c0.2,0.2,0.4,0.4,0.7,0.5c0.1,0.2,0.3,0.2,0.5,0.2c0.3,0.1,0.6,0.4,0.9,0.6l0,0c0.3,0.5,0.9,0.3,1.3,0.7l0,0
		c0.2,0.2,0.4,0.4,0.7,0.5c0.1,0.1,0.3,0.2,0.5,0.2c0.3,0.1,0.6,0.3,0.8,0.5c0.1,0.1,0.2,0.2,0.4,0.1c0.4,0.1,0.7,0.3,0.9,0.6l0,0
		c0.3,0.4,1,0.3,1.3,0.7l0,0c0.4,0.4,0.9,0.3,1.3,0.6c0.6,0,1.2,0.1,1.8,0.1c1.1,0.6,2.3,0,3.4,0.5c0.6,0.1,1.3,0.1,1.9,0.2
		c0.4,0.3,1,0.3,1.4,0.5c0.2,0.1,0.3,0.2,0.5,0.2c0.3,0.1,0.6,0.4,0.8,0.6l0,0c0.2,0.2,0.5,0.4,0.7,0.7l0,0c0.2,0.2,0.5,0.4,0.6,0.7
		l0,0c0.5,0.3,0.3,1,0.7,1.3l0,0c0.4,0.4,0.3,1,0.6,1.4c0,0.2,0,0.4,0.1,0.6c0.5,0.6,0,1.4,0.6,2c-0.1,0.2,0,0.4,0.1,0.6
		c0.7,1.3-0.2,2.8,0.6,4.1c0,0.4,0.1,0.8,0.1,1.2c0.7,1.1-0.1,2.4,0.6,3.4c-0.1,0.2,0,0.4,0.1,0.5c0.4,0.4,0.2,1,0.6,1.4l0,0
		c0.2,0.2,0.5,0.4,0.7,0.6c0.2,0.1,0.3,0.2,0.6,0.1c0.4,0.3,1,0.3,1.4,0.5c0.6,0.1,1.2,0.1,1.8,0.2c0.5,0.2,1,0.2,1.5,0.5
		c0.2,0,0.4,0.1,0.7,0.1c0.4,0.4,0.9,0.3,1.3,0.5c0.2,0.1,0.3,0.2,0.5,0.2c0.3,0.1,0.5,0.3,0.8,0.5c0.1,0.1,0.2,0.2,0.4,0.2
		c0.4,0.1,0.7,0.3,0.9,0.7h-0.1c0.3,0.2,0.5,0.4,0.7,0.7l-0.1-0.1c0.5,0.3,0.4,0.9,0.8,1.3l0,0c0.4,0.4,0.3,1,0.6,1.4
		c0,0.2,0,0.4,0.1,0.6c0.5,2.1,0.3,4.4,0.2,6.5c-0.2,2.4,0.6,3.5,3.1,3.1c0.6-0.1,1.3-0.1,1.9,0.2c0.2,0,0.4,0.1,0.7,0.1
		c0.4,0.4,1,0.3,1.3,0.6l0,0c0.3,0.4,1,0.3,1.2,0.8l-0.1-0.1c0.5,0.2,0.3,0.9,0.8,1.2l0,0c0.3,0.4,0.3,1,0.6,1.4c0,1.2,0,2.5,0,3.7
		c-0.3,0.9-0.5,1.9,0.1,2.8c0.4,0,0.9-0.1,1.3-0.1c0.3-0.2,0.5-0.4,0.8-0.5c0.2,0,0.4-0.1,0.5-0.2c0.2-0.1,0.4-0.3,0.6-0.5l0,0
		c0.3-0.2,0.5-0.4,0.7-0.6l0,0c0.2-0.3,0.4-0.5,0.7-0.7l0,0c0.2-0.3,0.4-0.5,0.7-0.7l0,0c0.2-0.3,0.4-0.5,0.7-0.7l0,0
		c0.2-0.3,0.4-0.5,0.7-0.7l0,0c0.2-0.2,0.4-0.4,0.6-0.7l0,0c0.2-0.1,0.4-0.3,0.5-0.6c0.2-0.1,0.2-0.2,0.2-0.4
		c0.1-0.4,0.3-0.7,0.7-0.9v0.1c0.2-0.3,0.4-0.5,0.7-0.7l0,0c0.2-0.2,0.4-0.4,0.6-0.7l0,0c0.2-0.1,0.4-0.3,0.5-0.6
		c0.2-0.1,0.2-0.3,0.3-0.5c0.1-0.4,0.3-0.7,0.7-0.9l0,0c0.2-0.3,0.4-0.5,0.6-0.7l0,0c0.2-0.2,0.4-0.4,0.6-0.7l0.1-0.1
		c0.5-0.2,0.3-0.9,0.8-1.2l-0.1,0.1c0.1-0.3,0.4-0.5,0.7-0.7l0,0c0.2-0.3,0.4-0.5,0.7-0.7l0,0c0.2-0.2,0.4-0.5,0.6-0.7l0,0
		c0.2-0.2,0.4-0.4,0.6-0.7l0,0c0.2-0.2,0.4-0.4,0.6-0.6l0,0c0.2-0.2,0.5-0.4,0.7-0.6l0,0c0.2-0.2,0.4-0.5,0.7-0.6l0,0
		c0.2-0.3,0.5-0.5,0.9-0.6c0.2,0,0.4-0.1,0.5-0.2c0.2-0.1,0.5-0.3,0.7-0.5l0,0c0.4-0.4,1-0.3,1.4-0.7c0.2,0,0.4,0,0.6-0.1
		c1.3-0.4,2.6-0.4,3.9,0c0.2,0,0.4,0.1,0.6,0.1c0.4,0.4,1,0.2,1.4,0.7l0,0c0.3,0.2,0.5,0.4,0.7,0.6l0,0c0.2,0.2,0.4,0.5,0.6,0.7l0,0
		c0.2,0.2,0.5,0.4,0.6,0.7l0,0c0.5,0.3,0.3,1,0.7,1.3l0,0c0.4,0.4,0.3,1,0.6,1.5c0,0.2,0,0.4,0.1,0.5c0.3,0.4,0.3,1,0.5,1.5
		c-0.1,0.2,0,0.3,0.1,0.5c0.5,0.6,0.1,1.5,0.6,2.1c-0.1,0.2,0,0.4,0.1,0.5c0.5,0.6,0,1.4,0.6,2l0,0c0.4,0.3,0.2,0.9,0.7,1.2
		c0.1,0.1,0.2,0.2,0.4,0.2c0.4,0,0.6,0.3,0.9,0.5c0.2,0,0.4,0.1,0.7,0.1c0.3,0.4,0.9,0.3,1.3,0.5c0.4,0.1,0.8,0.1,1.2,0.2
		c0.5,0.3,1,0.2,1.5,0.5c0.4,0.1,0.7,0.1,1.1,0.2c0.5,0.2,1.1,0.2,1.5,0.5c0.2,0.1,0.4,0.2,0.6,0.1c0.4,0.3,1,0.3,1.4,0.5
		c0.2,0,0.4,0.1,0.7,0.1c0.4,0.4,1,0.3,1.3,0.6l0,0c0.1,0.2,0.3,0.4,0.6,0.5c0.3,0.3,0.6,0.6,0.8,0.9c0.2,0.2,0.3,0.5,0.5,0.7l0,0
		c0.4,0.4,0.4,1,0.6,1.5c-0.1,0.2,0,0.3,0.1,0.5c0.5,2,0.4,3.9,0,5.9c0,0.4-0.1,0.8-0.1,1.2c-0.7,1.1,0.1,2.4-0.6,3.4
		c0,0.2,0,0.4-0.1,0.7c0.2,0.6,0.6,0.1,0.9,0.1c0.2,0,0.4,0,0.5-0.2c0.4-0.3,1-0.2,1.4-0.5c0.4,0,0.8-0.1,1.3-0.1
		c0.4-0.2,0.9-0.2,1.3,0c0.4,0.1,0.8,0.1,1.2,0.2c0.3,0.1,0.5,0.3,0.8,0.4c0.2,0.1,0.4,0.2,0.6,0.2c0.2,0.2,0.5,0.3,0.7,0.5
		c0.1,0.1,0.3,0.2,0.5,0.2c0.3,0.1,0.5,0.3,0.8,0.5c0.1,0.1,0.2,0.2,0.4,0.1c0.4,0.1,0.7,0.3,0.9,0.6l0,0c0.2,0.2,0.5,0.2,0.7,0l0,0
		c0.2-0.2,0.4-0.4,0.6-0.6c0.1-0.1,0.2-0.2,0.2-0.4c0.1-0.4,0.3-0.7,0.6-0.9l0,0c0.2-0.2,0.4-0.4,0.5-0.7c0.2-0.1,0.2-0.3,0.2-0.5
		c0.1-0.4,0.3-0.6,0.6-0.9l0,0c0.2-0.2,0.4-0.4,0.5-0.6c0.2-0.1,0.2-0.3,0.2-0.5c0.1-0.4,0.3-0.6,0.6-0.9l0,0
		c0.2-0.2,0.4-0.4,0.5-0.7c0.1-0.1,0.2-0.2,0.2-0.4c0.1-0.4,0.3-0.7,0.6-0.9l0,0c0.2-0.3,0.4-0.5,0.6-0.7l0,0
		c0.2-0.2,0.4-0.4,0.5-0.6c0.2-0.1,0.2-0.2,0.2-0.4c0.1-0.4,0.3-0.7,0.7-0.9l0,0c0.2-0.3,0.4-0.5,0.7-0.7l0,0
		c0.2-0.2,0.4-0.4,0.6-0.7l0,0c0.2-0.2,0.4-0.4,0.6-0.6l0.1-0.1c0.2-0.1,0.4-0.3,0.5-0.5c0.7-0.7,1.5-1.5,2.2-2.2
		c0.2-0.1,0.4-0.2,0.5-0.5l0.1-0.1c0.3-0.1,0.5-0.3,0.6-0.5l0,0c0.2-0.2,0.5-0.4,0.7-0.6l0,0c0.2-0.3,0.5-0.5,0.8-0.6
		c0.2,0,0.4-0.1,0.5-0.2c0.2-0.1,0.4-0.3,0.6-0.5l0,0c0.3-0.3,0.5-0.5,0.9-0.6c0.2,0,0.3,0,0.4-0.1c0.4-0.3,1-0.2,1.3-0.6
		c0.2,0,0.5-0.1,0.7-0.1c0.4-0.2,1-0.1,1.3-0.5c1.2,0,2.5,0,3.7,0c0.5,0.2,1.1,0.2,1.5,0.6l0,0c0.3,0.4,0.9,0.3,1.3,0.7l0,0
		c0.3,0.4,1,0.3,1.3,0.7l0,0c0.7,0.5,1.5,0.3,2.2,0c0.2,0,0.4-0.1,0.5-0.2c0.2-0.1,0.4-0.3,0.6-0.5l0,0c0.3-0.2,0.5-0.5,0.8-0.6
		c0.2,0,0.4-0.1,0.5-0.2c0.2-0.1,0.5-0.3,0.7-0.5c0.2,0,0.4,0,0.6-0.2c0.3-0.1,0.5-0.4,0.9-0.4c1.2,0,2.4,0,3.7,0
		c0.4,0.3,1,0.3,1.4,0.5c0.1,0.1,0.3,0.2,0.5,0.1c0.3,0.1,0.6,0.4,0.9,0.5h0.1c0.3,0.5,1,0.3,1.2,0.8l-0.1-0.1
		c0.3,0.2,0.5,0.4,0.7,0.7l0,0c0.3,0.2,0.5,0.4,0.7,0.7l0,0c0.3,0.2,0.5,0.4,0.7,0.7l0,0c0.2,0.2,0.5,0.4,0.7,0.7l0,0
		c0.3,0.2,0.5,0.4,0.7,0.7l0,0c0.3,0.2,0.5,0.4,0.7,0.7l0,0c0.3,0.2,0.5,0.4,0.7,0.7l0,0c0.3,0.2,0.6,0.4,0.7,0.7H371
		c0.3,0.1,0.6,0.4,0.7,0.7l-0.1-0.1c0.3,0.1,0.6,0.4,0.7,0.7l0,0c0.3,0.1,0.5,0.4,0.7,0.7l0,0c0.2,0.2,0.4,0.3,0.7,0.5
		c0.5,0,0.9,0,1.4,0c0.4-0.3,1-0.2,1.4-0.5l0,0c0.2-0.3,0.4-0.5,0.7-0.7l0,0c0.1-0.3,0.4-0.5,0.6-0.8l0,0
		C377.9,439.9,377.8,439.3,378.1,438.9z"/>
	<path class="st0" d="M163,355.7c-0.5,0-1-0.2-1.3-0.6C162.2,355.1,162.7,355.2,163,355.7z"/>
	<path class="st0" d="M158.4,353.8c-0.6,0-1.1-0.1-1.4-0.6C157.5,353.1,158.1,353.2,158.4,353.8z"/>
	<path class="st0" d="M155.1,352.4c-0.6,0-1-0.1-1.4-0.6C154.3,351.8,154.8,351.9,155.1,352.4z"/>
	<path class="st0" d="M151.8,351.1c-0.6,0-1-0.1-1.4-0.6C151,350.5,151.5,350.6,151.8,351.1z"/>
	<path class="st1" d="M161.7,355.1c-0.2-0.1-0.4-0.1-0.7-0.2c-0.2-0.1-0.2-0.2-0.2-0.3c0.1-0.1,0.1-0.2,0.2-0.2
		C161.2,354.7,161.5,354.9,161.7,355.1z"/>
	<path class="st0" d="M161,354.4c0,0.2,0,0.3,0,0.5c-0.4,0-0.6-0.1-0.8-0.5C160.5,354.5,160.8,354.5,161,354.4z"/>
	<path class="st0" d="M159.7,354.3c-0.4,0-0.7-0.2-0.9-0.5C159.2,353.9,159.5,354,159.7,354.3z"/>
	<path class="st0" d="M156.4,353c-0.4,0-0.7-0.2-0.9-0.5C155.8,352.7,156.1,352.8,156.4,353z"/>
	<path class="st0" d="M153.1,351.7c-0.4,0-0.6-0.1-0.8-0.5C152.5,351.4,152.8,351.5,153.1,351.7z"/>
	<path class="st0" d="M149.8,350.3c-0.4,0-0.7-0.1-0.9-0.5C149.2,350,149.5,350.2,149.8,350.3z"/>
</g>
</svg>
