<svg xmlns="http://www.w3.org/2000/svg" viewBox="0 0 592.81 115.96"><path d="M256.95,115.96c-11.6,0-21-9.3-21.1-20.9,0-5.9,2.4-11.5,6.7-15.4L321.35,6.06c8.8-7.6,22-6.6,29.6,2.1,7.2,8.3,6.8,20.7-.9,28.5l-78.7,73.7c-3.9,3.6-9,5.6-14.4,5.6Z" style="fill:#333;"/><path d="M99.55,115.96c-5.3,0-10.5-2-14.4-5.7L6.45,36.56C-1.95,28.56-2.15,15.26,5.85,6.86,13.75-1.34,26.75-1.74,35.15,5.86L113.85,79.56c8.5,7.9,8.9,21.2,1,29.7-4,4.2-9.5,6.6-15.3,6.7h0Z" style="fill:#444;"/><path d="M571.85,115.96c-5.3,0-10.5-2-14.3-5.7l-78.8-73.7c-8.4-8-8.6-21.3-.6-29.7,7.9-8.2,20.9-8.7,29.3-1l78.7,73.7c8.5,7.9,8.9,21.2,1,29.7-3.9,4.2-9.5,6.6-15.3,6.7h0Z" style="fill:#333;"/><path d="M414.35,115.96c-11.6,0-21-9.4-21-21,0-5.8,2.4-11.4,6.7-15.4L478.75,5.86c8.5-7.9,21.8-7.5,29.7,1s7.5,21.8-1,29.7h0l-78.7,73.7c-3.9,3.7-9.1,5.7-14.4,5.7Z" style="fill:#333;"/><path d="M414.35,115.96c-5.3,0-10.5-2-14.3-5.7l-78.7-73.7c-8.6-7.8-9.2-21.1-1.3-29.7s21.1-9.2,29.7-1.3c.1,.1,.3,.2,.4,.4l78.6,73.6c8.5,7.9,9,21.2,1.1,29.7-4,4.3-9.6,6.7-15.5,6.7Z" style="fill:#444;"/><path d="M256.95,115.96c-5.3,0-10.5-2-14.4-5.7L163.85,36.56c-8.6-7.8-9.2-21.1-1.3-29.7s21.1-9.2,29.7-1.3c.1,.1,.3,.2,.4,.4l78.7,73.6c8.5,7.9,8.9,21.2,1,29.7-4,4.2-9.5,6.6-15.4,6.7h0Z" style="fill:#444;"/><path d="M99.55,115.96c-11.6,0-21-9.3-21.1-20.9,0-5.9,2.4-11.5,6.7-15.4L163.85,5.86c8.5-7.9,21.8-7.5,29.7,1s7.5,21.8-1,29.7L113.85,110.26c-3.9,3.6-9,5.7-14.3,5.7Z" style="fill:#4d4d4d;"/></svg>
