<svg viewBox="0 0 257.5 26">
<style type="text/css">
	.st0{fill:#851736;}
	.st1{fill:#E67E9C;}
	.st2{fill:#FAE5EC;}
	.st3{fill:#F1D3DC;}
	.st4{fill:#9B445D;}
	.st5{fill:#EABCC9;}
	.st6{fill:#CFB3BC;}
	.st7{fill:#EBCCD5;}
	.st8{fill:#D5BDC4;}
	.st9{fill:#F1C9D5;}
	.st10{fill:#EBB1C2;}
	.st11{fill:#F4D4DD;}
	.st12{fill:#F5C9D6;}
	.st13{fill:#FAE2E9;}
	.st14{fill:#FDF0F4;}
	.st15{fill:#EECDD7;}
	.st16{fill:#F8C7D5;}
	.st17{fill:#FADCE5;}
	.st18{fill:#F185A4;}
	.st19{fill:#E3CBD2;}
	.st20{fill:#E83B6D;}
	.st21{fill:#F49CB5;}
	.st22{fill:#FBE6EC;}
	.st23{fill:#D2ABB6;}
	.st24{fill:#F8BDCE;}
	.st25{fill:#E5D9DD;}
	.st26{fill:#E095AA;}
	.st27{fill:#DDC6CD;}
	.st28{fill:#F8CFDB;}
	.st29{fill:#F9DEE6;}
	.st30{fill:#F6BCCD;}
	.st31{fill:#F7C9D6;}
	.st32{fill:#F5F0F2;}
	.st33{fill:#F1BCCB;}
	.st34{fill:#F9E0E8;}
	.st35{fill:#C6A4AE;}
	.st36{fill:#CEA5B1;}
	.st37{fill:#D4BAC1;}
	.st38{fill:#F9DBE4;}
	.st39{fill:#FCEDF2;}
	.st40{fill:#EBBDCB;}
	.st41{fill:#F8EDF1;}
	.st42{fill:#DCB6C1;}
	.st43{fill:#EFE5E8;}
	.st44{fill:#F1C8D4;}
	.st45{fill:#D5B2BC;}
	.st46{fill:#F3B3C5;}
	.st47{fill:#F8E6EB;}
	.st48{fill:#F39FB7;}
	.st49{fill:#B67688;}
	.st50{fill:#EF8DA9;}
	.st51{fill:#F9ECF0;}
	.st52{fill:#C19CA7;}
	.st53{fill:#FCEAF0;}
	.st54{fill:#FBE8EE;}
	.st55{fill:#C72352;}
	.st56{fill:#DB265A;}
	.st57{fill:#A4546A;}
	.st58{fill:#E35D83;}
	.st59{fill:#C86C87;}
	.st60{fill:#EDA0B6;}
	.st61{fill:#F588A7;}
	.st62{fill:#C74E71;}
	.st63{fill:#E5517B;}
	.st64{fill:#F1A5BB;}
	.st65{fill:#E03163;}
	.st66{fill:#E7B2C1;}
	.st67{fill:#CC5879;}
	.st68{fill:#C84A6F;}
	.st69{fill:#E0849F;}
	.st70{fill:#831736;}
	.st71{fill:#AF7F8C;}
	.st72{fill:#C99AA8;}
	.st73{fill:#D36D8A;}
	.st74{fill:#8A4459;}
	.st75{fill:#853C51;}
	.st76{fill:#8A4357;}
	.st77{fill:#A77281;}
	.st78{fill:#AD6F80;}
	.st79{fill:#E76E90;}
	.st80{fill:#E04672;}
	.st81{fill:#ED92AC;}
	.st82{fill:#E297AD;}
	.st83{fill:#DF7C98;}
	.st84{fill:#ED648B;}
	.st85{fill:#E6285F;}
	.st86{fill:#E54573;}
	.st87{fill:#F3678F;}
	.st88{fill:#742D41;}
	.st89{fill:#B48E99;}
	.st90{fill:#955E6E;}
	.st91{fill:#EA678D;}
	.st92{fill:#B58895;}
	.st93{fill:#CCB2B9;}
	.st94{fill:#6C132C;}
	.st95{fill:#E34975;}
	.st96{fill:#E75E85;}
	.st97{fill:#E2285E;}
	.st98{fill:#DD3263;}
	.st99{fill:#DE265B;}
	.st100{fill:#E4517B;}
	.st101{fill:#BB204D;}
	.st102{fill:#6B132D;}
	.st103{fill:#82374C;}
	.st104{fill:#894356;}
	.st105{fill:#824053;}
	.st106{fill:#EA4D7A;}
	.st107{fill:#E56B8F;}
	.st108{fill:#F24D7C;}
	.st109{fill:#F14274;}
	.st110{fill:#621128;}
	.st111{fill:#8D5364;}
	.st112{fill:#E74A77;}
	.st113{fill:#F0396E;}
</style>
<g>
	<path class="st0" d="M178.1,13.8H178h-0.1c-0.8-0.2-1.4-0.6-2.2-0.8c-1-0.4-1.5-1.3-2.4-1.9c-0.7-0.3-1.3-0.8-1.3-1.7
		c0.2-1.1,1.9-2.3,3.4-2.7c2.1-0.5,4.1,0.1,6.1,0.3c0.2,0.1,0.5,0.2,0.7,0.4c0.2,0.3,0.1,0.5-0.1,0.8c-0.7,1.1-0.6,1.4,0.3,2.2
		c0.5,0.4,0.9,0.8,1.3,1.3c0.3,0.4,0.5,0.9,0.3,1.4c-0.5,0.7-1.2,1-2.1,0.9C180.6,14,179.3,14.3,178.1,13.8z"/>
	<path class="st1" d="M140.6,13.6c-0.1,0-0.3,0-0.4-0.1c-0.7-0.2-1.5-0.3-2.2-0.7c-0.4-0.2-0.7-0.6-1.1-0.9
		c-0.1-0.1-0.2-0.2-0.3-0.3c-0.2-0.4-0.6-0.6-1-0.8c-0.6-0.3-0.8-0.8-1.1-1.3c-0.4-0.8,0.1-1.3,0.6-1.7c0.7-0.5,1.4-1.1,1.8-2
		c0.3-0.6,0.7-0.8,1.4-0.8c0.8,0,1.5,0.1,2.2,0.2c3.6,0.5,7.2,0.2,10.9,0.3c5.1,0.1,10.3,0.4,15.4,0.2c1.3-0.1,1.8,1.1,2.6,1.7
		c0.1,0.2,0,0.3-0.1,0.4c-0.5,0.2-1,0.2-1.4,0c-0.8-0.5-1.7-0.5-2.7-0.5c-4.9-0.1-9.7-0.4-14.6-0.3c-3.4,0.1-6.9-0.2-10.3-0.4
		c-1.7-0.1-3.1,0.8-4.4,1.9c-0.5,0.5-0.3,1,0.1,1.3c1.2,1,2.1,2.3,3.7,2.7c0.6,0.1,1.1,0.4,1.5,0.9c0,0.2,0,0.3-0.2,0.3
		C141,13.8,140.8,13.7,140.6,13.6z"/>
	<path class="st2" d="M219.6,14.3c-4.7,0-9.3,0.1-14,0c-1.5,0-3.2-0.4-4.4-1.2s-2.7-1.7-3.2-3.4c-0.4-1.2,0.1-2,1.1-2.7
		c0.6-0.4,1.2-0.9,1.1-1.7c-0.1-0.6,0.3-0.5,0.6-0.5c5.2,0,10.4-0.1,15.6,0.1c1.4,0,2.5,1.1,3.6,2.1c-0.2,0.3-0.5,0.4-0.8,0.5
		s-0.7,0-0.9-0.2c-0.3-0.1-0.7-0.2-0.9-0.4c-1-1.3-2.3-1.1-3.7-1.1c-3.5,0-7,0-10.5,0c-1,0-1.8,0.1-2.3,1.1
		c-0.3,0.6-0.9,0.9-1.4,1.3c-1,0.6-1.2,1.1-0.4,1.9c1.5,1.5,2.9,3.3,5.3,3.3c0.3,0,0.6,0.2,0.9,0.4c0.5,0.3,1.1,0.2,1.6,0.2
		c3.8,0,7.6,0,11.4,0C218.6,13.8,219.3,13.5,219.6,14.3z"/>
	<path class="st3" d="M38.4,17.4c-1.1,1.3-2.6,1.2-4,1.4c-5.4,1-10.8,1-16.3,1c-1.6,0-3.3,0.3-4.9,0.7c-1.6,0.4-3-0.1-4.5-0.5
		c-1.1-0.3-2.3-0.4-3-1.6c-0.3-0.5-1.2-0.7-1.5-1.3c-0.5-0.9-1-1.9-0.1-2.8c0.1,0.1,0.2,0.3,0.2,0.5c-0.2,0.9,0.2,1.5,0.8,1.9
		c0.7,0.5,1.2,1.1,1.8,1.7c0.9,0.8,2.1,0.8,3.2,1.3c1.9,0.2,3.6-0.4,5.4-0.5c1.7-0.2,3.5-0.6,5.2-0.2c4.2,0.2,8.3,0,12.4-0.8
		c1-0.2,2,0,2.9-0.4c0.6-0.3,1.2-0.5,1.9-0.5C38.2,17.3,38.3,17.3,38.4,17.4z"/>
	<path class="st4" d="M247,7.3c0.1,0,0.1,0,0.2,0s0.2,0,0.4,0c0.9,0.7,1.4,1.7,2.2,2.4c0.6,0.6,0.3,2.2-0.3,3.1
		c-0.3,0.4-0.6,0.8-1,1c-0.1,0.1-0.3,0.2-0.4,0.2c-2.8,0.1-5.5,0.2-8.3-0.1c-0.1-0.1-0.2-0.2-0.3-0.3c0.4-0.6,1-0.4,1.5-0.4
		c1.9,0,3.7,0,5.6,0c1.2,0,2-0.7,2.1-1.8c0.1-0.5,0-1-0.4-1.3c-0.6-0.5-1.3-1-1.5-1.9c-0.1-0.3-0.6-0.4-0.9-0.5
		c-2.8-0.4-5.6-0.3-8.5-0.2c-0.3,0-0.6,0.1-0.9,0.2c-0.7,0.2-1.4,0.6-1.9,1.2c-0.7,0.8,0.6,1.1,0.7,1.8c0,0.2-0.1,0.4-0.3,0.4
		c-0.1,0-0.2,0-0.4-0.1c-0.9-0.5-1.6-1.1-1.5-2.2c0.2-0.5,0.7-0.6,1-0.9c0.4-0.2,0.8-0.4,1-0.8c0.1-0.1,0.2-0.2,0.3-0.2
		c1.2-1.4,3-1.2,4.5-1.4c0.9,0.1,1.7,0.1,2.6,0.1c1,0,1.9-0.1,2.5,0.9c0.2,0.3,0.6,0.2,1,0.3C246.4,6.8,246.7,7,247,7.3z"/>
	<path class="st5" d="M4.1,14.8c0-0.2,0-0.3,0-0.5c0.8-0.8,1.9-1.4,2-2.7c0-0.4,0.5-0.4,0.9-0.4c3.3-0.4,6.5-0.8,9.8-1.1
		c0.9-0.1,1.9,0,2.9,0c2.6,0,5.3,0.1,7.9-0.3c1.6-0.4,3.3-0.5,4.9-0.8c0.4-0.1,0.8-0.1,1.2,0.1c0.1,0.2,0.3,0.2,0.5,0.2l0.1,0.1
		c0.2,0.3,0.4,0.6,0.8,0.7c0.1,0,0.2,0.1,0.3,0.1c0.3,0.2,1,0.3,0.6,0.9c-0.2,0.1-0.5,0.1-0.8,0c-0.5-0.1-1-0.2-1.2-0.7
		c-0.5-0.8-1.1-0.8-1.9-0.6c-3.8,0.5-7.5,1.4-11.4,1.2c-4.3-0.2-8.6,0.3-12.8,1c-0.5,0.1-0.8,0.3-1,0.7c-0.3,0.7-0.8,1.2-1.4,1.6
		C4.9,14.6,4.6,14.9,4.1,14.8z"/>
	<path class="st6" d="M80.4,8.3c1.5,1.2,3.5,1.5,4.8,3c0.4,0.4,0.8,0.8,1.5,0.8c0.7-0.1,1,0.6,0.8,1c-0.7,1-0.4,2.5-1.6,3.3
		c-0.2,0.1-0.3,0.2-0.5,0.3c-0.3-0.5,0.1-0.7,0.3-1c0.3-0.3,0.4-0.6,0.5-1c0.2-1.1,0.2-2-1-2.4c-0.5-0.2-0.6-1-1.2-1.2
		c-0.8-0.5-1.9-0.2-2.7-0.7c-0.7-1-1.6-1.2-2.7-1.2c-4.7,0.1-9.5,0-14.2,0c-1.1,0-2,0.2-2.7,1.2c-0.3,0.5-0.7,1-1.4,1
		c-0.3,0-0.3-0.2-0.4-0.5c0-0.1,0.1-0.3,0.2-0.4l0,0c0.4-0.2,0.6-0.7,1-1l0,0c0.3-0.6,0.3-1.4,1.3-1.3c5.6,0,11.2,0,16.8,0
		C79.5,8.2,80,8.1,80.4,8.3z"/>
	<path class="st7" d="M128.1,17.2c-0.5,0.8-1.2,1-2.1,1c-2.2,0-4.4-0.1-6.6,0c-2.9,0.1-5.8,0.4-8.7,0.3c-1.2,0-2.7,0.4-3.7-0.8
		c0.1-0.1,0.2-0.2,0.4-0.3c0.3-0.1,0.6-0.1,0.9-0.1c5.8,0.1,11.5-0.4,17.3-0.2c0.6,0,1.3,0,1.9-0.2C127.7,16.9,127.9,17,128.1,17.2z
		"/>
	<path class="st8" d="M84.8,17c-0.3,0.6-0.8,0.7-1.4,0.7c-5.6,0-11.1,0-16.7,0c-0.6,0-1.1-0.2-1.4-0.7c0.1-0.1,0.2-0.2,0.4-0.3
		c0.4-0.1,0.8-0.1,1.2-0.1c5.5,0,11,0,16.5,0c0.4,0,0.8,0,1.2,0.1C84.5,16.8,84.7,16.9,84.8,17z"/>
	<path class="st9" d="M140.6,13.6c0.2,0,0.3,0,0.5,0c5.7,0.5,11.5,0.2,17.2,0.4c4.3,0.2,8.7,0.1,13,0.1c0.1,0,0.3,0,0.4,0
		c0.1,0,0.3,0.1,0.4,0.2c-0.2,0.7-0.8,0.7-1.4,0.7c-8.1,0.1-16.2-0.4-24.3-0.3c-1.6,0-3.1-0.5-4.7-0.4
		C141.2,14.3,140.9,14,140.6,13.6z"/>
	<path class="st10" d="M169.4,7.6c-0.2-0.1-0.6-0.2-0.7-0.4c-0.7-1.6-2.1-1.3-3.4-1.3c-7.3,0-14.7-0.4-22-0.3c-1,0-2-0.1-2.9-0.4
		c0.4-0.2,0.8-0.2,1.2,0c0.4,0,0.8,0,1.2,0c2.4,0.2,4.8,0.2,7.2,0c5.8-0.1,11.5,0.4,17.3,0.2c0.4,0.2,1,0,1.3,0.4
		c0.3,0.5,0.7,0.8,1.3,0.9c0.4,0.1,0.8,0.3,0.5,0.9C170,7.9,169.7,7.9,169.4,7.6z"/>
	<path class="st11" d="M101,12.4c0.4-0.5,0.8-1.1,1.4-1.5c0.3-0.2,0.8-0.6,0.7-0.9c-0.1-1.5,0.9-1.2,1.7-1.2
		c5.6,0.1,11.2-0.3,16.8-0.3c2.1,0,3.5,1.1,5.1,2.2c0,0.1-0.1,0.1-0.1,0.2c-0.3,0.2-0.7,0.2-1,0.1c-0.5-0.2-1.2-0.3-1.5-0.7
		c-0.8-1-1.9-1.1-3-1c-0.2,0-0.5,0-0.7,0c-5.1-0.3-10.1,0.7-15.1,0.5c-0.7,0-1.1,0.3-1.5,0.8c-0.5,0.8-1.2,1.5-2,2
		c-0.1,0.1-0.3,0.1-0.4,0.1c-0.1,0-0.1,0-0.2,0C101.1,12.5,101,12.4,101,12.4z"/>
	<path class="st12" d="M193,6.9c0.4,0,0.6,0.4,0.9,0.5c0.2,0.7,0.6,0.9,1.3,1c1.6,0.3,1.7,0.7,0.8,2.1c-0.1,0.1-0.2,0.2-0.1,0.3
		c0.4,1.4-0.7,1.9-1.5,2.6c-1.9,1.5-4.2,0.9-6.3,1.2c-0.4,0.1-0.7-0.3-0.9-0.7c0.1-0.1,0.2-0.2,0.3-0.3c1.9-0.2,3.7-0.2,5.6-0.5
		c1.6-0.5,2.4-1.9,1.9-3.3c-0.1-0.2-0.2-0.3-0.4-0.4c-1.1-0.5-1.4-1.5-1.9-2.5C192.8,6.8,192.9,6.8,193,6.9z"/>
	<path class="st13" d="M171.4,7.6c0.6,0.1,1-0.2,1.4-0.5c0.2-0.3,0.4-0.5,0.7-0.7l0,0c0.4-0.4-0.2-1.1,0.5-1.4c1.5,0,3,0,4.6,0
		c0.8,0,1.5,0.2,2,0.7c0.4,0.4,0.8,0.5,1.2,0.6c0.7,0.2,1.2,0.1,1.1-0.8c0-0.3,0.1-0.5,0.5-0.6c0.2,0.5,0.1,1,0,1.6
		c-0.2,0.9-0.9,0.9-1.6,0.8c-0.9-0.1-1.8-0.2-2.4-1c-0.5-0.6-1.3-0.4-2-0.5c-1.5-0.1-2.8,0-3.5,1.6c-0.2,0.5-0.8,0.8-1.3,1
		c-0.7,0.2-1.3,0.2-1.5-0.7C171.1,7.5,171.2,7.5,171.4,7.6z"/>
	<path class="st14" d="M128.1,11.7c0.9-1.2,2.3-2.1,2.9-3.7c0.3-0.7,0.8-0.4,1.3-0.1c0.3,0.2,0.4,0.5,0.7,0.6
		c0.5,0.2,1.1,0.9,1.3-0.3c0.1-0.4,0.4-0.7,0.8-1c0.6-0.6,1.6-0.9,1.2-2.1c-0.1-0.5,0.7-0.2,1.1-0.3c0,1.3-0.8,2.1-1.7,2.8
		c-0.6,0.5-1.2,0.9-1.1,1.8c0.1,0.7-1.1,1-2.3,0.6c-0.3-0.2-0.2-0.6-0.4-0.8c-0.2,0.2-0.2,0.4-0.4,0.6c-0.1,0.1-0.2,0.2-0.2,0.2
		c-0.7,0.6-1.6,1-2.2,1.8C128.8,12.1,128.4,12.4,128.1,11.7z"/>
	<path class="st15" d="M219.6,14.3c-0.4-0.4-0.8-0.2-1.2-0.2c-4.1,0-8.2,0-12.3,0c-0.5,0-1.1,0.2-1.3-0.5c0.5-0.4,1.1-0.3,1.6-0.3
		c4,0,8.1,0,12.1,0c0.6,0,1.2,0,1.8-0.2c0.2,0,0.5,0,0.7,0.1c0.1,0.1,0.1,0.1,0.2,0.2C220.6,13.8,220.2,14.1,219.6,14.3z"/>
	<path class="st16" d="M136.7,11.5c0.1,0.1,0.2,0.2,0.3,0.2c0.3,0.4,0.4,0.9,1,0.9c0.8,0.3,1.5,0.4,2.2,0.9c-0.2,0-0.5,0-0.7,0
		c-0.9-0.3-1.4-0.2-1.8,0.8c-0.7,1.9-1.8,2.2-3.7,1.3c-0.1-0.1-0.3-0.2-0.4-0.2c-1.2,0.2-1.9-0.6-2.6-1.4c-0.2-0.2-0.4-0.4-0.4-0.7
		c0.2-0.7,0.6-0.4,0.9-0.1c0.4,0.4,0.7,0.8,1.1,1.2c0.1,0.1,0.2,0.1,0.3,0.2c1,0,1.9,0.5,2.9,0.8c0.1-0.1,0.2-0.2,0.4-0.3
		c0.2-0.3,0.3-0.6,0.4-1c0.3-1,0-1.6-0.9-2c-0.3-0.1-0.5-0.2-0.8-0.2s-0.5-0.1-0.7-0.3C134.8,10.7,135.5,10.6,136.7,11.5z"/>
	<path class="st17" d="M47.3,9.3c0.6,0.3,1.4,0.2,1.7,0.9l-0.1,0.1c-0.3,0.2-0.6,0.2-0.9,0.2c-0.2,0-0.4,0-0.5-0.1
		c-0.4-0.1-0.8-0.3-1-0.6C45,8.1,43.1,9,41.3,8.9c-0.4,0-0.6,0.4-0.7,0.7c-0.3,0.6-0.8,1.1-1.3,1.5c-0.7,0.5-1.4,0.8-2.2,0.3
		c-0.1-0.1-0.2-0.2-0.3-0.3c0.1-0.4,0.3-0.4,0.5-0.2c0.7,0.2,1.2-0.4,1.7-0.7c0.3-0.2,0.4-0.5,0.7-0.7c0.1-0.2,0.2-0.5,0.2-0.7
		c0.2-0.2,0-0.5,0.2-0.7c2.2,0.1,4.4-0.4,6.5,0.5C46.7,8.9,47,9.1,47.3,9.3z"/>
	<path class="st17" d="M49,10.2c0.3,0.1,0.7,0.1,0.9,0.3c0.6,0.9,1.4,1.1,2.4,1.3c0.7,0.1,1,1,0.7,1.5c-0.7,1-0.6,2.4-1.7,3.2
		c-0.4,0.3-0.6,0.6-1.1,0.5c-0.1-0.4,0.1-0.7,0.4-0.9c0.9-0.7,0.7-1.7,0.8-2.6c0.1-0.3-0.2-0.5-0.4-0.7C49.9,12.2,49.4,11.2,49,10.2
		L49,10.2z"/>
	<path class="st18" d="M48.9,10.3c0.6,0.3,0.8,0.8,1.1,1.3c0.1,0.1,0.1,0.2,0.2,0.3c0.6,0.6,1.8,0.7,1.4,2.3c-0.3,1-0.7,1.7-1.3,2.5
		c-0.1,0.1-0.1,0.2-0.2,0.3c-1.8,0.3-3.7,0.5-5.5,0c0.4-0.4,0.9-0.3,1.3-0.3c0.8,0,1.5,0,2.3,0c1.1-0.1,2-0.7,2.2-1.7s0.1-1.9-1-2.4
		c-0.8-0.4-0.6-1.6-1.5-1.9c-0.1-0.1-0.1-0.2,0-0.3C48.3,10.3,48.6,10.3,48.9,10.3z"/>
	<path class="st19" d="M239.5,13.8c2.7,0.2,5.5,0.1,8.2,0c0.3,0,0.6-0.2,0.9-0.2c0.1-0.1,0.3-0.1,0.4-0.1l0.1,0.1
		c-0.8,0.9-1.8,1-2.9,1c-1.8-0.1-3.7,0-5.5,0c-0.6,0-1.2,0.1-1.5-0.7C239.3,13.8,239.4,13.7,239.5,13.8z"/>
	<path class="st20" d="M48,10.5c0.6,0.2,1.2,0.4,1.2,1.2c0,0.3,0.2,0.5,0.5,0.6c1.3,0.5,1.3,1.6,1.2,2.7c-0.2,1.1-1.3,1.9-2.5,2
		c-1.2,0-2.5,0-3.7,0.1h-0.1h-0.1c-0.7-0.2-1.5-0.2-2-0.9c0-0.1,0-0.2,0.1-0.3c0.4-0.2,0.8-0.1,1.1,0.1c1.6,0.9,3.2,0.6,4.9,0.4
		c0.9-0.1,1.2-0.7,1.3-1.5c0.2-0.8,0.1-1.5-0.7-1.8c-0.6-0.3-1.1-0.5-0.9-1.3c0.1-0.6-0.8-0.5-0.7-1.1C47.7,10.4,47.8,10.3,48,10.5z
		"/>
	<path class="st21" d="M132.5,14.8c-0.5-0.3-0.9-0.7-1.2-1.2c-0.2-0.3-0.3-0.6-0.7-0.2c-0.5,0.6-1,1.2-1,2c0,0.7-0.6,1.1-1,1.5
		c-0.1,0-0.1,0.1-0.2,0.1c-0.1,0.1-0.2,0.1-0.3,0.2c-0.1,0-0.3,0-0.4,0c-0.1-0.4,0.1-0.6,0.2-0.9c0.8-1.2,1-2.3,0.2-3.6
		c0-0.1,0-0.1,0.1-0.2c0.5-0.2,1.2-0.1,1.1-1.1c-0.1-0.6,0.8-0.5,1.1-0.8c0.6-0.1,0.9-1.1,1.7-0.5c0,0.2-0.1,0.3-0.2,0.5
		c0,0.1-0.1,0.1-0.2,0.2c-0.3,0.5-1.3,0.4-1.3,1s0.8,0.8,1.2,1.2s0.9,0.8,0.9,1.5C132.6,14.6,132.5,14.7,132.5,14.8z"/>
	<path class="st22" d="M131,13.8c0.6,0.8,1.2,1.6,2.4,1.5c0.2,0,0.4,0.1,0.6,0.2c1.6,1,3.1,0.6,3.4-1.2c0.3-1.9,1.3-0.8,2-0.7
		c-0.7,0-1.1,0-1.3,0.9c-0.3,1.4-2.5,2.3-3.7,1.7s-2.6-0.4-3.5-1.7c-0.3-0.5-0.9,0.1-0.8,0.7c0.1,1-0.7,1.3-1.2,2
		c-0.1,0.2-0.4,0-0.5-0.1l0,0c0.6-0.7,1.3-1.3,1.3-2.4C129.7,13.9,130.2,13.4,131,13.8z"/>
	<path class="st23" d="M247,7.3c-0.3-0.1-0.7-0.2-1-0.2c-0.6-0.2-1.2-0.3-1.4-0.9c-0.2-0.4-0.5-0.5-0.9-0.5c-2.2,0-4.4-0.1-6.6,0.1
		c-0.4,0-0.8,0-1.1,0.4c-0.2,0.4-0.5,0.7-0.8,1c0,0.1,0,0.1-0.1,0.2s-0.2,0.1-0.3,0.1c-0.1,0-0.1-0.1-0.2-0.2c0.7-2.3,0.7-2.3,3-2.3
		c1.4,0,2.9,0,4.3,0c1.3,0,2.5,0,3.4,1.1C245.8,6.6,246.8,6.4,247,7.3z"/>
	<path class="st24" d="M132,10.2c-0.7-0.5-0.8,0.7-1.4,0.5c-0.1-0.6,0.4-0.7,0.7-1l0,0c0.3-0.2,0.6-0.3,1,0c1.3,0.4,1.9,0.1,2.2-1.1
		c0.1-0.4,0.3-0.6,0.6-0.9c1-0.9,1.9-1.8,2.3-3.1c1.5,0,2.9,0,4.3,0.5c-0.4,0-0.8,0-1.2,0c-0.5,0-0.9,0-1.4,0
		c-0.9-0.1-1.6,0.1-1.9,1.1c-0.3,0.7-1,1.2-1.6,1.7c-0.6,0.4-1,0.8-0.5,1.6c0.2,1.4-1.2,0.9-1.8,1.4C132.6,11.3,132.2,10.8,132,10.2
		z"/>
	<path class="st25" d="M220.8,7.6c0.9,0.8,1.6,0.7,2.3-0.3c0.5-0.7,1.6-1,1.4-2.1c0-0.3,0.4-0.3,0.6-0.3c0.7,0,1.6-0.1,2.1,0.2
		c1,0.6,2.2,1.1,3,2c-0.1,0.2-0.3,0.3-0.5,0.4c-0.1,0-0.2,0-0.3-0.1c-0.7-0.5-1.6-0.8-2.3-1.5c-0.7-0.7-1.5-0.5-1.9,0.4
		c-0.5,1-1.4,1.6-2.2,2.3c-0.5,0.4-1,1-1.7,0.4C220.9,8.5,220.5,8.2,220.8,7.6z"/>
	<path class="st19" d="M247.4,7.4c-0.1,0-0.2-0.1-0.2-0.1c0.7-0.4,1.2-0.1,1.6,0.5s0.9,1,1.6,0.9s0.8,0.3,1.1,0.7
		c0.3,0.5,0,0.8-0.3,1.1c-0.2,0.2-0.4,0.3-0.3,0.7c0.2,1.2-0.6,1.9-1.6,2.3l-0.1-0.1c-0.1-0.3,0-0.5,0.2-0.6
		c1.1-0.7,0.4-1.9,0.9-2.8c0.1-0.1-0.1-0.3-0.2-0.4C248.8,9.3,248.4,8,247.4,7.4z"/>
	<path class="st26" d="M187.4,13.8c-0.1,0-0.2,0.1-0.3,0.1c-1.5-0.3-2.8-0.2-4.3,0.2c-1.4,0.4-3.3,0.7-4.8-0.3c1.3,0,2.7,0,4,0
		c0.8,0,1.4-0.2,1.8-0.9c0.6-0.5,1.3-0.3,1.9-0.2C186.4,13,187.1,13.1,187.4,13.8z"/>
	<path class="st27" d="M231.8,13.8c-0.1,0-0.1,0-0.2,0c-0.5,1-1.3,0.9-2.2,0.7l0,0c-0.2-0.2-0.7-0.3-0.5-0.8
		c0.6-0.5,1.5,0.1,2.1-0.5c0.1-0.1,0.2-0.2,0.3-0.2c0.6-0.2,1-0.6,1.1-1.3c0.3-1.7,0.4-1.8,1.9-0.9c0.1,0.1,0.2,0.1,0.3,0.2l0,0
		c0.5,0.3,1,0.6,1.1,1.2c0,0.2,0,0.3-0.1,0.5c-0.8-0.1-1-1.2-1.9-1.1C233.4,12.5,232.9,13.4,231.8,13.8z"/>
	<path class="st28" d="M91.2,10.5c0.3-0.5-0.1-1.5,0.7-1.6c1.2-0.1,2.5-0.5,3.5,0.3c0.8,0.6,1.6,1.1,2.6,1.5c1,0.3,1.5,1.1,2.2,1.8
		c0.3,0.4,0.9-0.1,1.1,0.4c0,0.6-0.3,0.7-0.8,0.7c-0.7-0.1-1.2-0.4-1.5-1c-0.3-0.7-0.9-1.1-1.6-1.4c-0.7-0.4-1.5-0.8-2.1-1.3
		c-1.1-0.9-2.5-0.6-3.4,0.4C91.6,10.4,91.5,10.6,91.2,10.5z"/>
	<path class="st29" d="M183.1,6.4c0-0.5-0.1-1,0.2-1.5c1.6-0.1,3.3-0.2,4.9-0.3c2-0.1,3.3,1.1,4.7,2.1c-0.1,0-0.2,0-0.3,0
		c-0.2,0.2-0.5,0.2-0.7,0.2c-0.8-0.4-1.7-0.7-2.3-1.4c-0.7-0.7-1.7-0.4-2.5-0.3c-0.7,0.1-1.4,0.3-2,0.2
		C184.2,5.4,183.8,6.3,183.1,6.4z"/>
	<path class="st8" d="M80.4,8.3c-6.2,0-12.3,0-18.5,0c-0.1-0.1-0.1-0.1-0.1-0.2L61.9,8c5.7,0,11.5,0,17.2,0C79.6,8.1,80,8,80.4,8.3z
		"/>
	<path class="st30" d="M91.2,10.5c0.6-1,1.4-1.7,2.7-1.5c0.6,0.1,1.3,0.2,1.7,0.7c0.5,0.6,1.3,0.7,1.9,1.2c-0.8,0.6-1.4,0.3-2-0.3
		c-1.3-1.2-2.4-1.1-3.5,0.3c-0.5,0.6-1,1.4-2,1.3c-0.4-0.8,0.5-0.9,0.8-1.3C90.9,10.8,91,10.6,91.2,10.5z"/>
	<path class="st31" d="M103.2,15.7c-1-0.4-1.8-0.3-2.3,0.9c-0.2,0.5-0.8,1.1-1.6,1.1l-0.1-0.1c0.1-0.8,0.7-1.2,1.1-1.8
		c0.2-0.5,0.1-1,0.2-1.4c0-0.1,0.1-0.2,0.1-0.3c0.7-0.4,1.1,0.3,1.7,0.5c0.1,0.1,0.2,0.1,0.3,0.2C102.9,15,103.3,15.3,103.2,15.7z"
		/>
	<path class="st32" d="M231.8,13.8c0.8-0.8,1.6-1.5,1.8-2.7c0.8,0.4,1.5,0.8,2.1,1.5c0.8,0.3,1.8,0.4,2.4,1.2
		c-1.4,0-2.7,0.2-3.4-1.5c-0.2-0.6-0.6-0.6-1,0.1S232.8,13.9,231.8,13.8z"/>
	<path class="st33" d="M38.4,17.4c-0.1,0-0.2,0-0.3,0c-0.1-0.2,0-0.5,0.1-0.7c0.1-0.1,0.1-0.2,0.2-0.3c0.2-0.3,0.6-0.5,0.6-1
		c0.2-1,0.8-1,1.6-0.7c0.5,0.3,0.7,0.9,1.3,1c0.5,0.4,1.3,0.4,1.6,1.1c-0.7,0-1.5,0-2-0.4c-1-0.8-1.7-0.4-2.4,0.4
		C38.8,17.1,38.6,17.3,38.4,17.4z"/>
	<path class="st34" d="M194.4,13.4c0.5-0.9,1.9-1.4,1.3-2.8c1.9-1.8-0.1-1.7-1-2.1c-0.5-0.2-0.8-0.6-0.8-1.2
		c0.4,0.5,0.8,0.8,1.5,0.7c1-0.1,1.7,0.5,1.3,1.4c-0.5,1.2-0.5,2.7-1.7,3.6C194.8,13.2,194.6,13.4,194.4,13.4z"/>
	<path class="st7" d="M131.3,9.8c-0.2,0.3-0.5,0.6-0.7,1c-0.7,0.2-1.3,0.5-1.2,1.5c0.1,0.8-0.8,0.2-1.2,0.4
		c-0.5,0.3-0.7-0.1-0.9-0.4s-0.4-0.7-0.7-1c-0.1-0.2-0.1-0.4,0.1-0.5l0.1-0.1c0.7,0,1,0.6,1.4,1s0.6,0.2,0.8-0.2
		C129.5,10.6,130.4,10.3,131.3,9.8z"/>
	<path class="st35" d="M84.8,17c-0.1,0-0.2-0.1-0.3-0.1c0.1-0.6,0.6-1,1-1.5c0.7-0.9,0.6-2-0.3-2.8c-0.6-0.5-1.2-1-0.9-2
		c0.8,0.6,1.2,1.7,2.3,1.9c0.2,0,0.4,0.4,0.3,0.6c-0.6,0.9,0.1,2.4-1.2,3c-0.1,0.1-0.1,0.3-0.1,0.4C85.2,16.8,85,16.9,84.8,17z"/>
	<path class="st36" d="M229.6,7.3c0.2-0.1,0.3-0.1,0.5-0.2c0.5,0.1,0.9,0.4,1.2,0.9c0.4,1,1,0.8,1.8,0.3c0.5-0.3,0.8-1.1,1.5-1
		l0.1,0.1c0.1,0.4-0.3,0.5-0.5,0.7c-0.3,0.2-0.8,0.3-1,0.7c-0.3,1-1.4,1.2-2.2,0.3c-0.2-0.3-0.3-0.6-0.6-0.9
		C230.2,7.9,229.8,7.7,229.6,7.3z"/>
	<path class="st8" d="M60,10.7c0,0.2,0,0.3,0,0.5c-0.5,1.4-0.4,1.5,0.8,2.6c0.4,0.3,0.7,0.6,1,1c0.2,0.3,0.4,0.7,0.4,1.1
		c0,0.1-0.1,0.2-0.2,0.2c-0.7,0-0.7-0.7-1.1-1.1l0,0c-1.6-0.7-2.5-2.3-1.9-3.6c0.1-0.1,0.2-0.2,0.2-0.2C59.5,11.1,59.5,10.6,60,10.7
		z"/>
	<path class="st32" d="M228.9,13.8c0.2,0.2,0.3,0.5,0.5,0.7c-1.2-0.7-2.7-0.7-4-1.1c-0.7-0.2-1.3-0.6-1.1-1.6c0.1,0,0.1,0,0.2-0.1
		c0.4,0,0.7,0.3,1,0.6c0.8,0.7,1.7,0.9,2.7,0.9C228.6,13.4,228.8,13.5,228.9,13.8z"/>
	<path class="st31" d="M99.4,17.7c-1,1-2.7,1-4.1,0c0.1-0.1,0.2-0.2,0.4-0.3C96.8,17.4,98.1,17.1,99.4,17.7
		C99.3,17.7,99.3,17.7,99.4,17.7z"/>
	<path class="st15" d="M222.2,12.6c-0.4,0.2-0.6,0.7-1.2,0.7l-0.1-0.1c-0.1-0.4,0.1-0.8,0.4-1.1c0.3-0.4,0.5-0.8,0.6-1.3
		c0.1-0.8,0.5-1.2,1.3-0.7c0.4,0.5,1.2,0.6,1.2,1.5c-0.7,0.2-1.2-0.2-1.6-0.6C223.1,11.7,222.7,12.2,222.2,12.6z"/>
	<path class="st37" d="M107.3,17.7c-0.1,0-0.2,0.1-0.3,0.1c-1.1-0.1-2.2-0.2-3.1-1c-0.3-0.3-0.5-0.6-0.5-1c0.1-0.1,0.2-0.1,0.3-0.1
		c0.6,0.2,0.9,0.9,1.7,0.8c0.2,0,0.3,0.1,0.5,0.1C106.3,17,107.1,17,107.3,17.7z"/>
	<path class="st38" d="M90.7,11c-0.3,0.4-0.6,0.8-0.9,1.2c0,0.1,0,0.1,0,0.2c-0.3,0.9-0.1,1.7,0.7,2.3c0.3,0.3,0.7,0.5,0.8,1
		c0,0.1,0,0.1-0.1,0.2c-1.2-0.3-2.1-1.3-2.2-2.6C88.9,12,89.7,11.4,90.7,11z"/>
	<path class="st39" d="M94.1,17.7c-0.5,0-1,0-1.5-0.1c-1.1-0.2-1.5-0.7-1.4-1.8l0,0c0.1-0.1,0.3-0.1,0.5-0.1
		c0.1,0.1,0.2,0.1,0.2,0.2c0.3,0.7,0.9,0.9,1.6,1.2C93.7,17.2,94.1,17.2,94.1,17.7z"/>
	<path class="st24" d="M150,5.2c-1.9,0.5-3.9,0.1-5.8,0.2c-0.5,0-1,0.2-1.4-0.2C145.2,5.2,147.6,5.2,150,5.2z"/>
	<path class="st40" d="M33.6,9c-2,0.2-4,0.5-6,0.7C29.5,9.2,31.5,8.7,33.6,9z"/>
	<path class="st41" d="M37.2,10.9C37,11,36.9,11,36.7,11.1c-0.1,0.1-0.1,0.2-0.3,0.1c-0.3-0.6-0.7-0.9-1.4-1l0,0
		c-0.5-0.1-0.7-0.6-1-0.9V9.2C34.1,9.1,34.4,9,34.4,9C35.2,9.9,36.6,9.9,37.2,10.9z"/>
	<path class="st30" d="M94.1,17.7c-0.6-0.3-1.3-0.4-1.9-0.9c-0.4-0.3-0.5-0.6-0.5-1c0.8-0.3,1,0.8,1.7,0.8c0.5,0.4,1.4,0.3,1.6,1.1
		C94.7,17.7,94.4,17.7,94.1,17.7z"/>
	<path class="st42" d="M175.7,12.9c0.9,0,1.5,0.5,2.2,1c-0.8,0.1-1.5,0-2.2-0.2c-0.2-0.3-0.9-0.1-0.7-0.8
		C175.2,12.7,175.5,12.7,175.7,12.9z"/>
	<path class="st43" d="M59,11.4c-0.5,1.8,0.8,2.6,1.9,3.6c-1.3,0.2-1.6-0.9-2-1.7C58.6,12.7,58.1,12,59,11.4z"/>
	<path class="st44" d="M174.9,12.9c0.1,0.4,0.5,0.4,0.7,0.7c-1.4-0.7-2.4,0.2-3.6,0.7c-0.1,0-0.2,0-0.3,0c0-0.5,0.4-0.5,0.6-0.8
		c0.7-0.5,1.4-1.3,2.4-0.8C174.9,12.8,174.9,12.8,174.9,12.9z"/>
	<path class="st45" d="M238.1,13.8c-0.9-0.3-1.8-0.4-2.4-1.2c0-0.2,0-0.3,0-0.5c0.5-0.2,0.7,0.3,1.1,0.4c0.2,0.1,0.4,0.1,0.6,0.2
		c0.5,0.3,1.2,0.3,1.4,1.1C238.6,13.8,238.3,13.8,238.1,13.8z"/>
	<path class="st8" d="M65.2,17c-0.4,0-0.8-0.1-1.1-0.1c-0.6-0.3-1.7,0.2-1.9-0.9v-0.1c0.2-0.2,0.4-0.2,0.7-0.3
		c1,0.1,1.8,0.4,2.4,1.2C65.3,17,65.2,17,65.2,17z"/>
	<path class="st46" d="M220.8,7.6c0.2,0.4,0.3,0.8,0.5,1.2C221.2,9,221,9,220.8,9c-0.1,0-0.2,0-0.3-0.1c-0.4-0.3-0.4-0.9-0.8-1.2
		c-0.1,0-0.2-0.1-0.3-0.2c-0.2-0.1-0.3-0.3-0.3-0.5c0.2-0.2,0.5-0.1,0.7-0.2C220.3,6.9,220.6,7.2,220.8,7.6z"/>
	<path class="st47" d="M171.4,7.6c-0.1,0-0.2,0-0.3,0.1c-0.2,0.2-0.4,0.2-0.6-0.1c-0.2-0.4-0.6-0.6-1-0.7s-0.9-0.3-0.9-0.9
		c0.2-0.1,0.3-0.1,0.5,0c0.2,0.5,0.7,0.7,1.2,0.8C170.7,6.8,171.1,7.1,171.4,7.6z"/>
	<path class="st43" d="M62.1,16c0.4,0.8,1.3,0.5,1.9,0.9c-2.1,0-2.8-0.4-3.1-1.9C61.5,15.2,61.4,16,62.1,16z"/>
	<path class="st32" d="M222.2,12.6c0.3-0.5,0.5-1.1,0.5-1.8c0.6,0.3,1,0.8,1.6,0.9c0.1,0,0.1,0.1,0.1,0.1c0,0.1,0,0.1,0,0.1l0,0
		C223.5,11.6,222.9,12.4,222.2,12.6z"/>
	<path class="st48" d="M43.4,16.9c-0.5-0.4-1.2-0.4-1.7-0.9c0.2-0.2,0.5-0.2,0.7,0c0.6,0.3,1.3,0.7,1.9,1
		C44.1,17,43.7,16.9,43.4,16.9z"/>
	<path class="st49" d="M238.8,13.8c-0.5-0.3-1-0.6-1.5-0.9c1-0.6,1.6-0.1,2.2,0.7c0,0.1,0,0.1,0,0.2c-0.1,0-0.2,0.1-0.3,0.1
		C239.1,13.9,238.9,13.8,238.8,13.8z"/>
	<path class="st50" d="M95,17.7c-0.6-0.3-1.1-0.6-1.7-0.9c0.1-0.2,0.3-0.2,0.4-0.3c0.7-0.1,1.3,0.3,1.7,0.8c0.1,0.1,0.1,0.2,0,0.3
		C95.3,17.6,95.2,17.6,95,17.7C95.2,17.7,95.1,17.7,95,17.7z"/>
	<path class="st43" d="M61.9,8.1c0,0.1,0,0.1,0,0.2c-0.6,0.2-0.5,0.9-1,1.2C61,8.8,60.4,7.8,61.9,8.1z"/>
	<path class="st32" d="M229.4,14.6c0.8,0.1,1.5-0.1,2.2-0.7C231.3,14.9,230.8,15.1,229.4,14.6z"/>
	<path class="st43" d="M60.9,9.5c-0.1,0.6-0.4,0.9-1,1C60.2,10.1,60.3,9.5,60.9,9.5z"/>
	<path class="st47" d="M174,5c-0.4,0.4,0,1-0.5,1.4C173.9,6,172.6,5,174,5z"/>
	<path class="st51" d="M168.9,5.9c-0.2,0-0.3,0-0.5,0c-0.4-0.2-0.8-0.3-1.2-0.5C167.9,5.4,168.5,5.4,168.9,5.9z"/>
	<path class="st52" d="M103.7,15.8c-0.1,0-0.2,0-0.3,0s-0.1,0-0.2,0c-0.2-0.3-0.5-0.6-0.7-0.9C103.3,14.6,103.6,15,103.7,15.8z"/>
	<path class="st43" d="M60,10.7c-0.2,0.1-0.3,0.5-0.7,0.5c0-0.4,0.3-0.7,0.7-0.7C60,10.6,60,10.6,60,10.7z"/>
	<path class="st53" d="M40.1,8.1c0,0.3,0,0.5-0.2,0.7C39.7,8.5,39.1,8,40.1,8.1z"/>
	<path class="st11" d="M101,12.6c-0.4,0.3-0.7,0.3-0.9-0.2c0.3,0,0.6,0,0.9,0l0.1,0.1C101.1,12.5,101.1,12.6,101,12.6z"/>
	<path class="st53" d="M39.6,9.5c-0.2,0.3-0.2,0.7-0.7,0.7C39,9.9,39.1,9.5,39.6,9.5z"/>
	<path class="st54" d="M47.3,9.3c-0.5,0-0.7-0.3-0.7-0.7C46.9,8.7,47.1,9,47.3,9.3z"/>
	<path class="st47" d="M173.5,6.4c-0.1,0.3-0.4,0.6-0.7,0.7C172.8,6.7,173,6.4,173.5,6.4z"/>
	<path class="st55" d="M141.4,13.6c-1.8-0.9-3.6-1.6-5.1-3.1c-1.3-1.3-1.3-1.5,0-2.7c2.2-2,4.7-1.6,7.2-1.3c3.2,0.3,6.4,0.2,9.6,0.2
		c4.5,0,9,0.4,13.5,0.3c1,0,1.5,1.1,2.5,0.8c1,0.1,2.1,0,2.2,1.5c0,0.1,0.3,0.1,0.4,0.2c0.2,0.1,0.3,0.1,0.4,0.2
		c-0.1,0.9,0.7,1.1,1.2,1.4c-0.4,2.5-1.4,3.4-3.9,3.4c-3.1,0-6.3,0-9.4,0c-3.7-0.2-7.4-0.1-11.1-0.1c-2.4,0-4.7-0.3-7-0.4
		C141.8,13.8,141.5,13.7,141.4,13.6z"/>
	<path class="st56" d="M186,12.9c-0.7,0-1.4,0-2.1,0c-0.1-0.9-0.8-1.5-1.4-1.9c-1.5-1.2-1.6-1.5-0.4-3c0.1-0.1,0.1-0.2,0.1-0.3
		c0.1-0.1,0.2-0.1,0.4-0.1c1,0.2,1.8-0.3,2.7-0.5c2-0.5,4-0.3,6.1-0.2c0.7,0,1.5,0.3,1.1,1.4c-0.1,0.5,0.5,0.4,0.8,0.5
		c1.3,0.6,1.6,1.2,1.2,2.7c-0.1,0.5-0.3,0.9-0.6,1.3c-0.1,0.1-0.2,0.2-0.3,0.2C191,13.4,188.4,14.4,186,12.9z"/>
	<path class="st57" d="M172.3,9.5c-0.2,0-0.3,0-0.5,0c-0.5-0.7-0.1-1,0.5-1.3c0.8-0.5,1.5-1.1,1.9-2.1c0.1-0.2,0.2-0.4,0.3-0.5
		c0.6-0.6,4.6-0.4,5,0.3c0.5,0.8,1.2,1,2.1,1.1c0,0,0,0.1,0.1,0.1l-0.1,0.1c-1,0.1-1.9-0.1-2.8-0.3c-2.3-0.5-4.3,0.2-6.2,1.6
		C172.3,8.9,172.1,9.1,172.3,9.5z"/>
	<path class="st58" d="M182.4,7.6c-0.1,0-0.1,0-0.2,0c-0.2-0.1-0.4-0.1-0.6-0.2c0.1,0,0.1,0,0.2,0c0.8-0.1,1.5-0.2,1.9-1
		c0.1-0.1,0,0,0.1-0.1c0.7-0.7,4.7-1.3,5.6-0.8c0.5,0.3,1,0.8,1,1.5c-0.3,0.1-0.6,0.1-0.8,0.1c-2.1-0.6-4.1,0.1-6.1,0.7
		C183,7.8,182.7,7.8,182.4,7.6z"/>
	<path class="st59" d="M160.3,14.1c3.2,0,6.4,0,9.5,0c1.9,0,2.4-0.3,3.1-2.1c0.1-0.4,0.2-0.8,0.6-1c0.7,0.6,1.5,1.3,2.2,1.9
		c-0.2,0-0.5,0-0.7,0l0,0c-1.2-0.5-1.2-0.5-2.4,1c-0.2,0.2-0.5,0.3-0.7,0.5h-0.1h-0.1c-1.8,0.2-3.6,0.1-5.3,0.1s-3.4,0-5.1,0
		C160.8,14.4,160.4,14.6,160.3,14.1z"/>
	<path class="st44" d="M160.3,14.1c0.4,0.4,0.9,0.2,1.4,0.2c3.3,0,6.6,0,9.9,0c-0.4,0.4-0.8,0.2-1.2,0.2c-3.3,0-6.5,0.2-9.8,0
		c-5-0.3-10,0-15-0.3c-1.5-0.1-3,0.2-4.4-0.6c0.1,0,0.2-0.1,0.2-0.1C147.7,14.3,154,13.9,160.3,14.1z"/>
	<path class="st60" d="M136.7,11.5c-1.2-0.5-1.2-0.5-2.7,0.1c1.2,0.1,2.4,0.2,2.8,1.4c0.3,1-0.3,1.7-0.8,2.5
		c-0.4-0.9-0.1-1.8-0.4-2.7c-0.1-0.2-0.3-0.2-0.5-0.3c-0.1,0-0.2-0.1-0.3-0.1c-0.1-0.1-0.2-0.1-0.3-0.1c-0.6-0.2-1.5,0.1-1.5-0.8
		c0-0.8,0.9-0.7,1.5-0.9c0.1,0,0.2-0.1,0.3-0.1c0.3,0,0.6,0,0.9,0.2C136.3,10.8,136.6,11,136.7,11.5z"/>
	<path class="st61" d="M134.9,10.7c-0.2,0.3-0.7,0.2-1,0.4c-0.2,0.1-0.7,0-0.6,0.5c0.1,0.3,0.4,0.3,0.7,0.4c0.4,0,0.8-0.1,1.1,0.3
		c-0.6,0.4-1.3,0.4-2,0.8c-0.5,0.3-0.9,0-0.9-0.6c0.1-0.7-0.3-1.3-0.5-1.9c0.1-0.1,0.2-0.2,0.2-0.2c0.8,0.6,2.3,0.3,2.9-0.7
		c0.3,0.4,0.5,0.9,0.9,1.2C135.5,10.7,135.2,10.7,134.9,10.7c-0.2-0.2-0.4-0.1-0.6-0.1C134.5,10.6,134.7,10.6,134.9,10.7z"/>
	<path class="st62" d="M172.3,8.2c-0.3,0.4-0.6,0.8-0.5,1.3c-0.5,0-1.3,0.3-0.8-0.8c0.2-0.4-0.3-0.5-0.6-0.7c-0.4-0.2-0.9,0-1.2-0.3
		c0.1,0,0.2-0.1,0.3-0.1c0.3,0,0.6,0,0.9,0c0.2,0,0.4,0,0.6,0.1C171.4,8,171.8,8.2,172.3,8.2z"/>
	<path class="st60" d="M138,12.6c-0.7,0.1-1-0.3-1-0.9C137.5,11.9,137.6,12.4,138,12.6z"/>
	<path class="st63" d="M198.9,7.8c0.7-0.6,1.6-1,1.9-2.1c0.1-0.5,0.6-0.6,1.1-0.6c4.6,0,9.2,0,13.8,0c0.4,0,0.8,0,0.9,0.4
		c0.3,0.8,1.1,1,1.7,1.3c-0.5,0.4-1.1,0.3-1.6,0.3c-0.1,0-0.3-0.1-0.4-0.1c-0.4-0.3-0.9-0.5-1.4-0.5c-3.6,0-7.3,0-10.9,0
		c-0.8,0-1.5,0.3-2.2,0.5c-0.8,0.3-1.3,1-2,1.3c-0.5,0.2-0.5,0.6-0.2,1c0.2,0.4,0.6,0.6,0.7,1.1c0,0.1-0.1,0.2-0.2,0.2
		C198.4,10.1,197.9,8.8,198.9,7.8z"/>
	<path class="st63" d="M220.5,13.3c-0.6,0.2-1.2,0.2-1.9,0.2c-4.6,0-9.3,0-13.9,0c-0.2-0.1-0.5-0.2-0.7-0.2c-1.3-0.5-2.7-0.8-3.6-2
		c-0.2-0.2-0.5-0.4-0.3-0.8l0.1-0.1c0.4-0.2,0.7,0,0.9,0.3c0.7,0.9,1.7,1.3,2.7,1.6c0.8,0.6,1.7,0.7,2.7,0.7c3.8,0,7.7,0,11.5,0
		c0.8,0,1.6-0.4,2.4-0.1C220.6,13.1,220.6,13.2,220.5,13.3z"/>
	<path class="st64" d="M200.1,10.5c0.6,1,1.3,1.9,2.6,2.1c0.5,0.1,0.9,0.4,1.3,0.7c-1.4-0.1-2.5-0.5-3.5-1.6
		c-0.4-0.5-1.1-0.8-1.6-1.3c-1.1-1-1.1-2.1,0-2.6C198.2,9,198.6,9.9,200.1,10.5z"/>
	<path class="st65" d="M216.7,6.9c0.5,0,1.1,0,1.6,0c0.2,0.2,0.5,0.2,0.7,0.1c0.2,0.1,0.3,0.2,0.5,0.4c0.4,0.5,0.2,1-0.1,1.4
		c-0.5,0.2-1.3,0.6-0.9-0.6c0.2-0.6-0.3-0.5-0.5-0.7C217.6,7.3,216.9,7.7,216.7,6.9z"/>
	<path class="st66" d="M36.5,17.9c-1.6,0.8-3.4,0.6-5.1,0.9c-3.1,0.6-6.3,0.7-9.5,0.5c-0.5,0-1,0.1-1.4-0.2c0-0.3,0.2-0.4,0.4-0.5
		c0.8-0.3,1.7-0.2,2.5-0.1c3.4,0.1,6.8-0.1,10.2-0.8c0.5-0.1,1.1-0.1,1.7-0.1C35.6,17.6,36.1,17.5,36.5,17.9z"/>
	<path class="st67" d="M4.1,14.8c0.3-0.2,0.6-0.3,0.9-0.5c0.1-0.1,0.2-0.1,0.3,0c-0.7,1.3-0.2,2.1,0.9,2.9C6.5,17.4,6.8,17.7,7,18
		s0.4,0.6,0.7,0.7c0.1,0,0.2,0.1,0.3,0.1c0.3,0.1,0.7,0.1,1.1,0.2c0.3,0.1,0.6,0.3,0.8,0.6c0,0.1,0,0.2-0.1,0.3
		C8.4,19.5,6.9,19.4,6,18c-0.3-0.4-0.7-0.6-1.1-0.9C4.3,16.5,3.6,15.8,4.1,14.8z"/>
	<path class="st68" d="M9.8,19.9c0-0.1,0-0.2,0-0.3c1.9-0.4,3.9-0.5,5.9-0.8c1.2-0.2,2.4-0.3,3.6-0.3c0.5,0,1,0,1.3,0.4
		c-0.1,0.1-0.1,0.2-0.2,0.3c-2.8-0.2-5.6,0.5-8.3,0.8C11.4,20.1,10.6,20.3,9.8,19.9z"/>
	<path class="st69" d="M36.5,17.9c-0.4,0-0.8,0-1.2,0c0.1-0.6,0.6-0.5,1-0.6c0.5-0.2,1-0.2,1.5-0.5c0.2-0.1,0.4-0.2,0.7-0.1
		c-0.1,0.2-0.2,0.5-0.3,0.7C37.6,17.6,37,17.8,36.5,17.9z"/>
	<path class="st70" d="M239.5,13.6c-0.7-0.2-1.3-1-2.2-0.7c-0.2,0-0.4,0-0.7,0c-0.5-0.6-1.3-1-1.5-1.9c0,0,0-0.1-0.1-0.1
		c-0.4-0.7-1.6-1.1-1.3-1.8c0.4-0.8,1.5-1.4,2.5-1.6c2.7-0.5,5.4-0.3,8.1-0.2c0.6,0,1.1,0.1,1.7,0.2c0.7,0.2,1.5,0.2,1.2,1.3
		c-0.1,0.4,0.2,0.5,0.5,0.6c1.3,0.4,1.4,1.3,1.2,2.4c-0.2,1.3-1,1.9-2.2,1.9C244.4,13.6,241.9,13.6,239.5,13.6z"/>
	<path class="st71" d="M230.6,7.9c0.6,0.3,0.5,1.2,1.3,1.4c0.7,0.2,1.1,0.2,1.4-0.5c-0.1,1.1,0.9,1.5,1.4,2.2
		c-0.2,0-0.4-0.1-0.6-0.1c-1.2-0.5-1.3-0.5-1.4,0.8c-0.1,0.8-0.4,1.5-1.4,1.5c-0.3-0.4,0.1-0.6,0.2-0.9c0.6-1,0.4-1.9-0.5-2.6
		C230.5,9.2,230.1,8.7,230.6,7.9z"/>
	<path class="st72" d="M235.7,6.2c0-0.7,0.5-0.7,1-0.7c2.3,0,4.6,0,6.8,0c0.4,0,0.9,0,1,0.4c0.3,0.6,0.9,0.8,1.4,1.2
		c-0.7,0.1-1.3,0.1-1.6-0.7c-0.2-0.5-0.7-0.5-1.1-0.5c-1.2,0-2.4,0.1-3.5-0.2C238.4,5.9,237,5.8,235.7,6.2z"/>
	<path class="st72" d="M247.4,7.4c0.5,0,0.7,0.3,0.9,0.6c0.2,0.3,0.3,0.6,0.5,0.8c0.3,0.3,1.4,2.6,1.4,2.9c0,0.9-0.9,1.2-1.2,1.9
		c-0.2,0-0.3,0-0.5,0c0.5-1,1.5-1.8,1.1-3.1c-0.1-0.2,0-0.6-0.2-0.7C248.4,9.3,248.1,8.2,247.4,7.4z"/>
	<path class="st71" d="M235.7,6.2c1.3-0.9,2.7-0.3,4.1-0.5c-0.2,0.1-0.4,0.2-0.5,0.2c-1.5-0.2-2.8,0.4-4,1.2
		C235.1,6.7,235.5,6.5,235.7,6.2z"/>
	<path class="st71" d="M235.2,11c0.4,0.7,1.2,1.1,1.5,1.9c-0.5,0-0.6-0.5-1-0.6c-0.3-0.4-0.6-0.8-0.9-1.2C234.9,11,235,11,235.2,11z
		"/>
	<path class="st71" d="M234.2,8.1c0.2-0.2,0.3-0.5,0.5-0.7c0.1,0,0.3,0,0.4-0.1C235,7.8,234.7,8.1,234.2,8.1z"/>
	<path class="st73" d="M5.3,14.3c-0.1,0-0.2,0-0.3,0c0.5-0.7,1.2-1.2,1.6-2.1c0.1-0.3,0.5-0.5,0.9-0.5c4.6-0.6,9.2-1.2,13.9-1
		c2.7,0.1,5.2-0.4,7.8-0.8c1.1-0.2,2.3-0.2,3.4-0.5c0.5-0.2,1,0,1.2,0.5c0.3,0.7,0.9,0.8,1.5,1.1c-0.4,0.4-0.9,0.3-1.4,0.2
		c-0.1,0-0.3-0.1-0.4-0.2c-0.5-0.6-1-0.8-1.8-0.6c-5.2,1-10.4,1.4-15.6,1.2c-2.7-0.1-5.3,0.5-8,0.9c-0.6,0.1-1.1,0.4-1.5,0.9
		c-0.1,0.1-0.2,0.2-0.2,0.3c-0.3,0.3-0.5,0.5-0.8,0.7C5.5,14.4,5.4,14.4,5.3,14.3z"/>
	<path class="st67" d="M33.8,11c0.5,0,1,0,1.5,0c0.2,0,0.4,0,0.7,0c0.2,0,0.3,0,0.3,0.2c-0.1,0.1-0.1,0.2-0.3,0.3
		C35.2,11.5,34.4,11.9,33.8,11z"/>
	<path class="st40" d="M36.2,11.2c-0.1-0.1-0.2-0.2-0.3-0.3c-0.1-0.5-0.7-0.3-0.9-0.7c0.7,0,1.3,0.1,1.5,0.9
		C36.4,11.2,36.3,11.2,36.2,11.2z"/>
	<path class="st40" d="M34.1,9.3c0.3,0.3,0.6,0.6,1,0.9C34.3,10.3,34.2,9.8,34.1,9.3z"/>
	<path class="st74" d="M61.7,15c-0.6-0.5-1.2-1.1-1.8-1.7c-0.7-0.7-0.8-1.5,0.1-2.2c0.8-0.2,1.3-0.8,1.6-1.5c0.4-0.8,1-1,1.7-1
		c5.4,0,10.7,0,16.1,0c1.1,0,1.5,0.7,2,1.4c-0.1,0.1-0.2,0.2-0.3,0.2c-0.3,0.1-0.6,0-0.8-0.1c-0.4-0.4-1-0.5-1.5-0.5
		c-4.4,0-8.8,0-13.2,0c-0.7,0-1.3,0.1-2,0.4c-1,0.3-1.8,0.9-2.6,1.4c-0.8,0.4-0.7,0.9-0.2,1.4c0.7,0.8,1.7,1.4,2.1,2.4
		c0,0.1,0,0.2-0.1,0.3C62.1,15.9,61.9,15.4,61.7,15z"/>
	<path class="st75" d="M81.1,10.3c0.1,0,0.2,0,0.3-0.1c1,0,1.9,0,2.8,0.5c0.2,0.8,0.5,1.4,1.3,1.9c0.7,0.4,1,2,0.5,2.7
		c-0.4,0.6-0.8,1.3-1.5,1.6c-6.4,0-12.7,0-19.1,0C64.6,16.7,63.9,16,63,16c-0.1-0.1-0.2-0.1-0.2-0.2c0-0.1,0-0.2,0-0.2
		c0.8-0.4,1.6,0,2.3,0.4c0.7,0.3,1.4,0.5,2.2,0.5c5.1,0,10.2,0,15.3,0c0.4,0,0.8,0,1.2-0.1c0.8-0.2,1.2-0.8,1.4-1.5
		c0.2-0.7,0-1.3-0.6-1.8c-0.1,0-0.2-0.1-0.2-0.1C83.4,11.5,82.3,10.8,81.1,10.3z"/>
	<path class="st76" d="M107.3,17.7c-0.5-0.3-1.2-0.4-1.5-0.9c0.3-0.3,0.7-0.3,1.1-0.2c2.8,0.9,5.6,0.5,8.4,0.4c3-0.2,6-0.1,9-0.1
		c0.8,0,1.5,0.1,2.3,0c0.3-0.1,0.6-0.3,0.8-0.5c0.3-0.2,0.4-0.5,0.5-0.7c0-0.1,0.1-0.2,0.1-0.3c0-0.7,0.4-1.5-0.5-1.9
		c-0.4-0.2-0.8-0.4-1-0.7c-0.1-0.3-0.2-0.6-0.1-0.9c0-0.1,0-0.3,0.1-0.4s0.1-0.2,0.3-0.3c0.8,0.2,0.5,1.5,1.4,1.7
		c0.9,0.8,1.1,2.4,0.3,3.4c-0.3,0.4-0.5,0.8-0.8,1.1c-0.3,0.1-0.7,0.2-1,0.2C120.2,17.2,113.8,18,107.3,17.7z"/>
	<path class="st77" d="M101.5,12.4c0.8-0.8,1.9-1.5,2.3-2.7c0.2-0.4,0.6-0.5,1-0.5c4,0.3,7.9-0.5,11.9-0.5c1.6,0,3.1,0,4.7,0
		c1.1,0,2,0,2.8,1.1c0.3,0.4,1,0.5,1.6,0.8c-0.1,0.1-0.2,0.2-0.3,0.3c-0.5,0.2-1.1,0.1-1.6-0.1c-0.9-0.9-2-1-3.2-1
		c-4.9-0.2-9.8,0.6-14.8,0.5c-0.6,0-1.2,0.2-1.6,0.6c-0.5,0.4-0.9,0.9-1.5,1.2c-0.3,0.2-0.6,0.5-1,0.5
		C101.7,12.7,101.6,12.6,101.5,12.4z"/>
	<path class="st78" d="M101.5,12.4c0.1,0.1,0.2,0.1,0.2,0.2c0.7,1.5,2.2,2.2,3.2,3.5c0.2,0.2,0.5,0.3,0.4,0.7
		c-0.9,0.2-1.2-0.4-1.7-1c-0.3-0.4-0.6-0.9-1.2-1l0,0c-0.8-0.6-1.8-1.1-1.2-2.3C101.4,12.4,101.4,12.4,101.5,12.4z"/>
	<path class="st52" d="M101.3,12.5c-0.3,1.1,0.7,1.6,1.2,2.3c-0.7,0-1-0.6-1.7-0.7c-0.3-0.1-0.6-0.2-0.5-0.7c0.5,0,0.7-0.2,0.7-0.7
		c0-0.1,0-0.1,0-0.2C101.1,12.4,101.2,12.4,101.3,12.5z"/>
	<path class="st77" d="M126.7,11c0,0.2,0,0.3,0,0.5c-0.5,0-0.8-0.2-1-0.7l0.1-0.1c0.3,0,0.6,0.1,0.9,0.1
		C126.7,10.8,126.7,10.9,126.7,11z"/>
	<path class="st79" d="M192,6.8c0.2,0,0.4,0,0.7,0.1c0.9,0.8,1.4,1.9,2.4,2.6c1.1,0.8-0.1,3.1-1.7,3.8c-0.1-0.3,0.1-0.3,0.2-0.5l0,0
		c0.4-0.6,0.7-1.3,0.8-2c0-1-0.2-1.7-1.3-1.9c-0.2,0-0.5,0-0.5-0.2c0.1-0.9-0.4-1.4-1-1.9C191.8,6.8,191.9,6.8,192,6.8z"/>
	<path class="st80" d="M193.7,12.9c-0.1,0.2-0.2,0.3-0.2,0.5c-2,0.3-4,0.6-6,0.4c-0.5-0.4-1.2-0.3-1.5-0.9c0.2,0,0.4,0,0.6,0.1
		c1.2,0.7,2.5,0.8,3.8,0.4C191.4,13.1,192.6,13,193.7,12.9z"/>
	<path class="st81" d="M192,6.8c-0.1,0-0.2,0.1-0.3,0.1c-0.5,0.1-0.9,0.2-1.4-0.1c-1-2-2.8-1.3-4.3-1.1c-0.9,0.1-1.9,0.2-2.5,1.2
		c-0.3,0.6-1.1,0.3-1.7,0.4c0-0.1-0.1-0.1-0.1-0.2c0.5-0.1,1.3,0.2,1.4-0.7c0.5-1,1.2-1.4,2.3-1.2c0.4,0,0.8,0,1.2-0.1
		c1.4-0.2,2.7-0.6,3.8,0.9C190.7,6.4,191.5,6.6,192,6.8z"/>
	<path class="st7" d="M132.2,9.8c-0.3,0-0.6,0-1,0c0-0.1,0-0.2,0.1-0.2c0.3-0.3,0-1.1,0.5-1C132.5,8.6,132.1,9.3,132.2,9.8z"/>
	<path class="st82" d="M220.5,13.3c0-0.1,0-0.2,0-0.2c-0.1-0.3,0-0.6,0.2-0.8c0.9-1,1-1.9,0.2-3.1c-0.1-0.1-0.2-0.3-0.1-0.4
		c0.2,0,0.3,0,0.5,0c0.7,0.4,1-0.2,1.4-0.5c0.1,0.1,0.2,0.1,0.2,0.3c0,0.7,0.7,1.2,0.6,2c-0.1,0.1-0.2,0.1-0.3,0
		c-0.3-0.1-0.9-0.5-0.9,0.2c0.1,1.2-0.9,1.8-1.3,2.7C220.8,13.3,220.7,13.3,220.5,13.3z"/>
	<path class="st61" d="M135.8,12.4c0.4,1,0.4,2.1,0.3,3.1c-0.1,0.1-0.2,0.2-0.2,0.2c-0.1,0-0.2,0.1-0.2,0c-0.8-1-2-0.8-3.1-1l0,0
		c0-0.1,0-0.2,0-0.3c0.1-0.1,0.2-0.2,0.4-0.2C134.3,14.3,134.9,13.2,135.8,12.4z"/>
	<path class="st7" d="M131,13.8c-0.8,0-1.2,0.4-1.2,1.1c0,1-0.7,1.5-1.4,2c0.4-0.9,1.2-1.5,1.1-2.7c0-0.4,0.5-0.9,1.1-0.9
		C130.7,13.5,130.9,13.7,131,13.8z"/>
	<path class="st21" d="M132.5,14.8c1.2,0,2.5-0.3,3.4,1c-0.1,0.1-0.2,0.2-0.3,0.2C134.6,15.2,133.5,15.1,132.5,14.8z"/>
	<path class="st83" d="M36.9,11.2c1.2,0.5,2.3,0,3.1-1.5c0.5-0.9,1.1-1.3,2.1-1.2c0.6,0.1,1.3,0,1.9,0c1-0.1,1.8,0,2.4,1
		c0.2,0.4,0.8,0.4,1.1,0.7c-0.3,0.3-0.6,0.3-0.9,0.3c-0.2,0-0.4-0.1-0.6-0.2c-1.2-1.4-4.1-1.5-5.3-0.2c-0.3,0.4-0.8,0.6-1,1.1
		c-0.1,0.1-0.2,0.2-0.4,0.3c-1,0-0.7,1-1.2,1.4C37,12.9,36.8,12.7,36.9,11.2z"/>
	<path class="st67" d="M36.9,11.2c0.4,0.6,0,1.9,1.4,1.7c0.1,0.4-0.1,0.5-0.4,0.6c-1.6,0-1.5-1.3-1.8-2.3l0.1-0.1c0.1,0,0.2,0,0.2,0
		c0.1,0,0.1,0,0.2,0C36.8,11.1,36.9,11.2,36.9,11.2z"/>
	<path class="st84" d="M46.5,10.3c0.3,0,0.7,0,1-0.1c0.1,0,0.3,0,0.4,0c0,0.1,0,0.1,0,0.2c-0.2,0-0.3,0-0.5,0
		C47.1,10.7,46.7,10.8,46.5,10.3z"/>
	<path class="st85" d="M46.5,10.3c0.3,0.3,0.7,0.2,1,0.2c0.4,0.4,1.7,0.3,0.9,1.5c-0.2,0.3,0.3,0.3,0.6,0.4c1.1,0.3,1.4,1.1,1.2,2.1
		c-0.2,1-0.3,1.9-1.7,2c-1.8,0.1-3.6,0.4-5.3-0.6c-0.2-0.1-0.5-0.1-0.7-0.1c-0.1,0.1-0.3,0.2-0.4,0.1c-1.3-0.8-2.7-1.7-3.5-3.1
		c-0.4-0.8,0.2-1,0.8-1.3c0.1-0.1,0.2-0.2,0.3-0.2c0.8-1,2-1.2,3.2-1.3c0.9-0.1,1.8-0.1,2.7,0c0.2,0,0.4,0.2,0.6,0.3
		C46.2,10.2,46.4,10.3,46.5,10.3z"/>
	<path class="st86" d="M39.3,11.5c-0.7,0.4-0.9,1-0.3,1.6c1.1,1,1.9,2.2,3.4,2.7c0,0.1,0,0.1,0,0.2c-0.2,0-0.5,0-0.7,0
		c-0.7,0.1-0.8-0.7-1.2-1c-0.3-0.2-0.6-0.4-0.9-0.5c-0.9,0.1-0.4,0.8-0.6,1.2s-0.5,0.6-0.7,0.9l0,0c-0.2,0.1-0.3,0.1-0.5,0.2
		c-0.1-0.1-0.2-0.3-0.1-0.4c0.5-1,0.4-2.1,0.1-3.2c0.2-0.1,0.4-0.2,0.5-0.5C37.9,11.9,38.4,11.5,39.3,11.5z"/>
	<path class="st87" d="M135.8,12.4c-0.6,1.6-1.7,2.3-3.3,2.1c-0.4-0.9-1.1-1.5-1.9-2.1c-0.9-0.6-0.8-0.9,0.2-1.4
		c0.4-0.2,0.7-0.4,1-0.6c0.6,0.4,1,0.8,0.8,1.6c-0.2,0.6,0.1,0.9,0.7,0.5c0.6-0.5,1.2-0.5,1.9-0.4c0,0.1,0,0.1,0,0.2
		c-0.6,0.5-1.7,0.5-2.2,1.3c1.3,0.3,1.5-0.8,2.2-1.3C135.3,12.4,135.6,12.4,135.8,12.4z"/>
	<path class="st88" d="M230.6,7.9c0,0.7,0.1,1.2,0.9,1.6c0.9,0.5,1.1,2.1,0.5,2.9c-0.2,0.2-0.5,0.4-0.5,0.8c0,0.1,0,0.1-0.1,0.2
		c-1.1,0.5-2.2,0.7-3.1-0.3c0.2-0.6,0.7-0.3,1-0.2c0.7,0.2,1.3,0.3,1.7-0.4c0.4-0.8,0.7-1.8,0-2.3c-1.1-0.7-1.4-1.7-1.7-2.8
		c0.1-0.1,0.2-0.1,0.3,0c0.1,0,0.1,0,0.2,0C230,7.5,230.3,7.7,230.6,7.9z"/>
	<path class="st89" d="M229.4,7.3c-0.1,0-0.2,0.1-0.3,0.1c-0.3,0.1-0.7,0-1-0.1c-0.4-0.1-0.8-0.2-1.1-0.5c-1-0.9-1-0.9-1.8,0.1
		c-0.1,0.1-0.2,0.2-0.3,0.4c-0.7,0.6-1.3,1.3-2.3,1.3c0-0.1,0-0.2,0-0.3c0.9-0.8,2-1.4,2.4-2.7c0.2-0.7,1.1-0.5,1.6-0.3
		C227.6,5.9,228.5,6.6,229.4,7.3z"/>
	<path class="st90" d="M228.2,12.9c0.9,1.1,2,0.7,3.1,0.5c-0.6,0.9-1.6,0.3-2.4,0.5c-0.2-0.1-0.5-0.2-0.7-0.2c-0.3-0.3-1,0-1-0.8
		c0.3-0.2,0.5-0.2,0.8-0.1C228.1,12.8,228.2,12.8,228.2,12.9z"/>
	<path class="st91" d="M100.3,13.4c0.2,0.2,0.3,0.5,0.5,0.7c0,0.1,0,0.2,0,0.3c-0.2,0.5,0,1.1-0.2,1.6c-0.4,0.5-0.9,1.1-1.3,1.6
		c-1.3,0.1-2.5,0.2-3.8,0c0-0.1,0-0.1,0-0.2c0.6-0.5,1.3-0.3,2-0.3c1.1,0,1.8-0.4,2.1-1.4s0-1.8-0.9-2.3c-0.6-0.3-0.2-1.2-0.9-1.5
		c-1.6-0.6-3.2-0.7-4.9-0.6c-0.9,0.1-1.6,0.8-2.3,1.4c-0.5,0.5,0,1,0.4,1.3c1,0.8,1.9,1.7,2.8,2.7c-0.2,0-0.4,0-0.5,0.1
		c-0.8,0.1-1-0.9-1.6-1l0,0c-0.6-0.7-1.7-1-2.1-2.1c-0.2-0.6-0.3-1.1,0.2-1.5l0,0c1-0.2,1.6-0.9,2.1-1.8c0.6-1.1,2.8-1.4,3.4-0.4
		c0.6,0.9,1.3,1,2.1,0.9c0.8,0.2,1.5,0.5,1.7,1.4C99.3,13,99.9,13,100.3,13.4z"/>
	<path class="st52" d="M100.6,16c0-0.5-0.2-1.1,0.2-1.6C100.7,14.9,101,15.5,100.6,16z"/>
	<path class="st69" d="M39.8,14.3c0.2,0.3,0.6,0.3,0.7,0.7c-0.6-0.2-1.2-0.5-1.2,0.7c0,0.5-0.5,0.8-0.9,1c0-0.4,0.3-0.6,0.5-1
		c0.2-0.3,0.1-0.6,0.1-0.9C39.1,14.4,39.3,14.1,39.8,14.3z"/>
	<path class="st92" d="M62.6,15.7c0.1,0.1,0.2,0.2,0.2,0.2c-0.2,0-0.5,0-0.7,0c-0.2-0.3-0.5-0.5-0.5-0.9
		C62,15.3,62.3,15.5,62.6,15.7z"/>
	<path class="st93" d="M227.3,12.9c0.3,0.2,0.6,0.5,1,0.7c-1.6,0.3-2.7-0.8-3.8-1.7c0-0.1,0-0.1,0-0.2c-0.4-0.4-0.8-0.8-1.2-1.2
		c0.1,0,0.2,0,0.3,0c1,0.1,1.5,0.8,2.1,1.3c0.3,0.2,0.5,0.6,0.9,0.7C226.8,12.6,227.1,12.6,227.3,12.9z"/>
	<path class="st94" d="M125.7,10.8c0.4,0.2,0.8,0.3,1,0.7c0,0.1,0,0.1,0,0.2c-0.1,0.2-0.1,0.4-0.2,0.5c-0.6,0.5,0.2,0.3,0.2,0.5
		c0.3,0.2,0.6,0.3,0.9,0.5c0.9,0.6,0.6,1.5,0.5,2.4l0,0c-0.3,0.3-0.3,0.7-0.5,0.9s-0.5,0.3-0.7,0.5c-0.8,0.3-1.6-0.1-2.4,0.2
		c-2.2,0-4.4-0.1-6.6,0c-2.7,0.2-5.3,0.2-8,0.2c-1.1,0-2.2,0.1-3.2-0.6c-0.3-0.2-0.6-0.2-0.9-0.1c-0.2,0-0.3,0-0.5,0
		c-1-0.9-2.1-1.9-3.1-2.8c-0.4-0.3-0.5-0.8-0.5-1.3c0.2-0.1,0.5-0.3,0.7-0.4c0.3-0.2,0.6-0.3,0.9-0.6c0.7-0.7,1.5-1,2.5-1
		c5,0,9.9-0.7,14.8-0.5c1.2,0,2.3,0.1,3.4,0.6C124.6,10.7,125.1,10.8,125.7,10.8z"/>
	<path class="st30" d="M89.8,12.2c-0.5,1-0.1,1.8,0.8,2.4c0.5,0.3,0.8,0.7,1.1,1.2c-0.2,0-0.3,0-0.5,0c-0.3-0.5-0.7-0.7-1.1-1.1
		C89.1,14,89,13,89.8,12.2z"/>
	<path class="st42" d="M172.5,13.8c0.1-0.7,0.7-1.3,1.2-1.7c0.6-0.6,0.8,0.5,1.3,0.7C173.9,12.6,173.2,13.3,172.5,13.8z"/>
	<path class="st95" d="M220.8,8.8c1.4,1.1,1.4,2.8,0,3.6c-0.1-0.1-0.2-0.3-0.1-0.4c0.5-1.1,0.3-2.1-0.6-2.9c-0.1-0.1-0.1-0.2,0-0.3
		c0.2-0.1,0.3-0.1,0.5,0C220.6,8.8,220.7,8.8,220.8,8.8z"/>
	<path class="st96" d="M220.5,8.8c-0.2,0-0.3,0-0.5,0c-0.1,0.1-0.2,0-0.3-0.1c-0.1-0.4-0.1-0.9,0.1-1.3
		C220.4,7.7,220.3,8.3,220.5,8.8z"/>
	<path class="st95" d="M219.8,7.4c0,0.5,0,0.9,0,1.4c-0.1,0.1-0.2,0.1-0.4,0.1l-0.1-0.1c0.1-0.5,0.3-0.9,0.2-1.4
		C219.7,7.4,219.7,7.4,219.8,7.4z"/>
	<path class="st97" d="M98.6,13.1c1.3,0.2,1.5,1.2,1.4,2.2c-0.1,1.2-1,2.1-2.1,2.1c-0.8,0-1.6,0-2.4,0c-0.6-0.2-1-0.8-1.7-0.7
		c-1.5-0.6-2.4-2-3.5-3c-0.4-0.3-0.5-0.8,0-1.2c1.5-1.2,3.1-1.9,5.1-1.4c0.9,0.2,1.9,0,2.7,0.7C98.6,12,97.7,12.9,98.6,13.1z"/>
	<path class="st98" d="M190.3,6.9c0.5,0,0.9,0,1.4,0.1c1.2,0.1,1,1.2,1.5,1.9c0.1,0,0.1,0.1,0.1,0.2s0,0.1-0.1,0.1
		c-0.5,0.1-1-0.1-1.5-0.3c0.8-1.2,0.6-1.6-0.9-1.6c-2.5,0-5.1-0.2-7.5,0.9c-0.4,0.2-0.7,0-0.9-0.4c1-0.2,2-0.3,2.9-0.7
		c1.4-0.6,2.6-0.8,4-0.2C189.6,6.9,190,6.8,190.3,6.9z"/>
	<path class="st80" d="M193.2,9c0-0.1,0-0.2,0-0.2c1.9,0.6,2.1,2.4,0.5,4.1c0.1-0.6,0.5-1.1,0.5-1.8C194.3,10.1,194.1,9.4,193.2,9z"
		/>
	<path class="st1" d="M134.9,10.7c-0.3,0-0.6,0-1.1,0C134.3,10.4,134.6,10.4,134.9,10.7L134.9,10.7z"/>
	<path class="st99" d="M216.7,6.9c0.4,0.4,1.1,0.1,1.6,0.4c0.3,0.2,0.9,0,1,0.5s-0.4,0.6-0.6,0.9c0.2,0.2,0.5,0.1,0.7,0.1l0,0
		c2.2,0.7,1.9,2.2,1.2,3.7c-0.3,0.7-1.2,0.7-1.8,0.7c-4.3,0.1-8.7,0-13,0c-0.8,0-1.5-0.6-2.2-0.8c-1,0-1.8-0.3-2.4-1.1
		c-0.2-0.3-0.5-0.8-1-0.8c-0.2-0.3-0.5-0.5-0.7-0.8c-0.7-0.9-0.7-1.3,0.3-1.7c0.6-0.3,0.9-0.9,1.6-1.1c1.3-0.3,2.6-0.5,3.9-0.5
		c3.1,0,6.3,0,9.4,0c0.7,0,1.3,0.1,1.8,0.5C216.5,6.9,216.6,6.9,216.7,6.9z"/>
	<path class="st100" d="M216.5,6.9c-4.5-0.4-9-0.4-13.6,0c-0.5,0-1,0-1.6,0c0.8-0.5,1.8-0.7,2.7-0.7c3.6,0,7.3,0,10.9,0
		C215.6,6.1,216.1,6.2,216.5,6.9z"/>
	<path class="st65" d="M203.5,12.4c4.9,1.5,9.9,0.4,14.9,0.7c1.8,0.1,2.5-1,2.4-2.7c-0.1-1-1-1-1.5-1.6c0.2,0,0.3,0,0.5,0
		c0.1,0,0.2,0,0.2,0c1.4,1.1,1.5,1.5,0.7,3.6c-0.1,0.2-0.2,0.4-0.3,0.7c-5,0.5-9.9,0.1-14.9,0.2C204.8,13.4,204.1,13,203.5,12.4z"/>
	<path class="st101" d="M37.9,13.4c1.2,1.2,0.4,2.4,0,3.6c-0.7,0.8-1.8,0.5-2.7,1c-1.7,0-3.4,0.5-5.1,0.7c-3.2,0.4-6.4,0.2-9.5,0.3
		c-2.5-0.2-5,0.3-7.4,0.6c-1.1,0.1-2.2,0.5-3.4,0.1c-0.2-0.2-0.5-0.3-0.7-0.5c-0.4-0.3-0.8,0-1.2-0.2c-0.1,0-0.2,0-0.2,0
		c-0.3-0.2-0.5-0.4-0.7-0.7c-0.6-0.5-1.1-0.9-1.7-1.4c-1-0.9-1-1.5,0-2.5c0.1,0,0.1,0,0.2,0C5.8,14.2,6,14,6.2,13.7l0,0
		c1.2-1,2.7-1.1,4.2-1.3c4.1-0.6,8.2-0.8,12.3-0.7c2.9,0.1,5.8-0.6,8.6-1c0.9-0.1,1.7-0.1,2.5,0.4l0,0c0.7,0.5,1.6,0.1,2.4,0.3
		c0.4,0.3,0.8,0.5,0.6,1.2C36.5,13.2,37.6,12.9,37.9,13.4z"/>
	<path class="st68" d="M6.9,18.2c0.3,0.1,0.5,0.4,0.7,0.7C7.2,18.9,7,18.6,6.9,18.2z"/>
	<path class="st68" d="M7.9,18.9c0.4,0,0.9-0.2,1.2,0.2C8.7,19.1,8.2,19.3,7.9,18.9z"/>
	<path class="st67" d="M33.8,11c-2.8-0.4-5.5,0.6-8.2,0.8c-1.5,0.1-2.9,0.2-4.4,0.2c-5.1,0-10.1,0.3-15,1.7c0.4-0.8,0.9-1.3,1.9-1.5
		c4.3-0.8,8.7-1.1,13-0.9c2.7,0.1,5.3-0.4,7.9-0.8c1.1-0.2,2.3-0.2,3.4-0.5C33.4,9.6,33.5,10.4,33.8,11z"/>
	<path class="st67" d="M6.2,13.6c0,0.4-0.3,0.7-0.7,0.7C5.7,14,5.9,13.7,6.2,13.6z"/>
	<path class="st102" d="M81.1,10.3c0.4,0.3,0.9,0.1,1.4,0.2c0.7,0.2,1.5,0.2,1.2,1.3c-0.1,0.4,0.2,0.5,0.5,0.6
		c1.3,0.3,1.4,1.3,1.2,2.4c-0.2,1.3-1,1.9-2.2,1.9c-1.9,0-3.8,0-5.6,0c-3.4,0-6.9-0.1-10.3,0c-1.7,0.1-3-1.1-4.5-1.3
		c-0.6-1-1.6-1.6-2.4-2.5c-0.6-0.7-0.6-1.2,0.4-1.6c0.9-0.3,1.4-1.3,2.5-1.2c0.7-0.4,1.5-0.4,2.3-0.4c4.4,0,8.8,0,13.2,0
		c0.6,0,1.2,0,1.7,0.4C80.6,10.2,80.8,10.3,81.1,10.3z"/>
	<path class="st75" d="M80.4,10.2c-5.8,0-11.5,0-17.3,0c0.5-0.7,1.3-0.7,1.9-0.7c4.7,0,9.4,0,14.1,0C79.7,9.5,80.1,9.7,80.4,10.2z"
		/>
	<path class="st103" d="M128.1,15.5c0-0.8,0.1-1.7-0.5-2.4C128.9,13.7,128.3,14.6,128.1,15.5z"/>
	<path class="st103" d="M124.5,17.2c0.8-0.4,1.6-0.1,2.4-0.2C126.2,17.4,125.3,17.1,124.5,17.2z"/>
	<path class="st103" d="M126.7,12.6c-1.3-0.3,0.1-0.7,0-1C126.7,12,126.7,12.3,126.7,12.6z"/>
	<path class="st103" d="M127.6,16.5c0-0.4,0.1-0.8,0.5-0.9C128.1,15.9,128,16.2,127.6,16.5z"/>
	<path class="st104" d="M124.1,10.7c-2.6-0.4-5.2-0.3-7.9-0.2c-3.8,0.1-7.7,0.5-11.5,0.6c-0.9,0-1.3,1.2-2.2,1
		c0.6-0.6,1.2-1.1,1.8-1.7c0.4-0.3,0.8-0.5,1.3-0.5c5.3,0.1,10.6-0.7,16-0.5C122.7,9.5,123.4,9.9,124.1,10.7z"/>
	<path class="st105" d="M226.5,12.7c-1.3-0.4-1.9-1.7-3.1-2.2c-0.3-0.6-0.9-1.1-0.7-1.9c0.7-0.5,1.4-1,2.1-1.5
		c0.1-0.1,0.3-0.1,0.5-0.1c0.2,0.8-0.5,1.1-1,1.4c-0.7,0.4-0.7,0.7-0.2,1.3c0.9,0.9,1.7,1.7,2.5,2.7
		C226.6,12.5,226.6,12.6,226.5,12.7z"/>
	<path class="st106" d="M45.6,10.2c-1.3,0.1-2.7-0.1-4,0.2c-0.7,0.1-1.3,0.6-2,0.8c0-0.6,0.5-0.7,0.9-1c1.3-1.3,2.9-0.9,4.5-0.9
		C45.5,9.3,45.8,9.7,45.6,10.2z"/>
	<path class="st84" d="M45.6,10.2c-0.1-0.6-0.4-0.7-0.9-0.7c-1.2,0-2.5-0.2-3.6,0.6c-0.1,0.1-0.4,0.1-0.6,0.1
		C40.7,9.4,41.3,9,42.1,9c0.8,0,1.6,0.1,2.4,0c0.9-0.1,1.4,0.3,1.5,1.2C45.9,10.2,45.7,10.2,45.6,10.2z"/>
	<path class="st107" d="M39.8,14.3c-1,0-0.5,1.1-0.9,1.4c0-0.4-0.1-0.8,0-1.1C39,14.1,39.3,13.9,39.8,14.3z"/>
	<path class="st108" d="M135.1,12.4c-0.2,1.1-0.8,1.7-1.9,1.8c-0.3,0-0.4,0-0.6-0.3c-0.2-0.3-0.1-0.6,0.2-0.7
		C133.5,12.8,134.2,12.3,135.1,12.4L135.1,12.4z"/>
	<path class="st109" d="M131.9,12.9c-0.5-0.5-0.8-0.9-1.2-1.4c0.5,0,0.9-0.7,1.4-0.3C132.5,11.7,132,12.2,131.9,12.9z"/>
	<path class="st110" d="M226.5,12.4c-1.2-0.8-2.1-2.1-3.2-3.1c-0.4-0.4-0.1-0.8,0.4-1c0.7-0.2,1.2-0.6,1.6-1.2c1-0.8,1.9-0.1,2.9,0
		c0.4,0,0.7,0.1,1,0.3c0.7,0.4,1.3,0.7,0.3,1.5c2,1,2.4,1.8,1.8,3.3c-0.5,1.2-1.1,1.4-2.3,0.9c-0.3-0.1-0.5-0.2-0.8-0.3l0,0
		C227.7,12.6,227,12.9,226.5,12.4z"/>
	<path class="st111" d="M228.2,7.1c-1,0-1.9,0-2.9,0c-0.2,0-0.3,0-0.5,0c0.2-0.3,0.4-0.6,0.6-0.9c0.6-0.8,1.3-0.6,1.6,0
		C227.4,6.8,227.9,6.8,228.2,7.1z"/>
	<path class="st88" d="M226.5,12.4c0.5,0.2,1.2,0.1,1.7,0.5c-0.3,0-0.6,0-1,0c-0.3,0-0.5,0-0.7-0.2
		C226.5,12.6,226.5,12.5,226.5,12.4z"/>
	<path class="st112" d="M98.6,13.1c-1.7,0-0.1-1-0.5-1.4C99,11.9,98.2,12.7,98.6,13.1z"/>
	<path class="st113" d="M134,13.4c-0.1,0.3-0.2,0.4-0.5,0.4c-0.2,0-0.5-0.1-0.4-0.3s0.4-0.3,0.6-0.3C133.9,13.1,134,13.2,134,13.4z"
		/>
</g>
</svg>
