<svg viewBox="0 0 228.7 30.5">
<style type="text/css">
	.st0{fill:#D08DA0;}
	.st1{fill:#CC8398;}
	.st2{fill:#E5C0CB;}
	.st3{fill:#D291A4;}
	.st4{fill:#BB5874;}
	.st5{fill:#CF8B9F;}
	.st6{fill:#CD879B;}
	.st7{fill:#D495A7;}
	.st8{fill:#C7768E;}
	.st9{fill:#CF8A9E;}
	.st10{fill:#CC8499;}
	.st11{fill:#E9CAD3;}
	.st12{fill:#E1B6C3;}
	.st13{fill:#DAA6B5;}
	.st14{fill:#EBCED7;}
	.st15{fill:#E8C7D1;}
	.st16{fill:#CA7E94;}
	.st17{fill:#DBA8B7;}
	.st18{fill:#E4BFCA;}
	.st19{fill:#D79FAF;}
	.st20{fill:#C36D86;}
	.st21{fill:#E2B9C5;}
	.st22{fill:#CB8196;}
	.st23{fill:#DCAAB8;}
	.st24{fill:#D69AAC;}
	.st25{fill:#EDD5DC;}
	.st26{fill:#D79DAE;}
	.st27{fill:#E0B4C0;}
	.st28{fill:#F0DBE2;}
	.st29{fill:#E5C2CC;}
	.st30{fill:#D08CA0;}
	.st31{fill:#D496A8;}
	.st32{fill:#D18FA3;}
	.st33{fill:#E0B3C0;}
	.st34{fill:#D08DA1;}
	.st35{fill:#EBD0D8;}
	.st36{fill:#D9A2B2;}
	.st37{fill:#E5C2CD;}
	.st38{fill:#EFDAE1;}
	.st39{fill:#D394A6;}
	.st40{fill:#CE879C;}
	.st41{fill:#C16882;}
	.st42{fill:#E8C9D2;}
	.st43{fill:#C0657F;}
	.st44{fill:#DCA9B8;}
	.st45{fill:#EACED6;}
	.st46{fill:#C87990;}
	.st47{fill:#DFB2BF;}
	.st48{fill:#E2BAC5;}
	.st49{fill:#E1B5C2;}
	.st50{fill:#E2BAC6;}
	.st51{fill:#ECD1D9;}
	.st52{fill:#D293A5;}
	.st53{fill:#D18EA1;}
	.st54{fill:#CD859A;}
	.st55{fill:#D190A3;}
	.st56{fill:#D8A0B0;}
	.st57{fill:#EED7DD;}
	.st58{fill:#CC8297;}
	.st59{fill:#B64B6A;}
	.st60{fill:#B74F6D;}
	.st61{fill:#BC5B77;}
	.st62{fill:#BE607B;}
	.st63{fill:#B8516F;}
	.st64{fill:#B95471;}
	.st65{fill:#B95572;}
	.st66{fill:#BD5E79;}
	.st67{fill:#B74D6C;}
	.st68{fill:#C57189;}
	.st69{fill:#B95370;}
	.st70{fill:#C7778E;}
	.st71{fill:#BA5673;}
	.st72{fill:#BE5F7B;}
	.st73{fill:#BF647E;}
	.st74{fill:#BC5C78;}
	.st75{fill:#BF627D;}
	.st76{fill:#B54B69;}
	.st77{fill:#B44868;}
	.st78{fill:#BF637E;}
	.st79{fill:#BD607B;}
	.st80{fill:#B14162;}
	.st81{fill:#C46F88;}
	.st82{fill:#B24364;}
	.st83{fill:#BA5773;}
	.st84{fill:#C6748C;}
	.st85{fill:#D599AA;}
	.st86{fill:#D08C9F;}
	.st87{fill:#BE617C;}
	.st88{fill:#BC5C77;}
	.st89{fill:#B8506E;}
	.st90{fill:#B64E6C;}
	.st91{fill:#BC5A76;}
	.st92{fill:#B8526F;}
	.st93{fill:#BE627D;}
	.st94{fill:#C26882;}
	.st95{fill:#B14161;}
	.st96{fill:#D79CAD;}
	.st97{fill:#E7C6D0;}
	.st98{fill:#C8788F;}
	.st99{fill:#B64D6C;}
	.st100{fill:#B54968;}
	.st101{fill:#BD5F7A;}
	.st102{fill:#B34464;}
	.st103{fill:#B44665;}
	.st104{fill:#AD3658;}
	.st105{fill:#AC3457;}
	.st106{fill:#B04060;}
	.st107{fill:#B03C5E;}
	.st108{fill:#B54A69;}
	.st109{fill:#B34666;}
	.st110{fill:#C16781;}
	.st111{fill:#B64C6A;}
	.st112{fill:#B24162;}
</style>
<g>
	<path class="st0" d="M193.1,13.8c-3.6,1.9-6.7,4.6-10.3,6.6c-0.3,0.2-0.5,0.5-0.8,0.7c-0.6,0.6-1.5,0.6-2.1,0.2
		c-0.6-0.5-0.5-1.5-0.1-2c0.5-0.7,1.1-1.5,2.1-1.6c0.1,0.1,0.1,0.3,0.1,0.5c-0.1,0.2-0.3,0.3-0.5,0.4c-0.4,0.3-0.8,0.5-1,0.9
		c-0.1,0.1-0.1,0.2-0.2,0.3c-0.1,0.2-0.1,0.5,0,0.7c0.1,0.1,0.1,0.1,0.2,0.2c0.2,0.1,0.4,0.1,0.7-0.1c0.2-0.1,0.3-0.2,0.5-0.3
		c0.3-0.2,0.6-0.4,0.9-0.6c0.2-0.2,0.4-0.3,0.6-0.5c0.4-0.2,0.8-0.4,1-0.9c0.1-0.2,0.4-0.4,0.6-0.6c0.6-0.3,1.3-0.6,1.9-1
		c0.6-0.3,1.2-0.7,1.7-1.1c0.1-0.1,0.2-0.1,0.3-0.2c1-0.6,1.8-1.4,2.9-1.7C192.3,13.6,192.7,13.4,193.1,13.8z"/>
	<path class="st1" d="M70.9,17.3c3.6-1.8,7.3-3.7,10.9-5.5c0.4-0.2,0.9-0.4,1.3-0.5c0.2,0.4-0.1,0.6-0.3,0.9c-0.4,0.8-1.5,0.6-2,1.2
		c-0.2,0.1-0.5,0.2-0.7,0.3c-0.6,0.2-1.1,0.6-1.6,0.9c-0.2,0.1-0.5,0.2-0.7,0.3c-0.3,0.1-0.6,0.3-0.9,0.5c-0.1,0.1-0.3,0.2-0.4,0.3
		c-0.2,0.1-0.4,0.2-0.6,0.3c-0.6,0.1-1.1,0.4-1.6,0.8c-0.6,0.5-1.3,0.7-2,0.9c-0.5,0.2-0.9,0.6-1.3,0.9c-0.4,0.2-0.7,0.4-1.2,0.3
		c-0.5-0.3-0.2-0.6,0.1-0.7C70.2,17.8,70.6,17.6,70.9,17.3z"/>
	<path class="st2" d="M161.6,15.4c-0.6,0.9-1.6,1.3-2.5,1.8c-1.9,1-3.7,2.2-5.6,3.1c-0.7,0.3-1.4,0.2-2.1,0.1
		c-0.6-0.1-0.7-2.2,0-2.5c1.7-0.8,3.2-2.1,5-2.7c0.1,0.1,0.1,0.3,0.1,0.5c-0.7,0.5-1.5,0.8-2.1,1.5c-0.1,0.1-0.2,0.1-0.3,0.2
		c-0.4,0.1-0.7,0.3-1,0.6c-0.3,0.2-0.6,0.2-0.8,0.4c-0.6,1.1-0.5,1.3,0.6,1.5c0.1-0.1,0.3-0.1,0.4-0.2c0.1-0.1,0.2-0.2,0.4-0.3
		c0.2-0.1,0.4-0.2,0.6-0.2c0.5-0.2,1.1-0.3,1.4-0.8c0.3-0.3,0.6-0.5,0.9-0.7c1.4-0.4,2.6-1.4,3.9-2.1
		C160.7,15.4,161.1,15,161.6,15.4z"/>
	<path class="st3" d="M131.8,14c1.1-1.2,2.6-1.9,4-2.5c2.3-0.9,4.4-2.3,6.8-2.8c0.3-0.1,0.6-0.2,0.9-0.2c0.6,0,1.5-0.2,1.5,0.8
		c0,0.9,0.2,1.9-1.2,1.8c-0.2-0.2-0.1-0.4-0.1-0.6c0-1.5-0.1-1.6-1.5-1c-1.9,0.9-4,1.6-5.8,2.8c-0.5,0.3-1.1,0.3-1.6,0.5
		c-0.2,0.2-0.5,0.3-0.7,0.4c-0.7,0.3-1.2,0.9-2,1C132.1,14.2,132,14.1,131.8,14z"/>
	<path class="st4" d="M215.2,13.1c-0.2,0.3-0.4,0.5-0.7,0.5c-1.2,0.5-1.9,1.6-3.1,2.1c-0.1,0-0.2-0.1-0.3-0.1
		c-0.1-0.9,0.2-1.3,1-1.8c1.3-0.7,2.7-1.5,3.8-2.6c0.1-0.1,0.2-0.1,0.3-0.1c0.5-0.1,0.9-0.5,1.3-0.8c0.3-0.3,0.6-0.5,1-0.4
		c0.7,0.2,1.1-0.2,1.3-0.8c-0.4-0.4-0.9,0.1-1.2-0.4c0.1-0.8,0.8-0.6,1.2-0.7c0.8-0.1,1,0.4,1.1,1.1s-0.2,1.1-0.8,1.3
		c-0.2,0.1-0.5,0.2-0.7,0.3C218.1,11.3,216.5,11.9,215.2,13.1z"/>
	<path class="st5" d="M20,11.4c2.4-1,5-1.1,7.5-1.9c0.2-0.1,0.4-0.2,0.7-0.2c0.4-0.2,0.9-0.4,1.3-0.3C30,9.1,30.8,8.6,31,9.5
		c0.3,1.1,0,1.7-0.9,2.2c-0.5,0.2-1,0.3-1.4,0.5c-1.6,0.4-3.2,0.8-4.8,1c-0.2,0.1-0.3,0.1-0.5,0.1c-0.1-0.1-0.1-0.2-0.1-0.3
		c0.1-0.1,0.2-0.2,0.3-0.2c0.9-0.3,1.9-0.2,2.8-0.7c0.2-0.1,0.3-0.1,0.5-0.1c0.7,0,1.2-0.4,1.8-0.6c0.1,0,0.2-0.1,0.3-0.1
		c0.5-0.1,0.6-0.4,0.6-0.8c0-0.5-0.4-0.5-0.7-0.5s-0.5,0.1-0.8,0.2c-0.5,0.3-1.1,0.2-1.6,0.5c-0.8,0.3-1.6,0.4-2.5,0.5
		c-0.5,0-0.9,0-1.3,0.3c-0.3,0.1-0.5,0.3-0.8,0.3c-0.5,0.1-0.9,0.3-1.4,0.2C20.4,11.7,20.2,11.6,20,11.4z"/>
	<path class="st6" d="M55.3,10.9c1.1-0.3,2-1,3.2-1c0.6,0,1.3-0.2,1.4,0.7c0.1,0.8,0.1,1.5-0.8,1.9c-0.8,0.3-1.6,0.7-2.5,0.9
		c-1.9,0.5-3.7,1.5-5.5,2.1c-0.2-0.7,0.5-0.7,0.8-1c0.4-0.4,1-0.5,1.5-0.7c0.4-0.2,0.8-0.3,1.2-0.5c0.1,0,0.2-0.1,0.3-0.1
		c0.3-0.1,0.7-0.2,1-0.4c0.5-0.3,1-0.3,1.5-0.5c0.3-0.2,0.6-0.3,0.9-0.5c0.2-0.1,0.3-0.3,0.2-0.6c-0.1-0.2-0.1-0.5-0.4-0.5
		c-0.9,0.1-1.7,0.8-2.7,0.4C55.3,11,55.3,11,55.3,10.9L55.3,10.9z"/>
	<path class="st7" d="M103.3,17.4c0.3-0.1,0.6-0.1,0.8-0.3c3-2.2,6.5-3.6,9.5-5.9c0.6-0.5,1.2-0.9,2-1c0.1,0.1,0.1,0.2,0.1,0.3
		c-0.2,0.6-0.8,0.8-1.3,1.1c-1.1,0.4-1.9,1.5-3,1.9c-0.3,0.2-0.6,0.5-0.9,0.7c-0.3,0.1-0.7,0.3-0.9,0.6c-0.8,0.4-1.6,0.9-2.4,1.3
		c-0.4,0.2-0.7,0.4-1,0.7c-0.1,0.1-0.2,0.1-0.2,0.2c-0.3,0.2-0.5,0.3-0.7,0.5c-0.1,0.1-0.3,0.1-0.4,0.2c-0.7,0.4-1.3,0.8-1.9,1.3
		c-0.3,0.2-0.6,0.3-1,0.3c-0.1,0-0.2-0.1-0.3-0.2c-0.1-0.1-0.1-0.2,0-0.3c0.2-0.1,0.4-0.3,0.5-0.4C102.6,17.9,103,17.6,103.3,17.4z"
		/>
	<path class="st8" d="M193.1,13.8c-0.4-0.1-0.8,0.2-1.2,0.2l-0.1-0.1c0-0.1,0-0.1,0-0.2c1-0.8,2.3-1.2,3.4-1.6
		c0.4-0.1,0.8-0.2,1.1-0.4c0.4-0.3,0.9-0.4,1.4-0.5c0.3-0.1,0.5-0.1,0.8-0.2c0.4-0.3,0.6-0.7,0.3-1.1s-0.6,0-0.9,0.2
		c-0.2,0.1-0.4,0.2-0.6-0.1c-0.1-0.2-0.1-0.5,0.1-0.6c0.5-0.3,1-0.5,1.6-0.4c0.6,0,1.4-0.3,1.5,0.7c0.1,0.8,0.1,1.6-0.9,1.9
		C197.4,12.1,195.2,12.8,193.1,13.8z"/>
	<path class="st9" d="M131.8,14c0.2,0,0.4,0,0.5,0l0.1,0.1c0,0.1-0.1,0.2-0.2,0.3c-0.3,0.2-0.6,0.3-0.8,0.5
		c-0.8,0.6-1.5,1.1-2.3,1.6c-0.3,0.2-0.6,0.5-0.9,0.7c-0.5,0.4-0.8,0.8-1.2,1.3c-0.2,0.2-0.3,0.5-0.2,0.8c0.2,0.3,0.6,0.1,0.8-0.1
		c0.1-0.1,0.2-0.1,0.3-0.2c0.5-0.3,0.9-1,1.6-0.3c-0.6,0.8-1.3,1.5-2.3,1.9c-0.5,0.2-1.2,0.4-1.5-0.2s-0.4-1.3,0.1-1.9
		c0.1-0.2,0.4-0.3,0.5-0.5C128.2,16.5,129.7,14.8,131.8,14z"/>
	<path class="st10" d="M108.6,17.6c-2.6,1.5-4.9,3.3-7.7,4.6c-0.5,0.1-0.8,0.5-1.4,0.4c-0.4-0.4-0.1-0.6,0.2-0.9
		c0.1-0.1,0.2-0.1,0.3-0.1c0.3,0,0.6-0.1,0.8-0.3c0.3-0.1,0.5-0.3,0.7-0.5c0.3-0.2,0.5-0.3,0.7-0.5c0.3-0.2,0.6-0.5,0.9-0.6
		c0.9-0.2,1.6-0.7,2.3-1.3c0.7-0.5,1.5-1,2.2-1.5c0.2-0.1,0.5-0.1,0.7,0c0.1,0,0.2,0.1,0.3,0.2C109,17.3,108.8,17.5,108.6,17.6z"/>
	<path class="st11" d="M221.4,13.9c-0.2-1,0.2-1.4,1.2-1.4s1.2,0.5,1.2,1.3c0,0.9-0.2,1.4-1.3,1.4C221.6,15.2,221.2,14.8,221.4,13.9
		z"/>
	<path class="st12" d="M202.3,18.9c0.2,1.4-0.8,1.1-1.4,1.2c-0.7,0.1-1.2-0.3-1.2-1.1c0-0.9,0.3-1.4,1.3-1.4
		C202.3,17.5,202.5,18.1,202.3,18.9z"/>
	<path class="st13" d="M147.3,20.6c-1.3,0.3-1.2-0.7-1.3-1.5c-0.1-1.2,0.8-1,1.6-1c1.3-0.1,0.8,0.9,0.9,1.5
		C148.5,20.4,148.2,20.9,147.3,20.6z"/>
	<path class="st14" d="M61.4,16.4c-1,0.2-1.4-0.2-1.3-1.2c0.1-0.5-0.2-1.4,0.7-1.3c0.7,0.1,1.9-0.2,1.7,1.3
		C62.5,15.9,62.5,16.6,61.4,16.4z"/>
	<path class="st15" d="M147,12.6c1-0.2,1.2,0.3,1.2,1.2c0,1-0.5,1.1-1.3,1.2c-1.2,0.1-1.1-0.8-1.2-1.5
		C145.6,12.5,146.3,12.5,147,12.6z"/>
	<path class="st16" d="M89.4,21.2c0.3-0.9,1-0.4,1.5-0.3c0.7,0.1,0.8,0.6,0.8,1.1c0,0.4-0.1,0.8-0.2,1.2c-0.5,0.7-1.2,0.6-1.8,0.3
		c-0.6-0.2-0.5-0.8-0.5-1.3C89.3,21.8,89.2,21.5,89.4,21.2z"/>
	<path class="st5" d="M223.8,18.6c0.2,1-0.3,1.2-1.3,1.2c-1.3,0.1-1.1-0.7-1.2-1.5c-0.1-1.1,0.5-1.1,1.4-1.2
		C224,17,223.8,17.8,223.8,18.6z"/>
	<path class="st17" d="M33,18.3c0,0.9,0,1.6-0.9,1.6c-0.8-0.1-1.8,0-1.7-1.4c0.1-0.7,0.1-1.4,1-1.3C32.1,17.3,33.3,17,33,18.3z"/>
	<path class="st18" d="M211.6,15.9c-1.7,1.2-3.4,2.4-5.2,3.6c-0.8,0.5-2.1,0.3-2.4-0.2c-0.4-0.6,0-2.1,0.7-2.5
		c0.4-0.2,0.9-0.4,1.3-0.6c0.1,0.1,0.1,0.1,0.1,0.2s0,0.1,0,0.1c-0.1,0.2-0.2,0.3-0.3,0.4c-0.2,0.1-0.4,0.3-0.6,0.4
		c-0.4,0.4-0.4,1-0.2,1.4c0.3,0.5,0.9,0.3,1.3,0c0.9-0.6,1.7-1.1,2.6-1.7c0.7-0.6,1.5-1.2,2.5-1.3C211.4,15.8,211.5,15.9,211.6,15.9
		z"/>
	<path class="st19" d="M61.3,20.7c-1,0.2-1.3-0.3-1.3-1.2c0-0.7,0-1.3,1-1.3c0.9,0,1.6,0.2,1.5,1.4C62.5,20.5,62.2,20.9,61.3,20.7z"
		/>
	<path class="st1" d="M167.2,9.9c1.2-0.5,2.5-1,3.8-1.5c0.3-0.1,0.6-0.2,0.9-0.2c0.5,0.1,1.2-0.3,1.4,0.5s0.4,1.7-0.8,2.1
		c-0.3,0.1-0.5,0.2-0.8,0.4c-0.2,0.1-0.3-0.1-0.3-0.2c0-0.3,0.2-0.5,0.4-0.7c0.2-0.3,0.6-0.6,0.2-0.9c-0.3-0.3-0.7-0.2-1-0.1
		c-0.5,0.3-1.2,0.3-1.6,0.7c-0.6,0.3-1.1,0.6-1.7,0.8c-0.3,0.1-0.6,0.1-0.9-0.1C166.4,10,167,10.1,167.2,9.9z"/>
	<path class="st9" d="M7.8,17.6c-0.6-0.7-0.6-1.9,0-2.1c2.4-0.8,4.7-1.8,7.2-2.4c0.1,0.2,0.1,0.3,0.1,0.5c-0.1,0.1-0.3,0.2-0.4,0.3
		c-0.9,0.2-1.8,0.7-2.7,0.8c-0.1,0.1-0.3,0.2-0.4,0.3c-0.4,0.3-0.7,0.5-1.2,0.6c-0.4,0.1-0.7,0.3-1,0.4c-0.2,0.1-0.4,0.1-0.6,0.2
		c-0.3,0.5,0,1.1-0.5,1.5C8.1,17.7,7.9,17.7,7.8,17.6z"/>
	<path class="st20" d="M52,14.7c-0.2,0.3-0.9,0.2-1,0.8c-0.5,0.5-1.3,0.6-2,0.8c-2.2,0.7-4.1,2.2-6.5,2.7c-0.3,0.2-0.7,0.1-1.1,0.1
		c-0.1,0-0.2-0.1-0.2-0.3c1-0.5,1.9-1.1,3.1-1.3c0.5-0.1,1.2-0.3,1.6-0.8c0.7-0.6,1.6-0.7,2.4-1c0.9-0.3,1.8-0.9,2.7-1.3
		C51.4,14.4,51.7,14.4,52,14.7z"/>
	<path class="st11" d="M99.5,22.4c0.5-0.1,0.9-0.2,1.4-0.3c-0.6,0.5-1.2,1-1.8,1.5c-0.5,0.5-2.3,0.6-2.6,0.2
		c-0.3-0.4-0.1-2.1,0.4-2.6c1.2-1.5,3.1-2,4.8-2.8c0,0.1,0,0.2,0,0.3c-0.4,0.9-1.3,0.9-2,1.3c-0.3,0.1-0.7,0.2-1,0.5
		c-0.4,0.3-0.9,0.6-1.2,1c0,0.1-0.1,0.1-0.1,0.2c-0.3,0.4-0.5,0.9-0.2,1.4c0.4,0.5,0.8,0.1,1.3,0c0.2-0.1,0.3-0.3,0.4-0.4
		C99,22.6,99.2,22.4,99.5,22.4z"/>
	<path class="st21" d="M41.4,19.1c0.4,0,0.8,0,1.2,0c-1.5,0.5-3,1-4.4,1.7c-0.5,0.3-1.2,0.2-1.8,0.1c-0.5-0.1-1.1-0.2-1-1
		c0.1-0.7-0.3-1.5,0.9-1.7c0.6-0.1,1.2-0.4,1.8-0.7c0.1,0.1,0.2,0.3,0.1,0.5c-0.1,0.1-0.2,0.2-0.3,0.2c-0.8,0.3-1.7,0.9-1.2,1.6
		c0.5,0.8,1.5,0.2,2.2-0.2c0.1-0.1,0.2-0.1,0.3-0.2C39.9,19.3,40.6,18.9,41.4,19.1z"/>
	<path class="st22" d="M88.2,18.1c-0.3-0.6-0.4-1.3-0.4-2c0-0.6,0-1.4,0.8-1.3c0.7,0,1.9-0.4,1.8,1.1c0.1,0.2,0.1,0.4,0.1,0.7
		c-0.5,0.3-0.6-0.3-1-0.4c-0.3,0-0.6-0.3-0.7,0.3c-0.1,0.5,0,0.8,0.5,0.9c0.4,0.1,0.9-0.2,1.3,0c0.1,0.5,0.1,1.2-0.4,1.2
		C89.5,18.6,88.7,18.8,88.2,18.1z"/>
	<path class="st23" d="M176.9,19.1c0.3,1.2-0.5,1.4-1.4,1.4c-1.2,0-1-0.9-1.1-1.7c0-0.7,0.3-1.2,1-1.1S177.3,17.6,176.9,19.1z"/>
	<path class="st24" d="M70.9,17.3c0,0.8-1.2,0.5-1.2,1.2c0.1,0.2,0,0.3-0.1,0.4c-0.7,0.2-1.4,0.6-1.9,1.1c-0.1,0.1-0.2,0.1-0.3,0.2
		c-0.4,0.2-0.7,0.5-0.6,1c0,0.1,0,0.2,0,0.3c0.5,0.4,1.3-0.2,1.6,0.6c-0.5,0.9-1.4,0.6-2.1,0.5c-0.3,0-0.5-0.3-0.4-0.6
		c0-0.5-0.1-1,0.1-1.5C67.1,18.7,69.2,18.3,70.9,17.3z"/>
	<path class="st25" d="M121.8,11.9c0.6,1.9,0,2.9-1.7,2.6c-0.7-0.1-0.9-0.4-0.9-1c0-0.5,0-1,0-1.6c0-0.7,0.3-1.1,1-1.1
		C120.9,11,121.9,10.5,121.8,11.9c-0.4,0.1-0.8-0.1-1.2,0c-0.5,0-0.9,0.2-0.9,0.7c0,0.3-0.1,0.8,0.4,0.8s1.1,0.1,1.3-0.5
		C121.5,12.5,121.5,12.1,121.8,11.9z"/>
	<path class="st26" d="M78.4,16.7c-1.5,1.2-3.3,1.7-5,2.6c-0.9,0.5-1.8,0.9-2.7,1.4c-0.2,0.1-0.4,0.1-0.6,0.1
		c-0.1-0.1-0.2-0.1-0.2-0.3c0.2-0.6,0.7-0.6,1.1-0.9c0.1-0.1,0.2-0.1,0.3-0.1c0.5-0.2,0.9-0.3,1.3-0.6c0.1-0.1,0.2-0.1,0.3-0.1
		c0.3-0.1,0.6-0.4,0.9-0.6c0.2-0.1,0.5-0.2,0.7-0.3c0.7-0.2,1.4-0.5,2-1c0.2-0.2,0.4-0.4,0.7-0.5c0.1,0,0.2-0.1,0.4-0.1
		C77.9,16.4,78.2,16.4,78.4,16.7z"/>
	<path class="st27" d="M126.3,17.8c-0.4,0.8-1.1,1.8-0.3,2.5c0.8,0.6,1.7-0.1,2.4-0.8c0.3-0.3,0.8-0.5,1-1c0-0.2,0.1-0.3,0.3-0.4
		c0.5-0.4,1-0.7,1.4-1.1c0.3-0.2,0.6-0.5,1-0.2c-1.2,1.5-2.9,2.4-4.4,3.6c-0.5,0.5-1.7,0.6-2.3-0.1
		C124.8,19.6,125.2,18.5,126.3,17.8z"/>
	<path class="st28" d="M122.3,18.7c0.1,1,0.1,1.8-1.2,1.8c-1.4-0.1-1.6-0.2-1.6-1.6c0-1.5,0.3-1.7,1.5-1.8
		C122.3,17,122.4,17.8,122.3,18.7z"/>
	<path class="st29" d="M200.7,13.1c1-0.1,1.6,0.3,1.5,1.2c-0.1,0.7,0.2,1.8-1.2,1.6c-1.3-0.1-1.5-0.4-1.6-1.7
		C199.3,13.2,199.8,12.9,200.7,13.1z"/>
	<path class="st30" d="M7.8,17.6c0.2,0,0.4,0,0.5,0c0.8-0.5,1.8-0.3,2.5-1c0.3-0.2,0.6-0.2,0.9-0.3c0.1,0,0.2-0.1,0.3-0.1
		c0.5-0.2,1.1-0.3,1.6-0.6c0.8-0.1,1.5-0.5,2.3-0.7c0.1,0,0.2-0.1,0.3-0.1c0.2,0,0.5,0,0.7,0.2c0.1,0.1,0.1,0.2,0,0.3
		c-2.1,0.9-4.4,1.4-6.4,2.4C9.7,18,8.7,18.1,7.8,17.6z"/>
	<path class="st31" d="M197.4,9.2c0,0.2,0,0.5,0,0.7c-0.8,0.5-1.7,0.7-2.5,1c-0.3,0-0.6,0.1-0.9,0.3c-0.1,0.1-0.2,0.1-0.3,0.1
		c-0.3,0.1-0.6,0.1-0.8,0.3c-0.1,0.1-0.3,0.2-0.4,0.2c-0.7,0.2-1.4,0.8-2.2,0.5c-0.1-0.1-0.1-0.1-0.1-0.2s0-0.1,0-0.1
		C192.5,10.9,194.9,9.9,197.4,9.2z"/>
	<path class="st32" d="M210.6,13.1c0.1-0.2,0.3-0.3,0.4-0.5c0.6-0.2,1.2-0.5,1.7-0.9c1.1-1,2.2-1.9,3.6-2.4c0.1,0.1,0.2,0.3,0.1,0.5
		c-1.5,1.5-3.3,2.5-4.8,3.8c-0.3,0.3-0.7,0.3-1.1,0.1C210.4,13.4,210.5,13.2,210.6,13.1z"/>
	<path class="st33" d="M55.3,10.9c0,0.1,0,0.2,0,0.2c-0.3,0.7-1.1,0.7-1.6,1c-1.7,0.5-3.3,1.3-4.9,2.1c-0.3,0.2-0.6,0.3-1,0.3
		c-0.3,0-0.6,0-0.9-0.1c-0.1,0-0.2-0.1-0.2-0.2c2.6-0.8,5-2.3,7.6-3.2C54.6,10.9,55,10.8,55.3,10.9z"/>
	<path class="st2" d="M167.2,9.9c-0.2,0.2-0.3,0.3-0.5,0.5c-0.1,0.5-0.5,0.6-0.9,0.7c-1.9,0.5-3.6,1.3-5.2,2.3
		c-0.8,0.2-1.3,1.2-2.3,0.7C161,12.1,163.9,10.6,167.2,9.9z"/>
	<path class="st34" d="M85.5,10.1c0.6-0.5,1.4-0.2,2-0.2s0.6,0.5,0.6,1c0,0.8-0.2,1.3-1,1.6c-0.4,0.1-0.8,0.1-1.2,0.2l-0.1-0.1
		c0.1-0.5,0.6-0.7,0.8-1.2C87.1,10.3,85.9,10.6,85.5,10.1z"/>
	<path class="st35" d="M108.6,17.6c0.1-0.1,0.2-0.3,0.3-0.4c0.6-0.9,1.7-1,2.5-1.6c1.4-1,2.6-2.2,4.4-2.6c0.1,0,0.2,0.1,0.3,0.2
		C113.7,14.8,111.5,16.7,108.6,17.6z"/>
	<path class="st36" d="M176.5,14.1c0.1,0.9-0.2,1.3-1.2,1.4c-1.5,0.1-1.2-1-1.3-1.8c-0.1-0.9,0.6-0.9,1.3-0.9
		C176.3,12.7,176.7,13.2,176.5,14.1z"/>
	<path class="st37" d="M86.1,12.7c0,0.3-0.3,0.5-0.6,0.6c-2.3,1.2-4.5,2.5-6.9,3.4c0-1,1.2-0.7,1.5-1.4c0.2-0.2,0.4-0.4,0.7-0.5
		c1.3-0.4,2.5-0.9,3.6-1.7c0.1-0.1,0.2-0.2,0.2-0.2C85.1,12.6,85.5,12.3,86.1,12.7C86,12.6,86,12.6,86.1,12.7z"/>
	<path class="st22" d="M219.5,10.4c0.7-0.4,1.8-0.7,1.2-1.9C220.5,8.2,220.3,8,220,8c-0.1-0.1-0.1-0.1-0.1-0.2s0.1-0.1,0.1-0.1
		c1.8-0.1,2.1,0.2,1.9,1.6c-0.2,1-1.1,0.8-1.6,1.1C220,10.5,219.7,10.6,219.5,10.4z"/>
	<path class="st1" d="M144.1,10.6c-0.1,0.2-0.2,0.3-0.2,0.5c-2,0.7-3.7,1.9-5.8,2.4c-0.1,0.1-0.2,0.1-0.3,0
		c-0.1-0.4,0.1-0.6,0.4-0.7c1.7-0.7,3.2-1.6,4.9-2.2C143.4,10.5,143.8,10.4,144.1,10.6z"/>
	<path class="st38" d="M31.1,12.8c0.7-0.2,1.3-0.1,1.2,0.9c-0.1,0.7,0.4,1.8-1,1.8c-0.7,0-1.6,0.3-1.6-1
		C29.6,12.7,29.6,12.7,31.1,12.8z"/>
	<path class="st39" d="M137.8,13.5c0.1,0,0.2,0,0.3,0.1c-1.5,0.9-3.2,1.6-4.6,2.7c-0.2,0.1-0.5,0.1-0.7,0.2
		c-0.1-0.1-0.1-0.2-0.1-0.3c0-0.1,0.1-0.2,0.1-0.3c0.2-0.2,0.4-0.5,0.7-0.7c0.8-0.7,1.8-1.2,2.7-1.7
		C136.8,13.4,137.3,13.1,137.8,13.5z"/>
	<path class="st40" d="M38,18.1c0-0.2,0-0.3,0-0.5c2-0.9,4.3-1,6.3-2.1c0.1-0.1,0.3-0.1,0.4-0.1c0.1,0.1,0.1,0.2,0.1,0.3
		c0,0.1-0.1,0.2-0.2,0.3c-0.4,0.4-0.9,0.5-1.4,0.8c-1.5,0.7-3.2,0.8-4.7,1.5C38.4,18.3,38.2,18.2,38,18.1z"/>
	<path class="st41" d="M15,13.5c0-0.2,0-0.3,0-0.5c1.6-0.7,3.2-1.5,5-1.7c0.2,0.1,0.3,0.2,0.5,0.2c-0.1,0.3-0.4,0.4-0.6,0.4
		c-1.1,0.1-1.9,0.7-2.8,1.2C16.4,13.2,15.8,13.9,15,13.5z"/>
	<path class="st42" d="M28.7,12.1c0.3-0.3,0.7-0.4,1-0.5c1-0.4,1.4-1.3,1.1-2.3C30.7,9,30.4,9,30.2,9c-0.7-0.1-1.3,0.2-2,0.2
		c0.7-0.8,1.7-0.5,2.6-0.4c0.4,0,0.6,0.4,0.5,0.8c-0.1,0.6,0.3,1.4-0.5,1.8C30.1,11.7,29.5,12.1,28.7,12.1z"/>
	<path class="st43" d="M85.5,10.1c1.6,0.1,1.7,0.2,1.5,1.5c-0.2,0.1-0.4,0-0.4-0.1c-0.2-1-0.8-0.7-1.4-0.4c-0.3,0.1-0.6,0.3-0.9,0.5
		c-0.5,0.2-1,0.9-1.7,0.5c0.2-0.3,0.3-0.5,0.5-0.8C83.8,10.7,84.7,10.4,85.5,10.1z"/>
	<path class="st44" d="M88.2,18.1c1.8,0.5,2,0.5,2.2-0.7c-0.2-0.2-0.2-0.5,0-0.7c0-0.2,0-0.5,0-0.7c0.5,0.8,0.3,1.7,0.2,2.6
		c-0.1,0.7-0.7,0.5-1.1,0.5C88.8,19.1,88.2,19,88.2,18.1z"/>
	<path class="st45" d="M116.1,13.1c-0.1,0-0.2,0-0.3,0c-0.1-0.4,0.2-0.5,0.4-0.6c0.4-0.2,0.7-0.5,1.1-0.7c0.6-0.2,0.6-0.7,0.5-1.2
		c-0.1-0.4-0.5-0.5-0.8-0.5s-0.6,0-0.9-0.3c0.1-0.4,0.4-0.3,0.7-0.3c0.6-0.1,1.1-0.2,1.7,0c0.1,0.1,0.2,0.2,0.2,0.2
		c0.2,0.3-0.4,0.6,0,1C118.6,12.3,117.2,12.5,116.1,13.1z"/>
	<path class="st46" d="M116.1,9.7c0.4,0,0.7,0,1.1,0c0.5,0,1.1,0.1,1,0.8c0,0.6,0.2,1.4-0.9,1.4c0.2-0.4,0.1-0.8-0.3-1
		c-0.2-0.3-0.5-0.4-0.8-0.4c-0.2,0-0.4,0.1-0.6,0c0-0.1,0-0.2,0-0.3C115.7,10,115.9,9.9,116.1,9.7z"/>
	<path class="st1" d="M161.6,15.4c-0.5-0.1-0.8,0.3-1.2,0.5c-0.1-0.1-0.1-0.2-0.1-0.3c0-0.1,0-0.2,0.1-0.3c0.3-0.3,0.8-0.4,1.1-0.8
		c0.1-0.1,0.2-0.1,0.3-0.2c1-0.3,1.8-1,2.8-1.2c0.4-0.1,0.8-0.3,1.3-0.1c0.1,0.1,0.1,0.2,0.1,0.3C164.4,13.7,163,14.5,161.6,15.4z"
		/>
	<path class="st47" d="M16.9,15.2c0-0.1,0-0.2,0-0.3c0.2-0.3,0.5-0.5,0.7-0.7c0.1-0.1,0.2-0.1,0.3-0.2c0.3-0.1,0.6-0.2,0.8-0.4
		c0.1,0,0.2-0.1,0.3-0.1c1-0.1,1.9-0.3,2.9-0.5c0.1,0,0.2-0.1,0.3-0.1c0.4-0.1,0.7-0.3,1.1,0c0.2,0,0.3,0,0.5,0
		c-0.6,0.4-1.2,0.6-1.9,0.7C20.3,14,18.6,14.5,16.9,15.2z"/>
	<path class="st48" d="M166,13.3c0-0.1,0-0.2,0-0.2l0.1-0.1c0.5-0.3,1.1-0.5,1.6-0.7c0.1-0.1,0.3-0.2,0.4-0.2c0.5-0.3,1-0.4,1.5-0.6
		c0.1,0,0.2-0.1,0.3-0.1c0.4-0.1,0.8-0.3,1.2-0.4c0.2,0,0.3,0,0.4,0.1c0.1,0.1,0.2,0.1,0.2,0.2C169.8,11.9,168,13,166,13.3z"/>
	<path class="st49" d="M219.5,10.4c0.2,0,0.5,0,0.7,0c-1.7,0.9-3.4,1.8-5,2.6c0.1-0.7,0.8-0.9,1.2-1.1
		C217.4,11.3,218.5,10.9,219.5,10.4z"/>
	<path class="st50" d="M89.4,21.2c0,0.2,0,0.3,0,0.5c0,1.7,0.4,2,2.2,1.5c-0.1,1.3-1.1,0.6-1.6,0.7c-0.6,0.2-0.9-0.4-0.9-0.8
		C89.1,22.4,88.9,21.7,89.4,21.2z"/>
	<path class="st51" d="M65.9,20.5c0,0.2,0,0.5,0,0.7c0,0.5-0.2,1.2,0.5,1.3c0.6,0.1,1.5,0.4,1.9-0.6c0-0.1,0-0.1,0-0.2
		c0.2-0.3,0.4-0.5,0.8-0.4l0.1,0.1c-0.6,0.7-1.1,1.5-2.3,1.5c-1.2,0-1.5-0.4-1.3-1.5C65.7,21.1,65.5,20.7,65.9,20.5z"/>
	<path class="st52" d="M158.3,14c0.9,0,1.4-0.7,2.2-1c0.1,0.1,0.1,0.2,0.1,0.3c-0.2,0.8-1.1,0.8-1.6,1.3c-0.3,0.3-0.6,0.6-1.1,0.8
		c-0.3,0.1-0.6,0.2-0.9,0.3c-0.2,0-0.4,0.1-0.6-0.1c0-0.1,0-0.3,0.1-0.4c0.2-0.1,0.5-0.2,0.7-0.3C157.5,14.7,157.9,14.3,158.3,14
		L158.3,14z"/>
	<path class="st9" d="M206,16.4c0-0.1,0-0.2,0-0.2c1-0.4,1.5-1.4,2.6-1.7c0.2-0.1,0.4-0.2,0.7-0.1c0.1,0.1,0.2,0.2,0.2,0.3
		c-0.3,0.4-0.8,0.5-1.2,0.9c-0.4,0.2-0.7,0.6-1.1,0.8C206.8,16.5,206.4,16.7,206,16.4z"/>
	<path class="st53" d="M220,7.8c0,0.1,0,0.2,0,0.2c-0.4,0.2-1,0.1-1.2,0.7c-0.8,0.4-1.5,0.8-2.4,1c0-0.2,0-0.3,0-0.5
		C217.5,8.5,218.6,7.8,220,7.8z"/>
	<path class="st40" d="M132.8,16.1c0,0.1,0,0.2,0,0.3c-0.2,0.2-0.5,0.3-0.7,0.5c-1,0.2-1.4,1.2-2.4,1.4c-0.1-0.2-0.1-0.4,0-0.6
		s0.2-0.4,0.4-0.5c0.6-0.2,1.1-0.6,1.7-1C132.2,16.1,132.5,15.9,132.8,16.1z"/>
	<path class="st49" d="M211.6,15.9c-0.1,0-0.2,0-0.3,0c-0.1-0.2-0.1-0.3,0-0.5c0.9-0.1,1.1-1,1.9-1.3c0.4-0.2,0.7-0.6,1.3-0.5
		C213.6,14.5,212.4,15,211.6,15.9z"/>
	<path class="st54" d="M80.3,15.4c-0.3,0.8-1.3,0.5-1.7,1.2c-0.1,0-0.1,0-0.2,0c-0.3,0-0.6,0-1,0c-0.1-0.1-0.1-0.2-0.1-0.3
		c0.3-0.4,0.7-0.5,1.2-0.6c0.3-0.1,0.6-0.1,0.8-0.4c0.2-0.2,0.4-0.3,0.7-0.1C80.1,15.3,80.2,15.3,80.3,15.4z"/>
	<path class="st55" d="M209.4,14.5c-0.2,0-0.5,0-0.7,0c0.7-0.5,1.3-0.9,2-1.4c0,0.2,0,0.3,0,0.5C210.5,14.3,210.2,14.7,209.4,14.5z"
		/>
	<path class="st18" d="M190.2,12.1c0,0.1,0,0.2,0,0.3l-0.1,0.1c-0.9,0.6-1.5,1.6-2.7,1.6l-0.1-0.1C188.2,13.3,189,12.3,190.2,12.1z"
		/>
	<path class="st56" d="M182.5,17.3c0.3-0.5,0.8-0.6,1.2-1c0.4-0.1,0.6-0.8,1.2-0.5c0.1,1-0.7,1.1-1.3,1.4c-0.2,0.1-0.4,0.2-0.7,0.2
		C182.8,17.5,182.6,17.5,182.5,17.3z"/>
	<path class="st33" d="M44.8,15.5c-0.2,0-0.3,0-0.5,0c0.7-0.6,1.5-1,2.3-1.3l0.1,0.1c-0.1,0.9-1,0.9-1.6,1.3
		C45,15.6,44.9,15.5,44.8,15.5z"/>
	<path class="st18" d="M184.9,15.9c-0.5-0.1-0.7,0.5-1.2,0.5c0.4-0.6,1-1,1.7-1.2c0.1,0.1,0.1,0.2,0.1,0.3
		C185.4,15.7,185.3,16,184.9,15.9z"/>
	<path class="st55" d="M212.8,11.6c-0.3,0.8-1,0.9-1.7,0.9C211.6,12.2,212.1,11.8,212.8,11.6z"/>
	<path class="st18" d="M185.9,14.9c0.4-0.4,0.9-0.8,1.4-1l0.1,0.1c0.1,0.4-0.2,0.6-0.4,0.8c-0.2,0.1-0.4,0.3-0.6,0.3
		C186.1,15.1,186,15.1,185.9,14.9z"/>
	<path class="st51" d="M70,20.7c0.2,0,0.5,0,0.7,0c-0.4,0.4-0.9,0.6-1.4,0.7l-0.1-0.1c-0.1-0.1-0.1-0.2-0.1-0.3
		C69.3,20.8,69.6,20.5,70,20.7z"/>
	<path class="st2" d="M158.3,14c-0.2,0.6-0.6,0.8-1.2,0.9C157.4,14.5,157.7,14,158.3,14z"/>
	<path class="st25" d="M118.4,9.4c-0.6,0-1.1,0-1.7,0C117.3,9.1,117.9,9.1,118.4,9.4z"/>
	<path class="st57" d="M103.3,17.4c-0.3,0.5-0.6,0.7-1.2,0.7C102.5,17.7,102.8,17.4,103.3,17.4z"/>
	<path class="st56" d="M185.9,14.9c0.2,0,0.3,0,0.5,0c0.1,0.1,0.1,0.2,0,0.3c-0.3,0.3-0.6,0.4-1,0.1c0-0.1,0-0.2,0-0.2
		C185.5,15.1,185.7,15,185.9,14.9z"/>
	<path class="st58" d="M182.5,17.3c0.2,0,0.3,0,0.5,0c0.1,0.1,0.1,0.2,0,0.3c-0.3,0.2-0.5,0.5-1,0.4c0-0.2,0-0.3,0-0.5
		C182.2,17.5,182.3,17.4,182.5,17.3z"/>
	<path class="st25" d="M118.7,10.6c-0.4-0.3-0.1-0.6,0-1C119.1,10,118.6,10.3,118.7,10.6z"/>
	<path class="st59" d="M187.1,16.9c-0.5,0.5-1.2,0.7-1.9,1c-0.7,0.2-1.4,0.8-2.3,0.4c-0.2-0.1-0.3-0.2-0.2-0.4
		c0.4-0.2,0.8-0.4,1-0.8c1.2-0.3,1.8-1.4,2.8-1.9c0.9-0.5,1.7-1,2.5-1.7c0.1-0.1,0.2-0.1,0.3-0.1c0.5,0,0.9-0.1,1.2-0.6
		c0.2-0.4,0.4-0.2,0.6,0c0.2,0.4,0.6,0.2,0.8,0.5c0,0.2,0,0.3-0.1,0.4l0,0c-1.1,0.4-2.1,1.1-2.9,1.9c-0.1,0-0.1,0-0.2,0
		C188,15.9,187.7,16.5,187.1,16.9z"/>
	<path class="st60" d="M182.8,18.1c0.8,0.2,1.6-0.3,2.4-0.2c-0.2,0.2-0.3,0.3-0.5,0.5c-0.3,0.4-1,0.4-1.2,1
		c-0.1,0.2-0.3,0.3-0.4,0.5c-0.4,0.1-0.7,0.3-1,0.6c-0.6,0.1-1.1-0.2-1.3-0.8c0-0.5,0.3-0.7,0.7-0.9
		C181.8,18.4,182.2,18.1,182.8,18.1z"/>
	<path class="st61" d="M189,15.7c0.7-1,1.6-1.8,2.9-1.9c0,0.1,0,0.2,0,0.2C190.8,14.3,190,15.2,189,15.7z"/>
	<path class="st62" d="M180.8,19.5c0.3,0.5,0.7,0.7,1.2,0.7c0.1,0.1,0.1,0.1,0.1,0.2l-0.1,0.1c-0.1,0.1-0.3,0.2-0.4,0.2
		c-0.3,0-0.6,0.3-1,0c-0.1,0-0.2,0-0.2,0c-0.2-0.4-0.2-0.8,0-1.2l0,0C180.5,19.4,180.7,19.4,180.8,19.5z"/>
	<path class="st43" d="M183.4,19.3c0-0.7,0.1-0.8,1.2-1C184.6,19.1,184,19.2,183.4,19.3z"/>
	<path class="st62" d="M182.8,18.1c-0.3,0.4-0.8,0.6-1.2,0.7c-0.1-0.2-0.1-0.3,0-0.5c0.2-0.1,0.3-0.2,0.5-0.3c0.3-0.2,0.5-0.6,1-0.5
		c0.1,0.1,0.1,0.1,0.1,0.2s0,0.1-0.1,0.1C182.9,17.9,182.8,18,182.8,18.1z"/>
	<path class="st61" d="M187.1,16.9c0.6-0.4,0.6-1.6,1.7-1.2C188.4,16.3,187.7,16.6,187.1,16.9z"/>
	<path class="st58" d="M181.6,18.3c0,0.2,0,0.3,0,0.5c-0.3,0.2-0.7,0.3-0.7,0.7c-0.2,0-0.3,0-0.5,0C180.6,18.9,181,18.5,181.6,18.3z
		"/>
	<path class="st58" d="M180.6,20.7c0.3,0.1,0.6-0.4,1,0C181.3,21.1,180.9,21.3,180.6,20.7z"/>
	<path class="st58" d="M182,20.5c0-0.1,0-0.1,0-0.2c0.2-0.4,0.5-0.5,1-0.5C182.7,20,182.3,20.2,182,20.5z"/>
	<path class="st58" d="M180.4,19.5c0,0.4,0,0.8,0,1.2C180,20.3,180,19.9,180.4,19.5z"/>
	<path class="st63" d="M74.5,18.1c-0.2,0.3-0.4,0.2-0.7,0.3c-0.3,0.2-0.7,0.5-1,0.7l0,0c-0.6,0.3-1.2,0.4-1.7,0.7l0,0
		c-0.3,0.2-0.7,0.3-1,0.4c-0.5-0.4-0.4,0.2-0.5,0.4c-0.3,0.4-0.8,0.4-1.1,0.8c-0.1,0.1-0.1,0.2-0.2,0.2c-0.6,0.2-1.1-0.1-1.7-0.1
		l0,0c-0.4-0.8,0.6-1,0.7-1.5l0,0c0.8-0.3,1.4-0.9,2.2-1.2c0.1-0.1,0.1-0.2,0.2-0.2c0.4-0.1,0.8-0.2,1.2-0.3
		c0.4-0.3,0.9-0.6,1.2-0.9c0.9-0.3,1.8-0.7,2.5-1.3c0.4-0.3,0.8-0.4,1.3-0.3c0.3,0-0.1,0.7,0.4,0.6c0.3,0,0.6,0.1,0.8,0.4
		c-0.2,0.1-0.4,0.3-0.5,0.4C75.9,17.4,75.3,17.8,74.5,18.1z"/>
	<path class="st60" d="M85.1,10.9c1.1-0.9,1.5-0.1,1.9,0.7c-0.3,0.3-0.6,0.6-0.9,0.9c-0.5,0.2-0.9,0.4-1.4,0.5
		c-0.3,0.2-0.7,0.3-1.1,0.4c-0.6,0.2-1.3,0.2-1.9,0.6c-0.5-0.1-0.7-0.5-1-0.9c0.3-0.9,1.5-0.4,2-1.2c0.7,0,1-0.7,1.7-0.7
		C84.6,11.3,84.8,11,85.1,10.9z"/>
	<path class="st64" d="M80.7,13.3c0.5,0,0.7,0.5,1,0.7c0.1,0.1,0.1,0.1,0.1,0.2s0,0.1,0,0.1c-0.2,0.3-0.6,0.4-0.9,0.5
		c-0.4,0-0.6,0.3-0.8,0.6c-0.2,0-0.3-0.2-0.5,0c-0.3,0.2-0.7,0.2-1,0.5c-0.4,0.2-0.8,0.3-1.2,0.5c-0.3,0.2-0.5-0.1-0.7-0.3
		c-0.1-0.2-0.4-0.4-0.3-0.7c0.1-0.1,0.2-0.1,0.2-0.2c0.3-0.2,0.7-0.2,1-0.5c0.2-0.3,0.5-0.2,0.7-0.2c0.7-0.2,1.1-0.6,1.7-1
		C80.2,13.2,80.5,13.3,80.7,13.3z"/>
	<path class="st65" d="M80,13.5c-0.5,0.4-0.8,1.2-1.7,1C78.8,14,79.3,13.6,80,13.5z"/>
	<path class="st66" d="M72.1,17.3c-0.2,0.6-0.6,0.9-1.2,0.9C71.1,17.7,71.6,17.5,72.1,17.3z"/>
	<path class="st65" d="M76.4,15.4c0.2,0.2,0.3,0.3,0.5,0.5c-0.2,0.3-0.5,0.2-0.7,0.5c-0.5-0.1-0.1-0.5-0.2-0.7
		C76.1,15.6,76.3,15.5,76.4,15.4z"/>
	<path class="st65" d="M77.6,14.7c-0.2,0.5-0.6,0.5-1,0.5C76.9,14.9,77.3,14.8,77.6,14.7z"/>
	<path class="st67" d="M153.5,19.6c-0.1,0.1-0.2,0.1-0.2,0.2c-0.4,0.1-0.4-0.2-0.5-0.4c-0.1-0.3-0.1-0.7-0.5-0.8
		c-0.1-0.1-0.3-0.2-0.2-0.4c0.3-0.2,0.6-0.3,0.9-0.3c0.3-0.2,0.7-0.5,1-0.6c0.1,0,0.1,0,0.2,0c0.2-0.2,0.4-0.4,0.7-0.4
		c0.6,0.2,1.2-0.3,1.8,0c0.1,0.2,0.2,0.4,0.1,0.7c0,0.3-0.3,0.4-0.4,0.6c-0.3,0.2-0.5,0.4-0.8,0.7c-0.2,0.1-0.4,0.1-0.6,0.1
		c-0.3,0-0.5,0.1-0.7,0.2c-0.1,0.1-0.2,0.1-0.3,0.1C153.8,19,153.7,19.3,153.5,19.6z"/>
	<path class="st68" d="M156.4,17.9c0.1-0.2,0.1-0.3,0.2-0.5c0.9-0.8,2-1.4,3.1-1.9c0.3-0.1,0.5-0.2,0.8,0c0,0.1,0,0.3,0,0.4
		C159.1,16.5,158,17.7,156.4,17.9z"/>
	<path class="st54" d="M152,18.1c0.1,0.1,0.2,0.2,0.2,0.2c0.5,0.5,0.3,1.2,0.7,1.7c-0.5,0.4-1.1,0.4-1.4-0.2
		C151.4,19.2,151.2,18.5,152,18.1z"/>
	<path class="st54" d="M154.9,16.9c-0.2,0.1-0.4,0.3-0.7,0.2c0.5-0.8,1.2-1.2,2.1-1.4c0.2-0.1,0.4-0.1,0.5-0.2
		c0.1,0.1,0.1,0.3,0.1,0.5c-0.1,0.1-0.2,0.2-0.3,0.2C156.1,16.3,155.5,16.7,154.9,16.9z"/>
	<path class="st66" d="M153,20c-0.9-0.3-0.7-1-0.7-1.7c1.2-0.1,0.4,1.1,1,1.4C153.2,19.9,153.1,19.9,153,20z"/>
	<path class="st68" d="M155.2,18.3c0.2,0.1,0.3,0.1,0.5,0.2c-0.4,0.5-1,0.8-1.7,0.8c-0.2-0.3,0.1-0.4,0.2-0.5l0,0
		C154.5,18.6,154.8,18.5,155.2,18.3z"/>
	<path class="st54" d="M154,17.1c-0.2,0.4-0.5,0.7-1,0.6C153.1,17.2,153.4,17.1,154,17.1z"/>
	<path class="st66" d="M154.2,18.8c-0.1,0.2-0.2,0.3-0.2,0.5c-0.2,0.1-0.3,0.2-0.5,0.3C153.4,19,153.6,18.7,154.2,18.8z"/>
	<path class="st69" d="M137.8,13.5c-0.5,0.1-1.1,0.2-1.6,0.3c-0.1-0.6,0.5-0.6,0.9-0.8c-0.9,0.1-1.7,0.3-2.3-0.4
		c2.5-1.1,5-2.2,7.4-3.4c0.2-0.1,0.4-0.2,0.7-0.3c0.8-0.3,1.4-0.3,1.2,0.9c-0.1,0.3,0,0.5,0,0.8C141.9,11.4,139.8,12.3,137.8,13.5z"
		/>
	<path class="st63" d="M134.8,12.6c0.8,0.1,1.5,0.4,2.3,0c0.2-0.1,0.4-0.3,0.5,0.1c0.1,0.2,0,0.5-0.3,0.6c-0.4,0.1-0.9,0.2-1.1,0.5
		c-0.8,0.7-1.8,1.1-2.6,1.7c-0.4,0.1-0.5,0.4-0.7,0.7l0,0c-0.3,0.1-0.6,0.2-0.9,0.3c-0.5,0-0.8,0.6-1.4,0.6c-0.4-0.3-0.2-0.6,0-0.9
		c-0.5,0.2-0.9,0.7-1.5,0.6c-0.1-0.1-0.1-0.1,0-0.2c0-0.1,0-0.1,0.1-0.1c0.8-0.6,1.6-1.1,2.4-1.7c0.3-0.2,0.7-0.1,1-0.5l0,0
		c0.7-0.3,1.4-0.6,1.9-1.2C134.4,12.9,134.6,12.7,134.8,12.6z"/>
	<path class="st69" d="M134.3,13c-0.3,1-1.1,1.2-1.9,1.2c0-0.1,0-0.2,0-0.2C133.1,13.8,133.5,13.1,134.3,13z"/>
	<path class="st59" d="M209.4,14.5c0.6-0.1,0.9-0.5,1.2-1c1.4-0.3,2.2-1.5,3.3-2.2c0.8-0.5,1.6-1.1,2.4-1.7c0.7-0.5,1.4-1,2.4-1
		c0.5,0,1-0.4,1.5-0.1c-0.3,1-0.6,1.8-2,1.5c-0.7-0.1-1.1,0.7-1.6,1.2c-0.4,0.4-0.4-0.2-0.6-0.2l0,0c-0.8,1.4-2.3,1.9-3.6,2.7
		c-0.7,0.4-1.1,0.9-1.4,1.6c-0.7,0.7-1.6,1.2-2.6,1.6c-0.1,0-0.2,0-0.3-0.1c-0.2-0.6,0.5-1,0.5-1.5c0.1-0.4,0.5-0.5,0.7-0.7
		C209.4,14.6,209.4,14.5,209.4,14.5z"/>
	<path class="st70" d="M208.5,16.9c0.8-0.5,1.6-1.2,2.6-1.5c0.1,0,0.2,0,0.3,0c0,0.2,0,0.3,0,0.5c-1.6,0.6-2.8,1.9-4.3,2.8
		c-0.2,0.1-0.3,0.3-0.5,0.3c-0.6,0.3-1.5,0.6-1.8-0.1c-0.3-0.6-0.4-1.6,0.5-2.1c0.2-0.1,0.4-0.2,0.5-0.3l0.1,0.1
		c0.2,0.4-0.2,0.7-0.3,1.1c-0.1,0.6,0.1,0.8,0.7,0.5c0.2-0.2,0.4-0.3,0.7-0.5C207.6,17.7,207.9,17.2,208.5,16.9z"/>
	<path class="st63" d="M23.9,10.7c0.9-0.2,1.7-0.3,2.6-0.5c0.5-0.4,1.3,0.3,1.7-0.5c0.2-0.3,0.5-0.2,0.7-0.2c1.1,0.8,1.1,1.2,0,1.9
		l0,0c-0.7,0.2-1.3,0.4-1.9,0.7c-0.2,0-0.3,0-0.5,0c-0.3,0.2-0.6,0.1-0.9,0.1c-0.2,0-0.4,0.1-0.6,0.1c-0.5,0-1,0.9-1.5-0.1
		c0-0.4,0.1-0.8,0.2-1.3C23.7,10.8,23.8,10.7,23.9,10.7z"/>
	<path class="st65" d="M17.2,13c0.8-1.2,2.2-1.2,3.4-1.4c0.5-0.1,1-0.1,1.4-0.2c0.1,0.1,0.1,0.3,0.1,0.5c-0.3,0.3-0.7,0.2-1.3,0.2
		c0.6,0.1,0.9,0.3,1.3,0.5c0.1,0.1,0.2,0.1,0.3,0.2c0.1,0.2,0.1,0.3-0.1,0.5l0,0c-1.1,0.2-2.2,0.2-3.3,0.5l0,0
		c-0.3,0.2-0.7,0.2-1,0.5l0,0c-0.6,0.2-1.1,0.5-1.7,0.7c-0.1,0-0.2,0-0.2,0c-0.4-0.1-0.8-0.2-0.3-0.7C16.2,13.9,16.5,13.3,17.2,13z"
		/>
	<path class="st71" d="M22,11.8c0-0.1,0-0.3,0-0.4c0.2-0.1,0.5-0.2,0.7-0.3c0.4-0.2,0.7-0.5,1.2-0.2c0.2,0.5,0.1,0.8-0.2,1.2
		c-0.3,0.2,0,0.5-0.2,0.7l0,0c-0.4,0.2-0.8,0.2-1.2,0c-0.1,0-0.2,0-0.2,0C21.8,12.5,22.3,12.2,22,11.8z"/>
	<path class="st72" d="M23.4,12.8c0.2-0.3-0.5-0.4-0.2-0.8c0.1-0.1,0.3,0,0.4,0.1c0.5,1,1-0.1,1.4,0c0.2,0,0.4-0.1,0.5-0.2
		c0.3,0.1,0.7,0.2,1,0.3C25.6,12.8,24.5,12.7,23.4,12.8z"/>
	<path class="st71" d="M28.9,11.4c0.8-0.6,0.6-1.3,0-1.9c0.6,0,1,0,1,0.9C30,11.2,29.6,11.4,28.9,11.4z"/>
	<path class="st71" d="M27,12.1c0.5-0.8,1.2-0.7,1.9-0.7C28.3,11.7,27.8,12.2,27,12.1z"/>
	<path class="st71" d="M28.2,9.7c0,0.6-0.1,1.1-0.9,0.6c-0.2-0.1-0.5-0.1-0.8-0.1C27,9.8,27.7,9.9,28.2,9.7z"/>
	<path class="st72" d="M22.2,12.8c0.4-0.1,0.8-0.1,1.2,0c0,0.1,0,0.1,0,0.2c-0.4,0.1-0.8,0.2-1.2,0.3C22.2,13.1,22.2,13,22.2,12.8z"
		/>
	<path class="st73" d="M23.9,10.9c-0.4,0.1-0.8,0.2-1.2,0.2c0.3-0.5,0.8-0.5,1.2-0.4C23.9,10.7,23.9,10.8,23.9,10.9z"/>
	<path class="st74" d="M53.6,11.8c0.6-0.2,1.1-0.5,1.7-0.7c1.1,0,2-0.8,3.1-0.7c-0.3,0.6-0.7,1.1-1.2,1.5c-0.6,0.6,0.3,0.4,0.2,0.6
		c-0.5,0.4-1.1,0.2-1.7,0.5c-0.3,0.2-0.8,0-1,0.5c-0.1,0-0.2,0-0.2,0l-0.1-0.1c-0.3-0.4-1-0.7-1-1.3C53.5,12,53.6,11.9,53.6,11.8z"
		/>
	<path class="st75" d="M53.6,11.8c0,0.1,0,0.2,0,0.2c-0.5,1-1.6,0.9-2.5,1.4c0,0.2,0,0.2,0.6,0.2c0.5-0.1,1.1-0.2,1.6,0.2l0.1,0.1
		c-0.5,0.3-1.1,0.3-1.5,0.7c-0.3,0-0.6,0-1,0c-0.7-0.5-1.7-0.4-2.4-0.7C50.2,13.1,51.8,12.2,53.6,11.8z"/>
	<path class="st76" d="M57.5,12.6c-0.3,0-0.6,0-0.9-0.1c-0.2-0.1-0.3-0.4-0.2-0.5c1-0.1,1-1.6,2-1.6c0.4,0.1-0.1,0.5,0.2,0.7
		c0.2,0.2,0.1,0.5-0.1,0.5c-0.6,0,0.1,0.4-0.1,0.4C58.1,12.2,57.8,12.4,57.5,12.6z"/>
	<path class="st75" d="M54.6,13.5c-0.3,0.3-0.8,0.4-1.2,0.5l0,0c-0.2-0.3-0.3-0.7,0.1-0.9C53.9,12.9,54.3,13.2,54.6,13.5L54.6,13.5z
		"/>
	<path class="st74" d="M58.4,12.1c-0.2-0.2-0.9-0.5,0.1-0.6c0.1,0,0.1-0.3,0.2-0.4C59.1,11.6,58.8,11.8,58.4,12.1z"/>
	<path class="st75" d="M54.8,13.5c-0.1-1,0.6-0.3,1-0.5C55.5,13.2,55.2,13.3,54.8,13.5z"/>
	<path class="st77" d="M100.2,21.7c-0.1,0-0.2,0-0.2,0c-0.4,0.1-0.6-0.2-1-0.4c-0.2-0.4,0.1-0.7,0.3-1c0.1-0.1,0.2-0.1,0.3-0.2
		c0.7-0.5,1.6-0.7,2.3-1.3c0.3-0.1,0.6-0.2,0.9-0.3c0.9-0.1,1.5-0.6,1.9-1.4c0.2,0,0.3,0,0.5,0c0.3-0.1,0.5-0.3,0.7-0.5l0,0
		c0.3-0.4,0.8-0.4,1.1-0.8c0.4,0.3,1.1,0.5,0.9,1.3c-0.6,0.6-1.4,1-2.2,1.4c-0.9,0.2-1.5,1-2.4,1.4c-0.3,0.2-0.6,0.3-0.9,0.5
		c-0.3,0.1-0.7,0-0.7,0.5c-0.2,0.3-0.4,0.5-0.7,0.5C100.6,21.2,100.3,21.2,100.2,21.7z"/>
	<path class="st60" d="M107.9,17.1c-0.1-0.6-0.8-0.7-0.9-1.2c-0.1,0-0.1-0.1-0.1-0.2s0-0.1,0.1-0.1c0.9-0.4,1.7-0.8,2.6-1.2
		c0.3-0.2,0.7-0.1,1-0.5c0.2-0.2,0.5-0.5,0.7-0.7c0.9,0.1,1.2-1,2.1-1.1c0.6,0.5,0.3,1-0.2,1.3c-0.3,0.2-0.5,0.4-0.3,0.7
		c-0.8,1.2-2.2,1.7-3.4,2.4c-0.3,0.1-0.6,0.2-0.8,0.4C108.3,17.1,108.1,17.1,107.9,17.1z"/>
	<path class="st78" d="M104.8,17.2c-0.2,1.1-0.7,2-1.9,1.4C103.3,17.9,104.1,17.6,104.8,17.2z"/>
	<path class="st60" d="M115.6,10.4c0.2-0.1,0.3-0.1,0.5-0.2c0.3,0.1,0.5,0.4,0.3,0.6c-0.6,0.5-1.1,1.5-2.2,1.1
		c-0.2-0.3,0.1-0.4,0.2-0.5C114.8,11,115.2,10.7,115.6,10.4z"/>
	<path class="st46" d="M114.3,11.4c-0.1,0.2-0.2,0.3-0.2,0.5c-0.2,0.3-0.4,0.4-0.7,0.5c-0.8,0.1-1.1,1.4-2.2,1
		C112.4,12.8,113.1,11.6,114.3,11.4z"/>
	<path class="st20" d="M101.9,18.8c-0.5,0.9-1.6,1-2.4,1.4c-0.1-0.1-0.1-0.1-0.1-0.2s0-0.1,0.1-0.1c0.7-0.4,1.4-0.8,2.2-1.2
		C101.7,18.8,101.8,18.8,101.9,18.8z"/>
	<path class="st78" d="M106.9,15.7c0,0.1,0,0.2,0,0.2c-0.1,0.6-0.7,0.5-1,0.7C106,16.1,106.7,16.1,106.9,15.7z"/>
	<path class="st79" d="M110.5,14c-0.1,0.7-0.6,0.5-1,0.5C109.7,14.1,110.1,14,110.5,14z"/>
	<path class="st78" d="M106,16.6c-0.2,0.2-0.1,0.9-0.7,0.5C105.4,16.8,105.6,16.6,106,16.6z"/>
	<path class="st69" d="M192.6,11.6c0.1-0.1,0.2-0.1,0.2-0.2c0.3-0.2,0.7,0.1,1-0.2l0,0c0.2-0.2,0.5-0.2,0.7-0.4c1-0.1,1.8-1,2.9-0.8
		c0.1-0.1,0.4-0.1,0.4-0.2c0.2-0.6,0.7-0.5,1.2-0.5c0.3,0,0.4,0.3,0.3,0.5c-0.2,0.5,0.3,1.3-0.7,1.4c-0.2,0.2-0.6-0.1-0.7,0.2
		c-0.5,0.2-0.9,0.3-1.4,0.5c-0.6,0.1-0.2-0.5-0.4-0.6c0-0.2-0.2,0.1,0,0c0.1,0,0.1,0,0.1,0.1c0,0.2,0,0.7-0.2,0.6
		c-0.9-0.4-1.7,0.7-2.6,0.3C193,12,192.5,12.1,192.6,11.6z"/>
	<path class="st61" d="M192.6,11.6c1.2,0.5,3.2,0.2,3.5-0.5c0.2,0.2,0,0.6,0.3,0.7c-1.3,0.5-2.5,1.2-3.9,1.5
		c-0.2,0.1-0.5,0.3-0.7,0.4c0-0.2,0-0.3,0-0.5s0.2-0.3,0.3-0.5c-0.5-0.5-0.8,0.6-1.3,0.2v-0.1c0-0.1-0.1-0.1-0.1-0.1
		c-0.2,1-0.8,0.9-1.5,0.7c0-0.7,0.6-0.8,1-1.2l0,0C191,12.1,191.8,11.8,192.6,11.6z"/>
	<path class="st61" d="M197.9,11.3c0-0.9,0.6,0.1,0.7-0.2C198.4,11.4,198.1,11.4,197.9,11.3z"/>
	<path class="st71" d="M127.8,19.3c-0.2,0.7-0.8,0.5-1.1,0.4c-0.6-0.2-0.2-0.7,0-1c0.4-0.6,0.8-1.3,1.6-1.6l0.1,0.1
		c0.1,0.5,0.1,0.9-0.3,1.2C127.6,18.6,127.4,18.9,127.8,19.3z"/>
	<path class="st80" d="M127.8,19.3c-0.2-0.3-0.8,0.3-0.8-0.3c0-0.5,0.6-0.6,1.1-0.7c0.1-0.1,0.3-0.2,0.5-0.1c0.2,0.5-0.4,0.6-0.5,1
		C128,19.3,127.9,19.3,127.8,19.3z"/>
	<path class="st71" d="M128,19.3c-0.1-0.4,0.2-0.7,0.5-0.9c0.3-0.3,0.7-0.6,1.1-0.6c0.1,0,0.2,0.1,0.3,0.2c-0.1,0.2-0.2,0.3-0.2,0.5
		c-0.1,0.1-0.2,0.2-0.2,0.2C128.8,18.4,128.5,19.1,128,19.3z"/>
	<path class="st71" d="M129,16.4c0,0.1,0,0.2,0,0.2c0.2,0.7-0.2,0.7-0.7,0.5l0,0C128.3,16.7,128.7,16.6,129,16.4z"/>
	<path class="st69" d="M132.4,14.2c-0.1,0.7-0.6,0.4-1,0.5C131.6,14.4,132,14.3,132.4,14.2z"/>
	<path class="st81" d="M108.6,17.1c0.8-0.9,1.9-1.2,2.8-1.9c0.4-0.3,1-0.5,1.3-1c1.1-1.3,2.3-2.3,4.1-2.5c0.2,0.5-0.3,0.5-0.5,0.8
		c-0.2,0.1-0.3,0.3-0.5,0.4c-1.5,0.6-2.7,1.7-4,2.6c-0.9,0.6-1.9,1.1-2.9,1.6C108.8,17.1,108.7,17.1,108.6,17.1z"/>
	<path class="st82" d="M99,21.2c0.4-0.1,0.7,0.2,1,0.5c-0.1,0.3-0.6,0.3-0.5,0.7c-0.2,0.2-0.3,0.3-0.5,0.5c-0.3,0.1-0.6,0.3-0.9,0.3
		c-0.1,0-0.2,0-0.3,0c-0.4-0.2-0.7-0.5-0.7-1.1c0-0.2,0.1-0.3,0.2-0.5c0.2-0.3,0.5-0.5,0.9-0.5C98.4,21.1,98.7,21,99,21.2z"/>
	<path class="st83" d="M103.3,20c0.7-0.6,1.2-1.6,2.4-1.4C105.1,19.4,104.3,19.8,103.3,20z"/>
	<path class="st82" d="M101.6,21c-0.2,0-0.5,0.1-0.6-0.2c-0.1-0.3,0.2-0.3,0.4-0.3c0.3,0,0.6-0.4,0.9,0C102.2,20.8,102,21,101.6,21z
		"/>
	<path class="st82" d="M100.2,21.7c0.1-0.3-0.4-0.9,0.2-1c0.5-0.1,0.1,0.6,0.5,0.8C100.7,21.6,100.5,21.9,100.2,21.7z"/>
	<path class="st84" d="M223.3,18.3c0.3,1-0.4,0.8-0.8,0.9c-0.2,0.1-0.5,0-0.4-0.2C222.2,18.3,223,18.8,223.3,18.3z"/>
	<path class="st85" d="M32.3,18.5c0.2-0.1,0.4-0.1,0.4,0.3s-0.2,0.5-0.5,0.5s-0.7,0.1-0.7-0.4C31.5,18.5,32,18.6,32.3,18.5z"/>
	<path class="st70" d="M206,16.4c0.4-0.1,0.8-0.2,1.2-0.2c-0.2,0.9-0.8,0.8-1.4,0.5l-0.1-0.1C205.9,16.5,205.9,16.5,206,16.4z"/>
	<path class="st86" d="M61.6,19.7c-0.3,0-0.3-0.2-0.4-0.4c0-0.1,0-0.3,0.2-0.3c0.3-0.1,0.4,0.2,0.5,0.4
		C61.9,19.5,61.8,19.6,61.6,19.7z"/>
	<path class="st64" d="M168.1,12.1c-0.1,0.1-0.2,0.2-0.2,0.2c-0.7,0.1-1.3,0.4-1.9,0.7l0,0c-1.1,0.2-2.2,0.5-3.1,1.1
		c-0.4,0.3-0.8,0.3-1.2,0.3c-0.2-0.5,0-1.1-0.8-1.3c1.9-1.5,4.1-2.1,6.4-2.7c0.1,0,0.2,0,0.3-0.1c0.5-0.4,1.1-0.6,1.7-0.7
		c0.2-0.2,0.4-0.2,0.6-0.1c0.1,0.1,0.2,0.1,0.2,0.2S170,9.8,170,9.8c0.1,0.1,0.1-0.1,0.2,0c0.3,0.2,0.3,0.4,0.2,0.7
		c-0.1,0.4-0.5,0.5-0.7,0.8l0,0c-0.5,0.2-1,0.5-1.6,0.4C167.3,11.6,168.7,12.1,168.1,12.1z"/>
	<path class="st87" d="M167.6,10.4c-1.7,0.6-3.4,1.2-5,1.9c-0.6,0.2-1.1,0.7-1.7,1l-0.1,0.1c-0.1,0-0.3,0-0.4-0.1c0-0.1,0-0.2,0-0.2
		c1.9-1.3,4.1-1.9,6.2-2.7C167,10.4,167.3,10.4,167.6,10.4z"/>
	<path class="st87" d="M170,9.7c-0.2,0-0.5,0-0.7,0c0.3-0.8,1.2-0.5,1.8-0.9c0.4-0.3,1.1-0.2,1.4,0.3c0.3,0.4-0.2,0.9-0.4,1.2
		c-0.2,0.2-0.4,0.4-0.6,0.6c-0.2,0-0.3,0-0.5,0c0,0,0-0.1-0.1-0.1c0.2-0.4,0.4-0.8,0.6-1.2C171,9.3,170.5,9.8,170,9.7z"/>
	<path class="st60" d="M17.2,13c-0.5,0.4-0.6,1.3-1.4,1.5c-0.2,0,0.2,0.3,0.2,0.4c-0.8,0.3-1.5,0.9-2.4,0.7
		c-0.6,0.3-1.2,0.3-1.7,0.7l0,0c-0.5,0-1.1-0.4-1.4,0.3c-1.3,0.7-1.7,0.5-2-1c0.2,0,0.5,0,0.7,0c0.5,0.1,0.7-0.3,1-0.5
		c0.4-0.2,0.8-0.3,1.2-0.5c0.5-0.5,1.3,0.2,1.8-0.4c0.3-0.5,1.1-0.3,1.4-0.8c0.2,0,0.3,0,0.5,0C15.7,13.4,16.4,12.8,17.2,13z"/>
	<path class="st88" d="M8.5,15.7c0.5,0.7,0.7,2,1.9,0.7c0.3-0.1,0.4,0,0.5,0.3c-0.7,0.9-1.7,0.8-2.7,0.9C8.4,17,8,16.3,8.5,15.7z"/>
	<path class="st41" d="M14.5,13.6c-0.1,0.7-1,0.4-1.2,0.9c-0.6,0.4-1.1,0.2-1.7,0C12.6,14.2,13.6,13.9,14.5,13.6z"/>
	<path class="st89" d="M11.6,14.5c0.6,0,1.1,0,1.7,0c-0.1,0.5-0.4,0.5-0.8,0.4c-0.4-0.1-0.8-0.1-1.2-0.2
		C11.5,14.6,11.5,14.6,11.6,14.5z"/>
	<path class="st89" d="M10.2,15.2c-0.2,0.5-0.4,0.9-1,0.5C9.6,15.6,9.8,15.2,10.2,15.2z"/>
	<path class="st90" d="M48.6,14c0.9-0.1,1.9-0.3,2.4,0.7c-1.2,1.1-2.8,1.4-4.2,1.9c-0.3,0.1-0.5,0.1-0.6,0.5c-0.6,0.3-1.1-0.2-1.7,0
		c-0.4,0.1-0.8-0.4-0.3-0.9c0.2-0.2,0.4-0.4,0.6-0.6l0,0c0.5-0.3,1.2-0.4,1.7-0.6c0.3-0.2,0.7-0.3,1-0.6c0.1-0.1,0.1-0.1,0.2-0.2
		C48,14.3,48.3,14.2,48.6,14z"/>
	<path class="st91" d="M44.8,15.7c-0.1,0.2-0.3,0.5-0.4,0.7c-0.4,0.5,0.1,0.5,0.4,0.7c0.5-0.9,1,0.3,1.5,0.1c-1.6,0.6-3,1.5-4.8,1.7
		c0-0.1,0-0.1-0.1-0.2c0-0.1,0.1-0.2,0.2-0.3c0.3-0.3,1.1,0,0.8-0.8c0.5-0.2,1.1-0.3,1-1.1C43.8,16.2,44.3,15.9,44.8,15.7z"/>
	<path class="st91" d="M41.4,19.1c-0.8,0.2-1.6,0.5-2.4,0.7c-0.1-0.2,0-0.4-0.1-0.6c-0.2-0.9-0.1-1.5,1-1.1c0.2,0.1,0.4,0,0.6-0.1
		c0.5,0,0.7,0.3,0.8,0.7l0,0C41.4,18.9,41.4,19,41.4,19.1z"/>
	<path class="st10" d="M97.4,21.7c0,0.1,0,0.3,0,0.4c-0.1,0.6-0.1,1.1,0.7,0.9l0,0c0.3-0.1,0.5,0,0.7,0.3c-0.6,0.3-1.3,0.9-1.8,0.2
		c-0.5-0.7-0.3-1.5,0.4-2.1C97.4,21.5,97.4,21.6,97.4,21.7L97.4,21.7z"/>
	<path class="st70" d="M97.4,21.7c0-0.1,0-0.2,0-0.3c0.2-0.5,0.7-0.7,1.2-1c0.1,0,0.1,0,0.2,0.1c0.4,0.5-0.1,0.7-0.4,0.9
		C97.9,21.4,97.6,21.5,97.4,21.7z"/>
	<path class="st70" d="M98.7,23.4c-0.2-0.1-0.5-0.2-0.7-0.3c0.3-0.3,0.7-0.2,1-0.2C98.9,23.1,98.8,23.2,98.7,23.4z"/>
	<path class="st70" d="M99.5,20c0,0.1,0,0.2,0,0.3l0,0c-0.3,0.2-0.5,0.5-0.9,0.2l0,0C98.7,20.1,99.1,20,99.5,20z"/>
	<path class="st92" d="M40.4,18.3c-0.4,0.1-0.7,0.3-1.1,0c-0.3-0.2-0.5,0-0.2,0.4c0.3,0.5,0.1,0.8-0.1,1.1l0,0
		c-0.2,0.1-0.5,0.3-0.7,0.4c-0.5,0.1-1,0.5-1.2-0.3s0.1-1.3,0.8-1.4c0,0-0.2-0.2-0.1-0.3c0.1,0,0.1,0,0.2-0.1
		c1.8-0.6,3.5-1.1,5.3-1.7c0.6,0.1,0.3,0.4,0.2,0.7c-0.2,0.6-0.7,0.5-1.2,0.5C41.6,17.6,41.2,18.3,40.4,18.3z"/>
	<path class="st93" d="M37.8,18.1c0.3,0.1,0.5,0.2,1,0.4c-0.5,0-0.9,0-1.2,0.1c-0.6,0.3-0.3,0.9-0.2,1.3c0,0.4,0.5,0.1,0.8,0
		s0.6-0.2,0.9-0.2c-0.2,0.4-0.5,0.5-0.8,0.6c-0.8,0.2-1.8,0.5-2.1-0.3c-0.2-0.5,0.2-1.7,1.3-1.9C37.5,18.2,37.7,18.1,37.8,18.1z"/>
	<path class="st63" d="M90.4,16.6c0,0.2,0,0.5,0,0.7c-0.1,0.1-0.3,0.2-0.4,0.3c-0.7,0.4-1.3,0.1-1.7-0.3c-0.4-0.4,0.3-1,0.2-1.6
		c0.5,0.3,1.3-0.1,1.7,0.6C90.2,16.5,90.3,16.5,90.4,16.6z"/>
	<path class="st30" d="M174.8,18.5c0.3-0.2,0.5,0.2,0.6,0.1c1.6-1,0.6,0.6,0.7,0.9c0.1,0.3-0.4,0.3-0.5,0.1
		C175.4,19.2,174.9,19.1,174.8,18.5z"/>
	<path class="st66" d="M66.6,21.4c0.6-0.7,1.1,0.2,1.7,0c0.2,0.2,0.1,0.3,0,0.5l0,0c-0.5,0-1,0-1.5,0.1c-0.2,0-0.4,0.2-0.5-0.1
		C66.2,21.8,66.5,21.6,66.6,21.4z"/>
	<path class="st66" d="M69.5,18.8c-0.6,0.6-1.2,1.2-2.2,1.2C67.9,19.3,68.5,18.8,69.5,18.8z"/>
	<path class="st66" d="M67.3,20c0.2,0.7-0.8,0.8-0.7,1.4C66,20.5,66.7,20.3,67.3,20z"/>
	<path class="st40" d="M121.8,11.9c0,0.3,0,0.6,0,0.8c0.1,1.5-1.2,0.9-1.9,1.1c-0.6,0.1-0.5-0.7-0.5-1.2c-0.1-0.8,0.3-1.2,1.2-1
		C121,11.6,121.5,11.2,121.8,11.9L121.8,11.9z"/>
	<path class="st75" d="M74.5,18.1c0.7-0.4,1.2-1,2.1-1C76,17.6,75.4,18,74.5,18.1z"/>
	<path class="st94" d="M68.3,21.2c0.2-0.6,0.8-0.4,1.2-0.7c0.1-0.1,0.2-0.1,0.4-0.1l0.1,0.1c0,0.1,0,0.2,0,0.2
		c-0.3,0.1-0.5,0.3-0.8,0.4C68.9,21.4,68.6,21.4,68.3,21.2z"/>
	<path class="st94" d="M71.2,19.8c0.4-0.6,1.1-0.6,1.7-0.7C72.4,19.5,71.8,19.8,71.2,19.8z"/>
	<path class="st95" d="M76.2,16.4c0-0.5,0.4-0.5,0.7-0.5c0.1,0.2,0.3,0.4,0.5,0.5c0,0.1,0,0.2,0,0.2c-0.1,0-0.2,0-0.2,0
		C76.9,16.6,76.5,16.5,76.2,16.4z"/>
	<path class="st94" d="M70,20c0.4-0.1,0.8-0.2,1.2-0.2c-0.2,0.5-0.8,0.5-1.2,0.7l0,0C69.8,20.3,69.8,20.2,70,20z"/>
	<path class="st94" d="M72.8,19c0.2-0.4,0.5-0.7,1-0.7C73.7,18.9,73.3,19,72.8,19z"/>
	<path class="st30" d="M119.9,19.3c-0.1-0.3-0.1-0.7,0-1c0.2-0.2,0.5-0.1,0.7-0.2c0.4-0.2,0.8-0.7,1.2-0.1c0.3,0.5,0.3,1.1-0.1,1.6
		c-0.4,0.5-0.9,0.3-1.4,0.1C120.1,19.6,120,19.4,119.9,19.3z"/>
	<path class="st96" d="M119.9,19.3c0.2,0.1,0.5,0.1,0.7,0.2c0.4,0.2,0.8,0.5,1.1-0.1c0.2-0.5,0.3-1-0.1-1.3c-0.4-0.3-0.7,0-0.9,0.4
		c-0.3,0.5-0.5-0.3-0.8-0.1c0.5-0.8,1.3-0.9,1.9-0.5c0.6,0.4,0.4,1.3,0.2,1.9c-0.2,0.5-1,0.3-1.5,0.4
		C119.8,20.2,119.9,19.7,119.9,19.3z"/>
	<path class="st85" d="M201.7,14.6c0.1,0.5-0.1,1-0.7,1c-1,0-1.2-0.7-1.3-1.4c-0.1-0.8,0.8-0.5,1.1-0.6
		C201.6,13.4,201.8,14,201.7,14.6z"/>
	<path class="st89" d="M11,16.7c-0.2-0.1-0.4-0.2-0.5-0.3c0.5-0.8,1-0.5,1.4,0C11.7,16.7,11.3,16.6,11,16.7z"/>
	<path class="st73" d="M16.2,15c0.5-0.4,0.9-0.9,1.7-0.7c-0.2,0.3-0.5,0.7-1,0.7C16.7,15,16.4,15,16.2,15z"/>
	<path class="st89" d="M11.9,16.4c0.5-0.5,0.9-0.9,1.7-0.7C13.2,16.4,12.4,16.1,11.9,16.4z"/>
	<path class="st61" d="M194.5,10.7c0,0.5-0.4,0.5-0.7,0.4C193.9,10.8,194.2,10.6,194.5,10.7z"/>
	<path class="st61" d="M193.8,11.1c-0.2,0.6-0.6,0.2-1,0.2C193.1,11,193.5,11.2,193.8,11.1z"/>
	<path class="st40" d="M47.6,14.2c0,0.1,0,0.2,0,0.2c-0.4,0.3-0.9,0.5-1.3,0.8c-0.5,0-0.9,0.5-1.3,0.1c0.5-0.5,1.3-0.5,1.7-1.2
		C47,14.3,47.3,14.3,47.6,14.2z"/>
	<path class="st86" d="M176.3,14.2c0,0.4-0.3,0.8-0.3,0.7c-0.4-0.8-1.2,0.1-1.5-0.4c-0.1-0.2-0.1-0.5-0.1-0.8s0.1-0.8,0.5-0.5
		C175.4,13.5,176.7,12.9,176.3,14.2z"/>
	<path class="st54" d="M80.8,14.7c0.3-0.1,0.5-0.5,0.9-0.5c0.5-0.5,1.1-0.6,1.7-0.8c0.4-0.1,0.7-0.5,1.2-0.2
		c-1.2,0.7-2.4,1.5-3.8,1.7C80.7,14.9,80.7,14.9,80.8,14.7C80.7,14.8,80.8,14.7,80.8,14.7z"/>
	<path class="st65" d="M80.8,14.7c0,0.1,0,0.2,0,0.3c-0.2,0.1-0.4,0.3-0.5,0.4c-0.1,0-0.1,0-0.2,0C80,14.9,80.1,14.5,80.8,14.7z"/>
	<path class="st43" d="M84.6,13.3c-0.4,0.1-0.8,0.2-1.2,0.2c-0.1-0.1-0.1-0.1-0.1-0.2s0-0.1,0.1-0.1c0.4-0.2,0.8-0.3,1.2-0.2
		C84.6,13.1,84.6,13.2,84.6,13.3z"/>
	<path class="st97" d="M30.7,15c-0.7,0.2-0.8-0.2-0.8-0.7c0-0.7,0.1-1.3,1-1.2c0.4,0,1-0.1,1.1,0.6C32,14.6,31.7,14.9,30.7,15z"/>
	<path class="st40" d="M132.8,16.2c0-0.5,0.2-0.8,0.7-0.7C133.4,15.8,133.2,16,132.8,16.2z"/>
	<path class="st91" d="M45,15.4c0.5-0.1,1-0.2,1.4-0.2c0.1-0.1,0.2-0.1,0.3,0c-0.6,0.5-1.2,0.5-1.9,0.5c0-0.1,0-0.1,0-0.2
		C44.9,15.5,44.9,15.4,45,15.4z"/>
	<path class="st64" d="M85.1,10.9c-0.2,0.2-0.2,0.7-0.7,0.5C84.5,11,84.7,10.9,85.1,10.9z"/>
	<path class="st98" d="M116.3,12.6c0.2-0.3,0.3-0.5,0.5-0.8c-0.1-0.5-0.2-1,0.5-1.2c0.1,0.4,0.5,0.8,0,1.3
		C117,12.2,116.7,12.5,116.3,12.6z"/>
	<path class="st99" d="M117.2,10.6c-0.2,0.4-0.3,0.8-0.5,1.2c-1.6,0.4-2.7,1.6-4.1,2.4c-0.6-0.2-0.7-0.6,0-0.8
		c0.6-0.2,0.9-0.5,0.8-1.1c0.1-0.3,0.4-0.5,0.7-0.5c0.9,0.2,1.3-0.8,2-1c0.2,0,0-0.4-0.1-0.6C116.5,10.1,117,10.1,117.2,10.6z"/>
	<path class="st100" d="M160.9,13.3c0.3,0,0.7,0,1.1-0.1c-0.1,0.4-0.2,0.8-0.3,1.3c0,0.1,0,0.1,0,0.2c-0.3,0.4-1,0.1-1.2,0.7l0,0
		c-0.9,0.6-2.1,0.7-2.9,1.6c-0.2,0.3-0.6,0.3-1,0.3c0-0.2,0-0.5,0-0.7c-0.2-0.3,0.1-0.5,0.2-0.7l0,0c0.3-0.3,0.7-0.5,1-0.7
		s0.6-0.5,1-0.7C159.6,14.2,160.3,13.9,160.9,13.3L160.9,13.3z"/>
	<path class="st68" d="M160.4,15.4c-0.1-1,0.7-0.6,1.2-0.7C161.4,15.3,160.8,15.2,160.4,15.4z"/>
	<path class="st72" d="M18.9,13.8c-0.1-0.2-0.4-0.5-0.1-0.7c0.3-0.3,0.4,0.2,0.7,0.3c0.3,0.1,0.7,0.3,0.9,0.1
		c0.6-0.6,1.3-0.2,1.9-0.2C21.1,13.6,20.1,14,18.9,13.8z"/>
	<path class="st73" d="M17.9,14.3c0.2-0.3,0.6-0.5,1-0.5C18.7,14.2,18.3,14.3,17.9,14.3z"/>
	<path class="st87" d="M168.1,12.1c-0.2-0.1-0.3-0.3-0.6-0.5c0.9,0.2,1.6-0.2,2.3-0.2C169.4,11.9,168.7,11.9,168.1,12.1z"/>
	<path class="st1" d="M166,13c0.5-0.6,1.2-0.7,1.9-0.7C167.3,12.6,166.7,13.1,166,13z"/>
	<path class="st87" d="M169.8,11.4c-0.1-0.4,0.3-0.5,0.5-0.7c0.3-0.2,0.5,0,0.7,0.2V11C170.7,11.3,170.3,11.4,169.8,11.4z"/>
	<path class="st24" d="M68.3,21.2c0.3,0,0.6,0,0.9-0.1c0,0.1,0,0.2,0,0.2c-0.3,0.2-0.6,0.3-0.9,0.5C68.3,21.6,68.3,21.5,68.3,21.2
		C68.3,21.4,68.3,21.3,68.3,21.2z"/>
	<path class="st64" d="M160.9,13.3c-0.5,0.9-1.2,1.2-2.2,1.2c0.4-0.6,1.3-0.5,1.7-1.2C160.6,13.3,160.8,13.3,160.9,13.3z"/>
	<path class="st101" d="M157.8,15.2c-0.2,0.4-0.5,0.7-1,0.7c0-0.2,0-0.3,0-0.5C157.2,15.4,157.5,15.3,157.8,15.2z"/>
	<path class="st71" d="M205.8,16.7c0.5,0,1.1,0,1.4-0.5c0.2-0.4,0.5-0.7,0.9-0.7c0.1-0.1,0.3-0.1,0.5-0.1c0.1,0.8-0.8,0.9-1,1.5
		c-0.2,0.1,0.1,0.3,0,0.1c0,0,0-0.1,0.1-0.1c0.2-0.1,0.4-0.2,0.5,0c0.1,0,0.2,0,0.3,0c-0.3,0.7-0.7,1.1-1.5,1.2
		c-0.2-0.2-0.5,0-0.8-0.2c0.1,0.3,0.2,0.5,0.3,0.7c-0.4,0.4-0.8,0.4-1.1,0c-0.3-0.3-0.1-0.7,0-1C205.5,17.3,205.7,17,205.8,16.7z"/>
	<path class="st4" d="M208.7,15.4c-0.2,0-0.3,0-0.5,0c0.3-0.5,0.6-0.7,1.2-0.8c-0.2,0.3-0.3,0.5-0.5,0.8
		C208.8,15.6,208.8,15.6,208.7,15.4z"/>
	<path class="st71" d="M130.4,16.9c0.5,0,0.9-0.6,1.5-0.5c-0.5,0.4-1,0.9-1.7,0.9c-0.2-0.1-0.4-0.3-0.2-0.5
		C130.1,16.7,130.3,16.7,130.4,16.9z"/>
	<path class="st63" d="M130,16.9c0.1,0.2,0.2,0.3,0.2,0.5c-0.1,0.2-0.2,0.3-0.2,0.5c-0.1,0-0.2,0-0.2,0
		C129.5,17.4,129.3,17.1,130,16.9z"/>
	<path class="st75" d="M78.6,15.9c0.2-0.4,0.5-0.5,1-0.5C79.4,15.9,79,15.9,78.6,15.9z"/>
	<path class="st31" d="M190.2,12.3c-0.3,0.4-0.7,0.8-1,1.2l0,0c-0.5,0.5-1.1,0.8-1.7,1.2c-0.2,0.2-0.5,0.2-0.7,0
		c0.2-0.2,0.3-0.5,0.5-0.7C188.5,13.8,189.1,12.6,190.2,12.3z"/>
	<path class="st4" d="M186.6,15.2c-0.9,0.7-1.4,2-2.9,1.9c-0.1,0.1-0.1,0.1-0.2,0c0.5-0.4,1.1-0.6,1.4-1.2c0.2-0.2,0.3-0.3,0.5-0.5
		c0.4,0.1,0.7-0.1,1-0.2C186.5,15.1,186.5,15.1,186.6,15.2z"/>
	<path class="st60" d="M183.5,17.1c0.1,0,0.1,0,0.2,0c0.5,1-0.7,0.3-0.7,0.7c0-0.1,0-0.2,0-0.2c0-0.1,0-0.2,0-0.2
		C183.2,17.3,183.3,17.2,183.5,17.1z"/>
	<path class="st61" d="M186.6,15.2h-0.1h-0.1c0-0.1,0-0.2,0-0.2c0.2-0.1,0.3-0.2,0.5-0.2c1,0,1.5-1,2.4-1.2
		C188.6,14.4,187.7,15,186.6,15.2z"/>
	<path class="st102" d="M190.9,13c0.5,0.2,0.1-0.7,0.6-0.6c0.3,0.1,0.8-0.4,1,0.1c0.2,0.6-0.5,0.4-0.7,0.7
		C191.5,13.3,191.1,13.6,190.9,13z"/>
	<path class="st66" d="M70,20c0,0.2,0,0.3,0,0.5c-0.2,0-0.3,0-0.5,0C69.5,20.2,69.4,19.7,70,20z"/>
	<path class="st65" d="M83.4,13.3c0,0.1,0,0.2,0,0.2c-0.6,0.2-1,0.7-1.7,0.7c0-0.1,0-0.2,0-0.2C82,13.2,82.9,13.5,83.4,13.3z"/>
	<path class="st101" d="M156.8,15.9c-0.1,0.2-0.2,0.5-0.2,0.7c-0.5,0.3-1.1,0.4-1.7,0.2C155.5,16.5,156,15.7,156.8,15.9z"/>
	<path class="st66" d="M155.2,18.3c-0.3,0.3-0.6,0.4-1,0.5C154.4,18.4,154.8,18.3,155.2,18.3z"/>
	<path class="st103" d="M130,16.9c-0.4,0.2-0.2,0.6-0.2,0.9c-0.5,0-0.7,0.6-1.2,0.5c-0.2,0-0.3,0-0.5,0c0.3-0.3,0-0.8,0.2-1.2
		c0.3,0,0.7,0,0.7-0.5c0.5-0.3,0.9-0.7,1.5-0.8c0.3,0.4-0.2,0.7-0.1,1.1C130.3,16.9,130.1,16.9,130,16.9z"/>
	<path class="st104" d="M208.7,15.4c0.1,0,0.1,0,0.2,0c0.1,0.7-0.5,0.9-0.7,1.4c-0.5-0.1-0.5,1.2-1.1,0.5c-0.5-0.5,0.5-0.7,0.7-1.1
		C207.9,16,208.4,15.7,208.7,15.4z"/>
	<path class="st105" d="M216.1,11.1c-0.2,0-0.5,0.1-0.6-0.2c-0.1-0.3,0.2-0.3,0.4-0.3C216.3,10.7,216.2,10.9,216.1,11.1L216.1,11.1z
		"/>
	<path class="st106" d="M206.5,18.5c-0.2-0.1-0.3-0.3-0.5-0.3c-0.6,0-0.2-0.4-0.2-0.5c0.1-0.3,0.3-0.3,0.5-0.1
		c0.2,0.2,0.4,0.3,0.6,0.5C206.8,18.2,206.7,18.4,206.5,18.5z"/>
	<path class="st71" d="M24.8,11.3c0,0.2-0.1,0.3-0.3,0.3c-0.1,0-0.1-0.3-0.1-0.4s0.1-0.2,0.2-0.2C24.8,11,24.8,11.2,24.8,11.3z"/>
	<path class="st107" d="M25.5,11.1c-0.1-0.1-0.3-0.1-0.3-0.2c0-0.2,0.2-0.2,0.3-0.2s0.2,0.1,0.3,0.1C25.7,10.9,25.6,11,25.5,11.1z"
		/>
	<path class="st71" d="M26.6,10.7c0,0.1,0.1,0.2,0.1,0.3c0,0.1,0.1,0.3-0.1,0.4c0,0-0.1-0.2-0.2-0.3C26.3,11,26.3,10.9,26.6,10.7z"
		/>
	<path class="st71" d="M25.6,11.8c0,0.1,0.2,0.3,0,0.4s-0.4,0-0.5-0.2C25.2,11.9,25.4,11.8,25.6,11.8z"/>
	<path class="st72" d="M22,11.8c1.4,0.3-0.1,0.6,0,1c-0.6,0-1.1-0.7-1.8-0.4C20.7,11.8,21.3,11.8,22,11.8z"/>
	<path class="st108" d="M54.6,13.5c-0.4,0.1-0.7-0.2-1.1-0.3c0,0.3-0.1,0.5-0.1,0.8c-0.6,0-1.1-0.3-1.7,0c-0.1-0.3-0.8-0.1-0.7-0.7
		c0.8-0.5,1.9-0.6,2.6-1.2C53.7,12.7,54.8,12.7,54.6,13.5z"/>
	<path class="st109" d="M51,13.3c0.2,0.3,0.8,0.2,0.7,0.7c-0.3-0.1-0.6-0.1-0.9-0.2c-0.2,0-0.5,0-0.3-0.3
		C50.6,13.4,50.8,13.4,51,13.3z"/>
	<path class="st110" d="M98.5,20.5c0.3-0.1,0.6-0.2,0.9-0.2c0,0.4-0.3,0.6-0.5,0.9c-0.2,0.1-0.5,0.2-0.7,0.2
		C98.4,21.1,98.8,20.9,98.5,20.5z"/>
	<path class="st70" d="M98,23.1c-0.2,0.3-0.5,0.3-0.8,0.3c0-0.4-0.3-0.9,0.1-1.3C97.4,22.6,97.8,22.8,98,23.1z"/>
	<path class="st111" d="M171,10.9c-0.2-0.1-0.5-0.1-0.7-0.2c0-0.3,0-0.5-0.2-0.7l0,0c0-0.1,0-0.2,0-0.2c0.3-0.2,0.6-0.4,0.9-0.5
		c0.3-0.2,0.8-0.1,1,0.1c0.3,0.3-0.1,0.5-0.4,0.7C171.3,10.2,171.4,10.7,171,10.9z"/>
	<path class="st87" d="M170,9.9c0,0.3,0.1,0.6-0.3,0.7c-0.1,0-0.2-0.1-0.2-0.1C169.6,10.2,169.8,10,170,9.9L170,9.9z"/>
	<path class="st75" d="M46.7,15.2c-0.1,0-0.2,0-0.3,0c0.3-0.5,0.6-0.8,1.2-0.7C47.6,15.1,47,14.9,46.7,15.2z"/>
	<path class="st112" d="M40.4,18.3c0-0.1,0-0.2,0-0.2c0.7,0,1-1.2,1.9-0.5c0.2,0.9-0.8,0.7-1,1.2C41.1,18.5,40.9,18.2,40.4,18.3z"/>
</g>
</svg>
