<svg viewBox="0 0 288 74">
<style type="text/css">
	.st0{fill:#A21C43;}
	.st1{fill:#DBA8B6;}
	.st2{fill:#BB5976;}
	.st3{fill:#B8506E;}
	.st4{fill:#DBA9B8;}
	.st5{fill:#B95370;}
	.st6{fill:#AB3054;}
	.st7{fill:#D59AAB;}
	.st8{fill:#AB3155;}
	.st9{fill:#C8788F;}
	.st10{fill:#A6254A;}
	.st11{fill:#B44968;}
	.st12{fill:#E0B3C0;}
	.st13{fill:#D08CA0;}
	.st14{fill:#EED6DD;}
	.st15{fill:#AD3759;}
	.st16{fill:#C46F88;}
	.st17{fill:#B24262;}
	.st18{fill:#C7788F;}
</style>
<g>
	<path class="st0" d="M288.2,31.7c0,5.5,0,11,0,16.6c-0.3,0.3-0.7,0.3-1.1,0.3s-0.9,0-1.3,0c-82.3,0-164.6,0-246.9,0
		c-2,0-3.9-0.1-5.8-0.7c-0.4,0-0.8,0-1.3-0.1c-1-0.2-1.9-0.5-2.5-1.4c-0.3-0.6-0.9-0.8-1.3-1.3c-0.2-0.6,0.3-0.7,0.6-1.1
		c0.1-0.1,0.2-0.3,0-0.4c-1.1-0.6-0.3-0.9,0.2-1.2c0.4-0.3,0.9-0.5,1.3-0.7s0.8-0.3,1.2-0.5c-0.6-0.7-1.4-0.6-2.1-0.6
		c-1,0-2.1,0.2-3-0.3c-0.7-0.4-1-0.8-0.4-1.5c0.3-0.4,0.7-0.5,1.1-0.5c0.7-0.1,1.4,0.1,2.1-0.2c0.5-0.5,0.8-1.1,1.8-1.4
		c-0.9-0.4-1.7-0.7-0.9-1.6c-0.6-1.6,0.7-1.7,1.7-2.1c0.1,0,0.2-0.1,0.3-0.2c1-1.3,2.5-1.5,4-1.5c83.6,0,167.2,0,250.7,0
		C287.1,31.4,287.7,31.3,288.2,31.7z"/>
	<path class="st1" d="M288.2,48.7c0,0.2,0,0.5,0,0.7c-0.4,0.3-0.8,0.3-1.2,0.3c-0.6,0-1.1,0-1.7,0c-82,0-163.9,0-245.9,0
		c-0.6,0-1.2,0-1.8,0c-0.7,0-1,0.4-0.9,1.1c0,0.2-0.1,0.2-0.2,0.2c-0.7-0.3-1-0.6-0.4-1.3c0.4-0.4,0.3-0.7-0.3-0.7
		c-0.4,0-0.8,0.1-1.2-0.1c-0.6-0.3-0.3-0.5,0.2-0.6c1.9-0.1,3.7,0.2,5.6,0.2c82,0,163.9,0,245.9,0C286.9,48.5,287.6,48.3,288.2,48.7
		z"/>
	<path class="st2" d="M288.2,48.7c-74.5,0-149,0-223.5,0c-8.3,0-16.6,0-25,0c-1.8,0-3.6-0.5-5.5-0.2c-0.3,0.3-0.5,0-0.7-0.2
		c-0.1,0-0.1,0-0.2,0c-0.1-0.1-0.1-0.1-0.2-0.2c-0.2-0.1-0.4-0.2-0.3-0.5c3.2,0.9,6.4,0.7,9.6,0.7c81.6,0,163.1,0,244.7,0
		c0.4,0,0.7,0,1.1,0C288.2,48.4,288.2,48.6,288.2,48.7z"/>
	<path class="st3" d="M288.2,31.7c-17.4,0-34.8,0-52.2,0c-66.6,0-133.2,0-199.8,0c-1.7,0-3.3,0-4.3,1.6c-0.3,0.5-1,0.4-1.5,0.5
		c-0.2,0-0.4,0-0.5,0.3c0,0.2,0.2,0.3,0.4,0.4c1.2,0.4,0.5,0.7-0.1,1c-0.2,0.1-0.5,0.1-0.5,0.4c0,0.3,0.3,0.3,0.6,0.3
		c0.2,0,0.5,0.1,0.7,0.1c0.2,0.1,0.6,0.1,0.5,0.5c-0.1,0.3-0.4,0.3-0.6,0.3c-0.8-0.1-1.2,0.3-1.4,1c-0.1,0.3-0.2,0.4-0.5,0.4
		c-0.2-1.3,0.1-1.7,1.4-1.8c0.2,0,0-0.3,0-0.1c0.1,0.4-1-0.1-1.5-0.6c0-0.6,0.3-1.2,0.1-1.9c-0.2-0.6,0.6-1,1.2-1.1
		c0.9-0.1,1.7-0.5,2.3-1.2c0.4-0.4,0.9-0.6,1.4-0.6c0.4,0,0.7,0,1.1,0c83.9,0,167.8,0,251.8,0c0.5,0,1-0.1,1.5,0.1
		C288.2,31.5,288.2,31.6,288.2,31.7z"/>
	<path class="st4" d="M288.2,31.4c-19.4,0-38.7,0-58.1,0c-64.8,0-129.5,0-194.3,0c-1.7,0-3.2,0.1-4.3,1.5c-0.3,0.4-0.8,0.4-1.3,0.4
		c-0.8,0.1-1.5,0.2-0.9,1.3c0.2,0.3,0,0.5-0.2,0.8s-0.3,0.6,0,0.8c0.8,0.9-0.4,1.3-0.4,2c-0.5,0.3-1,0.1-1.5,0.2
		c-0.2,0.1-0.3,0.1-0.5,0.2c-0.3,0-0.6,0.1-0.9,0.3c-0.2,0.1-0.4,0.1-0.5,0c0.4-0.8,1.1-0.9,1.9-1c1.3,0,1.5-0.5,1.4-1.7
		c-0.1-0.8-0.2-1.7,0-2.4c0.3-0.8,1.2-1.2,2.2-1.2c0.3,0,0.6-0.1,0.8-0.3c0.8-1.2,2-1.1,3.2-1.1c83.8,0,167.7,0,251.5,0
		c0.6,0,1.2,0,1.8,0C288.2,31.3,288.2,31.4,288.2,31.4z"/>
	<path class="st5" d="M36.8,50.9c-0.6-0.5-0.5-0.9,0.2-1.2c0.1-0.1,0.3-0.1,0.5-0.1c0.1,0.1,0.1,0.2,0.1,0.3
		c-0.2,0.3-0.1,0.4,0.3,0.4c82.7,0,165.4,0,248,0c0.8,0,1.7-0.2,2.4,0.3c0,0.1,0,0.2,0,0.2c-0.4,0.2-0.9,0.1-1.3,0.1
		C204,51,121,51,38,51C37.6,51,37.2,51.1,36.8,50.9z"/>
	<path class="st6" d="M37,50.4c-0.2-0.5,0.2-0.4,0.5-0.5c0.6-0.4,1.2-0.2,1.9-0.2c36,0,72,0,108,0c46.3,0,92.6,0,139,0
		c0.7,0,1.4-0.2,2,0.2c0,0.1,0,0.2,0,0.2c-0.6,0.4-1.2,0.2-1.9,0.2c-35.4,0-70.9,0-106.3,0c-46.9,0-93.8,0-140.7,0
		c-0.6,0-1.3,0-1.9,0C37.3,50.5,37.1,50.5,37,50.4z"/>
	<path class="st7" d="M36.8,50.9c14.7,0,29.4,0,44.2,0c69.1,0,138.2,0,207.3,0c0,0.1,0,0.2,0,0.2c-83.2,0-166.4,0-249.6,0
		c-0.6,0-1.3,0-1.9,0C36.7,51.1,36.6,51,36.8,50.9L36.8,50.9z"/>
	<path class="st8" d="M37,50.4c0.1,0,0.2,0,0.2,0c0.4-0.2,0.9-0.1,1.3-0.1c82.8,0,165.6,0,248.4,0c0.4,0,0.9-0.1,1.3,0.1
		c0,0.1,0,0.2,0,0.2c-83.2,0-166.4,0-249.6,0C38.1,50.6,37.5,50.8,37,50.4z"/>
	<path class="st9" d="M37.4,49.7c-0.2,0-0.3,0-0.5,0c0.5-0.4,1.2-0.2,1.7-0.2c79.1,0,158.3,0,237.4,0c4,0,8.1,0,12.1,0
		c0,0.1,0,0.2,0,0.2c-0.4,0.2-0.9,0.1-1.3,0.1c-82.7,0-165.5,0-248.2,0C38.3,49.8,37.9,49.9,37.4,49.7z"/>
	<path class="st10" d="M288.2,50.4c-83.7,0-167.4,0-251,0c0.4-0.5,1-0.2,1.5-0.2c83.2,0,166.4,0,249.6,0
		C288.2,50.2,288.2,50.3,288.2,50.4z"/>
	<path class="st11" d="M37.4,49.7c46.1,0,92.2,0,138.4,0c37.5,0,75,0,112.4,0c0,0.1,0,0.2,0,0.2c-83.6,0-167.2,0-250.8,0
		C37.4,49.8,37.4,49.8,37.4,49.7z"/>
	<path class="st12" d="M33.3,48c0,0.1,0,0.1,0,0.2c-1.7,0.2-3.1-0.1-4.3-1.4c-0.4-0.4-1-0.5-1.6-0.5c-0.8,0-1.5,0-2.3,0
		s-1.4-0.4-1.5-1.2c-0.1-0.9,0.4-1.3,1.1-1.5c0.5-0.2,1.5,0.3,1.5-0.5c0-0.6-1-0.2-1.5-0.4c-0.3-0.1-0.8-0.1-0.7-0.6
		c0.1-0.4,0.5-0.3,0.8-0.3c1.4,0.1,2.7-0.3,4-0.3c0.3,0,0.7,0,0.7-0.5c0.4-0.2,0.8-0.3,0.7,0.4c-0.1,0.1-0.1,0.2-0.2,0.3
		c-0.2,0.1-0.4,0.3-0.6,0.3c-0.4,0.1-0.8,0-1.2,0.2c-0.6,0.2-1.1,0.5-1,1.2c0,0.4,0,0.7-0.4,0.9c-0.6,0.2-1.2,0.1-1.8,0.2
		c-0.3,0-0.6,0-0.7,0.3c0,0.5,0.4,0.4,0.7,0.4c0.5,0,1,0,1.6,0c1,0,1.9,0.3,2.6,1.1c0.4,0.5,0.9,0.9,1.6,1.1
		C31.7,47.8,32.6,47.6,33.3,48z"/>
	<path class="st13" d="M30.2,41.5c0.3-0.6-0.2-0.5-0.5-0.5c-1.4-0.2-2.9,0.4-4.1-0.7c-0.5-0.4-0.9-0.8-0.2-1.4c0.2,0,0.3,0,0.5,0
		c-0.5,0.6-0.2,1,0.4,1.2c1,0.3,2.1,0.1,3.1,0.2c0.3,0.2,0.7,0.1,1,0.2c0.3,0.1,0.8,0.3,0.7,0.7C31.1,41.7,30.7,41.8,30.2,41.5z"/>
	<path class="st14" d="M36.7,50.9c0,0.1,0.1,0.1,0.1,0.2c-1.3-0.2-1.5-0.5-0.7-1.8c-0.8-0.4-2.1,0.4-2.5-1c0.2,0.1,0.5,0.1,0.7,0.2
		c0.5,0.4,1,0.2,1.6,0.2c0.3,0,0.6,0,0.7,0.3c0.2,0.3-0.1,0.5-0.3,0.7C35.6,50.4,36,50.7,36.7,50.9z"/>
	<path class="st2" d="M30.9,47.5c-0.3-0.1-0.8-0.2-1-0.4c-1.2-1.4-2.7-1.7-4.4-1.5c-0.2,0-0.5,0-0.7,0c-0.4-0.1-0.8-0.3-0.8-0.7
		s0.4-0.6,0.8-0.6c0.8,0,1.5,0,2.3,0c0.3-0.2,0.6-0.3,0.9-0.1c0.1,0.1,0.1,0.2,0,0.4c-0.7,0.7-1.6,0.5-2.5,0.5c-0.1,0-0.1-0.1-0.2,0
		c0.1,0,0.2,0,0.2,0c0.8,0.1,1.6-0.1,2.3,0.1c0.6,0.2,1.1,0.6,1.5,0.9c0.5,0.9,1.4,1.1,2.2,1.4C31.5,47.7,31.2,47.7,30.9,47.5z"/>
	<path class="st15" d="M25.2,45.1h-0.1H25c-0.2-0.3,0.1-0.3,0.2-0.5c1,0,1.9,0.1,2.9-0.2c0.2-0.2,0.3-0.4,0.6-0.3l0.1,0.1
		c-0.1,0.4-0.7,0.4-0.7,1c-0.1,0-0.1,0.1-0.2,0.1C27,45.2,26.1,45.4,25.2,45.1z"/>
	<path class="st15" d="M30.2,41.5c0.3,0,0.6,0,0.8-0.3c-0.4-0.5-1.1-0.5-1.5-0.9c1-0.2,1.8,0.3,2.6,1c-0.7,0.3-1.3,0.5-1.9,0.7
		C30.1,41.9,30.1,41.7,30.2,41.5L30.2,41.5z"/>
	<path class="st16" d="M28.8,38.1c0-0.7,0.9-1.1,0.5-1.9c0.5,0.2,0.9,0.6,1.5,0.5c-1.2,0.1-1.5,0.9-1.7,1.8c-0.7,0-1.4,0-2.2,0
		c0.1-0.1,0.2-0.2,0.2-0.2C27.6,38.1,28.3,38.5,28.8,38.1z"/>
	<path class="st15" d="M29,42.7c-0.1,0.3-0.5,0.2-0.7,0.3c0,0.5,1.7,0.2,0.5,1.1l0,0c-0.4-0.4-1-0.4-1.4-0.9c-0.2-0.3,0-0.4,0.2-0.6
		C28.1,42.4,28.6,42.3,29,42.7z"/>
	<path class="st17" d="M29,42.7c-0.5,0-1,0-1.5,0.2c-0.2-0.8,0.5-0.7,0.8-0.9c0.4-0.2,1,0,1.4-0.3c0.2-0.1,0.3-0.1,0.5-0.2
		c0,0.1,0,0.3,0,0.4C29.8,42.2,29.4,42.5,29,42.7z"/>
	<path class="st18" d="M30.9,47.5c0.3,0,0.5,0,0.8,0c0.4,0,0.8,0,1.2,0c0.2,0.2,0.3,0.3,0.5,0.5C32.5,48,31.7,48,30.9,47.5z"/>
	<path class="st15" d="M29.5,46.1c-0.5-0.2-1-0.5-1.4-0.7c-0.1,0-0.1-0.1-0.1-0.2c0-0.1,0-0.1,0.1-0.1l0,0
		C28.7,45.2,29.2,45.5,29.5,46.1z"/>
	<path class="st13" d="M28.8,38.1c-0.5,0.5-1.1,0.2-1.7,0.3C27.6,38,28.2,38.3,28.8,38.1z"/>
	<path class="st13" d="M29.8,41.8c-0.3,0.5-0.7,0.5-1.1,0.5c-0.5,0-0.9,0.1-1.1,0.7c-0.2,0.1-0.2,0.2,0,0.3c0.2,0.3,0.7,0.4,0.5,0.9
		c-0.3,0-0.6,0-0.9,0C27.3,41.9,27.5,41.7,29.8,41.8z"/>
	<path class="st17" d="M28.1,44.1c-0.2-0.3-0.3-0.6-0.5-0.9c0.5,0.3,1.1,0.2,1.2,0.9c-0.2,0.1-0.5,0.2-0.7,0.2
		C28.1,44.3,28.1,44.2,28.1,44.1z"/>
	<path class="st17" d="M28.1,45.1c0,0.1,0,0.2,0,0.2c-1-0.1-2,0.2-2.9-0.2C26.2,45.1,27.1,45.1,28.1,45.1z"/>
	<path class="st17" d="M25.2,44.6C25.1,44.8,25,45,25,45.1c-0.2,0-0.4,0-0.3-0.3C24.7,44.6,25,44.7,25.2,44.6z"/>
</g>
</svg>
