<svg viewBox="0 0 1144.8 131">
<g>
	<g>
		<path d="M158.7,109.3L139,88.6l-4.4,1.9L126,74.8l-20.9-22l-4.3,8.4l7.9,40.3L80.2,83.9L92.3,60l-3.5-17.6l-7.5,0.7L74.6,62
			l-1.8-0.8l7.9,18.1l-9,5.4l-18.6-21l-36,34l35.4-67.6l-1.2-4.6L66,21.6L46.4,59.1l8.3-7.9l7.1,4.8l-4.6-10.5L70,51.2l5.5-15.6
			l11.8-1.2l-0.6-3l6.3,2.5l9.9-1l-0.4,4.7l14.4-8.5l-8.2,16l16.2,17l-3.4-10.2l7.4-3l7.2,14.6L159.2,40l-13.8-26l19.4,20.4
			l12.9-13.1L170,39.8l21.8,22.9l-10.9-21.4l25.7-19.4l0.2,46.7l-1.4,3.3l1,2l14.5-12.2l5.4-16.4l1.5,2.2l-11.7-25.1l41.1,41.8
			L255,28.1l8-0.7l3.6,34.2l3.3,0.5l-0.3,2l5.6-4.8l-9-6.5l365.9,30.3l2.8-11.7l-6.6-13.9l0.5-7.6l1.9-5.8l24.2-23l-11.6,49.4
			l2.5,5.2l0.8-0.6l395.1-9.2l6.5-5.6l-11-33.8l16.3,7.7l12.6,9.2l26,26.4l22.4-49.5l1.7,22.7l-8.4,17.1l13.9-13.7l6.5-0.7l0.8,8
			l-3.7,0.4l-24.7,24.5l3.5,3.5l-29.4,26.5l13.9-30.8l-24.3-24.7l-3.3,46.4l-10.1-30.8l-6.1,5.3l-395.3,9.2l-0.1,0.1l4.7,9.9
			l-15.8-1.3l-9.9,7.6l1.9-8.3L284,62.5l-15.8,13.7l1.2,11.8l-6.9-7l-3.7,3.2l0.9-6.1l-16.5-16.8l4.1,8.9l5.8,29.9L229,63.7
			l-0.9,2.9l-17.7,14.8l13.6,26.8l-20.6-21.6l-7.2,5.9l3.2,6l-12.9,1.8l-2.6,2.1l0.8-1.8l-20.5,2.9l-16.5-16.7L158.7,109.3z
			 M152.9,80.8L167,95l19.9-2.8l-21.8-40.9l-4.6,11L152.9,80.8z M90.7,81l6.6,4.1l-2.4-12.3L90.7,81z M179.9,62l11.7,22l2.8-6.7
			L179.9,62z M139.9,71.3l4.5,9.1l9.8-23.7L139.9,71.3z M61.4,61.1l5.2,5.8l-3.8-8.7L61.4,61.1z M636.2,55.9l1.4,3l3.2-13.6
			l-3.3,3.2l-1,3L636.2,55.9z M191,43.7l7.7,15.1l-0.1-20.9L191,43.7z M1050.4,42.1l4.1,12.7l6.1-5.2L1050.4,42.1z"/>
	</g>
</g>
</svg>
