<svg viewBox="0 0 1127.2 187.5">
<g>
	<g>
		<path d="M307.2,177.1l-9.4-11l-6.5,6l4.5-8.4l-10-11.7l4.5,19.6l-30.4-45.2l-50.6-28.2l-12.2,7.1l70.3,62.1l-147.5-26l10.7-6.3
			l-27.9-36.7l2.5-4.5l-37.1,40.5l-6.3-4.9l54.6-84.6l-9.2-8.2l11.3,4.9l4.5-7L14,37.5l-0.2-8l124.1-3.3l-12,18.6l10.6,4.6
			l131.4-4.1l-1.8,10.2l8.6-5l4.2,6.8l-15.2,10.2l18,29.3l26.5-31.3l-26-11.3l2.9-7.4l21.8,7.7l34.5-29.6l-0.2,1.5l4.5-5.3l-4.8,9.1
			l-3.5,35.2l124.2,44L546.2,99l4.3-19.2l-16.4-27.9l41.8,10.4l1.6-38l182,73.2l67.3-8l-8.1-12.4l11.3,7.2l-0.3-8.8l2.3-10.4
			l14.3-15.6l-6.9-15.6l14.3,7.5l16-17.4l-7.5,21.9l1.4,0.7l21.8,18.1l11.5,13.6l4.5-4.4L900,82l19.6,23.1l21.1-34.2l17.1-50
			l-1,39.2L948,74.3l-3.3,9.7l11.5-13.2l154.5-1.1l0.1,8l-150.9,1l-22,25.2l-5.5,16.1l15.8,18.6l-41.7,32.6l16.9-49.5l-0.5-0.6
			l-13.2,15.2l-6.4-4.7l12-19.4l-17-20.1l-9.5,53.6L874,112l-5.4,5.3l-8.1,6.8l14.9,25.1l-6.8,4.2L853.4,130l-6.6,5.6l-34.5,30.2
			l11.7-33.9l-93.3-23.1l-146.8,17.5l13.6,45.7l-42.2-77.5l-2.6,11.7l-74.3,9.1l73.9,26.2l-2.7,7.5l0,0L460,117.5l-8.9,1.1l115.5,50
			L307.2,177.1z M303.6,160.7l7.1,8.3l220-7.2l-95.3-41.2l-102,12.5l-18.7,17.4l6.1,10l-10.5-5.9L303.6,160.7z M287.7,142l12.1,14.2
			l3-5.7L287.7,142z M142.6,137.4l98.1,17.3l-51-45L142.6,137.4z M929.3,128.8l-6.7,19.6l14-10.9L929.3,128.8z M294.3,117.4l14,22.8
			l16.7-31.3l3.4-34.7l-9.1-3.9l-14.6,27.4L294.3,117.4z M839.9,109.7l-10.4,30.2l11.9-10.4l7.4-6.3L839.9,109.7z M286.5,132.2
			l11.5,6.4l-8-13L286.5,132.2z M336.2,77.5l-3.3,33.7L320.7,134l9.3-8.6l91-11.1L336.2,77.5z M123,90.8l20.5,36.9l40-23.5
			l-46.7-41.3l-7.7,30.9L123,90.8z M277.2,114.5l2.9,12.7l5-9.5l-4.5-7.3L277.2,114.5z M112.3,97.8l20.5,27L115.1,93L112.3,97.8z
			 M774.8,103.6l51.6,20.8l8-23.1l-2.9-4.4L774.8,103.6z M270,123l1,0.6l-0.3-1.4L270,123z M217.2,93.6l45.7,25.4l5.6-6.6l-9.6-41.8
			l-4,2.7l0.4-2.1L217.2,93.6z M879.9,106l5.4,12.4l3.8-21.4L879.9,106z M582.3,100.6l8.2,1.4l-3.9,15.9l122.2-14.5L583.5,72.3
			L582.3,100.6z M844.3,97.2l11.9,19.9l7-5.9l7.3-7.1l-16-36.2l-9,26.1l1.4,0.9l-1.8,0.2L844.3,97.2z M576.1,107.7l3.4,5.8l1.2-5
			L576.1,107.7z M399.3,96.1l37.4,16.2l6.4-0.8L399.3,96.1z M753.1,106.1l17.5,4.3l-12.3-4.9L753.1,106.1z M286.1,104l3.4,5.5
			l8.2-15.5l5.3-10L286.1,104z M273.6,98.9l1.3,5.9l1.3-1.6L273.6,98.9z M550.6,64.1l23.5,40.1l1.4-34L550.6,64.1z M583.8,64.1
			l147.4,36.6l11.6-1.4L584.9,35.8L583.8,64.1z M154.4,67.7l36.3,32.1l10.4-6.1L154.4,67.7z M858.2,56.8l18.2,41.4l14.7-14.4
			l-11.5-13.5l-20.2-16.9L858.2,56.8z M105.8,76.2L94,94.4l11.3-12.2l6.4,4.8L105.8,76.2z M151.5,57l57.6,32.1l47.6-28l-1.7-7.3
			L151.5,57z M838,86.7l0.9,1.6l10.5-30.4L839.3,69l-1.6,7.3L838,86.7z M107.2,74l16.6,8.2l6.3-25.3l-7.5-6.6L107.2,74z M324.5,60.7
			l5.1,1.8l1.4-14L324.5,60.7z M255.2,53.7l2.4,4l0.7-4.1L255.2,53.7z"/>
	</g>
</g>
</svg>
