<svg viewBox="0 0 820 110.7">
<style type="text/css">
	.st0{fill:#6E266C;}
</style>
<g>
	<path class="st0" d="M803,22.9c-0.1-0.8-1.3-1.8-2-0.9l1,2.6L803,22.9z"/>
	<path class="st0" d="M793.8,23.9c-0.3,1.8-0.1,4.6,2,6c-0.5-2.9,0.4-2.2-0.3-5.5c0.7-1,2.1-0.6,2.6,0.3c-0.1-0.8,1.8-0.7,1.2-2.3
		c-2.5-0.7-4,0.4-4.5,3C794.2,25.2,794.1,24.4,793.8,23.9z"/>
	<path class="st0" d="M691.8,63.9l0.8,0.2C692.4,63.9,692.1,63.9,691.8,63.9z"/>
	<path class="st0" d="M624.1,69c0.5-0.1,0.7-0.3,0.8-0.6C624.4,68.6,624,68.8,624.1,69z"/>
	<path class="st0" d="M612.5,66c0.2,0.1,0.5,0.1,0.7,0.2C612.9,66,612.7,65.8,612.5,66z"/>
	<path class="st0" d="M691.8,63.9l-1.9-0.5C689.9,64.3,690.9,63.9,691.8,63.9z"/>
	<path class="st0" d="M784.9,38.2c0.3-0.3,0.4-0.7,0.5-1.1c-0.2,0.3-0.4,0.5-0.7,0.8C784.8,38,784.8,38.1,784.9,38.2z"/>
	<path class="st0" d="M720.2,54.5l0.5-0.2c0.1-0.3,0.1-0.7,0.1-1.2L720.2,54.5z"/>
	<path class="st0" d="M741.5,46.4c-0.5,0.1,0.2,2.3,0.4,3.3c-0.1-1,0.1-1.5,0.4-1.9C742.2,47.3,741.9,46.9,741.5,46.4z"/>
	<path class="st0" d="M775.5,33.4l0.4-0.6C775.8,32.9,775.6,33.1,775.5,33.4z"/>
	<path class="st0" d="M704.4,58.4c-0.1-0.3-0.3-0.6-0.4-0.7C704.1,57.9,704.2,58.2,704.4,58.4z"/>
	<path class="st0" d="M63,69c0-0.2-0.1-0.2-0.2-0.4C62.9,68.9,62.9,69.1,63,69z"/>
	<path class="st0" d="M35.4,72.9l0.2-0.3c-0.2-0.4-0.5-0.7-0.7-1L35.4,72.9z"/>
	<path class="st0" d="M591.5,62.3L591.5,62.3C592.2,62.1,591.8,62.2,591.5,62.3z"/>
	<path class="st0" d="M395.8,39.6c2,2.2-3.9,2.2-0.8,4.8C394.8,43.4,398.5,41.2,395.8,39.6z"/>
	<path class="st0" d="M784.2,38.3c-0.3,0.2-0.5,0.4-0.8,0.5C783.8,38.7,784.1,38.5,784.2,38.3z"/>
	<path class="st0" d="M395,44.4L395,44.4l0.3,0.3C395.2,44.5,395.2,44.4,395,44.4z"/>
	<path class="st0" d="M542.7,59.1c0.1,0.4,0.2,0.7,0.4,1C543.1,59.9,543,59.6,542.7,59.1z"/>
	<path class="st0" d="M578.7,66l-0.9-0.4C578.2,65.9,578.5,66,578.7,66z"/>
	<path class="st0" d="M523.3,59.8c-0.5-0.2-0.6-0.6-1.3-0.4c0,0.1,0.1,0.2,0.2,0.3C522.5,59.4,522.8,59.3,523.3,59.8z"/>
	<path class="st0" d="M503.6,57c0.1,0.2,0.2,0.3,0.3,0.5c0.2,0,0.4,0,0.6,0L503.6,57z"/>
	<path class="st0" d="M118.7,55.3c-0.5-0.6-0.8-1.2-1.1-1.9C118,54.9,115.2,55.8,118.7,55.3z"/>
	<path class="st0" d="M784.2,37.2c0.2,0.5,0.2,0.9,0,1.1c0.2-0.1,0.4-0.3,0.5-0.5C784.6,37.5,784.4,37.3,784.2,37.2z"/>
	<path class="st0" d="M520.1,77.2l-3.1-0.8C517.9,76.8,519,77.1,520.1,77.2z"/>
	<path class="st0" d="M260.6,49.5l-0.7,0.3C260.1,49.8,260.4,49.7,260.6,49.5z"/>
	<path class="st0" d="M507.6,75.5c-0.5-0.9-1-1.4-1.6-1.8c-0.2,0.2-0.3,0.3-0.4,0.5L507.6,75.5z"/>
	<path class="st0" d="M117.6,53.4L117.6,53.4L117.6,53.4z"/>
	<path class="st0" d="M98.2,61.4c2.8-0.4,0.9-3.1,1.2-4.8c3.3-1.4,1.9,1.9,3.3,3.2c2-1.1,3.3-4,4.9-4.1c0.2,0.5,0.5,0.6,0.2,1.3
		c2-2.6,6.8-1,9.2-4.2c0.2,0.2,0.4,0.5,0.4,0.7c-0.6-1.4-0.8-2.9-0.9-4c1.3-0.2,2.3-2.1,3-0.3c-0.8,0-0.8,0.8-1.1,1.4l1.3-1
		c1.5,2.6-1.8,1.1-1.6,3.2c2.6-1.2,5.6-3.8,7.8-3.2c0.7,2.6-4.8,1.4-1.8,3.5l-3.3-0.7c2.9,4-2-0.1,0.7,4.2c4.3,0.4,4.6-1.8,8.9-1.4
		c0.8-1.6-0.5-2.2,0.3-3.8c5.8-3.2,5.3,6.4,9.5,2.4c1-1.9,1.2-5.4,4.5-3.8l-0.8,3.2c4.2,0,2-4.6,6.5-2.8c-0.7,1.3-3.2,1.2-2.5,1.6
		c3,2.2,1.9-1.9,4-2l0.6,2.7c4.4-0.7,9.1-3,14-3.8c-0.2,0.8-1,1.7,0.2,2.5c6.1-1.7,13.2-0.3,19.2,1l2.2-2.4c0.5,0,1,1,0.5,1.5
		c2.4,0.8,0.1-1.5,1.1-2.5c1.3-0.2,1.8,1.3,1,2c4-2.1,11.5-4.7,15.9-2.3l-0.8,0.7c3.4,0.9,3.7-4.9,6.9-2.7l-0.6,0.4
		c7.3,0.9,15.4-1.4,21,2.2c1.1-3.4,7.2,1.5,7.7-3.2c4.2,2.4,3,3.1,8.8,4.8c1.6,0.2,2.4-2.9,4.3-3.4V50l2.7-2.5l1.4,3l1.8-0.6
		c-0.7-0.2-1.5-1.1-1.4-1.8c2.9-1.1,6.9,1.8,6.9,3.1c2.3-0.7,4.5-1.3,6.8-1.9c-0.2,1-1.3,1.3-2.2,1.9c3.6-2.4,0.6,2.6,3.9,0.4
		c-0.4-0.6,0.3-1.5,0.4-2c1.6,1.5,5.3,1.7,8.1,1.1l-0.6,1.7c2.5,0.3,5.1,0.1,7.8,0c2.7-0.1,5.5-0.3,8.3-0.2c-2-0.9-1.4-3.8,0.3-4
		l0.5,2.6c1.1-1.6-1.7-1.1,0.6-2.9c2.1,0.4,1.3,3,0,3.8l2.6-0.8c0.1,0.8-0.5,1.2-0.7,2.2c1.1-1.6,4.2,2.8,5.9,0.1l0.1,0.8
		c5.6,0.3,8.1-0.4,12.7-0.3c0.2-2.2,2-1.6,3.4-3.4c3.3,0.9,6.9,2.9,10.9,3c2.9-0.9,1-1.8,2.3-3.1c0.1,2.1,4.1,2.2,1.9,3.5
		c4.9,0,6.2,0,12.4-1.2c-0.6-0.9-1.3-1.3-0.9-2c1.1-0.2,2.5,1.1,2.2,2l-0.3,0.2c7.1-2.5,15.3,7.3,21.1,3.6l-0.3,0.2l5.9-1.7
		c2.6,0.6-1.7,1.4,0.1,2.8c6.4-2.8,9.6,1.4,14.8-0.3c3.2,6.5,13.8,1.1,18.6,5.5l-0.1-1.5c1.5-1.2,1.5,1,2.5,1.5
		c0-1.1-1.3-1.5-0.4-2.1c5.8-0.1,11.7,1.1,17.5,2.7c5.8,1.7,11.6,3.7,17.4,5.2c4.2,1,3.5-7,8.4-2.8l-1.9,2.4
		c9.1-1.9,17.7,2.7,26.6,1.3c-0.6,0.5-0.7,1.3-1.6,1.2c1.5,2.2,6.6,1.1,6.9-0.5c1.3,0.4,0.1,1.4,0.8,2.4c1.6,1.4,4.9-1.8,5.6,0.3
		c0.1,0.3-0.6,0.5-0.9,0.6c1.3-0.7,5.4,1,4.6-1.3c3,1.5,6.3-0.1,8.6,1.6c2-2.2,5.3,2,6.3-1.4c-0.7,3.5,5.2,3.7,7.5,2.3
		c-0.8,1,1.6,1.4,0.6,2.8c2.3,0.3,4.5-0.1,4.4-2c3.7,4.9,9-2.3,10.8,3.5c3.6-0.5,7-0.9,10.3-1.2c3.3-0.3,6.5-0.4,9.7-0.6
		c-0.3,1.8-2,1.7-3.7,1.6s-3.3-0.1-3.4,1.8c6.1-0.8,9.8-3.5,15.6-2.1c1.5,0.6-1,1.5-1.6,2c6.1-0.9,11.5,1.4,16.9-0.2
		c0,0.3-0.6,0.7-1.2,0.9c1.1,0,2.4,0.7,2.4-0.9l-0.8,0.2c-1.5-2.5,4.5-4.7,4.8-5.9c-1,2.3,0.2,2.7,1.4,3.2c1.1,0.5,2.2,1.2,0.6,4.1
		c0.7-0.3,1.6-1,1.5-2.1c1,0.4,1.3,1,0.2,2.2c3.8-0.7,2.6-2.5,6-2.3c-0.1,0.8-0.8,1.1-1.2,2c1.8-1.5,3.6-2.9,6.4-2.1
		c-0.2,0.5,0.1,1.1-0.7,1.1c2.5,0,4.6-1,6.8-1.7s4.4-1.3,7.1-0.5c-1.7,3.4,1.8,1.2,2.1,4.2l2.9-0.8l-1.2-1.5c2.6,0.1,4.8-2.1,7-1.1
		l-1.9,1.2l4.8-0.6l-2.7-1.1c2.6-1.6-0.3-3.8,3.1-3c-0.7,0.3,2.5,0,3.9,1.8l0,0c1.2-0.9,2.5-2,4.4-1.3c0.5,0.9-0.3,3.3,0,3.9
		c1.2-2.5,6-0.9,7.4-3.6c-0.5,0.6-0.4,2.2-0.3,2.5L643,77c1.2,0.6,1.4,0.9,1.3,2.1c3.6,0.1-1.3-3.7,2.9-2.4
		c-0.3,0.2-0.1,0.5-0.8,0.8c4.3,0.5,8-1.8,12-1.2c1.4,2.9-3.3,1.1-1.8,3.5c2.8-0.5,5.6-1.7,8.4-2.8c2.8-1,5.5-2,8.3-2l-1-0.2
		c0.1-2.2,1.2-1.8,2.5-1.1c1.4,0.6,3,1.5,4.2,0.3c-0.6,0.4-0.5,2.5-0.4,2c1.9,0,3.7-0.5,5.8-1.4c2-0.9,4.3-2,6.9-3.2l-0.5,1.2
		c2.3,0.5,5.8-0.6,8.2-0.6c0.5-1.2,1.8-1.3,0.7-2.7c4.2,2.2,7.5,0.5,10.5-1.2c3-1.8,5.8-3.8,9.7-2.2c-0.7,0.2-1.5,1.4-0.9,1.3
		c1.7-0.8,3.4-1.6,5-2.5c-1-1.6-1-0.8-2.5-1.9c0.3-1.2,1.6-2.6,2.8-3c-2,1.9,0.9,2.8,2.3,3.5c-0.3-0.5-0.2-1.2-0.5-1.7
		c3.8,2.2-0.7-3.7,3.7-2.8l0.1,1c1.2-0.9,2.1-2.5,3.6-2.9c1.3,1.8-1.1,1.5-0.6,3.2c2.1-0.9,2.7-5.4,5.3-4.1
		c-0.7,0.9-1.9,1.4-2.6,2.3c2.9,1.6,3,0.9,4.6,0.7H740l4-0.3l-1.2-0.3c0.3-3.1,1.5-3.9,2.9-4.5s3-1.1,4-3.5c-1.9,4.6,0.3,2.1,1,4.4
		c1.2,0.2,2.8,0.3,2.7,1.1c0.4-1.3,1.3-1.2,2.2-1.3s1.8-0.4,2.3-2.2c0.4,0.7,1.8-0.8,2.3,1.2c1.8-1.6-1.1-1-1.3-1.9
		c1-2,3.3-2.2,5.7-2.6c2.4-0.4,4.8-1.2,6.2-4.1c1.6-1.7,2.2-3.3,2.8-4.8s1.1-3,2.5-4.7c1.8,0.3,0.5,3,0.5,3c2.5-0.2,3.8-1.3,5.1-3.1
		c0,0.8,0.7,1,1.7,1.4c1.3-1.1-0.6-3,1.9-3.3c0.2,0.9,0.6,2.4,0.4,3.6c1.3-1.8,2.1-4.1,3.3-5.9c1.2,0.8,0.2,2.4,0.1,3.6
		c1.6-1.9,4.3-4.5,3.6-6.6l-1.7,0.2c0.6-0.6,1.5,1.2,1.2,1.9c-0.6,2.5-2.8,1.1-3.3,0.5l0.9-1.2c-2-1.4-3-0.4-4,1.1
		c-0.9,1.5-1.7,3.7-3,4.3l-0.8-3.4c-0.3,1.3-0.7,2.6-1,3.9c-1-0.4-2.4-1.7-1.4-2.9c-2.6-0.3-0.9,2-3.4,1.4c-0.3-0.1-0.3-0.3-0.2-0.5
		l-1.2,1.9c0-0.8-1.5-1.8-0.2-2.1c-2,0.1-2.9,1.4-3.7,2.5c-0.7,1-1.3,1.9-2.5,1.1l0.2-0.3c-3.8,3.4,0.8,2.4-1.2,6.7
		c-1.7-1.3-3.4-2.7-5.1-4.1l0.7,2.4c-0.5,0.2-1.5,0.5-1.8-0.5c-1,2.3,0.8,0.8,0.5,2.7c-3.3-0.9-5.8,4-8,0.7c0,2.1,2.8,0.2,0.9,2.6
		c-1.2-1.7-1.8-1.2-2.5-0.4s-1.4,1.9-2.9,1.5c-0.2-2.3,2.2-2.1-0.7-2.9c0.2,3.9-4.4,1-5.8,2.4c0.5,1.4-0.3,2.1-1.6,2.7
		c-1.3,0.6-3.1,1-4.4,2.1c-0.1-0.5-1.6-0.3-3.6,0c-1,0.1-2,0.3-3,0.5c-1,0.1-2,0.2-2.8,0.2l-0.1-0.5c0.4,3-2.7,3.4-4.7,4.7
		c-0.4-1.7-0.3-2.5,0.6-3.6l-2,0.7c-0.2,1-0.7,1.8-1.9,2.5l-0.5-2.5c-2.6,0.9-4.7,4-8.6,3.6c0.3,2,4.3,4.7,0.9,7.1
		c-0.4-1-1-2.8-0.2-3.5c-0.3,0.2-0.9,1.2-1.7,0.9c0.3-0.7,0.7-1.5,1-2.2c-1.8-0.3-0.4,1.7-1.8,1.9c-0.4-1.5-1.2-0.9-1.4-2.1
		c0.3-0.2,1.3,0.4,1.6-0.4c-1.5,0.1-3.5-0.4-4.3-1.4c0.3,0.8,0.5,2.1-0.5,2.5c-2.7,0.8-1.4-1.6-3.1-2c-0.4,1.2-2.4,0.5-1.9,2.9
		c-0.8,0.2-1.2-0.9-1.6-1.4c-1.2,1.3-6.6,1.6-4.5,3.8l0.4,0.1c-0.1,0.1-0.1,0.1-0.2,0.1l0,0l0,0c-2.1,1.6-4.6,1.9-7.2,1.7
		c-2.5-0.1-5.1-0.3-7.4,0.5l-0.1-0.8c-0.7,0.3-1.4,0.6-2.1,0.8c-0.7,0.2-1.5,0.4-2.2,0.6c-1.4,0.4-2.8,0.9-3.7,1.9
		c-0.8,0.1-2.2-1.2-1.9-2.2c-2.1,0.8-2.2,1.8-5.5,0.8c2-1.6-0.9-1.1,2.1-1.2c-2.9-0.4-3.6-1.6-6.4,0.9c0.8-2.1-2.3-2.3-3.6-1.6
		l2.1,1.2c-1.5,0.4-2.8,0.4-4.1,0.3l0.5-2.7c-3-1.4-5.4,0.1-7.7,1.4c-1.2,0.6-2.3,1.2-3.4,1.3c-1.1,0-2.3-0.4-3.4-1.7
		c-1.4,1.9,3.2,1.2,1.9,3.4c-2.7-0.3-5.5-4-6.4-4c-3.6-1.3-3.3,4-7.1,3c0.5,0.9,1,3.5-1.8,4.4c-2.7-0.3-3.3-3.9-1.6-4.7
		c0.6-0.1,0.9,0.2,0.9,0.5c0.9-0.4,2-0.8,0.9-1.8l-0.3,1c-1.3-1-4.9-0.8-4.1-2.4c-2,0.9-0.9,1.6,0.6,2c-3.4-1.3-5.3-0.1-8.8-1
		c0.5,0.5,1,1.7,0.5,1.6c-5.1-1.3-2.3,1.8-5.8,2.1c-1.9-1.5,0.8-3.4-2.7-2.3c-2.1-1.1-0.4-2.5,0.5-3.3c-3.2,1.7-5.9-1.4-7.7-1.8
		l1.7-0.7c-1,0.4-1.8,0.4-2.7,0.3l0.9,2c-1-0.4-1.8-0.4-1.7-1.2c-1.1,1.2,0.6,3.2-1.5,4.8c-1.3-1-4.1,0.8-4.4-1.7
		c4.1,1.1-0.3-2.6,3.2-2.8c-0.7,0.3-1.5,0.2-2.5-0.2c-0.1-0.3,0.2-0.5,0.4-0.6c-3.8-2.5-2,2.8-6.1,2.4c0.6-1.4-0.8-2.8-1.4-2.5
		c1.6,0.2,0.6,2.4-1,3.4c-2.5-1.3-2.9,0.6-4.3,0.4l1.5,0.6c-0.6,1.4-1.9,1.1-3.8,1.4c-0.1-1.1,1.7-0.6,1.1-1.2
		c-2.2,2.4-4.4-3-7.4-1.5c-1.2-1.1,0.1-2.7-1-3.4c-3.3,1.5-3.2-2.2-6.7-1.1c0.8,2,1,1.6-1.6,3.2c1.9-0.3,3.7-0.5,5.6-0.8
		c-1.3,0.8-2.5,1.6-3.8,2.4c1.7,0.2,3.6-0.8,4.6-0.4c-1.8,1.4-1.6,0.9-1,2.6c-2-3-4.7,1.2-7.1-1l0.6-4.7c-3.7-2.5-7.2,1.7-12.2-0.1
		l1.5,1c-0.9,1.8-3.2-0.1-4.9,0.5c0.3-1.6-0.6-2.2-1.2-3.3c-0.1,1.2-3.7-0.6-4.6,2.5l-2-2.4c-4-1.4-5.3,3.9-9.2,2.8
		c1.4-1.5-0.2-2.9,2.6-3.7c-1.3-0.2-2.5-0.6-2.6,0.4c-0.6-1.1-4,1.6-5,0c-0.7,0.6-1.1,2.2-2.5,1.9c-0.1-0.3,0.1-0.8,0.1-0.8
		c-0.1,0.8-2.5,0.7-1.4,2.6c-3.4-5.5-11.5-1.3-14.4-6c-3,0.1-6.5,0.1-9.2-0.2c0.2-0.4,0.1-0.8,0.6-0.5c-3.4-2-2.9,4.2-6.8,1.9
		c-1.7-2.8,2.4-1,1.2-2.2c0.2-5.2-5.1,0-7.4-3.5l0.7-0.2c-1.9-2.1-5.5,1.2-8.9,0.3c0,0,0.2-0.4,0.1-0.8c-2.8,2.3-7.4,2.5-10.8,2.7
		c1.3-1.9,1.7-0.8,1.3-3c-1.5,0.1,0,3.3-3.1,3.5c-0.8-1.2-2.8-2.5-2.8-4.7l2.8,0.3c-1-3-3.7-0.4-5.1-1.1l0.4-1.2
		c-4.4-0.2-4.9,2.9-9.5,2l0.4,1c-3,2.7-1.9-2-4.8-0.1v-3.1c-1.8,0.5-6.3,2.2-9.4,2.4c2-2.1,5.7-2.8,8.1-3.9
		c-1.7-0.2-5.7-0.5-6.8,0.9c0.7-0.2,1.7-0.9,2.3-0.3c-2.4,2.2-5.2,3-8.5,2.6c1.4-6-8.5-2.6-10.3-7.6c-6.2,1.5-11.6-2.3-18.5-2.7
		c1.9,5-2-0.1-2.1,4.8c-1.6,0.1-2.2,0-2.3-0.3l-4.5-3.4c-1-1.5,1.6-0.9,1.6-2c-3.5-0.7-1.3-2.2-3.5-3.7c0.3,1.8-1.5,2.4-3.4,1.5
		l2.6,2.5c-5.2,2.1-3.8-4.5-9.1-2.4l1.7-1.4c-2.6,0.7-9.4-1-12.2,2.8c-0.4-0.6-0.9-2,0.3-2.2c-6-1.1-13.9,3-18.4,0.2l0.6-1.2
		c-1.2,0.3-2.2,2.1-3.5,0.8c0.1-0.5,0.5-1.2,0-1.3c-0.6,0.4-3.2,1.9-4.6,1.1l1.4-1.2c-5.8-2-9.4,2.6-14.4,3.1
		c0.2-3.5-4.4-4.9-6.7-5.6l0.1-0.5c-6.9-0.8-11.9,2.2-18.4,3.3c-1.9-2-5.3-2.5-8.9-2.9c-3.7-0.4-7.6-0.5-10.8-1.7
		c1,0.7-0.3,2.7-1.4,3.1c-1.5-0.8-4.2,2.3-3.9-0.9l0.5,0.1c-1-3.2-4.2-2.5-6.6-2.6l-0.5,4.2c-1.5-1.6-3.3-2.3-5.2-2.5
		c-1.9-0.2-3.9,0.1-5.8,0.4c-3.8,0.6-7.2,1.3-8.9-1.5c-1.5,1-3.4,1-4.9,2l0.1-2.3c-4.2-0.6-6.3-0.9-11.6-0.3l1.1-1.6
		c-3-0.1-3.7,6.5-6.4,6.7l-0.8-3.4c-5.1,0-10.4-2.8-15.4,0.3c0.1-0.5,0.2-1.5,1-1.6c-2.4-0.1-9.4-2.1-8.4,2.5c-0.1-3-5.3-0.1-8,1.3
		l0.4-2.2c-2.3,2.9-2.3,3.7-5.5,4.6c-0.8-0.3-0.7-1.8,0.3-1.2c-2.6-1.1-1.9,2.2-5.1,1.1l1.1-1.5c-2.7-0.1-2.4,0.7-3.8,2.4
		c-1.6,0.9-5-0.3-5.5-2.3c-0.3,1.2-1.7,3-3.3,2.5c-0.2-0.8,0.3-1.3,0.6-1.5c-4.5-1.3-6.5,2.9-9.6,0.9c-0.1-0.7-0.3-1.1-0.6-1.3
		c3.5-0.1,6.4-0.1,6.1,0c-0.1-2.1-3-2.3-0.8-5.2c-2.2,1.7-5.9,5.2-8.8,4.4c-0.1-0.2-0.3-0.4-0.4-0.7l0.3-0.2
		c-0.7-0.2-1.2,0.1-1.7,0.4c-0.9-0.3-1.5-0.5-2.3-0.5c-0.4-1.7-3.3-0.7-4.7-0.7c0.3,2.2-1.6,2,0.2,3.7c-0.2-0.1,0.3-0.3,1.2-0.4
		c0.2-0.1,0.5-0.1,0.6-0.3c0,0.1-0.1,0.1-0.1,0.2c0.9-0.1,2.1-0.3,3.5-0.4c-1.1,1.2-2.2,2.3-3.8,1.1c-0.6,1.5-1.3,3-1.7,3.8
		c-2.1-3-6-4.4-6.7-6.3c-4.2,1.5-10.1,1.6-12.5,6c-1.2,0.6-1.5-1.1-2-1.7c0.7-0.5,1.5-0.5,1.9-1.1c-2.4,1.3-7.2,1-7.6,4
		c-3.2-1.1,1.5-2.9-2.7-2l0.5-0.9c-2.2-1-4.1-0.9-5.9-0.4c-1.8,0.6-3.4,1.6-5.1,2.7c-3.4,2.1-6.7,4-11.8,1.7c0.7,0.3,1,0.4,1.2,0.9
		c-5.5-0.6-10.9,0.9-16.2,2.4c-5.4,1.5-10.6,3-16.4,2.5c-3.2,0-3,2-4.3,3.9l-1.4-2.1c-0.7,1.2-1.4,2.4-2.1,3.7
		c-1.7,1.8-4.1,1.1-6.5,0.7c-1.2-0.1-2.5-0.2-3.6,0.1c-1.2,0.3-2.3,1.1-3.1,2.6l1.4,1.1c-1,0.3-2.3,1.3-3.5,1.9
		c-1.2,0.6-2.1,1.1-2.4,0.1c0,0.4,0.3,1.8-0.9,1.5L46.2,61c-1.1,1.5-2.2,2.9-3.2,4.5c-1.9,0.7-2.5-0.4-3.2-1.3
		c-0.7-0.9-1.6-1.7-4.1,0c-0.7,0.9-1.4,2.6-1.8,4.1c-0.3,1.5-0.3,2.7,0.3,2.8c0.7-0.5,2.2-0.7,3.1,0.2L36.2,73
		c1,1.5,1.9,3.3,3.2,4.5c1.2,1.2,2.9,2,5.3,1.8c0.3-1.2,0.6-2.4,1-3.6l1.8,0.9c-0.7,0.5-1.3,1-1.9,1.5c2.1,0.5,1.9-1.1,2.2-2.6
		c0.7,0.7,1.4,1,2.1,1c0.1-1.5,0.3-3.1,0.5-4.6c1.1,1.1,0.4,3.1,2.5,2.8c0.3-2.1-2.8-2.1-1.4-4.2c2.1,0.7,2.4,2.2,3.1,0
		c0.7,0.7,0.7,1.4,0.3,2.1c0.7-1.8,3.2-2.2,3-4.4c0.6,0.3,1.1,0.3,1.6,0.1c0.5-0.1,1.1-0.4,1.5-0.6c1-0.4,1.9-0.5,2.5,1.1
		c0-0.5,0.4-1.4,0.8-2.3c0.5-0.9,1.1-1.6,1.7-2c-0.8,4.8,4.9-1.7,5.8,2.9c0.2-2.1,1.7-3,3.4-3.8c1.7-0.7,3.7-1.3,5-2.8
		c-0.1,0.3-0.3,1-0.6,0.9c1.9-0.2,2.7,0.8,4.1,1.2c-0.5-3.1,2.1-4.5,3.3-6.7c3,2.5-0.6,3.9,0.8,6.6c-0.7-2.4,3.4-3.3,2.2-5.2
		c2.1,1.4,1.7,0.6,3.1,2.9c-0.4-3.9,1.5-1,2.5-3.6c2.9,1.4,1.3,3.5,3.9,1.8C100.5,59.6,98.2,61.4,98.2,61.4z M166.7,48
		C166.7,48.1,166.7,48.1,166.7,48c-0.6,0.1-1.1,0.2-1.4,0.3C165.5,48.2,165.9,48.2,166.7,48z M172.5,47.7c-0.7-0.1-1.6,0-2.6,0
		c-0.2-0.8-0.1-1.6,0.5-1.6C170.2,46.7,171.6,47.1,172.5,47.7z M159.1,32.9c0.9-0.4,1.3,0,1.4,0.5c-0.4,0.1-1,0.2-1.6,0.4
		c0,0.1-0.1,0.2-0.1,0.3C158.9,33.6,158.9,33.2,159.1,32.9z"/>
	<path class="st0" d="M157.6,35.9c-0.1,0.1-0.2,0.2-0.4,0.2c0.2,0.2,0.4,0.3,0.6,0.5c0.1-0.2,0.2-0.5,0.3-0.7
		C157.9,35.9,157.8,35.9,157.6,35.9z"/>
	<path class="st0" d="M692.7,64.1L692.7,64.1c0,0.1,0.1,0.1,0.2,0.3C692.8,64.2,692.8,64.1,692.7,64.1z"/>
	<polygon class="st0" points="254,50.5 254,49.9 253.5,50.4 	"/>
	<path class="st0" d="M726.3,63.3c0.1,0.2,0.3,0.3,0.6,0.4C726.9,63.5,726.6,63.4,726.3,63.3z"/>
	<path class="st0" d="M740,58.9h2.2C741.2,58.8,740.6,58.9,740,58.9z"/>
	<path class="st0" d="M750.7,55.7c0-0.4-0.1-0.7-0.2-1l0,0L750.7,55.7z"/>
	<path class="st0" d="M578.3,81.1c-0.1,0-0.3,0-0.4,0.1C576.9,81.5,577.5,81.4,578.3,81.1z"/>
	<path class="st0" d="M630.3,77.5c-0.5,0.4-1.1,0.8-1.6,1.1C629.6,78.7,630.3,78.8,630.3,77.5z"/>
	<path class="st0" d="M520.5,77.3L520.5,77.3c-0.1,0-0.2-0.1-0.3-0.1L520.5,77.3z"/>
	<path class="st0" d="M626.3,78.6c0.9,0.4,1.7,0.3,2.4,0C627.9,78.4,627,78.2,626.3,78.6z"/>
	<path class="st0" d="M793.2,32.7l0.5-0.2c-0.1-0.1-0.1-0.2-0.2-0.3L793.2,32.7z"/>
	<path class="st0" d="M793.5,32.1l0.3-0.6C793.7,31.7,793.5,31.8,793.5,32.1z"/>
	<path class="st0" d="M794.6,30.3c-0.2,0.4-0.5,0.8-0.7,1.2C794.2,31.3,794.7,31,794.6,30.3z"/>
	<path class="st0" d="M780.3,40.1l0.3,0.8C780.6,40.7,780.5,40.4,780.3,40.1z"/>
	<path class="st0" d="M776.7,42.7c1-0.4,3.2,0.1,4.2-1.2l-0.2-0.6C780.7,42.3,776.8,41,776.7,42.7z"/>
	<path class="st0" d="M755.7,42.5l3.5-1c-1-0.5-2.2-1.2-0.9-2.1C753.2,39.1,760.1,40.8,755.7,42.5z"/>
	<path class="st0" d="M745.1,46c1.6-1.1-0.5-1.1-0.6-1.6C743.7,45.6,743.5,45.9,745.1,46z"/>
	<path class="st0" d="M667.5,66.3l-0.1-2.1C666,64.8,667.5,65.1,667.5,66.3z"/>
	<path class="st0" d="M653,78.4l1.6,1.2l0.6-1.9C654.4,78,653.7,78.2,653,78.4z"/>
	<path class="st0" d="M642.8,64.5l0.6-0.3c-0.8,0.3-1.6,0.6-2.4,0.9C641.6,64.9,642.2,64.7,642.8,64.5z"/>
	<path class="st0" d="M507.4,55.5l0.1,2.6C508.6,57.8,509.2,55,507.4,55.5z"/>
	<path class="st0" d="M448.2,49.5c-0.5-1.3-2-2.4-3.2-1.3C446.3,48.6,447.5,49.7,448.2,49.5z"/>
	<polygon class="st0" points="270.1,30.5 271.3,29.7 269.1,30.3 	"/>
</g>
</svg>
