<svg viewBox="0 0 916.5 201.6">
<style type="text/css">
	.st0{opacity:0.9;}
	.st1{fill:#FEC1FE;}
	.st2{fill:#FFD9FF;}
	.st3{fill:#FD7CFD;}
	.st4{fill:#FD62FD;}
	.st5{fill:#FEAAFE;}
	.st6{fill:#FE95FE;}
	.st7{fill:#FD46FD;}
</style>
<g class="st0">
	<g class="st0">
		<g>
			<path class="st1" d="M903.8,71.4c-1.6-0.7-3.9,0.8-5-1.2c0.9-1,1.6-2.2,2.5-3.3c0.8-1.1,1.4-2.3,2.2-3.4c1.2,0.6,2.3,1.7,2.6,3.1
				c0.2,0.7,0.1,1.5-0.2,2.4C905.5,69.8,904.8,70.6,903.8,71.4z"/>
		</g>
		<g>
			<path class="st1" d="M884.5,143.4c-1.5,0.6-3,1.3-4.6,1.8c-1.5,0.6-3,1.1-4.5,1.7c-3,1-6.1,2.1-9.2,3c-1,0.2-2,0.3-3,0.5
				c-1,0.1-2,0.3-3,0.4c-1,0.1-2,0.3-3,0.4c-1,0.1-2,0.2-2.9,0.4c-1,0.2-2.1,0.4-3.1,0.5c-5.5,0.5-11,1-16.4,1.1
				c-1.9,0.2-3.8,0.3-5.7,0.4c-1.9,0.1-3.8,0.2-5.7,0.2c-0.3-0.1-1-0.5-1.6-0.8c-3.6,0.4-7.3,0.7-10.9,0.9c-1.3-0.5-2.2-1-3.1-1.5
				c-2,0.6-4.3,1.3-6.3,2.1c-3.5-0.1-7.3-0.3-10.8-0.6c0,0.2-0.1,0.5-0.1,0.8c-4.3-0.2-8.5-0.4-12.7-0.6l-12.5-0.7
				c-6.9-0.7-13.7-1.8-20.6-2.7c-6.9-0.9-13.6-2-20.5-3c0.2-0.8,0.3-1.6,0.5-2.4c-2.7-0.4-5.8-0.8-8.8-1.2c-0.2,0.8-0.3,1.6-0.5,2.4
				c-3.8-0.5-7.6-1-11.5-1.5s-7.8-0.9-11.5-1.4c-3-0.5-6-1-8.7-1.5c-7.4-4.2-6-0.9-8.7-1.5c-3.1-1.4-6.2-2.8-9.6-4.2
				c-1.2-0.2-2.7-0.5-4.2-0.8c-2.9-1-5.4-2-8.3-3c-17.9-3.1-28.5-6.4-43.7-9.6c-9.6-1.3-29.1-3.5-34.3-9.6
				c-6.7,0.9-12.9-1.2-18.8-2.2c0.9-2.3-4-2.1-6.4-3.6c-1.8-0.4-3.8-0.8-5.5-1.1c-2.9-0.6-5.5-1.1-8.5-1.7c-2.6-0.5-5.5-1.1-8.5-1.7
				c-9.3-1.9-18.7-3.6-28-5.3c-3.1-0.9-6.3-1.8-9.4-2.5c-3.3-0.4-6.8-0.7-10.1-1c-3.2-0.4-6.5-0.6-9.8-0.9c-3.6,0.1-7,0-10.3,0
				c-0.6-0.1-0.9-0.1-1.5-0.2c-4.1-0.4-8.5-0.8-12.7-1c-4.7-0.5-9.4-0.8-14.2-1.1c-2.9-0.7-5.4-1.3-8.3-1.8c-4,2.4-10,1-14.3-0.1
				c-4-0.3-7.9-0.5-11.9-0.7l-6-0.4l-6-0.3c-3.1,0.7-6.1,1.6-8.9,2.4c-0.5-1-0.9-2.2-1.1-3.2c-3.8-0.1-7.6-0.2-11.3-0.3
				c-3.8-0.1-7.5-0.1-11.3-0.2c-0.2,1.6-0.3,3.1-0.4,4.7c-5.7,1-7.3,3.6-8.9,4.4c-3.2,0.1-6.4,0.2-9.6,0.4
				c-5.2-0.7-9.2-1.4-12.4-1.5c-3.1-0.2-5.4,0.1-7.1,1.3c-6.7,0.6-13.1,1.2-19.8,1.8c-4.7-0.7-8.6-1-11.2-0.8s-4,1-3.8,2.1
				c-2,0.1-3.7,0.2-5.8,0.3c-4.6,0.2-9.2,0.5-13.8,0.8c-4.2-0.6-6.6-0.2-8.2,0.4c-1.5,0.6-2.1,1.5-2.7,1.9c-1.9,0.2-3.7,0.3-5.6,0.5
				c-1.8,0.2-3.6,0.4-5.3,0.5c-4.6,0.5-9.4,1-13.7,1.5c-7.7,0.3-6.2,2-11,3c-2.6-0.1-5.5-0.2-8.4-0.4c-0.9,0.1-1.7,0.2-2.6,0.4
				c-2.2,3.5-7.7,3.4-10.9,3.4c-0.9,0.1-1.7,0.3-2.5,0.4c-1.3,3.2-5.6,3.2-7.9,3.1c-0.7,1.1-1.4,2.2-2.4,3.6
				c-3.7,0.1-7.1,0.3-10.8,0.6c-2.8,0.5-5.3,1.2-8.1,1.8c-0.7,1.1-1.3,2.5-2,3.6c-1.4,0.1-2.8,0.1-4.2,0.2c-1.4,0.1-2.7,0.2-4,0.3
				c-5,0.9-9.8,1.7-14.7,3c-0.9-1.6-1.6-3.4-2.6-5c2.1-1.2,4.1-2.6,6.2-4c0.6-0.1,0.8-0.2,1.4-0.3c1.2,1.4,2.3,2.6,3.7,3.9
				c2.2-0.6,4.2-1,7.7-2c3.3-2.6,7.9-2.8,10.4-4.9c2.6,0,5.5,0,8.4-0.1c3-0.9,6.1-1.8,9.1-2.7c1.6-0.8,3.5-1.7,5.2-2.4
				c2-4.3,6.1-4.1,9.2-4.9c-0.1-0.6-0.2-1.4-0.3-2.3c0.9-0.1,1.7-0.3,2.9-0.5c2-0.2,4-0.5,6.1-0.6s4.2-0.3,6.3-0.4
				c5.8-0.2,7.5-3.4,9.2-5.2c2.9-0.7,5.7-1.4,8.3-1.8c1.7-0.1,3.8,0.1,5.6,0.2c1.1-0.8,2-1.3,2.8-1.9c2.1-0.1,4.2-0.2,6.3-0.3
				c2.1-0.1,4.2-0.1,6.3-0.2c4.2-0.1,8.3-0.2,12.4-0.1c2-1.3,3.8-2.4,5.8-3.5c3.5,0.2,7.3,0.6,11.1,0.9c1.9-0.2,3.7-0.4,5.5-0.6
				c1.8-0.2,3.7-0.4,5.6-0.6l4.4-0.1c0-0.5,0-1,0-1.5c4.1,0,8.5,0.3,12.6,0.6c0,0.5,0,1,0,1.5c4.1,0.4,6.1,0,7.6-0.6
				c1.6-0.6,2.7-1.4,5.1-1.7c1.6-0.1,3.3-0.3,5-0.5c1.7-0.1,3.4-0.2,5-0.3c-1.2-2-3.5-3.3-6-3.7c-2.4-0.4-5,0-6.5,1.3
				c-1.2,0-2.1,0-2.9,0c-2.9-1.2-5.5-2.1-8.4-3.2c5.1-2.9,9.8-3.2,14.3-3.2c4.4,0,8.6,0.6,12.9-0.6c2.3,0.1,4.1-0.2,5.7-0.8
				c1.6-0.5,3-1.2,4.4-1.8c2.8-1.2,5.6-2,10.4,0.1c7.9,2,12.9,1.7,14.4-0.7c4.2,0.1,8.4,0.2,12.7,0.3c4.3,0.2,8.6,0.4,12.9,0.7
				c1.7,2.9,5,0.8,8.5,1.6c2.1-0.6,4.1-0.9,6.1-1.1c2-0.2,4-0.2,6,0c3.9,0.2,7.8,0.9,11.6,1.6c3.8,0.7,7.7,1.4,11.6,1.8
				c3.9,0.4,7.9,0.3,12.1-0.6c6.7,3.3,10.6,1.7,17.3,1.8c4.7,0.9,9.3,2,14,3.1c4.2-1.9,7.9-0.4,11.8,1.3c3.9,1.8,8.1,3.9,13.3,3.7
				c4.3,1.1,8.4,2.2,12.4,3.1c6,0.6,15.3-0.8,15.7,2.2c5.4,0.7,5.8,5.1,13.4,5.2c8.4-0.4,19.1,3.5,24.8,1.9
				c9.3,4.7,29.1,3.4,38.9,9.5c8.9-1.1,22.8,3.7,34.1,5.4c2.4,0.5,4.7,0.9,7.1,1.4c-0.7,1.7,3.2,2.1,5.2,2.5
				c2.1,0.2,4.5,1.6,6.1,0.3c0-1.3,4,0.2,7.7,3.9c0,0.2-0.1,0.5-0.2,0.8c-2.6,0.5-4.9,1.1-7.8,1.7c3.3,2.9,6.3,3.5,9.2,5.6
				c0.8-0.7,1.3-1.4,2-2.1c2.5-0.2,5.1-0.5,7.6-0.9c1.5,1.2,3.4,2.7,4.9,4c7,3,4.3-2.4,9.5-2.3c3.9,2,8.1,4,12,5.9
				c4.9,0.2,9.1,1.5,13.2,2.6c4.1,1,8.1,1.9,12.6,1.3c1,1.4,1.6,2.8,2.3,4.2c1.5,0.1,3,0.2,4.4,0.3c1.5,0,2.9,0,4.5,0.1
				c4.8,0.9,9.6,1.8,14.4,2.5c3.1-2.1,11.8-2.3,11.6,1.1c4.9,0.4,9.7,1,14.7,1.3c3.3-1.1,6.2-2.1,9.5-3.3c-1.8-3,4.8-4.4,9.4-3.4
				c0.8,1,1.7,2.2,2.5,3.2c2.2-0.4,4.2-0.9,6.4-1.3c1.8,0.8,4,1.5,5.9,2.3c1.9,0,4.2,0,6.1-0.1c1.6-0.1,3.2-0.1,4.7-0.2
				c1.5-0.1,3.1-0.2,4.7-0.3c3.9-0.7,6.3-1.3,8-1.9c1.7-0.6,2.9-1,4.3-1.7c-0.1-1.1-0.2-2.1-0.2-3.1c2.2-1.4,4-2.7,5.7-4.2
				c1-0.3,2-0.5,2.9-0.7c1-0.2,1.9-0.4,2.8-0.5c1.8-0.3,3.6-0.5,5.3-0.7c0.9-0.1,1.7-0.2,2.6-0.3c0.9-0.1,1.7-0.2,2.6-0.4
				c0.9-0.1,1.8-0.3,2.7-0.4c0.9-0.2,1.8-0.4,2.7-0.6c2.6-0.4,4.4-0.5,5.6-0.3c1.3,0.2,2,0.7,2.4,1.3c0.9,1.2,0.7,2.9,1.7,3.8
				c1.3-0.5,2.6-1,3.9-1.6s2.6-1.1,3.9-1.7c1.8,0.9,4,1.5,6.2,2.3c1.1,1.2-0.2,2.7-2.6,4.3c-1.2,0.8-2.7,1.5-4.2,2.2
				C887.8,142.2,886.1,142.9,884.5,143.4z"/>
		</g>
		<g>
			<path class="st1" d="M833.7,93.8c-4.6,2.4-7.3,1.9-9.5,0C828.3,91.8,833.5,89.5,833.7,93.8z"/>
		</g>
		<g>
			<path class="st2" d="M807.9,112.6c-1.2,0.8-2.7,1.4-4.2,2.1c-5.4-0.8-10.5-0.5-15.8-0.4c-5.2,0.1-10.6-0.2-16.2-1.9
				c-5.2,5,2.9,6.6-0.2,9.4c-1.8,2.3-5.4,0.1-8.6,1.5c-0.1,0.3-0.1,0.5-0.1,0.8c-3.7,4-3.9,5.3-4.1,6.6c-3.4,0.1-6.7,0.2-10.4,0.4
				c-2.4-1.9-5.1-3.7-7.5-5.6c2.2-3.5,8.6-0.4,9.1-3.6c2.2-0.3,4-0.5,6.2-0.7c-4.4-2.5-8.8-3.7-13-4.5s-8.3-1.3-12.1-1.9
				c-1.6-1.2-3.4-2.6-5-3.8c1.1-0.8,2.2-1.8,3.5-2.6c1.8-0.1,3.9,0.1,5.7,0c2.8,0.3,5.6,0.6,8.4,0.8l8.4,0.5
				c2.7,0.2,4.8,0.1,7.1,0.2c1.4-1.5,2.6-3,3.7-4.3c3-0.6,5.8-1,8.8-1.6c3.1,0.9,6.2,1.7,9.3,2.5c4.6,1.1,7.6-0.3,11.4-0.7l2.6,0.2
				c4.5,0.9,9.2,1.6,13.4,2.2C808.1,109.6,808,111,807.9,112.6z"/>
		</g>
		<g>
			<path class="st3" d="M875.6,91.2c-4.4,3.1-9.1,5.9-14.4,8.4c-0.5,0.2-1,0.5-1.6,0.7c-0.5,0.2-1,0.4-1.6,0.6
				c-1.1,0.4-2,0.9-3.1,1.2c-1.1,0.4-2.2,0.8-3.2,1.1c-1.1,0.3-2.2,0.7-3.3,1c-0.8,0.2-1.5,0.3-2.3,0.4c-1.5-1.2-2.9-2.6-4.4-4.1
				c-5.6,0.1-2.5,3.9-5.8,5.5c-4.5,0.8-9.3,1.3-14.3,1.7c-2.2-0.3-4.1-0.4-6.6-0.7c-1-1.5-2.3-3.1-3.6-4.7
				c-6.3-0.2-13.8-0.8-16.5,3.2l-2.6-0.2c-3.8,0.4-6.9,1.8-11.4,0.7c-3.1-0.8-6.2-1.6-9.3-2.5c-3,0.6-5.8,1-8.8,1.6
				c-3.2-0.4-6.4-0.8-9.9-1.2c-2.3,1-2.7,3.8-0.9,5.3l-8.4-0.5c-2.8-0.2-5.6-0.5-8.4-0.8c0.5-2.6,1-5.1,1.5-7.7
				c-2.4-1.7-5.1-2.7-8-3.3c-1.4-0.3-2.9-0.5-4.4-0.7s-3.1-0.3-4.7-0.5c-3.2-0.3-6.5-0.5-9.9-0.9c-1.7-0.2-3.4-0.5-5.1-0.9
				c-1.7-0.4-3.4-1-5.1-1.6c-14.5-5.1-28-3-39.9-8.9c22.4,1.3,43.9,7.1,60.4,6.6c-0.1,0.3-0.1,0.5-0.2,0.8c5,0.3,10,1.4,15.3,2.6
				c2.6,0.6,5.3,1.2,8.1,1.7s5.6,0.8,8.5,0.9c6.5-0.4,12.3-1.4,13.7,2.4c2.3,0.2,4.6,0.4,6.9,0.7c0.9-0.2,1.8-0.5,2.7-0.6
				c3.4,0.5,6.6,1.2,9.7,1.7c0.2-1.4,0.3-2.6,0.5-3.9c7.8-0.8,10.1-1.9,12.5-3c4.7,0.3,9.2,0.4,13.6,0.5c4.4,0.1,8.8,0,13.1-0.2
				c2.3,1.8,4.9,2.4,9.5,0c4.2-0.1,8.3-0.4,12.3-0.8l3-0.3l3-0.4c1-0.1,1.9-0.3,2.9-0.5c0.9-0.2,1.9-0.3,2.8-0.6
				c7.5-1.6,14.8-4.1,21.6-7.4C878.2,86.4,877.1,88.9,875.6,91.2z"/>
		</g>
		<g>
			<path class="st4" d="M797.5,93.6c-2.4,1.1-4.6,2.2-12.5,3c-0.2,1.3-0.3,2.4-0.5,3.9c-3.1-0.6-6.2-1.2-9.7-1.7
				c-0.9,0.1-1.8,0.3-2.7,0.6c-2.3-0.2-4.6-0.4-6.9-0.7c-1.4-3.8-7.2-2.8-13.7-2.4c-2.9-0.1-5.7-0.5-8.5-0.9
				c-2.8-0.5-5.4-1.1-8.1-1.7c-5.3-1.2-10.3-2.2-15.3-2.6c0.1-0.3,0.1-0.5,0.2-0.8c-16.4,0.5-38-5.3-60.4-6.6
				c11.9,5.9,25.4,3.8,39.9,8.9c1.7,0.7,3.4,1.2,5.1,1.6c1.7,0.4,3.4,0.7,5.1,0.9c3.4,0.5,6.7,0.7,9.9,0.9c1.6,0.1,3.2,0.3,4.7,0.5
				s3,0.4,4.4,0.7c2.9,0.6,5.6,1.6,8,3.3c-0.5,2.6-1,5.1-1.5,7.7c-1.8,0.1-3.9-0.1-5.7,0c-2.2-1.1-4.4-2.2-6.6-3.2
				c-4.3-1-1.9,2-5,2.3c-3.8-0.6-7.3-1.2-11.1-1.8c-3.9-0.6-7.9-1.3-11.9-2s-8-1.4-12.1-2.1c-4.4,0.5-10.3-1.4-15.6-2.1
				c-2.5-1.1-5.3-2.1-7.8-3.1c-6.7-3.6-9.9-4.6-12.4-4.1c-2.5-1.1-5.2-2.5-7.6-3.8c-2.2,0.1-4,0.2-6.2,0.4c-3-1.3-6.1-2.4-9.2-3.5
				c-4,0-8,0-12-0.1c-3.5-0.9-7.2-2-10.9-2.9l-7-1.5c-2.9-5.4-5.8,1.1-14.1-2.9c-0.4,0.4-1.1,0.8-1.8,1.1c-6,1.7-12.8-1.7-17.1-1.9
				c-2.7-1.4-5.2-2.7-7.9-4.1c-2.9-0.7-5.5-1.6-8.4-2.4c-4.3-0.4-8.8-0.7-13.1-1.1c-0.6-0.1-0.9-0.2-1.5-0.3
				c-5.3-1.2-10.2-2.5-15.5-3.8c-9.4-2.1-10.5,0-16.2,0.3c-8-3-10-1.2-13.3-1.7c-7.7-2.8-10.2-3.1-12.5-3.5c-3.3-0.5-6.7-1.1-10-1.6
				c-3.4-0.5-6.8-1-10.1-1.5c-2,0.5-3.7,1.7-6.2,1.4c-1.2-0.2-2.1-0.3-3-0.4c-2.7-0.5-5.6-1.2-8.6-1.9c-3.5-1.1-10.1-3.8-15.6-2.5
				c-6-1-11.7-1.9-17.5-2.6c-3.3,0.3-6.1,0.3-8.9,0.4c-2.8,0.1-5.7,0.1-9.1,0.4c-4.3,0.1-8.6,0.4-13.3,0.7
				c-6.9-1.1-11.2-0.9-14.9-0.6c-1.9,0.2-3.6,0.4-5.4,0.6c-1.8,0.2-3.7,0.3-6,0.2l-7.4,1c-2.5,0.4-4.9,0.7-7.4,1.1
				c-2.3,0.2-4.5,0.4-6.7,0.6c-2.2,0.2-4.3,0.5-6.5,0.7c-1.8-0.8-5.5,0.5-8.8,0c-4.4-0.5-8.2-0.7-11.7-0.8s-6.5,0.1-9.3,0.4
				c-2.8,0.3-5.2,0.7-7.5,1.2s-4.4,1.2-6.5,1.9c-2.4,0.4-4.9,0.7-7.4,1.1c-2.5,0.4-4.9,0.9-7.1,1.4c-3,0.2-6.1,0.4-8.8,0.6
				c-7.9-1.3-8.8,0.1-11.8,1c0,0.5,0,1,0.1,1.5c-4.2,0.4-8.5,0.9-13,1.3c-0.3,0.4-0.9,0.6-1.5,1c-2.7,0-5.8,0.2-8.5,0.2
				c-1.2,0.5-2.1,0.7-3,1.2c-3.3,0.6-6.9,1.5-10.1,2.2c-1.8-0.1-4-0.1-5.8,0c-2.7,0.6-5.6,1.4-8.6,2.2l-4.3,0.7l-3.7,1.1l-8.5,1.6
				c7.2-3.3,11.3-7.8,16.7-5.5c3-0.7,6-1.5,8.6-2.1c2.8-1.3,5.7-2.1,8.6-2.6s5.9-0.8,8.8-0.7c0.8-1.4,1.6-2.8,2.5-4.2
				c2.1-0.3,3.9-0.5,6.1-0.7c0.7-3.9,5-3.5,8.4-4c1.2-0.9,2.1-1.8,2.9-2.8c3.4-0.9,6.7-1.6,10.4-2.4c2.8,0.7,4.7,3.3,8.7,2.4
				c0.9-3.6-3-10.7,8.8-10.8c2.9,0,5.9-0.2,8.9-0.4s6.1-0.5,9.2-0.8s6.2-0.5,9.4-0.6c3.2-0.1,6.4-0.1,9.6,0.3
				c3.8-1.8,6.4-4,13.5-3.2c-0.4,1.9,3.6,1.6,6.1,1.6c7.1-0.2,8.5-2.3,16.2-1.4c1.2,0.3,2.1,0.5,3,0.9c4.8-2.3,4.3-3.3,7.8-3.6
				c-6.9-2.3-8-0.9-10.5-1.1c-0.9,0-1.9,0-2.8,0c-3.1-0.6-5.8-1.1-8.9-1.6c3.1,0.1,5.9,0.1,9,0.2c1.1-1.9,2.2-3.7,3.3-5.5
				c1.6,0,3.1,0.1,4.7,0.1c8.6,2.1,12.8,3.5,17.3,5.4c1.2,0.1,2.2,0.1,3.1,0.1c3.2-1,6.1-1.8,9.4-2.6c0.9,0.2,1.8,0.6,2.7,0.8
				c2.5-0.3,5.1-0.7,7.6-1c3.1,0.2,6.2,0.5,9,0.7c0.7-0.3,1-0.6,1.7-0.7c3.1,0.2,5.9,0.5,9,0.8c2.4,0.7,4.8,1.4,7.2,2.3
				c-0.2,1.4-0.5,3.1-0.7,4.5c0.8,0.7,1.7,1.3,2.5,1.9c0.6,0.1,1.2,0.1,1.5,0.2c5.1-1.1,10.3-2,15.5-3.1c-0.2-0.5-0.8-1.1-1.3-1.6
				c6.1,0.9,11.9,1.9,17.7,2.8c3.2-0.2,6.1-0.7,9.3-1.1c5.1,1.2,10.5,2.5,15.9,3.9c11.4-0.3,19.6-0.1,24.7,3.2
				c5.4,1.1,10.4,2.3,15.8,3.6c1.5,0.3,3,0.6,4.2,0.8c2.2,0.1,4,0.1,6.2,0.3c2.3,0.9,4.3,1.8,6.8,2.8c2.4-0.7,5-1.4,6.6-2.7
				c4.1,1.1,8.5,2.3,12.6,3.3c7.4,1.2,14.7,2.5,22.1,3.7c7.4,1.3,14.8,2.6,22.2,3.8c4.8,0.7,8.4-1.2,13.4-0.5
				c0.9,0.2,1.8,0.4,2.9,0.6c2.4,1.3,5.1,2.7,7.5,4c6.7,1.4,13.1,2.7,19.5,4c4.4,0.6,8.6,1.1,13,1.8c1.7,0.3,3.8,0.7,5.5,1.1
				c34.6,7,69,13.5,103.2,17.9c6.8,4.9,5.9,1.5,8.3,1c2,0.4,4,0.7,6,1s4,0.6,6.1,1c4.1,0.6,8.2,1.3,12.3,1.9
				C789.4,93.5,793.6,93.5,797.5,93.6z"/>
		</g>
		<g>
			<path class="st1" d="M759,109.7c-2.4-0.1-4.5,0-7.1-0.2c-1.8-1.5-1.3-4.2,0.9-5.3c3.5,0.4,6.7,0.8,9.9,1.2
				C761.6,106.7,760.4,108.2,759,109.7z"/>
		</g>
		<g>
			<path class="st5" d="M845.3,141.9c-1.4,0.6-2.5,1.1-4.3,1.7c-1.7,0.6-4.1,1.2-8,1.9c-1.6,0.1-3.2,0.2-4.7,0.3s-3.1,0.1-4.7,0.2
				c-1.9,0.1-4.2,0.1-6.1,0.1c-0.7,0.5-1,1-1.7,1.6c-1.5-1.3-3-2.6-4.2-3.9c-2.2,0.4-4.2,0.9-6.4,1.3c-0.9-1-1.7-2.2-2.5-3.2
				c-4.6-1-11.2,0.4-9.4,3.4c-3.3,1.1-6.2,2.2-9.5,3.3c-4.9-0.4-9.8-0.9-14.7-1.3c0.2-3.4-8.4-3.2-11.6-1.1
				c-4.8-0.7-9.6-1.6-14.4-2.5c-1.6,0-3,0-4.5-0.1s-2.9-0.1-4.4-0.3c-0.7-1.4-1.3-2.8-2.3-4.2c-4.4,0.6-8.5-0.2-12.6-1.3
				s-8.3-2.4-13.2-2.6c-3.9-1.9-8.1-3.9-12-5.9c-5.2-0.1-2.4,5.3-9.5,2.3c-1.6-1.3-3.4-2.7-4.9-4c-2.6,0.4-5.1,0.7-7.6,0.9
				c-0.8,0.7-1.3,1.4-2,2.1c-0.9,0-1.9,0.1-3.2,0.2c-2-2-3.7-4-6-5.9c3-0.8,5.3-1.7,8-2.5c-3.7-3.7-7.7-5.2-7.7-3.9
				c-1.5,1.2-4-0.1-6.1-0.3c-2.1-0.4-6-0.8-5.2-2.5c-2.4-0.5-4.7-0.9-7.1-1.4c-11.3-1.7-25.2-6.5-34.1-5.4
				c-9.8-6.1-29.6-4.8-38.9-9.5c-5.7,1.6-16.3-2.4-24.8-1.9c-7.7-0.1-8.1-4.4-13.4-5.2c-0.5-3-9.7-1.6-15.7-2.2
				c-4.1-0.9-8.1-2-12.4-3.1c-5.2,0.2-9.4-2-13.3-3.7c-3.9-1.8-7.6-3.2-11.8-1.3c-4.7-1.1-9.3-2.1-14-3.1
				c-6.7-0.1-10.6,1.5-17.3-1.8c-4.2,0.9-8.2,1-12.1,0.6c-3.9-0.3-7.8-1-11.6-1.8c-3.8-0.7-7.7-1.4-11.6-1.6c-2-0.1-4-0.1-6,0
				c-2,0.2-4.1,0.5-6.1,1.1c-3.5-0.8-6.8,1.3-8.5-1.6c-4.3-0.3-8.7-0.5-12.9-0.7c-4.3-0.1-8.5-0.2-12.7-0.3
				c-1.5,2.5-6.6,2.8-14.4,0.7c-4.7-2.1-7.6-1.3-10.4-0.1c-1.4,0.6-2.8,1.3-4.4,1.8s-3.4,0.9-5.7,0.8c-4.2,1.2-8.4,0.7-12.9,0.6
				c-4.4-0.1-9.1,0.2-14.3,3.2c2.9,1.1,5.5,2,8.4,3.2c0.9,0,1.8,0,2.9,0c1.5-1.3,4.1-1.7,6.5-1.3s4.8,1.7,6,3.7
				c-1.6,0.1-3.3,0.1-5,0.3s-3.4,0.3-5,0.5c-4.1,0.8-8.6,1.4-12.7,2.3c0-0.5,0-1,0-1.5c-4.1-0.2-8.5-0.6-12.6-0.6c0,0.5,0,1,0,1.5
				l-4.4,0.1c-2.6,0.4-5.6,0.8-8.2,1.1c-1.2,0.1-2,0.1-2.9,0.1c-3.8-0.3-7.6-0.7-11.1-0.9c-1.2,1.1-2,2.1-2.9,3.3
				c-0.9,0.1-1.7,0.1-2.9,0.2c-4.1-0.1-8.2,0-12.4,0.1c-2.1,0-4.2,0.1-6.3,0.2c-2.1,0.1-4.2,0.2-6.3,0.3c-0.8,0.6-1.7,1.1-2.8,1.9
				c-1.8-0.1-3.8-0.3-5.6-0.2c-0.1-0.8-0.1-1.6-0.1-2.3c-1.8-0.9-3.9-1.6-5.8-2.6c1.4-1.1,2.8-2.5,3.9-3.6
				c8.4-2.6,16.8-7.8,25.4-9.5c3.3,2.6,7.7,0.4,15.8,0.5c0-0.7,0-1.1,0-1.6c3.7-0.5,7.5-0.9,11.3-1.3c3.8-0.4,7.6-0.9,11.3-1.3
				c5,1,3.6-2.2,6.1-3.3c2.4,0,4.5-0.1,7.2-0.1c6-1.6,13.6-3.2,18.8-4.8c16.8,0.5,32,0.8,47,0.9c15,0.1,29.7,0.2,45.7,0.5
				c8.1,0.5,7.7,4.7,20,2.3c3.3,0.2,6.9,0.4,10.3,0.7c5.8,1.6,10.5,2.6,14.4,3.4c3.9,0.8,6.9,1.6,9.4,3.2c8.2,0.2,6.5-3.1,9.1-2.5
				c2.1,0.3,3.9,0.6,5.9,1c7.7,2.8,9.9,1.2,12.9,1.4c7.6,3.1,8.9,1.2,11.2,2c0.6,0.1,0.9,0.2,1.5,0.3c5.6,1.1,11.2,2.1,17.1,3.2
				c1.2,0.2,2.7,0.5,4.1,0.8c3.9,1.6,8.1,3.2,12.1,4.7c5.6,0.9,11.5,1.9,17.2,2.8c2.3,0.5,4.7,1,7,1.4c0,0.2-0.1,0.5-0.2,0.6
				c14.2,4.7,34.6,7,45.8,11.2c7.9-0.5,16.5,3,22.8,3.8c1.3,3.2,7.1,2.4,10.5,4.6c2.9,0.7,5.5,1.6,8.4,2.3
				c9.2,2.5,22.1,2.8,27.7,7.7c5-0.3,9.9-0.4,14.9-0.6c0.8,0.8,1.5,1.7,2.5,2.7c4.1,0.7,5.6,0.9,7.1,1.2c0.1,1-1.7,2.4,0.5,3.2
				c7.2,0.8,9.9-0.3,15.2-2.4c2.8,1.1,5.7,1.9,8.3,2.8c2.5,0,4.9,0.2,7.3,0.2c1.7-0.7,3.4-1.7,5-2.4c2.4,1.9,5.1,3.7,7.5,5.6
				c3.7-0.2,7.1-0.3,10.4-0.4c3.3,0.2,7,0.2,10.3,0.2c0.9,0.1,1.8,0.2,2.7,0.3c3.9,0.3,7.8,0.8,11.7,1.1c1.7,1,3.7,1.9,5.4,2.8
				c7.3,0.2,14.8-2,21.9,1c6.7,0.3,13.9,0.4,20.7,0.3c5.3-0.2,8.5,2.2,13.7,2.5C845.1,139.8,845.2,140.8,845.3,141.9z"/>
		</g>
		<g>
			<path class="st6" d="M749.8,121.8c-2.3-0.4-4.4-1-7-1.6c-4.6-1.5-5.6,0.9-7.7,2.2c-2.6-0.7-5.5-1.4-8.1-1.9
				c-2.3,0.7-4.3,1.5-6.5,2.2c-0.2,0.8-0.3,1.6-0.5,2.2c-5.3,2.1-8,3.2-15.2,2.4c-2.3-0.8-0.4-2.2-0.5-3.2c-1.5-0.2-3-0.4-7.1-1.2
				c-1-1-1.7-1.9-2.5-2.7c-4.9,0.1-9.9,0.3-14.9,0.6c-5.6-4.9-18.4-5.2-27.7-7.7c-2.9-0.7-5.5-1.6-8.4-2.3
				c-3.5-2.1-9.2-1.3-10.5-4.6c-6.3-0.8-14.9-4.3-22.8-3.8c-11.3-4.1-31.6-6.4-45.8-11.2c0-0.2,0.1-0.5,0.2-0.6
				c-2.4-0.5-4.7-1-7-1.4c-5.6-0.9-11.5-1.9-17.2-2.8c-4-1.4-8.2-3.1-12.1-4.7c-1.5-0.3-2.9-0.6-4.1-0.8c-5.9-1.1-11.5-2.2-17.1-3.2
				c-0.6-0.1-0.9-0.2-1.5-0.3c-2.3-0.8-3.7,1.1-11.2-2c-3-0.2-5.2,1.4-12.9-1.4c-2.1-0.3-3.9-0.6-5.9-1c-2.6-0.6-0.9,2.6-9.1,2.5
				c-2.4-1.5-5.5-2.4-9.4-3.2s-8.6-1.8-14.4-3.4c-3.3-0.3-6.9-0.4-10.3-0.7c-12.3,2.4-11.9-1.8-20-2.3c-15.9-0.3-30.7-0.4-45.7-0.5
				s-30.1-0.4-47-0.9c-5.2,1.6-12.8,3.2-18.8,4.8c-2.7,0-4.8,0.1-7.2,0.1c-2.4,1-1,4.2-6.1,3.3c-3.7,0.4-7.5,0.9-11.3,1.3
				c-3.8,0.5-7.6,0.8-11.3,1.3c0,0.5,0,1,0,1.6c-8-0.1-12.4,2.1-15.8-0.5c-8.6,1.7-17,6.9-25.4,9.5c-1.1,1.1-2.5,2.4-3.9,3.6
				c1.8,0.9,3.9,1.7,5.8,2.6c0,0.6,0.1,1.5,0.1,2.3c-2.6,0.5-5.5,1.2-8.3,1.8c-1.6,1.8-3.4,5-9.2,5.2c-2.2,0.1-4.3,0.3-6.3,0.4
				c-2.1,0.2-4.1,0.4-6.1,0.6c-1.1,0.2-2,0.3-2.9,0.5c-2.3,0.1-4.6,0.2-7,0.4c-4.2,1.4-7.9,3-11.9,4.6c-3.9,1.6-8.2,3.1-13.4,4.3
				c-3.6,1-7.2,1.9-10.8,2.9c-3.6,1-7.1,2.1-10.6,3.1c-0.6,0.1-0.8,0.2-1.4,0.3c-0.2-0.8-0.3-1.6-0.5-2.2c2.7-1.3,5.1-2.5,7.8-3.6
				c-0.2-0.8,4-2.3,2.2-3.7c-5,1.7-8.3,1.3-11.3,0.9c-3-0.3-5.7-0.5-9.7,1.4c-1.9,0.7-3.6,1.5-5.5,2.2c-4.8,0.1-9.6,0.1-14.4,0.3
				c2.9-1.2,5.8-2.3,8.7-3.4c2.9-1.1,5.8-2.3,8.7-3.3c11.9-4.5,26.5-8.7,38.5-8.7c3.7-0.4,5.5-1.9,7.2-3.4s3.2-3,6.1-3.2
				c7.8-4,15.8-7.8,24.8-10.6c1.1-1.5,2.4-3,3.8-4.5c3.3-0.6,6.5-1.4,10.1-2.2c0.3,0,0.9-0.1,1.2-0.1c4,0.8,7.9,1.6,11.8,2.5
				c1.4-1.9,2.5-3.8,3.9-5.8c-2.7-0.5-5.8-1.1-8.8-1.5c0-0.6-0.1-1.5-0.1-2.3c0.6-0.4,1.2-0.6,1.5-1c4.5-0.5,8.7-0.9,13-1.3
				c3.3,0,7-0.1,10.3-0.1c0.3-0.8,0.9-1.7,1.5-2.4c2.7-0.3,5.7-0.4,8.8-0.6c2.3-0.5,4.7-0.9,7.1-1.4c2.5-0.4,5-0.8,7.4-1.1
				c2.1-0.7,4.2-1.3,6.5-1.9c2.3-0.5,4.8-0.9,7.5-1.2c2.8-0.3,5.8-0.4,9.3-0.4c3.5,0.1,7.3,0.3,11.7,0.8c3.3,0.5,7-0.8,8.8,0
				c2.1-0.2,4.3-0.5,6.5-0.7s4.4-0.4,6.7-0.6c2.4,0.1,4.8,0.3,7.3,0.5l7.2,0.7c2.2-0.1,4.4-0.3,6.6-0.4c2.2-0.1,4.4-0.2,6.5-0.3
				c4.4-0.2,8.7-0.4,13.2-0.5c2.4,0.5,4.8,0.8,7.2,1.3c3.8,1.1,5.9-0.9,9-0.9c10.6,0.6,21.2,1.4,32.1,2.4c8.2,0.3,16.5,0.8,24.7,1.4
				c0.1-0.3,0.1-0.5,0.1-0.8c0.9,0.1,1.8,0.2,3,0.4c2.6,0.8,5.5,1.8,8.4,2.8c2.9,0.3,5.9,0.8,8.9,1.3c2.9,0.5,5.8,0.8,8.3,0.5
				c0.8,0.6,1.6,1.2,2.6,2.1c3.5-0.3,6.9-0.6,10.4-0.8c2.3,0.7,4.7,1.3,7,2c2.3-0.4,3.8-1.8,6.5-1.2c2.3,0.9,4.2,1.7,6.8,2.7
				c2.6,0.8,4.8,0.6,7.3,0.5c4.4,1.2,9.3,2.4,14,3.5c2.6,0.5,5.6,1.1,8.3,1.6c0.1-0.5,0.2-0.9,0.4-1.4c3,0.3,6.1,0.5,8.8,0.9
				c0,0.2-0.1,0.5-0.2,0.8c3,0.3,5.7,0.5,8.7,0.9c2.9,0.6,5.6,1.1,8.5,1.7c4.3,0.2,11.1,3.6,17.1,1.9c3,1.4,6.3,3,9.3,4.4
				c3.9-0.7,9.1,1.9,13,1c1.5,1.3,3.3,2.8,4.8,4.1c2.3-0.4,4.2-0.6,6.1-1.1c4.3,1.1,8.3,2.2,12.6,3.4c0.1-0.3,0.2-0.6,0.2-0.8
				c2.6,0.5,5.5,1.1,8.2,1.7c4.7,0.9,9.6,2,14,2.8c-0.1,0.5-0.2,0.9-0.4,1.4c-8.7,1.6-15.1,0.3-23-1.3c-0.1,0.5-0.2,0.9-0.4,1.4
				c12,4.7,23.1,4.7,27.5,8c5.6,1.5,13,3.4,20.5,4.8c3.8,0.7,7.6,1.3,11.3,1.7s7.3,0.6,10.5,0.5c1.5,1.3,3.4,2.7,4.9,4
				c1.5-0.1,2.7,0,4.3-0.1c2.9,0.8,5.5,1.3,8.4,2.1c0.2-1,0.4-2.1,0.6-3c3.6-1.2,7.5-2.6,11.1-3.8c-1.3-1-2.6-1.9-3.9-2.9
				c3.1-0.3,0.7-3.3,5-2.3c2.2,1,4.4,2.1,6.6,3.2c-1.4,0.8-2.5,1.8-3.5,2.6c1.6,1.2,3.4,2.6,5,3.8c3.8,0.7,7.9,1.1,12.1,1.9
				c4.2,0.8,8.6,2,13,4.5C753.8,121.3,751.9,121.5,749.8,121.8z"/>
		</g>
		<g>
			<path class="st1" d="M735.6,127.9c-2.4,0-4.8-0.2-7.3-0.2c-2.6-0.9-5.5-1.7-8.3-2.8c0.1-0.6,0.3-1.4,0.5-2.2
				c2.3-0.7,4.3-1.5,6.5-2.2c2.6,0.5,5.5,1.3,8.1,1.9c2,0.9,3.6,2,5.5,3.1C739,126.2,737.3,127.1,735.6,127.9z"/>
		</g>
		<g>
			<path class="st1" d="M284.7,27.6c-1.9,0.2-4.1,0.6-6,1c-6,0-12.3-0.1-18.3,0.1c0-0.8,0-1.6,0-2.3c-4.4,0.3-9.2,0.6-13.6,1
				c-1-0.6-1.9-1-3.2-1.4c3.1-3.4,12-4,16.8-2c0.6-0.9,1-1.5,1.6-2.4c7.6-0.2,15.2-0.3,22.8-0.2c2.8,0,5.6,0,8.4,0.1
				s5.5,0.2,8.4,0.2c0.3,1.6,0.8,3.2,1.4,4.7c-3.2,0.2-6.2,0.4-9.3,0.6C290.7,27.1,287.7,27.4,284.7,27.6z"/>
		</g>
		<g>
			<path class="st3" d="M104.8,126.1c1,1.5,0.3,2.6-1.1,3.6c-1.4,0.9-3.6,1.7-5.7,2.6c-4.1,1.7-7.7,3.6-3.7,7.2
				c0.9,1.1,1.6,2.2,2.5,3.3c0.3,0.9,0.6,2,0.9,3c-2.6,0.9-5,1.7-7.6,2.8c-0.4,1.4-0.9,2.6-1.3,4c-3.1,2.2-6.1,4.4-9.1,6.9
				c-4.9-2.2-5.5-3.7-5.9-5.1c1.9-1.5,3.8-2.8,5.7-4.1c-1.1-1.5-2.3-3.1-3.1-4.7c-0.1-0.2-0.2-0.5-0.2-0.6c-0.5-1.4-0.8-2.5-1.3-3.7
				c-2.9,1.2-6.1,2.5-9,3.7c-0.5-0.7-1.3-1.2-1.9-1.8c-1.8-1.6-3.3-3-4.8-4.7c4.2-2.1,8.4-4.2,12.6-6.1c0.3-0.1,0.8-0.3,1.4-0.5
				c0.4,1.2,0.8,2.5,1.2,3.7c1.5-0.1,2.7,0,4.3,0.1c1.6-1.2,3.2-2.4,4.8-3.6c1.6-1.2,3.2-2.3,4.8-3.5c-1.8-1.8-3.2-3.7-4.8-5.7
				c0-0.2-0.1-0.5-0.2-0.8c-0.1-1.3,0.1-2.8,0.2-4.2c-1.6-0.1-3.2-0.4-4.9-0.6c-0.8-1.4-1.8-2.6-2.5-4.1c-0.1-0.2-0.1-0.5-0.2-0.8
				c2.4-1.5,5.1-2.9,7.5-4.3c5.1-2,8,0.6,9.7,2.2l1.1,3.8c0.8,0.6,1.3,1.3,2.1,1.9c-1.1,1.7-2.1,3.5-2.8,5.1c0.5,0.8,1.4,1.7,2,2.6
				c-0.1,0.6-0.6,1.2-0.6,1.9C98,125.5,101.4,125.6,104.8,126.1z"/>
		</g>
		<g>
			<path class="st1" d="M96.2,153.7c-2.8-0.5-4.9-0.9-7.4-1.4c0.4-1.4,0.9-2.6,1.3-4c2.6-1,5-1.8,7.6-2.8c1.1,0.8,2.2,1.5,3.6,2.2
				C99.3,149.9,97.8,151.6,96.2,153.7z"/>
		</g>
		<g>
			<path class="st1" d="M38.4,134.9c2.6,1.6,5.2,3.3,8,4.8c0.2,0.5,0.4,0.9,0.5,1.4c-0.2,1-0.4,2-0.4,2.9c1.5,2.9,3.3,5.8,5.1,8.7
				c1.2,0.8,2.8,1.5,3.6,2.4s0.6,1.7-1.5,2.7c-1.3,0.6-2.6,1.2-3.8,1.8c-0.6-1.5-1.2-2.9-1.8-4.4c-4.2-2-12-1.1-6.2-8.2
				c-7.6-0.9-13.4-5.1-6.1-10.9c0.2-3.3,0.5-6.5,0.6-9.8c1.4-0.6,2.7-1.3,4.1-1.9c1,0.1,2,0.2,3.1,0.4
				C41.7,128,39.9,131.4,38.4,134.9z"/>
		</g>
		<g>
			<path class="st2" d="M882.2,135.9c-1-0.8-0.8-2.6-1.7-3.8c-0.5-0.6-1.2-1.1-2.4-1.3c-1.3-0.2-3-0.1-5.6,0.3
				c4.9-1.9,9.8-4,14.5-6.5c2.7-0.2,5.2,0.7,6.2,2.2s0.4,3.7-3.1,5.8c-1.3,0.6-2.6,1.1-3.9,1.7C884.8,134.9,883.5,135.5,882.2,135.9
				z"/>
		</g>
		<g>
			<path class="st2" d="M876.9,94c0,1.8,0,3.7-0.2,5.3c-2.4,2.6-4.2,3.7-5.5,4.2s-2,0.1-2.7-0.3c-0.7-0.4-1.3-1-2.2-1.1
				c-0.5-0.1-1,0-1.6,0.2c-0.7,0.2-1.5,0.5-2.5,1.1c-1,0.3-2,0.6-3,0.9c-1,0.3-2,0.6-3,0.8c-1.4-0.1-2.6-0.2-3.9-0.3
				c-1.3-0.1-2.6-0.3-3.9-0.4c1.1-0.4,2.2-0.7,3.3-1c1.1-0.4,2.2-0.8,3.2-1.1c1.1-0.4,2.1-0.8,3.1-1.2c0.5-0.2,1-0.4,1.6-0.6
				c0.5-0.2,1-0.5,1.6-0.7c5.3-2.5,10-5.3,14.4-8.4C876.2,92.7,876.6,93.5,876.9,94z"/>
		</g>
		<g>
			<path class="st2" d="M835.8,106.2c-1.8,1.7-1.6,3.8-2.2,5.3c-0.6,1.5-1.8,2.6-6.6,1.7c-3.9-1.3-3.6-3.6-5.5-5.3
				C826.5,107.5,831.3,107,835.8,106.2z"/>
		</g>
		<g>
			<path class="st2" d="M818.5,158.6c-2.7,0-5.3,0-7.8-1.6c-1.6,0-3.3-0.1-4.9-0.1c-1.6-0.1-3.1-0.1-4.6-0.2
				c-3.2,0.2-6.2,0.4-9.4,0.3c-0.2-0.8-0.8-1.5-1.3-2.4c0-0.3,0.1-0.6,0.1-0.8c3.5,0.2,7.3,0.4,10.8,0.6c2-0.8,4.3-1.5,6.3-2.1
				c0.9,0.5,1.8,1,3.1,1.5c3.6-0.1,7.2-0.5,10.9-0.9c0.6,0.3,1.3,0.6,1.6,0.8C821.7,155.4,820,156.9,818.5,158.6z"/>
		</g>
		<g>
			<path class="st2" d="M814.1,124.4c-9.3,2.6-15.3,1.8-16.9-0.5C806.3,122.1,811.3,121.6,814.1,124.4z"/>
		</g>
		<g>
			<path class="st2" d="M785.4,93.4c-4.1-0.6-8.2-1.3-12.3-1.9c-2-0.3-4.1-0.6-6.1-1c-2-0.3-4-0.6-6-1c-1-0.8-1.8-1.4-2.6-1.9
				c-1.8,0.3-3.9,0.5-5.7,0.9c-34.2-4.4-68.5-10.9-103.2-17.9c1.3-1.4,2.5-2.7,3.7-4.1c5,1.3,9.8,2.7,14.5,3.7
				c4.7,0.9,9.1,1.4,13.3,0.8c2.3,0.8,4.5,1.3,6.8,1.5s4.6,0.3,6.9,0.2c4.6,0,9.3-0.2,14.3,0.8c0.3,1.4-1.5,2.9,0.6,4
				c4.8,1,9.8-0.2,14.3-0.7c4.6-0.5,8.7-0.5,11.9,3c4.4-0.1,8.5-0.2,12.9-0.6c3,0.9,6.1,1.7,9.1,2.7c1,0.6,1.8,1.2,2.6,1.8
				c3.1,0.7,6.2,1.2,9.2,1.8c5.1,0.6,13.6-2.9,14.9,2.2c2.6-0.6,5.2-1.4,8.3-1c-1.3,2.2,3.2,3.3,4.5,6.6
				C793.6,93.5,789.4,93.5,785.4,93.4z"/>
		</g>
		<g>
			<path class="st2" d="M724.4,147.6c-2.7-0.4-5.8-0.8-8.8-1.3c0.2-0.8,0.3-1.6,0.5-2.4c3,0.5,6,0.9,8.8,1.2
				C724.7,146,724.5,146.8,724.4,147.6z"/>
		</g>
		<g>
			<path class="st2" d="M692.5,143.5c-5,1.3-8.7,1.5-8.7-1.5C686.5,142.4,689.5,143,692.5,143.5z"/>
		</g>
		<g>
			<path class="st2" d="M661.4,135.5c-9.9,0.5-18.2-0.8-26-2.5c-7.7-1.8-14.9-4-22.6-5.4c-18.9-1.2-44.7-7.6-63.4-12.3
				c-1.1-1.7-4.5-1.6-6.8-2.2c-0.6,0-1,0.3-1.7,0.5c-7.5-1-14.7-2.2-21.8-3.6c-7.1-1.4-14-2.7-20.9-4s-13.7-2.4-20.7-3.3
				c-6.9-0.8-13.9-1.3-21-1.2c-2-1.8-6.2-1.6-9.4-2.2c-10.7,1.4-26.3-2.6-39.5-3.2c-2.3,1.3-6,1-9.9,0.6s-8.1-1-11.3-0.3
				c-3.8-0.4-7.4-0.6-11-0.5s-7.2,0.4-10.7,0.6c-3.5,0.2-7.1,0.4-10.7,0.3c-3.6-0.1-7.3-0.5-11-1.3c1.5-0.7,3.2-3.3,8.9-4.4
				c0.2-1.6,0.3-3.1,0.4-4.7c3.8,0.1,7.6,0.1,11.3,0.2c3.8,0.1,7.5,0.2,11.3,0.3c0.2,1,0.6,2.2,1.1,3.2c2.7-0.8,5.8-1.7,8.9-2.4
				l6,0.3l6,0.4c4,0.2,7.9,0.4,11.9,0.7c4.3,1.1,10.3,2.5,14.3,0.1c2.9,0.5,5.5,1.1,8.3,1.8c4.7,0.3,9.5,0.6,14.2,1.1
				c4.1,0.3,8.6,0.6,12.7,1c0.6,0.1,0.9,0.1,1.5,0.2c3.3,0,6.6,0.1,10.3,0c3.2,0.4,6.5,0.5,9.8,0.9c3.3,0.3,6.9,0.5,10.1,1
				c3.2,0.7,6.3,1.6,9.4,2.5c9.3,1.8,18.7,3.5,28,5.3c2.9,0.6,5.8,1.1,8.5,1.7c2.9,0.6,5.5,1.1,8.5,1.7c1.8,0.4,3.8,0.8,5.5,1.1
				c2.4,1.5,7.3,1.3,6.4,3.6c5.9,1,12.1,3.2,18.8,2.2c5.2,6,24.7,8.3,34.3,9.6c15.3,3.1,25.9,6.5,43.7,9.6
				C656,133.5,658.6,134.4,661.4,135.5z"/>
		</g>
		<g>
			<path class="st2" d="M631.2,67.7c-6.4-1.3-12.8-2.6-19.5-4c-2.4-1.3-5.1-2.7-7.5-4c3.7-3.4,11.2,1.8,14.7-0.9
				c4-1.3,9.4,2.6,13.5,4.4c3.5,0.7,6.7,1.3,9.8,2c-0.9,1,1.3,1.9,1.9,4.4C639.8,68.8,635.6,68.3,631.2,67.7z"/>
		</g>
		<g>
			<path class="st2" d="M543.5,52c-4.1-1-8.5-2.2-12.6-3.3c-1.4-0.8-2.7-1.5-4.1-2.3c-7.6,0.1-5.2,3.3-9.3,2.2
				c-2.1-0.2-4-0.3-6.2-0.3c-1.2-0.2-2.7-0.5-4.2-0.8c-5.4-1.3-10.4-2.5-15.8-3.6c-5.2-3.3-13.4-3.5-24.7-3.2
				c-5.4-1.5-10.8-2.7-15.9-3.9c-3.2,0.4-6.1,0.8-9.3,1.1c-5.8-1-11.6-1.9-17.7-2.8c-5.9-0.6-11.7-1.3-17.6-1.8
				c-2.4-0.9-4.8-1.6-7.2-2.3c-3.1-0.3-5.9-0.5-9-0.8c-0.7,0.1-1,0.4-1.7,0.7c-2.8-0.2-5.9-0.4-9-0.7c-2.6-1.8-5.5-3.4-8.1-5.2
				c-3.7-0.9-5.5,1.3-9.2,0.3c-4.1-0.2-8.1-0.4-12.2-0.6c-2.8-0.1-6-0.2-8.8-0.3c-0.7,1-1.4,2.1-1.8,3c-1.6-0.1-3.1-0.1-4.7-0.1
				c-4.4-0.6-8.7-1.1-13.4-1.8c-5.7,0.3-11,0.6-16.7,0.8c-0.3,0-0.9,0-1.3,0c-0.6-1.5-1.1-3.1-1.4-4.7c2.9-0.7,6.1-1.6,9.3-2.4
				c2.8,0,6,0,8.8,0.8c3.5-0.6,7.3-1,10.9-1.5c1.6-0.7,3.6-0.8,5.7-0.7s4.3,0.3,6.4,0.2c3.2,0.1,6.3,0.2,9.1,0.3l9.4,0.9l4.7,0.4
				l4.7,0.5l9.4,1l9.3,1.1c1-0.3,1.9-0.3,3.2-0.6c4.9,0.9,9.9,1.9,14.8,2.9c1.9,0.2,4,0.4,5.9,0.6c7.4,3.1,10.5,3.5,13.1,2.9
				c2.5,0.1,5,0.1,7.5,0.2c6.3,1.9,2.5-3.3,8-2.3c1.6,1.4,3.6,2.6,5.3,4c4.7,0.6,12.2,5.3,13.7,1.1c1.7,0.8,4.4,1.5,7.1,1.9
				c2.7,0.4,5.5,0.6,7.6,0.4c5.3,1.8,6.3,1.3,13.5,0.5c0,4.1,1.9,4.3,7.1,2.1c10.4,4.4,22.6,5.7,31.5,6.6c4.1,1.3,10,3.6,11.8,1.5
				c11.8,1.9,18.8,4.4,30.2,5.2c-2.2-4.6,7.9-0.5,10.1,0.6c3.8,5.6,16.7,3.6,21.4,9.1c-5.1-0.7-8.7,1.2-13.4,0.5
				c-7.4-1.3-14.8-2.6-22.2-3.8C558.2,54.5,550.9,53.2,543.5,52z"/>
		</g>
		<g>
			<path class="st2" d="M333.5,95.8c-3,0.8-7,1.4-10.7,1.4c-3.7,0.1-7.1-0.4-8.7-1.7c1.7-1.2,3.9-1.5,7.1-1.3
				C324.3,94.4,328.4,95.1,333.5,95.8z"/>
		</g>
		<g>
			<path class="st2" d="M294.4,97.4c-4.1,2.1-12.2,2.3-15,1.3c-0.1-1.1,1.2-1.9,3.8-2.1C285.8,96.4,289.6,96.6,294.4,97.4z"/>
		</g>
		<g>
			<path class="st2" d="M273.6,99c-5.5,2.5-9.5,2.8-13.8,2.3c-3.7,0.2-7.2,0.5-10.9,0.8c0.6-0.4,1.2-1.2,2.7-1.9
				c1.5-0.6,4-1.1,8.2-0.4C264.3,99.5,268.9,99.2,273.6,99z"/>
		</g>
		<g>
			<path class="st2" d="M238,103.1c-2.8,1.5-5.2,2.4-7.4,2.8c-2.2,0.4-4.2,0.5-6.2,0.3c-3.7,0.9-7.3,1.8-10.9,3
				c-3.9,1.1-8.1,2.1-12,3.2c-4.1,0.6-7.1,1.9-10.4,3.3c-3.3,1.4-6.9,2.9-12.2,3.8c-3.8,1.4-7.6,2.7-11.7,4c-3.3,0.9-5.7,0-9.4,0.5
				c0.7-1.1,1.3-2.5,2-3.6c2.8-0.6,5.3-1.2,8.1-1.8c3.7-0.3,7.1-0.5,10.8-0.6c1-1.3,1.7-2.4,2.4-3.6c2.3,0.1,6.6,0.1,7.9-3.1
				c0.8-0.2,1.7-0.3,2.5-0.4c3.2,0,8.6,0.1,10.9-3.4c0.8-0.1,1.7-0.3,2.6-0.4c2.9,0.2,5.8,0.3,8.4,0.4c4.8-1,3.2-2.7,11-3
				C228.5,104.1,233.4,103.6,238,103.1z"/>
		</g>
		<g>
			<path class="st2" d="M135.7,131.3c0.7,2.9-1.5,4.3-4.4,5.1s-6.6,1.2-9.2,2c-0.9,1.1-2.2,2-3.6,2.7c-1.4,0.8-2.9,1.5-4.4,2.3
				c-2.8,1.4-5.1,2.8-4.7,4.8c-2.2,0.9-3.3,1.2-4.4,1c-1.1-0.2-2-0.8-3.8-1.4c-1.4-0.7-2.4-1.4-3.6-2.2c2.7-1.3,5.3-2.6,8-3.9
				c2.7-1.3,5.3-2.6,7.9-3.8c1.3-0.4,2.7-0.9,4-1.3c0.3-0.1,0.8-0.2,1.3-0.4c1-0.6,2.3-1.2,3.6-1.9c2.2-0.5,4.4-1,6.6-1.5
				C131.3,132.2,133.5,131.8,135.7,131.3z"/>
		</g>
		<g>
			<path class="st2" d="M96.2,153.7c1.3,1.4,3.2,3,1.2,3.7c-0.3,2.5-1.8,4.2-3.7,6.3c-2.3,0-3.9-0.7-5.9-1.5s-4.2-1.8-7.8-2.2
				c-0.3,1.7-0.5,3.5-0.8,5.2c-1.4-2.2-4.5-1.6-7.5-0.7c-2.9,0.9-5.7,2.1-6.5,0.9c-0.2-0.6-0.4-1.1-0.6-1.5c-3-0.8-7.1-1.4-9.3-1.7
				c-0.6-1.5-1.2-3-1.8-4.4c2.2-1,2.3-1.9,1.5-2.7s-2.4-1.6-3.6-2.4c-1.8-2.9-3.6-5.8-5.1-8.7c0-0.9,0.2-1.9,0.4-2.9
				c4-0.9,8.3-1.9,12.3-2.8c1.5,1.6,3,3.1,4.8,4.7c0.5,0.7,1.4,1.2,1.9,1.8c1.8,0.8,3.7,1.8,5.5,2.7c0.8,2.3,1.6,4.4,2.4,6.7
				c0.5,1.4,1.1,2.9,5.9,5.1c2.9-2.5,6-4.6,9.1-6.9C91.3,152.8,93.4,153.2,96.2,153.7z"/>
		</g>
		<g>
			<path class="st2" d="M37.5,109.5c-0.6,2.8-1.6,4.6-4.2,5.3c-5.8,1.2-7-0.8-7.6-3.2c1.2-1.5,3.2-2.6,5.2-3.3s4.2-1,5.8-1
				C37.1,108.5,37.3,108.9,37.5,109.5z"/>
		</g>
		<g>
			<path class="st5" d="M846,104.8c-2,2.3-9.8,4-10.2,1.4c3.4-1.5,0.2-5.4,5.8-5.5C843.1,102.2,844.5,103.5,846,104.8z"/>
		</g>
		<g>
			<path class="st5" d="M814.9,107.2c-0.9,2.3-4.8,1.3-6.7,0.7c-4.2-0.6-8.9-1.3-13.4-2.2c2.8-4,10.3-3.5,16.5-3.2
				C812.6,104.1,813.9,105.7,814.9,107.2z"/>
		</g>
		<g>
			<path class="st5" d="M196.3,102.3c2-0.2,4-0.5,6.1-0.6s4.2-0.3,6.3-0.4c5.8-0.2,7.5-3.4,9.2-5.2c-1.6,1.8-3.4,5-9.2,5.2
				c-2.2,0.1-4.3,0.3-6.3,0.4C200.3,101.9,198.3,102.1,196.3,102.3z"/>
		</g>
		<g>
			<path class="st5" d="M193.7,105.1c-3.1,0.8-7.2,0.6-9.2,4.9c-1.6,0.8-3.5,1.7-5.2,2.4c-3.1,0.9-6.1,1.7-9.1,2.7
				c-2.9,0.1-5.8,0.2-8.4,0.1c-2.5,2.1-7.2,2.3-10.4,4.9l-9.1,2.3c-0.1-1.7-0.9-2.9-3.7-3.9c0.6-0.1,0.8-0.2,1.4-0.3
				c3.5-1,7-2,10.6-3.1c3.6-1,7.2-1.9,10.8-2.9c5.2-1.3,9.4-2.7,13.4-4.3s7.7-3.2,11.9-4.6c2.3-0.1,4.6-0.3,7-0.4
				C193.5,103.6,193.6,104.4,193.7,105.1z"/>
		</g>
		<g>
			<path class="st5" d="M97.7,145.6c-0.3-0.9-0.6-2-0.9-3c3.2-2,6.2-3.8,9.5-5.7c3.2-2.1,4.7,0,7.2,0.9c-2.6,1.2-5.2,2.5-7.9,3.8
				C103.1,143,100.4,144.3,97.7,145.6z"/>
		</g>
		<g>
			<path class="st3" d="M897.6,71.6c0.4,1.5,0.1,2.9-0.5,4.2s-1.6,2.4-2.7,3.6c-2.4,2.1-5.3,4-7.6,6c-1.2-1.4-2.6-2.7-4-4
				C888.3,78.7,893.3,75.5,897.6,71.6z"/>
		</g>
		<g>
			<path class="st3" d="M761.1,89.5c-2.4,0.5-1.5,3.9-8.3-1c1.8-0.4,3.9-0.7,5.7-0.9C759.3,88.2,760.1,88.8,761.1,89.5z"/>
		</g>
		<g>
			<path class="st3" d="M721.8,110.2c-3.6,1.2-7.5,2.6-11.1,3.8c-0.2,1-0.4,2.1-0.6,3c-2.9-0.8-5.5-1.4-8.4-2.1
				c-1.6,0.1-2.8,0-4.3,0.1c-1.5-1.3-3.4-2.7-4.9-4c-3.2,0.1-6.8-0.1-10.5-0.5s-7.5-1-11.3-1.7c-7.6-1.4-14.9-3.3-20.5-4.8
				c-4.4-3.3-15.5-3.2-27.5-8c0.1-0.5,0.2-0.9,0.4-1.4c7.9,1.6,14.3,2.9,23,1.3c0.1-0.5,0.2-0.9,0.4-1.4c-4.4-0.8-9.3-1.9-14-2.8
				c-2.6-0.5-5.5-1.1-8.2-1.7c0,0.2-0.1,0.5-0.2,0.8c-4.3-1.2-8.3-2.4-12.6-3.4c-2,0.4-3.9,0.7-6.1,1.1c-1.5-1.3-3.3-2.8-4.8-4.1
				c-3.9,0.8-9.1-1.7-13-1c-3-1.4-6.3-3-9.3-4.4c0.7-0.4,1.4-0.7,1.8-1.1c8.2,4,11.2-2.5,14.1,2.9l7,1.5c3.8,0.9,7.5,2,10.9,2.9
				c4,0.2,8,0.2,12,0.1c3.1,1.1,6.2,2.2,9.2,3.5c2.2-0.2,4.1-0.3,6.2-0.4c2.4,1.3,5.1,2.7,7.6,3.8c2.6-0.5,5.7,0.4,12.4,4.1
				c-1.7,0.5-3.3,1-4.9,1.4c7.6,4,9.5,1,12.7,1.8c5.3,0.7,11.3,2.6,15.6,2.1c4.1,0.7,8.1,1.4,12.1,2.1c4,0.7,7.9,1.4,11.9,2
				c3.8,0.6,7.3,1.2,11.1,1.8C719.1,108.3,720.5,109.2,721.8,110.2z"/>
		</g>
		<g>
			<path class="st3" d="M552.4,75.3c-3-0.4-5.7-0.7-8.7-0.9c0.1-0.3,0.2-0.6,0.2-0.8c-2.7-0.4-5.7-0.6-8.8-0.9
				c-0.1,0.5-0.2,0.9-0.4,1.4c-2.7-0.5-5.6-1.1-8.3-1.6c-4.7-1.1-9.6-2.3-14-3.5c-2.5,0-4.7,0.3-7.3-0.5c-2.5-1-4.5-1.8-6.8-2.7
				c5.7-0.3,6.8-2.4,16.2-0.3c5.3,1.3,10.2,2.6,15.5,3.8c0.6,0.1,0.9,0.2,1.5,0.3c4.3,0.4,8.8,0.7,13.1,1.1c2.9,0.8,5.5,1.6,8.4,2.4
				c2.7,1.4,5.2,2.7,7.9,4.1C558,76.5,555.4,75.9,552.4,75.3z"/>
		</g>
		<g>
			<path class="st3" d="M530.9,48.7c-1.6,1.3-4.2,2-6.6,2.7c-2.6-1-4.6-1.8-6.8-2.8c4.1,1.1,1.8-2.1,9.3-2.2
				C528.2,47.2,529.5,48,530.9,48.7z"/>
		</g>
		<g>
			<path class="st3" d="M443.2,59.4c-8.2-0.6-16.4-1.1-24.7-1.4c-10.9-1-21.5-1.7-32.1-2.4c-3.1,0.1-5.2,2-9,0.9
				c-2.4-0.5-4.8-0.8-7.2-1.3c-4.4,0.1-8.8,0.3-13.2,0.5c-2.2,0.1-4.4,0.2-6.5,0.3c-2.2,0.1-4.4,0.3-6.6,0.4l-7.2-0.7
				c-2.4-0.2-4.8-0.3-7.3-0.5c2.5-0.4,4.9-0.7,7.4-1.1l7.4-1c2.3,0.1,4.2,0,6-0.2s3.5-0.4,5.4-0.6c3.7-0.3,8-0.6,14.9,0.6
				c4.6-0.4,8.9-0.6,13.3-0.7c3.4-0.2,6.2-0.3,9.1-0.4c2.8-0.1,5.6-0.1,8.9-0.4c5.8,0.7,11.5,1.6,17.5,2.6
				c5.5-1.4,12.1,1.4,15.6,2.5c3,0.7,5.9,1.4,8.6,1.9C443.3,58.9,443.2,59.1,443.2,59.4z"/>
		</g>
		<g>
			<path class="st3" d="M371.5,31.2c-0.9-0.2-1.8-0.6-2.7-0.8c-3.2,0.8-6.1,1.6-9.4,2.6c-0.9,0-1.9-0.1-3.1-0.1
				c-4.5-1.9-8.7-3.3-17.3-5.4c0.4-1,1.1-2.1,1.8-3c2.8,0.1,6,0.2,8.8,0.3c4.1,0.2,8.1,0.4,12.2,0.6c3.7,1,5.5-1.2,9.2-0.3
				c2.6,1.8,5.6,3.4,8.1,5.2C376.6,30.5,374.1,30.9,371.5,31.2z"/>
		</g>
		<g>
			<path class="st7" d="M336.5,39.1c-0.9,0-1.9,0-3.1-0.1c0-0.3,0-0.5,0.1-0.8c-7.7-0.9-9.1,1.2-16.2,1.4c-2.5,0-6.5,0.3-6.1-1.6
				c-7.1-0.8-9.7,1.4-13.5,3.2c-3.2-0.3-6.4-0.4-9.6-0.3c-3.2,0.1-6.3,0.3-9.4,0.6s-6.2,0.6-9.2,0.8s-6,0.4-8.9,0.4
				c-11.8,0.1-7.9,7.2-8.8,10.8c-4,1-5.9-1.6-8.7-2.4c-3.7,0.8-7,1.6-10.4,2.4c-0.9,0.9-1.8,1.8-2.9,2.8c-3.4,0.5-7.7,0.1-8.4,4
				c-2.1,0.3-3.9,0.5-6.1,0.7c-0.8,1.4-1.6,2.8-2.5,4.2c-2.9-0.1-5.9,0.2-8.8,0.7s-5.8,1.3-8.6,2.6c-2.7,0.6-5.7,1.4-8.6,2.1
				c-5.5-2.3-9.6,2.2-16.7,5.5c-1.2,0.2-2.1,0.4-3,0.6c-1.7-1.3-3.1-2.5-4.9-3.8c-2.7,0.8-5.2,1.6-7.8,2.4c-2.6,0.9-5.1,1.7-7.8,2.7
				c-2.8,1.6-5.3,3.2-8,5.1c-2.6,0.8-5.5,1.9-8.4,3c0.1,0.6,0.3,1.4,0.5,2.2c-1.7,0.9-3.6,2-5.2,3.1c-4.1,1.1-8.5,2.3-12.5,3.5
				c-2.7,3.2-5.6,6.4-8.1,9.7c-1.1,0.4-2.6,0.8-4,1.3c-1.9-3.6-3.6-2.9-5-2.5c-2.3,1.8-0.3,3.4-0.2,5c-0.8,1.6-3.4,3.3-2.7,1.6
				c-1.7-1.6-4.6-4.2-9.7-2.2c-2.4,1.4-5.1,2.8-7.5,4.3c-5.5,0.5-7.8,1.4-10,2.3c-3.1,1.3-6.4,2.6-9.5,3.9c-0.5-1.5-1-2.9-1.6-4.4
				c1.8-1.3,3.3-2.4,5.1-3.9c-1.7-3.1-3.4-6.3-4.9-9.7c-0.1-0.2-0.2-0.5-0.3-0.8c1.4-0.6,2.6-1.1,4-1.6c0.6-0.2,0.9-0.3,1.5-0.6
				c2.4-0.7,4.7-1.5,7.1-2.2c2.4-0.8,4.7-1.5,7.1-2.3c0.9-0.3,1.8-0.6,2.9-1c2.6-0.9,5.6-2,8.2-2.9c1.8-1.5,2.6-3.4,5.3-4.1
				c1.8-0.6,3.5-1.2,5.6-1.9c2.8-0.1,6-0.3,9.1-0.4c2.5-0.8,5.3-1.6,8.2-2.4c2.9-0.8,5.8-1.8,8.5-3.3c-1.2-1.2-2.4-2.5-3.6-3.7
				c-4.6,0.9-8.9,1.8-13.4,3c1.4-1.5,3.9-2.7,6.1-3.6c2.1-1,3.7-1.9,3.3-3.1c2.7-0.9,5.3-1.8,7.9-2.7c2.6-0.8,5.3-1.6,8-2.4
				c2.4-0.9,4.6-1.9,6.8-2.9c2.2-1,4.4-2,6.7-3c2.3-1,4.8-2.2,7.5-3.2c2.7-1.1,5.7-2.2,9.1-3.4c-11.4,2.7-11.5-0.1-14.2-1
				c1.1-0.9,1.9-2,2.7-2.9c3.2-0.2,6.1-0.3,9.3-0.3c-0.3-1.9-0.5-3.7-0.8-5.5c1.2-0.4,2.5-0.8,3.7-1.2s2.5-0.7,3.7-1.1
				c0.4,0.7,1.1,1.4,1.9,2.1c11.8-3.7,14.9,2.1,22.7-2.5c0-0.2,0-0.5-0.1-0.8c3.8-0.6,7.8-1.1,11.9-1.7c4-1.1,7.8-2,11.9-3
				c0.5-1.4,1.1-2.8,1.3-4.1c3.6-0.5,7.2-0.9,10.7-1.2c3.5-0.4,7-0.8,10.5-1.1c2.3,1.9,4.2,3.7,6.5,5.6c-1.5,1.6-4.9,1.7-7.9,2
				c-3,0.4-5.7,0.9-5.7,3.2c2.2,0.6,4.1,1.2,6.3,1.8c3.1-0.4,6.9-0.3,8.7-2.4c1.9-0.3,3.7-0.5,5.4-0.8c1.8-0.2,3.5-0.4,5.1-0.7
				c3.3-0.4,6.5-0.8,9.6-1.2c3.1-0.3,6.2-0.7,9.3-1c1.6-0.2,3.1-0.3,4.7-0.5c1.6-0.1,3.2-0.3,4.8-0.4c3-0.1,6-0.2,9.1-0.3
				c3-0.1,6.1-0.1,9.1-0.2c2.5,0.1,5,0.4,7.5,0.6c4.4-0.2,9.1-0.4,13.4-0.6c3.1,0.6,5.8,1.1,8.9,1.6c0.9,0,1.9,0,2.8,0
				c2.5,0.2,3.5-1.2,10.5,1.1C340.8,35.8,341.3,36.8,336.5,39.1z"/>
		</g>
		<g>
			<path class="st3" d="M331.1,32.8c-3.1-0.1-5.9-0.1-9-0.2c-4.4,0.2-9.1,0.4-13.4,0.6c-1.5-1.3-3-2.6-4.5-3.8c-1,1.1-2,2.1-3,3.3
				c-3,0.1-6,0.1-9.1,0.2c-3,0.1-6.1,0.2-9.1,0.3c-1.5-1.6-2.7-3.2-4.3-4.6c1.9-0.4,4.1-0.8,6-1c3-0.2,6-0.5,9-0.7s6.1-0.4,9.3-0.6
				c0.3,0,0.9,0,1.3,0c5.7-0.3,11-0.5,16.7-0.8c4.7,0.7,9,1.3,13.4,1.8C333.2,29.1,332.2,30.9,331.1,32.8z"/>
		</g>
		<g>
			<path class="st3" d="M307.4,56.6c-4.4-0.5-8.2-0.7-11.7-0.8s-6.5,0.1-9.3,0.4c-2.8,0.3-5.2,0.7-7.5,1.2s-4.4,1.2-6.5,1.9
				c2.1-0.7,4.2-1.3,6.5-1.9c2.3-0.5,4.8-0.9,7.5-1.2c2.8-0.3,5.8-0.4,9.3-0.4C299.2,55.9,303.1,56.2,307.4,56.6z"/>
		</g>
		<g>
			<path class="st4" d="M228.9,38.4c0.1-2.3,2.7-2.8,5.7-3.2c3-0.3,6.4-0.4,7.9-2c-2.3-1.9-4.2-3.7-6.5-5.6c2.5-0.5,5.1-1.1,7.6-1.5
				c1.3,0.4,2.2,0.8,3.2,1.4c0,1.3,0.1,2.4,0.1,3.9c7.6,0.2,8.5-3.5,13.5-2.6c6-0.2,12.3-0.2,18.3-0.1c1.5,1.4,2.8,3,4.3,4.6
				c-1.6,0.1-3.3,0.3-4.8,0.4c-1.6,0.2-3.2,0.3-4.7,0.5c-3.1,0.3-6.2,0.7-9.3,1c-3.1,0.4-6.3,0.8-9.6,1.2c-1.7,0.2-3.4,0.4-5.1,0.7
				c-1.8,0.2-3.6,0.5-5.4,0.8c-1.8,2.1-5.6,1.9-8.7,2.4C233.1,39.6,231.2,38.9,228.9,38.4z"/>
		</g>
		<g>
			<path class="st3" d="M260.5,28.8c-5.1-0.9-6,2.8-13.5,2.6c0-1.4-0.1-2.6-0.1-3.9c4.4-0.4,9.2-0.6,13.6-1
				C260.5,27.1,260.5,27.9,260.5,28.8z"/>
		</g>
		<g>
			<path class="st3" d="M247.7,64.8c-3.3,0-7,0.1-10.3,0.1c0-0.5,0-1-0.1-1.5c3-0.9,3.9-2.3,11.8-1C248.6,63.1,248,64,247.7,64.8z"
				/>
		</g>
		<g>
			<path class="st3" d="M228.1,76.8c-3.9-0.9-7.9-1.7-11.8-2.5c-0.3,0-0.9,0.1-1.2,0.1c-3.6,0.7-6.8,1.6-10.1,2.2
				c-0.8,1.4-1.5,2.9-2.6,4.3c-4.1,1.1-7.3,3-10.7,4.6c-1.7,0.8-3.6,1.6-5.6,2.3s-4.3,1.3-6.9,1.7c1.9,3.1-9.4,1.2-6.4,5.2
				c-4,2.2-8.1,3.4-12.3,4.3c-4.1,0.9-8.3,1.4-12.6,1.9c-4.2,0.6-8.4,1.2-12.5,2.2c-4.1,1.1-8.1,2.7-11.9,5.1
				c-3.1,1-7.5,1.6-9.4,3.5c2.5,1.5,6.9-0.2,7.6,1.8c0.2,0.8,0.4,1.6,0.6,2.4c-3.5,1.6-6.7,3-10.2,4.6c-1.6-0.2-3.1-0.5-4.4-1
				c-0.2-1.8-0.1-3.9-0.3-5.7c7.7-8,12.3-11.8,20.1-14c1.5-0.8,3.1-1.6,4.7-2.4c1.6-0.8,3.2-1.6,4.7-2.4c-1.6,0.2-3.4,0.3-5.1,0.5
				s-3.4,0.4-5.1,0.5c-0.3-1.4-0.7-3-1-4.4c1.6-1.1,3.5-2.2,5.2-3.1c2.9-0.7,5.9-1.5,8.5-2.2c3-0.6,5.7-0.9,8.7-1.2
				c3.5-1.3,6.4-2.7,9.5-3.9s6.2-2.4,9.8-3.4c0-0.3-0.1-0.6-0.1-0.8c0.9-0.2,1.8-0.4,3-0.6l8.5-1.6L183,74l4.3-0.7
				c3-0.8,5.9-1.6,8.6-2.2c1.8-0.1,4-0.1,5.8,0c3.3-0.8,6.8-1.6,10.1-2.2c0.9-0.4,1.8-0.7,3-1.2c2.7,0,5.8-0.2,8.5-0.2
				c0,0.8,0.1,1.6,0.1,2.3c3,0.4,6.1,1,8.8,1.5C230.6,72.9,229.5,74.8,228.1,76.8z"/>
		</g>
		<g>
			<path class="st4" d="M160.7,51.8c-3.4,1.2-6.4,2.3-9.1,3.4c-2.7,1.1-5.2,2.2-7.5,3.2s-4.5,2-6.7,3s-4.4,2-6.8,2.9
				c-2.7,0.8-5.4,1.6-8,2.4c-2.6,0.9-5.2,1.8-7.9,2.7c0.4,1.2-1.2,2.1-3.3,3.1c-2.1,1-4.6,2.1-6.1,3.6c4.5-1.2,8.8-2.1,13.4-3
				c1.2,1.2,2.4,2.5,3.6,3.7c-2.7,1.5-5.6,2.5-8.5,3.3s-5.7,1.6-8.2,2.4c-3.2,0.1-6.3,0.3-9.1,0.4c-2.1,0.7-3.8,1.3-5.6,1.9
				c-2.7,0.7-3.5,2.7-5.3,4.1c-2.6,0.9-5.6,2-8.2,2.9c0.5-1.7,0.9-3.6,1.3-5.5c-2.7,0.9-5.6,2-8.5,3c-0.3,0.1-0.9,0.3-1.2,0.4
				c-0.2-0.6-0.4-1.4-0.7-2.2c-0.5-1.6-0.9-3-1.4-4.5c-3-3.2-5.3-3-4.8-4.8c1.6-1.3,3.6-2.6,5.2-3.7c1.9,0.7,3.7,1.4,5.6,2.1
				c6.3-2.3,13.1-3.8,16.6-8l-1-3.8c2.7-0.9,5.4-1.7,8.1-2.5c2.7-0.8,5.4-1.6,8.1-2.5c5.4-2.2,10.6-4.2,16-6.1
				c4.1-2.5,8.7-3.7,13.1-4.8c4.9-1.8,9.8-3.5,14.7-5c3.1-0.7,6-1.2,9.1-1.9c0.3,1.8,0.5,3.5,0.8,5.5c-3.2,0-6.1,0.1-9.3,0.3
				c-0.8,1-1.6,2-2.7,2.9C149.2,51.7,149.4,54.5,160.7,51.8z"/>
		</g>
		<g>
			<path class="st3" d="M88.6,65l1,3.8c-3.5,4.2-10.3,5.7-16.6,8c-1.9-0.7-3.7-1.4-5.6-2.1c3.2-1.6,6.7-3.4,9.9-5.1
				C78.3,67.7,84.7,66.5,88.6,65z"/>
		</g>
		<g>
			<path class="st3" d="M77.3,91.8c-1.2,0.4-2.1,0.7-2.9,1c-2.4,0.8-4.7,1.5-7.1,2.3c-2.4,0.7-4.7,1.5-7.1,2.2
				c2.8-2.5,5.6-4.9,8.7-7.5c0.3-0.1,0.9-0.3,1.2-0.4c2.9-1,5.9-2.1,8.5-3C78.2,88.2,77.8,90.1,77.3,91.8z"/>
		</g>
		<g>
			<path class="st3" d="M66.9,83.1c0.5,1.6,0.9,3,1.4,4.5c-3.8,0.6-7.2,1-10.7,1.7c0-0.9,0.4-1.9,0.7-2.9c1.1-2.7,2.6-5.4,3.8-8.1
				C61.6,80.1,63.9,79.9,66.9,83.1z"/>
		</g>
		<g>
			<path class="st3" d="M55,100.3c-4,2.1-7.2,4.2-9.9,5.9s-5,3-7.6,3.3c-0.2-0.6-0.4-1.1-0.9-2.3c0.8-1.4,1.3-2.9,1.8-4.2
				c5.5-1.4,10.8-2.3,16.3-3.6C54.8,99.9,54.9,100.2,55,100.3z"/>
		</g>
		<g>
			<path class="st6" d="M886.8,85.5c-0.5,0.6-1,1.2-1.5,1.8s-1.1,1.1-1.6,1.7c-1.1,1.2-2.3,2.2-3.5,3.3c-1.1,0.6-2.2,1.1-3.3,1.7
				c-0.3-0.6-0.6-1.3-1.3-2.8c1.5-2.4,2.6-4.9,3.7-7.4c0.6-0.4,1.2-0.7,1.8-1.1c0.3-0.2,0.6-0.4,0.9-0.6c0.3-0.2,0.6-0.4,0.8-0.6
				C884.1,82.8,885.6,84.1,886.8,85.5z"/>
		</g>
		<g>
			<path class="st6" d="M667.2,99.4c-3.2-0.7-5.1,2.2-12.7-1.8c1.6-0.3,3.3-0.8,4.9-1.4C661.9,97.3,664.7,98.3,667.2,99.4z"/>
		</g>
		<g>
			<path class="st6" d="M127.9,121.3c-2.8,1.2-5.3,2.8-7.3,4.5s-3.5,3.6-4.4,5.4c0.4,1.7,0.9,3.6,1.4,5.3c-1.4,0.4-2.7,0.9-4,1.3
				c-2.6-0.9-4-2.9-7.2-0.9c-3.3,1.9-6.3,3.7-9.5,5.7c-0.9-1.1-1.5-2.2-2.5-3.3c-4.1-3.6-0.5-5.4,3.7-7.2c2-0.9,4.2-1.7,5.7-2.6
				c1.4-0.9,2.1-2.1,1.1-3.6c-2.1,0.9-4.3,1.9-6.4,2.8c0.8-2.5-3-2-3.7-3.5c0.1-0.7,0.5-1.4,0.6-1.9c3.6-1.3,7.2-2.4,10.8-3.6
				c0.3-0.1,0.8-0.3,1.4-0.5c1.3,0.4,2.9,0.7,4.4,1c3.2,4.4,9.1,0.8,12.8,0.2C125.8,120.9,126.7,121.2,127.9,121.3z"/>
		</g>
		<g>
			<path class="st6" d="M68.9,89.8c-3.1,2.6-5.9,5.1-8.7,7.5c-0.6,0.2-0.9,0.3-1.5,0.6c-0.3-2.8-0.9-5.7-1.2-8.6
				c3.4-0.6,6.9-1.1,10.7-1.7C68.5,88.4,68.8,89.2,68.9,89.8z"/>
		</g>
		<g>
			<path class="st6" d="M76.2,144.7c0.1,0.2,0.2,0.5,0.2,0.6c-1.6,0.6-3.4,1.4-5,2c-1.8-0.8-3.7-1.8-5.5-2.7c2.9-1.2,6.1-2.5,9-3.7
				C75.3,142.3,75.7,143.3,76.2,144.7z"/>
		</g>
		<g>
			<path class="st4" d="M308.6,33.3c-2.5-0.2-5-0.4-7.5-0.6c1-1.2,2-2.1,3-3.3C305.6,30.7,307.1,32,308.6,33.3z"/>
		</g>
		<g>
			<path class="st4" d="M213.5,33.9c-4.1,1-7.8,1.9-11.9,3c-4.1,0.6-8.2,1.1-11.9,1.7c0,0.3,0.1,0.7,0.1,0.8
				c-7.8,4.6-11-1.3-22.7,2.5c-0.7-0.7-1.5-1.4-1.9-2.1c4.8-1.6,8.6-3.1,12.1-4.2c3.5-1.1,6.7-1.8,10.4-2.1c9.2-1.4,18-2.7,27.2-3.8
				C214.6,31.2,214.1,32.5,213.5,33.9z"/>
		</g>
		<g>
			<path class="st4" d="M191.8,59.7c-3,0.5-6.1,1-8.8,1.4c-2.2-0.6-4.2-1.4-6.2-2c-3.8,0.2-7.1,0.8-10.1,1.6s-5.7,1.9-8.3,2.9
				c-5.2,1.9-10.2,3.8-16.8,3.7c-0.1-0.6-0.2-1.1-0.3-1.6c5.4-1.8,10.5-3.4,15.9-5.2c2.2-0.8,4.8-1.5,7.5-2.2
				c2.7-0.6,5.6-1.2,8.6-1.7c5.9-1.1,12.2-1.7,17.9-2.4C191.4,56,191.6,57.9,191.8,59.7z"/>
		</g>
		<g>
			<path class="st4" d="M167.2,77.6c-3.7,1-6.8,2.2-9.8,3.4c-3.1,1.3-6,2.6-9.5,3.9c-3,0.3-5.7,0.6-8.7,1.2
				c-2.6,0.7-5.6,1.4-8.5,2.2c-0.2-0.8-0.3-1.6-0.5-2.2c2.9-1.1,5.8-2.1,8.4-3c2.7-1.9,5.2-3.5,8-5.1c2.6-0.9,5.2-1.8,7.8-2.7
				c2.6-0.8,5.2-1.6,7.8-2.4c1.7,1.3,3.1,2.5,4.9,3.8C167.1,76.9,167.2,77.3,167.2,77.6z"/>
		</g>
		<g>
			<path class="st4" d="M136.6,94.9c-4.6,4.3-6.9,5-9.3,4.8c-7.7,2.3-12.4,6-20.1,14c-3.8,0.7-7.2,1.4-11,2.1
				c-0.8-0.6-1.3-1.3-2.1-1.9l-1.1-3.8c-0.7,1.8,1.9,0.1,2.7-1.6c-0.1-1.7-2.1-3.2,0.2-5c1.4-0.5,3.1-1.2,5,2.5
				c1.4-0.5,2.8-0.9,4-1.3c2.5-3.3,5.4-6.6,8.1-9.7c4-1.3,8.4-2.4,12.5-3.5c0.3,1.4,0.7,3,1,4.4c1.7-0.1,3.4-0.3,5.1-0.5
				C133.2,95.2,135,95,136.6,94.9z"/>
		</g>
		<g>
			<path class="st4" d="M83.3,121.9c-0.8,0.3-1.6,0.6-2.8,1c-2.5,2.9-4.9,5.9-7.3,8.7c-0.5,0.2-1.1,0.4-1.4,0.5
				c-4.3,1.9-8.5,4-12.6,6.1c-4,0.9-8.3,1.9-12.3,2.8c-0.2-0.4-0.4-0.9-0.5-1.4c-2.8-1.5-5.4-3.2-8-4.8c1.5-3.4,3.4-6.8,5-10
				c-1.1-0.2-2.1-0.3-3.1-0.4c-1.4,0.6-2.7,1.3-4.1,1.9c-6.7,1-5.2-3.8-7.1-6.2c1.3-1.7,2.8-3.7,4.1-5.4c2.7-0.7,3.6-2.5,4.2-5.3
				c2.5-0.3,4.9-1.6,7.6-3.3c2.7-1.7,5.8-3.8,9.9-5.9c1.5,3.4,3.2,6.6,4.9,9.7c-1.8,1.4-3.3,2.6-5.1,3.9c0.5,1.5,1,2.9,1.6,4.4
				c3.1-1.3,6.4-2.6,9.5-3.9c2.3-0.9,4.5-1.7,10-2.3c0.1,0.3,0.2,0.6,0.2,0.8c0.8,1.4,1.8,2.6,2.5,4.1c1.6,0.2,3.3,0.5,4.9,0.6
				C83.3,119.1,83.2,120.5,83.3,121.9z"/>
		</g>
		<g>
			<path class="st4" d="M79.5,150c-1.9,1.3-3.8,2.6-5.7,4.1c-0.8-2.3-1.6-4.4-2.4-6.7c1.6-0.6,3.4-1.4,5-2
				C77.2,146.9,78.4,148.6,79.5,150z"/>
		</g>
		<g>
			<path class="st7" d="M424.9,36.7c-5.2,1-10.4,2-15.5,3.1c-0.3,0-0.9-0.1-1.5-0.2c-0.8-0.6-1.7-1.1-2.5-1.9c0.2-1.4,0.5-3,0.7-4.5
				c5.9,0.5,11.7,1.2,17.6,1.8C424.1,35.6,424.7,36.2,424.9,36.7z"/>
		</g>
		<g>
			<path class="st7" d="M107.5,119.4c-0.6,0.2-1.1,0.4-1.4,0.5c-3.6,1.2-7.2,2.3-10.8,3.6c-0.5-0.8-1.4-1.7-2-2.6
				c0.7-1.6,1.8-3.4,2.8-5.1c3.8-0.7,7.2-1.4,11-2.1C107.4,115.5,107.3,117.6,107.5,119.4z"/>
		</g>
		<g>
			<path class="st7" d="M81.4,134.3c-1.1,0.4-1.9,0.7-2.7,1c-1.6-0.1-2.8-0.2-4.3-0.1c-0.4-1.2-0.8-2.5-1.2-3.7
				c2.4-2.8,4.8-5.8,7.3-8.7c1.1-0.4,1.9-0.7,2.8-1c0.1,0.3,0.2,0.6,0.2,0.8c1.6,2,3,3.9,4.8,5.7C85.9,130.3,83.5,132.4,81.4,134.3z
				"/>
		</g>
		<g>
			<path class="st5" d="M138.4,118.5c-2.1,1.4-4.1,2.8-6.2,4c0.9,1.6,1.6,3.4,2.6,5c-3,0.9-6.3,1.7-9.3,2.6c-2,1.4-1.4,2.6-3.1,4.1
				c-1.3,0.7-2.6,1.3-3.6,1.9c-0.5,0.2-1.1,0.3-1.3,0.4c-0.4-1.7-0.9-3.6-1.4-5.3c0.9-1.8,2.4-3.6,4.4-5.4c2-1.7,4.5-3.4,7.3-4.5
				c-1.2-0.2-2.2-0.4-3.1-0.8l-6.6,2c-4.6,2.8-6.2,0-6.2-2.2c3.5-1.6,6.7-3,10.2-4.6c-0.2-0.8-0.4-1.6-0.6-2.4
				c1.9-0.7,3.6-1.5,5.5-2.2c3.9-1.9,6.7-1.7,9.7-1.4s6.3,0.7,11.3-0.9c1.7,1.4-2.4,2.9-2.2,3.7c-2.7,1.2-5.1,2.3-7.8,3.6
				C138.1,116.9,138.3,117.7,138.4,118.5z"/>
		</g>
		<g>
			<path class="st1" d="M134.9,127.5c0.3,1.3,0.6,2.5,0.9,3.8c-2.2,0.4-4.4,0.9-6.6,1.4c-2.2,0.5-4.4,1.1-6.6,1.5
				c1.7-1.5,1.1-2.7,3.1-4.1C128.6,129.2,131.9,128.4,134.9,127.5z"/>
		</g>
		<g>
			<path class="st2" d="M683.8,142c-3-0.5-5.7-1-8.7-1.5C677.8,141.1,676.4,137.7,683.8,142z"/>
		</g>
		<g>
			<path class="st2" d="M157.8,124.1c-1.2,0.9-2.7,1.8-4.3,2.6c-1.6,0.8-3.5,1.6-5.4,2.2c-1.9,0.6-4,1.2-6.1,1.6
				c-2.1,0.4-4.2,0.7-6.3,0.8c-0.3-1.3-0.6-2.5-0.9-3.8c4.9-1.2,9.7-2.1,14.7-3c1.3-0.1,2.6-0.2,4-0.3
				C155,124.2,156.4,124.1,157.8,124.1z"/>
		</g>
		<g>
			<path class="st5" d="M220.3,89.4c-6,3.2-9.1,3.6-12.3,4.1C202.7,87.6,214.5,87.3,220.3,89.4z"/>
		</g>
		<g>
			<path class="st5" d="M740.6,125.4c-1.9-1.1-3.6-2.1-5.5-3.1c2.1-1.4,3.1-3.8,7.7-2.2c2.6,0.6,4.6,1.2,7,1.6
				C749.2,125,742.8,121.9,740.6,125.4z"/>
		</g>
		<g>
			<path class="st3" d="M498.4,65.8c-2.6-0.6-4.2,0.7-6.5,1.2c-2.3-0.7-4.6-1.3-7-2c-3.5,0.2-6.9,0.5-10.4,0.8
				c-1.1-0.8-1.9-1.5-2.6-2.1c-2.5,0.3-5.4,0-8.3-0.5c-2.9-0.5-6-1.1-8.9-1.3c-2.9-1.1-5.8-2-8.4-2.8c2.4,0.3,4.2-0.9,6.2-1.4
				c3.3,0.5,6.7,1,10.1,1.5c3.4,0.5,6.7,1.1,10,1.6c2.4,0.4,4.8,0.7,12.5,3.5C488.4,64.5,490.4,62.8,498.4,65.8z"/>
		</g>
	</g>
</g>
</svg>
