<svg id="图层_1" xmlns="http://www.w3.org/2000/svg" xmlns:xlink="http://www.w3.org/1999/xlink" x="0px" y="0px"
	 viewBox="0 0 730.2 81.3">
<g>
	<g>
		<path d="M13.3,35.5c96.4,10.9,193.1,21.6,290.3,22.2c48.2,0.3,96.4-1.9,144.2-8c23.5-3,46.8-6.9,70-11.8
			c22.9-4.9,45.7-12,69.1-14.4c13.1-1.3,26.5-1.1,39.2,2.7c12,3.5,22.3,10.6,33.3,16.3c16.2,8.4,39.8,13.7,53.1-2.7
			c2-2.5-1.5-6-3.5-3.5c-14.3,17.5-38.8,6.7-54.5-2.2c-9-5.1-17.9-10.1-27.8-12.9c-10-2.8-20.5-3.7-30.9-3.3
			c-22.2,0.9-43.7,7.1-65.3,12.1c-23.2,5.4-46.6,9.7-70.1,13C365.5,56.5,269,54.2,173.7,46.7C120.2,42.5,66.8,36.5,13.5,30.5
			C10.1,30.2,10.1,35.2,13.3,35.5L13.3,35.5z"/>
	</g>
</g>
</svg>
