<svg viewBox="0 0 245 579">
<style type="text/css">
	.st0{fill:none;stroke:#020203;stroke-width:2.65;}
</style>
<path class="st0" d="M0,570.5c10.7-10.5,31.7-13,44.6-5.3c13.9,6.9,36-1.1,42.3-15.1c5-14.1,23.1-25.4,38.3-23.8
	c15.3,0.8,32.6-15.1,33-30.7c-0.6-15.1,12.4-32.4,27.1-36c14.7-4.4,25.6-25,21-39.7c-5.3-14.1,2.1-34.7,14.9-42.5
	c12.8-8.4,17.5-31.3,9-44.2c-8.8-12.2-7.6-34.1,2.9-45c10.1-11.6,8.6-34.7-2.9-45c-11.8-9.5-16.2-30.9-9-44.2
	c6.7-13.9-1.1-35.7-14.9-42.5c-13.9-5.7-24.2-25-21-39.7c2.3-15.1-11.8-33.8-27.1-36c-14.9-1.1-30.9-15.8-33-30.7
	C122,35,102.1,22.6,86.9,26.3C72.6,31.1,52.4,24,44.6,11.2C35.3-1.2,11.8-3.9,0,5.9"/>
</svg>
