<svg viewBox="0 0 460 595.3">
<style type="text/css">
	.st0{fill:none;stroke:#020203;stroke-width:6;stroke-linecap:round;stroke-linejoin:round;}
	.st1{fill:#020203;}
</style>
<path class="st0" d="M15.2,588.5L15.2,588.5 M444.8,7.7L444.8,7.7"/>
<circle class="st1" cx="15.2" cy="588.5" r="6.7"/>
<circle class="st1" cx="38.9" cy="556.3" r="6.7"/>
<circle class="st1" cx="62.9" cy="524" r="6.7"/>
<circle class="st1" cx="86.7" cy="491.7" r="6.7"/>
<circle class="st1" cx="110.7" cy="459.6" r="6.7"/>
<circle class="st1" cx="134.5" cy="427.3" r="6.7"/>
<circle class="st1" cx="158.5" cy="395" r="6.7"/>
<circle class="st1" cx="182.2" cy="362.7" r="6.7"/>
<circle class="st1" cx="206" cy="330.4" r="6.7"/>
<circle class="st1" cx="230" cy="298.1" r="6.7"/>
<circle class="st1" cx="253.8" cy="265.8" r="6.7"/>
<circle class="st1" cx="277.8" cy="233.5" r="6.7"/>
<circle class="st1" cx="301.5" cy="201.5" r="6.7"/>
<circle class="st1" cx="325.5" cy="169.2" r="6.7"/>
<circle class="st1" cx="349.3" cy="136.9" r="6.7"/>
<circle class="st1" cx="373.3" cy="104.6" r="6.7"/>
<circle class="st1" cx="397.1" cy="72.3" r="6.7"/>
<circle class="st1" cx="421.1" cy="40" r="6.7"/>
<circle class="st1" cx="444.8" cy="7.7" r="6.7"/>
</svg>
