<?xml version="1.0" encoding="utf-8"?>
<!-- Generator: Adobe Illustrator 22.0.1, SVG Export Plug-In . SVG Version: 6.00 Build 0)  -->
<svg viewBox="0 0 451.8 226.5" enable-background="new 0 0 451.8 226.5" xml:space="preserve">
<g id="UEw35o.tif">
	<g>
		<path fill="#3A3A3A" d="M398.4,33.1c1-1,2-1.9,3-2.9c3.9,1.1,1.4,4.7,2.4,7c1.5,3.2,1.8,7,2.6,10.5c-1,1.3-1.2,2.8-0.7,4.4
			c0.5,2.5,1.6,4.4,4.5,4.5c0.3,0.3,0.6,0.6,0.9,0.9c2.2,1,1.6,2.6,1.3,4.4c-0.5,2.3-2.3,4.3-1.7,6.8c-0.1,0.6-0.8,0.7-1.2,1.1
			c0.5,0.3,0.6-0.4,1-0.5c0.6-4.2,1.9-8.1,3.6-11.9c1.4-1.7,1.2-3.7,1-5.6c-0.8-5.3,2.3-10,2.1-15.2c-0.1-1.2,0.9-1.8,2.4-0.8
			c3,2.1,7.6,13.7,7.1,17.5c-1.9,14.4-8.1,27.3-13.7,40.4c-2.3,5.6-5.4,10.7-7.7,16.2c-0.4,0.9-1.4,1.8-0.7,2.7
			c3.6,4.2,1,7.7-2.2,9.2c-5,2.5-5.4,7.3-7.6,11.3c-2.6,4.9-6.7,8.6-10.2,12.8c-10.1,12.3-22.4,22.3-34.8,32c-0.6,0.5-1.4,0.7-2.2,1
			c-1.5-0.6-2.3,2.4-4,0.9c-2.7,0.4-6.4-0.9-6.4,4.1c0,1.3-1.9,2-3.5,1.8c-1.4,0.5-2.7,1.1-4.1,1.7c-3.1,1-6.8-0.3-9.2,2.6
			c-2.2,0.7,0.2,2.3-0.6,3.3c-0.9,0.1-1.8,0.2-2.8,0.3c-1.8,0.4-2.8-3-5-1.2c-2.5,0.7-4.7,3.6-7.7,1.1c-0.1-0.1-0.9,0.4-1.1,0.7
			c-4.1,7.2-11.3,4.5-17.3,5.1c-13.8,1.4-26.6-4-39.5-7.4c-6.4-1.7-12.2-6-18.9-7.5c-1.7-0.4-2.1-3-2.8-4.1
			c-1.5-2.7-3.6-3.2-5.9-4.2c-1.1-0.5-4,0-1.9-2.9c0.3-0.4,0.2-1.1-0.9-1.1c-5.9,0.1-7.2-5.3-9.6-8.9c-2.1-3.2-2-7.8-7.1-8.6
			c-2.2-0.4-1.1-3.1-1.5-4.3c-2.1-6.1-6.1-11.3-9.1-16.7c-2.7-4.9-4-10.7-7.4-14.5c-2.8-3.2-3.3-8.6-8.3-9.8
			c-0.3-0.1-0.8-0.4-0.8-0.5c0.9-4.3-3.7-5.2-5.1-8c-2.6-5.3-7.7-7-12.5-7.2c-5.2-0.3-10.7,1.4-15.3,3.8
			c-7.3,3.9-14.6,8.2-20.4,14.3c-3.3,3.5-6.4,7.1-9.5,10.8c-2.3,2.7-4.3,5.7-7.6,7.1c-1.8,0.7-1.6,1.7-1.5,3c0.1,1.4-2.7,1.2-1.8,3
			c-5.4,3.5-7.1,9.7-10.7,14.5c0.4,0.6,0.5,1.2,0.4,1.9c-0.8,1.3-1.8,2.5-3.1,3.4c-1.7,0.7-2,2.5-3.1,3.7c-0.7,4.3-4.7,6.8-6.2,10.7
			c-0.4,0.6-0.1,1.6-0.8,2c-5.7,10.7-11.8,21.2-16.5,32.4c-0.9,2.1-2,4.1-3.6,5.6c-1,0.9-1.9,2.7-3.6,1.6c-1.4-0.9-1.1-2.6-0.8-4
			c0.3-2.1,1.4-4,0.8-6.2c-1.2-2.8,1.9-4.6,1.7-7.2c1-1.7,1.1-3.7,1.8-5.5c2.9-2.6,3-6.2,3.3-9.6c0.9-1.5,1.8-3.1,3.1-4.3
			c0.6-0.8,0.9-1.7,1.2-2.9c-0.8,0.9-0.6,2.1-1.2,2.9c-1,1.3-3.4,1.5-3,4c-2.4,2.9-1,7.2-3.8,9.9c-0.5,0.7-1,1.3-1.4,2
			c-0.2,0.5-0.4,1.1-0.6,1.7c-0.1,0.6-0.2,1.2-0.4,1.8c-0.9,2.5-2.2,4.7-3.9,6.7c-1.4,1.3-2.2,2.9-2.7,4.7c-1.6,0.3-3.5-0.1-4.4,2
			c-0.7,0.6-1.4,1.1-2.4,0.7c-1.6-0.8-2.6-2.1-5-1.8c-2.8,0.3-4-1.4-4.8-5.2c-1.9-8.7,0.7-16.4,4.4-23.2c4.7-8.5,4.3-18.1,8.2-26.6
			c6.4-13.9,13.4-27.4,21.2-40.6c3.7-6.3,6.5-12.9,11.5-18.4c1.1-1.3,2.3-2.1,3.8-2.8c0.4-1.4,0.9-2.8,2-3.8
			c3.8-1.3,5.4-4.5,6.8-7.9c1.2-0.2,1.3-1.3,1.9-2C93.7,69,101,65,108.4,61.6c7.7-3.5,15.9-5.9,24.3-7.7c8.4-1.8,16.6,0.2,24.8,0.6
			c0.7,0,2.6,1.6,3.3,2.4c4,4.4,9.6,3.8,14.5,5.3c8.3,2.6,15.6,6.9,22.1,12.7c14.4,12.9,24.7,28.7,33.8,45.6c4.8,9,9.7,18,14.9,26.8
			c3,5.1,6.9,10.4,12.1,12.2c4.6,1.6,10.6,2.2,16,0.5c5.6-1.8,11.4-2.6,17.1-4.5c8.2-2.7,15.4-6.8,22.6-11.2
			c11.7-7.1,21.8-16.1,30.6-26.5c5.1-6,10.1-12.2,14.6-18.8c4.9-7.2,8.4-15.1,12.2-22.7c2.8-5.7,5.4-12,7.3-18.4
			c2.5-8.4,6.8-17.1,15.1-22.2C395.1,34.7,397,34.4,398.4,33.1z"/>
		<path fill="#4B4B4B" d="M410.3,105.5c0.9-2.2,1.9-4.5,2.7-6.7c0.4-0.9,0.9-1.2,1.8-0.8c1.1,0.5,1.1,0.9,0.7,2.2
			c-0.9,2.8-2.8,4.9-4.4,7.2C410.5,106.9,410.3,106.3,410.3,105.5z"/>
		<path fill="#5B5B5B" d="M38.9,208.4c0.6-0.3,1.3-0.6,1.9-0.9c0.6-0.6,1.3-0.6,2-0.2c3.1,2-1.8,3.1,0.4,5.3
			C40.5,211.5,39.7,209.9,38.9,208.4z"/>
		<path fill="#3A3A3A" d="M418.7,90c0.3,0.3,0.8,0.7,1.2,1.1c-1.4,1.4-1.3,4-3.8,4.5c-0.9,0.2-1-0.8-0.9-1.4
			C415.5,92.2,416.7,90.9,418.7,90z"/>
		<path fill="#4E4E4E" d="M407.6,49.6c-0.1,2-1.1,3-3.2,3c0.9-1.6-3.2-5.1,2-5C407.6,47.9,407.2,49,407.6,49.6z"/>
		<path fill="#6A6A6A" d="M80,86c1,2.1-1.1,2.6-2,3.8C77.4,87.9,76.8,86,80,86z"/>
		<path fill="#939393" d="M75.1,172.2c-0.1-0.9,0.1-1.6,0.8-2c-0.1,1.3,3.2,1.7,1.1,3.4C75.8,174.5,76.2,172,75.1,172.2z"/>
		<path fill="#6F6F6F" d="M343.7,180c1.4,0.2,2.3-2.4,4-0.9C346.5,180.3,345.5,182,343.7,180z"/>
		<path fill="#3F3F3F" d="M410.3,108.6c-0.1,1.4-0.8,2-2.2,1.6c-0.2-0.1-0.5-1.1-0.4-1.2C408.5,108.4,409.4,108.3,410.3,108.6
			L410.3,108.6z"/>
		<path fill="#444444" d="M88.8,153.7c-0.4-0.3-0.7-0.6-1.1-1c0-0.8,0.1-1.5,0.1-2.3C88.8,151.4,90.9,151.9,88.8,153.7z"/>
		<path fill="#A4A4A4" d="M98.6,135.9c-2.2-2.7,1.6-1.8,1.8-3C100.7,134.4,99.5,135.1,98.6,135.9z"/>
		<path fill="#3A3A3A" d="M410.3,105.5c0.7,0.4,0.9,1.1,1,1.9c-0.3,0.4-0.6,0.8-0.9,1.2l0.1,0.1
			C410.4,107.6,407.9,106.7,410.3,105.5z"/>
		<path fill="#9C9C9C" d="M88.7,76.1c-0.5,0.8,1.4,3.8-1.9,2C87.4,77.4,88.1,76.8,88.7,76.1z"/>
		<path fill="#F1F1F1" d="M52.5,190.7c-0.3,0.4-0.6,0.7-0.9,1.1C51.9,191.4,52.2,191.1,52.5,190.7z"/>
	</g>
</g>
</svg>
