<svg viewBox="0 0 375.1 358.6" enable-background="new 0 0 375.1 358.6" xml:space="preserve">
<g id="sUHRNM.tif">
	<g>
		<path fill="#3C3C3C" d="M130.7,163.1c1.5,1.7,2.1,3.9,2.3,6c1.3,14.7,11.1,22.7,22.6,29.6c8.2,4.9,17,8.8,26,12
			c1.3,0.4,2.3,1.4,3.5,2.1c-5,4.3-10.2,5.1-15.9,1.1c-1.6-1.1-3.7-2.8-5.4-2.2c-5.2,1.6-6.5,0.2-5.6-5c0.4-2.5-2.3-2.2-4.1-1.8
			c-2.7,0.6-6.7,1-7.4-0.8c-1.9-5.6-7.3-7.6-10.2-11.7c-2.2-3.1-4.9-5.1-7.7-7.1c-2.4-1.7-5.6-2.2-6.4-5.8c-0.4-1.7-1.7-1.5-2.8-0.8
			s-0.9,1.6-0.2,2.5c2.5,3.3,4.4,7.1,9.1,8.3c2.1,0.5,5.2,1.4,4.9,4.5c-0.2,2.9-3.2,2.4-5.2,3.1c-2.4,0.9-4.9,1.4-7.6,1.4
			c4,1.7,5.5,4.5,4.7,8.7c7.3-1.2,14.5-2.6,21.8-1.7c2.2,0.3,4.9,0.3,4.7,3.4c-0.2,2.9-2.6,2.3-4.6,2.2c-5-0.2-9.8,1.2-14.7,1.2
			c-0.6,2.2,1.1,3.1,1.8,4.5c0.8,1.6,0.9,3.1-0.5,4.4c-1.4,1.3-2.9,0.9-4.4,0c-1.9-1.1-3.1-3.2-5.7-3.2c5.1,6.4,11.5,7.4,18.6,3
			c-1.1-2.1-6-0.5-4.8-4.7c0.9-3.1,3.3-4.2,6.4-4.7c3.6-0.7,4.4,1.6,5.5,4.1c2,4.6,6.5,6,10.6,7.7c2,0.8,4.3,1.1,5.8,2.9
			c1.1,1.3,2.1,2.8,0.7,4.3c-4.6,4.9-3,9.4,0.5,14c1.3,1.7,0.3,3.4-1.3,4.6c-12-3.7-23.1-9.6-34-15.5c-9.3-5.1-18.4-11.8-24.2-21.5
			c-0.5-3.7-2.9-5.9-5.8-7.7c-1.4-0.2-1.2-1.2-1.3-2.2c-1.3-2.4-1.7-5.3-3.9-7.3c-6.8-18.3-8.8-37.5-9.1-56.8
			c-0.2-9.1,2.3-17.9,6.2-26c5.3-11.1,9.2-23.1,18.5-31.9c1.7-1.6,2.8-3.9,5.1-5c5.4-3.9,8.8-10,14.6-13.5c1.4-2.3,4.1-3,6.1-4.5
			c7.5-3.5,14.7-7.5,21.7-12c10.1-4.7,20.3-9.2,31-12.3c7.4-2,15.3-0.3,22.7-2.5c1-0.5,2.2-0.1,3.1-1c0.4,0,0.8,0,1.2,0
			c3.3,1.3,6.7,0.3,10,0.6c4.5,0,8.9,0,13.4,0c6.2-0.1,12.3,0.5,18.1,2.6c2.3,0.8,4.4,1.8,5.6,4.1c0.3,1.8-2.2,2.3-1.9,4.3
			c1.2-0.9,0.8-2.6,2-3.3c1.9-1.2,3.5-0.2,5,0.7c11.8,7.2,22.6,15.9,34.7,22.7c1.6,0.9,2.9,2.2,2.8,4.3c-0.7,1.6-3.9,1.2-3.5,3.4
			c0.4,2.2,3,2.2,4.7,3c1.3,0.6,2.7,0.3,4,0.7c4.1,6.7,3.4,8.6-4.2,10.9c3.4-0.6,6.2-1.7,9.2-1.8c3.1-0.1,5.3,1.4,4.6,4.7
			c-1.1,4.7-3.7,8.8-6.1,12.9c-1.4,2.3-4.5,0.8-6.7,2.1c1.1,5.8,5.7,7.9,10.2,9.9c3.8,1.6,5.5,3.8,3.8,7.9c-1.2,1.9-1.6,4.4-4.6,6
			c3.3-1.3,3.4-3.8,4.4-5.7c3.1-4.4,6.3-3.1,9.6-0.1c-0.1,1.3-1.5,1.5-2.4,2.3c2.1,1.3,3.4,0.2,4.7-0.9c2.6-0.6,3.9,0.8,4.1,3.1
			c0.2,1.7,0.3,3.1,1.9,4.1c0.4,0.5,0.7,1,0.9,1.5c0.5,2.1,0.6,4.1-0.4,6.1c-2.5,1.9-5.1,4.4-5.7-1.4c-0.1-1.2-0.7-1.7-2-1.6
			c-6.1,0.8-12.1,0.5-18.1-0.4c-2-0.3-4.1,2.9-7.4,0.4c1.1,2.9,2.8,2.2,4.2,2.5c3.4,0.7,4.4,3.5,4.6,6.2c0.3,3.1-2.7,3-4.8,3.2
			c-2.6,0.2-5.1,1.1-7.6,1.3c-2.3-1-1.4-3.6-2.5-5.2l0,0c-0.9-3.3-1.3-6.7-2.2-9.9c-0.8-3-0.3-5.4,1.1-8c2.9-5.5,1.1-10.8-4.6-12.5
			c-3.8-1.1-7.3-1.7-8.4-6.3c-0.2-1-2-1.3-3-1.9c-0.8-0.8-1.5-1.6-2.3-2.3c1.3-3.4,4.4-4.4,7.3-3.9c2.7,0.4,5,2.7,4.8,5.9
			c-0.1,1.4-0.3,2.5,1.4,2.3c3.4-0.3,5.6,2.1,8.7,3.8c-0.1-5-5.7-6.3-5.6-10.6c4.7-4.2-1.6-3.2-2.3-4.9c-0.4-2.1,1.2-3.3,2-4.8
			c1.6-3,1.7-5.6-0.6-8.3c-1.6-2-3.5-3.9-3.1-6.9c0.3-2.3-1.5-2-2.9-1.7c-3.7,0.6-7.2,0.1-10.7-1.3c-2.7-1.1-4.4-3.3-3.3-6.2
			c1-2.8,3.6-1.7,5.8-1.4c1.9,0.3,3.6,1.9,6,0.4c-2.7-3.8-7.4-4.9-10.3-8.1c-1.2-1.3-2,0.1-2.5,1.4c-0.8,2.1-1.4,4.6-4.2,4.3
			c-2.8-0.3-1.9-3.5-3-5.3c-2.9,1.4-3.6,6.6-7.8,4.3c-2.4-1.3-1.3-3.9-0.1-6.9c-2.2,1.7-4.4,3.7-5.7,1c-3-6-7.9-4.1-12.6-3.8
			c-1.8,0.1-4.5,3.1-5.3-0.6c-0.6-3,1-5.9,4.3-7.1c1.7-0.6,3.6,0.3,6-0.8c-1.5-2.1-3.3-2.7-5.5-2.1c-2.1,0.6-3.9,0.1-6.3-0.5
			c1,3.3,0.1,5.6-3.3,6.7c-4.5,1.4-6.4,0-5.8-4.6c0.2-1.4,1-2.9-1-3.5c-1.7-0.5-2.6,0.6-3.1,2.1c-0.8,2.5-4.2,4.8,0.4,7.5
			c2,1.2,0.3,3.8-1.4,4.9c-5.2,3.4-9.8,6-17.3,5.8c-7.7-0.2-16.3,1.8-24.4,3.1c-0.9,0.1-1.7,1.1-1.7,2.2c0.1,0.4,0.4,0.7,0.8,0.7
			c3,0,7-0.5,7.1,3.6c0,4.2-4.4,3-7.1,3.5c-1.2,0.2-2.4-0.1-3.6-0.1c-2.3,0.1-3.6,1.4-4.4,3.5c-1,2.6,0.6,4.1,2.5,5.4
			c-0.1-5.3,2.1-7.9,6.6-7.7c3.2,0.1,5.8,0.9,4.4,5.1c4.4-0.6,6.3-5.2,10.2-6.6c-0.4-1.7-2.4-1.9-3-3.3c-1.5-3.2,0.8-7,4.3-6.5
			c6.9,0.9,14,0,20.7,2.4c2,0.7,4.8,0.6,5.6,3c0.9,2.7-2.1,2.9-3.5,4c-0.9,0.6-0.9,1.7-1.5,2.6c-4.8,0.3-9.6,0.2-14.3,0.8
			c-9.4,1.2-16.9,7.6-25.9,10.1c-8.2,2.3-15.2,7.5-22.2,12.4c-4.8,3.3-7.2,9.1-12.3,12.1c-1.5-3-3.3-5.3-7.2-3.4
			c-0.7,0.3-1.6,0.2-2.4,0c-2.4-0.5-5.9,0-5.8-3.7c0.1-3.9,3.4-3.1,6-2.8c0.4,0,0.8-0.1,1.1-0.4c-6.6-1.6-12,3.2-10.8,9.8
			c0.4,2.4-0.6,3.4-2.6,3.9c-2.7,0.8-5.6,0.7-8.4,0.9c2.6,1.7,5.3,2.2,8.3,0.8c2.3-1.1,4.7-0.6,7,0.4c3.4,1.4,5.7,0.7,7-3.1
			c1.4-4.2,4.1-5.2,7.8-2.5c-10.2,12.6-15.4,27-14.8,43.3c-3.2-2.9-7-2.9-10.9-1.9c-1.6,0.4-3.3,0.4-4.4-1.1
			c-1.2-1.8,0.6-2.8,1.1-4.2c1.5-4.5,4-7,9-6.5c1.8,0.2,3.5-1.3,2.6-3c-1-1.8,2.6-4.7-1.8-5.8c-4.6-1.1-3.6-4.1-0.9-6.9
			c-4.2,1.7-6.4,9.1-12.7,4.1c-2.2-1.8-4.3-3.2-2.1-6.4c-4,5.6-2.9,8.7,3.5,10.4c1,0.3,2,0.4,2.4,1.5c0.5,1.4-0.5,2.3-1.5,3
			c-1.5,1-3.1,1.9-4.9,2.1c0.7,0.6,1.7,0.1,2.6,0.3c2.6,0.6,4.8,1.8,4.1,4.8s-3.2,3.2-5.8,2.2c-1.5-0.6-3.1-0.9-4.6-1.2
			c-3.9-0.8-6.7-0.7-6.6,4.7c0,2.6-2.2,4.9-2.8,8c1.9-1.6,1.1-3.7,2-5.2c1.2-2.1,3-2.5,5.1-2.2c1.8,0.2,2.9,1,2.8,3.2
			c-0.1,2.7,4.1,1.1,4.3,4.3c0.2,2.9-1.7,4.9-1.7,7.5c0,1.4,1.9,1.1,2.9,1.6c2.4,1.1,5,2,4.2,5.6c-1.1,1.2-3.2,1.5-3.3,3.6
			c-0.7,0.9-2.2,1.3-1.8,2.8c0.1,0.4,0.6,0.4,1,0.2c1.2-0.8,0.6-2.2,0.9-3.3c0.6-1.3,1.7-2.1,2.9-2.8
			C121.1,169,125.4,164.7,130.7,163.1z"/>
		<path fill="#3C3C3C" d="M340.7,128.4c4.7,9.6,4,20.3,6.2,30.4c1.2,5.5,0.4,11.5,3.5,16.6c0,0.4,0,0.8,0,1.2
			c-1.3,1.9-0.3,4.1-0.6,6.2c0.3,2.4-0.7,4.8,0.6,7.1c0,3.2,0,6.4,0,9.7c-1.5,2.7,0.1,5.7-1,8.5c-3.9,19.8-10.3,38.8-19.1,57
			c-1.3,2.7-2.6,5.4-5.2,7.1c-0.6-5.2-0.5-10.3,3.5-14.4c2.3-2.4,3.5-5,3.2-8.7c-0.4-5.1-2.1-9.1-6.5-11.9c-0.7-0.4-1.3-0.9-1.9-1.5
			c-1.7-1.6-2.3-3.4-0.7-5.3c1.5-1.8,2.9-1.2,4.7,0c4.6,3.1,9.9,1.1,11.5-4.1c1.2-3.8-0.9-6.6-5.1-6.7c-0.4,0-0.8,0.1-1.2,0.1
			c-2.6-0.3-6.5,1.3-7.3-2.2c-0.8-3.6,3.5-4.2,5.8-6c1.3-1,3.1-0.8,4.6-1.2c6-1.4,9.7-5.8,10.2-11.9c0.2-2.7-1.7-3.9-3.2-5.4
			c-2.1-2.2-2.8-4.3-0.2-6.6c3.1-2.8,3.4-6.2,2.1-10c-0.5-1.5-1.4-3.1-1-4.7c1-3.6-0.6-5.1-3.9-6c-3.5-0.9-4.3-2.8-1.4-5.5
			c-0.1,0,0.2-0.1,0.2-0.1s-0.3,0.1-0.4,0.1c-1.7,0.7-2.1,2.6-3.4,3.4c-1.6,1-3.5,2.1-4-0.9c-0.3-2-1.6-2-2.9-2.3
			c-1.5-0.3-2.8-1.1-2.6-2.8c0.2-1.9,1.8-2.5,3.4-2.9c2.2-0.6,4.9,0.3,6.7-2c-2.2-1.9-4.5-1.2-6.8-0.9c-4,0.6-7.9,0.6-11.9-0.8
			c-3.5-1.3-3.5-2.9-1-5.1c1.4-1.2,3.1-2,5-1.6c8.8,1.7,15.7-0.9,20.3-8.8C340.7,133.1,340.7,130.7,340.7,128.4z"/>
		<path fill="#444444" d="M214,30.6c-7.4,4.6-15.5,1.7-23.4,2.1c2.1-2.1,5.9-0.5,7.7-3.5c1.2,0,2.4,0,3.6,0
			C205.7,31.1,210.1,28.6,214,30.6z"/>
		<path fill="#3B3B3B" d="M205.5,186.1c-1.5,0.3-3,1.9-4.6,0.2c-2.1,0.8-4.3,0.7-6.5,0.1l0.1,0.1c-7-0.2-12.9-3.2-18.4-7.4
			c-9.2-10.7-13.2-24-11.6-37.3c1.6-13.3,10.8-23.1,23.3-29.3c9.9-4.9,19.7-9.4,31.2-9.2c4.3,0.1,8.1,1.8,12.3,2.2
			c9.8,0.9,18.2,5.9,25.7,11.2c6.2,4.4,11.5,10.9,14.7,18.3c2.2,5.1,3.6,10.6,5.3,15.9c-0.5,0.6-1.3,0.9-1.9,1.3
			c0.7-0.4,1.3-0.8,1.9-1.4c1.5,2.7,1.7,5.8,2.2,8.7c-1.1,8.9,2.5,17.6,1.6,26.6c-0.2,2.2-0.2,4.3-1.3,6.3c-0.5,0.6-1.8,0.7-1.8,1.2
			c0,0.7,1.3,0.3,1.8,0.7c2.7,2.3,0.4,5.2,0.9,7.7c-2.5,7.7-6.7,14.5-10.8,21.5c-6.4,11-16.3,15.9-26.7,21c-2-3.5,0-5.8,2.5-7.6
			c4.3-3.2,8.9-5.8,9.8-12.1c0.4-2.7,2.3-5.9,5.8-7.1c-3.6-0.3-7.1-0.9-7.3-5.3c-0.3-4.1,2.4-5.8,5.9-7.2c3.9-1.6,8-2.1,10.9-2.7
			c-2,1-5,0.5-7.8-1.2c-1.7-1-3.7-2-3.5-4.4c0.2-2.5,2.3-3.1,4.9-3.4c-5.1-2.7-5.5-6.1-1.6-10.1c-1.9-0.7-4.3,0.4-5.5-1.6
			c-2-3.6-4.7-2-7.3-1.2c-3.8,1.2-4.6,3.6-2.3,6.9c1,1.5,2.5,2.6,3.1,4.4c0.6,1.6,0.7,3.3-0.8,4.4c-1.6,1.2-4.2,1.5-4.9,0
			c-2.4-4.5-2.2,0.6-2.5,0.8c-3.1,2-3.4,8.2-9.4,6c9.9-12.1,7.7-25.9,5.9-39.7c4.6-0.8,5.5,3.1,7.1,5.8c3.7,6.5,4.7,6.6,9.7,1
			c3.3-3.7,6.3-7.6,10-11c-3.1,2.4-5.6,5.4-9.4,6.7c-1.7,0.6-3.6,1.3-5-0.4c-1.2-1.5-0.1-3,0.4-4.5c1.2-3.2,2.9-5.5,6.7-6
			c1.6-0.2,4.1-1.2,1.7-3.5c-1.7-1.6-4.8-2.4-3.9-5.3c1.2-3.7,3.7-6.6,7-8.8c1.1-0.7,2.6-0.2,3.6-1.1c-0.7-1.8-2-1.2-3.1-1
			c-2.4,0.5-4.8,0.6-7.2,0.1c-2.5-0.6-5.9-1.4-4.9-4.7c0.9-2.7,4-3.7,7-1.9c-1.9-2.1-5.2-1.2-7.3-3c-0.4-0.3-1.3-0.9-1.5-0.4
			c-1,2.1-2.4,4.7-4.7,3.3c-3.7-2.3-8.3-3-11.4-6.5c-0.8-0.9-1-2.2-2.4-2.6c-0.9,0.9-1.7,2.4-0.9,3.2c5.2,5,0.9,8.2-2,11.6
			c-1.2,1.5-2.3,2.8-1,4.8c1,1.6,2.4,2.6,4.4,2.7s4.8-2.2,5.9,0.8c1,2.8-1.4,4.7-3.6,6.2c-13.4-10.5-21.8-11-34.2-3.3
			c-5.3,3.3-3.1,7.8-2.4,11.8c0.7,4.1,4.4,2.7,7.4,2.5s6.8-3,8.7,2c1.1-0.1,1.8,0.7,2.6,1.2H216c6.7,5.5,6.8,13.1,0.2,18.1
			c-1.2,0.9-2.8,1.5-3.7,2.8l0.1-0.1C210.4,184.6,207.6,184.1,205.5,186.1z"/>
		<path fill="#3B3B3B" d="M339.5,159.7c-1.6,2.4-3.9,4.6,1.7,5.1c2.2,0.2,7.3,1.2,3.7,6.2c-1.8,2.4,1.2,3.9,1.6,6
			c0.8,4.2,0.5,8-3,10.6c-2.4,1.8-2.2,3.2-0.1,4.4c6.1,3.4,3.6,7.9,2.1,12.6c-1.7,5.3-5.9,7.7-10.7,7.5c-3.9-0.2-5.2,3.5-8.4,3.9
			c-0.3,0-0.7,1-0.6,1.4c0.2,0.8,1,1.5,1.8,1.1c1.8-0.9,3.6,0.4,5.2-0.1c3-1,6.8-0.4,7.1,2c0.4,2.7,2,6.2-2,9.4
			c-2.9,2.3-4,5.9-8.8,4.1c-1.4-0.5-2.6-0.5-3-2.1c-0.4-1.4-1.2-2.2-2.5-1.1c-1.2,1-1.6,2.6-0.2,3.6c2.1,1.4,3.8,3.1,6.8,3.3
			c6.9,0.4,7.6,2.2,3.7,7.9c-0.5,0.7-1.5,1.5-1.3,1.9c3.1,6.7-2.7,9.8-5.4,14.3c-1.8,3.1-0.1,7.3-2.3,10.5
			c-4.5,8.6-11.2,15.4-18.7,21.2c-8.2,6.2-16,13.1-25.5,17.4c-1.3,0.6-2.6,0.9-3.9,1.4c-2.6-5.2,1.1-6.1,5.8-6.7
			c-4.3-4.4-2.9-6.5,2-7.4c0.8-0.1,1.6-0.4,2.3-0.6c2.5-0.7,6.4,0.6,7.2-2.9c0.7-3.1-2.7-4.6-4.5-6.7c-2.5-2.8-6.1-5.4-2.3-9.6
			c1.5-1.6,3.1-3.8,5.5-2.7c2.5,1.1,0.6,3.6,0.8,6.4c1.2-2.3,2.4-3.8,3.3-6.4c-8.7-1.1-18.4,0.4-24.1-8.2
			c6.7-6.7,14.9-11.9,19.6-20.7c10.8-20.1,16.8-41.2,15.4-64.2c-0.7-10.4-3.1-20.5-3.8-30.8c0.8-2-0.2-4.1,0.4-6.2
			c2.2-1.9,5-2.1,7.8-2.4c1.4-0.2,4.3,0.5,3.5-1.6c-0.6-1.7-0.3-5.9-4.4-4.9c-3.3,0.9-5.2-0.3-5.2-3.6c0-1.2,0.7-3.8,2.9-1.6
			c3.8,3.7,4.2,0.3,4.9-2.5c3,2.1,5.2,3.3,9.6,2.1c3.2-0.9,7.9,0,12.2-0.4c4.6-0.5,0.5,3.7,1.1,6c1.3-0.2,2.5-0.5,3.8-0.7
			c-1.3,5.2-3.2,9.6-9.9,9.8c-3.8,0.1-7.4,2.9-11.6,0.2c-1.2-0.7-3.3,1.6-4.6,3.1c7.5,5,16.3-1.3,23.9,3.2c-2.1,4-5.7,4.4-9.8,4.2
			c-1.3-0.1-3.2,0.1-2.7,2.1c0.3,1.4,1.8,1.6,3,1.1c7.5-2.9,2.4,2.3,2.7,4.3C335.2,164,335,156.9,339.5,159.7z"/>
		<path fill="#3B3B3B" d="M233.1,203.1c5.4-1.7,8.4-6,9.5-14.1c2.1,1.2,2.8,2.8,2.5,5c-0.4,3.1,2,1.9,3.2,1.8
			c1.9-0.2,1.8-1.7,1.3-3.2c-0.6-1.6-2.1-2.4-3.1-3.6c-3.9-4.3-2.4-8.8,3.4-10c3.3-0.7,7.2-3.6,8.7,2.6c0.3,1.4,1.9,0.3,2.9-0.6
			c1.3-1.1,2.7-0.8,3.6,0.6c1.1,1.6-0.2,2.5-1.4,3.4c-4.4,3.1-3.4,5.3,1.2,6.9c1.1,0.4,3.4,0.1,2.7,2.3c-0.5,1.8-2,1.5-3.5,1
			c-1.8-0.7-3.4-0.2-3.8,1.7c-0.4,1.7,1.4,2,2.5,2.8c3,2.1,5.8,3.5,9.1,0.7c1.1-0.9,2.6-1.1,3.9-0.2c0.6,2-1.2,1.8-2.1,2.1
			c-4.5,1.6-9,3.3-13.7,4.5c-3.6,0.9-5.5,2.7-4.9,6.2c0.5,3.4,3.4,3.3,6.1,3.5c1.4,0.1,3.6-2.1,4.2,0.1c0.8,2.9-2.2,1.9-3.7,2.4
			c-3,1-6,7-4.9,10.1c0.6,1.6,0.5,3.5-1,3.4c-5-0.5-5.9,5.2-10,6.1c-2.7,0.6-2.2,3.9-2.8,6.1c-3.4,2.8-7.3,4.8-11.6,5.6
			c-10.9,2.1-21.7,5.4-32.8,5.8c-11.5,0.4-22.9,0-32.9-6.9c-0.3-1.8,3.3-6-2.7-4.2c-1.7,0.5-2.5-1.4-1.7-1.9
			c3.8-2.5,1.9-4.8,0.3-7.3c-1.2-1.9-0.5-3.4,1.4-4.4c1.3-0.6,3.8-0.3,2.9-2.8c-0.6-1.6-2.5-3.8-4-3.3c-5.7,1.9-7.7-6.5-13.2-4.5
			c-0.6,0.2-0.5-1.2-0.5-2c0-2.5,0.3-5.9-2.9-6.2c-3.1-0.2-6.3,1.2-7.1,5.1c1.5,1.9,3-0.4,4.5,0.3c1.2,0.5,2,1.2,2.2,2.6
			c0.1,1.1-0.4,1.9-1.2,2.6c-3.4,2.7-12.1,3.2-16,0.6c-1.7-1.1-3.4-2.1-5.2-2.9c-1.4-0.7-2.8-1.8-1.7-3.8s2.6-1.7,4.1-0.8
			c1.7,1.1,3.2,2.4,4.7,3.6c1.1,0.9,2.2,1.9,3.6,0.5c1.4-1.5,0.2-2.5-0.7-3.6s-2.1-2-2.7-3.2c-0.9-2,0.3-4.4,2.2-3.6
			c5.5,2,10.8-1.3,16.1-0.1c1.2,0.3,2.6,0.9,2.6-1.1c0-1.6-1.5-1.9-2.6-1.7c-3.8,0.6-7.4-0.7-11.6,0.5c-3.8,1.1-8.4,0.1-12.4,2.5
			c-1.1,0.7-2.3-0.6-1.8-1.4c1.6-2.3,2.4-4.3,0.7-7c-1.8-2.7-4.8,0.8-6.6-2.1c3.5-4.4,9.2-2.4,13.6-4.3c0.8-0.3,2,0.1,2.4-1.1
			c0.4-1.4-0.8-1.7-1.8-1.8c-6.7-1.2-9.6-7.2-14.3-10.9c-1.5-1.2-1.1-2.1,0-2.8c2-1.3,4.1-3.1,6.5-2.8c3,0.4,0.7,2.8,1,4.3
			c0.4,1.7,2.2,3,3.4,2.9c4.3-0.3,5.3,5.6,9.6,4.9c-0.6,6.2,4.5,6.3,8.3,7.9c0.6,0.3,1.1,1.8,1,2.6c-0.9,6.9,3.5,5.6,7.4,4.8
			c6.2-1.4,7.4-0.4,5.6,5.8c-0.4,1.5,0.7,3,1.2,2.1c3.9-5.9,7.4,0,9.2,1.2c4.5,2.8,8.1,3.8,12.5,0.6c0.7-0.5,2-0.2,3-0.2
			c13.6,3,26.4,0.1,38.9-5C227.2,206.5,230.1,204.6,233.1,203.1z"/>
		<path fill="#3A3A3A" d="M273,267.1c2.8,0,5.8-0.3,6.2,3.9c0.2,2.1,1.6,1.5,3.1,1.5c4.7-0.3,9.4,1.6,14.2,0.8
			c2.1-0.3,4,0.7,2.6,3.1c-1.5,2.6-3.7,4.7-4.5,7.7c-0.1,0.3-1,0.8-1.4,0.7c-0.8-0.1-1.3-0.7-1.2-1.7c0.1-2.3-0.2-4.6,2.8-7.4
			c-9.1,3.8-9.5,5.5-4.2,10.7c0.3,0.3,0.6,0.6,0.8,0.9c2.2,2.5,6.3,4.6,5.3,8.1c-1.1,3.7-5.4,3.4-8.8,3.2c-2.5-0.1-3.9,3-6.6,1.5
			c-0.6,3.3,4.7,1,3.4,4.6c-1,2.6-2.5,2.8-5.1,2.5c-3.7-0.3-1,3.6-2.6,4.8l0,0c-4.9,1.1-9.8,3-14.2-1.3c-1.1-1-1.7,0.3-2.5,0.8
			c-4.7,2.7-9.4,4.4-14.8,1.9c-2.1-1-4.3-0.8-5.9,1.5c0.3,1.6,2.1,1.8,2.8,3c1.1,2.1,3.2,4.2,2,6.6c-1.1,2.4-3.6,0.6-5.5,0.9
			c-6.1,1-12.2,2-18.4,2c-1.8,0-3.6,0.3-5.4,0.2c-1.5-0.1-2.8-0.7-3.4-2.1c-0.8-1.6,0.3-2.7,1.4-3.6c2-1.7,4.7-3.2,3.1-6.3
			c-1.6-3-4.5-3.8-7.8-3c-0.6,0.1-1.2,0.2-1.8,0c-3.8-1.4-7-1.7-7.9,3.6c-0.2,1.1-1.5,1.2-2.7,1.1c0.9,0.3,1.7,0,2.5,0.2
			c2.3,0.4,5.5,0.3,4.9,3.8c-0.5,3-2.9,5.3-6.1,4.6c-4.2-1-8.7-1.2-12-5c-3-3.4-6.1-4.6-10.3-0.8c-4.4,3.9-9.8,2.3-12.8-3
			c-2.6-4.5-7.8-5.5-12.2-2.3c-3.3,2.4-14.5,0.6-16.7-2.8c-1.9-3.1-0.3-5.1,2.7-4.4c5.6,1.3,4.6-4.6,7.5-6.2c1.1-0.7-1-1.6-1.8-2.4
			c-1.3-1.3-1-0.1-1.4,0.7c-1.7,3.7-4.8,3.2-7.6,1.8c-4.6-2.2-7.8-10.4-6.2-15.1c0.4-1.3,1.4-2,2.5-2.5c7.6-3.3,15.1-8,23.9-3.5
			c12.7,3.3,25.5,6.9,38.6,7.3c14.3,0.5,28.8,1.4,43-1.4c7.5-1.5,14-5.7,20.7-9.1C261.3,274,267.1,270.4,273,267.1z"/>
		<path fill="#3B3B3B" d="M299.7,96.9c2,2.2,4.1,4.4,6,6.7c1.4,1.7,2.9,3.6,0.3,5.6c-2.5,1.8-3.3,0.3-4.3-1.9c-1.5-3-4.6-1.7-7-2
			c-3.4-0.4-3.8-0.8-1.5-3.5c1.7-2,0-2.5-0.8-3.1c-1.2-1.1-3.4-3.8-4-2.1c-1.2,3.6-4.6,0.5-5.7,2.8c-1.6-1.5-3.3-3.1-4.9-4.6
			c-1-1.9-3.1-1.8-4.7-2.8c-0.5-0.2-0.9-0.4-1.4-0.7c-1.2-2.8-4.6-2-6.5-4c-1.1-1.1-3.2-1.4-3.7-2.9c-2.7-7.1-10-8.3-15.2-12
			c-3.2-2.3-7.2-1.3-10.7-2c-5.6-1.1-10.4,0.2-15.6,0.9c-0.4,0-0.8,0-1.2,0c-0.5-3.7-0.5-3.7,5.8-6.4c-7.6-1.3-13.2-4.8-19.9-3.5
			c-2,0.4-4.2,0.9-5.9-0.2c-2.3-1.5-3.4-1.2-4.5,1.2c-1,2.3,0.2,3.2,1.8,4.3c1.3,0.9,4.4,0.3,3.9,2.8c-0.5,2.7-3.8,0.3-4.4,1.2
			c-2.3,3.2-5.5,4.8-8.7,6.6c-1,0.6-1.9,1.5-3.3,1c-0.9-2.3,4-4.4,0.8-6c-1.9-1-5.3-1.7-7.5,1.4c-1.2,1.8-2.3,2.9,0.6,3.9
			c1.2,0.4,1,1.6,0.2,2.4c-0.5,0.6-1.7,1.5-1.8,1.3c-2.2-1.8-5.1-3.3-6.2-5.7c-1.4-3.1,3.8-8.2,7.4-8c2.2,0.2,4.3,0.5,6.5,0
			c1.2-0.3,3.3,0.5,2.9-1.8c-0.3-1.6-1.6-2.7-3.7-2.1c-1.3,0.4-2.8,0.7-4.1,0.7c-2.3,0-3.1-1.9-1.8-3.1c2-1.9,3.4-4.9,7.2-4.6
			c6.4,0.5,13,2,18.5-3.2c0.4-0.4,1.8-0.5,2.3-0.2c6.4,5,11,0.4,15.8-2.9c1.4-1,4.4-1.4,3.2-4.2c-1.1-2.6-3.4-0.9-5.9-0.7
			c1.6-3.5,4.7-5.8,4.9-9.9c0.1-2.5,3.6-2.2,5.6-1.4c1.9,0.7,3.6,1.9,1.7,4.5c-0.9,1.1-2.5,2.8-1,4.2c1.8,1.6,3.8-0.1,5.6-0.7
			c2.2-0.7,1.9-2.3,0.9-3.8c-0.8-1.2-1.8-2.4-0.3-3.6c1.8-1.4,2.3,0.5,3.2,1.4c1.4,1.3,2.5,0.9,4.2,0.1c3.6-1.7,6.9,0.3,8.4,3.4
			c1.7,3.5-2,2.7-3.3,2.4c-5.2-1.1-8,0.7-8.4,7c3.2-3.4,7-1.9,10.5-2.7c5.4-1.3,6.3,2.9,7.9,6.1c2,0.1,2.1-1.7,2.8-2.7
			c0.9-1.4,1.9-1.2,3-0.3c0.9,0.8,1.8,1.7,0.2,2.8c-1.9,1.3-2.9,3.8-0.9,5c2.8,1.7,3.2-2,4.6-3.4c1-1,0.7-3.5,3.1-2.8
			c1.8,0.5,2.5,1.9,2,3.7c-0.4,1.3-1.3,3.1,0.7,3.5c2.1,0.4,2.7-2,2.8-3.2c0.4-8.4,3.7-4.5,6.3-1.4c2.4,2.9,6.5,3.2,8.8,6.1
			c0.8,1,2.7,1.4,1.4,3.2c-0.9,1.2-1.9,2-3.6,1.3c-1.9-0.7-3.8-1.2-5.7-1.8c-1.4-0.4-3.3-1.8-3.9,0.7c-0.5,1.8,0.5,3.7,2.5,4.2
			c3.8,1.1,7.7,2.3,11.8,0.8c3.3-1.2,5.5-0.6,3.3,3.5c-2,3.6,1.8,5,3,6.3c4.8,5.3,1.5,8.6-1.7,12.4c-0.4,0.5-0.7,1-1,1.5
			C295.4,95,299.7,94.9,299.7,96.9z"/>
		<path fill="#3A3A3A" d="M84.7,82.4c-1.6,4.4-5.5,7.2-8.1,10.9c-4.3,6-8.8,11.8-10,19.4c-0.3,1.8-1.1,3.4-2.5,4.7
			c-1,1-1.2,2.5-1.9,3.7c-1.7,3.4-3.5,1.8-5.1,0.2c1.2,5.8,6.8,12.6-2,17.9c-2.9,0.9-3.4-1.4-3.8-3.2c-0.5-2.2,0.9-3.1,3.1-3.4
			c-2.5-1.7-5.7-0.2-8-2c-0.3-0.2-0.7-0.6-0.8-0.5c-0.7,0.5,0,1.1-0.2,1.7c-0.8,5.9-4,9.4-10.3,9.7c1.4,0,2.4-0.9,3.6-0.9
			c1.7,0.1,3.1,0.8,4.2,2c0.9,1.1,1.6,2.3,2.3,3.5c0.8,1.3,2.1,2.6,2.1,4.2c0,2.4-1.7,3-3.7,3c-3.7-0.1-7,1.5-10.9,2.4
			c3.2,5.3,3.1,11.2,5.2,16.6c0.9,2.4-1.2,3.5-3.4,4.5c3.1,1.3,6,1.6,9.1,1.1c2.6-0.3,5.3-0.4,6.4,2.9c0,1-0.7,1.4-1.5,1.8
			c-0.5,0.5-1.3,0.2-1.9,0.7c1,0.1,1.7-0.6,2.5-0.9c3.3,4.2-1.4,6.8-2.5,9.9c-0.6,1.7-3.1-0.2-4.4-1.4c-1-1.3-2.2-2-3.9-1.1
			c-1.8,0.7-3.5,1.5-5.5,0.4c-0.7-0.7-0.7-1.5-0.1-2.1c2.9-3.2,0.4-3.4-2-3.6c-1.4-0.5-2.6-1.6-4.2-1.3c-1.7-0.3-2.9,1-4.4,1.2
			c-2.7-0.2-3-2.2-3.1-4.3c2.2-2.3,4.8-4.1,8.1-6c-2.2-1.9-5.6-2.8-5.1-6.4c0.2-1.2-0.1-3,0.8-3.4c8.1-3.8,1.9-7-0.3-10.4
			c2.5-4.3,6.7-8.4,2.3-13.9c0-1.4,2.6-2.9-0.9-3.9c-3.3-0.9-3.4-4.1-2.8-7c0.6-2.8,0.4-6.4,4.8-6.2c2,0.6-0.5,4.4,2.8,4
			c0.6-1-0.3-1.6-0.5-2.4c-0.2-0.5-0.2-1-0.2-1.6c2.9-6,3.7-6.3,8.3-2.6c1.7,1.4,3.6,1.5,6.4,1.6c-2.8-3.5-5.1-6.9-3.2-11.3
			c0.3-0.7-1.5-1.1-2.2-1.7c-0.5-0.3-0.9-0.7-1.3-1.1c-1.5-1.8-2.8-3.9-4.6-5.5c-4.8-4.3-4.6-5.8,1.1-10c2-0.5,4-0.4,6,0.1
			c-0.8-1.1-2.2-1.4-3.1-2.5c-1.5-1.9-2.1-3.9-0.8-6.1s3.5-2.9,5.7-1.9c5.1,2.4,10.3-0.3,15.4,0.7c1.6,0.3,3-1,4.1-2.2
			s2.3-2.7,4-2.1c5.3,1.7,8.2-2.9,13.6-3.8c-1.5-0.7-1.7-0.8-1.8-0.8c-2.4-0.2-5.7,3-6.9-0.3s2.1-5.8,4.8-7.5
			c4.1-2.5,8.4-1.8,11.6,1.4c2.7,2.6,4,6.2,0.8,9.6C84.6,78.4,86.1,80.7,84.7,82.4z"/>
		<path fill="#3B3B3B" d="M152.9,280.2c-7-2-13.4,0.2-19.5,3.1c-1.9,0.9-5.3,0.7-5.5,3.5c-0.5,5.2,0.7,10.1,5.4,13.3
			c1.7,1.2,4,1.3,5.7,0c2.3-1.8-1.3-2.3-1.1-3.8c3.4-1.2,5.3,2.3,8.4,2.6c1.8,0.2,1.6,2.3,0,3.1c-2.4,1.1-4.1,2.1-4,5.4
			c0,1.8-1.9,3.4-4.5,1.6c-1.3-0.9-3.3-1.6-4,0.4c-0.6,1.7,1.3,3,2.8,3.3c3.3,0.7,6.7,0.8,9.7,2.7c0.9,0.6,1.4,0.2,2-0.4
			c6.6-6.3,12-5.4,16,2.7c1.5,3,7.7,3.7,10.3,1.2c4.4-4.4,8.2-4.4,11.7,0.5c3.2,4.4,8.3,3.2,12.4,5.1c1.2,0.5,3.8-2,3.8-4
			c0.1-2.2-2.6-1.2-3.9-1.9c-0.6-0.3-1.6-0.5-2.3-0.3c-2.1,0.6-4.8,1.2-4.7-1.5c0.1-3.8,2.8-1,4.4-0.8c2.9,0.5,2.2-1.7,2.2-3.1
			c0-3.5,1.1-4.9,4.7-3.1c2.4,1.1,4.7,1.9,7.8,0.4c2.9-1.3,6,2.2,7.3,4.4c1.2,2,1.5,5.9-2.6,7.3c-1.3,0.4-3.7,0.7-2.9,3
			c0.6,1.8,2.9,1.6,4.3,1.2c6.2-1.7,12.7,0.5,18.8-2.1c2.5-1,5.2-0.9,8,0.3c-1.9-3.4-1.2-9-8.3-7c3.3-5.5,6.4-8,12.2-5.2
			c5.3,2.6,9.8,0.6,13-4.1c0.9-1.3,2-1.1,2.2-0.5c3,7.5,9.5,2.8,14.2,4.3c-4.4,2.5-8.3,5.9-13.4,7.3c-0.2-0.3-0.4-0.4-0.4-0.4
			c0-0.2,0.1-0.1,0.4,0.4c-12.4,8.1-26.5,8.7-40.7,9.9c-11.3,1-22.5-0.1-33.8,0.6c-3.9,0.2-8-0.5-11.9-1.2
			c-16.4-3.1-32.6-7-48.4-12.3c-8.6-2.9-16.6-7.7-24.8-11.6c-0.7-0.9-1.4-2-2-3c-2-3.7-0.6-5.5,3.7-5.4c2.4,0.1,4.4,1.9,7.2,1.2
			c-1.6-1.5-3.5-1.6-5.1-1.5c-6.5,0.4-10.9-5.4-17.3-5.6c-1.9,0-3.2-2.4-2.9-4.7c0.4-2.6,2.7-3.3,4.6-2.7c4.7,1.4,9.6-1.5,14.1,1.2
			c0.4,0.2,1,0.5,1.1,0.3c3.3-6.4,13.3-1.7,15.8-9.7c0.7-2.4,2.9-4.8,6-2.4c2.1,1.6,6,2.5,2.5,7.8c2.5-2.7,3.3-5.8,6.7-4.8
			C143.5,276.1,148.6,277,152.9,280.2z"/>
		<path fill="#3B3B3B" d="M68.4,209c4.1,4.7,7.6,9.9,10.4,15.5c2.2,7.7,2.2,7.8-5.9,8.9c4.1-0.9,7.6-0.7,9.2,4.1
			c0.6,2,2.2,3.3,4.1,4.2c1.3,0.6,3.3,1.2,3.3,2.3c0,8.1,5.9,6.5,10.7,6.7c0.6,0,1.1,0.4,1.7,0.6l-0.1-0.1c1.5,5,2.7,10,4.4,14.9
			c1.9,2,5.2,1.9,6.8,4.4c0.4,0.8,0.4,1.7,0.1,2.5c-1.1,2.1-2.5,3.9-4.4,5.4c-0.9,0.3-1.7,0.3-2.6,0c-3.9-5.6-8.7-5.6-14.5-2.8
			c-3.7,1.8-7.6,2.6-9.9-2.9c-1.8-4.3-1.5-7,3.7-8c-4.7-3-9.2-4.2-14.8-3.4c-5.5,0.8-10.7-2.8-16.2-4.1c-3.7-1.6-6.3-4.4-8.1-7.8
			c-3-5.8-5.5-11.9-8.9-17.6c-2.8-4.7-0.2-7.6,5-7.8c4.2-0.2,2-3.7,2.1-5.9c0-0.6-0.5-1.1-0.9-1.5c-1.9-2.1-7.8-2.1-4.3-7.1
			c1.9-2.7,5-3.9,8.4-4c0.6,0,1.1-0.4,1.6-1.3c-0.7-2.4-3.5-2-5.1-3.2c-1.5-1.2-3-2.4-2.4-4.4s2.5-1.7,4.1-1.7c3.4,0,6.6,0,9.9-1.7
			c2.7-1.4,4.8,1.2,6.9,2.7c0.5,1.2,0.9,2.4,1.4,3.6C61,204.7,65,206.7,68.4,209z"/>
		<path fill="#3C3C3C" d="M106.5,278c0.8,0,1.6,0,2.4,0c1.6-2,3.8-1.8,6-1.6c2.2,0.1,4.3,0,6-2.5c-2.9-1.3-6.2,3.8-8.3-0.7
			c0-0.8,0-1.6,0-2.4c0-1.7,2.1-2.3,2.4-4.2c-3.3-1.7-6.4,1.8-9.6,0.6c-2.2-5.1-4.4-10.2-3.4-15.9c10.4,10.8,23.6,17.3,36.6,24.2
			c-1.5,0.8-3,1.2-3.7,3.4c-1,3.1-3.8,3.4-6.9,2.4c0.9-2.5,3.6-2.2,4.6-3.9c-5.6-6-5.7-6-9.2,0.8c-1.2,2.4-2.9,4-5.6,3.6
			c-5.1-0.8-7.9,1.4-8.5,8.1c-4.9-9-12.4-2.5-18-5.5c-1-0.5-2.5,0.2-2.5,1.8c0.1,2.1,1.9,4.1,3.2,3.7c4.5-1.5,6.5,1.5,9.6,3.4
			c2.9,1.8,7.3,1.4,11,1.8c1.9,0.2,3.9,0.3,3.5,2.9c-0.4,2.6-2.6,1.9-4.4,1.8c-0.4,0-0.8-0.2-1.1-0.3c-8-2.5-8-2.5-6.3,5.3
			c-13.2-9.1-26.6-17.7-38.1-29.6c-14.1-14.7-24.1-32-35.8-48.1c-4.9-6.7-6.9-16-8.3-24.7c-0.8-1.3,0.8-2.8,0-4
			c-2.6-3.5,0-4.9,2.7-6.3c-3.4-0.8-6.1-1.8-2.8-5.5c0.8-0.9,2-1.3,2.3-2.6c0.7-0.9,1.5-1.7,2.8-1.1c1.7-0.9,2.9-0.7,3.6,1.2
			c0.9,2,0.7,4.4,2.4,6c2-0.4,4-0.8,6-1.2c1.3,0,2.4,0.9,3.6,1.2c1.1,0.7,2.3,1.4,4.2,2.6c-0.8-3-0.5-5.1,1.9-6.5
			c1.5-0.8,1.3-2.3-0.1-3.4c0.4-0.4,0.8-0.8,1.2-1.2c2.1-0.8,4.3-1,6.4,0.1c-1.4,5.7,4.6,7.6,6.2,11.8c0.8,0.7,0.9,1.6,0.6,2.5
			c-6.6-3.4-13,2.7-20-0.4c0.3,4.3,2.6,4.8,5.2,5.4c1.8,0.4,4.8,0.7,4.2,3.2c-0.5,2.1-2.6,4.4-5.5,3.5c-2-0.6-3,0.1-4.1,1.3
			c-1.1,1.1-3.5,1-3.3,3c0.1,2,2.3,1.8,3.7,2.5c4,1.9,5,9.4,1.6,12.4c-3.8,3.4-2.7-2.7-5.1-2.5c-1.1,1.8-2.9,4.3-1.6,5.8
			c7,7.8,5.9,20.7,16.4,26.2c2.9,1.4,5.8,2.7,8.2,4.9c1.8,1.7,3.6,2.2,6,1.5c2.2-0.7,4.7-0.8,5.9,1.5c1.5,2.7-1.7,3.1-2.8,4.5
			c-0.6,0.8-1.5,1.3-1.5,2.8c2.4,0.6,3.9-1,5.5-2.4c1.3-1,2.8-2.2,4.1-0.4c1.1,1.5,2.8,3.2,0.5,5.2c-1,0.8-2.9,1.4-1.4,3.2
			c1,1.2,2.3,2.5,4.1,1.9C91,276.6,98.7,277.1,106.5,278z"/>
		<path fill="#3B3B3B" d="M234.4,149c-0.4-2.7,3-3.6,3-6.1c-1.1-1.1-1.8-0.2-2.7,0.1c-3.6,1.5-5.6,0.3-8.4-2.8
			c-3.2-3.7-0.8-4.3,1.1-6.5c2.4-2.9,8.8-6,1.1-10.4c-0.4-0.2,0.8-5.3,2.4-6.5c2.3-1.6,2.2,1.8,3.1,3.1c1.5,2.3,3.5,3.8,6.1,4.6
			c1.1,0.3,2.6,0.2,3.4,0.9c1.2,1.1,1.4,3.6,4,2.3c2.8-1.5-0.2-3.4,0.3-5.6c4.7,2,8.7,5.5,13.9,5.6c0.9,0,1.5,0.9,1.3,1.7
			c-0.5,1.6-2.2,1.5-3,1c-3.1-2.1-5.5-1.4-8,1.3c5.3,4.5,10.9,2.6,16.7,1.1c-1.3,1.9,1.1,5.3-3.8,5.5c-4,0.2-5.4,5-7.6,8
			c-1.3,1.8,1.2,2.9,3,3.5c1.4,0.5,3.8,0,3.5,2.2c-0.3,2.5-2.7,5.2-4.6,4.7c-5.7-1.2-4.9,3.9-6.9,6.1c-0.5,0.6-0.8,1.6,0,2.1
			c0.6,0.3,1.6,0.4,2.2,0.2c3.5-1.5,7.2-3,8.8-6.8c0.6-1.4,1.2-2.8,2.9-2c1,0.4,2.1,1.4,2.5,2.4c0.5,1.3-0.9,2.1-1.9,2.7
			c-4.7,3.1-8.1,7.3-11.3,11.7c-3.1,4.3-6.6,3.8-9.3-0.8c-2-3.3-2.6-7.8-7.2-9.1C237.4,158.6,235.9,153.8,234.4,149z"/>
		<path fill="#3B3B3B" d="M114.9,169.3c0.1-3.5-2.1-5.4-5.1-5.1c-5.6,0.5-3.7-2.4-2.8-5.1c0.1-0.2,0.2-0.3,0.4-0.5
			c1.9-1.5,2-3.7,1-5.5c-1.7-3.1-3.6,2.3-5.8-0.4c-0.6-1.7,3.4-2.4,1.9-4.5c-0.9-1.2-2.7-0.8-4-0.4c-2.3,0.7-2.2,2.3-1.6,4.3
			c0.8,2.5-1.2,3.5-3.1,4.4c-0.7,0.3-1.6,0.7-2.1-0.2c-1-1.9-0.1-3.4,1.1-4.9c2-2.5,3.4-4.8,1.9-8.6c-1.1-2.8,2.2-4,4.7-3.5
			c3,0.6,6.4-0.2,9.1,2.1c1.6,1.4,3.3,0.7,3.9-0.9c0.9-2.2-0.7-3.3-2.7-3.7c-2.5-0.5-5.7,1-7.8-3.2c4.5,1.2,7.5-0.6,10.9-2.9
			c-2.7-2.5-6.1,1.9-7.8-1.1c-1.3-2.3-2.2-5.1-2.4-7.8c-0.2-2.6,4.1-5.3,8.7-5.3c-4.9,3.5-4.4,5.8,0.5,8c2.3,1,3,0.6,4.3-1.1
			c1.2-1.5,2.9-2.8,4.6-3.8c1.4-0.8,3.4-2.9,4.7-0.7c1.5,2.4-1.8,1.8-2.7,2.8s-2.4,1.7-1.6,3.5c0.9,2,1.9,1.5,3.2,0.2
			c0.8-0.7,2.4-0.9,2.5,0.2c0.5,3.5-0.6,6.9-0.1,10.5c0.3,2-3.2,2.3-5,1.8c-7.1-2.1-4.9,6.5-9.1,7.8c-0.5,0.2,0.8,1.7,1.8,1.6
			c1.8-0.2,3.7-0.2,5.3-1c4.4-2.2,6.4-0.1,7.7,3.8c1.9,4.2,0.8,8.8,1.3,13.1C126.2,167.1,121.8,171.4,114.9,169.3z"/>
		<path fill="#3C3C3C" d="M84.7,82.4c0.1-2.7-1.9-5.4,1.5-8.1c1.2-1,0.3-5.2-2.6-6.9c-3.7-2.3-7.5-2.5-10.4,0.5
			c-1.3,1.4-3.6,2.6-3.7,5.4c2.6,0.7,4.4-1.6,6.7-1.8c1.4-0.2,2.8-0.8,3.4,1.1c0.5,1.6-0.1,3.1-1.6,3.4c-3.4,0.7-6.4,2-9,4.5
			c-0.9,0.9-2.3,1-3.2,0c-2-2.2-3.3-1.6-4.6,0.7c-1.7,3.1-4.3,3.8-7.6,2.8c-4.8-1.4-10.1,2.8-14.9-1.3c-0.9-0.8-2.7,0.5-3.2,2
			c-0.5,1.6-0.3,3.1,1.1,4.4c2.2,1.9,7.2,3.2,6.1,5.4c-1.4,3-4.5-2.8-7.5-1.2c-0.6,0.3-1.6,0-2.4,0c-2.9-1.6-1.8-4.1-1.3-6.4
			c5.1-13.7,16-21.1,29-26.3c6.9-2.8,14.3-3,21.3-5c2.6-1.2,5.4-1,8.2-0.9c2.1,0.1,4.5,0.5,4.5,3.6l0,0c-0.8,1.7-1.5,3.5-2.2,5.2
			C89.1,69.6,89.9,77.1,84.7,82.4z"/>
		<path fill="#3C3C3C" d="M31.5,86.9c0.1,2.2,0.1,4.4,1.3,6.4c-4,2.7-5.6,4.9,0.2,7.8c2.1,1.1,3.1,4.4,4.4,6.9
			c-0.6,0.6-0.8,0.7-0.6,0.6c0,0,0.2-0.1,0.4-0.4c0.6-0.5-0.2-1,0.4-0.4c0,0-0.1,0.1-0.2,0.2c2.8,0.8,8.7-0.1,3.1,5.6
			c-1.5,1.6,0.6,3.9,2.4,5.4c1.3,1,3.5,2,2.4,4.1c-1,2.1-2.9,0.5-4.2,0.2c-2.4-0.6-4.8,0.5-6.9-3.4c-1.8-3.3-3.7,1.7-5.1,3.6
			c-0.8,0.7-1.6,0.8-2.4,0c-5.7,1-4,6.1-4.1,9.1c-0.2,4.5,4.5,2,6.9,2.8c0,3.1-3,3.2-4.1,5c-1.8,3.1-5.4,5.3-4.2,9.7
			c3.1,7.3-3,15.3,1.8,22.7c1.6,2.5-1,5.6-3.7,7.4c0.9,1.5,1.2,3.6,3.6,3.6c0.4-0.4,0.8-0.4,1.2,0c0.1,0.8,0.5,1.5,0.4,2.2
			c-0.3,1.9-4.2,0.7-3.4,3.2c0.9,2.8,4.1-0.7,5.7,1.3c0.1,3.8-4,2.5-5.6,4.9c2.1,1.9,2.7,4.2,0.4,6.6c-2.5-4.5-2.2-9.6-2.7-14.5
			c-2.7-25-4.1-50.1,2.5-74.8C24.1,104,28.2,95.5,31.5,86.9z"/>
		<path fill="#3C3C3C" d="M62.3,193.3c-2.6-1.5-4.2-4-7.3-5.2c-4.1-1.6,1.7-4.2,0.9-6.7c-0.9-1.3-0.3-2.7-0.3-4.1
			c0.1-1.4,0.2-2.8,0.4-4.2c-3.2-6.6-1.7-13.5-0.9-20.3c0.2-2.2,0.6-4.3,1.3-6.4c1.1-2.8-0.6-5-1.7-7.3c0-0.2,0-0.5,0.1-0.6
			c6-4.7,4.4-10.1,1.3-15.5c-0.3-0.4,0-1.2,0-2.5c4.6,3.3,5.7-1.6,8.3-3.1c-5.6,18.7-5.8,37.7-4,56.9
			C60.8,180.7,60.5,187.1,62.3,193.3z"/>
		<path fill="#3B3B3B" d="M101.9,251.3c-2,0.1-4.5-0.5-5.9,0.4c-6.2,4-5.2-0.7-7-4.4c-2.6-5-7-9.4-11.5-13
			c-1.9-1.5-5.7,2.4-10.1,0.3c3.8-1.1,5.3-3.5,9.2-3.3c5.4,0.3,1.1-4.6,2.4-6.7c5.2,8.2,11.8,15.2,18.8,21.8
			C99.2,247.8,100.5,249.6,101.9,251.3z"/>
		<path fill="#3C3C3C" d="M285,101.8c0.4,0,1-0.2,1.2,0c4.6,5.8,13,5.9,17.5,11.5c2.1,2.6,1.6,6.7-0.6,9c-3.6,3.7-2.8,7.6-1.7,11.5
			c0.6,2.2,0.7,4.3,0.7,6.5c-3.4-7.2-3.2-15.7-7.5-22.7C291.3,112.4,288.2,107.1,285,101.8z"/>
		<path fill="#3C3C3C" d="M220,71.4c2.3-1.7,6.1-0.6,7.5-4c0.1-0.3,0.9-0.5,1.1-0.4c6.8,5.2,15.7,0.9,23.4,6.6
			c7.3,5.4,11.5,13.8,19.7,17.8c-4.8-1.7-8.5-4.7-12.4-7.9c-8.7-7.1-18-13.4-30.3-11.8C226.1,72,223,71.5,220,71.4z"/>
		<path fill="#3F3F3F" d="M280.4,202.1c-2.1-2.2,0.7-5.2-1.3-7.4c-0.8-0.8,0-1.6,0-2.4c-1.4-7.5,3.6-15.3-1.6-23
			c-1.2-1.7-0.3-6.6,1.6-9.7C281.8,173.7,282.8,187.8,280.4,202.1z"/>
		<path fill="#494949" d="M212.9,184.1c0.4-0.7,0.6-1.5,1.1-2c7.6-7.6,7.9-9.7,2.4-18.9c6.2,1.6,9.2,9.8,5.2,14.8
			C219.4,180.7,217,183.8,212.9,184.1z"/>
		<path fill="#424242" d="M159.6,45.1c-5.7,6.8-13.5,9.8-21.7,12C144.6,52.2,151.1,46.7,159.6,45.1z"/>
		<path fill="#444444" d="M176.2,179.1c1.2,0.1,2.9-0.2,3.4,0.4c3.8,5.1,10.3,4,15,6.9C186.9,188,180.9,185.1,176.2,179.1z"/>
		<path fill="#424242" d="M131.7,61.6c-4.8,4.5-7.5,11.4-14.6,13.5C121.1,69.6,124.9,64,131.7,61.6z"/>
		<path fill="#4B4B4B" d="M94.4,58.3c-3.4-4.6-8.7-0.2-12.6-2.7c1-1.1,2-2.3,2.9-3.4c3.4,0.4,7.5-2.5,9.9,2.3
			C95.9,55.8,95.1,57,94.4,58.3z"/>
		<path fill="#3C3C3C" d="M68.4,209c-0.7-0.2-1.5-0.4-2.2-0.7c-6.7-2.2-7-3.7-1.9-8.8C65.7,202.7,67,205.8,68.4,209z"/>
		<path fill="#848484" d="M94.7,54.5c-2.2-0.4-4.2-4.3-6.9-0.1c-0.8,1.2-1.9-1.5-3-2.1C88.5,51.1,92.7,47.7,94.7,54.5z"/>
		<path fill="#3C3C3C" d="M304.5,145.2c0.9,2.1,2.4,4.3-0.4,6.2c-0.7-3.7-1.4-7.3-2.1-11C302.9,142,303.7,143.6,304.5,145.2z"/>
		<path fill="#464646" d="M101.7,204.3c4.8,0.4,5.9,3.6,5.8,7.7C105.6,209.5,103.6,206.9,101.7,204.3z"/>
		<path fill="#464646" d="M96.5,194.8c3.4,1.3,3.9,4.2,3.9,7.3C97.8,200.4,97,197.7,96.5,194.8z"/>
		<path fill="#494949" d="M205.5,186.1c1.8-3.2,4.7-2.4,7.5-2.1C210.5,184.7,208,185.4,205.5,186.1z"/>
		<path fill="#494949" d="M216.5,163.2c-1.1,0.2-2.1-0.1-2.6-1.2c0.3-0.7,0.6-2,0.8-2C216.7,160.2,215.6,162.2,216.5,163.2z"/>
		<path fill="#3C3C3C" d="M273.2,92c2.1,0,4.1,0.2,4.7,2.8C276.3,93.9,274.7,93,273.2,92z"/>
		<path fill="#444444" d="M194.4,186.4c2.2,0,4.3,0,6.5-0.1C198.8,188.1,196.6,187.8,194.4,186.4z"/>
		<path fill="#4B4B4B" d="M92.2,63.5c-0.2-2.1,0.6-3.9,2.2-5.2C94.6,60.4,93.9,62.1,92.2,63.5z"/>
		<path fill="#3C3C3C" d="M308.2,66.3c9.8,9.2,18.1,19.5,23.2,32.1c3.9,9.7,9.2,19,9.2,29.9c-2.3,0-4.2-0.4-3.1-3.4
			c1-2.8-0.6-3.6-2.9-3.9c-1.3,0.6-1.9-0.1-2.4-1.2c-3.2-2-6.4-2.9-9.7,0c2.1-8.5-6.3-8-10.1-10.3c-3.9-2.3-3.5-6.4-6.2-8.8
			c-1-0.9,1.1-2.7,3-2c4.6,1.6,6.6-0.2,7.4-4.8c0.4-2.2,2.4-4,3.4-6.2c0.6-1.3,1.8-2.9,0.2-4.4c-1.2-1.2-2.5-0.8-3.9-0.3
			c-2.6,0.9-5.6,0.6-8,2.2c-1.2,0.7-2.9,1.4-3.5-0.6c-0.6-1.9,0.8-3.4,2.5-3.3c8.6,0.6,6-4.2,4.4-8.7
			C309.2,71.3,307.2,69.7,308.2,66.3z"/>
		<path fill="#3B3B3B" d="M144.2,106.7c-3.8-0.6-6.3-0.4-7,4.6c-0.6,4.1-4.7,4.4-7.8,2.6c-3.3-1.8-6-2.1-8.7,0.7
			c-1.1,1.1-2.1,0.9-3.1,0c-2.2-1.9-5-2-8.5-2.5c4.7-4.5,10.6-1.1,15.2-4.2c-0.7-2.3-4.9-4.5-1.3-7.4c4.1-3.3,8-7.2,13.9-7
			c1.5,0.1,2.4,1.5,2.1,3.2c-0.3,1.6-1.4,2.6-3,2.3c-1.4-0.2-2.6-1-4-1.4c-1.2-0.4-1.9,0.4-2.2,1.5s0,2.2,1.2,2.3
			c2.4,0.1,4.9,1.6,7.1,0.3C145.2,97.4,143.8,103.1,144.2,106.7C144.1,106.8,144.2,106.7,144.2,106.7z"/>
		<path fill="#3B3B3B" d="M97.9,114.7c-0.4-4,1.5-6.9,6.1-7.3c2.7-0.2,2.6,2.1,2.4,3.8c-0.4,4.2-4.2,5.5-7.2,6.9
			C97.6,118.8,97.4,116.6,97.9,114.7z"/>
		<path fill="#3B3B3B" d="M308.2,66.3c1.2,2.1,2.3,4.3,3.5,6.4c-4.3,2.1-8.7-0.5-9.9-3c-2.3-4.7,2.8-3.9,5.5-4.4
			C307.6,65.7,307.9,66,308.2,66.3z"/>
		<path fill="#3B3B3B" d="M147.8,235.5c-2.1-0.6-3.7-1.8-3.7-3.7c0-2.9,2.3-4.5,4.8-5.5c1.1-0.4,2.4,0.7,2,1.5
			C149.4,230.2,150.7,233.7,147.8,235.5z"/>
		<path fill="#3C3C3C" d="M299.7,96.9c-1.1-0.4-2.2-0.9-3.4-1.2c-1.2-0.3-2.6-0.4-2.4-2c0.3-2,2-1.5,3.3-1.6c0.8,0,1.6-0.1,2.4,0
			c1.5,0.3,4.2-1.1,4.2,1.7C303.9,96.1,302,97.1,299.7,96.9z"/>
		<path fill="#3B3B3B" d="M99.9,128.7c-0.4,0.6-1,1.4-1.1,1.4c-2.3-1.2-5-2.2-6.7-4c-1.3-1.4,1.5-2.8,1.8-4.4c0-0.2,1-0.2,1.6-0.3
			C95.4,124.7,98.2,126.3,99.9,128.7z"/>
		<path fill="#3B3B3B" d="M108.5,174.8c-1-2.6,0.4-2.8,2.2-3c2.2-0.2,3.6,1.2,3.8,2.7c0.4,2.9-2.6,2.5-4.2,3
			C107.2,178.4,109.3,175.3,108.5,174.8z"/>
		<path fill="#3B3B3B" d="M332.3,119.8c0.8,0.4,1.6,0.8,2.4,1.2c1,2.3,0.7,3.6-2.2,2.6c-1.9-0.6-5.5,0.6-5.5-2.1
			C327,118.5,330.4,120.4,332.3,119.8z"/>
		<path fill="#3C3C3C" d="M322.9,119.5c1.2,5.2-3,6-4.8,8.4c-0.1,0.2-1.1-0.1-1.5-0.5c-1-1-0.3-1.8,0.5-2.4
			C318.8,123.2,320.7,121.5,322.9,119.5z"/>
		<path fill="#3B3B3B" d="M154.2,233.8c2.1,0.6,3.4,1.9,3.8,4c0.1,0.9-0.7,1.5-1.5,1.3c-2-0.4-3.9-0.9-4-3.5
			C152.5,234.6,152.8,233.7,154.2,233.8z"/>
		<path fill="#3B3B3B" d="M264.6,37.7c-1.6,1.6,3.7,5.3-1.6,5.6c-1.1,0.1-3-0.7-2.7-2.5C260.7,38.5,262.3,37.4,264.6,37.7
			L264.6,37.7z"/>
		<path fill="#3C3C3C" d="M300.6,73.4c2.4,0.7,5.1,0.9,5.4,3.9c0,0.3-0.8,1.1-1.2,1.1C301.7,78.3,302.2,74.9,300.6,73.4z"/>
		<path fill="#3C3C3C" d="M331.4,128.1c-0.7,1-1.5,1.4-2.5,0.7c-0.7-0.4-1.3-1.1-0.9-1.9c0.5-1.1,1.5-1.1,2.5-0.6
			C331.2,126.7,331.8,127.2,331.4,128.1z"/>
		<path fill="#3B3B3B" d="M112.5,171.7c-0.2-1-2.4-1.2-1.3-2.7c1.2-1.5,2.5-0.1,3.7,0.3C114.5,170.5,113.7,171.3,112.5,171.7z"/>
		<path fill="#3B3B3B" d="M101,166.7c-0.6-0.8-1.1-1.3-1.3-1.9c-0.1-0.2,0.8-1.1,0.9-1c0.6,0.4,1.2,0.8,1.5,1.4
			C102.2,165.3,101.6,165.9,101,166.7z"/>
		<path fill="#3B3B3B" d="M99.5,178.5c0.1,1.1-0.3,1.6-0.9,1.2c-0.6-0.4-1.1-1-1.3-1.7c-0.2-0.6,0.4-1.2,1-0.9
			C98.9,177.4,99.3,178.1,99.5,178.5z"/>
		<path fill="#3B3B3B" d="M160.6,228.5c-0.7,0.4-1.1,0.9-1.5,0.9c-0.8,0.1-1.6-0.3-1.3-1.3c0.1-0.3,0.9-0.7,1.3-0.7
			C159.6,227.6,160,228.1,160.6,228.5z"/>
		<path fill="#3B3B3B" d="M339.5,159.8c0.3-1.2-0.5-2.9,1.1-3s1,1.2,0.4,1.9C340.6,159.1,340,159.4,339.5,159.8z"/>
		<path fill="#3B3B3B" d="M276.9,150.9c-0.4,1.7,0.2,4.4-3,3.6c-1-0.2-1.8-1.1-1.6-2.1c0.7-3,2.9-1.6,4.7-1.3
			C277,151,276.9,150.9,276.9,150.9z"/>
		<path fill="#3B3B3B" d="M279.1,192.3c1.3,0.8,0.1,1.6,0,2.4c-2.2,1.4-4,1.1-5.3-1.8C275.5,191.7,277.4,192.5,279.1,192.3z"/>
		<path fill="#3B3B3B" d="M270.3,165.9c-0.3,1-0.9,1.8-2,1.7c-1-0.1-1.2-0.9-1.1-1.7c0.2-1,0.6-2,1.9-1.8
			C270,164.2,270.4,165,270.3,165.9z"/>
		<path fill="#3A3A3A" d="M303.4,289.1c1.4-0.1,2.1,0.4,2.1,1.6c0,1.4-1.2,2-2.3,2.2c-1.2,0.3-1.9-0.6-1.9-1.6
			C301.3,289.9,302.3,289.3,303.4,289.1z"/>
		<path fill="#3A3A3A" d="M298.2,287.5c-0.8,0-1.7-0.1-1.7-1.2c0-1.1,0.9-1.7,1.9-2c1.1-0.3,2.1,0.1,1.9,1.4
			C300.2,286.7,299.3,287.3,298.2,287.5z"/>
		<path fill="#3C3C3C" d="M295.6,84.6c-2.8,1.8-5-2-7.5-0.2c-0.1,0.1-1.1-0.5-1.2-0.8c-0.1-1.2,0.8-2,1.7-2
			C291.2,81.6,293.9,81.8,295.6,84.6z"/>
		<path fill="#3A3A3A" d="M54.6,139.1c5.3,0.9,4.3,5.4,3.2,7.9c-1.3,3.1,0,6.6-1.2,8.8c-3.3,6.1,0.6,11.4,0.4,17.1
			c-3.5,3.4-5.8-2.2-9.7-1.3c3.5,2.3,7.9,2.3,9.7,6.1c-0.4,1.2-0.8,2.4-1.2,3.6c-2,1.4-4,1.4-6,0c-1-2.2-3.2-3.1-5-2.3
			c-4.9,2.4-9.1-2.4-13.7-0.1c-0.3-2.5,0.6-3.2,1.9-3.5c4.5-0.9,6.7-2.1,1.1-5.1c-0.4-0.2-0.8-1-0.8-1.4c0.3-7.3,0.2-7.5-3-12.1
			c-1.5-2.2,0.5-3.2,2-3c4.2,0.6,7.7-3.6,12-1.8c1,0.4,2.6-0.4,2.2-1.2c-1.5-3-3.1-6.1-5.4-8.4c-2.2-2.1-4.8-0.6-7,3.3
			c0.5-3.3-2.5-6.6,0.9-6.2c7.2,0.7,7.9-4.5,10-8.8c-0.4-1.2,0.1-1.5,1.2-1.2c3.3,1.6,8.1-1.3,10.8,3.8
			C51.6,133.5,50.8,135.6,54.6,139.1z"/>
		<path fill="#3C3C3C" d="M19.6,180.2c2.8-4.1,3.9-8.3,0.3-12.6c-0.4-0.5-0.8-1.1-0.7-1.6c1-5.2,3.1-10.4,0.4-15.7
			c0.4-0.1,0.8-0.2,1.2-0.3c1.4,0.8,2.2,2,2.4,3.6c4,2.3,4,2.3,7.1,9.5c-1.8,1.6-5.7-1.6-6.3,2.2c-0.4,2.7-1.7,6.7,3.8,6.5
			c2.4-0.1,3.6,2.2,1.4,3.1C25.7,176.3,23.6,180,19.6,180.2z"/>
		<path fill="#3A3A3A" d="M23.2,153.6c-1.6-0.7-2.4-1.9-2.4-3.6c-3.5-5.8,1.1-7.5,4.8-9.7C30.4,145.2,29.5,150.3,23.2,153.6z"/>
		<path fill="#3A3A3A" d="M32.8,189.9c-4.3-0.6-4-3.1-2.4-6c1.1-0.3,2.2-0.7,3.4-0.8c1.6-0.1,2.6,1.1,3.1,2.3c1,2.2-1.2,1.8-2.1,2.5
			C34.1,188.3,33.5,189.2,32.8,189.9z"/>
		<path fill="#3A3A3A" d="M26.8,123.4c0.8,0,1.6,0,2.4,0c0,0.4,0,0.8,0,1.2c0.9,1,1.9,2,1.2,3.6c-2.1,2.1-3.7,0.1-4.8-1
			C23.9,125.8,26.6,124.8,26.8,123.4z"/>
		<path fill="#3A3A3A" d="M48.5,182.7c-0.3,2-1.4,2.4-2.7,2.3c-1.2-0.1-2.5-0.3-2.5-1.8c0-1.3,1.1-2.4,2.2-2.2
			C46.6,181.1,47.7,182.1,48.5,182.7z"/>
		<path fill="#3C3C3C" d="M48.6,122.6c3.5,0.4,3.8,2.5,4.6,5.3C50.8,126.6,49.4,125.4,48.6,122.6z"/>
		<path fill="#3A3A3A" d="M42.5,189.9c-2.1,2.2-2.7,0.1-3.6-1.2C40.9,186.7,42,187.3,42.5,189.9z"/>
		<path fill="#3A3A3A" d="M39.5,125.7c0,1.1-0.8,1.2-1.6,1.3c-0.5,0-1.5-0.2-1.6-0.5c-0.3-0.9,0.4-1.4,1.2-1.6
			C38.3,124.7,39.1,124.8,39.5,125.7z"/>
		<path fill="#3C3C3C" d="M46.1,129.5c-0.4,0.4-0.8,0.8-1.2,1.2c-1-0.5-2.1-1.1-1.9-2.5c0.1-0.4,0.7-0.9,1.2-0.9
			C45.7,127.1,46,128.3,46.1,129.5z"/>
		<path fill="#3A3A3A" d="M24.4,183.8c-0.4,0-0.8,0-1.2,0c0.5-2.6,1.6-3.2,3.6-1.2C26,183,25.2,183.4,24.4,183.8z"/>
		<path fill="#3C3C3C" d="M30.4,128.3c-0.4-1.2-0.8-2.4-1.2-3.6C31.8,125.1,32.4,126.3,30.4,128.3z"/>
		<path fill="#3A3A3A" d="M263.6,319.2c-1.4-0.3-3.5,0.3-3.6-2.1c-0.1-1.3,1-1.7,2-1.5C264.4,316,264.1,317.6,263.6,319.2
			L263.6,319.2z"/>
		<path fill="#3A3A3A" d="M248.9,318.4c1.2,1.6,1.8,2.1,1.9,2.7c0.2,0.7-0.5,1-1,0.7c-0.6-0.4-1.2-0.9-1.5-1.4
			C248.2,320,248.6,319.3,248.9,318.4z"/>
		<path fill="#3B3B3B" d="M106.5,278c-1.8,2-4.3,1.6-6.2,0.9c-2.6-0.9-4.7-0.6-6.8,0.9c-1.8,1.3-3.1,2.5-4.4-0.7
			c-0.7-1.6-2.3-0.8-3.5,0.1c-2.8,2-8.9,0.1-9.5-3c-0.3-1.6,0.7-2.6,2.3-2.9c1.1-0.2,2.7-0.2,2.2-2c-0.2-0.9-0.9-2-1.7-2.3
			c-1.4-0.5-2,0.9-2.6,1.9c-0.1,0.2-0.2,0.4-0.3,0.5c-2.1,2.7-6.2,2.9-7.4,1.6c-2.3-2.4,1-4.4,2.8-6.1c0.8-0.7,1.9-1.1,3.1-2.4
			c-8.8,2-14.6-2.5-20-8.1c3.7-1.1,6.2,2.3,9.6,2.6c3.8,0.4,7.3,2.8,11.3,0.1c2.1-1.4,3.8,1.6,5.9,2.1c2.6,0.6,4.1,3.4,7,2.4
			c0.1,2.3-1.6,2-2.3,2.7c-1.3,1.3-5.7-0.5-4,4c1.4,3.4,2.5,7.1,7.3,5.1c1.5-0.6,3.3-0.6,4.3-1.4C100.3,268.9,103.6,272.7,106.5,278
			z"/>
		<path fill="#3B3B3B" d="M64.2,252.8c2.5-3.3,5.5-3.1,7.8-3.4c2.1-0.3,3.9,0.4,5.6-1.8c2-2.4,3.8,0.5,5.7,1.1s2.8,1.4,1.8,3.4
			c-0.6,1.3-0.3,2.7,0.2,4.1c0.5,1.1,0.9,2.5-0.4,3.2c-1.3,0.7-2-0.7-2.9-1.2C76.7,255.4,71.1,253.2,64.2,252.8z"/>
		<path fill="#3B3B3B" d="M112.5,273.2c1.7,1,3.2,1.2,4.7-0.5c1.2-1.4,2.6-2.6,4.6-1.4c0.9,0.5,1.4,1.4,1.1,2.5
			c-0.6,2.1-2.1,3.6-4.1,3.8c-3.3,0.4-6.6,0.2-9.9,0.3C109,275.5,110.6,274.2,112.5,273.2z"/>
		<path fill="#3B3B3B" d="M105.3,267.1c3-0.7,5.4-3.5,8.9-2.5c1.5,0.4,3.5,0.1,3.8,2.2c0.3,2-2.1,1.4-3,2.3
			c-0.7,0.7-1.6,1.2-2.4,1.7C110.2,269.3,107.1,269.6,105.3,267.1z"/>
		<path fill="#3B3B3B" d="M94.7,262.4c1.4,0.1,3,0.5,2.5,1.8c-0.7,1.9-1.5,4.3-3.8,4.8c-1.3,0.3-2.2-0.8-2.3-2.1
			C90.9,264.4,92.6,263.2,94.7,262.4z"/>
		<path fill="#3C3C3C" d="M56.4,200c1.5,0.1,1.6,0.9,1.5,1.7c-0.1,0.9-0.8,1.3-1.6,1.3c-1,0-1.5-0.7-1.2-1.5
			C55.4,200.8,56.1,200.3,56.4,200z"/>
		<path fill="#3A3A3A" d="M37.8,107.7c-0.7,2.2-1.2,3.8-3.4,3c-0.4-0.1-0.9-1-0.8-1.4C34.3,107.5,36.1,107.8,37.8,107.7z"/>
		<path fill="#3C3C3C" d="M57,177.8c-2.7-1.2-5.4-2.5-8.1-3.5c-1.5-0.6-3.8,0.4-4.3-2c-0.1-0.6,1-1.8,1.7-2.2c2-1,4.4-1.7,5.6,0.8
			c1.2,2.5,3.2,1.9,5,2C57,174.6,57,176.2,57,177.8z"/>
	</g>
</g>
</svg>
