<svg viewBox="0 0 437.1 239.5" enable-background="new 0 0 437.1 239.5" xml:space="preserve">
<g id="ViFQhr.tif">
	<g>
		<path fill="#3A3A3A" d="M403.6,27c2.9,1.2,4.1,3.8,5.6,6.2c0.4,0.5,0-0.2,0.3,0.3c3.1,4.3,3.1,4.3-0.8,6.8
			c-0.5,1.5,0.3,1.7,1.5,1.4c0.7,1.1,2.4,1,2.7,2.5c1,0.6,1,2.2,3,2.1c2.4-0.1,2.5,2.8,3.7,4.4c3.5,5.3,2.1,9.2-3.8,10
			c-2,0.3-4,1.6-4.4,2.8c-0.9,2.9-3.7,3.7-5.5,4.3c-4.5,1.4-8.2,4.3-12.5,5.6c-1.9,0.6-4.7,1.2-7.1,0.6c-1.7-0.4-3.3-0.3-4.7,1
			c-0.8,0.8-2.1-0.3-2.8,0.9c-2,3-5.9,2.4-8.4,4.5c-1.3,0.6-2.5,1.2-3,2.7c-1.3,0.2-2.4,0.4-3.7,1.1c-5,2.9-9.7,6.5-15.5,8.2
			c-1.1,0.3-2.7,2.7-4.4,3.9c-5.9,4-11.5,8.3-17.8,11.6c-5.1,2.7-9.8,6.1-14.5,9.4c-7.9,5.4-14.9,12.3-23.1,17.3
			c-7.7,4.6-14,10.7-21.2,15.7c-3,2.1-6.1,3.9-9.2,5.8c-1.5,1.6-3.7,2.4-4.8,4.4c-4.3,3.4-8.7,6.8-13,10.2c-0.6,0.9-2,0.9-2.5,1.9
			c-2.1,1.9-4.1,4.2-6.5,5.7c-5.2,3.3-9.8,7.2-14,11.7c-1.7,1.8-4.1,2.4-6.1,3.5c-3,1.7-5.9,4.4-7.7,7.3c-1.4,2.2-3.2,3-5.1,4.1
			c-1.2,1.8-3.2,1.9-4.9,2.6c-0.2,2.6-2.7,0.8-3.7,2c-1.3,1.5-3.7-1.2-4.7,1.2c-0.6,1.1-1.3,2.1-2.3,2.8c-1.3,0.5-2.6,1.2-3.7,2
			c-1.2,0.6-2.6,0.8-3.8,1.3c-0.2,0.2-0.5,0.5-0.7,0.5c-2,0-5.1,4.4-5.9-1.3c-1.7,0.3-1.6-2.7-3.6-1.9c-3.5,0.6-3.5-2.4-4.5-4.4
			c-0.4-1.4-0.5-2.8-1-4.1c-1.8-1.6,0.7-3.5-0.3-5.2c-0.3-1.6-1.3-2-2.7-1.3c-2,1-2.7-0.6-3.6-1.7c-1.9-2.2-0.1-5-1-7.3
			c0.3-0.9,1-1.7,1.4-2.5c1.7-2.2,0.4-5.1,1.5-7.4c0-0.6,0.1-1.2,0.3-1.7c0.1-0.4,0.3-0.7,0.5-1c0.7-0.9,1-1.9,0.8-3.1
			c0.4-0.9,0.8-1.8,1.2-2.7c0.1-1.6-3.5-1.7-1.7-4.1c0.7-0.7,1.6-1.2,1.3-2.4c0-0.4,0-0.8,0.1-1.1c0.7-1.5-0.2-3-0.3-4.5
			c0.1-1.3,0.5-2.4,1-3.6c0.5-0.9,1.2-1.7,1.9-2.5c2.6-3.3-0.1-6.9,0.7-10.3c-0.1-0.6-0.2-1.2-0.2-1.8c-0.1-1.4,0.4-2.7,0.4-4.1
			c0.1-1.6,0.1-3.2,1.3-4.5c0.7-0.4,1.8-0.4,1.4-1.7c0-0.4,0-0.8,0.1-1.2c0.2-0.6,0.5-1.1,1-1.5c1.7-1.5,2.4-3.2,1-5.3
			c-0.3-0.8-0.4-1.6-0.2-2.5c0.1-0.4,0.3-0.7,0.6-1c0.3-0.5,1.2-0.2,1.3-1c-0.3,0-0.6-0.2-0.8-0.4c-0.6-0.6-0.9-1.2-0.7-2.1
			c0.5-1,1.4-1.4,2.5-1.5c1.3-0.4,1.2-1.3,0.7-2.2c-0.2-0.4-0.3-0.7-0.4-1.1c0-0.4,0.1-0.8,0.3-1.2c0.3-0.5,0.7-1,0.7-1.6
			c0.1-0.4-0.1-0.9-0.2-1.3c-0.2,0.3-0.1,0.8-0.3,1.1c-1.9,2.4-5,2.1-7.5,3.4c-5.2,2.1-8.7,6.8-13.7,9.2c-4.5,2.2-8.7,5.1-13.2,7.5
			c-6.3,3.4-12.1,7.7-18.3,11.3c-8.7,5.1-16.9,11-25.8,15.7c-4.3,2.3-8.1,5.6-12.2,8.3c-10.1,6.5-19.7,13.9-31.1,18.2
			c-2.1,0.8-2.9,3.7-5.6,3.5c-4.1,0.1-7.4,2.6-11,4c-1.6-2.2-3.5,0.1-5.3-0.3c-1.2-0.8-0.5-2-0.5-3c0.1-0.9,0.4-1.7,0.9-2.4
			c0.3-0.3,0.9-0.2,1.1-0.4c0.3-0.3-0.3-0.4-0.5-0.6c-1-0.6-2.1-0.8-3-1.5c-1.4-1.3-0.8-3.7-2.7-4.7c-0.5-0.3-1-0.8-1.2-1.3
			c-0.1-0.4,0-0.8,0.2-1.1c0.5-0.8,1.2-1.5,1.1-2.5c-0.7-2-3.9-2.3-3.6-5.1c0.4-0.9,1.1-1.8-0.6-2c-0.9-1.6,0.8-3.2,0-4.8
			c0-0.4,0.1-0.8,0.4-1.1c1.5-1,3.6-0.4,5-1.7c0.6-0.4,1.3-0.9,1.8-1.4c1.1-1,1.2-2.3,1.3-3.6c0-0.9,0.5-1.6,0.9-2.3l0,0
			c2.2-0.5,3.6-2,4.7-3.8c0-0.3,0-0.5,0.2-0.6c0.9-0.3,2,0,2.6-1l0,0c1.7-0.3,2-2.5,3.7-2.8c2.1-3.4,6-4.3,9-6.2
			c7.3-4.6,14.4-9.5,21.5-14.4c6.3-4.3,13-8,19.4-12.1c8.5-5.5,17.2-10.5,25.7-15.9c7.6-4.8,15.5-9,22.6-14.6
			c0.5-0.4,1.5-0.2,2.2-0.2c0.8-0.8,2.1-0.7,2.6-1.9c8.5-5.5,17.2-10.8,25.6-16.6c5.9-4.1,12.6-6.8,18.5-11c4-2.8,8.1-5.4,12.2-8.1
			c4.5-2.9,8.6-6.6,13.8-8.4c1.8,0,2.3,1.9,3.7,2.6c0.9,0.5,1.8,0.3,2.7,0.1c0.4-0.1,0.8-0.1,1.1-0.1c1.6,0,3,0.6,4.4,1.1
			c1.2,1.7,2.4,3.5,3.7,5.1c1.9,2.2,2.5,4.4,1,7.1c-1.5,2.8,0.2,4.3,2.5,5c4.6,1.4,8.9,7.8,7,12.1c-1,2.2,0.1,6.2-4,6.7
			c-0.3,1.9,0.4,4-1.2,5.6c-0.7,0.7-0.3,1.7-0.7,2.5l0.1,0.1c-0.6,0.6-1.3,0.8-2.1,0.7c-1,1.9-0.1,4.1-1.2,5.9c-1.1,0.9-1.6,2-1,3.4
			c-2.3,3.4-3.1,7.4-4.2,11.2c0.1,0.3,0.1,0.6,0,0.8c-0.8,0.7-1.7,1.3-2.4,2.2c-0.5,0.8,0.3,1.7-0.2,2.6c-1.7,1.1,0.1,3.2-1.2,4.4
			c-1.2,3.4-2.9,6.6-3.5,10.2c-0.4,1.5,0.1,3.3-1.2,4.6c-1,3.8-3.3,7.2-3.2,11.2V137c0.1,2,0.6,2.1,3.4,0.9c2.2,0.3,1.9-2.2,3.2-3.1
			c4.5-3.1,9.2-6.2,13.1-9.8c4.8-4.4,10.3-7.9,15.3-11.9c0.7-0.5,1.6-0.8,2.4-1.1c2.2-2.4,4.4-4.9,6.8-7.1c0.2,0.1,0.4,0,0.6-0.1
			c2.7-0.3,4.4-2.3,6.6-3.6c3.6-2.5,7.2-5,10.9-7.6c1-1.5,2.2-2.7,3.7-3.7c7.9-4.5,15.6-9.4,22.8-15c1.9-1.5,3.8-2.8,5.9-3.8
			c8.2-3.6,14.6-9.9,22.6-13.9c3.6-1.8,6.9-4,10.1-6.4c6.4-4.7,13.8-7.2,20.6-11c4.6-2.5,9-5.5,14-7.1c5.8-1.9,10.8-6,17.2-6.5
			c2.2-0.5,3.8-2.8,6.5-1.8c0.4,0.6,0.1,1.6,1,1.9c1.8,0.8,2.7-2.8,4.7-1l-0.1,0.1C402.3,25.8,402.5,26.7,403.6,27z"/>
		<path fill="#5F5F5F" d="M16.2,159.6c2,1.4-0.3,3.1,0.3,4.6c0.5,0.6,0.4,1.4,0.2,2.1c-0.4,1.8-0.9,3.6-3.4,3
			c-1.4-0.9-1.4-2-0.8-3.4c1-2.1,2-4.2,3.1-6.3C15.8,159.6,16,159.6,16.2,159.6z"/>
		<path fill="#8F8F8F" d="M156.6,167.5c-0.5,0.6-1.6,1.4,0,1.7c1.7,0.4,0.9,1.4,1,2.3c-6.3-0.4-4.2-4-2.8-7.3
			c-0.4-1.1,0.2-1.7,1-2.1c1.5,0.1,1.7,1.2,2,2.4v0.3C158.4,166.2,157.1,166.7,156.6,167.5z"/>
		<path fill="#666666" d="M155.7,179.9c-0.8,2.7,1,6.1-1.9,8.3c-1,0.7-1.6,0.5-1.8-0.8c0.7-0.7,1.4-1.2-0.2-1.7
			c-1.8-0.5-1.8-1.7-0.7-3C153.1,182.5,152.8,178.5,155.7,179.9z"/>
		<path fill="#858585" d="M162.1,132.9c-0.3,1.5-0.5,3-0.8,4.4c-0.4,0.7-1,1.2-1.8,1.4c-0.4,0-0.8-0.1-1.1-0.3c1-2-0.8-4.4,0.9-6.4
			c-0.5-0.9-0.5-1.8,0.6-2.2c1.4-0.5,2.2,0.4,2.7,1.6C162.6,132,162.5,132.5,162.1,132.9z"/>
		<path fill="#646464" d="M221.9,100.6c-0.3-4.2,0.3-8.2,3.7-11.2c0.5,0.3,0.5,0.7,0.2,1.2C225,94.2,224.3,97.8,221.9,100.6z"/>
		<path fill="#4E4E4E" d="M23.9,155.9c-0.4,0.8-1.1,0.9-1.9,0.9c-0.5,0.3-0.9,0.2-1.2-0.2c-0.5-0.9-0.2-1.8,0.3-2.6
			c1.7-1.4,0.9-5.2,4.6-4.7c0,1,0.1,2,0.1,2.9C24.8,153.3,24.3,154.6,23.9,155.9z"/>
		<path fill="#4A4A4A" d="M210.3,136.7c-0.6-0.7-1.2-1.3-1.7-2c3-2.4,2.2-6.7,4.9-9.3C212.9,129.4,212.2,133.2,210.3,136.7z"/>
		<path fill="#898989" d="M30.3,189.4c3-3.1,6.6-4.7,11-4C37.4,186,34.7,190,30.3,189.4z"/>
		<path fill="#ADADAD" d="M162.1,131.9c-1-1.3-2-2.9-2.8,0.1c-2.2-2,1.1-3.7,0.2-5.7c0.5-0.5,1.1-0.6,1.7-0.4
			c0.6,0.2,1.1,0.5,1.6,0.9c1.3,0.8,0.6,2.3,1.1,3.4c0.1,0.3,0,0.6-0.1,0.9C163.5,131.9,163,132.5,162.1,131.9z"/>
		<path fill="#717171" d="M214.7,120.9c-1.4-4.3,1.1-7.2,3.5-10.2C217.5,114.3,217.4,118.1,214.7,120.9z"/>
		<path fill="#B1B1B1" d="M12.5,165.9c0.2,1.1-0.2,2.4,1.2,2.9c0.6,0.5,1.1,1.1,1,2c-0.6,0.6-1.3,1.1-1.9,1.7
			c-3.9-2.1-4.1-2.8-2-6.5C11.4,166,11.9,165.9,12.5,165.9z"/>
		<path fill="#606060" d="M152,187.4c0.6,0.3,1.2,0.5,1.8,0.8c0,1.3-0.7,1.9-1.9,1.9c-1.1,0.2-1.9,2-3.1,0.9
			c-0.5-0.5-0.7-1.7-0.4-2.5C148.9,186.4,150.6,187.3,152,187.4z"/>
		<path fill="#606060" d="M213.7,35.3c-2.6,0.2-2-2.8-3.7-3.6c2.8-0.3,5.6-2.7,8.4-0.1c-0.1,0.1-0.2,0.3-0.4,0.4
			c-0.8,0.5-1.7,0.6-2.5,1C214.7,33.5,214.5,34.7,213.7,35.3z"/>
		<path fill="#686868" d="M419.6,50.7c-1-3.4-6.2-2.5-6.6-6.5C417.4,44,419.1,46.7,419.6,50.7z"/>
		<path fill="#5C5C5C" d="M162.2,127.2c-0.4-0.2-0.8-0.5-1.1-0.7c-1.1-1.1-1.7-2.3-0.8-3.8c0-0.6,0-1.2,0-1.8c1.5-1.3,2.2,0.1,3.1,1
			c0.4,0.5,0.7,1,1,1.6c0.2,0.6,0.2,1.2,0.1,1.8C164,126.4,163.2,126.9,162.2,127.2z"/>
		<path fill="#767676" d="M401.8,25c-2-1.5-2.3,4.3-4.7,1c0.9-0.6,0.5-2,1-2.3c1.1-0.7,1.7-2.6,3.1-2
			C402.5,22.3,401.8,23.8,401.8,25z"/>
		<path fill="#656565" d="M408.1,40.5c0-2.4,2.5-1.6,3.7-2.9c-1.3-1.2-2.4-2.6-2.6-4.4c2.1,1,3.6,2.7,3.6,5.1c0,2.5-2.9,0.9-3.7,2.3
			C408.7,40.9,408.4,40.9,408.1,40.5z"/>
		<path fill="#646464" d="M19.3,185.4c-0.4-0.6-0.8-1.1-1.1-1.7c-0.5-1.7,0.4-2.9,1.6-4c0.4-0.2,0.8-0.3,1.2-0.3
			c0.7,0.1,1.1,0.4,1.4,1.1c0,1,0.5,1.9,0.9,2.8c0.2,0.6,0.3,1.1,0.2,1.7c-0.2,0.4-0.4,0.6-0.8,0.8
			C21.5,185.7,20.4,185.8,19.3,185.4z"/>
		<path fill="#979797" d="M159.3,208.5c1.1-0.6,1.4,0.5,1.9,0.9c1,1.8,1,4.4,3.8,4.8c-0.3,1.5-1,2.3-2.2,0.8"/>
		<path fill="#686868" d="M20.9,156.8c0.3,0,0.7,0,1,0c-0.8,3.3-3.6,1.2-5.3,2c-1-0.7-1.7-1.6-1.1-2.9c0.9-0.3,1.9-1.4,2.8-0.1
			C19,156.7,20.2,156.2,20.9,156.8z"/>
		<path fill="#535353" d="M230.2,76.5c2.3-1.6,0.3-3.8,0.9-5.6c0-0.1,0.3-0.2,0.4-0.2c0.3,0.1,0.5,0.3,0.7,0.5
			c2.3,1.8,0.4,3.4-0.2,5.1c-0.1,1-0.8,0.8-1.4,0.7C230.5,76.8,230.3,76.7,230.2,76.5z"/>
		<path fill="#464646" d="M396.1,24.1c-2.5-0.6-3.7,3.4-6.5,1.8C391.4,23.7,393.3,22.4,396.1,24.1z"/>
		<path fill="#565656" d="M184.3,210.2c1.3,0,1.7,0.9,2,2c-0.2,1.1-0.9,1.7-2.1,1.7c-1.1,0.4-1.7-0.1-1.9-1.1
			C182.9,212,183.6,211.1,184.3,210.2z"/>
		<path fill="#525252" d="M30.2,145.5c0.3,3.5-1.6,4.3-4.7,3.8C26.9,147.8,28.2,146.3,30.2,145.5z"/>
		<path fill="#464646" d="M193.4,207.5c1-2.1,3.2-1.8,4.9-2.6C198.5,209.1,195.6,207.6,193.4,207.5z"/>
		<path fill="#535353" d="M226.6,85.8c0.9-2-0.2-4.1,0.1-6.1c0-0.1,0.1-0.4,0.2-0.4c0.3,0,0.5,0.1,0.7,0.2c0.8,0.7,1.7,1.4,1.8,2.6
			c-0.6,1.2-1.2,2.5-1.8,3.7C227.2,86.2,226.9,86.1,226.6,85.8z"/>
		<path fill="#717171" d="M152.9,197.4c1.3,0.6,2.4,1.6,4.2,1c1.3-0.4,2.4,0.3,2.1,2c-0.8,0-1.2-1.4-2.4-0.6
			C153.7,201.9,153.3,199.6,152.9,197.4z"/>
		<path fill="#9B9B9B" d="M155.6,178c-0.9-0.2-1.7-1-2.8-0.6c-1-1.3-1.5-2.8,0-3.8c1.4-0.9,1.3,1,1.9,1.6c1.3,0.6,1.8,1.6,1.1,2.9
			L155.6,178z"/>
		<path fill="#777777" d="M226.6,85.8c0.3,0,0.6,0,1,0c1,2.2-0.6,3.4-1.8,4.8c-0.1-0.4-0.1-0.8-0.2-1.2
			C225.3,88.1,225.4,86.8,226.6,85.8z"/>
		<path fill="#4A4A4A" d="M213.7,137.5c-0.6,2.5-2.8,1.8-4.1,1.5c-0.9-0.2-0.7-1.8,0.7-2.4C211.2,137.9,212.6,137.1,213.7,137.5z"/>
		<path fill="#838383" d="M253.3,160.4c0.3-2.9,2.3-3.9,4.8-4.4C257.7,158.8,255.1,159.2,253.3,160.4z"/>
		<path fill="#727272" d="M158.4,138.4c0.3,0,0.6,0,0.9,0c0.9,0.6,0.9,1.5,0.9,2.5c-0.1,1.2-1.2,1.9-1.5,3c-0.4,0.3-0.8,0.3-1.2,0
			C157.3,142,157.3,140.1,158.4,138.4z"/>
		<path fill="#A1A1A1" d="M20,180.1c-0.6,1.2-1.2,2.4-1.8,3.6c-1.8-0.7-1.8-2.2-1.7-3.8C17.7,179.4,18.9,178.9,20,180.1z"/>
		<path fill="#767676" d="M182.3,212.8c0.6,0.4,1.3,0.8,1.9,1.1c-1.5,0.6-3,1.3-4.6,1.9c-0.9,0.4-1.1-0.1-1.1-0.8
			C179.8,214.3,181,213.6,182.3,212.8z"/>
		<path fill="#C9C9C9" d="M179.6,215.9c-1.3,1.3-2.7,2.2-4.5,1"/>
		<path fill="#464646" d="M20,180.1c-1.2-0.1-2.4,0.6-3.5-0.2c-1-0.2-0.9-1.1-0.9-1.8c0.6,0,1.3,0,1.9,0c1.4-0.1,3.1-0.7,3.5,1.6
			C20.6,179.9,20.3,180,20,180.1z"/>
		<path fill="#949494" d="M15.5,155.9c0.4,1,0.7,1.9,1.1,2.9c-0.1,0.3-0.3,0.5-0.4,0.8c-0.2,0-0.4,0-0.6,0.1
			C13.2,156.8,13.2,156.8,15.5,155.9z"/>
		<path fill="#838383" d="M155.8,178.2c-0.4-1-0.7-2-1.1-2.9c0.5-0.3,1.1-0.6,1.6-0.9C158,175.9,158.3,177.2,155.8,178.2z"/>
		<path fill="#808080" d="M19.3,185.4c1.2-0.9,2.4-0.9,3.6,0.1c0.4,0.6,0.5,1.2-0.1,1.8C21.7,186.6,19.5,187.9,19.3,185.4z"/>
		<path fill="#505050" d="M36.7,141.1c-0.5,1-1.6,1.6-1.9,2.9c-0.5,2.4-1.2-0.3-1.8-0.1C33,141.4,34.9,141.3,36.7,141.1z"/>
		<path fill="#838383" d="M229.4,82.2c-1.4-0.3-1.9-1.3-1.8-2.6c0.9-0.1,1.8-0.1,2.7-0.2C229.7,80.2,231.1,81.7,229.4,82.2z"/>
		<path fill="#5F5F5F" d="M403.6,27c-0.5,0.9-1.1,0.8-1.8,0.4c-1-0.7-0.3-1.5,0-2.3C403.5,24.7,403.5,25.9,403.6,27z"/>
		<path fill="#979797" d="M153.8,161.5c0.6-0.3,1.2-0.7,1.8-1c2.3,0.6,0.8,1.3,0.1,2c-0.3,0.6-0.6,1.2-0.9,1.8
			C153.7,163.6,153.7,162.5,153.8,161.5z"/>
		<path fill="#B1B1B1" d="M410.2,41.8c-1.1,1-2.4,1.4-3.3-0.1c-0.6-1.1,0.9-0.7,1.2-1.1"/>
		<path fill="#ABABAB" d="M378.9,75.8c0.6-1.4,1.8-0.6,2.8-0.9c-0.5,0.4,2.2,2.4-0.8,1.7C380.2,76.5,379.5,76.1,378.9,75.8z"/>
		<path fill="#7A7A7A" d="M139.9,75.7c0.4,2.5-1.5,1.6-2.6,1.9C137.7,76.3,138.5,75.6,139.9,75.7z"/>
		<path fill="#535353" d="M230.3,79.3c-0.3-0.9-3.2-1.8-0.1-2.8c0.1,0.1,0.3,0.3,0.4,0.4c1,0.6,1.5,1.4,0.6,2.5
			C230.9,79.4,230.6,79.4,230.3,79.3z"/>
		<path fill="#8C8C8C" d="M218.4,103.3c0.8-1.3,2-1.9,3.5-1.9c-0.5,1-1,2.1-1.5,3.1C219.5,104.5,218.9,104,218.4,103.3z"/>
		<path fill="#848484" d="M161.2,209.4c-0.6-0.3-1.3-0.6-1.9-0.9c0.1-0.9,0.1-1.9,0.2-2.8C160.8,206.5,160.9,208,161.2,209.4z"/>
		<path fill="#727272" d="M218.4,103.3c0.9,0.1,1.6,0.4,2,1.3c0,0.8-0.1,1.5-1,1.7C218.8,105.4,218.2,104.5,218.4,103.3z"/>
		<path fill="#8D8D8D" d="M160.2,122.7c0.3,1.3,0.5,2.6,0.8,3.8c-0.5-0.1-1-0.1-1.6-0.2C159.5,125.1,159,123.7,160.2,122.7z"/>
		<path fill="#525252" d="M33,143.9c0.1,2.8-1.4,1.5-2.6,1C30.8,143.4,32.1,144.2,33,143.9z"/>
		<path fill="#6B6B6B" d="M237.7,172.5c-0.2-2,1.6-1.4,2.5-1.9C240.2,172.3,238.8,172.2,237.7,172.5z"/>
		<path fill="#4F4F4F" d="M14.7,170.8c-0.3-0.7-0.6-1.3-1-2c2.1,0.2,1.5-2.1,2.7-2.8c0.3-0.4,0.6-0.4,0.9,0
			c-0.2,3.2,4.7,2.5,4.5,5.7c-0.9,0.5-1.8,0.6-2.7-0.1C18,169.3,16.2,171,14.7,170.8z"/>
		<path fill="#474747" d="M163.9,125.5c0-0.6,0-1.2,0.1-1.8c0.3-0.9,0.7-1.5,1.8-1c4,2.8,0.8,4.5-0.9,6.5
			C164,128.1,162.9,127.1,163.9,125.5z"/>
		<path fill="#5B5B5B" d="M20.9,179.8c-0.7-1.4-2.7-0.2-3.5-1.6l-0.3-0.1v-0.3c1.2-0.5,1.9-1.6,2.8-2.4c3.9,0.1,2.7,3.1,3,5.3
			c-0.1,0.1-0.2,0.3-0.3,0.4c-0.4,0-0.6-0.1-0.7-0.4C21.6,180.3,21.3,180.1,20.9,179.8z"/>
		<path fill="#767676" d="M22.9,180.6c2.6-0.4,4.2,2.2,6.7,2.3c-1.2,2.7-2.8,0.9-4.2,0.5c-0.4,0.6-1,0.6-1.7,0.4
			c-0.6-0.8-1.4-1.6-1-2.8L22.9,180.6z"/>
		<path fill="#6A6A6A" d="M165.8,122.7c-0.6,0.3-1.2,0.7-1.8,1c-0.4-0.4-0.7-0.8-1.1-1.2c0.1-0.8,0.1-1.6,0.2-2.4
			c0.9,0,1.9,0,2.8,0.1C165.9,121.1,165.8,121.9,165.8,122.7z"/>
		<path fill="#888888" d="M218.1,31.3c0.5,1.4-0.1,2.6-0.6,3.8c-0.3,0-0.6,0-0.9,0c-1.3-0.6-1.9-1.4-1-2.7
			C216.1,31.4,217.2,31.6,218.1,31.3z"/>
		<path fill="#676767" d="M215.5,32.4c0.3,0.9,0.7,1.8,1,2.7c-0.9,0.3-1.8,1.7-2.8,0.2C214.4,34.4,212,31.6,215.5,32.4z"/>
		<path fill="#757575" d="M168.5,115.1c-0.5-1.3,0.2-2.3,0.8-3.3c1.9,0.9,1.3,2.5,0.8,3.7C169.6,116.5,168.9,115.7,168.5,115.1z"/>
		<path fill="#4B4B4B" d="M163.9,125.5c0.3,1.2,0.6,2.5,0.9,3.7c-0.3,0.3-0.7,0.7-1,1c-0.6-1-1.1-2-1.7-3
			C162.8,126.6,163.3,126.1,163.9,125.5z"/>
		<path fill="#5F5F5F" d="M383.4,31.8c-0.4,0.2-1,0.7-1.6,0.9c-0.2,0-0.9-0.8-0.9-1.2c0.1-1,0.9-0.9,1.7-0.9
			C383.2,30.5,383.7,30.8,383.4,31.8z"/>
		<path fill="#404040" d="M23.9,155.9c-1.2-2.1,0.4-2.8,1.8-3.7C25.8,153.8,25.5,155.2,23.9,155.9z"/>
		<path fill="#8D8D8D" d="M156.6,167.5c0.4-0.9,0.7-1.8,1.1-2.7c0.6,0.3,1.6,0.3,1.3,1.3C158.7,167.2,157.6,167.5,156.6,167.5z"/>
		<path fill="#4F4F4F" d="M17.4,166.1c-0.3,0-0.6,0-0.9,0c0-0.6,0-1.2,0-1.9c1,0.3,2.3-1.2,2.9,0.1
			C19.9,165.6,17.6,164.9,17.4,166.1z"/>
		<path fill="#595959" d="M28.7,178.4c-0.6,0.9-1.5,1.5-2.2,0.7c-0.9-1.1,0.4-1,1-1C27.9,178,28.3,178.2,28.7,178.4z"/>
	</g>
</g>
</svg>
