<svg viewBox="0 0 500 268">
<defs><style>
.cls-1{opacity:0}
.cls-2 {fill:#000}
</style></defs>
<g>
<path class="cls-2" d="M326.3,186c-51,20.3-83.6,30.4-97.9,30.4s-38.4-4.4-68.2-13.2-52.5-13.2-68.2-13.2-27.9,2-40.7,6c-9.3,2.9-19.4,7.6-30.4,14.2-14,8.3-20.9,15.4-20.9,21.1s3.1,6.6,9.3,6.6,12-.7,21.3-2c9.4-1.3,16.5-2,21.3-2,17.4,0,42.7,5.4,75.8,16.2,33.1,10.8,58.3,16.2,75.8,16.2,30,0,56.4-6,79.1-17.9,13.2-7.1,25.5-17.1,36.7-30.1,9.7-11.5,14.6-19.4,14.6-23.8,0-5.7-2.6-8.5-7.6-8.5ZM272.2,241.2c-19.7,9.5-40.5,14.2-62.4,14.2s-43.7-5.4-77.6-16c-33.9-10.7-59.7-16-77.6-16s-24.8,1-38.7,3c24.3-17,49.5-25.5,75.8-25.5s38.4,4.4,68.2,13.2,52.5,13.2,68.2,13.2c28.2,0,57.7-8.3,88.4-24.8-9.9,16.3-24.6,29.2-44.3,38.7Z"/>
<path class="cls-2" d="M333.6,0c-51,20.3-83.6,30.4-97.9,30.4s-38.4-4.4-68.2-13.2c-29.8-8.8-52.6-13.2-68.2-13.2s-27.9,2-40.7,6c-9.3,2.9-19.4,7.6-30.4,14.2-14,8.3-20.9,15.4-20.9,21.1s3.1,6.6,9.3,6.6,12-.7,21.3-2c9.4-1.3,16.5-2,21.3-2,17.4,0,42.7,5.4,75.8,16.2,33.1,10.8,58.3,16.2,75.8,16.2,30,0,56.4-6,79.1-17.9,13.2-7.1,25.5-17.1,36.7-30.1,9.7-11.3,14.6-19.3,14.6-23.7s-2.6-8.6-7.6-8.6ZM279.5,55.3c-19.7,9.5-40.5,14.2-62.4,14.2s-43.7-5.3-77.6-16c-33.9-10.7-59.7-16-77.6-16s-24.8,1-38.7,3c24.3-17,49.5-25.5,75.8-25.5s38.4,4.4,68.2,13.2c29.8,8.8,52.5,13.2,68.2,13.2,28.2,0,57.7-8.3,88.4-24.8-9.9,16.3-24.6,29.2-44.3,38.7Z"/>
<path class="cls-2" d="M492.4,93.3c-51,20.3-83.6,30.4-97.9,30.4s-38.4-4.4-68.2-13.2c-29.8-8.8-52.5-13.2-68.2-13.2s-27.9,2-40.7,6c-9.3,2.9-19.4,7.6-30.4,14.2-13.9,8.4-20.8,15.4-20.8,21.2s3.1,6.6,9.3,6.6,12-.7,21.3-2c9.4-1.3,16.5-2,21.3-2,17.4,0,42.7,5.4,75.8,16.2s58.3,16.2,75.8,16.2c30,0,56.4-6,79.1-17.9,13.2-7.1,25.5-17.1,36.7-30.1,9.7-11.5,14.6-19.4,14.6-23.8-.1-5.7-2.6-8.6-7.7-8.6ZM438.3,148.6c-19.7,9.5-40.5,14.2-62.4,14.2s-43.7-5.3-77.6-16-59.7-16-77.6-16-24.8,1-38.7,3c24.3-17,49.5-25.5,75.8-25.5s38.4,4.4,68.2,13.2c29.8,8.8,52.5,13.2,68.2,13.2,28.2,0,57.7-8.3,88.4-24.8-9.8,16.3-24.6,29.2-44.3,38.7Z"/>
</g>
<g>
<path class="cls-1" d="M326.3,186.1c-51,20.3-83.6,30.4-97.9,30.4s-38.4-4.4-68.2-13.2-52.5-13.2-68.2-13.2-27.9,2-40.7,6c-9.3,2.9-19.4,7.6-30.4,14.2-14,8.3-20.9,15.4-20.9,21.1s3.1,6.6,9.3,6.6,12-.7,21.3-2c9.4-1.3,16.5-2,21.3-2,17.4,0,42.7,5.4,75.8,16.2,33.1,10.8,58.3,16.2,75.8,16.2,30,0,56.4-6,79.1-17.9,13.2-7.1,25.5-17.1,36.7-30.1,9.7-11.5,14.6-19.4,14.6-23.8,0-5.7-2.6-8.5-7.6-8.5Z"/>
<path class="cls-1" d="M333.6,0c-51,20.3-83.6,30.5-97.9,30.5s-38.4-4.4-68.2-13.1c-29.8-8.8-52.6-13.2-68.2-13.1s-27.9,2-40.7,6c-9.3,2.9-19.4,7.6-30.4,14.2-14,8.3-20.9,15.4-20.9,21.1s3.1,6.6,9.3,6.6,12-.7,21.3-2c9.4-1.3,16.5-2,21.3-2,17.4,0,42.7,5.4,75.8,16.1,33.1,10.8,58.3,16.2,75.8,16.1,30,0,56.4-6,79.1-18,13.2-7.1,25.5-17.1,36.7-30.1,9.7-11.3,14.6-19.3,14.6-23.7S338.6,0,333.6,0Z"/>
<path class="cls-1" d="M492.4,93.4c-51,20.3-83.6,30.4-97.9,30.4s-38.4-4.4-68.2-13.2c-29.8-8.8-52.5-13.2-68.2-13.2s-27.9,2-40.7,6c-9.3,2.9-19.4,7.6-30.4,14.2-13.9,8.4-20.8,15.4-20.8,21.2s3.1,6.6,9.3,6.6,12-.7,21.3-2c9.4-1.3,16.5-2,21.3-2,17.4,0,42.7,5.4,75.8,16.2s58.3,16.2,75.8,16.2c30,0,56.4-6,79.1-17.9,13.2-7.1,25.5-17.1,36.7-30.1,9.7-11.5,14.6-19.4,14.6-23.8-.1-5.7-2.6-8.6-7.7-8.6Z"/>
</g>
</svg>
