<svg viewBox="0 0 500 500">
<path style="fill:#fff" d="M281.8,287c-17.1,0-42.4-5.4-75.2-16.1-33.1-10.8-58.9-16.3-76.4-16.3s-11.8.7-21.6,2c-9.4,1.3-16.5,2-21,2-7.3,0-7.3-3.2-7.3-4.6,0-2.8,2.6-9.1,19.9-19.4,10.7-6.4,20.8-11.2,30-14,12.5-3.9,26-5.9,40.1-5.9s38.2,4.4,67.6,13.1c29.8,8.8,53,13.3,68.8,13.3s46.9-9.9,98.3-30.4c2.5,0,5.2,1,5.2,6.6s-1.8,8.1-14.1,22.4c-10.9,12.6-23,22.6-36.1,29.6-22.3,11.7-48.7,17.7-78.2,17.7Z"/>
<path style="fill:#000" d="M281.8,287c-17.1,0-42.4-5.4-75.2-16.1-33.1-10.8-58.9-16.3-76.4-16.3s-11.8.7-21.6,2c-9.4,1.3-16.5,2-21,2-7.3,0-7.3-3.2-7.3-4.6,0-2.8,2.6-9.1,19.9-19.4,10.7-6.4,20.8-11.2,30-14,12.5-3.9,26-5.9,40.1-5.9s38.2,4.4,67.6,13.1c29.8,8.8,53,13.3,68.8,13.3s46.9-9.9,98.3-30.4c2.5,0,5.2,1,5.2,6.6s-1.8,8.1-14.1,22.4c-10.9,12.6-23,22.6-36.1,29.6-22.3,11.7-48.7,17.7-78.2,17.7ZM132.9,248.2c17.7,0,43.6,5.4,77,15.9,33.8,10.7,60.1,16.1,78.2,16.1s43.5-4.8,63.3-14.4c19.9-9.6,35.1-22.9,45.1-39.5.5-.8.4-1.8-.3-2.4-.4-.4-.9-.6-1.5-.6s-.6,0-.9.2c-30.3,16.3-59.7,24.6-87.5,24.6s-38.2-4.4-67.6-13.1c-29.8-8.8-53-13.3-68.8-13.3-26.5,0-52.4,8.7-76.9,25.9-.8.5-1.1,1.5-.7,2.4.3.8,1,1.3,1.9,1.3s.2,0,.3,0c13.7-2,26.7-3,38.4-3Z"/>
</svg>
