<svg viewBox="0 0 85.3 770.7">
<style type="text/css">
	.st0{fill:#B5AEAA;}
	.st1{fill:#9E9590;}
	.st2{fill:#B7B0AC;}
	.st3{fill:#BCB6B2;}
	.st4{fill:#EAE8E7;}
	.st5{fill:#F9F9F9;}
	.st6{fill:#D0CCC9;}
	.st7{fill:#EDECEB;}
	.st8{fill:#E6E4E3;}
	.st9{fill:#C5C0BD;}
	.st10{fill:#E0DDDB;}
	.st11{fill:#ECEAE9;}
	.st12{fill:#E1DEDD;}
	.st13{fill:#C9C4C1;}
	.st14{fill:#F4F4F4;}
	.st15{fill:#E8E6E5;}
	.st16{fill:#BDB7B3;}
	.st17{fill:#BEB9B5;}
	.st18{fill:#E1DEDC;}
	.st19{fill:#ECEBEA;}
	.st20{fill:#A8A09B;}
	.st21{fill:#F6F5F5;}
	.st22{fill:#CBC6C3;}
	.st23{fill:#BEB8B5;}
	.st24{fill:#D2CECC;}
	.st25{fill:#D9D6D4;}
	.st26{fill:#F7F6F6;}
	.st27{fill:#E7E5E3;}
	.st28{fill:#9F9690;}
	.st29{fill:#F7F7F7;}
	.st30{fill:#A9A29D;}
	.st31{fill:#DCD9D7;}
	.st32{fill:#CFCAC8;}
	.st33{fill:#BFB9B5;}
	.st34{fill:#EFEEED;}
	.st35{fill:#BDB7B4;}
	.st36{fill:#D4CFCD;}
	.st37{fill:#9D948E;}
	.st38{fill:#B2ABA7;}
	.st39{fill:#B4ADA9;}
	.st40{fill:#C5BFBC;}
	.st41{fill:#C0BBB7;}
	.st42{fill:#9B928C;}
	.st43{fill:#E4E1E0;}
	.st44{fill:#BFBAB6;}
	.st45{fill:#FFFFFF;}
	.st46{fill:#F1EFEF;}
	.st47{fill:#E9E7E6;}
	.st48{fill:#E7E5E4;}
	.st49{fill:#BFB9B6;}
	.st50{fill:#9F9691;}
	.st51{fill:#C4BEBB;}
	.st52{fill:#D3CFCD;}
	.st53{fill:#FCFCFC;}
	.st54{fill:#CDC9C6;}
	.st55{fill:#AFA7A3;}
	.st56{fill:#E2DFDD;}
	.st57{fill:#F2F1F1;}
	.st58{fill:#C8C4C1;}
	.st59{fill:#CFCBC8;}
	.st60{fill:#DBD8D6;}
	.st61{fill:#D6D2D0;}
	.st62{fill:#C0BAB7;}
	.st63{fill:#B6AFAC;}
	.st64{fill:#D1CDCB;}
	.st65{fill:#D9D5D3;}
	.st66{fill:#EBE9E8;}
	.st67{fill:#A59D98;}
	.st68{fill:#A79F9B;}
	.st69{fill:#D5D1CF;}
	.st70{fill:#C2BCB8;}
	.st71{fill:#C7C2BF;}
	.st72{fill:#A29994;}
	.st73{fill:#A9A19D;}
	.st74{fill:#DBD7D5;}
	.st75{fill:#BEB8B4;}
	.st76{fill:#ABA39E;}
	.st77{fill:#A89F9A;}
	.st78{fill:#D7D3D1;}
	.st79{fill:#DAD7D5;}
	.st80{fill:#ECEAEA;}
	.st81{fill:#ADA5A1;}
	.st82{fill:#B2ABA6;}
	.st83{fill:#B7B0AB;}
	.st84{fill:#B7B1AD;}
	.st85{fill:#ADA6A1;}
	.st86{fill:#B3ABA8;}
	.st87{fill:#AFA8A3;}
</style>
<g>
	<path class="st0" d="M6.8,263.1c0.2-0.9,0.8-1.7,0.1-2.7c-0.2-0.3,0-1-0.1-1.4c-0.7-2,1.8-3.4,0.8-5.6c-0.9-1.9,0.3-3.9,0.5-5.8
		c0.2-2.3,0.5-4.6,0.7-6.8c0.1-0.9,0.1-1.7,0.5-2.5c0.2-0.1,0.3-0.3,0.5-0.5l0,0c2.2,0.5,2.8-2.3,4.7-2.4c0-0.4-0.6-0.4-0.6-0.8
		c0-0.2-0.1-0.4-0.1-0.6c0-0.4,0-0.7-0.5-0.8c-0.3,0-0.6,0.1-0.9,0.3c-2.2,0.3-2.3,0.2-2.1-2.6c0.1-0.3,0.1-0.6,0.1-0.9
		c0.1-2.9,0.3-3.1,3.3-3c-0.8-0.8-2.3-0.8-2.3-2.3c0-0.2,0.2-0.4,0.3-0.5c0.7-0.1,1.4,0.5,2.1-0.1c0.3-0.2,0.7-0.4,1-0.6
		c0.6-0.4,0.5-0.9,0.4-1.5c0-0.2,0-0.4,0-0.6c0.8-1.6,0-2.6-1.3-3.3c-0.6-0.3-1.2-0.4-1-1.3c0.2-0.9,1-0.7,1.6-0.6
		c1.5,0.1,2.2-0.5,2-2c-0.2-0.2-0.3-0.2-0.5-0.2c-1,0.3-2,1.5-2.8,0.8s0.2-1.9,0.4-2.9c0.2-1.2,0.8-2.4,0.7-3.7c0-1,0.3-1.9,1.5-1.6
		c2.1,0.6,2.5-0.7,2.7-2.2c0.3-0.7,0.2-1.5,0.4-2.3c0.1-0.3,0.3-0.6,0.5-0.9c1-1.1,2.5-1.5,3.3-2.9c0.5-0.1,1,0.1,1.3,0.5
		c0.5,1.1,0.4,2.2,0.3,3.3c-0.5,6-0.6,12-1,17.9c-0.5,7.1-0.1,14.2-0.5,21.3c-0.5,8.6-1.2,17.2-0.8,25.8c0.4,9.5,0.8,19,1,28.5
		c0.1,6.8,0.9,13.5,0.8,20.3c-0.1,4.1-0.5,8.3-0.4,12.4c0.2,9.3,1.1,18.5,1.4,27.7c0.1,5.3,0.4,10.5,1,15.8c0.2,1.6-0.1,3.2-1,4.6
		c-0.7,1.1-1,2.3-1,3.6c0.1,1.5-0.5,2.8-0.9,4.2c-0.2,0.6-0.5,1.3-1.3,1.1c-0.7-0.1-1-0.7-1.1-1.4c-0.1-1.1-0.1-2.3-0.2-3.9
		c-0.9,2.6-0.9,4.8-1.4,7c-0.7,3-1.8,6-2.3,9c-0.3,1.9-0.8,3.8,0.3,5.6c0.5,0.7,0.3,1.4-0.3,1.9c-1.1,0.9-0.7,1.6,0.3,2.2
		c0.5,0.3,1.2,0.7,1.1,1.4c-0.1,0.9-0.9,1.3-1.8,1.4c-1.2,0.1-1.8,0.9-2,2c-0.4,1.9-0.9,3.8-0.7,5.7c0.1,1.2,0,2.4-0.3,3.6
		c-1.3,4.7-1.8,9.6-2,14.5c-0.2,6.1-0.9,12.1-1.9,18c-1.1,6.2-1,12.4-1.5,18.6c-0.6,1-1.3,1.1-2,0.2c-0.3-0.5-0.7-1-0.6-1.5
		c0.4-4.5-0.3-9.1-0.2-13.6c0.1-4.3-0.2-8.6,0-12.8c-0.6-0.2-0.6,0.2-0.8,0.4c-0.5,0.6-1.1,1.3-2,0.9c-1-0.4-1.3-1.3-1.1-2.2
		c0.2-0.9-0.2-1.4-0.7-1.9c0.2-15.6,0.6-31.1,1.1-46.7c0.3-9.9,0.8-19.7,1.7-29.6c0.6-7.1,0.4-14.3,0.2-21.5
		c-0.2-8.4-0.1-16.7,0.3-25.1c0.2-4.3,0.1-8.6,0.2-12.9c0.1-7.1,1-14.1,1.4-21.2c0.3-5,0.8-10,1.3-15C6.6,266.5,7.4,264.9,6.8,263.1
		z"/>
	<path class="st0" d="M43.7,376c2.1,2.2,2.1,5.1,2.3,7.8c0.1,1.3,0.1,2.6,0.3,3.9c0.1,0.5,0.4,1.1,0.1,1.6c-0.4,0.7,0,1.1,0.2,1.8
		c0.9,2.5,1.7,5.1,1.3,7.9c-0.1,0.5-0.1,0.9,0.3,1.3c1.4,1.4,1,2.9,0.2,4.4c-0.5,1-0.9,1.9,0.4,2.5c0.4,0.2,0.7,0.7,0.7,1.2
		c0,3.9,1.5,7.7,0.6,11.6c-0.1,0.3,0,0.7,0,0.9c1.3,4.6,1.2,9.3,1.5,14c0.1,2.2,0.3,4.5,0.4,6.7c0,1.7-0.2,3.4-0.9,4.9
		c-0.4,0.9-0.6,1.6,0.1,2.4c0.6,0.7,0.5,1.7,0.2,2.5c-0.4,1.5-0.4,3-0.4,4.5c0,2.8,0,5.6-0.8,8.3c0,0.2-0.1,0.3-0.1,0.5
		c0.7,3.1-0.5,6.1-0.5,9.2c0,2.3-0.3,4.6-0.8,6.9c-0.2,0.9-0.2,1.7-0.2,2.6c0,3.1,0.1,6.2-1.2,9.2c-0.2,0.5-0.1,0.9,0,1.4
		c0.4,2.1,0.5,4.1-0.1,6.2c-0.1,0.4-0.2,0.9-0.1,1.4c0.1,5-0.7,10-1,15c-0.4,5.7-0.7,11.3-0.9,17c-0.2,5.5-0.7,11-1,16.5
		c-0.3,4.8-0.6,9.5-0.9,14.3c-0.3,3.8-0.2,7.7-0.4,11.5c-0.5,6.9-1.2,13.8-2.1,20.7c-0.7,4.8-1.6,9.6-1.7,14.5
		c-0.2,5.4-0.8,10.8-1.2,16.2c-0.1,0.7,0,1.4-0.1,2.2c-0.3,6.4-0.9,12.7-1.3,19.1c-0.4,5.4-0.9,10.8-1.2,16.2
		c-0.2,5.4-0.7,10.8-1.2,16.2c-0.6,6-1.8,11.8-2.5,17.7c-0.2,1.4-0.6,2.8-1,4.2c-0.5,3-0.7,6.1-1.2,9.1c-0.1,0.9,0.1,2.1-1.3,2.4
		c-0.9-2,0-3.9,0.1-5.9c0.1-1.6,0.4-3.2,0.8-4.7c1.4-5.6,2-11.3,3.1-16.9c0.4-3.9,0.9-7.7,1.2-11.6c0.7-7.9,0.7-15.9,1.6-23.8
		c0.1-0.7,0.4-1.3,0.3-2c0.1-1.5-0.1-2.9,0.2-4.4c0.1-0.5,0.3-1,0.3-1.5c0.1-1.8,0-3.7,0.5-5.5c0-0.4,0-0.8,0-1.2
		c0.1-1.9-0.1-3.8,0.2-5.8c0.1-0.4,0.2-0.8,0.3-1.2c0.1-6.2,0.8-12.5,1.1-18.7c0.1-0.5,0.3-1,0.3-1.6c0.1-1.3,0-2.6,0.2-3.8
		c0.1-0.4,0.2-0.7,0.3-1.1c0.1-0.8,0.1-1.7,0.3-2.5c0.1-0.4,0.2-0.7,0.2-1c0.1-1,0-1.9,0.2-2.9c0.1-0.4,0.1-0.7,0.2-1.1
		c0.3-3.4,0.9-6.9,1.2-10.3c0.1-0.4,0.1-0.8,0.2-1.2c0.7-9.4,1.2-18.8,1.7-28.3c0.1-0.6,0.3-1.1,0.3-1.7c0.2-2.7-0.2-5.4,0.2-8
		c0.2-0.7,0.4-1.4,0.3-2.1c0.5-7.4,1-14.8,1.1-22.1c0.1-0.5,0.3-1,0.3-1.6c0.3-6.6,1.2-13.2,1.3-19.8c0-1.9,0.9-3.8,0.7-5.8
		c0-0.6-0.3-1.1-0.3-1.4c0.5,1.1,0.4,2.7,0.2,4.1c-0.9,4.3-0.7,8.7-1,13.1c-0.1,1.8-0.3,3.5-0.6,5.2c-0.3,2-2.3,2.6-3.7,3
		c-2.2,0.6-3.1,2.3-4.5,3.6c-0.9,0.8-1.6,1.8-2.3,2.7c-1,1.2-0.9,2.7,0.4,3.8c1.2,1,1.1,2.3,0.7,3.5c-0.5,1.4-2,1.1-3.1,1.3
		s-1.3-0.9-1.1-1.7c0.2-1.2,0.2-2.3-0.5-3.4c0.9,1.8,0.3,3.3-1,4.6c-1.4,1.3-2.3,2.8-1.4,4.9c0.2,0.5,0.1,1.1,0,1.7
		c-0.3,1.1-1,1.9-2.2,1.8c-1.2-0.2-1.5-1.1-1.4-2.2c0.1-1.6,0.2-3.2,0.1-4.8c0-0.9,0-1.7,0.2-2.6c0.2-0.7,0.4-1.4,0.4-2.1
		c0-0.2,0.1-0.5,0.2-0.7c0.1-0.2,0.2-0.4,0.3-0.6c0-0.1,0.1-0.2,0.1-0.3c0.6-1.6,0.7-3.3,0.9-5c0-0.2,0.1-0.4,0.2-0.7
		c0.2-3.2,2.5-5.8,2.3-9c0.1-0.2,0.2-0.4,0.4-0.6c1.7-0.8,1.6,0.5,1.9,1.8c0.4-1.2,0.3-2.1,0.3-3.1c0.1-2.1-0.3-4.3,1.8-5.9
		c0.7-0.5,0.6-1.6,0.6-2.5c0-2,0.4-3.8,1.2-5.7c0.8-1.8-0.5-4-1.6-5.7c-0.7-1.1-1.3-1.7-0.6-3.4c0.5-1.2-0.3-3.2-0.8-4.7
		c-0.4-1.2-0.6-2.3-0.6-3.5c0.3-6.9,1-13.7,1.8-20.5c0.7-5.7,1-11.4,1.5-17.2c0.8-8.5,0.5-17,2.1-25.5c0.8-4.5,1.3-9.2,1.3-13.8
		c0-1.9,0.4-3.8,0.7-5.7c0.4-3.1-0.1-6.2,0.3-9.3c0.2-0.2,0.4-0.3,0.6-0.2c0.2,0.1,0.3,0.3,0.5,0.3c-0.2-0.1-0.4-0.3-0.5-0.5
		c0.1-1.4-0.3-2.7-0.7-4c-0.5-1.7-0.4-3.3,1.1-4.6c1.5,0.1,0.9,1,0.7,1.8c-0.4,1.2-0.3,2.3,1.3,2.7c-1.7-1.7,0-3.7-0.6-5.6
		c-0.1-1.2-0.1-2.5,0.1-3.7c0.1-0.5,0.3-1.1,1-1.2C43.5,374.8,43.4,375.6,43.7,376z"/>
	<path class="st1" d="M64.9,70.3c0.6,2.4,0.7,4.9,0.3,7.4c-0.2,1.8,0.6,3.4,0.8,5.1c0.5,5.5,0.8,11,0.8,16.5c0,0.5-0.2,1.1-0.3,1.6
		c-0.4,1.3-1,2.5-0.1,3.9c0.3,0.4,0.2,1.1,0,1.6c-0.6,2.3-0.4,4.6-0.5,6.9c0,1.5,0,3-0.5,4.5c-0.1,0.4-0.3,0.8-0.2,1.2
		c0.4,4.2-0.4,8.4-0.9,12.6c-0.4,3.2-0.1,6.5-0.8,9.7c-0.6,2.7-0.2,5.3-0.5,8c-0.8,7-1.1,14-1.7,20.9c-0.3,3.6,0,7.2-0.4,10.7
		c-0.4,3.6-0.4,7.3-0.9,10.9c-0.3,1.9-0.2,3.8-0.3,5.7c-0.3,0-0.6-0.1-0.8-0.3c-0.8-2.3-0.4-4.7-0.3-7.1c0.3-4.8,0.8-9.5,0.8-14.3
		c0-3.8,0.4-7.6,0.9-11.4c0-0.4,0.2-0.8,0.2-1.3c0.1-3.6,0.7-7.2,0.5-10.8c0-0.8,0.4-1.5,0.6-2.3c0.2-0.6,0.3-1.2,0.1-1.9
		c0-0.9,0-1.7,0-2.6c-0.2-2.9,1.1-5.7,0.9-8.6c0-0.4,0.2-0.9,0-1.2c-0.2,2.4-0.1,5-0.9,7.5c-0.3,0.9-0.4,1.7-0.1,2.6
		c-0.1,1.6,0.4,3.3-0.3,4.9c-0.5,0.8-0.3,1.7-0.4,2.6c0,0.3,0,0.5,0,0.8c0,0.8,0,1.5,0,2.3c-0.1,1.2-0.3,2.3-0.3,3.5
		c-0.2,0.6-0.2,1.2-0.2,1.9c0.1,1.1-0.3,2.2-0.2,3.3c-1.2,2.5-3.7,3.2-5.9,4.1c-1.1,0.5-1.3-0.8-1.6-1.6c-0.2,0.6-0.4,1.1-0.5,1.6
		c-0.6,2.5-0.8,2.6-2.8,1.1c-1.2-0.9-2.1,0.1-3.5,0.3c1.7,1.4,1.8,2.8,0.4,4.3c-0.9,1-0.4,1.9,0.3,2.8c0.6,0.8,0.9,1.6-0.2,2.2
		c-1.9,1.1-1.9,3-1.8,4.8c0,0.9,0.1,1.8-0.1,2.6c-0.3,0.8-0.4,1.9-1.6,1.7c-1-0.1-1.1-1.1-1.1-1.9c-0.1-2.1,0-4.3-0.3-6.4
		c-0.5,0.4-1.1,0.5-1.8,0.1c-1.9-1-3.4-0.2-4.7,1.2c-1,1.1-1.9,2.3-3.2,3.2c-0.5,0.4-1,0.9-1.7,0.5s-1.2-1-1-1.7
		c1.1-4.5-0.8-9.1,0.7-13.5c0.7-2,0.8-4.2,1.8-6.1c0.6-1.1,0.9-2.4,2.6-2.2c0.9,0.1,1-1.1,1.3-1.8c0.5-1.5,1.2-2.8,2.5-3.7
		c1.6-1.1,3-0.6,3.4,1.3c0.5,2.1,1.3,4.1,0.6,6.4c0.7-0.5,0.6-1.4,0.9-2c0.3-0.6,0.6-0.9,1.3-0.8c0.7,0.1,1,0.6,0.9,1.2
		c-0.2,1.2,0.1,2.2,0.9,3.1c0.7,0.7,1.4,0.7,2.2,0.3c0.9-0.4,0.4-1,0.2-1.6c-0.3-0.8-0.1-1.6,0.3-2.3c0.6-0.9,0.8-1.6,0.1-2.6
		c-0.5-0.8-0.2-1.6,0.7-2c0.6-0.3,1.1-0.7,1-1.5c-0.5-3.9,1.4-6.1,5.2-7.4c-0.8-0.4-1.2-0.8-1.3-1.5c-0.1-1.2-1.1-1.9-1.8-2.7
		c-1.7-1.9-3.6-2.2-6-1.2c-2.1,0.9-3.1,0.2-3.4-2.1c-0.4-2.6-1.5-3.9-4.2-4.2c-2.2-0.2-4.6-0.1-5.7-2.7c-0.2-0.4-0.6-0.3-1.1-0.3
		c-3.5,0.2-5.5-1.7-5.5-5.2c0-1.7,0.4-3.3,0.6-5c0.1-0.6,0.2-1.3,0.7-1.5c2.1-0.8,2.2-2.7,2.8-4.4c1.1-3.1,4.4-3.6,6.6-1.1
		c2.4,2.8,2.4,2.9,5.9,1.6c2.4-0.9,4.8-1,7.3-1.3s2.8-0.7,1.6-2.9c-0.3-0.6-0.7-1.3-0.5-1.8c1.2-2.7,2-5.5,3.2-8.1
		c0.7-1.5,2.6-2.1,4.4-1.8c1.3,0.3,2.2,0.2,2.8-1c0.4-0.6,0.9-1.2,1.7-0.8c0.7,0.3,0.9,0.9,0.7,1.6c-0.4,1,0.2,1.7,0.6,2.4
		c-0.8,3.9,0.1,7.8-0.8,11.7c-0.8,2.2,0,4.5-0.4,6.3c0.2-1.7-0.1-3.9,0.1-6c0.7-1,0.6-2.1,0.7-3.2c0.1-2.5-0.3-5.1,0.4-7.6
		c0.2-0.7,0.1-1.4-0.5-2c-0.5-0.7-0.1-1.4,0-2.1c0.5-4.2,0.8-8.4-0.1-12.6c-0.3-1.3,0.2-2.6,0.2-4c-0.2-4-1.4-7.8-1.1-11.8
		c0.1-1.1-0.2-2.2,0.4-3.3C64.3,70.3,64.6,70.2,64.9,70.3z"/>
	<path class="st2" d="M6.8,263.1c0,0.6,0.3,1.1,0.7,1.5c0.3,0.3,0.4,0.8,0.2,1.1c-1.2,2.3-0.9,4.9-1.4,7.4c-0.4,2.4-0.1,4.9-0.8,7.3
		c-0.4,1.4,0.3,2.8-0.1,4.2c-0.8,2.6-0.3,5.4-0.6,8.1c-0.3,2.6-0.1,5.2-0.8,7.8c-0.1,0.3-0.1,0.6-0.1,1c0,0.2,0,0.3,0,0.5
		c0.3,11.7-0.7,23.3-0.4,34.9c0.1,6.4,0.8,12.9,0.3,19.3c-0.2,3.8-0.1,7.6-0.8,11.4c-0.4,2.3-0.4,4.6-0.5,6.9
		c-0.1,5.1-0.4,10.2-0.7,15.3c-0.5,7.8,0.1,15.6-0.5,23.4c-0.3,4.9-0.1,9.7-0.4,14.6c-0.3,4.3-0.5,8.7-0.4,13
		c0.8,1.1,0.3,2.5,0.6,3.7c0,0.4,0,0.8,0,1.3c0.1,2.1-0.3,4.2,0.3,6.3c0.3,2.9,0.1,5.8,0.2,8.6c0,0.7,0.2,1.4,0.3,2.1
		c0.3,4.8,0.1,9.6,0.1,14.4c0,0.4,0,0.8,0,1.3c0,0.4,0,0.8,0,1.2c0.1,0.6,0.3,1.1,0.4,1.6c0.4,6.5,1.1,13.1,0.5,19.6
		c-0.6,6.2-0.5,12.5-0.3,18.7c0.2,5.7,1,11.4,0.9,17.2c0,0.5,0,1.1,0,1.6s0,1,0,1.5c0,0.3,0,0.7,0,1c0,0.6,0.1,1.1,0.2,1.7
		c0,0.4,0,0.7-0.2,1c-0.2,0.1-0.4,0.1-0.6,0c-0.6-0.8-0.4-1.7-0.4-2.5c0.1-5.3-0.3-10.5-0.6-15.8c-0.3-4.7-1-9.4-0.8-14.1
		c0.1-3.6,0.4-7.2,0.6-10.7c0.1-1.7-0.1-3.5-0.1-5.2c0-2.2,0-4.5-0.1-6.7c-0.1-4.9-0.5-9.7-0.8-14.6c-0.2-3.2,0-6.4-0.1-9.6
		c-0.5-11.3-0.8-22.7-0.4-34c0.3-9.4,0.3-18.8,0.5-28.3c0.2-7.2,0.5-14.3,1-21.5c0.4-5.6,0.5-11.3,1.2-16.9c0.4-4,0.3-8.1,0.2-12.2
		C3,344.3,3,337.1,3,329.9c0-3.4-0.1-6.9,0.1-10.3c0.3-6.8,0.2-13.7,0.5-20.5c0.2-4.8,0.6-9.7,0.9-14.5c0.3-5.5,1-10.9,1.5-16.4
		c0-0.5,0.1-1,0.3-1.4c0.6-0.9,0.7-1.8,0.1-2.8C6.3,263.7,6.5,263.4,6.8,263.1z"/>
	<path class="st3" d="M2.9,543.5c0.2,0,0.4,0,0.5,0c0.8,0.7,0.6,1.7,0.6,2.6c0,0.6,0,1.2,0,1.8c0,0.2,0,0.5,0.1,0.7
		c0.1,0.3,0.2,0.7,0.3,1.1c0.3,1.7,0.1,3.4,0.1,5.2c0,0.2,0,0.5,0,0.7c0,0.4,0.1,0.7,0.2,1c0.1,0.2,0.1,0.5,0.1,0.7
		c0.1,1.1,0.1,2.2,0.4,3.3c0.2,1.6,0.2,3.2,0,4.8c-0.4,1-0.3,2.1-0.3,3.1c0,1.1,0,2.1,0,3.2c0,0.8,0,1.6,0,2.3c0,0.6,0,1.3-0.2,1.9
		c-0.4,1.1-0.4,2.3-0.2,3.5c0,0.3,0,0.5,0,0.8c-0.1,0.4-0.1,0.8-0.1,1.2c-0.1,6.4,0.2,12.9-0.1,19.3c-0.5,1.3-0.4,2.8-0.4,4.1
		c0,0.7,0,1.4,0,2.1c0,1.5,0.1,3.1-0.2,4.6c-0.6,1.8-0.2,3.6-0.3,5.4c0,2.4,0,4.9,0,7.3c0,1.4,0,2.7,0,4.1c0,0.3,0,0.5,0,0.8
		c0,0.5,0,1,0,1.6c0,0.5,0,1,0,1.5c0,1,0,2.1,0.3,3.1c0.3,1.8,0.2,3.6,0.2,5.3c0,1,0.1,2,0.4,2.9c0.3,5.4,0,10.9,0.3,16.3
		c0.1,0.4,0.1,0.9,0.2,1.3c0.3,2.5,0.1,5.1,0.2,7.6c-0.1,0.8,0,1.6,0.3,2.4c0.3,1.8,0.2,3.6,0.2,5.4c0,0.6,0,1.1,0,1.7
		c0,0.6,0,1.2,0,1.7c0.1,5.8-0.7,11.5-0.4,17.2c0.3,7.8,1.1,15.6,1.3,23.4c0.1,4.6,0.7,9.1,0.6,13.6c0,0.9,0,1.8-0.4,2.6
		c-0.2,0.3-0.4,0.4-0.8,0.4c-0.1-4.6-0.5-9.2-0.9-13.8c-0.1-1.6-0.1-3.2-0.1-4.8c0-4.6-0.5-9.2-0.9-13.8c-0.3-4.2-0.1-8.5-0.2-12.7
		c-0.1-4.3,0.7-8.6,0.5-12.9c-0.3-6.2-0.6-12.4-0.9-18.6c-0.1-2.1-0.1-4.2-0.1-6.2c0.2-5.7-0.3-11.3-0.6-17
		c-0.5-8.2-0.4-16.5-0.2-24.7c0.1-4.5,0-8.9,0.4-13.4c0.6-6.9,0-13.7,0.5-20.6c0.4-5,0-10.1,0.8-15c0.3-1.8-0.2-3.7-0.5-5.5
		C3,553.4,2.9,548.5,2.9,543.5z"/>
	<path class="st4" d="M19.7,201.3c-0.1,0.2-0.3,0.3-0.4,0.5c-0.4,0.4-0.3,1.4-1.2,1.1c-0.8-0.2-1.1-0.9-1-1.7
		c0.2-1.2,0.4-2.4,1.2-3.3c0.4-0.1,0.8-0.1,0.9-0.6c0-0.5-0.3-0.7-0.7-0.8c-0.5-0.1-1,0.1-1.4-0.4c0.4-1.9,0.8-3.8,1.3-5.7
		c0.3-1.3,1.2-2.3,2.2-3c0.9-0.7,1.6-1.5,2.4-2.3c1.1-1.1,1.5-1.8,0-2.7c-0.4-0.2-0.4-0.8,0.1-1c1.3-0.5,1.1-1.6,1.1-2.6
		c0-6.4,0-12.8,0-19.1c0-0.9-0.3-1.8,0.4-2.5c0.1,0.1,0.2,0.2,0.3,0.3c0.6,1,0.4,2.2,0.4,3.3c0,7,0,14,0,21c0,1.6,0.7,3.1,0.1,4.7
		c-0.5,1.2-1.7,1.6-2.5,2.5c-0.1,0.1-0.8-0.1-0.3,0.4c0.1,0.5,0,1-0.6,1.2c-0.2,0-0.5-0.2-0.7,0c0.2,0.1,0.5,0.1,0.7,0.3
		c0.1,0.2,0.2,0.4,0.3,0.6c0.1,0.8,0.1,1.5-0.4,2.1c-0.1,0.1-0.7,0-0.3,0.4c0,0.3-0.1,0.5-0.3,0.7c0,0.4-1-0.2-0.5,0.6
		c0.6,0.8,0.3,1.6,0,2.5c-0.1,0.2-0.1,0.4-0.2,0.6C20.3,199.4,20.2,200.4,19.7,201.3z"/>
	<path class="st4" d="M24.5,157.1c0-4.9,0.2-9.7,0-14.6c-0.2-4.6,0.4-9.2,0.6-13.8c0.2-4.3,0.5-8.6,1-12.8c0.4-3.7,0.6-7.4,1.4-11.1
		c0.5-2.4,0.2-5,0.5-7.5c0.7-4.6,0.4-9.3,1.3-13.9c0.3-1.5-0.2-3.2,1.1-4.5c0.5,0.5,0.4,1.2,0.4,1.8c0,0.3-0.1,0.5-0.2,0.8
		c0.3,4.4-0.9,8.7-1,13c-0.1,2.5-0.1,5.2-0.5,7.8c-0.7,6.4-1.5,12.7-2,19.1c-0.4,4.3-0.5,8.6-0.7,12.9c-0.4,6.9-0.7,13.8-0.6,20.8
		c0,0.6,0,1.3-0.3,1.9c-0.2,0.3-0.4,0.4-0.7,0.3L24.5,157.1z"/>
	<path class="st5" d="M54.3,23.7c0.7,0.6,1-0.2,1.4-0.5c0.3,0.2,0.5,0.5,0.6,0.8c0.4,0.8,0.8,1.6,0.3,2.5c-0.1,0.2-0.2,0.4-0.4,0.5
		c-1.6,2.1-0.3,4.3-0.4,6.5c0,0.4,0.1,0.7,0.1,1.1c-0.4,1,0.7,3.4-2,2.4c-1.8-2-1.1-4.3-0.7-6.6c-1.1,0.1-0.3,2.7-2.1,1.6
		c-1.2-0.7-3.2-1-1.9-3.2c0.3-0.7,1.1-0.1,1.5-0.5c0.5-1.9,0.1-3.6-1-5.1c0-0.2,0.1-0.4,0.2-0.6c0.2-0.1,0.5-0.2,0.7-0.2
		c0.1-0.1,0.2-0.2,0.1-0.4c-0.1-0.1-0.1-0.3-0.2-0.4c-0.1-0.1-0.2-0.2-0.3-0.3s-0.2-0.2-0.3-0.4s-0.2-0.3-0.2-0.5
		c-0.1-0.3-0.1-0.6,0-0.8c0-0.2,0.1-0.4,0.2-0.5c0.3-0.3,0.4-1,1.1-0.7c0.5,0.2,0.9,0.7,1.3,1.1c0.7,0.7,0.7,0.7,1.6-0.5
		c1.6,1.4,0.6,2.8,0.1,4.2c-0.2,0.2-0.6,0.5-0.4,0.7C53.8,24.4,54,23.8,54.3,23.7z"/>
	<path class="st6" d="M44.3,354.9v0.2v0.2c-0.1,0.2-0.3,0.2-0.5,0.1c-0.8-0.3-0.5,0.5-0.7,0.8c-0.4,0.7,0.1,2.1-1.5,1.8
		c-0.9-1.9,0.3-3.7,0.2-5.5c2.4-2.5,2.4-5.9,3.1-9.1c0.6-2.7,0.9-5.5,1.2-8.2c0.1-0.6,0.4-1.2,0.5-1.8c0.1-0.2,0.1-0.5,0.2-0.7
		c0.8-2.6,0.8-5.3,1.2-8c1-4.6,1.3-9.3,1.7-14c0.8-8.7,1-17.4,1.9-26c0.1-0.6,0.1-1.1,0.4-1.6c0.2-0.3,0.4-0.4,0.7-0.2
		c0.2,4.3-0.5,8.6-0.8,12.9c-0.2,2.8-0.5,5.6-0.6,8.3c-0.2,7.2-0.9,14.3-2.3,21.3c-0.3,1.4-0.2,2.8-0.5,4.3c-1,4.8-1.8,9.7-2.6,14.5
		c-0.4,2.6-0.9,5.2-1.6,7.7c-0.2,0.9-0.2,1.7,0.1,2.5C44.5,354.6,44.4,354.8,44.3,354.9z"/>
	<path class="st6" d="M59.1,197.5c0.2,0,0.3,0,0.5,0c0.2,6.6-0.7,13.2-0.7,19.8c0,4-0.5,7.9-0.8,11.9c-0.2,2.1-0.5,4.3-0.8,6.4
		c-0.8,6.1-1.8,12.1-2.2,18.2c-0.4,5.5-0.7,11.1-1.2,16.6c-0.3,3.2-0.7,6.5-0.6,9.8c0,0.8,0.2,1.6-0.5,2.3c-1.3-2-0.8-4.3-0.5-6.4
		c0.2-2.4,0.3-4.9,0.4-7.3c0-0.3,0.1-0.6,0.2-0.8c0.6-2.1,0.1-4.3,0.3-6.5c0-0.3,0.1-0.5,0.1-0.8c0.5-2.8,0.4-5.7,0.7-8.5
		c0.3-2.4,0.2-4.9,0.6-7.3c0-0.3,0.1-0.5,0.1-0.8c0.7-3.5,1-7,1.4-10.5c0.4-2.9,0.6-5.8,1-8.8c0.3-4.7,0.8-9.4,0.8-14
		c0-4.3,0.3-8.6,0.9-12.8C58.9,197.7,59,197.6,59.1,197.5z"/>
	<path class="st7" d="M21.7,742.2c0,0.2,0,0.3,0,0.5c-0.3,0.3-0.7,0.2-1,0.5l0,0c-0.1,0.2-0.2,0.3-0.3,0.5c-0.1,0.1-0.2,0.1-0.3,0.2
		c-1.1,0.9-0.8,2.3-1.3,3.5c-0.1,0.2-0.2,0.4-0.3,0.6c-0.1,0.1-0.3,0.2-0.5,0.3c-0.4,0-0.8,0-1.2-0.1c-0.1-0.1-0.1-0.2-0.2-0.3
		c-0.1-0.2-0.1-0.4-0.1-0.6c0.1-0.6,0.3-1.3,0.5-1.9c0.4-1.4,1-2.7,2.3-3.5c0.9-0.5,1-1.5,1-2.3c0-4,1.2-7.8,1.3-11.7
		c0.1-0.5,0.3-0.9,0.9-1.1c0.2,0,0.5,0,0.7,0.1c0.8,1.8-0.4,3.6,0.2,5.4c0.5-0.2,0.4-1.3,1.3-0.9c0.8,1,0.3,2.1,0.2,3.2
		c0,1.1-0.7,2.3,0.2,3.4c0,1.8-0.4,3.4-1.4,4.8C22.8,743.3,22.5,741.5,21.7,742.2z"/>
	<path class="st8" d="M25,737.9c-0.3,0.1-0.9,0.4-0.9-0.2c-0.1-1.1-0.2-2.2,0.1-3.3s0.3-2.2,0.3-3.2c0-0.1,0-0.2-0.1-0.3
		c-0.2-0.4-0.3-0.9-0.2-1.4c0-0.2,0.1-0.4,0.2-0.5c0.2-0.5-0.1-0.8-0.3-1.2c0-0.1-0.1-0.2-0.1-0.2c0-0.1-0.1-0.2-0.1-0.3
		s0-0.2,0-0.3c0-0.2,0.1-0.3,0.1-0.4l0.1-0.2c0-0.1,0-0.2-0.1-0.2s-0.2,0.1-0.3,0.2c-0.1,0.1-0.2,0.2-0.2,0.3
		c-0.1,0.1-0.2,0.2-0.3,0.2c-0.2,0-0.4,0-0.5,0c-0.6-0.7-0.3-1.4,0.2-1.9c0.9-0.8,1.2-2.1,1.9-2.9c1.7-1.8,1.9-4,2.5-6.2
		c0.1-0.5,0.3-1.1,0.8-1.4c1.4-2.2,0.8-4.7,1.4-7.1c0.4-1.5,0.2-3.1,1-4.5c0,4-0.5,8-1.6,11.9c-0.7,2.6-0.9,5.4-1.3,8.2
		c-0.1,0.7,0.2,1.5-0.5,2c-0.1-0.1-0.2-0.2-0.3-0.2c-0.1,0.3,0.3,0.1,0.3,0.2c-0.4,2.7-0.7,5.4-1.2,8.1
		C25.4,734.7,25.7,736.4,25,737.9z"/>
	<path class="st9" d="M64.9,70.3c-0.2,0-0.3,0-0.5,0c-0.1-0.1-0.2-0.2-0.3-0.2c-0.5-0.9-0.1-2.1-0.8-3c-0.4-0.6-1-1.3-0.8-2
		c1-3.6-0.5-7-0.7-10.5c-0.1-2.1-1.5-3.8-1.4-6c0.1-1.5-0.2-3-0.1-4.5c0.1-1.9-0.3-3.7-1.4-5.2c-0.1-0.1-0.2-0.3-0.3-0.3
		c0,0.2,0,0.3,0,0.5c0,0.5-0.1,1-0.4,1.4c-0.7,0.3-1-0.3-1.3-0.6c-0.2-0.4-0.4-0.8-0.4-1.2c0.1-0.4,0.4-0.7,0.5-1.2
		c0.1-0.6,0-1.3,0-2c0-1-0.1-1.9,0.2-2.8c0.1-0.2,0.3-0.4,0.5-0.5c0.5,0,0.6,0.3,0.8,0.6c0.2,0.9,0.5,1.8,0.5,2.8
		c0,0.7,0.1,1.6,0.6,2c1.9,2.1,1.8,4.8,2.1,7.2c0.2,1.8,0.3,3.8,0.5,5.6c0.1,1.6,0.6,3.2,0.9,4.9c0.2,1.2,1,2.4,0.4,3.7
		c-0.1,0.2,0.1,0.6,0.3,0.9c0.9,1.4,0.6,2.7,0,4.1c-0.2,0.5-0.6,1.1-0.1,1.5C65.4,66.9,64.8,68.6,64.9,70.3z"/>
	<path class="st10" d="M5.8,737.4c0.2,0,0.3,0,0.5,0c0.1,0.1,0.2,0.2,0.3,0.2c0.7,2.3,0.9,4.6,1,7c0-0.4,0-0.8,0-1.2
		c0.1-0.9-0.3-2.5,1-2.5c1,0,1.1,1.6,1.2,2.6c0.2,1.2-0.2,2.4,0.5,3.5c1.2,0.4,2.6,0.6,3.4,1.9c0.1,0.3,0.1,0.7,0,1
		c-0.2,0.2-0.4,0.2-0.6,0.3c-0.6,0-1.2-0.4-2.2-0.8c0.7,0.9,1.1,1.5,1.3,2.2c0.1,0.6,0.1,1.2-0.1,1.8c-0.4,0.5-0.7,1-1.4,1.1
		c-0.2-0.1-0.3-0.2-0.4-0.4c-0.1-0.4-0.1-0.8-0.2-1.1c0,0.4,0.1,0.9-0.2,1.3c-0.1,0.1-0.2,0.1-0.2,0.2c-0.7-1.7-1.3-3.3-1-5.2
		c0.1-0.8-0.2-1.2-0.8-1.5c-1-0.5-1.5-1.4-1.4-2.3C6.5,742.6,5.5,740.1,5.8,737.4z"/>
	<path class="st11" d="M50.5,22.7c-0.2,0-0.3,0-0.5,0c-0.5,0.6-0.1,1,0.3,1.3c1.8,1.6,0.2,1.5-0.9,1.6c-0.5-0.5-0.7-1.1-0.8-1.7
		c-0.1-0.3-0.1-0.6-0.1-0.8c-0.1-0.4-0.5-0.4-0.8-0.3c-0.2,0-0.4,0-0.6-0.1c-0.1-0.2-0.2-0.4-0.3-0.6c0.5-1.7,0.3-3.2,0-5
		c-0.4-1.6,0.7-3.7,1.5-5.4c0.1-0.3,0.6-0.5,0.3-1c0-0.2,0-0.3,0-0.5c-0.2-0.8,0-1.5,0.9-1.4c0.7,0.1,1.3,0.8,1.3,1.5
		c0.1,3,0.7,6.1-0.8,9c0,0.2,0,0.3,0,0.5c-0.3,0.3-0.3,0.6,0,1l0,0c0.2,0.2,0.3,0.3,0.5,0.5l0,0c0.4,0.2,0.7,0.6,1,1
		c0,0.2,0,0.3,0,0.5C51.1,23,50.8,23,50.5,22.7z"/>
	<path class="st12" d="M36.1,48.7c0.1-0.8-0.3-1.7,0.5-2.4c1.9,0.9,0.8-1,1.3-1.4c0-0.4,0-0.8-0.3-1.1c-0.2-0.1-0.3-0.2-0.4-0.4
		c0.5-2.1,1.2-4.1,1.4-6.2c0.1-0.1,0.2-0.1,0.2-0.2c0.2,0,0.4,0.1,0.6,0.2c0.4,0.3,0.9,0.5,1.2,0.9c0.2,0.6,0.9,0.8,1.1,1.4
		c0.1,1.3-0.2,2.6-0.8,3.8c-0.5,2.3-1.5,4.6-1.4,7c-0.1,0.4-0.2,0.7-0.5,0.9c-0.4,0.3-0.8,0.4-1.3,0.5c-0.2,0-0.4,0-0.6-0.1
		C36.1,50.8,37.3,49.3,36.1,48.7z"/>
	<path class="st13" d="M14.5,208c0.1,2.2-1,4.1-1.2,6.4c0.8-0.4,1.6-0.7,2.3-1.1c0.4-0.2,0.4-1,1.1-0.5c0.5,0.4,0.7,0.8,0.7,1.4
		c-0.2,2-0.7,2.5-2.7,2.4c-0.5,0-0.9-0.1-1.4-0.1c-0.1,1.4,1.2,1.2,1.8,1.6c1.7,1.1,1.7,1,0.8,2.9c-0.1,0.3-0.2,0.6-0.3,0.9
		c-0.4,0.5-0.8,0.8-1.5,0.4c-0.8,0.2,0.7-2.7-1.3-1c-0.2,0.1-0.4,0.1-0.6,0c0-1.3-0.4-2.7,2.1-2.6c-3-1.4-1.5-3.6-1.4-5.3
		c0.2-1.9,0.8-3.7,1.2-5.5c0.1-0.2,0.2-0.2,0.3-0.2C14.4,207.9,14.5,207.9,14.5,208z"/>
	<path class="st14" d="M48.5,10.7c0.1,0.2,0.4,0.5,0.3,0.6c-0.7,1-0.9,2.1-0.8,3.4c0,0.3,0,0.8-0.2,0.9c-1.5,0.6-0.6,1.5-0.3,2.3
		c0.5,1.3,0.9,2.5-0.3,3.7C47,21.8,47,22.3,47,22.7c0,0.1-0.1,0.2-0.1,0.3c-0.9,0.5-1.8,1-2.9,0.6c-0.1-0.3-0.1-0.6,0.2-0.9l0,0
		c0.3-0.3,0.2-0.7,0.5-1c0.7-1.4,1.7-2.7,1-4.4C46.9,15.3,46,12.3,48.5,10.7z"/>
	<path class="st15" d="M58.1,32.4c-0.1,0-0.3,0-0.4,0c-0.4,0.3-0.2,1-0.9,1.1c-0.5,0-1,0-1.5-0.2c-0.2-1.6-0.3-3.2-0.5-4.9
		c-0.1-1.1,0.6-1.5,1.4-1.9c0.4-0.9,0.2-1.7-0.5-2.4c0.6-1,1.3-1,1.9,0c0.5,2.7,1.3,5.4,0.9,8.2C58.4,32.4,58.3,32.5,58.1,32.4
		C58.2,32.4,58.1,32.4,58.1,32.4z"/>
	<path class="st16" d="M33.5,59c-0.2-2.1,0.6-4,1.1-6c0.2-0.2,0.4-0.2,0.6,0c0.6,0.9,0.1,1.8-0.2,2.7c-0.3,0.8-0.4,1.6-0.1,2.4
		c0.2,0.5,0.4,1,0.3,1.5c-0.1,0.2-0.3,0.4-0.2,0.7c0.3,0.2,0.6,0.4,1,0.6c0.7,0.4,1.4,0.7,1.4,1.7c-0.6,1.3-0.1,3-1.3,4.1
		c-0.7,0.6-1.5,1.2-2.5,1.1c-0.5-0.1-0.9-0.3-1.2-0.6c-0.1-0.1-0.1-0.2-0.2-0.3c0.5-0.9,1.5-0.1,2-0.7c0.1-0.6-0.6-0.7-0.6-1.2
		c0.3-0.3,0.8-0.5,0.8-1.1c-0.7,0.1-0.3,0.9-0.8,1.1c-1.6-1.9-1.3-2.5,1.3-3.2C33.9,61.1,32.5,60.6,33.5,59L33.5,59z"/>
	<path class="st17" d="M14,233.9c0,1,0.9,0.9,1.5,1.1c0.3,0.2,0.4,0.5,0.3,0.8c-0.1,0.3-0.4,0.4-0.6,0.2c-1.1-0.9-1.9-0.2-2.3,0.6
		c-0.8,1.7-2,1.5-3.3,1c-0.1-1.3-0.6-2.6,0.7-3.6c0.1-0.1-0.1-0.4-0.2-0.6c-0.4-1-0.3-1.9,0-2.9l0,0c0.1-0.1,0.2-0.2,0.3-0.1
		s0.2,0.1,0.2,0.1c0,0.4,0,0.8,0,1.2c0,0.5-0.2,1.2,0.4,1.5c0.8,0.5,1-0.6,1.5-0.7C13,233.1,13.6,233.4,14,233.9z"/>
	<path class="st18" d="M43.7,376c-0.4-0.2-0.5-0.9-1.1-0.7c-0.5,0.2-0.4,0.6-0.4,1c0,1.3,0,2.6,0,4c-0.9,1.3-1.4,0.1-2.1-0.4
		c-0.1-0.2-0.1-0.4-0.1-0.6c0.4-1.1,0.5-2.2,0-3.3c0-0.2,0-0.4,0-0.7c0.1-2,0.5-3.9,1.7-5.6c0.6,0,1.3,0.3,1.2,0.8
		C43,372.4,44,374.1,43.7,376z"/>
	<path class="st5" d="M44.2,22.7c0,0.3,0,0.6,0,1c1.3,0.8,0.6,1.8,0.4,2.8c-0.2,0.7-1,1-1.1,2c1,0.1,3-0.9,2.5,1.6
		c-0.1,0.3-0.3,0.5-0.6,0.6c-0.2,0-0.4,0-0.6,0c-0.3,0-0.5,0-0.8,0.1c-0.1,0.1-0.3,0.2-0.4,0.3c-0.1,0.1-0.3,0.3-0.4,0.4
		c-0.9,0.6-1.3,2-2.8,1.8c-0.2-1-0.7-2,0.7-2.6c0.6-0.2,0.4-0.7,0.2-1.2c-0.6-1-0.1-2.2,0.6-2.5c1.7-0.8,1.8-2.2,2-3.7
		C43.8,23.1,44.1,22.9,44.2,22.7z"/>
	<path class="st4" d="M14.5,208c-0.2,0-0.3,0-0.5,0c0-0.3-0.1-0.7,0.1-0.9c1-1.5,1.5-3,1.4-4.8c0-0.2,0.3-0.4,0.4-0.5
		c0.8,0.5,1.5,1.1,2.4,1.2c0.7,0.1,0.8,0.6,0.5,1.2c0,0.6,0,1.3-0.1,1.9c-0.3,1.1-1.7,1.8-2.6,1.1C14.8,206.2,14.7,207.2,14.5,208z"
		/>
	<path class="st14" d="M50,19.4c0.6-1.8-0.1-3.6,0.6-5.5c0.4-1.1-0.5-2.6-0.4-4c0-0.3-0.5-0.8-0.8-0.7c-0.5,0.1-0.6,0.7-0.8,1.1
		c-0.4-0.1-1,0.1-1.2-0.4C47.3,9.4,47.7,9.2,48,9c0.7-0.4,1.5-0.9,2.2-0.3c0.7,0.6,1.6,1.3,1.1,2.4c-0.3,0.8,0,1.4,0.4,2
		s0.7,1.1,0.1,1.6c-0.1,0.1-0.1,0.2-0.1,0.2c1.2,1.5-0.4,2.4-0.7,3.6C50.6,18.7,50.3,19.1,50,19.4z"/>
	<path class="st19" d="M40.4,33.3c1-0.8,1.9-1.6,2.9-2.4c0.2-0.2,0.3-0.3,0.5-0.5l0,0c0.3-0.3,0.6-0.3,1,0l0,0
		c0.2,0.3,0.5,0.6,0.7,0.8s0.4,0.5,0.5,0.8c0.1,0.3,0,0.6-0.2,0.9c-0.6-0.2-1,0-1.1,0.7c-1.3,0.4-1.6,1.6-1.9,2.7
		c-0.2,0.3-0.4,0.5-0.7,0.7c-2.7,0.6-1.8-1.5-2.1-2.7C40.1,33.9,40.2,33.6,40.4,33.3z"/>
	<path class="st20" d="M30.3,80.8c0-0.6,0.1-1.2,0.1-1.9c0.7-0.5,0.2-1.3,0.4-2c0.5-0.6,1-1.1,1.2-1.9c0.5-1.2,1.4-1.8,2.6-1.3
		c1,0.4,1.2,1.3,0.6,2.1c-0.5,0.7,0,0.3,0.2,0.3c0.7-0.1,1.3,0.2,1.3,1c0.1,0.8-0.5,1.1-1.2,1.1c-0.7,0.1-1.3,0.5-2,0.7
		c-0.2,0.1-0.4-0.2-0.6-0.2c0.1,0.1,0.2,0.1,0.3,0.3C32.8,80.5,31.4,80.3,30.3,80.8z"/>
	<path class="st7" d="M21.2,744.6c0,0.6,0,1.3,0,1.9c-0.3,0.2-0.2,0.6-0.2,0.9c-0.1,0.5,0.2,1.1-0.2,1.5c0,0.2,0,0.3,0,0.5
		c-0.4,0.4-0.2,0.9-0.2,1.4c0,0.2-0.1,0.4-0.2,0.5c0,0.2,0,0.3,0,0.5c-0.2,0.1-0.3,0.3-0.5,0.5c0,0.3,0,0.6,0,1
		c-0.2,0.1-0.3,0.3-0.5,0.5l0,0c-0.3,0.3-0.2,0.7-0.5,1l0,0c-1,0.4-1.4,0.1-1-1l0,0c0.3-0.3,0.2-0.7,0.5-1c0-0.3,0-0.6,0-1
		c0.3-0.2,0.2-0.7,0.5-1c0-0.2,0-0.3,0-0.5c0.2-0.2,0.3-0.4,0.2-0.7s-0.2-0.5-0.4-0.7c-0.2-0.3-0.6-0.5-0.4-1l0,0
		c1.5-1.1,1.2-2.9,1.9-4.3l0,0c0.1-0.1,0.2-0.1,0.3-0.1s0.1,0.1,0.1,0.1l0,0c0.1,0.2,0.3,0.3,0.5,0.5l0,0
		C21.3,744.3,21.3,744.5,21.2,744.6z"/>
	<path class="st14" d="M49.2,5.7c0.6-1.6,0.2-3.3,0.3-4.8c0-0.4,0.2-0.9,0.7-0.9c0.4,0,0.6,0.4,0.7,0.8c0.2,1.1-0.4,2.4,1.2,3
		c0.2,0.1,0,0.6-0.2,0.8C51.5,5,51,5.3,51,5.9c0,0.6-0.2,1.2-0.9,1.1C49.3,7,49.2,6.3,49.2,5.7z"/>
	<path class="st21" d="M57.7,24.2c-0.6-0.4-1.3-0.4-1.9,0c0-0.3,0-0.6,0-1c0.4-1.4,0.8-2.7-0.1-4.1c-0.3-0.4-0.4-0.9,0.1-1.3
		c0.4-0.4,0.8-0.4,1.3-0.3c0.6,0.2,0.7,0.7,0.6,1.1c-0.2,1.4,1.1,2.8-0.3,4.2C57.2,23,57.5,23.7,57.7,24.2z"/>
	<path class="st22" d="M10.6,230.6c-0.2,0-0.3,0-0.5,0c-0.1-2.1,0.2-4.2,1-6.2c0.1-0.1,0.2-0.2,0.3-0.1c0.1,0.1,0.2,0.1,0.2,0.2
		c0.4,1.1,1.2,1.8,2.4,1.6c0.6-0.1,0.9,0.1,0.9,0.7c0,0.5-0.2,0.9-0.8,1c-0.4,0-0.8,0-1.2-0.1c-1.8-0.3-2-0.2-2.3,1.6
		C10.6,229.6,10.6,230.1,10.6,230.6z"/>
	<path class="st23" d="M41.8,369.8c0.1,0.3,0.4,0.8,0.3,0.9c-1.4,1.3-1.1,3.2-1.6,4.8c0,0.1-0.1,0.1-0.2,0.2
		c-0.6-0.4-0.7-1.1-0.6-1.7c0.4-3.5,0.4-7.1,1.1-10.5c0.8-0.7,1.5-0.3,1.4,0.5c-0.1,0.9,0.5,1.8,0.1,2.7
		C42.5,367.6,42.1,368.7,41.8,369.8z"/>
	<path class="st24" d="M18.8,204.2c-0.1-0.8-0.6-1-1.3-1c-0.9,0-1.5-0.5-1.5-1.4c0.9-1.1,0.1-2.7,0.9-3.9c0.3-0.2,0.4-0.8,1-0.5l0,0
		c0.2,0.2,0.3,0.3,0.5,0.5l0,0c0.2,1-0.3,2-0.6,2.9c-0.2,0.6-0.5,1.2,0.2,1.6c0.7,0.4,0.8-0.6,1.3-0.7
		C19.2,202.6,19.6,203.5,18.8,204.2z"/>
	<path class="st25" d="M43.8,355.4c0.1,0,0.3,0,0.4,0c-0.6,1.9-1.2,3.9-1,6c0.1,0.5-0.1,0.9-0.5,1.3c-0.2-0.1-0.3-0.2-0.3-0.4
		c-0.1-0.3-0.1-0.5-0.1-0.8c0.1-0.3,0.2,0,0-0.2c0,0-0.1-0.1-0.2-0.1c-0.1,0-0.2,0-0.2,0.1c-0.2-0.1-0.3-0.2-0.4-0.3
		c-0.3-0.7-0.3-1.4-0.1-2.1c0.1-0.2,0.2-0.4,0.4-0.5c0.9-0.6,0-1.8,1-2.4C43.1,355.5,43.4,355.3,43.8,355.4z"/>
	<path class="st26" d="M10.6,754.2c0.5-0.3,0.7-1,1.4-1c0.1,0,0.2,0,0.3,0c0.3-0.1,0.5-0.1,0.8-0.2c0.2-0.1,0.3-0.2,0.5-0.3
		c0.1-0.1,0.3-0.2,0.4-0.3c0.3-0.2,0.5-0.5,0.7-0.8c0.1-0.2,0.2-0.3,0.4-0.5c1.2-0.7,0-2.7,1.8-3.1l0,0c0.7,0.8,0.6,1.6,0,2.4
		c-0.4,1.8-2,2.6-3,3.9c-1.3-0.4-2.4,1.2-3.8,0.4C10.2,754.4,10.4,754.3,10.6,754.2z"/>
	<path class="st27" d="M39.9,34.3c0.5,0.1,1.5-0.3,1.1,0.8c-0.6,1.4-0.7,1.3,0.9,1.6c0.7,1,0.6,1.8-0.5,2.4
		c-0.4,0.1-0.8,0.5-1.1,0.3c-0.5-0.4,0.1-0.9,0.1-1.3c-0.4-0.4-0.9-0.6-1.3-0.8L39,37.2c-0.1-0.2-0.1-0.3,0-0.5c0-0.1,0-0.3,0-0.4
		c0.5-0.4,0.1-1,0.5-1.4l0,0C39.6,34.6,39.8,34.4,39.9,34.3L39.9,34.3z"/>
	<path class="st28" d="M53.4,268c0.3,3.9-0.6,7.7-0.5,11.6c0,0.9,0,1.9,0,2.8c0,0.2,0,0.3,0,0.5c-0.2,0-0.3,0-0.5,0
		c-1.3-2.3-0.6-4.8-0.6-7.2c0-2,0.4-3.9,0.4-5.9C52.3,269,52.2,268.1,53.4,268z"/>
	<path class="st29" d="M22.2,748.3c0.7,2,0.3,3.4-0.3,4.8c-0.1,0.3-0.4,0.5-0.8,0.4c-0.2-0.1-0.4-0.3-0.4-0.5
		C21.2,751.6,20.9,749.9,22.2,748.3z"/>
	<path class="st30" d="M31.2,75.1c-0.7-0.9-0.3-1.9-0.1-2.9s0.4-2,0.6-2.9c1.2-0.9,2.4-0.5,3.6,0.1c0.8,0.8,0,1.3-0.5,1.8
		c-0.7,0.4-1.2-0.1-1.8-0.3c-1.5,1.1-0.4,2.9-1.3,4.2C31.6,75.3,31.4,75.2,31.2,75.1z"/>
	<path class="st6" d="M41.8,358.7c0.1,0.8-0.3,1.8,0.5,2.4c0.2,0.2,0.2,0.6,0.4,0.9c0,0.2,0,0.4,0.1,0.6c-0.2,1.3,0.4,2.7-0.5,3.9
		c-0.1-0.9-1.4-1.5-0.3-2.6c0.2-0.2-0.3-0.6-0.7-0.8C40.5,361.5,39.9,360,41.8,358.7z"/>
	<path class="st31" d="M11.6,224.3c-0.2,0-0.3,0-0.5,0c0.4-1,1.2-0.9,2.2-0.5c-0.3-1-1.3-1.4-1.2-2.3c0.2,0,0.3,0,0.5,0h0.2
		c0.1,0.1,0.3,0.1,0.4,0.2l0.2,0.1c0.1,0.1,0.2,0.2,0.3,0.3l0.1,0.2v0.2l0.2-0.1h0.2c0.5-0.2,0.9-0.5,1.4-0.5l0,0
		c0.5,0.8,0.3,1.4-0.5,1.9c-0.3,0.2-0.6,0.3-0.9,0.5c-0.6,0.3-1.3,0.3-1.9,0C11.9,224.3,11.8,224.3,11.6,224.3z"/>
	<path class="st32" d="M35.1,53c-0.2,0-0.3,0-0.5,0c-0.1-0.9,0.3-1.7,0.8-2.4c0.5-0.6,0.7-1.2,0.7-1.9c1.3-0.5,1.3,0.5,1.2,1.2
		c-0.1,0.6-0.5,1.2,0.2,1.7c0.1,0.5-0.2,0.6-0.6,0.7c-0.2,0-0.3,0-0.5-0.1c-0.3-0.1-0.5,0-0.7,0.2C35.6,52.6,35.3,52.8,35.1,53z"/>
	<path class="st33" d="M35.6,69.8c-1.3,0-2.5-0.7-3.9-0.5c0-0.8-0.2-1.7,0.5-2.4l0.1,0.1c0.2,0.2,0.4,0.4,0.6,0.5
		c0.1,0.1,0.3,0.2,0.4,0.2c0.1,0.1,0.3,0.2,0.4,0.2l0.2,0.1c0.2,0.1,0.5,0,0.7,0s0.4,0,0.6,0c0.3,0.1,0.5,0.3,0.7,0.6
		C36,69,36,69.5,35.6,69.8z"/>
	<path class="st32" d="M38.4,44.8c0.1,0.6-0.5,1.2-0.2,1.9c0.2,0.5,0.1,0.9-0.5,1c-0.5,0.1-1-0.1-1.1-0.7c0-0.2,0-0.5-0.1-0.7
		c0.1-0.5,0-1.1,0.4-1.5c0.1,0,0.2,0,0.3,0C37.6,44.8,38,44.6,38.4,44.8z"/>
	<path class="st29" d="M21.7,746.8c0.1-0.6,0.5-1.3,1.1-1.3s0.7,0.6,0.7,1.1c0,0.7-0.2,1.3-1,1.3C22,747.8,21.8,747.3,21.7,746.8z"
		/>
	<path class="st29" d="M16.9,750.4c0-0.8,0-1.6,0-2.4c0.3-0.1,0.6-0.6,1,0c0.3,0.6,0.9,0.7,1.4,1c0,0.3,0,0.6,0,1
		c-0.1,0.1-0.2,0.1-0.3,0.1s-0.2-0.1-0.2-0.1C18.1,749.7,17.6,750.7,16.9,750.4z"/>
	<path class="st34" d="M54.3,23.7c0,0.2,0,0.3,0,0.5c0,0.8-0.5,1-1.3,0.9c-0.5-0.1-0.6-0.5-0.5-0.9c0.2-0.6,0.3-1.5,1.3-1
		C54,23.4,54.1,23.5,54.3,23.7z"/>
	<path class="st29" d="M21.7,742.2c0-0.4,0.1-0.9,0.4-1c0.6-0.2,0.5,0.4,0.6,0.7c0.2,0.4,0.5,0.6,0.9,0.8c-0.1,0.6-0.3,1.2-0.9,0.4
		C22.3,742.8,22.1,742.4,21.7,742.2z"/>
	<path class="st26" d="M17.8,753.8c0,0.6,0.3,0.9,1,1c-0.1,0.1-0.1,0.3-0.2,0.4c-0.4,0.4-0.8,0.8-1.4,0.3c-0.5-0.4,0-0.8,0.2-1.2
		C17.5,754,17.7,753.9,17.8,753.8z"/>
	<path class="st35" d="M31.2,75.1c0.2,0,0.4,0,0.5,0c0.4-0.1,0.7,0,0.5,0.5c0,1-0.8,1.1-1.5,1.4C30.9,76.3,31.1,75.7,31.2,75.1z"/>
	<path class="st22" d="M10.1,230.5c0,1,0,1.9,0,2.9C9.4,232.5,9.5,231.5,10.1,230.5z"/>
	<path class="st29" d="M20.7,749c0-0.6,0-1.3,0-1.9c0.1-0.1,0.2-0.1,0.3-0.1s0.2,0.1,0.2,0.1C21.1,747.7,21.4,748.4,20.7,749z"/>
	<path class="st4" d="M17.8,197.5c-0.3,0.2-0.6,0.3-1,0.5C17,197.3,17.1,196.7,17.8,197.5z"/>
	<path class="st19" d="M39.4,34.7c0,0.5,0.1,1.1-0.5,1.4C39,35.6,38.9,35.1,39.4,34.7z"/>
	<path class="st26" d="M20.2,750.9c0-0.5-0.1-1.1,0.5-1.4c0,0.5,0,1,0,1.4c-0.1,0.1-0.2,0.1-0.3,0.1
		C20.3,750.9,20.2,750.9,20.2,750.9z"/>
	<path class="st32" d="M37,43.4c0.1,0,0.3,0,0.4,0c0.4,0.6,0.6,1.2-0.4,1.5l-0.1-0.1C37,44.3,37,43.9,37,43.4z"/>
	<path class="st5" d="M44.7,21.8c0,0.4-0.1,0.8-0.5,1C44.2,22.3,44.3,22,44.7,21.8z"/>
	<path class="st10" d="M10.6,754.2c-0.2,0.2-0.3,0.3-0.5,0.5c-0.2-0.2-0.3-0.3-0.5-0.5l0.1-0.1C10,753.9,10.3,753.9,10.6,754.2
		L10.6,754.2z"/>
	<path class="st26" d="M18.8,754.7c0-0.4,0.1-0.8,0.5-1C19.3,754.1,19.2,754.5,18.8,754.7z"/>
	<path class="st26" d="M18.8,750.9c0,0.4-0.1,0.8-0.5,1C18.3,751.4,18.4,751.1,18.8,750.9z"/>
	<path class="st26" d="M18.3,752.8c0,0.4-0.1,0.8-0.5,1C17.8,753.4,17.9,753,18.3,752.8z"/>
	<path class="st29" d="M20.7,743.2c0.2-0.4,0.6-0.5,1-0.5C21.5,743.1,21.1,743.2,20.7,743.2z"/>
	<path class="st26" d="M21.2,747c-0.2,0-0.3,0-0.5,0c0.2-0.2,0.3-0.3,0.5-0.5C21.2,746.7,21.2,746.9,21.2,747z"/>
	<path class="st29" d="M20.7,743.7c-0.2,0-0.3,0-0.5,0c0.2-0.2,0.3-0.3,0.5-0.5C20.7,743.4,20.7,743.5,20.7,743.7z"/>
	<path class="st29" d="M20.2,750.9c0.2,0,0.3,0,0.5,0c-0.2,0.2-0.3,0.3-0.5,0.5C20.2,751.2,20.2,751,20.2,750.9z"/>
	<path class="st4" d="M18.3,197.9c-0.2-0.2-0.3-0.3-0.5-0.5C18,197.6,18.1,197.8,18.3,197.9z"/>
	<path class="st26" d="M19.8,752.3c0.2-0.2,0.3-0.3,0.5-0.5C20.1,752,19.9,752.2,19.8,752.3z"/>
	<path class="st26" d="M19.3,753.8c0.2-0.2,0.3-0.3,0.5-0.5C19.6,753.4,19.4,753.6,19.3,753.8z"/>
	<path class="st26" d="M18.8,749.9c0.2,0,0.3,0,0.5,0c-0.2,0.2-0.3,0.3-0.5,0.5C18.8,750.2,18.8,750.1,18.8,749.9z"/>
	<path class="st29" d="M21.2,744.6c0-0.2,0-0.3,0-0.5C21.5,744.3,21.5,744.5,21.2,744.6z"/>
	<path class="st29" d="M21.2,744.2c-0.2-0.2-0.3-0.3-0.5-0.5C20.9,743.8,21,744,21.2,744.2z"/>
	<path class="st17" d="M9.6,237.7c-0.2,0.2-0.3,0.3-0.5,0.5C9.2,238,9.4,237.8,9.6,237.7z"/>
	<path class="st25" d="M44.3,354.9c0.1-0.2,0.2-0.3,0.3-0.5C44.5,354.6,44.4,354.8,44.3,354.9z"/>
	<path class="st36" d="M58.1,32.4c0.2,0,0.3,0,0.5,0v0.2v0.2C58.5,32.7,58.3,32.5,58.1,32.4z"/>
	<path class="st37" d="M33.5,59L33.5,59L33.5,59z"/>
	<path class="st19" d="M38.9,36.6v0.2V37c-0.1,0-0.3,0-0.4,0C38.6,37,38.8,36.8,38.9,36.6z"/>
	<path class="st19" d="M39.9,34.3c-0.2,0.2-0.3,0.3-0.5,0.5C39.6,34.6,39.7,34.4,39.9,34.3z"/>
	<path class="st38" d="M41.8,358.7c-0.9,1.4-0.3,2.9-0.5,4.3c-0.1,1-1,2.1,0.1,3.1c0.2,0.2,0,0.4,0,0.6c-0.9,2.9-1.1,5.8-1,8.8v0.2
		v0.2c0.5,1.1,0.4,2.3,0,3.4v0.2v0.2c0.3,0.3,0.3,0.7,0,1c-1.2,1.9-1.1,3.8-0.2,5.9c0.4,0.9,0.8,1.9-0.2,2.8l0,0
		c-0.5,0.3-0.6,0.8-0.4,1.3c0.7,2.5,0.4,5,0.1,7.6c-0.4,3.1-1,6.3-0.9,9.4c0.1,3.4-1.3,6.5-0.7,9.9c0.1,0.7-0.3,1.4-0.4,2.1
		c-0.6,4.6-1.1,9.1-1.3,13.8c-0.3,6.2-0.3,12.5-1.5,18.6c-0.4,2.2-0.1,4.4-0.3,6.7c-0.2,2.1-0.6,4.2-0.8,6.3c-0.1,1.3-0.3,2.7-0.4,4
		c-0.2,2.9-0.4,5.9-0.8,8.8c-0.2,1.4-0.1,2.9-0.1,4.3c-0.8,1.5,0.2,3,0.2,4.4c0.1,2.7-0.3,5.4-0.5,8.1c-0.4,5.2-0.4,10.6-2,15.6
		c-0.5,1.5,0.2,3.1-0.6,4.4c-0.6,3.3-2.1,6.3-2.4,9.6c-0.5,1.9-0.6,3.9-1,5.8c-0.2,0.2-0.3,0.3-0.5,0.5c0,0.2,0,0.3,0,0.5
		c-0.5,0.5,0,1.4-0.5,1.9c0,1,0,1.9,0,2.9c-0.6,2.5-1.7,4.8-3.8,6.4c-0.5,0.4-1,0.9-1,1.6c-0.2,3-0.9,6-0.7,9c0.1,1.9-0.7,3.6-1,5.4
		c-0.2,1.3-0.3,2.5,0,3.8c0.4,2.2-0.5,3.2-2.7,2.7c-1.3-0.3-1.3,0.4-1.4,1.3c-0.2,2.1-1.5,3.3-3.3,4.1c-0.7,0.3-1.4,0.5-2-0.2
		c-0.5-0.6-0.2-1.2,0.2-1.8c0.5-0.7,1.1-1.4,0.2-2.3c-0.7-0.7-1.5-0.8-2.4-0.6c-1.3,0.3-1.1,1.4-1.1,2.3c0,2.2,0,4.5,0,6.7
		c0,1.1,0.1,2.4-1.5,2.6c-0.3-0.2-0.3-0.4-0.1-0.6c0-0.6,0-1.3,0-1.9c0.5-0.8,0.1-1.8,0.2-2.6c0-1.1,0-2.1,0-3.2
		c0.1-0.9-0.2-1.9,0.2-2.8c0-1.8,0-3.5,0-5.3c-0.5-1-0.1-2.1-0.2-3.2c0-0.4-0.1-0.8-0.1-1.2c0.4-8.1,0.9-16.2,0.3-24.3
		c-0.2-2.2,0.4-4.3,0.4-6.4c-0.2-8.9,0.1-17.7-0.1-26.6c-0.1-5,0-10,0-15c0-3.7,1.2-7.5,1.5-11.3c0-0.5,0.5-0.8,0.8-1.2
		c0-4.1,0-8.1,0-12.2c0-1.6,0.9-3,1.1-4.6c0.3-2.1,0.5-4.1,0.4-6.2c0-0.2,0-0.5,0.1-0.7c1.3-1.5,0.6-3.2,0.8-4.8
		c0.1-1.2-0.5-2.6,0.9-3.5c0.3-0.2,0.2-0.6,0-0.8c-0.9-1.2-0.7-2.7-0.4-4c0.4-1.9,0.2-3.8,0.8-5.7c0.6-1.8-0.1-3.7,0.5-5.6
		c0.5-1.5,0.8-3.1,1.2-4.7c0.1-0.3,0.2-0.6,0.1-0.9c-0.8-2.7,0.2-5.2,0.7-7.7c0.4-1.8,0.6-1.9,2.4-1.8c0.4,0,0.8,0.2,1.1-0.1
		c0.2-0.2,0.4-0.5,0.5-0.8c0-0.1-0.3-0.4-0.4-0.5c-0.4-0.1-0.8-0.1-1.2-0.3c-0.7-0.3-1.3-0.7-1.3-1.5s0.3-1.6,1.3-1.7
		c0.3-0.1,0.7,0,0.7-0.6c-2.6-1.9-1.3-4.5-0.8-6.6s0.4-4.5,1.9-6.3c0.2-0.3,0.1-0.9,0-1.4c-0.1-0.4-0.3-0.8,0-1.2
		c1.3-1.5,0.9-3.3,1.1-5c0.1-1.4,0.7-2.7,1.8-3.7c0.7,0.2,0.7,0.8,0.5,1c-0.9,1.6,0.5,3.3-0.3,4.9c-0.2,0.3,0.3,0.8,0.7,0.8
		c0.5,0.1,0.6-0.4,0.6-0.8c0.1-1.9,1.4-3.5,0.7-5.6c-0.3-0.7,0.5-2.1,1-2.5c2-1.8,1.2-3.9,1.1-5.8c-0.3-2.8-0.8-5.7-0.8-8.5
		c0-6.1-0.2-12.3-0.7-18.4c-0.5-7.2-0.8-14.3-0.8-21.5c0-3.1,0.6-6.2,0.5-9.3c-0.2-4.8-0.3-9.5-0.6-14.2c-0.4-5.2,0.1-10.4-0.4-15.5
		c-0.4-4.2-0.2-8.4-0.8-12.6c-0.4-3.1-0.2-6.4-0.1-9.6c0.2-5.5,0.2-11,0.6-16.5c0.4-5.4,0.2-10.7,0.3-16c0.1-4.9,0.5-9.9,0.6-14.8
		c0.1-2.8,0.1-5.6,0.4-8.3c0.2-2.1,0.5-4.3,0.4-6.4c0.2,0,0.3-0.1,0.5-0.1c0.2,0.2,0.4,0.5,0.5,0.8c0.7,4.4-0.2,8.8-0.4,13.1
		c-0.3,4.8-0.6,9.6-0.6,14.4c-0.1,15.8-1.2,31.7-0.5,47.5c0.4,10.6,0.3,21.2,1.2,31.8c0.5,5.7,0.4,11.5-0.2,17.2
		c-0.5,5.4-0.1,10.9,0.4,16.3c0.5,5.3,0.7,10.7,0.8,16c0.1,4.3,0.6,8.6,0.8,12.9c0,0.3,0.1,0.6,0.1,0.9c-0.5,3.5,0.8,5.8,4.3,6.9
		c1.3,0.4,1.8,1.5,1.2,2.7c-0.8,1.7-1.8,0.1-2.9,0c-0.1,0.8-0.4,1.6,1,1.5c2.6-0.1,3.5-0.7,4.3-3.2c0.2-0.7,0.4-1.4,1-1.9
		c2.6-0.1,3.1,1,2.2,4.2c1.1-1.9,0.5-4.3,0.5-6.6c0-1.1,0.2-2,1-2.8s1.3-1.8,1-3c-1.2-4.3,0-8.3,1.3-12.3c0.5-0.7,0-2.1,1.4-2.2
		c0.3,2-0.8,3.8-0.5,5.8C41.8,358.4,41.8,358.6,41.8,358.7z"/>
	<path class="st39" d="M7.3,471c-0.2,2.2-0.6,4.5-0.6,6.7c0,1.2-0.1,2.3-0.5,3.2c-0.7,1.4-0.6,2.6-0.4,4.1c0.4,2.4-0.4,4.9-0.2,7.3
		c0.2,3.5,0.3,7,0.3,10.5c0,2.6-0.3,5.2-0.2,7.8c0.1,4.3,0.3,8.7,0.2,13c0,1.9,0.2,3.8-0.4,5.7c-0.2,0.5-0.1,1.1,0,1.7
		c0.6,4.3,0.5,8.6,0.2,12.9c-0.1,1.2,0.1,2.4,0,3.5c-0.2,2.8,0.2,5.7-0.7,8.5c-0.1,0.2-0.3,0.2-0.5,0.2S4.2,556,4,555.9
		c0-0.2,0-0.3,0-0.5c0.8-4.1-0.1-8.1-0.3-12.1c-0.2-3.6-0.1-7.2-0.2-10.8c0-1.8-0.1-3.7-0.4-5.5c-0.1-0.9,0.6-1.6,0.7-2.4
		c0.1-0.7-0.1-0.8-0.7-0.4c-0.5-0.9-0.2-1.9-0.2-2.9c0.9-1,0.9-2.3,0.7-3.4c-0.6-6.2-0.1-12.4-0.2-18.6c0-0.9,0.3-1.8-0.6-2.5
		c0.3-10.2-1.2-20.4-0.7-30.7c0-0.9,0.6-1.8,0-2.6c-0.2-1-0.8-2-0.3-3.1c1.1-1.5,0.5-3-0.1-4.5c-0.1-1-0.1-2.1,0-3.1
		c0.2-0.9,0.7-1.7,0.1-2.6c-0.1-0.4-0.1-0.8,0-1.2c0.3-0.5,0.3-0.9-0.3-1.1c-0.8-1,0.1-2.4-0.8-3.3c0-1.3,0-2.6,0-3.8
		c0.2-0.2,0.5-0.4,1-0.7c0,0.9,0,1.7,0,2.5c0,0.6,0.1,1.2,0.7,1.4c0.8,0.2,1.2-0.4,1.5-1c0.2-0.4,0.2-0.9,0.4-1.4
		c0.1-0.2,0.3-0.4,0.5-0.4c0.4-0.1,0.6,0.2,0.7,0.5c0.2,0.7,0.5,1.5,0.3,2.1c-0.4,1.9-0.2,3.8-0.1,5.6c0.3,3.7-0.3,7.4,0.1,11.1
		c0.3,2.6,0.6,5.4,0,8c-0.3,1.1,0.3,1.8,0.8,2.6C6.6,471.4,7,471.1,7.3,471z"/>
	<path class="st22" d="M13,228.6c0.3,0.1,0.6,0.3,0.9,0.4c0.3,0.1,0.9,0.1,0.9,0.6c0,0.5-0.4,0.8-0.8,1.1c-0.8,0.5-1.3-0.4-1.8-0.7
		c-0.6-0.3-0.7-0.9-0.4-1.4C12.1,228,12.6,228.1,13,228.6L13,228.6z"/>
	<path class="st40" d="M19.7,201.3c0.2-1.1-0.3-2.3,0.5-3.4c0.6,0.2,1.2,0.1,1.7,0.3c0.1,0.1,0.1,0.1,0.2,0.2c0.3,1,0.4,1.9-1.1,1.9
		C20.4,200.4,20.2,201.1,19.7,201.3z"/>
	<path class="st40" d="M23.6,198.4c-0.5,0-1,0-1.4,0l0,0c-0.5-0.7-0.4-1.3,0.2-1.9c0.7-0.6,1.3-0.3,1.8,0.3c0.1,0.2,0.2,0.5,0.1,0.7
		C24.2,198,23.9,198.2,23.6,198.4L23.6,198.4z"/>
	<path class="st38" d="M15.2,382.5c-0.3-0.1-0.5-0.3-0.5-0.7c0-0.3,0.2-0.7,0.5-0.7c0.5,0,0.7,0.3,0.7,0.8
		C15.7,382.2,15.5,382.4,15.2,382.5z"/>
	<path class="st12" d="M14,233.9c-1.1,0.1-1.6-0.3-1.4-1.4c0.3,0,0.6,0,0.9,0C14,232.9,14.5,233.2,14,233.9L14,233.9z"/>
	<path class="st13" d="M14.9,223.8c0.3-0.6,0.6-1.2,0.5-1.9C16.2,223.1,16.1,223.3,14.9,223.8z"/>
	<path class="st22" d="M12.1,224.3c0.6,0,1.3,0,1.9,0C13.3,225,12.7,225,12.1,224.3z"/>
	<path class="st17" d="M14,233.9c0-0.5-0.3-1-0.5-1.4C14.5,232.7,14.8,233.1,14,233.9z"/>
	<path class="st39" d="M4.4,576.6c1-0.5,1-1.3,1-2.2c0-2.6,0-5.3,0-7.9c0-0.8-0.1-2.1,0.7-2c1.1,0,2.3-0.7,3.4,0.2
		c1.5,1.2,1.6,2,0.3,3.7c-0.3,0.4-0.7,0.7-0.4,1.2s0.8,0.3,1.3,0.1c1-0.4,1.7-1,2.4-1.9c0.7-0.8,1-1.5,0.5-2.6c-0.3-0.8,0.5-1,1-1.4
		c0.4-0.4,0.9-0.4,1.2,0.2c0.4,0.7,0.9,0.9,1.6,0.4c0.6-0.4,1.1-1,0.8-1.8c-0.2-0.5-0.3-1.1-0.5-1.6s-0.4-0.9-0.1-1.4
		c0.9-1.6,0.6-3.4,1.2-5c0.3-0.8,0.7-1.6-0.2-2.4c-0.4-0.4-0.3-0.9,0-1.3c0.9-0.9,0.6-2.1,0.7-3.2c0.1-1.4,0.2-2.8,0.3-4.2
		c0.1-0.8,0.3-1.6,1.3-1.8c0.6-0.1,1.2-0.4,1.3-0.9c0.5-1.9,2.2-3,2.8-4.8c-0.1,1.7,0.2,3.3-0.3,5c-0.2,0.6,0.1,1.3,0.8,1.6
		s1.2-0.3,1.6-0.8c0.6-0.9,0.6-1.9,0.1-2.7c-0.8-1.5-0.8-2.5,0.7-3.6c0.8-0.6,1.2-1.7,2.2-2.4c0.5-0.4,0.4-1.2,0.1-1.8
		c-0.3-0.6-0.7-1.2-1-1.9c1.7-0.8,1.8-0.7,2.3,0.7c0.6,1.6,0,3.1,0.1,4.6c0.7,0.3,0.9-0.4,1.4-0.5c2.1-0.4,2.1-0.4,2-2.4
		c0-0.8-0.3-1.1-1-0.9c-1.2,0.4-1.1-0.4-1.1-1.2c0-0.1,0-0.2,0.1-0.2c1.2-1-2.2-3.2,1.2-3.8c1.5-0.3,1.5-2.9,3.3-3.5
		c1-0.3,0.4-1.6,0.9-2.5c1.3,0.8,2.5,0.7,3.4-0.7c0-0.1,0.1-0.1,0.2-0.1c2.8-0.4,2.7-2.7,2.7-4.6c-0.1-3.9,0.9-7.8,0.6-11.7
		c0-0.2,0-0.5,0-0.7c0.8-2.7,1.1-5.4,0.5-8.2c1.6,1.7,1.2,3.8,0.9,5.7c-0.2,1.4-0.4,2.8-0.5,4.2c-0.2,4-0.4,7.9-0.9,11.9
		c-0.3,2.1-0.1,4.3-0.1,6.5c-0.3,0.2-0.2,0.7-0.5,1c0,1.4,0,2.9,0,4.3c0,5.3-0.3,10.6-0.9,15.9c-0.1,0.9,0,1.9,0,2.9
		c-0.4,0.4,0,1-0.5,1.4c0,2.9,0,5.8,0,8.6c-0.3,0.3-0.2,0.7-0.5,1c0.3,5-0.4,10-0.6,15c-0.1,2.9-0.2,5.9-0.4,8.8
		c-0.1,1.8-0.6,3.6-0.5,5.4c-0.2,0.2-0.3,0.3-0.5,0.5c0.1,2.7-0.4,5.3-0.8,8c-0.2,1-0.1,2-0.2,3.1c-0.2,0.2-0.3,0.3-0.5,0.5
		c0,1.1,0,2.2,0,3.4c-0.2,0.2-0.3,0.3-0.5,0.5c0,1,0,1.9,0,2.9c-0.2,0.2-0.3,0.3-0.5,0.5c0,1.4,0,2.9,0,4.3c-0.3,0.3-0.2,0.7-0.5,1
		c0.3,4.1-0.5,8.2-0.6,12.3c-0.1,2.4-0.3,4.9-0.4,7.3c-0.2,0.2-0.3,0.3-0.5,0.5c0,2.1,0,4.2,0,6.2c-0.3,0.3-0.3,0.6,0,1
		c-0.7,1.9-0.4,3.8-0.5,5.8c-0.3,0.2-0.2,0.7-0.5,1c0,1.6,0,3.2,0,4.8c-0.5,0.4,0,1-0.5,1.4c0,4.3-0.3,8.6-0.9,12.8
		c-0.1,0.7,0,1.4,0,2.2c0.1,5.5-0.5,10.9-1.4,16.4c-0.1,0.9,0,1.8-0.1,2.6c0,0.7,0.2,1.5-0.5,2c-0.9-0.3-0.8-1.1-0.8-1.8
		c0.4-4.3,0.6-8.6,0.9-12.9c0.3-3.5,0.3-6.9-0.8-10.3c-0.1-0.4-0.1-0.9-0.7-0.8c-0.5,0-0.6,0.5-0.7,0.9c-0.1,0.5,0,1,0,1.4
		c0,1.1-0.3,2.2-1.6,2.2c-1.5-0.1-1.3-1.4-1.3-2.4c0.1-1.2,0.4-2.4,0.5-3.6c0-0.5,0.1-0.9-0.2-1.3c-0.5,0-0.5,0.4-0.5,0.7
		c0.1,4-1.2,7.8-2.8,11.3c-1.5,3.4-1.2,6.7-0.9,10.1c0.1,0.9,0.3,1.7,0.2,2.6c-0.1,0.6-0.1,1.4-0.8,1.6c-0.8,0.3-1.3-0.4-1.8-0.9
		c-1-1.2-0.9-2.7-1.4-4.1c-0.3,1.4-0.4,2.9-0.8,4.3c-0.2,0.6-0.4,1.3-1.2,1.3c-0.7,0-1.2-0.6-1.2-1.3c0-1.6-2.1-2.7-0.8-4.6
		c-1.6,1.6-3.7,2.1-5.3,3.4c-0.8,0.6-1.8,0.8-2.5-0.2c-0.4-0.6-0.9-1.2-1.7-1.1c-1.3,0.1-0.9-1.1-1.3-1.6c0-0.5,0-1,0-1.4
		c0.4-0.5,0.4-1,0-1.4c0-1.9,0-3.8,0-5.8c-0.5-0.6,0-1.4-0.4-1.9c0-2.7,0-5.4,0-8.2c-0.2-0.2-0.3-0.3-0.5-0.5c0-5.8,0-11.5,0-17.3
		C2.9,643,3.6,642,3,641.3c0-1.9,0-3.8,0-5.8c-0.5-0.8-0.1-1.7-0.2-2.6c0-0.5,0-0.9,0-1.4c0-0.4,0-0.9,0-1.3c0-0.3,0-0.6-0.2-0.9
		c0-1.4,0-2.9,0-4.3c0.5-2.6,0.1-5.1,0.2-7.7c0.1-1.7-0.3-3.5,0.2-5.2c0-1.6,0-3.2,0-4.8c0.5-0.7,0.1-1.5,0.2-2.2
		c0.1-1.2-0.3-2.4,0.2-3.5c0-6.9,0-13.8,0-20.6c0.1-0.2,0.3-0.3,0.5-0.5c0-0.2,0-0.3,0-0.5C4,578.6,4,577.6,4.4,576.6z"/>
	<path class="st0" d="M4.9,679.8c0.5,0.3,0.4,1.3,1.7,0.9c1.3-0.5,1.6,1.2,2.1,2.3c1.1-0.6,2.3-0.7,2.8-2c0.1-0.3,0.3-0.7,0.7-0.5
		c1.6,0.5,2.1-0.7,2.7-1.7c0.3-0.5,0.5-1.1,1.2-0.7c0.5,0.4,1,1,0.5,1.6c-0.9,1-1.1,1.6,0.3,2.3c0.6,0.3,0.3,1,0.2,1.5
		c-0.2,0.6,0,1.2,0.7,1.3s0.5-0.6,0.7-1c0.5-1.6,0.5-3.1,0.5-4.7c0-0.4,0-0.9,0.5-0.9c0.4-0.1,0.7,0.3,1,0.6
		c0.3,0.4,0.4,0.8,0.4,1.3c0,0.6,0,1.1,0,1.7c0.1,1,1.4,2.8,1.8,2.6c1.2-0.6,0.7-1.9,0.5-2.7c-0.5-2.1-0.3-4.1-0.4-6.2
		c-0.1-1.7,0.4-3.2,1-4.8c1.3-3.6,3.1-7.1,2.8-11.2c0-0.4-0.1-0.8,0.1-1.2c0.2-0.6,0.2-1.5,1.1-1.3c0.7,0.2,1.4,0.9,1.1,1.6
		c-0.5,1.3-0.1,2.7-0.6,4c-0.2,0.5-0.2,1.1-0.2,1.6s0.1,1,0.7,1c0.5,0,0.9-0.3,1.1-0.8c0.2-0.5,0.1-0.9-0.1-1.4
		c-0.1-0.4-0.3-0.8-0.2-1.2c0-0.8,1.1-2,1.8-1.9c0.9,0.1,0.9,1,1,1.6c0.1,0.7-0.2,1.5,0.8,1.8c0.1,0,0.2,0.6,0.2,0.9
		c-0.6,2.5,0.5,4.9,0,7.3c-0.5,2.5-0.1,5.1-0.6,7.6c-0.4,2.2,0,4.5-0.7,6.6c-0.1,0.3,0.2,0.7,0.3,1.1c-0.7,4.5-1,9.1-2.2,13.6
		c-0.9,3.4-1.6,7-1.7,10.5c0,1.1-0.7,2.1-0.5,3.3c-0.3,2.1-0.7,4.2-1,6.3c0,0.2-0.1,0.6-0.4,0.5c-1.7-0.2-1.4,1.1-1.6,2.1
		c-0.1,0.7-0.4,1.4-1.3,1.6c-1,0.2-1.1,1-1.1,1.9c-0.3,0.2-0.4,0.6-0.4,1c-0.3,1.8-0.4,3.7-2.1,5c-0.3,0.2-0.2,0.9-0.2,1.4
		c0,0.3-0.1,0.7-0.2,1c-0.2,0.7-0.4,1.5,0.1,2c1.6,1.7,0.6,3.1-0.5,4.4c-0.9,1-1.7,2.1-1.9,3.5c-1.6-0.1-1.8-1.2-1.8-2.5
		c0-0.7,0.4-1.4-0.1-2.2c-1.2,0.4-1.4,1.6-1.8,2.6c-0.3,0.8-0.6,1.6-1.6,1.4c-0.9-0.1-1.3-0.8-1.5-1.7c-0.3-1.1-0.5-2.2-0.5-3.2
		c-0.2-0.2-0.4-0.1-0.5-0.1c-2.7,1.2-2.7,1.2-3.3-2l0,0c0.4-5.3-0.4-10.7-0.6-16c-0.2-3.6-0.1-7.2-0.4-10.7
		c-0.2-2.4-0.2-4.9-0.8-7.3c-0.2-0.7-0.1-1.4-0.1-2.1c0-4.2-0.1-8.5,0-12.7C4.5,685.7,5.1,682.8,4.9,679.8z"/>
	<path class="st39" d="M29.3,514.7c-1.1-2.7,0.1-5.2,0.6-7.7c0.6-2.6,0.7-5.2,0.9-7.8c0.2-2.7,0.4-5.4,0.8-8
		c0.3-2.2,0.1-4.5,0.2-6.7c0-0.8-0.3-1.8,0.5-2.5c0,1-0.1,2.1,0.7,2.9c0.4,0.4,0.3,1.1,0.3,1.6c-0.1,1.4,0.2,2.5,1.6,3
		c-0.2,0.9-0.8,0.5-1.2,0.7c-0.7,0.4-1.1,0.9-0.4,1.5c1.6,1.2,2,3,2.4,4.7c0.1,0.3,0.1,0.7,0.4,0.9c1,0.9,1,1.5-0.3,2.3
		c-0.8,0.5-1,1.6-1,2.6s0.2,1.9,0,2.9c-0.3,1.3,0.2,3-1.8,3.4c-0.5,0.1-0.3,0.6-0.4,1c-0.3,1.5-0.2,3-0.2,4.5c0,1.1-0.2,2-0.6,3
		c-0.1,0.4-0.3,0.8-0.8,0.6c-0.4-0.2-0.5-0.6-0.5-1c0.1-0.5,0.4-0.9,0.3-1.4C30.6,514.4,30.1,514.4,29.3,514.7z"/>
	<path class="st23" d="M40.4,380.8c0-0.3,0-0.7,0-1c0.6,0.3,1.1,1.1,1.9,0.5c0,0.9,1.2,1.9-0.4,2.6c-0.5,0.2,0.2,0.6,0.5,0.8
		c0.6,0.5,0.6,1.2,0.4,1.7c-0.2,0.6-1,0.4-1.5,0.5c-0.4,0.1-0.8-0.2-0.8-0.6c-0.1-1-1-2.1,0.1-3.1C41,381.8,41,381.2,40.4,380.8z"/>
	<path class="st39" d="M26.9,524.3c0-2.2,0-4.4,1.2-6.4c0.6-1,0.1-2.4,1.2-3.2c0.4,1.8,0.7,3.6-1.1,4.9c-0.5,0.4-0.3,1.2-0.3,1.8
		C27.9,522.6,27.9,523.6,26.9,524.3z"/>
	<path class="st39" d="M26,530.1c0-2-0.2-4,1-5.8C27,526.3,26.9,528.3,26,530.1z"/>
	<path class="st41" d="M39.9,389.4c0.5,0,1-0.1,1.4,0.3s0.6,0.8,0.1,1.2c-0.4,0.4-0.9,0.3-1.2-0.1S39.9,389.9,39.9,389.4L39.9,389.4
		z"/>
	<path class="st39" d="M31,520.8c0.4,0,0.6,0.3,0.6,0.6c0,0.5-0.2,1.1-0.8,1.3c-0.3,0-0.4-0.2-0.4-0.5C30.3,521.6,30.3,521,31,520.8
		z"/>
	<path class="st38" d="M38.7,433.9c0.4,0.7,0.3,1.4,0.2,2C38.1,435,38.1,435,38.7,433.9z"/>
	<path class="st38" d="M44,434.3c-0.7-0.5-0.9-0.9-0.8-1.5c0-0.1,0.3-0.2,0.4-0.1C44.4,433,44.3,433.6,44,434.3z"/>
	<path class="st39" d="M25,533c0.1-0.7-0.2-1.4,0.5-1.9C25.4,531.7,25.7,532.5,25,533z"/>
	<path class="st39" d="M30.8,519.3c0.1-0.1,0.1-0.4,0.2-0.4c0.3-0.1,0.5,0.1,0.5,0.4c0,0.3-0.2,0.5-0.5,0.4
		C30.9,519.7,30.9,519.4,30.8,519.3z"/>
	<path class="st0" d="M43.3,547.4c0-0.5-0.1-1.1,0.5-1.4C43.7,546.5,43.8,547,43.3,547.4z"/>
	<path class="st0" d="M35.1,651c0-0.5-0.1-1.1,0.5-1.4C35.6,650.1,35.7,650.7,35.1,651z"/>
	<path class="st0" d="M42.8,557c0-0.4,0.1-0.7,0.5-1C43.3,556.4,43.2,556.8,42.8,557z"/>
	<path class="st0" d="M38,610.7c0-0.4,0.1-0.7,0.5-1C38.5,610.2,38.4,610.5,38,610.7z"/>
	<path class="st39" d="M44.7,522.9c0-0.4,0.1-0.7,0.5-1C45.2,522.3,45.1,522.7,44.7,522.9z"/>
	<path class="st0" d="M36.5,638.1c-0.5-0.3-0.5-0.6,0-1C36.5,637.4,36.5,637.8,36.5,638.1z"/>
	<path class="st0" d="M35.6,644.8c0-0.4,0.1-0.8,0.5-1C36.1,644.2,36,644.6,35.6,644.8z"/>
	<path class="st39" d="M25.5,530.6c0.2-0.2,0.3-0.3,0.5-0.5C25.8,530.2,25.7,530.4,25.5,530.6z"/>
	<path class="st0" d="M36.5,630.9c0.2-0.2,0.3-0.3,0.5-0.5C36.9,630.6,36.7,630.7,36.5,630.9z"/>
	<path class="st0" d="M40.9,586.7c0.2-0.2,0.3-0.3,0.5-0.5C41.2,586.4,41,586.6,40.9,586.7z"/>
	<path class="st0" d="M38.5,605.4c0.2-0.2,0.3-0.3,0.5-0.5C38.8,605.1,38.6,605.3,38.5,605.4z"/>
	<path class="st0" d="M39.4,598.2c0.2-0.2,0.3-0.3,0.5-0.5C39.7,597.9,39.6,598.1,39.4,598.2z"/>
	<path class="st0" d="M38.9,602.1c0.2-0.2,0.3-0.3,0.5-0.5C39.3,601.8,39.1,601.9,38.9,602.1z"/>
	<path class="st37" d="M32.2,75.5c-0.2-0.2-0.3-0.3-0.5-0.5c-0.2-1.5-0.1-2.9,0.3-4.4c0.2-0.5,0.5-1.1,1.1-0.4c0,0.1,0,0.2,0,0.3
		c0,0.2,0,0.4,0.1,0.6c0.1,0.3,0.1,0.6,0.3,0.8c0.2,0.2,0.4,0.4,0.7,0.4c0.1,0,0.2,0,0.2,0c0.1-0.1,0.2-0.1,0.3-0.3
		c0-0.1,0-0.3,0-0.4c-0.1-0.1-0.1-0.3-0.1-0.4c-0.1-0.7,0.7-0.9,0.9-1.4c0-0.5,0-1,0-1.4c-0.3-0.3-0.6-0.3-1,0l0,0
		c-0.3,0.3-0.6,0.3-0.9,0l0,0c-0.2-0.1-0.3-0.3-0.5-0.5l0,0c-0.2-0.2-0.2-0.3,0-0.5c1.2,0.2,1.9-0.7,2.8-1.1c0.4-0.2,0.6-0.6,0.4-1
		c-0.5-1.1,0.4-1.8,0.7-2.6c1.2-2.4,3.5-2.6,6.1-2.9c-1.1-0.7-1.7-1.6-0.7-2.5c0.7-0.7,0.9-2.4,2.4-1.9c2.4,0.9,2.1,3.1,1.9,5.1
		c1.1,0.1,1.7-0.7,2.5-0.9c1.7-0.4,3.7,1.1,3.6,2.8c-0.1,1.1-0.6,2-1.8,2.3c-0.9,0.3-1.2,0-2.5-1.7c-0.5,1-0.5,1.7,0.6,2
		c0.9,0.3,1.9,1.3,2.7-0.2c0.8-1.4,1.6-2.4,3.6-1.9c1.2,0.3,1.1-1.1,1.1-1.9c0.1-3.5,0.1-3.5,3.5-3.2c0.5-1.8-0.1-3.5-0.5-5.1
		c-0.7-2.7-0.9-5.3-0.5-8c0.1-0.4-0.3-0.7-0.6-1c-0.2-0.3-0.4-0.5-0.6-0.9c-0.1-0.3-0.1-0.7-0.1-1c0.4-1.1,0.9-2.1,0.4-3.3
		c0-0.3,0-0.6,0-0.9c0.6-0.4,0.7,0.2,0.9,0.5c1.8,2,2.1,4.5,1.8,6.9c-0.1,1.1,0,2,0.2,3c0.1,0.8,0.6,1.5,0.1,2.3
		c-0.2,0.4-0.1,0.8,0.2,1.1c1.1,0.9,1.1,2.1,1.1,3.3c0,0.6,0,1.3,0.4,1.8c0.8,1.1-0.2,1.9-0.2,2.9c0.1,0.9,1.3,1.3,1.2,2.5
		c-0.1,0.6-0.2,1.1-0.5,1.6c-0.8,1.3-0.6,2.4,0.5,3.4c0.6,1.1-0.2,2.3,0.5,3.4l0,0c-0.2,2.5,0.5,5,0,7.6c0,0.2-0.1,0.3,0,0.5
		c1.3,2.5,0.7,5.3,1.2,7.9c0.1,0.2,0.1,0.5,0.2,0.7c0.4,1-1.3,1.7-0.3,2.9c0.8,0.9,0.2,2.3,0.3,3.4s0,2.2,0,3.3c0,1.1,0,2.2,0,3.3
		c0,0.7-0.2,1.4-0.5,2.1c-0.4,0.7-0.5,1.5-0.4,2.3c-0.8-0.4-1-0.9-0.6-1.7c0.3-0.6,0.1-1.2-0.6-1.4c-0.6-0.2-0.8,0.4-1,0.8
		c-1.2,2-1.2,2-3.2,1.3c-2.1-0.7-4.7,1.3-4.7,3.5c0,1.9-1.2,3.3-2,4.7c-0.7,1.3-0.5,2.1,0.2,2.9c0.7,0.7,1.1,1.5,0.7,2.3
		c-0.5,1-1.5,1.4-2.6,1.4c-3.2-0.1-6.2,0.7-9.3,1.7c-0.9,0.3-1.2,1.7-2.4,1.1c-0.9-0.5-1.1-1.5-1.6-2.3c-1-1.5-2.1-2.4-4.1-2.3
		c-1.1,0-1.7,0.2-2,1.2c-0.3,1.1-1,2.2-1,3.4c0,1-0.4,1.7-1.5,1.8c-0.7,0.1-1.3,0.4-1.3,1.1c0,2.2-0.8,4.2-0.6,6.4
		c0.1,1.4,2.2,3.7,3.6,3.9c1.1,0.2,1.4-0.8,2.1-1.3c1.9,3.4,1.9,3.5,5.9,3.7c1.8,0.1,3,1.4,4.5,2c0.5,0.2,0.7,0.8,0.4,1.5
		c-0.3,0.6-0.3,1.3-0.1,1.9c0.4,1.5,1,1.8,2.4,1c1-0.5,2.4-0.1,3-1.3c0,0,0.4,0.1,0.6,0.2c1.3,1.1,2.7,2.1,4,3.3
		c0.7,0.6,1.5,1.1,1.1,2.4c-0.3,0.9,0.7,1,1.4,1.2c0.4,0.1,0.6,0.3,0.5,0.6c-0.1,0.4-0.5,0.8-0.9,0.5c-0.7-0.6-1.2-0.2-1.5,0.3
		c-0.4,0.7-0.8,1.3-1.8,1c-0.5-0.2-0.9,0.4-1,0.8c-0.2,1.4-0.9,2.7-0.6,4.2c0.3,1.6,0.3,1.7-1.4,2.2c-0.9,0.3-0.9,1.1-0.5,1.4
		c1.7,1,1.3,1.7-0.1,2.7c-0.4,0.3-0.4,1.2-0.5,1.8c-0.2,1,0.8,0.7,1.2,1.2c-0.5,0.8-1.1,1.6-2.1,1.8c-2.1,0.5-4-1.7-3.3-3.9
		c0.2-0.5,0.3-1-0.3-1.2s-0.8,0.2-0.9,0.8c-0.2,1-0.4,2-0.6,3c-1.7-0.8-2-0.9-1.3-2.9c0.3-0.9,0.5-1.7-0.1-2.5
		c-0.5-0.7-0.4-1.5-0.5-2.3c-0.2-1.4-0.8-1.7-2.2-1.1c-1.4,0.7-2.1,2-2.6,3.3c-0.2,0.6-0.3,1.2-0.6,1.8c-0.8,1.7-0.8,1.7-2.5,0.6
		c-0.7,1.1-0.6,2.5-1.7,3.3c-0.1,0-0.1,0.2-0.1,0.2c1.1,2.1-1.7,3.6-0.8,5.7c-1.1,2.1-0.3,4.3-0.2,6.4c0.1,1.7,0.3,3.6-0.4,5.3
		c-0.2,0.6-0.3,1.1,0.2,1.5c0.4,0.4,0.7,0.6,1.2,0.1c1.2-1.3,2.5-2.5,3.7-3.7c2.1-2.1,3.4-2.3,5.9-0.8c1-0.2,0.3-1.5,1.4-1.9
		c0.1,1.9,0.2,3.6,0.2,5.4c0,1.2,0,2.4,0,3.6c0,0.4,0.2,0.8,0.7,0.8s0.7-0.3,0.7-0.8c0.2-1.1,0.5-2,0.2-3.3c-0.4-1.6,0.4-3.2,1-4.8
		c0.3-1,1.4,0,1.9-0.7c0.2-0.5-0.2-0.7-0.5-1c-1.7-1.9-1.7-2.2,0-4.1c1-1.2,0.9-1.9-0.7-3c-0.4-0.3-0.9-0.5-0.7-1
		c0.2-0.4,0.6-0.5,1-0.3c0.4,0.1,0.7,0.3,1.1,0.1c1.9-0.9,1.9-0.9,3.3,0.5c0.3,0.3,0.5,0.7,0.9,0.4c0.3-0.2,0.4-0.5,0.3-0.8
		c-0.4-1.4,1-2.3,0.9-3.6c0-0.3,0.4-0.5,0.7-0.4c0.4,0.1,0.5,0.4,0.4,0.7c-0.1,0.5-0.3,0.9-0.2,1.4c0.1,0.8,0.6,1,1.3,0.4
		c0.2-0.2,0.5-0.6,0.7-0.6c1.6,0.1,2.4-1,3.5-1.8c0.4-0.3,0.8-0.5,1.3-0.7c0,2.8,0.4,5.7-0.9,8.4c-0.5,1-0.7,1.9,0,2.9
		c0.6,0.8,0.5,1.7,0.4,2.6c-0.3,4.8-0.3,9.7-1.1,14.5c-0.3,2-0.8,3.9-0.3,5.9c0.3,1.3,0.3,2.9-0.7,4.1c-0.1,0.2-0.3,0.5-0.3,0.7
		c1.1,3.1,0,6.3,0.3,9.5c0.3,2.8-0.4,5.5-0.5,8.3c0,0.9-0.5,1.8-1.5,1.9c-0.8,0.1-1,0.6-1.2,1.3c-0.1,0.8-0.4,1.6-1.7,1.6
		c1.4,0,1.6-0.8,1.9-1.5c0.2-0.5,0.6-1,1.3-0.8c0.7,0.1,0.8,0.7,0.9,1.3c0.3,1.9-0.1,3.7-0.6,5.4c-0.2,0.6-0.6,0.9-1.3,0.7
		c-0.2-0.1-0.2-1.2-0.7-0.2c0.4,0.2-1,1.3,0.6,0.9c0.9-0.2,1.2,0.9,1.1,1.5c-0.3,2.9-0.1,5.9-1.1,8.7c-0.2,0.3-0.5,0.6-0.7,0.9
		c-0.3,0.6-0.5,1.3-1.3,1.1c-0.8-0.2-0.7-1-1-1.7c-0.3,0.8-0.2,1.7-0.8,2.1c-1.2,0.8,0.5,1.3,0.2,2c-0.2,0.4-0.5,0.7-0.9,0.6
		c-0.7-0.1-1.4-0.3-1.9-0.8c-0.5-1-0.3-2-0.3-3.1c0.1-1,0.3-2-0.1-2.9c-1.9-4.9-0.6-10.1-1.3-15.1c-0.1-0.9-0.2-1.7-0.8-2.4
		c-0.9-1.2-1.2-2.5,0.2-3.6c0.4-0.3,0.4-0.4,0.3-0.9c-1.2-3.8-1.5-7.8-2.3-11.6c-0.9-4.3-1.1-8.7-2.3-12.9c-0.4-1.4-0.7-2.8-2.6-1.3
		c-0.7,0.5-1.7,0.3-2.4,0.9c-1.4,1.1-2.2,0.4-2.6-1.3c-0.3,0.7-0.2,1.2-0.3,1.7c-0.5,1.9-2.3,2.5-3.6,1c-1.1-1.2-2.1-2.7-1.9-4.5
		c0.2-1.6,0.1-3.2-0.3-4.8c-0.9,1.2-1.8,2.4-1.8,4c0,0.6,0,1.8-1.3,1.1c-1.1-2.4,0.4-4.5,0.6-6.7c1,0.2,0.7-0.5,0.7-1
		c-0.1-2.8-0.2-5.7-0.2-7.9c0.1,1.6,0,3.9,0.2,6.2c0.1,0.7,0.5,1.8-0.9,2c-0.5-0.9-0.2-1.9-0.2-2.8c0-7.2,0-14.5,0-21.7
		c0-0.8-0.2-1.6,0.2-2.4c0-3.5-0.1-7,0.1-10.5c0.3-4.4,0-8.9,0.5-13.3c0.6-5.8,0.5-11.6,1.2-17.4c0.5-3.8,0.6-7.8,1.5-11.5
		c0.2-0.8-0.9-1.6,0-2.4c0.1-0.1,0.4-0.2,0.4-0.3c0.1-2.5,0.3-4.9,0.6-7.4c0.2-1.8-0.1-4.1,0.3-6c0.5-2.5,0.2-5,0.6-7.5l0,0
		c0.5-0.7,0.8-1.7,2.1-1.1c0.3,0.1,0.6-0.4,0.8-0.8l0,0c0.7-0.8,1.3-1.9,2.7-1.2c0.3,0.1,0.6-0.1,0.6-0.5c0-0.3-0.2-0.6-0.6-0.6
		c-0.8-0.1-1.4,0.7-2.3,0.3c0-0.4,0.4-0.5,0.6-0.6c0.8-0.5,1.3-1.2,0.5-1.9c-0.6-0.5-1.5-0.6-2,0.4C32.6,75,32.4,75.3,32.2,75.5z"/>
	<path class="st42" d="M54.3,243.1c0.1-0.3,0.4-0.6,0.4-0.9c0-2.6,0.3-5.2,0.6-7.8c0-0.4,0.1-0.8-0.4-1.1c-0.9,0-0.3,2.2-1.6,1.4
		c-0.9-0.6,0.1-1.4,0.3-2.1c0.2-0.5,0-0.9-0.1-1.4c-0.2-0.6-0.2-1.3,0.4-1.7c1.1,0.4,0.6,1.7,1.5,2.5c0.8-2.4,1.1-4.6,0.7-6.9
		c-1-0.1-1.1,0.6-1.2,1c-0.3,1.3-2,1-2.5,2.2c-0.1,0.2-0.7-0.2-0.8-0.6c-0.2-0.6,0-1.4,0.6-1.2c1.7,0.4,1.6-0.7,1.6-1.7
		c0-0.9-0.2-2.3,1.5-1.2c0.4,0.3,0.7,0,0.9-0.5c0.1-0.3,0.3-0.6,0.3-0.9c0.2-2.4,0.8-4.9,0.5-7.3c-0.2-2.2,0.1-4.2,0.1-6.3
		c0-1.6,0.4-3.2-1.4-4.2c1.9-1.3,1.9-1.3,1.9-3.8c0-1.5,0.4-3.1-2.2-3.7c3-1.3,3-3.8,3-5.8c0.1-4.1,0.8-8.1,0.6-12.2
		c0-0.9,0-1.7-0.9-2.3c-0.8-0.5-0.8-1.4-0.3-2.1c1.3-1.9,1.8-4,1.6-6.3c-0.1-0.9,0.3-1.9,0.4-2.8c0-1.3,0-2.6,0-3.8
		c0.5-0.4,0-1.1,0.5-1.4c0-1.3,0-2.6,0-3.8c0.4-0.8,0.4-1.6,0-2.4c0-0.2,0-0.3,0-0.5c0.6-0.7-0.1-1.7,0.5-2.4
		c0.6-1.7,0.5-3.5,0.5-5.3c0.1-0.1,0.2-0.2,0.3-0.1c0.1,0,0.2,0.1,0.2,0.1c0,1,0,1.9,0,2.9c0.3,0.3,0.3,0.6,0,1
		c-0.6,4.6-0.9,9.3-1,13.9c-0.2,0.1-0.3,0.3-0.5,0.5c0.3,5.7-0.4,11.5-0.6,17.2c-0.2,5.5-0.9,10.9-0.8,16.4l0,0
		c-0.4,3.1-0.5,6.3-0.7,9.4c-0.3,6-0.5,12-0.7,18c-0.1,2.9-0.3,5.8-0.9,8.6c-0.7,3.5-1,7.1-1.5,10.6v0.2v0.2
		c-0.5,0.3,0.1,1.5-0.8,1.4c-0.8-0.1-0.6-0.9-0.6-1.5C53.8,243.8,54,243.4,54.3,243.1z"/>
	<path class="st37" d="M64.9,104.3c0.9,0.1,1.1,0.7,0.9,1.4c-0.8,2.9-0.3,5.9-0.4,8.8c0,0.9-0.2,1.7-1,2.3c0-1.3,0.1-2.5,0-3.8
		C64.1,110.1,64.8,107.2,64.9,104.3z"/>
	<path class="st37" d="M57.9,140.9c0.1,1.4-0.5,2.7-0.3,4.2c0.1,0.6-0.1,1.2-0.8,1.2c-0.8,0-0.5-0.8-0.6-1.3
		c-0.4-1.8,0.8-3.5,0.7-5.3c0-0.4,0.4-0.7,0.9-0.6c0.3,0.1,0.4,0.5,0.4,0.8C58.1,140.3,58,140.6,57.9,140.9z"/>
	<path class="st37" d="M62,145.6c-0.2,0-0.3,0-0.5,0c-0.6-0.5-0.5-1.1-0.3-1.7c0.9-3.1,1.2-6.2,0.8-9.3c0-0.4,0.1-0.8,0.8-1.1
		c0.1,2.5,0.3,4.9-0.1,7.2C62.5,142.3,61.9,143.9,62,145.6z"/>
	<path class="st37" d="M57.4,134.7c0.5-1.3,0.1-2.5,0.3-3.7c0.1-0.4,0.4-0.7,0.8-0.6c0.4,0.1,0.5,0.4,0.4,0.7
		c-0.5,1.1-0.3,2.3-0.4,3.5c0,0.4-0.2,0.8-0.7,0.8C57.3,135.4,57.3,134.9,57.4,134.7z"/>
	<path class="st37" d="M63.8,130.5c-0.7-1.1-0.7-3.8,0-5.5C63.8,127,63.8,128.6,63.8,130.5z"/>
	<path class="st37" d="M64.3,117.1c0,2.1,0,4.2,0,6.3C64,121.2,63.7,119,64.3,117.1z"/>
	<path class="st37" d="M57.4,152c-0.1,0.6-0.3,1.1-0.8,1.2c-0.6,0.1-0.8-0.4-0.8-0.9s0.1-1,0.7-1.1C57,151.2,57.2,151.7,57.4,152z"
		/>
	<path class="st37" d="M53.7,122.7c0.3,0.1,0.5,0.2,0.4,0.5c-0.1,0.5-0.5,0.8-1,0.8c-0.2,0-0.5-0.1-0.4-0.5
		C52.9,123,53.1,122.6,53.7,122.7z"/>
	<path class="st37" d="M50.5,119.5c0.1-0.1,0.1-0.5,0.3-0.5c0.4-0.1,0.5,0.2,0.6,0.5c0,0.3,0.1,0.7-0.3,0.7
		C50.7,120.3,50.6,119.9,50.5,119.5z"/>
	<path class="st37" d="M58.3,127.6c0.1-0.1,0.3-0.3,0.4-0.3c0.2,0,0.3,0.2,0.3,0.5c0,0.2-0.2,0.4-0.4,0.4
		C58.4,128.1,58.3,127.9,58.3,127.6z"/>
	<path class="st37" d="M61,150.9c-0.1,0.8,0.3,1.7-0.5,2.4C60.7,152.5,60.2,151.6,61,150.9z"/>
	<path class="st37" d="M60.5,153.8c0.7,0.8,0.7,1.6,0,2.4C60.5,155.4,60.5,154.6,60.5,153.8z"/>
	<path class="st37" d="M60.5,160c0,0.5,0.1,1.1-0.5,1.4C60.1,160.9,60,160.4,60.5,160z"/>
	<path class="st37" d="M47.2,139.3c0.1,0,0.2-0.1,0.2,0s0,0.1,0.1,0.2c-0.1,0-0.2,0.1-0.2,0C47.3,139.4,47.2,139.4,47.2,139.3z"/>
	<path class="st37" d="M49.2,139.2c0.1,0,0.2,0,0.2,0.1s0,0.1-0.1,0.2c-0.1,0-0.2,0-0.2-0.1C49.1,139.4,49.2,139.3,49.2,139.2z"/>
	<path class="st37" d="M62,149.5c0-0.3,0-0.6,0-1C62.5,148.8,62.5,149.1,62,149.5z"/>
	<polygon class="st37" points="43.3,135.1 43.5,135.2 43.4,135.3 	"/>
	<path class="st37" d="M60.5,163.9c0.2-0.2,0.3-0.3,0.5-0.5C60.9,163.5,60.7,163.7,60.5,163.9z"/>
	<polygon class="st37" points="43.3,135.1 43.1,134.9 43.2,134.9 	"/>
	<path class="st38" d="M0.6,444.6c0.9,0.1,0.9,0.7,1,1.4c0,0.7-0.2,1.5,0.5,2c0.3,0.3,0.3,0.6,0,1c0,0.5,0,1,0,1.4
		c0.4,0.6,0.4,1.3,0,1.9c0,1.3,0,2.6,0,3.8c0.5,1.4,0.8,2.9,0,4.3c-0.1,1.2,0.2,2.3,0.5,3.4c0.4,0.5,0.4,1,0,1.4
		c0,5.3-0.3,10.6,0.1,15.8c0.4,4.1,0,8.3,0.7,12.4c0.2,1.3-0.5,2.6-0.3,4c1,2.4,0.5,4.9,0.4,7.3c-0.2,4.3-0.2,8.6,0.1,12.8
		c0.1,1.3,0.3,2.7-0.5,3.9c0.1,1-0.4,2,0.5,2.9c0.6,0.6,0.4,1.3,0,1.9c0.8,6.1,0.2,12.2,0.6,18.3c0.2,3,0.3,6,0.4,9
		c0,0.7,0.2,1.5-0.5,2c0-2.1,0-4.1,0-6.2c-0.1-0.2-0.2-0.3-0.2-0.5s0-0.4,0-0.6c-0.1-0.6,0.2-1.2-0.2-1.7c0-1,0-1.9,0-2.9
		c0-0.3,0-0.6,0-1c-0.3-0.4-0.2-0.8-0.2-1.2s0.1-0.8-0.2-1.2c0-0.5,0-1,0-1.4c0.3-0.5,0.3-1,0-1.4c0-1.5,0-3,0-4.5
		c0-4-0.4-8.1-0.9-12.1c0-0.3,0-0.6,0-1c0-5.3-0.3-10.5,0.1-15.8c0.4-4.6,0.4-9.2,0.3-13.8c0-3.2-0.6-6.3-0.4-9.5
		c-0.3-0.3-0.2-0.7-0.5-1c0-0.3,0-0.6,0-1c0.3-0.3,0.3-0.6,0-1c0-5.1,0-10.2,0-15.4c-0.4-0.4,0-1.1-0.5-1.4c0-3,0-6.1,0-9.1
		c-0.7-2,0.2-4.2-0.5-6.2C0.6,445.3,0.6,445,0.6,444.6z"/>
	<path class="st0" d="M0.6,445.6c0.8,0.8,0.4,1.8,0.5,2.7c0.1,1.2,0,2.4,0,3.5c-0.8-0.8-0.4-1.8-0.5-2.7
		C0.5,448,0.6,446.8,0.6,445.6z"/>
	<path class="st0" d="M3.4,541.1c0,0.5,0,1,0,1.4c-0.6-0.4-0.5-0.9-0.5-1.4c0.1-0.2,0.2-0.2,0.3-0.2C3.4,541,3.4,541.1,3.4,541.1z"
		/>
	<path class="st39" d="M3,537.3c0.6,0.5,0.6,1,0,1.4C3,538.2,3,537.8,3,537.3z"/>
	<path class="st0" d="M1,461c0.6,0.4,0.5,0.9,0.5,1.4C0.9,462.1,1,461.5,1,461z"/>
	<path class="st39" d="M3.4,541.1c-0.2,0-0.3,0-0.5,0c0-0.3,0-0.6,0-1C3.3,540.4,3.4,540.7,3.4,541.1z"/>
	<path class="st0" d="M1.5,477.8c0.5,0.3,0.5,0.6,0,1C1.5,478.4,1.5,478.1,1.5,477.8z"/>
	<path class="st0" d="M1.5,479.7c0.4,0.2,0.5,0.6,0.5,1C1.6,480.4,1.5,480.1,1.5,479.7z"/>
	<path class="st0" d="M3.4,617c0,2,0,3.9,0,5.9c0,0.6,0.1,1.3-0.5,1.8c0-2.6,0-5.1,0-7.7c0.1-0.2,0.2-0.2,0.3-0.2
		C3.4,616.9,3.4,616.9,3.4,617z"/>
	<path class="st2" d="M3.4,617c-0.2,0-0.3,0-0.5,0c0.2-1.8-0.5-3.6,0.5-5.3C3.4,613.4,3.4,615.2,3.4,617z"/>
	<path class="st2" d="M3.9,601.1c0,1.3,0,2.6,0,3.8c-0.1,0.2-0.2,0.2-0.3,0.2c-0.1-0.1-0.2-0.1-0.2-0.2C3.6,603.7,3,602.3,3.9,601.1
		z"/>
	<path class="st0" d="M4.9,568.5c0,1.1,0,2.2,0,3.4c-0.1,0.2-0.2,0.2-0.3,0.2c-0.1-0.1-0.2-0.1-0.2-0.2c0-1.1,0-2.2,0-3.4
		c0.1-0.2,0.2-0.2,0.3-0.2C4.8,568.4,4.9,568.4,4.9,568.5z"/>
	<path class="st2" d="M4.9,557c0,1.1,0,2.2,0,3.4c-0.9-1-0.3-2.2-0.5-3.4c0.1-0.2,0.2-0.2,0.3-0.2C4.8,556.9,4.9,556.9,4.9,557z"/>
	<path class="st2" d="M4.4,576.6c0,1,0,1.9,0,2.9c-0.7-1.1-0.7-2.2,0-3.4C4.4,576.3,4.4,576.5,4.4,576.6z"/>
	<path class="st2" d="M3.4,632.3c0,1,0,1.9,0,2.9c-0.8-0.9-0.3-1.9-0.4-2.9c0.1-0.2,0.2-0.2,0.3-0.2C3.4,632.2,3.4,632.3,3.4,632.3z
		"/>
	<path class="st2" d="M4.9,568.5c-0.2,0-0.3,0-0.5,0c0.1-1-0.4-2,0.4-2.9C4.9,566.6,4.9,567.5,4.9,568.5z"/>
	<path class="st0" d="M3.4,641c0.8,0.7,0.4,1.6,0.5,2.4C3.1,642.7,3.5,641.8,3.4,641z"/>
	<path class="st39" d="M4.4,571.8c0.2,0,0.3,0,0.5,0c-0.1,0.8,0.3,1.7-0.5,2.4C4.4,573.4,4.4,572.6,4.4,571.8z"/>
	<path class="st39" d="M3.4,546.4c0.7,0.5,0.4,1.3,0.5,1.9c-0.1,0.2-0.2,0.2-0.3,0.2c-0.1-0.1-0.2-0.1-0.2-0.2
		C3.4,547.7,3.4,547,3.4,546.4z"/>
	<path class="st0" d="M4.4,669.3c0.7,0.5,0.4,1.3,0.4,1.9C4.2,670.7,4.4,670,4.4,669.3z"/>
	<path class="st0" d="M3.4,605c0.2,0,0.3,0,0.5,0c-0.1,0.7,0.2,1.4-0.5,1.9C3.4,606.2,3.4,605.6,3.4,605z"/>
	<path class="st0" d="M3.4,632.3c-0.1,0-0.3,0-0.4,0c0-0.5,0-1,0-1.4c0.1-0.2,0.2-0.2,0.3-0.2c0.1,0.1,0.2,0.1,0.2,0.2
		C3.4,631.4,3.4,631.8,3.4,632.3z"/>
	<path class="st2" d="M3.4,630.9c-0.1,0-0.3,0-0.4,0c0-0.5,0-1,0-1.4c0.1-0.1,0.2-0.1,0.3-0.1s0.1,0.1,0.1,0.1
		C3.4,629.9,3.4,630.4,3.4,630.9z"/>
	<path class="st0" d="M4.9,677c0.6,0.5,0.6,1,0,1.4C4.9,677.9,4.9,677.4,4.9,677z"/>
	<path class="st0" d="M4.9,557c-0.2,0-0.3,0-0.5,0c0-0.2,0-0.3,0-0.5c-0.2-0.2-0.2-0.3,0-0.5c0.2,0,0.3,0,0.5,0
		C4.9,556.3,4.9,556.6,4.9,557z"/>
	<path class="st2" d="M4.4,556c0,0.2,0,0.3,0,0.5c-0.2-0.2-0.3-0.3-0.5-0.5C4.1,556,4.2,556,4.4,556z"/>
	<path class="st2" d="M4.4,580c-0.2,0.2-0.3,0.3-0.5,0.5C4.1,580.3,4.2,580.2,4.4,580z"/>
	<path class="st0" d="M3.9,660.6c0.2,0.2,0.3,0.3,0.5,0.5C4.2,661,4.1,660.8,3.9,660.6z"/>
	<path class="st0" d="M3.4,548.3c0.2,0,0.3,0,0.5,0c0,0.2,0,0.3,0,0.5c-0.1,0.1-0.2,0.1-0.3,0.1s-0.2-0.1-0.2-0.1
		C3.4,548.6,3.4,548.5,3.4,548.3z"/>
	<path class="st2" d="M3.4,548.8c0.2,0,0.3,0,0.5,0c0,0.2,0,0.3,0,0.5C3.8,549.1,3.6,549,3.4,548.8z"/>
	<path class="st0" d="M3.4,629.4c-0.2,0-0.3,0-0.5,0c0-0.2,0-0.3,0-0.5C3.1,629.1,3.3,629.3,3.4,629.4z"/>
	<path class="st0" d="M25.5,184.5c-0.1,2.4-0.8,4.8-0.5,7.2c0.4,0.4,0.2,0.8-0.2,1.1c-0.2,0-0.3-0.3-0.6-0.1c0.5,0,0.6,0.4,0.8,0.7
		c0,1.4,1,3.1-0.9,4.1c-0.3-0.5-0.6-1-1.2-0.8c-0.8,0.3-0.7,1-0.7,1.7c-0.6-0.2-1.7,1.2-1.9-0.5l0,0c1.2-0.9,0.3-2.3,1-3.4
		c0-0.3,0-0.6,0.1-0.9l0,0c0.7-0.7,0.3-1.6,0.5-2.4c1.8-0.9,1.7-3,2.8-4.4c0.2-1,0.5-2,0.1-3c-0.2-0.7-0.1-1.6-0.1-2.4
		c0-8.1,0-16.2,0-24.3c0.1,0,0.3-0.1,0.4-0.1c0,8.1,0,16.3,0.1,24.4c0,0.8-0.3,1.8,0.4,2.5C25.6,184.2,25.7,184.3,25.5,184.5z"/>
	<path class="st43" d="M24.5,186.9c0.1,0.7-0.9,1.1-0.3,2.1c0.7,1.1,0.4,1.4-1.1,1.5c-0.7,0-0.9,0.5-1.4,0.8c0-0.2,0-0.4,0-0.6
		c-0.1-0.2-0.1-0.3,0-0.5c0.5-0.4,0.4-0.9,0.5-1.4l0,0C22.6,187.8,23.5,187.2,24.5,186.9z"/>
	<path class="st40" d="M21.2,194.5c-0.1,1.2,0.6,2.6-1,3.4c0-0.9,0.8-1.6,0.1-2.7C19.7,194.4,20.8,194.7,21.2,194.5z"/>
	<path class="st44" d="M19.4,191.4c0.4,0.1,0.9,0.2,1,0.6c0.1,0.6-0.5,0.7-1,0.8c-0.4,0.1-0.6-0.2-0.6-0.5
		C18.8,191.8,18.9,191.5,19.4,191.4z"/>
	<path class="st45" d="M21.7,190.3c0,0.2,0,0.3,0,0.5c-0.7,0.4-1.3,0.3-1.9-0.7C20.5,190.3,21.1,189.4,21.7,190.3z"/>
	<path class="st46" d="M21.2,193.6c-0.2,0.1-0.4,0.2-0.6,0.2c-0.3,0.1-0.6,0.1-0.6-0.3c0-0.3,0.3-0.3,0.5-0.3
		C20.8,193.2,21,193.4,21.2,193.6L21.2,193.6z"/>
	<path class="st45" d="M22.1,188.8c-0.3-0.1-0.6-0.3-0.6-0.6c0,0,0.2-0.2,0.3-0.2C22.1,188.2,22.1,188.5,22.1,188.8L22.1,188.8z"/>
	<path class="st20" d="M30.3,80.8c0.1,1.1-0.3,2.2,0.5,3.2c0.2,0.3,0.1,0.6,0,0.9c-0.8,1.4-0.7,3-1,4.6c-0.3,1.8-0.6,3.4,0.4,5
		c0.2,0.3,0.2,0.7-0.1,0.9c-1.8,1.4-1.3,3.2-0.8,5c0.2,0.8,0.2,1.5-0.9,1.6c0.2-0.5,0.4-1,0.2-1.6c-0.4-1.8-0.6-3.6,0.5-5.3
		c0.1-0.2,0.2-0.5,0.2-0.7c-1-2.1-0.2-4.2,0.1-6.3c0.3-2.1,0.5-4.1,0.5-6.2C29.9,81.5,30,81.1,30.3,80.8z"/>
	<path class="st47" d="M49.5,28.5c-0.1,0.7-0.2,1.4-0.3,2.1c1.5,0.4,1.5,0.4,2.4,1.3c0.4-0.6,0.1-1.2,0.3-1.8c0.1-0.6,0.5-1.1,1.1-1
		c0.8,0,0.8,0.7,0.7,1.2c0,0.5-0.5,1.2-0.3,1.6c0.6,1-1,1.6-0.5,2.3c0.5,0.8,0.9,1.4,0.8,2.4c-0.1,0-0.2,0.1-0.3,0.1
		c-0.4-0.1-0.7-0.6-1.2-0.5c-0.4,0.1-0.9,0.2-1.3,0c-0.2-0.1-0.3-0.1-0.5-0.2c-0.5-0.2-1.2,0.1-1.7-0.3c-0.4-0.6-0.3-1.4-0.6-2
		c-0.1-0.2-0.1-0.4-0.2-0.6c-0.1-0.4-0.1-0.8-0.1-1.3c0-0.3,0-0.6,0-1c0-0.8,0.2-1.5,0.7-2.2c0.1-0.2,0.3-0.3,0.6-0.3
		C49.3,28.4,49.4,28.5,49.5,28.5z"/>
	<path class="st48" d="M57.6,35.7c0,0.8,0,1.6,0,2.4c-0.2,0.2-0.6,0.2-0.9,0.2c-0.4,0.1-0.8,0.1-1.1,0.2c-0.2,0.2-0.4,0.3-0.6,0.6
		c-0.1,0.1-0.3,0.2-0.5,0.3c-0.4,0-0.7-0.2-0.9-0.6c0-0.4-0.1-0.8-0.1-1.2c0-0.3,0-0.6,0.3-0.8l0.1-0.1c0.7,0.4,1.3,0.7,1.4-0.5
		c0-0.6,0-1.2,0-1.8c0.3-0.2,0.5,0,0.7,0.1s0.5,0.2,0.7,0.2s0.4,0.1,0.5,0.2C57.5,35,57.4,35.4,57.6,35.7z"/>
	<path class="st14" d="M49.5,25.6c0.3-0.2,0.7-0.4,1.2-0.7c-0.8-0.6-1.5-1.2-1.2-2.2c0-0.1,0.1-0.1,0.2-0.1c0.1,0,0.1,0.1,0.2,0.1
		c1.7,2,2,4.3,1,6.7c-0.3-0.3-0.5-0.8-0.5-1.2C51,27,48.7,26.9,49.5,25.6z"/>
	<path class="st34" d="M53.1,25.7c0.7,0.1,1.1,0.5,1.1,1.2c0,0.4,0,0.8-0.5,0.9c-0.6,0.1-1.3-0.6-1.3-1.3
		C52.4,26.1,52.7,25.7,53.1,25.7z"/>
	<path class="st49" d="M55.7,34.8c-0.2-0.2-0.3-0.3-0.5-0.5c0-0.3,0-0.6,0-0.9c0.5-0.3,0.9-0.3,1.4,0c0.4,0.5,0.4,1,0,1.5l0,0
		C56.4,35,56.1,35,55.7,34.8z"/>
	<path class="st47" d="M50.9,28c0,0.5,0,1,0,1.5c-0.7,0.1-0.9-0.6-1.4-0.9l0,0c-0.2-0.2-0.2-0.4-0.1-0.6c0.2-0.1,0.4-0.2,0.6-0.3
		C50.4,27.6,50.7,27.8,50.9,28z"/>
	<path class="st14" d="M51.4,22.3c-0.5-0.2-0.8-0.5-1-1C51.1,21.3,51.4,21.6,51.4,22.3z"/>
	<path class="st14" d="M50.5,22.7c0.3,0,0.6,0,1,0C51.1,23.2,50.8,23.2,50.5,22.7z"/>
	<path class="st14" d="M50,20.8c-0.5-0.3-0.5-0.6,0-1C50,20.2,50,20.5,50,20.8z"/>
	<path class="st14" d="M50.5,21.3c-0.2-0.2-0.3-0.3-0.5-0.5C50.1,21,50.3,21.1,50.5,21.3z"/>
	<path class="st42" d="M24.5,192.7c0.4-0.2,0.5-0.6,0.5-1c0.3-0.2,0.5-0.5,0.4-0.8c-0.7-2.4,1.3-3.8,2.1-5.7c0.2-0.4,0.5-0.7,1-0.4
		c0.3,0.2,0.2,0.5,0.2,0.9c-0.2,2.2,0.3,4.4,0,6.7c-0.1,1,1.1,2.2,1.8,3.2c0.4,0.6,1.1,0.6,1.8,0.3s0.9-0.9,0.7-1.6
		c-0.4-1.2,0.2-2,1-3.1c0.7,1,0.4,1.8,0.5,2.6c0.1,0.3,0.1,0.6,0.5,0.7c0.4,0.1,0.7-0.1,0.8-0.4c0.3-0.7,0.8-1,1.5-0.9
		c1.2,0.1,2.4,0,2-2c1.8,0.9,2.5,2,2.9,3.5c0.9,2.9,0.8,6,1.4,8.9c0.5,2.3,1.2,4.5,1,6.8c-0.1,0.5,0.3,0.9,0.4,1.3
		c0.5,1.3,1,2.6,0.8,4.1c-0.2,1.6-0.3,3.6,2,4c-0.3,0.7-0.6,0.7-0.9,0.8c-1.6,0.4-2.1,1.8-0.9,2.8c1.1,0.9,1.4,1.7,1,3.1
		c-0.3,0.8-0.2,1.8,0,2.6c0.5,2.4,0.6,4.8,0.2,7.3c-0.1,0.8-0.3,1.7,0.4,2.7c0.9,1.3,1.2,3,0.9,4.6c-0.2,1.3-0.1,2.5-0.2,3.8
		c1.6,1.7,1.9,3.6,1.8,5.9c-0.5,7.2-0.7,14.5-1.1,21.7c-0.2,3.2-0.3,6.3-0.7,9.6c0.4-0.5,0.1-1.1,0.4-1.4c1.9-1.8,1.7-4.1,1.9-6.4
		c0.8-9,1.4-18.1,2.2-27.2c0.1-0.9,0-1.9,1.2-2.9c0.7,5-0.4,9.6-0.5,14.2v0.2v0.2c-0.7,2.2,0.2,4.5-0.5,6.7l0,0
		c-0.3,0.3-0.5,0.6-0.5,1c0,4.6-0.8,9.2-0.5,13.9c-0.1,3.9-0.5,7.8-0.9,11.6c-0.3,2.7-0.4,5.4-0.5,8.1c-0.3,6.2-1,12.4-1.6,18.5
		c-0.1,1.3-0.3,2.7-0.9,3.9c-0.6,0.5,0.1,1.5-0.8,2c-1.1-1-0.8-2.3-0.6-3.5c0.7-5.5,1.8-11.1,1.6-16.6c-0.1-3.7,0-7.5-0.7-11.3
		c-0.2-0.9,0.1-1.7,0.3-2.6c0.2-1,0.8-1.9,0.6-2.8c-2.5,6-2.3,12.6-2.9,18.9c-0.4,4.4-1.7,8.9-0.8,13.5c0.3,1.5,0.3,3.2-0.6,4.6
		c-0.4,0.7-0.3,1.6-0.3,2.4c0,0.9-0.5,2.3,0.7,2.4c1.1,0.2,0.9-1.3,1.2-2c0.3-0.6,0.4-1.4,1.2-1.7c0.7,1.8-0.1,3.3-0.4,4.9l0,0
		c-0.5,0.4-0.1,1.1-0.5,1.5c-0.3,3.9-0.7,7.7-1.7,11.4c-0.1,0.4-0.2,0.8-0.2,1.2c-0.1,2.1-0.5,3.9-2.4,5.2c-0.9,0.6-0.1,1.8-1,2.4
		c-1.4,1.5-1.1,3.5-1.8,5.3c-0.3,1.2-1.7,1.9-1.8,3.3c-0.1,0.6-0.3,1.2-0.1,1.6c1.4,2.6,0.2,4.4-1.2,6.7c-1.2,1.9-2.5,2.2-4.2,2.2
		c-1,0-1.9-0.1-2.4,1c-0.2,0.5-0.7,0.9-1.4,0.6c-0.6-0.2-0.6-0.9-0.7-1.4c-0.2-1.2,0.1-2.4-0.4-3.6c-0.5,0.5,0,1.9-1.2,1.6
		c-0.8-0.2-0.4-1-0.5-1.6c-0.1-0.5,0.1-1-0.3-1.4c-0.4-1.2-0.4-2.5-0.5-3.8c-0.3-4.5-0.3-9.1-0.6-13.6c-0.2-3.3,0-6.5-0.4-9.8
		c-0.3-2.5-0.5-5.1-0.7-7.6c-0.3-4.2-0.5-8.4,0.2-12.6c0.1-0.7,0.1-1.4,0.1-2.1c0-4.3,0.4-8.7-0.1-12.9c-0.4-3.7,0.1-7.5-0.8-11.2
		c-0.1-0.6-0.1-1.3-0.1-1.9c0-3.6,0.2-7.2,0-10.8c-0.6-9.4-0.7-18.8-0.4-28.2c0.3-9.7,0.2-19.5,0.5-29.2c0.1-3.7,0.1-7.5,0.4-11.2
		c0.4-5.3,1-10.6,0.9-15.9c-0.2-0.2-0.2-0.3,0-0.5c0-0.2,0-0.3,0-0.5C25,195.9,24.3,194.3,24.5,192.7L24.5,192.7z"/>
	<path class="st50" d="M47.1,333.3c-0.3-1.4,0.7-2.8,0.3-4.8c-0.5,1.4-0.8,2.4-0.8,3.4c-0.1,1-0.7,1.3-1.7,1.3s-1.3-0.6-1.2-1.4
		c0.2-2-0.4-3.9,0.8-5.9c0.7-1.1,0.3-3,0.1-4.4c-0.3-1.4-0.3-2.6,0-4c0.2-1,0.6-2,0.8-2.9c0.2-0.8-0.6-1.7,0.2-2.5v-0.2
		c-1.5-3.3,0.9-6.4,0.7-9.7c-0.1-1.2,0-2.6,0.2-3.9c0.2-1.6,0-3.3,1.1-4.8c0.8-1.1,0.1-2.5,0.5-3.7c0.1-0.4-0.1-1,0.4-1.3
		c1.7,1.6,1.6,1.6,0.9,3.7c-0.5,1.5-1.5,3.1-0.1,4.7c0.3,0.4,0.1,0.8-0.2,1.1c-0.3,0.4-0.3,0.8-0.1,1.1c0.8,1,1.1,1.8-0.3,2.6
		c-0.3,0.1-0.2,0.8,0.1,1.1c0.9,0.8,0.7,1.9,0.7,2.9c0,3.2-0.4,6.3-0.8,9.5c-0.4,3.4-0.7,6.9-1.2,10.4c0,0.3,0,0.6,0,1.1
		c0.7-0.4,0.3-1.3,1-1.5C48.2,327.9,48.5,330.7,47.1,333.3z"/>
	<path class="st38" d="M43.8,355.4c-0.2,0.4-0.6,0.5-1,0.5c0-0.2,0-0.3,0-0.5c0-0.4-0.1-1.1,0.4-1.2C44,354.1,43.7,354.9,43.8,355.4
		z"/>
	<path class="st50" d="M46.6,334.8c0-0.5-0.1-1.1,0.5-1.5C47.1,333.8,47.1,334.4,46.6,334.8z"/>
	<path class="st28" d="M53.8,260.9c-0.4-3.7,0.5-7.3,0.5-11c0-0.8,0-1.6-0.2-2.4c-0.3,1.8-0.6,3.6-0.6,5.3c-0.1,3-0.2,6.1-0.7,9
		c-0.5,3.1-0.2,6.2-0.8,9.3c-0.5,2.8-0.5,5.7-0.6,8.5c-0.1,1.3-0.3,2.5-1.6,3.3c-0.7,0.4-1,1-0.6,1.8c0.2,0.4,0.3,0.7,0.1,1.2
		c-0.1,0.3-0.3,0.6-0.7,0.5c-0.2-0.1-0.5-0.4-0.5-0.5c0.5-1.4-0.5-2.6,0-4.1c0.4-1.3,0.2-2.9,0.3-4.4c0-3.8,0.7-7.6,0.6-11.4
		c-0.2-4.2,0.6-8.4,0.6-12.7c0-1.7,0.6-3.2-0.9-4.6c-0.3-0.2-0.1-0.9-0.1-1.4c0.8-0.7,1.4,0.5,2.2,0.3c0-1-0.9-0.9-1.3-1.3
		c-0.5-0.5-0.6-1.3,0.3-1.1c1.4,0.2,1.2-0.5,1.3-1.3c0-0.8,0.2-1.5,1-2.1c0.9,0.8,0,2.1,0.8,2.9c0.9-0.2,0.3-1.8,1.5-1.7
		c0,0.8,0,1.6,0,2.6c0.4-0.6,0.7-0.9,1-1.2c-0.6,3.5-0.3,7.1-0.9,10.6C54,257,54.7,259,53.8,260.9z"/>
	<path class="st37" d="M57.7,224.9c0-3.7-0.4-7.5,0.1-11.2c0.4-3.5,0-7.1,0.8-10.6c0.3-1.1,0.1-2.4,0.1-3.6c0-0.7-0.2-1.5,0.5-2
		c0,5.9-0.6,11.8-0.7,17.7c0,2.9-0.3,5.7-0.4,8.6C58.1,224.2,58,224.5,57.7,224.9z"/>
	<path class="st28" d="M55.3,244.1c-0.2-3.5,0.7-6.9,1.1-10.3c0-0.1,0.2-0.2,0.3-0.3C56.5,237,56.2,240.6,55.3,244.1z"/>
	<path class="st28" d="M53.4,268c0-1.7,0-3.3,0-5c0-0.6-0.1-1.3,0.5-1.7C53.7,263.5,54.2,265.8,53.4,268z"/>
	<path class="st51" d="M17.3,745.1c-0.1-1.4,0.4-2.5,1.3-3.5c0.5-0.6,1-1.3,1.4-1.9c0.3-0.6,0.4-1.3-0.3-1.7c-1.5-0.8-1-1.9-0.5-3
		c0.2,0,0.4,0.1,0.5,0.3l0.2-0.1c0,0-0.1-0.1-0.1-0.2c0-0.3-0.1,0.1,0-0.2c0-0.4,0.2-0.7,0.3-1.1c-0.3,0.1-0.5,0.5-0.8,0.3
		c-0.1-1.1-0.1-2.3,1.3-2.6c0.9-0.2,0.6-1,0.9-1.5c0.4-0.6-0.1-1.6,0.7-2.2c-0.2,2.2-0.1,4.5-0.8,6.7c-0.6,2-0.2,4.2-0.6,6.3
		c-0.1,0.4,0.2,0.9-0.4,1c-2,0.5-2.1,2.4-3,3.7c-0.1-0.1-0.1-0.2-0.2-0.2C17.2,745.3,17.3,745.2,17.3,745.1z"/>
	<path class="st52" d="M16.9,748c-0.4,0.3-0.5,0.8-0.5,1.2c0.1,1.2-0.4,2.1-1.4,2.6c-1-0.5-0.7-1.1-0.4-1.9c0.4-1.1,0.2-1.7-1.1-1
		c-1.1-0.5-2-1.6-3.3-1c-0.2-1.1,0.3-1.9,1.1-2.5c0.1,0,0.2,0,0.3,0.2c0.2-0.2-0.2-0.3,0-0.5c1-1,2.2,0,3.3-0.4
		c0.6-0.1,1.1,0,1.5,0.4c0.2,0.2,0.3,0.3,0.3,0.5c0.2,0.6-0.3,1.2,0.2,1.8C16.8,747.7,16.9,747.8,16.9,748z"/>
	<path class="st53" d="M23.1,726.9c0-0.2,0-0.3,0-0.5c0.2-0.2,0.3-0.3,0.5-0.5l0,0c0.6-0.3,1-0.4,1,0.5l0,0
		c-0.2,0.1-0.3,0.3-0.5,0.5l0,0c-0.2,0.2-0.2,0.3,0,0.5l0,0c0.3,0.6,1.1,1.1,0.5,1.9l0,0c-0.7,0.6,0.4,1.3,0,1.9l0,0
		c-0.8,0.5-0.3,1.5-0.7,2.2c-0.2,0.3-0.4,0.5-0.7,0.5c-0.4,0-0.5-0.3-0.5-0.7C22.5,731,22.6,728.9,23.1,726.9z"/>
	<path class="st54" d="M20.2,743.7c0.5,1.3-0.1,2.5-0.5,3.7c-0.2,0.7-0.8,0.6-1.4,0.6c-0.1-1.3,0.4-2.5,0.7-3.7
		C19.1,743.6,19.5,743.3,20.2,743.7z"/>
	<path class="st51" d="M16.8,747.5c-1.7-0.3-0.2-1.3-0.4-1.9c0.3-0.3,0.6-0.3,0.9,0l0,0C17.4,746.3,17.2,746.9,16.8,747.5z"/>
	<path class="st26" d="M19.3,749c-0.7,0-1.4,0-1.4-1c0.2,0,0.3,0,0.5,0C18.6,748.3,18.9,748.6,19.3,749z"/>
	<path class="st16" d="M26.9,724.9c-0.5,0.1-0.6,1.2-1.2,0.5c-0.4-0.4-0.4-1.4,0.2-1.7C26.7,723.5,26.8,724.3,26.9,724.9L26.9,724.9
		z"/>
	<path class="st7" d="M24.6,729.3c-0.2-0.6-0.3-1.3-0.5-1.9c0.4,0.3,0.8,0.5,1.1,0.9C25.7,728.9,25.2,729.2,24.6,729.3z"/>
	<path class="st7" d="M24.5,731.2c-0.2-0.6-0.9-1.3,0-1.9C24.4,729.9,25.4,730.6,24.5,731.2z"/>
	<path class="st7" d="M24.5,726.4c-0.2-0.4-0.6-0.5-1-0.5c0.3-0.4,0.7-0.6,1.2-0.2C25,725.9,24.8,726.2,24.5,726.4z"/>
	<path class="st7" d="M23.6,725.9c-0.2,0.2-0.3,0.3-0.5,0.5C23.3,726.2,23.4,726.1,23.6,725.9z"/>
	<path class="st7" d="M24.1,726.9c0.2-0.2,0.3-0.3,0.5-0.5C24.4,726.6,24.2,726.7,24.1,726.9z"/>
	<path class="st7" d="M24.1,727.4c-0.3-0.2-0.3-0.3,0-0.5C24.1,727,24.1,727.2,24.1,727.4z"/>
	<path class="st55" d="M55.3,38.1c0.5-0.8,0.9-0.1,1.4,0c0.2,0.1,0.3,0.2,0.1,0.4c0.1,0.3,0.3,0.7,0.4,1c0.2,0.5-0.1,0.9-0.3,1.2
		c-0.2,0.2-0.4,0.3-0.6,0.4c-0.2,0.1-0.5,0.1-0.7,0.1c-1.4-0.4-1.4-1.2-0.8-2.3l0,0C55.1,38.8,55,38.4,55.3,38.1z"/>
	<path class="st36" d="M56.7,34.8c0-0.5,0-1,0-1.5c0.3-0.3,0.7-0.6,1-0.9c0,1.1,0,2.2-0.1,3.3C57.3,35.4,57,35.1,56.7,34.8z"/>
	<path class="st56" d="M56.7,40.5c0.2-0.3,0.3-0.6,0.5-1c0.3,0.3,0.6,0.7,0.9,1c0.2,0.2,0.2,0.4,0,0.7c-0.7,0.6-1.4,1.3-1.9-0.2l0,0
		C56.4,40.8,56.5,40.6,56.7,40.5z"/>
	<path class="st1" d="M64.4,70.3c-0.9-1-0.3-2.3-0.5-3.4C64.8,67.9,64.2,69.1,64.4,70.3z"/>
	<path class="st55" d="M58.1,40.9c0-0.1,0-0.3,0-0.4c0-0.7,0.1-1.3,0.1-2c0.7,1.1,0.7,2.3,0,3.4C57.8,41.6,57.9,41.3,58.1,40.9z"/>
	<path class="st55" d="M59.1,38.1c-0.3-0.2-0.6-0.3-0.9-0.5C58.9,36.9,59,37.5,59.1,38.1z"/>
	<path class="st56" d="M56.8,38.5c0-0.1-0.1-0.3-0.1-0.4c0.3,0,0.6,0,1,0C57.5,38.5,57.1,38.5,56.8,38.5z"/>
	<path class="st3" d="M17.3,745.6c-0.3,0-0.6,0-0.9,0c-0.4-0.5-0.7-1.1-1.4-0.5c-0.6,0.7-1.2,0.5-1.9,0.2c-0.5-0.2-1.1-0.4-1.4,0.3
		l0,0c-0.5,0.8-1,1.6-1.5,2.4c-1-0.5-0.9-1.3-0.9-2.2c0-1.5,0.2-3-0.7-4.5c-0.6,1.7,0.2,3.4-0.6,5c-0.7-0.8-0.6-0.8-1.1-4.3
		c-0.2-1.5-0.6-3-0.4-4.5c0.9,0.6,0.2,1.7,0.7,2.5c1.2-0.5,2.3-1.1,3.9-1.8c-0.6,1.8,0.2,3.2,0.2,4.7c0,0.6,0.3,1.1,1,1.2
		c0.8,0.1,0.8-0.5,0.9-1.1c0.2-0.7,0.6-1.3,0.8-2c0.2-1.3,1.3-1.3,2.1-1.5c0.4-0.1,0.7,0.2,0.7,0.7c-0.1,0.5-0.1,1.1-0.3,1.6
		c-0.6,1.4-0.1,2.4,1,3.3v0.2L17.3,745.6z"/>
	<path class="st33" d="M13.5,749c0.1-0.6,0.3-1.2,0.8-1.7c1,0.2,0.5,1.4,1.2,1.8c0.6,0.3,0.5,1-0.3,1.3c-1,0.4-0.5,0.9-0.3,1.5l0,0
		c-0.3,0.4-0.6,0.7-1,1l0,0c-1.2,0.6-1.7,0.3-1.5-1c0-0.2,0.1-0.4,0.1-0.6c0-0.1,0.1-0.2,0.1-0.3c0.2-0.4,0.5-0.6,0.8-0.9
		C13.5,749.6,13.5,749.3,13.5,749z"/>
	<path class="st57" d="M12.1,751.8c-0.8-0.6-0.8-1.7-1.8-2.1c-0.3-0.1-0.4-0.5-0.2-0.8c0.3-0.3,0.7-0.5,1.1-0.3
		c0.7,0.4,1.3,0.9,1.9,1.3c0.3,0.3,0.2,0.6,0,1l0,0c-0.1,0.1-0.2,0.3-0.2,0.4l-0.1,0.2c-0.1,0.1-0.2,0.2-0.4,0.3
		C12.2,751.8,12.1,751.8,12.1,751.8z"/>
	<path class="st58" d="M10.6,754.2c-0.3,0-0.6,0-0.9,0c-0.1-0.8,0.1-1.7-0.1-2.6C10.4,752.3,10.6,753.2,10.6,754.2z"/>
	<path class="st59" d="M13,751.4c-0.1,0.8-0.4,1.6,1,1.4c-0.2,0.2-0.3,0.3-0.5,0.5c-0.5,0.3-1,0.3-1.4,0l0,0c-0.3-0.5-0.3-1,0-1.4
		l0,0c0.2-0.2,0.3-0.3,0.5-0.5l0,0C12.7,751.3,12.8,751.2,13,751.4C13,751.3,13,751.3,13,751.4z"/>
	<path class="st52" d="M13,750.9c0-0.3,0-0.6,0-1c0.2,0,0.3,0,0.5,0C13.5,750.3,13.4,750.7,13,750.9z"/>
	<path class="st60" d="M50.9,28c-0.3,0-0.6,0-0.9,0c-0.6-0.5-1.7-0.5-1.8-1.6s-1.1-0.5-1.7-0.9c-1.3-1.3-0.1-2,0.6-2.8l0,0
		c0.2,0,0.3,0,0.5,0c0.6,0.2,1,0.5,1.4,1c0.2,0.6,0.3,1.3,0.5,1.9c0,0.3,0.1,0.8,0.4,0.7C51.3,26.3,50.9,27.2,50.9,28z"/>
	<path class="st61" d="M49,17.2c-0.7-1.7-0.4-2.9-0.4-4c0-0.4,0.2-0.8,0.8-0.7c0.5,0.1,0.6,0.6,0.5,1C49.4,14.5,49.7,15.7,49,17.2z"
		/>
	<path class="st22" d="M49,23.7c-0.7,0-1.4,0-1.4-1l0,0c0.5-0.7,1-0.7,1.5,0C49,23,49,23.4,49,23.7z"/>
	<path class="st60" d="M49,22.7c-0.5-0.3-1-0.3-1.5,0c0.1-0.5,0.2-0.9,0.8-0.9C48.9,21.9,49,22.3,49,22.7z"/>
	<path class="st50" d="M58.6,43.4c1,0.5,2.1,1,0.9,2.2c-0.9,1,0.5,1.6,0.3,2.3c-0.2,0.7-0.9,1.3-0.6,2.2c1.3,3.7,1.7,6.2,1.4,8.9
		c-0.8,0.2-1.1-0.8-1.9-0.7c-0.7,0.1-1.4,0-2.3,0c1.1,2.2,0.8,4-0.1,5.8c-0.2,0-0.4,0.1-0.5,0.1c-2.2-1.5-2.2-1.5-3.4,0.9
		c-0.2,0.4-0.3,0.7-0.5,1.1c-0.3,0.5-0.6,0.7-1.1,0.3c-1-0.8-2.1-0.9-3.4-1.1c0.1-1,0.2-1.8,0.4-2.7c0.1-0.5,0.4-0.9,1-0.9
		s0.8,0.4,0.8,0.9c0,0.4,0.1,0.8,0.2,1.2c0.2,0.5,0.6,0.7,1.2,0.5c1.4-0.5,1.8-2.1,0.8-3.2c-1.4-1.6-1.4-1.6-3.4-0.5
		c-0.3,0.2-0.7,0.4-1,0.6c-0.4,0.3-0.8,0.6-1.3,0.3c-0.4-0.3-0.1-0.7,0-1.1c0.1-0.3,0.1-0.6,0.1-0.9c0.2-2.3,0.2-2.3-1.9-3.9
		c-0.7,0.5-0.4,1.9-1.6,2.1c-0.3,0.1-0.4,0.7-0.2,1.1s0.5,0.2,0.8,0.1c0.4-0.1,0.8-0.4,0.9,0.3c0.1,0.4,0,0.8-0.4,1
		c-0.5,0.2-1.1,0.6-1.6,0.5c-2.2-0.5-3.5,1.2-5.2,2c0.1-1-1.1-0.8-1.4-1.4c-0.2,0.3,0.2-0.5,0.2-0.2s0.4,0.2,0.2,0
		c-0.5-0.5-1.1-0.7-1.8-0.4c-0.5-0.8-0.5-0.8,0.9-0.9c0.2-0.4,1.1-0.5,0.7-1.2c-0.2-0.4-0.8-0.2-1.2-0.3c-0.7-0.8-0.6-1.6,0-2.4
		c1.2-1,0.3-3.1,2-3.9c0.4,0,0.7,0,1-0.4l0,0c0.2-0.3,0.7-0.2,0.9-0.5c0.2-0.2,0.3-0.3,0.5-0.5c0-2.7,1.7-5,1.4-7.7
		c0.7-1.2,0.4-2.6,1-3.8c0.4-0.7,0.4-1.6,0.5-2.4c0.2-0.2,0.3-0.3,0.5-0.5c0.2-0.3,0.5-0.3,0.8-0.3c0.4,0.1,0.8,0.3,1.1,0.6
		c0.1,0.2,0.1,0.4,0.1,0.6c0,0.4-1.1,0.9,0.1,1.3c1.2,0.1,2.5-0.1,3.7,0.2c0.2,0.1,0.4,0.2,0.6,0.4c0.2,0.3,0.2,0.7-0.1,1
		c-0.2,0.3-0.6,0.4-0.9,0.6c0.4,0,0.5-0.3,0.8-0.5c0.7-0.4,0.9,0.3,1.3,0.6c0.3,0.5,0.5,1,0.2,1.5c-0.1,0.2-0.3,0.5-0.4,0.7
		l-0.1,0.1l0.2,0.1c0.2,0,0.3,0,0.5,0.1c0.1,0,0.2,0.1,0.3,0.1s0.2,0.1,0.2,0.1c1.2,0.8-0.2,1.9,0.7,3.4c-0.3-1.7,0-2.6,0.9-3.3
		c0.1-0.3,0.3-0.6,0.4-0.9c0.1-0.2,0.3-0.3,0.5-0.4c0.3-0.1,0.6,0,0.9,0.2c0.3,0.3,0.3,0.7,0.4,1.1c0.1,0.2,0.1,0.4,0.1,0.5
		c0.1,0.2,0.1,0.4,0.2,0.5c0.1,0.3,0.1,0.5,0.1,0.8c0,0.2,0.1,0.3,0.2,0.5c0.2,0.1,0.3,0.1,0.5,0.2c0.2,0,0.4,0,0.6,0
		c0.8,0.1,1.8,0.4,1.1-1.1c-0.3-0.7,0-1.2,0.6-1.6c0.1,0,0.2-0.1,0.3-0.1C58.2,43.2,58.4,43.2,58.6,43.4z"/>
	<path class="st62" d="M40.4,42.9c0,1.2,1.3,0.7,1.8,1.5C40,45,40,46.9,39.5,48.6c-0.2,0.7,0.2,1.5-0.5,2
		C38.6,47.9,39.7,45.4,40.4,42.9z"/>
	<path class="st63" d="M37.1,44.9c0.5-0.4,0.4-1,0.4-1.5c0.5-0.5,0.8-0.4,0.9,0.2c0.1,0.4,0,0.8,0,1.2c-0.2,0.2-0.5,0.4-0.7,0.5
		C37.1,45.7,37.1,45.3,37.1,44.9z"/>
	<path class="st50" d="M39,37.2c1-0.6,1.3-0.1,1.3,0.8C39.7,38.1,39,38.2,39,37.2z"/>
	<path class="st45" d="M39.2,43c-0.4-0.2-0.6-0.6-0.6-1c0-0.3,0.2-0.4,0.5-0.3s0.7,0.2,0.5,0.6C39.5,42.7,39.4,42.8,39.2,43z"/>
	<path class="st45" d="M39.2,44.2c0.1,0.1,0.2,0.3,0.2,0.4s-0.1,0.2-0.2,0.4c-0.1-0.1-0.2-0.3-0.2-0.4C39,44.5,39.1,44.3,39.2,44.2z
		"/>
	<path class="st32" d="M38.5,51.1c-0.2,0.4-0.5,0.5-0.9,0.5C37.7,51.1,38.1,51.1,38.5,51.1z"/>
	<path class="st57" d="M14.9,216.2c-0.5,0-1-0.1-1.1-0.7c-0.1-0.5,0.8-1.3,1.5-1.2c0.6,0.1,1,0.4,1,1.1
		C16.3,216,15.8,216.3,14.9,216.2z"/>
	<path class="st39" d="M12.5,221.5c0.2-0.6-0.5-1.8,0.8-1.7c1.1,0.1,1.2,1,0.7,1.9c-0.1,0.2-0.1,0.5-0.1,0.7l0,0
		c-0.1,0.1-0.2,0.1-0.3,0.1s-0.2-0.1-0.2-0.1l0,0c-0.1-0.2-0.3-0.3-0.5-0.5l0,0C12.9,221.8,12.7,221.6,12.5,221.5L12.5,221.5z"/>
	<path class="st11" d="M47.1,22.7c-0.4,0.9-1.1,1.8-0.5,2.9c0,0.1,0,0.2,0,0.3c-0.2,1.6-1.3,1.6-2.5,1.2c-0.2-0.2-0.1-0.4,0.1-0.6
		c-0.2-1,0.8-1.9,0-2.9C45,22.8,46.1,23,47.1,22.7z"/>
	<path class="st11" d="M46,21.7c-0.1,0.1-0.1,0.3-0.2,0.4c-0.1,0-0.3-0.1-0.4-0.2c0.1-0.1,0.1-0.3,0.2-0.4
		C45.7,21.5,45.8,21.6,46,21.7z"/>
	<path class="st64" d="M57.7,28c0.7,0.9,0.5,1.6,0.4,2.3c-0.2,0.7-0.8,0.7-1.3,0.4c-0.5-0.2-0.2-0.6,0-1C57,29.3,57.3,28.7,57.7,28z
		"/>
	<path class="st65" d="M56.2,26.6c0.5-0.1,1-0.7,1.3,0.1c0.1,0.3,0,0.7-0.3,0.8C56.5,27.6,56.3,27.2,56.2,26.6L56.2,26.6z"/>
	<path class="st37" d="M36.6,52c-0.5,1.3-1.2,2.6-1,4.1c0.1,0.4-0.1,0.9-0.6,0.8s-0.2-0.7-0.3-1c-0.1-1,0.6-1.9,0.4-2.9
		c0.1-0.4,0.1-0.7,0.5-1C35.9,51.7,36.2,51.7,36.6,52L36.6,52z"/>
	<path class="st66" d="M34.6,58.2c0.4-0.4,0.8-0.8,1.4-0.7c0.6,0.1,1,0.4,1,1.1s-0.3,1-1,1c-0.3,0-0.6,0-0.9,0
		C34.9,59.2,34.6,58.8,34.6,58.2z"/>
	<path class="st67" d="M33.7,65c0-0.2,0-0.5-0.1-0.7c-0.3-0.6-0.4-1.3,0.4-1.5c0.7-0.2,1.2,0.4,1.4,1c0.3,0.8-0.3,1.1-1,1.2
		C34.1,65,33.9,65,33.7,65L33.7,65z"/>
	<path class="st37" d="M34.2,60.6c0.9-0.8,1.7-0.3,2.5,0.2c-0.3,0.5-0.7,0.3-1.1,0.3C35.1,61,34.6,60.8,34.2,60.6z"/>
	<path class="st68" d="M33.2,67.4c0,0.2,0,0.3,0,0.5c-0.5,0-0.9-0.2-0.9-0.9C32.7,66.9,33,67,33.2,67.4z"/>
	<path class="st69" d="M11.1,237c0-0.2,0.1-0.4,0.4-0.5c0.3,0,0.4,0.2,0.4,0.4c-0.1,0.2-0.3,0.4-0.4,0.5
		C11.2,237.5,11.2,237.2,11.1,237z"/>
	<path class="st23" d="M40.4,379.4c0-1.1,0-2.3,0-3.4C41.6,377.1,41.2,378.3,40.4,379.4z"/>
	<path class="st38" d="M42.4,372.4c0.4,0.2,0.4,0.6,0.4,1c0,0.2-0.2,0.4-0.5,0.3c-0.3-0.2-0.4-0.5-0.3-0.8
		C41.9,372.6,42.1,372.4,42.4,372.4z"/>
	<path class="st19" d="M44.2,26.6c0,0.2,0,0.3,0,0.5c1.6,0.4,2.9,1,2.3,3c-0.1,0.2-0.3,0.4-0.5,0.5c-0.1,0-0.2-0.1-0.3-0.1
		c0-0.5,0.1-1.1-0.2-1.6c-0.6-0.2-0.8,0.5-1.2,0.5c-0.7,0.1-1.3-0.2-1.6-0.7s0.2-0.9,0.6-1.2C43.5,27.1,43.8,26.9,44.2,26.6z"/>
	<path class="st19" d="M45.2,31.4c-0.8,0-0.7-0.4-0.5-1c0.3,0,0.6,0,0.9,0l0.1,0.1c0.2,0.3,0.2,0.6,0.1,0.9
		c-0.1,0.1-0.2,0.2-0.4,0.1C45.3,31.4,45.2,31.4,45.2,31.4z"/>
	<path class="st19" d="M44.7,30.4c-0.3,0-0.6,0-1,0C44.1,29.9,44.4,29.9,44.7,30.4z"/>
	<path class="st19" d="M43.7,30.4c-0.2,0.2-0.3,0.3-0.5,0.5C43.4,30.7,43.6,30.6,43.7,30.4z"/>
	<path class="st22" d="M43.2,36.2c-0.3,0-0.6,0-0.9,0c0.1-0.5,0.1-0.9,0.2-1.4c0.2-1.2,1-1.7,2.2-1.5c0.3,0,0.6,0,0.9,0.2
		c0.2,0.1,0.3,0.3,0.4,0.4c0.2,0.3,0.4,0.7,0.7,0.9c0.2,0.2,0.4,0.4,0.5,0.7c0.1,0.2,0.1,0.4,0.1,0.6c-0.1,0.2-0.2,0.3-0.3,0.5
		c-0.1,0.1-0.3,0.2-0.4,0.3c-0.2,0.1-0.5,0.3-0.7,0.4s-0.4,0.1-0.5,0.1c-0.5,0-0.8-0.3-1.1-0.8l0,0C44,36.4,43.5,36.4,43.2,36.2z"/>
	<path class="st19" d="M45.6,33.7c-0.4,0-0.7,0-0.9-0.4c0-0.9,0.5-0.7,1-0.5c0.3,0,0.5,0.1,0.5,0.3C46.2,33.5,45.9,33.6,45.6,33.7z"
		/>
	<path class="st22" d="M45.6,33.7c0.1-0.3,0.6-0.5,0.1-0.9c0-0.3-0.1-0.6-0.1-0.9c0.1,0,0.2-0.1,0.4-0.1c0.7,0.2,1.1,0.7,0.9,1.4
		C46.8,33.9,46.4,34.2,45.6,33.7L45.6,33.7z"/>
	<path class="st22" d="M45.2,31.4c0.1,0,0.3,0,0.4-0.1c0.1,0.1,0.1,0.1,0.2,0.2c0,0.1-0.1,0.2-0.1,0.3l-0.1,0.1
		C45.5,31.7,45.3,31.6,45.2,31.4z"/>
	<path class="st70" d="M33.2,78.9c-0.4-0.1-1,0.3-1.1-0.5c0-0.4,0.2-0.9,0.7-0.7C33.4,77.9,33.1,78.5,33.2,78.9L33.2,78.9z"/>
	<path class="st61" d="M33.8,75.5c-0.1,0-0.3-0.1-0.4-0.4c0-0.4,0.3-0.5,0.6-0.4c0.2,0,0.5,0.2,0.4,0.5
		C34.4,75.4,34.2,75.5,33.8,75.5z"/>
	<path class="st38" d="M42.7,362c-0.4-0.2-0.4-0.5-0.4-0.9l0,0c0.1-0.1,0.2-0.1,0.3-0.1s0.1,0.1,0.1,0.1
		C42.7,361.5,42.7,361.7,42.7,362z"/>
	<path class="st6" d="M42.8,361.2c-0.1,0-0.3,0-0.4,0C42.5,360.8,42.6,360.8,42.8,361.2z"/>
	<path class="st10" d="M12.1,753.3c0.5,0,1,0,1.4,0C13,753.9,12.5,753.9,12.1,753.3z"/>
	<path class="st59" d="M14,752.8c0.2-0.5,0.5-0.8,1-1C14.9,752.5,14.6,752.8,14,752.8z"/>
	<path class="st71" d="M34.6,71.2c0.2,0,0.3,0,0.5,0c0.2,0.2,0.2,0.5,0.2,0.8c-0.1,0.3-0.4,0.4-0.7,0.6l0,0c-0.6,0.3-1-0.2-1.4-0.5
		c-0.6-0.3-0.5-0.9-0.5-1.4c0.2-0.1,0.3-0.3,0.5-0.5l0,0C33.7,70.6,34.2,70.9,34.6,71.2z"/>
	<path class="st13" d="M12.5,221.5c0.2,0.2,0.3,0.3,0.5,0.5C12.8,221.8,12.7,221.6,12.5,221.5z"/>
	<path class="st13" d="M13.5,222.4c0.2,0,0.3,0,0.5,0C13.8,222.7,13.7,222.7,13.5,222.4z"/>
	<path class="st13" d="M13,222c0.2,0.2,0.3,0.3,0.5,0.5C13.3,222.3,13.2,222.1,13,222z"/>
	<path class="st50" d="M36.6,52c-0.3,0-0.7,0-1,0c0-0.3,0.1-0.7,0.4-0.7C36.5,51.2,36.5,51.6,36.6,52z"/>
	<path class="st68" d="M34.6,68.3c0.3-0.5,0.6-0.5,1,0C35.3,68.3,34.9,68.3,34.6,68.3z"/>
	<path class="st68" d="M33.7,68.3c0.3,0,0.6,0,0.9,0C34.3,68.8,34,68.8,33.7,68.3z"/>
	<path class="st68" d="M33.2,67.9c0.2,0.2,0.3,0.3,0.5,0.5C33.5,68.2,33.3,68,33.2,67.9z"/>
	<path class="st72" d="M25.5,369.3c0.5,0.3,0.5,0.8,0.5,1.3c0,0.4-0.2,1,0.6,1.5c0.3-0.8-0.3-1.5-0.1-2.2c0.1-0.3,0.1-0.6,0.4-0.8
		c0.4-0.1,0.6,0.1,0.8,0.4c0.5,0.7,0.7,1.6,0.7,2.5c0,1.1-0.2,2.2,0.1,3.2c0.6,0.3,0.8,0,0.9-0.3c0.4-1.4,1.1-2.1,2.6-1.4
		c0.9,0.4,1.8-0.6,2.8-0.1c0.2,0.1,0.6-0.3,0.6-0.6c0-1.3,0.9-2,1.6-2.8c1.2-1.3,1.2-1.6,0.2-3.4c-0.7-1.2,0-4.5,1.1-5.4
		c0.4-0.3,0.7-0.6,1.1-0.9c0.1,3.1,0.5,6.3-0.6,9.1c-0.8,2.2-2.2,4.3-3.8,6.3c-0.3,0.6-0.4,1.2-0.5,1.8c-0.2,1.8-1.5,3-3,3.7
		c-0.7,0.3-1.8-0.3-2.6,0.5c-0.3,0.3-0.9-0.3-0.9-0.8c-0.1-0.9,0-1.9,0-2.9c0.8,0,1.5-0.1,1.8,0.8c0.2,0.5,0.5,0.9,1.1,0.6
		c0.5-0.3,0.4-0.8,0.4-1.3c0-0.7-0.5-0.9-1-1.2c-5.2-2.8-4.6-1.6-4.7-6.9C25.5,369.6,25.5,369.4,25.5,369.3z"/>
	<path class="st73" d="M35.1,375.5c0.8-1.9,0.8-4.2,3-5.4c0.3-0.2,0.4-0.5,0.4-0.8c0.1-3.1,1-6,1-9.1c-0.2-1.3,0.5-2.5,0.6-3.7
		c0-0.7,0.7-1.2,1.4-1.5c-1.1,2.9-1.3,6-1.8,9c-0.2,0.8,0.3,1.5,0.6,2.3c0.5,1.6,0.6,3-1,4.3c-0.6,0.5-0.9,1.2-0.8,2.2
		c0.2,2.6,0.1,5.3-1,7.9c-0.2,0.5-0.4,1-1.1,1.5c-0.1-1.6,0.5-2.9,0.8-4.2C37.3,376.9,36.4,375.8,35.1,375.5z"/>
	<path class="st0" d="M24.1,197.9c0,0.2,0,0.3,0,0.5c-0.2,0-0.3,0-0.5,0C23.7,198.2,23.9,198.1,24.1,197.9z"/>
	<path class="st2" d="M2.9,521.4c0.3-3.7-0.6-7.3-0.5-10.9c0.1-4.4,0.8-8.7,0.5-13.1c1.2-0.5,1.3,0.3,1.1,1.1
		c-0.3,1.7-0.1,3.3-0.2,5c0,3.5,0,7,0,10.5c0,2.2,0.1,4.4,0.3,6.5C4.3,521.7,3.8,521.8,2.9,521.4z"/>
	<path class="st0" d="M2,460.5c0-1.4,0-2.9,0-4.3c1.1,0.9,1,2.2,0.9,3.5C2.9,460.2,2.5,460.4,2,460.5z"/>
	<path class="st2" d="M3.4,526.2c0-0.6,0-1.3,0-1.9c0.1-0.2,0.1-0.9,0.4-0.4C4.6,524.7,4.6,525.7,3.4,526.2z"/>
	<path class="st0" d="M2,452.3c0-0.6,0-1.3,0-1.9C3.2,451,2.7,451.7,2,452.3z"/>
	<path class="st0" d="M2,449c0-0.3,0-0.6,0-1c0.5-0.5,0.7,0,0.8,0.3C2.8,448.9,2.4,448.9,2,449z"/>
	<path class="st0" d="M2.5,465.3c0-0.5,0-1,0-1.4C3.4,464.3,3.4,464.8,2.5,465.3z"/>
	<path class="st48" d="M13,228.6c-0.1,0.4,0,0.8-0.6,0.7c-0.1,0-0.2-0.1-0.2-0.2C12.2,228.7,12.7,228.7,13,228.6L13,228.6z"/>
	<path class="st0" d="M10.7,624.6c-1.2,0.4-1,1.3-1,1.9c0,3.1,0,6.2,0,9.3c0,0.5,0,1,0,1.4c0,0.7,0,1.5-0.8,1.6
		c-1,0.1-0.5-0.9-0.7-1.5c-0.4-1.1-0.3-2.1-0.2-3.3c0.3-2.9,0.5-5.8-0.1-8.7c-0.1-0.4-0.1-0.8-0.7-1.1c-1.3,0.9-1.5,2.8-2.8,3.8
		c-0.6-0.4-0.4-1-0.4-1.5c0-5.6-0.4-11.2,0.1-16.8c0.6-7.5,0.2-15,0.4-22.5c0-1.3,0.2-2.6,0-4c-0.3-1.8,0.8-3.2,1.8-4.7
		c0.7,0.6,1,1.9,2.2,1.1c0.5-0.4,1-0.6,1-1.4c-0.1-0.9,0.2-1.9,0.3-2.8c0.1-0.5,0.3-1,0.9-0.9c0.5,0.1,0.8,0.3,0.9,0.9
		c0.1,0.9-0.4,1.9,0.3,2.7c0.7,0.1,0.7-0.6,1.1-0.8c0.5-0.3,1.1-0.1,1.1,0.4c-0.1,1.7,0.5,3.1,1.7,4.2c0.3,0.3,0,0.7-0.1,1.1
		c-0.2,0.7-1.1,0.6-1.5,1.3c0.8,0.9,2.1,1.5,2.1,3c0,0.1,0.3,0.4,0.5,0.4c0.3,0,0.6-0.3,0.6-0.6c0.2-0.9,0-1.9,0.5-2.8
		c0.2-0.3,0.2-0.9,0.7-0.8c0.4,0,0.7,0.4,0.8,0.7c0.2,0.5,0.3,1,0.4,1.6c0.4,2.1,1.3,4.1,0.2,6.2c0.6,1.8,0.3,3.6,0,5.4
		c-0.3,1.3-0.3,2.7,0.3,4c0.4,0.9-0.7,2.3,0.4,2.6c1.1,0.3,1-1.6,2-2.3c0.2,1.4,0.4,2.8,0.5,4.1c0.1,0.7,0,1.5,0.8,1.8
		c0.7,0.3,1.2-0.1,1.6-0.7c0.3-0.4,0.6-0.6,0.9,0c0.7,1.5,1.3,0.5,1.2-0.2c-0.1-1.5,1.7-1.1,1.9-2.2c0.2-1-0.4-2,0.1-3
		c0.1-0.2,0.2-0.4,0.3-0.6c0.2-0.3,0.5-0.7,0.9-0.5c0.4,0.1,0.4,0.5,0.4,0.8c0,1.1,0.1,2.2-0.4,3.3c0.9,0.5,1.6-0.7,2.5,0.1
		c0.7,0.6,1.1-0.5,1.2-1c0.1-1.3,0.6-2.6,0.3-4c-0.1-0.3,0.2-0.6,0.6-0.7c0.4-0.1,0.5,0.2,0.7,0.5c0.8,1.3,0.8,1.3,1.4,0.1
		c0.2-0.3,0.1-0.8,0.7-0.9c0.5,0.4,0.3,1,0.2,1.5c-0.6,4.1-0.6,8.2-1.1,12.3c-0.4,4.2-0.9,8.4-0.8,12.6c0,1.6-0.7,3.2-0.7,4.9
		c-0.1,1.9,0,3.8-0.3,5.7c-0.1,1.1,0.2,2.5-1.7,2.8c-1,0.2-1,1.7-1.1,2.7c-0.2,0.9,0,2-1.5,1c-0.8-0.5-1.3,0.1-1.8,0.7
		c-0.2,0.2-0.4,0.6-0.2,0.9c0.2,0.4,0.6,0.5,1,0.3c0.5-0.2,1-0.4,1.5-0.6c1.2,1.4,0.5,3,0.9,4.4c0.1,0.6-0.4,0.9-0.9,0.7
		c-0.8-0.2-1.5-0.5-1.8-1.4c-0.1-0.5-0.4-0.9-1-0.7s-0.5,0.8-0.4,1.2c0.5,1.8-1,3.4-0.6,5.2c0,0-0.2,0.1-0.4,0.2
		c-0.9-1-0.4-2.1-0.5-3.2c-0.1-1,0-1.9,0-2.9c0-0.9-0.3-1.3-1.3-1.1c-1.5,0.2-1.6,0-1.2-1.5c0.1-0.3,0.3-0.5,0.1-0.8
		c-0.9-1.2-0.2-2.5,0.1-3.6c0.2-0.8,0.3-1.3-0.3-1.9c-0.4-0.4-0.7-1-1.1-1.6c-0.8-1.3-0.8-1.3-1.7-0.1c-0.2,0.3-0.4,0.5-0.7,0.4
		c-0.2-0.1-0.4-0.3-0.4-0.5c-0.1-1.6-0.8-3.1-0.6-4.7c0.4-2.8-0.6-3.8-3.4-3.2c-0.4-0.7,0.5-1.2,0.1-2c-0.8-1.5-1.4-3.2-0.6-5
		c0.1-0.2,0-0.5-0.2-0.6c-0.3-0.2-0.6-0.1-0.8,0.1c-0.4,0.3-0.8,0.7-0.7,1.2c0.3,2.1-1.1,3.8-1.2,5.8C11,627.3,11,627.3,10.7,624.6
		c0.5-0.9,1.9-1.5,1-3.2C11.1,622.6,11.5,623.8,10.7,624.6z"/>
	<path class="st0" d="M19.5,674c-0.7-2.5-0.9-4.7-0.7-6.9c0-0.5,0.1-1,0.7-1c0.5,0,0.6,0.4,0.7,0.8C20.8,669.2,21.7,671.6,19.5,674z
		"/>
	<path class="st0" d="M9.6,644.2c-0.4,1,0.2,1.9,0,2.8c-0.1,0.5-0.1,1-0.7,1c-0.5,0-0.6-0.4-0.7-0.8c-0.6-1.9,0.2-3.7,0.1-5.6
		c0-0.2,0.2-0.4,0.5-0.4c0.4,0,0.6,0.2,0.7,0.5C9.8,642.5,9.6,643.4,9.6,644.2z"/>
	<path class="st0" d="M9.2,650.4c0.8,2,0.8,6.4,0,8.5C8.5,657.2,8.5,652,9.2,650.4z"/>
	<path class="st0" d="M10.1,679.4c0.2-1-0.5-1.8-0.5-2.8c0.1-0.9,0.5-1.1,1.2-0.7c0.8,0.5,1.2,1.2,1.1,2.2
		C11.9,679.2,11.1,679.4,10.1,679.4z"/>
	<path class="st0" d="M9.4,666.7c0.6,1.8,1,3.4,0.6,5.1C8.4,670.6,8.2,669.3,9.4,666.7z"/>
	<path class="st0" d="M31.2,655.4c0.9,0,1,0.6,1,1.3s-0.1,1.3-0.9,1.4c-0.6,0.1-1.5-0.9-1.4-1.6C30,655.8,30.5,655.4,31.2,655.4z"/>
	<path class="st0" d="M20.4,675.8c-0.1,0.4-0.2,0.9-0.7,0.9c-0.7,0-1-0.5-0.9-1.1c0-0.4,0.2-0.8,0.7-0.8
		C20.1,674.9,20.4,675.3,20.4,675.8z"/>
	<path class="st0" d="M4.6,643.2c-0.3-1-0.3-1.7-0.1-2.3C5.4,641.8,5.4,641.8,4.6,643.2z"/>
	<path class="st0" d="M4.4,647.8c0-0.3,0-0.7,0.3-0.8c0.5-0.1,0.6,0.3,0.7,0.7c0.2,0.4-0.1,0.6-0.4,0.7
		C4.6,648.6,4.5,648.2,4.4,647.8z"/>
	<path class="st0" d="M9.8,680.1c-0.1,0-0.2-0.1-0.3-0.2c0.1-0.2,0.3-0.3,0.4-0.5c0.2-0.2,0.3-0.1,0.2,0.1
		C10.1,679.8,10,680,9.8,680.1z"/>
	<path class="st0" d="M4.5,651.5c0.1-0.1,0.2-0.3,0.3-0.3c0.2,0,0.3,0.1,0.2,0.3c0,0.1-0.1,0.1-0.2,0.1
		C4.6,651.7,4.5,651.7,4.5,651.5z"/>
	<path class="st0" d="M10.3,672.9c-0.1,0-0.1,0-0.2,0.1c0-0.1-0.1-0.2,0-0.2C10.2,672.7,10.3,672.7,10.3,672.9z"/>
	<path class="st0" d="M27.7,654.8c0,0.1,0,0.1,0.1,0.2c-0.1,0-0.2,0.1-0.2,0C27.5,654.8,27.5,654.7,27.7,654.8z"/>
	<path class="st74" d="M19.3,734.1c0.6-0.3,0.3-1.3,1.2-1.7c0.6,1.3-0.7,2.4-0.3,3.6l0,0c-0.5-0.2-0.8-0.5-1-1
		C19.3,734.7,19.3,734.4,19.3,734.1z"/>
	<path class="st75" d="M53.8,43.8c0-0.5,0-1,0-1.4c-0.3-0.3-0.5-0.7-0.7-1.1c-0.1-0.2,0-0.4,0-0.7c-0.1,0.3,0,0.6,0,0.9
		c0.1,0.3,0,0.6-0.3,0.9l0,0c-0.4,0.7-1.1,1.1-1.9,1.2c-0.3,0-0.7,0-1-0.2l0,0c-0.5-0.9,1.1-1.9-0.1-2.8c0.2-0.3,0.5-0.4,0.8-0.5
		c-0.4,0-0.5,0.2-0.7,0.4c-0.1,0.2-0.3,0.2-0.5,0.1c-0.3-0.5-0.4-1.2-0.9-1.6l0,0c-0.5-0.5-0.8-1.2-0.9-1.9c0-0.6,0-1.2,0.6-1.5
		c0.5-0.2,0.8,0.8,1.4,0.3c0.4-0.3,0.9-0.6,1.4-0.2l0,0c0.4,0.3,0.2,1.1,0.6,1.1c0.6,0,0.5-0.8,0.9-1.1c0.3-0.4,0.6-0.5,0.9,0
		c0.2,0.3,0.4,0.7,0.5,1c0,0.3,0,0.6,0,0.9c0.3,0.3,0.3,0.6,0,0.9c0.2,0.4,0.5,0.5,0.9,0.5c0,1-0.1,2.1,1.5,1.9
		c0.6,0.9,1.3,0.3,1.9,0c0,0.3,0,0.7,0,1s0,0.6,0,0.9c0.2,0.2,0.2,0.3,0,0.5l0,0c-0.4,0.4-0.8,0.2-1.2-0.1c-0.8-0.6-1,0-1.3,0.6
		c-0.2,0.3-0.4,0.6-0.7,0.7c-0.2,0-0.5,0-0.6-0.2l0,0C54.1,44.2,54,44,53.8,43.8z"/>
	<path class="st42" d="M26.5,132.8c0,4.5,0.1,9.1,0,13.6c-0.1,4,0.1,7.9-0.3,11.9c-0.4,4.3-0.1,8.7-0.2,13.1c0,0.1-0.1,0.3-0.2,0.4
		c-0.7-13.1,0.5-26.1,0.3-39.2C26.2,132.7,26.3,132.8,26.5,132.8z"/>
	<path class="st42" d="M25.5,184.5c0-0.2,0-0.3,0-0.5c0-3.3,0-6.7,0-10c0.4,3.7,1.1,7.3,0.9,11.2C26,184.8,25.8,184.7,25.5,184.5z"
		/>
	<path class="st42" d="M39.8,187.6c0.3,0,0.5,0.1,0.5,0.4c0.2,0.5,0.4,1,0.5,1.6c0.1,0.3-0.1,0.6-0.4,0.8c-0.3,0.2-0.6,0-0.8-0.2
		c-0.6-0.5-0.8-1.2-0.5-2C39.2,187.9,39.4,187.7,39.8,187.6z"/>
	<path class="st1" d="M30.7,187.1c0.6,0.2,0.8,0.7,0.8,1.2c0,0.6-0.4,1.1-1,1.1c-0.7,0-0.8-0.6-0.8-1.2
		C29.9,187.7,30.1,187.2,30.7,187.1z"/>
	<path class="st1" d="M43.4,158.5c0.2-1.1,0.5-2,0.7-3C45,157.2,44.9,157.5,43.4,158.5z"/>
	<path class="st1" d="M38.1,184.8c0.5,0.1,0.8,0.4,0.8,0.8c0,0.5-0.1,1-0.7,1c-0.4,0-0.5-0.4-0.6-0.7
		C37.5,185.4,37.7,185,38.1,184.8z"/>
	<path class="st42" d="M51.7,230.9c-0.5-0.2-0.8-0.5-0.7-1.1c0.1-0.4,0.3-0.6,0.7-0.4c0.5,0.2,0.7,0.6,0.6,1.2
		C52.2,230.8,52,230.9,51.7,230.9z"/>
	<path class="st76" d="M32.2,87.7c0.3,0.1,0.7,0.2,0.6,0.6c0,0.4-0.4,0.7-0.8,0.7c-0.3,0-0.7-0.1-0.6-0.5
		C31.5,88,31.8,87.7,32.2,87.7z"/>
	<path class="st1" d="M36,189.9c0.3,0,0.4,0.2,0.4,0.4c0,0.3-0.2,0.6-0.6,0.6c-0.2,0-0.4-0.2-0.4-0.4C35.4,190.2,35.7,190,36,189.9z
		"/>
	<path class="st1" d="M34.1,159.3c0.3,0,0.4,0.2,0.4,0.4s-0.1,0.5-0.2,0.6c-0.4,0.1-0.5-0.1-0.6-0.5
		C33.7,159.5,33.9,159.4,34.1,159.3z"/>
	<path class="st1" d="M36,184.6c0,0.2,0,0.5-0.3,0.5c-0.2,0-0.4-0.2-0.4-0.4c-0.1-0.2,0-0.4,0.3-0.5C35.8,184.2,36,184.4,36,184.6z"
		/>
	<path class="st55" d="M33.2,72.2c0.5,0.2,1,0.3,1.4,0.5C33.8,73.5,33.6,72.7,33.2,72.2z"/>
	<path class="st30" d="M35.1,72.2c0-0.3,0-0.6,0-1c0.7,0.5,0.6,0.9,0,1.4C34.9,72.5,34.9,72.3,35.1,72.2z"/>
	<path class="st42" d="M50.9,239.1c-0.2-0.1-0.2-0.2-0.1-0.3c0.1-0.1,0.2-0.1,0.4-0.2c0,0.1,0.1,0.3,0.1,0.4
		C51.2,239,51,239,50.9,239.1z"/>
	<path class="st42" d="M52,235c0,0.1,0.1,0.2,0,0.2s-0.1,0-0.2,0.1c0-0.1-0.1-0.2,0-0.2C51.8,235,51.9,235,52,235z"/>
	<path class="st30" d="M33.2,70.3c-0.2,0.2-0.3,0.3-0.5,0.5C32.9,70.6,33,70.4,33.2,70.3z"/>
	<path class="st55" d="M58.1,43.4c0-0.2,0-0.3,0-0.5c0.2,0.2,0.3,0.3,0.5,0.5C58.5,43.4,58.3,43.4,58.1,43.4z"/>
	<path class="st55" d="M35.1,72.2c0,0.2,0,0.3,0,0.5c-0.2,0-0.3,0-0.5,0C34.8,72.5,34.9,72.3,35.1,72.2z"/>
	<path class="st52" d="M24.5,192.7c-0.5,0.2-0.6,1.3-1.5,0.6c-0.2-0.2-0.3-0.4-0.1-0.6C23.5,192,24,192,24.5,192.7L24.5,192.7z"/>
	<path class="st22" d="M45.6,31.3c0-0.3,0.1-0.6,0.1-0.9c0.1,0,0.3,0,0.4,0c1.2-1.5,0.2-3.2,0.5-4.8l0,0c1.5-0.9,1.9-0.8,2,0.8
		c0.1,0.8,0.4,0.8,1.1,0.8c0.8-0.1,0.2,0.5,0.2,0.8c-0.2,0-0.3,0-0.5,0c-0.1,0.2-0.3,0.3-0.5,0.5c-0.1,0.8-0.6,1.5-0.5,2.4
		C47.5,31.3,46.6,31.6,45.6,31.3L45.6,31.3z"/>
	<path class="st77" d="M45.7,31.4c0.9-0.5,1.8-1,2.8-0.5c0,0.3,0,0.6,0,1c-0.4,0.5-0.3,1,0,1.4l0,0c0.4,0.8,0.4,1.6,0,2.4
		C48,36.1,48,36.6,48,37.2c-0.5,0.3-0.8,0-1.1-0.4c-0.1-0.2,0-0.4,0.1-0.6l0,0c0.3-0.6-0.2-0.7-0.5-1c-0.9-0.1-1-0.7-0.9-1.4
		c1.2-0.7,1.2-0.8,0-2C45.7,31.7,45.7,31.6,45.7,31.4z"/>
	<path class="st78" d="M52.4,35.7c0,0.5,0,1.1-0.1,1.6c-0.1,0.6-0.5,0.8-1,0.7c-0.6,0-0.8-0.4-0.7-1c0.1-0.5,0.2-0.9,0.3-1.4
		C51.4,36,51.9,36,52.4,35.7z"/>
	<path class="st79" d="M50.9,32.3c0,0.3,0,0.7-0.4,0.7c-0.6,0-0.7-0.6-0.8-1c-0.1-0.4,0.3-0.6,0.6-0.5
		C50.8,31.5,50.9,31.9,50.9,32.3z"/>
	<path class="st22" d="M48.5,35.7c0-0.8,0-1.6,0-2.4c0.8,0.7,0.4,1.6,0.5,2.4c0.2,0.1,0.5,0.2,0.5,0.5c-0.2,0.3-0.4,0.8-0.8,0.6
		C48.5,36.6,48.6,36,48.5,35.7z"/>
	<path class="st78" d="M49.5,36.2c-0.2-0.2-0.3-0.3-0.5-0.5c0.6-0.2,1.3-0.9,1.9,0C50.4,35.7,50,36,49.5,36.2z"/>
	<path class="st22" d="M48.5,33.3c-0.6-0.5-0.6-1,0-1.4C48.5,32.3,48.5,32.8,48.5,33.3z"/>
	<path class="st60" d="M49.1,28.5c0.1-0.3,0.2-0.4,0.5-0.5c0,0.2,0,0.3,0,0.5C49.4,28.5,49.2,28.5,49.1,28.5z"/>
	<path class="st5" d="M53.8,38.6c0-0.3,0-0.6,0-0.9C54.3,37.9,54.3,38.2,53.8,38.6z"/>
	<path class="st36" d="M55.7,34.8c0.3,0,0.7,0,1,0C56.4,35.2,56.1,35.2,55.7,34.8z"/>
	<path class="st75" d="M55.3,38.1c0,0.4-0.1,0.7-0.5,0.9C54.8,38.7,54.9,38.3,55.3,38.1z"/>
	<path class="st0" d="M20.2,736c0.2,0.1,0.4,0.4,0.3,0.5C20,736.7,20.4,736.2,20.2,736L20.2,736z"/>
	<path class="st80" d="M11.6,745.6c0.2,0,0.5,0,0.7,0.1c0.3,0.1,0.6,0.3,0.4,0.7c0,0.1-0.2,0.3-0.3,0.3c-0.4,0.1-0.6-0.2-0.7-0.4
		C11.6,746.1,11.6,745.8,11.6,745.6L11.6,745.6z"/>
	<path class="st51" d="M15,745.1c0.8-0.8,1.2-0.5,1.4,0.5C15.9,745.4,15.5,745.1,15,745.1z"/>
	<path class="st75" d="M56.7,40.5c-0.2,0.2-0.3,0.3-0.5,0.5C56.4,40.8,56.5,40.7,56.7,40.5z"/>
	<path class="st10" d="M13,751.4c-0.2,0-0.3,0-0.5,0c0.2-0.2,0.3-0.3,0.5-0.5C13,751,13,751.2,13,751.4z"/>
	<path class="st10" d="M12.6,751.4c-0.2,0.2-0.3,0.3-0.5,0.5C12.2,751.7,12.4,751.5,12.6,751.4z"/>
	<path class="st55" d="M55.3,43.9c0-0.2,0-0.5,0-0.7c0-0.6,0.1-1.1,0.8-1.2c0.5-0.1,0.9,0.1,1.1,0.6c0.2,0.5,0.5,0.7,1,0.8
		c-0.1,0.5-1.4,0.7-0.4,1.5c0.4,0.3,1.1,0.7,0.4,1.3c-0.5,0.4-1,1.3-1.8,0.5c-0.3-0.3-0.7-0.4-1.1-0.4
		C55.1,45.5,55.9,44.7,55.3,43.9z"/>
	<path class="st67" d="M50,43.4c0.3,0,0.6,0,1,0c0.6-0.4,1.3-0.1,1.9,0c-0.1,0.3-0.1,0.7-0.4,0.8c-1.1,0.3-1.1,0.9-0.7,1.8
		c0.2,0.6,0.4,1.4-0.5,1.5c-0.8,0.1-1-0.7-1.2-1.3c-0.2-0.5-0.1-1.1,0.3-1.6C51,44,50.2,43.8,50,43.4z"/>
	<path class="st67" d="M47.1,36.7c0.3,0.2,0.6,0.3,1,0.5c0.3,0.6,0.5,1.2,0.5,1.9c-1.6,0-3.2,0-4.8,0c0-1.3,1.4-1.1,1.9-1.9l0,0
		c0.2-0.3,0.7-0.2,0.9-0.5l0,0c0.1-0.1,0.2-0.2,0.3-0.1C47.1,36.6,47.1,36.6,47.1,36.7z"/>
	<path class="st37" d="M56.7,52c0.7,0.1,1,0.4,1,1.1c-0.1,1.2,0.6,1.7,1.8,1.9c-1.3,1.6-2-0.2-2.8-0.4c-0.6-0.1-0.8-0.9-0.3-1.6
		C56.6,52.8,56.7,52.4,56.7,52L56.7,52z"/>
	<path class="st81" d="M44.2,40.9c0-0.5-0.1-1.1,0.6-1.3c0.5-0.1,1.2,1.3,1.1,2.3c0,0.4-0.3,0.7-0.7,0.8
		C44.6,42.9,44.2,42.1,44.2,40.9z"/>
	<path class="st75" d="M45.7,37.2c0.1,1.4-1.4,1.2-1.9,1.9c-1-0.2-1.3-0.6-0.5-1.4c0.3-0.3,0.8-0.5,0.9-1
		C44.7,36.8,45.2,37,45.7,37.2z"/>
	<path class="st82" d="M56.7,52c-0.5,0.2-1,0.7-1.5,0.1c-0.3-0.3-0.2-0.6,0.1-0.8c0.5-0.4,0.8-1.3,1.7-1c0.3,0.1,0.5,0.4,0.4,0.7
		C57.2,51.4,56.9,51.7,56.7,52L56.7,52z"/>
	<path class="st83" d="M50,40.5c0.3,0.7,1.4,0.3,1.6,1.1c-0.1,1.1-1.8,0.5-1.6,1.7c-0.2,0-0.3,0-0.5,0c-0.4-0.5-0.3-1,0-1.4
		c0.5-0.3,0-0.6,0-1c-0.2-0.2-0.2-0.3,0-0.5C49.7,40.5,49.8,40.5,50,40.5L50,40.5z"/>
	<path class="st84" d="M55.3,43.9c1.5,1.1,1.5,1.1,0,2.4l0,0c-0.3,0.3-0.6,0.3-1,0c0-0.3,0-0.6,0-1c0.3-0.2,0.2-0.7,0.5-1
		C54.9,44.2,55.1,44,55.3,43.9z"/>
	<path class="st37" d="M38.2,59.5c-0.4-0.8-0.2-1.4-0.2-1.9c0-0.4,0.2-0.6,0.6-0.6c0.3,0,0.6,0.3,0.7,0.6C39.5,58.5,39,59,38.2,59.5
		z"/>
	<path class="st67" d="M48.5,40c0,0.8-0.1,1.3-0.9,1.4c-0.5,0-1,0-1.2-0.5c-0.2-0.6,0.4-0.8,0.9-0.8C47.8,40,48.2,40,48.5,40z"/>
	<path class="st85" d="M45.5,44.7c0,0.4-0.2,0.8-0.6,0.9c-0.5,0.1-0.9-0.2-1-0.7c-0.1-0.4,0.2-0.8,0.6-0.9
		C45,43.9,45.4,44.2,45.5,44.7z"/>
	<path class="st86" d="M43.1,41.8c0.4,0.1,0.6,0.5,0.6,0.9c0,0.5-0.3,0.7-0.8,0.6c-0.4-0.1-0.5-0.4-0.5-0.7
		C42.4,42.1,42.6,41.8,43.1,41.8z"/>
	<path class="st87" d="M50.8,49.7c-0.1,0.4-0.3,0.7-0.8,0.6c-0.3,0-0.4-0.2-0.4-0.5c0-0.5,0.3-0.7,0.8-0.6
		C50.6,49.3,50.8,49.4,50.8,49.7z"/>
	<path class="st83" d="M52.9,43.4c-0.6,0.5-1.3,0-1.9,0c0.5-0.7,1.3-0.5,1.9-1C52.9,42.7,52.9,43.1,52.9,43.4z"/>
	<path class="st67" d="M49.5,40.5v0.2v0.2c-0.3-0.3-0.6-0.6-1-1c0-0.3,0-0.6,0-1C49.5,39.1,49.5,39.8,49.5,40.5z"/>
	<path class="st37" d="M39.8,54.1c-0.1,0.1-0.2,0.3-0.4,0.4c-0.3,0.1-0.4-0.1-0.3-0.4c0-0.2,0.2-0.4,0.3-0.5
		C39.6,53.6,39.8,53.8,39.8,54.1z"/>
	<path class="st55" d="M53.4,41.5c0.4,0.2,0.5,0.6,0.5,1c-0.3,0-0.6,0-0.9,0c0-0.3,0-0.7,0-1c0.1-0.2,0.2-0.2,0.3-0.2
		C53.3,41.3,53.4,41.4,53.4,41.5z"/>
	<path class="st67" d="M49,43.4c-0.1,0.3,0,0.8-0.6,0.7c-0.1,0-0.1-0.1-0.1-0.1C48.3,43.4,48.7,43.4,49,43.4L49,43.4z"/>
	<path class="st37" d="M37.4,55.1c0.1,0.1,0.3,0.1,0.4,0.2c-0.1,0.1-0.1,0.3-0.2,0.4c-0.1,0-0.3-0.1-0.4-0.2
		C37.3,55.4,37.3,55.2,37.4,55.1z"/>
	<path class="st67" d="M49.5,41.9c0,0.5,0,1,0,1.4c-0.2,0-0.3,0-0.5,0l0,0C49,42.8,48.9,42.3,49.5,41.9z"/>
	<path class="st55" d="M54.3,46.3c0.3,0,0.6,0,1,0C54.9,46.7,54.6,46.8,54.3,46.3z"/>
	<path class="st55" d="M54.8,44.3c0,0.4-0.1,0.7-0.5,1c0-0.3,0-0.6,0-0.9C54.4,44.4,54.6,44.4,54.8,44.3z"/>
	<path class="st75" d="M43.2,36.2c0.4,0,0.8,0,1,0.5C43.8,36.7,43.5,36.6,43.2,36.2z"/>
	<path class="st55" d="M53.8,43.8c0.1,0.2,0.3,0.3,0.4,0.5C54.1,44.2,54,44,53.8,43.8z"/>
	<path class="st60" d="M46.6,25.6c0,0.6,0.4,1,0.6,1.4c0.6,1.1,0.1,2.4-1.1,3.3c0.5-1.7-0.7-2.6-1.9-3.3
		C45.2,26.9,46.2,26.8,46.6,25.6z"/>
	<path class="st75" d="M46.6,35.2c0.6,0.1,1.2,0.2,0.5,1C47,35.9,46.8,35.6,46.6,35.2z"/>
	<path class="st75" d="M46.6,36.7c-0.2,0.4-0.6,0.5-0.9,0.5C45.9,36.8,46.2,36.7,46.6,36.7z"/>
	<path class="st75" d="M47.1,36.7c-0.2,0-0.3,0-0.5,0c0.2-0.2,0.3-0.3,0.5-0.5C47.1,36.3,47.1,36.5,47.1,36.7z"/>
	<path class="st38" d="M30.4,374.6c0.1-0.1,0.2-0.3,0.3-0.3c0.2,0,0.3,0.1,0.2,0.3c0,0.1-0.1,0.1-0.1,0.2
		C30.6,374.8,30.5,374.8,30.4,374.6z"/>
	<path class="st39" d="M20.7,617.2c-0.8,2.3-0.4,4.9-0.5,7.5c0,0.5-0.3,0.9-0.5,1.3c-0.2,0.4-0.6,0.5-1,0.3
		c-0.3-0.2-0.4-0.5-0.3-0.8c0.7-2,0-3.9-0.7-5.7c-0.4-0.9,1.2-4.1,2.1-4.2C20.7,615.5,20.7,616.2,20.7,617.2z"/>
	<path class="st39" d="M22.6,620.5c0-0.6,0-1.3,0.1-1.9c0-0.3,0.3-0.6,0.7-0.5c0.3,0,0.6,0.2,0.6,0.6c0,1.2,0,2.4,0,3.5
		c0,0.4-0.3,0.8-0.7,0.8c-0.5,0-0.6-0.4-0.6-0.8C22.6,621.6,22.6,621,22.6,620.5L22.6,620.5z"/>
	<path class="st39" d="M10.6,624.6c0.1-1,0.3-1.9,0.1-2.7c-0.1-0.6,0.2-1.4,0.9-1.3c0.7,0.1,1.2,0.6,1.1,1.5
		C12.6,623.4,12.2,624.4,10.6,624.6z"/>
	<path class="st39" d="M20.7,612.6c0,0.2,0,0.6-0.1,0.9c-0.1,0.2-0.3,0.4-0.5,0.4s-0.5-0.1-0.6-0.3c-0.2-0.7-0.5-1.4-0.3-2.1
		c0.2-0.5,0.4-1.2,1.1-1.1c0.6,0.1,0.5,0.7,0.5,1.2C20.7,611.9,20.7,612.2,20.7,612.6z"/>
	<path class="st39" d="M36.7,604.1c-0.7-1-0.7-1.6-0.3-2.4C37.3,602.3,37,603,36.7,604.1z"/>
	<path class="st39" d="M16,596.4c0.5,0,0.8,0.2,0.8,0.7c0,0.4-0.2,0.8-0.7,0.8c-0.3,0-0.5-0.3-0.6-0.6
		C15.4,596.9,15.6,596.5,16,596.4z"/>
	<path class="st39" d="M31.9,626.9c0.4,0.1,0.3,0.4,0.3,0.7c0,0.2-0.1,0.5-0.4,0.4c-0.3-0.1-0.5-0.4-0.4-0.7
		C31.4,627.2,31.6,627,31.9,626.9z"/>
	<path class="st39" d="M15.4,614.3c0.3,0,0.4,0.2,0.4,0.4s-0.1,0.5-0.2,0.6c-0.4,0.1-0.5-0.1-0.6-0.5
		C15,614.6,15.1,614.4,15.4,614.3z"/>
	<path class="st39" d="M35.9,604.8c0.3,0,0.4,0.2,0.5,0.4s0,0.4-0.2,0.5c-0.3,0.1-0.4-0.1-0.4-0.4C35.6,605.1,35.7,604.9,35.9,604.8
		z"/>
	<path class="st39" d="M11.9,579.7c-0.1,0-0.2,0-0.2-0.1s0-0.1,0.1-0.2c0.1,0,0.2,0,0.2,0.1C11.9,579.5,11.9,579.6,11.9,579.7z"/>
	<path class="st39" d="M15.3,617.9c0,0.1-0.1,0.1-0.1,0.2c0-0.1-0.1-0.1-0.1-0.2c0-0.1,0.1-0.1,0.1-0.2
		C15.2,617.8,15.3,617.9,15.3,617.9z"/>
	<path class="st8" d="M50,40.5c0.4-1.4,0.4-1.4,2.1-0.6C51.6,40.8,50.7,40.4,50,40.5L50,40.5z"/>
	<path class="st50" d="M53.4,41.5c-0.2,0-0.3,0-0.5,0c0-0.5-0.2-1,0.2-1.5C53.5,40.4,53.3,41,53.4,41.5z"/>
</g>
</svg>
