<svg viewBox="0 0 63.8 762.8">
<style type="text/css">
	.st0{fill:#CAB7AC;}
	.st1{fill:#AC9C92;}
	.st2{fill:#D8CAC3;}
	.st3{fill:#BDACA1;}
	.st4{fill:#F9F8F8;}
	.st5{fill:#ECE5E2;}
	.st6{fill:#BFAEA3;}
	.st7{fill:#F1ECE9;}
	.st8{fill:#B4A59D;}
	.st9{fill:#ECE9E7;}
	.st10{fill:#E6E2DF;}
	.st11{fill:#F3F1F0;}
	.st12{fill:#ECE8E6;}
	.st13{fill:#F5F1F0;}
	.st14{fill:#D7D0CB;}
	.st15{fill:#DDD7D3;}
	.st16{fill:#E4DBD5;}
	.st17{fill:#E1DCD8;}
	.st18{fill:#FAF9F8;}
	.st19{fill:#E9E4E2;}
	.st20{fill:#AB9B91;}
	.st21{fill:#D1C8C3;}
	.st22{fill:#BCAA9F;}
	.st23{fill:#A9988E;}
	.st24{fill:#C9B5AB;}
	.st25{fill:#C1AFA4;}
	.st26{fill:#BEB1A9;}
	.st27{fill:#B4A69D;}
	.st28{fill:#C6BBB4;}
	.st29{fill:#DFD9D5;}
	.st30{fill:#C9BEB8;}
	.st31{fill:#BDB0A8;}
	.st32{fill:#B4A59C;}
	.st33{fill:#C0B4AD;}
	.st34{fill:#BBAEA6;}
	.st35{fill:#C0B4AC;}
	.st36{fill:#C2B5AE;}
	.st37{fill:#DDD1CA;}
	.st38{fill:#AB9A90;}
	.st39{fill:#EDEAE8;}
	.st40{fill:#E2DDD9;}
	.st41{fill:#EFECEB;}
	.st42{fill:#F0EDEB;}
	.st43{fill:#CEC5BF;}
	.st44{fill:#C5BAB4;}
	.st45{fill:#D1C7C2;}
	.st46{fill:#C1B4AE;}
	.st47{fill:#D4CCC7;}
	.st48{fill:#C8BEB7;}
	.st49{fill:#FFFFFF;}
	.st50{fill:#F5F3F2;}
	.st51{fill:#D1C0B7;}
	.st52{fill:#BDB0A9;}
	.st53{fill:#B1A095;}
	.st54{fill:#B4A298;}
	.st55{fill:#D0C7C1;}
	.st56{fill:#B7A8A0;}
	.st57{fill:#E5E0DD;}
	.st58{fill:#EDE9E7;}
	.st59{fill:#AD9D93;}
	.st60{fill:#AC9B92;}
	.st61{fill:#B3A59C;}
	.st62{fill:#E8DFDB;}
	.st63{fill:#DED7D3;}
	.st64{fill:#D2C9C4;}
</style>
<g>
	<path class="st0" d="M6.4,457.7c-0.4-2,0.8-3.9,0.1-5.9c-0.2-0.5,0.1-1.1,0-1.7c0-1.4,1.4-2.6,0.8-4c-0.5-1.4-0.1-2.7,0.1-4
		c1-7.9,0.7-15.8,1.1-23.6c0.2-4,0.1-8,0.4-11.9c0.6-5.9,0.4-11.9,1.3-17.9c0.2-1.2,0-2.4,0.1-3.6c0.1-2.5-0.2-5.1,0.4-7.6
		c0.2-0.8,0.1-1.6,0-2.4c-0.7-8-0.5-15.9-0.3-23.9c0.2-6.1,0.3-12.1,0.4-18.2c0-0.6,0-1.1,0.4-1.6c0.8,0.7,0.7,1.7,0.7,2.7
		c0,2.7,0,5.4,0,8.1c0,1.5,0.1,3.1-0.1,4.6c-0.2,0.8-0.3,1.5,0,2.3c0.2,1.4,0.2,2.8,0,4.1c0.2,9.3,0.4,18.7,0.1,28
		c-0.2,8.3-1,16.6-1.4,24.8c0,1.3,0.1,2.7-0.2,4c-0.7,3.3-0.1,6.6-0.3,9.8c0,0.8,0,1.6,0,2.4c0,0.5,0,1-0.1,1.6
		c0,0.4-0.1,0.8-0.2,1.1c-0.4,1-0.1,2,0.1,3c-0.3,5.1-0.7,10.2-1,15.2c-0.2,3.7-0.2,7.5-0.5,11.2c-0.6,3.4-0.4,6.9-0.1,10.3
		c0.1,1.4,0.3,2.8,0.3,4.3c0.1,9,0.4,18,0.6,27c0.1,6.2,0.9,12.4,0.7,18.6c-0.2,6.1-0.2,12.1-0.3,18.2c0,2.9,0.4,5.7,0.7,8.6
		c0.1,0.3,0.1,0.6,0.2,0.9c0.1,4.6,0,9.2,0,13.7c-0.1,2.1,0,4.1-0.1,6.2c0,0.7-0.1,1.5-1,1.8s-1.5-0.3-2-0.9c-0.2-0.3-0.4-0.7-0.6-1
		c-0.7-1.4-0.8-3.1-2.7-3.8c-0.7-0.3-0.8-1.4-0.6-2.2c0.6-3.5,0-7.1,1.1-10.7c-0.4,0.6-0.1,1.5-0.6,1.9c-0.4,0.4-0.6,0-0.7-0.4
		C3.1,539.9,3,532.9,3.1,526c0.1-9.2-0.3-18.5,0.6-27.7c0.2-1.7-0.1-3.5-0.1-5.2c0.3-6.7,0.5-13.4,1.1-20
		C5.2,468,5.4,462.8,6.4,457.7z"/>
	<path class="st0" d="M51.5,289.3c0.8,2.3,0.2,4.6,0.2,6.9c0,4.7-0.5,9.4-0.8,14c-0.3,3.9-0.2,8-1.2,11.9c-0.4,1.4-0.1,3-0.1,4.5
		c0,2.2-0.3,4.4-1,6.6c-0.5,1.4,0.2,2.8,0.2,4.2c0,0.9,0,1.7-0.3,2.6c-0.1,0.5-0.3,0.9-0.3,1.4c0.2,3.5-0.3,7-0.6,10.5
		c-0.4,3.6,0,7.2-0.8,10.7c-0.2,0.7-0.1,1.4-0.1,2.2c0.1,5.6-0.4,11.1-0.9,16.7c-0.3,2.8-0.4,5.7-0.5,8.5c-0.1,3.9-0.4,7.8-0.7,11.7
		c-0.3,4.8-0.1,9.6-0.5,14.4c-0.3,3.6-0.1,7.2-0.5,10.7c-0.5,3.9,0.9,7.5,0.9,11.3c0,2,0.1,3.9,0.2,5.9c0.1,2.1-0.1,4.1,0.3,6.2
		c0.3,1.5-0.4,3-0.8,4.4c-0.1,0.5-0.6,1-0.4,1.6c1.6,3.4,0,6.8,0.1,10.3c0.2,2.9-1.2,5.8-0.4,8.8c-1.1,4-0.4,8.1-1.4,12.1
		c-0.5,2.2-0.1,4.5-0.4,6.7c-0.1,0.8,0,1.6-0.2,2.4c-0.5,1.9-0.9,3.6-0.5,5.6c0.3,1.5,0.1,3.1-0.5,4.7c-0.1,0.4-0.2,0.8-0.2,1.2
		c0.3,3.9-0.5,7.8-0.6,11.7c-0.1,3.1-0.1,6.2-0.8,9.3c-0.1,0.6-0.1,1.3-0.1,1.9c0.3,5-0.4,9.9-0.6,14.8c-0.2,5.3-0.6,10.7-1,16
		c-0.3,4.3-0.2,8.6-0.5,12.9c-0.5,6.7-0.6,13.5-1.8,20.2c-0.1,0.4,0,0.8,0,1.2c-0.3,0-0.6-0.1-0.7-0.3c-1.1-2.8,0.1-5.5,0.2-8.3
		c0.2-4.2,0.8-8.4,0.8-12.6c0-11,1-22,1.8-33c0.4-6.1,0.4-12.3,0.9-18.5c0-0.1,0,0-0.1,0.2c-0.2,0.9,0.4,2.4-1.1,2.5
		c-1.3,0-1.8-1.3-1.9-2.4c-0.1-3.1,0.2-6.2,0.5-9.3c0.6-5.1,1-10.1,1.3-15.2c0.4-6.8,0.7-13.5,1.5-20.2c0.1-1.1,0-2.2-0.1-3.3
		c-0.3-6.9,1-13.7,1.1-20.6c0.2-10.6,2.3-21.1,2.8-31.7c0.5-9.3,0.9-18.7,1.5-28c0.6-1.8,0.3-3.7,0.4-5.5c0-1,0-2,0-3
		c1.3-11.5,1.2-23.1,2.1-34.6c0.4-1.1,0.4-2.3,0.4-3.5c0-0.6,0-1.2,0.2-1.9c0.1-0.5,0.3-0.9,0.3-1.4c0-0.4,0-0.7,0-1.1
		c0-1,0-1.9,0-2.9c0-0.5,0.1-0.9,0.2-1.4c0.1-0.3,0.2-0.7,0.2-1c0.1-0.4,0.1-0.9,0.1-1.3c0-0.9,0-1.8-0.2-2.6
		c-0.1-0.6-0.2-1.1,0-1.7c0.1-0.3,0.2-0.6,0.3-0.9c0.1-0.2,0.2-0.4,0.2-0.6c0.2-0.4,0.2-0.9,0.2-1.3c0-1.2-0.1-2.3,0.2-3.5
		c0.3-1,0.4-2,0.1-3c-0.1-0.4-0.1-0.9,0-1.4c0.1-0.3,0.2-0.6,0.3-1c0.1-0.3,0.2-0.6,0.3-1c0.3-0.8,0.2-1.6,0.2-2.4
		c0-0.6,0.1-1.2,0.2-1.8c0.2-2.9,0.7-5.8,0.6-8.7c-0.1-0.5-0.1-1-0.1-1.5c0.1-0.4,0.2-0.7,0.2-1.1c0.1-0.5,0.2-0.9,0.3-1.4
		c0.3-1,0.2-1.9,0.2-2.9c0-1.8-0.1-3.6,0.1-5.4c0.1-0.4,0.2-0.7,0.3-1c0.2-0.7,0.2-1.5,0.2-2.2c0-0.3-0.1-0.6-0.2-0.8
		c-0.2-0.3-0.3-0.7-0.4-1.1c0-0.3,0.1-0.6,0.3-0.8c0.1-0.2,0.2-0.3,0.4-0.4C51.2,289.1,51.4,289.1,51.5,289.3z"/>
	<path class="st1" d="M47.7,40.6c1.8,1.9,1.8,4.4,1.8,6.7c0,1.5,0.3,2.9,0.3,4.3c0,1.5,0.2,2.8,0.8,4.2c0.6,1.3,0.2,2.8,0.7,4.2
		c0.3,0.6,0.3,1.4-0.1,2.1c-0.4,0.8,0,1.2,0.6,1.6c0.5,1.1,0.7,2.2,0.1,3.3c-1.6-0.9-2.4-2.9-2.1-4c0.6-2.5-1.7-4.5-0.3-7.2
		c-1.2,0.5-1,1.2-1.2,1.6c-0.3,0.8-1,0.9-1.8,0.9c-0.8-0.1-1.3-0.5-1.4-1.4c-0.1-0.6,0.1-1.3-0.4-1.8c-0.3-0.1-0.2-0.5-0.5-0.6
		c0,0.4,0.5,0.5,0.6,0.8c0.3,0.5,0.2,1.1,0.2,1.6c0,1,0.3,1.7,1.5,1.6c0.5,0,0.9,0.1,1.4,0.3c1,0.5,1.7,1.3,1.3,2.5
		c-0.4,1.3-1.5,1.4-2.7,1.3c-0.9-0.1-1.5-1.3-2.6-0.8c-0.2,0.1-0.4,0.1-0.6,0.2c-1.7-0.5-3.1,1.4-4.8,0.6c-0.1,0.7,0.4,0.8,0.7,1
		c0.7,0.6,1.3,1.3,0.7,2.3c-0.6,0.9-1.5,0.6-2.4,0.3c-1-0.4-1.9-1.3-2.7,0.6c-0.4,1.1-2,0.6-2.5-0.7c-0.5-1.1,0.2-2,0.2-3.2
		c-1.5,0.2-2.8,0.6-4.3,0.5c-2.3-0.2-1.9-1.9-2.6-3c-1.1-1-2,0.8-3,0.2c-0.2-0.1-0.3-0.3-0.5-0.5c-0.2-0.7-0.1-1.4,0.1-2.2
		c0.1-1.3,0.3-2.6,1-3.7c2.9-0.4,2.9-0.4,3.6-4.3c0-0.2,0.1-0.4,0.2-0.6c0.2-0.4,0.3-0.8,0.5-1.2c0.2-1,0.2-1.9,0.6-2.9
		c0.4-1.1,0-2.3,0.6-3.3c0.1-0.2,0.2-0.4,0.2-0.6c0.4-1.1,0.2-2.3,1.3-3.1c0.7-0.3,1.4,0,1.9,0.5c0.3,0.4,0.2,0.9,0,1.3
		c-0.3,0.6,0.2,0.6,0.5,0.6c1.4,0.2,3.2-0.6,4,1.5c0,0.4-0.3,0.6-0.7,0.8c-0.1,0-0.3,0.1-0.4,0.2c0.3,0.2,0.4-0.1,0.6-0.1
		c0.6-0.5,0.9-0.1,1.2,0.3c0.1,0.2,0.2,0.4,0.3,0.6c0,0.2,0,0.4,0,0.6s-0.1,0.4-0.1,0.5c-0.1,0.2-0.2,0.5-0.3,0.7l0.1,0.2
		c0.2,0,0.3,0,0.5,0c0.2,0.1,0.4,0.1,0.5,0.2c0.8,0.3,1.6,0.4,1.9-0.6c0.1-0.2,0.3-0.3,0.5-0.5c1.5-0.2,1.4,1.1,1.6,1.9
		c0.3,1.4,0.9,2.2,2.7,2c-1.2-1.6,0.6-2.8,0.5-4.2c0-0.2,0.1-0.4,0.1-0.7c0.3-1,0.2-2-0.1-2.9c0-0.6-0.2-1.4,0.6-1.6
		C47.4,39,47.2,40.2,47.7,40.6z"/>
	<path class="st2" d="M6.4,457.7c0.1,2.7-0.5,5.4-0.8,8c-0.1,0.6-0.1,1.1-0.1,1.7c0,3.4-0.4,6.8-0.9,10.2c0,0.2-0.1,0.5,0,0.7
		c0.2,6.4-0.3,12.8-0.6,19.1c-0.7,16.7-0.2,33.4-0.4,50c0.7,0.9,0.4,1.9,0.4,2.8c-0.5,1.7-0.2,3.5-0.4,5.3c0,0.9,0,1.9,0,2.8
		c-0.6,1.9-0.1,3.9-0.4,5.9c0,0.3-0.1,0.5-0.2,0.8c-0.4,1.7-0.2,3.5-0.2,5.2c0,2,0.1,4-0.2,5.9c-0.6,2.1-0.3,4.3-0.3,6.4
		c-0.1,2.1,0.1,4.1-0.2,6.2c-0.6,2.9-0.2,5.8-0.3,8.7c-0.1,3.4,0,6.8,0,10.2c0,0.5-0.1,0.9-0.2,1.4c-0.5,1.6-0.2,3.2-0.2,4.8
		c0,6.9-0.1,13.7-0.1,20.6c0,1,0,2.1,0.3,3.1c0.2,0.9,0.3,1.8,0.2,2.7c0.1,4.1-0.4,8.2,0.3,12.3c0.3,2.2,0.2,4.4,0.2,6.6
		c0,1.8-0.3,3.7,0.2,5.5c0.2,1,0.2,2,0.2,3c-0.2,5.8,0.2,11.6,0,17.4c0,0.9,0,1.7,0,2.6c0,0.6,0,1.1,0,1.7
		c-0.4,7.9,0.5,15.7,0.8,23.6c0.3,6,0.7,11.9,0.6,17.9c0,1.9,0.3,3.6,2,5.1c1.8,1.6,1.5,4.2,1.1,6.5c-0.1,0.2-0.2,0.4-0.4,0.6
		c-0.5,0.2-0.9,0.1-1.2-0.4c-0.1-0.2-0.1-0.5-0.1-0.7c-1,1-1.7,0.6-1.8-0.6c-0.1-1,0-2,0-3c0-0.4,0.1-0.8-0.2-1.1
		c-0.7-7.5-0.8-15-1.1-22.4c-0.2-5.2-0.5-10.5-1.2-15.7c-0.4-3.1-0.2-6.2,0.1-9.3c0.2-2.8,0.3-5.7,0.3-8.5c0-3.8,0.3-7.5-0.1-11.3
		c-0.5-4.3-0.2-8.6-0.6-12.9c-0.1-1.3-0.2-2.7-0.3-4C0.5,639-0.5,625,0.2,610.9c0.3-6.9,0-13.9,0.5-20.8c0.3-4.6,0.1-9.3,0.4-13.9
		c0.5-6,0.4-12.1,1-18.1c0.3-3.1,0.1-6.2,0.5-9.3c0.7-6.1,0.3-12.1,0.3-18.2c0-2.9-0.6-5.7-0.4-8.6c0.6-7.1,0.2-14.2,0.5-21.3
		c0.2-4.3,0-8.6,0.5-12.8c0.6-4.6,0.1-9.2,0.8-13.8c0.4-2.6,0.6-5.2,0.7-7.8C5.1,463.3,5.3,460.4,6.4,457.7z"/>
	<path class="st3" d="M11.2,342.6c0-3.7,0-7.4-0.1-11.1c-0.4-2.2-0.3-4.4-0.1-6.7c0.3-4.2,0.3-8.5-0.2-12.7
		c-0.3-2.7-0.1-5.4-0.2-8.1c-0.2-7.7-0.4-15.3-0.8-23c-0.1-1,0.1-2.1,0.1-3.1c0-0.6,0.2-1.1,0.2-1.7c-0.3-6.5,0-12.9,0.2-19.4
		c0.3-6.6,0-13.1,0.4-19.6c0.3-4.2,0.1-8.5,0.5-12.7c0.5-6.3,0.5-12.6,1.3-18.9c0.2-1.4,0.1-2.9,0.1-4.3c0.4-11.2-0.2-22.3,0-33.5
		c0.1-2.5,0.3-4.9,0.3-7.4c0.1-4.3,0.1-8.6,0.1-12.9c0-4.6,0.5-9.2,0.8-13.9c0.2-2.9,0.4-5.7,0.5-8.6c0.2-4.5,0.8-8.9,1.2-13.3
		c0-0.2,0.2-0.4,0.4-0.6c0.8,0.8,0.6,1.8,0.7,2.8c0,1.1,0,2.2-0.2,3.2c-0.2,0.6-0.3,1.2-0.3,1.9c0,0.9,0,1.8-0.2,2.7
		c-0.5,1.7-0.2,3.4-0.3,5.1c0,0.4-0.1,0.8-0.2,1.2c-0.4,1.2-0.2,2.4-0.3,3.5c-0.1,2.2,0.1,4.4-0.1,6.6c-0.2,0.8-0.4,1.5-0.3,2.4
		c0,1.1,0,2.1-0.2,3.2c-0.5,1.6-0.4,3.3,0,4.9c0.2,0.9,0.2,1.8,0,2.8c-0.4,1.1-0.3,2.3-0.3,3.5c0,1,0,1.9,0,2.9c0,0.7,0,1.4,0,2.1
		c0,5.5,0.1,11-0.1,16.5c-0.4,1.1-0.4,2.2,0,3.3c0.3,5,0,9.9,0.1,14.9c0.2,7-0.8,13.9-1.1,20.8c-0.2,4-0.4,8-0.6,12
		c-0.3,6.5-0.9,12.9-0.6,19.4c0.3,8.5-0.7,16.9-0.5,25.4c-0.2,3,0,6.1-0.1,9.1c0,0.3,0,0.5,0,0.8c0,0.4,0,0.8,0,1.2
		c0,0.3,0,0.5,0,0.8c0,1.1,0,2.3,0,3.4c0,0.3,0,0.5,0,0.8c0,0.4,0,0.8,0,1.1c0.1,1.5-0.2,3,0.3,4.5c0.1,0.2,0.1,0.5,0.2,0.8
		c0.2,1.7-0.1,3.4,0.3,5.1c0,0.3,0,0.6,0,0.8c-0.1,4-0.5,8,0.3,11.9c0.4,9.3,0.2,18.6,0.1,27.9C12.3,341.3,12.4,342.3,11.2,342.6z"
		/>
	<path class="st4" d="M42.4,25.3c0.4,0.1,1.2,0.5,1.2-0.2c0.1-1.5,1.3-3,0.1-4.5c-0.5-0.7,0-1.2,0.5-1.6s0.9-0.2,1,0.4
		c0.1,0.9,0,1.8,0.8,2.4c0.1,0.1,0.2,0.6,0.1,0.7c-1.5,1.7,0.1,3.2,0.4,4.8c0.1,0.8,0.2,1.6,0.2,2.4c-1.2,0-0.9-1.1-1.3-1.7
		c-0.1-0.4-0.1-0.9-0.3-1.4c-0.2,0.4,0.1,0.8-0.1,1.1c-0.1,0.3-0.3,0.6-0.5,0.9c-1.2,1.1-0.9,2.5-0.8,3.9c0,1,0.2,2,0,3
		c-0.2,0.4-0.2,0.7,0,1.1c0.1,0.3,0.2,0.6,0.2,0.9c0,0.5,0,0.9-0.1,1.3c-0.1,0.2-0.2,0.4-0.4,0.5c-1.2,0.3-1.6-0.5-1.9-1.4
		c-0.1-0.3-0.3-0.5-0.5-0.7c-0.3-0.2-0.5-0.4-0.6-0.7c0.1-1.5,1.4-2.8,0.8-4.6c-0.8,0.6-0.1,2.1-1.3,2.3c-0.5,0.1-0.7-0.6-0.8-1
		c0-0.2-0.1-0.4-0.1-0.6c-0.1,0.2-0.2,0.3-0.4,0.4c-0.4,0.2-0.9,0.2-1.3-0.1c-0.3-0.2-0.4-0.5-0.4-0.9c0-0.2,0-0.4,0.1-0.7
		c0.1-0.4,0.3-0.8,0.5-1.2c0.2-0.3,0.4-0.4,0.7-0.4c0.3,0.1,0.5,0,0.6-0.3c0-0.2,0.1-0.4,0.1-0.6c0.3-1.7-0.9-2.8-1.7-4.1
		c-0.8-4.2,0.8-8.3,0.4-12.5c-0.5,1.4,0.2,3.2-1.4,4.3c-0.5,0.2-1,0.1-1.4-0.3c-0.3-1.1-0.6-2,0.2-3.1c0.4-0.6,1.1-1.6,0.4-2.7
		c-0.4-0.6,0.4-1.2,0.8-1.6c0.8-0.7,1-1.6,1-2.6c-0.1-1.8,0.1-3.5,0.5-5.2c0.1-0.5,0.1-1,0.8-1c0.6,0,0.7,0.5,1,0.9
		c0.2,0.4,0.2,0.8,0.1,1.2c-0.2,0.4-0.3,0.9,0,1.1c1.7,1.1,0.6,1.9,0,3.1c-0.8,1.3-1.5,2.9,0.1,4.4c0.2,0.2,0.4,0.4,0.4,0.6
		c-0.6,1.8,0.9,3.4,0.7,5.2c-0.1,0.7,0,1.4-0.7,1.9c-1,0.7-0.4,1.3,0.2,1.9c0.7,0.8,1.3,0.8,1.8-0.2c0.1-0.1,0.3-0.1,0.6-0.3
		c0.2,1.1,1,2.2,0.1,3.3C41.9,24.1,42.4,24.7,42.4,25.3c-0.2,0.2-0.6,0.1-0.8,0.3C42,25.9,42.1,25.4,42.4,25.3z"/>
	<path class="st5" d="M34.7,596c0.2,0,0.3,0,0.5,0c0.2,3.4-0.6,6.8-1,10.2c-0.5,4.2-0.7,8.4-1,12.6c-0.2,3.5-0.2,7-0.8,10.4
		c0,0.2-0.1,0.5-0.1,0.7c0.3,4-0.5,7.9-0.6,11.9c-0.1,2.7-0.1,5.6-0.7,8.3c-0.1,0.5-0.1,1.1-0.1,1.7c0,3.7-0.4,7.5-0.9,11.2
		c-0.1,0.5,0,1,0,1.4c0,6.1-0.7,12.2-1.3,18.3c-0.6,5.1-1.2,10.1-2.2,15.1c-0.9,4.7-1.2,9.6-2.5,14.3c-0.8,2.9-1.4,6-1.2,9.2
		c0,0.1-0.1,0.2-0.2,0.2h-0.1l0.1,0.2c0,0.2-0.1,0.4-0.2,0.6c0,0.2,0,0.3,0,0.5c-0.3,0.2-0.2,0.7-0.5,1l0,0
		c-0.5,0.7-0.9,0.8-1.5,0.1c-0.2-0.3-0.2-0.6-0.2-0.9c0.1-0.5,0-1-0.3-1.4c-0.1-0.3-0.1-0.7-0.1-1c1.1-3.1,2.7-5.9,3.2-9.2
		c1.4-9.5,3.4-18.8,4.5-28.3c0.5-4.4,1-8.9,1.1-13.3c0.4-3.4,0.5-6.8,0.7-10.3c0.3-6.1,1-12.1,1.2-18.1c0.7-2.5,0.5-5.1,0.7-7.6
		c0.2-3.9,0.7-7.8,0.7-11.7c0-4.9,0.9-9.7,1-14.5c0-0.3,0.1-0.5,0.1-0.8c0.4-2.1,0.8-4.2,0.9-6.4c0-0.2,0.1-0.5,0.1-0.7
		c0.4-1,0.1-2.2,0.7-3.2C34.5,596.2,34.6,596.1,34.7,596z"/>
	<path class="st6" d="M51.5,289.3c-0.2,0-0.3,0-0.5,0c0.5-4.9-0.4-9.8-0.2-14.7c0.1-1.9,0.1-3.9-0.5-5.7c-1.1-3.9-0.3-7.9-0.9-11.8
		c-0.3-1.9-0.4-3.8-1.4-5.5c-0.4-0.7-0.5-1.6-0.3-2.3c0.7-1.8,0.4-3.5-0.5-5.2c0-0.6,0.7-1,0.7-1.6c-0.1,0.4-0.3,0.7-0.5,1
		c0.3,2.5,0.5,4.9,0.2,7.4c-0.1,1.1-0.5,1.5-1.4,1.9c-1.1,0.4-1.7,0-1.4-1c0.7-2.3,0-4.7,0.5-7c0.4-1.7,0.1-3.6,1.2-5.2
		c0.9-1.4-0.3-2.9-0.5-4.3c0-0.2,0-0.4,0.1-0.6c0.1-0.5,0.2-0.9,0.1-1.4c-0.1-0.2-0.1-0.4-0.1-0.6c-0.1-0.6-0.1-1.2-0.3-1.7
		c-0.1-0.3-0.1-0.6,0-0.9s0.1-0.6,0.2-0.9c0.1-0.5,0-1.1,0-1.6c0-0.6-0.2-1.1-0.3-1.7c-0.2-1.1-0.2-2.3,0-3.4
		c0.3-0.9,0.3-1.7,0.3-2.6c0-1.2,0-2.3,0-3.5c0-0.4,0.2-0.8,0.4-1.1c0.2-0.2,0.5-0.2,0.7-0.1c-0.1,2.9,0,5.7-0.3,8.6
		c-0.2,2.2,0.4,4.4,0.4,6.7c-0.1,1.5,0.7,3.1,0.1,4.6c-0.1,0.1-0.1,0.4,0,0.5c1.6,1.6,1,3.8,1.6,5.6c0.3,0.8,0.6,1.7,0.1,2.5
		c-0.2,0.4-0.2,0.8,0.1,1.1c1.3,1.4,0.9,3,0.2,4.5c-0.4,0.9-0.6,1.6,0.3,2.3c0.5,0.3,0.8,0.8,0.8,1.4c0,2.8,0.9,5.5,0.6,8.3
		c-0.2,2.7,0.3,5.4,0.8,8c0,0.2,0.1,0.5,0.1,0.7c0,5.3,0.8,10.6,0.6,16C52.4,287,52.3,288.2,51.5,289.3z"/>
	<path class="st3" d="M47.2,214.9c-0.2,0-0.3,0-0.5,0c-0.8-0.8-0.6-1.9-0.5-2.9c0.6-2.3,0.2-4.7,0.3-7.1c0-0.8,0-1.7,0.2-2.5
		c0.5-1.3,0.3-2.6,0.3-4c0-1.2-0.1-2.4,0.2-3.6c0.4-1,0.3-2.1,0.3-3.2c0-1.2-0.1-2.5,0.2-3.7c0.6-2.5,0.2-5.1,0.3-7.6
		c0-1.3-0.1-2.6,0.2-3.8c0.5-4.8,0.8-9.5,1.2-14.3c0.5-5.6,0.3-11.3,1.3-16.9c0.3-1.5-0.2-3,0.1-4.5c0.1-0.4,0.2-0.8,0.3-1.2
		c0.3-0.7,0.4-1.5,0.3-2.2c0-0.9,0-1.8,0.2-2.7c0.5-1.3,0.2-2.7,0.3-4.1c0-0.4,0.1-0.7,0.2-1.1c0.4-1.1,0.4-2.2,0.1-3.4
		c-0.1-0.3-0.1-0.7,0-1c0.1-0.6,0.2-1.2,0.3-1.7c0-0.4,0.1-0.7,0.2-1.1c0.4-2.4,0.1-4.9,0.2-7.4c0-0.4,0.1-0.8,0.2-1.1
		c0.2-0.6,0.3-1.1,0.3-1.8c0.4-1.4-1.7-2.9,0-4.3c0.2-0.1,0.5-0.1,0.7,0.1c0,0.4-0.2,0.9,0,1.2c1.3,1.6,0.5,3.3,0.2,5
		c-0.1,0.5-0.2,1-0.2,1.4c0.3,4.4-0.4,8.8-0.6,13.1c-0.2,4-0.5,8.1-1.2,12.1c-0.3,1.7-0.1,3.5-0.2,5.3c0,2-0.2,4-1,5.9
		c-0.1,0.2-0.3,0.5-0.2,0.7c1,3.6-0.3,7.1-0.2,10.7c0.1,2.9-0.3,5.9-0.6,8.8c-0.1,1-0.2,1.9-0.2,2.9c-0.2,5.4-0.4,10.8-0.7,16.3
		c-0.3,6.1-0.9,12.2-1.3,18.3C47.5,211.2,47.9,213.1,47.2,214.9z"/>
	<path class="st7" d="M19.8,721.2c0.2,0.2,0.3,0.3,0.5,0.5c0,0.1-0.1,0.2-0.1,0.3c-1.3,2.9-1.7,7.7-1.3,10.7
		c-0.4-1.9,0.4-5.3,1.2-8.8c0.1-0.1,0.1-0.2,0.2-0.3c0.5,0.3,1,0.3,1.4,0c0,4.1-0.1,8.1-1.4,12c-0.1,0.4-0.1,0.9-0.1,1.4
		c-0.5,0.5-0.9,1.8-1.9,0.5l0,0c-1-0.5-0.8,0.9-1.4,1l0,0c-0.2,0.2-0.2,0.5-0.3,0.8c-0.1,0.2-0.2,0.3-0.4,0.4c-1.1,0.7-1,2-1.3,3.1
		c-0.1,0.2-0.2,0.4-0.4,0.6c-0.6,0.2-1.1,0.2-1.6-0.1c-0.2-0.3-0.2-0.7-0.2-1c0.1-0.2,0.1-0.5,0.2-0.7c0.8-1.7,1.1-3.7,2.9-4.8
		c0.3-0.2,0.3-0.7,0.3-1.1c0.3-3.5,1-6.9,0.9-10.4c0-1,0.2-2.1,0.6-3C18.2,721.5,18.6,720.7,19.8,721.2z"/>
	<path class="st8" d="M16.9,106c-0.5-0.3-0.9-0.8-0.7-1.4c0.5-1.5-0.3-3.2,1-4.6c0.1-0.1,0.1-0.5,0.1-0.7c-1-3.1,0.2-6.2,0.4-9.2
		c0.2-3.4,1-6.7,1.5-10c0.2-1.5,0.1-3.3,0.2-4.9c0.1-0.1,0.2-0.1,0.3-0.2c0.2,0.1,0.4,0.2,0.5,0.4c0.6,0.9-0.3,2.2,0.7,3
		c0.2,0,0.4,0.1,0.5,0.2c0.4,0.7,1.2,0.7,1.8,0.9c0.6,0.4,1.3,0.9,1.7,1.6c0.2,0.6,0.1,1.1-0.5,1.5c-1.1,0-2.1,0.4-3,0.8
		c-0.7-0.4-0.6,0.1-0.6,0.6c-0.1,0.5-0.5,0.6-0.8,0.8c-1.1,0.9-0.4,2.1-0.5,3.2c0.1,0.6,0.2,1.1,0,1.7c-0.9,1.5-1,3.2-1.2,4.9
		c-0.1,0.4-0.2,0.8-0.3,1.3c-0.1,0.9-0.1,1.9,0.2,2.8c0.1,0.3,0.2,0.6,0.3,0.9c0.1,0.2,0.1,0.4,0.1,0.6c0,0.4-0.2,0.8-0.5,1.1
		c-0.2,0.2-0.4,0.5-0.5,0.7c-0.2,0.5-0.2,1-0.2,1.5c0,0.7,0,1.4-0.2,2C17.2,105.7,17.1,105.9,16.9,106z"/>
	<path class="st9" d="M27,38.7c-0.1-1,0.1-1.8,0.9-2.6c1.4-1.4,2.7-2.8,4.1-4.2c0-1-1.4-0.8-1.5-1.7c-0.1-0.9,1-0.9,1.3-1.6
		c0.2-0.1,0.4-0.2,0.7-0.1c1.7,0.6,2.5,1.8,2.1,3.6c-0.1,0.3-0.2,0.6-0.4,0.9c-0.5,0.7,0,1.3,0.2,2c0,0.5-0.3,0.8-0.6,1
		c-0.6,0.3-1.2,0-1.7-0.2c-0.2-0.1-0.5-0.1-0.7,0.1c-0.1,0.2-0.2,0.5-0.3,0.7c-0.1,0.8-0.8,1.2-1,1.9C29.1,40,28,39.6,27,38.7z"/>
	<path class="st10" d="M51.5,67.1c0.9-1,0.3-2.2,0.4-3.4c0.9,0.7,1.1,1.6,0.8,2.8c-0.4,1.3-1,2.7,0.1,4c0.3,3.7,1.5,7.3,1,11.1
		c-0.1,0.9-0.1,1.7,0.2,2.6c0.3,0.8,0.3,1.6,0.3,2.3c0.1,3,0.6,6,0.8,9c0.2,3.3,0.1,6.7,0.1,10c0,0.7-0.3,1.4-0.9,1.8
		c-0.8-0.9-0.1-2-0.2-3c-0.2-6.7-0.4-13.5-1.5-20.1c-0.4-2.7,0.3-5.5-0.4-8.3c-0.3-1.4-0.6-3-0.6-4.5c0-0.2-0.1-0.5-0.2-0.7
		c-0.7-1.1-1.4-2.3-0.3-3.6C51.3,67.2,51.4,67.1,51.5,67.1z"/>
	<path class="st1" d="M52,70.4c0.9,0.9,0.4,2.1,0.6,3.2c0.5,2.9,1.3,5.8,0.5,8.7c-0.1,0.3,0,0.6,0.1,0.9c1.5,6.1,1.1,12.3,1.7,18.5
		c0.2,1.9,0,3.8-0.4,5.7c-0.1,0.2-0.3,0.3-0.4,0.5c-0.2,0-0.4,0-0.5,0c-0.7-0.9-0.2-1.9-0.2-2.8c-0.1-7.2-0.4-14.3-1.2-21.4
		c-0.4-3.7-0.4-7.4-0.7-11.1C51.3,71.8,51.3,70.9,52,70.4z"/>
	<path class="st11" d="M34.7,16.6c0.5,0,1,0,1.4,0c0.9,2.3,1.6,4.7,0.2,7.1c-0.3,0.4-0.6,0.8-0.9,1.1c-0.9,0.5-1.9,0.3-2.9,0.2
		c-0.1-0.1-0.2-0.1-0.2-0.2c0.5-0.9,0.6-2,1.3-3c0.4-0.5,0.8-1.5,0.4-2.2c-0.4-0.9,0.2-1.7,0.2-2.5C34.4,17,34.5,16.8,34.7,16.6
		L34.7,16.6z"/>
	<path class="st12" d="M43.3,35.8c-0.1-1.8,0-3.6-0.3-5.4c-0.2-1.2,0.3-1.8,1.2-2.3c0.5,0.3,0.9,0,1.2-0.3c0.1,0,0.2-0.1,0.3-0.1
		c0.8,0.4,0.2,1.5,1,1.9c0,1,0,2.1,0,3.1c0,0.6-0.4,0.8-0.9,0.3c0.4-0.5,0-0.8-0.1-1.2c-0.2,0.4,0.5,0.8,0.1,1.2
		c-0.4,0.1-0.8,0.1-0.9,0.6c0,0.3,0.1,0.5,0.4,0.5c2.1-0.5,2,0.9,1.9,2.3c-0.2,0.1-0.4,0.1-0.6,0c-1-0.2-2.1,0-3-0.4
		C43.5,35.9,43.4,35.9,43.3,35.8z"/>
	<path class="st13" d="M3.5,737.1c0.8,1,0.3,2.1,0.5,3.2c0.1,0.6-0.2,1.4,0.5,1.7c1,0.4,0.7-1,1.4-1.3c0.6,0.7-0.6,1.7,0.4,2.3
		c2.9,0.1,3.6,0.7,3.7,3.1c-0.7,1.4-1.7,1.2-2.6,0.2c-0.6-0.6-1.1-1-1.6,0c-0.5-0.3-0.8-0.9-1.5-1.1c-0.8-0.3-1.3-0.9-0.1-1.4
		c0.4-0.2,0.5-0.5,0.2-0.7c-1.6-1.1-0.9-2.7-1.1-4.1C3.4,738.3,3.5,737.7,3.5,737.1z"/>
	<path class="st14" d="M27.5,49.3c0.2,1.3-0.4,2.5-0.5,3.7c0,0.8-0.5,1.2-1.1,1.6c-0.9,0.5-1.3-0.2-1.8-0.5C24,54,23.8,54,23.6,54
		c-0.2-0.1-0.2-0.3,0-0.5c0.3-1.3,0.7-2.5,0.7-3.8c0-0.8,0.1-1.7,0.7-2.4c0.1,0,0.2,0.1,0.3,0.1c0.4,0.3,0.6,0.8,1,1.1
		C26.6,48.9,27.2,49,27.5,49.3z"/>
	<path class="st15" d="M27,38.7c0.5,0.1,1,0.1,1.4,0.2c0.8,0.3,1.2-0.1,1.5-0.7c0.1-0.1,0.2-0.2,0.4-0.1c0.1,0.1,0.2,0.1,0.2,0.2
		c-0.7,1-0.2,2.4-1,3.3v-0.1h-0.1h0.1c-0.6,1.1-0.1,2.4-0.9,3.4c-0.1,0.2-0.2,0.2-0.3,0.1c-0.1-0.1-0.2-0.1-0.2-0.2
		c-0.1-0.7,0.1-1.5-1.2-1.2c-0.9,0.3-1.1-0.3-0.9-1.1c0.3-1,0.7-1.9,0.6-3C26.8,39.4,26.7,39,27,38.7L27,38.7z"/>
	<path class="st16" d="M5.9,746.2c0-0.5,0-0.9,0-1.6c1,0.4,1.9,0.7,2.4,1.6c0.5,0.7,0.9,0.3,1.4,0.1c0.1,0.1,0.1,0.1,0.2,0.2
		c0.1,0.4,0.3,0.8,0.9,0.9c0.2,0.1,0.4,0.2,0.5,0.3c0.1,0.2,0.1,0.4-0.1,0.5c-1.3,0.4-2.8,0.5-4,1.4c-0.2,0.2-0.6-0.1-0.8-0.4
		C5.8,748.2,6.5,747.1,5.9,746.2L5.9,746.2z"/>
	<path class="st17" d="M19.8,75.1c-0.1,0-0.3,0-0.4,0.1c-0.1-2.1-0.1-4.2,1.8-5.8c0.2-0.1,0-0.6,0.1-0.9c0.1-0.1,0.2-0.1,0.3-0.2
		c1,0.2,2.5-0.9,2.9,0.7c0.3,1.5-1.1,1.9-2.2,2.3c-0.2,0.1-0.3,0.2-0.5,0.3C22.5,73.6,20.1,73.8,19.8,75.1z"/>
	<path class="st7" d="M16,747.2c0,0.2,0,0.3,0,0.5c-0.4,0.5-0.4,1.8-1.2,1.4c-0.8-0.4-0.5-1.5-0.2-2.3l0,0c0.3-0.3,0.2-0.7,0.5-1
		c0-0.2,0-0.3,0-0.5c0.3-0.3,0.3-0.6,0-1l0,0c-0.4-0.2-0.7-0.4-0.5-1l0,0c1.3-1,0.8-2.8,1.9-3.8l0,0c0.1-0.1,0.2-0.2,0.3-0.1
		c0.1,0.1,0.1,0.1,0.1,0.2l0,0c0.3,1,0.5,1.9,0,2.9l0,0c-0.7,1.2,0.3,2.6-0.5,3.8c0,0.2,0,0.3,0,0.5C16.3,746.8,16.1,747,16,747.2z"
		/>
	<path class="st18" d="M16.5,746.2c0.2-1.3-0.5-2.7,0.5-3.8c0,0.8,0,1.6,0,2.4c0.5,0,0.5-0.4,0.6-0.6c0.2-0.3,0.4-0.5,0.7-0.4
		c0.3,0.1,0.6,0.5,0.5,0.7c-0.5,1.3,0,2.9-1.3,4.1C16.5,748,17.3,746.7,16.5,746.2z"/>
	<path class="st19" d="M21.2,68.5c-0.1-0.2-0.4-0.4-0.4-0.6c0.2-3.1,0.1-6.2,0.9-9.2c0.1-0.3,0.3-0.5,0.4-0.8
		c0.1,0.1,0.2,0.2,0.3,0.3c0.1,1.3-0.2,2.7-0.1,4c0,0.3-0.2,0.8,0,0.9c2.2,2.3,0,3.7-0.9,5.4C21.4,68.4,21.2,68.5,21.2,68.5z"/>
	<path class="st20" d="M16.9,106c0-0.2,0-0.4,0.1-0.6c0.8-0.2,1.4,0.4,1.3,1c-0.5,2.5-0.3,5.3-1.8,7.6c-0.1,0.1-0.3,0.1-0.4,0.1
		c0-1,0-1.9-0.1-2.9c0.1-0.4,0.4-0.8,0.3-1.1C15.7,108.5,16.3,107.3,16.9,106z"/>
	<path class="st21" d="M46.7,36.3c0.2,0,0.3,0,0.5,0c-0.2,1.5,0.6,2.8,0.5,4.3c-0.4-0.4-0.7-0.7-1.2-1.2c-0.4,0.6-0.2,1.2-0.3,1.7
		c0.3,1,0.3,1.9,0,2.9l0,0c-0.1,0.1-0.3,0.2-0.4,0.1c-0.1,0-0.2-0.1-0.2-0.1c-0.5-0.7-0.4-1.5-0.6-2.2c0-0.2,0-0.4,0-0.6
		c0-0.3,0.1-0.6,0.1-0.9c0.1-0.6,0-1.2,0.1-1.8c0-0.2,0.1-0.4,0.2-0.6c0.3-0.3,0.7-0.6,0.8-1.1C46.4,36.6,46.5,36.5,46.7,36.3z"/>
	<path class="st15" d="M27.5,49.3c-0.6,0.3-1.4,0.8-1.5-0.5c-0.2-0.1-0.2-0.3-0.2-0.5c0-0.4,0.1-0.7,0.2-1.1c0-0.2,0-0.3-0.3-0.3
		c-0.1,0-0.2,0.1-0.2,0.1c-0.2,0-0.3,0-0.4-0.2c0.2-2.1,0.2-2.1,2-1.4c0.3,0.1,0.6,0,0.9-0.1c0.3,0.2,0.3,0.6,0.2,0.9
		c-0.4,0.6-0.6,1.3-0.5,2.1C27.7,48.7,27.7,49,27.5,49.3L27.5,49.3z"/>
	<path class="st18" d="M16.9,742.4c0-1,0-1.9,0-2.9c0.4,0.2,0.5,0.6,0.5,1c0,0.3,0.2,0.7,0.5,0.5c0.8-0.5,1.4-0.6,1.3,0.6
		c-0.1,1-0.7,1.4-1.7,0.9C17.4,742.4,17.2,742.4,16.9,742.4z"/>
	<path class="st18" d="M14.5,746.7c0.1,0.7-0.2,1.4,0.2,2c0.8,0,0.7-0.9,1.2-1.1c0,1.7-0.9,2.5-2.7,2.9
		C13.7,749.1,13.8,747.8,14.5,746.7z"/>
	<path class="st18" d="M14.5,743.3c0.2,0.3,0.3,0.6,0.5,1c-0.6,0.3-1.1,0.8-1.4,1.4c-0.3,0.6-0.7,1-1.4,1c-0.1-0.1-0.1-0.2-0.2-0.3
		c0-1.1,0.3-2.2,1.1-3.1C13.6,743,14.1,743,14.5,743.3z"/>
	<path class="st19" d="M23.6,53.6c0,0.2,0,0.3,0,0.5c-0.5,1.2-1,2.5-1,3.9c-0.1,0.1-0.1,0.2-0.2,0.2s-0.2,0-0.2-0.1L22.1,58
		C22.3,56.3,22.2,54.7,23.6,53.6z"/>
	<path class="st11" d="M32.3,28.6c-0.2,0-0.3,0-0.5,0c0-1.3,0-2.6,0.5-3.8l0,0c2,1.1,0.5,2.4,0.2,3.6C32.5,28.5,32.4,28.6,32.3,28.6
		z"/>
	<path class="st18" d="M18.4,737.6c0.8,0.6,1.3-0.2,1.9-0.5c0,0.4-0.1,0.8-0.4,1.1s-0.6,0.8-1.1,0.6C18.2,738.6,18.4,738,18.4,737.6
		z"/>
	<path class="st18" d="M16.9,738.5c0.2-0.4,0.4-0.9,0.5-1.3c0.1-0.2,0.2-0.5,0.5-0.4c0.4,0.1,0.4,0.4,0.4,0.7
		C17.9,737.9,17.7,738.6,16.9,738.5z"/>
	<path class="st14" d="M27.9,46.5c0-0.4,0-0.7,0-1.1c0-0.1,0-0.3,0-0.4c0.2,0,0.3,0,0.5,0c-0.2,1.1,0.4,2.3-0.5,3.4
		c-0.1-0.1-0.2-0.1-0.2-0.2c-0.2-0.4-0.2-0.8-0.2-1.2C27.7,46.8,27.8,46.6,27.9,46.5z"/>
	<path class="st13" d="M5.9,746.2c0.8,0.9,0.3,1.9,0.5,2.9C5.5,748.2,6,747.2,5.9,746.2z"/>
	<path class="st18" d="M11.2,748.1c0-0.2,0-0.3,0-0.5c0.1-0.6,0.1-1.1,0.9-1l0,0C12.1,747.4,12.1,748.1,11.2,748.1z"/>
	<path class="st9" d="M27,38.7c0,0.4-0.1,0.8-0.5,1C26.5,39.3,26.6,38.9,27,38.7z"/>
	<path class="st7" d="M21.7,723.7c0-0.4,0.1-0.8,0.5-1C22.2,723.1,22.1,723.4,21.7,723.7z"/>
	<path class="st7" d="M22.2,721.2c0.2,0,0.3,0,0.5,0c0,0.4-0.1,0.8-0.5,1C22.2,721.9,22.2,721.6,22.2,721.2L22.2,721.2z"/>
	<path class="st18" d="M15,745.7c0,0.4-0.1,0.8-0.5,1C14.5,746.3,14.6,745.9,15,745.7z"/>
	<path class="st18" d="M15,744.3c0.5,0.3,0.5,0.6,0,1C15,744.9,15,744.6,15,744.3z"/>
	<path class="st18" d="M16.9,739.5c-0.2,0-0.3,0-0.5,0c0-0.4,0.1-0.7,0.5-0.9C16.9,738.9,16.9,739.2,16.9,739.5z"/>
	<path class="st18" d="M16,747.2c0.2-0.2,0.3-0.3,0.5-0.5C16.3,746.9,16.1,747,16,747.2z"/>
	<path class="st4" d="M34.7,16.6c-0.2,0.2-0.3,0.3-0.5,0.5C34.4,17,34.5,16.8,34.7,16.6z"/>
	<path class="st14" d="M25.1,46.9c0.1,0,0.3,0,0.4,0c0.2,0.4,0,0.6-0.4,0.5H25C25.1,47.2,25.1,47,25.1,46.9z"/>
	<path class="st22" d="M44.3,394.9c0.1,5.6-0.5,11.1-0.6,16.7c-0.1,5.5-0.6,11-0.9,16.4c-0.2,3.3-0.5,6.6-1.2,9.9
		c-0.4,1.8-0.4,3.8-0.7,5.7c-0.6,4-0.4,8.1-0.8,12.1c-0.3,2.7-0.4,5.6-0.7,8.3c-0.4,3.8-0.4,7.6-0.4,11.5
		c-0.4,5.4-0.9,10.7-1.2,16.1c-0.5,7.6-0.6,15.2-1.8,22.8c-0.4,2.7-0.6,5.5-0.8,8.3c-0.7,9.7-2.7,19.1-4.8,28.5
		c0,0.2-0.1,0.3-0.2,0.4c-1.8,2.7-4.7,4.7-4.6,8.4c0,0.7-0.5,1.3-0.9,1.9c-1.3,1.8-1.8,3.7-0.6,5.8c0.5,0.8,0.3,1.7-0.2,2.5
		c-0.6,1.1-1.3,2.2-1.9,3.3c-0.5,1.1-1.3,1.6-2.6,1.8c-1.5,0.2-3,0-4.2,1.3c-0.8,0.8-1.5,0.2-1.7-0.7c-0.3-1-0.2-2.1-0.4-3.6
		c-0.2,0.9-0.3,1.6-0.9,1.5s-1-0.6-1.1-1.2c-0.2-1.6-0.6-3.1-0.7-4.7c-0.2-8.1-0.7-16.3-0.6-24.4c0-0.5,0.1-1-0.2-1.4
		c0-0.2,0-0.3,0-0.5c-0.7-8.3-1.1-16.7-0.4-25.1c0.4-4.2,0-8.3-0.2-12.4c-0.3-7.7-0.5-15.3-0.7-23C8.1,475,8,468.8,7.7,462.7
		c-0.2-2.8-0.1-5.7,0-8.5c0.2-2.4-0.4-4.9,0.4-7.3c0.1-0.5,0-0.9-0.2-1.4c-0.1-0.4-0.3-1-0.2-1.4c0.8-2.5,0-5.1,0.8-7.5
		c0.1-0.4,0.1-0.8,0.1-1.2c0-2.7-0.1-5.4,0.5-8c-0.4-0.8-0.4-1.6,0-2.4c0-0.3,0-0.6,0-1c0.4-0.5,0.4-1,0-1.4c0-0.8,0-1.6,0-2.4
		c0.4-0.5,1.1-0.8,1.1-1.5c-0.1-1.4,0.7-1.7,1.9-1.7c1.2,0,1.9-0.6,2.2-1.8c0.2-1.2,0-2.2-1.2-2.8c-0.4-0.2-0.7-0.3-1-0.6
		c-0.4-0.3-0.7-0.7-0.7-1.2c0.1-0.7,0.6-0.8,1.2-0.9s1.3,0.1,1.9-0.6c-0.8-0.7-2.8,0.1-2.7-1.7c0.2-2.2-0.4-4.9,1.8-6.4
		c1.1-0.8,1.1-1.3,0.4-2.2c-1.1-1.3-0.8-2.5,0.2-3.6c1.3-0.5,2.3,0.4,3.4,0.7c1.3,0.3,2.5,1.2,2,2.8c-0.5,1.8-1.9,0.1-2.9,0.4
		c-0.1,1.3-0.6,2.5,1.8,1.9c2-0.5,3.3-1.3,3.7-3.5c0.1-1,0.3-2.3,1.7-2.2c1.2,0.1,1.9,1,1.9,2.3c-0.1-3.3-0.4-6.6,1.4-9.7
		c0.2-0.4,0.5-0.9,0.3-1.4c-1.1-2.9,0.1-5.8,0.1-8.8c0.2-0.7,0.4-1.4,0.7-2c0.4-1,1.2-1.9,2.1-1c0.8,0.8,1.7-0.8,2.3,0.3
		c0,2.3,0.2,4.6-0.7,6.8c-0.9-0.2-1.8-0.5-1.5,1c0.1,0.7-0.1,1.3-0.2,1.9c0.7-0.8-0.7-2.5,1.3-2.8c1,2.4,0,5.1,1.1,7.2
		c0.3-0.5,0.7-1.6,1.9-1.2c1.5,0.5,0.7,2,1.2,3.2c0.3-1.1,0.1-2.1,0-3.2c-0.1-0.7-0.1-1.5,0.7-1.9c0.8-0.3,1.1,0.5,1.5,0.9
		c2,1.9,2.2,4.4,2.2,6.8c0,3,0.2,6,1.2,8.9c0.7,2,0.6,4.2,0.9,6.2c0-2.9,0.1-5.8,0-8.8c-0.1-1.9,0.3-3.8,0.6-5.7
		c0.1-0.7,0-1.9,1.1-1.7C44.9,393.1,44.6,394.1,44.3,394.9z"/>
	<path class="st23" d="M47.2,202.4c0,0.8,0,1.6,0,2.4c-0.7,2.4,0.2,4.8-0.5,7.2c0,1,0,1.9,0,2.9c0,0.3,0,0.6,0,1
		c-0.5,1.3-0.1,2.6-0.2,3.9c-0.1,0.8,0.2,1.6-0.2,2.3c0,1.3,0,2.6,0,3.8c0.4,0.4,0,1.1,0.4,1.5c0,0.6,0,1.2,0,1.9
		c-0.2,0.2-0.3,0.3-0.5,0.5c0,0.3,0,0.6,0,1c0.5,0.6-0.1,1.4,0.4,1.9c0,0.2,0,0.3,0,0.5c0.3,0.3,0.3,0.6,0,1l0,0
		c-0.4,0.8-0.3,1.5,0,2.3c0.3,0.9,0.3,1.7,0.1,2.6c-1.8,7.8-1.9,15.7-2.8,23.6c-1,8.8-0.9,17.6-1.9,26.4c-0.2,1.7,0.1,3.3-0.2,5
		c-0.7,2.5-0.5,5.1-0.7,7.6c-0.4,5.8-0.8,11.6-1.2,17.4c-0.5,8.2-1.3,16.3-2.4,24.5c-0.8,5.9-2.5,11.7-2.8,17.7
		c0,0.6-0.2,1.3-0.4,1.9c-0.5,1.2-1.1,2.3-1,3.6c0.1,2.7-2,4.6-2.9,6.9c-0.3,0.5-0.8,0.7-1.4,0.8c-0.2,0.1-0.3,0.2-0.5,0.4
		c-0.3,0.4-0.2,1-0.4,1.5c-0.1,0.2-0.2,0.4-0.2,0.6c-0.3,1.9-0.5,3.7-1.7,5.4c-0.8,1-0.8,2.5,0,3.6c1,1.3,0.6,2.5-0.1,3.8
		c-0.8,1.5-1.8,2.8-2.3,4.4c-0.2,0.8-0.8,1.1-1.7,0.7c-1.6-0.6-3.1-0.4-4.4,0.8c-1.1,1-1.7,0.3-1.9-0.9c-0.2-1.3,0.1-2.7-0.4-4
		c-0.7,0.3-0.3,1.4-1.5,1.6c-0.8-2.1-1-4.4-1-6.6c-0.1-3.4-0.4-6.8-0.9-10.2c-0.4-6.3-0.4-12.5-0.6-18.8c0-1.1-0.1-2.2-0.3-3.3
		c0-1.4,0-2.9,0-4.3c-0.3-0.5-0.3-1,0-1.4c0-1.6,0-3.2,0-4.8c0.7-0.7,0.4-1.7,0.4-2.5c0-9.2,0-18.5,0-27.8c-0.5-2.7-0.6-5.5-0.1-8.1
		c0.8-4.7,0.4-9.6,1.3-14.2c0.5-2.9,0.8-5.9,1-8.7c0.3-4.4,1.8-8.5,1.6-12.9c-0.1-3.4,1.4-6.5,1.7-9.9c0.1-1,1.1-1.2,2-1.4
		c0.8-0.1,1.5-0.5,1.4-1.3c-0.3-2.6,0.8-5,0.7-7.6c0-0.8-0.1-1.5-0.8-1.9c-2-1.1-1.5-1.9,0.3-2.7c0.2-0.1,0.4-0.2,0.5-0.5
		c-1.8-1.4-2.4-5.1-0.8-7.6c2.2-3.5,1.8-7.2,1.5-10.9c-0.2-3.8-0.3-4.1,3.2-5.4c0.7-0.2,1.1-0.6,1.2-1.3c0.1-0.6,0.1-1.1,0.2-1.7
		c0.3-1.3,0.8-2.8,2.3-2.7c1.4,0,0.8,1.7,1.1,2.6c0.3,0.7,0.2,1.4,0.1,2.1c0.7-1.2,0.8-2.4,0.4-3.8c-0.4-1.5,1.7-4.3,3.2-4.5
		c1.2-0.2,1.9,0.4,1.6,1.6c-0.4,1.5-0.3,3-0.2,4.5c0,1,0.2,2.1,1,2.9c1,1,1.1,2.2,0.8,3.2c0.8-3.3,1-3.4,2.9-1.9
		c0.5-1.7,0.2-3.8,2.4-4.6c0.6-0.2,0.4-1.1,0.3-1.8c-0.1-0.9-0.1-1.8,0.3-2.6c0.3-0.6,0.6-1.2,1.4-1.2c1,0.1,0.8,1,1,1.7
		c0.2-7.7,0.9-15.3,1-23c0-1.3-0.1-2.4-1.1-3.5c-1.2-1.2-0.9-2.9,0.3-3.8c1.4-1.1,1.5-2.5,1.5-4c0-1.6,0.2-3.3,1.4-5.1
		c0.5,1.6,0.5,2.7,0.2,3.9c0,1.3,0,2.6,0,3.8c-0.7,2.5,0.2,5.1-0.5,7.7c0,1.3,0,2.6,0,3.8c-0.6,0.9,0.1,2-0.5,2.9c0,1.3,0,2.6,0,3.8
		C47,199.8,47.8,201.2,47.2,202.4z"/>
	<path class="st24" d="M29.9,551.8c-0.1-1.7,0.3-3.3,0.8-4.9c1.1-4,1.6-8.1,2.1-12.2c0.2-1.4,0.8-2.7,1-4.2c0.6-4.2,1-8.3,1.7-12.5
		c0.4-2.2,0.3-4.4,0.6-6.6c0.6-5.1,0.8-10.1,1.1-15.2c0.1-2.5,0.1-4.9,0.4-7.4c0.4-2.8,0.2-5.6,0.8-8.3c0.2-1,0.1-2.1,0.1-3.1
		c0-0.7-0.2-1.5,0.5-2c0.4,2.1,0.1,4.2-0.3,6.3c-0.1,0.3-0.2,0.6-0.2,0.9c0.3,3.4-0.3,6.7-0.6,10c-0.4,4.1-0.1,8.3-0.8,12.4
		c-0.4,2.3,0,4.8-0.6,7.1c-0.8,3-0.1,6.2-0.9,9.2c-0.4,1.5-0.3,3.2,1.6,4.3c0.3-1.9,0.6-3.6,0.9-5.4c1.1,0.2,0.9,1.1,0.7,1.6
		c-0.8,3.2-0.2,6.4-0.4,9.5c-0.3,3.7,0,7.4-0.8,11c-0.2,0.8,0.2,1.5,0.1,2.3c-0.2,3-0.7,6-0.7,9c0,4.1-0.5,8.2-0.8,12.3
		c-0.3,2.9-0.1,5.9-0.1,8.9c0,4.2-0.5,8.4-0.9,12.6c-0.2,2.8-0.9,5.5-0.6,8.3l0,0c-0.7,1.1,0.1,2.3-0.5,3.4v0.2v0.2
		c-0.7,2.2-0.6,4.5-1,6.7l0,0c-0.6,4.7-1,9.4-1.2,14.2c-0.3,6.8-0.7,13.6-1.2,20.4c0.1,4.5-0.4,9.1-0.9,13.6c0,0.4-0.1,0.8-0.1,1.2
		c0.2,4.1-0.7,8.1-0.5,12.2c0,0.7-0.2,1.3-0.4,1.8c-1.8,0-2-1.3-1.9-2.6c0.2-2.9,0-5.8-0.3-8.7c-0.3-2.6,0.1-5.4,0.3-8.1
		c0.1-0.8,0.6-1.3,0.1-2.4c-0.6-1.5-1.1-4,0.7-5.7c0.6-0.5,1-1,0.4-1.8c-1-1.1-0.7-2.1,0.3-3.2c1.3-1.4,1.1-3.3,1.3-5
		c0.2-1.4,0-2.9,0.1-4.3c0.4-5.8,0.8-11.6,1.2-17.3c0.2-2.2,0.3-4.4,0.7-6.6c0.1-0.3,0.2-0.5,0.4-0.7c-0.1-0.1-0.2,0-0.2,0.2
		c-1.3,0.4-2.5-0.5-3.9-0.4c-1.3,0.1-1.9,0.4-2.5,1.4c-1.2,2-2.7,3.5-4.7,4.6c-0.8,0.4-1.9,0.9-1.8-0.2c0-2.5-1.7-5-0.6-7.3
		c1.7-3.6,0-6.9,0-10.3c0-0.2,0.2-0.2-0.2-0.2c-2.3,0.1-2.2-2-2.6-3.3c-0.6-1.8-1.4-2.8-3.4-2.6c-1.6,0.2-2.2-0.6-2.2-2.1
		s0-3-1.9-3.7c-0.8-0.2-0.7-1.1-0.6-1.9c0.2-1.1,0.5-2.2,0.1-3.4c-0.8,0.1-0.8,1.2-1.5,1.3c0,0-0.1,0-0.1,0.1
		c0.1-0.1,0.3-0.1,0.4-0.1c1.1,0.4,1.2,1.1,1,2.1c-0.2,1.1-0.8,2.1-1,3.2c-0.4,1.8-1,2.4-2.4,0.7c-2,6.8-1.3,13.6-1.4,20.3
		c0,2.4-0.1,4.8,0.1,7.2c0,0.6,0.1,1.3-0.2,1.9c-0.2,0.5-0.5,1.1-1.2,1c-0.6-0.1-0.6-0.7-0.6-1.1c0-0.6-0.2-1.3,0.2-1.9
		c0-0.3,0-0.6,0-1c0.6-3.3,0.1-6.6,0.2-10c0.1-3.1-0.3-6.2,0.2-9.2c0-2.1,0-4.2,0-6.2c0.7-2-0.2-4.2,0.5-6.2c0-2.1,0-4.2,0-6.2
		c0.6-1.7-0.2-3.6,0.5-5.3l0,0c0.7-2-0.2-4.2,0.5-6.2c0-1,0-1.9,0-2.9c0.6-1.7-0.2-3.6,0.5-5.3c0-1,0-1.9,0-2.9
		c1-1.1,0.1-2.6,0.7-3.9c0.9,0.3,0.8,1.1,0.7,1.7c-0.8,2.7-0.3,5.5-0.5,8.3c-0.1,1-0.5,1.8-0.4,2.8c0.1,1.9,0.9,2.5,2.8,2.1
		c0.4-0.1,0.6-0.1,0.8,0.2c0.2,0.3,0.1,0.7-0.3,0.8c-1.2,0.4-1.1,1.1-0.4,1.8c0.6,0.6,0.8,1.3,1.2,2c0.2,0.4,0.6,0.6,1,0.5
		c0.5-0.1,0.6-0.5,0.6-0.9c0-2.1,0-4.1,0-6.2c1.1,0,0.7,0.9,0.7,1.4c0,4.9,0.6,9.8,1,14.7c0,0.4,0,0.8,0.3,1.1
		c1.6,2.3,3,4.6,2.6,7.5c-0.1,0.8,0.6,1,1.3,0.9c2.2-0.2,3.5-1.4,4-3.5c0.3-1,0.6-2,1.7-2c1.2,0,1.9,0.7,2.1,1.6
		c-0.1-2.3-0.5-4.9,0.6-7.4c0.7-1.6,0.9-3.2,0.6-5.1c-0.5-2.4,0.7-4.8,0.8-7.3c-0.1-0.3,0.8,0.2,0.3-0.4c0-1.6,0.1-3.1,2.3-2.9
		c0.2,0.1,0.4,0.2,0.5,0.3c0.6-0.6,0.7-0.6,0.4-1.5C28.7,553,28.9,552.3,29.9,551.8z"/>
	<path class="st3" d="M11.2,353.1c0.1,0.3,0.4,0.5,0.4,0.8c-0.2,3.1,0.6,6.1,0.5,9.2c-0.1,4.2,0.8,8.3,0.5,12.5
		c0.3,3.1,0.5,6.1,0.7,9.2c0.1,2.8,0.2,5.5,1.1,8.2c0.3,0.8,0.2,1.6-0.3,2.3c0.1,0.4,0.4,0.8,0.1,1.1c-0.7,0.7-0.4,1.3,0.2,1.8
		s1.2,1.1,1.2,2c0,0.7,0,1.3-1.1,1c-0.8-0.2-1.1,0.3-1.3,1c-0.6,1.7-0.3,3.5-0.8,5.2c-0.1,0.5,0.2,0.8,0.6,0.8c0.3,0,0.6,0,0.9-0.1
		c0.6-0.2,1.3-0.5,1.5,0.5c0.2,0.9-0.5,1.8-1.4,1.8c-0.2,0-0.3-0.1-0.5-0.1c-0.6,0-1.5-0.4-1.6,0.4c-0.2,0.8,0.7,0.8,1.3,1.1
		c1.9,0.8,2.8,3.2,1.5,4.9c-0.7,1-1.9,1.4-3.2,1c-0.7-0.2-0.9,0.2-0.8,0.7c0,0.5,0.8,0.8,0.4,1.2c-0.5,0.6-1.2,0.7-2,0.7
		c0-2.6,0-5.2,0-7.8c0-0.8-0.3-1.6,0.5-2.2c0.6-1.3,0.8-2.6,0-3.8c-0.3-4.4,0.4-8.7,0.6-13.1c0.1-2.8,0.1-5.6,0.4-8.3
		c1-9.6,0.1-19.1,0.5-28.7C11.3,355.2,10.5,354.2,11.2,353.1z"/>
	<path class="st25" d="M26.1,558.5c-0.5,0.4-0.5,1-0.5,1.5c0,1.5,0.1,3-0.4,4.5c-0.2,0.4-0.1,1,0,1.4c0.2,1.2,0.4,3.4-0.1,4.3
		c-1.4,2.3-0.7,4.9-1.2,7.4c-0.1,0.5-0.1,1.1-0.4,1.6c-0.5-0.3-0.2-1-0.7-1.4c-1.4-1-2.1-0.8-2.4,0.8c-0.5,2.2-1.4,4-4.1,4
		c-0.8,0-1.3,1.5-2.2,0.4c-0.6-0.7-0.4-1.5-0.4-2.3c0-0.9-0.7-1.8,0.2-2.7c0.3-0.3-0.1-1.3-0.7-1.4c-2-0.4-1.8-2.1-1.9-3.3
		c-0.4-5.2-1.3-10.4-1-15.7c0-0.4-0.1-0.8-0.5-1c0-4.8,0-9.6,0-14.4c0.5,0.4,0.5,1,0.5,1.5c0,1.3,0.1,2.6,0,3.8
		c-0.3,4.6,0.3,9.2,0.6,13.8c0.2,3.7,0.1,7.5,0.8,11.2c0.1,0.4,0.2,0.8,0.6,1c0.6-0.7,0.1-1.3,0-2c-0.1-0.4,0-0.8,0.5-0.9
		c0.5-0.1,0.7,0.2,0.8,0.7c0.3,1.3,0.6,2.6,0.5,4c0,0.4-0.1,1.1,0.5,1.2c0.6,0.1,0.8-0.4,0.9-0.9c0.3-1.1,0.8-1.3,1.9-0.7
		c1.1,0.5,2.2-0.8,3.4-0.3c0.1,0,0.3-0.2,0.3-0.3c0.4-1.9,1.9-3.3,2.7-4.9c0.3-0.6,0.1-1-0.2-1.5c-1.3-2-1.2-4.3,0.3-6.1
		c0.7-0.8,1-1.5,1.1-2.5c0.2-1.7-0.1-3.8,2.3-4.5c0.6-0.2,0.6-0.9,0.6-1.5c0-1.3,0.8-1.6,1.9-1.6c-0.2,0.6-1,1-0.4,1.9
		c0.9,1.3,0.2,2.5-0.5,3.7c-0.8-0.5-0.5-1.2-0.6-1.8l0,0C26.8,555.5,26.3,555.1,26.1,558.5z"/>
	<path class="st25" d="M7.8,454.4c0.5,2.5,0.2,5.1,0.3,7.6c0.2,4.4-0.3,8.8,0.3,13.2c0.6,4.6,0.3,9.2,0.4,13.9
		c0,4.4,0.3,8.8,0.7,13.1c0.4,5.4,0.5,10.9,0.2,16.3c-0.2,4.4-0.5,8.8-0.3,13.1c0.2,3.4,0.4,6.8,0.4,10.3c-0.2-0.3-0.4-0.5-0.4-0.8
		c-0.7-7.7-0.9-15.5-0.4-23.2c0.2-3.8,0-7.6-0.1-11.4c-0.4-8.9-0.3-17.9-0.6-26.8c-0.1-4.2,0-8.5-0.4-12.6
		c-0.4-3.4-0.3-6.8-0.4-10.3C7.3,455.9,7.1,455,7.8,454.4z"/>
	<path class="st22" d="M9.7,406.4c0.4-0.1,0.9-0.4,0.9,0.2c0.1,1.2,0.1,2.4-0.1,3.5c-0.1,0.5-0.5,0.5-0.9,0.1
		C9.7,408.9,9.7,407.7,9.7,406.4z"/>
	<path class="st3" d="M9.3,425.1c0,0.8,0,1.6,0,2.4C8.6,426.7,8.6,425.9,9.3,425.1z"/>
	<path class="st3" d="M9.3,422.7c1,0.5,1,1,0,1.4C9.3,423.7,9.3,423.2,9.3,422.7z"/>
	<path class="st3" d="M11.2,347.3c0,0.5,0,1,0,1.4C10.6,348.3,10.6,347.8,11.2,347.3z"/>
	<path class="st3" d="M33.7,363.2c0.9-1.9,0.5-4.1,0.8-6.1c0.5-3.1,1.3-6,1.8-9.1c0.3-1.9,0.2-3.8,0.7-5.7c1.1-4.9,1-9.9,1.9-14.8
		c0-0.2,0.1-0.3,0-0.5c-0.3-3.7,0.3-7.3,0.6-11c0.3-3.4,0.3-6.8,0.7-10.2c0.3-3.1,0.7-6.2,0.7-9.3c0-0.8-0.3-1.8,0.5-2.5
		c0.2-0.2,0.5-0.1,0.7,0.1c0.9,2.5-0.1,5-0.2,7.6c-0.1,1.7-0.2,3.5-0.3,5.2c-0.1,2.1,0.2,3.7,2.5,4.5c1.2,0.4,1.7,1.7,1.5,3
		c-0.3,1.9-0.5,3.8-0.4,5.7c0,0.8-0.2,1.7-1.1,1.9c-0.9,0.2-1.2-0.7-1.5-1.3c-0.7-1.5-1.7-2.9-0.9-4.8c0.3-0.8-0.2-1.4-0.6-2.2
		c-0.4,1.3-0.5,2.4-0.5,3.6c0.1,5.5-0.4,11-1.3,16.4c-0.2,1.5-0.2,2.5,1.8,2.7c3,0.2,3.1,4.9,1.8,6.5c-0.6,0.7-1.3,0.6-1.8-0.1
		c-0.6-0.8-1.3-1.5-2.5-2c-0.8,6.5-2.7,12.8-2.2,19.3c0.6-1.1,0.5-1.1,0.6-2.5c0.1-1.2,0-2.8,1.5-2.8c1.3,0,1.2,1.6,1.4,2.7
		c0,0.3-0.1,0.5-0.3,0.9c0.5-0.6,1-0.9,1.6-1.1c2.4-0.8,4-2.4,4.1-5c0.1-5.5,1.2-11,0.7-16.5c-0.2-2.5,0.9-4.7,1-7.1
		c0.2-3.6,0-7.2,0.9-10.7c0.2-0.8,0-2.1,1.6-1.7c0,0.6,0,1.3,0,1.9c-0.6,0.7,0.1,1.7-0.5,2.4c0,0.3,0,0.6,0,1
		c-0.2,0.1-0.3,0.3-0.5,0.5c0,0.5,0,1,0,1.4c0.4,1,0.4,1.9,0,2.9c0,1.4,0,2.9,0,4.3c-0.3,0.3-0.2,0.7-0.5,1c0,0.2,0,0.3,0,0.5
		c-0.2,0.1-0.3,0.3-0.5,0.5c0,0.6,0,1.3,0,1.9c0.6,0.9-0.1,2,0.5,2.9c0,0.5,0,1,0,1.4c-0.2,0.2-0.3,0.3-0.5,0.5c0,0.5,0,1,0,1.4
		c-0.4,1.1-0.4,2.2,0,3.4c0,0.3,0,0.6,0,1c-0.3,0.3-0.2,0.7-0.5,1c0,0.6,0,1.3,0,1.9c-0.6,1.1,0.1,2.3-0.5,3.4
		c0.1,5.5-0.6,11-0.6,16.5c0,4.8-0.5,9.5-0.9,14.3c-0.1,1.4-0.6,2.8-0.5,4.3c-0.7,1.4-0.5,2.9-0.9,4.9c0.4-1-0.4-2,0.9-2
		c-0.2,1.8,0.5,3.6-0.5,5.3c-0.1-0.6,0.2-1.2-0.4-1.7c-0.2,0.2-0.4,0.2-0.4,0.3c0.3,2.5-0.9,4.9-0.7,7.4c0.3,2.5,0.1,5.1,0.1,7.7
		c0,0.4,0,0.8,0,1.2c0,0.6-0.3,0.9-0.9,0.8c-0.5-0.1-1-0.5-0.8-1c1.1-2-0.7-4-0.1-6c0.1-0.2-0.1-0.5-0.2-0.7c-1-2.6-1.6-6-1.3-8.8
		c0.1-1.6-0.6-3.1-0.5-4.7c0-0.3-0.2-0.6-0.5-0.8c-0.8-0.5-1.4-1.3-1.9-2.2c-0.8,2,0.4,4.1-0.6,6c-1.3-0.2-1.4-1-1.2-2.1
		c0.1-0.7,0.6-1.8-0.5-2c-0.9-0.2-1.4,0.7-1.5,1.5c-0.1,0.9-0.5,1.3-1.7,1c1.1-1.2,0.7-2.2,0.4-3.5c-0.4-1.7-0.1-3.7-0.1-5.5l0,0
		c0.2-0.3,0.4-0.5,0.4-0.8c-0.1-2.2,0.3-4.3,0.5-6.4c-0.8-0.8-0.9-1.8-0.6-2.6C33,369.2,32.7,366.1,33.7,363.2z"/>
	<path class="st6" d="M49.6,316.6c-0.9,0.1-1,0.7-1,1.4c0.1,1.3-0.2,2.5-0.7,3.7c-0.1,0.4-0.4,0.8-0.3,1.1c1,2.5-0.4,5-0.1,7.6
		c0.1,0.4,0,0.9-0.1,1.2c-1.3,2.2-0.9,4.4-0.5,6.7c0.1,0.5,0.2,0.9,0.1,1.4c-1,4-0.9,8.1-0.9,12.2c0,3-2,4.4-3.7,6.2
		c-0.1,0.1-0.3,0.1-0.4,0.1c-1.9,0.3-1.9,0.3-2.5,1.7c0.1-1.8-0.2-3.3-0.9-5c-1.1,1-1.3,2-0.9,3.1c0.4,1.3-0.4,2.1-1,3
		c-0.4,0.6-1,0.7-1.9,0.3c1.1-1.1,1.6-2.2,0.4-3.5c-0.1-0.1-0.1-0.4,0-0.5c1.5-2,0.2-4.5,1.2-6.6c1-2.2,0.5-4.7,1.1-7
		c0.4-1.4,0.6-2.8,0.5-4.5c1.1,0.6,1.5,1.9,2.8,1.9c0.5,0,0.5,0.5,0.6,0.9c0.1,0.5,0.2,1.1,0.8,1c0.6-0.1,0.6-0.7,0.7-1.1
		c0.1-0.5,0.4-1.1,0.4-1.6c0-2.8-1.6-3.9-4.5-2.8c-0.5-1.1-0.4-2.2-0.2-3.2c1-5.9,1.5-11.8,1.4-17.8c0-1.4,0.7-2.6,0.6-4
		c0-0.2,0.3-0.4,0.4-0.5c0.3-0.1,0.7,0.2,0.6,0.5c-0.4,1.5,1,2,1.6,2.9c-1.6,1.5-1.7,2-0.6,3.9c0.2,0.3,0.5,0.7,0.7,1
		c0.3,0.5-0.1,1.5,0.9,1.2c0.9-0.3,0.3-1.1,0.3-1.6c0-1.9,0.1-3.7,0.5-5.6c0.3-1.3-0.1-2-1.4-2.6c-0.4-0.2-0.7-0.3-1.1-0.4
		c-1.1-0.2-1.5-0.9-1.4-1.9c0.2-2.6,0-5.2,0.3-7.9c0.3-2.5,0.7-5,0.7-7.6c-0.4-2.2-0.4-4.4,0.2-6.6c0.1-0.5-0.1-1.2,0.8-1.2
		c0.7,0,0.9,0.6,1,1.1c0.1,0.2,0.1,0.5,0.1,0.7c0.2,3.1,0.2,3.1,3,1.4c0.6-0.4,1.2-0.7,1.9-0.9c0.6-0.2,1.3,0,1.3,0.6
		c0,1.9,1.4,3.7,0.5,5.8c-0.5,1.2-0.2,2.5-0.2,3.8c-0.1,2.5,0.3,5.1-0.8,7.5c-0.2,0.3-0.2,0.9,0.3,1.2c0.7,0.6,0.6,1.5,0.4,2.2
		c-0.5,1.9-0.4,3.9-0.4,5.9C50,316,49.9,316.4,49.6,316.6z"/>
	<path class="st3" d="M50.1,307.5c0,0.3,0,0.6-0.1,1.1c-0.7-1.2-1-2.2-0.3-3.3c0.4-0.7,0.4-1.5,0.4-2.3c0-2,0-4,0-6
		c0-0.6-0.1-1.2,0.1-1.6c0.8-1.5,0.5-2.9,0-4.4c-0.2-0.7,0.1-1.5-0.6-2.1c-1.2,0.6-2.6,1-3.5,2.1c-0.7,0.7-1.6,0.9-2.4,0.4
		s-0.6-1.4-0.5-2.2c0.2-1.6,0.3-1.6-0.3-2.9c-1.2,2.6-1,5.1-1,7.7c-0.2,0-0.3,0-0.5,0c-0.2-4.7,0.4-9.4,0.6-14s0.4-9.2,0.9-13.8
		c0.6-6.3,1.2-12.6,2.2-18.8c0.6-3.7,1.2-7.5,1.1-11.3c0-0.7-0.2-1.5,0.5-2c0,0.8,0.1,1.5,0.5,2.3c0.7,1.3,0.8,2.7-0.3,4
		c-0.3,0.3-0.6,0.7-0.6,1c0.3,2.8-1.1,5.5-0.3,8.3c0.2,0.7,0.3,1.4-0.6,1.7c-0.3,0.1-0.2,0.6-0.1,0.9c0.6,0.3,0.8-0.5,1.4-0.4
		c0.5,0.1,0.7-0.3,0.5-0.8c-0.3-1.3,0.2-2.7,0-4c-0.1-0.7,0-1.5-0.4-2.2s-0.2-1.4,0.8-1.6c0,0.7,0,1.3,0.6,1.8
		c1.1,1,1.1,2.2,0.4,3.5c-0.6,1.2-0.8,2.2,0.4,3.4c1,0.9,0.6,2.6,0.9,3.8c0.3,1.5,0.1,3,0.5,4.5c0,0.1,0,0.3,0,0.5
		c-0.8,3.5,0.3,6.9,0.9,10.3c0.1,0.8,0,1.6,0.1,2.4c0.1,3.2-0.2,6.3,0.4,9.5c0.4,2.2,0.1,4.4-0.9,6.5c0,0.2,0,0.3,0,0.5
		c-0.2,0.2-0.3,0.3-0.5,0.5c0.2,0.3,0.3,0.6,0.5,1c0.2,0.2,0.3,0.3,0.5,0.5c0,1,0,1.9,0,2.9c-0.1,0.2-0.3,0.3-0.4,0.5
		c0,2.1,0,4.2,0,6.2c-0.6,0.9,0.1,2-0.5,2.9c0,0.5,0,1,0,1.4c-0.2,0.2-0.3,0.3-0.5,0.5C50.1,306.5,50.1,307,50.1,307.5z"/>
	<path class="st22" d="M44.8,389.6c-0.6,0.3-0.3,1-0.9,1.6c0-1.7-0.5-3.2,0.9-4.5C44.8,387.7,44.8,388.6,44.8,389.6z"/>
	<path class="st6" d="M46.7,351.7c0.2-1.1-0.4-2.3,0.5-3.4C47,349.4,47.6,350.7,46.7,351.7z"/>
	<path class="st6" d="M47.6,344.5c-0.7-1.1-0.7-2.2,0-3.4C47.6,342.2,47.6,343.3,47.6,344.5z"/>
	<path class="st6" d="M48.1,337.7c-0.8-0.8-0.3-1.9-0.5-2.9C48.5,335.7,48,336.8,48.1,337.7z"/>
	<path class="st6" d="M50.5,304.2c0.1-1-0.4-2,0.5-2.9C50.9,302.2,51.4,303.3,50.5,304.2z"/>
	<path class="st6" d="M48.6,326.7c0-1,0-1.9,0-2.9C49.3,324.8,49.3,325.7,48.6,326.7z"/>
	<path class="st6" d="M49.1,320.9c0.1-0.8-0.3-1.7,0.5-2.4C49.5,319.4,49.9,320.3,49.1,320.9z"/>
	<path class="st6" d="M47.2,346.4c0-0.4,0.1-0.7,0.5-1C47.6,345.8,47.6,346.2,47.2,346.4z"/>
	<path class="st6" d="M48.1,332c0-0.4,0.1-0.7,0.5-1C48.6,331.4,48.5,331.8,48.1,332z"/>
	<path class="st6" d="M51,295c0.1-0.2,0.3-0.3,0.4-0.5C51.3,294.7,51.2,294.9,51,295z"/>
	<path class="st6" d="M51.5,291.7c-0.2-0.2-0.3-0.3-0.5-0.5C51.2,291.4,51.3,291.5,51.5,291.7z"/>
	<path class="st6" d="M50.5,290.2c0.2-0.2,0.3-0.3,0.5-0.5C50.8,289.9,50.7,290.1,50.5,290.2z"/>
	<path class="st6" d="M48.6,322.4c0.2-0.2,0.3-0.3,0.5-0.5C48.9,322.1,48.8,322.2,48.6,322.4z"/>
	<path class="st6" d="M50.1,306.1c0.2-0.2,0.3-0.3,0.5-0.5C50.4,305.7,50.2,305.9,50.1,306.1z"/>
	<path class="st6" d="M47.7,339.7c0.2-0.2,0.3-0.3,0.5-0.5C48,339.3,47.8,339.5,47.7,339.7z"/>
	<path class="st6" d="M47.7,332.9c0.2-0.2,0.3-0.3,0.5-0.5C48,332.6,47.8,332.8,47.7,332.9z"/>
	<path class="st20" d="M21.3,78.6c-0.2,0-0.3,0-0.5,0c-0.5-0.8-0.3-1.7,0-2.5c0.3-0.6,2.2,0.5,1.3-1.3c0-0.4,0.2-0.6,0.5-0.7
		c0.7-0.3,2.2,0.4,1.5-1.4c-0.2-0.2-0.4-0.5-0.6-0.7c-0.1-0.4,0-0.8,0.1-1.2c0.1-0.2,0.2-0.3,0.3-0.5c0.2-0.1,0.3-0.2,0.5-0.3
		c0.2-0.1,0.3-0.2,0.5-0.3c0.4-0.5-0.2-0.5-0.4-0.7c-0.4-0.6-0.4-1.2,0.1-1.7c0.7-0.5,1-1,0.7-1.9c0.8-1.2,0-2.4,0-3.6
		c0-0.7,0-1.4,0.6-2c1.8,0.4,0.5,1.7,0.7,2.7c0.9,0.2,1.9-0.1,2.8,0.5c0.8,0.5,1.3-0.2,1.9-0.6s1.2-0.6,1.8-0.1
		c0.7,0.6,0.3,1.1-0.1,1.7c-0.6,0.7-0.5,1.5-0.1,2.2c0.3,0.6,0.7,1,1.3,0.6c0.6-0.3,0.8-0.7,0.4-1.3c-0.2-0.3-0.4-0.5-0.2-1
		c1.2,0.4,2.4,0.6,3.5,1.4c0.5,0.3,1.1,0.4,1.5-0.1c0.5-0.7-0.1-1.2-0.5-1.6c-0.2-0.2-0.5-0.3-0.8-0.4c-0.5-0.2-1.2-0.4-1-1.1
		c0.2-0.6,1.1-1.1,1.6-0.8c1.1,0.7,1.6,0,2.4-0.4c0.8-0.5,1.7-0.1,2.6,0.4c1,1.7-1.2,1.8-1.6,3c0.7,0.5,1.7-0.9,2.2,0.1
		c0.5,1.1-0.2,2-0.8,2.8c-0.6,0.8-1.5,1.5-0.9,2.5c1.4-2.6,4.8-5.2,1.1-8.6c0.1-0.4,0.3-0.7,0.5-1.1c0.8-0.1,1.1,0.6,1.5,1
		c0.6,0.5,1.3,0.6,2,0.5c0.5-0.1,0.9-0.3,1.1-0.8c0.2-0.6,0.2-1.1-0.4-1.5c-0.6-0.3-1-0.9-1.9-0.8c-1.7,0.1-1.9-0.2-1.9-1.9
		c0-0.7,0-1.4,0-2.2l0,0c1.2,0.1,0.9,1.1,1,1.8c0.1,1,0.8,1.1,1.5,1c0.4,0,0.8-0.2,0.6-0.8c-0.2-0.6-0.1-1.1,0.3-1.5
		c0.3-0.3,0.4-0.9,1.1-0.7c0.6,0.2,0.6,0.6,0.5,1.1c-0.2,0.9,0.6,1.8-0.1,2.8c-0.1,0.1,0,0.6,0.1,0.6c1.6,0.7,1.3,1.7,0.5,2.9
		c-0.3,0.4-0.3,1,0.1,1.3c1.4,0.8,1.1,2.2,1.1,3.4l0,0c-1,1.1-0.9,2.2-0.1,3.3c0.7,1.7,0.1,3.2-1.5,3.4c-2.4,0.3-2.2,1.7-2.6,3.4
		c1-0.3,0.7-1,0.9-1.4c0.3-0.6,0.6-1.2,1.3-1.2c0.7,0,1.2,0.5,1.3,1.2c0.1,0.8,0.3,1.5,0.8,2.2c0.5,0.9,0.5,1.9-0.7,2.4
		c-0.4,0.2-0.9,0.3-1.1,0.9c-0.4,1.5-1.3,1-2.3,0.5c-0.2,1.1,0,2.1,0,3.1c-0.1,0.9-0.5,1.5-1.5,1.4c-0.9-0.1-1.2-0.7-1.2-1.5
		c0-0.9,1-2.1-0.1-2.6c-1.9-0.8-2.9-3-5.4-3.1c-0.1,1.1,0,2.1,0.2,3.3c0.9-0.4,1.9-1.1,2.7-0.1c0.8,1,0,1.8-0.6,2.5
		c-0.2,0.3-0.4,0.6-0.4,1.1c0.2,2.7,0.2,2.7-2.7,1.6c1,1.3,1.5,2.5,2.2,3.6c0.3,0.5,0.6,1.1,0.1,1.5c-1.2,1.3-2.9,0-4.3,0.6
		c-0.6,0.3-1.1-0.3-1.4-1c-0.9-2.3-0.2-4.7-0.2-7.1c0-0.6,0.8-0.5,1.1-0.9c-1.3,0.8-2.5,1.8-4.2,1.8c-1,0-0.7,0.8-0.4,1.4
		c0.5,0.8,1,1.6,1.4,2.5c0.7,1.7,0.3,3.1-1,3.4c-1.7,0.3-2.3-0.7-2.5-2.1c-0.3-2.1-0.7-4.1-3.2-4.8c3.3,3.1,3.9,6.2,2,9.1
		c0.5,0.8,1.4,0.6,2.1,1c0.5,0.3,0.9,0.7,0.9,1.3c-0.1,0.7-0.7,0.8-1.2,0.9c-0.6,0.1-1.1,0.1-1.7,0.1c-1.6-0.1-3.2-0.3-3.6,2.1
		c-0.2,0.9-1.3,1.3-2.3,1.4c-0.7,0.1-1.4,0.2-2.1,0.5c-2.2,1-2.3,0.9-2.3-1.7c0.2-0.3,0.3-0.6,0.5-1c0.5-1,0-2,0.1-3
		c0.1-0.9-0.5-2.1,0.7-2.5c1.3-0.4,2,0.6,2.5,1.7c-0.4-1.8,0.9-2.3,2.1-2.9c-0.8-1.2-1.8-0.8-2.7-0.6c-0.6,0.1-1.1,0.1-1.7-0.2
		c-0.5-0.5,0-0.8,0.2-1.2c0.5-0.8,0.6-1.5-0.4-1.9c0-0.5-0.3-1-0.5-1.4c1.2-1.1-0.2-2.8,1-3.8c0.4,0,0.8-0.1,1-0.5
		c0.1-0.1,0.2-0.1,0.3-0.2c0.2,0,0.4,0.1,0.6,0.1c1.2,0.3,1.6-1.1,2.5-1.4c0.6-0.3,0.5-0.9,0.5-1.4c0.8-1-0.4-1.1-0.8-1.5
		c-0.2,0-0.4-0.1-0.5-0.1c-0.3-0.1-0.5-0.3-0.7-0.5c-0.1-0.1-0.1-0.3-0.2-0.5c0-0.2,0.1-0.3,0.3-0.4l0.2-0.1h-0.2
		c-0.2,0.1-0.3,0.3-0.5,0.5c-0.2,0.1-0.4,0.2-0.7,0.3C21.4,78.6,21.4,78.6,21.3,78.6z"/>
	<path class="st26" d="M45.2,41.1c0,0.2,0,0.3,0,0.5c0.3,0.4,0.3,0.8-0.3,1c-0.3,0-0.5-0.4-0.7-0.3s0.1,0.3,0.2,0.5
		c0.4,0.4,0.7,1,1.3,1.1c0.2,0,0.3,0,0.5,0c-0.2,0.9,1,2.1-0.7,2.7c-0.4,0.1-0.6,1.1,0.5,1.3c0.7,0.1,0.6,0.6,0.1,1
		c-0.8,0.7-1.6,0-2.3,0.1c-1.4,0.1-1.1-0.7-1.4-1.5c-0.3-0.9,0.1-2.4-1.4-2.7c-0.7-0.4-0.9-1.2-1-1.9c0-0.4-0.1-0.8-0.2-1.2
		c-0.1-0.3-0.1-0.5-0.1-0.8c0-0.2,0.1-0.4,0.1-0.5c0.1-0.3,0.1-0.5,0.2-0.8c0-0.3,0-0.6,0-0.9s0.1-0.6,0.2-0.9
		c0.6-0.6,1-0.6,1.4,0.2c0.3,0.7,0.3,1.6,1.2,2c0.6-0.3,1.2-0.5,1.8-0.3c0.3,0.1,0.6,0.4,0.7,0.7C45.5,40.8,45.4,41,45.2,41.1z"/>
	<path class="st8" d="M22.7,74.2c-0.2,0.2-0.3,0.3-0.5,0.5c-0.4,0.3-0.7,0-0.9-0.3c0,0,0-0.1-0.1-0.1c0.3,0.2-0.1-0.1,0.1,0.2
		c0,0.5-0.2,0.9-0.6,1.3c-0.5,0.2-0.7-0.2-1-0.6l-0.1-0.1c0.1-1.2-0.1-2.5,1.7-2.2c0.1-0.9-1.9-0.8-0.7-2c0.1,0.1,0.2,0.2,0.3,0.1
		c0.1,0,0.2-0.1,0.2-0.1c1.1,0.2,1.7-0.5,2.5-1c0.3-0.2,0.4-0.5,0.3-0.8s-0.4-0.5-0.7-0.3c-0.7,0.4-1.3,0.1-1.9-0.3
		c-0.1-1-0.6-2.2,1.2-2.5c0.8-0.1,0.8-1,0-1.3c-1-0.3-0.9-0.9-0.9-1.8c0-1.7,0.5-3.3,0.6-4.9c0.1,0,0.3-0.1,0.4-0.1
		c0,0.8,0,1.6,0,2.4c0.4-0.1,1,0,1.1-0.2c0.6-1.7,1.5-0.8,2.3-0.2c0,0.8,0,1.6,0,2.4c-0.3,1.7-1.1,2.5-2.4,1.8
		c0.9,0.2,1.9,0.9,1.9,2.6c0,0.4-0.2,0.7-0.4,0.9c-0.6,0.5-0.6,1,0,1.4c0.3,0.2,0.3,0.5,0.2,0.8c-0.2,0.3-0.5,0.4-0.7,0.6
		c-0.2,0-0.3,0-0.5,0c-0.2,0.2-0.3,0.5-0.5,0.7c-0.5,0.3-0.4,0.5,0,0.7c0.2,0.2,0.3,0.3,0.5,0.5C24.7,73.8,24.4,74.5,22.7,74.2z"/>
	<path class="st27" d="M37.6,43.5c-0.3-0.3-0.6-0.6-1-1c-0.1-0.9-0.6-1.4-1.5-1.4s-1.9,0-2.8,0c-0.2-0.9,0.7-1,1-1.6
		c0.1-0.2,0.2-0.3,0.4-0.4c0.2-0.2,0.5-0.3,0.7-0.5c0.1-0.1,0.3-0.2,0.4-0.4c0.4-0.3,0.5-0.8,0.7-1.3s0.3-1.1,1-1.2
		c0.2,0.1,0.5,0.3,0.5,0.5c-0.2,2.3,0.8,4.5,1.1,6.7C37.9,43.1,37.8,43.3,37.6,43.5z"/>
	<path class="st28" d="M37.6,43.5c0-0.2,0-0.3,0-0.5c0.2-0.2,0.3-0.3,0.6-0.4c0.8-0.2,1.5-0.5,2.3-0.1c-0.1,0.9,0.4,1.6,0.5,2.4
		c0,0.2,0,0.3,0,0.5c-0.7,1.8-1.9,0.7-2.9,0.5l0,0c-0.5-0.4-1-0.7-0.5-1.4l0,0C38.7,44.2,38.1,43.8,37.6,43.5L37.6,43.5z"/>
	<path class="st29" d="M30.4,38.3c-0.2,0-0.4,0-0.5,0c0.4-0.6,0.3-1.4,0.9-1.9c1.4-0.4,2.3,0.8,3.6,0.9c0.8,0.3,1.2,0.8,0.3,1.5l0,0
		c-0.3,0.3-0.7,0.2-1,0.5l0,0c-0.7,0.4-1-0.1-1.5-0.5C31.7,38.6,31,38.4,30.4,38.3z"/>
	<path class="st30" d="M32.3,38.7c0.6-0.1,1,0.2,1.5,0.5c0.3,1.2-0.9,1.3-1.4,1.9c-0.4,0-1,0.1-1.2-0.4s0.3-0.8,0.7-1
		C32.1,39.5,32.2,39.1,32.3,38.7z"/>
	<path class="st31" d="M33.3,45.4c-0.8-0.9-0.4-1.9-0.8-2.6c-0.1-0.2,0.1-0.6,0.5-0.6s0.6,0.2,0.7,0.5
		C33.7,43.5,33.9,44.4,33.3,45.4z"/>
	<path class="st32" d="M38.6,47.6c0.6,0.6,1.1,1.1,1.3,1.7c0.1,0.3,0,0.6-0.3,0.8c-0.3,0.1-0.7,0.1-0.8-0.2
		C38.6,49.2,37.8,48.6,38.6,47.6z"/>
	<path class="st27" d="M35.4,43.9c-0.5-0.1-0.9-0.3-0.8-0.7c0.1-0.7,0.4-1.3,1.2-1c0.3,0.1,0.9,0.1,0.8,0.6
		C36.5,43.5,36.1,43.9,35.4,43.9z"/>
	<path class="st33" d="M44.8,55c-0.4,0.1-0.8,0.7-1.2,0.1c-0.4-0.6,0-1,0.4-1.4c0.3-0.3,0.6-0.7,1-0.4C45.6,53.9,45,54.5,44.8,55
		L44.8,55z"/>
	<path class="st34" d="M32.9,46.9c0.3,0,0.7,0.1,0.7,0.6c-0.1,0.4-0.4,0.7-0.8,0.6c-0.3,0-0.6-0.3-0.6-0.6
		C31.9,47,32.3,46.9,32.9,46.9z"/>
	<path class="st32" d="M38.1,45.9c1-0.2,2.1,0.6,2.9-0.5c0,0.5,0.1,1.2-0.4,1.2C39.7,46.7,38.6,47.1,38.1,45.9z"/>
	<path class="st35" d="M31.7,45.1c-0.1,0.4-0.3,0.7-0.8,0.6c-0.4,0-0.5-0.4-0.4-0.7c0.1-0.4,0.3-0.8,0.7-0.7
		C31.5,44.4,31.7,44.7,31.7,45.1z"/>
	<path class="st27" d="M37.6,43.5c0.2,0,0.5,0,0.7,0.1c0.3,0.4,1.4-0.2,1.2,0.7c-0.2,0.8-0.9,0-1.4,0.2c-0.1,0.1-0.3,0-0.5,0
		C37.6,44.2,37.6,43.8,37.6,43.5z"/>
	<path class="st26" d="M46.2,44c0-1,0-1.9,0-2.9C46.9,42.1,46.9,43,46.2,44z"/>
	<path class="st27" d="M36.8,46.7c-0.2-0.1-0.4-0.1-0.4-0.2c-0.1-0.2,0.1-0.4,0.3-0.5c0.1,0,0.4-0.4,0.4,0.1
		C37,46.3,36.9,46.5,36.8,46.7z"/>
	<path class="st27" d="M37.6,44.5c0,0.5,0.3,1,0.5,1.4c-0.3,0-0.6,0-1,0C37.1,45.4,37,44.8,37.6,44.5z"/>
	<path class="st36" d="M38.1,52.3c0.1,0.1,0.2,0.2,0.2,0.3c0,0.3-0.2,0.4-0.4,0.3c-0.1,0-0.2-0.3-0.1-0.4
		C37.8,52.4,38,52.4,38.1,52.3z"/>
	<path class="st14" d="M27.5,49.3c0-0.3,0-0.7,0-1c0.1-0.1,0.2-0.1,0.2-0.2c0.1,0.1,0.2,0.1,0.2,0.2l0,0
		C28,48.7,27.9,49.1,27.5,49.3z"/>
	<path class="st0" d="M30.4,628.6c0.1,2.6-0.1,5.2-0.5,7.8c-0.1,0.6-0.2,0.9-0.8,1.3c-1.5,1-1.5,1.4-0.2,2.6
		c0.8,0.8,0.8,1.6-0.3,2.1c-1.1,0.5-1.7,1.1-1,2.3c0.4,0.7-0.1,1.2-0.2,1.8s-0.7,1.2,0,1.7c0.8,0.6,0.9-0.6,1.5-0.7
		c0.1,0,0.1,0,0.2,0c0,0.1,0.2,0.3,0.1,0.4c-0.3,1.2-2.5,1.4-1.7,3.3c0.5,1.1-0.5,2.4-0.2,3.6c0.2,0.7,0.1,1.6-0.2,2.4
		c-0.1,0.4-0.3,1-0.2,1.1c1.3,1.2,0.4,2.6,0.6,3.9c0.2,1.7,0.3,3.3-0.1,4.9c-0.3,1.2,0.4,2,1.4,2.5c0.1,3.9-0.5,7.8-0.9,11.7
		c-0.5,5-1.4,9.9-2.1,14.9c-0.4,3-1.4,5.9-1.6,8.9c-0.2,2.9-1,5.8-1.5,8.6c-0.2,1.3-0.2,3-1.8,4c-0.8,0.5-0.7,2.2-1.3,3.2
		c-0.7,0-1.2,0.4-1.4,1.1c-0.2,1.1-0.7,2.1-0.6,3.2c-0.3,1.1-0.4,2.2-1.3,3.2c-0.8,1-0.7,2.3-0.4,3.5c0.8,2.3,0.5,4.1-1.4,5.8
		c-1.1,1.1-1,2.9-1.8,4.3l0,0c-1.1-1.1-2.4-1.3-3.8-1.5c-0.3,0-0.5,0.1-0.7,0.3c-0.2,0.3-0.3,0.6-0.4,1c-0.1,0.2-0.2,0.3-0.3,0.5
		c-0.1,0.1-0.3,0.2-0.5,0.3s-0.4,0-0.5-0.1c-0.1-2,0.2-4-0.5-5.9c-0.2-0.5-0.4-1.2-0.8-1.1c-2,0.5-1.5-1-1.8-1.9
		c-0.1-0.5-0.3-1.1-0.3-1.6c0.2-6-0.5-11.9-0.6-17.9c0-3.5-0.1-7.1-0.8-10.7c-0.1-0.5,0-1-0.1-1.4c-0.1-2.3,0.3-4.6-0.4-6.9
		c-0.1-0.3-0.1-0.7,0-0.9c0.6-1.8,0.3-3.6,0.4-5.5c0.6-0.3,0.7,0.5,1.3,0.6c-0.1-2,1.1-3.8,0.6-5.8c-0.3-1.3,0.1-2.9-1.5-3.7
		c-0.3-0.1-0.1-0.7,0-1.1c0.6-1,1-2,2.5-1.8c1.1,0.1,1-1,1.2-1.7c0.3-1-0.1-2.6,1.4-2.7c1.4-0.1,1.5,1.4,2,2.3
		c1.1-2.2,2.5-1.2,3.8-0.3c1.9-2.2,1.5-4.6,1.3-7.1c-0.2-1.8,0.1-3.3,1.1-4.8c0.4-0.5,0.8-1.2,1.5-0.9c0.8,0.3,0.6,1.1,0.4,1.7
		c-0.5,1.5-0.3,3.2-0.7,4.7c-0.2,0.8-0.2,1.6,0.7,2.6c-0.2-1.9,0.6-3.1,1.5-4.3c0.1-0.2,0.5-0.3,0.4-0.4c-1.8-1.7,0.2-2.9,0.5-4.3
		c0.3-1.5,0.9-2.8,1.1-4.4c0.2-1.4,0.5-3.1,3.3-2.9c-2.1-1.2-2.7-2.8-3.4-4.3c-0.7-1.5-0.4-2.5,1.4-2.7c0.7,0.3,1.1,0,0.9-0.8
		c-0.1-0.8-0.5-1.5-0.4-2.3c0.2-2,0.8-3.6,3.3-3.8c-1-0.4-2-0.6-2.5-1.5c-0.6-1-0.1-1.8,0.2-2.8c0.7-2.7,0.5-5.5,0.2-8.2
		c-0.1-1-0.9-2.5,0.8-2.7c1.5-0.2,2.9,0.4,3.2,2.2c0.1,0.4,0.1,0.8,0.1,1.3C28.8,628.7,29.5,627.8,30.4,628.6z"/>
	<path class="st0" d="M30.4,628.6c-1.5-0.2-2.1,0.7-2,2.2c-0.9-0.4-0.9-0.9-0.9-1.4c-0.2-2.7-0.2-2.7-3.3-3.4
		c0.6,1.8,0.3,3.6,0.8,5.4c0.6,2-0.3,4-0.8,5.9c-0.5,1.8,0,2.7,1.9,2.5c0.6,0,1.1-0.2,1.3,0.6c0.1,0.8-0.3,1.1-1.1,1.2
		c-0.8,0.1-1.9-0.3-2.3,0.8s-1,2.2-0.5,3.4c0.2,0.6,0.5,1.2,0.5,1.8s-0.2,1.4-1,1.4c-0.7,0-0.8-0.6-0.9-1.2
		c-0.6-0.5-0.9-1.1-0.8-1.9c0.1-0.5,0.4-1,0.3-1.6c-0.6-2.2-1.8-4.3-0.7-6.7c0.2-0.3,0-1.2-0.4-1.3c-1.6-0.5-2.8-1-1.2-2.8
		c0.2-0.2-0.3-0.5-0.5-0.6c-0.5-0.2-0.7,0.1-0.8,0.6c-0.3,0.9-0.3,2.2-1.8,1.9c-0.2-0.1-0.4-0.3-0.5-0.5c-0.7-1.9-0.6-4.4-4-3.1
		c-1.1,0.4-1.9-1.3-2.8-2.1c-0.9,1.5-1.4,2.8-1.6,4.5c-0.7,7.2,0.4,14.3,0.4,21.4c0,1-0.1,1.9-0.4,2.8c-0.2,0.7-0.5,1.5-1.4,1.4
		c-1-0.1-1.2-1-1-1.9c0.5-2.7,0.2-5.4-0.1-8.1c-0.4-4.8-0.1-9.5-0.5-14.3c-0.2-2.7,0.1-5.4-0.2-8.1c-2.1,1.5-2.7,3.6-2.5,6.2
		c0.1,1.4,0.5,2.9-0.6,4.1c-0.6-0.5-0.5-1.1-0.5-1.8c0-8.4,0-16.8,0-25.3c0-0.6-0.1-1.3,0.5-1.8c0.1,0.9-0.1,1.7,0.3,2.8
		c0.9-0.5,0.9-1.2,0.9-2c-0.2-7.4-0.3-14.8,0-22.2c0-0.6,0.1-1.1,0.3-1.6c0.5-1.5,0.9-3,0.6-4.7c-0.1-0.4-0.2-1,0.4-1.3
		c1.1,0.4,1.2,1.8,2.4,2.5c-0.5-2,1-3.3,1.2-5c0.1-1.1-0.3-1.4-1.2-1.6c0.2-0.6,0.9-0.9,0.6-1.7c-0.2-0.4,0.1-0.8,0.5-0.9
		c0.6-0.2,0.9,0.2,1.2,0.5c0.5,0.5,0.7,1.2,0.4,1.8c-0.4,0.9-0.3,1.9-0.6,2.8c-0.3,0.8,0,1.3,0.9,1.1s1.1,0.3,1.3,1
		c0.5,1.2,0.3,2.4,0.4,3.5c0,0.8,0.4,1.3,1.2,0.9c0.7-0.3,1.3-0.1,1.9,0c1.2,0.2,2.2,0.7,2.3,2.3c0,1.5,1,2.6,1.7,3.9
		c1.1,0.1,0.3-1.4,1.2-1.3c0.1,0,0.2,0.1,0.2,0.1c-0.5,2.4,0.2,4.7,1,6.9c0.3,0.9,0.1,1.6-0.2,2.5c-0.9,2.1-1.7,4.3-0.3,6.6
		c0.6,0.9-0.1,1.7-0.2,2.5c0,0.3,0,0.7,0.2,0.9c0.4,0.3,0.8,0,1-0.3c0.4-0.8,0.9-1.2,1.9-1.3c1.4-0.1,0.9-1.9,2.1-2.3
		c0.4-0.1,0.7-0.9,0.9-1.3c1-1.8,1-1.8,2.8-1c0.5,0.2,0.8,0.3,1.1-0.2c0.8-1.2,1-1.2,1.4,0.3c0.4,1.1,0.9,0.6,1.5,0.4
		c-0.3,3.8-0.6,7.5-0.8,11.3c-0.2,3.4-0.9,6.7-0.6,10.2C30.9,626,30.8,627.3,30.4,628.6z"/>
	<path class="st24" d="M21.7,645.9c0.2,0.6,0.3,1.3,0.5,1.9c-1.4,1.3-1.5,1.3-0.6,2.5c0.3,0.5,0.6,0.9,0.6,1.5
		c0,0.8,0.3,1.2,1.1,1.3c1,0.1,1.3,0.8,1.3,1.7s-0.4,1.4-1.3,0.8c-0.7-0.6-1-0.3-1.1,0.5c-0.2,1.1-1.4,2-0.6,3.3
		c0.3,0.4-0.2,0.9-0.5,1.3c-0.3,0.3-0.7,0.7-0.7,0.9c0.4,1.1-0.1,1.7-0.9,2.4c-0.7,0.6-0.3,1.3,0.7,1.7c0.6,0.3,0.6,0.7,0.1,1.1
		c-2.1,1.6-2.1,1.6-2.1,3.9c0,0.6-0.1,1.2-0.8,1.3c-0.6,0.1-0.7-0.5-1-0.9c-0.6-1-0.7-2.1-0.4-3.2c0.5-1.8,0.1-3.7,0.9-5.5
		c-1.8,1.2-2.4,3-2,5.1c0.2,1,0.6,1.9,0.1,2.8c-0.6,1,0.6,1.6,0.5,2.4c-0.1,0.8-1.5,0.6-1.5,1.6c0,0.3,0.2,0.7,0.1,0.9
		c-0.2,0.6-0.7,0.9-1.3,0.4c-0.2-0.1-0.3-0.4-0.4-0.6c-0.4-0.7-1-1.1-1.8-0.9c-0.9,0.2-0.9,1-0.8,1.7c0,0.1-0.2,0.2-0.3,0.5
		c-1-1-0.9-2.7-2.3-3.5c-1.1,1.1-0.3,2.5-1,3.6c-0.2,0.3-0.1,0.8-0.3,1.2c-0.2,0.4-0.6,0.8-0.9,0.5c-1.2-1.3-1.7-0.1-2.3,0.6
		c-0.1,0.1-0.3,0.1-0.5,0.1c-0.5-2.8-0.1-5.7-0.2-8.5c-0.1-1,0.3-2.1-0.2-3c0-1,0-1.9,0-2.9c-0.6-1.7,0.2-3.6-0.5-5.3
		c0-2.2,0-4.5,0-6.7c-0.5-3.2-0.1-6.5-0.2-9.7c0-0.9,0.2-1.9-0.2-2.8c0-0.8,0-1.6,0-2.4c0-2.5,0-5,0-7.4c0-0.4-0.2-1.2,0.3-1.3
		c1.8-0.3,1.8-1.8,2.3-3c0.1-0.2,0.3-0.4,0.5-0.4c0.4-0.1,0.6,0.2,0.7,0.5c0.1,0.2,0.1,0.5,0.1,0.7c-0.3,2.4,0.7,4.8,0.1,7.3
		c-0.5,1.9,0.7,3.7,0.4,5.7c-0.1,0.9,0.1,1.9-0.3,2.8c-0.2,0.4-0.3,1-0.1,1.4c0.8,1.6,0.7,3.4,0.6,5.1c-0.2,3,0.8,6.1-0.2,9.1
		c-0.2,0.4,0.1,1.1,0.6,1.1c0.6,0.1,0.7-0.5,0.8-1c0.2-2.4,0.7-4.8,0-7.2c-0.4-1.4,0.3-2.8,0-4.1c-0.4-2.2,0-4.4-0.6-6.5
		c-0.2-0.7,0-1.6,0.2-2.3c0.5-1.6,0.5-3.2,0.3-4.7c-0.2-1.9,1.1-3.2,1.6-4.8c0.2-0.7,0.9-0.5,1.3,0.1c0.2,0.3,0.1,0.6,0.3,0.9
		c0.6,1.4,2,1.9,3.5,1.2c0.3-0.1,0.6-0.3,0.9-0.4c1.3-0.4,1.6-0.2,1.3,1.1c-0.3,1.4,0.4,2.5,0.8,3.7c0.7,1-0.1,2,0.2,3.1
		c0.4-1,0-2.6,1.4-2.6c1.5,0,1.2,1.6,1.4,2.6c0.5,2.4,0.2,4.9,0,7.3C20.2,646.1,21.1,644.3,21.7,645.9z"/>
	<path class="st0" d="M2.1,667.5c0.7,0.6,0.5,1.5,0.5,2.2c0,3.1,0,6.2,0,9.3c0.2,0.4-0.5,1.6,0.9,0.9c0.6-0.3,0.9,0.1,0.9,0.7
		c-0.1,1.7,0.1,3.4,0.5,5.1c0,0.1,0.1,0.4,0,0.5c-1.3,1.5-0.6,3.5-1,5.2c-1.4-0.2-1-1.7-1.8-2.2c0-0.5,0-1,0-1.4
		c0.5-0.8,0.7-1.6,0-2.4C2.1,679.3,2.1,673.4,2.1,667.5z"/>
	<path class="st37" d="M8.8,740.4c0.2-0.1,0.5-0.4,0.6-0.3c1,0.8,2,0.6,2.9,0c0.7,0.7,0.1,1.8,0.9,2.3c0,0.3,0,0.6,0,1
		c0,1.2-0.5,2.3-1,3.3c-0.3,0.3-0.6,0.6-0.9,1c-0.2,0-0.3,0-0.5,0c-0.6-1.2,0.6-2.1,0.6-3.4c-0.9,0.4-0.2,2-1.5,1.9H9.8
		c0.4-1.6-0.7-2.2-1.9-2.8c-0.5-0.2-1.1,0-1.5-0.6c0.2,0,0.3,0,0.5,0c0.1,0,0.3,0,0.4,0c0.2-0.1,0.3-0.3,0.5-0.5l0,0
		c0.2-0.1,0.3-0.3,0.5-0.4C9.1,741.7,8.9,741,8.8,740.4z"/>
	<path class="st0" d="M1.6,588.8c0,5.6,0,11.2,0,16.7c0,0.8,0.3,1.8-0.5,2.5c0-5.7,0-11.3,0-17C1.1,590.3,0.9,589.4,1.6,588.8z"/>
	<path class="st0" d="M1.1,640.1c0.7,0.6,0.5,1.5,0.5,2.2c0,3.4,0,6.8,0,10.3c-0.7-0.6-0.4-1.5-0.4-2.2C1.1,647,1.1,643.6,1.1,640.1
		z"/>
	<path class="st0" d="M2.1,576.3c0,1.5,0,3,0,4.5c0,0.6,0.1,1.3-0.5,1.7c0-1.5,0-3,0-4.5C1.6,577.4,1.5,576.8,2.1,576.3z"/>
	<path class="st0" d="M3,558.5c0,1.5,0,3,0,4.5c0,0.6,0.1,1.3-0.5,1.7c0-1.5,0-3,0-4.5C2.6,559.7,2.4,559,3,558.5z"/>
	<path class="st0" d="M3.5,550.4C3.3,552.2,4,554,3,555.7C3.3,553.9,2.5,552.1,3.5,550.4z"/>
	<path class="st0" d="M2.5,564.8c-0.2,1.8,0.5,3.6-0.5,5.3C2.3,568.3,1.6,566.5,2.5,564.8z"/>
	<path class="st0" d="M1.6,659.3c1,1.7,0.2,3.5,0.5,5.3C1.1,662.9,1.8,661.1,1.6,659.3z"/>
	<path class="st0" d="M2.1,685.3c1.3,0.8,1.3,1.2,0,2.4C2.1,686.9,2.1,686.1,2.1,685.3z"/>
	<path class="st20" d="M48.6,176.5c0-0.9,0-1.9,0-3.3c-1,2.4-1,4.4-1,6.4c0,1-0.2,1.7-1.3,2.3c-1.7,0.8-1.8,2.8-0.1,3.8
		c0.6,0.4,0.8,0.7,0.7,1.5c-0.2,1.8-0.2,3.6-0.2,5.3c0.1,5.2-0.8,10.3-0.6,15.5c0.1,1.8-0.3,3.6-0.4,5.4c0,0.4-0.1,0.9-0.7,0.8
		c-0.4-0.1-0.6-0.4-0.7-0.9c-0.1-0.8,0.8-1.6-0.1-2.6c-0.9,1-1.6,1.9-1.1,3.4c0.2,0.6,0.1,1.4,0,2.1c0,0.5-0.4,1.1-0.9,0.9
		c-1.6-0.4-1.4,0.7-1.5,1.6c-0.2,1.2-0.5,2.4-0.7,3.7c-1.1-0.6-0.8-1.9-1.6-2.6c-0.6,0.9-1.1,1.9-0.8,2.8c0.5,1.8-0.6,1.3-1.7,1.4
		c-0.2-0.8,0.3-1.3,0.5-1.8c0.1-0.8,0.3-1.7-0.5-2.2c-1.9-1-1.5-2.9-1.5-4.4c0-1.3-0.6-2.8,0.5-4.1c0.4-0.5-0.4-0.9-1-0.8
		c-0.8,0.1-3.1,2.7-3.1,3.4c0,0.1,0,0.2,0,0.2c1.9,1.7-0.4,3.5,0.2,5.3c0.2,0.5-0.4,0.6-0.8,0.5c-0.5-0.2-1-0.7-0.8-1.1
		c0.7-1.4-0.7-2.7-0.2-4.1c0.1-0.3,0-0.6-0.3-0.8c-0.4-0.1-0.6,0.1-0.8,0.4c-0.4,0.8-1.3,1.4-1,2.6c0.1,0.4-0.2,0.9-0.2,1.4
		c0.1,1.3-0.5,1.7-1.7,1.7c-1-0.1-1.9-0.1-2.5,1c-0.4,0.7-0.7,1.4-0.5,2.2c0.3,1.7,0.9,3.2,0.3,5.1c-0.4,1.3,0.2,2.9-0.1,4.5
		c-0.1,0.6-0.2,1.3-0.7,1.7c-1.3,1.3-1.6,2.9-1.5,4.6c0,0.9-0.1,1.7-0.4,2.4c0.4,0.6,0.8,0.2,1.2,0.3c0.7,0.2,1.5,0.4,1.5,1.3
		c0,1-0.9,0.6-1.4,0.9s-1.3,0.2-1.6,0.8c0.1,0.3,0.3,0.4,0.5,0.5c1.9,0.6,2.2,0.8,1.9,2.6c-0.3,1.6,0.7,3.4-0.9,4.7
		c-0.3,0.3,0,0.7,0,1.1c0.1,0.7,0.2,1.4,0.1,2.1c0,1.3-0.5,1.7-1.7,1.7c-2,0.1-2.4,0.3-2,2.1c0.3,1.3-0.8,1.9-0.7,2.8
		c0.1,1,0.1,1.7-0.5,2.7c-0.8,1.2-0.3,2.6-0.3,4c0,0.5,0.5,0.9,0.2,1.4c-1.1,1.7-0.7,3.7-1.2,5.5c-0.1,0.4,0,0.9-0.2,1.1
		c-0.8,0.9-0.6,1.7,0,2.6c0.4,0.5,0.6,1,0,1.4c-1.1,0.9-1.1,2.2-0.9,3.3c0.2,1-0.3,1.9,0.2,2.8c0.3,0.5,0,0.7-0.3,0.9
		c-0.3,0.2-0.6,0.6-0.5,1c0.6,4.6-1,9.1-0.5,13.7c0.1,1-0.3,0.8-0.9,0.5c0,0.6-0.1,1.2-0.1,1.9c0,2.2,0,4.5,0,6.7
		c-0.4-0.3-0.5-0.8-0.5-1.3c0-3.2,0-6.3,0-9.5c0-0.5,0-0.9,0.5-1.3c0.2,0,0.3-0.1,0.3-0.3c0-0.3,0-0.6,0-0.9c0,0.3,0,0.5-0.3,0.7
		c-1-1.7-0.2-3.5-0.5-5.3c0.6-2.1,0.3-4.2-0.5-6.2c0-0.2,0-0.3,0-0.5c0.7-1.3,0.7-2.5,0-3.8c0-0.2,0-0.3,0-0.5c0.3-0.3,0.4-0.6,0-1
		c0-0.2,0-0.3,0-0.5c0.4-3.2,0.4-6.4,0-9.6c0-3.4-0.3-6.9,0.1-10.3c0.8-8.1,0-16.3,0.5-24.4c0.2-3.7,0.1-7.3,0.5-11
		c0.4-3.1,0.2-6.2,0.4-9.3c0.4-5,0.6-10,1-15c0.2-2.6,0.3-5.2,0.4-7.9c0.8-0.4,0.5-1.1,0.5-1.7c0-8.9,0-17.7,0-26.6
		c0-1.9,0.3-3.8,0.1-5.7c-0.2-1.7,1.1-2.6,3.4-2.2c2.2,0.4,2.4-1.5,3.2-2.4c0.9-1-0.5-1.5-1.1-2.2c-1.2-1.2-1-1.6,0.9-2.3
		c-1.1-0.7-2.2-1.2-3.4-0.2c-1.5,1.2-2,0.2-2.1-1.2c-0.1-3.3-0.7-6.7-0.3-10c0.6-4.4,0.3-8.9,0.8-13.4c0.4-3.9,0.7-7.8,1.1-11.6
		c0.1-0.8,0.3-1.5,1-1.8c0.6-0.2,1,0.4,1.3,0.8c0.3,0.5,0.8,0.8,1.4,0.5c1.4-0.7,2.3-0.1,2.8,1.4c0.7-1.3,1.1-2.5,2.7-2.3
		c1.5,0.2,1.5,1.4,1.8,2.5c0.6,2.3,2.2,3.8,4.1,5.4c0.9-1.7,2-1.7,3.4-0.5c1.2,0.9,2.1,0.4,2-1c0-1.8,0.5-3.9-1.9-4.9
		c-1-0.4-1.2-1.7-0.5-2.4c1.2-1.3,2.5-3,4.7-2.6c-1.7-0.3-3.1-1.3-4.9-1.2c-1.3,0.1-2.1-0.9-1.9-2.2c0.2-1.5,1.3-1.3,2.4-0.9
		c1.4,0.6,2.3,0.4,2.3-1.4c0-1.9,1.5-2.7,3-3.3c0.6-0.2,1.3-0.2,1.7,0.4c0.5,0.6,0.3,1.2-0.1,1.8c-0.3,0.4-0.6,0.7-0.9,1.1
		c-0.3,0.4-0.6,0.8-0.1,1.3c0.4,0.4,0.9,0.4,1.3,0.1c1-0.8,2.1-1.3,3.5-1.5c0.6-0.1,1-0.5,1-1.2c0.1-1.6,1.4-2.3,2.6-2.3
		c1.4-0.1,1.1,1.5,1.6,2.4c0.1-1,0-2.3,1.4-2.2c1.1,0.1,1.3,1,1.3,2c0,1.7,0.2,3.4-0.7,4.9c-0.2,0.3-0.3,0.6-0.2,0.9
		c1.1,5.3,0.1,10.4-0.2,15.7c-0.2,3.6-0.5,7.2-0.6,10.8c0,1.6-0.6,3.1-0.2,4.7c-0.1,0.8-0.1,1.7-0.1,2.5c0,2.7-0.1,5.5-0.9,8.2
		c-0.3,0.8-0.5,1.5-0.2,2.3c0.5,1.3,0.4,2.7,0.2,4c-0.6,3.6-0.4,7.3-0.9,10.9c-0.3,2.4-0.5,4.9-0.5,7.3
		C49,175.9,48.8,176.2,48.6,176.5z"/>
	<path class="st38" d="M51.5,140.5c-0.9-1-0.6-2.2-0.3-3.2c0.4-1.4,0.3-2.8,0.4-4.3c0-1.4,0.4-2.9,0.3-4.3c-0.1-2.7,0.3-5.3,0.6-8
		c0.3-2.8-0.3-5.6,0.5-8.3c0-0.1,0-0.3,0-0.5c0.6-1.4-1.7-2.3-0.6-3.8c0.9-1.1,0.4-2.5,0.6-3.7c0-0.5,0-1,0-1.4
		c0-0.6-0.2-1.1-0.9-1.3c-0.2,0-0.5,0.1-0.6,0.2c-0.5,0.4-0.2,0.8,0.1,1.3c0.6,0.8,0.3,1.4-0.6,1.6c-0.6,0.2-1.4,0.1-1.1-0.9
		s-0.2-1.7-0.5-2.5c-0.8,0.1-1.1,1-1.8,1.1c-0.5,0.1-0.5,0.3-0.3,0.8c0.3,1.3-0.1,2-1.4,2c-1.4,0-2.4,0.4-3.3,1.5
		c-0.5,0.6-2.3,0.4-2.8-0.3c-0.6-0.8-0.1-1.5,0.5-2.1c0.4-0.5,0.9-0.9,1.3-1.4c0.2-0.2,0.3-0.6,0.1-0.9c-0.3-0.4-0.6-0.5-1-0.4
		c-2.1,0.5-3,1.7-2.8,4.1c0.1,1-0.4,1.5-1.3,1.4c-0.8-0.1-1.5-0.5-2.3-0.8c-0.4-0.1-0.7-0.5-1.1-0.2c-0.4,0.4-0.4,0.8-0.2,1.3
		c0.4,1,1.2,1.3,2.1,1c1-0.3,1.7-0.4,2.5,0.6c0.7,1,1.4-0.1,2-0.3c0.7,0.4,0.4,1.1,0.6,1.5c0.3,0.5,0.3,1-0.2,1.3
		c-0.6,0.4-0.8-0.1-1-0.6c-0.4-0.7-0.9-0.6-1.3,0s-1,1-1.7,1.3c-0.9,0.4-1.4,1.1-1.1,2.1c0.3,1.2,1.2,0.7,2,0.5
		c0.3-0.1,0.6-0.1,1,0.2c-0.6,0.6-1.4,1.3-0.2,2.2c0.3,0.2,0.3,3.6,0.1,4.1c-0.6,1.4-1.3,1.6-2.6,0.8c-0.3-0.2-0.6-0.5-0.9-0.8
		c-1.1-1-1.3-0.9-1.9,0.5c-0.1,0.3-0.1,0.7-0.3,0.9c-0.3,0.4-0.9,0.7-1,0c-0.2-1.4-1.2-1.9-2.2-2.7c-1.4-1.1-1.7-2.9-2.1-4.5
		c-0.2-0.7-0.2-1.2-1-1.3s-1.5,0-1.6,0.9c-0.1,0.5-0.3,0.9-0.4,1.4c-0.1,0.4-0.2,0.9-0.7,0.8c-0.4-0.1-0.6-0.4-0.7-0.9
		c0-0.2-0.1-0.5-0.1-0.7c-0.1-1-0.6-1.2-1.5-0.8c-0.3,0.2-0.7,0.4-1,0.7c-0.6,0.5-1,0.2-1.3-0.4c-0.3-0.5,0.1-1.3-0.9-1.7
		c-1,1.6-1.1,3.5-1.1,5.2c0,3.5-0.5,7-0.7,10.5c-0.2,2.9-0.2,5.9-0.4,8.8c-0.1,1.5-0.5,2.9-0.4,4.5c0,0.2,0,0.3-0.1,0.5
		c-0.7,1.5,1.7,2.5,0.5,4.2c-0.9,1.2,0.5,2.7-0.1,4.1c1.5-0.3,1.9-2,3-1.8c0.9,0.2,1.6,1.2,2.7,1.2c0.6,0,1.1,0.4,0.8,1.1
		c-0.3,0.7-0.8,0.7-1.4,0.3c-0.1-0.1-0.3-0.2-0.4-0.3c-0.4-0.3-0.8-0.1-1,0.2c-0.2,0.5,0.1,0.8,0.5,1c0.5,0.3,1,0.4,1.5,0.7
		c0.6,0.3,1.2,0.6,0.6,1.4c-0.6,0.7,0,2.3-1.8,2.1c-0.3,0-0.1,1.4-0.8,1.9c-0.4,0.3-0.9,1-1-0.2c0-0.4-0.3-0.6-0.7-0.4
		c-0.7,0.3-1.4,0.2-2.1,0.3s-0.9,0.6-0.9,1.2c0.5,4.4-0.2,8.7-0.1,13.1c0.2,5.7,0,11.4,0,17c0,1.1-0.1,2.2,0.2,3.3
		c0.3,1-0.3,1.3-1.2,0.9c0-5.1,0-10.2,0-15.4c-0.4-0.8-0.4-1.6,0-2.4c0-5.8,0-11.5,0-17.3c0.4-0.6,0.4-1.3,0-1.9c0-1,0-1.9,0-2.9
		c0.6-1.1-0.1-2.3,0.5-3.4c0-1,0-1.9,0-2.9c-0.4-1.6-0.4-3.2,0-4.8c0-1.1,0-2.2,0-3.4c0.5-0.6,0-1.4,0.5-1.9c0-2.4,0-4.8,0-7.2
		c0.6-1.1-0.1-2.3,0.5-3.4c0-0.3,0-0.6,0-1c0.6-1.7-0.2-3.6,0.5-5.3c0-1,0-1.9,0-2.9c0.4-0.4,0-1,0.5-1.4c0-1.1,0-2.2,0-3.4
		c0.3-1.8,1.7-3.5,1-5.5c-0.1-0.3-0.1-0.7,0.2-0.9c1.3-0.9,0.8-1.6-0.2-2.3c0-0.8,0-1.6,0-2.4c0.4-0.4,0-1,0.5-1.4
		c0.2-0.2,0.3-0.3,0.5-0.5c0.3,0.6,0.6,1.3,0.5,2.4c1.3-1.2,2.3-2,3.9-1.7c1.3,0.2,2.1-0.8,1.9-2.3c-0.1-1.1,0.4-1.2,1.2-1.2
		c1.4,0,2.9,0,4.3,0c0.3,0,0.7,0,0.8-0.4c0.1-0.5-0.2-0.8-0.6-0.9c-1.1-0.3-2.1-0.5-3.1-0.8c-0.2-0.6,0-1,0.4-1.1
		c1.7-0.6,1.5-2,1.4-3.3c-0.1-1-0.5-2-0.9-3c-0.2-0.5-0.5-0.9-1.1-1.1c-2-0.6-2-0.7-0.5-2.7c0.9,0.9,1.6,2.2,3.1,2.5
		c0.4,0.1,0.5,0.6,0.4,1c-0.4,1.2,0.4,2.2,0.4,3.3c0,1,0.7,1.4,1.7,1.2c0.9-0.1,1.4-1,1-2c-0.3-0.9-0.9-1.7-1.3-2.5
		c-0.3-0.5-0.6-0.9-0.9-1.4c-0.5-0.9-0.3-1.5,0.8-1.6c0.5-0.1,1.1,0,1.7,0c0.8,0,1.3-0.3,1.8-0.9c1.2-1.4,1.7-1.3,2.6,0.3
		c0.1,0.2,0.1,0.4,0.2,0.7c-0.8,0.8-1.2-0.7-2-0.2c0,0.2-0.1,0.4-0.1,0.6c0.3,0.6,0.5,1.3,0.2,1.9c-0.8,1.5,0,3,0.1,4.4
		c0.1,0.9,0.7,1.2,1.3,0.7c0.9-0.7,1.6-0.5,2.4-0.1c0.5,0.3,0.9,0.3,1.3-0.2c0.3-0.4,0-0.7-0.3-1c-1.1-0.9-0.8-2.7-2.4-3.4
		c-0.4-0.2-0.4-0.9,0.1-1.2c0.4-0.3,0.9-0.7,1.5-0.3c0.2,0.2,0.4,0.5,0.6,0.8c0.3,0.4,0.6,0.8,1.1,0.3c0.4-0.4,0.3-1-0.2-1.2
		c-1.2-0.6-1.4-1,0-1.7c0.5-0.2,0.7-0.8,1.1-1.2c0.4-0.5,0.2-0.9-0.3-1.1c-0.4-0.2-0.9-0.4-1.1,0.3c-0.1,0.2-0.1,0.5-0.2,0.7
		c-0.1,0.4-0.4,0.5-0.7,0.4c-0.4,0-0.5-0.3-0.6-0.7c-0.1-0.8-0.5-1.6-0.3-2.3c0.3-0.9-0.3-1.3-0.5-2.1c1.7-0.9,3.1-0.1,4.2,0.9
		c0.7,0.7,1.2,1.3,2.3,1.5c1.3,0.3,1.6,1.2,1,2.5c-0.1,0.1-0.2,0.3-0.3,0.4c-0.2,0.5-0.3,1.1,0.2,1.5c0.2,0.2,0.6,0.2,0.9,0.1
		c0.7-0.2,0.7-0.9,0.5-1.4c-0.4-1.1,0.5-2.5-0.7-3.4c1.5-0.8,1.8,1,2.8,0.9c0.3-0.3,0.2-0.6,0.1-0.9c-0.3-1,0.1-1.4,1.1-1.1
		c0.5,0.1,1,0.2,1.1-0.4c0.1-0.5,0.3-1.3-0.4-1.4c-0.8-0.1-0.9-0.3-0.6-1c0.1-0.3,0.1-0.8,0-1.2c-0.1-0.4-0.4-0.7-0.8-0.7
		c-0.5,0-0.8,0.3-0.9,0.7c-0.1,0.4-0.1,0.8,0,1.2c0.1,0.4,0.5,1-0.2,1.2c-0.6,0.2-1.3,0.2-1.8-0.2c-0.5-0.4-0.4-0.8-0.1-1.3
		c0.5-0.5,0.4-1.2,0.6-1.8c0.3-1,0.6-2.1,2.1-1.3c0.9,0.4,1-0.6,1.5-0.9c0.9-0.6,0.6-1.4,0.2-2.1c0.3-0.3,0.7-0.3,1,0l0,0
		c-0.4,2.6,0.4,5,0.6,7.6c0.1,0.9,0.1,1.8,0,2.8c-0.4,2,0.4,3.9,0.6,5.9c0.3,2.2,0.6,4.4,0.3,6.6c-0.2,1.2,0.5,2.2,0.5,3.3
		c-0.1,2.9-0.1,5.9,0,8.8c0,0.9-0.4,1.7-0.5,2.6c-0.4,0.7-0.7,1.4,0,2.1c0.6,0.6,0.5,1.4,0.5,2.2c-0.4,0.4,0,1-0.5,1.4
		c0,0.3,0,0.6,0,1c-0.6,2.7,0.2,5.5-0.5,8.2c0,0.3,0,0.6,0,1c-0.4,0.4,0,1-0.5,1.4c0,0.3,0,0.6,0,1c0.4,1.1,0.4,2.2,0,3.4
		c0,0.3,0,0.6,0,1c-0.6,1.4,0.1,2.9-0.5,4.3c0,1,0,1.9,0,2.9c-0.5,0.6,0,1.4-0.5,1.9C51.5,139.8,51.5,140.1,51.5,140.5z"/>
	<path class="st23" d="M10.7,288.3c0.1,0,0.2,0,0.2,0c1.3,1.2,0.7,2.9,1.2,4.3c0.2,0.8,0,1.6-0.9,1.9c0-0.2,0-0.3,0-0.5
		c-0.6-1.6,0.2-3.2-0.5-4.8C10.7,289,10.7,288.6,10.7,288.3z"/>
	<path class="st23" d="M10.7,272.5c0.3,0.3,0.5,0.6,0.5,1c0,2.5,0,5,0,7.5c0,0.4-0.1,0.8-0.5,1C10.7,278.9,10.7,275.7,10.7,272.5z"
		/>
	<path class="st23" d="M10.7,284c1.3,1.5,1.3,2.3,0,3.8C10.7,286.5,10.7,285.3,10.7,284z"/>
	<path class="st20" d="M15.5,121.7c-0.2,1.8,0.5,3.6-0.5,5.3C15.2,125.3,14.5,123.4,15.5,121.7z"/>
	<path class="st20" d="M14.1,143.8c0,1.6,0,3.2,0,4.8C13.3,147,13.3,145.4,14.1,143.8z"/>
	<path class="st20" d="M10.7,289.3c0.9,1.5,0.3,3.2,0.5,4.8C10.2,292.5,10.9,290.9,10.7,289.3z"/>
	<path class="st23" d="M11.6,299.8c0.1-0.6-0.2-1.4,0.4-2.1c0.1,1.1,0.2,2.1-0.1,3h-0.2c-0.1-0.1-0.1-0.3-0.1-0.4
		C11.6,300.1,11.6,300,11.6,299.8z"/>
	<path class="st20" d="M14.1,151.5c-0.2,1.1,0.4,2.3-0.5,3.4C13.7,153.7,13.2,152.5,14.1,151.5z"/>
	<path class="st20" d="M15,128c-0.2,1.1,0.4,2.3-0.5,3.4C14.7,130.2,14.1,129,15,128z"/>
	<path class="st20" d="M13.6,176.9c0,0.8,0,1.6,0,2.4C12.9,178.6,12.9,177.7,13.6,176.9z"/>
	<path class="st20" d="M13.6,157.8c0.7,0.6,0.7,1.3,0,1.9C13.6,159,13.6,158.4,13.6,157.8z"/>
	<path class="st20" d="M14.5,138.5c-0.1,0.7,0.2,1.4-0.5,1.9C14.1,139.8,13.9,139.1,14.5,138.5z"/>
	<path class="st23" d="M10.7,282.6c0.2,0.1,0.5,0.1,0.6,0.2c0.1,0.5-0.3,0.6-0.6,0.7C10.7,283.2,10.7,282.9,10.7,282.6z"/>
	<path class="st20" d="M16,117.4c0,0.5,0.1,1.1-0.5,1.4C15.5,118.3,15.4,117.8,16,117.4z"/>
	<path class="st39" d="M39,33c0.4,0.2,0.4,0.6,0.8,1.3c0.1-0.9,0.1-1.6,0.2-2.2c0.2-0.6,0.3-1.4,1.1-1.2c0.6,0.1,0.8,0.8,0.7,1.3
		c-0.3,1.3,0.3,3-1.2,4c-0.1,0.1-0.1,0.4-0.2,0.7c0.3,0.7-0.3,1.1-0.5,1.6c-0.2,0.1-0.4,0.2-0.7,0.2c-2.5-0.2-3.6-2.7-2.4-5.4
		c0.1-0.1,0.2-0.1,0.3-0.2c0.5,0,0.9,0,1.4,0c0,0.1,0.1,0.2,0.1,0.3c0,0.2-0.2,0.4,0,0.6c-0.1-0.2,0.1-0.4,0.1-0.7
		C38.9,33.1,39,33,39,33z"/>
	<path class="st40" d="M35.6,23.8c0.9-1,1.3-2.2,0.8-3.5c-0.4-1.2-0.3-2.5-0.3-3.7c0.7-1.6,0.4-3.4,0.9-5.1c0.1-0.4,0-1.1,0.8-0.9
		c0.5,0.2,0.5,0.6,0.5,1.2c0,4.5-1,8.9-0.8,13.4c-0.1,0.1-0.2,0.1-0.3,0.2c-0.2,0-0.4-0.1-0.5-0.3c-0.3-0.4-0.6-0.8-1-1.1
		C35.7,24,35.7,23.9,35.6,23.8z"/>
	<path class="st40" d="M35.2,24.8c0-0.4,0.1-0.7,0.5-1l0,0c0.4,0.5,0.9,0.9,1.4,1.4l0,0c0.5,1.5,2.3,2.4,1.9,4.3l0,0
		c-0.3,0.3-0.5,0.5-1,0.5c-0.2,0.2-0.3,0.3-0.5,0.5s-0.4,0.2-0.6,0c-0.4-0.6-0.4-1.4-0.7-2c-0.3,1.5,0.5,3.5-1.8,4.1
		c-0.1-0.1-0.2-0.1-0.3-0.2c0.4-1.8-0.5-2.9-1.9-3.8c0.7-0.9,1.9-1.4,1.7-2.9C33.9,25.1,34.8,25.1,35.2,24.8z"/>
	<path class="st39" d="M40,38.2c0.2-0.5,0.3-1,0.5-1.4c0.3,0,0.6,0,1,0c0.2,0.2,0.3,0.3,0.5,0.5c0,1,0.2,1.9,1.4,1.9
		c0.3,0.6-0.2,1-0.5,1.5c-0.2,0.4-0.4,0.7-0.8,0.7c-0.3,0-0.6-0.4-0.5-0.7c0.3-0.9,0.1-1.7-0.3-2.4c-0.2-0.5-0.6-0.3-0.9,0
		c-0.1,0.1-0.2,0.1-0.2,0.2C40.1,38.3,40,38.3,40,38.2z"/>
	<path class="st41" d="M39,29.6c0-0.3,0-0.9-0.1-0.9c-2.2-0.3-1.3-2.3-1.8-3.4c0.2,0,0.3,0,0.5,0C39.2,26.4,39.7,27.8,39,29.6z"/>
	<path class="st42" d="M42.4,25.3c0,0.4,0.1,0.8-0.2,1.1c-0.4,0.4-0.9,0.4-1.3,0.1c-0.6-0.5-0.2-1,0-1.5c0.4-0.8,0.7-0.2,1.1,0
		C42.1,25.1,42.2,25.2,42.4,25.3L42.4,25.3z"/>
	<path class="st12" d="M44.8,27.7c0.1-0.7-0.6-1.1-0.7-1.7c0-0.2,0.2-0.6,0.4-0.8c0.3-0.3,0.5,0.1,0.7,0.3c0.7,0.6,0.5,1.4,0.5,2.2
		l0,0C45.4,28,45.1,27.9,44.8,27.7z"/>
	<path class="st12" d="M42.9,40.7c-0.1-0.6,0.3-1,0.5-1.5c0-0.2,0-0.3,0-0.5c0.4-0.3,0.2-0.8,0.3-1.2c0.1-0.2,0.2-0.4,0.4-0.5
		c0.3-0.1,0.6,0,0.9,0.3c0.2,1,0.4,1.9-0.1,2.9C44.1,40.1,43.4,40.3,42.9,40.7z"/>
	<path class="st15" d="M44.8,27.7c0.3,0,0.6,0,1,0c0,0.2,0,0.5-0.1,0.7c-0.2,0.4-0.3,1.1-0.9,1s-0.4-0.8-0.4-1.2
		C44.4,28,44.6,27.8,44.8,27.7z"/>
	<path class="st41" d="M38.1,30.1c0.2-0.4,0.6-0.5,1-0.5c0,0.2,0,0.3,0,0.5c-0.1,0.4,0.2,1.1-0.5,1.1S38.1,30.5,38.1,30.1z"/>
	<path class="st39" d="M43.8,37.3c0,0.5,0.1,1.1-0.5,1.4c0-0.5,0-1,0-1.4c0.1-0.1,0.2-0.2,0.3-0.1C43.8,37.2,43.8,37.2,43.8,37.3z"
		/>
	<path class="st39" d="M37.1,32c0,0.3,0,0.6,0,0.9H37c-0.7,0-0.7-0.4-0.6-0.9c0.1-0.1,0.3-0.2,0.4-0.2C37,31.9,37.1,32,37.1,32z"/>
	<path class="st40" d="M37.1,32c-0.2,0-0.3,0-0.5,0c-0.3-0.5-0.3-0.9,0.4-1.1c0.3,0.2,0.3,0.4,0.1,0.6C37.1,31.7,37.1,31.8,37.1,32z
		"/>
	<path class="st41" d="M37.1,31.5c0-0.2,0-0.3,0-0.5c-0.1-0.2-0.1-0.3,0-0.5c0.2,0,0.3,0,0.5,0C37.6,31,37.5,31.3,37.1,31.5z"/>
	<path class="st12" d="M43.8,37.3c-0.2,0-0.3,0-0.5,0c0-0.3,0-0.6,0-0.9c0.1,0,0.2-0.1,0.3-0.1C44.1,36.5,44.2,36.8,43.8,37.3
		L43.8,37.3z"/>
	<path class="st39" d="M41.9,37.3c-0.2-0.2-0.3-0.3-0.5-0.5C41.6,37,41.7,37.1,41.9,37.3z"/>
	<path class="st12" d="M43.3,36.3c-0.2-0.2-0.2-0.4,0-0.5l0.1,0.1C43.5,36,43.5,36.1,43.3,36.3L43.3,36.3z"/>
	<path class="st39" d="M38.5,32.9c0.2-0.3,0.3-0.3,0.5,0l0,0c-0.1,0.2-0.2,0.2-0.3,0.2C38.6,33.1,38.5,33,38.5,32.9L38.5,32.9z"/>
	<path class="st0" d="M30.9,641.1c-0.3-5.2,0.4-10.3,0.6-15.5c0.1-4.6,0.5-9.2,0.9-13.8c0.2-1.8,0-3.6,0.9-5.3
		c0,4.1-0.4,8.2-0.9,12.3c0,0.3,0,0.6,0,1c0.2,4.5-0.5,9-0.6,13.6c0,2.2-0.4,4.4-0.4,6.6C31.3,640.5,31.2,640.8,30.9,641.1z"/>
	<path class="st0" d="M33.3,606.5c0-2.3-0.4-4.6,1-6.7C34.3,602.1,33.9,604.4,33.3,606.5z"/>
	<path class="st0" d="M34.2,599.4c0.2-1.1-0.4-2.4,0.5-3.4C34.6,597.1,35,598.3,34.2,599.4z"/>
	<path class="st0" d="M22.2,721.2c-0.4,0.2-0.9,0.6-1.1-0.1c-0.1-0.3,0.1-0.5,0.3-0.6C22.1,720.2,22.1,720.8,22.2,721.2L22.2,721.2z
		"/>
	<path class="st7" d="M20.3,722.7c0,0.3,0,0.6,0,1l0,0c-1-0.1-0.8-0.5-0.3-1C20.1,722.6,20.2,722.7,20.3,722.7z"/>
	<path class="st7" d="M20.3,721.7c0.5,0.3,0.5,0.6,0,1l0,0C20,722.4,20,722.1,20.3,721.7L20.3,721.7z"/>
	<path class="st3" d="M47.6,243.2c0-0.2,0-0.3,0-0.5c0.1-0.5-0.6-1.1,0-1.6c0.2-0.2,0.5-0.1,0.6,0.1c0.6,0.8,0.3,1.3-0.4,1.8
		C47.8,243.1,47.7,243.2,47.6,243.2z"/>
	<path class="st20" d="M46.2,219.7c0.2-1.3-0.5-2.7,0.5-3.8c0,1.3,0,2.5,0,3.8c-0.1,0.2-0.2,0.2-0.3,0.2
		C46.3,219.8,46.2,219.7,46.2,219.7z"/>
	<path class="st3" d="M46.2,219.7c0.2,0,0.3,0,0.4,0c-0.1,0.8,0.3,1.7-0.4,2.4C46.2,221.3,46.2,220.5,46.2,219.7z"/>
	<path class="st3" d="M46.7,232.7c-0.7-0.5-0.4-1.3-0.4-1.9C46.9,231.2,46.6,232,46.7,232.7z"/>
	<path class="st3" d="M46.7,227.4c-0.5-0.4-0.4-0.9-0.4-1.5C46.8,226.3,46.7,226.8,46.7,227.4z"/>
	<path class="st3" d="M46.7,234.1c0-0.3,0-0.6,0-1C47.2,233.4,47.2,233.7,46.7,234.1z"/>
	<path class="st3" d="M46.2,229.7c0.2-0.2,0.3-0.3,0.5-0.5C46.5,229.4,46.4,229.6,46.2,229.7z"/>
	<path class="st20" d="M52.9,122.7c0-2.1,0-4.1,0-6.2c0-0.7-0.2-1.4,0.5-2c0,2.1,0,4.1,0,6.2C53.4,121.4,53.6,122.2,52.9,122.7z"/>
	<path class="st20" d="M48.1,188c0-1.9,0-3.8,0-5.7c0-0.7-0.2-1.4,0.5-2c0,1.9,0,3.8,0,5.7C48.6,186.7,48.8,187.4,48.1,188z"/>
	<path class="st20" d="M46.7,212c0-1.8,0-3.6,0-5.4c0-0.6-0.1-1.3,0.5-1.8c0,1.8,0,3.6,0,5.4C47.1,210.9,47.3,211.5,46.7,212z"/>
	<path class="st20" d="M52,134.7c0.2-1.4-0.4-3,0.5-4.3C52.3,131.8,52.9,133.4,52,134.7z"/>
	<path class="st20" d="M47.2,202.4c0.2-1.3-0.5-2.7,0.5-3.8C47.5,199.8,48.1,201.2,47.2,202.4z"/>
	<path class="st20" d="M52.5,129.4c0-1.1,0-2.2,0-3.4C53.2,127.2,53.2,128.3,52.5,129.4z"/>
	<path class="st20" d="M47.7,194.7c0.1-1-0.4-2,0.5-2.9C48,192.8,48.5,193.9,47.7,194.7z"/>
	<path class="st20" d="M51.5,139.5c0.1-0.7-0.2-1.4,0.5-1.9C51.9,138.3,52.2,139,51.5,139.5z"/>
	<path class="st20" d="M53.4,113.6c0-0.5-0.1-1.1,0.5-1.4C53.9,112.7,54,113.2,53.4,113.6z"/>
	<path class="st20" d="M52.5,125.1c0-0.5-0.1-1.1,0.5-1.4C52.9,124.2,53,124.8,52.5,125.1z"/>
	<path class="st37" d="M13.1,742.4c0.3-1.9,0.7-3.7,2-5.2c1.1-1.3,1.8-2.5,0.7-4.5c-0.8-1.4-1.1-3.8,1-5.1c0.8-0.5,0.4-1.6,1.1-2
		c0.1,3.7-0.8,7.2-1,10.9c0,0.3-0.1,0.8-0.3,0.9c-2.2,0.7-2.1,2.8-3,4.3C13.5,741.9,13.3,742.1,13.1,742.4z"/>
	<path class="st18" d="M20.3,721.7c0,0.3,0,0.6,0,1c-0.5,0.3-0.5,0.6,0,1c0.6,1-0.1,2-0.2,2.9c-0.3,2.5-0.8,4.9-0.5,7.4
		c0.1,0.8-0.6,1.2-1.2,1.7c0.5-1.4,0.2-2.6-0.3-3.9c-0.1-0.4-0.3-0.8-0.2-1.1c0.7-2.4,0.3-4.9,0.9-7.3
		C19.1,722.7,19.3,721.8,20.3,721.7z"/>
	<path class="st37" d="M16.4,739.5c0.2,1-0.3,2-0.5,3c-0.1,0.9-0.8,0.9-1.4,0.8c-0.2-1.2,0.2-2.3,0.6-3.5
		C15.4,739.1,15.9,739.2,16.4,739.5z"/>
	<path class="st38" d="M21.3,92.5c0.9-0.9,1.9-0.5,2.8,0c0.4,0.2,0.9,0.5,0.7,1.1c-0.2,0.5-0.4,1.2-1.1,1c-1.3-0.3-1.5,0.4-1.5,1.4
		c0,0.8-0.1,1.6-0.9,2c-0.8-0.2-0.5-0.7-0.4-1.1c0.3-0.8-0.1-1.2-0.6-1.6c-0.3-0.3-0.7-0.4-1.1-0.2s-0.5,0.7-0.4,1
		c0.7,1.1-0.1,2.3,0.2,3.4c0.1,0.5-0.4,0.6-0.8,0.7c0-0.2,0-0.3,0-0.5c-0.2-0.2-0.3-0.3-0.5-0.5c-0.7-1.1-0.5-2.2-0.5-3.4
		c0.3-0.3,0.2-0.7,0.4-1c-0.1-1.5,0.1-3,0.5-4.4c0.2-0.5,0.4-0.8,1-0.9c0.4-0.1,0.5-0.9,1.1-0.7c0.4,0.2,0.3,0.6,0.3,1
		c0,1.1-0.3,2.1-1.4,2.6C20,93.3,20.6,93.3,21.3,92.5z"/>
	<path class="st38" d="M24.1,82.4c-0.4,0.6-0.7,1.2-1.1,1.8c-0.7,0.9-1.3,0.6-1.8-0.3c-0.1-0.1-0.1-0.2-0.2-0.2
		c0.1-0.1,0.1-0.2,0.2-0.2C22,82.4,22.7,81.4,24.1,82.4z"/>
	<path class="st38" d="M23.7,79c1.6,0.3,2.1,1,2.1,3.1c-0.9,0.1-0.5-1-1.2-1.2c-0.6-0.3-1.4-0.5-1.4-1.4l0.1-0.2
		C23.4,79.2,23.5,79.1,23.7,79z"/>
	<path class="st38" d="M19.8,84.3c0,0.8,0,1.6,0.2,2.4c0.2,0.8-0.2,1.4-1.1,1.5c0-1.2,0-2.4,0-3.5C18.9,84,19.3,83.8,19.8,84.3z"/>
	<path class="st38" d="M19.8,75.2c0.3,0.2,0.6,0.3,0.9,0.5c0.2,0.1,0.2,0.3,0.1,0.4c0.6,0.8,0.1,1.6,0,2.4c-0.1,0.6-0.5,1-0.8,0.2
		C19.6,77.6,19.9,76.4,19.8,75.2z"/>
	<path class="st43" d="M22.7,78.6c0.2,0.2,0.3,0.3,0.5,0.5s0.2,0.3,0,0.5l0,0c-1.6,0.7-1.7,0.7-1.9-0.9l0,0
		C21.7,78.2,22.2,78.2,22.7,78.6z"/>
	<path class="st44" d="M20.8,83.8c-0.1,0-0.1-0.1-0.2-0.1c-0.5-0.3-0.9-0.7-0.5-1.3c0.2-0.2,0.4-0.5,0.8-0.3
		c0.5,0.3,0.3,0.8,0.4,1.2l0,0C21.1,83.5,20.9,83.7,20.8,83.8L20.8,83.8z"/>
	<path class="st20" d="M17.4,101.6c0,0.5,0.1,1.1-0.5,1.4C17,102.5,16.9,101.9,17.4,101.6z"/>
	<path class="st20" d="M17.9,94.9c0,0.4-0.1,0.7-0.4,1C17.4,95.4,17.5,95.1,17.9,94.9z"/>
	<path class="st20" d="M17.9,99.2c0.2,0.2,0.3,0.3,0.5,0.5C18.2,99.5,18.1,99.4,17.9,99.2z"/>
	<path class="st45" d="M34.2,37.7c-1.3-0.1-2.2-1-3.4-1.4c0-0.3,0-0.6,0-0.9c0.3-0.3,0.6-0.3,1,0c0.6,0.2,1.2,0.3,1.9,0.5
		c0.1,0.1,0.2,0.1,0.2,0.2c0.3,0.4,0.4,0.8,0.5,1.3C34.4,37.4,34.4,37.6,34.2,37.7z"/>
	<path class="st40" d="M34.2,34.9c-0.8-0.5-1.4-1-0.5-2c0.1,0.1,0.2,0.1,0.3,0.2c0.3,0.3,0.5,0.7,0.5,1.2
		C34.5,34.5,34.4,34.7,34.2,34.9z"/>
	<path class="st40" d="M31.7,29.8c0.1,0.1,0.3,0.1,0.4,0.2c-0.1,0.1-0.1,0.3-0.2,0.4c-0.1,0-0.3-0.1-0.4-0.2
		C31.6,30.1,31.6,29.9,31.7,29.8z"/>
	<path class="st45" d="M34.2,34.9c0-0.2,0-0.3,0-0.5c0.8,0,0.8,0.6,0.7,1.1c-0.2,0.5-0.6,0.6-1.1,0.4l-0.1-0.1
		C33.9,35.5,34,35.2,34.2,34.9z"/>
	<path class="st29" d="M31.8,35.3c-0.3,0-0.6,0-1,0C31.2,34.9,31.5,34.9,31.8,35.3z"/>
	<path class="st40" d="M33.7,32.9c0.2-0.2,0.3-0.3,0.5-0.5l0,0c0.2,0.2,0.2,0.3,0.1,0.5C34.1,33.1,33.9,33.1,33.7,32.9L33.7,32.9z"
		/>
	<path class="st1" d="M52,70.4c-0.3,0-0.7,0-1,0c-0.5-1.2-1-2.4,0.5-3.4C51.1,68.2,50.8,69.4,52,70.4z"/>
	<path class="st9" d="M35.2,24.8c-0.2,0.4-0.8,0.5-0.8,1.1c-0.1,2.2-0.1,2.2-2.1,2.7c0-0.6-0.2-1.3,0.3-1.8c0.8-0.8,0.1-1.4-0.3-2
		C33.3,24.5,34.2,24.5,35.2,24.8z"/>
	<path class="st46" d="M43.4,36.3c0-0.1,0-0.3,0-0.4c0.8-1.4,1.3,0,1.9,0.3c0.1-0.2,0.3-0.3,0.3-0.4c0-0.4-0.2-0.9,0.3-1
		c0.6-0.2,0.7,0.4,0.8,0.9c0,0.2,0,0.5,0,0.7s0,0.3,0,0.5c-0.2,0.2-0.4,0.4-0.7,0.4c-0.3,0-0.6,0.1-0.9,0c-0.1,0-0.2,0-0.3,0
		c-0.3,0-0.6,0-0.9,0C43.8,36.9,43.7,36.5,43.4,36.3z"/>
	<path class="st47" d="M45.7,33c-1.2-0.9-1.2-0.9,0.2-2.9C46.3,31.2,46.5,32.1,45.7,33L45.7,33z"/>
	<path class="st48" d="M25.1,47.4c0.1-0.2,0.3-0.3,0.4-0.5c0.1-0.4-0.1-1.2,0.5-1.1c0.8,0.1,0.4,1,0.5,1.6c-0.3,0.3-0.2,0.7-0.5,1
		c0,0.2,0,0.3,0,0.5C25.4,48.5,25.1,48.1,25.1,47.4z"/>
	<path class="st49" d="M25.9,52.6c0.3,0.5,0.4,0.6,0.4,0.7c-0.1,0.3-0.3,0.6-0.6,0.6c-0.3,0.1-0.4-0.1-0.3-0.4
		C25.6,53.2,25.8,52.9,25.9,52.6z"/>
	<path class="st49" d="M26,51.5c-0.1-0.1-0.2-0.2-0.2-0.3c0-0.3,0.2-0.4,0.4-0.3c0.1,0,0.2,0.3,0.1,0.4C26.3,51.4,26.1,51.5,26,51.5
		z"/>
	<path class="st50" d="M28.9,41.6c-0.3,0-0.7,0-0.7-0.4c-0.1-0.5,0.4-0.5,0.7-0.6C29.2,41,29.2,41.3,28.9,41.6z"/>
	<path class="st9" d="M28.9,41.6c0-0.3,0-0.6,0-1c0.4,0.2,0.5,0.6,0.5,1C29.3,41.6,29.1,41.6,28.9,41.6z"/>
	<path class="st51" d="M9.8,746.2c0.8-0.7,0.4-1.6,0.5-2.4c0.1-0.4,0.2-0.8,0.7-0.8c0.3,0,0.6,0.2,0.7,0.5c0.3,0.7,1,1.4-0.1,2.1
		c-0.7,0.4-0.3,1.5-0.8,2.1C9.3,747.8,9.3,747.8,9.8,746.2z"/>
	<path class="st38" d="M21.3,70.9c-0.2,0.3-0.3,0.3-0.5,0C20.9,70.9,21.1,70.9,21.3,70.9z"/>
	<path class="st39" d="M44.8,40.2c-0.2-1-0.5-2,0-3l0,0c1-0.3,0.6,0.7,1,1c0,0.8,0,1.6,0,2.4c-0.1,0.1-0.2,0.2-0.3,0.2
		c-0.1,0-0.2-0.1-0.2-0.1C45,40.5,44.9,40.4,44.8,40.2z"/>
	<path class="st17" d="M45.8,44c-1.2,0.8-1.3-0.2-1.4-1v-0.2c0.1-0.1,0.2-0.2,0.3-0.3h0.2c0.4-0.2,0.4-0.6,0.5-1
		C46.1,42.3,45.6,43.2,45.8,44z"/>
	<path class="st52" d="M45.7,36.8c0.3,0,0.6,0,1,0c0,0.6,0.3,1.5-0.9,1C45.5,37.5,45.5,37.1,45.7,36.8z"/>
	<path class="st12" d="M45.7,36.8c0,0.3,0,0.6,0,0.9c0,0.2,0,0.3,0,0.5c-0.3-0.3-0.6-0.7-1-1C45,36.9,45.3,36.8,45.7,36.8z"/>
	<path class="st17" d="M45.2,40.7c0.2,0,0.4,0,0.5-0.1c-0.2,0.2-0.3,0.3-0.5,0.5C45.2,41,45.2,40.8,45.2,40.7z"/>
	<path class="st49" d="M27.9,46.5v0.2v0.2c-0.4,0.4,0,1.1-0.5,1.5l0,0C26.8,47.2,26.9,46.9,27.9,46.5z"/>
	<path class="st14" d="M26.1,48.3c0-0.4,0.1-0.7,0.5-1C26.5,47.7,26.4,48.1,26.1,48.3z"/>
	<path class="st15" d="M27.5,48.3c0-0.5,0-1.1,0.5-1.5c0,0.5,0,1,0,1.5C27.8,48.3,27.6,48.3,27.5,48.3z"/>
	<path class="st53" d="M14.1,395.3c-0.5-4.4-1-8.8-1.4-13.2c-0.2-2.1-0.1-4.3-0.1-6.5c0.1,0.2,0.4,0.4,0.4,0.6
		c0.1,2.1,0.4,4.3,0.5,6.4c0.1,2.9,0.4,5.8,0.7,9c0.5-0.6,0.3-1.1,0.3-1.6s-0.1-1.3,0.7-1.3c0.8,0,0.7,0.7,0.9,1.2
		c0.4,0.9,0.2,1.9,0.3,2.8c0.1,0.9-0.1,1.7,0.1,2.6c0.7,0.1,1-0.4,1.2-0.9c0.5-1,1.2-1.2,2.2-0.7c0.4,0.2,0.8,0.2,1.1-0.1
		c1.2-1.1,1.4,0,1.8,0.8c0.6-0.4,0.7-0.9,0.7-1.5c0-1,0.3-1.7,1-2.3c0.9-0.7,1-2,1.7-2.9c0.3-0.4,0.2-1-0.3-1.3c-1-0.6-1-1.5-1-2.5
		c0-1.2,0.1-2.5,0.9-3.1c1.4-1.1,1.6-2.5,1.5-4c0-0.3,0.2-0.6,0.4-0.8c0.3,0.5,0.3,1,0,1.4c-0.1,1.8,0.2,3.6-0.4,5.5
		c-0.3,0.9-0.4,2,0.5,2.9c0.4,0.4,0.5,1.2,0.1,1.5c-1.3,1-0.8,2.7-1.8,3.7c-0.2,0.2-0.3,0.6-0.2,0.9c0.7,2.4-0.5,4.7-0.2,7.1
		c0,0.2-0.2,0.4-0.4,0.6c-0.8-0.2-0.4-0.7-0.5-1.1c0-0.3,0.2-0.6,0.2-0.9c0.1-0.8-0.8-2.2-1.5-2.1c-0.9,0-1.1,0.9-1.1,1.6
		c-0.2,2.7-1.3,4.3-4.3,4.1c-0.4,0-0.5,0.4-0.7,0.5c-1.1,0.8-1.6,0.6-1.8-0.8c0-0.4,0-0.8,0-1.2c0-0.7-0.2-1.4,0.2-2.3
		c0.7,0.4,1.4,0.8,2,1.2c0.3,0.2,0.6,0.3,0.9,0.1c0.3-0.3,0.3-0.8,0.1-1.1c-0.3-0.5-0.7-1.1-1.1-1.2
		C16.6,396.4,15.5,395.3,14.1,395.3z"/>
	<path class="st54" d="M28,377.6c0-0.5,0-1,0-1.4c0-0.2,0-0.3,0-0.5c0.5-0.4,0.1-1,0.5-1.4s1.1,0,1.4-0.5c0.3-0.6,0.5-1.3,0.5-2
		c0-0.4-0.1-1,0.3-1.1c2.5-0.7,1.5-2.9,2-4.4c0.3-1,0.3-2.1,1-3c-0.3,2.3-0.5,4.6-1,6.8c-0.4,1.6-0.4,3.1-0.4,4.7
		c-0.3,0.2-0.4,0.5-0.5,0.8c-0.1,0.5-0.3,1-0.9,0.9c-0.5,0-0.5-0.6-0.5-0.9c-0.1-0.4-0.3-0.7-0.8-0.7c-0.4,0-0.5,0.4-0.6,0.6
		C28.6,376.2,28.6,377,28,377.6z"/>
	<path class="st54" d="M31.3,381.9c-0.8,1.1-0.6,2.3-0.5,3.6c0,0.4-0.2,0.9-0.6,0.9c-0.6,0-0.8-0.5-0.6-1c0.5-1.2,0.2-2.4,0.3-3.5
		c0-0.7,0-1.7,1-1.5C31.6,380.4,31.2,381.3,31.3,381.9L31.3,381.9z"/>
	<path class="st3" d="M28.3,391.8c0.2-0.1,0.4-0.2,0.5-0.2c0.5,0,1.2-0.3,1.4,0.5c0,0.1-0.3,0.4-0.5,0.5
		C28.8,392.9,28.6,392.4,28.3,391.8z"/>
	<path class="st54" d="M30.9,378.3c0.2,0.1,0.4,0.3,0.3,0.5s-0.3,0.4-0.4,0.4c-0.2,0-0.3-0.2-0.3-0.5S30.6,378.3,30.9,378.3z"/>
	<path class="st20" d="M26.5,222.8c-0.2,0.6-0.3,1.3-0.1,2.2c0.2,0.9-0.5,1.5-1.4,1.4s-0.9-0.8-0.6-1.4c0.5-0.9-0.2-1.7,0.1-2.5
		c0.2-0.6,0.5-1.3,1.3-1.1C26.4,221.5,26.5,222.1,26.5,222.8z"/>
	<path class="st20" d="M44.3,216.3c0.1-0.1,0.1-0.5,0.2-0.5c0.5,0,0.6,0.4,0.6,0.8c0,0.2-0.1,0.5-0.4,0.5
		C44.4,217,44.4,216.7,44.3,216.3z"/>
	<path class="st53" d="M28.5,374.2c0,0.5,0.1,1.1-0.5,1.4C28,375.1,27.9,374.6,28.5,374.2z"/>
	<path class="st53" d="M29.9,373.7c-0.3,0.6-0.9,0.5-1.4,0.5C28.8,373.7,29.4,373.8,29.9,373.7z"/>
	<path class="st0" d="M30.2,558.6c0.6,0.1,1.1,0.5,0.9,1.1c-0.9,2.7-0.3,5.6-0.6,8.3c-0.1,0.9-0.5,1.8-0.9,2.6
		c-0.2,0.4-0.7,0.3-1.1,0.2c-0.5-0.2-0.7-0.7-0.4-0.9c1.5-1.7,0.1-3.8,0.8-5.7c0.5-1.5,0.7-3.1,0.6-4.7
		C29.4,559.1,29.6,558.7,30.2,558.6z"/>
	<path class="st0" d="M19.8,585.1c0.1,0.4,0.3,0.7,0.3,1c0.1,0.5-0.1,1-0.7,1c-0.6,0.1-0.8-0.5-0.9-1c0-0.9,0.4-1.8-0.1-2.8
		c-0.1-0.3,0.1-0.6,0.4-0.7c0.3-0.1,0.6,0,0.8,0.3C20.3,583.7,20.3,584.4,19.8,585.1z"/>
	<path class="st0" d="M26.1,583.5c0.3,0,0.7,0,0.7,0.4c0,0.5-0.4,0.6-0.8,0.7c-0.4,0.1-0.6-0.2-0.7-0.5
		C25.2,583.6,25.7,583.5,26.1,583.5z"/>
	<path class="st0" d="M22.2,600.1c0.4,0.1,0.4,0.4,0.4,0.7s0,0.7-0.4,0.7s-0.4-0.4-0.4-0.7C21.8,600.5,21.8,600.1,22.2,600.1z"/>
	<path class="st0" d="M25.1,586.1c0.5,0,0.8,0.4,1,0.7c0.2,0.2,0,0.4-0.3,0.5c-0.5,0.1-0.9-0.2-1.1-0.7
		C24.7,586.4,24.8,586.2,25.1,586.1z"/>
	<path class="st0" d="M25.6,599c0-0.3,0-0.7,0.4-0.8c0.5-0.1,0.5,0.3,0.5,0.6s0,0.7-0.4,0.8C25.7,599.7,25.7,599.2,25.6,599z"/>
	<path class="st0" d="M26,558.5c0.8,0.2,1.3,0.4,1.2,1.1c0,0.1-0.4,0.3-0.6,0.3C25.9,559.7,26.1,559.1,26,558.5z"/>
	<path class="st0" d="M5.3,577.1c-0.3-0.1-0.6-0.3-0.6-0.6c0-0.5,0.4-0.6,0.8-0.6c0.4-0.1,0.5,0.1,0.5,0.5
		C5.8,576.7,5.8,577,5.3,577.1z"/>
	<path class="st0" d="M26.7,574.6c0.1-0.1,0.1-0.4,0.2-0.4c0.4,0,0.8,0.1,0.9,0.6c0,0.1-0.1,0.3-0.2,0.4
		C27.1,575.2,26.9,575,26.7,574.6z"/>
	<path class="st0" d="M32.8,542c0-0.2,0.1-0.5,0.4-0.5s0.4,0.2,0.3,0.5c-0.1,0.2-0.2,0.5-0.5,0.4C33,542.3,32.9,542.1,32.8,542z"/>
	<path class="st0" d="M31,555.5c-0.1-0.1-0.3-0.1-0.4-0.2c0-0.1,0.1-0.3,0.2-0.4c0.1,0.1,0.3,0.1,0.4,0.2
		C31.2,555.2,31,555.3,31,555.5z"/>
	<path class="st0" d="M34.6,577.9c0.1,0.1,0.3,0.1,0.4,0.2c0,0.1-0.1,0.3-0.2,0.4c-0.1-0.1-0.3-0.1-0.4-0.2
		C34.4,578.2,34.5,578.1,34.6,577.9z"/>
	<path class="st0" d="M12.9,580.5c-0.1,0.1-0.1,0.3-0.2,0.4c-0.1,0-0.3-0.1-0.4-0.2c0.1-0.1,0.1-0.3,0.2-0.4
		C12.6,580.3,12.8,580.4,12.9,580.5z"/>
	<path class="st0" d="M24.7,596.3c0.2-0.1,0.3,0,0.3,0.2c0,0.1-0.1,0.2-0.1,0.2c-0.1,0-0.3,0-0.4,0
		C24.5,596.5,24.6,596.4,24.7,596.3z"/>
	<path class="st0" d="M27.4,577.8c-0.1,0.2-0.2,0.2-0.3,0.1c-0.1-0.1-0.1-0.2-0.2-0.3c0.1,0,0.3-0.1,0.4-0.1
		C27.3,577.5,27.3,577.7,27.4,577.8z"/>
	<path class="st0" d="M26.4,561.6c0.1,0,0.1-0.1,0.2-0.1s0.1,0.1,0.2,0.1C26.6,561.8,26.5,561.8,26.4,561.6z"/>
	<polygon class="st0" points="32.3,603.2 32.4,603 32.5,603.1 	"/>
	<path class="st22" d="M13.4,414c-0.1,0.6-0.4,0.9-0.9,0.9c-0.6,0.1-1.1-0.2-1.1-0.9c0-0.5,0.4-0.8,0.9-0.9
		C12.9,413.1,13.3,413.4,13.4,414z"/>
	<path class="st22" d="M10,414.8c0,0.1,0.1,0.1,0.1,0.2s-0.1,0.1-0.1,0.2C9.8,415.1,9.8,414.9,10,414.8z"/>
	<path class="st22" d="M28.5,555.7c0.1-0.3,0-0.8,0.6-0.7c0.1,0,0.1,0.1,0.1,0.1C29.2,555.6,28.8,555.6,28.5,555.7L28.5,555.7z"/>
	<path class="st3" d="M40.6,356.1c0.1-0.1,0.1-0.3,0.2-0.4c0.1,0,0.3,0.1,0.4,0.2c-0.1,0.1-0.1,0.3-0.2,0.4
		C40.9,356.3,40.8,356.2,40.6,356.1z"/>
	<path class="st1" d="M43.8,61.7c2.1,0.9,2.4,1.3,2.3,3.2c-0.1,0.9-0.4,1.8-0.4,2.8c0,0.3-0.2,0.5-0.5,0.7c-1.9,1.5-1.9,1.5-1.2,3.6
		c-2.3-0.9-2.6-2.3-1.1-4.1c0.7-0.8,1.2-1.7,1.3-2.7c-0.6-0.5-0.9,0.2-1.2,0.4c-0.6,0.4-1.2,0.7-1.7,0.1s0.1-1.2,0.4-1.7
		s0.8-0.7,1.4-0.9C43.9,62.9,43.8,62.3,43.8,61.7z"/>
	<path class="st38" d="M31.9,82c0.5-0.8,1-2.1,2-2.3c1-0.1,2.1-1.5,2.7-0.6c0.8,1.2-1.1,1.3-1.5,2.2c-0.3,0.6-0.9,1.1-1.4,1.6
		c-0.3,0.4-0.6,0.5-1,0.3C32.2,83,31.9,82.7,31.9,82z"/>
	<path class="st1" d="M35.8,73.2c1.1-1.2,0.1-2.7,0.4-4c0.3-1,1.3-1.5,2.2-1c0.4,0.2,0.7,0.7,0.4,1c-1.3,1.2-1.4,2.8-1.7,4.3
		c-0.1,0.3-0.3,0.6-0.7,0.5C36.1,74,35.9,73.7,35.8,73.2z"/>
	<path class="st38" d="M29.2,70.5c0.6,0,1.1,0.2,1.5,0.6c0.6,0.5,0.5,1.6-0.2,2c-0.4,0.2-3.5-1-3.7-1.4c-0.1-0.4,0-0.6,0.4-0.7
		C27.9,70.8,28.6,70.9,29.2,70.5z"/>
	<path class="st1" d="M25.1,66.6c0.1-1.9-1.7-2-3.1-3.1c1.9,0.2,3.5,0.6,4.1-1.3c0,0.3-0.1,0.7,0.1,0.9c0.9,1.1,0.4,1.8-0.6,2.4
		C25.9,66.1,26,66.6,25.1,66.6z"/>
	<path class="st1" d="M49.6,69.8c-0.8,0.6-1.3,1.1-1.9,1.4c-0.4,0.2-1,0.2-1.3-0.3s0-0.9,0.5-1.1C47.7,69.4,48.5,69.3,49.6,69.8z"/>
	<path class="st38" d="M30.2,83.3c0,0.3-0.1,0.6-0.5,0.8c-0.6,0.2-0.8-0.3-1-0.7c-0.1-0.4-0.1-0.8-0.1-1.1c-0.1-0.6,0.2-1,0.7-1
		s0.5,0.4,0.6,0.8C30,82.4,30.1,82.7,30.2,83.3z"/>
	<path class="st55" d="M20.8,76.1c0-0.1,0-0.3-0.1-0.4c0-0.5,0.3-1,0.5-1.4l0,0c0.3,0.2,0.6,0.3,0.9,0.5c0.1,0.7,1.7,0.3,1.1,1.4
		c-0.4,0.8-1.2,0.5-1.9,0.2C21.3,76.2,21,76.2,20.8,76.1z"/>
	<path class="st1" d="M39.7,76.2c-1.2-1.3-0.9-2.3-0.4-3.3c0.1-0.2,0.4-0.4,0.6-0.2c0.2,0.1,0.4,0.4,0.4,0.5
		C40.1,74.1,39.9,75,39.7,76.2z"/>
	<path class="st38" d="M23.4,90.2c0.2-0.5,0.4-1.1,1.1-1c0.5,0.1,1,0.4,0.8,0.9c-0.2,0.6-0.9,0.5-1.4,0.7
		C23.7,90.8,23.5,90.5,23.4,90.2z"/>
	<path class="st38" d="M22.7,74.2c1.2-0.1,1.5-0.9,1.4-1.9c1.3,0.6,1.5,1.1,0.6,1.8C24.1,74.5,23.4,75.1,22.7,74.2z"/>
	<path class="st56" d="M21.3,92.5c0,0.6,0.1,1.3-0.8,1.4c-1,0.1-1.1-0.7-1.1-1.4C20,92.5,20.6,92.5,21.3,92.5z"/>
	<path class="st1" d="M29.7,65.7c-0.9,0.3-1.5,0.1-1.6-0.8c0-0.1,0.2-0.4,0.3-0.4C29.3,64.4,29.6,65,29.7,65.7z"/>
	<path class="st38" d="M31,77.4c-0.3-0.1-0.4-0.1-0.4-0.1c-0.3-0.5-0.7-1-0.3-1.7c0.1-0.1,0.3-0.2,0.4-0.1
		C31.5,76,31.4,76.6,31,77.4z"/>
	<path class="st1" d="M49.5,65.7c0,0.3-0.1,0.6-0.5,0.7c-0.5,0.1-0.8-0.2-0.8-0.6c0-0.3,0.2-0.6,0.6-0.6S49.4,65.4,49.5,65.7z"/>
	<path class="st38" d="M23.7,71.8c-0.5-0.1-1,0.5-1.6-0.1c0.3-0.7,1.2-0.4,1.6-0.9c0.1-0.1,0.2-0.2,0.3-0.1c0.1,0,0.2,0.1,0.2,0.1
		C24,71.2,23.8,71.5,23.7,71.8z"/>
	<path class="st38" d="M25.1,69.9c0-0.3,0-0.6,0-1c0.7-0.6,0.9-0.3,0.9,0.5c0,0.5-0.4,0.8-0.9,1C24.9,70.2,24.9,70.1,25.1,69.9z"/>
	<path class="st38" d="M25.1,66.6c0.4-0.2,0.5-0.6,0.5-1c0.9,0.6,0.8,1.3-0.5,1.9C25.1,67.2,25.1,66.9,25.1,66.6z"/>
	<path class="st38" d="M45.5,78.9c0.3,0.2,0.2,0.5,0.2,0.8c0,0.2-0.1,0.5-0.4,0.4s-0.4-0.5-0.3-0.8C45,79.1,45.2,78.9,45.5,78.9z"/>
	<path class="st38" d="M24.8,75.4c0.2,0.1,0.2,0.3,0.2,0.5c-0.1,0.2-0.2,0.4-0.5,0.4c-0.2-0.1-0.3-0.3-0.2-0.5
		C24.3,75.5,24.4,75.3,24.8,75.4z"/>
	<path class="st38" d="M44.9,73.2c0-0.3,0.1-0.5,0.4-0.6s0.4,0.2,0.4,0.4c0,0.3-0.2,0.5-0.4,0.4C45.1,73.5,45,73.3,44.9,73.2z"/>
	<path class="st1" d="M36,74.9c0.1,0.1,0.3,0.1,0.4,0.2c0,0.1-0.1,0.3-0.2,0.4c-0.1-0.1-0.3-0.1-0.4-0.2C35.8,75.2,36,75,36,74.9z"
		/>
	<path class="st38" d="M37.9,90.4c-0.1,0.1-0.1,0.3-0.2,0.4c-0.1,0-0.3-0.1-0.4-0.2c0.1-0.1,0.1-0.3,0.2-0.4
		C37.6,90.2,37.7,90.4,37.9,90.4z"/>
	<path class="st8" d="M22.7,78.6c-0.5,0-1,0-1.4,0c0.2-0.4,0.6-0.5,1-0.5c0.1-0.1,0.2-0.2,0.3-0.1c0.1,0,0.2,0.1,0.2,0.1
		C22.7,78.2,22.7,78.4,22.7,78.6z"/>
	<path class="st38" d="M38.2,77.3c0,0.1,0,0.2-0.1,0.2s-0.1,0-0.2-0.1c0-0.1,0-0.2,0.1-0.2S38.1,77.3,38.2,77.3z"/>
	<path class="st38" d="M22.7,78.1c-0.2,0-0.3,0-0.5,0c0.2-0.4,0.6-0.5,1-0.5C23,77.8,22.9,77.9,22.7,78.1z"/>
	<path class="st8" d="M20.8,83.8c0.2-0.2,0.3-0.3,0.5-0.5c0,0.2,0,0.3,0,0.5C21.1,83.8,20.9,83.8,20.8,83.8z"/>
	<path class="st1" d="M25.1,69.9c0,0.2,0,0.3,0,0.5c-0.2,0-0.3,0-0.5,0C24.8,70.2,24.9,70.1,25.1,69.9z"/>
	<path class="st8" d="M23.2,79.5c0-0.2,0-0.3,0-0.5c0.2,0,0.3,0,0.5,0C23.5,79.2,23.3,79.4,23.2,79.5z"/>
	<polygon class="st38" points="23.2,77.6 23.3,77.4 23.4,77.5 	"/>
	<path class="st1" d="M24.1,70.9c-0.2,0-0.3,0-0.5,0c0.2-0.2,0.3-0.3,0.5-0.5C24.1,70.6,24.1,70.7,24.1,70.9z"/>
	<path class="st30" d="M34.2,32.9c0-0.2,0-0.3,0-0.5c1.5-0.8,1.5-2.2,1.4-3.7c0-0.5-0.5-0.9-0.2-1.4c0.1-0.2,0.3-0.4,0.5-0.5
		s0.6,0,0.6,0.2c0.1,1.2,1.2,2.1,0.6,3.4c0,0.2,0,0.3,0,0.5c-0.4,0.2-0.5,0.6-0.5,1s0.1,0.7,0.4,1c-0.8,1.6,0.2,3.2,0.1,4.9
		c0.9,0,1.7-0.2,2.3,0.4c0.2,0.8,0,1.6,0.5,2.4c0,0.3,0,0.7,0,1c-0.5,0.7-1.5,0.7-1.9,1.4c-0.2,0-0.3,0-0.5,0
		c-0.1-0.5-0.1-1-0.3-1.3c-0.8-1.5-1.3-2.9-0.7-4.6c0.2-0.4,0-0.9-0.4-1.3c-0.3-0.3-0.6-0.7-0.5-1C36,33.5,35.3,33.1,34.2,32.9z"/>
	<path class="st57" d="M38.1,43c-0.2-1.6,0.9-1.4,1.9-1.4c0.4,0.2,0.5,0.6,0.5,1C39.7,43,38.9,43.1,38.1,43z"/>
	<path class="st58" d="M39.9,40.6c-1.4-0.8-1.4-0.8-0.4-2.4c0.2,0,0.3,0,0.5,0l0,0c0.3,0.3,0.2,0.7,0.4,1c0,0.3,0,0.6,0,0.9
		C40.3,40.3,40.1,40.5,39.9,40.6L39.9,40.6z"/>
	<path class="st59" d="M44.3,43.1c-0.8-0.1-1.1-0.6-0.9-1.3c0.1-0.4,0.4-0.5,0.7-0.5c0.8,0.1,0.6,0.8,0.7,1.3l0,0
		C44.6,42.7,44.4,42.9,44.3,43.1L44.3,43.1z"/>
	<path class="st30" d="M40.4,39.2C40,39,40,38.6,40,38.2c0.2,0,0.3,0,0.5,0C40.4,38.6,40.4,38.9,40.4,39.2z"/>
	<path class="st30" d="M40,40.6c0.2-0.2,0.3-0.3,0.5-0.5C40.4,40.4,40.2,40.5,40,40.6z"/>
	<path class="st50" d="M25.1,62c-0.1,0.7-0.4,1-1,1.1c-0.7,0-1.3-0.2-1.3-1c0-0.6,0.3-1.1,1-1.1C24.4,61,25,61.3,25.1,62z"/>
	<path class="st60" d="M22.4,68.1c-0.4-0.1-0.6-0.3-0.6-0.6c-0.1-0.4,0.1-0.8,0.6-0.9c0.3,0,0.7,0.1,0.6,0.5
		C23,67.5,22.8,67.9,22.4,68.1z"/>
	<path class="st38" d="M21.3,74.3c-0.2-0.1-0.4-0.1-0.6-0.2C21,73.6,21.1,74.1,21.3,74.3L21.3,74.3z"/>
	<polygon class="st1" points="22.7,60.3 22.6,60.5 22.5,60.4 	"/>
	<path class="st61" d="M34.2,32.9c0.5,0,1.1-0.1,1.8-0.1c0.4,1,0.1,2,0.2,3c0,0.5,0.1,1.1-0.5,1.5c-0.5,0.3-0.9,0.3-1.4,0
		s-0.5-0.9-0.4-1.4c1-0.3,1.3-0.7,0.4-1.5c-0.2-0.4-0.5-0.9-0.5-1.4C33.9,33,34.1,33,34.2,32.9z"/>
	<path class="st30" d="M34.2,37.3c0.5,0,0.9,0,1.4,0c0,0.7,0,1.4-0.9,1.4c0.2-0.5,0.3-1-0.5-1C34.2,37.6,34.2,37.4,34.2,37.3z"/>
	<path class="st30" d="M33.7,39.2c0.2-0.4,0.6-0.5,1-0.5C34.5,39.1,34.1,39.2,33.7,39.2z"/>
	<path class="st24" d="M28,678.4c-0.7-4.1-0.6-5,0.3-6.3c0.5,1.2-0.4,2.2-0.3,3.3C28.1,676.4,28,677.4,28,678.4z"/>
	<path class="st62" d="M8.8,740.4c0.6,0.3,1.1,0.7,0.9,1.4s-0.8,0.5-1.3,0.5c-0.3-0.5-0.3-1,0-1.4C8.4,740.8,8.6,740.6,8.8,740.4z"
		/>
	<path class="st24" d="M25.4,650.9c-0.4,0-0.6-0.2-0.7-0.6c0-0.4,0.2-0.8,0.6-0.9c0.4-0.1,0.6,0.2,0.6,0.5
		C26,650.4,25.8,650.7,25.4,650.9z"/>
	<path class="st24" d="M25.3,652.4c0.1,0.1,0.3,0.1,0.4,0.2c0.2,0.2,0,0.5-0.2,0.6s-0.3,0-0.4-0.2C25.1,652.8,25.1,652.6,25.3,652.4
		z"/>
	<path class="st2" d="M8.3,740.9c0,0.5,0,1,0,1.4c-0.2,0-0.3,0-0.5,0C7.8,741.8,7.7,741.3,8.3,740.9z"/>
	<path class="st24" d="M23.8,658.3c0.1,0,0.2-0.1,0.2,0s0,0.1,0.1,0.2c-0.1,0-0.2,0.1-0.2,0C23.8,658.4,23.8,658.4,23.8,658.3z"/>
	<path class="st2" d="M7.8,742.4c-0.2,0.2-0.3,0.3-0.5,0.5C7.5,742.7,7.6,742.5,7.8,742.4z"/>
	<path class="st0" d="M21.7,645.9c-0.3-0.4-0.7-0.4-0.9,0c-0.4,0.6-0.8,1-1.5,0.9c-0.4,0-0.8-0.1-1-0.5c-0.2-0.3,0-0.6,0.3-0.8
		c1-0.7,0.2-1.6,0.4-2.3c0.6-1.8-0.1-3.4-0.1-5.1c0-0.7,0.2-1.7-0.6-1.8c-1-0.1-0.7,1-0.8,1.7c-0.1,0.7,0.3,1.9-0.8,1.8
		c-0.9-0.1-0.5-1.3-0.6-2.1s0.4-1.5,0.5-2.3c0.9-0.4,1-1.2,1-2c0-0.7,0-1.4,0.7-1.6c0.7-0.2,0.9,0.4,1.3,0.8c0.3,0.3,0.7,0.4,1,0.6
		c0.4,0.4,0.4,1-0.2,1c-0.6,0.1-1.3-0.1-1.1,0.7c0.1,0.9,0.8,0.8,1.5,0.6c0.2-0.1,0.5-0.1,0.7-0.1c0.5,0.5-0.1,1.1,0.2,1.6
		c0.7,1,0.6,1.9-0.3,2.7c-0.4,0.4-0.5,1.3,0,1.5c1.8,0.7,0.6,2.6,1.5,3.7C22.8,645.2,22.2,645.7,21.7,645.9z"/>
	<path class="st23" d="M17.5,255.9c0.1-0.7,0.4-1.1,1.2-1.1c0.3,0,0.5,0.2,0.5,0.4c-0.1,0.7-0.5,1.1-1.2,1.2
		C17.6,256.5,17.5,256.2,17.5,255.9z"/>
	<path class="st23" d="M19.9,247.7c0.1,0.1,0.2,0.3,0.1,0.4c0,0.1-0.3,0.1-0.4,0.2c-0.1-0.1-0.2-0.3-0.1-0.4S19.8,247.7,19.9,247.7z
		"/>
	<path class="st23" d="M12,296c0,0.1-0.1,0.1-0.1,0.2c0-0.1-0.1-0.1-0.1-0.2s0.1-0.1,0.1-0.2C11.9,295.9,12,295.9,12,296z"/>
	<path class="st20" d="M17.7,158c-1-0.3-1.9-0.9-3-0.5c-0.1-0.9-0.5-2,0.3-2.3c0.8-0.3,1.8,0.2,2.5,1C17.9,156.6,18,157.1,17.7,158z
		"/>
	<path class="st63" d="M38.5,33c0.2,0,0.3,0,0.5,0c-0.1,0.9,0.2,1.8-0.4,2.8C37.7,34.7,38.1,33.8,38.5,33z"/>
	<path class="st64" d="M37.1,25.3c-1.1,0.1-1.5-0.3-1.4-1.4C36.7,23.7,37.2,24.2,37.1,25.3z"/>
	<path class="st0" d="M16.7,731.7c0.1,0.1,0.2,0.3,0.2,0.4c0,0.1-0.1,0.2-0.2,0.3c-0.1-0.1-0.2-0.3-0.2-0.4S16.6,731.8,16.7,731.7z"
		/>
	<path class="st26" d="M44.3,43.1c0.2-0.2,0.3-0.3,0.5-0.5C44.6,42.7,44.5,42.9,44.3,43.1z"/>
</g>
</svg>
