<svg viewBox="0 0 713 342">
<style type="text/css">
	.st0{fill:#1E1E1E;}
</style>
<g>
	<path d="M569,221.4c0.1,1,0.1,2.1,0.2,3.6c-0.5-0.6-0.7-0.9-1-1.3c-0.4,0.6-0.7,1.1-1,1.7c-0.2,0-0.3-0.1-0.5-0.1
		c0.3-2.2,0.4-4.5,0.9-6.7c1.2-5.5,2.7-10.8,5.9-15.6c1.4-2.2,1.9-5,2.5-7.5c1.3-5.1,2.2-10.2,3.7-15.3c1.4-4.9,3.3-9.7,5-14.6
		s3.6-9.8,5-14.9c1.2-4.4-0.1-8.6-2.3-12.6s-4.9-7.3-9.4-9c-1.6-0.6-3.1-1.7-4.6-2.7c-1.9-1.2-3.9-1.5-6.1-1.7c-3-0.2-6-0.7-9-1
		c-0.9-0.1-1.8-0.3-2.6-0.1c-7.5,2-14.8,0.8-22.1-1.2c-2.5-0.7-5-1-7.6-1.3c-0.7-0.1-1.5,0.5-2.2,0.7c-0.9-0.3-1.9-1-2.9-1
		c-4.3,0-8.5,0-12.8,0.2c-2.9,0.2-5.8,0.7-8.7,1.3c-4,0.9-8,1.8-11.8,3.1c-6.4,2.2-12.7,4.6-19,7.1c-5,2-10,3.4-15.2,4.6
		c-2.2,0.5-4.2,1.7-6.4,2.6c-1.3,0.5-2.6,1-4,1.3c-3.3,0.8-6.4,2-9.4,3.6c-3,1.5-5.3,3.8-7.8,6c-3.7,3.2-7.4,6.4-10.8,9.9
		c-2.9,3-5.5,6.3-7.9,9.6c-3.8,5.1-8.1,9.7-13,13.6c-2.2,1.7-4.9,2.8-7.5,3.9c-2.9,1.3-6,2.3-9,3.4c-1.3,0.5-2.7,0.8-4.1,1.1
		c-1.9,0.4-2.5,0.9-2.6,2.7c-0.2,2.1-0.3,4.3-0.5,6.4c-0.4,3.4-0.8,6.7-1.3,10c-0.2,1.1-0.5,2.3-1,3.3c-3,6.8-5.8,13.8-10.9,19.4
		c-0.7,0.7-1,1.8-1.5,2.7c-0.2,0.3-0.3,0.7-0.6,0.9c-2,1.5-3.2,3.5-3.5,6c-0.2,1.1-0.6,2.2-1,3.3c-1.8,5.7-3.5,11.4-5.3,17
		c-0.9,2.6-2.2,5-3.2,7.6c-0.3,0.8-0.5,1.7-0.8,2.5c-0.4,1.2-0.8,2.3-1.4,3.4c-0.6,1.3-1.3,2.6-1.7,4c-0.6,0.5-1.3,0.8-1.8,1.4
		c-2.3,3-5.4,5.1-8.2,7.5c-2,1.7-3.7,3.8-5.6,5.7c-1,1-1.9,2.1-3,3c-6.7,5.2-13.4,10.4-21.6,13c-5.7,3.7-12.2,5.3-18.4,7.5
		c-2.2,0.8-4.6,1.3-7,1.8c-5,0.9-10,1.5-15,2.5c-4.4,0.8-8.7,1.8-13,2.9c-6.7,1.6-13.4,2.4-20.3,2.9c-5.9,0.4-11.7,0.9-17.6,1
		c-1.5,0-3,0.8-4.8,1.3c-0.7-1.2-2-1.2-3.3-1.1c-7.4,0.3-14.8-0.2-22.1-0.8c-1.6-0.1-3.2-0.3-4.1,0.6c-2.8-0.6-5.1-1.3-7.5-1.7
		c-9-1.7-17.9-3.8-26.5-7.1c-0.9-0.3-1.9-0.4-2.8-0.7c-0.4-0.1-0.9-0.2-1.2-0.4c-2.8-2-6-3.1-9.2-4.1c-0.3-0.1-0.7-0.3-1-0.4
		c-2.4-1.3-4.8-2.2-7.8-2.3c-3.2-0.1-6.2-1.5-7.5-5c-0.2-0.6-0.6-1.1-1.1-1.4c-2.6-1.7-5.2-3.2-8.3-5.1c0.4,3.3,1,6.1,0.1,9.4
		c-0.4-1-0.7-1.4-0.8-1.8c-0.3-1.7-0.7-3.3-0.9-5c-0.3-3-2.1-5.1-4.5-6.6c-2.7-1.6-5.3-3.2-7.6-5.3c-3-2.7-6.3-5.1-8.8-8.5
		c-1.4-1.9-3.3-3.6-4.8-5.5c-2.5-3-4.6-6.3-6.9-9.4c-1.8-2.6-3.1-5.5-4.4-8.4c-0.3-0.6-0.9-1-1.4-1.4c-0.8-0.6-1.8-1-2.9-1.7
		c1-0.5,1.6-0.9,2.6-1.4c-2.2-4.3-3.1-9.1-6.6-12.8c0.6-2,0.5-3.9-1.5-5.3c-0.3-0.2-0.2-1.1-0.3-1.7c-0.2-1.4-0.3-2.8-0.7-4.1
		c-1.1-2.9-2.3-5.8-3.5-8.6c-0.5-1.1-1.2-2.1-1.9-3.3c0.4-0.3,0.9-0.8,1.6-1.3c0-0.2,0.1-0.5,0-0.7c-0.6-3.9-1-7.9-2-11.8
		c-0.5-2-0.6-4-1.1-5.9c-0.3-1-1-1.9-1.7-3.3c1.2-3.6,0-7.7-0.9-11.7c-0.1-0.5-0.8-0.8-1-0.9c0.1-1.4,0.4-2.5,0.2-3.5
		c-0.9-4.2-1.8-8.3-2.9-12.4c-1.4-5.7-3-11.3-4.5-17c-0.4-1.4-1.1-2.8-1.5-4.3c-0.8-2.4-1.4-4.9-2.2-7.3c-0.4-1.2-1.1-2.2-1.9-3.8
		c0.5-1.2-0.2-2.7-0.7-4.3c-1.2-4.2-3.2-8-4.9-12c-1.2-2.8-2-5.9-2.9-8.8c-0.6-2.1-2-3.8-2.4-6.1c-0.1-0.8-1.2-1.5-1.9-2.5
		c0.8-0.8,0.7-1.9,0.1-3.1c-1.2-2.5-2.2-5-3.5-7.5c-0.6-1.1-1.5-2.1-2.2-3.1c-0.5-1.6-1.2-3.3-1.4-5C6.5,80,4.2,75.9,3.4,71.4
		c-0.4-2.7-1.3-5.3-1.7-8c-0.4-2.8-0.5-5.7-0.7-8.5c0-0.2,0-0.4,0-0.5c-1.4-2.7-0.5-5.5-0.5-8.3c0-1.3-0.3-2.6-0.5-4.3
		c0.5-1,1.6-2.3,0.1-4c1.5-1.4,2.4-2.8,1.6-5c-0.2-0.5,0.6-1.4,0.8-2.1c0.4-2.1,0.8-4.2,1.1-6.3c0.3-1.9,0.7-3.8,1-5.9
		c-0.2-0.2-0.5-0.7-0.9-1.2c2.4-1.4,3.5-3.6,4.1-6.2C8.5,8.2,9.7,5.4,11,2.7c1.4-3.1,4.3-3.5,6.9-1.3c0.7,0.5,1.5,0.8,2.3,1.3
		c1,0.7,2,1.4,3.3,2.2c-0.7,0.9-1.3,1.5-1.9,2.2c-4.3,4.5-7.1,9.9-9.4,15.6C9.9,28.4,10.1,34.3,9,40.1C8.6,42,8.4,44,8.3,45.9
		c-0.1,1.8-0.2,3.6,0,5.3c0.5,3.9,0.9,7.8,1.8,11.6c0.6,2.7,1.9,5.2,2.6,7.8c1.5,5.3,4.4,10.1,6.4,15.2c2.3,5.7,4.5,11.4,6.4,17.2
		c1.5,4.7,3,9.3,3.8,14.1c1.4,8.2,4.6,15.9,6.2,23.9c0,0.2,0.1,0.3,0.2,0.5c1.5,2.7,1.6,5.8,2.3,8.8c0.7,3,1.3,6.1,2.1,9.1
		c1.6,6.5,3.2,13.1,4.7,19.6c1.1,4.8,2,9.6,2.9,14.3c0.7,3.8,1.5,7.7,2.1,11.5c1.5,9.8,5.2,19,7.6,28.5c1.2,4.7,3.5,9.2,5.4,13.8
		c1.6,3.9,3.1,7.9,4.8,11.8c0.8,2,1.9,3.8,2.9,5.7c0.6,1,1.1,1.8,2.7,1.7c1.9-0.1,2.1,0.6,2,2.8c0,1,0.4,2.1,1,2.9
		c1.7,2.7,3.4,5.4,5.4,7.9c1.5,1.9,3.5,3.5,5.3,5.2c2.1,1.8,4.5,3.3,6.4,5.2c1.9,2,4.2,2.8,6.7,3.2c0.3,0.1,0.7,0.2,1,0.3
		c2.8,1.3,5.6,2.6,8.6,4.1c-1.1,0-2.1,0-3.2,0c0.5,2.6,3,3.3,4.8,4.9c0.7-0.4,1.3-0.7,2.1-1.1c0.5,0.8,0.9,1.5,1.3,2.1
		c0.4,0.6,0.7,1.3,1.8,1.2c0.5,0,1.2,0.4,1.6,0.9c2.4,2.8,5.9,3.5,8.9,5.1c0.6,0.3,1.5,0,2.2-0.1c0.2-1.1,0.3-2,0.5-2.9
		c1.8-0.4,3.5-0.7,5.5-1.1c-0.1,0.5-0.1,0.9-0.2,1.1c-1.3,2.9-0.9,4.6,1.5,6.5c1,0.8,2.1,1.5,3.2,1.8c2.1,0.7,4.4,1,6.6,1.5
		c0.3,0.1,0.5,0.2,0.8,0.3c6.1,2.7,12.6,3.6,19.1,4.4c3.9,0.4,7.7,1,11.6,1.3c2.4,0.2,4.8,0,7.2,0.1c4.3,0.1,8.7,0.2,13,0.2
		c1.6,0,3.6,0.8,4.6-1.5c0-0.1,1.4,0.1,1.5,0.4c0.4,1,1.1,1.1,1.9,1.1c2.2,0,4.4,0.2,6.6,0.1c2.3-0.1,4.5-0.9,6.8-0.7
		c3.1,0.2,6.1-0.4,9.2-0.7c1-0.1,2.1-0.4,3.1-0.7c0.7-0.2,1.5-0.3,1.9-0.7c0.7-0.9,1.2-2.1,1.8-3.4c1.1,0,2,0.9,3,1.8
		c-0.9,0.1-2-0.2-2.1,1.3c2.2,0.2,2.2,0.2,2-1.4c1.1,0,2.1-0.5,3.3,0.1c0.9,0.5,2.5-0.1,3.7-0.3c3.1-0.6,6.3-1.3,9.4-2.1
		c1-0.3,1.8-1.1,2.8-1.3c1-0.2,2.1,0.2,3.1,0c2.3-0.5,4.5-1.1,6.7-1.7c2.9-0.8,5.8-1.5,8.7-2.3c0.6-0.2,1.2-0.3,1.8-0.5
		c2.6-1,5.1-1.9,7.7-2.9c2.1-0.8,4.1-1.8,5-4.2c0.5,0.1,0.9,0.1,1.1,0.2c1.3,0.9,2.4,0.6,3.6-0.4c0.7-0.6,1.3-1.8,2.6-1
		c0.2,0.1,0.7-0.1,1-0.3c3.6-2.1,7.3-4.1,10.7-6.4c1.4-0.9,2.9-1.8,4-3.1c1.1-1.3,2.6-2.1,3.8-3.2c1.2-1.1,2.5-2.3,2-4.5
		c-0.2-0.9,0.4-2,0.6-3c0.2,0,0.4,0,0.6,0c0.1,1.2,0.1,2.3,0.2,3.5c0.2,0,0.3,0.1,0.5,0.1c0.7-0.9,1.6-1.7,1.9-2.7
		c0.5-1.5,1.5-2.4,2.8-3.4c-0.2-0.6-0.4-1.1-0.5-1.4c1-1.1,2-2,2.7-3c1-1.4,1.9-2.9,2.6-4.5c0.5-1.2,0.5-2.6,1.1-3.8
		c2.4-4.6,3.2-9.7,4.8-14.5c0.2-0.6,0.1-1.4,0-2.1c-0.4-2.8,0.5-5,2.6-7.3c0.1,1.3,0.2,2.2,0.3,3.2c0.1,0,0.3,0.1,0.4,0.1
		c0.3-0.6,0.6-1.2,0.8-1.8c0.9-2.4,1.7-4.8,2.7-7.2c1.6-4.2,3.2-8.5,4.9-12.7c0.7-1.8,1.6-3.6,2.6-5.3c1.6-2.6,2.1-5.4,2.3-8.3
		c0.4-6.3,0.3-12.6,1.6-18.8c0.5-2.2,1.1-4.3,1.7-6.3c2.8-1.3,5.5-2.5,8.1-3.7c-0.2,0.4-0.4,0.8-0.7,1.7c1.3-1.3,1.3-1.3,1-2.1
		c0.5-0.9,0.9-1.9,1.5-2.8c2.5-3.3,4.8-6.8,6-10.7c1.1-3.5,2.6-6.8,3.7-10.2c1.5-4.8,4.7-8.3,8.5-11.3c3.7-3,7.8-5.3,11.9-7.5
		c0.3-0.2,0.6-0.4,0.9-0.5c-0.3-0.9-0.6-1.6-0.8-2.4c1.9,2.1,3.6,1.3,5.3-0.1c0.7-0.6,1.5-1,2.4-1.6c-0.2-0.6-0.4-1.2-0.5-1.8
		c0.1-0.1,0.2-0.2,0.3-0.2c0.5,0.5,1,0.9,1.6,1.5c2.6-1.3,5.2-2.5,7.8-3.8c2.7-1.4,5.3-2.9,7.9-4.3c0.3-0.2,0.7-0.4,1-0.3
		c2.2,0,4-1.5,6.2-1.6c2.1-0.1,4.1-1.3,6.2-1.6c3.8-0.5,7.4-1.4,11.1-2.4c2.4-0.6,5.1-0.4,7.7-0.5c0.4,0,0.9-0.1,1.3-0.2
		c1.6-2.1-0.6-4.7,0.9-7c1.9,2-0.1,4.5,1.1,6c1.5,0,2.7,0.1,3.9,0c2.6-0.3,5.3-0.6,7.9-1.1c2.7-0.5,5.4-1.2,8-1.9
		c2.3-0.7,4.4-1.7,6.7-2.3c4-1.1,8-2.4,12.1-3.1c2.7-0.5,5.5-0.3,8.2-0.1c1.5,0.1,2.8,0.1,4.2-0.4c2.1-0.8,4.1-1.7,6.2-2.4
		c4.2-1.5,8.5-1.7,12.9-1.8c2.6,0,5.2-0.1,7.7-0.1c1.4,0,2.5-0.6,3.2-1.9c0.8-1.5,1.7-3,3.6-3.4c-1.3,1.6-3.1,2.9-3.1,5.4
		c1.9,0.3,3.8,0.8,5.7,1c5.1,0.6,9.4,3.1,13.6,5.9c1.5,1.1,3,1.4,4.7,0.7c2.3-0.9,4.6-1.8,6.2-3.9c0.5-0.6,1.4-0.9,2.2-1.3h-0.1
		c-0.4,0.7-0.7,1.4-1.1,2c-0.6,0.8-1.2,1.5-2,2.3c0.9,0.4,1.7,0.5,2.1,1c0.4,0.4,0.2,1.3,0.4,2.3c2,0.3,4.2,0.7,6.4,0.8
		c6,0.2,11.8,1.4,17.4,3.7c2.8,1.2,5.8,1.6,9,0c0.9,2.7,3.2,2.6,5.4,2.9c5.9,0.8,11.8,1.4,17.6,2.6c4.8,1,9.7,1.2,14.5,1.6
		c6.9,0.6,13.8,0.4,20.6,2.1c2.8,0.7,5.4,1.6,8.2,2.3c2.7,0.8,5.5,1.5,8.2,2.3c4.7,1.3,9,3.4,13,6c2.2,1.4,4.6,1.4,6.9,1.8
		c0.4,0.1,0.8,0.1,1.1,0.2c1.6,0.5,3.1,1.1,4.7,1.7c1.3,0.5,2.6,1,3.7,1.4c1,2.8-2.9,1.4-2.3,3.3c-1.4,0.2-2.5,0.3-3.6,0.5
		c0,0.1,0,0.3,0,0.4c-1.4-0.8-2.9-1.7-4.3-2.5c-3.5-1.9-6.9-3.9-10.5-5.8c-1.1-0.6-2.3-0.8-3.5-1.2c-0.4-0.1-0.9-0.2-1.2-0.4
		c-2.4-2.1-5.4-2.5-8.3-3.4c-1.9-0.5-3.7-1.2-5.6-1.7c-2.8-0.6-5.5-1.2-8.3-1.7c-2.3-0.4-4.6-0.6-6.9-0.8c-3.2-0.3-6.3-0.5-9.5-0.7
		c-1.5-0.1-3-0.4-4.5-0.5c-3.8-0.4-7.6-0.7-11.4-1.1c-2.7-0.3-5.4-0.7-8.2-1.1c-0.4-0.1-0.9-0.2-1.3-0.2c-2.3,0.1-4.6,0.2-6.7-0.8
		c-0.4-0.2-1-0.1-1.6-0.1c0,0.3,0,0.5,0,0.6c3.1,2.2,6.2,4.5,8.9,7.2c0.9,0.9,2.1,1.1,3.4,1.2c1.8,0.1,3.5,0.9,5.7,1.4
		c-0.5,0.6-0.8,0.9-1.3,1.5c0.9,0.5,1.8,1.1,2.7,1.5c2.8,1.5,5.7,2.9,8.5,4.4c3.1,1.7,6.2,3.3,9.3,5.1c1.4,0.8,2.7,1.7,4.1,2.5
		c5.6,3.6,11.8,6.2,18,8.7c4.8,1.9,9.5,4,14.2,6c3.6,1.5,7.3,2.4,11.2,2.5c-0.5,0.2-0.9,0.4-1.4,0.6c-0.5,0.1-1,0.2-1.6,0.6
		c2.8,0.8,5.6,1.6,8.5,2.3c0.7,0.2,1.6-0.1,2.3-0.1c0.5,0.5,0.9,1,1.4,1.5c0.5,0.4,0.9,0.8,1.5,1.1c1,0.6,1.3,1.6,0.9,2.5
		c-0.3,0.6-1.3,0.8-2.3,1.3c-0.2,1.1-1.1,2.6,1,4.4c-2.5,0-4.3,0-6.4,0c1.4,2.7,4.1,2.8,5.9,4.4c-0.8,0.9-1.5,1.7-2.2,2.6
		c-4.4-1.5-8.8-3-13.5-4.7c-0.8-2.6-3.4-3.9-6.1-4.9c-5.3-2-9.8-5.3-14.4-8.4c-2.2-1.5-4.6-2.7-7.1-3.6c-1.9-0.7-4.1-0.7-5.7-0.9
		c-1.2-0.9-2-1.7-2.9-2.2c-3.4-1.8-6.8-3.4-10.2-5.2c-0.6-0.3-1-1-1.6-1.4c-1-0.6-2.1-1.1-3.2-1.8c-2-1.2-4.1-2.2-5.9-3.6
		c-3.6-2.8-6.9-5.9-9.7-9.4c-1.2-1.5-2.6-2.8-4.5-3.7c-2.3-1.1-4.3-2.8-6.6-3.9c-2.4-1.2-4.9-2-7.6-3.1c0.3,3.3,0.5,6.1,0.7,9
		c0,0.5,0.3,1.1,0.2,1.6c-0.9,2.7,0.2,4.8,1.5,6.9c2.4,3.9,4.7,7.7,8.5,10.5c0.7,0.5,1.6,0.7,2.2,1.3c0.6,0.5,0.9,1.4,1.5,2
		c2,1.8,4.4,2.7,6.9,3.2c1.9,0.3,3.5,1.1,5.1,2.1s3.4,1.8,5.2,2.7c0.5,0.2,1,0.4,1.4,0.8c1.3,1.5,3,2.5,4.9,3.1
		c0.5,0.1,1.2,0.5,1.2,0.9c0.3,1.9,1.8,2.5,3.1,3.5c3.7,2.8,7.6,5.6,11.4,8.4c0.8,0.6,1.8,1.3,2.3,2.2c1.7,3,4.6,4.5,7.3,6.4
		c1.1,0.8,2.5,1.1,3.3,2.5c0.7,1.3,2,2.2,3,3.3c0.2,0.2,0.2,0.7,0.3,1.2c-0.8,0.4-1.6,0.8-2.3,1.2c-2.3-2.1-4.6-4.1-6.8-6.3
		c-2.3-2.4-5.1-4.4-7.8-6.4c-4.9-3.7-10-7.1-15.4-10.1c-4.2-2.3-8.1-5-12.2-7.5c-1.4-0.8-2.8-1.5-4.3-2.1c-0.1-0.1-0.5,0.4-0.7,0.7
		c-1.6-1.7-3.1-3.5-4.7-5c-3.8-3.5-7.6-6.9-11.4-10.3c-0.8-0.7-1.6-1.5-2.4-2.3c-0.2,0.1-0.3,0.2-0.5,0.3c0.5,1.9,1,3.9,1.6,5.8
		c2,6.1,3.7,12.2,3,18.7c-0.1,1.3,0.2,2.6,0.5,3.9c0.3,1.4,1.4,2.2,2.9,2.3c1,0,2,0,2.9-0.1c-1.4,0.3-2.9,0.6-4.7,0.9
		c0.7,0.7,1.3,1.3,2,1.7c1.5,1,3.2,2,4.7,3c0.5,0.3,1,0.8,1.3,1.3c1.1,1.6,2,3.4,4.2,3.9c0.1,0,0.1,0.3,0.2,0.7c-2,0-3.5-1-5-1.8
		c-0.4-0.2-0.8-0.5-1.1-0.8c-1.6-1.8-3.2-3.3-5.9-2.6c0.5-0.2,1-0.4,1.8-0.7c-0.7-0.7-1.5-1.3-2-2.1c-1.2-1.9-3.1-3.8-3.3-5.8
		c-0.2-2.6-0.9-5-1.5-7.4c-0.9-3.1-2.3-6.1-3.4-9.2c-0.2-0.6-0.2-1.4-0.2-2.1c-0.1-1.1-0.2-2.3-0.5-3.4c-0.1-0.5-0.7-0.9-0.9-1.1
		c0.2-1,0.6-1.9,0.6-2.8c0-2-0.1-4.1-0.2-6.1c0-0.6-0.2-1.3-0.5-1.7c-2.2-2.8-4.5-5.5-7-8.5c-0.2,1.6-0.4,2.8-0.5,4.1
		c-0.1,3.7-1.1,7-3,10.2c-1.4,2.3-2,5.1-3,7.7c-3,8.6-6,17.2-8.9,25.9c-0.7,2-1.3,3.9-0.3,6.2c0.4,0.9-0.2,2.5-0.8,3.5
		c-0.9,1.7-1.6,3.4-1.6,5.3c-0.1,4.7-1.5,9.1-2.5,13.6c-0.6,2.8-1.2,5.7-1.8,8.7c-0.3,0.1-0.9,0.3-1.6,0.5c0.5-2.8,1-5.5,1.5-8.2
		C569.8,221.5,569.4,221.5,569,221.4c0.9-0.7,2.4-1,1.7-2.8C569.2,219.1,569.3,220.4,569,221.4z M476.5,126.1
		c0.6-0.2,1.2-0.5,1.8-0.7c-0.1-0.2-0.2-0.3-0.3-0.5C477.6,125.4,477.1,125.8,476.5,126.1c-0.8-0.7-1.7-0.8-2.9-0.7
		c-5,0.5-10,1.2-15.1,1.2c-1.8,0-3.7,0.4-5.5,0.6c-2.8,0.4-5.6,1.1-8.4,1.3c-4.4,0.4-8.6,1.5-12.6,3.2c-3.8,1.6-7.7,3.1-11.7,4.2
		c-2.2,0.6-4.4,1.4-6.4,2.6c-2.4,1.5-4.8,2.7-7.4,3.5c-0.8,0.2-1.5,0.6-2.2,1c-2,1.3-3.9,2.7-5.9,3.9c-4.3,2.5-7.8,5.8-10.1,10.3
		c-0.4,0.8-1,1.5-1.5,2.2c-0.7,1.1-2,1.9-1.6,3.5c0,0.2-0.2,0.5-0.4,0.6c-2.2,1.1-3,3.2-3.6,5.4c-0.2,0.7-0.3,1.4-0.6,2.1
		c-1.7,4.1-3.5,8.1-5.2,12.2c-0.5,1.2-0.8,2.4-1.2,3.7c3.6,0.1,5.1-0.5,5.8-2.2c1.9,0.7,3.2,0.5,4.6-0.7c0.5-0.4,0.8-1,1.3-1.4
		c3.9-3.2,7.9-6.4,11.8-9.6c2.3-1.8,4.6-3.6,6.7-5.6c3.6-3.5,7-7.1,10.4-10.7c1.4-1.5,2.9-2.9,4-4.6c2.1-3.2,4.7-5.7,7.9-7.7
		c4.7-2.9,10.1-4.4,15.1-6.5c1.8-0.8,3.6-1.9,5.4-2c2-0.2,3.7-1,5.5-1.6c3.1-1.1,6.1-2.4,9.3-3.2c1.5-0.4,1.7-1.4,2.2-2.8
		c1,1.2,2.1,1.4,3.4,0.9C470.7,128,473.6,127.1,476.5,126.1z M357.1,224.2c0.6-0.7,1-1,1.3-1.4c2-2.9,3.8-5.9,5.9-8.8
		c2.3-3.2,3.3-6.8,3.3-10.7c0-0.4-0.2-0.9-0.3-1.6c-1.3,2.7-2.1,5.3-3.6,7.3c-3.2,4.2-4.3,9.4-6.6,14
		C356.9,223.1,357.1,223.5,357.1,224.2z M354,234.2c0.7-0.6,1.2-1,1.6-1.5c3-4.3,6-8.6,8.9-13c0.8-1.3,1.1-2.9,1.6-4.4
		c-1,0.9-1.6,2-2.2,3c-2.7,3.8-5,8-8.2,11.4C354.5,230.8,353.4,232,354,234.2z M656.7,193c-0.7-1.4-14.6-11.6-16.7-12.5
		C644.7,185.8,651.1,188.9,656.7,193z M361.3,189.4c-2.2,2-3,5.6-1.7,9c0.9-2.5,1.8-4.8,2.6-7.2
		C362.5,190.5,362.3,189.7,361.3,189.4z M569,218.4c0.9-0.6,1.9-1,2-1.5c0.4-2.1,1.5-4.1,1.1-6.7C570.3,212.8,569,215.1,569,218.4z
		 M335.6,274.8c0.2,0.1,0.3,0.2,0.5,0.3c2.9-2.4,5-6.4,4.6-9.1C338.9,269.1,337.3,271.9,335.6,274.8z M542.8,111.7
		c-2.9-1.2-5.3-1-7.6,0.8C537.7,113.3,540.1,113,542.8,111.7z M569.4,114.4c-2.6-0.6-4.7-1-6.8,0.8c3,0.9,5.5,1.1,6.2,0.6
		C569,115.4,569.1,114.9,569.4,114.4z M547.3,121.9c-3.4-0.2-6.8-0.4-10.2-0.6C540.3,123.3,543.7,123.3,547.3,121.9z M594.6,135.1
		c0.8,1.3,1.4,2.3,2.1,3.3c0.2,0.3,0.8,0.5,1.1,0.3c0.3-0.1,0.6-0.6,0.6-1C598.5,135.5,597.4,134.6,594.6,135.1z M596.7,133.7
		c-0.6-1.8-2.8-2.8-5.4-2.5C592.6,133.2,594,134.7,596.7,133.7z M499.6,113.6c-2.7-0.1-5.4-0.1-7.7,1.2c0,0.2,0.1,0.4,0.1,0.5
		C494.5,114.8,497.1,114.2,499.6,113.6z M580.3,127.3c1.2,0.9,1.8,2.8,3.9,2.3C583.2,128,583.2,128,580.3,127.3z M634,175.8
		c-1.6-1.9-3.4-3-5.7-3.3c1.8,1.2,3.5,2.3,5.2,3.3C633.7,175.9,633.9,175.8,634,175.8z M601.6,126.8c2.4,2.1,3.9,2.9,5.8,3.2
		C605.5,128.6,603.9,127.1,601.6,126.8z M533.5,110.9c-0.2-0.1-0.5-0.2-0.7-0.3c-0.4,0.8-0.8,1.6-1.4,2.7c0.9-0.1,1.5-0.2,2.1-0.3
		C533.5,112.2,533.5,111.6,533.5,110.9z M628.4,150.3c0.8,2.1,0.8,2.1,3,2.7C630.2,151.9,629.3,151.1,628.4,150.3z M337.3,251.1
		c0.2,0,0.5,0.1,0.7,0.1c0.9-0.8,1-1.7-0.1-3C337.7,249.4,337.5,250.2,337.3,251.1z M598.9,141.7c0.3-1.7,0.3-1.7-1.1-2
		C598.2,140.5,598.6,141.1,598.9,141.7z M377.3,160.2c0.2,0.1,0.3,0.3,0.5,0.4c0.7-0.5,1.4-0.9,1.1-2.7
		C378.1,159,377.7,159.6,377.3,160.2z M637.5,154.8c-0.1,0.2-0.3,0.5-0.4,0.7c0.9,0.3,1.8,0.7,2.7,1c0.1-0.2,0.1-0.4,0.2-0.5
		C639.1,155.6,638.3,155.2,637.5,154.8z M377.2,162c-0.2-0.1-0.4-0.2-0.6-0.3c-0.2,0.5-0.5,1-0.7,1.5c0.2,0.1,0.3,0.2,0.5,0.2
		C376.7,162.9,377,162.5,377.2,162z M634.6,153.7c0.1-0.1,0.2-0.3,0.3-0.4c-0.4-0.3-0.8-0.6-1.2-0.9c-0.1,0.1-0.2,0.2-0.3,0.4
		C633.9,153,634.2,153.3,634.6,153.7z M701.8,145.9c0,0.1-0.1,0.2-0.1,0.3c0.5,0.2,0.9,0.3,1.4,0.5c0-0.2,0.1-0.3,0.1-0.5
		C702.8,146.2,702.3,146,701.8,145.9z M530.7,112.2c-0.5-0.1-0.8-0.2-1.1-0.2c-0.2,0-0.4,0.3-0.6,0.4c0.4,0.2,0.7,0.4,1.1,0.5
		C530.1,113,530.3,112.6,530.7,112.2z M542.8,113.1c0,0.1,0,0.3,0.1,0.4c0.4,0,0.7,0,1.1,0c0-0.2-0.1-0.6-0.1-0.6
		C543.5,113,543.1,113,542.8,113.1z M545.5,112.4c0,0.1-0.1,0.3-0.1,0.4c0.5,0.1,1,0.2,1.5,0.3c0-0.1,0-0.2,0.1-0.3
		C546.4,112.7,545.9,112.6,545.5,112.4z M114.7,312c0-0.1,0-0.2,0-0.2c-0.3-0.1-0.6-0.1-1-0.2c0,0.1,0,0.2,0,0.2
		C114,311.8,114.4,311.9,114.7,312z"/>
	<path class="st0" d="M590.6,159.5c1.1,2.5,0.9,4.9,0.7,7.4c-0.6,6.4-3.5,12-6.2,17.7c-0.9,1.8-1.4,3.8-2.2,5.7
		c-0.7,1.6-1.3,3.2-3.9,3.8c1.3-2.4,2.5-4.3,3.4-6.3c1-2.1,1.9-4.2,2.8-6.3c0.6-1.3,1.1-2.6,1.6-3.9c0.4-1,0.8-2,1-3
		c0.8-4.5,1.6-9,2.3-13.5C590.3,160.6,590.4,160,590.6,159.5z"/>
	<path class="st0" d="M614.3,188.6c2.3-0.3,4.5-0.8,6.8-1c2.2-0.2,4.4-0.2,6.6-0.2c0.8,0,1.4-0.1,1.5-1c0.9,0.5,1.7,1,2.6,1.5
		c-0.3,0.3-0.7,0.6-1,0.8c1.5,4.5,2.9,8.9,4.4,13.2c-0.2,0.1-0.5,0.2-0.7,0.3c-0.3-0.8-0.7-1.6-1-2.5c-0.9-3-1.8-6.1-2.8-9.1
		c-0.5-1.8-1.7-2.5-3.6-2.4C623,188.4,618.7,188.5,614.3,188.6z"/>
	<path class="st0" d="M575.9,89c-0.2,0.6-0.6,1.2-0.5,1.8c0.1,1.4,0.3,2.8,0.5,4.2c0.1,0.4,0.4,0.8,0.6,1.2c0.1,0.1,0.1,0.3,0.1,0.4
		c-1.5,0.2-0.9,1.5-1.2,2.3c-0.8,2-1.5,4-2.3,5.9c-0.1,0.3-0.8,0.4-1.2,0.6l0.1,0.1c2.5-4.1,3.6-8.4,3-13.2
		C574.9,91.1,575.4,90.1,575.9,89L575.9,89z"/>
	<path class="st0" d="M576,89c-3.3-2.4-2.5-5.7-2-8.9c0.3-1.6,0.2-3.6,2.2-4.7c0.3,1.1-0.6,1.7-1,2.3c-0.8,1.2-0.3,1.8,0.7,2.1
		c-0.5,1.3-1.2,2.5-1.5,3.8c-0.3,1.4,0.2,2.6,1.1,3.7C575.8,87.8,575.8,88.5,576,89C575.9,89,576,89,576,89z"/>
	<path class="st0" d="M627.8,182.9c-1.1-1.6-2.2-3.2-3.2-4.8c-0.6-1-1.3-1.9-1.9-2.9c0.8,0.8,1.8,1.5,2.3,2.4
		C626,179.3,626.9,181.1,627.8,182.9z"/>
	<path class="st0" d="M561.3,102.9c-0.3,1-0.3,1-2.1,0.5c1.1-0.5,1.1-2.4,2.8-1.3C561.8,102.3,561.6,102.6,561.3,102.9z"/>
	<path class="st0" d="M524.2,124.2c0.2,1.2,1.4,2.3,0,3.8C524.2,126.5,524.2,125.4,524.2,124.2z"/>
	<path class="st0" d="M561.3,102.9c0.2-0.3,0.5-0.5,0.7-0.8c0.3,0.1,0.6,0.2,0.9,0.3c-0.2,0.3-0.3,0.9-0.5,1
		C562.1,103.4,561.7,103.1,561.3,102.9z"/>
	<path class="st0" d="M571.9,105.5c0.6,1.5-0.2,2.3-1.3,2.9h0.1C571.1,107.6,571.5,106.6,571.9,105.5
		C572,105.6,571.9,105.5,571.9,105.5z"/>
	<path class="st0" d="M604.9,192.6c-0.2,0-0.5,0-0.7-0.2c-0.4-0.2-0.7-0.5-1.1-0.7c0.1-0.2,0.3-0.4,0.4-0.6c0.6,0.3,1.1,0.6,1.7,0.9
		C605.1,192.2,605,192.4,604.9,192.6z"/>
	<path class="st0" d="M629.4,186.5c-0.4-0.9-0.9-1.9-1.3-2.8C629,184.4,629.6,185.3,629.4,186.5z"/>
	<path class="st0" d="M494.8,125c-0.1,0.5-0.3,0.9-0.4,1.4c-0.2,0-0.3-0.1-0.5-0.1c0.1-0.5,0.2-0.9,0.3-1.4
		C494.4,124.9,494.6,124.9,494.8,125z"/>
	<path class="st0" d="M602.7,189.2c0.3-0.4,0.7-0.9,1-1.3c0.1,0.1,0.2,0.1,0.3,0.2c-0.3,0.5-0.6,1-0.9,1.4
		C603,189.5,602.9,189.3,602.7,189.2z"/>
	<path d="M476.6,126.2c0.5-0.4,0.9-0.9,1.4-1.3c0.1,0.2,0.2,0.3,0.3,0.5C477.8,125.7,477.2,125.9,476.6,126.2
		C476.5,126.1,476.6,126.2,476.6,126.2z"/>
</g>
</svg>
