<svg viewBox="0 0 937.3 41.9">
<g>
	<circle cx="13.5" cy="13.5" r="13.5"/>
	<circle cx="13.5" cy="13.5" r="13.5"/>
	<circle cx="56" cy="13.5" r="13.5"/>
	<circle cx="98.4" cy="13.5" r="13.5"/>
	<circle cx="140.9" cy="13.5" r="13.5"/>
	<circle cx="183.4" cy="13.5" r="13.5"/>
	<circle cx="225.8" cy="13.5" r="13.5"/>
	<circle cx="268.3" cy="13.5" r="13.5"/>
	<circle cx="310.7" cy="13.5" r="13.5"/>
	<circle cx="353.2" cy="13.5" r="13.5"/>
	<circle cx="395.6" cy="13.5" r="13.5"/>
	<circle cx="438.1" cy="13.5" r="13.5"/>
	<circle cx="481.7" cy="13.5" r="13.5"/>
	<circle cx="481.7" cy="13.5" r="13.5"/>
	<circle cx="524.2" cy="13.5" r="13.5"/>
	<circle cx="566.6" cy="13.5" r="13.5"/>
	<circle cx="609.1" cy="13.5" r="13.5"/>
	<circle cx="651.5" cy="13.5" r="13.5"/>
	<circle cx="694" cy="13.5" r="13.5"/>
	<circle cx="736.4" cy="13.5" r="13.5"/>
	<circle cx="778.9" cy="13.5" r="13.5"/>
	<circle cx="821.4" cy="13.5" r="13.5"/>
	<circle cx="863.8" cy="13.5" r="13.5"/>
	<circle cx="906.3" cy="13.5" r="13.5"/>
</g>
</svg>
