<svg viewBox="0 0 955.4 71.3">
<style type="text/css">
	.st0{fill:#DADADA;}
</style>
<g>
	<circle class="st0" cx="33.4" cy="30.6" r="13.5"/>
	<circle class="st0" cx="75.9" cy="30.6" r="13.5"/>
	<circle class="st0" cx="118.3" cy="30.6" r="13.5"/>
	<circle class="st0" cx="160.8" cy="30.6" r="13.5"/>
	<circle class="st0" cx="203.3" cy="30.6" r="13.5"/>
	<circle class="st0" cx="245.7" cy="30.6" r="13.5"/>
	<circle class="st0" cx="288.2" cy="30.6" r="13.5"/>
	<circle class="st0" cx="330.6" cy="30.6" r="13.5"/>
	<circle class="st0" cx="373.1" cy="30.6" r="13.5"/>
	<circle class="st0" cx="415.5" cy="30.6" r="13.5"/>
	<circle class="st0" cx="458" cy="30.6" r="13.5"/>
	<circle class="st0" cx="501.6" cy="30.6" r="13.5"/>
	<circle class="st0" cx="544.1" cy="30.6" r="13.5"/>
	<circle class="st0" cx="586.5" cy="30.6" r="13.5"/>
	<circle class="st0" cx="629" cy="30.6" r="13.5"/>
	<circle class="st0" cx="671.4" cy="30.6" r="13.5"/>
	<circle class="st0" cx="713.9" cy="30.6" r="13.5"/>
	<circle class="st0" cx="756.3" cy="30.6" r="13.5"/>
	<circle class="st0" cx="798.8" cy="30.6" r="13.5"/>
	<circle class="st0" cx="841.3" cy="30.6" r="13.5"/>
	<circle class="st0" cx="883.7" cy="30.6" r="13.5"/>
	<circle class="st0" cx="926.2" cy="30.6" r="13.5"/>
</g>
</svg>
