<svg id="图层_1" xmlns="http://www.w3.org/2000/svg" xmlns:xlink="http://www.w3.org/1999/xlink" x="0px" y="0px"
	 viewBox="0 0 639.1 191">
<style type="text/css">
	.st0{fill:#1D2088;}
</style>
<path class="st0" d="M608.2,141.8c0,0-38.8,9.2-93.4,3.6s-125-25.9-188.2-84.9c-42.8-40-79.2-54.4-104.9-58.8S181,2.9,181,2.9
	s11.8,9.6,19.5,26.4s11.3,40.6-5,69c-16.5,28.8-52.4,45.4-90.7,53.7c-38.3,8.4-78.9,8.5-104.8,4.2c0,0,47.8,9.6,101.3-0.1
	S214,117.3,236.8,40c40.6,1,75.3,37.7,129,68.6C419.4,139.5,491.9,164.5,608.2,141.8z"/>
</svg>
