<svg id="Layer_4" x="0px" y="0px"
	 viewBox="0 0 937.3 319.7">
<style type="text/css">
	.st0{fill-rule:evenodd;clip-rule:evenodd;fill:#07C7FB;}
	.st1{fill-rule:evenodd;clip-rule:evenodd;fill:#1ABBFE;}
	.st2{fill-rule:evenodd;clip-rule:evenodd;fill:#4DACFE;}
	.st3{fill-rule:evenodd;clip-rule:evenodd;fill:#57A5FE;}
	.st4{fill-rule:evenodd;clip-rule:evenodd;fill:#5EA3FE;}
	.st5{fill-rule:evenodd;clip-rule:evenodd;fill:#09B8F9;}
	.st6{fill-rule:evenodd;clip-rule:evenodd;fill:#3F9DFE;}
	.st7{fill-rule:evenodd;clip-rule:evenodd;fill:#11C0FC;}
	.st8{fill-rule:evenodd;clip-rule:evenodd;fill:#4EA3FE;}
	.st9{fill-rule:evenodd;clip-rule:evenodd;fill:#18B1FE;}
	.st10{fill-rule:evenodd;clip-rule:evenodd;fill:#22AFFE;}
	.st11{fill-rule:evenodd;clip-rule:evenodd;fill:#4AB0FE;}
	.st12{fill-rule:evenodd;clip-rule:evenodd;fill:#11BDFE;}
	.st13{fill-rule:evenodd;clip-rule:evenodd;fill:#05C5F7;}
	.st14{fill-rule:evenodd;clip-rule:evenodd;fill:#42A1FE;}
	.st15{fill-rule:evenodd;clip-rule:evenodd;fill:#4DADFE;}
	.st16{fill-rule:evenodd;clip-rule:evenodd;fill:#62A4FE;}
	.st17{fill-rule:evenodd;clip-rule:evenodd;fill:#49ACFE;}
	.st18{fill-rule:evenodd;clip-rule:evenodd;fill:#11B2FD;}
	.st19{fill-rule:evenodd;clip-rule:evenodd;fill:#63A3FE;}
	.st20{fill-rule:evenodd;clip-rule:evenodd;fill:#5EA4FE;}
	.st21{fill-rule:evenodd;clip-rule:evenodd;fill:#14BBFD;}
	.st22{fill-rule:evenodd;clip-rule:evenodd;fill:#53A0FE;}
	.st23{fill-rule:evenodd;clip-rule:evenodd;fill:#5DA3FE;}
	.st24{fill-rule:evenodd;clip-rule:evenodd;fill:#30C7FE;}
	.st25{fill-rule:evenodd;clip-rule:evenodd;fill:#40A6FE;}
	.st26{fill-rule:evenodd;clip-rule:evenodd;fill:#49C1FE;}
	.st27{fill-rule:evenodd;clip-rule:evenodd;fill:#5CA1FE;}
	.st28{fill-rule:evenodd;clip-rule:evenodd;fill:#18B6FD;}
	.st29{fill-rule:evenodd;clip-rule:evenodd;fill:#0DBBFA;}
	.st30{fill-rule:evenodd;clip-rule:evenodd;fill:#6CA4FE;}
	.st31{fill-rule:evenodd;clip-rule:evenodd;fill:#29B3FE;}
	.st32{fill-rule:evenodd;clip-rule:evenodd;fill:#19BBF0;}
	.st33{fill-rule:evenodd;clip-rule:evenodd;fill:#1EBEFD;}
	.st34{fill-rule:evenodd;clip-rule:evenodd;fill:#08E2F5;}
	.st35{fill-rule:evenodd;clip-rule:evenodd;fill:#0BC9F9;}
	.st36{fill-rule:evenodd;clip-rule:evenodd;fill:#06B2E4;}
	.st37{fill-rule:evenodd;clip-rule:evenodd;fill:#0BC9FB;}
	.st38{fill-rule:evenodd;clip-rule:evenodd;fill:#55B1FE;}
	.st39{fill-rule:evenodd;clip-rule:evenodd;fill:#05ABDB;}
	.st40{fill-rule:evenodd;clip-rule:evenodd;fill:#1CABFD;}
	.st41{fill-rule:evenodd;clip-rule:evenodd;fill:#51ACFE;}
	.st42{fill-rule:evenodd;clip-rule:evenodd;fill:#35AAFE;}
	.st43{fill-rule:evenodd;clip-rule:evenodd;fill:#55A7FE;}
	.st44{fill-rule:evenodd;clip-rule:evenodd;fill:#42A0FE;}
	.st45{fill-rule:evenodd;clip-rule:evenodd;fill:#22B0FC;}
	.st46{fill-rule:evenodd;clip-rule:evenodd;fill:#46A6FE;}
	.st47{fill-rule:evenodd;clip-rule:evenodd;fill:#3AA7FE;}
	.st48{fill-rule:evenodd;clip-rule:evenodd;fill:#319EFE;}
	.st49{fill-rule:evenodd;clip-rule:evenodd;fill:#4DA4FE;}
	.st50{fill-rule:evenodd;clip-rule:evenodd;fill:#07A4D8;}
	.st51{fill-rule:evenodd;clip-rule:evenodd;fill:#55ADFE;}
	.st52{fill-rule:evenodd;clip-rule:evenodd;fill:#0BBEDD;}
	.st53{fill-rule:evenodd;clip-rule:evenodd;fill:#429FFE;}
	.st54{fill-rule:evenodd;clip-rule:evenodd;fill:#16CCFC;}
	.st55{fill-rule:evenodd;clip-rule:evenodd;fill:#26C2FE;}
	.st56{fill-rule:evenodd;clip-rule:evenodd;fill:#0BA8FE;}
	.st57{fill-rule:evenodd;clip-rule:evenodd;fill:#0FB2F7;}
	.st58{fill-rule:evenodd;clip-rule:evenodd;fill:#39A9FE;}
	.st59{fill-rule:evenodd;clip-rule:evenodd;fill:#309EFE;}
	.st60{fill-rule:evenodd;clip-rule:evenodd;fill:#06A9DE;}
	.st61{fill-rule:evenodd;clip-rule:evenodd;fill:#20B9FE;}
	.st62{fill-rule:evenodd;clip-rule:evenodd;fill:#3EABFE;}
	.st63{fill-rule:evenodd;clip-rule:evenodd;fill:#6FA7FE;}
	.st64{fill-rule:evenodd;clip-rule:evenodd;fill:#0CA4F8;}
	.st65{fill-rule:evenodd;clip-rule:evenodd;fill:#06A8F2;}
	.st66{fill-rule:evenodd;clip-rule:evenodd;fill:#41ABFE;}
	.st67{fill-rule:evenodd;clip-rule:evenodd;fill:#24AAFE;}
	.st68{fill-rule:evenodd;clip-rule:evenodd;fill:#0ABDFA;}
	.st69{fill-rule:evenodd;clip-rule:evenodd;fill:#10B3D6;}
	.st70{fill-rule:evenodd;clip-rule:evenodd;fill:#409DFE;}
	.st71{fill-rule:evenodd;clip-rule:evenodd;fill:#27A1FE;}
	.st72{fill-rule:evenodd;clip-rule:evenodd;fill:#09B1F5;}
	.st73{fill-rule:evenodd;clip-rule:evenodd;fill:#059EC5;}
	.st74{fill-rule:evenodd;clip-rule:evenodd;fill:#5EA9FE;}
	.st75{fill-rule:evenodd;clip-rule:evenodd;fill:#3CC6FE;}
	.st76{fill-rule:evenodd;clip-rule:evenodd;fill:#0D9DFC;}
	.st77{fill-rule:evenodd;clip-rule:evenodd;fill:#1AA5FD;}
	.st78{fill-rule:evenodd;clip-rule:evenodd;fill:#59ACFE;}
	.st79{fill-rule:evenodd;clip-rule:evenodd;fill:#37A3FE;}
	.st80{fill-rule:evenodd;clip-rule:evenodd;fill:#369CFE;}
	.st81{fill-rule:evenodd;clip-rule:evenodd;fill:#11BFFC;}
	.st82{fill-rule:evenodd;clip-rule:evenodd;fill:#2D9EFE;}
	.st83{fill-rule:evenodd;clip-rule:evenodd;fill:#0EDFF7;}
	.st84{fill-rule:evenodd;clip-rule:evenodd;fill:#33D8FE;}
	.st85{fill-rule:evenodd;clip-rule:evenodd;fill:#25A9FE;}
	.st86{fill-rule:evenodd;clip-rule:evenodd;fill:#14CDFB;}
	.st87{fill-rule:evenodd;clip-rule:evenodd;fill:#21A9FE;}
	.st88{fill-rule:evenodd;clip-rule:evenodd;fill:#11D7FD;}
	.st89{fill-rule:evenodd;clip-rule:evenodd;fill:#24BAFE;}
	.st90{fill-rule:evenodd;clip-rule:evenodd;fill:#4DC2FE;}
	.st91{fill-rule:evenodd;clip-rule:evenodd;fill:#0EB5E1;}
	.st92{fill-rule:evenodd;clip-rule:evenodd;fill:#1BC2C2;}
	.st93{fill-rule:evenodd;clip-rule:evenodd;fill:#73B3FE;}
	.st94{fill-rule:evenodd;clip-rule:evenodd;fill:#11C3FD;}
	.st95{fill-rule:evenodd;clip-rule:evenodd;fill:#04D9F9;}
	.st96{fill-rule:evenodd;clip-rule:evenodd;fill:#59A2FE;}
	.st97{fill-rule:evenodd;clip-rule:evenodd;fill:#12A7F3;}
	.st98{fill-rule:evenodd;clip-rule:evenodd;fill:#0CD6FD;}
	.st99{fill-rule:evenodd;clip-rule:evenodd;fill:#4DCEFE;}
	.st100{fill-rule:evenodd;clip-rule:evenodd;fill:#38A2FE;}
	.st101{fill-rule:evenodd;clip-rule:evenodd;fill:#6DAAFE;}
	.st102{fill-rule:evenodd;clip-rule:evenodd;fill:#13A3FE;}
	.st103{fill-rule:evenodd;clip-rule:evenodd;fill:#17EECF;}
	.st104{fill-rule:evenodd;clip-rule:evenodd;fill:#0FB4F8;}
	.st105{fill-rule:evenodd;clip-rule:evenodd;fill:#88BAFE;}
	.st106{fill-rule:evenodd;clip-rule:evenodd;fill:#04E6EF;}
	.st107{fill-rule:evenodd;clip-rule:evenodd;fill:#1DF0FE;}
	.st108{fill-rule:evenodd;clip-rule:evenodd;fill:#2BBAFE;}
	.st109{fill-rule:evenodd;clip-rule:evenodd;fill:#0AE66C;}
	.st110{fill-rule:evenodd;clip-rule:evenodd;fill:#0A98FB;}
	.st111{fill-rule:evenodd;clip-rule:evenodd;fill:#CFF0F4;}
	.st112{fill-rule:evenodd;clip-rule:evenodd;fill:#06C3FD;}
	.st113{fill-rule:evenodd;clip-rule:evenodd;fill:#35A4FE;}
	.st114{fill-rule:evenodd;clip-rule:evenodd;fill:#05A9FA;}
	.st115{fill-rule:evenodd;clip-rule:evenodd;fill:#439EFE;}
	.st116{fill-rule:evenodd;clip-rule:evenodd;fill:#3C9DFE;}
	.st117{fill-rule:evenodd;clip-rule:evenodd;fill:#2DA2FE;}
	.st118{fill-rule:evenodd;clip-rule:evenodd;fill:#4B9AFE;}
	.st119{fill-rule:evenodd;clip-rule:evenodd;fill:#27AFFE;}
	.st120{fill-rule:evenodd;clip-rule:evenodd;fill:#02BBF5;}
	.st121{fill-rule:evenodd;clip-rule:evenodd;fill:#009BC5;}
	.st122{fill-rule:evenodd;clip-rule:evenodd;fill:#20C0FE;}
	.st123{fill-rule:evenodd;clip-rule:evenodd;fill:#2B9EFE;}
	.st124{fill-rule:evenodd;clip-rule:evenodd;fill:#16B6F9;}
</style>
<g>
	<path class="st0" d="M143,245.9c4.8-2.6,10-3.9,15.1-5.8c1.6,1.1,2.1,2.7,1.6,4.5c-1.3,4.3-5.9,4.7-8.6,7.4c-4.4,2.4-8.9,4.5-14,5
		c-1.5-0.7-4,0-4.3-2.5c-0.3-2.3,2.2-2,3.3-3.1C138.2,249.4,139.6,246.4,143,245.9z"/>
	<path class="st1" d="M235,214.1c4.5-2,9.2-3.4,14-3.9c1.5,2.4,1.5,5.7,4.4,7.2c-3.5,2.5-7.9,2.3-11.8,3.3
		c-5.2,1.4-9.9,4.6-15.4,4.8c-2.5-3.5-0.4-5.9,1.9-8.2c2.6-1.5,5.2-2.9,7.9,0C236.5,215.6,234.2,215.5,235,214.1z"/>
	<path class="st2" d="M640,96c-5.5-0.1-9,4.7-14,5.8c-1.3,0.3-2.6,0.8-3.6,1.5c-2.7,2.1-4.2-0.6-5.4-1.7c-1.5-1.5,1-2.7,1.6-4.1
		c0.3-0.8,1.7-1.3,2.8-1.6c5.3-1.6,9.9-5.2,15.6-5.9C638.8,91.6,640.2,93.4,640,96z"/>
	<path class="st3" d="M915.2,7.5c-3.2,4-8,1.7-12,3.2c-2.4,0.9-4.9,1.4-7.2,2.8c-2.8,1.8-5.2,1.6-6.9-1.6c-2-3.4,1.1-4.1,2.8-5.6
		c1.2-1.1,2.5-1.5,4.1-1.2c3.5,3.9,5.1,0.7,7-1.8c3-0.7,6-1.5,9.1-2.2c1.1,1.1,0.2,2.7,1,3.8c0.5,0.6,1.1,1,1.8,1.5
		C915.1,6.8,915.2,7.1,915.2,7.5z"/>
	<path class="st4" d="M792,49c-4.4,1.4-8.7,2.7-13.1,4.1c-1.9,0.8-3.9,0.7-5.9,1c-1-0.3-0.9-1.2-0.9-2c1.2-2.9,3.5-4.9,5.9-6.8
		c2.1-1.4,4.5-2,6.9-2.3c0.8,0.8,1.4,1.7,1.2,3c-0.3,0.5-1,0.4-1.2,1c0.2-0.4,0.7-0.5,1-0.8c1.2-1.5,0.5-2.5-1-3.1
		c2.5-1.3,5.2-1.8,8-1.8C793.6,44,791.4,46.4,792,49z"/>
	<path class="st5" d="M199.1,235.1c-1.6,0.8-3,2.2-5,2.1c-2-0.3-4.2,0.9-5.9-1.7c-1.3-1.8-4-0.7-6.1-0.3c-1.2,0.2-3,1.7-3.1-1.2
		c4.3-2.5,8.8-4.9,13.7-6c1.7-0.7,4,0.1,5.2-1.9l0,0c3-1,3.3,1.4,3.7,3.2C202.2,231.8,202.3,234.3,199.1,235.1z"/>
	<path class="st6" d="M576,120.2c-1.9-2.2-2.2-4,0.9-5.6c4.6-2.5,9-5.4,14.1-6.6c1.6,0.5,3.9-0.3,4.4,2.2c0.5,2.6-1.4,3.4-3.4,4
		c-1.5,0.5-2.3,1.8-3,3.1l0,0c-1,0.7-2.2,0.4-3.3,0.4c-1.5-0.5-2.4-0.1-2.6,1.6l0,0C581,121,578.4,120.3,576,120.2z"/>
	<path class="st7" d="M143,245.9c-1.2,1.7-4,1.8-4.1,4.8c0,0.8-2.6,3.9-5.4,2.9c-0.1,3.2,3.8,0.5,3.6,3.4c-6.7,4.8-9.8,3.8-11.8-3.8
		c0.8-0.8,0.9-2.2,2.1-2.8C132.6,249.2,137.3,246.1,143,245.9z"/>
	<path class="st8" d="M845.2,27.1c-3.2-6.8,3.5-5,5.9-6.9c1-0.4,2.3,0.4,3-0.9c2.4-1.8,5.2-2.4,7.9-3.2c2.2,2,4.6,4,0.9,6.9
		c-1.2,0.7-3.5-1.8-3.8,1.4c-2.4,2.7-5.9,2.1-8.9,3C848.6,26.1,846.8,27.4,845.2,27.1z"/>
	<path class="st9" d="M338.1,184.2c0.6-0.1,1.3-0.2,1.9-0.2c1.7,0.8,4.2,0,4.8,2.7c0.7,3.1-2.7,2.9-3.7,4.6c-2,2.9-5.5,1.5-8.1,2.9
		c-5,1.1-6.3,0.2-8.1-5.1c2.1-1.6,4.5-2.4,7.1-3c0.8-0.6,1.6-0.5,2.3,0C336.8,188.1,337.6,186.4,338.1,184.2z"/>
	<path class="st10" d="M324.9,189.1c2.3,2.3,3.8,5.9,8.1,5.1c-3.4,2.7-7.6,3.6-11.6,4.7c-4.8,1.3-6.7-0.4-7.3-5.6
		c1.1-1.4,2.7-0.9,4.1-1.1c1.2-0.2,2.8-0.1,2.7-2C322,188.8,323.6,189.5,324.9,189.1z"/>
	<path class="st11" d="M438,163.1c-6.7,1-13.3,2-20,3c-0.4-2.1,1.2-2.4,2.6-2.9c1.2-0.4,2.7-0.2,3.2-1.9c0.3-1.4,0.8-2.6,2.1-3.3
		c3.6-0.1,7.3,0,10.9-1C438.2,158.8,437.9,161,438,163.1z"/>
	<path class="st12" d="M102,266c-1.7,3.4-5.4,1.7-7.8,3.2c-4.2,1.2-7.1-0.6-9.3-4c-1.1-1.4,0.2-1.6,1-2.1c2.8-0.5,5.7-0.9,8.1-2.7
		c0.3-0.1,0.7-0.3,1-0.4C96.6,262.8,101,262.4,102,266z"/>
	<path class="st13" d="M179,234c0.7,1.2,1.5,0.7,2.5,0.3c3.1-1.3,6.4-1.9,8.4,1.6c1.2,2.1,3.4-0.7,4.2,1.3c-1.2,0.6-2.4,1.4-3.8,1.1
		c-3.6,1.3-7.2,2-10.9,2.9c-1.9,0.4-3.2,0-4.3-1.5c-1.4-1.9-0.6-3.4,1-4.7C176.7,233.7,177.9,234,179,234z"/>
	<path class="st14" d="M539.9,126c3.3-1.3,6.7-2.6,10-3.9c4.1,0.2,5.4,1.1,6.1,4.1c-2.5,2.5-5.4,4.4-9,5.1c-0.2-0.1-0.4-0.2-0.6-0.3
		c-1.9-1.9-6-0.3-6.6-4.2C539.9,126.4,539.9,126.2,539.9,126z"/>
	<path class="st15" d="M670.9,80.8c3.3-0.6,6.7-1.2,10-1.8c2.2,0.7,3.5,2.5,4.9,4.1c-3.5,2.6-7.4,3.4-11.6,3.1
		c-2.1,0.9-3.8,0.3-4.9-1.5C667.9,82.7,670.4,82.1,670.9,80.8z"/>
	<path class="st16" d="M745.3,63.3c-3.5,1.5-6.9,3.2-10.7,3.8c-2.9,0.5-5.5,0-6.4-3.2c-1.1-3.6,2.6-3.4,4.2-4.3
		c2.2-1.3,5-1.5,7.6-2.2c0,2.4,0.6,3.1,3.7,4.3C744.4,62,745.1,62.5,745.3,63.3z"/>
	<path class="st17" d="M385.9,169.8c1.8-2.4,4.6-2,7.1-2.6c2.5,1.6,3.8,3.9,4,6.8c-3.5,0.2-6.3,3.3-10,2.3c-0.2-0.2-0.4-0.5-0.7-0.7
		C382.1,173,382.1,173,385.9,169.8z"/>
	<path class="st18" d="M102,266c-1.8-2.6-7.3-1-7-6.1c2.8-1.8,5.7-3.1,9.1-2.9c1.3-0.7,2.6-0.1,2.4,1.2c-0.5,2.4,0.8,4.8-0.3,7.1
		C105,267,103.5,266.2,102,266z"/>
	<path class="st19" d="M862,22.2c5-2.1-1.2-4.1,0-6.1c2.5-1.3,5.2-1.6,8-2c1.7,1.1,2,2.9,2.5,4.7c0.1,0.5-0.1,0.9-0.4,1.3
		c-3.4,3.2-7.3,4.8-12,4C859.6,22.2,861.6,23,862,22.2z"/>
	<path class="st20" d="M717,72.4c-0.9,0-2-1.1-2.7-0.2c-2.6,3.3-6.6,3.8-10.2,5c-0.5-2.9-1.2-5.9,2-7.9c1.4-1.3,2.8-2.7,5-2.1
		C714,67.7,718.1,67.1,717,72.4z"/>
	<path class="st21" d="M293.1,205.2c-2.4,0.6-4.7,1.1-7.1,1.7c-1.3-0.9-2.9-1.5-2.5-3.6c2.2-1.1,0.1-2.8,0.5-4.2c3.4-1,6.7-2,10.1-3
		c0.3,0.3,0.4,0.7,0.4,1.2c0.5,1.1-2.4,0.9-0.9,2.4c1.2,0.4,2.1,1.3,2.8,2.3C297.3,205.3,293.8,203.7,293.1,205.2z"/>
	<path class="st22" d="M745.3,63.3c-2.1-0.1-4.6-2.7-6.1,0.9c-0.3,0.6-1.1,0.8-1.7,0.2c-0.5-0.6-0.5-1.4,0-1.8
		c1.9-1.3,1.2-3.7,2.4-5.3c2.8-0.1,4.9-2.6,7.9-2.4c1.5-0.4,3.4-1.2,4.4,0.5c0.9,1.5-0.7,2.6-1.5,3.8c-1.1,1.8-3,2.7-4.7,3.7
		C745.8,63.3,745.6,63.3,745.3,63.3z"/>
	<path class="st23" d="M589.1,117.2c-0.3-1.7,0.5-2.7,1.9-3.7c4.6-3.1,4.6-3.2,0-5.6c3.3-1.2,6.7-2.5,10-3.7c-0.2,2.6,0.7,4.5,2.9,6
		c-2.8,3.7-7.6,2.8-11.2,4.8C591.5,115.7,590.3,116.5,589.1,117.2z"/>
	<path class="st24" d="M14,289.1c-1.5,3.2-4.1,3.1-6.9,2.1c-2,0.9-3.5-0.5-5.3-0.9l0,0c-0.1-3.6,2.8-4.5,5.1-6c0.9-1.7,2-0.9,3-0.1
		c1.7,1,2.2-2.9,4-1C16,285.1,14,287.1,14,289.1z"/>
	<path class="st25" d="M807,37.2c2.6-0.7,5.1-1.5,7.7-2.2c3.5-0.8,3.4,1.4,2.8,3.6c-0.4,1.4-1.8,2.2-2.5,3.5l0,0
		c-1.8,1.4-4.2-0.6-5.9,1.2l0.1,0c-1.8,0.7-3.6,0.8-4.5-1.3C803.8,39.7,805.8,38.6,807,37.2z"/>
	<path class="st26" d="M14,289.1c-0.2-0.9-2.2-0.5-1.5-1.3c4.1-4.7-0.5-3.3-2.5-3.7c2.2-4,6.4-1.5,9.4-2.8c0.8-0.3,1.4,0,1.9,0.5
		c1.9,1.9,0.2,4.4,1,6.5C19.7,290,16.8,288.3,14,289.1z"/>
	<path class="st27" d="M670.9,80.8c-2.5,3.9,0,4.9,3.2,5.4c-1.4,1.2-3,2-4.9,2.2c-2.3,0.2-5.3,2.5-5.9-1.5c-0.5-3,0.4-6,4.7-5.6
		C669,81.3,670,80.9,670.9,80.8z"/>
	<path class="st28" d="M282,207.8c-2.3-0.2-3.6,2.2-6,2.2c-4.5,0.1-6.4-2.3-5-7C276.9,201.9,281,203.6,282,207.8z"/>
	<path class="st29" d="M69.9,265.9c1-1.5,2.5-1.8,4.1-1.7c0.2,0.3,0.3,0.5,0.3,0.8c0,0.3-0.1,0.4-0.1,0.4c-2.8,2.7-0.4,4.6,1.1,6.6
		c0,2.1-1.6,1.5-2.7,1.5c-1.3,0-2.6-0.4-3.2,1.2c-2.9,2.2-5.2,0.4-7.6-1c-0.4-0.1-0.8-0.3-1.2-0.6c-1.6-1.9-0.5-2.8,1.3-3.4
		c2.1,1.3,1.9-1.4,3.1-1.8l0,0C66.7,267.5,69.1,268.4,69.9,265.9z"/>
	<path class="st30" d="M746,63.1c-0.3-0.9-1.1-2.2-0.8-2.7c1.1-1.4,1.7,0.9,1.9,0.8c1.6-1.5,3.8-2.9,4.2-4.8
		c0.4-1.9-2.3-0.8-3.5-1.3c2.8-0.9,5.5-1.8,8.3-2.7c0.4,2.4,0,5.1,2.1,7C753.8,59.2,750.9,64.5,746,63.1z"/>
	<path class="st31" d="M341.1,191.2c0-0.2-0.1-0.4,0-0.5c4.3-3,1.7-4.9-1.1-6.8c2-1.9,4.8-1.7,7-2.9c0.5,2.8,3,3.1,5,4
		c0,0.5,0.1,1.4,0,1.4C348,187.1,345.5,191.4,341.1,191.2z"/>
	<path class="st32" d="M52.9,280c-2.1,2.2-4.9,2-7.6,2.5c-2.9,0.6-4.1-1.8-3.6-3c0.9-2.1-2.9-6.1,2.3-6.4c1.1-0.6,2.3-0.8,3.3,0.3
		c0.2,0.7-0.3,1.2-0.8,1.7c-0.4,0.4-1.1,0.4-1,1.2c0.6-0.1,1.2-0.6,1.9-0.2C47.9,279.2,51.6,277.9,52.9,280z"/>
	<path class="st33" d="M199.1,235.1c2.6-3.4,2.7-6.4-1.1-9c1.8-1.2,3.8-1.7,5.9-2.1c2.2,2.3,2.9,5.4,4.2,8.2
		C205.1,233.2,202.1,234.2,199.1,235.1z"/>
	<path class="st34" d="M176,235c-1.2,4.5-0.4,5.2,4,4.4c3.4-0.6,6.8-0.8,10.3-1.1c-4.5,2.3-8.6,5.8-14.2,5c-0.9-1.1-2-2.1-2.9-3.1
		C170.5,236.4,173.5,235.9,176,235z"/>
	<path class="st35" d="M282,207.8c-2.9-3.3-6.7-4.6-11-4.7c0.1-1.1,0.9-1,1.7-1.1c2-1,4.8,0.6,6.3-2c1.2-0.9,2.5-1.3,4-1
		c0.5,1.3,2.2,2.3,1,4.1c-0.2,1.7,2,2.2,2,3.8C284.7,207,283.6,208.6,282,207.8z"/>
	<path class="st36" d="M253.4,217.4c-5.5,0.1-4.4-3.9-4.4-7.2c2.2-1.4,4.7-2.1,5.8,0.8C255.5,212.8,257.8,216.1,253.4,217.4z"/>
	<path class="st37" d="M229.1,217.2c-1.8,2.5-3.6,5-2.9,8.3c-0.6,0.9-1.3,0.8-2.2,0.5c-1.8-0.7-4-0.4-5.3-2.3
		c0.1-1.1,1.4-1.4,1.7-2.4c0.1-1-0.2-2.1,0.6-2.9c2.8-0.3,5-2.6,7.9-2.4c0.3,0.3,0.4,0.5,0.3,0.8C229.2,217,229.1,217.2,229.1,217.2
		z"/>
	<path class="st38" d="M556,126.2c-1.7-1.9-3.6-3.3-6.1-4.1c3.2-1.6,6.6-2.3,10.1-1.9c1.9,0.6,1.8,2.6,2.7,3.9
		c0.2,0.4,0.3,0.7,0.4,1.1C561.2,128.6,558.3,124.7,556,126.2z"/>
	<path class="st39" d="M159.1,245.2c-0.3-1.7-0.7-3.4-1-5.1c3-2.7,5.4-3.1,6.2,1.8c0.5,1.8,0.6,3.6,0,5.4l0,0
		C161.6,248.7,159.4,249,159.1,245.2z"/>
	<path class="st40" d="M369.2,176.2c0.8-4,4.7-2.4,6.9-3.9c1.6,0.3,3.6,0,3.6,2.6c-0.3,4.3-4.5,4.4-7.1,5.5
		C370.8,181.1,369.9,178,369.2,176.2z"/>
	<path class="st41" d="M502,139.1c2.9-0.3,4.5-2.9,7.1-3.8c0.3,2.6,1.9,4.4,3.9,5.9c0,0.3,0,0.9-0.1,0.9c-5.7,1-10.5,4.7-16.2,5.7
		c-0.2,0-0.5-0.4-0.7-0.6c0.2-1,1-1.6,1.9-2c2.4-1,4.8-1.9,7.1-3.5C504.3,140.5,502.2,140.8,502,139.1z"/>
	<path class="st42" d="M379,175.1c0.2-2.2-2.2-1.7-3-2.9c3.1-1.6,6.5-2.2,9.9-2.5c-3.3,2.8,1,4.3,1.1,6.5l-0.4,0.1h-0.4
		c-1.8-0.6-2.2,1.1-3.2,1.9l0-0.1C379.9,179.7,379.3,177.6,379,175.1z"/>
	<path class="st43" d="M815,42.1c0-0.8-1.7-1.5,0.3-2.6c2.7-1.5,2.7-3.4-0.6-4.6c1.8-2,4-2.1,6.3-1c4.5,2.8,1.5,4.6-0.8,6.5
		C818.8,42.2,817,42.4,815,42.1z"/>
	<path class="st44" d="M717,72.4c0.3-4.4-4.8-2.5-5.9-5.2c1.9-0.6,3.7-1.6,5.6-1.9c2.3-0.3,3.4,1.2,3.3,3.3
		C719.9,70.5,720.7,73.3,717,72.4z"/>
	<path class="st45" d="M106.1,265.3c-0.3-2.3-3.1-4.3-0.5-6.9c0.6-0.6-0.8-1-1.6-1.3c1.4-1.3,3.2-1.5,5-1.8c-0.1,3.3,3.2,5.5,3,8.8
		C110.1,264.5,108.1,264.9,106.1,265.3z"/>
	<path class="st46" d="M502,139.1c1.4,2,5.3-0.6,5.4,1.7c0.1,2.6-3.7,2.6-5.7,3.9c-1.1,0.7-2.4,0.9-3.7,1.4c-1.8-2.3-0.9-4.2,1-5.9
		C500.6,141.3,501,139.5,502,139.1z"/>
	<path class="st47" d="M379,175.1c2,0.1,1.1,4.2,4.1,3c-3,2.6-7,2.3-10.5,3.3c-2.7,0.8-4-2.4-3.5-5.3
		C371.7,179.4,376.1,179,379,175.1z"/>
	<path class="st48" d="M827.1,31.3c1.5-1.3,2.8-1.5,2.9,1c0,2.1,2.1,4.9-1.2,6.1c-1,0.4-2.3,1.6-3.7,0.6
		C821.7,35.3,824.2,33.3,827.1,31.3z"/>
	<path class="st49" d="M469.1,156.2c-2.5,2.4-5.8,3-9,3.8c-0.2-1.8,1-2.8,2-4c1-0.5,3.4-0.4,0.9-2.3c-0.5-0.3-1.1-0.6-1.6-1
		c-0.3-0.3-0.5-0.6-0.6-1c1.7-0.5,3.5-1.1,5.2-1.6C471.4,152.2,471.4,152.2,469.1,156.2z"/>
	<path class="st50" d="M112.1,264.1c-1.5-2.8-5.8-4.6-3-8.8c3.4-1,5.3,0.5,5,4.2C113.9,261.1,113.5,262.9,112.1,264.1z"/>
	<path class="st14" d="M547.1,131.2c-1.2,1.9-3.4,0.5-5,1.5c-2.9,1.8-5.4,0.8-6.2-2.5c-0.6-2.8,1.7-3.7,4-4.2l0.2,0.3
		c0.5,1.2,0.9,2.4,0,3.6c2.2,0.3,4.8-1.9,6.7,1L547.1,131.2z"/>
	<path class="st51" d="M469.1,156.2c2.1-3.6-1.9-4.1-3-6c2.3-0.8,4.5-1.6,6.8-2.3c0.5,0.8-1.4,2.4,1,2.8c1.1,0.2,2.1,1.3,2.5,2.7
		C474.4,155.7,471.7,155.8,469.1,156.2z"/>
	<path class="st52" d="M208.1,232.2c-3.3-1.8-3.7-5-4.2-8.2l0.1,0c1.8-0.6,3.4,1.7,5.2,0.2C210,227,213,230.2,208.1,232.2z"/>
	<path class="st53" d="M462.1,156.2c0.4,1.8-0.9,2.8-2,3.9c-1.2,1.9-3,1.6-4.8,1.3c-0.1-0.2-0.3-0.4-0.4-0.6c0.3-2,1.3-3.3,3.3-3.6
		c-1.6-0.2-3.6-0.1-4.4-2.3c1.9-2,5.1-1.3,7.1-3.1c0.1,0.2,0.2,0.3,0.3,0.4c1.4,1-0.9,2.6,0.5,3.6
		C461.8,156,461.9,156.1,462.1,156.2z"/>
	<path class="st54" d="M159.1,245.2c1.2,1.9,2.9,2.8,5.1,2.2c-4.1,2.3-8.6,3.6-13.2,4.6c0-0.3-0.1-0.8,0.1-1
		C153.7,249,156.4,247.1,159.1,245.2z"/>
	<path class="st55" d="M62.1,273.1c0.8-1.1,1.9-0.9,2.3,0.1c1.1,3.2,2.9,2.2,4.7,0.9c0.9-0.2,1.3,0.1,1,1c-5.2,2-10.3,4.1-16.1,3.9
		c-0.2-0.7,0.2-1.2,0.7-1.6c1.3-0.7,2.3-1.8,3.5-2.7C59.6,274.5,61.2,274.8,62.1,273.1z"/>
	<path class="st56" d="M294.1,197.2c0-0.3,0-0.6,0-0.9c0.6-0.1,1.3-0.2,1.9-0.2c2.1-0.3,3.7,0.7,5.1,2.1c-0.1,1.3-0.2,2.6-0.3,3.9
		c-1.6,1-3.2,1.3-4.8,0.1c-1.5,0.1-2-1.4-3-2C292.1,198.7,295.2,198.7,294.1,197.2z"/>
	<path class="st57" d="M438,163.1c-2.8-1.6-1.3-4-1.2-6.2c1.2-1.2,3-1.7,3.9-0.5c1.4,1.9,0.4,4.5,0,6.6
		C440.4,164.7,439,164.1,438,163.1z"/>
	<path class="st58" d="M499,140.3c-0.4,1.9-1.3,3.8-1,5.9c-0.7,0.3-1.4,0.7-2,1l0,0c-1.6-0.4-3-1.2-3.9-2.6
		c-0.5-0.8-0.9-1.7-0.1-2.5C493.9,139.7,496.5,140.1,499,140.3z"/>
	<path class="st59" d="M758.3,59.3c-5-1-4.2-3.8-2.1-7c1.6-1.4,2.9-0.4,3.4,0.9C760.4,55.4,760.5,57.7,758.3,59.3z"/>
	<path class="st60" d="M75.1,272.2c-5.2-3.1-5.4-4.6-1-7.1c2.7,0.6,2.8,3.2,3.8,5c0.2,0.8,0.3,1.7-0.7,2.1
		C76.5,272.7,75.8,272.8,75.1,272.2z"/>
	<path class="st61" d="M47,274.2c-0.7-1.3-2-1-3.1-1.1c3.8-1.9,7.9-1.9,12-2.1c1.3,0.3,2.8,0,3.4,1.7c-0.1,0.5-0.3,0.9-0.6,1.2
		c-1.5,0.6-2.2,2.3-3.9,2.7c-0.5,0.1-0.9,0-1.3-0.1c-1.5-2.5-3.3-1.7-5.2-0.5c-0.5-0.1-0.9-0.2-1.3-0.5c-0.2-0.3-0.3-0.5-0.2-0.8
		C46.9,274.3,46.9,274.2,47,274.2z"/>
	<path class="st62" d="M792,49c-3.8-3.1,0.6-5.2,0.9-7.7c3.8,0.1,2.4,3.2,2.6,5C795.9,48.5,794.3,49.5,792,49z"/>
	<path class="st63" d="M827.1,31.3c-1.9,2.2-3.5,4.6-2,7.7c-1.6,0.5-3.3,1-4.9,1.5c0,0,0.8-6.5,0.8-6.5
		C822.2,31.3,825.1,32.3,827.1,31.3z"/>
	<path class="st64" d="M352,185.2c-2.7,2.8-3.9-1.1-5.8-1.5c-1.4-0.3,0.9-1.5,0.9-2.6c1.2-1.4,3.1-2.4,4.3-1.5
		C353.1,180.8,352.1,183.2,352,185.2z"/>
	<path class="st65" d="M397.1,174c-1.3-2.3-2.7-4.5-4-6.8c2-1.7,3.8-1.8,5.1,0.9C399.2,170.2,400.9,172.6,397.1,174z"/>
	<path class="st66" d="M416,165.3c-1.7,0.6-2.9,0.3-2.9-1.8c0-1.2-0.3-3.4,1.3-3.1c3,0.5,4.8-2.7,7.7-2.1c0.4,3.2-0.2,5.6-4.2,5.3
		C416.8,163.7,416.6,164.8,416,165.3z"/>
	<path class="st67" d="M416,165.3c0.5-1-1.2-3.6,0.8-2.9c4.3,1.4,3.9-2.2,5.2-4c0.3,0,0.7-0.1,1-0.1c1.4,0.9,0.8,2.8,2,3.9
		c-1.2,3.4-5.8,0.5-7,3.9C417.2,166.3,416.4,166.2,416,165.3z"/>
	<path class="st53" d="M455.2,161.4c-2.1,2.1-4.2,0.9-6.3,0c-1.2-0.5-1-1.7-0.6-2.6c0.8-2.1,2.5-2.8,4.7-2.8c1.2,1.5,1.2,3.4,2,5.1
		L455.2,161.4z"/>
	<path class="st68" d="M229.1,217.2c0-0.4-0.1-0.8-0.1-1.3c1.8-1.3,3.8-2.1,6.1-1.8c0.8,0.4,1.8,0.6,2.5,1.1
		c0.9,0.7,1.9,1.6,0.8,2.9c-1,1.2-2.6,1.5-3.4,0.2C233.3,215.4,231.2,216.7,229.1,217.2z"/>
	<path class="st69" d="M28.9,278.3c0.7,1.3,1.4,2.6,2.1,3.9c-1,2.4-2.7,3.6-5.3,3.6c-0.5-0.1-1-0.4-1.3-0.9
		c-0.8-1.5-0.7-3.1-0.1-4.6C25.8,279.2,26.6,277,28.9,278.3z"/>
	<path class="st70" d="M903,3.4c-1.6,1.3,0.8,4.7-2.6,5c-2.4,0.2-4.1-0.6-4.4-3.3C898.2,3.9,900.7,3.8,903,3.4z"/>
	<path class="st71" d="M640,96c-1.3-1.8-2.8-3.6-3.1-6c2-1.8,4.1-1,4.7,0.9C642.2,92.4,644,95.4,640,96z"/>
	<path class="st72" d="M476.3,153.4c-1.6-1.5-6-1.3-3.4-5.5c0.7-2.6,3-1,3.3-0.6C477.4,149.2,478.1,151.3,476.3,153.4z"/>
	<path class="st73" d="M47.1,275.2c0.3,0,0.6,0,0.9,0c1.8,1.4,4.2-0.4,6,1l0,0c0.8,0.4,1.6,0.8,1,2c-0.3,0.3-0.7,0.6-1,0.9
		c-0.4,0.3-0.8,0.6-1.1,0.9c-2.4-0.6-6.8,1.8-5.8-3.8c-0.2-0.2-0.3-0.5-0.2-0.7S47,275.2,47.1,275.2z"/>
	<path class="st74" d="M807,37.2c-0.9,2.6-3.8,5.9,2.2,6.1c-1.3,2.1-2.9,1.9-4.6,0.7c-1.2-0.9-2.5-1.8-2.1-3.6
		C803.1,38.1,805,37.6,807,37.2z"/>
	<path class="st44" d="M706,69.2c-0.7,2.6-1.3,5.3-2,7.9l0,0c-4.6-0.1-3.8-3-3-5.9C702.7,70.6,703.9,68.7,706,69.2z"/>
	<path class="st75" d="M25.1,285.2c0.3,0,0.6,0,0.9,0c1,0.6,2.5-0.3,3.3,1.1c-2.3,0.7-4.6,1.4-6.9,2.1c-3.6-1.4,0.5-4.4-1.3-6.2
		c-0.8-1-0.5-1.8,0.6-2.3C23.9,280.9,23.6,283.6,25.1,285.2z"/>
	<path class="st76" d="M513,141.2c-3.7-0.4-6.1-1.6-3.9-5.9C514.7,134.4,512.7,138.6,513,141.2z"/>
	<path class="st77" d="M603.9,110.2c-5-1-5.4-1.9-2.9-6C604.6,104.9,605,107.2,603.9,110.2z"/>
	<path class="st46" d="M492,142.1c0,0.8,0.2,1.6,1,2.1c1.2,3.2-0.1,4.4-3.3,4.1C486.3,144.7,488.2,143.1,492,142.1z"/>
	<path class="st78" d="M778,45.3c-1.6,2.6-3,5.3-5.9,6.8C769.3,45.7,775,46.7,778,45.3z"/>
	<path class="st79" d="M913,6.2c-3.7-1-0.6-3.3-0.9-5c3.1-2.5,4.4-1,4.3,2.2c-0.1,1.3,0.2,3-1.1,4c0-0.2-0.1-0.4-0.2-0.5
		C914.4,6.4,914,5.6,913,6.2z"/>
	<path class="st80" d="M872.1,19.2c-1.4-1.4-1.6-3.3-2-5.1c0.4-0.2,0.7-0.5,1.1-0.7c1,0.9,1.9,0.5,2.9,0c3.5-0.1,1.9,2.3,1.9,3.8
		C875.1,18.8,873.6,19,872.1,19.2z"/>
	<path class="st81" d="M320.9,190.1c1,0.2,2,0.4,1.9,1.8c-0.1,1-0.9,1.3-1.8,1.3c-2.3,0-4.6,0.1-6.9,0.1
		C315.1,189.4,318.8,191.4,320.9,190.1z"/>
	<path class="st82" d="M455,161.1c-2.3-1-2.4-2.9-2-5.1c0.3-0.3,0.5-0.7,0.8-1c1.4,0.8,2.9,1.4,4.6,1.3
		C458,158.6,455.8,159.3,455,161.1z"/>
	<path class="st31" d="M338.1,184.2c0.7,1.5,1.6,3-0.1,4.3c-1.8,1.3-2.9,0.1-4-1.3c-0.4-0.6-1.3-0.8-2-1.1
		C334,185.5,336,184.9,338.1,184.2z"/>
	<path class="st83" d="M221.1,218.3c0.3,1.3,0.6,2.6,1,3.9c-1,0.4-2.2-0.1-2.9,1c1.6,0.9,3.3,1.9,4.9,2.8c-2.8,1.3-4.8,0.2-5.8-2.4
		C217.3,221.1,217.7,218.8,221.1,218.3z"/>
	<path class="st84" d="M7.1,284.3c-1.7,2-3.4,4-5.1,6c-1.1-1.2-3.1-2.2-1-4.2c0.9-0.4,1.2-1.1,1.1-2C3.8,282.2,5.4,284.2,7.1,284.3z
		"/>
	<path class="st85" d="M685.8,83.1c-2.5-0.4-3.6-2.3-4.9-4.1c1.2-1.3,2.8-1.8,4.2-0.7C686.7,79.6,686.4,81.4,685.8,83.1z"/>
	<path class="st86" d="M84.9,265.2c2.7,2.1,5.6,4,9.3,4C87.8,271.7,86.8,271.3,84.9,265.2z"/>
	<path class="st87" d="M562.1,125.1c-1.7-1.2-0.8-3.5-2-4.8c3.6-2.3,5.6-2,4.8,2.9C564,123.7,562.9,124.2,562.1,125.1z"/>
	<path class="st88" d="M59.1,273.1c-1.1-0.7-2.1-1.4-3.2-2.1c1.9-1.1,3.7-2.7,6.2-2c0.3,0.3,0.4,0.5,0.3,0.7
		c-0.1,0.2-0.2,0.4-0.3,0.4c-0.6,0.9-2.1,1.5-1,3C60.4,273.7,59.7,273.7,59.1,273.1z"/>
	<path class="st89" d="M75.1,272.2c0.7,0,1.4,0,2.1,0c-1.9,2.2-4.7,2.2-7.1,3c-0.3-0.3-0.7-0.7-1-1c-0.3-1.9-0.1-3.3,2.2-2.1
		C72.6,272.7,73.7,273.8,75.1,272.2z"/>
	<path class="st41" d="M489.8,148.3c1.8-0.8,3.6-1.6,3.3-4.1c1,1,2,2,3,3C494,147.7,492.5,151.8,489.8,148.3z"/>
	<path class="st90" d="M296,202.2c1.6,0,3.2-0.1,4.8-0.1c-1.6,3.4-4.8,3-7.7,3.1C293,203.2,296.3,204.4,296,202.2z"/>
	<path class="st91" d="M29.2,286.3c-1.1-0.3-2.4,0-3.3-1.1c1.7-1,3.4-2,5.1-3C32.4,284.4,32.1,285.9,29.2,286.3z"/>
	<path class="st92" d="M209.2,224.2c-1.8,2.3-3.5,0.7-5.2-0.2C205.8,222.6,207.6,220.3,209.2,224.2z"/>
	<path class="st93" d="M845.2,27.1c1.7-0.8,3.4-1.7,5.1,0.2C848.4,30,846.7,30.4,845.2,27.1z"/>
	<path class="st94" d="M25.1,285.2c-2.1-1-3.2-2.6-3-5c-0.3-0.2-0.5-0.4-0.3-0.6c0.1-0.2,0.2-0.3,0.4-0.3c0.3-0.2,0.6-0.2,0.9-0.2
		c0.8,0.1,1.6,0.3,2,1.2C25.1,281.8,25.1,283.5,25.1,285.2z"/>
	<path class="st86" d="M94,260.4c-1.8,3.6-5,2.8-8.1,2.7C88.4,261.5,90.9,260.2,94,260.4z"/>
	<path class="st20" d="M701.1,71.3c0.1,2.4-0.3,5.1,3,5.9c-4.5,3.5-3.3-1.1-4.2-2.9c-0.5-0.7-0.5-1.4,0-2.1
		C700.3,71.8,700.7,71.6,701.1,71.3z"/>
	<path class="st95" d="M77.9,270.1c-1.3-1.7-2.5-3.3-3.8-5c0-0.3,0-0.6,0-0.9C78.4,264.2,77.6,267.5,77.9,270.1z"/>
	<path class="st96" d="M576,120.2c2-2.9,5,0.6,7.2-1C581.1,121.9,578.6,121.9,576,120.2z"/>
	<path class="st97" d="M301.1,198.2c-2.1,0.3-3.4-1.3-5.1-2.1C298.3,195.3,301.1,193.4,301.1,198.2z"/>
	<path class="st98" d="M279.1,200.1c-0.5,5.7-4.5,0.4-6.3,2C274.8,201.4,276.9,200.8,279.1,200.1z"/>
	<path class="st99" d="M25.1,280.2c-0.9,0-1.7-0.2-2-1.2c2-0.3,3.6-3.2,5.9-0.8C27.2,278,26.4,279.6,25.1,280.2z"/>
	<path class="st100" d="M862,22.2c-0.7,0.6-1.3,1.3-2,1.9c-0.3,0.1-0.6,0.2-1,0.2c-0.5-1.3-1.9-2.8-0.4-3.9
		C860.5,18.9,860.1,23.1,862,22.2z"/>
	<path class="st55" d="M69.9,265.9c0,4.4-2.8,2.6-4.9,2.2C66.6,267.4,68.3,266.6,69.9,265.9z"/>
	<path class="st66" d="M425,162.2c-1.7-0.7-2.1-2.2-2-3.9c0.9-0.6,1.9-0.7,3-0.3C425.7,159.4,425.4,160.8,425,162.2z"/>
	<path class="st101" d="M854.1,19.3c-0.2,0.9,1,2,0,2.6c-1.6,0.9-1.9-1.2-2.9-1.7C851.8,19,852.9,19.1,854.1,19.3z"/>
	<path class="st33" d="M198,226.1c-0.4,4.2-3.6,1.1-5.2,1.9C194.1,226.5,196.4,227.2,198,226.1z"/>
	<path class="st102" d="M872.1,19.2c1.3-0.7,2.6-1.3,3.9-2c0.1,2.8-1.9,2.7-3.8,2.8C872.1,19.7,872.1,19.5,872.1,19.2z"/>
	<path class="st84" d="M1.9,290.3c1.9-0.5,3.5,0.8,5.3,0.9C5.1,292.7,3.3,292.6,1.9,290.3z"/>
	<path class="st17" d="M383.1,178.2c-0.6-3.5,0.8-3.5,3.2-1.9C385.7,177.7,384.5,178.2,383.1,178.2z"/>
	<path class="st103" d="M173.1,240.2c2,0.1,2.9,1.2,2.9,3.1C174.2,243.1,173.1,242.2,173.1,240.2z"/>
	<path class="st104" d="M562.1,125.1c0.1-1.9,0.7-3.1,2.9-2c0.4,1.5-0.5,1.9-1.7,2.2C562.9,125.2,562.5,125.2,562.1,125.1z"/>
	<path class="st105" d="M773.1,54.1c1.8-1.2,3.9-1,5.9-1C777.2,54.2,775.3,55.3,773.1,54.1z"/>
	<path class="st106" d="M164.2,247.3c0-1.8,0-3.6,0-5.4C166.1,243.7,165.9,245.5,164.2,247.3z"/>
	<path class="st107" d="M2,284.1c0.7,0.2,1.9,0.1,1.1,1.3c-0.4,0.7-1,1.9-2.2,0.7C0.9,285.2,0.7,284.3,2,284.1z"/>
	<path class="st108" d="M284.1,203.1c-0.3-1.4-0.6-2.7-1-4.1c0.3,0,0.6,0.1,1,0.1C284.5,200.5,287.1,201.8,284.1,203.1z"/>
	<path class="st74" d="M809.1,43.4c1.6-2.2,3.9-0.9,5.9-1.2C813.3,43.8,811,42.7,809.1,43.4z"/>
	<path class="st99" d="M22.1,279.2c0,0.3,0,0.6,0,0.9c-0.8,0.4-1,1.2-1,2c-0.5-0.3-1.1-0.5-1.6-0.8
		C19.4,279.5,20.5,279.1,22.1,279.2z"/>
	<path class="st55" d="M62,270.2c0-0.4,0-0.7,0-1.1c1-0.3,1.9-0.7,2.9-1C64.3,269.2,64.4,271.3,62,270.2z"/>
	<path class="st109" d="M127.3,250.5c-0.1,1.4-0.2,2.8-2.1,2.8C124.8,251.5,125.5,250.6,127.3,250.5z"/>
	<path class="st110" d="M874,13.3c-0.9,1.3-1.9,2.9-2.9,0C872,12.8,873,13,874,13.3z"/>
	<path class="st23" d="M585,117.2c1.3,0,2.7,0,4,0c-1.4,1.5-3.4,0.6-5,1.1C583.8,117.3,583.9,116.8,585,117.2z"/>
	<path class="st96" d="M585,117.2c-0.3,0.4-0.7,0.7-1,1.1c-0.3,0.3-0.6,0.7-0.9,1c-0.3-0.8-1.1-1.7-0.1-2.5
		C583.9,116.2,584.5,116.3,585,117.2z"/>
	<path class="st111" d="M699.9,72.1c0,0.7,0,1.4,0,2.1c-0.7,0.2-1.5,0.8-1.7-0.4C698,72.7,698.9,72.3,699.9,72.1z"/>
	<path class="st112" d="M241.8,216.7c-1.1,0.1-1.6-0.2-1.6-1c0-0.7,0.3-1.3,1.1-1.4c0.7-0.1,1.4,0.1,1.3,1
		C242.5,215.9,242,216.4,241.8,216.7z"/>
	<path class="st113" d="M896.8,9.8c-1.7,1.1-2.8,2.7-4.9,1.8c-0.3-0.1-0.6-1.6-0.4-1.7C893,8.7,894.7,8.2,896.8,9.8z"/>
	<path class="st114" d="M913,6.2c0-0.7-0.8-1.8,0.4-1.9c1.9-0.2,1.6,1.4,1.6,2.7C914.1,7.3,913.4,7,913,6.2z"/>
	<path class="st115" d="M786,46.1c-0.8,1.4-1.8,2.7-3.8,3.5C782.1,46.5,783.9,46.1,786,46.1L786,46.1z"/>
	<path class="st116" d="M784.9,43.1c3.1,0,3.2,1.2,1.1,3.1l0,0C785.7,45.1,785.3,44.1,784.9,43.1L784.9,43.1z"/>
	<path class="st117" d="M546.9,130.9c-2.2-1.4-4.4-0.4-6.7,0.2c-0.9-1.7,0.2-3.2,0-4.8c1.3,1.1,1.9,3.3,4.6,2.2
		C546.7,127.6,547.1,129.3,546.9,130.9z"/>
	<path class="st118" d="M733.9,64.2c-1.7,0.3-3.1,0.1-5.1-1.2C731.2,61.9,732.6,61.8,733.9,64.2z"/>
	<path class="st119" d="M294.1,197.2c1.9,1.8-0.9,1.9-1,3c-0.4,0.4-0.9,1.2-1.3,1.2c-1.2-0.2-0.7-1.2-0.6-1.9
		C291.5,197.9,293.5,198.4,294.1,197.2z"/>
	<path class="st120" d="M59.1,273.1c0.6,0,1.3,0,1.9,0c0.3,0,0.7,0,1,0c-0.3,3.4-0.4,3.4-4,2c-0.6-0.7-0.6-1.3,0-2
		C58.4,273.1,58.7,273.1,59.1,273.1z"/>
	<path class="st121" d="M47.1,275.2c0,0.3,0,0.7,0,1c-0.8,0.8-1.6,1.6-2.4,2.3c-0.3-0.5-1-1-1-1.5c0.2-1.9,1.5-2.7,3.3-2.8
		C47,274.5,47,274.8,47.1,275.2z"/>
	<path class="st122" d="M219.1,223.2c0.2-2.7,1.7-1.5,2.9-1C221.3,223.3,220.2,223.1,219.1,223.2z"/>
	<path class="st53" d="M463,152.2c0.4,0.3,0.9,0.6,1.1,1c0.6,1.2,3.3,1.5,2.3,3.2c-1,1.8-2.9,0.4-4.3-0.2l0,0
		C460.7,154.4,461.6,153.2,463,152.2z"/>
	<path class="st123" d="M463,152.2c-0.6,1.2-1.1,2.5-1,4c-0.7-0.3-1.2,2.9-2.2,0c-0.7-1.9,1.3-2.5,1.2-3.9
		C461.7,152.2,462.4,152.2,463,152.2z"/>
	<path class="st124" d="M58.1,273.2c0,0.7,0,1.3,0,2c-0.1,1.9-1.1,3-3,3c-0.3-0.7-0.7-1.3-1-2C55.4,275.2,56.7,274.2,58.1,273.2z"/>
	<path class="st124" d="M54,276.2c-2.1,0-4.4,1.8-6-1C51.8,271.6,51.8,271.6,54,276.2z"/>
</g>
</svg>
