<svg viewBox="0 0 424 46">
<style type="text/css">
	.st0{fill:none;stroke:#000000;stroke-miterlimit:10;}
</style>
<g>
	<path class="st0" d="M0,1.6C0,0.7,24.9,0,25.8,0s1.6,24.9,1.6,25.8S2.4,27.3,1.6,27.3C0.7,27.3,0,2.4,0,1.6z"/>
	<path class="st0" d="M16.5,4.1C16.5,2.4,39.1,1,40.8,1s3.1,22.6,3.1,24.3s-22.6,3.1-24.3,3.1S16.5,5.8,16.5,4.1z"/>
	<path class="st0" d="M32.9,6.7C32.9,4.1,53.2,2,55.8,2c2.6,0,4.7,20.3,4.7,22.8c0,2.6-20.3,4.7-22.8,4.7C35,29.5,32.9,9.2,32.9,6.7
		z"/>
	<path class="st0" d="M49.4,9.2C49.4,5.8,67.3,3,70.8,3C74.2,3,77,20.9,77,24.4c0,3.4-17.9,6.2-21.4,6.2
		C52.2,30.6,49.4,12.7,49.4,9.2z"/>
	<path class="st0" d="M65.9,11.8C65.9,7.5,81.5,4,85.8,4s7.8,15.6,7.8,19.9S78,31.7,73.7,31.7C69.4,31.7,65.9,16.1,65.9,11.8z"/>
	<path class="st0" d="M82.4,14.3c0-5.1,13.3-9.3,18.4-9.3s9.3,13.3,9.3,18.4s-13.3,9.3-18.4,9.3S82.4,19.5,82.4,14.3z"/>
	<path class="st0" d="M98.8,16.9c0-6,10.9-10.9,16.9-10.9s10.9,10.9,10.9,16.9c0,6-10.9,10.9-16.9,10.9
		C103.7,33.8,98.8,22.9,98.8,16.9z"/>
	<path class="st0" d="M115.3,19.4c0-6.9,8.6-12.4,15.5-12.4c6.9,0,12.4,8.6,12.4,15.5c0,6.9-8.6,12.4-15.5,12.4
		C120.9,34.9,115.3,26.3,115.3,19.4z"/>
	<circle class="st0" cx="145.8" cy="22" r="14"/>
	<path class="st0" d="M272.5,4.1c0-1.7,22.6-3.1,24.3-3.1c1.7,0,3.1,22.6,3.1,24.3s-22.6,3.1-24.3,3.1
		C273.9,28.4,272.5,5.8,272.5,4.1z"/>
	<path class="st0" d="M288.9,6.7c0-2.6,20.3-4.7,22.8-4.7c2.6,0,4.7,20.3,4.7,22.8c0,2.6-20.3,4.7-22.8,4.7S288.9,9.2,288.9,6.7z"/>
	<path class="st0" d="M305.4,9.2c0-3.4,17.9-6.2,21.4-6.2s6.2,17.9,6.2,21.4c0,3.4-17.9,6.2-21.4,6.2S305.4,12.7,305.4,9.2z"/>
	<path class="st0" d="M321.9,11.8c0-4.3,15.6-7.8,19.9-7.8s7.8,15.6,7.8,19.9s-15.6,7.8-19.9,7.8S321.9,16.1,321.9,11.8z"/>
	<path class="st0" d="M338.4,14.3c0-5.1,13.3-9.3,18.4-9.3c5.1,0,9.3,13.3,9.3,18.4s-13.3,9.3-18.4,9.3
		C342.5,32.7,338.4,19.5,338.4,14.3z"/>
	<path class="st0" d="M354.8,16.9c0-6,10.9-10.9,16.9-10.9s10.9,10.9,10.9,16.9c0,6-10.9,10.9-16.9,10.9S354.8,22.9,354.8,16.9z"/>
	<path class="st0" d="M371.3,19.4c0-6.9,8.6-12.4,15.5-12.4c6.9,0,12.4,8.6,12.4,15.5c0,6.9-8.6,12.4-15.5,12.4
		S371.3,26.3,371.3,19.4z"/>
	<circle class="st0" cx="401.8" cy="22" r="14"/>
	<path class="st0" d="M258.2,1c1.7,0,24.3,1.4,24.3,3.1s-1.4,24.3-3.1,24.3s-24.3-1.4-24.3-3.1C255.1,23.6,256.5,1,258.2,1z"/>
	<path class="st0" d="M244,2c2.6,0,22.8,2.1,22.8,4.7c0,2.6-2.1,22.8-4.7,22.8c-2.6,0-22.8-2.1-22.8-4.7C239.4,22.3,241.5,2,244,2z"
		/>
	<path class="st0" d="M229.9,3c3.4,0,21.4,2.8,21.4,6.2s-2.8,21.4-6.2,21.4c-3.4,0-21.4-2.8-21.4-6.2C223.7,20.9,226.5,3,229.9,3z"
		/>
	<path class="st0" d="M215.8,4c4.3,0,19.9,3.5,19.9,7.8s-3.5,19.9-7.8,19.9S208,28.2,208,23.9S211.5,4,215.8,4z"/>
	<path class="st0" d="M201.6,5c5.1,0,18.4,4.2,18.4,9.3s-4.2,18.4-9.3,18.4c-5.1,0-18.4-4.2-18.4-9.3S196.5,5,201.6,5z"/>
	<path class="st0" d="M187.5,6c6,0,16.9,4.9,16.9,10.9c0,6-4.9,16.9-10.9,16.9s-16.9-4.9-16.9-10.9C176.6,16.9,181.5,6,187.5,6z"/>
	<path class="st0" d="M173.3,7c6.9,0,15.5,5.6,15.5,12.4c0,6.9-5.6,15.5-12.4,15.5c-6.9,0-15.5-5.6-15.5-12.4
		C160.9,15.6,166.5,7,173.3,7z"/>
	<circle class="st0" cx="159.2" cy="22" r="14"/>
</g>
</svg>
