<svg viewBox="0 0 308 412">
<style type="text/css">
	.st0{fill:#EEEDED;}
	.st1{fill:#222222;}
	.st2{fill:#1E1E1E;}
	.st3{fill:#EFEEEE;}
	.st4{fill:#E9E9E9;}
	.st5{fill:#E7E6E6;}
	.st6{fill:#E4E4E3;}
	.st7{fill:#DDDDDD;}
	.st8{fill:#EBEBEB;}
	.st9{fill:#DCDCDC;}
	.st10{fill:#E8E7E7;}
	.st11{fill:#DEDEDE;}
	.st12{fill:#D8D8D8;}
	.st13{fill:#DBDBDB;}
	.st14{fill:#D6D7D7;}
	.st15{fill:#CAC9C9;}
	.st16{fill:#474647;}
	.st17{fill:#707070;}
	.st18{fill:#E3E3E2;}
	.st19{fill:#909090;}
	.st20{fill:#E1E1E1;}
	.st21{fill:#9B9B9A;}
	.st22{fill:#8A8A8A;}
	.st23{fill:#818282;}
	.st24{fill:#B6B6B5;}
	.st25{fill:#DADADA;}
	.st26{fill:#7D7D7E;}
	.st27{fill:#6E6E6E;}
	.st28{fill:#6A6A6A;}
	.st29{fill:#B0B0AF;}
</style>
<g>
	<path class="st0" d="M1,403.7c-0.1-0.4-0.3-0.9-0.3-1.3c0.1-7.9,0.5-15.9,0.2-23.8c-0.9-24.2,0-48.3-0.4-72.5
		C0,271.4,0,236.7,0.1,202c0-0.9,0-1.8,0.3-2.8c0.1,0.2,0.2,0.3,0.2,0.5c0.3,5.4,0.6,10.9,0.8,16.3c0.1,3.5,0.1,6.9,0.1,10.4
		c0,9.8,0,19.5,0,29.3c0,9.8,0.1,19.5,0,29.3c-0.1,13.2-0.7,26.4-0.3,39.7c0.7,24.8,0.1,49.6,0.4,74.3c0,0.3,0,0.6,0,0.9
		c0.1,1.9,0.5,2.3,2.3,2.4c0.4,0,0.8,0,1.2,0c5.2,0.1,10.4,0.2,15.6,0.3c1.6,0,2.3-0.4,2.6-2c0.2-1.1,0.4-2.3,0.4-3.4
		c0-4.5,0.1-9.1,0-13.6c-1-33.9-0.2-67.9-0.4-101.8c0-4.8,0.3-9.5,0.4-14.3c0-3.4-0.2-6.7-0.3-10.1c0-1.5,0-2.9,0-4.4
		c-0.2-6.1-0.3-12.1-0.5-18.2c-0.1-4.2-0.1-8.5-0.1-12.7c0-0.7,0-1.4-0.1-2.1c-0.3-1.8-0.3-3.6-0.2-5.5c0.3-3-0.1-6.1-0.2-9.2
		c0-1.2-0.1-2.4,0-3.7c0.2-8.7,0.5-17.4,0.7-26c0.1-6.3,0.2-12.6,0.3-18.9c0.1-8.6,0.3-17.2,0.4-25.8c0.1-5.3,0-10.6,0-15.9
		c0-3.9-0.2-7.8-0.2-11.7c0-1.4,0.3-2.8,0.2-4.1c-0.4-2.8,0.1-5.5,0-8.2c-0.1-3.4-0.3-6.8-0.3-10.1c0-2.8,0.2-5.5,0.3-8.3
		c0-0.3,0.1-0.6,0-0.9c-0.9-6.3,0.3-12.6-0.1-18.9c-0.3-4.8,0.1-9.7,0.1-14.5c0-1.2,0-2.4,0.4-3.6c0.1,2,0.3,4,0.3,6.1
		c0,2.8-0.2,5.7-0.2,8.5c0,15.5,0,31.1,0,46.7c0,4.9,0,9.8,0.1,14.8c0.1,5.6,0.2,11.2,0.4,16.8c0,0.5,0.2,1,0.3,1.6
		c1,0.1,1.8,0.2,3,0.2c-0.5,0.3-0.6,0.5-0.8,0.6c-2.3,0.5-2.4,0.5-2.5,2.9c-0.2,5.8-0.4,11.5-0.4,17.3c0,34.3,0,68.5,0,102.8
		c0,50.2,0,100.4,0,150.6C16.4,403.7,8.7,403.7,1,403.7z"/>
	<path class="st1" d="M242.6,151c3.3,3.8,6.2,7.9,9.2,12c2.5,3.6,4.4,7.3,5.9,11.4c0.4,1.2,0.9,2.3,1.6,3.3c1.4,2.1,1.6,4.5,2.2,6.8
		c0.2,0.9,0,2-0.1,3c-0.4,3.5-0.8,7-0.9,10.5c-0.1,3.7-0.4,7.5-1.8,11c-1.2,3.1-1.4,6.4-1.6,9.7c-0.1,1.2-0.4,2.4-0.4,3.6
		c-0.1,1.4,0,2.9-0.1,4.4c-0.2,4.2-1.8,7.9-3.6,11.5c-0.7,1.5-1.4,3.1-2.3,4.5c-1.3,2.1-2.5,4.3-4.2,6c-3.5,3.7-7.4,6.9-10.9,10.6
		c-4.9,5.1-10.6,8.8-16.8,11.9c-2.6,1.3-5.4,2.2-8.1,3.1c-4.8,1.6-9.7,2.9-14.4,4.7c-7.7,2.9-15.6,4-23.8,3
		c-5.5-0.6-11-1.3-16.4-2.2c-7.8-1.3-15.1-3.9-22.1-7.6c-4.3-2.3-8.7-4.5-13-6.9c-4.6-2.6-9.4-5.2-13.7-8.4
		c-3.4-2.5-7.1-4.9-9.4-8.7c-0.4-0.6-0.8-1.1-1.3-1.6c-3.3-3.3-5.6-7.3-7.5-11.5c-2-4.5-3.9-9.2-4.4-14.2c-0.2-2-0.8-4.1-1.1-6.1
		c-0.4-3-0.4-6,0.7-8.9c0.3-0.8,0.9-1.4,1.4-2.1c0.5,0.3,1,0.7,1.5,1c1,2,1.3,4.1,0.4,6.2c-0.2,0.6-0.2,1.4-0.1,2
		c1,4.1,1.9,8.2,3.1,12.3c0.8,2.6,1.6,5.3,2.8,7.8c2.5,5.1,5.4,9.9,8.9,14.5c3.9,5.2,8.8,9,14.2,12.3c3.8,2.3,7.8,4.4,11.7,6.5
		c2.6,1.4,5.2,2.9,7.9,4.2c3.5,1.6,7.1,3.3,10.8,4.5c4.4,1.5,9,2.5,13.7,2.9c4.4,0.3,8.8,1.2,13.3,1.6c4.9,0.4,9.8-0.1,14.6-1.6
		c6.9-2.1,13.7-4.4,20.6-6.5c6-1.9,11.6-4.6,16.5-8.5c4.5-3.6,8.6-7.6,12.8-11.5c1.6-1.5,3.3-3,4.6-4.8c3.4-4.3,5.9-9.1,8.2-14.1
		c0.7-1.6,1-3.2,1-4.9c0-2.1,0.2-4.3,0.3-6.4c0.2-2.1,0.5-4.2,0.2-6.4c-0.4-2.7,0.1-5.3,1-7.9c1-3,1.7-6.1,2.2-9.2
		c0.5-3.2,0.5-6.5,0.8-9.8c0.1-1.1,0-2.2-1.4-2.4c0.1-0.8,0.3-1.4,0.3-2c0-1.4,0.2-2.8-0.2-4.1c-2.1-5.5-4.2-11-7.2-16.1
		c-1.1-2-2.1-4.1-3.2-6.1c-1-1.7-2.1-3.4-3.1-5C242,151.9,242.3,151.5,242.6,151z"/>
	<path class="st2" d="M242.6,151c-0.3,0.5-0.7,1-1,1.4c-2.3-1.7-4.2-3.8-5.6-6.3c-1.1-2.1-2.4-4-4.1-5.5c-3.5-3.1-7.1-6.1-10.7-9.1
		c-1.9-1.6-3.8-3.3-5.8-4.9c-1.1-0.8-2.3-1.5-3.6-2c-2.2-0.7-4.5-1.1-6.7-1.7c-9.1-2.8-18.4-4.9-27.9-6c-2.6-0.3-5.2-0.2-7.8,0
		c-2.8,0.2-5.5,0.5-8.2,0.9c-1.4,0.2-2.9,0.5-4.2,1c-2.7,0.8-5.4,1.8-8,2.7c-1.7,0.6-3.6,1-5.1,2c-3.3,2.1-7,3.4-10.5,5.2
		c-1.3,0.7-2.6,1.3-3.7,2.1c-2.2,1.8-4.3,3.6-6.2,5.6c-1.3,1.4-3,2.1-4.5,3.1c-2.2,1.4-5,1.9-6.7,4.4c-1.5,2.2-2.9,4.5-5.2,6
		c-0.1,0.1-0.2,0.2-0.3,0.4c-1.5,2.3-3.1,4.5-4.5,6.9c-2.7,4.4-5.6,8.7-7.9,13.3c-1.8,3.6-3,7.5-4.1,11.4c-0.8,2.6-0.9,5.4-1.6,8
		c-0.7,2.8-1.6,5.4-0.8,8.3c0.1,0.4-0.1,0.9-0.2,1.4c0,0.5-0.2,1.1,0,1.6c0.5,1.5,0.2,2.7-0.8,3.8c-0.5-0.3-1-0.7-1.5-1
		c-0.2-0.3-0.6-0.7-0.6-1c0.1-2.3-0.7-4.6-0.1-7c0.6-2.2,0.7-4.4,0.9-6.7c0.2-3,1-5.9,1.8-8.8c1.4-5.2,3.7-10.1,6.5-14.7
		c0.2-0.4,0.6-0.8,0.6-1.2c0.3-2.3,1.6-4.2,2.8-6c2.4-3.5,4.9-6.8,7.6-10.1c1.3-1.7,3-3,4.5-4.6c3.7-3.9,8.4-6.8,12.4-10.4
		c0.6-0.5,1.3-0.9,1.8-1.5c3.6-4,8.2-6.4,13-8.5c0.9-0.4,1.8-0.8,2.7-1.3c5.7-3.2,11.9-5,18-6.9c2.5-0.7,5.2-0.7,7.8-1
		c1.1-0.1,2.1-0.3,3.6-0.5c-1.9-1.7-4.1-0.8-6.2-1.6c0.4-0.5,0.6-1,0.9-1.1c1.5-0.5,3-0.3,4.4,0.6c0.4,0.3,0.9,0.5,1.4,0.8
		c1.9,1.2,4,1.2,6.2,1.4c3.9,0.3,7.8,0.8,11.6,1.6c8.3,1.6,16.4,4.2,24.5,6.3c3.4,0.9,6,3,8.6,5.2c3.9,3.3,7.9,6.6,11.8,9.9
		c3.2,2.7,5.9,5.9,7.8,9.8C240.6,148.3,241.7,149.6,242.6,151z"/>
	<path class="st3" d="M104.9,0c0.8,0,1.5,0,2.3,0c1.9,0.2,2.9,1,3.4,2.8c0,0.1,0.1,0.1,0.1,0.2c0.2,2.2,1.5,3.2,3.5,3.4
		c-1.3,1.5,0.3,2.2,0.9,3.2c-0.8,0.1-1.6,0.2-2.3,0.2c0,0.2,0,0.4,0,0.6c0.9,0.7,2,0.9,3.2,0.5c0,2.6-0.1,5.2-0.2,7.8
		c0,0.2-0.3,0.3-0.5,0.6c-1.5-0.7-2.4-1.7-3-3.2c-0.3-0.8-0.6-1.6-1.1-2.2c-1-1.3-2-1.2-2.9,0.2c-0.7,1.2-1.4,2.4-2.1,3.6
		c-0.2,0.4-0.5,0.7-1.1,1.5c-0.2-1.8-0.7-3.3-0.6-4.6c0.2-1.9-0.3-4,0.8-5.8c0.2-0.4,0.3-0.9,0.3-1.3c0-1.4,0.4-2.3,2.1-2.5
		c1.1-0.1,1.8-0.9,1.9-2c0-1.2-1-1.6-1.9-2C106.8,0.6,105.9,0.3,104.9,0z"/>
	<path class="st4" d="M92.5,10.1c0.2,0.2,0.5,0.5,0.5,0.7c0,2.3,0,4.6-0.1,6.9c0,0.4-0.3,0.8-0.6,1.6c-0.9-1-1.5-1.8-2.2-2.5
		c-0.8-0.7-1.7-1.3-1.4-2.6c0.2-0.9-0.5-1.3-1.2-1.3C86.8,12.8,86,13,85.3,13c0.5,2.2-0.6,3.8-3.1,4.6c-0.2-0.5-0.5-1-0.4-1.4
		c0.5-2.3-0.9-4.8,0.7-6.9c1.3,0.3,2.7,0.7,4,0.8c1.7,0.1,3.3-0.2,4.8,0.9C91.8,11.4,92.4,11.1,92.5,10.1z"/>
	<path class="st5" d="M138.6,10.2c0.2,0.8,0.5,1.6,0.5,2.4c0,2.1,0,4.3-0.1,6.4c0,0.3-0.2,0.5-0.4,0.8c-1.1-0.2-1.5-0.9-1.8-1.7
		c-0.3-1-0.6-2.1-1-3.1c-0.6-1.3-1-2.9-2.8-3c-1.6-0.1-2.9,1.1-3.5,3.1c-0.2,0.6-0.4,1.2-0.6,1.7c-0.1,0.3-0.4,0.6-0.6,1
		c-0.8-1.6-0.9-6.6-0.2-8.7c0.2,0,0.4,0,0.5,0c3,0.7,6,1.4,9,2.1C138.4,11.4,138.6,10.8,138.6,10.2z"/>
	<path class="st6" d="M161.7,11.4c0,2.4,0,4.9,0,7.4c-2.6-1.2-3-2.5-1.7-5.5c-0.5-0.4-1.1-1-1.7-1.2c-1.1-0.2-2.3-0.3-3.4-0.2
		c-0.5,0.1-1.1,1-1.1,1.5c-0.2,2.4-0.4,2.8-2.6,4.6c-0.2-0.6-0.6-1.2-0.5-1.7c0.6-2.8-0.8-5.8,1-8.6c1.2,0.3,1.8,1.2,2.6,1.8
		c-0.5,0.1-1.1,0.2-1.6,0.2c1,0.6,2.1,0.7,3.1,0.8C157.8,10.9,159.8,11.2,161.7,11.4z"/>
	<path class="st7" d="M197.9,8.8c0.2-4,2.7-5.8,6.4-4.6c1,0.3,2,0.7,3.2,1.1c-0.1,1.5-0.2,2.9-0.4,4.3c-0.6-0.1-1.2-0.3-1.8-0.2
		c-2.1,0.3-4.2,0.2-6.2-0.7C198.8,8.5,198.3,8.8,197.9,8.8z"/>
	<path class="st8" d="M207.4,9.8c0.3,0.8,1,1.7,1,2.5c0,2.1-0.3,4.3-0.5,6.4c-1.6-0.5-1.7-0.5-1.4-2.2c0.3-1.7,0-3.1-1.2-4.2
		c-0.6-0.5-1.4-1-2.1-1.1c-2-0.4-2.3-0.2-3.2,1.7c-0.5,1.1-0.8,2.3-1.2,3.4c-0.3,0.8-0.6,1.5-1.1,2.7c-1-2-0.7-3.5-0.2-5
		c0.5-0.8,0.9-1.6,1.4-2.3c0.4-0.6,1-1,1.5-1.5c2.1,0.1,4.1,0.1,6.2,0.1C206.7,10.2,207,9.9,207.4,9.8z"/>
	<path class="st9" d="M178.4,10.6c-0.9-0.2-1.8-0.3-2.7-0.5c-1.1-0.3-1.6-1.1-1.4-2.6c2.7-0.3,5.4-0.5,8.2-0.8c0.5,1,1,2,1.5,3
		c-2-0.1-4-0.2-5.9,0.3c0.9,0.2,1.9,0.4,2.8,0.5C180,10.6,179.2,10.6,178.4,10.6z"/>
	<path class="st10" d="M128.6,9.2c-0.2,0-0.4,0-0.5,0c0.2-1.5,0.4-3,0.6-5c0.9,1,1.6,1.7,2.1,2.4c1.7,0,3.3,0,4.6,0
		c0.7,1.2,1.3,2.1,1.9,3c-0.7-0.1-1.5-0.2-2.2-0.2C132.9,9.3,130.8,9.2,128.6,9.2z"/>
	<path class="st11" d="M178.4,10.6c0.8,0,1.6,0,2.5-0.1c1.3,0.1,2.7,0.3,4,0.4c0.1,2.3,0.2,4.7,0.3,7c0,0.1-0.2,0.2-0.4,0.4
		c-1.3-0.8-2.1-1.9-2.2-3.4c-0.1-2.1-1-3.4-3.1-3.8C179,11.1,178.7,10.8,178.4,10.6z"/>
	<path class="st4" d="M82.8,6c0.4-0.4,0.7-1.2,1.1-1.2c1.5-0.2,3-0.3,4.5-0.3c0.4,0,1,0.7,1.2,1.2c0.6,1.3,1,2.6,1.5,4
		c-0.5-0.3-1-0.5-1.4-0.8c0-1-0.6-1.2-1.5-1.2C86.3,7.5,84.4,7.1,82.8,6z"/>
	<path class="st12" d="M225.1,10.6c-1.5,0.6-3,1.3-4.6,1.9c-0.6-1.5-0.4-2.2,1.9-5.2c0.4,0.1,0.8,0.3,1.2,0.4
		c1.7,0.8,3.5,1.2,5.3,0.9c0.7-0.1,1.5-0.2,1.2,1c-1.4,0-2.7,0.1-4.1,0c-1.3-0.1-2.5-0.5-3.8-0.8c-0.1,0.2-0.1,0.4-0.2,0.5
		C223.1,9.8,224.1,10.2,225.1,10.6z"/>
	<path class="st13" d="M68,9.2c1.9,0.7,2.1,1,1.3,3.1c-3.3-1.9-6.8-1-10.5-0.5c0.2-1.5-1.9-2.5-0.2-4.1c0.9,0.3,1.7,0.7,2.6,1
		c-0.3,0.1-0.7,0.2-1.2,0.4c0.4,0.5,0.5,0.9,0.8,1c2.6,0.5,5.2,0.7,8.3,0.4C68.4,9.8,68.2,9.5,68,9.2z"/>
	<path class="st14" d="M249.6,10.6c-1.8,0.1-3.5-0.1-5.1,1c-0.3,0.2-0.8-0.1-1.2-0.1c0.1-0.5,0-1.1,0.3-1.4c0.7-0.8,1.5-1.5,2.3-2.2
		c0.3-0.2,1-0.3,1.2-0.1c1.4,1,2.9,0.8,4.4,1c0.6,0.1,1.3-0.2,1.3,0.8c-2.3,0.7-4.4-0.4-6.5-0.9c-0.1,0.2-0.1,0.3-0.2,0.5
		C247.3,9.6,248.4,10.1,249.6,10.6z"/>
	<path class="st0" d="M23.6,32.7c0-7.6,0-15.2,0-23.2c0.4,0.7,0.7,1,0.7,1.3c0,3.5-0.1,7-0.1,10.5c0,2.8,0,5.5,0,8.3c0,1,0,2,0,3
		C24,32.6,23.8,32.6,23.6,32.7z"/>
	<path class="st15" d="M82.8,6c1.6,1.1,3.5,1.5,5.4,1.6c0.9,0,1.5,0.3,1.5,1.2c-2.5,0.3-4.9,0.6-7.4-0.1C82.2,7.7,81.8,6.7,82.8,6z"
		/>
	<path class="st16" d="M45.8,10c-2.3,0.9-7.6,0.9-9.5,0.1c0.4-0.9,1.2-0.8,1.9-0.8C42.7,8.9,44.6,9.1,45.8,10z"/>
	<path class="st17" d="M68,9.2c0.2,0.3,0.5,0.5,1,1.1c-3,0.3-5.7,0.1-8.3-0.4c-0.3,0-0.4-0.5-0.8-1c0.5-0.2,0.9-0.3,1.2-0.4
		C63.4,8.8,65.7,9,68,9.2z"/>
	<path class="st18" d="M175.6,12c2.1,1.8,2.1,2.1,0.3,3.8c-0.3,0.3-0.6,0.5-0.8,0.8c-0.2,0.3-0.4,0.7-0.7,1.3
		C173.2,15.2,174.4,13.7,175.6,12z"/>
	<path class="st19" d="M128.6,9.2c2.2,0,4.3,0.1,6.5,0.2c0.7,0,1.5,0.1,2.2,0.2c0.4,0.2,0.9,0.4,1.3,0.6c0,0.7-0.2,1.3-1,1.1
		C134.6,10.6,131.6,9.9,128.6,9.2z"/>
	<path class="st20" d="M268.9,8.8c0.2-0.5,0.4-1.1,0.6-1.7c0.7,0.3,1.2,0.5,1.7,0.8c1.2,0.7,2.5,1.1,3.9,0.9c0.8-0.1,1.6-0.1,1.7,1
		C274.2,9.6,271.5,9.9,268.9,8.8z"/>
	<path class="st21" d="M291.6,8.8c0.8-0.7,1.7-0.6,2.5-0.1c1.2,0.8,2.5,0.9,3.9,0.8c0.8-0.1,1.6-0.2,1.9,0.8c-2,0.5-5,0.4-6.6-0.2
		C292.9,9.6,292.3,9.2,291.6,8.8z"/>
	<path class="st22" d="M82.3,8.7c2.5,0.7,4.9,0.4,7.4,0.1c0.5,0.3,1,0.5,1.4,0.8c0.5,0.2,0.9,0.4,1.4,0.5c0,1-0.7,1.2-1.4,0.8
		c-1.5-1.1-3.1-0.8-4.8-0.9c-1.3-0.1-2.7-0.5-4-0.8C82.3,9.1,82.3,8.9,82.3,8.7z"/>
	<path class="st23" d="M161.7,11.4c-1.9-0.3-3.9-0.5-5.8-0.8c-1-0.1-2.1-0.2-3.1-0.8c0.5-0.1,1.1-0.2,1.6-0.2c1.9,0,3.7,0,5.6,0
		C161.1,9.7,161.9,10.1,161.7,11.4z"/>
	<path class="st24" d="M268.9,8.8c2.5,1.2,5.2,0.8,7.9,0.9c0,0.3,0.1,0.6,0.2,1.1c-1.9-0.2-3.6-0.4-5.4-0.4c-1.6,0-3.2,0.2-5.2,0.4
		C267.5,9.8,268.2,9.3,268.9,8.8z"/>
	<path class="st7" d="M200.2,10.1c-0.5,0.5-1.1,1-1.5,1.5c-0.5,0.7-0.9,1.5-1.4,2.3c-0.8-1.7-0.3-3.2,0.5-4.6
		C198.6,9.5,199.4,9.8,200.2,10.1z"/>
	<path class="st25" d="M291.6,8.8c0.6,0.4,1.2,0.8,1.8,1.3c-0.7,0.6-1.4,1.2-2.1,1.7c-0.5,0.4-1,0.6-2,1.2
		C289.6,10.8,290.3,9.6,291.6,8.8z"/>
	<path class="st26" d="M225.1,10.6c-1-0.4-2-0.8-3-1.2c0.1-0.2,0.1-0.4,0.2-0.5c1.3,0.3,2.5,0.6,3.8,0.8c1.4,0.1,2.7,0,4.1,0
		l0.1,0.1c-1.1,0.3-2.2,0.6-3.4,1C226.3,10.6,225.7,10.6,225.1,10.6z"/>
	<path class="st27" d="M200.2,10.1c-0.8-0.3-1.6-0.6-2.4-0.9c0-0.1,0.1-0.2,0-0.4c0.4-0.1,0.9-0.4,1.2-0.2c2,0.9,4,1,6.2,0.7
		c0.6-0.1,1.2,0.1,1.8,0.2c0.1,0.1,0.2,0.1,0.3,0.2c-0.3,0.2-0.6,0.5-0.9,0.5C204.4,10.2,202.3,10.1,200.2,10.1z"/>
	<path class="st12" d="M226.9,10.6c1.1-0.3,2.2-0.6,3.4-1c1.1,1.1,0.9,2.3,0.6,3.4C229.5,12.2,228.2,11.4,226.9,10.6z"/>
	<path class="st22" d="M249.6,10.6c-1.1-0.5-2.3-1-3.4-1.4c0.1-0.2,0.1-0.3,0.2-0.5c2.1,0.6,4.2,1.7,6.5,0.9
		c0.3,0.1,0.7,0.2,1.3,0.4C252.5,11,251,10.6,249.6,10.6z"/>
	<path class="st28" d="M184.8,11c-1.3-0.1-2.7-0.3-4-0.4c-0.9-0.2-1.9-0.4-2.8-0.5c2-0.5,3.9-0.4,5.9-0.3
		C184.2,10.1,184.5,10.6,184.8,11z"/>
	<path class="st29" d="M116,11c-1.2,0.3-2.3,0.2-3.2-0.5c0-0.2,0-0.4,0-0.6c0.8-0.1,1.6-0.2,2.3-0.2C115.4,10.1,115.7,10.6,116,11z"
		/>
	<path class="st13" d="M69.2,14.5c0.1,0.7,0.2,1.4,0.4,2.6c-1.4-1-1.1-1.8-0.9-2.5C68.9,14.6,69.1,14.6,69.2,14.5z"/>
</g>
</svg>
