<svg viewBox="0 0 1020.9 69">
<style type="text/css">
	.st0{fill:#D06587;}
</style>
<g>
	<path class="st0" d="M581.7,5.5c-12.1,1.1-24.5-0.7-36.6,2.5c-5,1.3-9.7,3.5-11.1,8.3c-2,6.9,0,9.1,8.1,10c5.6,0.7,8.5,2.6,7.1,8.8
		c-0.2,0.9,0.4,1.5-0.8,2.3c-8.3,5.5-17.4,7.6-27.3,8.3c-47.5,3-95,2.9-142.5,1.8c-22.9-0.5-45.8-2.7-68.7-2.5
		c-19,0.2-38.1,1.6-57.1,1.7c-5.2,0-10.4,0-15.8,0c4.4-8.4,11.8-6.6,18.4-7.8c3.2-0.6,9.5-1,5.9-7.7c-0.1-0.2-0.1-0.7,0-0.8
		c9.2-8.1,1.4-9.2-4.6-11.2c-0.6-0.2-1.4-1.2-1.4-1.8c0.1-1.7,1.4-2.3,3-2c7.7,1.3,3.9-5.5,5.8-8.3c0.6-0.9-0.4-2-1.7-2
		c-1.2,0-3.2,4.2-3.5-0.3c-0.2-3,2.9-1.7,4.5-1.9c30.6-4.1,61.4-3.2,91.9-1.6C416.5,4.5,477.5,1,538.7,0.7
		C553.1,0.7,568.1-2.8,581.7,5.5"/>
	<path class="st0" d="M843.1,21.9c12.5,4,25,0.5,37.2,3.3c-13.9,4.2-29.3,0.4-43,8.1c3.8,0.9,3.6,6.2,8.3,5.9
		c1.7-0.1,0.6,1.3-0.5,1.6c-1.6,0.3-2.9,1.6-2,2.8c0.8,1.1,3.2,2.2,4.3,1.8c9.1-2.9,16.8,4.4,25.7,2.9c-3.1,3.1-6.3,5-10.7,5.1
		c-21.6,0.2-43.3,2.4-64.7,1.7c-34-1.2-68,0.9-102-0.4c-16.2-0.6-32.5,0.1-48.8,0.2c-2.9,0-5.8,0-9.7,0c2.9-3.4,6.8-1.1,8.3-4.9
		c-6.9-2.7-14.9-3.5-21.6-4c-8.1-0.6-12.6-8.1-20.9-7.3c-3.4,0.3-3.7-1.3-8.1-2.2c-4.2-0.9-8.3-4.5-11.3,1.8c-0.5,1-2.1,2.1-3.3,0.4
		c-2.9-4.2,1.9-9.5-1.8-13.6c2.8-0.4,5.1-2.3,8.6-1.6c6.1,1.3,12.5,1,18.8,1.6c3.1,0.3,5-1.5,7-3.4c-1.6-1-4.4,0.4-5.6-2.1
		c1.4-1.6,3.2-0.7,4.9-1c-0.5-0.2-0.8-0.5-1.2-0.5c-3.3-0.2-6.6-0.6-9.9-0.4c-3.8,0.2-5.5-2-5-4.9s4.6-2.2,5.5-1.3
		c5.1,4.7,10.5,1.1,15.7,1.1c23.1-0.1,46.3,0.7,69.4-0.5c36.3-1.8,72.5-3.9,108.8-2.3c15.6,0.7,31.2,2.1,46.8,2.8
		c0.9,0,4.7,0.3,2.5,1.6C840.4,16.9,852.7,21.2,843.1,21.9"/>
	<path class="st0" d="M172.5,33.4c3.8,1,3.8,6.6,8.5,5.9c0.6-0.1,0.6,0.6,0,1.5c-2.2,3.5-1.6,4.5,2.6,4.4c4.1-0.1,7.9-1.4,12.2,1.8
		c2.9,2.1,8.3,0.9,14.3,1.2c-5,3.3-8.2,5.3-12.7,5.3c-21.6,0.1-43.2,2.4-64.7,1.7c-33.8-1.1-67.5,1-101.2-0.4
		c-8.2-0.3-16.5,0.1-24.8,0.4c-4.1,0.2-6.7-0.1-6.5-5.5C0.6,38.9,0.4,28.1,0,17.3c-0.1-4.4,2-5,5.5-5c18.9,0,37.6-1.8,56.6-1.8
		c22.9,0.1,45.9-3,68.8-0.7c15.6,1.5,31.2,2.2,46.8,2.9c0.8,0,4.8-0.5,2.1,1.9c-2.9,2.6,6.7,6.2-2.9,7.3c13.7,4.2,26.3,0.5,38.5,3.3
		C201.4,29.3,186,25.6,172.5,33.4"/>
	<path class="st0" d="M901.6,46.1c4.8-7.8,12.2-5.9,18.8-7.3c1.9-0.4,8.6,0.5,5.8-6.3c-1.7-4.1,5.8-5.4,4.6-8.5
		c-1.5-3.8-7.3-2.8-10.3-5.4c-1.6-1.4,0.1-3.3,2-3c7.1,1.2,5.4-4.2,6.1-7.9c0.2-1.2,0.2-1.8-1.1-2.5c-1.6-0.9-3.3,4.5-4,0.2
		c-0.6-3.6,3-2.2,4.9-2.4c20.9-2.6,41.8-2.8,62.9-2.2c4.6,0.1,6.3,1.2,6.2,6c-0.3,11.3-0.1,22.7,0,34c0,3-0.1,5.4-4.3,5.1
		C962.8,44,932.5,48.5,901.6,46.1"/>
</g>
</svg>
