<svg viewBox="0 0 1020.9 69.9">
<style type="text/css">
	.st0{fill:#BA9BC9;}
</style>
<g>
	<path class="st0" d="M581.5,42.1c-2.3,0.9-4.8,4.4-5.9-1.6c-1-5.4-4.3-4.5-7.7-1.2c-1.3,1.2-1.3,4.4-3.8,3.6
		c-2.8-0.9-0.1-4-1.6-5.6c-4.1,2.3-7.7,5.7-13.2,3c-1.9-0.9-4.9,0-7.3,0.4c-5.7,1.1-11.4,2.1-16.8-1.1c-5.7-3.4-10.4,3.1-15.8,1.8
		c-9.3-2.3-18.2-0.4-27.4,1c-6.9,1-14.4,1.2-21.7-2.2c-5-2.4-12.3-0.4-17.1,1.1c-6.4,2.1-11.9,0.2-17.6,0.1
		c-6.9-0.1-14,1.2-20.7-0.2c-6.7-1.3-10.1,4.3-15.8,5.5c-9.7,1.9-18.6,0.1-28.6-0.3c11,0.2,7.3-8.6,8.8-13.5
		c0.7-2.3-1.1-5.4,1.2-8.1c1.8-2.2-7.2-1.3-2-5.5c0.6-0.5-1.3-1.6-2.3-1.5c-6.2,0.8-3.9-6.3-7.4-8c3.6-0.4,5.3-5,9.1-4.6
		c9.4,0.9,18.5-2.7,28-0.8C407.4,6.8,419,3,430.6,3.8c20.1,1.4,40.3-1.6,61.3,0.6c-3.4,3.3-7.3,2.3-12.1,2.9
		c12.9,3.4,24.7,2.1,36.4,2.9c13.3,1,26.7,1.1,40.1,2.4c15.2,1.6,31,1.2,46.6-1.2c8.4-1.3,15.7-6.9,24.5-5.2c2.5,0.5,1.9-1.7,2-2.5
		c0.4-3.9-4.1,0.2-4.6-3.5c13.3,0,26.4-0.6,39.5,0.2c6.7,0.4,12.3,4.3,15.3,11.2c1.1,2.5,2.3,3.7-1,4.7c-1,0.3-2.6,1.8-2.1,1.9
		c8,2.2,1.1,6.5,1,9.4c-0.3,7.7,1.2,10.2,8.8,10.5c2.4,0.1,4.8,0,7.7,0c-1.8,4-4.9,3.4-7.6,3.6c-9.9,1-20,1.3-29.9,2.1
		c-11.8,1-24.4,0.5-36.6-1.2c-11.4-1.6-23.1,1.6-34.5-2.2c-1.6-0.6-3.3,0.2-4.3,1.8c-3.7-8.9,3.8-9.4,10-11.5
		c-7.2-1.8-12.7,2.5-18.8,1.6c3.2,0.7,6.9,0.9,6,5.8C578.1,40.5,579.4,41.7,581.5,42.1"/>
	<path class="st0" d="M329.2,3.1c2.2,9.2,10.1,4.3,16.9,6.5c-4.6,0.3-7.8,0.5-11.1,0.7c0,2.9,4.9,1,3.9,4.4c-0.8,2.8-3.4,1.2-5,1.5
		c-4,0.8-6.2,5.3-10.6,5.1c4,0.6,7.9,1.2,13.7,2c-6.3,1.9-10.5,4.7-16.2,1.2c2,5.4,4.3,8.2,9,7.3c5.4-1.1,5.9,6.7,11.3,5.7
		c-20.3,7.4-41.3,5.6-61.9,5.9c-58.7,0.9-117.4,0.7-176.1,0.7C93.7,44.1,84.4,43,75,43c-5.7,0-8.7-6.8-15.3-5
		c5.1-0.8,6.4-3.6,4.9-7.8c-0.2-0.5-1.4-1.4-0.6-1.5c7.1-0.7,9.7-8.2,15.8-10.1c2.6-0.8,4.4-2,6.1-3.8c-3.7-0.5-1.6-8.6-7.8-6
		c-0.6,0.3-1.6-0.4-3.2-0.8C81.7,4.2,88,1.9,95.4,1.9c57,0,114-0.2,171-0.4c16-0.1,32.1-0.3,48.1-0.5c3.3,0,7.8-0.6,9.1,2.6
		C327.4,13,327,1.5,329.2,3.1"/>
	<path class="st0" d="M724.4,37.9c5.9-0.4,6.8-3.3,5-7.7c-0.3-0.6-1.1-1.5-0.2-1.5c7.1-0.7,9.6-8.3,15.8-10c2.5-0.7,4.6-1.7,5.9-4
		c-3.5-0.7-1.9-8.4-7.9-5.8c-0.6,0.2-1.5-0.4-3-0.8c6.9-3.6,13.2-6,20.7-6c57,0,114-0.2,171-0.4c16-0.1,32.1-0.4,48.1-0.4
		c3.6,0,7.8-0.8,9.7,4.2c0.7,1.8,2,1.1,4.6-2.5c5.3,12.9,4.6,15.1-5.9,18.1c2.1,1.8,7.7-0.8,6.8,3.7c-0.9,4.3-5.7,0.1-9.4,1.4
		c2.6,2.2,2.9,6.2,7.1,5.7c4.8-0.6,4.4,2.6,4.6,5.6c0.3,4.4-2.4,4.6-5.8,4.7c-75.8,2.6-151.7,2.2-227.5,2c-7.7,0-15.4-1.3-23.1-1.1
		C734.4,43.3,731.2,36.4,724.4,37.9"/>
	<path class="st0" d="M31.7,39.3c-11.1,4.1-20.3,1.9-29.2,2.6C-0.3,42.1,0,39.6,0,37.7C0,25.6,0,13.4,0,0.9
		c7.5,0.9,12.1,4.9,15.3,11.2c1.1,2.2,1.6,3.3-1,4.3c-4.6,1.8-3.7,3,0.5,3.9c4.1,0.9,0.1,2.4-0.1,2.7c-2.9,3.1-3.2,7.5-2.8,10.6
		c0.5,4.1,6,4,9.4,4.7C23.6,38.7,26.4,38.2,31.7,39.3"/>
</g>
</svg>
