<svg viewBox="0 0 1014.1 64.5">
<style type="text/css">
	.st0{fill:#838BC5;}
</style>
<g>
	<path class="st0" d="M934.4,4.7c-6.9-1.1-4,3.9-4.7,6.3c-1.3,4.2,1.8,4.3,4.7,4.5c1.2,0.1,3.1-0.7,3.3,1.3c0.2,1.7-0.6,3.1-2.6,3.6
		c-4.2,1.2-8.4,2.7-13.8,4.4c7.1,0.9,13,1.7,9.2,10.1c-1.1,2.4,1.1,1.6,2.1,2.1c6.1,3,12.7,3,19.3,3.2c1.5,0,3.4-0.6,4.5,1.3
		c-3.5,0,1.1,6.1-5.1,5.5c-12.3-1.2-24.9,0.4-37.3-0.5c-38.4-2.7-76.7,0.6-115.1,1.5c-36.6,0.9-73.1,0-109.6-1.2
		c-8.4-0.3-17.2-2.4-25.5-1.5c-8.8,1-11.8-7.6-19.3-8.5c-2.8-0.3,3.9-0.3,2.4-3.4c-2.6-5.4-2.4-5.2,5-6.8c2.8-0.6,6.5-0.1,8.2-3.6
		c-5-1.4,1.5-6.2-4.2-10.1c-12.6-8.6-25.7-5.6-38.6-7.3c-2.4-0.3-4.9-0.4-7.3-1.5c5.9-0.3,11.9-0.7,17.8-1c0-0.2,0-0.3,0-0.4
		c-3.2-0.3-6.5-0.6-9.7-0.9c17.6-2,35.3-1.3,52.9-0.9c54.5,1.2,108.9,3.3,163.5,0.7C867.5,0,900.7-1.8,934.4,4.7"/>
	<path class="st0" d="M615.7,30.5c-3.1,6-8.5,1.9-12.7,2.8c-10.7,2.3-21.5,3.8-31.7,8.4c-4.3,2-8.6,4.8-14,2.8
		c-0.9-0.3-7.5-2.2-4.6,4.4c0.7,1.7-2.5,1.1-3.8,1.1c-41.8-0.4-83.5,2.6-125.3,1.5c-24.9-0.7-49.7-0.6-74.5-3.2
		c-4.7-0.5-12.1,2-12.8-6.9c0-0.3-2-0.4-2.9-0.8c-1.7-0.8-4.8,1.1-5.2-1.9c-0.3-2.7,2.2-3.9,4.5-4.9c0.7-0.3,1.4-0.6,2.5-1.1
		c-2.8-0.8-5.5-1.1-7.7-2.3c-2.1-1.2-6.1,1.9-6.5-2.7c-0.4-5.1,4.4-3.5,7.6-4.6c-4.8-4.1-9.2-7.9-13.5-11.6c5.5-2.9,5.2-4.8-1.4-9.1
		c20.5-4.3,41.1,0.2,61.7-0.1c59.4-1,118.8,2.7,178.3,0.1c1.1,0,2.2,0,3.3,0c1,0,1,0,1.1,2c0.1,2.1,1.6,1.5,2.9,1.5
		c5,0,9.9,0,14.8,0c-9.8,5.3-21.4,3.4-34.1,7.2c26,6.1,50.2,6.1,74.9,5c-1.8,4.3-7.3-0.3-7.8,5.4c-0.3,3.5,2.6,2.1,3.3,3.5
		C613.2,28.2,614.4,29.3,615.7,30.5"/>
	<path class="st0" d="M269.4,4.6c-5.9-0.9-3.9,3-4.6,5.8c-1.1,4.3,1.3,4.7,4.2,5c1.4,0.2,3.6-1.1,3.8,1.5c0.2,2.4-1.9,3.9-3.6,3.6
		c-4.5-0.7-6.8,4.4-11.6,3.6c6.1,1.5,11.9,2.7,7.9,11c-1,2.2,1.5,1.4,2.4,1.9c6.4,3.2,13.3,2.9,20.1,3.3c1,0,2.9-0.9,3.1,1.4
		c-4.5-0.6,2.5,5.6-3.5,5.3c-12.7-0.7-25.5,0.5-38.2-0.4c-38.7-2.7-77.3,0.6-115.9,1.5C97,49,60.5,47.7,24,47.2
		c-3.3-0.1-6.5-1.3-9.7-1.5C-0.3,45-0.2,45.1,0.1,30.2c0.2-7.9,0.2-15.8,0-23.8C0,2.4,0.8,0.6,5.6,0.8c68,3.1,136,2.5,204-0.2
		C229.6-0.2,249.4,0.5,269.4,4.6"/>
	<path class="st0" d="M980,11.7c0.4-2.5,3.7,0.4,3.6-3.4c-0.1-4.3-3.8-3.6-5.4-5.6c0.4-0.4,0.8-1,1.1-1c5.9,1.1,14.5-4.6,17,0.4
		c3.9,7.8,1.3,17.7,1.1,26.7c-0.1,4.1-4,1.6-5.8,1.2c-1.9-0.4-5.7,1.8-5.8-2.3c0-1.9,0.6-4.6,4.3-4.3c5.5,0.4,0.1-2.5,0.8-3.6
		C985.8,19.1,984.3,13.7,980,11.7"/>
</g>
</svg>
