<svg viewBox="0 0 765.6 87.1">
<path d="M118,8.7c-0.4,1-0.7,2-1.2,3.3c5.1-0.2,10.1-0.4,15-0.6c8.3-0.5,16.6-1,24.9-1.5c5.7-0.4,11.5-1,17.2-1.4
	c4.9-0.3,9.7-0.5,14.6-0.7c14.7-0.7,29.3-1.5,44-2c7.4-0.3,14.9-0.1,22.4-0.3c3.7-0.1,7.4-0.6,11.1-0.5c2.8,0.1,5.6,0.3,8.4,0.4
	c4.2,0.1,8.1-1,12.2-1.1c5-0.2,9.9-0.7,14.8-0.9c0.9,0,1.9,0.6,2.8,0.9c2.2,0.6,4.3,0.7,6.7-0.1c2.5-0.8,5.3-0.6,8-0.8
	c4.9-0.3,9.8-1.1,14.6-0.6c5.5,0.5,10.7-0.5,16.1-0.8c2.8-0.2,5.7,0.2,8.5,0.4c5.6,0.3,11.1-2.2,16.7-0.7c6.4,1.7,12.7-0.1,19-0.6
	c3.4-0.3,6.9-0.8,10.5,0.1c2.9,0.7,6.1,0.1,9.2,0.2c2.4,0.1,4.7,0.3,7.1,0.5c0.3,0,0.6,0.2,0.8,0.1c5-1.5,10-1.7,15.2-1.5
	c1.5,0.1,2.9-0.4,4.5,0.2c0.9,0.4,2,0.4,3,0.2c4.9-1,9.9-0.5,14.9-0.2c1.8,0.1,3.7-0.4,5.1,1.5c0.3,0.5,1.8,0.3,2.8,0.1
	c1.9-0.2,3.8-0.6,6-1c0.1-0.2,0.4-0.8,0.6-1.3c5.4,0.3,10.5,0.6,15.6,0.9c1.3,0.1,2.5,0.4,3.8,0.6c0.6,0.1,1.4,0.5,1.6,0.3
	c2.6-2.2,5.9-0.8,8.7-1.2c2.5-0.4,5.8-1.1,8.6,1.4c4.6-2.5,9.8-0.8,14.8-1.1c1.7-0.1,3.5,0.1,5.1-0.2c2-0.3,4-1.3,5.9,0.5
	c0.5,0.4,1.7,0.2,2.5,0.1c2.5-0.1,5.1-1.5,7.4,0.7c0.2,0.1,0.5,0.1,0.8,0.1c3.8-0.4,7.6-1.1,11.4-1.1c6.2,0,12.4,0.5,18.6,0.7
	c1.3,0.1,2.7,0.4,3.8,0c3.6-1.4,7.1-0.1,10.6-0.1c2,0,4,0.6,5.9,0.4c7.6-0.9,15.2,0.4,22.8,0.6c5,0.2,10,0.4,15,0.7
	c2.1,0.1,4.2,0.6,6.3,0.8c0.8,0.1,1.6-0.2,2.4-0.2c2.4,0.1,4.8,0.3,7.1,0.5c0.4,0,0.9,0.4,1.2,0.3c3.3-1,6.7-0.7,10.2-0.8
	c4.3-0.1,8.3-0.4,12.5,1.3c2.5,1,5.9,1,8.4,0.1c2.4-0.8,4.5-0.8,6.7-0.7c9.6,0.8,19.1,0.4,28.7-0.1c2-0.1,3.5,0.4,5.3,1.3
	c2.3,1.3,4.7,2.1,5.5,5.2c0.4,1.4,3.6,1.1,2.9,3.5c-0.4,1.3-1.6,2.4-2.3,3.6c0.1,0.3,0.2,0.7,0.4,0.8c5.3,2.1,5.8,7.1,6.9,11.7
	c1.6,6.8,1.5,8.8-0.3,14.6c0.8,0.7,1.6,1.3,2.9,2.4c-4.1,1.8-7.8,3.5-11.5,5.1c-0.1,0.1-0.3,0.1-0.4,0.2c-2,4.1-5.6,2.5-8.8,2.3
	c-8-0.4-16-1-24.1-1.3c-11.9-0.4-23.8-0.5-35.8-0.9c-6.3-0.2-12.6-0.7-18.9-0.9c-8.6-0.3-17.2-0.6-25.8-0.9
	c-6-0.2-12.1-0.3-18.1-0.4c-11.6-0.2-23.2-0.4-34.9-0.6c-11.2-0.2-22.4-0.3-33.7-0.4c-8.9-0.1-17.8-0.4-26.7-0.4
	c-8.6,0-17.2,0.3-25.7,0.4c-4.7,0-9.5-0.3-14.2-0.3c-1.8,0-3.7,0.2-5.5,0.2c-6.9,0.1-13.7,0.2-20.6,0.2c-0.1,0-0.3,0-0.4,0
	c-5-1.3-10.2-0.4-15.2-0.6c-2.7-0.1-5.4,0-8.2,0.1c-7,0.3-14,0.6-21,0.8c-6.3,0.2-12.6,0.4-18.9,0.6c-13.4,0.4-26.7,0.7-40.1,1.2
	c-12.3,0.5-24.6,1.2-37,1.7s-24.7,0.8-37.1,1.2c-12.3,0.4-24.7,0.9-37,1.4c-8.2,0.4-16.3,1.1-24.5,1.5c-8,0.4-16.1,0.4-24.1,0.8
	c-6.9,0.4-13.7,1.1-20.6,1.6c-3.7,0.2-7.5,0.6-11.2,0.2c-6.4-0.7-12.6,0.8-18.9,1.1c-10.6,0.5-21.2,1.5-31.8,2.2
	c-5,0.3-10.1,0.1-15.1,0.4c-9.7,0.6-19.5,1.4-29.2,2.2c-4.3,0.4-8.6,0.7-12.8,1.7c-5.5,1.3-10.8,0.4-16.3-0.1
	c-3.3-0.3-6.5-0.7-8.9-3.3c-0.5-0.5-1.3-1-1.4-1.6c-1.1-4.9-4.9-8.8-5.9-13.5c-0.6-2.9-1.9-6.4,0.5-9.4c0.6-0.7,0.7-1.9,0.8-2.8
	c0.1-2.6,0.5-5,1.5-7.5C4.5,27.6,4,25,4,22.6c0-0.8-0.2-1.7-0.4-2.9c2.3,0.4,3.9,0.1,4.6-2.4c0.5-1.6,2.2-2.1,3.9-1.2
	c1,0.5,2.1,1,3.1,1.4c1.6,0.7,3.1,0.8,3.8-1.3c0.6-1.7,2.2-1.7,3.6-1.7c5.7-0.2,11.5-0.2,17.2-0.5c8-0.4,16-1.1,24.1-1.6
	c10.5-0.6,21-1.3,31.4-1.6c2.9-0.1,5.9,0.9,8.9,0.4c3.2-0.5,6.5,0.1,9.6-1.7C114.9,8.4,116.6,8.8,118,8.7L118,8.7z"/>
</svg>
