<svg viewBox="0 0 1081.9 96.1">
<style type="text/css">
	.st0{fill:#FFFFFF;}
</style>
<g>
	<path d="M966.8,50.7c-2.5,0.9-2.5,0.9-1.6,3.5c-2.6,1.2-4.3-0.5-6-2.2c-3.3,2.4-7.2,1.8-10.2,0.8c-3.7-1.3-7.3-0.9-10.9-1.3
		c-2.1-0.2-4.3-0.2-6.4-0.3l0.1,0.1c-3.3-1.5-6.9-1.4-9.3,0.4c-1.3,0.9-2.1,0.2-2.8-0.8l0,0c2.1-1.1,0.1-2.6,1.2-4.6
		c-2.4,1.3-3,4.5-5.5,2.5c-1.1-0.9-1.1-2,0.7-3.1c-1.4-0.1-2.2-0.2-3.3-0.3c-0.2,1-0.3,1.9-0.5,2.9c-6.1-0.7-11.9-1.3-18.7-2.1
		c2.4,2.9,4.8,1.4,7.2,2.4c-1.7,1.4-3.4,0.8-4.9,0.7c-1.6-0.1-3.3-0.3-4.9-0.1c3.3,2.7,7.2,2.6,11,3c4.4,0.4,8.9,0.2,13.2,1.1
		c7,1.5,14.1,2.3,21.2,3c6.6,0.7,13,2,19.6,3c0.5,0.1,1,0.5,2,1c-1.1,0.6-1.8,1.2-2.5,1.2c-5.6-0.4-11.1-1.2-16.7-1.1
		c-4.2,0-8.5-1.5-12.6,0.3c-0.3,0.1-0.9-0.2-1.4-0.3c-1-0.4-2-0.8-3-1.2c-0.8-0.2-2,0-2.4-0.5c-1.9-2.3-4.1-1.4-5.7-0.2
		c-2.1,1.4-3.7,1.3-5.4-0.2c-2.9-2.6-5.9-1.9-8.9-0.4c-0.3-0.6-0.7-1.1-1.1-1.8c-3.8,4.2-8.1,0.2-12.5,1.1c-1.4,3.1-4.2,2.4-7.2,2.2
		c-10.3-1-20.6-1.9-30.9-2.9c-1.3-0.1-2.4-0.4-3.5,1c-0.5,0.6-1.8,0.8-2.7,0.7c-3.1-0.1-6.2-0.6-9.3-0.7c-1.5-0.1-3.1,0.5-4.6,0.4
		c-7.2-0.4-14.3-1-21.5-1.5c-1.4-0.1-2.8-0.2-4.2-0.1c-4.7,0.4-9.5,0.7-14-1.3c-0.9-0.4-2-0.3-3-0.3c-3.4,0.1-6.9,0.1-10.3,0.3
		c-9.4,0.5-18.6,0-27.9-1.9c-1.8-0.4-3.7,0-5.6,0c-6.2,0-12.3,0.2-18.5,0.1c-3.3-0.1-6.6-0.6-9.9-0.8c-7.1-0.4-14.3-0.7-21.4-1.1
		c-1.9-0.1-3.7-0.4-5.6-0.7c-6.9-1.1-13.9-1.6-21-1.2c-2.5,0.1-5.1-0.4-7.7-0.6c-1.7-0.1-3.2-0.3-4.8,1.1c-1,0.9-3.2,0.5-4.9,0.5
		c-9.9-0.4-19.8-0.8-29.6-1.2c-7.7-0.4-15.5-1.4-23.2-1.2c-7.6,0.2-15-1.2-22.7-0.5c-6.6,0.6-13.4-0.4-20.2-0.5
		c-6.9-0.2-13.8-0.3-20.7-0.4c-10-0.2-20.1-0.5-30.1-0.4c-9.9,0-19.8,0.4-29.7,0.5c-15,0.1-29.9,0.1-44.9,0.2
		c-8.3,0.1-16.6,0.3-24.9,0.7c-11.6,0.6-23.2,1.6-34.8,2.2c-6.7,0.4-13.5,0.2-20.2,0.5c-10.8,0.4-21.5,1-32.3,1.6
		c-8.2,0.4-16.4,0.8-24.6,1.3c-11.5,0.7-22.9,1.6-34.4,2.4c-11.6,0.8-23.2,1.4-34.8,2.3c-11.3,0.9-22.6,2.1-34,3
		c-11.8,0.9-23.5,1.7-35.3,2.6c-3,0.2-5.9,1.1-8.9,1.4c-8,0.9-16,1.8-24,2.7c-7.1,0.8-14.3,1.7-21.4,2.4c-5,0.5-10,0.7-15,1.2
		c-8.7,0.9-17.4,2-26.1,2.7c-9.9,0.8-19.7,2.1-29.6,0.2c-3.5-0.7-7-1-10.4-1.9c-2-0.5-4-1.7-5.6-3c-2.5-2.3-4.7-5-7-7.5
		c-0.5-0.5-1-1.2-1-1.9c-0.4-4.5-0.8-9.1-0.8-13.6c0-2.2,0.8-4.5-1.1-6.8c3.9-2.7,5.8-6.4,5.2-10.8c2-1.6,3.8-3.1,6-5
		c1,0.7,2.7,1.8,4.5,3.1c3.8-2.3,8-1.8,12.3-1.1c0.8,0.2,1.7,0.2,2.6,0.1c10.4-1,20.8-2,31.2-2.9c1.1-0.1,2.2,0,3.6,0
		c-0.3,1.2-0.5,2-0.9,3.3c7.8-1,15.3-2,22.8-2.9c2.4-0.3,4.9-0.4,7.3-0.5c8.7-0.1,17.1-1.6,25.7-2.9c4.2-0.6,8.6-0.6,12.9-1
		c10.4-1,20.9-2,31.3-3.1c2.3-0.2,4.6-0.6,6.8-0.8c8.6-0.7,17.2-1.3,25.7-2c4-0.3,8-1.1,12-1.4c7-0.6,14.1-1.5,21.1-1.2
		c8.3,0.4,16.2-1.8,24.4-1.9c1.9,0,3.5,0,5.4,0.7c2,0.7,4.5,0.3,6.7,0.1c1.4-0.1,2.7-0.9,4.1-1.1c7.8-0.8,15.6-1.6,23.5-2.2
		c2.5-0.2,5.1,0.2,7.7,0.6c2.7,0.4,5.3,0.6,7.9-0.5c0.7-0.3,1.7-0.3,2.5-0.3c4,0.2,7.9,0.4,11.9,0.6c0.4,0,0.9,0.1,1.3-0.1
		c4.6-1.5,9.2-1.5,14-0.8c1.7,0.3,3.7-1.1,5.8-1.8c0.9,0.3,2.2,1.2,3.5,1.1c6.3-0.4,12.6-1,19.4-1.6c1,1.4,2.5,2,4.9,1
		c1.6-0.7,3.9-1.1,5.3-0.5c2.1,1,4,1.2,6.2,0.7c1.9-0.4,4-0.9,5.9-0.8c1.8,0.2,3.5,1.2,5.2-0.2c4,1.9,7.7,0.4,11.4-1.2
		c0.7-0.3,1.7,0,2.5,0.3c3.2,1,6.4,1.2,9.7,0.9c2.3-0.2,4.7-1,6.9-2c2.5-1.2,4.7-2.3,6.8,0.4c0.2,0.2,0.5,0.4,0.8,0.4
		c4.1,0.4,8.2,0.8,12.3,1.1c7,0.4,13.7-1.4,20.5-2.9c-0.3,1.1-1.3,2.5,0.9,2.5c2.5,0,5.1,0,7.6-0.2c1.7-0.1,3.4-0.3,5-0.5
		c1.7-0.2,3.5-0.3,6.1-0.5c1.5,1.5,3.9,1.8,7,0.6c2-0.8,4.7,0,7.1,0.1c3.4,0.2,6.8,0.4,10.2,0.9c4.3,0.7,8.6-0.4,12.9,0
		c1.2,0.1,2.4-0.5,4.1-0.9c0.7,0.9,1.7,2.1,2.7,3.3c1.4-2.2,4-1.9,6.3-2.4c1.7-0.3,3.3-0.7,5-1c0.6-0.1,1.2-0.5,1.6-0.3
		c4.3,1.9,9.2,0.3,13.4,1.9c2.8,1.1,5.5,1.2,8.2,0.6c0.8-0.2,1.4-0.9,2.5-1.7c1.2,1.4,3,1.5,5.2,0.8c2.9-0.9,5.9-1.2,8.9-0.2
		c1.2,0.4,2.6,0,3.9,0.1c3.7,0.2,7.4-0.4,11,1.1c1.9,0.8,4.3,0.3,6.4,0.5c2.8,0.2,5.7,0.7,8.5,0.7c2.4,0,4.8-0.6,7.6-1
		c2.6,2.8,6.5,2.1,10.1,1.9c3.2-0.2,6.5,0.7,9.8-1.4c0.3,1,0.5,1.8,0.8,2.8c2-0.2,4.1-0.5,6.3-0.6c2.2-0.2,4.4-0.2,7.5-0.3
		c1.7,1.2,4.7,2.2,7.9,1.8c0.9-0.1,1.8-0.5,2.7-0.7c1.5-0.3,3.2-1.2,4.5-0.7c3.6,1.3,7.2,1,10.8,0.8c0.6,0,1.3-0.3,1.7,0
		c4.1,2.8,8.7,1.3,13,1.5c1.9,0.1,3.8,0.5,6,0.7c0-0.2-0.1-0.7-0.2-1.8c1.6,0.2,3.5,0,4.5,0.8c3.2,2.6,6.8,2,10.3,1.6
		c3-0.3,6.1,1,9.1-0.5c2-1,2,2.1,4.2,2.4c0.9-0.2,1.9-3,3.7-1.1c2.7,2.8,6,1.6,8.8,0.8c1.8-0.5,2.9-0.1,4.4,0.4
		c1.1,0.4,2.2,1,3.2,0.9c6.8-0.9,13.2,0.9,19.7,2.2c0.9,0.2,1.7,1,3.2,1.9c-2.9,0.5-4.9,0.9-6.9,1.3c3.4,1.5,6.7,3.6,10.7,1
		c-1.1-1.3-2-2.2-3-3.3c1.2-2,3.1-2,4.6-1.4c3.6,1.2,7.1,0.8,10.7,0.5c2.9-0.3,5.7-0.2,8.4,1.3c0.8,0.5,1.9,0.4,2.9,0.6
		c2.8,0.6,5.8-0.4,8.4,1.3c0.5,0.3,1.5,0.1,2.1-0.2c2.7-1.3,5.3-0.9,8-0.4c3.9,0.7,7.9,1.3,11.8,1.9c0.6,0.1,1.2,0.2,1.7,0
		c3.5-1.5,6.7-0.3,10,0.6c3.1,0.8,6.1,2,9.4,1.3c0.8-0.1,1.7,0.3,2.5,0.4c3,0.1,6,0.3,9,0.3c4.5-0.1,9.1-0.8,13.4,1.6
		c0.8,0.5,2,0.2,3,0.3c4.3,0.5,8.6,1,12.9,1.4c2.3,0.2,4.6,0,7.2,0c0.4,0.5,0.9,1.3,1.7,2.4c0.6-0.3,1.1-0.8,1.7-0.8
		c1.8-0.1,3.7,0,5.5,0.1c2.7,0.2,5.4,0.7,8.1,0.8c2.1,0.1,4,0.3,4.7,2.5c5-2.5,9.9-2.1,14.8-0.7c3.2,0.9,6.3,1.8,9.7,1.8
		c3.1,0,6.3-0.3,9.2,1.7c0.6,0.4,1.7,0.1,2.5,0.2c2.6,0.3,5.1,0.6,7.7,1c0.6,0.1,1.1,0.4,1.7,0.4c7.9-0.5,15.3,1.8,23,3
		c6.5,1,12.6,4.4,19.5,3.3c3.5,2.6,7.8,0.9,11.6,1.9c4.1,1.1,8.5,0.9,12.7,1.2c0.4,0,1.1-0.3,1.2-0.1c2.7,3.9,5.5,0.9,8.6,0.1
		c1.9,2,6.1,1.2,7,5.8c-2.1-0.2-4.1-0.3-6-0.5c-5.1-0.4-10.3-0.8-15.4-1.3c-2.3-0.2-4.6-0.5-6.7-1.3c-5.5-2-11.2-2.7-16.9-2.6
		c-1.4,0-2.8,0.2-4-1.1c-0.5-0.5-1.8-0.4-2.7-0.4c-3.8,0-7.6,0.1-10.4-1.2c-2.5,0.5-4.1,0.9-5.8,1.1c-3.7,0.3-5,1.6-4.7,5.5
		c2.4,0,4.8,0,7.2,0h-0.1c1.2,1.1,5.1,2.8,6.5,3.1c0.4,0.1,0.6,1,1.1,1.9c-2,0.5-4.5-1.1-5.5,1.6c-0.1,0.2-1.5,0.1-2-0.2
		c-2.9-2.1-6.4-2.4-9.8-2.9c-2.4-0.3-4.4-1.3-6.1-2.8c1.7-0.7,3.5-0.9,3.3-3.6c0-0.8,2.3-1.6,3.5-2.4c-1.1-1.6-2-3-3-4.4
		c-2.8-0.6-5.1,3.4-8,1c0.2-1.4,0.1-2.7-1.8-2.5c-2.6,0.4-5.2,0.9-7.7,1.4c-3.6-1.4-6.7-4.1-11-3.2c0,1.6,0.3,3.3-0.1,3.5
		c-1.8,0.8-1.2,1.9-0.8,3.1c-0.9,0.2-1.7,0.4-3.2,0.8c5.2,1.1,9.5,2.2,13.8,2.9c3.5,0.6,7.1,0.7,10.6,1.4
		C964,48.8,965.4,49.9,966.8,50.7z M871.8,54.4c-1.4-0.2-2.8-1.2-4.2,0.5c1.4-0.2,2.9-0.4,4.3-0.6c1,3.2,1.4,3.4,5.2,2.7
		c-0.8-0.7-1.7-1.5-3.1-2.8C873.9,54.3,872.9,54.4,871.8,54.4z M634.9,12.9c1.7,0.1,3.4,0.2,5.1,0.3
		C638.2,11.4,636.5,12.1,634.9,12.9c-3.1-3.7-6.8-1.5-10.3-0.8C628,12.4,631.4,12.7,634.9,12.9z M881.3,29.8
		c-0.8-0.1-1.7-0.5-2.3-0.2c-2.1,0.7-4.1,1.7-6.3,2.6c0.8,1,1.7,2.1,2.5,3.1C879.2,34.7,881.1,32.8,881.3,29.8
		c1.1,1.1,2.1,2.2,3.2,3.3c1.9-0.3,3.8-0.6,6.4-1C887.4,29.2,884.2,30.3,881.3,29.8z M914.2,39.9c0.8-0.7,1.6-1.3,2.6-2.1
		c1.4,1.9,3.5,1.9,5.6,1.2c1.9-0.7,3.6-0.9,4.5,2.1c2-3.5,4.7-3.9,7.7-3.2c1.5,0.3,3,0.3,4-2c-1.9,0.2-3.3,0.3-4.7,0.4
		c-0.7,0.1-1.4,0.2-2.1,0c-3.2-0.7-6.3-1.8-9.5-2.1c-3.9-0.4-7.8-0.1-11.6-0.1c0.7,1.5,1.2,2.6,1.8,3.6c0.5,0.9,1.2,1.6,1.9,2.5
		c-1.5-0.4-3-0.8-4.8-1.3c-0.4,0.5-1.1,1.5-2.1,3c3.2-0.6,5.5,3.6,8.2-0.3C915.2,40.9,914.7,40.4,914.2,39.9z M760.9,19.5
		c-0.1-0.3-0.2-0.7-0.2-1c-6.1-0.2-12.2-0.4-18.3-0.6c-2-0.1-4,0-5.9-0.2c-4.2-0.5-8.4-1.1-12.7-1.6c-2-0.2-4.1-0.2-6,1.1
		c5.4-0.4,10.3,2.5,15.7,1.7c1.7-0.3,3.6,0.8,5.3,0.7c6.5-0.5,12.8,0.3,19.3,2.3C758.9,21.1,759.9,20.3,760.9,19.5z M824.1,25.8
		c5.4,1,10.2,1.8,14.9,2.6c1.1,0.2,2.2,1,3.2,1c0.9-0.1,2.4-0.8,2.6-1.5c0.5-1.6-1-1.6-2.2-1.8c-3.3-0.4-6.5-0.6-9.7-1.3
		C830.1,24.3,827.4,24,824.1,25.8z M593.1,11.2c4.2,0.3,8,0.3,11.6,1.1c2.9,0.7,5.4,0.8,7.7-1.2c-1.5-0.8-2.9-1.7-4.6-2.6
		c-2.4,2.2-5.5,2.4-8.6,1.4C597.2,9.3,595.4,9.6,593.1,11.2z M666.8,13.5c0,0.3,0,0.6,0,0.9c8.6,0.5,17.2,1.1,26.7,1.7
		c-3.9-2.4-7.2-2.6-10.6-2.3c-1.7,0.2-3.4-0.1-5.1-0.4C674,12.9,670.4,12.9,666.8,13.5z M462,8.3c7.3,1.1,14.4,1.2,21.6,0.3
		c-4.2-0.6-8.4-1-12.7-1C467.9,7.6,465,8.1,462,8.3z M576.2,9.8c-2.3-0.2-4.6-0.5-6.9-0.6c-4.8-0.2-4.8-0.2-6.2,1
		C571.5,11.6,573.1,11.6,576.2,9.8z M696.9,14.8c0,0.5-0.1,0.9-0.1,1.4c2.8,0.2,5.6,0.5,8.4,0.6c2.7,0.1,5.4,0,8.1,0
		c0-0.3,0-0.7,0-1C707.9,15.4,702.4,15.1,696.9,14.8z M559.3,10.3c0-0.5,0-1-0.1-1.4c-7.5,0-14.9,0-22.4,0c0,0.2,0,0.5,0,0.7
		C544.3,9.8,551.8,10,559.3,10.3z M526.3,9.3c0-0.3,0-0.6,0-0.9c-4.4-0.4-8.9-1.4-13.2-0.1c0,0.3,0,0.7,0,1
		C517.4,9.3,521.9,9.3,526.3,9.3z M452.8,8.9c-6.7-1.4-13.1-1.1-16.4,0.8C442.5,9.4,447.6,9.2,452.8,8.9z M797.1,22.4
		c4.1,1.8,10.5,2.4,13.4,0.9C806.3,23,802,22.7,797.1,22.4z M872.9,30.6c0-0.2-0.1-0.5-0.1-0.7c-2.2-0.6-4.3-1.1-6.5-1.7
		c-1.6-0.4-3.2-0.4-4.8,1.4C865.7,29.9,869.3,30.3,872.9,30.6z M859.2,43.4c0-0.4,0.1-0.8,0.1-1.2c-3.3-0.3-6.6-0.7-9.9-1
		c0,0.3-0.1,0.6-0.1,0.9C852.4,43.4,855.7,44,859.2,43.4z M893.2,39.5c0.8,0.9,1.7,2,2.9,3.2c1.5-0.7,3.5-0.8,4.8-3.2
		C897.9,39.5,895.5,39.5,893.2,39.5z M821.2,26.3c0.2-1.3,0.4-2.2,0.6-3.1c-2.6,0.4-4.9,0.7-7.1,1c0,0.2,0,0.4-0.1,0.6
		C816.7,25.2,818.8,25.7,821.2,26.3z M844.7,41.9c-2.1-3.2-3.1-3.3-5.9-0.4C840.9,41.7,842.6,41.8,844.7,41.9z M768.8,25
		c2.4,0.2,4,1.1,5.8,0C772.8,22.9,771.2,22.7,768.8,25z M853.7,28.9c-2.5-2-3.9-0.8-5.5,0.5C850.2,31,851.7,30,853.7,28.9z
		 M900.9,32.5c0.7,1.4,1.1,2.2,1.5,3.2c1.1-0.8,2-1.3,3.8-2.6C904,32.8,902.8,32.7,900.9,32.5z M856.3,33.1c0-0.4,0.1-0.8,0.1-1.2
		c-2.2-0.1-4.3-0.3-6.5-0.4c0,0.2,0,0.5-0.1,0.7C852,32.5,854.1,32.8,856.3,33.1z M647.4,12.3c0,0.4,0,0.7,0.1,1.1
		c2.4,0.1,4.9,0.3,7.3,0.4c0-0.3,0-0.7,0.1-1C652.4,12.6,649.9,12.4,647.4,12.3z M898.8,33.1c-5-1.7-5-1.7-6.1,0
		C894.6,33.1,896.3,33.1,898.8,33.1z M890,46.1c-1.9-0.3-3.8-0.6-5.7-0.9C885.9,47.4,887.9,46.7,890,46.1z M856.8,38.7
		c-1-0.1-2-0.2-3-0.4C854.6,40.3,855.7,39.9,856.8,38.7z M951.2,50.3c0.3-0.5,0.4-0.7,0.4-0.8c0-0.1-0.1-0.4-0.1-0.4
		c-1.2-0.3-2.5-0.5-3.7-0.7c-0.1,0.3-0.1,0.6-0.2,0.9C948.8,49.7,950,50,951.2,50.3z M904,42.2c0.3-0.2,0.6-0.4,0.9-0.5
		c-0.3-0.7-0.7-1.4-1-2.1c-0.4,0.2-0.9,0.5-1.3,0.7C903.1,40.9,903.6,41.5,904,42.2z M801.3,27.3c0,0.2,0,0.3,0,0.5c1.7,0,3.3,0,5,0
		c0-0.1,0-0.2,0-0.3C804.7,27.4,803,27.4,801.3,27.3z M507.9,7.9c-0.1,0.3-0.2,0.6-0.3,1c1.1,0.5,2.3,1.3,4.4-0.5
		C510,8.1,508.9,8,507.9,7.9z M864.1,43.4c0,0.1-0.2,0.2-0.2,0.3c0,0.1,0.1,0.3,0.2,0.3c1.3,0.1,2.5,0.2,3.8,0.3c0-0.3,0-0.6,0-1
		C866.6,43.4,865.4,43.4,864.1,43.4z M388.5,9.8c0,0.2,0.1,0.5,0.1,0.7c1-0.1,2-0.2,3-0.3c0-0.3-0.1-0.6-0.1-0.9
		C390.5,9.5,389.5,9.6,388.5,9.8z M619.1,11.2c0,0.3,0,0.6,0,1c0.9,0,1.9,0,2.8,0c0-0.3,0-0.5,0-0.8C621,11.3,620.1,11.3,619.1,11.2
		z M838.1,31.4c0.1-0.3,0.1-0.5,0.2-0.8c-0.9-0.2-1.8-0.4-2.7-0.6c-0.1,0.3-0.1,0.6-0.2,0.8C836.3,31.1,837.2,31.3,838.1,31.4z
		 M929.9,40.2c0,0.2,0,0.4-0.1,0.6c1.2,0.1,2.3,0.3,3.5,0.4c0-0.2,0-0.4,0.1-0.7C932.2,40.4,931.1,40.3,929.9,40.2z M280.1,13.9
		c0,0.4,0,0.7,0,1.1c1.2-0.1,2.3-0.1,3.5-0.2c0-0.2,0-0.4,0-0.7C282.4,14.1,281.3,14,280.1,13.9z M853.9,35.6c0-0.4,0-0.8,0-1.1
		c-0.9,0.2-1.9,0.4-2.8,0.6c0,0.2,0.1,0.4,0.1,0.6C852.1,35.6,853,35.6,853.9,35.6z M837.1,32.4c-0.5,0.3-0.9,0.4-1.2,0.6
		c0.2,0.3,0.4,0.8,0.7,0.8c0.3,0.1,0.7-0.2,1.1-0.4C837.5,33.1,837.3,32.8,837.1,32.4z M830.7,32.8c0,0.3,0,0.6,0.1,0.9
		c0.6-0.1,1.2-0.2,1.8-0.3c0-0.2,0-0.4-0.1-0.6C831.9,32.8,831.3,32.8,830.7,32.8z M791.5,22.5c0-0.1-0.1-0.4-0.1-0.4
		c-1,0-2.1,0-3.1,0c0,0.1,0,0.3,0,0.4C789.3,22.5,790.3,22.5,791.5,22.5z M586.7,10.5c-0.1-0.4-0.1-0.7-0.2-1.1
		c-0.7,0.1-1.5,0.3-2.2,0.4c0.1,0.3,0.1,0.6,0.2,0.8C585.3,10.6,586,10.5,586.7,10.5z M815.8,38.2c-0.4-0.2-0.7-0.4-1.1-0.4
		c-0.2,0-0.3,0.5-0.5,0.8c0.4,0.1,0.8,0.3,1.1,0.3C815.4,38.8,815.6,38.5,815.8,38.2z M366.7,11.3c0-0.2,0-0.4,0-0.6
		c-0.7-0.1-1.4-0.2-2.1-0.3c0,0.2-0.1,0.4-0.1,0.6C365.3,11.1,366,11.2,366.7,11.3z M380.9,9.4c-0.1,0.3-0.1,0.6-0.2,0.9
		c0.6,0,1.3,0.1,1.9,0.1c0-0.2,0.1-0.4,0.1-0.6C382.1,9.8,381.5,9.6,380.9,9.4z M856.9,53.8c0.5,0.7,0.6,1.2,0.9,1.3
		c0.4,0.2,1,0.1,1.8,0.2c-0.5-0.7-0.6-1.2-0.9-1.3C858.2,53.8,857.7,53.9,856.9,53.8z M395.8,9.9c0.1,0.2,0.2,0.3,0.3,0.5
		c0.5-0.3,1-0.7,1.5-1c-0.1-0.1-0.2-0.3-0.3-0.4C396.8,9.3,396.3,9.6,395.8,9.9z M878.9,46.2c0-0.2,0-0.5,0-0.7
		c-0.2-0.1-0.5-0.5-0.7-0.4c-0.4,0.2-0.8,0.5-1.1,0.8C877.7,45.9,878.3,46,878.9,46.2z M372.1,11c-0.1-0.3-0.1-0.6-0.2-0.9
		c-0.6,0.3-1.2,0.6-1.8,0.8c0.1,0.2,0.2,0.4,0.2,0.6C370.9,11.4,371.5,11.2,372.1,11z M662.1,13.9c-0.1-0.4-0.1-0.6-0.2-0.8
		c-0.3,0.1-0.6,0.1-0.8,0.2s-0.2,0.4-0.2,0.6C661.3,13.9,661.7,13.9,662.1,13.9z M836.8,40.1c-0.5-0.2-0.9-0.4-1.2-0.4
		c-0.1,0-0.3,0.3-0.5,0.5c0.3,0.2,0.7,0.4,1,0.5C836.3,40.7,836.5,40.4,836.8,40.1z"/>
	<path d="M1062,50.4c-0.1,1.1-0.2,2.2-0.4,3.9c-3.7-0.7-7.3-1.3-10.8-2c0-0.3,0-0.6,0-0.9C1054.5,50.7,1058.1,49.2,1062,50.4z"/>
	<path d="M997.1,51.5c-3.6-0.6-7.1-1.3-10.7-1.9c0.1-0.3,0.1-0.6,0.2-0.9c3.6,0.6,7.2,1.3,10.7,1.9
		C997.3,50.9,997.2,51.2,997.1,51.5z"/>
	<path d="M931.6,51.2c1.4,0.5,2.8,1.1,4.1,1.6c0,0.2-0.1,0.4-0.1,0.6c-2-0.3-3.9-0.6-5.9-0.9c0-0.3,0-0.5,0-0.8
		c0.7-0.1,1.3-0.2,1.9-0.4C931.8,51.3,931.6,51.2,931.6,51.2z"/>
	<path d="M982.6,49.9c-1.1-0.6-2.1-1.1-3.2-1.7c1.1-1.3,2.3-1.7,3.5-0.4c0.3,0.3-0.3,1.3-0.4,2C982.5,49.9,982.6,49.9,982.6,49.9z"
		/>
	<path d="M892.2,59.7c-1.2,0-2.4,0-3.6,0c0-0.1,0-0.2,0-0.4c1.2,0,2.4,0,3.6,0C892.2,59.5,892.2,59.6,892.2,59.7z"/>
	<path d="M947.4,53.7c1.1,0.6,1.7,0.9,2.2,1.2c-0.4,0-0.9,0-1.3,0C948.1,54.9,948,54.5,947.4,53.7z"/>
	<path d="M919.6,50.9c-1.4,0.1-2.9,0.2-4.3,0.3c0-0.2,0-0.5,0-0.7C916.7,50.7,918.2,50.8,919.6,50.9L919.6,50.9z"/>
	<path d="M543.7,1c-0.6,0-1.2,0.1-1.8,0.1c0-0.1,0-0.2,0-0.3c0.6,0,1.2,0,1.8,0C543.7,0.9,543.7,0.9,543.7,1z"/>
	<path class="st0" d="M966.8,50.7c-1.5-0.8-2.9-1.9-4.4-2.2c-3.5-0.7-7.1-0.8-10.6-1.4c-4.4-0.8-8.7-1.8-13.8-2.9
		c1.5-0.4,2.3-0.6,3.2-0.8c-0.4-1.2-1-2.3,0.8-3.1c0.4-0.2,0.1-1.9,0.1-3.5c4.2-0.8,7.4,1.9,11,3.2c2.5-0.4,5.1-1,7.7-1.4
		c1.9-0.3,2,1.1,1.8,2.5c3,2.4,5.2-1.5,8-1c0.9,1.4,1.9,2.7,3,4.4c-1.2,0.8-3.5,1.7-3.5,2.4c0.1,2.7-1.7,2.9-3.3,3.6
		C966.7,50.6,966.8,50.7,966.8,50.7z M952.4,44c-2.5,0.1-4.8-2.2-7.9-0.2C947.5,44.3,950,44.8,952.4,44c3,2.3,8.4,3,12.1,1.5
		c-0.3-1.5-1.1-1.3-2.5-1.3C958.9,44.4,955.7,44.1,952.4,44z"/>
	<path class="st0" d="M914.4,40c-0.6-0.8-1.3-1.6-1.9-2.5c-0.6-1-1.1-2.1-1.8-3.6c3.8,0,7.8-0.3,11.6,0.1c3.2,0.3,6.3,1.4,9.5,2.1
		c0.7,0.1,1.4,0,2.1,0c1.4-0.1,2.8-0.2,4.7-0.4c-1,2.4-2.6,2.4-4,2c-3.1-0.7-5.7-0.3-7.7,3.2c-0.9-3-2.5-2.8-4.5-2.1
		c-2.1,0.8-4.2,0.8-5.6-1.2c-0.9,0.8-1.8,1.5-2.6,2.1L914.4,40z"/>
	<path class="st0" d="M760.9,19.5c-1,0.8-1.9,1.5-2.8,2.2c-6.4-1.9-12.8-2.8-19.3-2.3c-1.8,0.1-3.6-1-5.3-0.7
		c-5.4,0.8-10.3-2.1-15.7-1.7c1.9-1.3,3.9-1.3,6-1.1c4.2,0.5,8.4,1.1,12.7,1.6c2,0.2,4,0.2,5.9,0.2c6.1,0.2,12.2,0.4,18.3,0.6
		C760.7,18.8,760.8,19.2,760.9,19.5z"/>
	<path class="st0" d="M824.1,25.8c3.3-1.8,6-1.4,8.8-0.9c3.2,0.6,6.5,0.9,9.7,1.3c1.2,0.1,2.6,0.2,2.2,1.8c-0.2,0.7-1.7,1.4-2.6,1.5
		c-1,0.1-2.1-0.8-3.2-1C834.3,27.6,829.5,26.8,824.1,25.8z"/>
	<path class="st0" d="M593.1,11.2c2.3-1.7,4.1-2,6.2-1.3c3.1,1,6.2,0.8,8.6-1.4c1.6,0.9,3.1,1.8,4.6,2.6c-2.3,2-4.8,1.8-7.7,1.2
		C601.1,11.5,597.3,11.6,593.1,11.2z"/>
	<path class="st0" d="M666.8,13.5c3.6-0.6,7.3-0.6,10.9-0.1c1.7,0.3,3.4,0.6,5.1,0.4c3.5-0.4,6.7-0.2,10.6,2.3
		c-9.5-0.6-18.1-1.1-26.7-1.7C666.8,14.1,666.8,13.8,666.8,13.5z"/>
	<path class="st0" d="M881.3,29.8c-0.1,3.1-2.1,4.9-6.2,5.5c-0.8-1-1.7-2.1-2.5-3.1c2.2-0.9,4.2-1.9,6.3-2.6
		C879.6,29.3,880.5,29.7,881.3,29.8L881.3,29.8z"/>
	<path class="st0" d="M462,8.3c3-0.3,5.9-0.8,8.9-0.7c4.2,0,8.5,0.4,12.7,1C476.4,9.5,469.3,9.4,462,8.3z"/>
	<path class="st0" d="M576.2,9.8c-3.1,1.9-4.7,1.8-13.1,0.4c1.4-1.1,1.4-1.2,6.2-1C571.5,9.2,573.9,9.5,576.2,9.8z"/>
	<path class="st0" d="M696.9,14.8c5.5,0.3,10.9,0.6,16.4,1c0,0.3,0,0.7,0,1c-2.7,0-5.4,0.1-8.1,0c-2.8-0.1-5.6-0.4-8.4-0.6
		C696.9,15.7,696.9,15.2,696.9,14.8z"/>
	<path class="st0" d="M559.3,10.3c-7.5-0.2-15-0.5-22.4-0.7c0-0.2,0-0.5,0-0.7c7.5,0,14.9,0,22.4,0C559.2,9.3,559.3,9.8,559.3,10.3z
		"/>
	<path class="st0" d="M526.3,9.3c-4.4,0-8.8,0-13.2,0c0-0.3,0-0.7,0-1c4.4-1.2,8.8-0.2,13.2,0.1C526.3,8.7,526.3,9,526.3,9.3z"/>
	<path class="st0" d="M914.2,39.9c0.5,0.5,0.9,1,1.4,1.5c-2.7,4-5-0.3-8.2,0.3c1.1-1.5,1.8-2.5,2.1-3
		C911.3,39.2,912.8,39.6,914.2,39.9C914.4,40,914.2,39.9,914.2,39.9z"/>
	<path class="st0" d="M452.8,8.9c-5.1,0.2-10.3,0.5-16.4,0.8C439.6,7.9,446.1,7.5,452.8,8.9z"/>
	<path class="st0" d="M797.1,22.4c4.9,0.3,9.1,0.6,13.4,0.9C807.6,24.8,801.2,24.2,797.1,22.4z"/>
	<path class="st0" d="M872.9,30.6c-3.6-0.3-7.2-0.7-11.4-1.1c1.6-1.8,3.1-1.8,4.8-1.4c2.2,0.6,4.3,1.1,6.5,1.7
		C872.9,30.1,872.9,30.4,872.9,30.6z"/>
	<path class="st0" d="M881.3,29.8c2.9,0.5,6.1-0.6,9.6,2.3c-2.7,0.4-4.5,0.7-6.4,1C883.4,32,882.3,30.9,881.3,29.8L881.3,29.8z"/>
	<path class="st0" d="M859.2,43.4c-3.5,0.5-6.7-0.1-9.9-1.3c0-0.3,0.1-0.6,0.1-0.9c3.3,0.3,6.6,0.7,9.9,1
		C859.2,42.6,859.2,43,859.2,43.4z"/>
	<path class="st0" d="M893.2,39.5c2.4,0,4.8,0,7.6,0c-1.3,2.5-3.3,2.5-4.8,3.2C894.9,41.4,893.9,40.3,893.2,39.5z"/>
	<path class="st0" d="M821.2,26.3c-2.4-0.6-4.5-1-6.6-1.5c0-0.2,0-0.4,0.1-0.6c2.3-0.3,4.5-0.6,7.1-1
		C821.6,24.1,821.4,25,821.2,26.3z"/>
	<path class="st0" d="M634.8,13c-3.4-0.3-6.8-0.5-10.2-0.8C628.1,11.4,631.7,9.2,634.8,13L634.8,13z"/>
	<path class="st0" d="M844.7,41.9c-2.1-0.1-3.8-0.2-5.9-0.4C841.6,38.6,842.6,38.7,844.7,41.9z"/>
	<path class="st0" d="M871.9,54.4c1,0,2-0.1,2.2-0.1c1.4,1.2,2.3,2.1,3.1,2.8C873.3,57.7,872.9,57.5,871.9,54.4L871.9,54.4z"/>
	<path class="st0" d="M768.8,25c2.4-2.3,4-2.1,5.8,0C772.8,26.1,771.2,25.2,768.8,25z"/>
	<path class="st0" d="M853.7,28.9c-2,1.1-3.5,2.1-5.5,0.5C849.8,28.1,851.2,26.9,853.7,28.9z"/>
	<path class="st0" d="M900.9,32.5c1.9,0.2,3.1,0.4,5.3,0.6c-1.8,1.2-2.7,1.8-3.8,2.6C901.9,34.7,901.6,33.9,900.9,32.5z"/>
	<path class="st0" d="M856.3,33.1c-2.2-0.3-4.3-0.7-6.5-1c0-0.2,0-0.5,0.1-0.7c2.2,0.1,4.3,0.3,6.5,0.4
		C856.4,32.3,856.3,32.7,856.3,33.1z"/>
	<path class="st0" d="M647.4,12.3c2.5,0.2,5,0.3,7.4,0.5c0,0.3,0,0.7-0.1,1c-2.4-0.1-4.9-0.3-7.3-0.4
		C647.4,13,647.4,12.6,647.4,12.3z"/>
	<path class="st0" d="M898.8,33.1c-2.5,0-4.3,0-6.1,0C893.8,31.4,893.8,31.4,898.8,33.1z"/>
	<path class="st0" d="M890,46.1c-2.1,0.6-4.2,1.3-5.7-0.9C886.3,45.5,888.2,45.8,890,46.1z"/>
	<path class="st0" d="M856.8,38.7c-1.1,1.3-2.2,1.6-3-0.4C854.8,38.4,855.8,38.5,856.8,38.7z"/>
	<path class="st0" d="M951.2,50.3c-1.2-0.3-2.4-0.6-3.7-1c0.1-0.3,0.1-0.6,0.2-0.9c1.2,0.2,2.5,0.5,3.7,0.7c0.1,0,0.1,0.3,0.1,0.4
		C951.6,49.7,951.5,49.8,951.2,50.3z"/>
	<path class="st0" d="M904,42.2c-0.5-0.6-0.9-1.3-1.4-1.9c0.4-0.2,0.9-0.5,1.3-0.7c0.3,0.7,0.7,1.4,1,2.1
		C904.7,41.8,904.4,42,904,42.2z"/>
	<path class="st0" d="M801.3,27.3c1.7,0.1,3.3,0.1,5,0.2c0,0.1,0,0.2,0,0.3c-1.7,0-3.3,0-5,0C801.3,27.6,801.3,27.4,801.3,27.3z"/>
	<path class="st0" d="M507.9,7.9c1.1,0.1,2.2,0.2,4.1,0.4c-2.1,1.8-3.2,1-4.4,0.5C507.7,8.5,507.8,8.2,507.9,7.9z"/>
	<path class="st0" d="M864.1,43.4c1.3,0,2.6,0,3.8,0c0,0.3,0,0.6,0,1c-1.3-0.1-2.5-0.2-3.8-0.3c-0.1,0-0.2-0.2-0.2-0.3
		C863.9,43.7,864,43.5,864.1,43.4z"/>
	<path class="st0" d="M388.5,9.8c1-0.2,2-0.3,3-0.5c0,0.3,0.1,0.6,0.1,0.9c-1,0.1-2,0.2-3,0.3C388.5,10.3,388.5,10,388.5,9.8z"/>
	<path class="st0" d="M634.8,13c1.7-0.9,3.4-1.6,5.2,0.2C638.3,13.1,636.6,13,634.8,13L634.8,13z"/>
	<path class="st0" d="M619.1,11.2c0.9,0.1,1.9,0.1,2.8,0.2c0,0.3,0,0.5,0,0.8c-0.9,0-1.9,0-2.8,0C619.1,11.9,619.1,11.5,619.1,11.2z
		"/>
	<path class="st0" d="M838.1,31.4c-0.9-0.2-1.8-0.4-2.7-0.6c0.1-0.3,0.1-0.6,0.2-0.8c0.9,0.2,1.8,0.4,2.7,0.6
		C838.2,30.9,838.2,31.2,838.1,31.4z"/>
	<path class="st0" d="M929.9,40.2c1.2,0.1,2.3,0.2,3.5,0.3c0,0.2,0,0.4-0.1,0.7c-1.2-0.1-2.3-0.3-3.5-0.4
		C929.9,40.6,929.9,40.4,929.9,40.2z"/>
	<path class="st0" d="M280.1,13.9c1.2,0.1,2.3,0.2,3.5,0.3c0,0.2,0,0.4,0,0.7c-1.2,0.1-2.3,0.1-3.5,0.2
		C280.1,14.7,280.1,14.3,280.1,13.9z"/>
	<path class="st0" d="M853.9,35.6c-0.9,0-1.8,0.1-2.7,0.1c0-0.2-0.1-0.4-0.1-0.6c0.9-0.2,1.9-0.4,2.8-0.6
		C853.9,34.8,853.9,35.2,853.9,35.6z"/>
	<path class="st0" d="M837.1,32.4c0.2,0.4,0.4,0.7,0.6,1c-0.4,0.1-0.8,0.4-1.1,0.4s-0.5-0.5-0.7-0.8
		C836.2,32.8,836.6,32.7,837.1,32.4z"/>
	<path class="st0" d="M830.7,32.8c0.6,0,1.2,0,1.8,0c0,0.2,0,0.4,0.1,0.6c-0.6,0.1-1.2,0.2-1.8,0.3
		C830.8,33.4,830.8,33.1,830.7,32.8z"/>
	<path class="st0" d="M791.5,22.5c-1.1,0-2.2,0-3.2,0c0-0.1,0-0.3,0-0.4c1,0,2.1,0,3.1,0C791.4,22.1,791.4,22.4,791.5,22.5z"/>
	<path class="st0" d="M586.7,10.5c-0.7,0.1-1.5,0.1-2.2,0.2c-0.1-0.3-0.1-0.6-0.2-0.8c0.7-0.1,1.5-0.3,2.2-0.4
		C586.6,9.7,586.7,10.1,586.7,10.5z"/>
	<path class="st0" d="M815.8,38.2c-0.2,0.3-0.3,0.7-0.5,0.6c-0.4,0-0.8-0.2-1.1-0.3c0.2-0.3,0.3-0.8,0.5-0.8
		C815,37.8,815.4,38,815.8,38.2z"/>
	<path class="st0" d="M366.7,11.3c-0.7-0.1-1.4-0.2-2.2-0.3c0-0.2,0.1-0.4,0.1-0.6c0.7,0.1,1.4,0.2,2.1,0.3
		C366.7,10.9,366.7,11.1,366.7,11.3z"/>
	<path class="st0" d="M380.9,9.4c0.6,0.2,1.2,0.3,1.8,0.5c0,0.2-0.1,0.4-0.1,0.6c-0.6,0-1.3-0.1-1.9-0.1
		C380.7,10.1,380.8,9.8,380.9,9.4z"/>
	<path class="st0" d="M856.9,53.8c0.9,0.1,1.4,0,1.8,0.2c0.3,0.1,0.4,0.6,0.9,1.3c-0.9-0.1-1.4,0-1.8-0.2
		C857.4,55,857.3,54.5,856.9,53.8z"/>
	<path class="st0" d="M872,54.4c-1.4,0.2-2.9,0.4-4.3,0.6C869,53.2,870.4,54.3,872,54.4C871.9,54.4,872,54.4,872,54.4z"/>
	<path class="st0" d="M395.8,9.9c0.5-0.3,1-0.6,1.5-0.9c0.1,0.1,0.2,0.3,0.3,0.4c-0.5,0.3-1,0.7-1.5,1
		C396,10.2,395.9,10.1,395.8,9.9z"/>
	<path class="st0" d="M878.9,46.2c-0.6-0.1-1.2-0.2-1.8-0.4c0.4-0.3,0.7-0.6,1.1-0.8c0.1-0.1,0.5,0.3,0.7,0.4
		C878.9,45.7,878.9,45.9,878.9,46.2z"/>
	<path class="st0" d="M372.1,11c-0.6,0.2-1.2,0.4-1.8,0.6c-0.1-0.2-0.2-0.4-0.2-0.6c0.6-0.3,1.2-0.6,1.8-0.8
		C371.9,10.4,372,10.7,372.1,11z"/>
	<path class="st0" d="M662.1,13.9c-0.4,0-0.8,0-1.2,0c0.1-0.2,0.1-0.5,0.2-0.6c0.2-0.1,0.5-0.1,0.8-0.2
		C662,13.3,662,13.5,662.1,13.9z"/>
	<path class="st0" d="M836.8,40.1c-0.3,0.3-0.6,0.6-0.7,0.6c-0.4-0.1-0.7-0.3-1-0.5c0.2-0.2,0.3-0.5,0.5-0.5
		C836,39.7,836.3,39.9,836.8,40.1z"/>
	<path d="M952.5,44c3.2,0.1,6.4,0.4,9.6,0.2c1.3-0.1,2.2-0.3,2.5,1.3C960.9,47,955.4,46.3,952.5,44L952.5,44z"/>
	<path d="M952.5,44c-2.5,0.9-5,0.3-7.9-0.2C947.7,41.8,950,44.1,952.5,44L952.5,44z"/>
</g>
</svg>
