<svg viewBox="0 0 928.3 84.8">
<path d="M212.7,4.6c-0.9,2.4-2.4,2.1-3.8,2.2c-8.2,0.3-16.4,0.4-24.5,0.9c-2.7,0.2-5.3,1.2-7.9,2.1c5,0,10,0.2,14.9,0
	c9.2-0.5,18.3-1.3,27.5-1.8c6.2-0.3,12.4-0.3,18.6-0.6c2.8-0.1,5.7-0.9,8.5-1c2.4-0.1,4.8,0.4,7.2,0.4c2.8,0,5.6-0.5,8.4-0.6
	c2.1-0.1,4.2,0.1,6.3,0c1.4,0,2.8-0.2,4.2-0.3c1.6-0.2,3.1-0.6,4.7-0.6c8-0.2,16.1-0.3,24.1-0.5c1.1,0,2.2-0.4,3.3-0.7
	c0.7-0.2,1.4-0.6,2-0.5c5.3,1.3,10.7,0.6,16.1,0.4s10.9-0.9,16.3-1.2c8-0.3,16-0.4,24.1-0.6c3-0.1,6-0.7,9-0.5
	c8.6,0.4,17.1-0.5,25.7-0.3c9.5,0.2,19.1-0.7,28.6-0.5c4.2,0.1,8.4-0.9,12.4-0.3c4.5,0.7,8.6,0,12.9-0.4c1.2-0.1,2.5,1,4,1.6
	c2.7-3.2,6.4-1.1,9.7-1.2c4.3-0.1,8.6,0.6,13,0.6s8.9-0.7,13.3-0.8c4-0.1,8,0.1,12,0.1c4.4,0.1,8.8-0.2,13.2-0.2
	c5.3,0,10.4-0.6,15.7,0.6c2.2,0.5,4.9-1.1,7.2-0.8c9.4,1.3,18.8,0,28.2,0.4c6.1,0.2,12.3,0,18.4,0c2.1,0,4.2,0.3,5.6,0.9
	c2,1.4,4,2.9,6.3,4.5c0.2-1.5,0.4-2.9,0.7-4.6c0.7-0.1,1.5-0.1,2.8-0.3c-0.6,1-1,1.7-1.8,3c2.5-0.2,4.4-0.3,6.3-0.4
	c0-0.3,0.1-0.5,0.1-0.8c-0.7-0.3-1.5-0.7-2.7-1.2c4.5-1.7,8.6-0.3,12.7-0.4c1.7,0,3.4-0.2,5.1-0.1c4.2,0.1,8.3,0.3,12.5,0.4
	c4.6,0.1,9.1,0.2,13.7,0.3c3.3,0.1,3.3,0.2,5.2,3.6c1.4-0.2,2.8-0.4,5-0.7c-1.2-1-1.8-1.5-2.4-2c0.2-0.2,0.3-0.5,0.5-0.5
	c6.9,0.1,13.7,0.2,20.6,0.4c3.9,0.1,7.7,0.5,11.6,0.6c6.6,0.2,13.2-0.1,19.7,0.6C719,5,730.6,5.1,742.2,5.6c7,0.3,14,1.1,21.1,1.5
	c8,0.5,16,1,24.1,1.5c13.9,0.9,27.7,2,41.6,2.8c7.1,0.4,14.3,1.1,21.4,0.2c1.1-0.1,2.5-0.2,3.3,0.3c1.4,1,2.5,0.9,4,0.3
	c1.6-0.6,3.1-0.7,4.6,0.9c1.2,1.3,3.2,2.1,5.1,0.8c2.2-1.5,4.6-1.1,6.7-0.3c3.1,1.2,5.9,0.4,8.9,0c0.8-0.1,1.8-0.5,2.5-0.3
	c2.5,1,5.2,1.2,7.8,1.8c2.2,0.5,3.9,0.7,5.4-2.4c0.8,2.2,1.2,3.3,1.5,4.5c0.5,2,2.1,5.3,3.1,6.7c0.3,0.5,0.5,1.5,0.2,1.9
	c-1.8,2.4-1.3,4.2,1.2,5.7c0.6,0.3,1.2,1.2,1.2,1.7c-0.1,2.7,0.3,5.1,1.9,7.5c0.6,0.9-0.1,3-0.5,4.4c-0.1,0.5-1.1,0.7-1.9,1.2
	c0.6,1,1.1,1.9,1.7,2.8c-3.9,3.2-3.4,2.1-1.2,7.5c-1.9-0.2-3.5-0.4-5.5-0.6c-0.4,1-0.9,2.1-1.4,3.2c-4.7-0.9-9.3-0.4-13.9-0.1
	c-5,0.4-10,0.2-15-0.2c-7.9-0.6-15.7-1.7-23.6-2.3c-9.6-0.8-19.1-1.3-28.7-2c-11.8-0.8-23.5-1.5-35.3-2.3c-12.3-0.8-24.7-1.7-37-2.5
	c-11.3-0.7-22.6-1.3-33.9-1.9c-18.8-0.9-37.6-1.7-56.4-2.5c-11.9-0.5-23.9-0.6-35.8-0.9c-11.2-0.3-22.4-0.7-33.6-0.8
	c-9.7-0.1-19.5,0.3-29.2,0.3c-7.7,0-15.5-0.4-23.2-0.4c-6,0-12.1,0.2-18.1,0.2c-8.3,0.1-16.6,0.1-25,0.3c-5,0.1-10,0.6-15,0.9
	c-2.1,0.1-4.3,0-6.4,0c-1.9,0-3.7,0-5.6,0.2c-5.3,0.7-10.6,1.2-15.9,1.7c-7.7,0.7-15.5,0.8-23.2,1.1c-11.1,0.4-22.1,0.7-33.2,1.2
	c-4.9,0.2-9.7,0.8-14.5,1.2c-0.7,0.1-1.4,0.2-2.1,0.1c-10.7-0.6-21.4-0.2-32,0.5c-8.1,0.5-16.3,0.4-24.5,0.7
	c-6.3,0.2-12.6,0.7-18.9,1c-8.5,0.4-17.1,0.6-25.6,1.1c-5.3,0.3-10.5,1-15.8,1.3c-12.5,0.6-25,1-37.4,1.7
	c-9.1,0.4-18.1,1.1-27.2,1.6c-7.3,0.4-14.6,0.4-21.9,1.3c-5.4,0.7-10.8,0.7-16.2,1.1c-6.4,0.5-12.7,1.5-19.1,1.9
	c-7,0.5-14.1,0.6-21.1,1.1c-4.3,0.3-8.5,1.4-12.8,1.7c-8.3,0.7-16.6,1-24.9,1.5c-2.4,0.2-4.8,0.5-7.3,0.8
	c-12.5,1.6-25.1,3.1-37.6,4.7c-4.3,0.5-8.5,1.2-12.7,1.8C13.1,75.1,8.2,72,6.3,65.9C6,65,5.4,64.1,5,63.2c-1.3-3.2-3.7-5.9-3.3-9.8
	c0.2-1.9-0.5-4-1.3-5.8c-0.6-1.5-0.5-2.7,0.2-4c1.3-2.5,2.3-5.1,2.3-8.1c0-2.8,2-5.3,1.3-8.3c-0.1-0.2,0.1-0.7,0.3-0.7
	c2.9-1.4,2-4.2,2.5-6.5c0.4-1.9,1.4-2.9,3.2-2.3c1.7,0.6,3.5,1.4,4.9,2.5c1.2,0.9,2.1,1.2,3.5,0.7c5.5-1.6,10.9-3.4,16.5-4.5
	c3.6-0.7,7.5-0.2,11.2-0.4c4.3-0.3,8.5-1,12.8-1.4c5.1-0.5,10.3-0.7,15.5-1.2c2.7-0.3,5.4-1,8.1-1.3c2.8-0.3,5.7-0.4,8.5-0.6
	c2.3-0.2,4.6-0.2,6.8-0.5c6-0.8,11.9-1.5,18-0.7c2.2,0.3,4.5-0.8,6.8-1c6-0.4,12.1-0.3,18-1c5.6-0.7,11.2-0.7,16.8-0.8
	c2,0,3.9-0.8,5.9-1c2-0.1,4.2-1.9,6.2,0.7c0.7,0.8,3.4,0.4,5-0.1c1.7-0.5,8.5-2.2,10.1-2.1c5.1,0.1,10.2,0.2,15.4,0.1
	C204.2,5.2,208.2,4.8,212.7,4.6z M154,10.7c0,0.4,0.1,0.7,0.1,1.1c4.7-0.4,9.5-0.7,14.2-1.1c0-0.3,0-0.5,0-0.8
	C163.5,10.2,158.7,10.5,154,10.7z M624.5,6.7c0-1.4,0-2.4,0-3.2c-2.1,0.7-4,1.4-6,2.1c0,0.2,0.1,0.5,0.1,0.7
	C620.4,6.4,622.2,6.5,624.5,6.7z M557.8,6.4c-2.2-2.7-2.8-2.7-5.4-0.8C554.3,5.9,556,6.1,557.8,6.4z M645.8,6.9
	c0-0.3-0.1-0.6-0.1-0.9c-1.5,0.3-2.9,0.6-4.4,0.8C643.1,8.7,644.4,7.4,645.8,6.9z M563.4,1.7c-0.1,0.2-0.3,0.4-0.4,0.6
	c0.5,0.4,1.1,0.9,1.6,1.3c0.2-0.3,0.4-0.6,0.6-1C564.7,2.4,564,2,563.4,1.7z M545.7,4.6c-0.1,0.3-0.2,0.4-0.2,0.5s0.1,0.3,0.2,0.3
	c0.8,0,1.7,0,2.5,0c0-0.2,0-0.4-0.1-0.6C547.3,4.8,546.5,4.7,545.7,4.6z M605.8,5.8c-0.8-0.3-1.2-0.6-1.6-0.6
	c-0.4,0-0.7,0.2-1.1,0.4c0.3,0.4,0.5,0.9,0.8,1.1C604.1,6.7,604.6,6.4,605.8,5.8z M628.9,6.1c-0.7-0.5-1-0.9-1.2-0.8
	c-0.4,0.1-0.8,0.5-1.2,0.8c0.3,0.2,0.6,0.7,0.8,0.7C627.7,6.7,628.2,6.4,628.9,6.1z M510.1,5.7c-0.5-0.4-0.7-0.7-1-0.8
	c-0.2-0.1-0.7,0.3-0.6,0.3c0.1,0.3,0.2,0.8,0.4,0.9C509.1,6.2,509.5,5.9,510.1,5.7z M147.7,11.4c0,0.2,0,0.4,0,0.6
	c0.7-0.1,1.3-0.1,2-0.2c0-0.1,0-0.3,0-0.4C149,11.4,148.3,11.4,147.7,11.4z"/>
</svg>
