<svg viewBox="0 0 961.6 93.3">
<style type="text/css">
	.st0{fill:#FFFFFF;}
</style>
<g>
	<g>
		<polygon class="st0" points="76.6,30.4 46.9,60.1 0.9,28.4 46.9,0.7 		"/>
		<path d="M1.8,28.4l45,31l29.1-29.1L46.8,1.2L1.8,28.4z M47,60.7L0,28.3L47,0l30.3,30.3L47,60.7z"/>
	</g>
	<g>
		<path class="st0" d="M83.8,30.6c0,0.1-29.5,29.6-29.6,29.6S8.5,28.7,8.5,28.6S54.2,1,54.2,1C54.3,1,83.8,30.5,83.8,30.6z"/>
		<path d="M9.4,28.6c0,0.1,44.7,30.9,44.8,30.9s28.9-28.9,28.9-28.9c0-0.1-28.9-29-29-29S9.4,28.6,9.4,28.6z M54.3,60.8
			c-0.1,0-46.7-32.2-46.7-32.2L54.3,0.4c0.1,0,30.2,30.1,30.2,30.2C84.5,30.7,54.3,60.8,54.3,60.8z"/>
	</g>
	<g>
		<path class="st0" d="M91,30.8c0,0.1-29.3,29.5-29.5,29.5S16,29,16,28.9S61.4,1.4,61.5,1.4S91,30.6,91,30.8z"/>
		<path d="M16.9,28.8c0,0.1,44.4,30.8,44.5,30.8s28.8-28.7,28.8-28.8S61.6,1.9,61.4,1.9S16.9,28.7,16.9,28.8z M61.6,60.9
			c-0.1,0-46.5-32-46.5-32.1S61.4,0.7,61.6,0.7c0.1,0,30.1,29.9,30.1,30.1S61.7,60.9,61.6,60.9z"/>
	</g>
	<g>
		<path class="st0" d="M98.2,30.9c0,0.2-29.1,29.3-29.3,29.3S23.7,29.1,23.7,28.9s45-27.4,45.2-27.4C69,1.6,98.2,30.7,98.2,30.9z"/>
		<path d="M24.5,29c0,0.2,44.1,30.6,44.3,30.6s28.6-28.5,28.6-28.7S68.9,2.2,68.7,2.2S24.5,28.8,24.5,29z M68.9,60.9
			c-0.2,0-46.2-31.7-46.2-32c0-0.2,46-28,46.2-28s30,29.8,30,30C98.9,31.2,69.1,60.9,68.9,60.9z"/>
	</g>
	<g>
		<path class="st0" d="M105.3,31.1c0,0.3-28.9,29.2-29.2,29.2s-45-30.9-45-31.2s44.7-27.3,45-27.3C76.4,1.9,105.3,30.8,105.3,31.1z"
			/>
		<path d="M32,29.2c0,0.3,43.8,30.5,44,30.5s28.6-28.3,28.6-28.6c0-0.3-28.3-28.6-28.6-28.6S32,28.9,32,29.2z M76.2,61
			c-0.3,0-46-31.5-46-31.8s45.7-27.9,46-27.9s29.9,29.6,29.9,29.9C106,31.4,76.5,61,76.2,61z"/>
	</g>
	<g>
		<path class="st0" d="M112.5,31.3c0,0.4-28.8,29.1-29.1,29.1c-0.4,0-44.7-30.7-44.7-31S83.1,2.2,83.4,2.2
			C83.8,2.2,112.5,30.9,112.5,31.3z"/>
		<path d="M39.6,29.4c0,0.3,43.4,30.4,43.8,30.4s28.5-28.1,28.5-28.5S83.8,2.8,83.4,2.8S39.6,29.1,39.6,29.4z M83.5,61
			c-0.4,0-45.7-31.3-45.7-31.7c0-0.4,45.4-27.8,45.7-27.8c0.4,0,29.7,29.4,29.7,29.7S83.8,61,83.5,61z"/>
	</g>
	<g>
		<path class="st0" d="M119.7,31.5c0,0.4-28.6,29-29,29S46.2,30,46.2,29.6S90.3,2.5,90.7,2.5S119.7,31,119.7,31.5z"/>
		<path d="M47.1,29.6c0,0.4,43.1,30.2,43.5,30.2S119,31.9,119,31.4C119,31,91,3,90.6,3S47.1,29.2,47.1,29.6z M90.8,61.1
			c-0.4,0-45.4-31.1-45.4-31.6s45-27.7,45.5-27.7s29.6,29.2,29.6,29.6C120.4,31.9,91.2,61.1,90.8,61.1z"/>
	</g>
	<g>
		<path class="st0" d="M126.9,31.6c0,0.5-28.4,28.9-28.9,28.9S53.8,30.2,53.8,29.7s43.7-27,44.2-27C98.5,2.8,126.9,31.1,126.9,31.6z
			"/>
		<path d="M54.7,29.8c0,0.5,42.8,30.1,43.3,30.1s28.2-27.8,28.2-28.2S98.4,3.4,97.9,3.4S54.7,29.3,54.7,29.8z M98.1,61.2
			c-0.5,0-45.2-30.9-45.2-31.4S97.6,2.2,98.1,2.2s29.5,29,29.5,29.5S98.6,61.2,98.1,61.2z"/>
	</g>
	<g>
		<path class="st0" d="M134.1,31.8c0,0.6-28.2,28.8-28.8,28.8s-44-30.1-44-30.6s43.4-26.9,44-26.9S134.1,31.3,134.1,31.8z"/>
		<path d="M62.2,30c0,0.5,42.5,30,43,30s28.1-27.6,28.1-28.1S105.7,3.8,105.2,3.8S62.2,29.4,62.2,30z M105.4,61.2
			c-0.6,0-44.9-30.7-44.9-31.3c0-0.6,44.4-27.5,44.9-27.5c0.6,0,29.4,28.8,29.4,29.4S106,61.2,105.4,61.2z"/>
	</g>
	<g>
		<path class="st0" d="M141.3,32c0,0.6-28,28.6-28.6,28.6S69,30.7,69,30.1s43.1-26.8,43.7-26.8C113.3,3.4,141.3,31.4,141.3,32z"/>
		<path d="M69.8,30.2c0,0.6,42.2,29.8,42.8,29.8s28-27.4,28-28s-27.4-28-28-28S69.8,29.6,69.8,30.2z M112.7,61.3
			C112,61.3,68,30.8,68,30.1s44-27.4,44.7-27.4S142,31.3,142,32C141.9,32.7,113.3,61.3,112.7,61.3z"/>
	</g>
	<g>
		<path class="st0" d="M148.4,32.2c0,0.7-27.8,28.5-28.5,28.5c-0.7,0-43.5-29.7-43.5-30.4c0-0.7,42.8-26.7,43.5-26.7
			C120.6,3.7,148.4,31.5,148.4,32.2z"/>
		<path d="M77.3,30.4c0,0.7,41.9,29.7,42.5,29.7c0.7,0,27.9-27.2,27.9-27.9S120.5,4.3,119.8,4.3C119.2,4.3,77.3,29.7,77.3,30.4z
			 M120,61.3c-0.7,0-44.4-30.3-44.4-31S119.3,3,120,3c0.7,0,29.1,28.4,29.1,29.1C149.1,32.9,120.7,61.3,120,61.3z"/>
	</g>
	<g>
		<path class="st0" d="M155.6,32.4c0,0.8-27.6,28.4-28.4,28.4S84,31.4,84,30.6C84,29.8,126.4,4,127.2,4S155.6,31.6,155.6,32.4z"/>
		<path d="M84.9,30.6c0,0.8,41.5,29.6,42.3,29.6s27.8-27,27.8-27.8S128,4.6,127.2,4.6S84.9,29.8,84.9,30.6z M127.3,61.4
			c-0.8,0-44.2-30.1-44.2-30.9s43.4-27.2,44.2-27.2s29,28.2,29,29C156.3,33.2,128.1,61.4,127.3,61.4z"/>
	</g>
	<g>
		<path class="st0" d="M162.8,32.5c0,0.8-27.4,28.3-28.3,28.3s-43-29.2-43-30.1s42.1-26.5,43-26.5S162.8,31.7,162.8,32.5z"/>
		<path d="M92.4,30.8c0,0.8,41.2,29.4,42,29.4s27.7-26.8,27.7-27.7S135.3,4.9,134.5,4.9S92.4,29.9,92.4,30.8z M134.6,61.5
			c-0.9,0-43.9-29.9-43.9-30.8s43.1-27.1,43.9-27.1s28.9,28,28.9,28.9S135.4,61.5,134.6,61.5z"/>
	</g>
	<g>
		<path class="st0" d="M170,32.7c0,0.9-27.3,28.2-28.2,28.2s-42.7-29-42.7-30c0-0.9,41.8-26.4,42.7-26.4S170,31.8,170,32.7z"/>
		<path d="M100,31c0,0.9,40.9,29.3,41.8,29.3s27.5-26.7,27.5-27.5c0-0.9-26.7-27.6-27.6-27.6S100,30.1,100,31z M141.9,61.5
			c-0.9,0-43.7-29.7-43.7-30.6s42.7-27,43.7-27s28.8,27.8,28.8,28.8S142.8,61.5,141.9,61.5z"/>
	</g>
	<g>
		<path class="st0" d="M177.2,32.9c0,1-27.1,28.1-28.1,28.1s-42.5-28.8-42.5-29.8s41.5-26.3,42.5-26.3
			C150.1,4.8,177.2,31.9,177.2,32.9z"/>
		<path d="M107.5,31.1c0,1,40.6,29.2,41.5,29.2s27.4-26.5,27.4-27.4S149.9,5.5,149,5.5S107.5,30.2,107.5,31.1z M149.2,61.6
			c-1,0-43.4-29.5-43.4-30.5s42.4-26.9,43.4-26.9s28.7,27.6,28.7,28.7S150.2,61.6,149.2,61.6z"/>
	</g>
	<g>
		<path class="st0" d="M184.4,33.1c0,1.1-26.9,27.9-27.9,27.9c-1.1,0-42.2-28.6-42.2-29.7s41.2-26.2,42.2-26.2
			C157.5,5.1,184.4,32,184.4,33.1z"/>
		<path d="M115.1,31.3c0,1,40.3,29,41.3,29S183.7,34,183.7,33S157.4,5.7,156.4,5.7S115.1,30.3,115.1,31.3z M156.5,61.6
			c-1.1,0-43.1-29.3-43.1-30.3c0-1.1,42.1-26.8,43.2-26.8s28.6,27.5,28.6,28.6C185,34.2,157.6,61.6,156.5,61.6z"/>
	</g>
	<g>
		<path class="st0" d="M191.5,33.2c0,1.1-26.7,27.8-27.8,27.8s-42-28.4-42-29.6c0-1.1,40.8-26.1,42-26.1S191.5,32.1,191.5,33.2z"/>
		<path d="M122.6,31.5c0,1.1,40,28.9,41,28.9s27.2-26.1,27.2-27.2S164.7,6,163.6,6S122.6,30.4,122.6,31.5z M163.8,61.7
			c-1.2,0-42.9-29-42.9-30.2s41.7-26.7,42.9-26.7c1.2,0,28.4,27.3,28.4,28.4C192.2,34.4,164.9,61.7,163.8,61.7z"/>
	</g>
	<g>
		<path class="st0" d="M198.7,33.4c0,1.2-26.5,27.7-27.7,27.7s-41.7-28.2-41.7-29.4c0-1.2,40.5-26,41.7-26
			C172.2,5.7,198.7,32.2,198.7,33.4z"/>
		<path d="M130.2,31.7c0,1.2,39.6,28.8,40.8,28.8s27.1-25.9,27.1-27.1S172.2,6.3,171,6.3S130.2,30.6,130.2,31.7z M171.1,61.8
			c-1.2,0-42.6-28.8-42.6-30.1s41.4-26.6,42.6-26.6s28.3,27.1,28.3,28.3S172.3,61.8,171.1,61.8z"/>
	</g>
	<g>
		<path class="st0" d="M205.9,33.6c0,1.3-26.3,27.6-27.6,27.6c-1.3,0-41.5-28-41.5-29.3S177,6,178.3,6
			C179.6,6,205.9,32.3,205.9,33.6z"/>
		<path d="M137.7,31.9c0,1.2,39.3,28.6,40.6,28.6s27-25.7,27-27c0-1.2-25.7-27-27-27S137.7,30.7,137.7,31.9z M178.4,61.8
			c-1.3,0-42.4-28.6-42.4-29.9s41.1-26.5,42.4-26.5s28.2,26.9,28.2,28.2C206.6,34.9,179.7,61.8,178.4,61.8z"/>
	</g>
	<g>
		<path class="st0" d="M213.1,33.8c0,1.3-26.1,27.5-27.5,27.5c-1.3,0-41.2-27.8-41.2-29.2c0-1.3,39.9-25.8,41.2-25.8
			C187,6.3,213.1,32.4,213.1,33.8z"/>
		<path d="M145.3,32.1c0,1.3,39,28.5,40.3,28.5s26.8-25.5,26.8-26.8S186.8,6.9,185.5,6.9S145.3,30.8,145.3,32.1z M185.7,61.9
			c-1.4,0-42.1-28.4-42.1-29.8s40.7-26.4,42.1-26.4s28.1,26.7,28.1,28.1S187.1,61.9,185.7,61.9z"/>
	</g>
	<g>
		<path class="st0" d="M220.3,34c0,1.4-25.9,27.4-27.4,27.4s-41-27.6-41-29s39.5-25.7,41-25.7S220.3,32.5,220.3,34z"/>
		<path d="M152.8,32.3c0,1.4,38.7,28.4,40.1,28.4s26.7-25.4,26.7-26.7c0-1.4-25.4-26.7-26.7-26.7S152.8,30.9,152.8,32.3z M193,61.9
			c-1.5,0-41.9-28.2-41.9-29.7S191.5,5.9,193,5.9s28,26.5,28,28S194.4,61.9,193,61.9z"/>
	</g>
	<g>
		<path class="st0" d="M227.5,34.1c0,1.5-25.7,27.2-27.2,27.2s-40.7-27.4-40.7-28.9s39.2-25.6,40.7-25.6S227.5,32.6,227.5,34.1z"/>
		<path d="M160.4,32.5c0,1.4,38.4,28.2,39.8,28.2s26.6-25.2,26.6-26.6S201.6,7.5,200.2,7.5S160.4,31.1,160.4,32.5z M200.3,62
			c-1.5,0-41.6-28-41.6-29.5s40.1-26.2,41.6-26.2s27.8,26.3,27.8,27.8C228.1,35.7,201.8,62,200.3,62z"/>
	</g>
	<g>
		<path class="st0" d="M234.7,34.3c0,1.6-25.6,27.1-27.1,27.1c-1.6,0-40.5-27.2-40.5-28.8c0-1.6,38.9-25.5,40.5-25.5
			C209.1,7.2,234.7,32.8,234.7,34.3z"/>
		<path d="M167.9,32.7c0,1.5,38.1,28.1,39.6,28.1s26.5-25,26.5-26.5S209,7.8,207.5,7.8S167.9,31.2,167.9,32.7z M207.6,62
			c-1.6,0-41.3-27.8-41.3-29.4s39.8-26.1,41.4-26.1s27.7,26.1,27.7,27.7C235.3,35.9,209.2,62,207.6,62z"/>
	</g>
	<g>
		<path class="st0" d="M241.8,34.5c0,1.6-25.4,27-27,27s-40.2-27-40.2-28.6s38.6-25.4,40.2-25.4S241.8,32.9,241.8,34.5z"/>
		<path d="M175.5,32.9c0,1.6,37.7,28,39.3,28s26.4-24.8,26.4-26.4S216.4,8.1,214.8,8.1S175.5,31.3,175.5,32.9z M214.9,62.1
			c-1.7,0-41.1-27.6-41.1-29.3c0-1.7,39.4-26,41.1-26s27.6,25.9,27.6,27.6C242.5,36.2,216.6,62.1,214.9,62.1z"/>
	</g>
	<g>
		<path class="st0" d="M249,34.7c0,1.7-25.2,26.9-26.9,26.9c-1.7,0-40-26.8-40-28.5s38.3-25.3,40-25.3C223.8,7.8,249,33,249,34.7z"
			/>
		<path d="M183,33.1c0,1.6,37.4,27.8,39.1,27.8s26.3-24.6,26.3-26.3S223.8,8.3,222.1,8.3S183,31.4,183,33.1z M222.2,62.2
			c-1.7,0-40.8-27.4-40.8-29.1s39.1-25.9,40.9-25.9s27.5,25.7,27.5,27.5S223.9,62.2,222.2,62.2z"/>
	</g>
	<g>
		<path class="st0" d="M256.2,34.8c0,1.8-25,26.8-26.8,26.8S189.7,35,189.7,33.2S227.6,8,229.4,8S256.2,33.1,256.2,34.8z"/>
		<path d="M190.6,33.3c0,1.7,37.1,27.7,38.8,27.7s26.1-24.4,26.1-26.1S231,8.7,229.3,8.7S190.6,31.6,190.6,33.3z M229.5,62.2
			c-1.8,0-40.6-27.2-40.6-29s38.8-25.8,40.6-25.8s27.4,25.5,27.4,27.4S231.3,62.2,229.5,62.2z"/>
	</g>
	<g>
		<path class="st0" d="M263.4,35c0,1.8-24.8,26.6-26.6,26.6c-1.8,0-39.4-26.4-39.4-28.2c0-1.8,37.6-25.1,39.4-25.1
			C238.6,8.4,263.4,33.2,263.4,35z"/>
		<path d="M198.1,33.5c0,1.8,36.8,27.6,38.6,27.6s26-24.3,26-26c0-1.8-24.3-26-26-26S198.1,31.7,198.1,33.5z M236.8,62.3
			c-1.9,0-40.3-27-40.3-28.9s38.4-25.7,40.3-25.7S264,33.1,264,34.9S238.7,62.3,236.8,62.3z"/>
	</g>
	<g>
		<path class="st0" d="M270.6,35.2c0,1.9-24.6,26.5-26.5,26.5s-39.2-26.2-39.2-28.1s37.3-25,39.2-25C246,8.7,270.6,33.3,270.6,35.2z
			"/>
		<path d="M205.7,33.7c0,1.8,36.5,27.4,38.3,27.4s25.9-24.1,25.9-25.9S245.8,9.3,244,9.3S205.7,31.8,205.7,33.7z M244.1,62.3
			c-2,0-40.1-26.8-40.1-28.7S242.1,8,244.1,8s27.1,25.2,27.1,27.1S246.1,62.3,244.1,62.3z"/>
	</g>
	<g>
		<path class="st0" d="M277.8,35.4c0,2-24.4,26.4-26.4,26.4s-38.9-26-38.9-28s37-24.9,38.9-24.9S277.8,33.4,277.8,35.4z"/>
		<path d="M213.2,33.9c0,1.9,36.2,27.3,38.1,27.3s25.8-23.9,25.8-25.8S253.2,9.6,251.3,9.6S213.2,31.9,213.2,33.9z M251.4,62.4
			c-2,0-39.8-26.5-39.8-28.6c0-2,37.8-25.5,39.8-25.5s27,25,27,27C278.4,37.4,253.4,62.4,251.4,62.4z"/>
	</g>
	<g>
		<path class="st0" d="M284.9,35.6c0,2.1-24.2,26.3-26.3,26.3s-38.7-25.8-38.7-27.8s36.6-24.8,38.7-24.8S284.9,33.5,284.9,35.6z"/>
		<path d="M220.8,34.1c0,2,35.8,27.2,37.8,27.2s25.7-23.7,25.7-25.7S260.6,9.9,258.6,9.9S220.8,32.1,220.8,34.1z M258.7,62.5
			c-2.1,0-39.6-26.3-39.6-28.5c0-2.1,37.5-25.4,39.6-25.4s26.9,24.8,26.9,26.9S260.8,62.5,258.7,62.5z"/>
	</g>
	<g>
		<path class="st0" d="M292.1,35.7c0,2.1-24.1,26.2-26.2,26.2s-38.4-25.6-38.4-27.7s36.3-24.7,38.4-24.7S292.1,33.6,292.1,35.7z"/>
		<path d="M228.3,34.2c0,2.1,35.5,27,37.6,27s25.6-23.5,25.6-25.6S268,10,265.9,10S228.3,32.2,228.3,34.2z M266,62.5
			c-2.2,0-39.3-26.1-39.3-28.3S263.8,8.9,266,8.9s26.8,24.6,26.8,26.8S268.2,62.5,266,62.5z"/>
	</g>
	<g>
		<path class="st0" d="M299.3,35.9c0,2.2-23.9,26.1-26.1,26.1S235,36.6,235,34.5s36-24.6,38.2-24.6C275.4,9.8,299.3,33.7,299.3,35.9
			z"/>
		<path d="M235.9,34.4c0,2.1,35.2,26.9,37.3,26.9s25.5-23.3,25.5-25.5s-23.3-25.5-25.5-25.5S235.9,32.3,235.9,34.4z M273.3,62.6
			c-2.3,0-39-25.9-39-28.2s36.8-25.1,39.1-25.1s26.7,24.4,26.7,26.7S275.6,62.6,273.3,62.6z"/>
	</g>
	<g>
		<path class="st0" d="M306.5,36.1c0,2.3-23.7,25.9-25.9,25.9s-37.9-25.2-37.9-27.4s35.7-24.5,37.9-24.5S306.5,33.8,306.5,36.1z"/>
		<path d="M243.4,34.6c0,2.2,34.9,26.8,37.1,26.8s25.3-23.1,25.3-25.3s-23.2-25.3-25.3-25.3S243.4,32.4,243.4,34.6z M280.6,62.6
			c-2.3,0-38.8-25.7-38.8-28s36.5-25,38.8-25s26.5,24.2,26.5,26.5S282.9,62.6,280.6,62.6z"/>
	</g>
	<g>
		<path class="st0" d="M313.7,36.3c0,2.3-23.5,25.8-25.8,25.8s-37.7-24.9-37.7-27.3s35.3-24.4,37.7-24.4
			C290.2,10.4,313.7,33.9,313.7,36.3z"/>
		<path d="M251,34.8c0,2.3,34.6,26.7,36.8,26.7s25.2-23,25.2-25.2c0-2.3-23-25.2-25.2-25.2S251,32.6,251,34.8z M287.9,62.7
			c-2.4,0-38.5-25.5-38.5-27.9s36.1-24.9,38.5-24.9s26.4,24,26.4,26.4S290.3,62.7,287.9,62.7z"/>
	</g>
	<g>
		<path class="st0" d="M320.9,36.4c0,2.4-23.3,25.7-25.7,25.7S257.8,37.4,257.8,35s35-24.3,37.4-24.3S320.9,34,320.9,36.4z"/>
		<path d="M258.5,35c0,2.3,34.3,26.5,36.6,26.5s25.1-22.8,25.1-25.1c0-2.3-22.8-25.1-25.1-25.1S258.5,32.7,258.5,35z M295.2,62.8
			c-2.5,0-38.3-25.3-38.3-27.8s35.8-24.8,38.3-24.8s26.3,23.8,26.3,26.3S297.7,62.8,295.2,62.8z"/>
	</g>
	<g>
		<path class="st0" d="M328,36.6c0,2.5-23.1,25.6-25.6,25.6s-37.2-24.5-37.2-27S299.9,11,302.4,11S328,34.1,328,36.6z"/>
		<path d="M266.1,35.2c0,2.4,33.9,26.4,36.3,26.4s25-22.6,25-25s-22.6-25-25-25S266.1,32.8,266.1,35.2z M302.5,62.8
			c-2.6,0-38-25.1-38-27.6c0-2.6,35.5-24.7,38-24.7c2.6,0,26.2,23.6,26.2,26.2C328.7,39.2,305.1,62.8,302.5,62.8z"/>
	</g>
	<g>
		<path class="st0" d="M335.2,36.8c0,2.5-22.9,25.5-25.5,25.5S272.8,38,272.8,35.4s34.4-24.1,36.9-24.1S335.2,34.2,335.2,36.8z"/>
		<path d="M273.6,35.4c0,2.5,33.6,26.3,36.1,26.3s24.9-22.4,24.9-24.9s-22.4-24.9-24.9-24.9S273.6,33,273.6,35.4z M309.8,62.9
			c-2.6,0-37.8-24.9-37.8-27.5s35.2-24.6,37.8-24.6s26.1,23.4,26.1,26.1S312.4,62.9,309.8,62.9z"/>
	</g>
	<g>
		<path class="st0" d="M342.4,37c0,2.6-22.7,25.4-25.4,25.4s-36.6-24.2-36.6-26.8s34.1-24,36.7-24S342.4,34.4,342.4,37z"/>
		<path d="M281.2,35.6c0,2.5,33.3,26.1,35.8,26.1s24.8-22.2,24.8-24.8S319.6,12.1,317,12.1S281.2,33.1,281.2,35.6z M317.1,62.9
			c-2.7,0-37.5-24.7-37.5-27.4S314.4,11,317.1,11S343,34.2,343,36.9S319.8,62.9,317.1,62.9z"/>
	</g>
	<g>
		<path class="st0" d="M349.6,37.2c0,2.7-22.6,25.2-25.2,25.2c-2.7,0-36.4-23.9-36.4-26.6s33.7-23.9,36.4-23.9
			S349.6,34.5,349.6,37.2z"/>
		<path d="M288.7,35.8c0,2.6,33,26,35.6,26s24.6-22,24.6-24.6s-22.1-24.7-24.7-24.7S288.7,33.2,288.7,35.8z M324.4,63
			c-2.8,0-37.3-24.5-37.3-27.2s34.5-24.4,37.3-24.4s25.8,23.1,25.8,25.8S327.2,63,324.4,63z"/>
	</g>
	<g>
		<path class="st0" d="M356.8,37.3c0,2.8-22.4,25.1-25.1,25.1c-2.8,0-36.2-23.7-36.2-26.5s33.4-23.8,36.2-23.8
			C334.4,12.2,356.8,34.6,356.8,37.3z"/>
		<path d="M296.3,36c0,2.7,32.7,25.9,35.3,25.9s24.5-21.9,24.5-24.5s-21.9-24.5-24.5-24.5S296.3,33.3,296.3,36z M331.7,63.1
			c-2.8,0-37-24.3-37-27.1c0-2.8,34.2-24.3,37-24.3s25.7,22.9,25.7,25.7S334.5,63.1,331.7,63.1z"/>
	</g>
	<g>
		<path class="st0" d="M364,37.5c0,2.8-22.2,25-25,25S303.1,39,303.1,36.2s33.1-23.7,35.9-23.7S364,34.7,364,37.5z"/>
		<path d="M303.8,36.2c0,2.7,32.4,25.7,35.1,25.7s24.4-21.7,24.4-24.4c0-2.7-21.7-24.4-24.4-24.4S303.8,33.5,303.8,36.2z M339,63.1
			c-2.9,0-36.7-24-36.7-27s33.8-24.2,36.8-24.2c2.9,0,25.6,22.7,25.6,25.6C364.6,40.4,341.9,63.1,339,63.1z"/>
	</g>
	<g>
		<path class="st0" d="M371.2,37.7c0,2.9-22,24.9-24.9,24.9s-35.7-23.3-35.7-26.2s32.8-23.6,35.7-23.6S371.2,34.8,371.2,37.7z"/>
		<path d="M311.4,36.4c0,2.8,32,25.6,34.8,25.6s24.3-21.5,24.3-24.3S349,13.4,346.2,13.4S311.4,33.6,311.4,36.4z M346.3,63.2
			c-3,0-36.5-23.8-36.5-26.8s33.5-24.1,36.5-24.1s25.5,22.5,25.5,25.5S349.3,63.2,346.3,63.2z"/>
	</g>
	<g>
		<path class="st0" d="M378.3,37.9c0,3-21.8,24.8-24.8,24.8s-35.4-23.1-35.4-26.1s32.4-23.5,35.4-23.5
			C356.5,13.1,378.3,34.9,378.3,37.9z"/>
		<path d="M318.9,36.6c0,2.9,31.7,25.5,34.6,25.5s24.2-21.3,24.2-24.2c0-2.9-21.3-24.2-24.2-24.2S318.9,33.7,318.9,36.6z
			 M353.6,63.2c-3.1,0-36.2-23.6-36.2-26.7s33.2-24,36.2-24c3.1,0,25.4,22.3,25.4,25.4C379,40.9,356.7,63.2,353.6,63.2z"/>
	</g>
	<g>
		<path class="st0" d="M385.5,38c0,3-21.6,24.7-24.7,24.7c-3,0-35.2-22.9-35.2-25.9s32.1-23.4,35.2-23.4
			C363.9,13.4,385.5,35,385.5,38z"/>
		<path d="M326.5,36.8c0,2.9,31.4,25.3,34.4,25.3S385,41,385,38c0-2.9-21.1-24.1-24.1-24.1S326.5,33.8,326.5,36.8z M360.9,63.3
			c-3.1,0-36-23.4-36-26.6s32.8-23.9,36-23.9s25.2,22.1,25.2,25.2S364,63.3,360.9,63.3z"/>
	</g>
	<g>
		<path class="st0" d="M392.7,38.2c0,3.1-21.4,24.5-24.5,24.5S333.3,40,333.3,36.9c0-3.1,31.8-23.3,34.9-23.3S392.7,35.1,392.7,38.2
			z"/>
		<path d="M334,37c0,3,31.1,25.2,34.1,25.2S392,41.3,392,38.3s-20.9-24-24-24S334,34,334,37z M368.2,63.3
			c-3.2,0-35.7-23.2-35.7-26.4s32.5-23.8,35.7-23.8s25.1,21.9,25.1,25.1S371.4,63.3,368.2,63.3z"/>
	</g>
	<g>
		<path class="st0" d="M399.9,38.4c0,3.2-21.2,24.4-24.4,24.4s-34.7-22.5-34.7-25.7s31.5-23.2,34.7-23.2
			C378.7,14,399.9,35.2,399.9,38.4z"/>
		<path d="M341.6,37.2c0,3.1,30.8,25.1,33.9,25.1c3.1,0,23.8-20.7,23.8-23.8s-20.8-23.8-23.8-23.8C372.3,14.6,341.6,34.1,341.6,37.2
			z M375.5,63.4c-3.3,0-35.5-23-35.5-26.3s32.2-23.7,35.5-23.7s25,21.7,25,25S378.8,63.4,375.5,63.4z"/>
	</g>
	<g>
		<path class="st0" d="M407.1,38.6c0,3.3-21,24.3-24.3,24.3s-34.4-22.3-34.4-25.6c0-3.3,31.2-23.1,34.4-23.1S407.1,35.3,407.1,38.6z
			"/>
		<path d="M349.1,37.4c0,3.1,30.5,24.9,33.6,24.9s23.7-20.6,23.7-23.7s-20.5-23.7-23.7-23.7S349.1,34.2,349.1,37.4z M382.8,63.5
			c-3.4,0-35.2-22.8-35.2-26.1c0-3.4,31.9-23.6,35.2-23.6c3.4,0,24.9,21.5,24.9,24.9S386.2,63.5,382.8,63.5z"/>
	</g>
	<g>
		<path class="st0" d="M414.3,38.8c0,3.3-20.9,24.2-24.2,24.2s-34.2-22.1-34.2-25.4s30.8-23,34.2-23S414.3,35.4,414.3,38.8z"/>
		<path d="M356.7,37.5c0,3.2,30.1,24.8,33.4,24.8s23.6-20.4,23.6-23.6s-20.4-23.6-23.6-23.6S356.7,34.3,356.7,37.5z M390.1,63.5
			c-3.4,0-34.9-22.6-34.9-26s31.5-23.5,35-23.5S415,35.3,415,38.8C414.9,42.2,393.5,63.5,390.1,63.5z"/>
	</g>
	<g>
		<path class="st0" d="M421.4,38.9c0,3.4-20.7,24.1-24.1,24.1c-3.4,0-33.9-21.9-33.9-25.3s30.5-22.9,33.9-22.9
			C400.8,14.9,421.4,35.5,421.4,38.9z"/>
		<path d="M364.2,37.7c0,3.3,29.8,24.7,33.1,24.7s23.5-20.2,23.5-23.5s-20.2-23.5-23.5-23.5S364.2,34.5,364.2,37.7z M397.4,63.6
			c-3.5,0-34.7-22.4-34.7-25.9s31.2-23.4,34.7-23.4S422,35.4,422,38.9C422.1,42.4,400.9,63.6,397.4,63.6z"/>
	</g>
	<g>
		<path class="st0" d="M428.6,39.1c0,3.5-20.5,23.9-23.9,23.9s-33.6-21.7-33.6-25.1s30.2-22.8,33.6-22.8S428.6,35.6,428.6,39.1z"/>
		<path d="M371.8,37.9c0,3.3,29.5,24.5,32.9,24.5s23.4-20,23.4-23.4c0-3.3-20-23.4-23.4-23.4S371.8,34.6,371.8,37.9z M404.7,63.6
			c-3.6,0-34.4-22.2-34.4-25.7c0-3.6,30.9-23.3,34.4-23.3s24.5,21,24.5,24.5C429.3,42.7,408.3,63.6,404.7,63.6z"/>
	</g>
	<g>
		<path class="st0" d="M435.8,39.3c0,3.5-20.3,23.8-23.8,23.8s-33.4-21.5-33.4-25s29.9-22.7,33.4-22.7S435.8,35.7,435.8,39.3z"/>
		<path d="M379.3,38.1c0,3.4,29.2,24.4,32.6,24.4s23.2-19.8,23.2-23.2c0-3.4-19.8-23.3-23.3-23.3S379.3,34.7,379.3,38.1z M412,63.7
			c-3.6,0-34.2-22-34.2-25.6s30.6-23.2,34.2-23.2s24.4,20.8,24.4,24.4S415.7,63.7,412,63.7z"/>
	</g>
	<g>
		<path class="st0" d="M443,39.5c0,3.6-20.1,23.7-23.7,23.7c-3.6,0-33.1-21.3-33.1-24.9s29.5-22.6,33.1-22.6
			C422.9,15.7,443,35.9,443,39.5z"/>
		<path d="M386.9,38.3c0,3.5,28.9,24.3,32.4,24.3s23.1-19.7,23.1-23.1s-19.7-23.1-23.1-23.1S386.9,34.8,386.9,38.3z M419.3,63.8
			c-3.7,0-33.9-21.8-33.9-25.5s30.2-23.1,33.9-23.1s24.3,20.6,24.3,24.3S423,63.8,419.3,63.8z"/>
	</g>
	<g>
		<path class="st0" d="M450.2,39.6c0,3.7-19.9,23.6-23.6,23.6c-3.7,0-32.9-21.1-32.9-24.7c0-3.7,29.2-22.5,32.9-22.5
			S450.2,36,450.2,39.6z"/>
		<path d="M394.4,38.5c0,3.6,28.6,24.1,32.1,24.1s23-19.5,23-23c0-3.6-19.5-23-23-23S394.4,35,394.4,38.5z M426.6,63.8
			c-3.8,0-33.7-21.5-33.7-25.3s29.9-23,33.7-23s24.2,20.4,24.2,24.2C450.8,43.4,430.4,63.8,426.6,63.8z"/>
	</g>
	<g>
		<path class="st0" d="M457.4,39.8c0,3.7-19.7,23.5-23.5,23.5c-3.7,0-32.6-20.9-32.6-24.6s28.9-22.4,32.6-22.4
			C437.6,16.3,457.4,36.1,457.4,39.8z"/>
		<path d="M402,38.7c0,3.6,28.2,24,31.9,24s22.9-19.3,22.9-22.9s-19.3-22.9-23-22.9S402,35.1,402,38.7z M433.9,63.9
			c-3.9,0-33.4-21.3-33.4-25.2c0-3.9,29.6-22.9,33.4-22.9c3.9,0,24.1,20.2,24.1,24.1S437.8,63.9,433.9,63.9z"/>
	</g>
	<g>
		<path class="st0" d="M464.6,40c0,3.8-19.5,23.4-23.4,23.4c-3.8,0-32.4-20.6-32.4-24.5s28.6-22.3,32.4-22.3
			C445,16.6,464.6,36.2,464.6,40z"/>
		<path d="M409.5,38.9c0,3.7,27.9,23.9,31.6,23.9s22.8-19.1,22.8-22.8s-19.1-22.8-22.8-22.8S409.5,35.2,409.5,38.9z M441.2,63.9
			c-3.9,0-33.2-21.1-33.2-25.1c0-3.9,29.2-22.8,33.2-22.8s23.9,20,23.9,23.9C465.2,43.9,445.2,63.9,441.2,63.9z"/>
	</g>
	<g>
		<path class="st0" d="M471.7,40.2c0,3.9-19.4,23.2-23.2,23.2c-3.9,0-32.1-20.4-32.1-24.3s28.2-22.2,32.1-22.2
			C452.4,16.9,471.7,36.3,471.7,40.2z"/>
		<path d="M417.1,39.1c0,3.8,27.6,23.7,31.4,23.7s22.7-18.9,22.7-22.7c0-3.8-18.9-22.7-22.7-22.7S417.1,35.3,417.1,39.1z M448.5,64
			c-4,0-32.9-20.9-32.9-24.9s28.9-22.7,32.9-22.7s23.8,19.8,23.8,23.8C472.3,44.2,452.5,64,448.5,64z"/>
	</g>
	<g>
		<path class="st0" d="M478.9,40.4c0,4-19.2,23.1-23.1,23.1s-31.9-20.2-31.9-24.2s27.9-22.1,31.9-22.1S478.9,36.4,478.9,40.4z"/>
		<path d="M424.6,39.3c0,3.8,27.3,23.6,31.1,23.6s22.5-18.7,22.5-22.5s-18.7-22.6-22.6-22.6S424.6,35.5,424.6,39.3z M455.8,64.1
			c-4.1,0-32.6-20.7-32.6-24.8c0-4.1,28.6-22.6,32.7-22.6c4.1,0,23.7,19.6,23.7,23.7S459.9,64.1,455.8,64.1z"/>
	</g>
	<g>
		<path class="st0" d="M486.1,40.5c0,4-19,23-23,23s-31.6-20-31.6-24.1s27.6-22,31.6-22S486.1,36.5,486.1,40.5z"/>
		<path d="M432.2,39.5c0,3.9,27,23.5,30.9,23.5s22.4-18.5,22.4-22.4S467,18.2,463.1,18.2S432.2,35.6,432.2,39.5z M463.1,64.1
			c-4.2,0-32.4-20.5-32.4-24.7s28.2-22.5,32.4-22.5s23.6,19.4,23.6,23.6S467.3,64.1,463.1,64.1z"/>
	</g>
	<g>
		<path class="st0" d="M493.3,40.7c0,4.1-18.8,22.9-22.9,22.9S439,43.8,439,39.7s27.3-21.9,31.4-21.9S493.3,36.6,493.3,40.7z"/>
		<path d="M439.7,39.7c0,4,26.7,23.3,30.6,23.3s22.3-18.4,22.3-22.3s-18.4-22.3-22.3-22.3S439.7,35.7,439.7,39.7z M470.4,64.2
			c-4.2,0-32.1-20.3-32.1-24.5s27.9-22.4,32.1-22.4c4.2,0,23.5,19.2,23.5,23.5S474.7,64.2,470.4,64.2z"/>
	</g>
	<g>
		<path class="st0" d="M500.5,40.9c0,4.2-18.6,22.8-22.8,22.8s-31.1-19.6-31.1-23.8s27-21.8,31.1-21.8
			C481.9,18.1,500.5,36.7,500.5,40.9z"/>
		<path d="M447.3,39.9c0,4,26.3,23.2,30.4,23.2s22.2-18.2,22.2-22.2s-18.2-22.2-22.2-22.2S447.3,35.8,447.3,39.9z M477.7,64.2
			c-4.3,0-31.9-20.1-31.9-24.4s27.6-22.3,31.9-22.3s23.3,19,23.3,23.3C501.1,45.2,482,64.2,477.7,64.2z"/>
	</g>
	<g>
		<path class="st0" d="M507.7,41.1c0,4.2-18.4,22.7-22.7,22.7s-30.9-19.4-30.9-23.7s26.6-21.6,30.9-21.6S507.7,36.8,507.7,41.1z"/>
		<path d="M454.8,40.1c0,4.1,26,23.1,30.1,23.1s22.1-18,22.1-22.1S489,19,484.9,19S454.8,36,454.8,40.1z M485,64.3
			c-4.4,0-31.6-19.9-31.6-24.3s27.3-22.2,31.6-22.2s23.2,18.8,23.2,23.2C508.3,45.4,489.4,64.3,485,64.3z"/>
	</g>
	<g>
		<path class="st0" d="M514.8,41.2c0,4.3-18.2,22.5-22.5,22.5s-30.6-19.2-30.6-23.5s26.3-21.5,30.6-21.5S514.8,36.9,514.8,41.2z"/>
		<path d="M462.4,40.3c0,4.2,25.7,22.9,29.9,22.9s22-17.8,22-22s-17.8-22-22-22S462.4,36.1,462.4,40.3z M492.3,64.4
			c-4.4,0-31.4-19.7-31.4-24.1s26.9-22.1,31.4-22.1s23.1,18.7,23.1,23.1S496.8,64.4,492.3,64.4z"/>
	</g>
	<g>
		<path class="st0" d="M522,41.4c0,4.4-18,22.4-22.4,22.4s-30.4-19-30.4-23.4s26-21.4,30.4-21.4S522,37,522,41.4z"/>
		<path d="M469.9,40.5c0,4.2,25.4,22.8,29.6,22.8s21.9-17.6,21.9-21.9c0-4.2-17.6-21.9-21.9-21.9S469.9,36.2,469.9,40.5z
			 M499.6,64.4c-4.5,0-31.1-19.5-31.1-24s26.6-22,31.1-22s23,18.5,23,23S504.2,64.4,499.6,64.4z"/>
	</g>
	<g>
		<path class="st0" d="M529.2,41.6c0,4.5-17.8,22.3-22.3,22.3s-30.1-18.8-30.1-23.3s25.7-21.3,30.1-21.3
			C511.4,19.3,529.2,37.1,529.2,41.6z"/>
		<path d="M477.5,40.6c0,4.3,25.1,22.7,29.4,22.7s21.7-17.4,21.7-21.7s-17.4-21.7-21.7-21.7S477.5,36.3,477.5,40.6z M506.9,64.5
			c-4.6,0-30.9-19.3-30.9-23.8s26.3-21.9,30.9-21.9c4.6,0,22.9,18.3,22.9,22.9S511.5,64.5,506.9,64.5z"/>
	</g>
	<g>
		<path class="st0" d="M536.4,41.8c0,4.5-17.7,22.2-22.2,22.2c-4.5,0-29.9-18.6-29.9-23.1s25.3-21.2,29.9-21.2
			C518.8,19.7,536.4,37.2,536.4,41.8z"/>
		<path d="M485,40.8c0,4.4,24.8,22.5,29.1,22.5c4.3,0,21.6-17.2,21.6-21.6s-17.3-21.6-21.6-21.6C509.8,20.1,485,36.5,485,40.8z
			 M514.2,64.5c-4.7,0-30.6-19-30.6-23.7S509.5,19,514.2,19c4.7,0,22.7,18.1,22.7,22.7S518.9,64.5,514.2,64.5z"/>
	</g>
	<g>
		<path class="st0" d="M543.6,41.9c0,4.6-17.5,22.1-22.1,22.1s-29.6-18.4-29.6-23s25-21.1,29.6-21.1S543.6,37.4,543.6,41.9z"/>
		<path d="M492.6,41c0,4.4,24.4,22.4,28.9,22.4S543,46.3,543,41.9s-17.1-21.5-21.5-21.5S492.6,36.6,492.6,41z M521.5,64.6
			c-4.7,0-30.3-18.8-30.3-23.6c0-4.7,25.6-21.7,30.3-21.7c4.7,0,22.6,17.9,22.6,22.6S526.3,64.6,521.5,64.6z"/>
	</g>
	<g>
		<path class="st0" d="M550.8,42.1c0,4.7-17.3,22-22,22c-4.7,0-29.4-18.2-29.4-22.9s24.7-21,29.4-21
			C533.5,20.2,550.8,37.5,550.8,42.1z"/>
		<path d="M500.1,41.2c0,4.5,24.1,22.3,28.6,22.3s21.4-16.9,21.4-21.4s-16.9-21.4-21.4-21.4S500.1,36.7,500.1,41.2z M528.8,64.6
			c-4.8,0-30.1-18.6-30.1-23.4s25.3-21.6,30.1-21.6c4.8,0,22.5,17.7,22.5,22.5C551.4,46.9,533.6,64.6,528.8,64.6z"/>
	</g>
	<g>
		<path class="st0" d="M557.9,42.3c0,4.7-17.1,21.8-21.8,21.8c-4.7,0-29.1-18-29.1-22.7s24.4-20.9,29.1-20.9S557.9,37.6,557.9,42.3z
			"/>
		<path d="M507.7,41.4c0,4.6,23.8,22.2,28.4,22.2c4.6,0,21.3-16.7,21.3-21.3S540.7,21,536.1,21S507.7,36.8,507.7,41.4z M536.1,64.7
			c-4.9,0-29.8-18.4-29.8-23.3s24.9-21.5,29.8-21.5c4.9,0,22.4,17.5,22.4,22.4S541,64.7,536.1,64.7z"/>
	</g>
	<g>
		<path class="st0" d="M565.1,42.5c0,4.8-16.9,21.7-21.7,21.7c-4.8,0-28.9-17.8-28.9-22.6c0-4.8,24-20.8,28.9-20.8
			S565.1,37.7,565.1,42.5z"/>
		<path d="M515.2,41.6c0,4.6,23.5,22,28.1,22s21.2-16.5,21.2-21.2S548,21.2,543.3,21.2C538.6,21.2,515.2,37,515.2,41.6z M543.4,64.8
			c-5,0-29.6-18.2-29.6-23.2s24.6-21.4,29.6-21.4s22.3,17.3,22.3,22.3S548.4,64.8,543.4,64.8z"/>
	</g>
	<g>
		<path class="st0" d="M572.3,42.7c0,4.9-16.7,21.6-21.6,21.6c-4.9,0-28.6-17.6-28.6-22.5s23.7-20.7,28.6-20.7
			C555.6,21.1,572.3,37.8,572.3,42.7z"/>
		<path d="M522.8,41.8c0,4.7,23.2,21.9,27.9,21.9c4.7,0,21-16.3,21-21s-16.3-21-21-21C546,21.7,522.8,37.1,522.8,41.8z M550.7,64.8
			c-5,0-29.3-18-29.3-23s24.3-21.3,29.3-21.3s22.2,17.1,22.2,22.2C572.9,47.7,555.8,64.8,550.7,64.8z"/>
	</g>
	<g>
		<path class="st0" d="M579.5,42.8c0,5-16.5,21.5-21.5,21.5S529.6,46.9,529.6,42S553,21.4,558,21.4S579.5,37.9,579.5,42.8z"/>
		<path d="M530.3,42c0,4.8,22.9,21.8,27.7,21.8c4.8,0,20.9-16.1,20.9-20.9s-16.1-21-20.9-21S530.3,37.2,530.3,42z M558,64.9
			c-5.1,0-29.1-17.8-29.1-22.9s24-21.2,29.1-21.2s22,16.9,22,22S563.1,64.9,558,64.9z"/>
	</g>
	<g>
		<path class="st0" d="M586.7,43c0,5-16.3,21.4-21.4,21.4c-5.1,0-28.1-17.2-28.1-22.2s23.1-20.5,28.1-20.5S586.7,38,586.7,43z"/>
		<path d="M537.9,42.2c0,4.9,22.6,21.6,27.4,21.6s20.8-16,20.8-20.8c0-4.9-16-20.8-20.8-20.8C560.5,22.2,537.9,37.3,537.9,42.2z
			 M565.3,64.9c-5.2,0-28.8-17.6-28.8-22.8S560.1,21,565.3,21c5.2,0,21.9,16.7,21.9,21.9S570.5,64.9,565.3,64.9z"/>
	</g>
	<g>
		<path class="st0" d="M593.9,43.2c0,5.1-16.2,21.2-21.2,21.2s-27.9-17-27.9-22.1s22.8-20.4,27.9-20.4
			C577.8,21.9,593.9,38.1,593.9,43.2z"/>
		<path d="M545.4,42.4c0,4.9,22.2,21.5,27.2,21.5s20.7-15.8,20.7-20.7c0-4.9-15.8-20.7-20.7-20.7S545.4,37.5,545.4,42.4z M572.6,65
			c-5.2,0-28.5-17.4-28.5-22.6s23.3-21,28.6-21c5.3,0,21.8,16.6,21.8,21.8C594.5,48.4,577.9,65,572.6,65z"/>
	</g>
	<g>
		<path class="st0" d="M601.1,43.4c0,5.2-16,21.1-21.1,21.1c-5.2,0-27.6-16.8-27.6-21.9c0-5.2,22.4-20.3,27.6-20.3
			C585.1,22.2,601.1,38.2,601.1,43.4z"/>
		<path d="M553,42.6c0,5,21.9,21.4,26.9,21.4s20.6-15.6,20.6-20.6s-15.6-20.6-20.6-20.6S553,37.6,553,42.6z M579.9,65.1
			c-5.3,0-28.3-17.2-28.3-22.5s23-20.9,28.3-20.9c5.3,0,21.7,16.4,21.7,21.7C601.6,48.7,585.3,65.1,579.9,65.1z"/>
	</g>
	<g>
		<path class="st0" d="M608.2,43.5c0,5.2-15.8,21-21,21c-5.2,0-27.3-16.6-27.3-21.8c0-5.2,22.1-20.2,27.3-20.2
			C592.4,22.5,608.2,38.3,608.2,43.5z"/>
		<path d="M560.5,42.8c0,5.1,21.6,21.2,26.7,21.2c5.1,0,20.5-15.4,20.5-20.5S592.3,23,587.2,23S560.5,37.7,560.5,42.8z M587.2,65.1
			c-5.4,0-28-17-28-22.4s22.6-20.8,28-20.8s21.6,16.2,21.6,21.6C608.8,48.9,592.6,65.1,587.2,65.1z"/>
	</g>
	<g>
		<path class="st0" d="M615.4,43.7c0,5.3-15.6,20.9-20.9,20.9S567.4,48.3,567.4,43s21.8-20.1,27.1-20.1
			C599.8,22.9,615.4,38.4,615.4,43.7z"/>
		<path d="M568.1,43c0,5.1,21.3,21.1,26.4,21.1c5.1,0,20.3-15.2,20.3-20.3s-15.2-20.3-20.3-20.3S568.1,37.9,568.1,43z M594.5,65.2
			c-5.5,0-27.8-16.8-27.8-22.2c0-5.5,22.3-20.7,27.8-20.7s21.4,16,21.4,21.4S600,65.2,594.5,65.2z"/>
	</g>
	<g>
		<path class="st0" d="M622.6,43.9c0,5.4-15.4,20.8-20.8,20.8c-5.4,0-26.8-16.1-26.8-21.5s21.5-20,26.8-20
			C607.2,23.1,622.6,38.5,622.6,43.9z"/>
		<path d="M575.6,43.2c0,5.2,21,21,26.2,21c5.2,0,20.2-15,20.2-20.2s-15-20.2-20.2-20.2C596.6,23.8,575.6,38,575.6,43.2z
			 M601.8,65.2c-5.5,0-27.5-16.5-27.5-22.1s22-20.6,27.5-20.6s21.3,15.8,21.3,21.3S607.4,65.2,601.8,65.2z"/>
	</g>
	<g>
		<path class="st0" d="M629.8,44.1c0,5.4-15.2,20.7-20.7,20.7c-5.4,0-26.6-15.9-26.6-21.4c0-5.4,21.1-19.9,26.6-19.9
			C614.6,23.4,629.8,38.6,629.8,44.1z"/>
		<path d="M583.2,43.4c0,5.3,20.7,20.8,25.9,20.8c5.2,0,20.1-14.8,20.1-20.1S614.3,24,609.1,24S583.2,38.1,583.2,43.4z M609.1,65.3
			c-5.6,0-27.3-16.3-27.3-22s21.7-20.5,27.3-20.5s21.2,15.6,21.2,21.2S614.8,65.3,609.1,65.3z"/>
	</g>
	<g>
		<path class="st0" d="M637,44.3c0,5.5-15,20.5-20.5,20.5s-26.3-15.7-26.3-21.3c0-5.5,20.8-19.8,26.3-19.8
			C621.9,23.7,637,38.7,637,44.3z"/>
		<path d="M590.7,43.6c0,5.3,20.3,20.7,25.7,20.7s20-14.7,20-20s-14.7-20-20-20C611.1,24.3,590.7,38.2,590.7,43.6z M616.4,65.4
			c-5.7,0-27-16.1-27-21.8s21.3-20.4,27-20.4c5.7,0,21.1,15.4,21.1,21.1S622.1,65.4,616.4,65.4z"/>
	</g>
	<g>
		<path class="st0" d="M644.2,44.4c0,5.6-14.8,20.4-20.4,20.4c-5.6,0-26.1-15.5-26.1-21.1S618.2,24,623.8,24
			C629.3,24,644.2,38.8,644.2,44.4z"/>
		<path d="M598.3,43.8c0,5.4,20,20.6,25.4,20.6s19.9-14.5,19.9-19.9s-14.5-19.9-19.9-19.9S598.3,38.4,598.3,43.8z M623.8,65.4
			c-5.8,0-26.8-15.9-26.8-21.7c0-5.8,21-20.3,26.8-20.3c5.8,0,21,15.2,21,21C644.7,50.2,629.5,65.4,623.8,65.4z"/>
	</g>
	<g>
		<path class="st0" d="M651.3,44.6c0,5.7-14.7,20.3-20.3,20.3c-5.7,0-25.8-15.3-25.8-21s20.2-19.6,25.8-19.6
			C636.7,24.3,651.3,39,651.3,44.6z"/>
		<path d="M605.8,43.9c0,5.5,19.7,20.4,25.2,20.4s19.8-14.3,19.8-19.8S636.5,24.7,631,24.7S605.8,38.5,605.8,43.9z M631.1,65.5
			c-5.8,0-26.5-15.7-26.5-21.5s20.7-20.2,26.5-20.2c5.8,0,20.9,15,20.9,20.9S636.9,65.5,631.1,65.5z"/>
	</g>
	<g>
		<path class="st0" d="M658.5,44.8c0,5.7-14.5,20.2-20.2,20.2c-5.7,0-25.6-15.1-25.6-20.9s19.9-19.5,25.6-19.5
			S658.5,39.1,658.5,44.8z"/>
		<path d="M613.4,44.1c0,5.5,19.4,20.3,24.9,20.3s19.6-14.1,19.6-19.6s-14.1-19.7-19.7-19.7C632.6,25.1,613.4,38.6,613.4,44.1z
			 M638.4,65.5c-5.9,0-26.2-15.5-26.2-21.4S632.5,24,638.4,24s20.7,14.8,20.7,20.7C659.1,50.7,644.3,65.5,638.4,65.5z"/>
	</g>
	<g>
		<path class="st0" d="M665.7,45c0,5.8-14.3,20.1-20.1,20.1c-5.8,0-25.3-14.9-25.3-20.7S639.8,25,645.6,25
			C651.4,25,665.7,39.2,665.7,45z"/>
		<path d="M620.9,44.3c0,5.6,19.1,20.2,24.7,20.2c5.6,0,19.5-13.9,19.5-19.5s-13.9-19.5-19.5-19.5S620.9,38.7,620.9,44.3z
			 M645.7,65.6c-6,0-26-15.3-26-21.3s20-20,26-20s20.6,14.6,20.6,20.6S651.6,65.6,645.7,65.6z"/>
	</g>
	<g>
		<path class="st0" d="M672.9,45.1c0,5.9-14.1,20-20,20s-25.1-14.7-25.1-20.6s19.2-19.3,25.1-19.3C658.8,25.2,672.9,39.3,672.9,45.1
			z"/>
		<path d="M628.5,44.5c0,5.7,18.8,20,24.4,20c5.6,0,19.4-13.7,19.4-19.4s-13.7-19.4-19.4-19.4C647.2,25.7,628.5,38.9,628.5,44.5z
			 M653,65.7c-6.1,0-25.7-15.1-25.7-21.1S647,24.7,653,24.7s20.5,14.4,20.5,20.5S659,65.7,653,65.7z"/>
	</g>
	<g>
		<path class="st0" d="M680.1,45.3c0,5.9-13.9,19.8-19.8,19.8c-5.9,0-24.8-14.5-24.8-20.5c0-5.9,18.9-19.2,24.8-19.2
			C666.2,25.5,680.1,39.4,680.1,45.3z"/>
		<path d="M636,44.7c0,5.7,18.4,19.9,24.2,19.9c5.8,0,19.3-13.6,19.3-19.3S665.9,26,660.2,26C654.5,26,636,39,636,44.7z M660.3,65.7
			c-6.1,0-25.5-14.9-25.5-21s19.4-19.8,25.5-19.8s20.4,14.3,20.4,20.4S666.4,65.7,660.3,65.7z"/>
	</g>
	<g>
		<path class="st0" d="M687.3,45.5c0,6-13.7,19.7-19.7,19.7S643,50.9,643,44.9s18.6-19.1,24.6-19.1S687.3,39.5,687.3,45.5z"/>
		<path d="M643.6,44.9c0,5.8,18.1,19.8,23.9,19.8s19.2-13.4,19.2-19.2s-13.4-19.2-19.2-19.2C661.7,26.3,643.6,39.1,643.6,44.9z
			 M667.6,65.8c-6.2,0-25.2-14.7-25.2-20.9c0-6.2,19-19.7,25.2-19.7c6.2,0,20.3,14.1,20.3,20.3S673.8,65.8,667.6,65.8z"/>
	</g>
	<g>
		<path class="st0" d="M694.4,45.7c0,6.1-13.5,19.6-19.6,19.6s-24.3-14.1-24.3-20.2s18.2-19,24.3-19
			C680.9,26.1,694.4,39.6,694.4,45.7z"/>
		<path d="M651.1,45.1c0,5.9,17.8,19.6,23.7,19.6s19.1-13.2,19.1-19.1s-13.2-19.1-19.1-19.1C668.9,26.5,651.1,39.2,651.1,45.1z
			 M674.9,65.8c-6.3,0-25-14.5-25-20.7c0-6.3,18.7-19.6,25-19.6c6.3,0,20.1,13.9,20.1,20.1C695,52,681.1,65.8,674.9,65.8z"/>
	</g>
	<g>
		<path class="st0" d="M701.6,45.9c0,6.2-13.3,19.5-19.5,19.5c-6.2,0-24.1-13.9-24.1-20.1s17.9-18.9,24.1-18.9
			C688.3,26.4,701.6,39.7,701.6,45.9z"/>
		<path d="M658.7,45.3c0,5.9,17.5,19.5,23.4,19.5s18.9-13,18.9-18.9s-13-19-19-19S658.7,39.4,658.7,45.3z M682.2,65.9
			c-6.3,0-24.7-14.3-24.7-20.6s18.4-19.5,24.7-19.5c6.3,0,20,13.7,20,20S688.5,65.9,682.2,65.9z"/>
	</g>
	<g>
		<path class="st0" d="M708.8,46c0,6.2-13.1,19.4-19.4,19.4s-23.8-13.7-23.8-19.9c0-6.2,17.6-18.8,23.8-18.8
			C695.6,26.7,708.8,39.8,708.8,46z"/>
		<path d="M666.2,45.5c0,6,17.2,19.4,23.2,19.4s18.8-12.8,18.8-18.8s-12.8-18.8-18.8-18.8S666.2,39.5,666.2,45.5z M689.5,65.9
			c-6.4,0-24.4-14-24.4-20.5s18-19.4,24.5-19.4c6.4,0,19.9,13.5,19.9,19.9C709.4,52.5,695.9,65.9,689.5,65.9z"/>
	</g>
	<g>
		<path class="st0" d="M716,46.2c0,6.3-13,19.3-19.3,19.3c-6.3,0-23.6-13.5-23.6-19.8S690.4,27,696.7,27C703,27,716,39.9,716,46.2z"
			/>
		<path d="M673.8,45.7c0,6.1,16.9,19.2,22.9,19.2s18.7-12.6,18.7-18.7s-12.6-18.7-18.7-18.7C690.6,27.5,673.8,39.6,673.8,45.7z
			 M696.8,66c-6.5,0-24.2-13.8-24.2-20.3s17.7-19.3,24.2-19.3s19.8,13.3,19.8,19.8S703.3,66,696.8,66z"/>
	</g>
	<g>
		<path class="st0" d="M723.2,46.4c0,6.4-12.8,19.1-19.1,19.1c-6.3,0-23.3-13.3-23.3-19.7s16.9-18.6,23.3-18.6
			C710.5,27.2,723.2,40,723.2,46.4z"/>
		<path d="M681.3,45.9c0,6.2,16.5,19.1,22.7,19.1c6.2,0,18.6-12.4,18.6-18.6S710.1,27.8,704,27.8S681.3,39.7,681.3,45.9z
			 M704.1,66.1c-6.6,0-23.9-13.6-23.9-20.2s17.4-19.2,23.9-19.2s19.7,13.1,19.7,19.7S710.6,66.1,704.1,66.1z"/>
	</g>
	<g>
		<path class="st0" d="M730.4,46.6c0,6.4-12.6,19-19,19s-23.1-13.1-23.1-19.5s16.6-18.5,23.1-18.5C717.8,27.5,730.4,40.1,730.4,46.6
			z"/>
		<path d="M688.9,46.1c0,6.2,16.2,19,22.4,19c6.2,0,18.5-12.3,18.5-18.5s-12.3-18.5-18.5-18.5C705.1,28.1,688.9,39.9,688.9,46.1z
			 M711.4,66.1c-6.6,0-23.7-13.4-23.7-20.1s17.1-19,23.7-19C718,27,731,39.9,731,46.6C730.9,53.2,718,66.1,711.4,66.1z"/>
	</g>
	<g>
		<path class="st0" d="M737.6,46.7c0,6.5-12.4,18.9-18.9,18.9s-22.8-12.9-22.8-19.4s16.3-18.4,22.8-18.4S737.6,40.2,737.6,46.7z"/>
		<path d="M696.4,46.3c0,6.3,15.9,18.8,22.2,18.8c6.3,0,18.4-12.1,18.4-18.4s-12.1-18.4-18.4-18.4S696.4,40,696.4,46.3z M718.7,66.2
			c-6.7,0-23.4-13.2-23.4-19.9c0-6.7,16.7-18.9,23.4-18.9c6.7,0,19.4,12.7,19.4,19.4S725.4,66.2,718.7,66.2z"/>
	</g>
	<g>
		<path class="st0" d="M744.7,46.9c0,6.6-12.2,18.8-18.8,18.8S703.3,53,703.3,46.5s16-18.3,22.6-18.3
			C732.5,28.1,744.7,40.3,744.7,46.9z"/>
		<path d="M704,46.5c0,6.4,15.6,18.7,21.9,18.7s18.3-11.9,18.3-18.3s-11.9-18.3-18.3-18.3C719.5,28.6,704,40.1,704,46.5z M726,66.2
			c-6.8,0-23.2-13-23.2-19.8s16.4-18.8,23.2-18.8c6.8,0,19.3,12.5,19.3,19.3C745.3,53.7,732.7,66.2,726,66.2z"/>
	</g>
	<g>
		<path class="st0" d="M751.9,47.1c0,6.7-12,18.7-18.7,18.7c-6.7,0-22.3-12.5-22.3-19.1s15.7-18.2,22.3-18.2
			C739.9,28.4,751.9,40.5,751.9,47.1z"/>
		<path d="M711.5,46.7c0,6.4,15.3,18.6,21.7,18.6s18.1-11.7,18.1-18.1s-11.7-18.1-18.1-18.1C726.8,29.1,711.5,40.2,711.5,46.7z
			 M733.3,66.3c-6.9,0-22.9-12.8-22.9-19.7s16-18.7,22.9-18.7s19.2,12.3,19.2,19.2S740.1,66.3,733.3,66.3z"/>
	</g>
	<g>
		<path class="st0" d="M759.1,47.3c0,6.7-11.8,18.6-18.6,18.6c-6.7,0-22.1-12.3-22.1-19s15.3-18.1,22.1-18.1
			C747.3,28.7,759.1,40.6,759.1,47.3z"/>
		<path d="M719.1,46.9c0,6.5,15,18.4,21.5,18.4s18-11.5,18-18s-11.5-18-18-18S719.1,40.4,719.1,46.9z M740.6,66.4
			c-6.9,0-22.7-12.6-22.7-19.5s15.7-18.6,22.7-18.6s19.1,12.2,19.1,19.1S747.5,66.4,740.6,66.4z"/>
	</g>
	<g>
		<path class="st0" d="M766.3,47.5c0,6.8-11.6,18.4-18.4,18.4s-21.8-12.1-21.8-18.8c0-6.8,15-18,21.8-18
			C754.7,29.1,766.3,40.7,766.3,47.5z"/>
		<path d="M726.6,47.1c0,6.6,14.6,18.3,21.2,18.3c6.6,0,17.9-11.3,17.9-17.9s-11.3-17.9-17.9-17.9C741.2,29.6,726.6,40.5,726.6,47.1
			z M747.9,66.4c-7,0-22.4-12.4-22.4-19.4s15.4-18.5,22.4-18.5s19,12,19,19S754.9,66.4,747.9,66.4z"/>
	</g>
	<g>
		<path class="st0" d="M773.5,47.6c0,6.9-11.5,18.3-18.3,18.3c-6.8,0-21.5-11.9-21.5-18.7s14.7-17.9,21.5-17.9
			C762,29.3,773.5,40.8,773.5,47.6z"/>
		<path d="M734.2,47.2c0,6.6,14.3,18.2,21,18.2c6.7,0,17.8-11.2,17.8-17.8s-11.2-17.8-17.8-17.8S734.2,40.6,734.2,47.2z M755.2,66.5
			c-7.1,0-22.1-12.2-22.1-19.2s15.1-18.4,22.1-18.4S774,40.7,774,47.7S762.2,66.5,755.2,66.5z"/>
	</g>
	<g>
		<path class="st0" d="M780.7,47.8c0,6.9-11.3,18.2-18.2,18.2s-21.3-11.6-21.3-18.6s14.4-17.8,21.3-17.8
			C769.4,29.6,780.7,40.9,780.7,47.8z"/>
		<path d="M741.7,47.4c0,6.7,14,18,20.7,18c6.7,0,17.7-11,17.7-17.7S769.1,30,762.4,30C755.7,30,741.7,40.7,741.7,47.4z M762.5,66.5
			c-7.1,0-21.9-12-21.9-19.1s14.7-18.3,21.9-18.3c7.1,0,18.7,11.6,18.7,18.7C781.2,55,769.6,66.5,762.5,66.5z"/>
	</g>
	<g>
		<path class="st0" d="M787.8,48c0,7-11.1,18.1-18.1,18.1s-21-11.4-21-18.4s14-17.7,21-17.7S787.8,41,787.8,48z"/>
		<path d="M749.3,47.6c0,6.8,13.7,17.9,20.5,17.9c6.8,0,17.6-10.8,17.6-17.6s-10.8-17.6-17.6-17.6C763,30.3,749.3,40.9,749.3,47.6z
			 M769.8,66.6c-7.2,0-21.6-11.8-21.6-19s14.4-18.2,21.6-18.2s18.6,11.4,18.6,18.6C788.4,55.2,777,66.6,769.8,66.6z"/>
	</g>
	<g>
		<path class="st0" d="M795,48.2c0,7.1-10.9,18-18,18S756.2,55,756.2,47.9c0-7.1,13.7-17.6,20.8-17.6S795,41.1,795,48.2z"/>
		<path d="M756.8,47.8c0,6.8,13.4,17.8,20.2,17.8c6.8,0,17.4-10.6,17.4-17.4S783.8,30.8,777,30.8S756.8,41,756.8,47.8z M777.1,66.7
			c-7.3,0-21.4-11.6-21.4-18.8c0-7.3,14.1-18.1,21.4-18.1s18.5,11.2,18.5,18.5C795.6,55.5,784.4,66.7,777.1,66.7z"/>
	</g>
	<g>
		<path class="st0" d="M802.2,48.3c0,7.1-10.7,17.8-17.8,17.8s-20.5-11-20.5-18.2c0-7.1,13.4-17.5,20.5-17.5
			C791.5,30.5,802.2,41.2,802.2,48.3z"/>
		<path d="M764.4,48c0,6.9,13.1,17.6,20,17.6s17.3-10.4,17.3-17.3S791.3,31,784.4,31C777.5,31,764.4,41.1,764.4,48z M784.4,66.7
			c-7.4,0-21.1-11.3-21.1-18.7s13.8-18,21.1-18c7.4,0,18.4,11,18.4,18.4S791.7,66.7,784.4,66.7z"/>
	</g>
	<g>
		<path class="st0" d="M809.4,48.5c0,7.2-10.5,17.7-17.7,17.7c-7.2,0-20.3-10.8-20.3-18s13.1-17.4,20.3-17.4
			C798.9,30.8,809.4,41.3,809.4,48.5z"/>
		<path d="M771.9,48.2c0,7,12.7,17.5,19.7,17.5s17.2-10.2,17.2-17.2s-10.2-17.2-17.2-17.2S771.9,41.2,771.9,48.2z M791.7,66.8
			c-7.4,0-20.9-11.1-20.9-18.6s13.4-17.9,20.9-17.9s18.2,10.8,18.2,18.2S799.1,66.8,791.7,66.8z"/>
	</g>
	<g>
		<path class="st0" d="M816.6,48.7c0,7.3-10.3,17.6-17.6,17.6c-7.3,0-20-10.6-20-17.9s12.8-17.3,20-17.3
			C806.2,31.1,816.6,41.4,816.6,48.7z"/>
		<path d="M779.5,48.4c0,7,12.4,17.4,19.5,17.4s17.1-10,17.1-17.1c0-7-10.1-17.1-17.1-17.1S779.5,41.4,779.5,48.4z M799,66.8
			c-7.5,0-20.6-10.9-20.6-18.4s13.1-17.8,20.6-17.8s18.1,10.6,18.1,18.1C817.1,56.2,806.5,66.8,799,66.8z"/>
	</g>
	<g>
		<path class="st0" d="M823.8,48.9c0,7.4-10.1,17.5-17.5,17.5S786.5,56,786.5,48.6s12.4-17.2,19.8-17.2
			C813.7,31.4,823.8,41.5,823.8,48.9z"/>
		<path d="M787,48.6c0,7.1,12.1,17.3,19.2,17.3c7.1,0,17-9.9,17-17s-9.9-17-17-17S787,41.5,787,48.6z M806.3,66.9
			c-7.6,0-20.4-10.7-20.4-18.3s12.8-17.7,20.4-17.7c7.6,0,18,10.4,18,18S813.9,66.9,806.3,66.9z"/>
	</g>
	<g>
		<path class="st0" d="M831,49.1c0,7.4-9.9,17.4-17.4,17.4c-7.4,0-19.5-10.2-19.5-17.6s12.1-17.1,19.5-17.1
			C821,31.7,831,41.6,831,49.1z"/>
		<path d="M794.6,48.8c0,7.2,11.8,17.1,19,17.1c7.2,0,16.9-9.7,16.9-16.9c0-7.2-9.7-16.9-16.9-16.9
			C806.4,32.1,794.6,41.6,794.6,48.8z M813.6,67c-7.7,0-20.1-10.5-20.1-18.2s12.4-17.6,20.1-17.6c7.7,0,17.9,10.2,17.9,17.9
			C831.5,56.7,821.2,67,813.6,67z"/>
	</g>
	<g>
		<path class="st0" d="M838.1,49.2c0,7.5-9.8,17.3-17.3,17.3s-19.3-10-19.3-17.5s11.8-17,19.3-17S838.1,41.7,838.1,49.2z"/>
		<path d="M802.1,49c0,7.2,11.5,17,18.7,17c7.2,0,16.7-9.5,16.7-16.7s-9.5-16.7-16.7-16.7C813.6,32.6,802.1,41.7,802.1,49z
			 M820.9,67c-7.7,0-19.8-10.3-19.8-18s12.1-17.5,19.8-17.5c7.7,0,17.8,10,17.8,17.8C838.7,57,828.6,67,820.9,67z"/>
	</g>
	<g>
		<path class="st0" d="M845.3,49.4c0,7.6-9.6,17.1-17.1,17.1s-19-9.8-19-17.4s11.5-16.9,19-16.9S845.3,41.8,845.3,49.4z"/>
		<path d="M809.7,49.2c0,7.3,11.2,16.9,18.5,16.9c7.3,0,16.6-9.3,16.6-16.6s-9.3-16.6-16.6-16.6C820.9,32.9,809.7,41.9,809.7,49.2z
			 M828.2,67.1c-7.8,0-19.6-10.1-19.6-17.9s11.8-17.4,19.6-17.4c7.8,0,17.7,9.9,17.7,17.7S836,67.1,828.2,67.1z"/>
	</g>
	<g>
		<path class="st0" d="M852.5,49.6c0,7.6-9.4,17-17,17s-18.8-9.6-18.8-17.2s11.1-16.8,18.8-16.8C843.1,32.6,852.5,41.9,852.5,49.6z"
			/>
		<path d="M817.2,49.4c0,7.4,10.8,16.7,18.2,16.7s16.5-9.1,16.5-16.5s-9.1-16.5-16.5-16.5S817.2,42,817.2,49.4z M835.5,67.1
			c-7.9,0-19.3-9.9-19.3-17.8S827.7,32,835.5,32c7.9,0,17.5,9.7,17.5,17.5S843.4,67.1,835.5,67.1z"/>
	</g>
	<g>
		<path class="st0" d="M859.7,49.8c0,7.7-9.2,16.9-16.9,16.9c-7.7,0-18.5-9.4-18.5-17.1s10.8-16.7,18.5-16.7
			C850.5,32.9,859.7,42.1,859.7,49.8z"/>
		<path d="M824.8,49.6c0,7.5,10.5,16.6,18,16.6s16.4-8.9,16.4-16.4s-8.9-16.4-16.4-16.4S824.8,42.1,824.8,49.6z M842.8,67.2
			c-7.9,0-19.1-9.7-19.1-17.6s11.1-17.2,19.1-17.2s17.4,9.5,17.4,17.4S850.7,67.2,842.8,67.2z"/>
	</g>
	<g>
		<path class="st0" d="M866.9,49.9c0,7.8-9,16.8-16.8,16.8c-7.8,0-18.3-9.2-18.3-17s10.5-16.6,18.3-16.6
			C857.9,33.2,866.9,42.2,866.9,49.9z"/>
		<path d="M832.3,49.8c0,7.5,10.2,16.5,17.7,16.5s16.3-8.8,16.3-16.3s-8.8-16.3-16.3-16.3S832.3,42.2,832.3,49.8z M850.1,67.2
			c-8,0-18.8-9.5-18.8-17.5s10.8-17.1,18.8-17.1s17.3,9.3,17.3,17.3C867.4,58,858.1,67.2,850.1,67.2z"/>
	</g>
	<g>
		<path class="st0" d="M874.1,50.1c0,7.9-8.8,16.7-16.7,16.7s-18-9-18-16.8c0-7.9,10.2-16.5,18-16.5
			C865.2,33.4,874.1,42.3,874.1,50.1z"/>
		<path d="M839.9,50c0,7.6,9.9,16.3,17.5,16.3s16.2-8.6,16.2-16.2s-8.6-16.2-16.2-16.2S839.9,42.4,839.9,50z M857.4,67.3
			c-8.1,0-18.6-9.3-18.6-17.4s10.5-17,18.6-17s17.2,9.1,17.2,17.2C874.6,58.2,865.5,67.3,857.4,67.3z"/>
	</g>
	<g>
		<path class="st0" d="M881.2,50.3c0,7.9-8.6,16.6-16.6,16.6c-7.9,0-17.8-8.8-17.8-16.7c0-7.9,9.8-16.4,17.8-16.4
			C872.6,33.7,881.2,42.4,881.2,50.3z"/>
		<path d="M847.4,50.2c0,7.7,9.6,16.2,17.2,16.2c7.6,0,16-8.4,16-16s-8.4-16-16-16S847.4,42.5,847.4,50.2z M864.7,67.4
			c-8.2,0-18.3-9.1-18.3-17.2c0-8.2,10.1-16.9,18.3-16.9c8.2,0,17.1,8.9,17.1,17.1C881.8,58.5,872.9,67.4,864.7,67.4z"/>
	</g>
	<g>
		<path class="st0" d="M888.4,50.5c0,8-8.4,16.4-16.4,16.4s-17.5-8.6-17.5-16.6S864,34,872,34S888.4,42.5,888.4,50.5z"/>
		<path d="M855,50.3c0,7.7,9.3,16.1,17,16.1c7.7,0,15.9-8.2,15.9-15.9s-8.2-15.9-15.9-15.9C864.3,34.6,855,42.6,855,50.3z M872,67.4
			c-8.2,0-18-8.8-18-17.1c0-8.2,9.8-16.8,18-16.8c8.2,0,16.9,8.7,16.9,16.9C888.9,58.7,880.2,67.4,872,67.4z"/>
	</g>
	<g>
		<path class="st0" d="M895.6,50.7c0,8.1-8.3,16.3-16.3,16.3S862,58.6,862,50.6s9.2-16.2,17.3-16.2S895.6,42.6,895.6,50.7z"/>
		<path d="M862.5,50.5c0,7.8,8.9,15.9,16.7,15.9c7.8,0,15.8-8,15.8-15.8s-8-15.8-15.8-15.8C871.4,34.8,862.5,42.7,862.5,50.5z
			 M879.3,67.5c-8.3,0-17.8-8.6-17.8-16.9s9.5-16.7,17.8-16.7s16.8,8.5,16.8,16.8S887.6,67.5,879.3,67.5z"/>
	</g>
	<g>
		<path class="st0" d="M902.8,50.8c0,8.1-8.1,16.2-16.2,16.2c-8.1,0-17-8.2-17-16.3s8.9-16.1,17-16.1
			C894.7,34.6,902.8,42.7,902.8,50.8z"/>
		<path d="M870.1,50.7c0,7.9,8.6,15.8,16.5,15.8s15.7-7.8,15.7-15.7c0-7.9-7.8-15.7-15.7-15.7C878.7,35.1,870.1,42.9,870.1,50.7z
			 M886.6,67.5c-8.4,0-17.5-8.4-17.5-16.8s9.2-16.6,17.5-16.6c8.3,0,16.7,8.3,16.7,16.7C903.3,59.2,895,67.5,886.6,67.5z"/>
	</g>
	<g>
		<path class="st0" d="M910,51c0,8.2-7.9,16.1-16.1,16.1s-16.8-8-16.8-16.2s8.6-16,16.8-16C902.1,34.9,910,42.8,910,51z"/>
		<path d="M877.6,50.9c0,7.9,8.3,15.7,16.2,15.7s15.6-7.7,15.6-15.6s-7.7-15.6-15.6-15.6S877.6,43,877.6,50.9z M893.9,67.6
			c-8.5,0-17.3-8.2-17.3-16.7s8.8-16.5,17.3-16.5s16.6,8.1,16.6,16.6S902.4,67.6,893.9,67.6z"/>
	</g>
	<g>
		<path class="st0" d="M917.2,51.2c0,8.3-7.7,16-16,16s-16.5-7.8-16.5-16s8.2-15.9,16.5-15.9C909.5,35.2,917.2,42.9,917.2,51.2z"/>
		<path d="M885.2,51.1c0,8,8,15.5,16,15.5s15.5-7.5,15.5-15.5s-7.5-15.5-15.5-15.5S885.2,43.1,885.2,51.1z M901.2,67.7
			c-8.5,0-17-8-17-16.5s8.5-16.4,17-16.4s16.5,7.9,16.5,16.5C917.7,59.7,909.7,67.7,901.2,67.7z"/>
	</g>
	<g>
		<path class="st0" d="M924.3,51.4c0,8.3-7.5,15.9-15.9,15.9c-8.3,0-16.3-7.6-16.3-15.9s7.9-15.8,16.3-15.8
			C916.8,35.5,924.3,43,924.3,51.4z"/>
		<path d="M892.7,51.3c0,8.1,7.7,15.4,15.7,15.4s15.3-7.3,15.3-15.3c0-8.1-7.3-15.3-15.3-15.3S892.7,43.3,892.7,51.3z M908.5,67.7
			c-8.6,0-16.8-7.8-16.8-16.4S899.9,35,908.5,35s16.4,7.8,16.4,16.4S917.1,67.7,908.5,67.7z"/>
	</g>
	<g>
		<path class="st0" d="M931.5,51.5c0,8.4-7.3,15.7-15.7,15.7s-16-7.3-16-15.8s7.6-15.7,16-15.7S931.5,43.1,931.5,51.5z"/>
		<path d="M900.3,51.5c0,8.1,7.4,15.3,15.5,15.3S931,59.7,931,51.6s-7.1-15.2-15.2-15.2S900.3,43.4,900.3,51.5z M915.8,67.8
			c-8.7,0-16.5-7.6-16.5-16.3c0-8.7,7.8-16.2,16.5-16.2S932,42.9,932,51.5S924.5,67.8,915.8,67.8z"/>
	</g>
	<g>
		<path class="st0" d="M938.7,51.7c0,8.5-7.1,15.6-15.6,15.6s-15.8-7.1-15.8-15.6s7.3-15.6,15.8-15.6S938.7,43.2,938.7,51.7z"/>
		<path d="M907.8,51.7c0,8.2,7,15.1,15.2,15.1s15.1-6.9,15.1-15.1s-6.9-15.1-15.1-15.1S907.8,43.5,907.8,51.7z M923.1,67.8
			c-8.7,0-16.3-7.4-16.3-16.1s7.5-16.1,16.3-16.1s16.1,7.4,16.1,16.1C939.2,60.5,931.8,67.8,923.1,67.8z"/>
	</g>
	<g>
		<circle class="st0" cx="930.4" cy="51.9" r="15.5"/>
		<path d="M930.4,36.9c-8.3,0-15,6.7-15,15s6.7,15,15,15s15-6.7,15-15S938.7,36.9,930.4,36.9z M930.4,67.9c-8.8,0-16-7.2-16-16
			s7.2-16,16-16s16,7.2,16,16S939.2,67.9,930.4,67.9z"/>
	</g>
</g>
</svg>
