<svg viewBox="0 0 948.6 64.5">
<style type="text/css">
	.st0{fill:#FFFFFF;}
</style>
<g>
	<g>
		<circle class="st0" cx="17.5" cy="25.9" r="17.5"/>
		<path d="M17.5,9.4c9.1,0,16.5,7.4,16.5,16.5s-7.4,16.5-16.5,16.5S1,35,1,25.9S8.4,9.4,17.5,9.4 M17.5,8.4C7.8,8.4,0,16.2,0,25.9
			c0,9.7,7.8,17.5,17.5,17.5S35,35.6,35,25.9S27.2,8.4,17.5,8.4L17.5,8.4z"/>
	</g>
	<g>
		<circle class="st0" cx="50.7" cy="25.8" r="17.5"/>
		<path d="M50.7,9.3c9.1,0,16.5,7.4,16.5,16.5s-7.4,16.5-16.5,16.5s-16.5-7.4-16.5-16.5S41.6,9.3,50.7,9.3 M50.7,8.3
			c-9.7,0-17.5,7.8-17.5,17.5c0,9.7,7.8,17.5,17.5,17.5s17.5-7.8,17.5-17.5C68.2,16.1,60.3,8.3,50.7,8.3L50.7,8.3z"/>
	</g>
	<g>
		<circle class="st0" cx="78" cy="19.2" r="17.5"/>
		<path d="M78,2.7c9.1,0,16.5,7.4,16.5,16.5c0,9.1-7.4,16.5-16.5,16.5s-16.5-7.4-16.5-16.5C61.5,10.1,68.9,2.7,78,2.7 M78,1.7
			c-9.7,0-17.5,7.8-17.5,17.5S68.3,36.7,78,36.7s17.5-7.8,17.5-17.5S87.7,1.7,78,1.7L78,1.7z"/>
	</g>
	<g>
		
			<ellipse transform="matrix(0.1602 -0.9871 0.9871 0.1602 65.3779 131.0426)" class="st0" cx="109.7" cy="27.1" rx="17.5" ry="17.5"/>
		<path d="M109.7,10.6c9.1,0,16.5,7.4,16.5,16.5c0,9.1-7.4,16.5-16.5,16.5s-16.5-7.4-16.5-16.5C93.2,18,100.6,10.6,109.7,10.6
			 M109.7,9.6c-9.7,0-17.5,7.8-17.5,17.5s7.8,17.5,17.5,17.5s17.5-7.8,17.5-17.5S119.3,9.6,109.7,9.6L109.7,9.6z"/>
	</g>
	<g>
		<circle class="st0" cx="146.4" cy="26.5" r="17.5"/>
		<path d="M146.4,10c9.1,0,16.5,7.4,16.5,16.5S155.5,43,146.4,43s-16.5-7.4-16.5-16.5S137.3,10,146.4,10 M146.4,9
			c-9.7,0-17.5,7.8-17.5,17.5c0,9.7,7.8,17.5,17.5,17.5s17.5-7.8,17.5-17.5S156,9,146.4,9L146.4,9z"/>
	</g>
	<g>
		<circle class="st0" cx="183.2" cy="22.9" r="17.5"/>
		<path d="M183.2,6.4c9.1,0,16.5,7.4,16.5,16.5s-7.4,16.5-16.5,16.5s-16.5-7.4-16.5-16.5S174.1,6.4,183.2,6.4 M183.2,5.4
			c-9.7,0-17.5,7.8-17.5,17.5c0,9.7,7.8,17.5,17.5,17.5s17.5-7.8,17.5-17.5C200.7,13.2,192.8,5.4,183.2,5.4L183.2,5.4z"/>
	</g>
	<g>
		<circle class="st0" cx="219.5" cy="17.5" r="17.5"/>
		<path d="M219.5,1c9.1,0,16.5,7.4,16.5,16.5S228.6,34,219.5,34S203,26.6,203,17.5S210.4,1,219.5,1 M219.5,0
			C209.8,0,202,7.8,202,17.5c0,9.7,7.8,17.5,17.5,17.5S237,27.2,237,17.5C237,7.9,229.2,0,219.5,0L219.5,0z"/>
	</g>
	<g>
		<circle class="st0" cx="256.1" cy="21.3" r="17.5"/>
		<path d="M256.1,4.8c9.1,0,16.5,7.4,16.5,16.5s-7.4,16.5-16.5,16.5s-16.5-7.4-16.5-16.5S247,4.8,256.1,4.8 M256.1,3.8
			c-9.7,0-17.5,7.8-17.5,17.5c0,9.7,7.8,17.5,17.5,17.5s17.5-7.8,17.5-17.5C273.6,11.7,265.8,3.8,256.1,3.8L256.1,3.8z"/>
	</g>
	<g>
		<circle class="st0" cx="291.8" cy="27.9" r="17.5"/>
		<path d="M291.8,11.4c9.1,0,16.5,7.4,16.5,16.5s-7.4,16.5-16.5,16.5s-16.5-7.4-16.5-16.5S282.7,11.4,291.8,11.4 M291.8,10.4
			c-9.7,0-17.5,7.8-17.5,17.5c0,9.7,7.8,17.5,17.5,17.5s17.5-7.8,17.5-17.5S301.5,10.4,291.8,10.4L291.8,10.4z"/>
	</g>
	<g>
		<circle class="st0" cx="320.6" cy="23.4" r="17.5"/>
		<path d="M320.6,6.9c9.1,0,16.5,7.4,16.5,16.5s-7.4,16.5-16.5,16.5s-16.5-7.4-16.5-16.5S311.5,6.9,320.6,6.9 M320.6,5.9
			c-9.7,0-17.5,7.8-17.5,17.5c0,9.7,7.8,17.5,17.5,17.5s17.5-7.8,17.5-17.5S330.2,5.9,320.6,5.9L320.6,5.9z"/>
	</g>
	<g>
		<circle class="st0" cx="349.4" cy="26.3" r="17.5"/>
		<path d="M349.4,9.8c9.1,0,16.5,7.4,16.5,16.5s-7.4,16.5-16.5,16.5s-16.5-7.4-16.5-16.5C332.9,17.2,340.3,9.8,349.4,9.8 M349.4,8.8
			c-9.7,0-17.5,7.8-17.5,17.5c0,9.7,7.8,17.5,17.5,17.5s17.5-7.8,17.5-17.5S359,8.8,349.4,8.8L349.4,8.8z"/>
	</g>
	<g>
		<circle class="st0" cx="373.5" cy="27.8" r="17.5"/>
		<path d="M373.5,11.3c9.1,0,16.5,7.4,16.5,16.5s-7.4,16.5-16.5,16.5c-9.1,0-16.5-7.4-16.5-16.5C357,18.7,364.4,11.3,373.5,11.3
			 M373.5,10.3c-9.7,0-17.5,7.8-17.5,17.5c0,9.7,7.8,17.5,17.5,17.5S391,37.5,391,27.8S383.2,10.3,373.5,10.3L373.5,10.3z"/>
	</g>
	<g>
		<circle class="st0" cx="405" cy="23.4" r="17.5"/>
		<path d="M405,6.9c9.1,0,16.5,7.4,16.5,16.5s-7.4,16.5-16.5,16.5s-16.5-7.4-16.5-16.5S395.9,6.9,405,6.9 M405,5.9
			c-9.7,0-17.5,7.8-17.5,17.5c0,9.7,7.8,17.5,17.5,17.5s17.5-7.8,17.5-17.5C422.5,13.8,414.7,5.9,405,5.9L405,5.9z"/>
	</g>
	<g>
		<circle class="st0" cx="441.8" cy="25.9" r="17.5"/>
		<path d="M441.8,9.4c9.1,0,16.5,7.4,16.5,16.5s-7.4,16.5-16.5,16.5s-16.5-7.4-16.5-16.5S432.7,9.4,441.8,9.4 M441.8,8.4
			c-9.7,0-17.5,7.8-17.5,17.5c0,9.7,7.8,17.5,17.5,17.5s17.5-7.8,17.5-17.5S451.5,8.4,441.8,8.4L441.8,8.4z"/>
	</g>
	<g>
		<circle class="st0" cx="478.9" cy="25.9" r="17.5"/>
		<path d="M478.9,9.4c9.1,0,16.5,7.4,16.5,16.5s-7.4,16.5-16.5,16.5s-16.5-7.4-16.5-16.5S469.8,9.4,478.9,9.4 M478.9,8.4
			c-9.7,0-17.5,7.8-17.5,17.5c0,9.7,7.8,17.5,17.5,17.5s17.5-7.8,17.5-17.5S488.5,8.4,478.9,8.4L478.9,8.4z"/>
	</g>
	<g>
		<circle class="st0" cx="515.7" cy="25.8" r="17.5"/>
		<path d="M515.7,9.3c9.1,0,16.5,7.4,16.5,16.5s-7.4,16.5-16.5,16.5s-16.5-7.4-16.5-16.5C499.2,16.7,506.6,9.3,515.7,9.3 M515.7,8.3
			c-9.7,0-17.5,7.8-17.5,17.5c0,9.7,7.8,17.5,17.5,17.5s17.5-7.8,17.5-17.5S525.3,8.3,515.7,8.3L515.7,8.3z"/>
	</g>
	<g>
		<circle class="st0" cx="552.7" cy="26.3" r="17.5"/>
		<path d="M552.7,9.8c9.1,0,16.5,7.4,16.5,16.5s-7.4,16.5-16.5,16.5s-16.5-7.4-16.5-16.5C536.2,17.2,543.6,9.8,552.7,9.8 M552.7,8.8
			c-9.7,0-17.5,7.8-17.5,17.5c0,9.7,7.8,17.5,17.5,17.5s17.5-7.8,17.5-17.5S562.4,8.8,552.7,8.8L552.7,8.8z"/>
	</g>
	<g>
		<circle class="st0" cx="589.6" cy="30.6" r="17.5"/>
		<path d="M589.6,14.1c9.1,0,16.5,7.4,16.5,16.5s-7.4,16.5-16.5,16.5s-16.5-7.4-16.5-16.5S580.5,14.1,589.6,14.1 M589.6,13.1
			c-9.7,0-17.5,7.8-17.5,17.5s7.8,17.5,17.5,17.5s17.5-7.8,17.5-17.5C607.1,21,599.3,13.1,589.6,13.1L589.6,13.1z"/>
	</g>
	<g>
		<circle class="st0" cx="626.2" cy="36.1" r="17.5"/>
		<path d="M626.2,19.6c9.1,0,16.5,7.4,16.5,16.5s-7.4,16.5-16.5,16.5s-16.5-7.4-16.5-16.5S617.1,19.6,626.2,19.6 M626.2,18.6
			c-9.7,0-17.5,7.8-17.5,17.5s7.8,17.5,17.5,17.5s17.5-7.8,17.5-17.5S635.9,18.6,626.2,18.6L626.2,18.6z"/>
	</g>
	<g>
		<circle class="st0" cx="663" cy="34.1" r="17.5"/>
		<path d="M663,17.6c9.1,0,16.5,7.4,16.5,16.5s-7.4,16.5-16.5,16.5s-16.5-7.4-16.5-16.5S653.9,17.6,663,17.6 M663,16.6
			c-9.7,0-17.5,7.8-17.5,17.5s7.8,17.5,17.5,17.5s17.5-7.8,17.5-17.5S672.6,16.6,663,16.6L663,16.6z"/>
	</g>
	<g>
		<circle class="st0" cx="699.6" cy="27.7" r="17.5"/>
		<path d="M699.6,11.2c9.1,0,16.5,7.4,16.5,16.5c0,9.1-7.4,16.5-16.5,16.5s-16.5-7.4-16.5-16.5C683.1,18.6,690.5,11.2,699.6,11.2
			 M699.6,10.2c-9.7,0-17.5,7.8-17.5,17.5s7.8,17.5,17.5,17.5s17.5-7.8,17.5-17.5S709.3,10.2,699.6,10.2L699.6,10.2z"/>
	</g>
	<g>
		<circle class="st0" cx="736.7" cy="25.9" r="17.5"/>
		<path d="M736.7,9.4c9.1,0,16.5,7.4,16.5,16.5s-7.4,16.5-16.5,16.5s-16.5-7.4-16.5-16.5S727.6,9.4,736.7,9.4 M736.7,8.4
			c-9.7,0-17.5,7.8-17.5,17.5c0,9.7,7.8,17.5,17.5,17.5s17.5-7.8,17.5-17.5S746.3,8.4,736.7,8.4L736.7,8.4z"/>
	</g>
	<g>
		<circle class="st0" cx="773.8" cy="25.9" r="17.5"/>
		<path d="M773.8,9.4c9.1,0,16.5,7.4,16.5,16.5s-7.4,16.5-16.5,16.5s-16.5-7.4-16.5-16.5S764.7,9.4,773.8,9.4 M773.8,8.4
			c-9.7,0-17.5,7.8-17.5,17.5c0,9.7,7.8,17.5,17.5,17.5s17.5-7.8,17.5-17.5S783.5,8.4,773.8,8.4L773.8,8.4z"/>
	</g>
	<g>
		<circle class="st0" cx="810.6" cy="22.6" r="17.5"/>
		<path d="M810.6,6.1c9.1,0,16.5,7.4,16.5,16.5c0,9.1-7.4,16.5-16.5,16.5s-16.5-7.4-16.5-16.5S801.5,6.1,810.6,6.1 M810.6,5.1
			c-9.7,0-17.5,7.8-17.5,17.5s7.8,17.5,17.5,17.5s17.5-7.8,17.5-17.5S820.3,5.1,810.6,5.1L810.6,5.1z"/>
	</g>
	<g>
		<circle class="st0" cx="847.5" cy="20.2" r="17.5"/>
		<path d="M847.5,3.7c9.1,0,16.5,7.4,16.5,16.5c0,9.1-7.4,16.5-16.5,16.5S831,29.3,831,20.2C831,11.1,838.4,3.7,847.5,3.7
			 M847.5,2.7c-9.7,0-17.5,7.8-17.5,17.5s7.8,17.5,17.5,17.5S865,29.9,865,20.2S857.1,2.7,847.5,2.7L847.5,2.7z"/>
	</g>
	<g>
		<circle class="st0" cx="883.7" cy="23.8" r="17.5"/>
		<path d="M883.7,7.3c9.1,0,16.5,7.4,16.5,16.5s-7.4,16.5-16.5,16.5s-16.5-7.4-16.5-16.5S874.6,7.3,883.7,7.3 M883.7,6.3
			c-9.7,0-17.5,7.8-17.5,17.5c0,9.7,7.8,17.5,17.5,17.5c9.7,0,17.5-7.8,17.5-17.5C901.2,14.1,893.4,6.3,883.7,6.3L883.7,6.3z"/>
	</g>
	<g>
		<circle class="st0" cx="919.5" cy="25.9" r="17.5"/>
		<path d="M919.5,9.4c9.1,0,16.5,7.4,16.5,16.5s-7.4,16.5-16.5,16.5S903,35,903,25.9S910.4,9.4,919.5,9.4 M919.5,8.4
			c-9.7,0-17.5,7.8-17.5,17.5c0,9.7,7.8,17.5,17.5,17.5S937,35.6,937,25.9S929.2,8.4,919.5,8.4L919.5,8.4z"/>
	</g>
</g>
</svg>
