<svg viewBox="0 0 393.5 349.8">
<path id="XMLID_28_" d="M94.6,0c-0.8,4.6-1.4,8.7-2.2,12.7C85.8,47,74.8,80.1,64.1,113.3c-14.8,46-30.4,91.7-42.5,138.5
	c-3.8,14.6-7.1,29.3-9.7,44.1c-1.3,7.4-0.8,15.2-0.9,22.8c0,4,1.6,7.3,4.4,10.2c4.4,4.5,9.5,8.3,15.8,9.1c4.9,0.7,10.1,0.2,15.1-0.6
	c17.4-2.8,34.3-8,50.9-13.9c76.5-27.2,152.8-54.7,229.3-81.8c17.3-6.1,34.9-11.2,52.3-17c3.6-1.2,6.2-0.7,8.8,1.9
	c1.6,1.6,3.5,3,5.9,5c-4.9,1.5-8.8,2.8-12.7,4c-51.3,15.5-101.5,34.1-151.9,52.4c-40.8,14.8-81.7,29.3-122.6,43.8
	c-12.8,4.6-25.7,8.9-38.6,13.3c-11.8,4-23.9,5.9-36.4,3.8c-2.5-0.4-5.1-0.2-7.6-0.7c-13.5-2.8-21.3-12.5-23.2-27.4
	c-1.3-10.6,0.4-21,1.6-31.4c2.5-22.9,9.8-44.7,16.4-66.5c13.3-43.8,27.4-87.3,41.2-131c9-28.6,17.6-57.3,23.9-86.6
	c1-4.7,1.2-4.8,6.1-5.3C91-0.1,92.3,0,94.6,0z"/>
</svg>
