<svg viewBox="0 0 172.8 665.1">
<path id="XMLID_29_" d="M161.8,10.3c-4.3,1.7-7.5,2.5-10.2,4.1C141.4,20.3,131,26,121.3,32.7C85.5,57.1,52.2,84.8,21.2,115
	c-1,1-2.1,2-3.4,3.2c-1.3-0.9-2.6-1.9-3.9-2.8c-1.3-0.9-2.6-1.9-4.4-3.1c2.4-2.6,4.4-5.1,6.7-7.3C39.7,81.4,65.5,60.3,92,40.2
	c14.9-11.3,30.2-22.1,46.6-31.2c5.8-3.2,12-6.2,18.3-8.2c9.2-2.8,15.5,2,15.9,11.6c0.2,4.8-0.2,9.9-1.5,14.6
	c-5,18.8-10.3,37.5-15.8,56.1c-13.3,45.3-26.8,90.6-40.3,135.8c-3.8,12.9-6.6,26-9.2,39.2c-2.1,10.7-5,21.2-8.5,31.5
	c-14.7,44-25.2,89.1-35.5,134.2C48.9,481,36.7,538.4,24.3,595.7c-3.8,17.7-6.9,35.7-10.5,53.5c-0.8,3.9-2,7.7-3.3,11.5
	c-1.3,3.7-4.1,5.2-7.1,4.1c-2.7-1-4-3.7-3.1-7.2c9.5-35.9,14.4-72.7,22.6-108.8c8.3-35.9,15.9-72,24-108
	c4.3-19.1,9.2-38.1,13.9-57.2c14.7-59.8,30-119.4,47.2-178.4c14.4-49.3,29.5-98.5,44-147.8c3.8-12.9,6.7-26,9.8-39.1
	C162.3,16.3,161.8,13.9,161.8,10.3z"/>
</svg>
