<svg viewBox="0 0 341 258.7">
<path id="XMLID_27_" d="M10.5,231.3c5.6,2.9,10.8,3.3,16.1,3.4c15.1,0.1,30.2,0.5,45.2-0.2c34.7-1.4,69.3-3,104-5.2
	c32.1-2,64.1-5.1,96.2-7.4c17.4-1.2,34.8-1.8,52.3-2.6c2.1-0.1,4.3,0,7.3,0c-1.1,4-2,7.2-3,10.5c-1.9,0.1-3.3,0.2-4.8,0.3
	c-21.9,1.3-43.9,2.3-65.8,3.8c-31.5,2.2-63,5.2-94.6,7.1c-34.3,2-68.6,3.3-102.9,4.6c-12.2,0.4-24.3,0.1-36.5-0.3
	c-4.3-0.1-8.7-0.9-12.9-2.1c-10.7-3-13.8-9.9-8.8-20c2.1-4.2,4.6-8.3,7.5-12c7.9-10.4,15.8-20.9,24.2-30.9
	C70.9,136.7,108.7,94,148.4,53c14.3-14.7,28.2-29.9,42.3-44.8c1.7-1.8,3.5-3.7,5.6-5.2c1.7-1.2,3.8-2.1,5.8-2.8
	c2.1-0.7,3.9,0.1,5.1,2.1c1.2,2,0.6,3.8-0.9,5.4c-7.7,8.2-15.5,16.4-23.1,24.6c-14.3,15.5-28.3,31.2-42.7,46.6
	c-11,11.8-22.5,23.2-33.6,35c-10.3,11-20.6,22.1-30.4,33.5c-18.3,21.4-36.2,43.1-54.2,64.8c-3.1,3.8-5.7,8-8.4,12.1
	C12.7,226.4,11.8,228.6,10.5,231.3z"/>
</svg>
