<svg viewBox="0 0 105.2 402.9">
<style type="text/css">
	.st0{fill:#3D274E;}
	.st1{fill:#E94654;}
	.st2{fill:#523054;}
	.st3{fill:#784261;}
	.st4{fill:#694364;}
	.st5{fill:#9A566E;}
	.st6{fill:#775471;}
	.st7{fill:#A44F68;}
	.st8{fill:#7C4D6A;}
	.st9{fill:#653859;}
</style>
<g>
	<path class="st0" d="M63.1,132.8c0.7-2.6,1.3-5.2,2.1-7.8c8.2-29.3,17.1-58.3,26.1-87.4c2.2-7,4.2-14.1,5.9-21.3
		c0.5-2.1,0.9-4.2,1-6.3c0-0.8,0-1.5,0-2.3c-0.1-0.7-0.5-1-1.2-0.8c-1.4,0.3-2.8,0.9-4.1,1.5c-4.7,2.3-9.2,5-13.6,7.8
		c-11.2,7.2-21.8,15.1-32.1,23.5c-12.1,9.8-23.9,20-35,31.1c-0.2,0.2-0.4,0.4-0.6,0.6c-0.4,0.3-0.8,0.5-1.3,0.1
		c-0.8-0.6-1.5-1.2-2.3-1.8c-0.6-0.5-1.9-0.5-1.9-1.5c0-0.9,0.9-1.4,1.5-2.1c3.2-3.5,6.6-6.8,10.1-10C34.3,41,51.5,26.8,70.1,14.2
		c5.4-3.7,11-7.2,16.8-10.3c1.8-0.9,3.6-1.8,5.5-2.6c1.5-0.7,3.1-1.1,4.8-1.3c3.7-0.3,6.4,1.5,7.5,5c0.8,2.6,0.6,5.2,0.2,7.8
		c-0.7,5.1-2.1,10-3.5,15c-3.2,11.6-6.9,23-10.4,34.5c-7.2,23.4-14.1,46.9-20.8,70.5c-0.3,1.1-0.7,2.2-1.1,3.3
		c-1.6-0.1-3-1.7-4.7-0.3c-0.2,0.1-0.5,0.3-0.7,0.4c-0.3,0.1-0.5,0.1-0.8,0.1c-0.6-0.4-0.6-0.8-0.3-1.4l0,0
		C63.2,134.2,62.8,133.4,63.1,132.8z"/>
	<path class="st0" d="M42.9,235.3c-1,4.3-2,8.7-3.1,13c-4.3,17.4-8.1,34.9-12,52.4c-3.1,13.9-6,27.8-9,41.7
		c-3.1,14.3-5.8,28.6-8.5,43c-0.8,4.4-1.7,8.7-3.1,13c-0.3,0.9-0.6,1.9-1,2.7c-0.9,1.6-2.6,2.2-4.2,1.5c-1.4-0.6-2.2-2.1-1.9-3.8
		c0.1-0.4,0.2-0.8,0.3-1.1c1.9-5.6,2.9-11.4,4-17.2c3-17,6.5-33.8,10.2-50.7c4.7-21.7,9.5-43.3,14.4-64.9
		c2.4-10.8,5.2-21.5,7.8-32.2c1.9,0.7,3.8,1.3,5.9,1.1C43.1,234.2,43.3,234.7,42.9,235.3z"/>
	<path class="st1" d="M42.3,233.9c-2.3,1.4-4,0.5-5.6-1.3c-0.1-1.5,0.3-2.9,0.7-4.3c2.8-9.2,4.8-18.5,7.2-27.7
		c0.7-2.6,1.4-5.2,2.1-7.8c0.8-0.8,0.6-2,1.1-3c0.3-1.8,1-3.4,1.4-5.2c0-0.4,0.1-0.8,0.3-1.2c0.6-1.5,0.9-3,1.4-4.5
		c0-0.4,0.1-0.8,0.2-1.1c0.1-0.4,0.4-0.7,0.4-1.1s0.1-0.8,0.3-1.1c0.2-0.4,0.3-0.8,0.3-1.2c2.2-7.9,4.6-15.7,6.4-23.7
		c0.1-0.6,0.5-1.1,0.5-1.7c0-0.4,0.1-0.9,0.3-1.3c0.6-2.8,1.5-5.6,2.1-8.4c0.6-1.2,0.5-2.6,1.6-3.5l0,0c0.2-0.2,0.3-0.3,0.4-0.6
		c2.5-1.7,3.1-1.7,5.4,0.6c0.1,0.9,0,1.7-0.2,2.6c-1.6,5.2-2.6,10.5-3.5,15.8c-0.9,5.6-2.5,10.9-4.1,16.3
		c-1.7,5.7-3.5,11.3-5.3,16.9c-2.6,7.8-4.5,15.8-6.6,23.7c-1.6,6.3-3.3,12.5-5,18.8c0,0.2-0.2,0.3-0.3,0.5
		C43.4,231.6,43.8,233.3,42.3,233.9z"/>
	<path class="st2" d="M51.7,177.8c-0.1,0.3-0.1,0.7-0.2,1c-1.3-0.3-0.7-1.1-0.5-1.8c-0.1-0.2,0-0.4,0.1-0.5c0.3-0.4,0.3-0.9,0.4-1.3
		c-0.1-0.2,0-0.3,0.1-0.4c0.5-0.5,0.1-1.3,0.5-1.9c0.1-0.5,0.1-1,0.2-1.4c1.9-7.2,3.9-14.3,5.9-21.5c0.1-0.5,0.3-0.9,0.5-1.4
		c0.3-0.4,0.2-0.9,0.4-1.3c-0.1-0.2,0-0.3,0.1-0.5c1.1,0,0.9,0.6,0.6,1.2c-0.1,0.4-0.1,0.8-0.2,1.1c-0.2,0.4-0.2,0.8-0.4,1.2
		c-0.2,2.3-0.7,4.6-1.3,6.8c-1.7,6.1-3.5,12.1-5.3,18.2c-0.1,0.2-0.3,0.4-0.3,0.7c-0.1,0.4-0.2,0.7-0.2,1.1
		C51.9,177.4,51.7,177.6,51.7,177.8z"/>
	<path class="st3" d="M59.8,148.1c-0.1-0.5-0.1-0.9-0.6-1.2c0.1-1.6,0.6-3.1,1.2-4.6c0.3-0.4,0.3-0.9,0.4-1.4
		c-0.1-0.1-0.1-0.2,0.1-0.3c0.4-0.3,0.2-0.9,0.6-1.3c0.2-0.1,0.4-0.1,0.6,0.1C61.4,142.3,60.9,145.3,59.8,148.1z"/>
	<path class="st4" d="M51,177c0.1,0.6-0.1,1.3,0.5,1.8c-0.3,1.6-0.7,3.2-1.5,4.7c-0.1,0.2-0.3,0.3-0.5,0.2c-0.1-0.1-0.1-0.2-0.2-0.2
		C49.6,181.3,50,179.1,51,177z"/>
	<path class="st5" d="M49.7,184.7c-0.6,1.7-1.1,3.5-1.7,5.2c-0.2,0.3-0.4,0.3-0.6,0c0.3-2.2,0.8-4.3,1.7-6.4h0.2
		C49.5,183.9,49.5,184.3,49.7,184.7z"/>
	<path class="st4" d="M62,139.3c-0.2,0-0.4,0-0.5,0c-0.2-0.1-0.3-0.3-0.2-0.4c0-0.2,0.1-0.3,0.1-0.3c0.2-1.4,0.5-2.8,1.2-4
		c0.1,0.4,0.1,0.9,0.6,1.2C63,137.1,62.6,138.2,62,139.3z"/>
	<path class="st6" d="M42.3,233.9c0.6-1.1,1.2-2.3,1.8-3.4c-0.1,1.7-0.4,3.3-1.2,4.8C42.7,234.8,42.7,234.2,42.3,233.9z"/>
	<path class="st7" d="M47.5,189.9c0.2,0,0.4,0,0.6,0c-0.3,1.1-0.2,2.3-1.3,2.9C46.8,191.8,46.9,190.8,47.5,189.9z"/>
	<path class="st4" d="M63.1,132.8c0.1,0.7,0.2,1.4-0.5,1.9C62.5,134,62.6,133.3,63.1,132.8z"/>
	<path class="st8" d="M61.4,138.6c0,0.2,0.1,0.5,0.1,0.7c-0.1,0.5-0.2,0.9-0.6,1.2C60.8,139.8,60.9,139.2,61.4,138.6z"/>
	<path class="st4" d="M52.1,172.9c0.1,0.7,0.2,1.4-0.5,1.9C51.5,174.1,51.6,173.4,52.1,172.9z"/>
	<path class="st4" d="M51.5,175.2c0.1,0.5,0.1,1-0.4,1.3C51,176,51.1,175.5,51.5,175.2z"/>
	<path class="st8" d="M60.8,140.8c0.1,0.5,0.1,1.1-0.4,1.4C60.3,141.7,60.4,141.2,60.8,140.8z"/>
	<path class="st3" d="M59,147.3c0.1,0.5,0.1,1-0.4,1.3C58.5,148.1,58.6,147.7,59,147.3z"/>
	<path class="st4" d="M63.6,135.3c0,0.3-0.1,0.5-0.4,0.6C63.4,135.7,63.5,135.5,63.6,135.3z"/>
	<path class="st9" d="M49.7,184.7c-0.4-0.3-0.4-0.7-0.3-1.1c0.2,0,0.3,0,0.5,0C49.9,183.9,49.8,184.3,49.7,184.7z"/>
	<path class="st3" d="M59.2,150.5c-0.1-0.5,0-0.9,0.4-1.2C59.7,149.7,59.6,150.1,59.2,150.5z"/>
	<path class="st4" d="M52.3,176.1c0-0.3,0.1-0.5,0.3-0.7C52.5,175.6,52.4,175.9,52.3,176.1z"/>
	<path class="st4" d="M51.7,177.8c0-0.3,0.1-0.5,0.4-0.7C51.9,177.4,51.8,177.6,51.7,177.8z"/>
</g>
</svg>
