<svg viewBox="0 0 333.5 246.5">
<style type="text/css">
	.st0{fill:#3D274E;}
	.st1{fill:#E94654;}
	.st2{fill:#5D3557;}
	.st3{fill:#804662;}
	.st4{fill:#DFDCE2;}
	.st5{fill:#7A4B69;}
	.st6{fill:#AA6177;}
	.st7{fill:#76405F;}
	.st8{fill:#9D4760;}
	.st9{fill:#944660;}
	.st10{fill:#A95A71;}
	.st11{fill:#98445E;}
	.st12{fill:#964964;}
	.st13{fill:#8D4F6A;}
	.st14{fill:#9E435C;}
</style>
<g>
	<path class="st0" d="M92.3,130.1c-1.3,1.6-2.6,3.3-3.9,4.8c-18.3,20.7-36.6,41.5-54.1,62.9c-6.1,7.4-11.9,15-17.4,22.9
		c-2,2.9-4,5.8-5.2,9.1c-0.5,1.4-0.2,2.3,1,2.7c1.7,0.5,3.4,1,5.1,1.3c8.5,1.5,17.2,1.6,25.8,1.5c15-0.2,30-0.8,45.1-1.3
		c11-0.4,22-0.7,33.1-1.3c15-0.8,30-1.6,45-2.6c9.9-0.6,19.8-1.3,29.7-2.1c9.9-0.7,19.8-1.6,29.6-2.3c11.5-0.9,22.9-1.9,34.4-2.8
		c11-0.9,22-1.7,33-2.5c6.4-0.5,12.8-0.8,19.1-1.1c5.8-1,11.7-0.2,17.5-0.4c1.6-0.1,2.7,0.9,2.4,2.2c-0.8,3.5-0.3,7.8-4.8,9.6
		c-8.8-0.3-17.6,0.1-26.4,0.6c-11.8,0.7-23.6,1.6-35.4,2.5c-10.5,0.8-21,1.7-31.5,2.6c-8.9,0.7-17.8,1.5-26.8,2.2
		c-10,0.8-20.1,1.5-30.1,2.2c-16.4,1.2-32.9,2.2-49.3,2.9c-16.9,0.7-33.9,1.5-50.8,2.1c-15.7,0.6-31.3,0.8-47,0.5
		c-5.8-0.1-11.5-0.7-17.1-1.9c-2.5-0.6-4.9-1.3-7.2-2.6c-4.9-2.8-7-7.4-5.8-13c0.7-3.2,2.1-6.1,3.8-8.8c2.4-3.8,4.9-7.5,7.5-11.1
		c8.5-11.8,17.7-23.1,27.2-34.1c14-16.2,28.1-32.3,42.2-48.5c0.9-1.1,2-2.1,3-3.1c2.7-0.1,1.9,2.8,3.2,3.8
		C88.4,128.8,90.8,128.6,92.3,130.1z"/>
	<path class="st1" d="M92.3,130.1c-2.4,0.4-4.6,0-6.3-1.9c-1.4-3.5-0.4-6.3,2.2-9c4.2-4.4,8.1-9,12.5-13.3
		c11.2-12.2,22.3-24.4,33.6-36.5c2-2.3,3.9-4.6,6.1-6.6c1.6-1.2,2-3.3,3.5-4.5c0.5-0.4,1-0.8,1.4-1.3s0.9-0.9,1.4-1.4
		c3.1-3.4,6.9-6.2,9.5-10.1c5.7-6,11.4-12,17-18.1c5.1-5.5,10.1-11.1,15-16.7c2.4-2.7,4.9-5.4,7.8-7.7c1.8-1.4,3.6-2.6,6.1-2.4
		c5.3,2.2,5.9,3.8,3.7,8.7c-1.2,1.2-2.4,2.4-3.6,3.6c-1.6,1.7-3.6,3-4.7,5.1l0,0c-0.4,0.4-0.6,1-1.1,1.4c-0.4,0.4-0.8,0.9-1.3,1.3
		c-1.5,1.7-3.4,3.2-4.6,5.2c-5.5,5.8-11,11.6-16.4,17.5c-8.4,9-17,17.8-25,27.2c-13.6,16-27.8,31.3-43,45.8c-3,2.9-5.8,6-8.7,8.9
		C95.7,126.8,94,128.4,92.3,130.1z"/>
	<path class="st2" d="M135,69.8c-2.1,3-4.5,5.7-7.1,8.3c-6.5,6.4-12.5,13.2-18.4,20c-2.5,2.9-5.1,5.7-8.1,8
		c-0.9,0.1-1.4-0.2-1.1-1.2c5.2-5.8,10.3-11.6,15.6-17.4c4.8-5.3,9.7-10.5,14.6-15.7c1.1-1.1,2.3-2.2,3.4-3.3
		C134.8,68.4,135.2,68.8,135,69.8z"/>
	<path class="st3" d="M100.2,105c0.4,0.4,0.7,0.8,1.1,1.2c-0.6,1.4-1.8,2.2-2.8,3.2c-3.3,3.5-6.6,7-9.8,10.5c-2.3,2.5-3.2,5-2.7,8.2
		c-1-0.5-1-1.5-1.1-2.4c0-1-0.1-1.9-1-2.4c0.4-0.7,0.8-1.4,1.3-1.9c4.5-5.1,9.1-10.1,13.6-15.2C99.2,105.7,99.7,105.4,100.2,105z"/>
	<path class="st4" d="M327.6,230.8c1.8-1.2,2.1-3.1,2.6-5c1.8-6.4,2.9-6.5-4.8-6.4c-4.3,0-8.6,0-12.9,0c0.5-0.7,1.3-0.9,2.1-0.9
		c5.1,0,10.2,0,15.3-0.1c0.5,0,1,0,1.4,0.1c1.4,0.3,2.3,1.2,2.2,2.7c-0.1,3.1-1.3,5.9-2.6,8.6C330.5,231.2,328.9,231.2,327.6,230.8z
		"/>
	<path class="st5" d="M205.7,9.2c0.1-0.8,0.2-1.6,0.3-2.3c0.2-2.2-0.6-4-2.5-5.2c-0.5-0.3-1-0.8-1.4-1.2c1.2-1,2.4-0.4,3.5,0.1
		c1.1,0.4,1.8,1.3,2.3,2.3C208.8,5,208.2,7,205.7,9.2z"/>
	<path class="st6" d="M156.1,45.4c0,1-0.4,1.9-1.1,2.6c-2.8,2.8-5.3,5.9-8.5,8.3c-0.3,0.1-0.5,0.3-0.8,0.4l-0.3-0.4
		C148.6,52.3,152.2,48.7,156.1,45.4z"/>
	<path class="st7" d="M135,69.8c-0.4-0.4-0.8-0.7-1.2-1.1c1.9-2.7,4.2-5,6.7-7.1c0.5,0.4,0.5,0.9,0.1,1.4
		C138.9,65.3,137.2,67.7,135,69.8z"/>
	<path class="st8" d="M190.5,25.7c0.5-2.9,2.8-4.4,4.8-6.1c0.3,0.2,0.4,0.4,0.3,0.6c-0.1,0.2-0.2,0.3-0.3,0.3
		C194.1,22.6,192.3,24.2,190.5,25.7z"/>
	<path class="st9" d="M140.7,62.9c0-0.5-0.1-0.9-0.1-1.4c1.1-1.6,2.3-3.1,4-4.1c0.2,0.2,0.3,0.4,0.2,0.6c-0.1,0.2-0.1,0.3-0.2,0.3
		C143.3,59.8,142.6,61.9,140.7,62.9z"/>
	<path class="st10" d="M197.4,17.9c0.4-2.8,2.3-4.2,4.7-5.1C200.9,14.9,199.7,16.9,197.4,17.9z"/>
	<path class="st11" d="M144.6,58.3c0-0.3-0.1-0.6,0-0.9c0.3-0.4,0.6-0.7,0.9-1.1l0.1,0.3l0.2,0.3l-0.2,0.3
		C145.2,57.6,144.9,58,144.6,58.3z"/>
	<path class="st12" d="M195.3,20.6c0-0.3,0-0.6,0-0.9c0.3-0.3,0.6-0.6,0.9-1c0.3,0.2,0.5,0.4,0.4,0.6c-0.1,0.2-0.2,0.3-0.3,0.3
		C196,19.9,195.7,20.2,195.3,20.6z"/>
	<path class="st13" d="M196.3,19.6c0-0.3,0-0.6,0-0.9c0.2-0.5,0.6-0.8,1.1-0.8C197.6,18.8,197,19.2,196.3,19.6z"/>
	<path class="st14" d="M145.5,57.3c0-0.2,0-0.5,0-0.7c0.3-0.1,0.7-0.2,1-0.3C146.2,56.7,145.9,57,145.5,57.3z"/>
</g>
</svg>
